<?xml version="1.0" standalone="no"?>
<!DOCTYPE svg PUBLIC "-//W3C//DTD SVG 1.1//EN" "http://www.w3.org/Graphics/SVG/1.1/DTD/svg11.dtd" >
<svg xmlns="http://www.w3.org/2000/svg" xmlns:xlink="http://www.w3.org/1999/xlink" version="1.1">
<metadata>
Created by FontForge 20170731 at Thu Oct  1 08:31:34 2020
 By Aleksey,,,
Copyright (c) 2020 by Spacetype Ltd. All rights reserved.
</metadata>
<defs>
<font id="Gogh-Thin" horiz-adv-x="0" >
  <font-face 
    font-family="Gogh-Thin"
    font-weight="400"
    font-stretch="normal"
    units-per-em="1000"
    panose-1="0 0 2 0 0 0 0 0 0 0"
    ascent="703"
    descent="-297"
    x-height="505"
    cap-height="700"
    bbox="-500 -328 1280 962"
    underline-thickness="50"
    underline-position="-150"
    unicode-range="U+000D-FB02"
  />
<missing-glyph horiz-adv-x="869" 
d="M742 740v-780h-614v780h614zM656 40v620h-442v-620h442zM435 589q70 0 113 -35.5t43 -96.5q0 -40 -20 -69.5t-57 -60.5q-27 -23 -36 -39.5t-9 -44.5v-18h-78v27q0 42 15.5 67.5t55.5 57.5q48 38 48 74q0 27 -21 45.5t-59 18.5q-61 0 -107 -67l-55 46q63 95 167 95z
M395 170q14 13 35 13t35.5 -13.5t14.5 -34.5t-14 -34q-15 -14 -36 -14t-35.5 13.5t-14.5 34.5t15 35z" />
    <glyph glyph-name="fi" unicode="fi" horiz-adv-x="659" 
d="M543 505v-505h-30v476h-319v-476h-30v476h-123v29h123v68q0 85 43 128.5t126 43.5q102 0 179 -60l-16 -24q-70 55 -161 55q-141 0 -141 -143v-68h349z" />
    <glyph glyph-name="fl" unicode="fl" horiz-adv-x="660" 
d="M349 763q108 0 195 -52v-711h-30v693q-65 41 -164 41q-82 0 -119 -36t-37 -115v-78h195v-29h-195v-476h-30v476h-123v29h123v79q0 91 45.5 135t139.5 44z" />
    <glyph glyph-name="f_f" unicode="ff" horiz-adv-x="754" 
d="M549 598v-93h196v-29h-196v-476h-30v476h-325v-476h-30v476h-123v29h123v94q0 71 33 108.5t95 37.5q48 0 103 -28l-12 -26q-47 25 -90 25q-99 0 -99 -118v-93h325v94q0 71 33 108.5t94 37.5q49 0 104 -28l-12 -26q-47 25 -90 25q-99 0 -99 -118z" />
    <glyph glyph-name="f_f_i" unicode="ffi" horiz-adv-x="1013" 
d="M897 505v-505h-30v476h-318v-476h-30v476h-325v-476h-30v476h-123v29h123v94q0 71 33 108.5t95 37.5q48 0 103 -28l-12 -26q-47 25 -90 25q-99 0 -99 -118v-93h325v68q0 85 43 128.5t126 43.5q102 0 178 -60l-16 -24q-68 55 -161 55q-140 0 -140 -143v-68h348z" />
    <glyph glyph-name="f_f_j.liga" unicode="ffj" horiz-adv-x="1013" 
d="M897 505v-592q0 -150 -108 -150q-43 0 -91 20l9 27q43 -18 80 -18q43 0 61.5 28.5t18.5 94.5v561h-318v-476h-30v476h-325v-476h-30v476h-123v29h123v94q0 71 33 108.5t95 37.5q51 0 103 -28l-12 -26q-47 25 -90 25q-99 0 -99 -118v-93h325v68q0 84 43 128t126 44
q103 0 178 -60l-16 -24q-68 55 -161 55q-140 0 -140 -143v-68h348z" />
    <glyph glyph-name="f_f_l" unicode="ffl" horiz-adv-x="1014" 
d="M704 763q106 0 194 -43v-720h-30v701q-69 33 -164 33q-81 0 -118 -36t-37 -115v-78h195v-29h-195v-476h-30v476h-325v-476h-30v476h-123v29h123v94q0 71 33 108.5t95 37.5q51 0 103 -28l-12 -26q-44 25 -90 25q-99 0 -99 -118v-93h325v79q0 91 45.5 135t139.5 44z" />
    <glyph glyph-name="f_f_uni013C.liga" unicode="ff&#x13c;" horiz-adv-x="1014" 
d="M549 583v-78h195v-29h-195v-476h-30v476h-325v-476h-30v476h-123v29h123v94q0 71 33 108.5t95 37.5q51 0 103 -28l-12 -26q-44 25 -90 25q-99 0 -99 -118v-93h325v79q0 91 45.5 135t139.5 44q106 0 194 -43v-720h-30v701q-69 33 -164 33q-81 0 -118 -36t-37 -115z
M881 -56q18 0 28 -13.5t10 -34.5q0 -64 -44 -113l-18 15q29 34 35 80q-3 -1 -10 -1q-14 0 -23.5 9t-9.5 24t9 24.5t23 9.5z" />
    <glyph glyph-name="f_f_t.liga" unicode="fft" horiz-adv-x="1112" 
d="M1079 46l11 -26q-56 -28 -105 -28q-64 0 -98 38t-34 109v337h-304v-476h-30v476h-325v-476h-30v476h-123v29h123v94q0 70 33 108t95 38q49 0 104 -28l-12 -26q-47 25 -91 25q-99 0 -99 -118v-93h325v94q0 71 33 108.5t94 37.5q49 0 104 -28l-12 -26q-47 25 -90 25
q-99 0 -99 -118v-93h304v124h30v-124h183v-29h-183v-337q0 -118 103 -118q44 0 93 25z" />
    <glyph glyph-name="f_f_tcaron.liga" unicode="ff&#x165;" horiz-adv-x="1112" 
d="M986 21q44 0 93 25l11 -26q-56 -28 -105 -28q-64 0 -98 38t-34 109v337h-304v-476h-30v476h-325v-476h-30v476h-123v29h123v94q0 70 33 108t95 38q49 0 104 -28l-12 -26q-47 25 -91 25q-99 0 -99 -118v-93h325v94q0 71 33 108.5t94 37.5q49 0 104 -28l-12 -26
q-47 25 -90 25q-99 0 -99 -118v-93h304v124h30v-124h183v-29h-183v-337q0 -118 103 -118zM1072 740h31l-40 -150h-27z" />
    <glyph glyph-name="f_f_uni0163.liga" unicode="ff&#x163;" horiz-adv-x="1112" 
d="M992 -8l-18 -64q54 11 91.5 -11.5t37.5 -68.5q0 -40 -31 -65t-81 -25q-63 0 -109 38l14 21q38 -33 95 -33q38 0 61 17.5t23 46.5q0 41 -37 54t-86 -3l-9 9l23 85q-55 6 -84 43.5t-29 102.5v337h-304v-476h-30v476h-325v-476h-30v476h-123v29h123v94q0 70 33 108t95 38
q49 0 104 -28l-12 -26q-47 25 -91 25q-99 0 -99 -118v-93h325v94q0 71 33 108.5t94 37.5q49 0 104 -28l-12 -26q-47 25 -90 25q-99 0 -99 -118v-93h304v124h30v-124h183v-29h-183v-337q0 -118 103 -118q44 0 93 25l11 -26q-52 -27 -98 -28z" />
    <glyph glyph-name="f_f_uni021B.liga" unicode="ff&#x21b;" horiz-adv-x="1112" 
d="M1079 46l11 -26q-56 -28 -105 -28q-64 0 -98 38t-34 109v337h-304v-476h-30v476h-325v-476h-30v476h-123v29h123v94q0 70 33 108t95 38q49 0 104 -28l-12 -26q-47 25 -91 25q-99 0 -99 -118v-93h325v94q0 71 33 108.5t94 37.5q49 0 104 -28l-12 -26q-47 25 -90 25
q-99 0 -99 -118v-93h304v124h30v-124h183v-29h-183v-337q0 -118 103 -118q44 0 93 25zM978 -56q18 0 28 -13.5t10 -34.5q0 -64 -44 -113l-18 15q29 34 35 80q-3 -1 -10 -1q-14 0 -23.5 9t-9.5 24t9 24.5t23 9.5z" />
    <glyph glyph-name="f_j.liga" unicode="fj" horiz-adv-x="659" 
d="M543 505v-592q0 -150 -109 -150q-42 0 -91 20l10 27q41 -18 80 -18q43 0 61.5 28.5t18.5 94.5v561h-319v-476h-30v476h-123v29h123v68q0 85 43 128.5t126 43.5q102 0 179 -60l-16 -24q-70 55 -161 55q-141 0 -141 -143v-68h349z" />
    <glyph glyph-name="f_uni013C.liga" unicode="f&#x13c;" horiz-adv-x="660" 
d="M194 583v-78h195v-29h-195v-476h-30v476h-123v29h123v79q0 91 45.5 135t139.5 44q108 0 195 -52v-711h-30v693q-65 41 -164 41q-82 0 -119 -36t-37 -115zM527 -56q18 0 28 -13.5t10 -34.5q0 -64 -44 -113l-18 15q29 34 35 80q-3 -1 -10 -1q-14 0 -23.5 9t-9.5 24t9 24.5
t23 9.5z" />
    <glyph glyph-name="f_t.liga" unicode="ft" horiz-adv-x="757" 
d="M724 46l12 -26q-57 -28 -106 -28q-64 0 -97.5 38t-33.5 109v337h-305v-476h-30v476h-123v29h123v94q0 70 33 108t95 38q49 0 104 -28l-12 -26q-47 25 -91 25q-99 0 -99 -118v-93h305v124h30v-124h183v-29h-183v-337q0 -118 102 -118q44 0 93 25z" />
    <glyph glyph-name="f_tcaron.liga" unicode="f&#x165;" horiz-adv-x="757" 
d="M631 21q44 0 93 25l12 -26q-57 -28 -106 -28q-64 0 -97.5 38t-33.5 109v337h-305v-476h-30v476h-123v29h123v94q0 70 33 108t95 38q49 0 104 -28l-12 -26q-47 25 -91 25q-99 0 -99 -118v-93h305v124h30v-124h183v-29h-183v-337q0 -118 102 -118zM718 740h31l-40 -150h-27
z" />
    <glyph glyph-name="f_uni0163.liga" unicode="f&#x163;" horiz-adv-x="757" 
d="M637 -8l-18 -64q54 11 91.5 -11.5t37.5 -68.5q0 -40 -31 -65t-81 -25q-63 0 -109 38l14 21q38 -33 95 -33q38 0 61 17.5t23 46.5q0 41 -37 54t-86 -3l-9 9l23 85q-112 12 -112 146v337h-305v-476h-30v476h-123v29h123v94q0 70 33 108t95 38q49 0 104 -28l-12 -26
q-47 25 -91 25q-99 0 -99 -118v-93h305v124h30v-124h183v-29h-183v-337q0 -118 102 -118q44 0 93 25l12 -26q-53 -27 -99 -28z" />
    <glyph glyph-name="f_uni021B.liga" unicode="f&#x21b;" horiz-adv-x="757" 
d="M724 46l12 -26q-57 -28 -106 -28q-64 0 -97.5 38t-33.5 109v337h-305v-476h-30v476h-123v29h123v94q0 70 33 108t95 38q49 0 104 -28l-12 -26q-47 25 -91 25q-99 0 -99 -118v-93h305v124h30v-124h183v-29h-183v-337q0 -118 102 -118q44 0 93 25zM623 -56q18 0 28 -13.5
t10 -34.5q0 -64 -44 -113l-18 15q29 34 35 80q-3 -1 -10 -1q-14 0 -23.5 9t-9.5 24t9 24.5t23 9.5z" />
    <glyph glyph-name=".notdef" horiz-adv-x="869" 
d="M742 740v-780h-614v780h614zM656 40v620h-442v-620h442zM435 589q70 0 113 -35.5t43 -96.5q0 -40 -20 -69.5t-57 -60.5q-27 -23 -36 -39.5t-9 -44.5v-18h-78v27q0 42 15.5 67.5t55.5 57.5q48 38 48 74q0 27 -21 45.5t-59 18.5q-61 0 -107 -67l-55 46q63 95 167 95z
M395 170q14 13 35 13t35.5 -13.5t14.5 -34.5t-14 -34q-15 -14 -36 -14t-35.5 13.5t-14.5 34.5t15 35z" />
    <glyph glyph-name="uni0000" horiz-adv-x="600" 
 />
    <glyph glyph-name="uni0000" horiz-adv-x="600" 
 />
    <glyph glyph-name="uni000D" horiz-adv-x="333" 
 />
    <glyph glyph-name="uni000D.1" unicode="&#xd;" horiz-adv-x="262" 
 />
    <glyph glyph-name="space" unicode=" " horiz-adv-x="262" 
 />
    <glyph glyph-name="exclam" unicode="!" horiz-adv-x="245" 
d="M138 700l-2 -556h-27l-2 556h31zM86 25q0 15 10.5 25.5t25.5 10.5t26 -10.5t11 -25.5t-11 -25t-26 -10t-25.5 10t-10.5 25z" />
    <glyph glyph-name="quotedbl" unicode="&#x22;" horiz-adv-x="295" 
d="M217 757h28v-240h-28v240zM50 757h28l-1 -240h-27v240z" />
    <glyph glyph-name="numbersign" unicode="#" horiz-adv-x="670" 
d="M14 185v29h136l76 280h-118v29h126l48 177h31l-48 -177h244l48 177h31l-48 -177h116v-29h-124l-76 -280h124v-29h-132l-50 -185h-31l50 185h-243l-51 -185h-31l50 185h-128zM426 213l76 281h-245l-76 -281h245z" />
    <glyph glyph-name="dollar" unicode="$" horiz-adv-x="589" 
d="M51 101l20 23q90 -93 216 -99v329q-111 31 -161 76t-50 114q0 72 58 116t153 45v89h28v-90q125 -9 213 -105l-20 -22q-81 88 -194 97v-296h1q1 -1 2 -1q114 -31 170.5 -79.5t56.5 -121.5q0 -80 -62.5 -129t-166.5 -52v-92h-28v92q-139 6 -236 106zM314 25
q92 2 145.5 42.5t53.5 107.5q0 60 -47.5 102t-151.5 70v-322zM149 451q41 -37 138 -66v290q-81 0 -130.5 -35.5t-49.5 -95.5q0 -56 42 -93z" />
    <glyph glyph-name="percent" unicode="%" horiz-adv-x="775" 
d="M71 661q42 43 108 43t108 -43t42 -109t-42 -108q-42 -43 -108 -43t-108.5 43t-42.5 108q0 66 43 109zM433 148q0 65 42.5 108t108.5 43t108 -42.5t42 -108.5t-42 -109t-108 -43t-108.5 43t-42.5 109zM459 148q0 -55 35 -90.5t90 -35.5q54 0 88.5 35.5t34.5 90.5
q0 54 -34.5 89.5t-88.5 35.5t-89.5 -35t-35.5 -90zM89 463q35 -36 90 -36q54 0 88.5 35.5t34.5 89.5q0 55 -34.5 90.5t-88.5 35.5t-89.5 -35.5t-35.5 -90.5q0 -54 35 -89zM117 1l506 713l22 -15l-506 -713z" />
    <glyph glyph-name="ampersand" unicode="&#x26;" horiz-adv-x="656" 
d="M98 285q40 50 114 80q-95 91 -95 185q0 66 47 109.5t119 43.5t119 -43t47 -108q0 -122 -185 -197l227 -216q64 86 86 203l29 -5q-24 -127 -93 -218l117 -112l-20 -23l-116 111q-93 -102 -228 -102q-92 0 -150.5 50t-58.5 129q0 62 41 113zM87 173q0 -67 50 -109t130 -42
q122 0 206 93l-239 229q-69 -27 -108 -72t-39 -99zM235 383l8 -8q176 72 176 176q0 53 -38.5 88t-97.5 35t-97 -35t-38 -89q0 -83 87 -167z" />
    <glyph glyph-name="quotesingle" unicode="'" horiz-adv-x="128" 
d="M78 517h-28v240h28v-240z" />
    <glyph glyph-name="parenleft" unicode="(" horiz-adv-x="332" 
d="M45 295q0 264 200 466l20 -20q-190 -196 -190 -446t190 -446l-20 -20q-200 202 -200 466z" />
    <glyph glyph-name="parenright" unicode=")" horiz-adv-x="332" 
d="M68 -151q189 195 189 446t-189 446l20 20q199 -202 199 -466t-199 -466z" />
    <glyph glyph-name="asterisk" unicode="*" horiz-adv-x="353" 
d="M51 660l14 23l99 -58l-1 115h27v-114l99 57l13 -23l-99 -56l99 -57l-13 -23l-99 58v-114h-27l1 114l-99 -58l-14 23l99 57z" />
    <glyph glyph-name="plus" unicode="+" horiz-adv-x="522" 
d="M245 325v184h29v-184h189v-28h-189v-198h-29v198h-186v28h186z" />
    <glyph glyph-name="comma" unicode="," horiz-adv-x="218" 
d="M120 -6q-6 -2 -11 -2q-16 0 -26 10t-10 24q0 15 10.5 25.5t25.5 10.5q17 0 27.5 -13.5t10.5 -35.5q0 -97 -57 -166l-18 15q45 65 48 132z" />
    <glyph glyph-name="hyphen" unicode="-" horiz-adv-x="449" 
d="M395 286v-28h-341v28h341z" />
    <glyph glyph-name="period" unicode="." horiz-adv-x="213" 
d="M70 25q0 15 10.5 25.5t25.5 10.5t26 -10.5t11 -25.5t-11 -25t-26 -10t-25.5 10t-10.5 25z" />
    <glyph glyph-name="slash" unicode="/" horiz-adv-x="433" 
d="M75 -47h-30l313 787h30z" />
    <glyph glyph-name="zero" unicode="0" horiz-adv-x="665" 
d="M133 616q72 96 199 96t199.5 -96.5t72.5 -265.5q0 -168 -72 -265q-73 -97 -200 -97t-199 96.5t-72 265.5t72 266zM91 350q0 -156 64 -244t177 -88t177.5 88t64.5 244t-64.5 244t-177.5 88t-177 -88t-64 -244z" />
    <glyph glyph-name="one" unicode="1" horiz-adv-x="400" 
d="M40 610q71 0 118 20.5t87 69.5h28v-700h-31v654q-40 -39 -87 -56t-115 -17v29z" />
    <glyph glyph-name="two" unicode="2" horiz-adv-x="584" 
d="M326 278q75 68 109 124t34 112q0 73 -51 120.5t-131 47.5q-124 0 -200 -125l-24 16q81 139 224 139q92 0 152.5 -56t60.5 -142q0 -63 -36 -123t-117 -134l-251 -227h426v-30h-474v27z" />
    <glyph glyph-name="three" unicode="3" horiz-adv-x="559" 
d="M46 108l22 18q77 -108 199 -108q86 0 140 52.5t54 134.5q0 101 -66.5 144t-140.5 43q-33 0 -71 -7l-12 21l248 264h-339v30h383v-25l-241 -257q21 3 41 3q87 0 157.5 -55.5t70.5 -159.5q0 -95 -63 -156.5t-161 -61.5q-67 0 -125 31.5t-96 88.5z" />
    <glyph glyph-name="four" unicode="4" horiz-adv-x="620" 
d="M443 700h27v-490h109v-30h-109v-180h-30v180h-403v28zM77 210h363v439z" />
    <glyph glyph-name="five" unicode="5" horiz-adv-x="569" 
d="M55 108l22 19q77 -109 201 -109q85 0 139 54.5t54 140.5q0 89 -59 143t-158 54q-67 0 -145 -25l-16 11l21 304h353v-30h-326l-17 -250q79 20 132 20q111 0 178 -62.5t67 -164.5q0 -98 -62.5 -161.5t-160.5 -63.5q-67 0 -126 32t-97 88z" />
    <glyph glyph-name="six" unicode="6" horiz-adv-x="605" 
d="M61 316q0 193 67.5 293.5t194.5 100.5q112 0 194 -76l-20 -21q-72 67 -174 67q-112 0 -172 -91.5t-60 -266.5v-14q21 70 81.5 112.5t141.5 42.5q104 0 170 -66.5t66 -170.5t-66.5 -171t-169.5 -67q-119 0 -186 80.5t-67 247.5zM103 226q0 -93 58 -150q58 -58 150 -58
t150.5 57.5t58.5 150.5q0 92 -58.5 150t-150.5 58t-150 -58t-58 -150z" />
    <glyph glyph-name="seven" unicode="7" horiz-adv-x="486" 
d="M23 670v30h428v-25l-287 -675h-33l285 670h-393z" />
    <glyph glyph-name="eight" unicode="8" horiz-adv-x="616" 
d="M101 305q41 50 112 68q-63 21 -97.5 63t-34.5 100q0 79 62.5 127.5t164.5 48.5q101 0 163.5 -48.5t62.5 -127.5q0 -58 -34.5 -100.5t-97.5 -62.5q70 -18 111.5 -68t41.5 -118q0 -89 -68 -144t-179 -55q-112 0 -180 55t-68 144q0 68 41 118zM91 188q0 -78 59 -124.5
t158 -46.5q98 0 157.5 46.5t59.5 124.5q0 77 -59.5 123.5t-157.5 46.5q-99 0 -158 -46.5t-59 -123.5zM112 535q0 -67 54 -107.5t142 -40.5t142 40.5t54 107.5t-54 107.5t-142 40.5t-142 -40q-54 -41 -54 -108z" />
    <glyph glyph-name="nine" unicode="9" horiz-adv-x="605" 
d="M55 472q0 104 66.5 171t169.5 67q253 0 253 -328q0 -194 -66.5 -294t-196.5 -100q-116 0 -200 75l18 23q74 -68 181 -68q116 0 175 90.5t59 267.5v14q-21 -70 -81.5 -112.5t-140.5 -42.5q-104 0 -170.5 66.5t-66.5 170.5zM86 472q0 -93 58 -150.5t150 -57.5
q93 0 151 57.5t58 150.5t-58.5 151t-150.5 58t-150 -58t-58 -151z" />
    <glyph glyph-name="colon" unicode=":" horiz-adv-x="233" 
d="M91 51q10 10 25 10t26 -10.5t11 -25.5t-11 -25t-26 -10t-25.5 10t-10.5 25t11 26zM91 341q10 10 25 10t26 -10.5t11 -25.5t-11 -25t-26 -10t-25.5 10t-10.5 25t11 26z" />
    <glyph glyph-name="semicolon" unicode=";" horiz-adv-x="234" 
d="M126 -6q-8 -2 -11 -2q-16 0 -26 10t-10 24q0 15 10.5 25.5t25.5 10.5q17 0 27 -13.5t10 -35.5q0 -99 -56 -166l-19 15q46 64 49 132zM77 315q0 15 11 25.5t26 10.5t25.5 -10.5t10.5 -25.5t-10 -25q-11 -10 -26 -10t-26 10t-11 25z" />
    <glyph glyph-name="less" unicode="&#x3c;" horiz-adv-x="475" 
d="M426 481v-32l-338 -150l338 -150v-31l-382 170v22z" />
    <glyph glyph-name="equal" unicode="=" horiz-adv-x="507" 
d="M448 407v-28h-389v28h389zM59 193v28h389v-28h-389z" />
    <glyph glyph-name="greater" unicode="&#x3e;" horiz-adv-x="475" 
d="M387 300l-338 150v31l382 -170v-22l-382 -170v31z" />
    <glyph glyph-name="question" unicode="?" horiz-adv-x="483" 
d="M234 711q91 0 146 -49.5t55 -130.5q0 -50 -25 -91.5t-81 -85.5q-50 -39 -70 -69t-20 -69v-72h-30v73q0 45 23 80.5t79 79.5q50 39 72 74.5t22 78.5q0 69 -46.5 110.5t-124.5 41.5q-126 0 -191 -121l-24 17q74 133 215 133zM187 25q0 15 11 25.5t26 10.5t25.5 -10.5
t10.5 -25.5t-10 -25q-11 -10 -26 -10t-26 10t-11 25z" />
    <glyph glyph-name="at" unicode="@" horiz-adv-x="1003" 
d="M64 236q0 198 125 318t311 120q198 0 318.5 -115.5t120.5 -292.5q0 -61 -13.5 -105.5t-37 -67.5t-47.5 -33t-51 -10q-50 0 -82 25t-42 66q-20 -51 -66 -80.5t-104 -29.5q-87 0 -141 56t-54 149q0 92 54 148t141 56q115 0 165 -96v85h29v-234q0 -56 26.5 -86.5t73.5 -30.5
q55 0 87 48.5t32 139.5q0 167 -114 273t-295 106q-180 0 -293.5 -114t-113.5 -295q0 -182 113.5 -296t293.5 -114q87 0 158.5 29.5t116.5 81.5l20 -22q-50 -56 -128 -87t-167 -31q-187 0 -311.5 120t-124.5 319zM331 236q0 -81 46 -129t121 -48q73 0 117.5 49.5t44.5 128.5
q0 80 -44 127.5t-118 47.5t-120.5 -47.5t-46.5 -128.5z" />
    <glyph glyph-name="A" unicode="A" horiz-adv-x="677" 
d="M323 700h33l299 -700h-32l-77 179h-414l-78 -179h-32zM144 209h390l-195 454z" />
    <glyph glyph-name="B" unicode="B" horiz-adv-x="673" 
d="M128 700h266q86 0 141 -50t55 -129q0 -54 -27.5 -96.5t-75.5 -62.5q57 -16 91.5 -64t34.5 -112q0 -88 -57 -137t-160 -49h-268v700zM158 345v-316h237q91 0 139 40.5t48 117.5q0 72 -45.5 115t-122.5 43h-256zM158 671v-297h255q63 0 104.5 41.5t41.5 105.5q0 66 -46 108
t-120 42h-235z" />
    <glyph glyph-name="C" unicode="C" horiz-adv-x="741" 
d="M159 610q94 102 240 102q183 0 288 -148l-24 -18q-43 65 -112.5 100.5t-151.5 35.5q-133 0 -218.5 -93t-85.5 -239q0 -145 86 -238.5t221 -93.5q82 0 153.5 38t119.5 107l24 -17q-114 -158 -297 -158q-148 0 -243 102t-95 260t95 260z" />
    <glyph glyph-name="D" unicode="D" horiz-adv-x="760" 
d="M128 0v700h223q162 0 253.5 -93t91.5 -257t-91.5 -257t-253.5 -93h-223zM158 670v-640h192q149 0 232.5 84.5t83.5 235.5t-83.5 235.5t-232.5 84.5h-192z" />
    <glyph glyph-name="E" unicode="E" horiz-adv-x="608" 
d="M128 0v700h412v-30h-382v-296h356v-29h-356v-315h396v-30h-426z" />
    <glyph glyph-name="F" unicode="F" horiz-adv-x="565" 
d="M128 700h394v-30h-364v-315h341v-30h-341v-325h-30v700z" />
    <glyph glyph-name="G" unicode="G" horiz-adv-x="754" 
d="M158 610q93 102 239 102q159 0 269 -118l-21 -21q-47 51 -112.5 80t-135.5 29q-133 0 -217.5 -93t-84.5 -239q0 -152 83.5 -242t225.5 -90q150 0 257 88v224h-285v30h314l1 -268q-54 -49 -129 -76.5t-158 -27.5q-155 0 -247.5 98.5t-92.5 263.5q0 158 94 260z" />
    <glyph glyph-name="H" unicode="H" horiz-adv-x="789" 
d="M128 700h30v-325h473v325h30v-700h-30v345h-473v-345h-30v700z" />
    <glyph glyph-name="I" unicode="I" horiz-adv-x="286" 
d="M158 0h-30v700h30v-700z" />
    <glyph glyph-name="J" unicode="J" horiz-adv-x="477" 
d="M24 15l11 27q65 -24 123 -24q171 0 171 201v481h31v-482q0 -111 -52 -170.5t-150 -59.5q-62 0 -134 27z" />
    <glyph glyph-name="K" unicode="K" horiz-adv-x="646" 
d="M128 0v700h30v-330h142l280 330h39l-292 -344l302 -356h-39l-290 340h-142v-340h-30z" />
    <glyph glyph-name="L" unicode="L" horiz-adv-x="582" 
d="M158 700v-670h376v-30h-406v700h30z" />
    <glyph glyph-name="M" unicode="M" horiz-adv-x="915" 
d="M154 700l304 -374l303 374h26v-700h-30v647l-292 -357h-15l-292 357v-647h-30v700h26z" />
    <glyph glyph-name="N" unicode="N" horiz-adv-x="799" 
d="M128 0v700h27l486 -645v645h31v-700h-28l-486 646v-646h-30z" />
    <glyph glyph-name="O" unicode="O" horiz-adv-x="823" 
d="M162 611q97 101 250 101t250 -101t97 -261t-97 -261t-250 -101q-154 0 -251 100.5t-97 261.5q0 160 98 261zM183 110q88 -92 229 -92t229 92t88 240t-88 240t-229 92t-229 -92t-88 -240t88 -240z" />
    <glyph glyph-name="P" unicode="P" horiz-adv-x="628" 
d="M128 700h233q116 0 179 -57t63 -163t-63 -163.5t-179 -57.5h-203v-259h-30v700zM158 289h202q104 0 158 48.5t54 142.5q0 93 -54 141.5t-158 48.5h-202v-381z" />
    <glyph glyph-name="Q" unicode="Q" horiz-adv-x="823" 
d="M64 350q0 160 97.5 261t250.5 101t250 -101t97 -261q0 -95 -35.5 -171t-99.5 -124l89 -131l-23 -17l-90 131q-83 -50 -188 -50q-154 0 -251 100.5t-97 261.5zM183 110q88 -92 229 -92q97 0 171 45l-149 217l24 17l149 -218q122 93 122 271q0 148 -88 240t-229 92
t-229 -92t-88 -240t88 -240z" />
    <glyph glyph-name="R" unicode="R" horiz-adv-x="680" 
d="M394 700q103 0 163 -56.5t60 -152.5q0 -87 -50 -142t-137 -65l199 -284h-35l-198 282h-238v-282h-30v700h266zM158 311h236q90 0 141 47.5t51 132.5q0 84 -51 131.5t-141 47.5h-236v-359z" />
    <glyph glyph-name="S" unicode="S" horiz-adv-x="589" 
d="M71 124q96 -99 232 -99q97 0 153.5 40.5t56.5 109.5q0 61 -50 103.5t-158 70.5q-121 32 -175 77.5t-54 117.5q0 73 58.5 117t154.5 44q142 0 240 -107l-21 -21q-89 98 -220 98q-82 0 -131.5 -35.5t-49.5 -95.5t48 -98.5t162 -68.5q114 -31 170.5 -79.5t56.5 -121.5
q0 -82 -66 -131.5t-175 -49.5q-149 0 -252 107z" />
    <glyph glyph-name="T" unicode="T" horiz-adv-x="585" 
d="M31 670v30h523v-30h-246v-670h-31v670h-246z" />
    <glyph glyph-name="U" unicode="U" horiz-adv-x="768" 
d="M148 700v-442q0 -112 63.5 -176t172.5 -64t172.5 64t63.5 176v442h30v-443q0 -124 -72 -196q-73 -73 -194 -73t-193.5 72.5t-72.5 196.5v443h30z" />
    <glyph glyph-name="V" unicode="V" horiz-adv-x="667" 
d="M22 700h34l135 -323l143 -338l143 338l135 323h33l-294 -700h-33z" />
    <glyph glyph-name="W" unicode="W" horiz-adv-x="1023" 
d="M29 700h31l216 -656l222 604h29l223 -604l213 656h31l-228 -700h-33l-220 601l-221 -601h-33z" />
    <glyph glyph-name="X" unicode="X" horiz-adv-x="613" 
d="M18 0l270 361l-252 339h37l234 -314l236 314h37l-253 -338l268 -362h-37l-251 336l-93 -126l-158 -210h-38z" />
    <glyph glyph-name="Y" unicode="Y" horiz-adv-x="637" 
d="M25 700h36l257 -393l258 393h36l-278 -425v-275h-30v275z" />
    <glyph glyph-name="Z" unicode="Z" horiz-adv-x="581" 
d="M94 30h438v-30h-477v26l425 644h-414v30h452v-26z" />
    <glyph glyph-name="bracketleft" unicode="[" horiz-adv-x="355" 
d="M306 731v-28h-188v-816h188v-28h-217v872h217z" />
    <glyph glyph-name="backslash" unicode="\" horiz-adv-x="433" 
d="M75 740l313 -787h-30l-313 787h30z" />
    <glyph glyph-name="bracketright" unicode="]" horiz-adv-x="355" 
d="M236 -113v816h-187v28h217v-872h-217v28h187z" />
    <glyph glyph-name="asciicircum" unicode="^" horiz-adv-x="486" 
d="M49 438l183 285h21l184 -285h-34l-160 249l-161 -249h-33z" />
    <glyph glyph-name="underscore" unicode="_" horiz-adv-x="677" 
d="M610 -121v-28h-556v28h556z" />
    <glyph glyph-name="grave" unicode="`" horiz-adv-x="302" 
d="M134 740l68 -148h-31l-71 148h34z" />
    <glyph glyph-name="a" unicode="a" horiz-adv-x="603" 
d="M65 148q0 75 58 120t157 45q87 0 186 -36v56q0 151 -175 151q-90 0 -182 -53l-13 26q97 56 196 56q98 0 151 -46.5t53 -132.5v-334h-30v108q-26 -51 -85.5 -83t-131.5 -32q-82 0 -133 42.5t-51 112.5zM95 148q0 -58 42.5 -92.5t113.5 -34.5q91 0 153 52t62 127v48
q-99 37 -185 37q-87 0 -136.5 -37t-49.5 -100z" />
    <glyph glyph-name="b" unicode="b" horiz-adv-x="689" 
d="M116 740h30v-366q30 67 90.5 105t139.5 38q112 0 183.5 -74.5t71.5 -190.5t-71.5 -190t-183.5 -74q-79 0 -139.5 38t-90.5 104v-130h-30v740zM210 83q63 -66 163 -66t164 65.5t64 169.5t-63.5 169.5t-164.5 65.5t-164 -65.5t-63 -169.5t64 -169z" />
    <glyph glyph-name="c" unicode="c" horiz-adv-x="561" 
d="M127 444q69 73 179 73q134 0 207 -99l-20 -19q-66 88 -187 88q-97 0 -157.5 -65t-60.5 -170t60.5 -170t159.5 -65q123 0 193 95l22 -19q-34 -48 -92 -76.5t-123 -28.5q-111 0 -180.5 73.5t-69.5 190.5q0 118 69 192z" />
    <glyph glyph-name="d" unicode="d" horiz-adv-x="689" 
d="M58 252q0 116 71.5 190.5t184.5 74.5q78 0 138.5 -37.5t90.5 -103.5v364h30v-740h-30v128q-30 -65 -90 -102.5t-139 -37.5q-113 0 -184.5 74t-71.5 190zM88 252q0 -104 64 -169q64 -66 164 -66t163.5 65.5t63.5 169.5t-63 169.5t-164 65.5t-164.5 -65.5t-63.5 -169.5z
" />
    <glyph glyph-name="e" unicode="e" horiz-adv-x="595" 
d="M58 252q0 116 69 190.5t176 74.5q113 0 179 -76t66 -175q0 -14 -1 -29h-459q3 -98 63.5 -159t156.5 -61q117 0 193 91l21 -20q-83 -100 -215 -100q-111 0 -180 73t-69 191zM88 266h430q-2 97 -62 159.5t-153 62.5q-91 0 -151 -62.5t-64 -159.5z" />
    <glyph glyph-name="f" unicode="f" horiz-adv-x="399" 
d="M41 505h123v94q0 70 33 108t95 38q49 0 104 -28l-12 -26q-47 25 -91 25q-99 0 -99 -118v-93h196v-29h-196v-476h-30v476h-123v29z" />
    <glyph glyph-name="g" unicode="g" horiz-adv-x="649" 
d="M60 -156q0 75 75 115q-54 26 -54 77q0 54 65 92q-57 62 -57 154q0 99 64 161t167 62h284v-29h-169q54 -26 84.5 -77t30.5 -118q0 -98 -64 -159.5t-166 -61.5q-90 0 -152 49q-57 -31 -57 -72q0 -39 50 -58.5t174 -26.5q142 -9 197.5 -36.5t55.5 -88.5q0 -67 -63 -104
t-180 -37q-130 0 -207.5 43t-77.5 115zM119 282q0 -86 55 -139.5t146 -53.5q90 0 145 53.5t55 139.5q0 87 -55 140.5t-145 53.5q-91 0 -146 -53.5t-55 -140.5zM159 -250q69 -35 185 -35q104 0 159.5 29t55.5 83q0 46 -49 67t-176 29q-102 6 -165 23q-39 -16 -59 -44t-20 -57
q0 -60 69 -95z" />
    <glyph glyph-name="h" unicode="h" horiz-adv-x="672" 
d="M116 740h30v-361q28 63 83 98t129 35q95 0 150.5 -58.5t55.5 -158.5v-295h-30v293q0 89 -47 139t-131 50q-95 0 -152.5 -60.5t-57.5 -162.5v-259h-30v740z" />
    <glyph glyph-name="i" unicode="i" horiz-adv-x="262" 
d="M116 505h30v-505h-30v505zM107 666q9 9 23 9q16 0 25.5 -9.5t9.5 -24.5t-9.5 -24.5t-25.5 -9.5q-14 0 -23.5 9.5t-9.5 24.5t10 25z" />
    <glyph glyph-name="j" unicode="j" horiz-adv-x="262" 
d="M-53 -217l9 27q43 -18 80 -18q43 0 61.5 28.5t18.5 94.5v590h30v-592q0 -150 -108 -150q-43 0 -91 20zM107 666q9 9 23 9q16 0 25.5 -9.5t9.5 -24.5t-9.5 -24.5t-25.5 -9.5q-14 0 -23.5 9.5t-9.5 24.5t10 25z" />
    <glyph glyph-name="k" unicode="k" horiz-adv-x="539" 
d="M116 0v740h30v-463h108l216 228h39l-227 -241l243 -264h-39l-230 249h-110v-249h-30z" />
    <glyph glyph-name="l" unicode="l" horiz-adv-x="262" 
d="M146 0h-30v740h30v-740z" />
    <glyph glyph-name="m" unicode="m" horiz-adv-x="999" 
d="M116 505h30v-116q26 57 75.5 90t112.5 33q68 0 113 -36t61 -105q23 66 75.5 103.5t122.5 37.5q86 0 136 -57.5t50 -156.5v-298h-30v296q0 88 -41.5 137t-115.5 49q-84 0 -135 -58t-51 -154v-270h-30v296q0 88 -41.5 137t-115.5 49q-83 0 -134.5 -58.5t-51.5 -153.5v-270
h-30v505z" />
    <glyph glyph-name="n" unicode="n" horiz-adv-x="672" 
d="M116 505h30v-126q29 64 83.5 98.5t128.5 34.5q95 0 150.5 -58.5t55.5 -158.5v-295h-30v293q0 89 -47 139t-131 50q-95 0 -152.5 -61t-57.5 -163v-258h-30v505z" />
    <glyph glyph-name="o" unicode="o" horiz-adv-x="632" 
d="M131 443q72 74 185 74t185.5 -74t72.5 -191q0 -116 -72 -190q-73 -74 -186 -74t-185.5 74t-72.5 190q0 117 73 191zM88 252q0 -104 64 -169q63 -66 164 -66t164.5 65.5t63.5 169.5t-63.5 169.5t-164.5 65.5t-164.5 -65.5t-63.5 -169.5z" />
    <glyph glyph-name="p" unicode="p" horiz-adv-x="689" 
d="M116 505h30v-131q30 67 90.5 105t139.5 38q112 0 183.5 -74.5t71.5 -190.5t-71.5 -190t-183.5 -74q-79 0 -139.5 38t-90.5 104v-360h-30v735zM210 83q63 -66 163 -66t164 65.5t64 169.5t-63.5 169.5t-164.5 65.5t-164 -65.5t-63 -169.5t64 -169z" />
    <glyph glyph-name="q" unicode="q" horiz-adv-x="689" 
d="M58 252q0 116 72 190.5t184 74.5q78 0 138.5 -38t90.5 -103v129h30v-735h-30v359q-30 -66 -90.5 -103.5t-138.5 -37.5q-113 0 -184.5 74t-71.5 190zM88 252q0 -104 64 -169q64 -66 164 -66t163.5 65.5t63.5 169.5t-63 169.5t-164 65.5t-164.5 -65.5t-63.5 -169.5z" />
    <glyph glyph-name="r" unicode="r" horiz-adv-x="420" 
d="M116 505h30v-124q46 131 172 131q46 0 95 -18l-10 -29q-47 17 -88 17q-83 0 -126 -66.5t-43 -193.5v-222h-30v505z" />
    <glyph glyph-name="s" unicode="s" horiz-adv-x="471" 
d="M63 93q81 -72 182 -72q71 0 113 28t42 76q0 43 -37.5 71t-120.5 48q-94 22 -136.5 57t-42.5 88q0 56 45.5 90t121.5 34q108 0 190 -78l-18 -22q-71 71 -173 71q-62 0 -99 -25.5t-37 -68.5q0 -44 35 -70t123 -48q95 -24 137 -58.5t42 -88.5q0 -60 -51 -96.5t-135 -36.5
q-113 0 -197 78z" />
    <glyph glyph-name="t" unicode="t" horiz-adv-x="404" 
d="M145 505v124h30v-124h183v-29h-183v-337q0 -118 103 -118q44 0 93 25l11 -26q-56 -28 -105 -28q-64 0 -98 38t-34 109v337h-111v29h111z" />
    <glyph glyph-name="u" unicode="u" horiz-adv-x="672" 
d="M107 505h30v-293q0 -89 47.5 -139.5t131.5 -50.5q95 0 152.5 61t57.5 163v259h30v-505h-30v126q-29 -64 -83.5 -98.5t-129.5 -34.5q-94 0 -150 58.5t-56 157.5v296z" />
    <glyph glyph-name="v" unicode="v" horiz-adv-x="545" 
d="M20 505h32l221 -466l220 466h33l-238 -505h-30z" />
    <glyph glyph-name="w" unicode="w" horiz-adv-x="846" 
d="M26 505h32l173 -463l178 430h28l178 -428l174 461h31l-190 -505h-30l-177 429l-177 -429h-30z" />
    <glyph glyph-name="x" unicode="x" horiz-adv-x="486" 
d="M223 260l-193 245h37l176 -221l175 221h37l-193 -244l208 -261h-38l-190 237l-188 -237h-38z" />
    <glyph glyph-name="y" unicode="y" horiz-adv-x="544" 
d="M53 505l237 -484l73 172l129 312h33l-263 -630q-25 -59 -56 -85t-78 -26q-46 0 -82 20l11 26q33 -17 70 -17q38 0 62 21t46 72l40 97l-255 522h33z" />
    <glyph glyph-name="z" unicode="z" horiz-adv-x="485" 
d="M88 28h353v-28h-391v25l340 451h-330v29h370v-25z" />
    <glyph glyph-name="braceleft" unicode="{" horiz-adv-x="371" 
d="M20 277v36q41 0 59 22.5t18 71.5v169q0 74 38 114.5t108 40.5h99v-28h-97q-118 0 -118 -127v-171q0 -88 -59 -110q59 -22 59 -110v-171q0 -127 118 -127h97v-28h-99q-70 0 -108 40.5t-38 114.5v169q0 49 -18.5 71.5t-58.5 22.5z" />
    <glyph glyph-name="bar" unicode="|" horiz-adv-x="204" 
d="M117 -141h-29v881h29v-881z" />
    <glyph glyph-name="braceright" unicode="}" horiz-adv-x="371" 
d="M30 -113h96q118 0 118 127v171q0 88 59 110q-59 22 -59 110v171q0 127 -118 127h-96v28h98q70 0 108 -40.5t38 -114.5v-169q0 -49 18 -71.5t59 -22.5v-36q-40 0 -58.5 -22.5t-18.5 -71.5v-169q0 -74 -38 -114.5t-108 -40.5h-98v28z" />
    <glyph glyph-name="asciitilde" unicode="~" horiz-adv-x="561" 
d="M68 251q7 65 38 102t78 37q58 0 102 -61q39 -53 81 -53q36 0 58.5 30t28.5 84l29 -3q-7 -65 -38 -102.5t-78 -37.5q-56 0 -101 62q-40 52 -82 52q-36 0 -58.5 -29.5t-28.5 -84.5z" />
    <glyph glyph-name="uni00A0" unicode="&#xa0;" horiz-adv-x="262" 
 />
    <glyph glyph-name="exclamdown" unicode="&#xa1;" horiz-adv-x="245" 
d="M107 -163l2 556h27l2 -556h-31zM97 537q10 10 25 10t26 -10t11 -25t-11 -25.5t-26 -10.5t-25.5 10.5t-10.5 25.5t11 25z" />
    <glyph glyph-name="cent" unicode="&#xa2;" horiz-adv-x="561" 
d="M58 252q0 114 65 187t170 78v90h28v-90q123 -6 192 -100l-20 -20q-62 84 -172 90v-470q115 6 180 93l22 -19q-32 -45 -86 -72.5t-116 -30.5v-90h-28v90q-105 5 -170 78t-65 186zM145 87q56 -65 149 -70v470q-93 -5 -149.5 -69t-56.5 -166q0 -101 57 -165z" />
    <glyph glyph-name="sterling" unicode="&#xa3;" horiz-adv-x="544" 
d="M42 324v28h116q-5 13 -20 47.5t-22.5 62t-7.5 60.5q0 84 50.5 135.5t141.5 51.5q132 0 193 -122l-25 -15q-31 58 -71 83t-96 25q-81 0 -121.5 -44t-40.5 -112q0 -35 8 -62.5t23 -60t21 -49.5h244v-28h-236q6 -27 6 -61q0 -54 -16.5 -103.5t-65.5 -129.5h379v-30h-419v24
q55 86 73 135t18 105q0 28 -7 60h-125z" />
    <glyph glyph-name="currency" unicode="&#xa4;" horiz-adv-x="609" 
d="M67 492l20 20l68 -69q60 55 150 55t150 -54l68 68l19 -20l-68 -68q52 -61 52 -150t-52 -150l68 -68l-20 -20l-68 68q-62 -54 -149 -54t-150 55l-69 -69l-19 20l69 69q-53 63 -53 149q0 88 52 149zM166 133q55 -56 139 -56t138.5 55t54.5 142t-54.5 142t-138.5 55
t-139 -56t-55 -141t55 -141z" />
    <glyph glyph-name="yen" unicode="&#xa5;" horiz-adv-x="637" 
d="M61 700l258 -390l257 390h36l-265 -403h177v-28h-190v-99h190v-28h-190v-142h-30v142h-190v28h190v99h-190v28h177l-266 403h36z" />
    <glyph glyph-name="brokenbar" unicode="&#xa6;" horiz-adv-x="200" 
d="M115 206v-347h-29v347h29zM115 740v-342h-29v342h29z" />
    <glyph glyph-name="section" unicode="&#xa7;" horiz-adv-x="511" 
d="M60 -10l17 22q83 -71 182 -71q72 0 116 31t44 82q0 90 -161 129q-179 43 -179 151q0 80 93 121q-90 46 -90 124q0 58 48 95.5t121 37.5q107 0 189 -78l-18 -21q-76 70 -170 70q-61 0 -100.5 -29.5t-39.5 -74.5q0 -44 39.5 -77.5t114.5 -50.5q96 -23 140 -59.5t44 -93.5
q0 -81 -94 -119q93 -47 93 -125q0 -63 -52.5 -102.5t-136.5 -39.5q-112 0 -200 78zM146 260q38 -31 120 -50q29 -7 55 -17q100 35 100 104q0 47 -38 76.5t-125 50.5q-31 8 -52 16q-98 -33 -98 -105q0 -45 38 -75z" />
    <glyph glyph-name="dieresis" unicode="&#xa8;" horiz-adv-x="423" 
d="M259 640q0 14 9 23t23 9t23 -9t9 -23q0 -15 -9 -24t-23 -9t-23 9t-9 24zM100 640q0 14 9 23t23 9t23 -9t9 -23q0 -15 -9 -24t-23 -9t-23 9t-9 24z" />
    <glyph glyph-name="copyright" unicode="&#xa9;" horiz-adv-x="816" 
d="M161 604q97 100 247 100t247 -100t97 -254t-97 -254t-247 -100t-247 100t-97 254t97 254zM92 350q0 -143 88.5 -235t227.5 -92q138 0 227 92t89 235t-89 235t-227 92q-139 0 -227.5 -92t-88.5 -235zM223 349q0 88 51.5 142.5t133.5 54.5q100 0 156 -78l-21 -16
q-48 68 -135 68q-71 0 -115 -47t-44 -124q0 -76 44 -123t115 -47q89 0 139 67l21 -15q-26 -36 -68.5 -57t-90.5 -21q-83 0 -134.5 54.5t-51.5 141.5z" />
    <glyph glyph-name="ordfeminine" unicode="&#xaa;" horiz-adv-x="347" 
d="M65 548q38 30 101 30q46 0 110 -26v31q0 97 -110 97q-54 0 -107 -28l-10 24q59 30 118 30q65 0 101 -32t36 -91v-214h-27v60q-44 -65 -135 -65q-51 0 -83.5 29t-32.5 78q0 46 39 77zM78 413q24 -23 67 -23q55 0 93 31.5t38 79.5v24q-60 27 -109 27q-51 0 -82.5 -23
t-31.5 -58t25 -58z" />
    <glyph glyph-name="guillemotleft" unicode="&#xab;" horiz-adv-x="579" 
d="M59 281l196 234l22 -20l-180 -214l180 -218l-22 -18zM484 515l21 -20l-179 -214l179 -218l-21 -18l-196 236z" />
    <glyph glyph-name="logicalnot" unicode="&#xac;" horiz-adv-x="481" 
d="M59 327v28h348v-187h-29v159h-319z" />
    <glyph glyph-name="uni00AD" unicode="&#xad;" horiz-adv-x="449" 
d="M395 286v-28h-341v28h341z" />
    <glyph glyph-name="registered" unicode="&#xae;" horiz-adv-x="554" 
d="M117 636q63 64 160 64t160.5 -63.5t63.5 -161.5t-63.5 -161.5t-160.5 -63.5t-160.5 64t-63.5 161t64 161zM135 332q56 -57 142 -57t142 56.5t56 143.5t-56 143t-142 56t-142 -56t-56 -143t56 -143zM210 576h71q30 0 50 -19.5t20 -48.5q0 -23 -14 -41t-36 -24l58 -71h-30
l-56 69h-40v-69h-23v204zM233 553v-89h48q20 0 33 12.5t13 31.5q0 20 -13 32.5t-33 12.5h-48z" />
    <glyph glyph-name="macron" unicode="&#xaf;" horiz-adv-x="468" 
d="M368 629h-268v26h268v-26z" />
    <glyph glyph-name="degree" unicode="&#xb0;" horiz-adv-x="369" 
d="M82 678q41 43 102 43q62 0 103.5 -43t41.5 -106t-41.5 -106t-103.5 -43q-61 0 -102.5 43t-41.5 106t42 106zM65 572q0 -53 34 -88t85 -35q52 0 85.5 35t33.5 88t-33.5 88t-85.5 35q-51 0 -85 -35t-34 -88z" />
    <glyph glyph-name="plusminus" unicode="&#xb1;" horiz-adv-x="522" 
d="M247 446v153h28v-153h188v-29h-188v-158h-28v158h-188v29h188zM59 140h404v-29h-404v29z" />
    <glyph glyph-name="twosuperior" unicode="&#xb2;" horiz-adv-x="265" 
d="M124 816q46 0 74 -27t28 -72q0 -30 -14.5 -56t-52.5 -63l-101 -100h183v-26h-224v21l123 123q58 57 58 100q0 34 -20.5 54t-54.5 20q-55 0 -89 -54l-20 16q41 64 110 64z" />
    <glyph glyph-name="threesuperior" unicode="&#xb3;" horiz-adv-x="272" 
d="M44 539q33 -47 90 -47q38 0 60 21.5t22 58.5q0 46 -27.5 62.5t-60.5 16.5q-17 0 -36 -3l-8 20l99 116h-142v26h185v-15l-103 -120h7q49 0 81 -27t32 -76q0 -47 -30 -76.5t-78 -29.5q-73 0 -111 56z" />
    <glyph glyph-name="acute" unicode="&#xb4;" horiz-adv-x="302" 
d="M131 592h-31l68 148h34z" />
    <glyph glyph-name="uni00B5" unicode="&#xb5;" horiz-adv-x="680" 
d="M146 505v-260q0 -223 193 -223q86 0 140.5 62t54.5 161v260h30v-505h-29v126q-25 -61 -78 -96.5t-119 -35.5q-142 0 -192 113v-337h-30v735h30z" />
    <glyph glyph-name="paragraph" unicode="&#xb6;" horiz-adv-x="640" 
d="M96 645q60 55 160 55h342v-28h-84v-782h-29v782h-192v-782h-29v409h-8q-99 0 -160 56.5t-61 143.5q0 91 61 146z" />
    <glyph glyph-name="periodcentered" unicode="&#xb7;" horiz-adv-x="213" 
d="M70 285q0 15 10.5 25t25.5 10t26 -10t11 -25t-11 -25q-11 -11 -26 -11t-25.5 10.5t-10.5 25.5z" />
    <glyph glyph-name="cedilla" unicode="&#xb8;" horiz-adv-x="421" 
d="M100 -204l14 21q38 -33 95 -33q38 0 61 17.5t23 46.5q0 41 -27 50.5t-46 9.5q-23 0 -50 -9l-9 9l26 98l26 -3l-21 -75q18 4 34 4q32 0 63.5 -19t31.5 -65q0 -40 -31 -65t-81 -25q-63 0 -109 38z" />
    <glyph glyph-name="onesuperior" unicode="&#xb9;" horiz-adv-x="200" 
d="M113 810h22v-337h-27v298q-32 -24 -92 -24v25q65 0 97 38z" />
    <glyph glyph-name="ordmasculine" unicode="&#xba;" horiz-adv-x="379" 
d="M70 658q47 48 120 48t119.5 -48t46.5 -123t-46 -123q-47 -48 -120 -48t-120 48t-47 123t47 123zM90 431q38 -40 100 -40q61 0 99.5 40t38.5 104t-38.5 104t-99.5 40q-62 0 -100.5 -40t-38.5 -104t39 -104z" />
    <glyph glyph-name="guillemotright" unicode="&#xbb;" horiz-adv-x="579" 
d="M253 281l-179 214l21 20l197 -234l-197 -236l-21 18zM302 495l22 20l196 -234l-196 -236l-22 18l180 218z" />
    <glyph glyph-name="onequarter" unicode="&#xbc;" horiz-adv-x="720" 
d="M429 111l186 227h27v-227h49v-26h-49v-84h-27v84h-186v26zM48 -10l494 739l22 -17l-494 -738zM461 111h154v187zM113 700h22v-337h-27v298q-32 -24 -92 -24v25q65 0 97 38z" />
    <glyph glyph-name="onehalf" unicode="&#xbd;" horiz-adv-x="677" 
d="M48 -10l494 739l22 -17l-494 -738zM426 280q41 64 110 64q46 0 74 -27t28 -72q0 -30 -14.5 -56t-52.5 -63l-101 -100h183v-26h-224v21l123 123q58 57 58 100q0 34 -20.5 54t-54.5 20q-55 0 -89 -54zM113 700h22v-337h-27v298q-32 -24 -92 -24v25q65 0 97 38z" />
    <glyph glyph-name="threequarters" unicode="&#xbe;" horiz-adv-x="792" 
d="M501 85v26l186 227h27v-227h49v-26h-49v-84h-27v84h-186zM120 -10l494 739l22 -17l-494 -738zM24 412l20 17q33 -47 90 -47q38 0 60 21.5t22 58.5q0 46 -27.5 62.5t-60.5 16.5q-17 0 -36 -3l-8 20l99 116h-142v26h185v-15l-103 -120h7q49 0 81 -27t32 -76
q0 -47 -30 -76.5t-78 -29.5q-73 0 -111 56zM533 111h154v187z" />
    <glyph glyph-name="questiondown" unicode="&#xbf;" horiz-adv-x="483" 
d="M73 98q25 41 81 85q50 39 70 69t20 69v72h30v-73q0 -45 -23 -80.5t-79 -79.5q-50 -39 -72 -74.5t-22 -78.5q0 -69 46.5 -110.5t124.5 -41.5q126 0 190 121l24 -17q-73 -133 -214 -133q-91 0 -146 49.5t-55 130.5q0 50 25 92zM223 512q0 15 11 25q10 10 25 10t26 -10
t11 -25t-11 -25.5t-26 -10.5t-25.5 10.5t-10.5 25.5z" />
    <glyph glyph-name="Agrave" unicode="&#xc0;" horiz-adv-x="677" 
d="M323 700h33l299 -700h-32l-77 179h-414l-78 -179h-32zM144 209h390l-195 454zM254 900h35l67 -128h-30z" />
    <glyph glyph-name="Aacute" unicode="&#xc1;" horiz-adv-x="677" 
d="M323 700h33l299 -700h-32l-77 179h-414l-78 -179h-32zM144 209h390l-195 454zM390 900h35l-72 -128h-30z" />
    <glyph glyph-name="Acircumflex" unicode="&#xc2;" horiz-adv-x="677" 
d="M323 700h33l299 -700h-32l-77 179h-414l-78 -179h-32zM534 209l-195 454l-195 -454h390zM200 772l128 128h23l128 -128h-37l-102 102l-103 -102h-37z" />
    <glyph glyph-name="Atilde" unicode="&#xc3;" horiz-adv-x="677" 
d="M323 700h33l299 -700h-32l-77 179h-414l-78 -179h-32zM534 209l-195 454l-195 -454h390zM278 857q26 0 65 -24t58 -24q32 0 55 39l22 -13q-31 -53 -76 -53q-27 0 -65.5 24t-58.5 24q-30 0 -54 -40l-22 14q31 53 76 53z" />
    <glyph glyph-name="Adieresis" unicode="&#xc4;" horiz-adv-x="677" 
d="M22 0l301 700h33l299 -700h-32l-77 179h-414l-78 -179h-32zM534 209l-195 454l-195 -454h390zM387 813q0 15 9 24t23 9t23.5 -9t9.5 -24t-9 -24q-10 -9 -24 -9t-23 9t-9 24zM237 837q9 9 23 9t23.5 -9t9.5 -24t-9 -24q-10 -9 -24 -9t-23 9t-9 24t9 24z" />
    <glyph glyph-name="Aring" unicode="&#xc5;" horiz-adv-x="677" 
d="M323 700h33l299 -700h-32l-77 179h-414l-78 -179h-32zM144 209h390l-195 454zM262 931q31 31 77 31t77 -31t31 -76q0 -46 -31 -77t-77 -31t-77 31t-31 77q0 45 31 76zM281 797q23 -24 58 -24t58.5 23.5t23.5 58.5t-23 58q-24 23 -59 23t-58.5 -23.5t-23.5 -57.5
q0 -35 24 -58z" />
    <glyph glyph-name="AE" unicode="&#xc6;" horiz-adv-x="924" 
d="M462 700h395v-29h-356v-296h330v-30h-330v-315h370v-30h-400v181h-304l-114 -181h-35zM186 210h285v448z" />
    <glyph glyph-name="Ccedilla" unicode="&#xc7;" horiz-adv-x="741" 
d="M159 610q94 102 240 102q183 0 288 -148l-24 -18q-43 65 -112.5 100.5t-151.5 35.5q-133 0 -218.5 -93t-85.5 -239q0 -145 86 -238.5t221 -93.5q82 0 153.5 38t119.5 107l24 -17q-110 -153 -288 -158l-15 -60q18 4 34 4q32 0 63 -19t31 -65q0 -40 -30.5 -65t-80.5 -25
q-64 0 -110 38l14 21q39 -33 95 -33q38 0 61.5 17.5t23.5 46.5q0 41 -27 50.5t-46 9.5q-24 0 -51 -9l-9 9l20 80q-141 7 -230.5 108t-89.5 254q0 158 95 260z" />
    <glyph glyph-name="Egrave" unicode="&#xc8;" horiz-adv-x="608" 
d="M128 700h412v-30h-382v-296h356v-29h-356v-315h396v-30h-426v700zM258 900h35l67 -128h-30z" />
    <glyph glyph-name="Eacute" unicode="&#xc9;" horiz-adv-x="608" 
d="M128 700h412v-30h-382v-296h356v-29h-356v-315h396v-30h-426v700zM327 772l67 128h35l-72 -128h-30z" />
    <glyph glyph-name="Ecircumflex" unicode="&#xca;" horiz-adv-x="608" 
d="M128 0v700h412v-30h-382v-296h356v-29h-356v-315h396v-30h-426zM204 772l128 128h23l128 -128h-37l-102 102l-103 -102h-37z" />
    <glyph glyph-name="Edieresis" unicode="&#xcb;" horiz-adv-x="608" 
d="M128 700h412v-30h-382v-296h356v-29h-356v-315h396v-30h-426v700zM232 813q0 15 9 24t23 9t23.5 -9t9.5 -24t-9 -24q-10 -9 -24 -9t-23 9t-9 24zM391 813q0 15 9 24t23 9t23.5 -9t9.5 -24t-9 -24q-10 -9 -24 -9t-23 9t-9 24z" />
    <glyph glyph-name="Igrave" unicode="&#xcc;" horiz-adv-x="286" 
d="M92 900l67 -128h-30l-72 128h35zM158 0h-30v700h30v-700z" />
    <glyph glyph-name="Iacute" unicode="&#xcd;" horiz-adv-x="286" 
d="M156 772h-30l67 128h35zM158 0h-30v700h30v-700z" />
    <glyph glyph-name="Icircumflex" unicode="&#xce;" horiz-adv-x="286" 
d="M158 700v-700h-30v700h30zM3 772l128 128h23l128 -128h-37l-102 102l-103 -102h-37z" />
    <glyph glyph-name="Idieresis" unicode="&#xcf;" horiz-adv-x="286" 
d="M128 700h30v-700h-30v700zM190 813q0 15 9 24t23 9t23.5 -9t9.5 -24t-9 -24q-10 -9 -24 -9t-23 9t-9 24zM31 813q0 15 9 24t23 9t23.5 -9t9.5 -24t-9 -24q-10 -9 -24 -9t-23 9t-9 24z" />
    <glyph glyph-name="Eth" unicode="&#xd0;" horiz-adv-x="782" 
d="M12 374h137v326h223q162 0 254 -93t92 -257t-92 -257t-254 -93h-223v345h-137v29zM179 30h193q149 0 232 84t83 236t-83 236t-232 84h-193v-297h196v-27h-196v-316z" />
    <glyph glyph-name="Ntilde" unicode="&#xd1;" horiz-adv-x="799" 
d="M155 700l486 -645v645h31v-700h-28l-486 646v-646h-30v700h27zM338 857q26 0 65 -24t58 -24q32 0 55 39l22 -13q-31 -53 -76 -53q-27 0 -65.5 24t-58.5 24q-30 0 -54 -40l-22 14q31 53 76 53z" />
    <glyph glyph-name="Ograve" unicode="&#xd2;" horiz-adv-x="823" 
d="M162 611q97 101 250 101t250 -101t97 -261t-97 -261t-250 -101q-154 0 -251 100.5t-97 261.5q0 160 98 261zM95 350q0 -148 88 -240t229 -92t229 92t88 240t-88 240t-229 92t-229 -92t-88 -240zM326 900h35l67 -128h-30z" />
    <glyph glyph-name="Oacute" unicode="&#xd3;" horiz-adv-x="823" 
d="M162 611q97 101 250 101t250 -101t97 -261t-97 -261t-250 -101q-154 0 -251 100.5t-97 261.5q0 160 98 261zM183 110q88 -92 229 -92t229 92t88 240t-88 240t-229 92t-229 -92t-88 -240t88 -240zM395 772l67 128h35l-72 -128h-30z" />
    <glyph glyph-name="Ocircumflex" unicode="&#xd4;" horiz-adv-x="823" 
d="M162 611q97 101 250 101t250 -101t97 -261t-97 -261t-250 -101q-154 0 -251 100.5t-97 261.5q0 160 98 261zM183 110q88 -92 229 -92t229 92t88 240t-88 240t-229 92t-229 -92t-88 -240t88 -240zM272 772l128 128h23l128 -128h-37l-102 102l-103 -102h-37z" />
    <glyph glyph-name="Otilde" unicode="&#xd5;" horiz-adv-x="823" 
d="M162 611q97 101 250 101t250 -101t97 -261t-97 -261t-250 -101q-154 0 -251 100.5t-97 261.5q0 160 98 261zM183 110q88 -92 229 -92t229 92t88 240t-88 240t-229 92t-229 -92t-88 -240t88 -240zM350 857q26 0 65 -24t58 -24q32 0 55 39l22 -13q-31 -53 -76 -53
q-27 0 -65.5 24t-58.5 24q-30 0 -54 -40l-22 14q31 53 76 53z" />
    <glyph glyph-name="Odieresis" unicode="&#xd6;" horiz-adv-x="823" 
d="M162 611q97 101 250 101t250 -101t97 -261t-97 -261t-250 -101q-154 0 -251 100.5t-97 261.5q0 160 98 261zM183 110q88 -92 229 -92t229 92t88 240t-88 240t-229 92t-229 -92t-88 -240t88 -240zM300 813q0 15 9 24t23 9t23.5 -9t9.5 -24t-9 -24q-10 -9 -24 -9t-23 9
t-9 24zM459 813q0 15 9 24t23 9t23.5 -9t9.5 -24t-9 -24q-10 -9 -24 -9t-23 9t-9 24z" />
    <glyph glyph-name="multiply" unicode="&#xd7;" horiz-adv-x="416" 
d="M341 465l20 -20l-133 -133l133 -133l-20 -20l-133 132l-132 -132l-21 20l133 133l-133 132l20 21l133 -133z" />
    <glyph glyph-name="Oslash" unicode="&#xd8;" horiz-adv-x="823" 
d="M162 611q97 101 250 101q94 0 168 -40l64 110l24 -14l-63 -110q73 -46 113.5 -126t40.5 -182q0 -160 -97 -261t-250 -101q-94 0 -171 40l-63 -109l-24 14l64 109q-73 46 -113.5 126t-40.5 182q0 160 98 261zM412 18q141 0 229 92t88 240q0 93 -36.5 166t-102.5 116
l-333 -578q70 -36 155 -36zM132 184q36 -73 101 -116l333 578q-69 36 -154 36q-141 0 -229 -92t-88 -240q0 -93 37 -166z" />
    <glyph glyph-name="Ugrave" unicode="&#xd9;" horiz-adv-x="768" 
d="M118 700h30v-442q0 -112 63.5 -176t172.5 -64t172.5 64t63.5 176v442h30v-443q0 -124 -72 -196q-73 -73 -194 -73t-193.5 72.5t-72.5 196.5v443zM333 900l67 -128h-30l-72 128h35z" />
    <glyph glyph-name="Uacute" unicode="&#xda;" horiz-adv-x="768" 
d="M118 700h30v-442q0 -112 63.5 -176t172.5 -64t172.5 64t63.5 176v442h30v-443q0 -124 -72 -196q-73 -73 -194 -73t-193.5 72.5t-72.5 196.5v443zM435 900h35l-72 -128h-30z" />
    <glyph glyph-name="Ucircumflex" unicode="&#xdb;" horiz-adv-x="768" 
d="M148 700v-442q0 -112 63.5 -176t172.5 -64t172.5 64t63.5 176v442h30v-443q0 -124 -72.5 -196.5t-193.5 -72.5t-193.5 72.5t-72.5 196.5v443h30zM373 900h23l128 -128h-37l-102 102l-103 -102h-37z" />
    <glyph glyph-name="Udieresis" unicode="&#xdc;" horiz-adv-x="768" 
d="M148 700v-442q0 -112 63.5 -176t172.5 -64t172.5 64t63.5 176v442h30v-443q0 -124 -72 -196q-73 -73 -194 -73t-193.5 72.5t-72.5 196.5v443h30zM282 837q9 9 23 9t23.5 -9t9.5 -24t-9 -24q-10 -9 -24 -9t-23 9t-9 24t9 24zM441 837q9 9 23 9t23.5 -9t9.5 -24t-9 -24
q-10 -9 -24 -9t-23 9t-9 24t9 24z" />
    <glyph glyph-name="Yacute" unicode="&#xdd;" horiz-adv-x="637" 
d="M25 700h36l257 -393l258 393h36l-278 -425v-275h-30v275zM303 772l67 128h35l-72 -128h-30z" />
    <glyph glyph-name="Thorn" unicode="&#xde;" horiz-adv-x="628" 
d="M128 700h30v-126h203q117 0 179.5 -57.5t62.5 -162.5t-62.5 -162.5t-179.5 -57.5h-203v-134h-30v700zM158 163h202q104 0 158 49t54 142t-54 142t-158 49h-202v-382z" />
    <glyph glyph-name="germandbls" unicode="&#xdf;" horiz-adv-x="664" 
d="M410 -10q-83 0 -144 46l15 25q53 -42 129 -42q73 0 118 39.5t45 103.5q0 35 -18.5 61.5t-69.5 66.5q-47 37 -63.5 59.5t-16.5 47.5q0 29 39 85q42 58 42 105q0 60 -43 98t-111 38q-86 0 -136 -57t-50 -157v-509h-30v509q0 111 58.5 177t157.5 66q80 0 132 -46t52 -117
q0 -57 -47 -121q-34 -46 -34 -70q0 -19 15.5 -38t55.5 -49q55 -42 76 -74.5t21 -74.5q0 -76 -53.5 -124t-139.5 -48z" />
    <glyph glyph-name="agrave" unicode="&#xe0;" horiz-adv-x="603" 
d="M65 148q0 75 58 120t157 45q87 0 186 -36v56q0 151 -175 151q-90 0 -182 -53l-13 26q97 56 196 56q98 0 151 -46.5t53 -132.5v-334h-30v108q-26 -51 -85.5 -83t-131.5 -32q-82 0 -133 42.5t-51 112.5zM95 148q0 -58 42.5 -92.5t113.5 -34.5q91 0 153 52t62 127v48
q-99 37 -185 37q-87 0 -136.5 -37t-49.5 -100zM252 740l68 -148h-31l-71 148h34z" />
    <glyph glyph-name="aacute" unicode="&#xe1;" horiz-adv-x="603" 
d="M123 268q58 45 157 45q87 0 186 -36v56q0 151 -175 151q-90 0 -182 -53l-13 26q97 56 196 56q98 0 151 -46.5t53 -132.5v-334h-30v108q-26 -51 -85.5 -83t-131.5 -32q-82 0 -133 42.5t-51 112.5q0 75 58 120zM138 56q42 -35 113 -35q91 0 153 52t62 127v48
q-99 37 -185 37q-87 0 -136.5 -37t-49.5 -100q0 -58 43 -92zM334 740h34l-71 -148h-31z" />
    <glyph glyph-name="acircumflex" unicode="&#xe2;" horiz-adv-x="603" 
d="M65 148q0 75 58 120t157 45q87 0 186 -36v56q0 151 -175 151q-90 0 -182 -53l-13 26q97 56 196 56q98 0 151 -46.5t53 -132.5v-334h-30v108q-26 -51 -85.5 -83t-131.5 -32q-82 0 -133 42.5t-51 112.5zM95 148q0 -58 42.5 -92.5t113.5 -34.5q91 0 153 52t62 127v48
q-99 37 -185 37q-87 0 -136.5 -37t-49.5 -100zM282 740h23l128 -148h-37l-102 121l-103 -121h-37z" />
    <glyph glyph-name="atilde" unicode="&#xe3;" horiz-adv-x="603" 
d="M123 268q58 45 157 45q87 0 186 -36v56q0 151 -175 151q-90 0 -182 -53l-13 26q97 56 196 56q98 0 151 -46.5t53 -132.5v-334h-30v108q-26 -51 -85.5 -83t-131.5 -32q-82 0 -133 42.5t-51 112.5q0 75 58 120zM95 148q0 -58 42.5 -92.5t113.5 -34.5q91 0 153 52t62 127v48
q-99 37 -185 37q-87 0 -136.5 -37t-49.5 -100zM233 689q23 0 67 -26q34 -22 53 -22q30 0 52 40l22 -14q-31 -53 -73 -53q-25 0 -67 26q-35 22 -53 22q-31 0 -52 -40l-22 14q29 53 73 53z" />
    <glyph glyph-name="adieresis" unicode="&#xe4;" horiz-adv-x="603" 
d="M123 268q58 45 157 45q87 0 186 -36v56q0 151 -175 151q-90 0 -182 -53l-13 26q97 56 196 56q98 0 151 -46.5t53 -132.5v-334h-30v108q-26 -51 -85.5 -83t-131.5 -32q-82 0 -133 42.5t-51 112.5q0 75 58 120zM95 148q0 -58 42.5 -92.5t113.5 -34.5q91 0 153 52t62 127v48
q-99 37 -185 37q-87 0 -136.5 -37t-49.5 -100zM349 663q9 9 23 9t23 -9t9 -23q0 -15 -9 -24t-23 -9t-23 9t-9 24q0 14 9 23zM190 663q9 9 23 9t23 -9t9 -23q0 -15 -9 -24t-23 -9t-23 9t-9 24q0 14 9 23z" />
    <glyph glyph-name="aring" unicode="&#xe5;" horiz-adv-x="603" 
d="M123 268q58 45 157 45q87 0 186 -36v56q0 151 -175 151q-90 0 -182 -53l-13 26q97 56 196 56q98 0 151 -46.5t53 -132.5v-334h-30v108q-26 -51 -85.5 -83t-131.5 -32q-82 0 -133 42.5t-51 112.5q0 75 58 120zM95 148q0 -58 42.5 -92.5t113.5 -34.5q91 0 153 52t62 127v48
q-99 37 -185 37q-87 0 -136.5 -37t-49.5 -100zM185 680q0 46 31 76.5t77 30.5t77 -30.5t31 -76.5t-31 -76q-31 -31 -77 -31t-77 30.5t-31 76.5zM211 680q0 -35 23.5 -58.5t58.5 -23.5t58.5 23.5t23.5 58.5t-23 59q-24 23 -59 23t-58.5 -23.5t-23.5 -58.5z" />
    <glyph glyph-name="ae" unicode="&#xe6;" horiz-adv-x="992" 
d="M65 142q0 77 60 124t158 47q89 0 183 -45v65q0 155 -175 155q-88 0 -182 -57l-13 26q97 60 195 60q85 0 136.5 -36.5t63.5 -104.5q28 65 85 103t130 38q110 0 174.5 -76t64.5 -175q0 -14 -1 -29h-449q5 -99 63.5 -159.5t151.5 -60.5q114 0 188 91l21 -20
q-78 -100 -209 -100q-81 0 -141 42t-86 115q-20 -68 -85.5 -112.5t-148.5 -44.5q-82 0 -133 42.5t-51 111.5zM95 143q0 -57 42.5 -91.5t113.5 -34.5q90 0 152.5 55t62.5 136v32q-101 45 -181 45q-87 0 -138.5 -38.5t-51.5 -103.5zM915 266q-2 97 -60.5 159.5t-149.5 62.5
q-89 0 -148 -62.5t-62 -159.5h420z" />
    <glyph glyph-name="ccedilla" unicode="&#xe7;" horiz-adv-x="561" 
d="M58 252q0 118 69 191.5t179 73.5q134 0 207 -99l-20 -19q-66 88 -187 88q-97 0 -157.5 -65t-60.5 -170t60.5 -170t159.5 -65q123 0 193 95l22 -19q-32 -46 -87 -74.5t-117 -30.5l-17 -60q18 4 34 4q32 0 63.5 -19t31.5 -65q0 -40 -31 -65t-81 -25q-63 0 -109 38l14 21
q38 -33 95 -33q38 0 61 17.5t23 46.5q0 41 -27 50.5t-46 9.5q-23 0 -50 -9l-9 9l21 80q-104 6 -169 79t-65 185z" />
    <glyph glyph-name="egrave" unicode="&#xe8;" horiz-adv-x="595" 
d="M58 252q0 116 69 190.5t176 74.5q113 0 179 -75.5t66 -175.5q0 -14 -1 -29h-459q3 -98 63.5 -159t156.5 -61q117 0 193 91l21 -20q-83 -100 -215 -100q-111 0 -180 73t-69 191zM88 266h430q-2 97 -62 159.5t-153 62.5q-91 0 -151 -62.5t-64 -159.5zM229 740h34l68 -148
h-31z" />
    <glyph glyph-name="eacute" unicode="&#xe9;" horiz-adv-x="595" 
d="M58 252q0 116 69 190.5t176 74.5q113 0 179 -75.5t66 -175.5q0 -14 -1 -29h-459q3 -98 63.5 -159t156.5 -61q117 0 193 91l21 -20q-83 -100 -215 -100q-111 0 -180 73t-69 191zM518 266q-2 97 -62 159.5t-153 62.5q-91 0 -151 -62.5t-64 -159.5h430zM277 592l68 148h34
l-71 -148h-31z" />
    <glyph glyph-name="ecircumflex" unicode="&#xea;" horiz-adv-x="595" 
d="M127 443q69 74 176 74q113 0 179 -75.5t66 -175.5q0 -14 -1 -29h-459q3 -98 63.5 -159t156.5 -61q117 0 193 91l21 -20q-83 -100 -215 -100q-111 0 -180 73t-69 191q0 116 69 191zM518 266q-2 97 -62 159.5t-153 62.5q-91 0 -151 -62.5t-64 -159.5h430zM293 740h23
l128 -148h-37l-102 121l-103 -121h-37z" />
    <glyph glyph-name="edieresis" unicode="&#xeb;" horiz-adv-x="595" 
d="M58 252q0 116 69 190.5t176 74.5q113 0 179 -75.5t66 -175.5q0 -14 -1 -29h-459q3 -98 63.5 -159t156.5 -61q117 0 193 91l21 -20q-83 -100 -215 -100q-111 0 -180 73t-69 191zM88 266h430q-2 97 -62 159.5t-153 62.5q-91 0 -151 -62.5t-64 -159.5zM360 663q9 9 23 9
t23 -9t9 -23q0 -15 -9 -24t-23 -9t-23 9t-9 24q0 14 9 23zM201 663q9 9 23 9t23 -9t9 -23q0 -15 -9 -24t-23 -9t-23 9t-9 24q0 14 9 23z" />
    <glyph glyph-name="igrave" unicode="&#xec;" horiz-adv-x="262" 
d="M98 740l59 -148h-31l-63 148h35zM146 0h-30v505h30v-505z" />
    <glyph glyph-name="iacute" unicode="&#xed;" horiz-adv-x="262" 
d="M136 592h-31l59 148h35zM146 0h-30v505h30v-505z" />
    <glyph glyph-name="icircumflex" unicode="&#xee;" horiz-adv-x="262" 
d="M146 505v-505h-30v505h30zM5 592l114 148h24l115 -148h-36l-91 120l-91 -120h-35z" />
    <glyph glyph-name="idieresis" unicode="&#xef;" horiz-adv-x="262" 
d="M116 505h30v-505h-30v505zM174 640q0 14 9 23t23 9t23 -9t9 -23q0 -15 -9 -24t-23 -9t-23 9t-9 24zM23 640q0 14 9 23t23 9t23 -9t9 -23q0 -15 -9 -24t-23 -9t-23 9t-9 24z" />
    <glyph glyph-name="eth" unicode="&#xf0;" horiz-adv-x="632" 
d="M423 754l-108 -76q122 -84 190.5 -196.5t68.5 -230.5q0 -115 -72.5 -189t-185.5 -74t-185.5 73t-72.5 188t71.5 188t184.5 73q115 0 186 -77q-77 139 -211 227l-127 -89l-16 22l118 83q-40 25 -102 53l13 26q62 -27 115 -61l117 82zM316 17q101 0 164.5 64.5t63.5 167.5
t-63.5 167.5t-164.5 64.5t-164.5 -64.5t-63.5 -167.5q0 -102 64 -167t164 -65z" />
    <glyph glyph-name="ntilde" unicode="&#xf1;" horiz-adv-x="672" 
d="M146 505v-126q29 64 83.5 98.5t128.5 34.5q95 0 150.5 -58.5t55.5 -158.5v-295h-30v293q0 89 -47 139t-131 50q-95 0 -152.5 -61t-57.5 -163v-258h-30v505h30zM213 636q29 53 73 53q23 0 67 -26q34 -22 53 -22q30 0 52 40l22 -14q-31 -53 -73 -53q-25 0 -67 26
q-35 22 -53 22q-31 0 -52 -40z" />
    <glyph glyph-name="ograve" unicode="&#xf2;" horiz-adv-x="632" 
d="M131 443q72 74 185 74t185.5 -74t72.5 -191q0 -116 -72 -190q-73 -74 -186 -74t-185.5 74t-72.5 190q0 117 73 191zM152 83q63 -66 164 -66t164.5 65.5t63.5 169.5t-63.5 169.5t-164.5 65.5t-164.5 -65.5t-63.5 -169.5t64 -169zM275 740l68 -148h-31l-71 148h34z" />
    <glyph glyph-name="oacute" unicode="&#xf3;" horiz-adv-x="632" 
d="M131 443q72 74 185 74t185.5 -74t72.5 -191q0 -116 -72 -190q-73 -74 -186 -74t-185.5 74t-72.5 190q0 117 73 191zM152 83q63 -66 164 -66t164.5 65.5t63.5 169.5t-63.5 169.5t-164.5 65.5t-164.5 -65.5t-63.5 -169.5t64 -169zM289 592l68 148h34l-71 -148h-31z" />
    <glyph glyph-name="ocircumflex" unicode="&#xf4;" horiz-adv-x="632" 
d="M131 443q72 74 185 74t185.5 -74t72.5 -191q0 -116 -72.5 -190t-185.5 -74t-185.5 74t-72.5 190q0 117 73 191zM152 83q63 -66 164 -66t164.5 65.5t63.5 169.5t-63.5 169.5t-164.5 65.5t-164.5 -65.5t-63.5 -169.5t64 -169zM176 592l128 148h23l128 -148h-37l-102 121
l-103 -121h-37z" />
    <glyph glyph-name="otilde" unicode="&#xf5;" horiz-adv-x="632" 
d="M58 252q0 117 72.5 191t185.5 74t185.5 -74t72.5 -191q0 -116 -72 -190q-73 -74 -186 -74t-185.5 74t-72.5 190zM152 83q63 -66 164 -66t164.5 65.5t63.5 169.5t-63.5 169.5t-164.5 65.5t-164.5 -65.5t-63.5 -169.5t64 -169zM256 689q23 0 67 -26q34 -22 53 -22
q30 0 52 40l22 -14q-31 -53 -73 -53q-25 0 -67 26q-35 22 -53 22q-31 0 -52 -40l-22 14q29 53 73 53z" />
    <glyph glyph-name="odieresis" unicode="&#xf6;" horiz-adv-x="632" 
d="M131 443q72 74 185 74t185.5 -74t72.5 -191q0 -116 -72 -190q-73 -74 -186 -74t-185.5 74t-72.5 190q0 117 73 191zM152 83q63 -66 164 -66t164.5 65.5t63.5 169.5t-63.5 169.5t-164.5 65.5t-164.5 -65.5t-63.5 -169.5t64 -169zM363 640q0 14 9 23t23 9t23 -9t9 -23
q0 -15 -9 -24t-23 -9t-23 9t-9 24zM204 640q0 14 9 23t23 9t23 -9t9 -23q0 -15 -9 -24t-23 -9t-23 9t-9 24z" />
    <glyph glyph-name="divide" unicode="&#xf7;" horiz-adv-x="507" 
d="M253 399q-13 0 -22.5 8t-9.5 22t9.5 22.5t22.5 8.5t22.5 -8.5t9.5 -22.5t-9.5 -22t-22.5 -8zM448 291h-389v28h389v-28zM253 149q-13 0 -22.5 8.5t-9.5 21.5q0 14 9.5 22.5t22.5 8.5t22.5 -8.5t9.5 -22.5q0 -13 -9.5 -21.5t-22.5 -8.5z" />
    <glyph glyph-name="oslash" unicode="&#xf8;" horiz-adv-x="632" 
d="M131 443q72 74 185 74q71 0 128 -31l49 81l24 -14l-50 -81q107 -75 107 -220q0 -116 -72.5 -190t-185.5 -74q-71 0 -128 31l-50 -82l-24 14l51 82q-107 75 -107 219q0 117 73 191zM203 44q48 -27 113 -27q101 0 164.5 65.5t63.5 169.5q0 129 -93 195zM88 252
q0 -128 92 -194l248 403q-49 26 -112 26q-101 0 -164.5 -65.5t-63.5 -169.5z" />
    <glyph glyph-name="ugrave" unicode="&#xf9;" horiz-adv-x="672" 
d="M137 505v-293q0 -89 47.5 -139.5t131.5 -50.5q95 0 152.5 61t57.5 163v259h30v-505h-30v126q-29 -64 -83.5 -98.5t-129.5 -34.5q-94 0 -150 58.5t-56 157.5v296h30zM291 740l68 -148h-31l-71 148h34z" />
    <glyph glyph-name="uacute" unicode="&#xfa;" horiz-adv-x="672" 
d="M137 505v-293q0 -89 47.5 -139.5t131.5 -50.5q95 0 152.5 61t57.5 163v259h30v-505h-30v126q-29 -64 -83.5 -98.5t-129.5 -34.5q-94 0 -150 58.5t-56 157.5v296h30zM373 740h34l-71 -148h-31z" />
    <glyph glyph-name="ucircumflex" unicode="&#xfb;" horiz-adv-x="672" 
d="M137 505v-293q0 -89 47.5 -139.5t131.5 -50.5q95 0 152.5 61t57.5 163v259h30v-505h-30v126q-29 -64 -83.5 -98.5t-129.5 -34.5q-94 0 -150 58.5t-56 157.5v296h30zM321 740h23l128 -148h-37l-102 121l-103 -121h-37z" />
    <glyph glyph-name="udieresis" unicode="&#xfc;" horiz-adv-x="672" 
d="M107 209v296h30v-293q0 -89 47.5 -139.5t131.5 -50.5q95 0 152.5 61t57.5 163v259h30v-505h-30v126q-29 -64 -83.5 -98.5t-129.5 -34.5q-94 0 -150 58.5t-56 157.5zM220 640q0 14 9 23t23 9t23 -9t9 -23q0 -15 -9 -24t-23 -9t-23 9t-9 24zM379 640q0 14 9 23t23 9t23 -9
t9 -23q0 -15 -9 -24t-23 -9t-23 9t-9 24z" />
    <glyph glyph-name="yacute" unicode="&#xfd;" horiz-adv-x="544" 
d="M20 505h33l237 -484l73 172l129 312h33l-263 -630q-25 -59 -56 -85t-78 -26q-46 0 -82 20l11 26q33 -17 70 -17q38 0 62 21t46 72l40 97zM321 740h34l-71 -148h-31z" />
    <glyph glyph-name="thorn" unicode="&#xfe;" horiz-adv-x="689" 
d="M116 740h30v-366q30 67 90.5 105t139.5 38q112 0 183.5 -74.5t71.5 -190.5t-71.5 -190t-183.5 -74q-79 0 -139.5 38t-90.5 104v-360h-30v970zM210 83q63 -66 163 -66t164 65.5t64 169.5t-63.5 169.5t-164.5 65.5t-164 -65.5t-63 -169.5t64 -169z" />
    <glyph glyph-name="ydieresis" unicode="&#xff;" horiz-adv-x="544" 
d="M20 505h33l237 -484l73 172l129 312h33l-263 -630q-25 -59 -56 -85t-78 -26q-46 0 -82 20l11 26q33 -17 70 -17q38 0 62 21t46 72l40 97zM168 640q0 14 9 23t23 9t23 -9t9 -23q0 -15 -9 -24t-23 -9t-23 9t-9 24zM327 640q0 14 9 23t23 9t23 -9t9 -23q0 -15 -9 -24t-23 -9
t-23 9t-9 24z" />
    <glyph glyph-name="Amacron" unicode="&#x100;" horiz-adv-x="677" 
d="M323 700h33l299 -700h-32l-77 179h-414l-78 -179h-32zM144 209h390l-195 454zM201 795v27h276v-27h-276z" />
    <glyph glyph-name="amacron" unicode="&#x101;" horiz-adv-x="603" 
d="M65 148q0 75 58 120t157 45q87 0 186 -36v56q0 151 -175 151q-90 0 -182 -53l-13 26q97 56 196 56q98 0 151 -46.5t53 -132.5v-334h-30v108q-26 -51 -85.5 -83t-131.5 -32q-82 0 -133 42.5t-51 112.5zM95 148q0 -58 42.5 -92.5t113.5 -34.5q91 0 153 52t62 127v48
q-99 37 -185 37q-87 0 -136.5 -37t-49.5 -100zM159 655h268v-26h-268v26z" />
    <glyph glyph-name="Abreve" unicode="&#x102;" horiz-adv-x="677" 
d="M22 0l301 700h33l299 -700h-32l-77 179h-414l-78 -179h-32zM534 209l-195 454l-195 -454h390zM201 897l28 3q7 -107 111 -107t111 107l27 -3q-9 -130 -138 -130q-128 0 -139 130z" />
    <glyph glyph-name="abreve" unicode="&#x103;" horiz-adv-x="603" 
d="M65 148q0 75 58 120t157 45q87 0 186 -36v56q0 151 -175 151q-90 0 -182 -53l-13 26q97 56 196 56q98 0 151 -46.5t53 -132.5v-334h-30v108q-26 -51 -85.5 -83t-131.5 -32q-82 0 -133 42.5t-51 112.5zM95 148q0 -58 42.5 -92.5t113.5 -34.5q91 0 153 52t62 127v48
q-99 37 -185 37q-87 0 -136.5 -37t-49.5 -100zM185 741q4 -67 29 -96.5t79 -29.5q53 0 78 29.5t29 96.5l27 -3q-5 -77 -37.5 -113t-96.5 -36q-65 0 -97.5 36t-37.5 113z" />
    <glyph glyph-name="Aogonek" unicode="&#x104;" horiz-adv-x="677" 
d="M323 700h33l300 -700q-84 -60 -84 -122q0 -47 48 -47q26 0 60 23l15 -21q-39 -30 -77 -30q-34 0 -54 19.5t-20 53.5q0 68 77 128l-75 175h-414l-78 -179h-32zM144 209h390l-195 454z" />
    <glyph glyph-name="aogonek" unicode="&#x105;" horiz-adv-x="603" 
d="M65 148q0 75 58 120t157 45q87 0 186 -36v56q0 151 -175 151q-90 0 -182 -53l-13 26q97 56 196 56q98 0 151 -46.5t53 -132.5v-334q-85 -60 -85 -122q0 -47 49 -47q28 0 60 23l15 -21q-40 -30 -77 -30q-34 0 -54 19.5t-20 53.5q0 70 82 132v100q-26 -51 -85.5 -83
t-131.5 -32q-82 0 -133 42.5t-51 112.5zM138 56q42 -35 113 -35q91 0 153 52t62 127v48q-99 37 -185 37q-87 0 -136.5 -37t-49.5 -100q0 -58 43 -92z" />
    <glyph glyph-name="Cacute" unicode="&#x106;" horiz-adv-x="741" 
d="M159 610q94 102 240 102q183 0 288 -148l-24 -18q-43 65 -112.5 100.5t-151.5 35.5q-133 0 -218.5 -93t-85.5 -239q0 -145 86 -238.5t221 -93.5q82 0 153.5 38t119.5 107l24 -17q-114 -158 -297 -158q-148 0 -243 102t-95 260t95 260zM383 772l67 128h35l-72 -128h-30z
" />
    <glyph glyph-name="cacute" unicode="&#x107;" horiz-adv-x="561" 
d="M127 444q69 73 179 73q134 0 207 -99l-20 -19q-66 88 -187 88q-97 0 -157.5 -65t-60.5 -170t60.5 -170t159.5 -65q123 0 193 95l22 -19q-34 -48 -92 -76.5t-123 -28.5q-111 0 -180.5 73.5t-69.5 190.5q0 118 69 192zM346 740h34l-71 -148h-31z" />
    <glyph glyph-name="Ccircumflex" unicode="&#x108;" horiz-adv-x="741" 
d="M159 610q94 102 240 102q183 0 288 -148l-24 -18q-43 65 -112.5 100.5t-151.5 35.5q-133 0 -218.5 -93t-85.5 -239q0 -145 86 -238.5t221 -93.5q82 0 153.5 38t119.5 107l24 -17q-114 -158 -297 -158q-148 0 -243 102t-95 260t95 260zM388 900h23l128 -128h-37l-102 102
l-103 -102h-37z" />
    <glyph glyph-name="ccircumflex" unicode="&#x109;" horiz-adv-x="561" 
d="M58 252q0 118 69 191.5t179 73.5q134 0 207 -99l-20 -19q-66 88 -187 88q-97 0 -157.5 -65t-60.5 -170t60.5 -170t159.5 -65q123 0 193 95l22 -19q-34 -48 -92 -76.5t-123 -28.5q-111 0 -180.5 73.5t-69.5 190.5zM166 592l128 148h23l128 -148h-37l-102 121l-103 -121
h-37z" />
    <glyph glyph-name="Cdotaccent" unicode="&#x10a;" horiz-adv-x="741" 
d="M64 350q0 158 94.5 260t240.5 102q183 0 288 -148l-24 -18q-43 65 -112.5 100.5t-151.5 35.5q-133 0 -218.5 -93t-85.5 -239q0 -145 86 -238.5t221 -93.5q82 0 153.5 38t119.5 107l24 -17q-114 -158 -297 -158q-148 0 -243 102t-95 260zM376 839q9 9 24 9q14 0 23.5 -9.5
t9.5 -24.5t-9.5 -24.5t-23.5 -9.5q-15 0 -24.5 9.5t-9.5 24.5t10 25z" />
    <glyph glyph-name="cdotaccent" unicode="&#x10b;" horiz-adv-x="561" 
d="M58 252q0 118 69 191.5t179 73.5q134 0 207 -99l-20 -19q-66 88 -187 88q-97 0 -157.5 -65t-60.5 -170t60.5 -170t159.5 -65q123 0 193 95l22 -19q-34 -48 -92 -76.5t-123 -28.5q-111 0 -180.5 73.5t-69.5 190.5zM272 640q0 15 9.5 24.5t23.5 9.5q15 0 24.5 -9.5
t9.5 -24.5t-9.5 -24t-24.5 -9q-14 0 -23.5 9t-9.5 24z" />
    <glyph glyph-name="Ccaron" unicode="&#x10c;" horiz-adv-x="741" 
d="M159 610q94 102 240 102q183 0 288 -148l-24 -18q-43 65 -112.5 100.5t-151.5 35.5q-133 0 -218.5 -93t-85.5 -239q0 -145 86 -238.5t221 -93.5q82 0 153.5 38t119.5 107l24 -17q-114 -158 -297 -158q-148 0 -243 102t-95 260t95 260zM297 900l103 -102l102 102h37
l-128 -128h-23l-128 128h37z" />
    <glyph glyph-name="ccaron" unicode="&#x10d;" horiz-adv-x="561" 
d="M58 252q0 118 69 191.5t179 73.5q134 0 207 -99l-20 -19q-66 88 -187 88q-97 0 -157.5 -65t-60.5 -170t60.5 -170t159.5 -65q123 0 193 95l22 -19q-34 -48 -92 -76.5t-123 -28.5q-111 0 -180.5 73.5t-69.5 190.5zM166 740h37l103 -121l102 121h37l-128 -148h-23z" />
    <glyph glyph-name="Dcaron" unicode="&#x10e;" horiz-adv-x="760" 
d="M128 700h223q162 0 253.5 -93t91.5 -257t-91.5 -257t-253.5 -93h-223v700zM158 30h192q149 0 232.5 84.5t83.5 235.5t-83.5 235.5t-232.5 84.5h-192v-640zM241 900l103 -102l102 102h37l-128 -128h-23l-128 128h37z" />
    <glyph glyph-name="dcaron" unicode="&#x10f;" horiz-adv-x="692" 
d="M58 252q0 116 71.5 190.5t184.5 74.5q78 0 138.5 -37.5t90.5 -103.5v364h30v-740h-30v128q-30 -65 -90 -102.5t-139 -37.5q-113 0 -184.5 74t-71.5 190zM152 83q64 -66 164 -66t163.5 65.5t63.5 169.5t-63 169.5t-164 65.5t-164.5 -65.5t-63.5 -169.5t64 -169zM693 740
h31l-37 -206h-28z" />
    <glyph glyph-name="Dcroat" unicode="&#x110;" horiz-adv-x="782" 
d="M12 374h137v326h223q162 0 254 -93t92 -257t-92 -257t-254 -93h-223v345h-137v29zM179 30h193q149 0 232 84t83 236t-83 236t-232 84h-193v-297h196v-27h-196v-316z" />
    <glyph glyph-name="dcroat" unicode="&#x111;" horiz-adv-x="710" 
d="M573 631h91v-26h-91v-605h-30v128q-30 -65 -90 -102.5t-139 -37.5q-113 0 -184.5 74t-71.5 190t71.5 190t184.5 74q79 0 139 -37.5t90 -102.5v229h-207v26h207v109h30v-109zM316 17q100 0 163.5 65.5t63.5 169.5t-63 169.5t-164 65.5t-164.5 -65.5t-63.5 -169.5
t64 -169.5t164 -65.5z" />
    <glyph glyph-name="Emacron" unicode="&#x112;" horiz-adv-x="608" 
d="M128 700h412v-30h-382v-296h356v-29h-356v-315h396v-30h-426v700zM205 795v27h276v-27h-276z" />
    <glyph glyph-name="emacron" unicode="&#x113;" horiz-adv-x="595" 
d="M58 252q0 116 69 190.5t176 74.5q113 0 179 -75.5t66 -175.5q0 -14 -1 -29h-459q3 -98 63.5 -159t156.5 -61q117 0 193 91l21 -20q-83 -100 -215 -100q-111 0 -180 73t-69 191zM518 266q-2 97 -62 159.5t-153 62.5q-91 0 -151 -62.5t-64 -159.5h430zM438 655v-26h-268v26
h268z" />
    <glyph glyph-name="Ebreve" unicode="&#x114;" horiz-adv-x="608" 
d="M540 700v-30h-382v-296h356v-29h-356v-315h396v-30h-426v700h412zM205 897l28 3q7 -107 111 -107t111 107l27 -3q-9 -130 -138 -130q-128 0 -139 130z" />
    <glyph glyph-name="ebreve" unicode="&#x115;" horiz-adv-x="595" 
d="M58 252q0 116 69 190.5t176 74.5q113 0 179 -75.5t66 -175.5q0 -14 -1 -29h-459q3 -98 63.5 -159t156.5 -61q117 0 193 91l21 -20q-83 -100 -215 -100q-111 0 -180 73t-69 191zM88 266h430q-2 97 -62 159.5t-153 62.5q-91 0 -151 -62.5t-64 -159.5zM170 738l27 3
q4 -67 29 -96.5t79 -29.5q53 0 78 29.5t29 96.5l27 -3q-5 -77 -37.5 -113t-96.5 -36q-65 0 -97.5 36t-37.5 113z" />
    <glyph glyph-name="Edotaccent" unicode="&#x116;" horiz-adv-x="608" 
d="M128 0v700h412v-30h-382v-296h356v-29h-356v-315h396v-30h-426zM320 839q9 9 24 9q14 0 23.5 -9.5t9.5 -24.5t-9.5 -24.5t-23.5 -9.5q-15 0 -24.5 9.5t-9.5 24.5t10 25z" />
    <glyph glyph-name="edotaccent" unicode="&#x117;" horiz-adv-x="595" 
d="M127 443q69 74 176 74q113 0 179 -75.5t66 -175.5q0 -14 -1 -29h-459q3 -98 63.5 -159t156.5 -61q117 0 193 91l21 -20q-83 -100 -215 -100q-111 0 -180 73t-69 191q0 116 69 191zM88 266h430q-2 97 -62 159.5t-153 62.5q-91 0 -151 -62.5t-64 -159.5zM271 640
q0 15 9.5 24.5t23.5 9.5q15 0 24.5 -9.5t9.5 -24.5t-9.5 -24t-24.5 -9q-14 0 -23.5 9t-9.5 24z" />
    <glyph glyph-name="Eogonek" unicode="&#x118;" horiz-adv-x="608" 
d="M540 700v-30h-382v-296h356v-29h-356v-315h396v-30q-84 -60 -84 -122q0 -47 48 -47q26 0 60 23l15 -21q-39 -30 -77 -30q-34 0 -54 19.5t-20 53.5q0 66 72 124h-386v700h412z" />
    <glyph glyph-name="eogonek" unicode="&#x119;" horiz-adv-x="595" 
d="M56 252q0 116 68.5 190.5t175.5 74.5q114 0 179.5 -76t65.5 -175q0 -14 -1 -29h-459q4 -98 64.5 -159t155.5 -61q117 0 194 91l20 -20q-28 -35 -85 -70q-45 -26 -70 -60.5t-25 -69.5q0 -49 48 -49q26 0 61 24l14 -21q-39 -30 -76 -30q-34 0 -54 19.5t-20 53.5
q0 58 51 109q-30 -6 -58 -6q-111 0 -180 73t-69 191zM85 266h431q-1 97 -61.5 159.5t-154.5 62.5q-91 0 -151 -62.5t-64 -159.5z" />
    <glyph glyph-name="Ecaron" unicode="&#x11a;" horiz-adv-x="608" 
d="M128 0v700h412v-30h-382v-296h356v-29h-356v-315h396v-30h-426zM204 900h37l103 -102l102 102h37l-128 -128h-23z" />
    <glyph glyph-name="ecaron" unicode="&#x11b;" horiz-adv-x="595" 
d="M127 443q69 74 176 74q113 0 179 -75.5t66 -175.5q0 -14 -1 -29h-459q3 -98 63.5 -159t156.5 -61q117 0 193 91l21 -20q-83 -100 -215 -100q-111 0 -180 73t-69 191q0 116 69 191zM518 266q-2 97 -62 159.5t-153 62.5q-91 0 -151 -62.5t-64 -159.5h430zM165 740h37
l103 -121l102 121h37l-128 -148h-23z" />
    <glyph glyph-name="Gcircumflex" unicode="&#x11c;" horiz-adv-x="754" 
d="M158 610q93 102 239 102q159 0 269 -118l-21 -21q-47 51 -112.5 80t-135.5 29q-133 0 -217.5 -93t-84.5 -239q0 -152 83.5 -242t225.5 -90q150 0 257 88v224h-285v30h314v-268q-53 -50 -128 -77t-158 -27q-155 0 -247.5 98.5t-92.5 263.5q0 158 94 260zM386 900h23
l128 -128h-37l-102 102l-103 -102h-37z" />
    <glyph glyph-name="gcircumflex" unicode="&#x11d;" horiz-adv-x="649" 
d="M60 -156q0 75 75 115q-54 26 -54 77q0 54 65 92q-57 62 -57 154q0 99 64 161t167 62h284v-29h-169q54 -26 84.5 -77t30.5 -118q0 -98 -64 -159.5t-166 -61.5q-90 0 -152 49q-57 -31 -57 -72q0 -39 50 -58.5t174 -26.5q142 -9 197.5 -36.5t55.5 -88.5q0 -67 -63 -104
t-180 -37q-130 0 -207.5 43t-77.5 115zM174 143q55 -54 146 -54q90 0 145 53.5t55 139.5q0 87 -55 140.5t-145 53.5q-91 0 -146 -53.5t-55 -140.5q0 -86 55 -139zM90 -155q0 -60 69 -95t185 -35q104 0 159.5 29t55.5 83q0 46 -49 67t-176 29q-102 6 -165 23q-39 -16 -59 -44
t-20 -57zM310 740h23l128 -148h-37l-102 121l-103 -121h-37z" />
    <glyph glyph-name="Gbreve" unicode="&#x11e;" horiz-adv-x="754" 
d="M158 610q93 102 239 102q159 0 269 -118l-21 -21q-47 51 -112.5 80t-135.5 29q-133 0 -217.5 -93t-84.5 -239q0 -152 83.5 -242t225.5 -90q150 0 257 88v224h-285v30h314v-268q-53 -50 -128 -77t-158 -27q-155 0 -247.5 98.5t-92.5 263.5q0 158 94 260zM287 900
q7 -107 111 -107t111 107l27 -3q-9 -130 -138 -130q-128 0 -139 130z" />
    <glyph glyph-name="gbreve" unicode="&#x11f;" horiz-adv-x="649" 
d="M60 -156q0 75 75 115q-54 26 -54 77q0 54 65 92q-57 62 -57 154q0 99 64 161t167 62h284v-29h-169q54 -26 84.5 -77t30.5 -118q0 -98 -64 -159.5t-166 -61.5q-90 0 -152 49q-57 -31 -57 -72q0 -39 50 -58.5t174 -26.5q142 -9 197.5 -36.5t55.5 -88.5q0 -67 -63 -104
t-180 -37q-130 0 -207.5 43t-77.5 115zM119 282q0 -86 55 -139.5t146 -53.5q90 0 145 53.5t55 139.5q0 87 -55 140.5t-145 53.5q-91 0 -146 -53.5t-55 -140.5zM159 -250q69 -35 185 -35q104 0 159.5 29t55.5 83q0 46 -49 67t-176 29q-102 6 -165 23q-39 -16 -59 -44t-20 -57
q0 -60 69 -95zM214 741q4 -67 29 -96.5t79 -29.5q53 0 78 29.5t29 96.5l27 -3q-5 -77 -37.5 -113t-96.5 -36q-65 0 -97.5 36t-37.5 113z" />
    <glyph glyph-name="Gdotaccent" unicode="&#x120;" horiz-adv-x="754" 
d="M64 350q0 158 93.5 260t239.5 102q159 0 269 -118l-21 -21q-47 51 -112.5 80t-135.5 29q-133 0 -217.5 -93t-84.5 -239q0 -152 83.5 -242t225.5 -90q150 0 257 88v224h-285v30h314v-268q-53 -50 -128 -77t-158 -27q-155 0 -247.5 98.5t-92.5 263.5zM374 839q9 9 24 9
q14 0 23.5 -9.5t9.5 -24.5t-9.5 -24.5t-23.5 -9.5q-15 0 -24.5 9.5t-9.5 24.5t10 25z" />
    <glyph glyph-name="gdotaccent" unicode="&#x121;" horiz-adv-x="649" 
d="M135 -41q-54 26 -54 77q0 54 65 92q-57 62 -57 154q0 99 64 161t167 62h284v-29h-169q54 -26 84.5 -77t30.5 -118q0 -98 -64 -159.5t-166 -61.5q-90 0 -152 49q-57 -31 -57 -72q0 -39 50 -58.5t174 -26.5q142 -9 197.5 -36.5t55.5 -88.5q0 -67 -63 -104t-180 -37
q-130 0 -207.5 43t-77.5 115q0 75 75 115zM119 282q0 -86 55 -139.5t146 -53.5q90 0 145 53.5t55 139.5q0 87 -55 140.5t-145 53.5q-91 0 -146 -53.5t-55 -140.5zM159 -250q69 -35 185 -35q104 0 159.5 29t55.5 83q0 46 -49 67t-176 29q-102 6 -165 23q-39 -16 -59 -44
t-20 -57q0 -60 69 -95zM288 640q0 15 9.5 24.5t23.5 9.5q15 0 24.5 -9.5t9.5 -24.5t-9.5 -24t-24.5 -9q-14 0 -23.5 9t-9.5 24z" />
    <glyph glyph-name="uni0122" unicode="&#x122;" horiz-adv-x="754" 
d="M158 610q93 102 239 102q159 0 269 -118l-21 -21q-47 51 -112.5 80t-135.5 29q-133 0 -217.5 -93t-84.5 -239q0 -152 83.5 -242t225.5 -90q150 0 257 88v224h-285v30h314v-268q-53 -50 -128 -77t-158 -27q-155 0 -247.5 98.5t-92.5 263.5q0 158 94 260zM375 -66
q9 10 23 10q18 0 28 -13.5t10 -34.5q0 -64 -44 -113l-18 15q29 34 35 80q-3 -1 -10 -1q-14 0 -23.5 9t-9.5 24t9 24z" />
    <glyph glyph-name="uni0123" unicode="&#x123;" horiz-adv-x="649" 
d="M60 -156q0 75 75 115q-54 26 -54 77q0 54 65 92q-57 62 -57 154q0 99 64 161t167 62h284v-29h-169q54 -26 84.5 -77t30.5 -118q0 -98 -64 -159.5t-166 -61.5q-90 0 -152 49q-57 -31 -57 -72q0 -39 50 -58.5t174 -26.5q142 -9 197.5 -36.5t55.5 -88.5q0 -67 -63 -104
t-180 -37q-130 0 -207.5 43t-77.5 115zM119 282q0 -86 55 -139.5t146 -53.5q90 0 145 53.5t55 139.5q0 87 -55 140.5t-145 53.5q-91 0 -146 -53.5t-55 -140.5zM159 -250q69 -35 185 -35q104 0 159.5 29t55.5 83q0 46 -49 67t-176 29q-102 6 -165 23q-39 -16 -59 -44t-20 -57
q0 -60 69 -95zM280 625q0 64 44 113l18 -15q-29 -34 -35 -80q3 1 10 1q14 0 23.5 -9t9.5 -24t-9 -24.5t-23 -9.5q-18 0 -28 13.5t-10 34.5z" />
    <glyph glyph-name="Hcircumflex" unicode="&#x124;" horiz-adv-x="789" 
d="M128 700h30v-325h473v325h30v-700h-30v345h-473v-345h-30v700zM383 900h23l128 -128h-37l-102 102l-103 -102h-37z" />
    <glyph glyph-name="hcircumflex" unicode="&#x125;" horiz-adv-x="672" 
d="M116 740h30v-361q28 63 83 98t129 35q95 0 150.5 -58.5t55.5 -158.5v-295h-30v293q0 89 -47 139t-131 50q-95 0 -152.5 -60.5t-57.5 -162.5v-259h-30v740zM-8 812l128 128h23l128 -128h-37l-102 102l-103 -102h-37z" />
    <glyph glyph-name="Hbar" unicode="&#x126;" horiz-adv-x="777" 
d="M655 571h93v-28h-93v-543h-30v345h-473v-345h-30v543h-93v28h93v129h30v-129h473v129h30v-129zM152 543v-169h473v169h-473z" />
    <glyph glyph-name="hbar" unicode="&#x127;" horiz-adv-x="673" 
d="M360 512q94 0 150 -58.5t56 -158.5v-295h-30v293q0 89 -47.5 139t-131.5 50q-95 0 -152.5 -60.5t-57.5 -162.5v-259h-30v605h-91v26h91v109h30v-109h214v-26h-214v-226q28 63 83.5 98t129.5 35z" />
    <glyph glyph-name="Itilde" unicode="&#x128;" horiz-adv-x="286" 
d="M158 700v-700h-30v700h30zM81 857q26 0 65 -24t58 -24q32 0 55 39l22 -13q-31 -53 -76 -53q-27 0 -65.5 24t-58.5 24q-30 0 -54 -40l-22 14q31 53 76 53z" />
    <glyph glyph-name="itilde" unicode="&#x129;" horiz-adv-x="262" 
d="M146 505v-505h-30v505h30zM76 688q24 0 58.5 -24t51.5 -24q27 0 47 39l22 -13q-28 -53 -68 -53q-24 0 -58.5 24t-51.5 24q-26 0 -47 -40l-22 14q29 53 68 53z" />
    <glyph glyph-name="Imacron" unicode="&#x12a;" horiz-adv-x="286" 
d="M267 795h-249v27h249v-27zM158 0h-30v700h30v-700z" />
    <glyph glyph-name="imacron" unicode="&#x12b;" horiz-adv-x="262" 
d="M239 629h-217v26h217v-26zM146 0h-30v505h30v-505z" />
    <glyph glyph-name="Ibreve" unicode="&#x12c;" horiz-adv-x="286" 
d="M158 700v-700h-30v700h30zM32 900q7 -107 111 -107t111 107l27 -3q-9 -130 -138 -130q-128 0 -139 130z" />
    <glyph glyph-name="ibreve" unicode="&#x12d;" horiz-adv-x="262" 
d="M146 505v-505h-30v505h30zM33 741q4 -67 26.5 -96.5t71.5 -29.5q48 0 70.5 29.5t26.5 96.5l27 -3q-5 -78 -35 -113.5t-89 -35.5q-60 0 -90 35.5t-35 113.5z" />
    <glyph glyph-name="Iogonek" unicode="&#x12e;" horiz-adv-x="286" 
d="M46 -124q0 70 82 132v692h30v-700q-84 -60 -84 -122q0 -47 48 -47q26 0 60 23l15 -21q-39 -30 -77 -30q-34 0 -54 19.5t-20 53.5z" />
    <glyph glyph-name="iogonek" unicode="&#x12f;" horiz-adv-x="262" 
d="M51 -124q0 69 65 129v500h30v-505q-68 -60 -68 -122q0 -47 48 -47q27 0 59 23l15 -21q-40 -30 -76 -30q-34 0 -53.5 19.5t-19.5 53.5zM97 641q0 15 9.5 24.5t23.5 9.5q16 0 25.5 -9.5t9.5 -24.5t-9.5 -24.5t-25.5 -9.5q-14 0 -23.5 9.5t-9.5 24.5z" />
    <glyph glyph-name="Idotaccent" unicode="&#x130;" horiz-adv-x="286" 
d="M128 700h30v-700h-30v700zM119 839q9 9 24 9q14 0 23.5 -9.5t9.5 -24.5t-9.5 -24.5t-23.5 -9.5q-15 0 -24.5 9.5t-9.5 24.5t10 25z" />
    <glyph glyph-name="dotlessi" unicode="&#x131;" horiz-adv-x="262" 
d="M146 0h-30v505h30v-505z" />
    <glyph glyph-name="IJ" unicode="&#x132;" horiz-adv-x="763" 
d="M321 42q65 -24 123 -24q171 0 171 201v481h31v-482q0 -111 -52 -170.5t-150 -59.5q-62 0 -134 27zM158 700v-700h-30v700h30z" />
    <glyph glyph-name="ij" unicode="&#x133;" horiz-adv-x="524" 
d="M218 -190q43 -18 80 -18q43 0 61.5 28.5t18.5 94.5v590h30v-592q0 -150 -108 -150q-43 0 -91 20zM116 505h30v-505h-30v505zM359 641q0 15 9.5 24.5t23.5 9.5q16 0 25.5 -9.5t9.5 -24.5t-9.5 -24.5t-25.5 -9.5q-14 0 -23.5 9.5t-9.5 24.5zM107 666q9 9 23 9
q16 0 25.5 -9.5t9.5 -24.5t-9.5 -24.5t-25.5 -9.5q-14 0 -23.5 9.5t-9.5 24.5t10 25z" />
    <glyph glyph-name="Jcircumflex" unicode="&#x134;" horiz-adv-x="477" 
d="M35 42q65 -24 123 -24q171 0 171 201v481h31v-482q0 -111 -52 -170.5t-150 -59.5q-62 0 -134 27zM333 900h23l128 -128h-37l-102 102l-103 -102h-37z" />
    <glyph glyph-name="jcircumflex" unicode="&#x135;" horiz-adv-x="262" 
d="M-44 -190q43 -18 80 -18q43 0 61.5 28.5t18.5 94.5v590h30v-592q0 -150 -108 -150q-43 0 -91 20zM119 740h24l115 -148h-36l-91 120l-91 -120h-35z" />
    <glyph glyph-name="uni0136" unicode="&#x136;" horiz-adv-x="646" 
d="M158 700v-330h141l281 330h39l-292 -344l302 -356h-39l-289 340h-143v-340h-30v700h30zM295 -90q0 15 9 24.5t23 9.5q18 0 28 -13.5t10 -34.5q0 -64 -44 -113l-18 15q29 34 35 80q-3 -1 -10 -1q-14 0 -23.5 9t-9.5 24z" />
    <glyph glyph-name="uni0137" unicode="&#x137;" horiz-adv-x="539" 
d="M116 0v740h30v-463h109l215 228h39l-227 -241l243 -264h-39l-231 249h-109v-249h-30zM256 -90q0 15 9 24.5t23 9.5q18 0 28 -13.5t10 -34.5q0 -64 -44 -113l-18 15q29 34 35 80q-3 -1 -10 -1q-14 0 -23.5 9t-9.5 24z" />
    <glyph glyph-name="kgreenlandic" unicode="&#x138;" horiz-adv-x="539" 
d="M116 0v505h30v-228h108l216 228h39l-227 -241l243 -264h-39l-230 249h-110v-249h-30z" />
    <glyph glyph-name="Lacute" unicode="&#x139;" horiz-adv-x="582" 
d="M193 900h35l-72 -128h-30zM158 700v-670h376v-30h-406v700h30z" />
    <glyph glyph-name="lacute" unicode="&#x13a;" horiz-adv-x="262" 
d="M145 812h-30l67 128h35zM146 0h-30v740h30v-740z" />
    <glyph glyph-name="uni013B" unicode="&#x13b;" horiz-adv-x="582" 
d="M158 700v-670h376v-30h-406v700h30zM313 -66q9 10 23 10q18 0 28 -13.5t10 -34.5q0 -64 -44 -113l-18 15q29 34 35 80q-3 -1 -10 -1q-14 0 -23.5 9t-9.5 24t9 24z" />
    <glyph glyph-name="uni013C" unicode="&#x13c;" horiz-adv-x="262" 
d="M116 0v740h30v-740h-30zM106 -66q9 10 23 10q18 0 28 -13.5t10 -34.5q0 -64 -44 -113l-18 15q29 34 35 80q-3 -1 -10 -1q-14 0 -23.5 9t-9.5 24t9 24z" />
    <glyph glyph-name="Lcaron" unicode="&#x13d;" horiz-adv-x="582" 
d="M158 700v-670h376v-30h-406v700h30zM470 700h31l-37 -206h-28z" />
    <glyph glyph-name="lcaron" unicode="&#x13e;" horiz-adv-x="264" 
d="M116 0v740h30v-740h-30zM232 534l34 206h31l-38 -206h-27z" />
    <glyph glyph-name="Ldot" unicode="&#x13f;" horiz-adv-x="582" 
d="M128 700h30v-670h376v-30h-406v700zM341 395q10 10 25 10t26 -10.5t11 -25.5t-11 -25t-26 -10t-25.5 10t-10.5 25t11 26z" />
    <glyph glyph-name="ldot" unicode="&#x140;" horiz-adv-x="372" 
d="M116 0v740h30v-740h-30zM258 347q10 10 25 10t26 -10.5t11 -25.5t-11 -25t-26 -10t-25.5 10t-10.5 25t11 26z" />
    <glyph glyph-name="Lslash" unicode="&#x141;" horiz-adv-x="587" 
d="M132 349v351h31v-338l250 110v-31l-250 -110v-301h376v-30h-407v318l-122 -54v31z" />
    <glyph glyph-name="lslash" unicode="&#x142;" horiz-adv-x="283" 
d="M5 315l121 62v363h30v-348l122 63v-30l-122 -63v-362h-30v347l-121 -62v30z" />
    <glyph glyph-name="Nacute" unicode="&#x143;" horiz-adv-x="799" 
d="M155 700l486 -645v645h31v-700h-28l-486 646v-646h-30v700h27zM383 772l67 128h35l-72 -128h-30z" />
    <glyph glyph-name="nacute" unicode="&#x144;" horiz-adv-x="672" 
d="M116 505h30v-126q29 64 83.5 98.5t128.5 34.5q95 0 150.5 -58.5t55.5 -158.5v-295h-30v293q0 89 -47 139t-131 50q-95 0 -152.5 -61t-57.5 -163v-258h-30v505zM387 740h34l-71 -148h-31z" />
    <glyph glyph-name="uni0145" unicode="&#x145;" horiz-adv-x="799" 
d="M128 0v700h27l486 -645v645h31v-700h-28l-486 646v-646h-30zM357 -90q0 15 9 24.5t23 9.5q18 0 28 -13.5t10 -34.5q0 -64 -44 -113l-18 15q29 34 35 80q-3 -1 -10 -1q-14 0 -23.5 9t-9.5 24z" />
    <glyph glyph-name="uni0146" unicode="&#x146;" horiz-adv-x="672" 
d="M146 505v-126q29 64 83.5 98.5t128.5 34.5q95 0 150.5 -58.5t55.5 -158.5v-295h-30v293q0 89 -47 139t-131 50q-95 0 -152.5 -61t-57.5 -163v-258h-30v505h30zM316 -66q9 10 23 10q18 0 28 -13.5t10 -34.5q0 -64 -44 -113l-18 15q29 34 35 80q-3 -1 -10 -1q-14 0 -23.5 9
t-9.5 24t9 24z" />
    <glyph glyph-name="Ncaron" unicode="&#x147;" horiz-adv-x="799" 
d="M155 700l486 -645v645h31v-700h-28l-486 646v-646h-30v700h27zM260 900h37l103 -102l102 102h37l-128 -128h-23z" />
    <glyph glyph-name="ncaron" unicode="&#x148;" horiz-adv-x="672" 
d="M116 505h30v-126q29 64 83.5 98.5t128.5 34.5q95 0 150.5 -58.5t55.5 -158.5v-295h-30v293q0 89 -47 139t-131 50q-95 0 -152.5 -61t-57.5 -163v-258h-30v505zM207 740h37l103 -121l102 121h37l-128 -148h-23z" />
    <glyph glyph-name="napostrophe" unicode="&#x149;" horiz-adv-x="743" 
d="M187 0v505h30v-126q29 64 84 98.5t129 34.5q94 0 150 -58.5t56 -158.5v-295h-30v293q0 89 -47.5 139.5t-131.5 50.5q-95 0 -152.5 -61t-57.5 -164v-258h-30zM30 695q0 16 10 26.5t26 10.5q19 0 30 -14t11 -38q0 -70 -49 -124l-19 16q32 39 38 88q-3 -1 -11 -1
q-15 0 -25.5 10t-10.5 26z" />
    <glyph glyph-name="Eng" unicode="&#x14a;" horiz-adv-x="799" 
d="M641 55v645h31v-787q0 -77 -26.5 -113.5t-82.5 -36.5q-42 0 -91 20l10 27q41 -18 80 -18q43 0 61.5 29t18.5 94v88l-484 643v-646h-30v700h27z" />
    <glyph glyph-name="eng" unicode="&#x14b;" horiz-adv-x="672" 
d="M116 505h30v-125q28 63 83 97.5t129 34.5q95 0 150.5 -58.5t55.5 -158.5v-382q0 -150 -108 -150q-42 0 -91 20l10 27q41 -18 80 -18q43 0 61 28t18 94v379q0 89 -47 139t-131 50q-95 0 -152.5 -61t-57.5 -163v-258h-30v505z" />
    <glyph glyph-name="Omacron" unicode="&#x14c;" horiz-adv-x="823" 
d="M162 611q97 101 250 101t250 -101t97 -261t-97 -261t-250 -101q-154 0 -251 100.5t-97 261.5q0 160 98 261zM95 350q0 -148 88 -240t229 -92t229 92t88 240t-88 240t-229 92t-229 -92t-88 -240zM273 795v27h276v-27h-276z" />
    <glyph glyph-name="omacron" unicode="&#x14d;" horiz-adv-x="632" 
d="M58 252q0 117 72.5 191t185.5 74t185.5 -74t72.5 -191q0 -116 -72 -190q-73 -74 -186 -74t-185.5 74t-72.5 190zM88 252q0 -104 64 -169q63 -66 164 -66t164.5 65.5t63.5 169.5t-63.5 169.5t-164.5 65.5t-164.5 -65.5t-63.5 -169.5zM182 629v26h268v-26h-268z" />
    <glyph glyph-name="Obreve" unicode="&#x14e;" horiz-adv-x="823" 
d="M162 611q97 101 250 101t250 -101t97 -261t-97 -261t-250 -101q-154 0 -251 100.5t-97 261.5q0 160 98 261zM183 110q88 -92 229 -92t229 92t88 240t-88 240t-229 92t-229 -92t-88 -240t88 -240zM273 897l28 3q7 -107 111 -107t111 107l27 -3q-9 -130 -138 -130
q-128 0 -139 130z" />
    <glyph glyph-name="obreve" unicode="&#x14f;" horiz-adv-x="632" 
d="M58 252q0 117 72.5 191t185.5 74t185.5 -74t72.5 -191q0 -116 -72 -190q-73 -74 -186 -74t-185.5 74t-72.5 190zM152 83q63 -66 164 -66t164.5 65.5t63.5 169.5t-63.5 169.5t-164.5 65.5t-164.5 -65.5t-63.5 -169.5t64 -169zM181 738l27 3q4 -67 29 -96.5t79 -29.5
q53 0 78 29.5t29 96.5l27 -3q-5 -77 -37.5 -113t-96.5 -36q-65 0 -97.5 36t-37.5 113z" />
    <glyph glyph-name="Ohungarumlaut" unicode="&#x150;" horiz-adv-x="823" 
d="M162 611q97 101 250 101t250 -101t97 -261t-97 -261t-250 -101q-154 0 -251 100.5t-97 261.5q0 160 98 261zM183 110q88 -92 229 -92t229 92t88 240t-88 240t-229 92t-229 -92t-88 -240t88 -240zM443 772l68 128h33l-71 -128h-30zM331 772l63 128h33l-66 -128h-30z" />
    <glyph glyph-name="ohungarumlaut" unicode="&#x151;" horiz-adv-x="632" 
d="M131 443q72 74 185 74t185.5 -74t72.5 -191q0 -116 -72 -190q-73 -74 -186 -74t-185.5 74t-72.5 190q0 117 73 191zM152 83q63 -66 164 -66t164.5 65.5t63.5 169.5t-63.5 169.5t-164.5 65.5t-164.5 -65.5t-63.5 -169.5t64 -169zM347 592l68 148h33l-71 -148h-30zM298 740
h33l-66 -148h-30z" />
    <glyph glyph-name="OE" unicode="&#x152;" horiz-adv-x="1000" 
d="M165 616q100 96 276 96q72 0 126 -12h365v-30h-334v-296h317v-29h-317v-315h348v-30h-379q-54 -12 -126 -12q-176 0 -276.5 96.5t-100.5 265.5t101 266zM187 106q92 -88 256 -88q69 0 124 12v640q-54 12 -124 12q-164 0 -256 -87.5t-92 -244.5t92 -244z" />
    <glyph glyph-name="oe" unicode="&#x153;" horiz-adv-x="1041" 
d="M58 252q0 117 69.5 191t178.5 74q84 0 146 -46t87 -124q23 78 82 124t139 46q109 0 171.5 -75.5t62.5 -174.5q0 -15 -1 -30h-440q4 -99 62 -159.5t149 -60.5q113 0 184 91l20 -20q-75 -100 -204 -100q-82 0 -142 45t-84 123q-25 -77 -87 -122.5t-145 -45.5
q-109 0 -178.5 74t-69.5 190zM88 252q0 -104 61 -169q60 -66 157 -66t158 65.5t61 169.5t-61 169.5t-158 65.5t-157.5 -65.5t-60.5 -169.5zM553 266h411q-1 97 -58 159.5t-147 62.5q-88 0 -145.5 -62.5t-60.5 -159.5z" />
    <glyph glyph-name="Racute" unicode="&#x154;" horiz-adv-x="680" 
d="M128 700h266q103 0 163 -56.5t60 -152.5q0 -87 -50 -142t-137 -65l199 -284h-35l-198 282h-238v-282h-30v700zM158 311h236q90 0 141 47.5t51 132.5q0 84 -51 131.5t-141 47.5h-236v-359zM387 900h35l-72 -128h-30z" />
    <glyph glyph-name="racute" unicode="&#x155;" horiz-adv-x="420" 
d="M116 505h30v-124q46 131 172 131q46 0 95 -18l-10 -29q-47 17 -88 17q-83 0 -126 -66.5t-43 -193.5v-222h-30v505zM230 592l68 148h34l-71 -148h-31z" />
    <glyph glyph-name="uni0156" unicode="&#x156;" horiz-adv-x="680" 
d="M394 700q103 0 163 -56.5t60 -152.5q0 -87 -50 -142t-137 -65l199 -284h-35l-198 282h-238v-282h-30v700h266zM158 311h236q90 0 141 47.5t51 132.5q0 84 -51 131.5t-141 47.5h-236v-359zM325 -90q0 15 9 24.5t23 9.5q18 0 28 -13.5t10 -34.5q0 -64 -44 -113l-18 15
q29 34 35 80q-3 -1 -10 -1q-14 0 -23.5 9t-9.5 24z" />
    <glyph glyph-name="uni0157" unicode="&#x157;" horiz-adv-x="420" 
d="M146 505v-124q46 131 172 131q46 0 95 -18l-10 -29q-47 17 -88 17q-83 0 -126 -66.5t-43 -193.5v-222h-30v505h30zM106 -66q9 10 23 10q18 0 28 -13.5t10 -34.5q0 -64 -44 -113l-18 15q29 34 35 80q-3 -1 -10 -1q-14 0 -23.5 9t-9.5 24t9 24z" />
    <glyph glyph-name="Rcaron" unicode="&#x158;" horiz-adv-x="680" 
d="M128 700h266q103 0 163 -56.5t60 -152.5q0 -87 -50 -142t-137 -65l199 -284h-35l-198 282h-238v-282h-30v700zM158 311h236q90 0 141 47.5t51 132.5q0 84 -51 131.5t-141 47.5h-236v-359zM234 900l103 -102l102 102h37l-128 -128h-23l-128 128h37z" />
    <glyph glyph-name="rcaron" unicode="&#x159;" horiz-adv-x="420" 
d="M116 0v505h30v-124q46 131 172 131q46 0 95 -18l-10 -29q-47 17 -88 17q-83 0 -126 -66.5t-43 -193.5v-222h-30zM155 740l103 -121l102 121h37l-128 -148h-23l-128 148h37z" />
    <glyph glyph-name="Sacute" unicode="&#x15a;" horiz-adv-x="589" 
d="M71 124q96 -99 232 -99q97 0 153.5 40.5t56.5 109.5q0 61 -50 103.5t-158 70.5q-121 32 -175 77.5t-54 117.5q0 73 58.5 117t154.5 44q142 0 240 -107l-21 -21q-89 98 -220 98q-82 0 -131.5 -35.5t-49.5 -95.5t48 -98.5t162 -68.5q114 -31 170.5 -79.5t56.5 -121.5
q0 -82 -66 -131.5t-175 -49.5q-149 0 -252 107zM339 900h35l-72 -128h-30z" />
    <glyph glyph-name="sacute" unicode="&#x15b;" horiz-adv-x="471" 
d="M47 70l16 23q81 -72 182 -72q71 0 113 28t42 76q0 43 -37.5 71t-120.5 48q-94 22 -136.5 57t-42.5 88q0 56 45.5 90t121.5 34q108 0 190 -78l-18 -22q-71 71 -173 71q-62 0 -99 -25.5t-37 -68.5q0 -44 35 -70t123 -48q95 -24 137 -58.5t42 -88.5q0 -60 -51 -96.5
t-135 -36.5q-113 0 -197 78zM207 592l68 148h34l-71 -148h-31z" />
    <glyph glyph-name="Scircumflex" unicode="&#x15c;" horiz-adv-x="589" 
d="M51 102l20 22q96 -99 232 -99q97 0 153.5 40.5t56.5 109.5q0 61 -50 103.5t-158 70.5q-121 32 -175 77.5t-54 117.5q0 73 58.5 117t154.5 44q142 0 240 -107l-21 -21q-89 98 -220 98q-82 0 -131.5 -35.5t-49.5 -95.5t48 -98.5t162 -68.5q114 -31 170.5 -79.5t56.5 -121.5
q0 -82 -66 -131.5t-175 -49.5q-149 0 -252 107zM277 900h23l128 -128h-37l-102 102l-103 -102h-37z" />
    <glyph glyph-name="scircumflex" unicode="&#x15d;" horiz-adv-x="471" 
d="M47 70l16 23q81 -72 182 -72q71 0 113 28t42 76q0 43 -37.5 71t-120.5 48q-94 22 -136.5 57t-42.5 88q0 56 45.5 90t121.5 34q108 0 190 -78l-18 -22q-71 71 -173 71q-62 0 -99 -25.5t-37 -68.5q0 -44 35 -70t123 -48q95 -24 137 -58.5t42 -88.5q0 -60 -51 -96.5
t-135 -36.5q-113 0 -197 78zM95 592l128 148h23l128 -148h-37l-102 121l-103 -121h-37z" />
    <glyph glyph-name="Scedilla" unicode="&#x15e;" horiz-adv-x="589" 
d="M51 102l20 22q96 -99 232 -99q97 0 153.5 40.5t56.5 109.5q0 61 -50 103.5t-158 70.5q-121 32 -175 77.5t-54 117.5q0 73 58.5 117t154.5 44q142 0 240 -107l-21 -21q-89 98 -220 98q-82 0 -131.5 -35.5t-49.5 -95.5t48 -98.5t162 -68.5q114 -31 170.5 -79.5t56.5 -121.5
q0 -82 -66 -131.5t-175 -49.5h-1l-17 -67q18 4 34 4q32 0 63 -19t31 -65q0 -40 -30.5 -65t-80.5 -25q-64 0 -110 38l14 21q39 -33 95 -33q38 0 61.5 17.5t23.5 46.5q0 41 -27 50.5t-46 9.5q-24 0 -51 -9l-9 9l22 88q-130 8 -224 106z" />
    <glyph glyph-name="scedilla" unicode="&#x15f;" horiz-adv-x="471" 
d="M63 93q81 -72 182 -72q71 0 113 28t42 76q0 43 -37.5 71t-120.5 48q-94 22 -136.5 57t-42.5 88q0 56 45.5 90t121.5 34q108 0 190 -78l-18 -22q-71 71 -173 71q-62 0 -99 -25.5t-37 -68.5q0 -44 35 -70t123 -48q95 -24 137 -58.5t42 -88.5q0 -59 -49 -95.5t-130 -37.5
l-18 -64q18 4 34 4q32 0 63.5 -19t31.5 -65q0 -40 -31 -65t-81 -25q-63 0 -109 38l14 21q38 -33 95 -33q38 0 61 17.5t23 46.5q0 41 -27 50.5t-46 9.5q-23 0 -50 -9l-9 9l22 85q-100 6 -177 77z" />
    <glyph glyph-name="Scaron" unicode="&#x160;" horiz-adv-x="589" 
d="M51 102l20 22q96 -99 232 -99q97 0 153.5 40.5t56.5 109.5q0 61 -50 103.5t-158 70.5q-121 32 -175 77.5t-54 117.5q0 73 58.5 117t154.5 44q142 0 240 -107l-21 -21q-89 98 -220 98q-82 0 -131.5 -35.5t-49.5 -95.5t48 -98.5t162 -68.5q114 -31 170.5 -79.5t56.5 -121.5
q0 -82 -66 -131.5t-175 -49.5q-149 0 -252 107zM149 900h37l103 -102l102 102h37l-128 -128h-23z" />
    <glyph glyph-name="scaron" unicode="&#x161;" horiz-adv-x="471" 
d="M47 70l16 23q81 -72 182 -72q71 0 113 28t42 76q0 43 -37.5 71t-120.5 48q-94 22 -136.5 57t-42.5 88q0 56 45.5 90t121.5 34q108 0 190 -78l-18 -22q-71 71 -173 71q-62 0 -99 -25.5t-37 -68.5q0 -44 35 -70t123 -48q95 -24 137 -58.5t42 -88.5q0 -60 -51 -96.5
t-135 -36.5q-113 0 -197 78zM95 740h37l103 -121l102 121h37l-128 -148h-23z" />
    <glyph glyph-name="uni0162" unicode="&#x162;" horiz-adv-x="585" 
d="M554 700v-30h-246v-670h-2l-18 -72q18 4 34 4q32 0 63 -19t31 -65q0 -40 -30.5 -65t-80.5 -25q-64 0 -110 38l14 21q39 -33 95 -33q38 0 61.5 17.5t23.5 46.5q0 41 -27 50.5t-46 9.5q-24 0 -51 -9l-9 9l23 92h-2v670h-246v30h523z" />
    <glyph glyph-name="uni0163" unicode="&#x163;" horiz-adv-x="404" 
d="M145 505v124h30v-124h183v-29h-183v-337q0 -118 103 -118q44 0 93 25l11 -26q-52 -27 -98 -28l-18 -64q18 4 34 4q32 0 63.5 -19t31.5 -65q0 -40 -31 -65t-81 -25q-63 0 -109 38l14 21q38 -33 95 -33q38 0 61 17.5t23 46.5q0 41 -27 50.5t-46 9.5q-23 0 -50 -9l-9 9
l23 85q-55 6 -84 43.5t-29 102.5v337h-111v29h111z" />
    <glyph glyph-name="Tcaron" unicode="&#x164;" horiz-adv-x="585" 
d="M31 670v30h523v-30h-246v-670h-31v670h-246zM153 900h37l103 -102l102 102h37l-128 -128h-23z" />
    <glyph glyph-name="tcaron" unicode="&#x165;" horiz-adv-x="404" 
d="M145 505v124h30v-124h183v-29h-183v-337q0 -118 103 -118q44 0 93 25l11 -26q-56 -28 -105 -28q-64 0 -98 38t-34 109v337h-111v29h111zM328 590l36 150h31l-40 -150h-27z" />
    <glyph glyph-name="Tbar" unicode="&#x166;" horiz-adv-x="585" 
d="M554 700v-30h-246v-282h175v-28h-175v-360h-31v360h-174v28h174v282h-246v30h523z" />
    <glyph glyph-name="tbar" unicode="&#x167;" horiz-adv-x="404" 
d="M371 46l11 -26q-57 -28 -105 -28q-61 0 -96.5 37t-35.5 110v108h-110v27h110v202h-111v29h111v124h30v-124h183v-29h-183v-202h182v-27h-182v-108q0 -118 103 -118q43 0 93 25z" />
    <glyph glyph-name="Utilde" unicode="&#x168;" horiz-adv-x="768" 
d="M118 257v443h30v-442q0 -112 63.5 -176t172.5 -64t172.5 64t63.5 176v442h30v-443q0 -124 -72 -196q-73 -73 -194 -73t-193.5 72.5t-72.5 196.5zM246 804q31 53 76 53q26 0 65 -24t58 -24q32 0 55 39l22 -13q-31 -53 -76 -53q-27 0 -65.5 24t-58.5 24q-30 0 -54 -40z" />
    <glyph glyph-name="utilde" unicode="&#x169;" horiz-adv-x="672" 
d="M107 209v296h30v-293q0 -89 47.5 -139.5t131.5 -50.5q95 0 152.5 61t57.5 163v259h30v-505h-30v126q-29 -64 -83.5 -98.5t-129.5 -34.5q-94 0 -150 58.5t-56 157.5zM199 636q29 53 73 53q23 0 67 -26q34 -22 53 -22q30 0 52 40l22 -14q-31 -53 -73 -53q-25 0 -67 26
q-35 22 -53 22q-31 0 -52 -40z" />
    <glyph glyph-name="Umacron" unicode="&#x16a;" horiz-adv-x="768" 
d="M118 700h30v-442q0 -112 63.5 -176t172.5 -64t172.5 64t63.5 176v442h30v-443q0 -124 -72 -196q-73 -73 -194 -73t-193.5 72.5t-72.5 196.5v443zM245 795v27h276v-27h-276z" />
    <glyph glyph-name="umacron" unicode="&#x16b;" horiz-adv-x="672" 
d="M137 505v-293q0 -89 47.5 -139.5t131.5 -50.5q95 0 152.5 61t57.5 163v259h30v-505h-30v126q-29 -64 -83.5 -98.5t-129.5 -34.5q-94 0 -150 58.5t-56 157.5v296h30zM198 655h268v-26h-268v26z" />
    <glyph glyph-name="Ubreve" unicode="&#x16c;" horiz-adv-x="768" 
d="M148 700v-442q0 -112 63.5 -176t172.5 -64t172.5 64t63.5 176v442h30v-443q0 -124 -72 -196q-73 -73 -194 -73t-193.5 72.5t-72.5 196.5v443h30zM245 897l28 3q7 -107 111 -107t111 107l27 -3q-9 -130 -138 -130q-128 0 -139 130z" />
    <glyph glyph-name="ubreve" unicode="&#x16d;" horiz-adv-x="672" 
d="M107 209v296h30v-293q0 -89 47.5 -139.5t131.5 -50.5q95 0 152.5 61t57.5 163v259h30v-505h-30v126q-29 -64 -83.5 -98.5t-129.5 -34.5q-94 0 -150 58.5t-56 157.5zM224 741q4 -67 29 -96.5t79 -29.5q53 0 78 29.5t29 96.5l27 -3q-5 -77 -37.5 -113t-96.5 -36
q-65 0 -97.5 36t-37.5 113z" />
    <glyph glyph-name="Uring" unicode="&#x16e;" horiz-adv-x="768" 
d="M148 700v-442q0 -112 63.5 -176t172.5 -64t172.5 64t63.5 176v442h30v-443q0 -124 -72 -196q-73 -73 -194 -73t-193.5 72.5t-72.5 196.5v443h30zM307 931q31 31 77 31t77 -31t31 -76q0 -46 -31 -77t-77 -31t-77 31t-31 77q0 45 31 76zM302 855q0 -35 24 -58
q23 -24 58 -24t58.5 23.5t23.5 58.5t-23.5 58t-58.5 23t-58.5 -23.5t-23.5 -57.5z" />
    <glyph glyph-name="uring" unicode="&#x16f;" horiz-adv-x="672" 
d="M107 505h30v-293q0 -89 47.5 -139.5t131.5 -50.5q95 0 152.5 61t57.5 163v259h30v-505h-30v126q-29 -64 -83.5 -98.5t-129.5 -34.5q-94 0 -150 58.5t-56 157.5v296zM255 757q31 30 77 30t77 -30.5t31 -76.5t-31 -76q-31 -31 -77 -31t-77 30.5t-31 76.5t31 77zM274 622
q23 -24 58 -24t58.5 23.5t23.5 58.5t-23 59q-24 23 -59 23t-58.5 -23.5t-23.5 -58.5t24 -58z" />
    <glyph glyph-name="Uhungarumlaut" unicode="&#x170;" horiz-adv-x="768" 
d="M118 700h30v-442q0 -112 63.5 -176t172.5 -64t172.5 64t63.5 176v442h30v-443q0 -124 -72 -196q-73 -73 -194 -73t-193.5 72.5t-72.5 196.5v443zM483 900h33l-71 -128h-30zM303 772l63 128h33l-66 -128h-30z" />
    <glyph glyph-name="uhungarumlaut" unicode="&#x171;" horiz-adv-x="672" 
d="M137 505v-293q0 -89 47.5 -139.5t131.5 -50.5q95 0 152.5 61t57.5 163v259h30v-505h-30v126q-29 -64 -83.5 -98.5t-129.5 -34.5q-94 0 -150 58.5t-56 157.5v296h30zM363 592l68 148h33l-71 -148h-30zM314 740h33l-66 -148h-30z" />
    <glyph glyph-name="Uogonek" unicode="&#x172;" horiz-adv-x="768" 
d="M620 258v442h30v-443q0 -94 -42 -154.5t-106 -89.5q-122 -55 -122 -135q0 -47 48 -47q27 0 61 23l14 -21q-39 -30 -77 -30q-34 0 -53.5 19.5t-19.5 53.5q0 63 62 113q-10 -1 -31 -1q-121 0 -193.5 72.5t-72.5 196.5v443h30v-442q0 -112 63.5 -176t172.5 -64q112 0 174 65
t62 175z" />
    <glyph glyph-name="uogonek" unicode="&#x173;" horiz-adv-x="672" 
d="M137 505v-293q0 -89 47.5 -139.5t131.5 -50.5q95 0 152.5 61t57.5 163v259h30v-505q-85 -60 -85 -122q0 -47 49 -47q28 0 60 23l15 -21q-40 -30 -77 -30q-34 0 -54 19.5t-20 53.5q0 70 82 132v118q-29 -64 -83.5 -98.5t-129.5 -34.5q-94 0 -150 58.5t-56 157.5v296h30z
" />
    <glyph glyph-name="Wcircumflex" unicode="&#x174;" horiz-adv-x="1023" 
d="M29 700h31l216 -656l222 604h29l223 -604l213 656h31l-228 -700h-33l-220 601l-221 -601h-33zM501 900h23l128 -128h-37l-102 102l-103 -102h-37z" />
    <glyph glyph-name="wcircumflex" unicode="&#x175;" horiz-adv-x="846" 
d="M58 505l173 -463l178 430h28l178 -428l174 461h31l-190 -505h-30l-177 429l-177 -429h-30l-190 505h32zM284 592l128 148h23l128 -148h-37l-102 121l-103 -121h-37z" />
    <glyph glyph-name="Ycircumflex" unicode="&#x176;" horiz-adv-x="637" 
d="M61 700l257 -393l258 393h36l-278 -425v-275h-30v275l-279 425h36zM180 772l128 128h23l128 -128h-37l-102 102l-103 -102h-37z" />
    <glyph glyph-name="ycircumflex" unicode="&#x177;" horiz-adv-x="544" 
d="M53 505l237 -484l73 172l129 312h33l-263 -630q-25 -59 -56 -85t-78 -26q-46 0 -82 20l11 26q33 -17 70 -17q38 0 62 21t46 72l40 97l-255 522h33zM269 740h23l128 -148h-37l-102 121l-103 -121h-37z" />
    <glyph glyph-name="Ydieresis" unicode="&#x178;" horiz-adv-x="637" 
d="M61 700l257 -393l258 393h36l-278 -425v-275h-30v275l-279 425h36zM217 837q9 9 23 9t23.5 -9t9.5 -24t-9 -24q-10 -9 -24 -9t-23 9t-9 24t9 24zM376 837q9 9 23 9t23.5 -9t9.5 -24t-9 -24q-10 -9 -24 -9t-23 9t-9 24t9 24z" />
    <glyph glyph-name="Zacute" unicode="&#x179;" horiz-adv-x="581" 
d="M343 900h35l-72 -128h-30zM94 30h438v-30h-477v26l425 644h-414v30h452v-26z" />
    <glyph glyph-name="zacute" unicode="&#x17a;" horiz-adv-x="485" 
d="M283 740h34l-71 -148h-31zM88 28h353v-28h-391v25l340 451h-330v29h370v-25z" />
    <glyph glyph-name="Zdotaccent" unicode="&#x17b;" horiz-adv-x="581" 
d="M55 26l425 644h-414v30h452v-26l-424 -644h438v-30h-477v26zM269 839q9 9 24 9q14 0 23.5 -9.5t9.5 -24.5t-9.5 -24.5t-23.5 -9.5q-15 0 -24.5 9.5t-9.5 24.5t10 25z" />
    <glyph glyph-name="zdotaccent" unicode="&#x17c;" horiz-adv-x="485" 
d="M50 25l340 451h-330v29h370v-25l-342 -452h353v-28h-391v25zM219 665q9 9 23 9q15 0 24.5 -9.5t9.5 -24.5t-9.5 -24t-24.5 -9q-14 0 -23.5 9t-9.5 24t10 25z" />
    <glyph glyph-name="Zcaron" unicode="&#x17d;" horiz-adv-x="581" 
d="M480 670h-414v30h452v-26l-424 -644h438v-30h-477v26zM153 900h37l103 -102l102 102h37l-128 -128h-23z" />
    <glyph glyph-name="zcaron" unicode="&#x17e;" horiz-adv-x="485" 
d="M390 476h-330v29h370v-25l-342 -452h353v-28h-391v25zM103 740h37l103 -121l102 121h37l-128 -148h-23z" />
    <glyph glyph-name="longs" unicode="&#x17f;" horiz-adv-x="389" 
d="M41 505h123v94q0 73 32.5 109.5t90.5 36.5q47 0 99 -28l-12 -25q-44 24 -86 24q-94 0 -94 -118v-598h-30v476h-123v29z" />
    <glyph glyph-name="florin" unicode="&#x192;" horiz-adv-x="435" 
d="M349 711q-46 0 -70.5 -29.5t-33.5 -96.5l-11 -80h156v-29h-159l-74 -559q-20 -152 -131 -152q-59 0 -102 37l16 23q37 -31 83 -31t70.5 29.5t33.5 95.5l73 557h-145v29h149l11 83q20 152 131 152q59 0 102 -37l-16 -24q-37 32 -83 32z" />
    <glyph glyph-name="AEacute" unicode="&#x1fc;" horiz-adv-x="924" 
d="M462 700h395v-29h-356v-296h330v-30h-330v-315h370v-30h-400v181h-304l-114 -181h-35zM186 210h285v448zM577 900h35l-72 -128h-30z" />
    <glyph glyph-name="aeacute" unicode="&#x1fd;" horiz-adv-x="992" 
d="M65 142q0 77 60 124t158 47q89 0 183 -45v65q0 155 -175 155q-88 0 -182 -57l-13 26q97 60 195 60q85 0 136.5 -36.5t63.5 -104.5q28 65 85 103t130 38q110 0 174.5 -76t64.5 -175q0 -14 -1 -29h-449q5 -99 63.5 -159.5t151.5 -60.5q114 0 188 91l21 -20
q-78 -100 -209 -100q-81 0 -141 42t-86 115q-20 -68 -85.5 -112.5t-148.5 -44.5q-82 0 -133 42.5t-51 111.5zM138 52q42 -35 113 -35q90 0 152.5 55t62.5 136v32q-101 45 -181 45q-87 0 -138.5 -38.5t-51.5 -103.5q0 -57 43 -91zM915 266q-2 97 -60.5 159.5t-149.5 62.5
q-89 0 -148 -62.5t-62 -159.5h420zM478 592l68 148h34l-71 -148h-31z" />
    <glyph glyph-name="Oslashacute" unicode="&#x1fe;" horiz-adv-x="823" 
d="M162 611q97 101 250 101q94 0 168 -40l64 110l24 -14l-63 -110q73 -46 113.5 -126t40.5 -182q0 -160 -97 -261t-250 -101q-94 0 -171 40l-63 -109l-24 14l64 109q-73 46 -113.5 126t-40.5 182q0 160 98 261zM412 18q141 0 229 92t88 240q0 93 -36.5 166t-102.5 116
l-333 -578q70 -36 155 -36zM132 184q36 -73 101 -116l333 578q-69 36 -154 36q-141 0 -229 -92t-88 -240q0 -93 37 -166zM462 900h35l-72 -128h-30z" />
    <glyph glyph-name="oslashacute" unicode="&#x1ff;" horiz-adv-x="632" 
d="M131 443q72 74 185 74q71 0 128 -31l49 81l24 -14l-50 -81q107 -75 107 -220q0 -116 -72.5 -190t-185.5 -74q-71 0 -128 31l-50 -82l-24 14l51 82q-107 75 -107 219q0 117 73 191zM316 17q101 0 164.5 65.5t63.5 169.5q0 129 -93 195l-248 -403q48 -27 113 -27zM180 58
l248 403q-49 26 -112 26q-101 0 -164.5 -65.5t-63.5 -169.5q0 -128 92 -194zM289 592l68 148h34l-71 -148h-31z" />
    <glyph glyph-name="uni0218" unicode="&#x218;" horiz-adv-x="589" 
d="M51 102l20 22q96 -99 232 -99q97 0 153.5 40.5t56.5 109.5q0 61 -50 103.5t-158 70.5q-121 32 -175 77.5t-54 117.5q0 73 58.5 117t154.5 44q142 0 240 -107l-21 -21q-89 98 -220 98q-82 0 -131.5 -35.5t-49.5 -95.5t48 -98.5t162 -68.5q114 -31 170.5 -79.5t56.5 -121.5
q0 -82 -66 -131.5t-175 -49.5q-149 0 -252 107zM265 -66q9 10 23 10q18 0 28 -13.5t10 -34.5q0 -64 -44 -113l-18 15q29 34 35 80q-3 -1 -10 -1q-14 0 -23.5 9t-9.5 24t9 24z" />
    <glyph glyph-name="uni0219" unicode="&#x219;" horiz-adv-x="471" 
d="M47 70l16 23q81 -72 182 -72q71 0 113 28t42 76q0 43 -37.5 71t-120.5 48q-94 22 -136.5 57t-42.5 88q0 56 45.5 90t121.5 34q108 0 190 -78l-18 -22q-71 71 -173 71q-62 0 -99 -25.5t-37 -68.5q0 -44 35 -70t123 -48q95 -24 137 -58.5t42 -88.5q0 -60 -51 -96.5
t-135 -36.5q-113 0 -197 78zM214 -66q9 10 23 10q18 0 28 -13.5t10 -34.5q0 -64 -44 -113l-18 15q29 34 35 80q-3 -1 -10 -1q-14 0 -23.5 9t-9.5 24t9 24z" />
    <glyph glyph-name="uni021A" unicode="&#x21a;" horiz-adv-x="585" 
d="M31 670v30h523v-30h-246v-670h-31v670h-246zM268 -66q9 10 23 10q18 0 28 -13.5t10 -34.5q0 -64 -44 -113l-18 15q29 34 35 80q-3 -1 -10 -1q-14 0 -23.5 9t-9.5 24t9 24z" />
    <glyph glyph-name="uni021B" unicode="&#x21b;" horiz-adv-x="404" 
d="M34 476v29h111v124h30v-124h183v-29h-183v-337q0 -118 103 -118q44 0 93 25l11 -26q-56 -28 -105 -28q-64 0 -98 38t-34 109v337h-111zM238 -90q0 15 9 24.5t23 9.5q18 0 28 -13.5t10 -34.5q0 -64 -44 -113l-18 15q29 34 35 80q-3 -1 -10 -1q-14 0 -23.5 9t-9.5 24z" />
    <glyph glyph-name="uni0237" unicode="&#x237;" horiz-adv-x="262" 
d="M-44 -190q43 -18 80 -18q43 0 61.5 28.5t18.5 94.5v590h30v-592q0 -150 -108 -150q-43 0 -91 20z" />
    <glyph glyph-name="circumflex" unicode="&#x2c6;" horiz-adv-x="479" 
d="M100 592l128 148h23l128 -148h-37l-102 121l-103 -121h-37z" />
    <glyph glyph-name="caron" unicode="&#x2c7;" horiz-adv-x="479" 
d="M100 740h37l103 -121l102 121h37l-128 -148h-23z" />
    <glyph glyph-name="breve" unicode="&#x2d8;" horiz-adv-x="469" 
d="M127 741q4 -67 29 -96.5t79 -29.5q53 0 78 29.5t29 96.5l27 -3q-5 -77 -37.5 -113t-96.5 -36q-65 0 -97.5 36t-37.5 113z" />
    <glyph glyph-name="dotaccent" unicode="&#x2d9;" horiz-adv-x="267" 
d="M110 665q9 9 23 9q15 0 24.5 -9.5t9.5 -24.5t-9.5 -24t-24.5 -9q-14 0 -23.5 9t-9.5 24t10 25z" />
    <glyph glyph-name="ring" unicode="&#x2da;" horiz-adv-x="416" 
d="M131 757q31 30 77 30t77 -30.5t31 -76.5t-31 -76q-31 -31 -77 -31t-77 30.5t-31 76.5t31 77zM126 680q0 -35 24 -58q23 -24 58 -24t58.5 23.5t23.5 58.5t-23.5 58.5t-58.5 23.5t-58.5 -23.5t-23.5 -58.5z" />
    <glyph glyph-name="ogonek" unicode="&#x2db;" horiz-adv-x="351" 
d="M174 -197q-34 0 -54 19.5t-20 53.5q0 77 96 142l16 -18q-85 -60 -85 -122q0 -47 49 -47q28 0 60 23l15 -21q-40 -30 -77 -30z" />
    <glyph glyph-name="tilde" unicode="&#x2dc;" horiz-adv-x="467" 
d="M173 689q23 0 67 -26q34 -22 53 -22q30 0 52 40l22 -14q-31 -53 -73 -53q-25 0 -67 26q-35 22 -53 22q-31 0 -52 -40l-22 14q29 53 73 53z" />
    <glyph glyph-name="hungarumlaut" unicode="&#x2dd;" horiz-adv-x="413" 
d="M280 740h33l-71 -148h-30zM163 740h33l-66 -148h-30z" />
    <glyph glyph-name="gravecomb" unicode="&#x300;" 
d="M-168 740l68 -148h-31l-71 148h34z" />
    <glyph glyph-name="acutecomb" unicode="&#x301;" 
d="M-171 592h-31l68 148h34z" />
    <glyph glyph-name="uni0302" unicode="&#x302;" 
d="M-379 592l128 148h23l128 -148h-37l-102 121l-103 -121h-37z" />
    <glyph glyph-name="tildecomb" unicode="&#x303;" 
d="M-294 689q23 0 67 -26q34 -22 53 -22q30 0 52 40l22 -14q-31 -53 -73 -53q-25 0 -67 26q-35 22 -53 22q-31 0 -52 -40l-22 14q29 53 73 53z" />
    <glyph glyph-name="uni0304" unicode="&#x304;" 
d="M-100 629h-268v26h268v-26z" />
    <glyph glyph-name="uni0306" unicode="&#x306;" 
d="M-342 741q4 -67 29 -96.5t79 -29.5q53 0 78 29.5t29 96.5l27 -3q-5 -77 -37.5 -113t-96.5 -36q-65 0 -97.5 36t-37.5 113z" />
    <glyph glyph-name="uni0307" unicode="&#x307;" 
d="M-158 665q10 9 24 9q15 0 24.5 -9.5t9.5 -24.5t-9.5 -24t-24.5 -9q-14 0 -23.5 9t-9.5 24t9 25z" />
    <glyph glyph-name="uni0308" unicode="&#x308;" 
d="M-164 640q0 14 9 23t23 9t23 -9t9 -23q0 -15 -9 -24t-23 -9t-23 9t-9 24zM-323 640q0 14 9 23t23 9t23 -9t9 -23q0 -15 -9 -24t-23 -9t-23 9t-9 24z" />
    <glyph glyph-name="uni030A" unicode="&#x30a;" 
d="M-285 757q31 30 77 30t77 -30.5t31 -76.5t-31 -76q-31 -31 -77 -31t-77 30.5t-31 76.5t31 77zM-290 680q0 -35 23 -58q24 -24 59 -24t58.5 23.5t23.5 58.5t-23.5 58.5t-58.5 23.5t-58.5 -23.5t-23.5 -58.5z" />
    <glyph glyph-name="uni030B" unicode="&#x30b;" 
d="M-133 740h33l-71 -148h-30zM-250 740h33l-66 -148h-30z" />
    <glyph glyph-name="uni030C" unicode="&#x30c;" 
d="M-379 740h37l103 -121l102 121h37l-128 -148h-23z" />
    <glyph glyph-name="uni0312" unicode="&#x312;" 
d="M-126 738l17 -15q-28 -33 -34 -80q3 1 10 1q14 0 23.5 -9t9.5 -24t-9.5 -24.5t-23.5 -9.5q-17 0 -27 13.5t-10 34.5q0 64 44 113z" />
    <glyph glyph-name="uni0326" unicode="&#x326;" 
d="M-161 -66q9 10 23 10q18 0 28 -13.5t10 -34.5q0 -64 -44 -113l-18 15q29 35 34 80q-2 -1 -9 -1q-14 0 -23.5 9t-9.5 24t9 24z" />
    <glyph glyph-name="uni0327" unicode="&#x327;" 
d="M-321 -204l14 21q38 -33 95 -33q38 0 61 17.5t23 46.5q0 41 -27 50.5t-46 9.5q-23 0 -50 -9l-9 9l26 98l26 -3l-21 -75q18 4 34 4q32 0 63.5 -19t31.5 -65q0 -40 -31 -65t-81 -25q-63 0 -109 38z" />
    <glyph glyph-name="uni0328" unicode="&#x328;" 
d="M-155 18l16 -18q-85 -60 -85 -122q0 -47 49 -47q28 0 60 23l15 -21q-40 -30 -77 -30q-34 0 -54 19.5t-20 53.5q0 77 96 142z" />
    <glyph glyph-name="uni03BC" unicode="&#x3bc;" horiz-adv-x="680" 
d="M534 245v260h30v-505h-29v126q-25 -61 -78 -96.5t-119 -35.5q-142 0 -192 113v-337h-30v735h30v-260q0 -223 193 -223q86 0 140.5 62t54.5 161z" />
    <glyph glyph-name="pi" unicode="&#x3c0;" horiz-adv-x="628" 
d="M576 37l11 -28q-31 -17 -64 -17q-41 0 -64 26t-23 76v381h-273v-475h-30v475h-92v30h518v-30h-93v-379q0 -75 59 -75q27 0 51 16z" />
    <glyph glyph-name="uni0400" unicode="&#x400;" horiz-adv-x="608" 
d="M128 700h412v-30h-382v-296h356v-29h-356v-315h396v-30h-426v700zM258 900h35l67 -128h-30z" />
    <glyph glyph-name="uni0401" unicode="&#x401;" horiz-adv-x="608" 
d="M128 700h412v-30h-382v-296h356v-29h-356v-315h396v-30h-426v700zM232 813q0 15 9 24t23 9t23.5 -9t9.5 -24t-9 -24q-10 -9 -24 -9t-23 9t-9 24zM391 813q0 15 9 24t23 9t23.5 -9t9.5 -24t-9 -24q-10 -9 -24 -9t-23 9t-9 24z" />
    <glyph glyph-name="uni0402" unicode="&#x402;" horiz-adv-x="824" 
d="M514 448q118 0 184.5 -63t66.5 -169q0 -103 -58 -165t-150 -62q-84 0 -151 45l14 26q60 -41 137 -41q80 0 129 53t49 143q0 95 -58 149t-164 54q-107 0 -214 -58v-360h-31v670h-237v30h544v-30h-276v-278q109 56 215 56z" />
    <glyph glyph-name="uni0403" unicode="&#x403;" horiz-adv-x="545" 
d="M372 900h35l-72 -128h-30zM128 700h389v-30h-359v-670h-30v700z" />
    <glyph glyph-name="uni0404" unicode="&#x404;" horiz-adv-x="741" 
d="M64 350q0 158 94.5 260t240.5 102q182 0 285 -147l-24 -18q-42 65 -111 100t-149 35q-129 0 -214 -87t-92 -225h443v-30h-443q3 -142 89.5 -232t218.5 -90q82 0 152.5 37.5t117.5 106.5l24 -18q-112 -156 -294 -156q-148 0 -243 102t-95 260z" />
    <glyph glyph-name="uni0405" unicode="&#x405;" horiz-adv-x="589" 
d="M71 124q96 -99 232 -99q97 0 153.5 40.5t56.5 109.5q0 61 -50 103.5t-158 70.5q-121 32 -175 77.5t-54 117.5q0 73 58.5 117t154.5 44q142 0 240 -107l-21 -21q-89 98 -220 98q-82 0 -131.5 -35.5t-49.5 -95.5t48 -98.5t162 -68.5q114 -31 170.5 -79.5t56.5 -121.5
q0 -82 -66 -131.5t-175 -49.5q-149 0 -252 107z" />
    <glyph glyph-name="uni0406" unicode="&#x406;" horiz-adv-x="286" 
d="M158 0h-30v700h30v-700z" />
    <glyph glyph-name="uni0407" unicode="&#x407;" horiz-adv-x="286" 
d="M128 700h30v-700h-30v700zM190 813q0 15 9 24t23 9t23.5 -9t9.5 -24t-9 -24q-10 -9 -24 -9t-23 9t-9 24zM31 813q0 15 9 24t23 9t23.5 -9t9.5 -24t-9 -24q-10 -9 -24 -9t-23 9t-9 24z" />
    <glyph glyph-name="uni0408" unicode="&#x408;" horiz-adv-x="477" 
d="M24 15l11 27q65 -24 123 -24q171 0 171 201v481h31v-482q0 -111 -52 -170.5t-150 -59.5q-62 0 -134 27z" />
    <glyph glyph-name="uni0409" unicode="&#x409;" horiz-adv-x="1094" 
d="M622 421h200q114 0 175 -54.5t61 -156.5q0 -101 -61 -155.5t-175 -54.5h-231v670h-355l-27 -401q-9 -138 -50.5 -197.5t-137.5 -76.5l-6 29q84 14 119 66t44 182l30 428h414v-279zM622 30h199q102 0 154.5 45.5t52.5 134.5t-52.5 135t-154.5 46h-199v-361z" />
    <glyph glyph-name="uni040A" unicode="&#x40a;" horiz-adv-x="1130" 
d="M128 0v700h30v-314h463v314h30v-308h206q114 0 175.5 -51t61.5 -146q0 -94 -61.5 -144.5t-175.5 -50.5h-236v356h-463v-356h-30zM856 30q208 0 208 165q0 82 -53 125t-155 43h-205v-333h205z" />
    <glyph glyph-name="uni040B" unicode="&#x40b;" horiz-adv-x="838" 
d="M504 449q120 0 181.5 -65.5t61.5 -192.5v-191h-30v190q0 229 -213 229q-105 0 -205 -50v-369h-31v670h-237v30h547v-30h-279v-269q103 48 205 48z" />
    <glyph glyph-name="uni040C" unicode="&#x40c;" horiz-adv-x="646" 
d="M128 700h30v-330h141l281 330h39l-292 -344l302 -356h-39l-289 340h-143v-340h-30v700zM313 772l67 128h35l-72 -128h-30z" />
    <glyph glyph-name="uni040D" unicode="&#x40d;" horiz-adv-x="799" 
d="M128 700h30v-647l486 647h28v-700h-31v647l-486 -647h-27v700zM316 900h35l67 -128h-30z" />
    <glyph glyph-name="uni040E" unicode="&#x40e;" horiz-adv-x="674" 
d="M56 700l304 -522l259 522h34l-302 -607q-28 -57 -58.5 -81t-74.5 -24q-49 0 -94 24l12 27q39 -21 81 -21q35 0 59 20t48 68l19 38l-321 556h34zM227 900q7 -107 111 -107t111 107l27 -3q-9 -130 -138 -130q-128 0 -139 130z" />
    <glyph glyph-name="uni040F" unicode="&#x40f;" horiz-adv-x="788" 
d="M631 30v670h29v-700h-251v-166h-30v166h-251v700h30v-670h473z" />
    <glyph glyph-name="uni0410" unicode="&#x410;" horiz-adv-x="677" 
d="M323 700h33l299 -700h-32l-77 179h-414l-78 -179h-32zM144 209h390l-195 454z" />
    <glyph glyph-name="uni0411" unicode="&#x411;" horiz-adv-x="649" 
d="M551 700v-30h-393v-255h200q114 0 175.5 -53.5t61.5 -153.5t-61.5 -154t-175.5 -54h-230v700h423zM357 30q207 0 207 178q0 87 -52.5 132.5t-154.5 45.5h-199v-356h199z" />
    <glyph glyph-name="uni0412" unicode="&#x412;" horiz-adv-x="673" 
d="M128 700h266q86 0 141 -50t55 -129q0 -54 -27.5 -96.5t-75.5 -62.5q57 -16 91.5 -64t34.5 -112q0 -88 -57 -137t-160 -49h-268v700zM158 345v-316h237q91 0 139 40.5t48 117.5q0 72 -45.5 115t-122.5 43h-256zM158 671v-297h255q63 0 104.5 41.5t41.5 105.5q0 66 -46 108
t-120 42h-235z" />
    <glyph glyph-name="uni0413" unicode="&#x413;" horiz-adv-x="545" 
d="M128 700h389v-30h-359v-670h-30v700z" />
    <glyph glyph-name="uni0414" unicode="&#x414;" horiz-adv-x="779" 
d="M625 700v-670h123v-196h-30v166h-656v-166h-30v196h79q33 34 49.5 74.5t20.5 104.5l35 491h409zM244 670l-32 -463q-9 -113 -61 -177h443v640h-350z" />
    <glyph glyph-name="uni0415" unicode="&#x415;" horiz-adv-x="608" 
d="M128 0v700h412v-30h-382v-296h356v-29h-356v-315h396v-30h-426z" />
    <glyph glyph-name="uni0416" unicode="&#x416;" horiz-adv-x="978" 
d="M16 0l290 356l-280 344h39l268 -330h141v330h30v-330h141l268 330h39l-279 -345l289 -355h-39l-276 340h-143v-340h-30v340h-143l-276 -340h-39z" />
    <glyph glyph-name="uni0417" unicode="&#x417;" horiz-adv-x="604" 
d="M79 106q83 -81 224 -81q98 0 154 42.5t56 116.5q0 71 -48 116t-125 45h-154v29h153q67 0 109 43t42 110q0 70 -50 109t-139 39q-122 0 -207 -81l-19 23q92 88 226 88q103 0 161.5 -47t58.5 -129q0 -58 -28 -101.5t-79 -66.5q58 -17 94 -66.5t36 -112.5
q0 -86 -64.5 -136.5t-176.5 -50.5q-152 0 -243 88z" />
    <glyph glyph-name="uni0418" unicode="&#x418;" horiz-adv-x="799" 
d="M158 700v-647l486 647h28v-700h-31v647l-486 -647h-27v700h30z" />
    <glyph glyph-name="uni0419" unicode="&#x419;" horiz-adv-x="799" 
d="M128 700h30v-647l486 647h28v-700h-31v647l-486 -647h-27v700zM263 897l28 3q7 -107 111 -107t111 107l27 -3q-9 -130 -138 -130q-128 0 -139 130z" />
    <glyph glyph-name="uni041A" unicode="&#x41a;" horiz-adv-x="646" 
d="M128 0v700h30v-330h142l280 330h39l-292 -344l302 -356h-39l-290 340h-142v-340h-30z" />
    <glyph glyph-name="uni041B" unicode="&#x41b;" horiz-adv-x="759" 
d="M179 272l30 428h422v-700h-30v670h-364l-28 -401q-10 -138 -51 -198t-137 -76l-6 29q85 14 119.5 66t44.5 182z" />
    <glyph glyph-name="uni041C" unicode="&#x41c;" horiz-adv-x="915" 
d="M154 700l304 -374l303 374h26v-700h-30v647l-292 -357h-15l-292 357v-647h-30v700h26z" />
    <glyph glyph-name="uni041D" unicode="&#x41d;" horiz-adv-x="789" 
d="M128 700h30v-325h473v325h30v-700h-30v345h-473v-345h-30v700z" />
    <glyph glyph-name="uni041E" unicode="&#x41e;" horiz-adv-x="823" 
d="M162 611q97 101 250 101t250 -101t97 -261t-97 -261t-250 -101q-154 0 -251 100.5t-97 261.5q0 160 98 261zM183 110q88 -92 229 -92t229 92t88 240t-88 240t-229 92t-229 -92t-88 -240t88 -240z" />
    <glyph glyph-name="uni041F" unicode="&#x41f;" horiz-adv-x="789" 
d="M661 700v-700h-30v670h-473v-670h-30v700h533z" />
    <glyph glyph-name="uni0420" unicode="&#x420;" horiz-adv-x="628" 
d="M128 700h233q116 0 179 -57t63 -163t-63 -163.5t-179 -57.5h-203v-259h-30v700zM158 289h202q104 0 158 48.5t54 142.5q0 93 -54 141.5t-158 48.5h-202v-381z" />
    <glyph glyph-name="uni0421" unicode="&#x421;" horiz-adv-x="741" 
d="M159 610q94 102 240 102q183 0 288 -148l-24 -18q-43 65 -112.5 100.5t-151.5 35.5q-133 0 -218.5 -93t-85.5 -239q0 -145 86 -238.5t221 -93.5q82 0 153.5 38t119.5 107l24 -17q-114 -158 -297 -158q-148 0 -243 102t-95 260t95 260z" />
    <glyph glyph-name="uni0422" unicode="&#x422;" horiz-adv-x="585" 
d="M31 670v30h523v-30h-246v-670h-31v670h-246z" />
    <glyph glyph-name="uni0423" unicode="&#x423;" horiz-adv-x="674" 
d="M56 700l304 -522l259 522h34l-302 -607q-28 -57 -58.5 -81t-74.5 -24q-49 0 -94 24l12 27q39 -21 81 -21q35 0 59 20t48 68l19 38l-321 556h34z" />
    <glyph glyph-name="uni0424" unicode="&#x424;" horiz-adv-x="818" 
d="M754 350q0 -137 -91 -217t-239 -82v-100h-30v100q-148 2 -239 82t-91 217t91 217t239 82v100h30v-100q148 -2 239 -82t91 -217zM424 619v-538q135 2 217 73.5t82 195.5t-82 195.5t-217 73.5zM95 350q0 -124 82 -195.5t217 -73.5v538q-135 -2 -217 -73.5t-82 -195.5z" />
    <glyph glyph-name="uni0425" unicode="&#x425;" horiz-adv-x="613" 
d="M18 0l270 361l-252 339h37l234 -314l236 314h37l-253 -338l268 -362h-37l-251 336l-93 -126l-158 -210h-38z" />
    <glyph glyph-name="uni0426" unicode="&#x426;" horiz-adv-x="814" 
d="M661 700v-670h122v-196h-29v166h-626v700h30v-670h473v670h30z" />
    <glyph glyph-name="uni0427" unicode="&#x427;" horiz-adv-x="699" 
d="M105 700v-201q0 -121 55 -180t167 -59q107 0 214 51v389h31v-700h-31v278q-111 -48 -215 -48q-124 0 -188 67.5t-64 199.5v203h31z" />
    <glyph glyph-name="uni0428" unicode="&#x428;" horiz-adv-x="1252" 
d="M1094 30v670h30v-700h-996v700h30v-670h453v670h30v-670h453z" />
    <glyph glyph-name="uni0429" unicode="&#x429;" horiz-adv-x="1277" 
d="M1124 700v-670h123v-196h-30v166h-1089v700h30v-670h453v670h30v-670h453v670h30z" />
    <glyph glyph-name="uni042A" unicode="&#x42a;" horiz-adv-x="752" 
d="M22 670v30h256v-279h202q114 0 175 -54.5t61 -156.5q0 -101 -61 -155.5t-175 -54.5h-232v670h-226zM278 30h201q102 0 154.5 46t52.5 134q0 89 -52.5 135t-154.5 46h-201v-361z" />
    <glyph glyph-name="uni042B" unicode="&#x42b;" horiz-adv-x="917" 
d="M158 700v-279h201q114 0 175.5 -54.5t61.5 -156.5q0 -101 -61.5 -155.5t-175.5 -54.5h-231v700h30zM158 30h200q102 0 154.5 46t52.5 134q0 89 -52.5 135t-154.5 46h-200v-361zM759 700h30v-700h-30v700z" />
    <glyph glyph-name="uni042C" unicode="&#x42c;" horiz-adv-x="631" 
d="M158 700v-279h201q114 0 175.5 -54.5t61.5 -156.5q0 -101 -61.5 -155.5t-175.5 -54.5h-231v700h30zM358 30q102 0 154.5 46t52.5 134q0 89 -52.5 135t-154.5 46h-200v-361h200z" />
    <glyph glyph-name="uni042D" unicode="&#x42d;" horiz-adv-x="741" 
d="M69 162q48 -69 118 -106.5t152 -37.5q133 0 219 90t89 232h-443v30h443q-7 138 -91.5 225t-213.5 87q-81 0 -149.5 -35t-111.5 -100l-24 18q103 147 285 147q146 0 240.5 -102t94.5 -260t-95 -260t-243 -102q-181 0 -293 156z" />
    <glyph glyph-name="uni042E" unicode="&#x42e;" horiz-adv-x="1109" 
d="M128 700h30v-327h203q7 151 101.5 245t239.5 94q152 0 247.5 -101t95.5 -261t-95.5 -261t-247.5 -101q-149 0 -244.5 98.5t-97.5 256.5h-202v-343h-30v700zM390 350q0 -148 87 -240t225 -92q139 0 225.5 92t86.5 240t-86.5 240t-225.5 92q-138 0 -225 -92t-87 -240z" />
    <glyph glyph-name="uni042F" unicode="&#x42f;" horiz-adv-x="684" 
d="M55 0l198 284q-86 11 -135.5 65.5t-49.5 141.5q0 96 60 152.5t162 56.5h267v-700h-31v282h-238l-197 -282h-36zM98 491q0 -85 51 -132.5t141 -47.5h236v359h-236q-90 0 -141 -47.5t-51 -131.5z" />
    <glyph glyph-name="uni0430" unicode="&#x430;" horiz-adv-x="603" 
d="M65 148q0 75 58 120t157 45q87 0 186 -36v56q0 151 -175 151q-90 0 -182 -53l-13 26q97 56 196 56q98 0 151 -46.5t53 -132.5v-334h-30v108q-26 -51 -85.5 -83t-131.5 -32q-82 0 -133 42.5t-51 112.5zM95 148q0 -58 42.5 -92.5t113.5 -34.5q91 0 153 52t62 127v48
q-99 37 -185 37q-87 0 -136.5 -37t-49.5 -100z" />
    <glyph glyph-name="uni0431" unicode="&#x431;" horiz-adv-x="637" 
d="M323 516q112 0 183.5 -74t71.5 -190t-72 -190t-185 -74q-114 0 -185.5 75t-71.5 196q0 172 26 267t87.5 144.5t177.5 69.5q138 23 189 51l12 -26q-55 -31 -196 -54q-141 -24 -197 -96t-66 -236q32 65 90.5 101t135.5 36zM321 17q101 0 164 65.5t63 169.5t-63 169.5
t-164 65.5t-164 -65.5t-63 -169.5t63 -169.5t164 -65.5z" />
    <glyph glyph-name="uni0432" unicode="&#x432;" horiz-adv-x="574" 
d="M427 258q92 -30 92 -124q0 -61 -44 -97.5t-117 -36.5h-242v505h241q65 0 104 -35.5t39 -94.5q0 -81 -73 -117zM471 374q0 47 -31 75t-83 28h-211v-207h211q53 0 83.5 28t30.5 76zM146 28h212q61 0 96 28.5t35 78.5t-35 79t-96 29h-212v-215z" />
    <glyph glyph-name="uni0433" unicode="&#x433;" horiz-adv-x="462" 
d="M116 505h321v-29h-291v-476h-30v505z" />
    <glyph glyph-name="uni0434" unicode="&#x434;" horiz-adv-x="679" 
d="M539 505v-476h113v-184h-30v155h-564v-155h-29v184h74q28 28 40 62t17 95l24 319h355zM211 476l-21 -291q-8 -107 -49 -156h369v447h-299z" />
    <glyph glyph-name="uni0435" unicode="&#x435;" horiz-adv-x="595" 
d="M58 252q0 116 69 190.5t176 74.5q113 0 179 -76t66 -175q0 -14 -1 -29h-459q3 -98 63.5 -159t156.5 -61q117 0 193 91l21 -20q-83 -100 -215 -100q-111 0 -180 73t-69 191zM88 266h430q-2 97 -62 159.5t-153 62.5q-91 0 -151 -62.5t-64 -159.5z" />
    <glyph glyph-name="uni0436" unicode="&#x436;" horiz-adv-x="797" 
d="M14 0l235 263l-219 242h39l207 -228h107v228h30v-228h108l207 228h39l-219 -242l234 -263h-38l-222 249h-109v-249h-30v249h-108l-222 -249h-39z" />
    <glyph glyph-name="uni0437" unicode="&#x437;" horiz-adv-x="483" 
d="M330 263q45 -15 72 -50t27 -79q0 -64 -53.5 -102.5t-141.5 -38.5q-110 0 -200 68l17 23q82 -62 182 -62q76 0 120.5 30.5t44.5 83.5q0 49 -38 80t-98 31h-129v29h127q53 0 86.5 29.5t33.5 76.5q0 49 -39 77t-111 28q-89 0 -170 -58l-17 23q85 64 188 64q85 0 132 -35.5
t47 -97.5q0 -83 -80 -120z" />
    <glyph glyph-name="uni0438" unicode="&#x438;" horiz-adv-x="676" 
d="M146 505v-456l387 456h27v-505h-30v456l-387 -456h-27v505h30z" />
    <glyph glyph-name="uni0439" unicode="&#x439;" horiz-adv-x="676" 
d="M146 505v-456l387 456h27v-505h-30v456l-387 -456h-27v505h30zM204 738l27 3q4 -67 29 -96.5t79 -29.5q53 0 78 29.5t29 96.5l27 -3q-5 -77 -37.5 -113t-96.5 -36q-65 0 -97.5 36t-37.5 113z" />
    <glyph glyph-name="uni043A" unicode="&#x43a;" horiz-adv-x="539" 
d="M116 0v505h30v-228h108l216 228h39l-227 -241l243 -264h-39l-230 249h-110v-249h-30z" />
    <glyph glyph-name="uni043B" unicode="&#x43b;" horiz-adv-x="631" 
d="M136 201l24 304h355v-505h-30v476h-297l-22 -278q-8 -102 -38.5 -146.5t-106.5 -60.5l-7 28q65 15 90 51.5t32 130.5z" />
    <glyph glyph-name="uni043C" unicode="&#x43c;" horiz-adv-x="748" 
d="M374 213l231 292h27v-505h-30v455l-220 -278h-16l-220 277v-454h-30v505h26z" />
    <glyph glyph-name="uni043D" unicode="&#x43d;" horiz-adv-x="675" 
d="M529 278v227h30v-505h-30v248h-383v-248h-30v505h30v-227h383z" />
    <glyph glyph-name="uni043E" unicode="&#x43e;" horiz-adv-x="632" 
d="M131 443q72 74 185 74t185.5 -74t72.5 -191q0 -116 -72 -190q-73 -74 -186 -74t-185.5 74t-72.5 190q0 117 73 191zM88 252q0 -104 64 -169q63 -66 164 -66t164.5 65.5t63.5 169.5t-63.5 169.5t-164.5 65.5t-164.5 -65.5t-63.5 -169.5z" />
    <glyph glyph-name="uni043F" unicode="&#x43f;" horiz-adv-x="675" 
d="M559 505v-505h-30v476h-383v-476h-30v505h443z" />
    <glyph glyph-name="uni0440" unicode="&#x440;" horiz-adv-x="689" 
d="M116 505h30v-131q30 67 90.5 105t139.5 38q112 0 183.5 -74.5t71.5 -190.5t-71.5 -190t-183.5 -74q-79 0 -139.5 38t-90.5 104v-360h-30v735zM210 83q63 -66 163 -66t164 65.5t64 169.5t-63.5 169.5t-164.5 65.5t-164 -65.5t-63 -169.5t64 -169z" />
    <glyph glyph-name="uni0441" unicode="&#x441;" horiz-adv-x="561" 
d="M127 444q69 73 179 73q134 0 207 -99l-20 -19q-66 88 -187 88q-97 0 -157.5 -65t-60.5 -170t60.5 -170t159.5 -65q123 0 193 95l22 -19q-34 -48 -92 -76.5t-123 -28.5q-111 0 -180.5 73.5t-69.5 190.5q0 118 69 192z" />
    <glyph glyph-name="uni0442" unicode="&#x442;" horiz-adv-x="492" 
d="M28 505h435v-29h-202v-476h-30v476h-203v29z" />
    <glyph glyph-name="uni0443" unicode="&#x443;" horiz-adv-x="544" 
d="M53 505l237 -484l73 172l129 312h33l-263 -630q-25 -59 -56 -85t-78 -26q-46 0 -82 20l11 26q33 -17 70 -17q38 0 62 21t46 72l40 97l-255 522h33z" />
    <glyph glyph-name="uni0444" unicode="&#x444;" horiz-adv-x="674" 
d="M616 252q0 -114 -74 -187.5t-190 -76.5v-218h-30v218q-116 3 -190 76.5t-74 187.5t73.5 188t190.5 77v223h30v-223q117 -3 190.5 -77t73.5 -188zM88 252q0 -101 65 -166.5t169 -68.5v470q-104 -3 -169 -68t-65 -167zM352 487v-470q104 3 169 68.5t65 166.5q0 102 -65 167
t-169 68z" />
    <glyph glyph-name="uni0445" unicode="&#x445;" horiz-adv-x="486" 
d="M223 260l-193 245h37l176 -221l175 221h37l-193 -244l208 -261h-38l-190 237l-188 -237h-38z" />
    <glyph glyph-name="uni0446" unicode="&#x446;" horiz-adv-x="699" 
d="M559 505v-476h112v-184h-29v155h-526v505h30v-476h383v476h30z" />
    <glyph glyph-name="uni0447" unicode="&#x447;" horiz-adv-x="581" 
d="M97 505v-143q0 -169 169 -169q84 0 169 41v271h30v-505h-30v202q-82 -38 -170 -38q-96 0 -147 50.5t-51 145.5v145h30z" />
    <glyph glyph-name="uni0448" unicode="&#x448;" horiz-adv-x="1051" 
d="M905 29v476h30v-505h-819v505h30v-476h364v476h30v-476h365z" />
    <glyph glyph-name="uni0449" unicode="&#x449;" horiz-adv-x="1074" 
d="M935 505v-476h112v-184h-30v155h-901v505h30v-476h364v476h30v-476h365v476h30z" />
    <glyph glyph-name="uni044A" unicode="&#x44a;" horiz-adv-x="621" 
d="M235 333h183q79 0 126 -45t47 -122q0 -76 -47 -121t-126 -45h-213v476h-185v29h215v-172zM234 29h183q67 0 105.5 37t38.5 101q0 63 -38.5 100t-105.5 37h-183v-275z" />
    <glyph glyph-name="uni044B" unicode="&#x44b;" horiz-adv-x="794" 
d="M146 505v-172h183q80 0 127 -45.5t47 -121.5t-47.5 -121t-126.5 -45h-213v505h30zM146 29h183q67 0 105.5 37t38.5 101q0 63 -38.5 100t-105.5 37h-183v-275zM648 505h30v-505h-30v505z" />
    <glyph glyph-name="uni044C" unicode="&#x44c;" horiz-adv-x="532" 
d="M146 505v-172h183q80 0 127 -45.5t47 -121.5t-47.5 -121t-126.5 -45h-213v505h30zM146 304v-275h183q67 0 105.5 37t38.5 101q0 63 -38.5 100t-105.5 37h-183z" />
    <glyph glyph-name="uni044D" unicode="&#x44d;" horiz-adv-x="565" 
d="M63 109q70 -92 193 -92q96 0 156 61.5t64 162.5h-319v29h319q-6 98 -65.5 157.5t-152.5 59.5q-120 0 -186 -83l-21 20q74 93 207 93q110 0 179 -73.5t69 -191.5q0 -117 -69.5 -190.5t-180.5 -73.5q-65 0 -123 27.5t-91 73.5z" />
    <glyph glyph-name="uni044E" unicode="&#x44e;" horiz-adv-x="881" 
d="M116 505h30v-232h163q7 109 77.5 176.5t178.5 67.5q113 0 185.5 -74t72.5 -191q0 -116 -72.5 -190t-185.5 -74q-111 0 -182.5 71.5t-74.5 184.5h-162v-244h-30v505zM401 83q63 -66 164 -66t164.5 65.5t63.5 169.5t-63.5 169.5t-164.5 65.5t-164 -65.5t-63 -169.5t63 -169
z" />
    <glyph glyph-name="uni044F" unicode="&#x44f;" horiz-adv-x="564" 
d="M233 505h215v-505h-30v198h-185h-2l-146 -198h-36l149 200q-63 10 -99 50t-36 102q0 70 46 111.5t124 41.5zM93 351q0 -59 37.5 -92t103.5 -33h184v250h-184q-66 0 -103.5 -33t-37.5 -92z" />
    <glyph glyph-name="uni0450" unicode="&#x450;" horiz-adv-x="595" 
d="M58 252q0 116 69 190.5t176 74.5q113 0 179 -75.5t66 -175.5q0 -14 -1 -29h-459q3 -98 63.5 -159t156.5 -61q117 0 193 91l21 -20q-83 -100 -215 -100q-111 0 -180 73t-69 191zM88 266h430q-2 97 -62 159.5t-153 62.5q-91 0 -151 -62.5t-64 -159.5zM229 740h34l68 -148
h-31z" />
    <glyph glyph-name="uni0451" unicode="&#x451;" horiz-adv-x="595" 
d="M58 252q0 116 69 190.5t176 74.5q113 0 179 -75.5t66 -175.5q0 -14 -1 -29h-459q3 -98 63.5 -159t156.5 -61q117 0 193 91l21 -20q-83 -100 -215 -100q-111 0 -180 73t-69 191zM88 266h430q-2 97 -62 159.5t-153 62.5q-91 0 -151 -62.5t-64 -159.5zM360 663q9 9 23 9
t23 -9t9 -23q0 -15 -9 -24t-23 -9t-23 9t-9 24q0 14 9 23zM201 663q9 9 23 9t23 -9t9 -23q0 -15 -9 -24t-23 -9t-23 9t-9 24q0 14 9 23z" />
    <glyph glyph-name="uni0452" unicode="&#x452;" horiz-adv-x="673" 
d="M360 512q94 0 150 -58.5t56 -158.5v-382q0 -77 -26.5 -113.5t-82.5 -36.5q-42 0 -91 20l10 27q41 -18 80 -18q43 0 61.5 28t18.5 94v379q0 89 -47.5 139t-131.5 50q-95 0 -152.5 -60.5t-57.5 -162.5v-259h-30v605h-91v26h91v109h30v-109h214v-26h-214v-227q28 64 83.5 99
t129.5 35z" />
    <glyph glyph-name="uni0453" unicode="&#x453;" horiz-adv-x="462" 
d="M305 740h34l-71 -148h-31zM116 505h321v-29h-291v-476h-30v505z" />
    <glyph glyph-name="uni0454" unicode="&#x454;" horiz-adv-x="564" 
d="M127 444q69 73 179 73q133 0 207 -93l-20 -20q-67 83 -186 83q-93 0 -153 -59.5t-66 -157.5h320v-29h-320q4 -101 64.5 -162.5t156.5 -61.5q59 0 109.5 24t82.5 68l22 -20q-34 -47 -92 -74t-123 -27q-111 0 -180.5 73.5t-69.5 190.5q0 118 69 192z" />
    <glyph glyph-name="uni0455" unicode="&#x455;" horiz-adv-x="471" 
d="M63 93q81 -72 182 -72q71 0 113 28t42 76q0 43 -37.5 71t-120.5 48q-94 22 -136.5 57t-42.5 88q0 56 45.5 90t121.5 34q108 0 190 -78l-18 -22q-71 71 -173 71q-62 0 -99 -25.5t-37 -68.5q0 -44 35 -70t123 -48q95 -24 137 -58.5t42 -88.5q0 -60 -51 -96.5t-135 -36.5
q-113 0 -197 78z" />
    <glyph glyph-name="uni0456" unicode="&#x456;" horiz-adv-x="262" 
d="M116 505h30v-505h-30v505zM107 666q9 9 23 9q16 0 25.5 -9.5t9.5 -24.5t-9.5 -24.5t-25.5 -9.5q-14 0 -23.5 9.5t-9.5 24.5t10 25z" />
    <glyph glyph-name="uni0457" unicode="&#x457;" horiz-adv-x="262" 
d="M116 505h30v-505h-30v505zM174 640q0 14 9 23t23 9t23 -9t9 -23q0 -15 -9 -24t-23 -9t-23 9t-9 24zM23 640q0 14 9 23t23 9t23 -9t9 -23q0 -15 -9 -24t-23 -9t-23 9t-9 24z" />
    <glyph glyph-name="uni0458" unicode="&#x458;" horiz-adv-x="262" 
d="M-53 -217l9 27q43 -18 80 -18q43 0 61.5 28.5t18.5 94.5v590h30v-592q0 -150 -108 -150q-43 0 -91 20zM107 666q9 9 23 9q16 0 25.5 -9.5t9.5 -24.5t-9.5 -24.5t-25.5 -9.5q-14 0 -23.5 9.5t-9.5 24.5t10 25z" />
    <glyph glyph-name="uni0459" unicode="&#x459;" horiz-adv-x="882" 
d="M506 333h174q81 0 127 -46.5t46 -120.5q0 -80 -45 -123t-128 -43h-204v476h-288l-22 -278q-8 -102 -38.5 -146.5t-106.5 -60.5l-7 28q65 15 90 51.5t32 130.5l24 304h346v-172zM506 29h174q143 0 143 138q0 61 -37.5 99t-105.5 38h-174v-275z" />
    <glyph glyph-name="uni045A" unicode="&#x45a;" horiz-adv-x="909" 
d="M532 292h175q79 0 125.5 -39.5t46.5 -106.5t-46.5 -106.5t-125.5 -39.5h-205v258h-356v-258h-30v505h30v-218h356v218h30v-213zM532 29h175q65 0 103.5 31.5t38.5 85.5t-38.5 86t-103.5 32h-175v-235z" />
    <glyph glyph-name="uni045B" unicode="&#x45b;" horiz-adv-x="673" 
d="M360 512q94 0 150 -58.5t56 -158.5v-295h-30v293q0 89 -47.5 139t-131.5 50q-95 0 -152.5 -60.5t-57.5 -162.5v-259h-30v605h-91v26h91v109h30v-109h214v-26h-214v-226q28 63 83.5 98t129.5 35z" />
    <glyph glyph-name="uni045C" unicode="&#x45c;" horiz-adv-x="539" 
d="M116 505h30v-228h109l215 228h39l-227 -241l243 -264h-39l-231 249h-109v-249h-30v505zM330 740h34l-71 -148h-31z" />
    <glyph glyph-name="uni045D" unicode="&#x45d;" horiz-adv-x="676" 
d="M116 505h30v-456l387 456h27v-505h-30v456l-387 -456h-27v505zM264 740h34l68 -148h-31z" />
    <glyph glyph-name="uni045E" unicode="&#x45e;" horiz-adv-x="544" 
d="M53 505l237 -484l73 172l129 312h33l-263 -630q-25 -59 -56 -85t-78 -26q-46 0 -82 20l11 26q33 -17 70 -17q38 0 62 21t46 72l40 97l-255 522h33zM173 741q4 -67 29 -96.5t79 -29.5q53 0 78 29.5t29 96.5l27 -3q-5 -77 -37.5 -113t-96.5 -36q-65 0 -97.5 36t-37.5 113z
" />
    <glyph glyph-name="uni045F" unicode="&#x45f;" horiz-adv-x="675" 
d="M529 29v476h30v-505h-206v-155h-29v155h-208v505h30v-476h383z" />
    <glyph glyph-name="uni0490" unicode="&#x490;" horiz-adv-x="545" 
d="M487 700v155h30v-185h-359v-670h-30v700h359z" />
    <glyph glyph-name="uni0491" unicode="&#x491;" horiz-adv-x="462" 
d="M407 505v162h30v-191h-291v-476h-30v505h291z" />
    <glyph glyph-name="uni04D4" unicode="&#x4d4;" horiz-adv-x="924" 
d="M462 700h395v-29h-356v-296h330v-30h-330v-315h370v-30h-400v181h-304l-114 -181h-35zM186 210h285v448z" />
    <glyph glyph-name="uni04D5" unicode="&#x4d5;" horiz-adv-x="992" 
d="M65 142q0 77 60 124t158 47q89 0 183 -45v65q0 155 -175 155q-88 0 -182 -57l-13 26q97 60 195 60q85 0 136.5 -36.5t63.5 -104.5q28 65 85 103t130 38q110 0 174.5 -76t64.5 -175q0 -14 -1 -29h-449q5 -99 63.5 -159.5t151.5 -60.5q114 0 188 91l21 -20
q-78 -100 -209 -100q-81 0 -141 42t-86 115q-20 -68 -85.5 -112.5t-148.5 -44.5q-82 0 -133 42.5t-51 111.5zM95 143q0 -57 42.5 -91.5t113.5 -34.5q90 0 152.5 55t62.5 136v32q-101 45 -181 45q-87 0 -138.5 -38.5t-51.5 -103.5zM915 266q-2 97 -60.5 159.5t-149.5 62.5
q-89 0 -148 -62.5t-62 -159.5h420z" />
    <glyph glyph-name="Wgrave" unicode="&#x1e80;" horiz-adv-x="1023" 
d="M60 700l216 -656l222 604h29l223 -604l213 656h31l-228 -700h-33l-220 601l-221 -601h-33l-230 700h31zM427 900h35l67 -128h-30z" />
    <glyph glyph-name="wgrave" unicode="&#x1e81;" horiz-adv-x="846" 
d="M58 505l173 -463l178 430h28l178 -428l174 461h31l-190 -505h-30l-177 429l-177 -429h-30l-190 505h32zM382 740l68 -148h-31l-71 148h34z" />
    <glyph glyph-name="Wacute" unicode="&#x1e82;" horiz-adv-x="1023" 
d="M60 700l216 -656l222 604h29l223 -604l213 656h31l-228 -700h-33l-220 601l-221 -601h-33l-230 700h31zM563 900h35l-72 -128h-30z" />
    <glyph glyph-name="wacute" unicode="&#x1e83;" horiz-adv-x="846" 
d="M58 505l173 -463l178 430h28l178 -428l174 461h31l-190 -505h-30l-177 429l-177 -429h-30l-190 505h32zM396 592l68 148h34l-71 -148h-31z" />
    <glyph glyph-name="Wdieresis" unicode="&#x1e84;" horiz-adv-x="1023" 
d="M60 700l216 -656l222 604h29l223 -604l213 656h31l-228 -700h-33l-220 601l-221 -601h-33l-230 700h31zM569 837q9 9 23 9t23.5 -9t9.5 -24t-9 -24q-10 -9 -24 -9t-23 9t-9 24t9 24zM410 837q9 9 23 9t23.5 -9t9.5 -24t-9 -24q-10 -9 -24 -9t-23 9t-9 24t9 24z" />
    <glyph glyph-name="wdieresis" unicode="&#x1e85;" horiz-adv-x="846" 
d="M58 505l173 -463l178 430h28l178 -428l174 461h31l-190 -505h-30l-177 429l-177 -429h-30l-190 505h32zM479 663q9 9 23 9t23 -9t9 -23q0 -15 -9 -24t-23 -9t-23 9t-9 24q0 14 9 23zM311 640q0 14 9 23t23 9t23 -9t9 -23q0 -15 -9 -24t-23 -9t-23 9t-9 24z" />
    <glyph glyph-name="Germandbls" unicode="&#x1e9e;" horiz-adv-x="722" 
d="M118 457q0 118 60 180.5t176 62.5h247v-25l-184 -251q111 -2 176.5 -60.5t65.5 -158.5q0 -95 -62 -155.5t-161 -60.5q-95 0 -167 46l14 26q65 -42 152 -42t140.5 52t53.5 135q0 95 -64 142t-153 47q-16 0 -33 -1l-8 17l191 260h-209q-101 0 -153 -54.5t-52 -159.5v-457
h-30v457z" />
    <glyph glyph-name="Ygrave" unicode="&#x1ef2;" horiz-adv-x="637" 
d="M61 700l257 -393l258 393h36l-278 -425v-275h-30v275l-279 425h36zM268 900l67 -128h-30l-72 128h35z" />
    <glyph glyph-name="ygrave" unicode="&#x1ef3;" horiz-adv-x="544" 
d="M20 505h33l237 -484l73 172l129 312h33l-263 -630q-25 -59 -56 -85t-78 -26q-46 0 -82 20l11 26q33 -17 70 -17q38 0 62 21t46 72l40 97zM240 740l68 -148h-31l-71 148h34z" />
    <glyph glyph-name="uni2009" unicode="&#x2009;" horiz-adv-x="182" 
 />
    <glyph glyph-name="uni200B" unicode="&#x200b;" 
 />
    <glyph glyph-name="endash" unicode="&#x2013;" horiz-adv-x="538" 
d="M484 286v-28h-430v28h430z" />
    <glyph glyph-name="emdash" unicode="&#x2014;" horiz-adv-x="664" 
d="M610 286v-28h-556v28h556z" />
    <glyph glyph-name="quoteleft" unicode="&#x2018;" horiz-adv-x="212" 
d="M106 635q14 0 23.5 -9t9.5 -23q0 -13 -9.5 -23t-23.5 -10q-16 0 -25.5 12.5t-9.5 33.5q0 90 52 154l17 -14q-41 -59 -44 -122q3 1 10 1z" />
    <glyph glyph-name="quoteright" unicode="&#x2019;" horiz-adv-x="212" 
d="M106 762q16 0 25.5 -12.5t9.5 -33.5q0 -90 -52 -154l-17 14q42 59 45 123q-4 -2 -11 -2q-14 0 -23.5 9t-9.5 23q0 13 9.5 23t23.5 10z" />
    <glyph glyph-name="quotesinglbase" unicode="&#x201a;" horiz-adv-x="212" 
d="M106 65q16 0 25.5 -12.5t9.5 -32.5q0 -90 -52 -154l-17 14q42 59 45 122q-8 -2 -11 -2q-14 0 -23.5 9.5t-9.5 23.5q0 13 9.5 22.5t23.5 9.5z" />
    <glyph glyph-name="quotedblleft" unicode="&#x201c;" horiz-adv-x="385" 
d="M123 770l17 -14q-41 -59 -44 -122q3 1 10 1q14 0 23.5 -9t9.5 -23q0 -13 -9.5 -23t-23.5 -10q-16 0 -25.5 12.5t-9.5 33.5q0 90 52 154zM279 635q14 0 23.5 -9t9.5 -23q0 -13 -10 -23t-23 -10q-16 0 -25.5 12.5t-9.5 33.5q0 90 52 154l17 -14q-41 -59 -44 -122q3 1 10 1z
" />
    <glyph glyph-name="quotedblright" unicode="&#x201d;" horiz-adv-x="385" 
d="M106 762q16 0 25.5 -12.5t9.5 -33.5q0 -90 -52 -154l-17 14q42 59 45 123q-4 -2 -11 -2q-14 0 -23.5 9t-9.5 23q0 13 9.5 23t23.5 10zM279 762q16 0 25.5 -12.5t9.5 -33.5q0 -90 -52 -154l-17 14q42 59 45 123q-4 -2 -11 -2q-14 0 -23.5 9t-9.5 23q0 13 10 23t23 10z" />
    <glyph glyph-name="quotedblbase" unicode="&#x201e;" horiz-adv-x="385" 
d="M106 65q16 0 25.5 -12.5t9.5 -32.5q0 -90 -52 -154l-17 14q42 59 45 122q-8 -2 -11 -2q-14 0 -23.5 9.5t-9.5 23.5q0 13 9.5 22.5t23.5 9.5zM279 65q16 0 25.5 -12.5t9.5 -32.5q0 -90 -52 -154l-17 14q42 59 45 122q-8 -2 -11 -2q-14 0 -23.5 9.5t-9.5 23.5
q0 13 9.5 22.5t23.5 9.5z" />
    <glyph glyph-name="dagger" unicode="&#x2020;" horiz-adv-x="517" 
d="M273 355h183v-28h-183v-557h-29v557h-183v28h183v266h29v-266z" />
    <glyph glyph-name="daggerdbl" unicode="&#x2021;" horiz-adv-x="517" 
d="M456 374v-29h-183v-260h183v-28h-183v-287h-29v287h-183v28h183v260h-183v29h183v247h29v-247h183z" />
    <glyph glyph-name="bullet" unicode="&#x2022;" horiz-adv-x="284" 
d="M142 225q-25 0 -43.5 17t-18.5 43t18.5 43t43.5 17t43.5 -17t18.5 -43t-18.5 -43t-43.5 -17z" />
    <glyph glyph-name="ellipsis" unicode="&#x2026;" horiz-adv-x="613" 
d="M106 -10q-15 0 -25.5 10t-10.5 25t10.5 25.5t25.5 10.5t26 -10.5t11 -25.5t-11 -25t-26 -10zM306 -10q-15 0 -25.5 10t-10.5 25t10.5 25.5t25.5 10.5t26 -10.5t11 -25.5t-11 -25t-26 -10zM506 -10q-15 0 -25.5 10t-10.5 25t10.5 25.5t25.5 10.5t26 -10.5t11 -25.5
t-11 -25t-26 -10z" />
    <glyph glyph-name="perthousand" unicode="&#x2030;" horiz-adv-x="1151" 
d="M645 699l-506 -713l-22 15l506 713zM179 401q-66 0 -108.5 43t-42.5 108q0 66 42.5 109t108.5 43t108 -43t42 -109t-42 -108.5t-108 -42.5zM179 427q54 0 88.5 35.5t34.5 89.5q0 55 -34.5 90.5t-88.5 35.5t-89.5 -35.5t-35.5 -90.5q0 -54 35 -89.5t90 -35.5zM584 -4
q-66 0 -108.5 43t-42.5 109q0 65 42.5 108t108.5 43t108 -42.5t42 -108.5t-42 -109t-108 -43zM983 -4q-65 0 -108 43t-43 108q0 66 43 109t108 43t107.5 -43t42.5 -109t-42.5 -108.5t-107.5 -42.5zM584 22q54 0 88.5 35.5t34.5 90.5q0 54 -34.5 89.5t-88.5 35.5t-89.5 -35
t-35.5 -90t35 -90.5t90 -35.5zM983 21q54 0 89 35.5t35 90.5t-35 90.5t-89 35.5q-55 0 -89.5 -35.5t-34.5 -90.5t34.5 -90.5t89.5 -35.5z" />
    <glyph glyph-name="minute" unicode="&#x2032;" horiz-adv-x="182" 
d="M74 450h-27l64 310h28z" />
    <glyph glyph-name="second" unicode="&#x2033;" horiz-adv-x="359" 
d="M74 450h-27l63 310h28zM251 450h-28l65 310h28z" />
    <glyph glyph-name="guilsinglleft" unicode="&#x2039;" horiz-adv-x="351" 
d="M255 515l22 -20l-180 -214l180 -218l-22 -18l-196 236z" />
    <glyph glyph-name="guilsinglright" unicode="&#x203a;" horiz-adv-x="351" 
d="M74 498l21 18l197 -236l-197 -234l-21 20l179 214z" />
    <glyph glyph-name="uni203D" unicode="&#x203d;" horiz-adv-x="483" 
d="M235 711q90 0 145 -49.5t55 -130.5q0 -49 -25 -90.5t-82 -86.5q-50 -38 -70 -69t-20 -69v-72h-29l-1 302v100h29v-243q25 37 74 73q94 70 94 154q0 70 -46.5 111t-124.5 41q-128 0 -191 -120l-24 16q74 133 216 133zM223 61q16 0 26.5 -10.5t10.5 -25.5
q0 -14 -10.5 -24.5t-26.5 -10.5q-15 0 -25.5 10.5t-10.5 24.5q0 15 10.5 25.5t25.5 10.5z" />
    <glyph glyph-name="fraction" unicode="&#x2044;" horiz-adv-x="212" 
d="M364 712l-494 -738l-22 16l494 739z" />
    <glyph glyph-name="uni2070" unicode="&#x2070;" horiz-adv-x="351" 
d="M176 466q-60 0 -94 46.5t-34 128.5t34 128.5t94 46.5t94 -46.5t34 -128.5t-34 -128.5t-94 -46.5zM176 492q48 0 74.5 39t26.5 110t-26.5 110t-74.5 39t-74.5 -39t-26.5 -110t26.5 -110t74.5 -39z" />
    <glyph glyph-name="uni2074" unicode="&#x2074;" horiz-adv-x="308" 
d="M230 583h49v-26h-49v-84h-27v84h-186v26l186 227h27v-227zM203 770l-154 -187h154v187z" />
    <glyph glyph-name="uni2075" unicode="&#x2075;" horiz-adv-x="282" 
d="M131 684q55 0 85.5 -29.5t30.5 -78.5q0 -48 -31 -79t-81 -31q-66 0 -108 56l20 18q31 -48 88 -48q38 0 62 23.5t24 61.5q0 36 -23.5 59t-68.5 23q-34 0 -72 -12l-12 10l10 153h171v-26h-147l-7 -108q31 8 59 8z" />
    <glyph glyph-name="uni2076" unicode="&#x2076;" horiz-adv-x="338" 
d="M175 697q53 0 85.5 -32t32.5 -84t-32.5 -83.5t-85.5 -31.5q-57 0 -92 39t-35 120q0 92 34 141.5t96 49.5q56 0 95 -36l-15 -20q-33 30 -79 30q-48 0 -75.5 -38.5t-29.5 -112.5q30 58 101 58zM174 491q42 0 67.5 24t25.5 66q0 41 -26 66t-67 25q-42 0 -67 -25t-25 -66
q0 -40 25.5 -65t66.5 -25z" />
    <glyph glyph-name="uni2077" unicode="&#x2077;" horiz-adv-x="260" 
d="M22 784v26h206v-22l-130 -315h-28l128 311h-176z" />
    <glyph glyph-name="uni2078" unicode="&#x2078;" horiz-adv-x="327" 
d="M224 652q26 -9 44 -33.5t18 -53.5q0 -45 -33.5 -72t-88.5 -27t-88.5 27t-33.5 72q0 29 18 53.5t44 33.5q-52 24 -52 77q0 39 30.5 64t81.5 25t81.5 -25t30.5 -64q0 -53 -52 -77zM79 728q0 -29 23.5 -46.5t61.5 -17.5q39 0 62 17.5t23 46.5t-23 47t-62 18q-38 0 -61.5 -18
t-23.5 -47zM164 491q43 0 69 20.5t26 53.5q0 34 -26 54t-69 20t-69 -20t-26 -54q0 -33 26 -53.5t69 -20.5z" />
    <glyph glyph-name="uni2079" unicode="&#x2079;" horiz-adv-x="338" 
d="M163 816q57 0 92 -39t35 -120q0 -92 -34 -141.5t-96 -49.5q-56 0 -95 36l15 20q33 -30 79 -30q48 0 75.5 38.5t29.5 112.5q-30 -58 -101 -58q-53 0 -85.5 32t-32.5 84t32.5 83.5t85.5 31.5zM164 610q42 0 67 25t25 66q0 40 -25.5 65t-66.5 25q-42 0 -67 -24t-25 -66
q0 -41 25.5 -66t66.5 -25z" />
    <glyph glyph-name="uni2080" unicode="&#x2080;" horiz-adv-x="351" 
d="M176 -116q-60 0 -94 46.5t-34 128.5t34 128.5t94 46.5t94 -46.5t34 -128.5t-34 -128.5t-94 -46.5zM176 -90q48 0 74.5 39t26.5 110t-26.5 110t-74.5 39t-74.5 -39t-26.5 -110t26.5 -110t74.5 -39z" />
    <glyph glyph-name="uni2081" unicode="&#x2081;" horiz-adv-x="200" 
d="M113 228h22v-337h-27v298q-32 -24 -92 -24v25q65 0 97 38z" />
    <glyph glyph-name="uni2082" unicode="&#x2082;" horiz-adv-x="265" 
d="M241 -110h-224v21l123 123q58 57 58 100q0 34 -20.5 54t-54.5 20q-55 0 -89 -54l-20 16q41 64 110 64q46 0 74 -27t28 -72q0 -30 -14.5 -56t-52.5 -63l-101 -100h183v-26z" />
    <glyph glyph-name="uni2083" unicode="&#x2083;" horiz-adv-x="272" 
d="M226 213l-103 -120q54 2 87 -26t33 -77q0 -47 -30 -76.5t-78 -29.5q-73 0 -111 56l20 17q33 -47 90 -47q38 0 60 21.5t22 58.5q0 46 -33 66t-91 10l-8 20l99 116h-142v26h185v-15z" />
    <glyph glyph-name="uni2084" unicode="&#x2084;" horiz-adv-x="308" 
d="M230 1h49v-26h-49v-84h-27v84h-186v26l186 227h27v-227zM203 188l-154 -187h154v187z" />
    <glyph glyph-name="uni2085" unicode="&#x2085;" horiz-adv-x="282" 
d="M131 102q55 0 85.5 -29.5t30.5 -78.5q0 -48 -31 -79t-81 -31q-66 0 -108 56l20 18q31 -48 88 -48q38 0 62 23.5t24 61.5q0 36 -23.5 59t-68.5 23q-34 0 -72 -12l-12 10l10 153h171v-26h-147l-7 -108q31 8 59 8z" />
    <glyph glyph-name="uni2086" unicode="&#x2086;" horiz-adv-x="338" 
d="M175 115q53 0 85.5 -32t32.5 -84t-32.5 -83.5t-85.5 -31.5q-57 0 -92 39t-35 120q0 92 34 141.5t96 49.5q56 0 95 -36l-15 -20q-33 30 -79 30q-48 0 -75.5 -38.5t-29.5 -112.5q30 58 101 58zM174 -91q42 0 67.5 24t25.5 66q0 41 -26 66t-67 25q-42 0 -67 -25t-25 -66
q0 -40 25.5 -65t66.5 -25z" />
    <glyph glyph-name="uni2087" unicode="&#x2087;" horiz-adv-x="260" 
d="M22 202v26h206v-22l-130 -315h-28l128 311h-176z" />
    <glyph glyph-name="uni2088" unicode="&#x2088;" horiz-adv-x="327" 
d="M224 70q26 -9 44 -33.5t18 -53.5q0 -45 -33.5 -72t-88.5 -27t-88.5 27t-33.5 72q0 29 18 53.5t44 33.5q-52 24 -52 77q0 39 30.5 64t81.5 25t81.5 -25t30.5 -64q0 -53 -52 -77zM79 146q0 -29 23.5 -46.5t61.5 -17.5q39 0 62 17.5t23 46.5t-23 47t-62 18q-38 0 -61.5 -18
t-23.5 -47zM164 -91q43 0 69 20.5t26 53.5q0 34 -26 54t-69 20t-69 -20t-26 -54q0 -33 26 -53.5t69 -20.5z" />
    <glyph glyph-name="uni2089" unicode="&#x2089;" horiz-adv-x="338" 
d="M163 234q58 0 93 -39t35 -120q0 -92 -34.5 -141.5t-96.5 -49.5q-56 0 -95 36l16 20q32 -30 78 -30q100 0 105 151q-30 -58 -101 -58q-52 0 -84.5 32t-32.5 84t32 83.5t85 31.5zM164 28q42 0 67 25t25 66q0 40 -25.5 65t-66.5 25q-42 0 -67 -24t-25 -66q0 -41 25.5 -66
t66.5 -25z" />
    <glyph glyph-name="Euro" unicode="&#x20ac;" horiz-adv-x="803" 
d="M737 161l24 -17q-44 -73 -124.5 -114.5t-164.5 -41.5q-130 0 -216 75t-109 200h-107v27h103q-4 25 -4 60q0 32 5 69h-104v27h109q25 122 110 194t212 72q83 0 161 -39.5t120 -110.5l-25 -16q-34 62 -108 99t-148 37q-114 0 -191 -63.5t-101 -172.5h304v-27h-309
q-5 -37 -5 -69q0 -35 4 -60h310v-27h-306q23 -112 100.5 -178.5t194.5 -66.5q76 0 152 38.5t113 104.5z" />
    <glyph glyph-name="uni20B4" unicode="&#x20b4;" horiz-adv-x="559" 
d="M433 434h77v-27h-461v27h347q47 44 47 107q0 64 -41 102.5t-114 38.5q-103 0 -167 -88l-21 18q73 99 190 99q84 0 134 -47.5t50 -120.5q0 -61 -41 -109zM126 266h-77v27h461v-27h-348q-43 -43 -43 -108q0 -60 44.5 -98t120.5 -38q107 0 186 99l21 -20q-91 -108 -208 -108
q-89 0 -141.5 46t-52.5 117q0 67 37 110z" />
    <glyph glyph-name="uni20BA" unicode="&#x20ba;" horiz-adv-x="640" 
d="M559 218l28 -6q-16 -109 -74.5 -160.5t-170.5 -51.5h-166v270l-137 -52l-9 26l146 55v130l-137 -52l-9 26l146 55v242h30v-231l200 76l10 -25l-210 -80v-130l200 76l10 -26l-210 -79v-251h136q101 0 152 45t65 143z" />
    <glyph glyph-name="uni20BD" unicode="&#x20bd;" horiz-adv-x="614" 
d="M345 290h-181v-120h198v-28h-198v-142h-30v142h-104v28h104v120h-104v28h104v382h213q114 0 178 -54t64 -151t-64 -151t-180 -54zM346 670h-182v-352h182q102 0 157 45.5t55 130.5t-55 130.5t-157 45.5z" />
    <glyph glyph-name="uni2103" unicode="&#x2103;" horiz-adv-x="1065" 
d="M82 678q41 43 102 43q62 0 103.5 -43t41.5 -106t-41.5 -106t-103.5 -43q-61 0 -102.5 43t-41.5 106t42 106zM483 610q95 102 241 102q183 0 288 -148l-25 -18q-43 65 -112.5 100.5t-150.5 35.5q-134 0 -219.5 -93.5t-85.5 -238.5t86.5 -238.5t220.5 -93.5q83 0 154.5 38
t118.5 107l24 -17q-112 -158 -297 -158q-148 0 -243 102t-95 260t95 260zM65 572q0 -53 34 -88t85 -35q52 0 85.5 35t33.5 88t-33.5 88t-85.5 35q-51 0 -85 -35t-34 -88z" />
    <glyph glyph-name="uni2109" unicode="&#x2109;" horiz-adv-x="871" 
d="M40 572q0 63 41.5 106t102.5 43q62 0 103.5 -43t41.5 -106t-41.5 -106t-103.5 -43q-61 0 -102.5 43t-41.5 106zM99 484q34 -35 85 -35q52 0 85.5 35t33.5 88t-33.5 88t-85.5 35q-51 0 -85 -35t-34 -88t34 -88zM433 700h395v-30h-364v-315h341v-30h-341v-325h-31v700z" />
    <glyph glyph-name="uni2113" unicode="&#x2113;" horiz-adv-x="462" 
d="M398 78l18 -20q-54 -68 -132 -68q-73 0 -112.5 51.5t-39.5 135.5v75l-86 -34l-9 26l95 39v279q0 183 135 183q63 0 100 -45.5t37 -128.5q0 -95 -50 -172t-158 -121l-34 -14v-86q0 -69 32.5 -114t91.5 -45q66 0 112 59zM162 559v-264l34 14q82 33 130 101.5t48 160.5
q0 68 -29.5 106.5t-77.5 38.5q-105 0 -105 -157z" />
    <glyph glyph-name="uni2116" unicode="&#x2116;" horiz-adv-x="1128" 
d="M818 661q46 46 118 46t118 -46.5t46 -119.5t-46.5 -119.5t-117.5 -46.5q-72 0 -118 47t-46 119q0 73 46 120zM128 700h27l486 -645v645h31v-700h-28l-486 646v-646h-30v700zM800 541q0 -64 39 -101t97 -37t97 37t39 101t-39 102q-39 37 -97 37t-97 -37.5t-39 -101.5z
M790 303v27h292v-27h-292z" />
    <glyph glyph-name="uni2117" unicode="&#x2117;" horiz-adv-x="816" 
d="M408 704q150 0 247 -100t97 -254t-97 -254t-247 -100t-247 100t-97 254t97 254t247 100zM408 23q138 0 227 92t89 235t-89 235t-227 92q-139 0 -227.5 -92t-88.5 -235t88.5 -235t227.5 -92zM313 538h107q64 0 100 -31.5t36 -87.5q0 -55 -36 -86.5t-100 -31.5h-81v-148
h-26v385zM339 326h80q53 0 81.5 24.5t28.5 68.5q0 45 -28.5 69.5t-81.5 24.5h-80v-187z" />
    <glyph glyph-name="trademark" unicode="&#x2122;" horiz-adv-x="568" 
d="M111 676h-81v24h189v-24h-83v-239h-25v239zM402 545l107 155h19v-263h-25v211l-96 -137h-11l-96 137v-211h-25v263h19z" />
    <glyph glyph-name="uni2126" unicode="&#x2126;" horiz-adv-x="841" 
d="M574 29h209v-29h-284v19q234 122 234 347q0 77 -27 138t-72.5 97.5t-99.5 55t-113 18.5t-113.5 -18.5t-100 -55t-72.5 -97.5t-27 -138q0 -225 234 -347v-19h-284v29h210q-191 123 -191 338q0 149 94 243.5t250 94.5t249.5 -94.5t93.5 -243.5q0 -215 -190 -338z" />
    <glyph glyph-name="estimated" unicode="&#x212e;" horiz-adv-x="825" 
d="M761 327h-562v-202q80 -91 220 -91q80 0 152.5 41t122.5 123l38 -26q-120 -184 -313 -184q-160 0 -257.5 103.5t-97.5 259.5q0 153 98.5 257t256.5 104q157 0 253 -106.5t89 -278.5zM419 666q-136 0 -220 -99v-198h432v210q-81 87 -212 87z" />
    <glyph glyph-name="uni2150" unicode="&#x2150;" horiz-adv-x="672" 
d="M48 -10l494 739l22 -17l-494 -738zM135 363h-27v298q-32 -24 -92 -24v25q65 0 97 38h22v-337zM434 312v26h206v-22l-130 -315h-28l128 311h-176z" />
    <glyph glyph-name="uni2151" unicode="&#x2151;" horiz-adv-x="750" 
d="M48 -10l494 739l22 -17l-494 -738zM135 363h-27v298q-32 -24 -92 -24v25q65 0 97 38h22v-337zM575 344q58 0 93 -39t35 -120q0 -92 -34.5 -141.5t-96.5 -49.5q-56 0 -95 36l16 20q32 -30 78 -30q100 0 105 151q-30 -58 -101 -58q-52 0 -84.5 32t-32.5 84t32 83.5t85 31.5
zM576 138q42 0 67 25t25 66q0 40 -25.5 65t-66.5 25q-42 0 -67 -24t-25 -66q0 -41 25.5 -66t66.5 -25z" />
    <glyph glyph-name="onethird" unicode="&#x2153;" horiz-adv-x="684" 
d="M48 -10l494 739l22 -17l-494 -738zM135 363h-27v298q-32 -24 -92 -24v25q65 0 97 38h22v-337zM638 323l-103 -120q54 2 87 -26t33 -77q0 -47 -30 -76.5t-78 -29.5q-73 0 -111 56l20 17q33 -47 90 -47q38 0 60 21.5t22 58.5q0 46 -33 66t-91 10l-8 20l99 116h-142v26h185
v-15z" />
    <glyph glyph-name="twothirds" unicode="&#x2154;" horiz-adv-x="749" 
d="M113 -10l494 739l22 -17l-494 -738zM17 383l123 123q58 57 58 100q0 34 -20.5 54t-54.5 20q-55 0 -89 -54l-20 16q41 64 110 64q46 0 74 -27t28 -72q0 -30 -14.5 -56t-52.5 -63l-101 -100h183v-26h-224v21zM703 323l-103 -120q54 2 87 -26t33 -77q0 -47 -30 -76.5
t-78 -29.5q-73 0 -111 56l20 17q33 -47 90 -47q38 0 60 21.5t22 58.5q0 46 -33 66t-91 10l-8 20l99 116h-142v26h185v-15z" />
    <glyph glyph-name="uni2155" unicode="&#x2155;" horiz-adv-x="694" 
d="M48 -10l494 739l22 -17l-494 -738zM135 363h-27v298q-32 -24 -92 -24v25q65 0 97 38h22v-337zM543 212q55 0 85.5 -29.5t30.5 -78.5q0 -48 -31 -79t-81 -31q-66 0 -108 56l20 18q32 -48 88 -48q38 0 62 23.5t24 61.5q0 36 -23.5 59t-68.5 23q-34 0 -72 -12l-12 10l10 153
h171v-26h-147l-7 -108q31 8 59 8z" />
    <glyph glyph-name="uni2156" unicode="&#x2156;" horiz-adv-x="759" 
d="M113 -10l494 739l22 -17l-494 -738zM17 383l123 123q58 57 58 100q0 34 -20.5 54t-54.5 20q-55 0 -89 -54l-20 16q41 64 110 64q46 0 74 -27t28 -72q0 -30 -14.5 -56t-52.5 -63l-101 -100h183v-26h-224v21zM608 212q55 0 85.5 -29.5t30.5 -78.5q0 -48 -31 -79t-81 -31
q-66 0 -108 56l20 18q32 -48 88 -48q38 0 62 23.5t24 61.5q0 36 -23.5 59t-68.5 23q-34 0 -72 -12l-12 10l10 153h171v-26h-147l-7 -108q31 8 59 8z" />
    <glyph glyph-name="uni2157" unicode="&#x2157;" horiz-adv-x="766" 
d="M120 -10l494 739l22 -17l-494 -738zM243 462q0 -47 -30 -76.5t-78 -29.5q-73 0 -111 56l20 17q33 -47 90 -47q38 0 60 21.5t22 58.5q0 46 -33 66t-91 10l-8 20l99 116h-142v26h185v-15l-103 -120q54 2 87 -26t33 -77zM615 212q55 0 85.5 -29.5t30.5 -78.5q0 -48 -31 -79
t-81 -31q-66 0 -108 56l20 18q31 -48 88 -48q38 0 62 23.5t24 61.5q0 36 -23.5 59t-68.5 23q-34 0 -72 -12l-12 10l10 153h171v-26h-147l-7 -108q31 8 59 8z" />
    <glyph glyph-name="uni2158" unicode="&#x2158;" horiz-adv-x="802" 
d="M156 -10l494 739l22 -17l-494 -738zM230 363h-27v84h-186v26l186 227h27v-227h49v-26h-49v-84zM49 473h154v187zM651 212q55 0 85.5 -29.5t30.5 -78.5q0 -48 -31 -79t-81 -31q-66 0 -108 56l20 18q31 -48 88 -48q38 0 62 23.5t24 61.5q0 36 -23.5 59t-68.5 23
q-34 0 -72 -12l-12 10l10 153h171v-26h-147l-7 -108q31 8 59 8z" />
    <glyph glyph-name="uni2159" unicode="&#x2159;" horiz-adv-x="750" 
d="M48 -10l494 739l22 -17l-494 -738zM135 363h-27v298q-32 -24 -92 -24v25q65 0 97 38h22v-337zM587 225q53 0 85.5 -32t32.5 -84t-32.5 -83.5t-85.5 -31.5q-57 0 -92 39t-35 120q0 92 34 141.5t96 49.5q56 0 95 -36l-15 -20q-33 30 -79 30q-48 0 -75.5 -38.5t-29.5 -112.5
q30 58 101 58zM586 19q42 0 67.5 24t25.5 66q0 41 -26 66t-67 25q-42 0 -67 -25t-25 -66q0 -40 25.5 -65t66.5 -25z" />
    <glyph glyph-name="uni215A" unicode="&#x215a;" horiz-adv-x="832" 
d="M130 -10l494 739l22 -17l-494 -738zM247 466q0 -48 -31 -79t-81 -31q-66 0 -108 56l20 18q31 -48 88 -48q38 0 62 23.5t24 61.5q0 36 -23.5 59t-68.5 23q-34 0 -72 -12l-12 10l10 153h171v-26h-147l-7 -108q31 8 59 8q55 0 85.5 -29.5t30.5 -78.5zM669 225q53 0 85.5 -32
t32.5 -84t-32.5 -83.5t-85.5 -31.5q-57 0 -92 39t-35 120q0 92 34 141.5t96 49.5q56 0 95 -36l-15 -20q-33 30 -79 30q-48 0 -75.5 -38.5t-29.5 -112.5q30 58 101 58zM668 19q42 0 67.5 24t25.5 66q0 41 -26 66t-67 25q-42 0 -67 -25t-25 -66q0 -40 25.5 -65t66.5 -25z" />
    <glyph glyph-name="oneeighth" unicode="&#x215b;" horiz-adv-x="739" 
d="M48 -10l494 739l22 -17l-494 -738zM135 363h-27v298q-32 -24 -92 -24v25q65 0 97 38h22v-337zM636 180q26 -9 44 -33.5t18 -53.5q0 -45 -33.5 -72t-88.5 -27t-88.5 27t-33.5 72q0 29 18 53.5t44 33.5q-52 24 -52 77q0 39 30.5 64t81.5 25t81.5 -25t30.5 -64
q0 -53 -52 -77zM491 256q0 -29 23.5 -46.5t61.5 -17.5q39 0 62 17.5t23 46.5t-23 47t-62 18q-38 0 -61.5 -18t-23.5 -47zM576 19q43 0 69 20.5t26 53.5q0 34 -26 54t-69 20t-69 -20t-26 -54q0 -33 26 -53.5t69 -20.5z" />
    <glyph glyph-name="threeeighths" unicode="&#x215c;" horiz-adv-x="811" 
d="M120 -10l494 739l22 -17l-494 -738zM243 462q0 -47 -30 -76.5t-78 -29.5q-73 0 -111 56l20 17q33 -47 90 -47q38 0 60 21.5t22 58.5q0 46 -33 66t-91 10l-8 20l99 116h-142v26h185v-15l-103 -120q54 2 87 -26t33 -77zM708 180q26 -9 44 -33.5t18 -53.5q0 -45 -33.5 -72
t-88.5 -27t-88.5 27t-33.5 72q0 29 18 53.5t44 33.5q-52 24 -52 77q0 39 30.5 64t81.5 25t81.5 -25t30.5 -64q0 -53 -52 -77zM563 256q0 -29 23.5 -46.5t61.5 -17.5q39 0 62 17.5t23 46.5t-23 47t-62 18q-38 0 -61.5 -18t-23.5 -47zM648 19q43 0 69 20.5t26 53.5
q0 34 -26 54t-69 20t-69 -20t-26 -54q0 -33 26 -53.5t69 -20.5z" />
    <glyph glyph-name="fiveeighths" unicode="&#x215d;" horiz-adv-x="821" 
d="M130 -10l494 739l22 -17l-494 -738zM247 466q0 -48 -31 -79t-81 -31q-66 0 -108 56l20 18q31 -48 88 -48q38 0 62 23.5t24 61.5q0 36 -23.5 59t-68.5 23q-34 0 -72 -12l-12 10l10 153h171v-26h-147l-7 -108q31 8 59 8q55 0 85.5 -29.5t30.5 -78.5zM718 180
q26 -9 44 -33.5t18 -53.5q0 -45 -33.5 -72t-88.5 -27t-88.5 27t-33.5 72q0 29 18 53.5t44 33.5q-52 24 -52 77q0 39 30.5 64t81.5 25t81.5 -25t30.5 -64q0 -53 -52 -77zM573 256q0 -29 23.5 -46.5t61.5 -17.5q39 0 62 17.5t23 46.5t-23 47t-62 18q-38 0 -61.5 -18t-23.5 -47
zM658 19q43 0 69 20.5t26 53.5q0 34 -26 54t-69 20t-69 -20t-26 -54q0 -33 26 -53.5t69 -20.5z" />
    <glyph glyph-name="seveneighths" unicode="&#x215e;" horiz-adv-x="799" 
d="M108 -10l494 739l22 -17l-494 -738zM22 700h206v-22l-130 -315h-28l128 311h-176v26zM696 180q26 -9 44 -33.5t18 -53.5q0 -45 -33.5 -72t-88.5 -27t-88.5 27t-33.5 72q0 29 18 53.5t44 33.5q-52 24 -52 77q0 39 30.5 64t81.5 25t81.5 -25t30.5 -64q0 -53 -52 -77z
M551 256q0 -29 23.5 -46.5t61.5 -17.5q39 0 62 17.5t23 46.5t-23 47t-62 18q-38 0 -61.5 -18t-23.5 -47zM636 19q43 0 69 20.5t26 53.5q0 34 -26 54t-69 20t-69 -20t-26 -54q0 -33 26 -53.5t69 -20.5z" />
    <glyph glyph-name="arrowleft" unicode="&#x2190;" horiz-adv-x="786" 
d="M141 341h578v-30h-578l237 -237l-21 -21l-273 273l273 273l21 -21z" />
    <glyph glyph-name="arrowup" unicode="&#x2191;" horiz-adv-x="690" 
d="M345 650l273 -273l-21 -21l-237 237v-578h-30v578l-237 -237l-21 21z" />
    <glyph glyph-name="arrowright" unicode="&#x2192;" horiz-adv-x="786" 
d="M408 578l21 21l273 -273l-273 -273l-21 21l237 237h-578v30h578z" />
    <glyph glyph-name="arrowdown" unicode="&#x2193;" horiz-adv-x="690" 
d="M360 58l237 237l21 -21l-273 -273l-273 273l21 21l237 -237v578h30v-578z" />
    <glyph glyph-name="arrowboth" unicode="&#x2194;" horiz-adv-x="1066" 
d="M688 578l21 21l273 -273l-273 -273l-21 21l237 237h-784l237 -237l-21 -21l-273 273l273 273l21 -21l-237 -237h784z" />
    <glyph glyph-name="arrowupdn" unicode="&#x2195;" horiz-adv-x="690" 
d="M360 675v-785l237 237l21 -20l-273 -274l-273 274l21 20l237 -237v785l-237 -237l-21 21l273 273l273 -273l-21 -21z" />
    <glyph glyph-name="uni2196" unicode="&#x2196;" horiz-adv-x="628" 
d="M135 521l409 -409l-21 -21l-409 410v-337h-29v387h386v-30h-336z" />
    <glyph glyph-name="uni2197" unicode="&#x2197;" horiz-adv-x="628" 
d="M157 521v30h386v-387h-29v337l-410 -410l-20 21l409 409h-336z" />
    <glyph glyph-name="uni2198" unicode="&#x2198;" horiz-adv-x="628" 
d="M514 177v336h29v-386h-386v29h336l-409 409l20 21z" />
    <glyph glyph-name="uni2199" unicode="&#x2199;" horiz-adv-x="628" 
d="M523 587l21 -21l-409 -409h336v-30h-386v387h29v-337z" />
    <glyph glyph-name="uni21A9" unicode="&#x21a9;" horiz-adv-x="1059" 
d="M678 799h41q140 0 227 -85.5t87 -218.5q0 -134 -87 -219.5t-227 -85.5h-578l237 -237l-21 -21l-273 273l273 273l21 -21l-238 -238h579q127 0 206 76.5t79 199.5q0 122 -79 198.5t-206 76.5h-41v29z" />
    <glyph glyph-name="uni21AA" unicode="&#x21aa;" horiz-adv-x="1059" 
d="M681 457l21 21l273 -273l-273 -273l-21 21l237 237h-578q-140 0 -227 85.5t-87 219.5q0 133 87 218.5t227 85.5h41v-29h-41q-127 0 -206 -76.5t-79 -198.5q0 -123 79 -199.5t206 -76.5h579z" />
    <glyph glyph-name="uni21B0" unicode="&#x21b0;" horiz-adv-x="870" 
d="M378 808l-237 -237h601v-502h-29v472h-572l237 -237l-21 -21l-273 273l273 273z" />
    <glyph glyph-name="uni21B1" unicode="&#x21b1;" horiz-adv-x="870" 
d="M491 808l21 21l273 -273l-273 -273l-21 21l238 237h-572v-472h-29v502h601z" />
    <glyph glyph-name="uni21B3" unicode="&#x21b3;" horiz-adv-x="870" 
d="M491 518l21 21l273 -273l-273 -273l-21 21l238 237h-601v502h29v-472h572z" />
    <glyph glyph-name="uni21B4" unicode="&#x21b4;" horiz-adv-x="930" 
d="M599 163l238 238l21 -21l-273 -273l-273 273l21 21l237 -237v571h-472v30h501v-602z" />
    <glyph glyph-name="carriagereturn" unicode="&#x21b5;" horiz-adv-x="870" 
d="M713 281v472h29v-502h-601l237 -237l-21 -21l-273 273l273 273l21 -21l-237 -237h572z" />
    <glyph glyph-name="uni21BA" unicode="&#x21ba;" horiz-adv-x="830" 
d="M324 584h89q152 0 252.5 -99.5t100.5 -249.5q0 -149 -101 -249t-252 -100t-252 100t-101 249h29q0 -137 92.5 -229t231.5 -92t231.5 92t92.5 229q0 138 -92.5 229.5t-231.5 91.5h-89l170 -171l-20 -20l-204 205l203 204l21 -20z" />
    <glyph glyph-name="uni21BB" unicode="&#x21bb;" horiz-adv-x="830" 
d="M741 235h29q0 -149 -101 -249t-252 -100t-252 100t-101 249q0 150 100.5 249.5t252.5 99.5h89l-170 170l21 20l203 -204l-204 -205l-20 20l170 171h-89q-139 0 -231.5 -91.5t-92.5 -229.5q0 -137 92.5 -229t231.5 -92t231.5 92t92.5 229z" />
    <glyph glyph-name="uni21E4" unicode="&#x21e4;" horiz-adv-x="986" 
d="M157 42h-29v566h29v-566zM241 340h679v-30h-679l238 -237l-21 -21l-273 273l273 273l21 -21z" />
    <glyph glyph-name="uni21E5" unicode="&#x21e5;" horiz-adv-x="986" 
d="M830 42v566h29v-566h-29zM745 340l-237 237l21 21l273 -273l-273 -273l-21 21l237 237h-678v30h678z" />
    <glyph glyph-name="uni21E7" unicode="&#x21e7;" horiz-adv-x="754" 
d="M514 37h-274v310h-168l305 347l305 -347h-168v-310zM270 376v-310h214v310h133l-240 274l-240 -274h133z" />
    <glyph glyph-name="uni21EA" unicode="&#x21ea;" horiz-adv-x="754" 
d="M514 163h-274v184h-168l305 347l305 -347h-168v-184zM270 376v-186h214v186h133l-240 274l-240 -274h133zM514 -29h-274v133h274v-133zM270 76v-77h214v77h-214z" />
    <glyph glyph-name="partialdiff" unicode="&#x2202;" horiz-adv-x="633" 
d="M248 739l11 25q157 -62 235 -183t78 -270q0 -141 -86.5 -232t-204.5 -91q-101 0 -162 61.5t-61 165.5q0 121 79 209t196 88q63 0 117 -25.5t85 -77.5q-25 113 -93 195t-194 135zM280 17q110 0 186 83.5t76 201.5q0 74 -57 127.5t-150 53.5q-101 0 -174 -77t-73 -191
q0 -94 54.5 -146t137.5 -52z" />
    <glyph glyph-name="emptyset" unicode="&#x2205;" horiz-adv-x="777" 
d="M665 619l-57 -66q98 -92 98 -240q0 -140 -89.5 -231.5t-227.5 -91.5q-116 0 -199 66l-56 -68l-21 18l56 68q-97 92 -97 239q0 140 89.5 232t227.5 92q116 0 199 -67l56 67zM101 313q0 -134 87 -218l382 454q-76 60 -181 60q-126 0 -207 -83.5t-81 -212.5zM389 18
q125 0 206.5 83.5t81.5 211.5q0 134 -87 218l-382 -453q76 -60 181 -60z" />
    <glyph glyph-name="uni2206" unicode="&#x2206;" horiz-adv-x="677" 
d="M323 700h33l299 -700h-633zM611 29l-272 634l-271 -634h543z" />
    <glyph glyph-name="product" unicode="&#x220f;" horiz-adv-x="674" 
d="M635 700v-29h-91v-781h-30v781h-354v-781h-30v781h-91v29h596z" />
    <glyph glyph-name="summation" unicode="&#x2211;" horiz-adv-x="513" 
d="M327 300l-242 -381h393v-29h-431v25l244 385l-241 375v25h411v-29h-373z" />
    <glyph glyph-name="minus" unicode="&#x2212;" horiz-adv-x="511" 
d="M453 297h-394v28h394v-28z" />
    <glyph glyph-name="uni2215" unicode="&#x2215;" horiz-adv-x="212" 
d="M364 712l-494 -738l-22 16l494 739z" />
    <glyph glyph-name="uni2219" unicode="&#x2219;" horiz-adv-x="245" 
d="M122 193q-21 0 -36.5 14.5t-15.5 36.5q0 21 15.5 36t36.5 15q22 0 37.5 -14.5t15.5 -36.5t-15.5 -36.5t-37.5 -14.5z" />
    <glyph glyph-name="radical" unicode="&#x221a;" horiz-adv-x="697" 
d="M466 187l241 712h31l-307 -899h-30l-198 479h-169v26h189l192 -466z" />
    <glyph glyph-name="infinity" unicode="&#x221e;" horiz-adv-x="831" 
d="M620 470q71 0 114 -46t43 -122t-43 -122t-114 -46q-98 0 -186 120l-17 24l-18 -24q-86 -120 -185 -120q-71 0 -114 46t-43 122t43 122t114 46q52 0 95.5 -28.5t89.5 -91.5l18 -24l17 24q46 63 90 91.5t96 28.5zM376 270l23 32l-23 32q-41 57 -79 82.5t-83 25.5
q-59 0 -94 -38t-35 -102t35 -102t94 -38q84 0 162 108zM620 162q59 0 93.5 37.5t34.5 102.5t-34.5 102.5t-93.5 37.5q-45 0 -83.5 -25.5t-79.5 -82.5l-23 -32l23 -32q78 -108 163 -108z" />
    <glyph glyph-name="integral" unicode="&#x222b;" horiz-adv-x="370" 
d="M74 -241q-45 0 -99 27l12 26q46 -24 86 -24q94 0 94 118v693q0 71 31.5 108.5t90.5 37.5q45 0 100 -28l-12 -25q-47 24 -86 24q-94 0 -94 -118v-693q0 -71 -31.5 -108.5t-91.5 -37.5z" />
    <glyph glyph-name="approxequal" unicode="&#x2248;" horiz-adv-x="561" 
d="M97 341l-29 4q7 61 37 93.5t79 32.5q54 0 108 -60q43 -48 85 -48q75 0 89 99l28 -6q-19 -122 -116 -122q-54 0 -105 57q-45 52 -89 52q-75 0 -87 -102zM97 159l-29 3q7 61 36.5 93.5t79.5 32.5q55 0 108 -60q43 -48 85 -48q75 0 89 99l28 -6q-18 -121 -116 -121
q-30 0 -53.5 12.5t-51.5 43.5q-45 52 -89 52q-75 0 -87 -101z" />
    <glyph glyph-name="notequal" unicode="&#x2260;" horiz-adv-x="507" 
d="M448 407v-28h-149l-62 -158h211v-28h-222l-41 -109l-26 10l37 99h-137v28h148l61 158h-209v28h220l44 113l26 -10l-40 -103h139z" />
    <glyph glyph-name="lessequal" unicode="&#x2264;" horiz-adv-x="492" 
d="M175 385l261 -93v-30l-390 139v21l390 146v-30l-338 -127zM44 106v28h399v-28h-399z" />
    <glyph glyph-name="greaterequal" unicode="&#x2265;" horiz-adv-x="492" 
d="M56 568l391 -146v-21l-391 -139v30l262 93l77 26l-339 127v30zM49 106v28h399v-28h-399z" />
    <glyph glyph-name="uni2303" unicode="&#x2303;" horiz-adv-x="686" 
d="M343 513l-282 -282l-21 21l303 303l303 -303l-21 -21z" />
    <glyph glyph-name="uni2305" unicode="&#x2305;" horiz-adv-x="703" 
d="M633 550h-276l297 -298l-20 -21l-282 282l-282 -282l-21 21l298 298h-277v29h563v-29z" />
    <glyph glyph-name="uni2318" unicode="&#x2318;" horiz-adv-x="792" 
d="M185 5q-58 0 -96.5 38.5t-38.5 96.5t38.5 96.5t96.5 38.5h105v152h-105q-58 0 -96.5 38.5t-38.5 96.5t38.5 96.5t96.5 38.5t96.5 -38.5t38.5 -96.5v-105h152v105q0 58 38.5 96.5t95.5 38.5q59 0 97.5 -38.5t38.5 -96.5t-39 -96.5t-97 -38.5h-104v-152h104q58 0 97 -38.5
t39 -96.5t-38.5 -96.5t-97.5 -38.5q-57 0 -95.5 38.5t-38.5 96.5v105h-152v-105q0 -58 -38.5 -96.5t-96.5 -38.5zM185 457h105v105q0 45 -30 75t-75 30t-75 -30t-30 -75t30 -75t75 -30zM502 562v-105h104q46 0 76 30t30 75t-30 75t-76 30q-44 0 -74 -30t-30 -75zM320 427
v-152h152v152h-152zM185 35q45 0 75 30t30 75v105h-105q-45 0 -75 -30t-30 -75t30 -75t75 -30zM606 35q46 0 76 30t30 75t-30 75t-76 30h-104v-105q0 -45 30 -75t74 -30z" />
    <glyph glyph-name="uni2325" unicode="&#x2325;" horiz-adv-x="857" 
d="M817 0h-246l-315 672h-216v28h235l314 -672h228v-28zM817 672h-254v28h254v-28z" />
    <glyph glyph-name="uni2326" unicode="&#x2326;" horiz-adv-x="1196" 
d="M128 700h652l332 -350l-332 -350h-652v700zM156 28h610l306 322l-306 322h-610v-644zM678 508l19 -20l-138 -137l139 -139l-20 -19l-138 138l-139 -138l-19 20l138 138l-138 138l20 19l138 -138z" />
    <glyph glyph-name="uni2327" unicode="&#x2327;" horiz-adv-x="960" 
d="M128 0v700h705v-700h-705zM156 28h649v644h-649v-644zM479 331l-139 -139l-19 20l138 138l-138 138l19 20l139 -138l138 138l19 -20l-138 -138l138 -137l-19 -21z" />
    <glyph glyph-name="uni232B" unicode="&#x232b;" horiz-adv-x="1196" 
d="M84 350l332 350h653v-700h-653zM430 28h610v644h-610l-306 -322zM656 331l-138 -138l-20 19l139 138l-138 138l19 20l139 -138l138 138l19 -19l-138 -138l138 -138l-19 -20z" />
    <glyph glyph-name="uni2387" unicode="&#x2387;" horiz-adv-x="857" 
d="M287 0h-247v28h228l314 672h235v-28h-216zM817 0h-254v28h254v-28z" />
    <glyph glyph-name="uni238B" unicode="&#x238b;" horiz-adv-x="835" 
d="M404 555v28q152 0 253.5 -99.5t101.5 -248.5t-100 -249t-249 -100q-150 0 -249 99.5t-99 249.5h28q0 -138 91 -229.5t229 -91.5q137 0 228.5 92t91.5 229q0 138 -93 229t-233 91zM380 245l-290 290v-238h-28v286h285v-28h-236l289 -289z" />
    <glyph glyph-name="uni23CE" unicode="&#x23ce;" horiz-adv-x="1163" 
d="M744 643v29h291v-420h-895l238 -238l-21 -21l-273 273l273 273l21 -21l-237 -237h865v362h-262z" />
    <glyph glyph-name="uni23CF" unicode="&#x23cf;" horiz-adv-x="778" 
d="M738 305h-698l349 382zM389 643l-283 -309h566zM707 21h-636v201h636v-201zM101 194v-145h577v145h-577z" />
    <glyph glyph-name="uni2423" unicode="&#x2423;" horiz-adv-x="369" 
d="M350 -64h-330v126h27v-100h276v100h27v-126z" />
    <glyph glyph-name="uni2460" unicode="&#x2460;" horiz-adv-x="912" 
d="M456 732q168 0 273.5 -106t105.5 -278t-105.5 -278t-273.5 -106t-273.5 106t-105.5 278t105.5 278t273.5 106zM456 -9q156 0 253.5 98t97.5 259q0 160 -97.5 258t-253.5 98t-253.5 -98t-97.5 -258q0 -161 97.5 -259t253.5 -98zM369 454v25q65 0 97 38h22v-337h-27v299
q-34 -25 -92 -25z" />
    <glyph glyph-name="uni2461" unicode="&#x2461;" horiz-adv-x="912" 
d="M456 -36q-168 0 -273.5 106t-105.5 278t105.5 278t273.5 106t273.5 -106t105.5 -278t-105.5 -278t-273.5 -106zM456 -9q156 0 253.5 98t97.5 259q0 160 -97.5 258t-253.5 98t-253.5 -98t-97.5 -258q0 -161 97.5 -259t253.5 -98zM570 180h-225v21l124 123q58 58 58 100
q0 34 -20.5 54t-54.5 20q-56 0 -89 -54l-21 16q43 64 111 64q45 0 73 -27t28 -72q0 -30 -14.5 -56t-51.5 -63l-101 -100h183v-26z" />
    <glyph glyph-name="uni2462" unicode="&#x2462;" horiz-adv-x="912" 
d="M456 732q168 0 273.5 -106t105.5 -278t-105.5 -278t-273.5 -106t-273.5 106t-105.5 278t105.5 278t273.5 106zM456 -9q156 0 253.5 98t97.5 259q0 160 -97.5 258t-253.5 98t-253.5 -98t-97.5 -258q0 -161 97.5 -259t253.5 -98zM551 502l-103 -120q54 2 87 -26t33 -77
q0 -47 -30 -76.5t-78 -29.5q-73 0 -111 56l20 17q33 -47 90 -47q37 0 59.5 22t22.5 59q0 45 -33 65t-91 10l-8 20l99 116h-142v26h185v-15z" />
    <glyph glyph-name="uni2463" unicode="&#x2463;" horiz-adv-x="912" 
d="M456 732q168 0 273.5 -106t105.5 -278t-105.5 -278t-273.5 -106t-273.5 106t-105.5 278t105.5 278t273.5 106zM456 -9q156 0 253.5 98t97.5 259q0 160 -97.5 258t-253.5 98t-253.5 -98t-97.5 -258q0 -161 97.5 -259t253.5 -98zM480 518h27v-227h50v-26h-50v-84h-26v84
h-186v26zM481 291v188l-154 -188h154z" />
    <glyph glyph-name="uni2464" unicode="&#x2464;" horiz-adv-x="912" 
d="M456 732q168 0 273.5 -106t105.5 -278t-105.5 -278t-273.5 -106t-273.5 106t-105.5 278t105.5 278t273.5 106zM456 -9q156 0 253.5 98t97.5 259q0 160 -97.5 258t-253.5 98t-253.5 -98t-97.5 -258q0 -161 97.5 -259t253.5 -98zM448 391q55 0 85.5 -29.5t30.5 -78.5
q0 -48 -31 -79t-81 -31q-66 0 -108 56l20 18q32 -48 88 -48q38 0 62 23.5t24 61.5q0 36 -23.5 59t-68.5 23q-32 0 -72 -11l-12 10l10 152h171v-26h-147l-7 -108q31 8 59 8z" />
    <glyph glyph-name="uni2465" unicode="&#x2465;" horiz-adv-x="912" 
d="M456 732q168 0 273.5 -106t105.5 -278t-105.5 -278t-273.5 -106t-273.5 106t-105.5 278t105.5 278t273.5 106zM456 -9q156 0 253.5 98t97.5 259q0 160 -97.5 258t-253.5 98t-253.5 -98t-97.5 -258q0 -161 97.5 -259t253.5 -98zM460 404q53 0 85.5 -32t32.5 -84t-32 -83.5
t-85 -31.5q-58 0 -93 39t-35 120q0 93 34 142t96 49q56 0 95 -36l-15 -20q-34 31 -79 31q-48 0 -75.5 -39t-29.5 -113q30 58 101 58zM459 198q42 0 67.5 24.5t25.5 65.5t-25.5 66t-67.5 25t-67 -25t-25 -66q0 -40 25.5 -65t66.5 -25z" />
    <glyph glyph-name="uni2466" unicode="&#x2466;" horiz-adv-x="912" 
d="M456 732q168 0 273.5 -106t105.5 -278t-105.5 -278t-273.5 -106t-273.5 106t-105.5 278t105.5 278t273.5 106zM456 -9q156 0 253.5 98t97.5 259q0 160 -97.5 258t-253.5 98t-253.5 -98t-97.5 -258q0 -161 97.5 -259t253.5 -98zM529 491h-176v26h206v-22l-130 -315h-28z
" />
    <glyph glyph-name="uni2467" unicode="&#x2467;" horiz-adv-x="912" 
d="M456 732q168 0 273.5 -106t105.5 -278t-105.5 -278t-273.5 -106t-273.5 106t-105.5 278t105.5 278t273.5 106zM456 -9q156 0 253.5 98t97.5 259q0 160 -97.5 258t-253.5 98t-253.5 -98t-97.5 -258q0 -161 97.5 -259t253.5 -98zM516 359q26 -9 44 -33.5t18 -53.5
q0 -45 -33.5 -72t-88.5 -27t-88.5 27t-33.5 72q0 29 18 53.5t44 33.5q-52 24 -52 77q0 39 30.5 64t81.5 25t81.5 -25t30.5 -64q0 -53 -52 -77zM371 435q0 -29 23.5 -46.5t61.5 -17.5q39 0 62 17.5t23 46.5t-23 47t-62 18q-38 0 -61.5 -18t-23.5 -47zM456 198q43 0 69 20.5
t26 53.5q0 34 -26 54t-69 20t-69 -20t-26 -54q0 -33 26 -53.5t69 -20.5z" />
    <glyph glyph-name="uni2468" unicode="&#x2468;" horiz-adv-x="912" 
d="M456 732q168 0 273.5 -106t105.5 -278t-105.5 -278t-273.5 -106t-273.5 106t-105.5 278t105.5 278t273.5 106zM456 -9q156 0 253.5 98t97.5 259q0 160 -97.5 258t-253.5 98t-253.5 -98t-97.5 -258q0 -161 97.5 -259t253.5 -98zM452 523q57 0 92 -39t35 -120
q0 -92 -34 -141.5t-96 -49.5q-56 0 -95 36l16 20q32 -30 78 -30q100 0 105 151q-30 -58 -101 -58q-53 0 -85.5 32t-32.5 84t32.5 83.5t85.5 31.5zM453 317q42 0 67 25t25 66q0 40 -25.5 65t-66.5 25q-42 0 -67 -24t-25 -66q0 -41 25.5 -66t66.5 -25z" />
    <glyph glyph-name="uni2469" unicode="&#x2469;" horiz-adv-x="912" 
d="M456 732q168 0 273.5 -106t105.5 -278t-105.5 -278t-273.5 -106t-273.5 106t-105.5 278t105.5 278t273.5 106zM456 -9q156 0 253.5 98t97.5 259q0 160 -97.5 258t-253.5 98t-253.5 -98t-97.5 -258q0 -161 97.5 -259t253.5 -98zM558 523q61 0 95 -46.5t34 -128.5
t-34 -128.5t-95 -46.5q-60 0 -94 46.5t-34 128.5t34 128.5t94 46.5zM228 454v25q65 0 97 38h22v-337h-27v298q-32 -24 -92 -24zM558 199q49 0 75.5 39t26.5 110t-26.5 110t-75.5 39q-48 0 -74.5 -39t-26.5 -110t26.5 -110t74.5 -39z" />
    <glyph glyph-name="uni24EA" unicode="&#x24ea;" horiz-adv-x="912" 
d="M456 -36q-168 0 -273.5 106t-105.5 278t105.5 278t273.5 106t273.5 -106t105.5 -278t-105.5 -278t-273.5 -106zM456 -9q156 0 253.5 98t97.5 259q0 160 -97.5 258t-253.5 98t-253.5 -98t-97.5 -258q0 -161 97.5 -259t253.5 -98zM456 173q-60 0 -94 46.5t-34 128.5
t34 128.5t94 46.5t94 -46.5t34 -128.5t-34 -128.5t-94 -46.5zM456 199q48 0 74.5 39t26.5 110t-26.5 110t-74.5 39t-74.5 -39t-26.5 -110t26.5 -110t74.5 -39z" />
    <glyph glyph-name="uni24FF" unicode="&#x24ff;" horiz-adv-x="911" 
d="M455 -36q-169 0 -273.5 106.5t-104.5 277.5q0 170 105 277t273 107q169 0 274 -107t105 -277q0 -171 -105 -277.5t-274 -106.5zM455 173q60 0 94 46.5t34 128.5q0 81 -34 128t-94 47t-94 -46.5t-34 -128.5t34 -128.5t94 -46.5zM455 199q-48 0 -74.5 39t-26.5 110
t26.5 110t74.5 39t74.5 -39.5t26.5 -109.5q0 -71 -26.5 -110t-74.5 -39z" />
    <glyph glyph-name="filledbox" unicode="&#x25a0;" horiz-adv-x="898" 
d="M771 26h-643v643h643v-643z" />
    <glyph glyph-name="uni25A1" unicode="&#x25a1;" horiz-adv-x="898" 
d="M771 26h-643v643h643v-643zM156 641v-587h586v587h-586z" />
    <glyph glyph-name="triagup" unicode="&#x25b2;" horiz-adv-x="832" 
d="M811 18h-789l394 710z" />
    <glyph glyph-name="uni25B3" unicode="&#x25b3;" horiz-adv-x="832" 
d="M811 18h-789l394 710zM416 668l-345 -621h690z" />
    <glyph glyph-name="uni25B6" unicode="&#x25b6;" horiz-adv-x="922" 
d="M128 -34v789l710 -394z" />
    <glyph glyph-name="uni25BB" unicode="&#x25bb;" horiz-adv-x="922" 
d="M128 -34v789l710 -394zM778 361l-621 345v-690z" />
    <glyph glyph-name="triagdn" unicode="&#x25bc;" horiz-adv-x="832" 
d="M22 707h789l-395 -710z" />
    <glyph glyph-name="uni25BD" unicode="&#x25bd;" horiz-adv-x="832" 
d="M22 707h789l-395 -710zM416 57l345 621h-690z" />
    <glyph glyph-name="triaglf" unicode="&#x25c4;" horiz-adv-x="922" 
d="M84 361l711 394v-789z" />
    <glyph glyph-name="uni25C5" unicode="&#x25c5;" horiz-adv-x="922" 
d="M795 755v-789l-711 395zM144 361l622 -345v690z" />
    <glyph glyph-name="uni25C6" unicode="&#x25c6;" horiz-adv-x="1029" 
d="M945 337l-430 -430l-431 430l431 430z" />
    <glyph glyph-name="uni25C7" unicode="&#x25c7;" horiz-adv-x="1029" 
d="M945 337l-430 -430l-431 430l431 430zM124 337l391 -390l390 390l-390 391z" />
    <glyph glyph-name="lozenge" unicode="&#x25ca;" horiz-adv-x="550" 
d="M263 634h23l201 -313l-201 -313h-23l-201 313zM96 321l178 -277l178 277l-178 277z" />
    <glyph glyph-name="circle" unicode="&#x25cb;" horiz-adv-x="868" 
d="M434 -12q-157 0 -257 100t-100 262t100 262t257 100t257 -100t100 -262t-100 -262t-257 -100zM434 16q144 0 236 91.5t92 242.5q0 150 -92 242t-236 92t-236 -92t-92 -242q0 -151 92 -242.5t236 -91.5z" />
    <glyph glyph-name="uni25CF" unicode="&#x25cf;" horiz-adv-x="868" 
d="M434 -12q-157 0 -257 100t-100 262t100 262t257 100t257 -100t100 -262t-100 -262t-257 -100z" />
    <glyph glyph-name="uni261C" unicode="&#x261c;" horiz-adv-x="1130" 
d="M777 540v74h226v-555h-226v71q-40 -71 -151 -71h-273q-35 0 -55.5 18.5t-20.5 46.5q0 27 18 44q-22 6 -37.5 23.5t-15.5 38.5q0 28 19 44q-20 8 -33.5 24.5t-13.5 36.5q0 27 18 43h-97q-35 0 -56 17.5t-21 46.5t21 47.5t56 18.5h194q-23 18 -23 59v47h320q110 0 151 -74z
M482 82h148q66 0 106.5 35t40.5 106v225q0 74 -41.5 108t-105.5 34h-299v-24q0 -58 58 -58h160q0 -56 17 -87t62 -50l-8 -21q-46 19 -69 50.5t-26 83.5h-390q-24 0 -38.5 -11.5t-14.5 -30.5q0 -18 14.5 -29.5t38.5 -11.5h297q31 0 49.5 -18.5t18.5 -45.5q0 -36 -29 -54
q29 -20 29 -53q0 -35 -28 -54q28 -18 28 -52q0 -26 -18 -42zM801 82h177v508h-177v-508zM238 336q0 -17 12.5 -29t32.5 -12h149q21 0 32.5 12t11.5 30q0 17 -11.5 29t-32.5 12h-149q-20 0 -32.5 -12t-12.5 -30zM266 230q0 -18 12 -29.5t33 -11.5h121q44 0 44 41
q0 16 -11.5 28.5t-32.5 12.5h-121q-21 0 -33 -12t-12 -29zM346 82h86q19 0 31.5 12.5t12.5 29.5t-11.5 29t-32.5 12h-86q-21 0 -33 -12t-12 -29q0 -18 12 -30t33 -12z" />
    <glyph glyph-name="uni261D" unicode="&#x261d;" horiz-adv-x="811" 
d="M683 601v-274q0 -110 -71 -150h71v-226h-555v226h71q-71 42 -71 150v320h47q40 0 59 -23v195q0 35 18 55.5t47 20.5q30 0 47.5 -20.5t17.5 -55.5v-97q15 17 43 17q43 0 61 -46q16 18 43 18q22 0 39.5 -15t23.5 -37q17 18 44 18t46 -20.5t19 -55.5zM294 177h225
q71 0 105.5 40.5t34.5 106.5v147q-16 -17 -42 -17q-33 0 -52 27q-17 -27 -53 -27q-34 0 -53 28q-19 -28 -54 -28q-27 0 -46 18.5t-19 49.5v297q0 24 -11 38t-30 14t-30 -14t-11 -38v-390q52 -3 83.5 -26t50.5 -69l-22 -9q-19 46 -49.5 63t-86.5 17v159q0 29 -15.5 44
t-43.5 15h-24v-299q0 -64 34 -105.5t109 -41.5zM406 715q-18 0 -30 -12t-12 -32v-149q0 -21 12 -33t29 -12q18 0 30 12t12 33v149q0 20 -12 32t-29 12zM470 643v-121q0 -21 13 -33t29 -12q41 0 41 45v121q0 21 -12 32.5t-30 11.5q-17 0 -29 -11.5t-12 -32.5zM577 608v-86
q0 -21 12 -33t29 -12t29 13t12 32v86q0 21 -12 32.5t-29 11.5t-29 -11.5t-12 -32.5zM151 -25h508v178h-508v-178z" />
    <glyph glyph-name="uni261E" unicode="&#x261e;" horiz-adv-x="1130" 
d="M801 508h195q34 0 55 -18.5t21 -47.5t-20.5 -46.5t-55.5 -17.5h-98q18 -15 18 -43q0 -43 -46 -61q18 -16 18 -44q0 -21 -15 -38.5t-37 -23.5q17 -16 17 -44t-20.5 -46.5t-54.5 -18.5h-274q-109 0 -150 69v-69h-226v555h226v-72q42 72 150 72h320v-47q0 -42 -23 -59z
M152 82h177v508h-177v-508zM698 401h298q23 0 37.5 11.5t14.5 29.5q0 19 -14.5 30.5t-37.5 11.5h-390q-5 -96 -95 -134l-9 21q45 19 62 50t17 87h160q28 0 43.5 15.5t15.5 42.5v24h-299q-65 0 -106 -34t-41 -108v-225q0 -71 40.5 -106t106.5 -35h148q-19 16 -19 42
q0 34 28 52q-28 19 -28 54q0 33 29 53q-29 18 -29 54q0 27 18.5 45.5t49.5 18.5zM698 295h149q20 0 32.5 12t12.5 29q0 18 -12.5 30t-32.5 12h-149q-20 0 -32 -12t-12 -29q0 -18 12 -30t32 -12zM698 189h122q21 0 32.5 11.5t11.5 29.5q0 17 -11.5 29t-32.5 12h-122
q-20 0 -32 -12.5t-12 -28.5q0 -19 11.5 -30t32.5 -11zM698 82h87q20 0 32 12t12 30q0 17 -12 29t-32 12h-87q-20 0 -32 -12t-12 -29t12.5 -29.5t31.5 -12.5z" />
    <glyph glyph-name="uni261F" unicode="&#x261f;" horiz-adv-x="811" 
d="M128 668h555v-226h-72q72 -40 72 -151v-273q0 -35 -19 -55.5t-46 -20.5t-44 18q-6 -22 -23.5 -37.5t-39.5 -15.5q-26 0 -44 18q-8 -20 -24.5 -33t-35.5 -13q-27 0 -43 18v-97q0 -35 -17.5 -56t-47.5 -21q-29 0 -47 21t-18 56v194q-19 -22 -59 -22h-47v319q0 109 71 151
h-71v226zM151 466h508v178h-508v-178zM659 148v147q0 66 -34.5 106.5t-105.5 40.5h-225q-75 0 -109 -41.5t-34 -105.5v-299h24q28 0 43.5 15t15.5 44v159q56 0 86.5 17t49.5 63l22 -9q-19 -46 -50.5 -69t-83.5 -26v-390q0 -24 11 -38t30 -14t30 14t11 38v297q0 31 19 49.5
t46 18.5q35 0 54 -28q19 28 53 28q38 0 53 -28q19 28 52 28q26 0 42 -17zM447 -52v149q0 21 -12 32.5t-30 11.5q-17 0 -29 -11.5t-12 -32.5v-149q0 -20 12 -32t30 -12q17 0 29 12t12 32zM553 -24v121q0 44 -41 44q-16 0 -29 -12t-13 -32v-121q0 -21 12 -32.5t29 -11.5
q18 0 30 11.5t12 32.5zM659 11v86q0 19 -12 31.5t-29 12.5t-29 -11.5t-12 -32.5v-86q0 -21 12 -33t29 -12t29 12t12 33z" />
    <glyph glyph-name="uni2661" unicode="&#x2661;" horiz-adv-x="834" 
d="M599 677q83 0 134 -49t51 -123q0 -82 -67.5 -170.5t-299.5 -311.5q-162 156 -236 238t-102.5 135t-28.5 109q0 74 51 123t134 49q103 0 182 -91q79 91 182 91zM417 65q209 200 273 284t64 155q0 62 -42 103t-113 41q-99 0 -182 -103q-83 103 -182 103q-71 0 -113 -41
t-42 -103q0 -72 64.5 -157t272.5 -282z" />
    <glyph glyph-name="heart" unicode="&#x2665;" horiz-adv-x="834" 
d="M602 677q81 0 131.5 -47.5t50.5 -123.5q0 -82 -78 -185t-289 -298q-211 195 -289 298t-78 185q0 76 50.5 123.5t131.5 47.5q106 0 185 -91q79 91 185 91z" />
    <glyph glyph-name="uni26A0" unicode="&#x26a0;" horiz-adv-x="926" 
d="M904 6h-882l441 759zM448 376l1 -182h28l1 182v181h-30v-181zM463 49q15 0 25.5 10t10.5 25t-10.5 25.5t-25.5 10.5t-26 -10.5t-11 -25.5t11 -25t26 -10z" />
    <glyph glyph-name="uni2713" unicode="&#x2713;" horiz-adv-x="848" 
d="M827 624l-547 -568l-240 240l20 20l220 -220l527 548z" />
    <glyph glyph-name="uni2717" unicode="&#x2717;" horiz-adv-x="663" 
d="M626 665l19 -21l-293 -292l293 -293l-19 -21l-294 294l-295 -294l-19 21l293 293l-293 292l19 21l295 -294z" />
    <glyph glyph-name="uni2776" unicode="&#x2776;" horiz-adv-x="911" 
d="M455 -36q-167 0 -272.5 106t-105.5 278t105.5 278t272.5 106q168 0 273.5 -106t105.5 -278t-105.5 -278t-273.5 -106zM459 479v-299h27v337h-22q-31 -38 -97 -38v-25q61 0 92 25z" />
    <glyph glyph-name="uni2777" unicode="&#x2777;" horiz-adv-x="911" 
d="M455 -36q-168 0 -273 106.5t-105 277.5q0 170 105 277t273 107q169 0 274 -107t105 -277q0 -171 -105 -277.5t-274 -106.5zM345 201v-21h225v26h-183l101 100q37 37 51.5 63.5t14.5 55.5q0 45 -28 72t-73 27q-68 0 -111 -64l21 -16q33 54 89 54q34 0 54.5 -20t20.5 -54
q0 -43 -58 -100z" />
    <glyph glyph-name="uni2778" unicode="&#x2778;" horiz-adv-x="911" 
d="M455 -36q-168 0 -273 106.5t-105 277.5q0 170 105 277t273 107q169 0 274 -107t105 -277q0 -171 -105 -277.5t-274 -106.5zM460 173q48 0 78 29.5t30 76.5q0 49 -32.5 77t-87.5 26l103 120v15h-185v-26h143l-100 -116l8 -20q57 11 90.5 -9.5t33.5 -65.5q0 -37 -22.5 -59
t-59.5 -22q-57 0 -90 47l-20 -17q38 -56 111 -56z" />
    <glyph glyph-name="uni2779" unicode="&#x2779;" horiz-adv-x="911" 
d="M455 -36q-167 0 -272.5 106t-105.5 278t105.5 278t272.5 106q168 0 273.5 -106t105.5 -278t-105.5 -278t-273.5 -106zM481 264v-84h26v84h50v26h-50v227h-27l-185 -227v-26h186zM481 290h-154l154 187v-187z" />
    <glyph glyph-name="uni277A" unicode="&#x277a;" horiz-adv-x="911" 
d="M455 -36q-167 0 -272.5 106t-105.5 278t105.5 278t272.5 106q168 0 273.5 -106t105.5 -278t-105.5 -278t-273.5 -106zM452 173q50 0 81 31t31 79q0 49 -30.5 78.5t-85.5 29.5q-30 0 -59 -8l6 109h148v25h-171l-10 -152l8 -11q45 12 76 12q45 0 68.5 -23t23.5 -59
q0 -38 -24 -61.5t-62 -23.5q-56 0 -88 48l-20 -18q42 -56 108 -56z" />
    <glyph glyph-name="uni277B" unicode="&#x277b;" horiz-adv-x="911" 
d="M455 -36q-167 0 -272.5 106t-105.5 278t105.5 278t272.5 106q168 0 273.5 -106t105.5 -278t-105.5 -278t-273.5 -106zM461 173q53 0 85 31.5t32 83.5t-32.5 84t-85.5 32q-72 0 -101 -59q2 74 29 113.5t76 39.5q45 0 79 -31l15 20q-39 36 -95 36q-62 0 -96 -49t-34 -142
q0 -81 34.5 -120t93.5 -39zM459 198q-41 0 -66.5 25t-25.5 65q0 41 25 66t67 25t67.5 -25t25.5 -66t-25.5 -65.5t-67.5 -24.5z" />
    <glyph glyph-name="uni277C" unicode="&#x277c;" horiz-adv-x="911" 
d="M455 -36q-167 0 -272.5 106t-105.5 278t105.5 278t272.5 106q168 0 273.5 -106t105.5 -278t-105.5 -278t-273.5 -106zM530 491l-129 -311h28l130 315v22h-206v-26h177z" />
    <glyph glyph-name="uni277D" unicode="&#x277d;" horiz-adv-x="911" 
d="M455 -36q-169 0 -273.5 106.5t-104.5 277.5q0 170 105 277t273 107q169 0 274 -107t105 -277q0 -171 -105 -277.5t-274 -106.5zM455 173q55 0 88.5 27t33.5 72q0 30 -17.5 54.5t-44.5 32.5q52 24 52 77q0 40 -30.5 64.5t-81.5 24.5q-50 0 -80.5 -24.5t-30.5 -64.5
q0 -53 52 -77q-27 -8 -44.5 -32.5t-17.5 -54.5q0 -45 33 -72t88 -27zM455 371q-38 0 -61.5 17.5t-23.5 46.5t23.5 47t61.5 18q39 0 62.5 -18t23.5 -47t-23.5 -46.5t-62.5 -17.5zM455 198q-43 0 -69 20.5t-26 53.5q0 34 26 54t69 20q44 0 70 -20t26 -54q0 -33 -26.5 -53.5
t-69.5 -20.5z" />
    <glyph glyph-name="uni277E" unicode="&#x277e;" horiz-adv-x="911" 
d="M455 -36q-167 0 -272.5 106t-105.5 278t105.5 278t272.5 106q168 0 273.5 -106t105.5 -278t-105.5 -278t-273.5 -106zM449 173q61 0 95.5 49.5t34.5 141.5q0 81 -35 120t-93 39q-53 0 -85 -31.5t-32 -83.5t32.5 -84t85.5 -32q34 0 60.5 16t40.5 43q-5 -152 -105 -152
q-46 0 -79 30l-15 -20q39 -36 95 -36zM453 317q-42 0 -67.5 25t-25.5 66q0 42 25.5 66t67.5 24q41 0 66.5 -25t25.5 -65q0 -41 -25 -66t-67 -25z" />
    <glyph glyph-name="uni277F" unicode="&#x277f;" horiz-adv-x="911" 
d="M455 -36q-167 0 -272.5 106t-105.5 278t105.5 278t272.5 106q168 0 273.5 -106t105.5 -278t-105.5 -278t-273.5 -106zM558 173q58 0 93 45.5t35 129.5t-35 129.5t-93 45.5t-93 -45t-35 -130q0 -84 35 -129.5t93 -45.5zM319 479v-299h26v337h-22q-31 -38 -97 -38v-25
q61 0 93 25zM558 199q-46 0 -73.5 38t-27.5 111t27.5 111t73.5 38t73.5 -38t27.5 -111t-27.5 -111t-73.5 -38z" />
    <glyph glyph-name="uni27F5" unicode="&#x27f5;" horiz-adv-x="1186" 
d="M141 340h978v-30h-978l237 -237l-21 -21l-273 273l273 273l21 -21z" />
    <glyph glyph-name="uni27F6" unicode="&#x27f6;" horiz-adv-x="1186" 
d="M808 577l21 21l273 -273l-273 -273l-21 21l237 237h-978v30h978z" />
    <glyph glyph-name="uni2B06" unicode="&#x2b06;" horiz-adv-x="754" 
d="M514 37h-274v310h-168l305 347l305 -347h-168v-310z" />
    <glyph glyph-name="uniF8FF" unicode="&#xf8ff;" horiz-adv-x="605" 
d="M565 -93h-525v185h106v-92h313v92h106v-185z" />
    <glyph glyph-name="J_acutecomb" horiz-adv-x="477" 
d="M35 42q65 -24 123 -24q171 0 171 201v481h31v-482q0 -111 -52 -170.5t-150 -59.5q-62 0 -134 27zM395 900h35l-72 -128h-30z" />
    <glyph glyph-name="Adieresis.ss01" horiz-adv-x="677" 
d="M22 0l301 700h33l299 -700h-32l-77 179h-414l-78 -179h-32zM534 209l-195 454l-195 -454h390zM166 721q9 9 23 9t23 -9.5t9 -23.5q0 -15 -9 -24t-23 -9t-23.5 9t-9.5 24q0 14 10 24zM458 697q0 14 9 23.5t23 9.5t23.5 -9.5t9.5 -23.5q0 -15 -9 -24q-10 -9 -24 -9t-23 9
t-9 24z" />
    <glyph glyph-name="Aring.ss01" horiz-adv-x="677" 
d="M314 679q-36 8 -59.5 36.5t-23.5 67.5q0 46 31 76.5t77 30.5t77 -30.5t31 -76.5q0 -39 -23 -67.5t-59 -36.5l290 -679h-32l-77 179h-414l-78 -179h-32zM534 209l-195 454l-195 -454h390zM257 783q0 -35 23.5 -58.5t58.5 -23.5t58 23.5t23 58.5t-23 58.5t-58 23.5t-58 -23
q-24 -24 -24 -59z" />
    <glyph glyph-name="Ccedilla.ss01" horiz-adv-x="741" 
d="M159 610q94 102 240 102q183 0 288 -148l-24 -18q-43 65 -112.5 100.5t-151.5 35.5q-133 0 -218.5 -93t-85.5 -239q0 -145 86 -238.5t221 -93.5q82 0 153.5 38t119.5 107l24 -17q-109 -152 -286 -158l-13 -139h-30l16 139q-142 6 -232 107.5t-90 254.5q0 158 95 260z" />
    <glyph glyph-name="G.ss01" horiz-adv-x="803" 
d="M160 611q96 101 248 101q162 0 274 -118l-20 -21q-49 52 -115.5 80.5t-138.5 28.5q-139 0 -226 -92t-87 -240q0 -149 85 -240.5t223 -91.5q137 0 218.5 83.5t86.5 227.5h-346v30h377v-4q0 -170 -89.5 -268.5t-246.5 -98.5q-151 0 -245 100.5t-94 261.5q0 160 96 261z" />
    <glyph glyph-name="Gbreve.ss01" horiz-adv-x="803" 
d="M160 611q96 101 248 101q162 0 274 -118l-20 -21q-49 52 -115.5 80.5t-138.5 28.5q-139 0 -226 -92t-87 -240q0 -149 85 -240.5t223 -91.5q137 0 218.5 83.5t86.5 227.5h-346v30h377v-4q0 -170 -89 -268.5t-247 -98.5q-151 0 -245 100.5t-94 261.5q0 160 96 261zM269 897
l28 3q7 -107 111 -107t111 107l27 -3q-9 -130 -138 -130q-128 0 -139 130z" />
    <glyph glyph-name="Gcircumflex.ss01" horiz-adv-x="803" 
d="M160 611q96 101 248 101q162 0 274 -118l-20 -21q-49 52 -115.5 80.5t-138.5 28.5q-139 0 -226 -92t-87 -240q0 -149 85 -240.5t223 -91.5q137 0 218.5 83.5t86.5 227.5h-346v30h377v-4q0 -170 -89 -268.5t-247 -98.5q-151 0 -245 100.5t-94 261.5q0 160 96 261zM396 900
h23l128 -128h-37l-102 102l-103 -102h-37z" />
    <glyph glyph-name="uni0122.ss01" horiz-adv-x="803" 
d="M64 350q0 160 96 261t248 101q162 0 274 -118l-20 -21q-49 52 -115.5 80.5t-138.5 28.5q-139 0 -226 -92t-87 -240q0 -149 85 -240.5t223 -91.5q137 0 218.5 83.5t86.5 227.5h-346v30h377v-4q0 -170 -89 -268.5t-247 -98.5q-151 0 -245 100.5t-94 261.5zM366 -90
q0 15 9 24.5t23 9.5q18 0 28 -13.5t10 -34.5q0 -64 -44 -113l-18 15q29 34 35 80q-3 -1 -10 -1q-14 0 -23.5 9t-9.5 24z" />
    <glyph glyph-name="Gdotaccent.ss01" horiz-adv-x="803" 
d="M160 611q96 101 248 101q162 0 274 -118l-20 -21q-49 52 -115.5 80.5t-138.5 28.5q-139 0 -226 -92t-87 -240q0 -149 85 -240.5t223 -91.5q137 0 218.5 83.5t86.5 227.5h-346v30h377v-4q0 -170 -89 -268.5t-247 -98.5q-151 0 -245 100.5t-94 261.5q0 160 96 261zM384 839
q9 9 24 9q14 0 23.5 -9.5t9.5 -24.5t-9.5 -24.5t-23.5 -9.5q-15 0 -24.5 9.5t-9.5 24.5t10 25z" />
    <glyph glyph-name="K.ss01" horiz-adv-x="656" 
d="M244 361l344 339h42l-353 -347l363 -353h-42l-354 344v17zM158 700v-700h-30v700h30z" />
    <glyph glyph-name="uni0136.ss01" horiz-adv-x="656" 
d="M588 700h42l-353 -347l363 -353h-42l-354 344v17zM158 700v-700h-30v700h30zM295 -90q0 15 9 24.5t23 9.5q18 0 28 -13.5t10 -34.5q0 -64 -44 -113l-18 15q29 34 35 80q-3 -1 -10 -1q-14 0 -23.5 9t-9.5 24z" />
    <glyph glyph-name="Odieresis.ss01" horiz-adv-x="823" 
d="M64 350q0 160 97.5 261t250.5 101t250 -101t97 -261t-97 -261t-250 -101q-154 0 -251 100.5t-97 261.5zM95 350q0 -148 88 -240t229 -92t229 92t88 240t-88 240t-229 92t-229 -92t-88 -240zM111 721q9 9 23 9t23 -9.5t9 -23.5q0 -15 -9 -24t-23 -9t-23.5 9t-9.5 24
q0 14 10 24zM656 697q0 14 9.5 23.5t23.5 9.5t23 -9.5t9 -23.5q0 -15 -9 -24t-23 -9t-23.5 9t-9.5 24z" />
    <glyph glyph-name="Q.ss01" horiz-adv-x="823" 
d="M162 611q97 101 250 101t250 -101t97 -261q0 -156 -92.5 -256.5t-240.5 -105.5l1 -198h-31l2 198q-149 5 -241.5 105t-92.5 257q0 160 98 261zM183 110q88 -92 229 -92t229 92t88 240t-88 240t-229 92t-229 -92t-88 -240t88 -240z" />
    <glyph glyph-name="R.ss01" horiz-adv-x="665" 
d="M128 700h254q102 0 162 -55.5t60 -148.5t-60 -148.5t-162 -55.5h-75l307 -292h-42l-313 298v22h122q90 0 141.5 47t51.5 128t-51.5 128t-141.5 47h-223v-670h-30v700z" />
    <glyph glyph-name="Racute.ss01" horiz-adv-x="665" 
d="M382 700q102 0 162 -55.5t60 -148.5t-60 -148.5t-162 -55.5h-75l307 -292h-42l-313 298v22h122q90 0 141.5 47t51.5 128t-51.5 128t-141.5 47h-223v-670h-30v700h254zM388 900h35l-72 -128h-30z" />
    <glyph glyph-name="Rcaron.ss01" horiz-adv-x="665" 
d="M382 700q102 0 162 -55.5t60 -148.5t-60 -148.5t-162 -55.5h-75l307 -292h-42l-313 298v22h122q90 0 141.5 47t51.5 128t-51.5 128t-141.5 47h-223v-670h-30v700h254zM235 900l103 -102l102 102h37l-128 -128h-23l-128 128h37z" />
    <glyph glyph-name="uni0156.ss01" horiz-adv-x="665" 
d="M382 700q102 0 162 -55.5t60 -148.5t-60 -148.5t-162 -55.5h-75l307 -292h-42l-313 298v22h122q90 0 141.5 47t51.5 128t-51.5 128t-141.5 47h-223v-670h-30v700h254zM315 -90q0 15 9 24.5t23 9.5q18 0 28 -13.5t10 -34.5q0 -64 -44 -113l-18 15q29 35 34 80q-2 -1 -9 -1
q-14 0 -23.5 9t-9.5 24z" />
    <glyph glyph-name="Scedilla.ss01" horiz-adv-x="589" 
d="M51 102l20 22q96 -99 232 -99q97 0 153.5 40.5t56.5 109.5q0 61 -50 103.5t-158 70.5q-121 32 -175 77.5t-54 117.5q0 73 58.5 117t154.5 44q142 0 240 -107l-21 -21q-89 98 -220 98q-82 0 -131.5 -35.5t-49.5 -95.5t48 -98.5t162 -68.5q114 -31 170.5 -79.5t56.5 -121.5
q0 -82 -66 -131.5t-174 -49.5l-14 -146h-30l17 147q-132 8 -226 106z" />
    <glyph glyph-name="uni0162.ss01" horiz-adv-x="585" 
d="M31 670v30h523v-30h-246v-670h-1l-15 -151h-30l17 151h-2v670h-246z" />
    <glyph glyph-name="Udieresis.ss01" horiz-adv-x="768" 
d="M118 700h30v-442q0 -112 63.5 -176t172.5 -64t172.5 64t63.5 176v442h30v-443q0 -124 -72 -196q-73 -73 -194 -73t-193.5 72.5t-72.5 196.5v443zM601 785q0 15 9 24t23 9t23.5 -9t9.5 -24q0 -14 -9 -23q-10 -9 -24 -9t-23 9t-9 23zM103 785q0 15 9 24t23 9t23.5 -9
t9.5 -24q0 -14 -9 -23q-10 -9 -24 -9t-23 9t-9 23z" />
    <glyph glyph-name="i.loclTRK" horiz-adv-x="262" 
d="M116 505h30v-505h-30v505zM108 665q9 9 23 9q15 0 24.5 -9.5t9.5 -24.5t-9.5 -24t-24.5 -9q-14 0 -23.5 9t-9.5 24t10 25z" />
    <glyph glyph-name="j_acutecomb" horiz-adv-x="262" 
d="M-44 -190q43 -18 80 -18q43 0 61.5 28.5t18.5 94.5v590h30v-592q0 -150 -108 -150q-43 0 -91 20zM164 740h35l-63 -148h-31z" />
    <glyph glyph-name="germandbls.calt" horiz-adv-x="722" 
d="M118 457q0 118 60 180.5t176 62.5h247v-25l-184 -251q111 -2 176.5 -60.5t65.5 -158.5q0 -95 -62 -155.5t-161 -60.5q-95 0 -167 46l14 26q65 -42 152 -42t140.5 52t53.5 135q0 95 -64 142t-153 47q-16 0 -33 -1l-8 17l191 260h-209q-101 0 -153 -54.5t-52 -159.5v-457
h-30v457z" />
    <glyph glyph-name="a.ss01" horiz-adv-x="689" 
d="M58 252q0 116 71.5 190.5t184.5 74.5q78 0 138.5 -37.5t90.5 -103.5v129h30v-505h-30v128q-30 -65 -90 -102.5t-139 -37.5q-113 0 -184.5 74t-71.5 190zM88 252q0 -104 64 -169q64 -66 164 -66t163.5 65.5t63.5 169.5t-63 169.5t-164 65.5t-164.5 -65.5t-63.5 -169.5z
" />
    <glyph glyph-name="aacute.ss01" horiz-adv-x="689" 
d="M58 252q0 116 71.5 190.5t184.5 74.5q78 0 138.5 -37.5t90.5 -103.5v129h30v-505h-30v128q-30 -65 -90 -102.5t-139 -37.5q-113 0 -184.5 74t-71.5 190zM152 83q64 -66 164 -66t163.5 65.5t63.5 169.5t-63 169.5t-164 65.5t-164.5 -65.5t-63.5 -169.5t64 -169zM385 740
h34l-71 -148h-31z" />
    <glyph glyph-name="abreve.ss01" horiz-adv-x="689" 
d="M130 443q71 74 184 74q78 0 138.5 -37.5t90.5 -103.5v129h30v-505h-30v128q-30 -65 -90 -102.5t-139 -37.5q-113 0 -184.5 74t-71.5 190t72 191zM152 83q64 -66 164 -66t163.5 65.5t63.5 169.5t-63 169.5t-164 65.5t-164.5 -65.5t-63.5 -169.5t64 -169zM237 741
q4 -67 29 -96.5t79 -29.5q53 0 78 29.5t29 96.5l27 -3q-5 -77 -37.5 -113t-96.5 -36q-65 0 -97.5 36t-37.5 113z" />
    <glyph glyph-name="acircumflex.ss01" horiz-adv-x="689" 
d="M130 443q71 74 184 74q78 0 138.5 -37.5t90.5 -103.5v129h30v-505h-30v128q-30 -65 -90 -102.5t-139 -37.5q-113 0 -184.5 74t-71.5 190t72 191zM88 252q0 -104 64 -169q64 -66 164 -66t163.5 65.5t63.5 169.5t-63 169.5t-164 65.5t-164.5 -65.5t-63.5 -169.5zM333 740
h23l128 -148h-37l-102 121l-103 -121h-37z" />
    <glyph glyph-name="adieresis.ss01" horiz-adv-x="689" 
d="M58 252q0 116 71.5 190.5t184.5 74.5q78 0 138.5 -37.5t90.5 -103.5v129h30v-505h-30v128q-30 -65 -90 -102.5t-139 -37.5q-113 0 -184.5 74t-71.5 190zM152 83q64 -66 164 -66t163.5 65.5t63.5 169.5t-63 169.5t-164 65.5t-164.5 -65.5t-63.5 -169.5t64 -169zM391 640
q0 14 9 23t23 9t23 -9t9 -23q0 -15 -9 -24t-23 -9t-23 9t-9 24zM241 663q9 9 23 9t23 -9t9 -23q0 -15 -9 -24t-23 -9t-23 9t-9 24q0 14 9 23z" />
    <glyph glyph-name="agrave.ss01" horiz-adv-x="689" 
d="M58 252q0 116 71.5 190.5t184.5 74.5q78 0 138.5 -37.5t90.5 -103.5v129h30v-505h-30v128q-30 -65 -90 -102.5t-139 -37.5q-113 0 -184.5 74t-71.5 190zM88 252q0 -104 64 -169q64 -66 164 -66t163.5 65.5t63.5 169.5t-63 169.5t-164 65.5t-164.5 -65.5t-63.5 -169.5z
M270 740h34l68 -148h-31z" />
    <glyph glyph-name="amacron.ss01" horiz-adv-x="689" 
d="M58 252q0 116 71.5 190.5t184.5 74.5q78 0 138.5 -37.5t90.5 -103.5v129h30v-505h-30v128q-30 -65 -90 -102.5t-139 -37.5q-113 0 -184.5 74t-71.5 190zM152 83q64 -66 164 -66t163.5 65.5t63.5 169.5t-63 169.5t-164 65.5t-164.5 -65.5t-63.5 -169.5t64 -169zM211 629
v26h268v-26h-268z" />
    <glyph glyph-name="aogonek.ss01" horiz-adv-x="689" 
d="M130 443q71 74 184 74q78 0 138.5 -37.5t90.5 -103.5v129h30v-504l1 -1q-85 -60 -85 -122q0 -47 49 -47q28 0 60 23l15 -21q-40 -30 -77 -30q-34 0 -54 19.5t-20 53.5q0 70 81 131v121q-30 -65 -90 -102.5t-139 -37.5q-113 0 -184.5 74t-71.5 190t72 191zM152 83
q64 -66 164 -66t163.5 65.5t63.5 169.5t-63 169.5t-164 65.5t-164.5 -65.5t-63.5 -169.5t64 -169z" />
    <glyph glyph-name="aring.ss01" horiz-adv-x="689" 
d="M58 252q0 116 71.5 190.5t184.5 74.5q78 0 138.5 -37.5t90.5 -103.5v129h30v-505h-30v128q-30 -65 -90 -102.5t-139 -37.5q-113 0 -184.5 74t-71.5 190zM88 252q0 -104 64 -169q64 -66 164 -66t163.5 65.5t63.5 169.5t-63 169.5t-164 65.5t-164.5 -65.5t-63.5 -169.5z
M267 757q31 30 77 30t77 -30.5t31 -76.5t-31 -76q-31 -31 -77 -31t-77 30.5t-31 76.5t31 77zM262 680q0 -35 23.5 -58.5t58.5 -23.5t58.5 23.5t23.5 58.5t-23 59q-24 23 -59 23t-58.5 -23.5t-23.5 -58.5z" />
    <glyph glyph-name="atilde.ss01" horiz-adv-x="689" 
d="M58 252q0 116 71.5 190.5t184.5 74.5q78 0 138.5 -37.5t90.5 -103.5v129h30v-505h-30v128q-30 -65 -90 -102.5t-139 -37.5q-113 0 -184.5 74t-71.5 190zM88 252q0 -104 64 -169q64 -66 164 -66t163.5 65.5t63.5 169.5t-63 169.5t-164 65.5t-164.5 -65.5t-63.5 -169.5z
M211 636q29 53 73 53q23 0 67 -26q34 -22 53 -22q30 0 52 40l22 -14q-31 -53 -73 -53q-25 0 -67 26q-35 22 -53 22q-31 0 -52 -40z" />
    <glyph glyph-name="ae.ss01" horiz-adv-x="1052" 
d="M58 252q0 116 68.5 190.5t177.5 74.5q75 0 132.5 -37t87.5 -102v127h30v-131q27 67 83.5 105t130.5 38q110 0 173 -76t63 -174q0 -15 -1 -30h-448q4 -99 63 -159.5t152 -60.5q114 0 188 91l21 -20q-36 -47 -90 -73.5t-117 -26.5q-77 0 -134 37.5t-84 104.5v-130h-30v126
q-30 -64 -87.5 -101t-132.5 -37q-109 0 -177.5 74t-68.5 190zM149 83q61 -66 157 -66q97 0 158 65.5t61 169.5t-61 169.5t-158 65.5t-157.5 -65.5t-60.5 -169.5q0 -103 61 -169zM975 266q-2 97 -60.5 159.5t-149.5 62.5q-89 0 -148 -62.5t-62 -159.5h420z" />
    <glyph glyph-name="aeacute.ss01" horiz-adv-x="1052" 
d="M58 252q0 116 68.5 190.5t177.5 74.5q75 0 132.5 -37t87.5 -102v127h30v-131q27 67 83.5 105t130.5 38q110 0 173 -76t63 -174q0 -15 -1 -30h-448q4 -99 63 -159.5t152 -60.5q114 0 188 91l21 -20q-36 -47 -90 -73.5t-117 -26.5q-77 0 -134 37.5t-84 104.5v-130h-30v126
q-30 -64 -87.5 -101t-132.5 -37q-109 0 -177.5 74t-68.5 190zM149 83q61 -66 157 -66q97 0 158 65.5t61 169.5t-61 169.5t-158 65.5t-157.5 -65.5t-60.5 -169.5q0 -103 61 -169zM555 266h420q-2 97 -60.5 159.5t-149.5 62.5q-89 0 -148 -62.5t-62 -159.5zM513 592l68 148h34
l-71 -148h-31z" />
    <glyph glyph-name="ccedilla.ss01" horiz-adv-x="561" 
d="M127 444q69 73 179 73q134 0 207 -99l-20 -19q-66 88 -187 88q-97 0 -157.5 -65t-60.5 -170t60.5 -170t159.5 -65q123 0 193 95l22 -19q-32 -46 -87.5 -74.5t-117.5 -30.5l-14 -139h-29l16 139q-104 6 -168.5 79t-64.5 185q0 118 69 192z" />
    <glyph glyph-name="f.ss01" horiz-adv-x="399" 
d="M41 505h123v94q0 70 33 108t95 38q49 0 104 -28l-12 -26q-47 25 -91 25q-99 0 -99 -118v-93h196v-29h-196v-476h-30v476h-123v29z" />
    <glyph glyph-name="g.ss01" horiz-adv-x="689" 
d="M58 253q0 116 72 190t184 74q78 0 138.5 -38t90.5 -104v130h30v-512q0 -106 -67 -168t-181 -62q-130 0 -226 92l17 23q91 -85 208 -85q101 0 160 53t59 147v137q-30 -66 -90 -103.5t-139 -37.5q-113 0 -184.5 74t-71.5 190zM152 84q63 -66 164 -66q100 0 163.5 65.5
t63.5 169.5q0 103 -63.5 168.5t-163.5 65.5q-101 0 -164.5 -65.5t-63.5 -168.5q0 -104 64 -169z" />
    <glyph glyph-name="gbreve.ss01" horiz-adv-x="689" 
d="M130 443q72 74 184 74q78 0 138.5 -38t90.5 -104v130h30v-512q0 -106 -67 -168t-181 -62q-130 0 -226 92l17 23q91 -85 208 -85q101 0 160 53t59 147v137q-30 -66 -90 -103.5t-139 -37.5q-113 0 -184.5 74t-71.5 190t72 190zM88 253q0 -104 63.5 -169.5t164.5 -65.5
q100 0 163.5 65.5t63.5 169.5q0 103 -63.5 168.5t-163.5 65.5q-101 0 -164.5 -65.5t-63.5 -168.5zM186 738l27 3q4 -67 29 -96.5t79 -29.5q53 0 78 29.5t29 96.5l27 -3q-5 -77 -37.5 -113t-96.5 -36q-65 0 -97.5 36t-37.5 113z" />
    <glyph glyph-name="gcircumflex.ss01" horiz-adv-x="689" 
d="M130 443q72 74 184 74q78 0 138.5 -38t90.5 -104v130h30v-512q0 -106 -67 -168t-181 -62q-130 0 -226 92l17 23q91 -85 208 -85q101 0 160 53t59 147v137q-30 -66 -90 -103.5t-139 -37.5q-113 0 -184.5 74t-71.5 190t72 190zM152 84q63 -66 164 -66q100 0 163.5 65.5
t63.5 169.5q0 103 -63.5 168.5t-163.5 65.5q-101 0 -164.5 -65.5t-63.5 -168.5q0 -104 64 -169zM181 592l128 148h23l128 -148h-37l-102 121l-103 -121h-37z" />
    <glyph glyph-name="uni0123.ss01" horiz-adv-x="689" 
d="M58 253q0 116 72 190t184 74q78 0 138.5 -38t90.5 -104v130h30v-512q0 -106 -67 -168t-181 -62q-130 0 -226 92l17 23q91 -85 208 -85q101 0 160 53t59 147v137q-30 -66 -90 -103.5t-139 -37.5q-113 0 -184.5 74t-71.5 190zM88 253q0 -104 63.5 -169.5t164.5 -65.5
q100 0 163.5 65.5t63.5 169.5q0 103 -63.5 168.5t-163.5 65.5q-101 0 -164.5 -65.5t-63.5 -168.5zM323 738l18 -15q-29 -34 -35 -80q3 1 10 1q14 0 23.5 -9t9.5 -24t-9 -24.5t-23 -9.5q-18 0 -28 13.5t-10 34.5q0 64 44 113z" />
    <glyph glyph-name="gdotaccent.ss01" horiz-adv-x="689" 
d="M58 253q0 116 72 190t184 74q78 0 138.5 -38t90.5 -104v130h30v-512q0 -106 -67 -168t-181 -62q-130 0 -226 92l17 23q91 -85 208 -85q101 0 160 53t59 147v137q-30 -66 -90 -103.5t-139 -37.5q-113 0 -184.5 74t-71.5 190zM88 253q0 -104 63.5 -169.5t164.5 -65.5
q100 0 163.5 65.5t63.5 169.5q0 103 -63.5 168.5t-163.5 65.5q-101 0 -164.5 -65.5t-63.5 -168.5zM287 640q0 15 9.5 24.5t23.5 9.5q15 0 24.5 -9.5t9.5 -24.5t-9.5 -24t-24.5 -9q-14 0 -23.5 9t-9.5 24z" />
    <glyph glyph-name="k.ss01" horiz-adv-x="540" 
d="M116 740h30v-740h-30v740zM229 254v19l242 232h40l-250 -241l265 -264h-39z" />
    <glyph glyph-name="uni0137.ss01" horiz-adv-x="540" 
d="M146 740v-740h-30v740h30zM471 505h40l-250 -241l265 -264h-39l-258 254v19zM266 -66q9 10 23 10q18 0 28 -13.5t10 -34.5q0 -64 -44 -113l-18 15q29 34 35 80q-3 -1 -10 -1q-14 0 -23.5 9t-9.5 24t9 24z" />
    <glyph glyph-name="kgreenlandic.ss01" horiz-adv-x="540" 
d="M229 273l241 232h41l-250 -241l265 -264h-40l-257 254v19zM146 505v-505h-30v505h30z" />
    <glyph glyph-name="scedilla.ss01" horiz-adv-x="471" 
d="M47 70l16 23q81 -72 182 -72q71 0 113 28t42 76q0 43 -37.5 71t-120.5 48q-94 22 -136.5 57t-42.5 88q0 56 45.5 90t121.5 34q108 0 190 -78l-18 -22q-71 71 -173 71q-62 0 -99 -25.5t-37 -68.5q0 -44 35 -70t123 -48q95 -24 137 -58.5t42 -88.5q0 -59 -49.5 -95
t-130.5 -38l-15 -143h-29l17 144q-99 6 -176 77z" />
    <glyph glyph-name="uni0163.ss01" horiz-adv-x="404" 
d="M34 505h111v124h30v-124h183v-29h-183v-337q0 -118 103 -118q44 0 93 25l11 -26q-53 -27 -99 -28l-15 -143h-29l17 144q-111 14 -111 146v337h-111v29z" />
    <glyph glyph-name="u.ss01" horiz-adv-x="660" 
d="M137 505v-282q0 -98 49.5 -149.5t143.5 -51.5t143 51.5t49 149.5v282h30v-283q0 -109 -58 -169t-164 -60t-164.5 60t-58.5 169v283h30z" />
    <glyph glyph-name="uacute.ss01" horiz-adv-x="660" 
d="M107 505h30v-282q0 -98 49.5 -149.5t143.5 -51.5t143 51.5t49 149.5v282h30v-283q0 -109 -58 -169t-164 -60t-164.5 60t-58.5 169v283zM299 592l68 148h34l-71 -148h-31z" />
    <glyph glyph-name="ubreve.ss01" horiz-adv-x="660" 
d="M107 222v283h30v-282q0 -98 49.5 -149.5t143.5 -51.5t143 51.5t49 149.5v282h30v-283q0 -109 -58 -169t-164 -60t-164.5 60t-58.5 169zM219 741q4 -67 29 -96.5t79 -29.5q53 0 78 29.5t29 96.5l27 -3q-5 -77 -37.5 -113t-96.5 -36q-65 0 -97.5 36t-37.5 113z" />
    <glyph glyph-name="ucircumflex.ss01" horiz-adv-x="660" 
d="M137 505v-282q0 -98 49.5 -149.5t143.5 -51.5t143 51.5t49 149.5v282h30v-283q0 -109 -58 -169t-164 -60t-164.5 60t-58.5 169v283h30zM315 740h23l128 -148h-37l-102 121l-103 -121h-37z" />
    <glyph glyph-name="udieresis.ss01" horiz-adv-x="660" 
d="M137 505v-282q0 -98 49.5 -149.5t143.5 -51.5t143 51.5t49 149.5v282h30v-283q0 -109 -58 -169t-164 -60t-164.5 60t-58.5 169v283h30zM224 663q9 9 23 9t23 -9t9 -23q0 -15 -9 -24t-23 -9t-23 9t-9 24q0 14 9 23zM383 663q9 9 23 9t23 -9t9 -23q0 -15 -9 -24t-23 -9
t-23 9t-9 24q0 14 9 23z" />
    <glyph glyph-name="ugrave.ss01" horiz-adv-x="660" 
d="M107 505h30v-282q0 -98 49.5 -149.5t143.5 -51.5t143 51.5t49 149.5v282h30v-283q0 -109 -58 -169t-164 -60t-164.5 60t-58.5 169v283zM286 740l68 -148h-31l-71 148h34z" />
    <glyph glyph-name="uhungarumlaut.ss01" horiz-adv-x="660" 
d="M107 505h30v-282q0 -98 49.5 -149.5t143.5 -51.5t143 51.5t49 149.5v282h30v-283q0 -109 -58 -169t-164 -60t-164.5 60t-58.5 169v283zM426 740h33l-71 -148h-30zM246 592l63 148h33l-66 -148h-30z" />
    <glyph glyph-name="umacron.ss01" horiz-adv-x="660" 
d="M107 505h30v-282q0 -98 49.5 -149.5t143.5 -51.5t143 51.5t49 149.5v282h30v-283q0 -109 -58 -169t-164 -60t-164.5 60t-58.5 169v283zM193 629v26h268v-26h-268z" />
    <glyph glyph-name="uogonek.ss01" horiz-adv-x="660" 
d="M522 223v282h30v-283q0 -163 -130 -216q-46 -18 -73.5 -52.5t-27.5 -74.5q0 -48 48 -48q28 0 60 23l14 -22q-44 -29 -78 -29t-53 20t-19 55q0 62 61 116q-7 -1 -23 -1q-107 0 -165.5 60t-58.5 169v283h30v-282q0 -98 49.5 -149.5t143.5 -51.5t143 51.5t49 149.5z" />
    <glyph glyph-name="uring.ss01" horiz-adv-x="660" 
d="M249 757q31 30 77 30t77 -30.5t31 -76.5t-31 -76q-31 -31 -77 -31t-77 30.5t-31 76.5t31 77zM137 505v-282q0 -98 49.5 -149.5t143.5 -51.5t143 51.5t49 149.5v282h30v-283q0 -109 -58 -169t-164 -60t-164.5 60t-58.5 169v283h30zM268 622q23 -24 58 -24t58.5 23.5
t23.5 58.5t-23.5 58.5t-58.5 23.5t-58.5 -23.5t-23.5 -58.5t24 -58z" />
    <glyph glyph-name="utilde.ss01" horiz-adv-x="660" 
d="M107 222v283h30v-282q0 -98 49.5 -149.5t143.5 -51.5t143 51.5t49 149.5v282h30v-283q0 -109 -58 -169t-164 -60t-164.5 60t-58.5 169zM193 636q29 53 73 53q23 0 67 -26q34 -22 53 -22q30 0 52 40l22 -14q-31 -53 -73 -53q-25 0 -67 26q-35 22 -53 22q-31 0 -52 -40z
" />
    <glyph glyph-name="y.ss01" horiz-adv-x="672" 
d="M107 505h30v-293q0 -89 47.5 -139.5t131.5 -50.5q95 0 152.5 61t57.5 163v259h30v-512q0 -103 -61.5 -167t-159.5 -64q-117 0 -208 91l18 23q82 -84 189 -84q86 0 139 55t53 146v134q-28 -64 -83 -99t-130 -35q-94 0 -150 58.5t-56 157.5v296z" />
    <glyph glyph-name="yacute.ss01" horiz-adv-x="672" 
d="M107 505h30v-293q0 -89 47.5 -139.5t131.5 -50.5q95 0 152.5 61t57.5 163v259h30v-512q0 -103 -61.5 -167t-159.5 -64q-117 0 -208 91l18 23q82 -84 189 -84q86 0 139 55t53 146v134q-28 -64 -83 -99t-130 -35q-94 0 -150 58.5t-56 157.5v296zM305 592l68 148h34
l-71 -148h-31z" />
    <glyph glyph-name="ycircumflex.ss01" horiz-adv-x="672" 
d="M107 209v296h30v-293q0 -89 47.5 -139.5t131.5 -50.5q95 0 152.5 61t57.5 163v259h30v-512q0 -103 -61.5 -167t-159.5 -64q-117 0 -208 91l18 23q82 -84 189 -84q86 0 139 55t53 146v134q-28 -64 -83 -99t-130 -35q-94 0 -150 58.5t-56 157.5zM321 740h23l128 -148h-37
l-102 121l-103 -121h-37z" />
    <glyph glyph-name="ydieresis.ss01" horiz-adv-x="672" 
d="M137 505v-293q0 -89 47.5 -139.5t131.5 -50.5q95 0 152.5 61t57.5 163v259h30v-512q0 -103 -61.5 -167t-159.5 -64q-117 0 -208 91l18 23q82 -84 189 -84q86 0 139 55t53 146v134q-28 -64 -83 -99t-130 -35q-94 0 -150 58.5t-56 157.5v296h30zM388 663q9 9 23 9t23 -9
t9 -23q0 -15 -9 -24t-23 -9t-23 9t-9 24q0 14 9 23zM220 640q0 14 9 23t23 9t23 -9t9 -23q0 -15 -9 -24t-23 -9t-23 9t-9 24z" />
    <glyph glyph-name="ygrave.ss01" horiz-adv-x="672" 
d="M107 505h30v-293q0 -89 47.5 -139.5t131.5 -50.5q95 0 152.5 61t57.5 163v259h30v-512q0 -103 -61.5 -167t-159.5 -64q-117 0 -208 91l18 23q82 -84 189 -84q86 0 139 55t53 146v134q-28 -64 -83 -99t-130 -35q-94 0 -150 58.5t-56 157.5v296zM257 740h34l68 -148h-31z
" />
    <glyph glyph-name="f_t_y.dlig" horiz-adv-x="1286" 
d="M1105 193l129 312h33l-263 -630q-25 -59 -56 -85t-78 -26q-46 0 -82 20l11 26q33 -17 70 -17q38 0 62 21t46 72l40 97l-241 493h-247v-337q0 -118 102 -118q44 0 93 25l12 -26q-57 -28 -106 -28q-64 0 -97.5 38t-33.5 109v337h-305v-476h-30v476h-123v29h123v94
q0 70 33 108t95 38q49 0 104 -28l-12 -26q-47 25 -91 25q-99 0 -99 -118v-93h305v124h30v-124h266l237 -484z" />
    <glyph glyph-name="f_t_yacute.dlig" horiz-adv-x="1286" 
d="M1105 193l129 312h33l-263 -630q-25 -59 -56 -85t-78 -26q-46 0 -82 20l11 26q33 -17 70 -17q38 0 62 21t46 72l40 97l-241 493h-247v-337q0 -118 102 -118q44 0 93 25l12 -26q-57 -28 -106 -28q-64 0 -97.5 38t-33.5 109v337h-305v-476h-30v476h-123v29h123v94
q0 70 33 108t95 38q49 0 104 -28l-12 -26q-47 25 -91 25q-99 0 -99 -118v-93h305v124h30v-124h266l237 -484zM1059 740h34l-71 -148h-31z" />
    <glyph glyph-name="f_t_ycircumflex.dlig" horiz-adv-x="1286" 
d="M1105 193l129 312h33l-263 -630q-25 -59 -56 -85t-78 -26q-46 0 -82 20l11 26q33 -17 70 -17q38 0 62 21t46 72l40 97l-241 493h-247v-337q0 -118 102 -118q44 0 93 25l12 -26q-57 -28 -106 -28q-64 0 -97.5 38t-33.5 109v337h-305v-476h-30v476h-123v29h123v94
q0 70 33 108t95 38q49 0 104 -28l-12 -26q-47 25 -91 25q-99 0 -99 -118v-93h305v124h30v-124h266l237 -484zM1121 592l-102 121l-103 -121h-37l128 148h23l128 -148h-37z" />
    <glyph glyph-name="f_t_ydieresis.dlig" horiz-adv-x="1286" 
d="M1105 193l129 312h33l-263 -630q-25 -59 -56 -85t-78 -26q-46 0 -82 20l11 26q33 -17 70 -17q38 0 62 21t46 72l40 97l-241 493h-247v-337q0 -118 102 -118q44 0 93 25l12 -26q-57 -28 -106 -28q-64 0 -97.5 38t-33.5 109v337h-305v-476h-30v476h-123v29h123v94
q0 70 33 108t95 38q49 0 104 -28l-12 -26q-47 25 -91 25q-99 0 -99 -118v-93h305v124h30v-124h266l237 -484zM1121 592l-102 121l-103 -121h-37l128 148h23l128 -148h-37z" />
    <glyph glyph-name="f_t_ygrave.dlig" horiz-adv-x="1286" 
d="M1105 193l129 312h33l-263 -630q-25 -59 -56 -85t-78 -26q-46 0 -82 20l11 26q33 -17 70 -17q38 0 62 21t46 72l40 97l-241 493h-247v-337q0 -118 102 -118q44 0 93 25l12 -26q-57 -28 -106 -28q-64 0 -97.5 38t-33.5 109v337h-305v-476h-30v476h-123v29h123v94
q0 70 33 108t95 38q49 0 104 -28l-12 -26q-47 25 -91 25q-99 0 -99 -118v-93h305v124h30v-124h266l237 -484zM978 740l68 -148h-31l-71 148h34z" />
    <glyph glyph-name="f_t_y.ss01.dlig" horiz-adv-x="1396" 
d="M1250 246v259h30v-512q0 -103 -59.5 -167t-156.5 -64q-116 0 -202 91l17 23q79 -84 185 -84q83 0 134.5 55t51.5 146v133q-27 -63 -82 -98t-128 -35q-92 0 -147.5 58.5t-55.5 157.5v267h-308v-337q0 -118 97 -118q42 0 88 25l12 -26q-55 -28 -101 -28q-61 0 -93.5 38
t-32.5 109v337h-305v-476h-30v476h-123v29h123v94q0 70 33 108t95 38q49 0 104 -28l-12 -26q-47 25 -91 25q-99 0 -99 -118v-93h305v124h30v-124h338v-293q0 -89 47 -139.5t129 -50.5q94 0 150.5 61t56.5 163z" />
    <glyph glyph-name="f_t_yacute.ss01.dlig" horiz-adv-x="1396" 
d="M1250 246v259h30v-512q0 -103 -59.5 -167t-156.5 -64q-116 0 -202 91l17 23q79 -84 185 -84q83 0 134.5 55t51.5 146v133q-27 -63 -82 -98t-128 -35q-92 0 -147.5 58.5t-55.5 157.5v267h-308v-337q0 -118 97 -118q42 0 88 25l12 -26q-55 -28 -101 -28q-61 0 -93.5 38
t-32.5 109v337h-305v-476h-30v476h-123v29h123v94q0 70 33 108t95 38q49 0 104 -28l-12 -26q-47 25 -91 25q-99 0 -99 -118v-93h305v124h30v-124h338v-293q0 -89 47 -139.5t129 -50.5q94 0 150.5 61t56.5 163zM1100 740h34l-71 -148h-31z" />
    <glyph glyph-name="f_t_ycircumflex.ss01.dlig" horiz-adv-x="1396" 
d="M1250 246v259h30v-512q0 -103 -59.5 -167t-156.5 -64q-116 0 -202 91l17 23q79 -84 185 -84q83 0 134.5 55t51.5 146v133q-27 -63 -82 -98t-128 -35q-92 0 -147.5 58.5t-55.5 157.5v267h-308v-337q0 -118 97 -118q42 0 88 25l12 -26q-55 -28 -101 -28q-61 0 -93.5 38
t-32.5 109v337h-305v-476h-30v476h-123v29h123v94q0 70 33 108t95 38q49 0 104 -28l-12 -26q-47 25 -91 25q-99 0 -99 -118v-93h305v124h30v-124h338v-293q0 -89 47 -139.5t129 -50.5q94 0 150.5 61t56.5 163zM1162 592l-102 121l-103 -121h-37l128 148h23l128 -148h-37z
" />
    <glyph glyph-name="f_t_ydieresis.ss01.dlig" horiz-adv-x="1396" 
d="M1250 246v259h30v-512q0 -103 -59.5 -167t-156.5 -64q-116 0 -202 91l17 23q79 -84 185 -84q83 0 134.5 55t51.5 146v133q-27 -63 -82 -98t-128 -35q-92 0 -147.5 58.5t-55.5 157.5v267h-308v-337q0 -118 97 -118q42 0 88 25l12 -26q-55 -28 -101 -28q-61 0 -93.5 38
t-32.5 109v337h-305v-476h-30v476h-123v29h123v94q0 70 33 108t95 38q49 0 104 -28l-12 -26q-47 25 -91 25q-99 0 -99 -118v-93h305v124h30v-124h338v-293q0 -89 47 -139.5t129 -50.5q94 0 150.5 61t56.5 163zM979 607q-14 0 -23 9t-9 24q0 14 9 23t23 9t23 -9t9 -23
q0 -15 -9 -24t-23 -9zM1138 607q-14 0 -23 9t-9 24q0 14 9 23t23 9t23 -9t9 -23q0 -15 -9 -24t-23 -9z" />
    <glyph glyph-name="f_t_ygrave.ss01.dlig" horiz-adv-x="1396" 
d="M1250 246v259h30v-512q0 -103 -59.5 -167t-156.5 -64q-116 0 -202 91l17 23q79 -84 185 -84q83 0 134.5 55t51.5 146v133q-27 -63 -82 -98t-128 -35q-92 0 -147.5 58.5t-55.5 157.5v267h-308v-337q0 -118 97 -118q42 0 88 25l12 -26q-55 -28 -101 -28q-61 0 -93.5 38
t-32.5 109v337h-305v-476h-30v476h-123v29h123v94q0 70 33 108t95 38q49 0 104 -28l-12 -26q-47 25 -91 25q-99 0 -99 -118v-93h305v124h30v-124h338v-293q0 -89 47 -139.5t129 -50.5q94 0 150.5 61t56.5 163zM1018 740l68 -148h-31l-71 148h34z" />
    <glyph glyph-name="t_y.ss01.dlig" horiz-adv-x="1043" 
d="M897 246v259h30v-512q0 -103 -59.5 -167t-156.5 -64q-116 0 -202 91l16 23q81 -84 185 -84q84 0 135.5 55t51.5 146v134q-28 -64 -82.5 -99t-127.5 -35q-93 0 -148 58.5t-55 157.5v267h-309v-337q0 -118 98 -118q42 0 88 25l11 -26q-53 -28 -100 -28q-61 0 -94 38
t-33 109v337h-111v29h111v124h30v-124h339v-293q0 -89 46.5 -139.5t128.5 -50.5q95 0 151.5 61t56.5 163z" />
    <glyph glyph-name="t_yacute.ss01.dlig" horiz-adv-x="1043" 
d="M747 740h34l-71 -148h-31zM897 246v259h30v-512q0 -103 -59.5 -167t-156.5 -64q-116 0 -202 91l16 23q81 -84 185 -84q84 0 135.5 55t51.5 146v134q-28 -64 -82.5 -99t-127.5 -35q-93 0 -148 58.5t-55 157.5v267h-309v-337q0 -118 98 -118q42 0 88 25l11 -26
q-53 -28 -100 -28q-61 0 -94 38t-33 109v337h-111v29h111v124h30v-124h339v-293q0 -89 46.5 -139.5t128.5 -50.5q95 0 151.5 61t56.5 163z" />
    <glyph glyph-name="t_ycircumflex.ss01.dlig" horiz-adv-x="1043" 
d="M808 592l-102 121l-103 -121h-37l128 148h23l128 -148h-37zM897 246v259h30v-512q0 -103 -59.5 -167t-156.5 -64q-116 0 -202 91l16 23q81 -84 185 -84q84 0 135.5 55t51.5 146v134q-28 -64 -82.5 -99t-127.5 -35q-93 0 -148 58.5t-55 157.5v267h-309v-337
q0 -118 98 -118q42 0 88 25l11 -26q-53 -28 -100 -28q-61 0 -94 38t-33 109v337h-111v29h111v124h30v-124h339v-293q0 -89 46.5 -139.5t128.5 -50.5q95 0 151.5 61t56.5 163z" />
    </font>
</defs>
</svg>
