<?xml version="1.0" standalone="no"?>
<!DOCTYPE svg PUBLIC "-//W3C//DTD SVG 1.1//EN" "http://www.w3.org/Graphics/SVG/1.1/DTD/svg11.dtd" >
<svg xmlns="http://www.w3.org/2000/svg" xmlns:xlink="http://www.w3.org/1999/xlink" version="1.1">
<metadata>
Created by FontForge 20170731 at Tue Jul 14 08:18:20 2020
 By Aleksey,,,
Copyright (c) 2020 by Kastelov. All rights reserved.
</metadata>
<defs>
<font id="Kinetika-Black" horiz-adv-x="615" >
  <font-face 
    font-family="Kinetika-Black"
    font-weight="400"
    font-stretch="normal"
    units-per-em="1000"
    panose-1="0 0 8 0 0 0 0 0 0 0"
    ascent="775"
    descent="-225"
    x-height="511"
    cap-height="669"
    bbox="-469 -251 1165 957"
    underline-thickness="50"
    underline-position="-150"
    unicode-range="U+000D-2767"
  />
<missing-glyph horiz-adv-x="104" 
 />
    <glyph glyph-name=".notdef" horiz-adv-x="104" 
 />
    <glyph glyph-name=".null" horiz-adv-x="0" 
 />
    <glyph glyph-name="uni000D" horiz-adv-x="333" 
 />
    <glyph glyph-name="uni000D.1" unicode="&#xd;" horiz-adv-x="87" 
 />
    <glyph glyph-name="space" unicode=" " horiz-adv-x="215" 
 />
    <glyph glyph-name="exclam" unicode="!" horiz-adv-x="310" 
d="M255 708l-16 -486h-169l-15 486h200zM87 153q28 28 68 28t68 -28.5t28 -68.5t-28 -67.5t-68 -27.5q-41 0 -69 27.5t-28 67.5t29 69z" />
    <glyph glyph-name="quotedbl" unicode="&#x22;" horiz-adv-x="494" 
d="M57 701h186l-50 -279h-142zM280 701h185l-50 -279h-141z" />
    <glyph glyph-name="numbersign" unicode="#" horiz-adv-x="707" 
d="M52 265h88l29 143h-102l21 120h106l28 141h146l-27 -141h101l27 141h146l-24 -141h87l-22 -120h-86l-25 -143h102l-21 -123h-102l-25 -142h-156l27 142h-101l-27 -142h-155l29 142h-87zM292 265h101l27 143h-101z" />
    <glyph glyph-name="dollar" unicode="$" horiz-adv-x="618" 
d="M95 213q107 -79 225 -79q47 0 73 16t26 43q0 18 -10 30.5t-33.5 20.5t-39 11.5t-50.5 9.5q-31 5 -53.5 10.5t-52 15.5t-50 25t-39.5 35t-28.5 49.5t-9.5 66.5q0 81 49 134t136 70v135h166v-132q100 -15 169 -61l-59 -133q-36 25 -91 41.5t-107 16.5q-95 0 -95 -57
q0 -21 17.5 -35t36 -19t51.5 -11q117 -22 164 -46q96 -51 97 -160q0 -81 -48.5 -135.5t-134.5 -74.5v-130h-166v124q-127 17 -210 89z" />
    <glyph glyph-name="percent" unicode="%" horiz-adv-x="811" 
d="M75 633q47 47 119 47q73 0 120 -47.5t47 -120.5t-47 -121t-120 -48q-72 0 -119 48t-47 121t47 121zM450 158q0 72 47 119.5t119 47.5q73 0 120 -47.5t47 -119.5q0 -74 -47 -121.5t-120 -47.5q-72 0 -119 48t-47 121zM82 0l504 669h132l-504 -669h-132zM133 512
q0 -32 17 -52q17 -21 45 -21t45 20.5t17 52.5t-17 52.5t-45 20.5t-45 -20.5t-17 -52.5zM572 105q17 -20 45 -20t44.5 20t16.5 53q0 32 -16.5 52.5t-44.5 20.5t-45 -20.5t-17 -52.5q0 -33 17 -53z" />
    <glyph glyph-name="ampersand" unicode="&#x26;" horiz-adv-x="719" 
d="M34 176q0 117 128 178q-74 72 -74 149q0 74 58.5 126t161.5 52q97 0 154.5 -49.5t57.5 -128.5q0 -59 -34.5 -100t-99.5 -80l103 -98q36 38 46 102h137q-5 -107 -86 -195l139 -133h-183l-52 48q-84 -59 -211 -59q-125 0 -185 54t-60 134zM220 129q24 -19 64 -19
q51 0 104 33l-125 116q-67 -33 -67 -79q0 -32 24 -51zM290 415q82 43 82 85q0 27 -19 44.5t-49 17.5q-32 0 -51 -18.5t-19 -43.5q0 -32 56 -85z" />
    <glyph glyph-name="quotesingle" unicode="'" horiz-adv-x="271" 
d="M193 422h-142l6 279h186z" />
    <glyph glyph-name="parenleft" unicode="(" horiz-adv-x="353" 
d="M46 409q10 69 46 164t91 159h161q-141 -211 -141 -447q0 -232 141 -452h-161q-78 93 -113 225t-35 228q0 54 11 123z" />
    <glyph glyph-name="parenright" unicode=")" horiz-adv-x="353" 
d="M9 -167q140 220 140 452q0 236 -140 447h161q55 -64 91 -159t46.5 -164t10.5 -123q0 -96 -35 -228t-113 -225h-161z" />
    <glyph glyph-name="asterisk" unicode="*" horiz-adv-x="465" 
d="M291 353h-118l-2 6l23 125l-96 -82l-7 -1l-58 101l5 6l119 41l-119 42l-5 6l58 103l9 -2l94 -82l-23 124l2 7h118l3 -7l-24 -124l96 82l7 2l60 -103l-6 -5l-119 -43l119 -41l5 -6l-59 -101l-7 1l-96 82l24 -125z" />
    <glyph glyph-name="plus" unicode="+" horiz-adv-x="516" 
d="M185 392v155h145v-155h152v-137h-152v-156h-145v156h-152v137h152z" />
    <glyph glyph-name="comma" unicode="," horiz-adv-x="279" 
d="M131 -13h-3q-41 0 -68 26t-27 63q0 43 29.5 72t73.5 29q46 0 76.5 -31t30.5 -78q0 -111 -175 -267l-35 35q69 85 98 151z" />
    <glyph glyph-name="hyphen" unicode="-" horiz-adv-x="454" 
d="M400 217h-347v142h347v-142z" />
    <glyph glyph-name="period" unicode="." horiz-adv-x="276" 
d="M36 88q0 43 29.5 72t72.5 29t72 -29t29 -72t-29 -72t-72 -29t-72.5 29t-29.5 72z" />
    <glyph glyph-name="slash" unicode="/" horiz-adv-x="560" 
d="M205 -109h-186l337 850h185z" />
    <glyph glyph-name="zero" unicode="0" horiz-adv-x="670" 
d="M40 334q0 154 82 250t213 96t213.5 -96t82.5 -250q0 -153 -82 -249q-83 -96 -214 -96t-213 96t-82 249zM213 335q0 -87 33 -138q33 -52 89 -52t89.5 51.5t33.5 138.5q0 86 -33.5 137.5t-89.5 51.5t-89 -51.5t-33 -137.5z" />
    <glyph glyph-name="one" unicode="1" horiz-adv-x="405" 
d="M23 630l195 39h112v-669h-173v506l-134 -23v147z" />
    <glyph glyph-name="two" unicode="2" horiz-adv-x="586" 
d="M109 617q71 63 183 63q108 0 176 -60t68 -154q0 -39 -12.5 -74t-39.5 -67.5t-46.5 -51.5t-56.5 -51l-90 -77h251v-146h-496v127l232 207q56 50 70 70q18 27 18 55q0 35 -23 56t-58 21q-38 0 -63.5 -28.5t-26.5 -74.5l-158 17q1 104 72 168z" />
    <glyph glyph-name="three" unicode="3" horiz-adv-x="601" 
d="M23 192l154 34q7 -44 36.5 -69.5t74.5 -25.5q44 0 73.5 28t29.5 70q0 40 -28.5 67t-72.5 27q-36 0 -77 -25l-63 93l172 137h-257v141h463v-129l-151 -120q82 -5 134 -58t52 -139q0 -104 -76 -169.5t-201 -65.5q-108 0 -179 53t-84 151z" />
    <glyph glyph-name="four" unicode="4" horiz-adv-x="636" 
d="M296 669h221v-406h84v-134h-84v-129h-168v129h-327v116zM185 263h164v261z" />
    <glyph glyph-name="five" unicode="5" horiz-adv-x="606" 
d="M184 217q11 -43 41 -64.5t69 -21.5q44 0 74 28t30 72q0 43 -29 70.5t-77 27.5q-60 0 -96 -53l-136 65l51 328h422v-141h-296l-19 -111q52 32 119 32q105 0 168.5 -62.5t63.5 -162.5q0 -105 -74.5 -170.5t-198.5 -65.5q-106 0 -178 49.5t-89 142.5z" />
    <glyph glyph-name="six" unicode="6" horiz-adv-x="610" 
d="M29 240q0 65 24 118.5t73 115.5l155 195h203l-178 -220q22 7 53 7q96 0 161 -63t65 -157q0 -109 -79 -178t-199 -69q-121 0 -199.5 69.5t-78.5 181.5zM202 232q0 -44 30 -73q29 -30 73 -30t74 29t30 73t-29.5 73t-73.5 29q-45 0 -74.5 -28.5t-29.5 -72.5z" />
    <glyph glyph-name="seven" unicode="7" horiz-adv-x="521" 
d="M28 523v146h468v-127l-247 -542h-193l249 523h-277z" />
    <glyph glyph-name="eight" unicode="8" horiz-adv-x="649" 
d="M67 293q30 43 85 65q-84 45 -84 133q0 82 71.5 135.5t183.5 53.5q113 0 185 -54t72 -136q0 -88 -81 -131q54 -23 83.5 -66.5t29.5 -95.5q0 -91 -79 -149.5t-209 -58.5t-208.5 58t-78.5 150q0 52 30 96zM219 209q0 -38 30 -62q29 -25 75 -25t76.5 24.5t30.5 62.5t-30 62
t-76 24t-76 -24t-30 -62zM257 418q27 -22 68 -22q40 0 67 22.5t27 55.5q0 34 -27 56t-68 22q-40 0 -67 -22.5t-27 -56.5q0 -33 27 -55z" />
    <glyph glyph-name="nine" unicode="9" horiz-adv-x="609" 
d="M102 611q78 69 200 69q121 0 199.5 -71t78.5 -181q0 -46 -17.5 -91.5t-38.5 -77t-62 -84.5q-3 -4 -5 -6t-4.5 -5.5t-4.5 -6.5l-120 -157h-203l169 219q-20 -3 -39 -3q-100 0 -165.5 62t-65.5 157q0 106 78 176zM226 365q29 -30 73 -30t74 29t30 73t-29.5 73.5t-73.5 29.5
t-74 -29t-30 -73t30 -73z" />
    <glyph glyph-name="colon" unicode=":" horiz-adv-x="293" 
d="M75 160q29 29 72 29t72 -29t29 -72t-29 -72t-72 -29t-72.5 29t-29.5 72t30 72zM75 483q29 29 72 29t72 -29t29 -72t-29 -72t-72 -29t-72.5 29t-29.5 72t30 72z" />
    <glyph glyph-name="semicolon" unicode=";" horiz-adv-x="302" 
d="M48 76q0 43 29.5 72t72.5 29q46 0 77 -31t31 -78q0 -111 -176 -267l-34 35q69 87 97 151h-3q-40 0 -67 26t-27 63zM75 484q29 29 73 29q42 0 71.5 -29.5t29.5 -72.5q0 -42 -29.5 -71t-71.5 -29q-43 0 -73 29t-30 71q0 43 30 73z" />
    <glyph glyph-name="less" unicode="&#x3c;" horiz-adv-x="471" 
d="M416 556v-164l-224 -75l224 -79v-165l-387 172v144z" />
    <glyph glyph-name="equal" unicode="=" horiz-adv-x="527" 
d="M464 517v-152h-401v152h401zM63 133v152h401v-152h-401z" />
    <glyph glyph-name="greater" unicode="&#x3e;" horiz-adv-x="471" 
d="M441 389v-144l-386 -172v165l224 79l-224 75v164z" />
    <glyph glyph-name="question" unicode="?" horiz-adv-x="562" 
d="M20 585q30 59 95 95t159 36q114 0 185.5 -55.5t71.5 -145.5q0 -42 -19 -76.5t-46.5 -56.5t-54.5 -41t-46 -41t-19 -46v-32h-166v42q0 39 18 70.5t43 51.5t50.5 37.5t43.5 37.5t18 42q0 29 -25.5 48t-64.5 19q-72 0 -112 -67zM198 147q27 26 67 26q39 0 65 -26.5t26 -66.5
q0 -39 -26 -65t-65 -26q-40 0 -67 26t-27 65q0 40 27 67z" />
    <glyph glyph-name="at" unicode="@" horiz-adv-x="836" 
d="M33 238q0 171 113 281.5t289 110.5q167 0 274 -99t107 -247q0 -106 -60 -169t-145 -63t-117 65q-45 -62 -118 -62q-64 0 -104.5 45.5t-40.5 120.5q0 83 50.5 139.5t117.5 56.5q59 0 95 -46l3 34h107l-13 -194v-7q0 -21 12 -33.5t30 -12.5q29 0 50.5 32t21.5 85
q0 106 -77.5 179t-192.5 73q-125 0 -207 -84.5t-82 -209.5q0 -118 76.5 -197.5t211.5 -79.5q105 0 199 56l43 -87q-42 -32 -111 -52t-141 -20q-170 0 -280.5 108t-110.5 277zM361 175q18 -20 46 -20q29 0 51 22t26 55l1 7v4q0 30 -18.5 50.5t-46.5 20.5q-33 0 -55.5 -25.5
t-22.5 -62.5q0 -31 19 -51z" />
    <glyph glyph-name="A" unicode="A" horiz-adv-x="688" 
d="M240 669h211l232 -669h-184l-34 114h-241l-35 -114h-186zM426 259l-80 263l-80 -263h160z" />
    <glyph glyph-name="B" unicode="B" horiz-adv-x="681" 
d="M64 669h352q99 0 152 -50t53 -127q0 -46 -21.5 -80.5t-60.5 -51.5q51 -16 80.5 -57t29.5 -102q0 -94 -63.5 -147.5t-184.5 -53.5h-337v669zM237 282v-143h156q37 0 59.5 20.5t22.5 52.5q0 30 -21.5 50t-53.5 20h-163zM237 397h142q33 0 54 17.5t21 48.5q0 30 -20 49
t-51 19h-146v-134z" />
    <glyph glyph-name="C" unicode="C" horiz-adv-x="712" 
d="M131 582q98 99 250 99q107 0 191.5 -52t121.5 -140l-151 -77q-21 49 -65 78.5t-100 29.5q-76 0 -126.5 -53t-50.5 -133q0 -79 51 -132.5t127 -53.5q56 0 101 30t65 81l155 -71q-37 -91 -123 -145.5t-196 -54.5q-151 0 -250 98.5t-99 247.5t99 248z" />
    <glyph glyph-name="D" unicode="D" horiz-adv-x="712" 
d="M64 669h270q162 0 252.5 -91.5t90.5 -244.5q0 -152 -88 -242.5t-246 -90.5h-279v669zM358 160q63 0 103 49t40 128q0 77 -40 124.5t-105 47.5h-118v-349h120z" />
    <glyph glyph-name="E" unicode="E" horiz-adv-x="610" 
d="M64 0v669h493v-150h-323v-112h313v-143h-313v-114h334v-150h-504z" />
    <glyph glyph-name="F" unicode="F" horiz-adv-x="575" 
d="M64 669h477v-150h-303v-121h276v-149h-276v-249h-174v669z" />
    <glyph glyph-name="G" unicode="G" horiz-adv-x="756" 
d="M32 335q0 151 100.5 248.5t256.5 97.5q187 0 290 -132l-132 -110q-25 40 -67 61t-89 21q-83 0 -133 -53.5t-50 -132.5q0 -81 51.5 -134.5t131.5 -53.5q65 0 109.5 35.5t44.5 83.5h-168v128h349v-70q0 -151 -95.5 -243.5t-242.5 -92.5q-156 0 -256 96.5t-100 250.5z" />
    <glyph glyph-name="H" unicode="H" horiz-adv-x="737" 
d="M64 669h178v-269h252v269h178v-669h-178v238h-252v-238h-178v669z" />
    <glyph glyph-name="I" unicode="I" horiz-adv-x="304" 
d="M64 0v669h176v-669h-176z" />
    <glyph glyph-name="J" unicode="J" horiz-adv-x="497" 
d="M143 151q120 0 120 116v402h175v-434q0 -119 -70 -182.5t-193 -63.5q-80 0 -156 23v155q67 -16 124 -16z" />
    <glyph glyph-name="K" unicode="K" horiz-adv-x="672" 
d="M240 669v-288l221 288h207l-264 -340l268 -329h-217l-215 270v-270h-176v669h176z" />
    <glyph glyph-name="L" unicode="L" horiz-adv-x="561" 
d="M543 0h-479v669h176v-517h303v-152z" />
    <glyph glyph-name="M" unicode="M" horiz-adv-x="896" 
d="M233 669l215 -353l215 353h168v-669h-168v376l-158 -249h-115l-157 249v-376h-169v669h169z" />
    <glyph glyph-name="N" unicode="N" horiz-adv-x="742" 
d="M228 669l283 -400v400h166v-669h-160l-287 398v-398h-166v669h164z" />
    <glyph glyph-name="O" unicode="O" horiz-adv-x="764" 
d="M131 582q99 99 250 99t250.5 -99t99.5 -248t-99 -247q-100 -99 -251 -99t-250 98.5t-99 247.5t99 248zM201 334q0 -79 52 -132.5t128 -53.5q77 0 129 53.5t52 132.5t-52 132.5t-129 53.5q-76 0 -128 -53.5t-52 -132.5z" />
    <glyph glyph-name="P" unicode="P" horiz-adv-x="661" 
d="M387 669q111 0 181.5 -69t70.5 -179q0 -113 -72 -181t-192 -68h-137v-172h-174v669h323zM359 321q46 0 75 28t29 71t-28 71.5t-73 28.5h-124v-199h121z" />
    <glyph glyph-name="Q" unicode="Q" horiz-adv-x="776" 
d="M131 582q99 99 250 99t250.5 -99t99.5 -248q0 -101 -47.5 -181t-129.5 -123q62 -50 141 -50q40 0 76 11v-151q-57 -12 -113 -12q-97 0 -173.5 46t-123.5 114q-143 8 -236 105t-93 241q0 149 99 248zM201 334q0 -79 52 -132.5t128 -53.5q77 0 129 53.5t52 132.5t-52 132.5
t-129 53.5q-76 0 -128 -53q-52 -54 -52 -133z" />
    <glyph glyph-name="R" unicode="R" horiz-adv-x="677" 
d="M402 669q102 0 168.5 -66t66.5 -167q0 -73 -33.5 -129t-92.5 -83l139 -224h-207l-111 194h-94v-194h-174v669h338zM238 335h126q43 0 70.5 25.5t27.5 66.5q0 40 -27 66.5t-68 26.5h-129v-185z" />
    <glyph glyph-name="S" unicode="S" horiz-adv-x="656" 
d="M92 221q104 -81 252 -81q46 0 72.5 16t26.5 44q0 37 -58 52q-17 4 -71 13q-42 7 -69.5 12.5t-68 21t-64.5 35.5t-42 55t-18 80q0 103 78 157t211 54q150 0 268 -68l-70 -133q-94 55 -209 55q-99 0 -99 -55q0 -13 6.5 -22.5t15 -15.5t26 -11t29.5 -7.5t35 -6.5
q120 -21 167 -42q113 -50 114 -163q0 -106 -79.5 -164t-219.5 -58q-88 0 -168 27t-136 69z" />
    <glyph glyph-name="T" unicode="T" horiz-adv-x="607" 
d="M17 669h572v-149h-198v-520h-175v520h-199v149z" />
    <glyph glyph-name="U" unicode="U" horiz-adv-x="707" 
d="M57 669h175v-389q0 -53 32.5 -87.5t88.5 -34.5q55 0 88.5 35t33.5 87v389h175v-402q0 -124 -83 -201t-214 -77q-130 0 -213 77t-83 201v402z" />
    <glyph glyph-name="V" unicode="V" horiz-adv-x="696" 
d="M4 669h201l143 -463l144 463h200l-239 -669h-211z" />
    <glyph glyph-name="W" unicode="W" horiz-adv-x="986" 
d="M11 669h182l99 -452l122 452h158l125 -447l97 447h182l-184 -669h-185l-114 423l-116 -423h-185z" />
    <glyph glyph-name="X" unicode="X" horiz-adv-x="673" 
d="M226 339l-218 330h207l123 -200l128 200h205l-225 -334l222 -335h-207l-123 201l-134 -201h-204z" />
    <glyph glyph-name="Y" unicode="Y" horiz-adv-x="667" 
d="M1 669h202l129 -287l135 287h203l-250 -470v-199h-175v199z" />
    <glyph glyph-name="Z" unicode="Z" horiz-adv-x="627" 
d="M583 526l-318 -377h329v-149h-558v137l326 383h-320v149h541v-143z" />
    <glyph glyph-name="bracketleft" unicode="[" horiz-adv-x="412" 
d="M66 732h317v-150h-149v-599h149v-150h-317v899z" />
    <glyph glyph-name="backslash" unicode="\" horiz-adv-x="559" 
d="M204 741l335 -850h-185l-335 850h185z" />
    <glyph glyph-name="bracketright" unicode="]" horiz-adv-x="412" 
d="M29 582v150h318v-899h-318v150h150v599h-150z" />
    <glyph glyph-name="asciicircum" unicode="^" horiz-adv-x="558" 
d="M189 669h180l158 -280h-165l-83 160l-82 -160h-168z" />
    <glyph glyph-name="underscore" unicode="_" horiz-adv-x="568" 
d="M568 -166h-568v124h568v-124z" />
    <glyph glyph-name="grave" unicode="`" horiz-adv-x="294" 
d="M217 745l46 -166h-162l-73 166h189z" />
    <glyph glyph-name="a" unicode="a" horiz-adv-x="641" 
d="M100 448q70 75 178 75q93 0 153 -67v55h155v-511h-155v54q-61 -66 -155 -66q-107 0 -176.5 75.5t-69.5 192.5t70 192zM228 169q33 -35 84 -35q50 0 84 35.5t34 87.5q0 50 -34 85t-83 35q-51 0 -85 -34.5t-34 -86.5q0 -53 34 -87z" />
    <glyph glyph-name="b" unicode="b" horiz-adv-x="645" 
d="M220 707v-246q63 60 151 60q104 0 174 -76.5t70 -190.5q0 -113 -69.5 -189.5t-172.5 -76.5q-91 0 -156 63v-51h-162v707h165zM251 169q34 -35 84 -35q49 0 82 34.5t33 85.5t-33.5 86t-82.5 35q-50 0 -84 -35t-34 -86q0 -50 35 -85z" />
    <glyph glyph-name="c" unicode="c" horiz-adv-x="589" 
d="M108 449q78 74 204 74q100 0 170.5 -48.5t89.5 -136.5l-153 -42q-9 36 -39 58.5t-69 22.5q-52 0 -84.5 -34t-32.5 -88q0 -53 33 -87t85 -34q37 0 68 22.5t42 57.5l146 -61q-24 -73 -93 -119t-168 -46q-124 0 -200.5 73.5t-76.5 192.5q0 120 78 195z" />
    <glyph glyph-name="d" unicode="d" horiz-adv-x="645" 
d="M101 445q70 76 176 76q87 0 149 -60v246h164v-707h-161v52q-64 -64 -157 -64q-103 0 -172.5 76.5t-69.5 190.5t71 190zM227 168q33 -34 83 -34q51 0 85 34t34 86t-34 86.5t-84 34.5t-83.5 -34.5t-33.5 -86.5t33 -86z" />
    <glyph glyph-name="e" unicode="e" horiz-adv-x="604" 
d="M30 254q0 119 76.5 194t200.5 75q120 0 194 -70t74 -183q0 -30 -3 -53h-386q7 -46 40 -73.5t80 -27.5q80 0 111 61l134 -54q-24 -62 -90 -98.5t-153 -36.5q-125 0 -201.5 74t-76.5 192zM188 307h230q-8 41 -38.5 66.5t-74.5 25.5q-43 0 -75 -25t-42 -67z" />
    <glyph glyph-name="f" unicode="f" horiz-adv-x="448" 
d="M117 511v43q0 87 55.5 137t151.5 50q77 0 127 -20v-140q-39 13 -90 13q-75 0 -75 -66v-17h145v-141h-145v-370h-169v370h-96v141h96z" />
    <glyph glyph-name="g" unicode="g" horiz-adv-x="643" 
d="M101 449q69 73 173 73q93 0 156 -60v49h159v-467q0 -123 -79.5 -193t-219.5 -70q-112 0 -215 48v143q100 -52 201 -52q71 0 112 32.5t41 94.5v24q-60 -60 -156 -60q-105 0 -173.5 71.5t-68.5 182.5t70 184zM196 260q0 -50 33 -82.5t82 -32.5q50 0 83 33t33 82
q0 50 -32.5 83.5t-81.5 33.5q-51 0 -84 -33.5t-33 -83.5z" />
    <glyph glyph-name="h" unicode="h" horiz-adv-x="610" 
d="M55 0v708h169v-233q57 47 137 47q89 0 144.5 -55.5t55.5 -143.5v-323h-169v286q0 40 -22 64.5t-57 24.5q-38 0 -63.5 -29t-25.5 -75v-271h-169z" />
    <glyph glyph-name="i" unicode="i" horiz-adv-x="280" 
d="M55 0v511h170v-511h-170zM41 660q0 42 28.5 70.5t70.5 28.5t70.5 -28.5t28.5 -70.5q0 -41 -28 -69q-29 -29 -71 -29t-70.5 28.5t-28.5 69.5z" />
    <glyph glyph-name="j" unicode="j" horiz-adv-x="292" 
d="M-91 -200v144q48 -13 89 -13q40 0 55 19.5t15 60.5v500h169v-547q0 -83 -54.5 -133t-151.5 -50q-63 0 -122 19zM53 660q0 42 29 70.5t71 28.5t70 -28.5t28 -70.5q0 -41 -28 -69q-28 -29 -70 -29t-71 28.5t-29 69.5z" />
    <glyph glyph-name="k" unicode="k" horiz-adv-x="575" 
d="M55 701h167v-388l158 198h195l-197 -249l197 -262h-202l-151 204v-204h-167v701z" />
    <glyph glyph-name="l" unicode="l" horiz-adv-x="281" 
d="M226 701v-701h-171v701h171z" />
    <glyph glyph-name="m" unicode="m" horiz-adv-x="935" 
d="M216 511v-50q58 61 149 61q96 0 147 -69q64 69 168 69q91 0 148 -54.5t57 -142.5v-325h-168v291q0 39 -21 62t-55 23q-37 0 -61.5 -27.5t-24.5 -73.5v-275h-168v289q0 40 -20.5 63.5t-55.5 23.5q-38 0 -62.5 -27.5t-24.5 -73.5v-275h-169v511h161z" />
    <glyph glyph-name="n" unicode="n" horiz-adv-x="610" 
d="M216 511v-50q58 61 145 61q89 0 144 -55t55 -144v-323h-168v288q0 39 -22 63.5t-57 24.5q-38 0 -63.5 -29t-25.5 -75v-272h-169v511h161z" />
    <glyph glyph-name="o" unicode="o" horiz-adv-x="617" 
d="M108 447q78 76 201 76t201 -76.5t78 -192.5q0 -117 -79 -191.5t-200 -74.5q-122 0 -201 75.5t-79 190.5q0 116 79 193zM224 169q34 -35 85 -35q52 0 86 34.5t34 87.5q0 51 -34 86t-85 35t-86 -35t-35 -86q0 -53 35 -87z" />
    <glyph glyph-name="p" unicode="p" horiz-adv-x="645" 
d="M217 511v-54q63 63 155 63q104 0 173.5 -76t69.5 -191q0 -114 -70 -189.5t-174 -75.5q-90 0 -151 58v-247h-165v712h162zM216 253q0 -52 34 -87t84 -35t83.5 35t33.5 87t-33.5 86.5t-83.5 34.5t-84 -34.5t-34 -86.5z" />
    <glyph glyph-name="q" unicode="q" horiz-adv-x="644" 
d="M30 253q0 114 69 190.5t174 76.5q94 0 156 -64v55h161v-712h-165v248q-61 -59 -151 -59q-103 0 -173.5 76t-70.5 189zM194 253q0 -52 34 -87t84 -35t83.5 35t33.5 87t-34 86.5t-85 34.5q-50 0 -83 -34.5t-33 -86.5z" />
    <glyph glyph-name="r" unicode="r" horiz-adv-x="430" 
d="M55 0v511h161v-53q47 65 132 65q27 0 62 -11l-1 -164q-39 13 -71 13q-57 0 -86.5 -32.5t-29.5 -88.5v-240h-167z" />
    <glyph glyph-name="s" unicode="s" horiz-adv-x="547" 
d="M78 183q38 -26 94.5 -45.5t105.5 -19.5q76 0 76 37q0 5 -1.5 9t-5 7.5t-7.5 6t-11 5t-13.5 4t-16.5 4t-18.5 3.5t-22 3.5t-23.5 4.5q-95 18 -140 52t-45 104q0 77 60.5 121t171.5 44q118 0 218 -43l-42 -125q-102 45 -183 45q-64 0 -64 -35q0 -5 1.5 -9t5 -7t7 -5.5
t10.5 -5t12 -4.5t15 -4t17 -3.5t19.5 -3.5t20.5 -4q104 -20 152 -53t48 -106q0 -79 -65.5 -125t-178.5 -46q-151 0 -256 72z" />
    <glyph glyph-name="t" unicode="t" horiz-adv-x="432" 
d="M23 511h78v147h168v-147h127v-141h-127v-168q0 -34 13.5 -50.5t49.5 -16.5q38 0 81 16v-137q-65 -26 -131 -26q-92 0 -136.5 46t-44.5 127v209h-78v141z" />
    <glyph glyph-name="u" unicode="u" horiz-adv-x="609" 
d="M49 511h168v-288q0 -40 22 -64t57 -24q38 0 64 28t26 74v274h168v-511h-160v54q-59 -65 -153 -65q-89 0 -140.5 59t-51.5 165v298z" />
    <glyph glyph-name="v" unicode="v" horiz-adv-x="587" 
d="M190 511l103 -326h4l100 326h187l-199 -511h-184l-196 511h185z" />
    <glyph glyph-name="w" unicode="w" horiz-adv-x="844" 
d="M4 511h181l75 -303l89 303h146l90 -297l72 297h182l-158 -512h-166l-92 311l-92 -311h-167z" />
    <glyph glyph-name="x" unicode="x" horiz-adv-x="570" 
d="M173 255l-167 256h190l88 -152l97 152h184l-170 -257l172 -254h-189l-94 150l-96 -150h-184z" />
    <glyph glyph-name="y" unicode="y" horiz-adv-x="600" 
d="M172 512l134 -361l117 361h172l-171 -479q-16 -45 -27.5 -72.5t-35.5 -66t-50.5 -60t-69.5 -38t-96 -16.5q-60 0 -126 25v146q54 -27 108 -27q74 0 101 44l-229 544h173z" />
    <glyph glyph-name="z" unicode="z" horiz-adv-x="532" 
d="M501 0h-469v117l239 255h-225v139h443v-111l-239 -260h251v-140z" />
    <glyph glyph-name="braceleft" unicode="{" horiz-adv-x="408" 
d="M103 363q17 14 17 56q0 9 -1 21l-7 91q-1 10 -1 29q0 87 49.5 134t129.5 47q32 0 84 -8v-139q-16 3 -31 3q-35 0 -56 -19t-21 -58q0 -12 1 -18l8 -80q1 -10 1 -27q0 -88 -65 -112q65 -24 65 -112q0 -17 -1 -27l-8 -80q-1 -6 -1 -18q0 -40 21 -59t56 -19q6 0 17.5 1.5
t13.5 1.5v-139q-45 -7 -84 -7q-80 0 -129.5 46.5t-49.5 133.5q0 19 1 29l8 91q1 7 1 19q0 48 -22 61.5t-79 15.5v123q61 2 83 19z" />
    <glyph glyph-name="bar" unicode="|" horiz-adv-x="282" 
d="M215 -219h-149v1049h149v-1049z" />
    <glyph glyph-name="braceright" unicode="}" horiz-adv-x="408" 
d="M297 531l-8 -91q-1 -8 -1 -21q0 -46 22 -59.5t79 -15.5v-123q-64 -2 -82.5 -18t-18.5 -56q0 -10 1 -22l8 -91q1 -9 1 -27q0 -88 -49.5 -135t-130.5 -47q-39 0 -84 7v139q1 0 13.5 -1.5t18.5 -1.5q38 0 57.5 21.5t19.5 56.5q0 9 -1 18l-8 80q-2 20 -2 29q0 86 66 110
q-66 24 -66 110q0 9 2 29l8 80q1 6 1 16q0 40 -21.5 59.5t-55.5 19.5q-16 0 -32 -3v139q52 8 84 8q81 0 130.5 -47.5t49.5 -135.5q0 -18 -1 -27z" />
    <glyph glyph-name="asciitilde" unicode="~" horiz-adv-x="640" 
d="M103 376q51 56 120 56q41 0 74 -20t57.5 -39.5t45.5 -19.5q49 0 57 72h144q-5 -102 -55 -163t-127 -61q-31 0 -59 12.5t-45 27.5t-37.5 27.5t-38.5 12.5q-23 0 -34 -16t-15 -57h-144q5 112 57 168z" />
    <glyph glyph-name="exclamdown" unicode="&#xa1;" horiz-adv-x="297" 
d="M49 -219l15 485h168l17 -485h-200zM80 472q28 28 68 28t68.5 -28t28.5 -68t-28.5 -68t-68.5 -28t-68 28t-28 68t28 68z" />
    <glyph glyph-name="cent" unicode="&#xa2;" horiz-adv-x="608" 
d="M96 515q59 71 158 89v111h115v-108q82 -11 138 -58.5t73 -123.5l-154 -42q-8 36 -38.5 58.5t-69.5 22.5q-51 0 -83.5 -34t-32.5 -88q0 -53 33 -87t84 -34q38 0 68.5 22.5t41.5 57.5l146 -62q-21 -61 -74.5 -104.5t-131.5 -55.5v-120h-115v121q-99 17 -158 87.5t-59 173.5
t59 174z" />
    <glyph glyph-name="sterling" unicode="&#xa3;" horiz-adv-x="618" 
d="M39 128q54 21 72.5 48.5t18.5 80.5v14h-85v112h52q-16 46 -16 88q0 92 69.5 151t180.5 59q33 0 63.5 -5t65.5 -21t61 -40.5t43 -67t18 -97.5l-152 -10q-1 47 -26 72t-67 25q-40 0 -64.5 -24.5t-24.5 -61.5q0 -26 17 -68h211v-112h-184v-6q0 -73 -31 -122h310v-143h-509z
" />
    <glyph glyph-name="currency" unicode="&#xa4;" horiz-adv-x="604" 
d="M41 490l102 99l8 -6l51 -72q48 24 101 24q55 0 99 -23l51 71l8 6l102 -99l-5 -10l-73 -52q22 -42 22 -92q0 -53 -25 -97l76 -54l5 -11l-102 -99l-8 6l-56 78q-44 -21 -94 -21q-52 0 -96 22l-56 -79l-8 -6l-102 99l5 11l78 55q-24 42 -24 96q0 50 21 91l-75 53zM243 271
q23 -25 59 -25q37 0 59.5 24.5t22.5 64.5q0 41 -22.5 65.5t-59.5 24.5q-36 0 -59 -25t-23 -65t23 -64z" />
    <glyph glyph-name="yen" unicode="&#xa5;" horiz-adv-x="662" 
d="M209 669l122 -299l122 299h186l-181 -356h97v-90h-138v-43h138v-91h-138v-89h-174v89h-137v91h137v43h-137v90h96l-180 356h187z" />
    <glyph glyph-name="brokenbar" unicode="&#xa6;" horiz-adv-x="282" 
d="M215 830v-419h-149v419h149zM66 -219v418h149v-418h-149z" />
    <glyph glyph-name="section" unicode="&#xa7;" horiz-adv-x="565" 
d="M37 -93l55 111q37 -31 89 -51t103 -20q41 0 61.5 14.5t20.5 35.5q0 20 -24 34.5t-59.5 22.5t-77 21.5t-77 29t-59.5 47.5t-24 75q0 47 26 81.5t73 51.5q-88 40 -88 134q0 85 63.5 135.5t166.5 50.5q64 0 126.5 -19.5t94.5 -49.5l-61 -108q-31 23 -78.5 39t-90.5 16
q-39 0 -56.5 -13.5t-17.5 -33.5q0 -24 33.5 -39t80.5 -26t94.5 -26.5t81 -50.5t33.5 -88q0 -46 -25.5 -82t-77.5 -49q92 -42 92 -136q0 -86 -66 -139t-170 -53q-70 0 -137.5 23.5t-104.5 61.5zM192 265q0 -24 19.5 -40.5t43 -24.5t64.5 -18q6 -1 9 -2q49 23 49 66
q0 23 -19.5 39t-42.5 23.5t-65 17.5q-4 1 -7 1.5t-6 1.5q-45 -24 -45 -64z" />
    <glyph glyph-name="dieresis" unicode="&#xa8;" horiz-adv-x="475" 
d="M64 717q27 26 65 26q39 0 66 -26.5t27 -64.5q0 -39 -27 -66.5t-66 -27.5q-38 0 -65 27.5t-27 66.5q0 38 27 65zM281 717q27 26 66 26q38 0 65 -26.5t27 -64.5q0 -39 -27 -66.5t-65 -27.5q-39 0 -66 27.5t-27 66.5q0 38 27 65z" />
    <glyph glyph-name="copyright" unicode="&#xa9;" horiz-adv-x="765" 
d="M136 585q98 98 247 98t247.5 -98.5t98.5 -247.5q0 -150 -98 -248q-99 -99 -248 -99t-247.5 98.5t-98.5 248.5q0 149 99 248zM124 337q0 -113 74 -188t186 -75t185 75t73 188t-73.5 187.5t-185.5 74.5t-185.5 -74.5t-73.5 -187.5zM251 468q54 51 139 51q51 0 97.5 -27.5
t70.5 -71.5l-102 -51q-8 20 -28 32.5t-43 12.5q-33 0 -55 -23t-22 -57t22.5 -57t55.5 -23q24 0 44.5 12.5t29.5 32.5l97 -52q-21 -44 -66.5 -71t-101.5 -27q-84 0 -138 51t-54 134t54 134z" />
    <glyph glyph-name="ordfeminine" unicode="&#xaa;" horiz-adv-x="358" 
d="M61 566q28 22 77 22h83v1q0 10 -1 15.5t-6 14t-18 12.5t-34 4q-50 0 -105 -21l-7 71q54 21 121 21q138 0 138 -113v-169h-87v21q-35 -27 -85 -27q-46 0 -75 24.5t-29 63.5q0 37 28 60zM125 511q0 -14 11 -22t29 -8q25 0 40.5 14t15.5 36v10h-57q-39 0 -39 -30z" />
    <glyph glyph-name="guillemotleft" unicode="&#xab;" 
d="M285 252l118 221h185l-119 -222l111 -224h-186zM29 252l118 221h185l-119 -222l111 -224h-186z" />
    <glyph glyph-name="logicalnot" unicode="&#xac;" horiz-adv-x="616" 
d="M409 249h-359v144h505v-266h-146v122z" />
    <glyph glyph-name="uni00AD" unicode="&#xad;" horiz-adv-x="471" 
d="M417 217h-364v142h364v-142z" />
    <glyph glyph-name="registered" unicode="&#xae;" horiz-adv-x="765" 
d="M136 585q98 98 247 98t247.5 -98.5t98.5 -247.5q0 -150 -98.5 -248.5t-247.5 -98.5t-247.5 98.5t-98.5 248.5q0 149 99 248zM198 149q74 -75 186 -75t185 75t73 188t-73.5 187.5t-185.5 74.5t-185.5 -74.5t-73.5 -187.5t74 -188zM236 513h172q61 0 99 -35.5t38 -90.5
q0 -83 -65 -112l72 -116h-116l-55 99h-39v-99h-106v354zM342 430v-89h50q20 0 34 13t14 33q0 19 -13.5 31t-33.5 12h-51z" />
    <glyph glyph-name="macron" unicode="&#xaf;" horiz-adv-x="453" 
d="M403 601h-352v113h352v-113z" />
    <glyph glyph-name="degree" unicode="&#xb0;" horiz-adv-x="369" 
d="M30 532q0 64 44 106t111 42t110.5 -42t43.5 -106t-43 -105q-44 -42 -111 -42t-111 41.5t-44 105.5zM127 532q0 -26 17 -43q16 -17 41 -17t41 17t16 43t-16 43.5t-41 17.5t-41.5 -17.5t-16.5 -43.5z" />
    <glyph glyph-name="plusminus" unicode="&#xb1;" horiz-adv-x="556" 
d="M54 341v148h144v142h159v-142h145v-148h-145v-141h-159v141h-144zM54 165h448v-149h-448v149z" />
    <glyph glyph-name="twosuperior" unicode="&#xb2;" horiz-adv-x="361" 
d="M70 773q44 36 110 36q68 0 108 -34.5t40 -88.5q0 -64 -74 -116l-65 -46h144v-81h-304v68l138 101q2 1 8.5 6t9 6.5t8 6t7.5 6.5t6.5 6t6.5 7t5 7t4 8l2 8q1 4 1 9q0 19 -13 31t-35 12q-25 0 -40.5 -18t-17.5 -44l-96 13q3 60 47 97z" />
    <glyph glyph-name="threesuperior" unicode="&#xb3;" horiz-adv-x="368" 
d="M17 542l86 27q5 -23 25 -37.5t48 -14.5q27 0 46 15t19 38q0 22 -18 36.5t-47 14.5q-22 0 -53 -14l-34 49l108 67h-159v81h285v-78l-89 -56q47 -3 78.5 -31t31.5 -74q0 -56 -46.5 -91.5t-121.5 -35.5q-65 0 -108.5 27.5t-50.5 76.5z" />
    <glyph glyph-name="acute" unicode="&#xb4;" horiz-adv-x="294" 
d="M193 579h-162l47 166h187z" />
    <glyph glyph-name="paragraph" unicode="&#xb6;" horiz-adv-x="754" 
d="M92 604q67 65 168 65h455v-149h-86v-687h-130v687h-86v-687h-156v382q-99 1 -166 66.5t-67 160.5q0 97 68 162z" />
    <glyph glyph-name="periodcentered" unicode="&#xb7;" horiz-adv-x="272" 
d="M40 308q0 40 28 67.5t68 27.5q41 0 69 -27.5t28 -67.5t-28 -68q-29 -29 -69 -29t-68 28t-28 69z" />
    <glyph glyph-name="cedilla" unicode="&#xb8;" horiz-adv-x="320" 
d="M37 -212l1 89q49 -14 79 -14q49 0 49 31q0 29 -44 29h-49l-8 10l34 96h110l-18 -57q44 -4 69.5 -28.5t25.5 -61.5q0 -48 -39.5 -79t-103.5 -31q-58 0 -106 16z" />
    <glyph glyph-name="onesuperior" unicode="&#xb9;" horiz-adv-x="356" 
d="M139 526v175l-106 -31v91l138 43h67v-278h103v-83h-311v83h109z" />
    <glyph glyph-name="ordmasculine" unicode="&#xba;" horiz-adv-x="357" 
d="M72 666q42 40 107 40q64 0 106 -40.5t42 -102.5q0 -63 -42 -104t-106 -41q-65 0 -107 41t-42 104q0 62 42 103zM116 563q0 -28 18 -46.5t45 -18.5q26 0 44 18.5t18 46.5t-18 46t-44 18q-27 0 -45 -18t-18 -46z" />
    <glyph glyph-name="guillemotright" unicode="&#xbb;" 
d="M27 473h186l118 -221l-110 -225h-186l111 224zM284 473h184l118 -221l-109 -225h-185l111 224z" />
    <glyph glyph-name="onequarter" unicode="&#xbc;" horiz-adv-x="873" 
d="M647 669h121l-481 -669h-125zM503 128l147 224h147v-213h48v-73h-48v-70h-97v70h-197v62zM36 398h110v175l-106 -31v91l138 43h68v-278h102v-83h-312v83zM609 139h91v146z" />
    <glyph glyph-name="onehalf" unicode="&#xbd;" horiz-adv-x="865" 
d="M147 0l485 669h121l-480 -669h-126zM519 229q3 60 47 96.5t110 36.5q69 0 109 -34.5t40 -88.5q0 -65 -74 -117l-63 -44h141v-82h-303v68l137 101q3 3 11.5 9t12.5 9t10.5 8.5t10 9.5t7.5 10t5.5 12t1.5 12q0 19 -13.5 31t-34.5 12q-26 0 -41 -18t-18 -44zM35 398h110v175
l-107 -31v91l138 43h67v-278h103v-83h-311v83z" />
    <glyph glyph-name="threequarters" unicode="&#xbe;" horiz-adv-x="851" 
d="M620 669h121l-481 -669h-126zM481 128l146 224h149v-213h47v-73h-47v-70h-98v70h-197v62zM26 414l86 27q5 -23 25.5 -37.5t46.5 -14.5q28 0 47 15t19 38q0 22 -18 36.5t-47 14.5q-21 0 -52 -14l-34 49l108 67h-160v81h286v-78l-89 -56q47 -4 78 -31.5t31 -73.5
q0 -56 -46.5 -91.5t-122.5 -35.5q-65 0 -108 27.5t-50 76.5zM587 139h91v146z" />
    <glyph glyph-name="questiondown" unicode="&#xbf;" horiz-adv-x="559" 
d="M49 58q19 34 46 56t54 41t46 41t19 46v32h167v-42q0 -39 -18 -70.5t-43.5 -51.5t-50.5 -37.5t-43 -37.5t-18 -42q0 -29 25.5 -48t64.5 -19q70 0 112 67l130 -81q-29 -60 -93.5 -95.5t-159.5 -35.5q-115 0 -186 55t-71 146q0 42 19 76zM204 416q0 39 26.5 65.5t65.5 26.5
q40 0 66.5 -26.5t26.5 -65.5q0 -40 -26.5 -66.5t-66.5 -26.5q-39 0 -65.5 26.5t-26.5 66.5z" />
    <glyph glyph-name="Agrave" unicode="&#xc0;" horiz-adv-x="688" 
d="M3 0l237 669h211l232 -669h-184l-34 114h-241l-35 -114h-186zM373 909l58 -183h-176l-76 183h194zM426 259l-80 263l-80 -263h160z" />
    <glyph glyph-name="Aacute" unicode="&#xc1;" horiz-adv-x="688" 
d="M3 0l237 669h211l232 -669h-184l-34 114h-241l-35 -114h-186zM313 909h195l-76 -183h-176zM426 259l-80 263l-80 -263h160z" />
    <glyph glyph-name="Acircumflex" unicode="&#xc2;" horiz-adv-x="688" 
d="M3 0l237 669h211l232 -669h-184l-34 114h-241l-35 -114h-186zM118 727l138 190h175l138 -190h-167l-58 89l-60 -89h-166zM426 259l-80 263l-80 -263h160z" />
    <glyph glyph-name="Atilde" unicode="&#xc3;" horiz-adv-x="688" 
d="M240 669h211l232 -669h-184l-34 114h-241l-35 -114h-186zM120 766q0 63 33.5 103.5t100.5 40.5q30 0 54.5 -9.5t37.5 -21t29.5 -21t32.5 -9.5q23 0 37.5 16t14.5 41h121q1 -9 1 -17q0 -59 -33 -105t-103 -46q-36 0 -64.5 16t-50 31.5t-40.5 15.5q-22 0 -35.5 -15.5
t-13.5 -39.5v-3h-121q-1 8 -1 23zM266 259h160l-80 263z" />
    <glyph glyph-name="Adieresis" unicode="&#xc4;" horiz-adv-x="688" 
d="M240 669h211l232 -669h-184l-34 114h-241l-35 -114h-186zM361 831q0 41 28 68.5t69 27.5t69 -27.5t28 -68.5t-28 -69q-28 -29 -69 -29t-69 28.5t-28 69.5zM161 899q28 28 69 28q40 0 68 -27.5t28 -68.5t-28 -69.5t-68 -28.5q-41 0 -69.5 28.5t-28.5 69.5q0 40 29 68z
M426 259l-80 263l-80 -263h160z" />
    <glyph glyph-name="Aring" unicode="&#xc5;" horiz-adv-x="688" 
d="M240 669h211l232 -669h-184l-34 114h-241l-35 -114h-186zM205 832q0 53 39.5 89t99.5 36t99.5 -36t39.5 -89q0 -54 -39 -89q-40 -36 -100 -36t-99.5 35.5t-39.5 89.5zM426 259l-80 263l-80 -263h160zM306 794q15 -15 38 -15t38.5 14.5t15.5 36.5q0 23 -15 39
q-16 15 -39 15t-38 -15.5t-15 -38.5q0 -22 15 -36z" />
    <glyph glyph-name="AE" unicode="&#xc6;" horiz-adv-x="975" 
d="M338 669h584v-149h-315v-117h299v-136h-299v-118h326v-149h-488v125h-219l-63 -125h-178zM296 263h149v297z" />
    <glyph glyph-name="Ccedilla" unicode="&#xc7;" horiz-adv-x="712" 
d="M131 582q98 99 250 99q107 0 191.5 -52t121.5 -140l-151 -77q-21 49 -65 78.5t-100 29.5q-76 0 -126.5 -53t-50.5 -133q0 -79 51 -132.5t127 -53.5q56 0 101 30t65 81l155 -71q-33 -81 -105.5 -134t-166.5 -63l-10 -31q44 -4 69.5 -28.5t25.5 -62.5q0 -47 -39.5 -77.5
t-102.5 -30.5t-107 15v90q47 -14 80 -14q49 0 49 31q0 28 -44 28h-50l-6 11l24 71q-127 21 -206 115t-79 226q0 149 99 248z" />
    <glyph glyph-name="Egrave" unicode="&#xc8;" horiz-adv-x="610" 
d="M557 669v-150h-323v-112h313v-143h-313v-114h334v-150h-504v669h493zM339 909l58 -183h-176l-76 183h194z" />
    <glyph glyph-name="Eacute" unicode="&#xc9;" horiz-adv-x="610" 
d="M557 669v-150h-323v-112h313v-143h-313v-114h334v-150h-504v669h493zM279 909h195l-76 -183h-176z" />
    <glyph glyph-name="Ecircumflex" unicode="&#xca;" horiz-adv-x="610" 
d="M64 0v669h493v-150h-323v-112h313v-143h-313v-114h334v-150h-504zM222 917h175l138 -190h-167l-58 89l-60 -89h-166z" />
    <glyph glyph-name="Edieresis" unicode="&#xcb;" horiz-adv-x="610" 
d="M64 669h493v-150h-323v-112h313v-143h-313v-114h334v-150h-504v669zM327 831q0 41 28 68.5t69 27.5t69 -27.5t28 -68.5t-28 -69q-28 -29 -69 -29t-69 28.5t-28 69.5zM127 899q28 28 69 28q40 0 68 -27.5t28 -68.5t-28 -69.5t-68 -28.5q-41 0 -69.5 28.5t-28.5 69.5
q0 40 29 68z" />
    <glyph glyph-name="Igrave" unicode="&#xcc;" horiz-adv-x="305" 
d="M184 909l57 -183h-176l-76 183h195zM65 0v669h175v-669h-175z" />
    <glyph glyph-name="Iacute" unicode="&#xcd;" horiz-adv-x="304" 
d="M241 726h-176l57 183h195zM64 0v669h176v-669h-176z" />
    <glyph glyph-name="Icircumflex" unicode="&#xce;" horiz-adv-x="305" 
d="M65 669h175v-669h-175v669zM66 917h174l138 -190h-166l-58 89l-60 -89h-167z" />
    <glyph glyph-name="Idieresis" unicode="&#xcf;" horiz-adv-x="305" 
d="M240 669v-669h-175v669h175zM-58 831q0 40 28 68t69 28t69.5 -28t28.5 -68q0 -41 -28 -69q-29 -29 -70 -29t-69 28.5t-28 69.5zM199 899q28 28 69 28t69 -28t28 -68q0 -41 -28 -69q-28 -29 -69 -29t-69 28.5t-28 69.5q0 40 28 68z" />
    <glyph glyph-name="Eth" unicode="&#xd0;" horiz-adv-x="737" 
d="M18 280v111h72v278h269q162 0 253 -91.5t91 -244.5q0 -152 -88 -242.5t-246 -90.5h-279v280h-72zM264 160h120q63 0 102.5 49t39.5 128q0 77 -39.5 124.5t-104.5 47.5h-118v-118h130v-111h-130v-120z" />
    <glyph glyph-name="Ntilde" unicode="&#xd1;" horiz-adv-x="742" 
d="M228 669l283 -400v400h166v-669h-160l-287 398v-398h-166v669h164zM144 765q0 63 33.5 104t100.5 41q30 0 54.5 -9.5t37.5 -21t29.5 -21t32.5 -9.5q23 0 37.5 15.5t14.5 40.5h121q1 -9 1 -17q0 -59 -33 -105t-103 -46q-36 0 -64.5 15.5t-50 31.5t-40.5 16
q-23 0 -36 -15.5t-13 -38.5v-4h-121q-1 8 -1 23z" />
    <glyph glyph-name="Ograve" unicode="&#xd2;" horiz-adv-x="764" 
d="M32 334q0 149 99 248t250 99t250.5 -99t99.5 -248t-99 -247q-100 -99 -251 -99t-250 98.5t-99 247.5zM201 334q0 -79 52 -132.5t128 -53.5q77 0 129 53.5t52 132.5t-52 132.5t-129 53.5q-76 0 -128 -53.5t-52 -132.5zM217 907h194l58 -184h-176z" />
    <glyph glyph-name="Oacute" unicode="&#xd3;" horiz-adv-x="764" 
d="M32 334q0 149 99 248t250 99t250.5 -99t99.5 -248t-99 -247q-100 -99 -251 -99t-250 98.5t-99 247.5zM201 334q0 -79 52 -132.5t128 -53.5q77 0 129 53.5t52 132.5t-52 132.5t-129 53.5q-76 0 -128 -53.5t-52 -132.5zM294 723l57 184h194l-76 -184h-175z" />
    <glyph glyph-name="Ocircumflex" unicode="&#xd4;" horiz-adv-x="764" 
d="M32 334q0 149 99 248t250 99t250.5 -99t99.5 -248t-99 -247q-100 -99 -251 -99t-250 98.5t-99 247.5zM253 202q52 -54 128 -54q77 0 129 53.5t52 132.5t-52 132.5t-129 53.5q-76 0 -128 -53.5t-52 -132.5t52 -132zM155 725l139 190h175l137 -190h-166l-59 89l-59 -89
h-167z" />
    <glyph glyph-name="Otilde" unicode="&#xd5;" horiz-adv-x="764" 
d="M32 334q0 149 99 248t250 99t250.5 -99t99.5 -248t-99 -247q-100 -99 -251 -99t-250 98.5t-99 247.5zM253 202q52 -54 128 -54q77 0 129 53.5t52 132.5t-52 132.5t-129 53.5q-76 0 -128 -53.5t-52 -132.5t52 -132zM191 868q33 40 100 40q30 0 55 -9.5t38 -21t29.5 -21
t32.5 -9.5q23 0 37 15.5t14 38.5v3h122q1 -9 1 -17q0 -60 -33 -105.5t-103 -45.5q-36 0 -64.5 15.5t-50.5 31t-41 15.5q-22 0 -35.5 -16t-13.5 -42h-120q-1 8 -1 23q0 64 33 105z" />
    <glyph glyph-name="Odieresis" unicode="&#xd6;" horiz-adv-x="764" 
d="M32 334q0 149 99 248t250 99t250.5 -99t99.5 -248t-99 -247q-100 -99 -251 -99t-250 98.5t-99 247.5zM201 334q0 -79 52 -132.5t128 -53.5q77 0 129 53.5t52 132.5t-52 132.5t-129 53.5q-76 0 -128 -53.5t-52 -132.5zM170 828q0 41 28.5 69t69.5 28t68.5 -28t27.5 -69
t-28 -69.5t-68 -28.5q-41 0 -69.5 28.5t-28.5 69.5zM399 828q0 41 28 69t69 28t68.5 -28t27.5 -69t-28 -69.5t-68 -28.5q-41 0 -69 28.5t-28 69.5z" />
    <glyph glyph-name="multiply" unicode="&#xd7;" horiz-adv-x="531" 
d="M366 324l128 -125l-101 -102l-127 127l-127 -127l-100 101l126 126l-126 125l100 98l126 -123l125 125l101 -100z" />
    <glyph glyph-name="Oslash" unicode="&#xd8;" horiz-adv-x="759" 
d="M685 688l-69 -95q111 -100 111 -259q0 -149 -98.5 -247t-248.5 -98q-92 0 -168 39l-72 -99l-71 56l69 95q-106 100 -106 254q0 149 99 247.5t249 98.5q91 0 167 -39l71 97zM380 528q-81 0 -134.5 -56t-53.5 -138q0 -72 43 -125l220 304q-33 15 -75 15zM380 141
q80 0 133.5 55.5t53.5 137.5q0 75 -46 129l-219 -306q38 -16 78 -16z" />
    <glyph glyph-name="Ugrave" unicode="&#xd9;" horiz-adv-x="707" 
d="M232 669v-389q0 -53 32.5 -87.5t88.5 -34.5q55 0 88.5 35t33.5 87v389h175v-402q0 -124 -83 -201t-214 -77q-130 0 -213 77t-83 201v402h175zM383 909l57 -183h-176l-75 183h194z" />
    <glyph glyph-name="Uacute" unicode="&#xda;" horiz-adv-x="707" 
d="M57 267v402h175v-389q0 -53 32.5 -87.5t88.5 -34.5q55 0 88.5 35t33.5 87v389h175v-402q0 -124 -83 -201t-214 -77q-130 0 -213 77t-83 201zM265 726l57 183h195l-76 -183h-176z" />
    <glyph glyph-name="Ucircumflex" unicode="&#xdb;" horiz-adv-x="707" 
d="M232 669v-389q0 -53 32.5 -87.5t88.5 -34.5q55 0 88.5 35t33.5 87v389h175v-402q0 -124 -83 -201t-214 -77q-130 0 -213 77t-83 201v402h175zM266 917h175l137 -190h-166l-59 89l-59 -89h-167z" />
    <glyph glyph-name="Udieresis" unicode="&#xdc;" horiz-adv-x="707" 
d="M232 669v-389q0 -53 32.5 -87.5t88.5 -34.5q55 0 88.5 35t33.5 87v389h175v-402q0 -124 -83 -201t-214 -77q-130 0 -213 77t-83 201v402h175zM142 831q0 40 28 68t69 28t69 -28t28 -68q0 -41 -28 -69q-28 -29 -69 -29t-69 28.5t-28 69.5zM370 831q0 40 28.5 68t69.5 28
q40 0 68 -27.5t28 -68.5t-28 -69.5t-68 -28.5q-41 0 -69.5 28.5t-28.5 69.5z" />
    <glyph glyph-name="Yacute" unicode="&#xdd;" horiz-adv-x="667" 
d="M203 669l129 -287l135 287h203l-250 -470v-199h-175v199l-244 470h202zM247 726l57 183h195l-76 -183h-176z" />
    <glyph glyph-name="Thorn" unicode="&#xde;" horiz-adv-x="661" 
d="M238 587h142q110 0 181 -68.5t71 -178.5q0 -113 -72 -181.5t-192 -68.5h-130v-90h-174v669h174v-82zM238 239h113q46 0 75 28t29 72q0 43 -28 71t-72 28h-117v-199z" />
    <glyph glyph-name="germandbls" unicode="&#xdf;" horiz-adv-x="652" 
d="M517 364q49 -22 77 -66t28 -103q0 -90 -63 -148.5t-159 -58.5q-70 0 -122 18v145q40 -15 90 -15q42 0 66 21t24 55t-24 55t-62 21h-85v121h61q40 0 64.5 22.5t24.5 57.5q0 37 -26.5 58.5t-68.5 21.5q-54 0 -87 -36t-33 -105v-601h-168v610q0 133 78.5 205.5t208.5 72.5
q116 0 186.5 -55t70.5 -145q0 -101 -81 -151z" />
    <glyph glyph-name="agrave" unicode="&#xe0;" horiz-adv-x="641" 
d="M30 256q0 117 70 192t178 75q93 0 153 -67v55h155v-511h-155v54q-61 -66 -155 -66q-107 0 -176.5 75.5t-69.5 192.5zM228 169q33 -35 84 -35q50 0 84 35.5t34 87.5q0 50 -34 85t-83 35q-51 0 -85 -34.5t-34 -86.5q0 -53 34 -87zM361 745l47 -166h-163l-72 166h188z" />
    <glyph glyph-name="aacute" unicode="&#xe1;" horiz-adv-x="641" 
d="M30 256q0 117 70 192t178 75q93 0 153 -67v55h155v-511h-155v54q-61 -66 -155 -66q-107 0 -176.5 75.5t-69.5 192.5zM228 169q33 -35 84 -35q50 0 84 35.5t34 87.5q0 50 -34 85t-83 35q-51 0 -85 -34.5t-34 -86.5q0 -53 34 -87zM295 744h189l-73 -166h-162z" />
    <glyph glyph-name="acircumflex" unicode="&#xe2;" horiz-adv-x="641" 
d="M30 256q0 117 70 192t178 75q93 0 153 -67v55h155v-511h-155v54q-61 -66 -155 -66q-107 0 -176.5 75.5t-69.5 192.5zM228 169q33 -35 84 -35q50 0 84 35.5t34 87.5q0 50 -34 85t-83 35q-51 0 -85 -34.5t-34 -86.5q0 -53 34 -87zM249 746h155l122 -170h-147l-52 81
l-54 -81h-147z" />
    <glyph glyph-name="atilde" unicode="&#xe3;" horiz-adv-x="641" 
d="M30 256q0 117 70 192t178 75q93 0 153 -67v55h155v-511h-155v54q-61 -66 -155 -66q-107 0 -176.5 75.5t-69.5 192.5zM121 603q0 64 33 104.5t101 40.5q37 0 60.5 -15t39.5 -29.5t34 -14.5q40 0 40 51v3h121q1 -9 1 -18q0 -59 -32.5 -104t-102.5 -45q-35 0 -59.5 15.5
t-42.5 31t-37 15.5q-34 0 -34 -53v-3h-121q-1 7 -1 21zM194 256q0 -53 33.5 -87.5t84.5 -34.5q50 0 84 35.5t34 87.5q0 50 -34 85t-83 35q-51 0 -85 -34.5t-34 -86.5z" />
    <glyph glyph-name="adieresis" unicode="&#xe4;" horiz-adv-x="641" 
d="M30 256q0 117 70 192t178 75q93 0 153 -67v55h155v-511h-155v54q-61 -66 -155 -66q-107 0 -176.5 75.5t-69.5 192.5zM228 169q33 -35 84 -35q50 0 84 35.5t34 87.5q0 50 -34 85t-83 35q-51 0 -85 -34.5t-34 -86.5q0 -53 34 -87zM127 652q0 38 27 64.5t65 26.5
q39 0 66 -26.5t27 -64.5q0 -39 -27 -66t-66 -27q-38 0 -65 27t-27 66zM371 717q27 26 65 26q39 0 65.5 -26.5t26.5 -64.5q0 -39 -26.5 -66t-65.5 -27q-38 0 -65 27t-27 66q0 38 27 65z" />
    <glyph glyph-name="aring" unicode="&#xe5;" horiz-adv-x="641" 
d="M100 448q70 75 178 75q93 0 153 -67v55h155v-511h-155v54q-61 -66 -155 -66q-107 0 -176.5 75.5t-69.5 192.5t70 192zM191 688q0 52 38 86.5t96 34.5q59 0 97 -34.5t38 -86.5q0 -51 -38 -85q-39 -35 -97 -35t-96 34.5t-38 85.5zM194 256q0 -53 33.5 -87.5t84.5 -34.5
q50 0 84 35.5t34 87.5q0 50 -34 85t-83 35q-51 0 -85 -34.5t-34 -86.5zM273 688q0 -22 15 -37t37 -15q23 0 38.5 15t15.5 37t-15.5 37t-38.5 15q-22 0 -37 -15t-15 -37z" />
    <glyph glyph-name="ae" unicode="&#xe6;" horiz-adv-x="923" 
d="M893 276q0 -21 -2 -55l-365 -1q5 -47 34.5 -75.5t77.5 -28.5q70 0 101 61l132 -53q-25 -64 -86.5 -99.5t-147.5 -35.5q-128 0 -195 83q-73 -84 -209 -84q-96 0 -151.5 45.5t-55.5 121.5q0 71 52.5 111t149.5 40h132q-1 43 -26.5 66t-98.5 23q-87 0 -167 -31v122
q81 37 193 37q133 0 192 -74q72 74 187 74q110 0 181.5 -69.5t71.5 -177.5zM635 399q-41 0 -69 -25t-37 -66h211q-8 41 -36 66t-69 25zM254 107q46 0 75 27.5t31 78.5h-106q-76 0 -76 -50q0 -27 21 -41.5t55 -14.5z" />
    <glyph glyph-name="ccedilla" unicode="&#xe7;" horiz-adv-x="589" 
d="M30 254q0 120 78 194.5t204 74.5q100 0 170.5 -48.5t89.5 -136.5l-153 -42q-9 36 -39 58.5t-69 22.5q-52 0 -84.5 -34t-32.5 -88q0 -53 33 -87t85 -34q37 0 68 22.5t42 57.5l146 -61q-21 -63 -77.5 -107.5t-137.5 -54.5l-12 -36q44 -4 69.5 -28t25.5 -60q0 -45 -39.5 -75
t-103.5 -30q-61 0 -106 15l1 85q48 -12 79 -12q49 0 49 29t-44 29h-49l-8 10l27 76q-97 19 -154.5 89t-57.5 171z" />
    <glyph glyph-name="egrave" unicode="&#xe8;" horiz-adv-x="604" 
d="M107 448q76 75 200 75q120 0 194 -70t74 -183q0 -30 -3 -53h-386q7 -46 40 -73.5t80 -27.5q80 0 111 61l134 -54q-24 -62 -90 -98.5t-153 -36.5q-125 0 -201.5 74t-76.5 192q0 119 77 194zM343 745l47 -165h-163l-72 165h188zM188 307h230q-8 41 -38.5 66.5t-74.5 25.5
q-43 0 -75 -25t-42 -67z" />
    <glyph glyph-name="eacute" unicode="&#xe9;" horiz-adv-x="604" 
d="M30 254q0 119 76.5 194t200.5 75q120 0 194 -70t74 -183q0 -30 -3 -53h-386q7 -46 40 -73.5t80 -27.5q80 0 111 61l134 -54q-24 -62 -90 -98.5t-153 -36.5q-125 0 -201.5 74t-76.5 192zM277 745h188l-72 -166h-163zM188 307h230q-8 41 -38.5 66.5t-74.5 25.5
q-43 0 -75 -25t-42 -67z" />
    <glyph glyph-name="ecircumflex" unicode="&#xea;" horiz-adv-x="604" 
d="M30 254q0 119 76.5 194t200.5 75q120 0 194 -70t74 -183q0 -30 -3 -53h-386q7 -46 40 -73.5t80 -27.5q80 0 111 61l134 -54q-24 -62 -90 -98.5t-153 -36.5q-125 0 -201.5 74t-76.5 192zM108 577l123 170h155l123 -170h-148l-52 81l-54 -81h-147zM188 307h230
q-8 41 -38.5 66.5t-74.5 25.5q-43 0 -75 -25t-42 -67z" />
    <glyph glyph-name="edieresis" unicode="&#xeb;" horiz-adv-x="604" 
d="M107 448q76 75 200 75q120 0 194 -70t74 -183q0 -30 -3 -53h-386q7 -46 40 -73.5t80 -27.5q80 0 111 61l134 -54q-24 -62 -90 -98.5t-153 -36.5q-125 0 -201.5 74t-76.5 192q0 119 77 194zM326 653q0 38 26.5 64.5t65.5 26.5t65.5 -26.5t26.5 -64.5q0 -40 -26 -66
q-27 -27 -66 -27t-65.5 26.5t-26.5 66.5zM110 653q0 38 26 64.5t65 26.5t65.5 -26.5t26.5 -64.5q0 -40 -26 -66q-27 -27 -66 -27t-65 26.5t-26 66.5zM188 307h230q-8 41 -38.5 66.5t-74.5 25.5q-43 0 -75 -25t-42 -67z" />
    <glyph glyph-name="igrave" unicode="&#xec;" horiz-adv-x="280" 
d="M173 745l46 -166h-161l-73 166h188zM225 0h-170v511h170v-511z" />
    <glyph glyph-name="iacute" unicode="&#xed;" horiz-adv-x="280" 
d="M222 578h-162l48 166h187zM224 0h-169v511h169v-511z" />
    <glyph glyph-name="icircumflex" unicode="&#xee;" horiz-adv-x="280" 
d="M55 511h170v-511h-170v511zM61 746h154l123 -170h-146l-53 81l-54 -81h-146z" />
    <glyph glyph-name="idieresis" unicode="&#xef;" horiz-adv-x="280" 
d="M55 511h169v-511h-169v511zM-61 652q0 38 26.5 64.5t65.5 26.5t66 -26.5t27 -64.5q0 -39 -27 -66t-66 -27t-65.5 27t-26.5 66zM183 717q26 26 66 26q38 0 64.5 -26.5t26.5 -64.5q0 -39 -26.5 -66t-64.5 -27q-40 0 -66.5 27t-26.5 66q0 38 27 65z" />
    <glyph glyph-name="eth" unicode="&#xf0;" horiz-adv-x="636" 
d="M494 731l-75 -54q181 -121 181 -372q0 -141 -81 -229t-209 -88q-124 0 -202 72.5t-78 186.5q0 108 70.5 177t181.5 69q82 0 136 -43q-29 79 -134 130l-99 -71l-33 46l71 51q-54 18 -113 28l45 132q119 -14 210 -58l96 69zM315 137q50 0 83.5 34t33.5 84q0 49 -33.5 81.5
t-83.5 32.5t-83.5 -33t-33.5 -83t33.5 -83t83.5 -33z" />
    <glyph glyph-name="ntilde" unicode="&#xf1;" horiz-adv-x="610" 
d="M55 0v511h161v-50q58 61 145 61q89 0 144 -55t55 -144v-323h-168v288q0 39 -22 63.5t-57 24.5q-38 0 -63.5 -29t-25.5 -75v-272h-169zM120 702q32 46 105 46q37 0 60.5 -15t39.5 -29.5t34 -14.5q41 0 41 54h120q1 -9 1 -18q0 -59 -32.5 -104t-102.5 -45q-35 0 -59.5 15.5
t-42 31t-36.5 15.5q-35 0 -35 -53v-3h-121q-1 10 -1 19q0 60 29 101z" />
    <glyph glyph-name="ograve" unicode="&#xf2;" horiz-adv-x="617" 
d="M108 447q78 76 201 76t201 -76.5t78 -192.5q0 -117 -79 -191.5t-200 -74.5q-122 0 -201 75.5t-79 190.5q0 116 79 193zM189 256q0 -53 34.5 -87.5t85.5 -34.5q52 0 86 34.5t34 87.5q0 51 -34 86t-85 35t-86 -35t-35 -86zM153 745h189l46 -166h-162z" />
    <glyph glyph-name="oacute" unicode="&#xf3;" horiz-adv-x="617" 
d="M108 447q78 76 201 76t201 -76.5t78 -192.5q0 -117 -79 -191.5t-200 -74.5q-122 0 -201 75.5t-79 190.5q0 116 79 193zM189 256q0 -53 34.5 -87.5t85.5 -34.5q52 0 86 34.5t34 87.5q0 51 -34 86t-85 35t-86 -35t-35 -86zM229 578l47 166h188l-73 -166h-162z" />
    <glyph glyph-name="ocircumflex" unicode="&#xf4;" horiz-adv-x="617" 
d="M108 447q78 76 201 76t201 -76.5t78 -192.5q0 -117 -79 -191.5t-200 -74.5q-122 0 -201 75.5t-79 190.5q0 116 79 193zM224 169q34 -35 85 -35q52 0 86 34.5t34 87.5q0 51 -34 86t-85 35t-86 -35t-35 -86q0 -53 35 -87zM230 746h154l123 -170h-147l-53 81l-54 -81h-146z
" />
    <glyph glyph-name="otilde" unicode="&#xf5;" horiz-adv-x="617" 
d="M108 447q78 76 201 76t201 -76.5t78 -192.5q0 -117 -79 -191.5t-200 -74.5q-122 0 -201 75.5t-79 190.5q0 116 79 193zM102 603q0 65 33 105t101 40q37 0 60.5 -15t39.5 -29.5t34 -14.5q40 0 40 51v3h121q1 -9 1 -17q0 -60 -33 -105t-102 -45q-35 0 -60 15.5t-42.5 31
t-36.5 15.5q-35 0 -35 -56h-120q-1 7 -1 21zM224 169q34 -35 85 -35q52 0 86 34.5t34 87.5q0 51 -34 86t-85 35t-86 -35t-35 -86q0 -53 35 -87z" />
    <glyph glyph-name="odieresis" unicode="&#xf6;" horiz-adv-x="617" 
d="M29 254q0 116 78.5 192.5t201.5 76.5t201 -76.5t78 -192.5q0 -117 -79 -191.5t-200 -74.5q-122 0 -201 75.5t-79 190.5zM189 256q0 -53 34.5 -87.5t85.5 -34.5q52 0 86 34.5t34 87.5q0 51 -34 86t-85 35t-86 -35t-35 -86zM352 717q27 26 65 26q39 0 65.5 -26.5
t26.5 -64.5q0 -39 -26.5 -66t-65.5 -27q-38 0 -65.5 27t-27.5 66q0 38 28 65zM108 652q0 38 27 64.5t65 26.5t65.5 -26.5t27.5 -64.5q0 -39 -27 -66q-28 -27 -66 -27t-65 27t-27 66z" />
    <glyph glyph-name="divide" unicode="&#xf7;" horiz-adv-x="511" 
d="M254 433q-38 0 -63 25.5t-25 62.5t25 62t63 25t63.5 -25t25.5 -62t-25.5 -62.5t-63.5 -25.5zM475 252h-439v142h439v-142zM254 38q-38 0 -63 25.5t-25 63.5q0 37 25 62t63 25t63.5 -25t25.5 -62q0 -38 -25.5 -63.5t-63.5 -25.5z" />
    <glyph glyph-name="oslash" unicode="&#xf8;" horiz-adv-x="621" 
d="M561 542l-61 -84q92 -76 92 -205q0 -115 -79 -190t-202 -75q-74 0 -134 29l-63 -84l-57 37l62 84q-90 76 -90 199q0 117 79.5 193.5t202.5 76.5q70 0 130 -27l63 84zM312 387q-57 0 -95 -38t-38 -94q0 -48 28 -82l150 206q-22 8 -45 8zM312 125q56 0 94 37t38 93
q0 51 -32 88l-151 -209q24 -9 51 -9z" />
    <glyph glyph-name="ugrave" unicode="&#xf9;" horiz-adv-x="609" 
d="M217 511v-288q0 -40 22 -64t57 -24q38 0 64 28t26 74v274h168v-511h-160v54q-59 -65 -153 -65q-89 0 -140.5 59t-51.5 165v298h168zM147 745h188l46 -166h-162z" />
    <glyph glyph-name="uacute" unicode="&#xfa;" horiz-adv-x="609" 
d="M49 511h168v-288q0 -40 22 -64t57 -24q38 0 64 28t26 74v274h168v-511h-160v54q-59 -65 -153 -65q-89 0 -140.5 59t-51.5 165v298zM269 744h188l-73 -166h-162z" />
    <glyph glyph-name="ucircumflex" unicode="&#xfb;" horiz-adv-x="609" 
d="M49 511h168v-288q0 -40 22 -64t57 -24q38 0 64 28t26 74v274h168v-511h-160v54q-59 -65 -153 -65q-89 0 -140.5 59t-51.5 165v298zM223 746h154l123 -170h-147l-53 81l-53 -81h-148z" />
    <glyph glyph-name="udieresis" unicode="&#xfc;" horiz-adv-x="609" 
d="M49 511h168v-288q0 -40 22 -64t57 -24q38 0 64 28t26 74v274h168v-511h-160v54q-59 -65 -153 -65q-89 0 -140.5 59t-51.5 165v298zM128 717q26 26 64 26q40 0 66.5 -26.5t26.5 -64.5q0 -39 -26.5 -66t-66.5 -27q-38 0 -64.5 27t-26.5 66q0 38 27 65zM345 717q26 26 64 26
q39 0 65.5 -26.5t26.5 -64.5q0 -39 -26.5 -66t-65.5 -27q-38 0 -64.5 27t-26.5 66q0 38 27 65z" />
    <glyph glyph-name="yacute" unicode="&#xfd;" horiz-adv-x="600" 
d="M-1 512h173l134 -361l117 361h172l-171 -479q-16 -45 -27.5 -72.5t-35.5 -66t-50.5 -60t-69.5 -38t-96 -16.5q-60 0 -126 25v146q54 -27 108 -27q74 0 101 44zM264 745h187l-72 -166h-163z" />
    <glyph glyph-name="thorn" unicode="&#xfe;" horiz-adv-x="645" 
d="M372 520q104 0 173.5 -76t69.5 -191q0 -114 -70 -189.5t-174 -75.5q-90 0 -151 58v-247h-165v909h165v-248q63 60 152 60zM334 131q50 0 83.5 35t33.5 87t-33.5 86.5t-83.5 34.5t-84 -34.5t-34 -86.5t34 -87t84 -35z" />
    <glyph glyph-name="ydieresis" unicode="&#xff;" horiz-adv-x="600" 
d="M172 512l134 -361l117 361h172l-171 -479q-16 -45 -27.5 -72.5t-35.5 -66t-50.5 -60t-69.5 -38t-96 -16.5q-60 0 -126 25v146q54 -27 108 -27q74 0 101 44l-229 544h173zM339 718q27 26 65 26q39 0 65.5 -26.5t26.5 -64.5q0 -40 -26.5 -67t-65.5 -27q-38 0 -65 27t-27 67
q0 38 27 65zM96 653q0 38 26.5 64.5t64.5 26.5q39 0 66 -26.5t27 -64.5q0 -40 -27 -67t-66 -27q-38 0 -64.5 27t-26.5 67z" />
    <glyph glyph-name="Amacron" unicode="&#x100;" horiz-adv-x="688" 
d="M3 0l237 669h211l232 -669h-184l-34 114h-241l-35 -114h-186zM536 879v-124h-384v124h384zM266 259h160l-80 263z" />
    <glyph glyph-name="amacron" unicode="&#x101;" horiz-adv-x="641" 
d="M30 256q0 117 70 192t178 75q93 0 153 -67v55h155v-511h-155v54q-61 -66 -155 -66q-107 0 -176.5 75.5t-69.5 192.5zM228 169q33 -35 84 -35q50 0 84 35.5t34 87.5q0 50 -34 85t-83 35q-51 0 -85 -34.5t-34 -86.5q0 -53 34 -87zM153 601v113h351v-113h-351z" />
    <glyph glyph-name="Abreve" unicode="&#x102;" horiz-adv-x="688" 
d="M240 669h211l232 -669h-184l-34 114h-241l-35 -114h-186zM266 915q0 -35 21.5 -57t55.5 -22t55.5 22t21.5 57h139q-2 -89 -60.5 -138.5t-155.5 -49.5q-96 0 -155 49.5t-61 138.5h139zM426 259l-80 263l-80 -263h160z" />
    <glyph glyph-name="abreve" unicode="&#x103;" horiz-adv-x="641" 
d="M100 448q70 75 178 75q93 0 153 -67v55h155v-511h-155v54q-61 -66 -155 -66q-107 0 -176.5 75.5t-69.5 192.5t70 192zM194 256q0 -53 33.5 -87.5t84.5 -34.5q50 0 84 35.5t34 87.5q0 50 -34 85t-83 35q-51 0 -85 -34.5t-34 -86.5zM129 745h126q1 -36 20 -57.5t51 -21.5
q33 0 51.5 21.5t18.5 57.5h126q-1 -82 -54.5 -126.5t-141.5 -44.5q-89 0 -142 44.5t-55 126.5z" />
    <glyph glyph-name="Aogonek" unicode="&#x104;" horiz-adv-x="688" 
d="M618 -109q20 0 63 13l1 -109q-44 -21 -99 -21q-62 0 -96 29.5t-34 77.5q0 29 20.5 62t60.5 57h-35l-34 114h-241l-35 -114h-186l237 669h211l232 -669q-100 -35 -100 -78q0 -31 35 -31zM266 259h160l-80 263z" />
    <glyph glyph-name="aogonek" unicode="&#x105;" horiz-adv-x="641" 
d="M30 256q0 117 70 192t178 75q93 0 153 -67v55h155v-511q-101 -36 -101 -78q0 -12 8.5 -21.5t27.5 -9.5q20 0 63 13l1 -109q-44 -21 -100 -21q-61 0 -95 29.5t-34 77.5q0 29 20 62t61 57h-6v54q-61 -66 -155 -66q-107 0 -176.5 75.5t-69.5 192.5zM228 169q33 -35 84 -35
q50 0 84 35.5t34 87.5q0 50 -34 85t-83 35q-51 0 -85 -34.5t-34 -86.5q0 -53 34 -87z" />
    <glyph glyph-name="Cacute" unicode="&#x106;" horiz-adv-x="712" 
d="M131 582q98 99 250 99q107 0 191.5 -52t121.5 -140l-151 -77q-21 49 -65 78.5t-100 29.5q-76 0 -126.5 -53t-50.5 -133q0 -79 51 -132.5t127 -53.5q56 0 101 30t65 81l155 -71q-37 -91 -123 -145.5t-196 -54.5q-151 0 -250 98.5t-99 247.5t99 248zM346 909h194l-75 -183
h-176z" />
    <glyph glyph-name="cacute" unicode="&#x107;" horiz-adv-x="589" 
d="M108 449q78 74 204 74q100 0 170.5 -48.5t89.5 -136.5l-153 -42q-9 36 -39 58.5t-69 22.5q-52 0 -84.5 -34t-32.5 -88q0 -53 33 -87t85 -34q37 0 68 22.5t42 57.5l146 -61q-24 -73 -93 -119t-168 -46q-124 0 -200.5 73.5t-76.5 192.5q0 120 78 195zM279 744h188l-72 -166
h-162z" />
    <glyph glyph-name="Ccircumflex" unicode="&#x108;" horiz-adv-x="712" 
d="M131 582q98 99 250 99q107 0 191.5 -52t121.5 -140l-151 -77q-21 49 -65 78.5t-100 29.5q-76 0 -126.5 -53t-50.5 -133q0 -79 51 -132.5t127 -53.5q56 0 101 30t65 81l155 -71q-37 -91 -123 -145.5t-196 -54.5q-151 0 -250 98.5t-99 247.5t99 248zM289 917h174l138 -190
h-166l-59 89l-60 -89h-166z" />
    <glyph glyph-name="ccircumflex" unicode="&#x109;" horiz-adv-x="589" 
d="M108 449q78 74 204 74q100 0 170.5 -48.5t89.5 -136.5l-153 -42q-9 36 -39 58.5t-69 22.5q-52 0 -84.5 -34t-32.5 -88q0 -53 33 -87t85 -34q37 0 68 22.5t42 57.5l146 -61q-24 -73 -93 -119t-168 -46q-124 0 -200.5 73.5t-76.5 192.5q0 120 78 195zM233 746h155l123 -170
h-147l-53 81l-55 -81h-146z" />
    <glyph glyph-name="Cdotaccent" unicode="&#x10a;" horiz-adv-x="712" 
d="M32 334q0 149 98.5 248t250.5 99q107 0 191.5 -52t121.5 -140l-151 -77q-21 49 -65 78.5t-100 29.5q-76 0 -126.5 -53t-50.5 -133q0 -79 51 -132.5t127 -53.5q56 0 101 30t65 81l155 -71q-37 -91 -123 -145.5t-196 -54.5q-151 0 -250 98.5t-99 247.5zM311 888
q27 27 66 27q40 0 67 -27t27 -66t-27 -65.5t-67 -26.5q-39 0 -66.5 26.5t-27.5 65.5t28 66z" />
    <glyph glyph-name="cdotaccent" unicode="&#x10b;" horiz-adv-x="589" 
d="M30 254q0 120 78 194.5t204 74.5q100 0 170.5 -48.5t89.5 -136.5l-153 -42q-9 36 -39 58.5t-69 22.5q-52 0 -84.5 -34t-32.5 -88q0 -53 33 -87t85 -34q37 0 68 22.5t42 57.5l146 -61q-24 -73 -93 -119t-168 -46q-124 0 -200.5 73.5t-76.5 192.5zM218 655q0 38 27.5 65
t66.5 27t66 -27t27 -65q0 -40 -27 -66q-27 -27 -66 -27t-66.5 27t-27.5 66z" />
    <glyph glyph-name="Ccaron" unicode="&#x10c;" horiz-adv-x="712" 
d="M131 582q98 99 250 99q107 0 191.5 -52t121.5 -140l-151 -77q-21 49 -65 78.5t-100 29.5q-76 0 -126.5 -53t-50.5 -133q0 -79 51 -132.5t127 -53.5q56 0 101 30t65 81l155 -71q-37 -91 -123 -145.5t-196 -54.5q-151 0 -250 98.5t-99 247.5t99 248zM318 917l59 -89l59 89
h166l-137 -190h-176l-137 190h166z" />
    <glyph glyph-name="ccaron" unicode="&#x10d;" horiz-adv-x="589" 
d="M108 449q78 74 204 74q100 0 170.5 -48.5t89.5 -136.5l-153 -42q-9 36 -39 58.5t-69 22.5q-52 0 -84.5 -34t-32.5 -88q0 -53 33 -87t85 -34q37 0 68 22.5t42 57.5l146 -61q-24 -73 -93 -119t-168 -46q-124 0 -200.5 73.5t-76.5 192.5q0 120 78 195zM258 744l54 -80l52 80
h148l-123 -169h-154l-123 169h146z" />
    <glyph glyph-name="Dcaron" unicode="&#x10e;" horiz-adv-x="712" 
d="M334 669q162 0 252.5 -91.5t90.5 -244.5q0 -152 -88 -242.5t-246 -90.5h-279v669h270zM238 509v-349h120q63 0 103 49t40 128q0 77 -40 124.5t-105 47.5h-118zM108 917h167l59 -89l59 89h166l-138 -190h-175z" />
    <glyph glyph-name="dcaron" unicode="&#x10f;" horiz-adv-x="667" 
d="M30 255q0 114 70.5 190t176.5 76q87 0 149 -60v246h164v-707h-161v52q-64 -64 -157 -64q-103 0 -172.5 76.5t-69.5 190.5zM227 168q33 -34 83 -34q51 0 85 34t34 86t-34 86.5t-84 34.5t-83.5 -34.5t-33.5 -86.5t33 -86zM630 554l23 196h166l-42 -196h-147z" />
    <glyph glyph-name="Dcroat" unicode="&#x110;" horiz-adv-x="737" 
d="M18 280v111h72v278h269q162 0 253 -91.5t91 -244.5q0 -152 -88 -242.5t-246 -90.5h-279v280h-72zM264 160h120q63 0 102.5 49t39.5 128q0 77 -39.5 124.5t-104.5 47.5h-118v-118h130v-111h-130v-120z" />
    <glyph glyph-name="dcroat" unicode="&#x111;" horiz-adv-x="644" 
d="M101 445q70 76 176 76q87 0 149 -60v97h-122v79h122v70h164v-70h63v-79h-63v-558h-161v52q-64 -64 -157 -64q-103 0 -172.5 76.5t-69.5 190.5t71 190zM194 254q0 -52 33 -86t83 -34q51 0 85 34t34 86t-34 86.5t-84 34.5t-83.5 -34.5t-33.5 -86.5z" />
    <glyph glyph-name="Emacron" unicode="&#x112;" horiz-adv-x="610" 
d="M64 0v669h493v-150h-323v-112h313v-143h-313v-114h334v-150h-504zM502 879v-124h-384v124h384z" />
    <glyph glyph-name="emacron" unicode="&#x113;" horiz-adv-x="604" 
d="M30 254q0 119 76.5 194t200.5 75q120 0 194 -70t74 -183q0 -30 -3 -53h-386q7 -46 40 -73.5t80 -27.5q80 0 111 61l134 -54q-24 -62 -90 -98.5t-153 -36.5q-125 0 -201.5 74t-76.5 192zM134 715h352v-113h-352v113zM188 307h230q-8 41 -38.5 66.5t-74.5 25.5
q-43 0 -75 -25t-42 -67z" />
    <glyph glyph-name="Ebreve" unicode="&#x114;" horiz-adv-x="610" 
d="M64 0v669h493v-150h-323v-112h313v-143h-313v-114h334v-150h-504zM232 915q0 -35 21.5 -57t55.5 -22t55.5 22t21.5 57h139q-2 -89 -60.5 -138.5t-155.5 -49.5q-96 0 -155 49.5t-61 138.5h139z" />
    <glyph glyph-name="ebreve" unicode="&#x115;" horiz-adv-x="604" 
d="M30 254q0 119 76.5 194t200.5 75q120 0 194 -70t74 -183q0 -30 -3 -53h-386q7 -46 40 -73.5t80 -27.5q80 0 111 61l134 -54q-24 -62 -90 -98.5t-153 -36.5q-125 0 -201.5 74t-76.5 192zM237 746q0 -36 19 -57.5t52 -21.5t52 21.5t19 57.5h126q-2 -82 -55 -126
q-54 -45 -142 -45t-141.5 44.5t-55.5 126.5h126zM188 307h230q-8 41 -38.5 66.5t-74.5 25.5q-43 0 -75 -25t-42 -67z" />
    <glyph glyph-name="Edotaccent" unicode="&#x116;" horiz-adv-x="610" 
d="M64 0v669h493v-150h-323v-112h313v-143h-313v-114h334v-150h-504zM244 888q27 27 66 27q40 0 67 -27t27 -66t-27 -65.5t-67 -26.5q-39 0 -66 26.5t-27 65.5t27 66z" />
    <glyph glyph-name="edotaccent" unicode="&#x117;" horiz-adv-x="604" 
d="M30 254q0 119 76.5 194t200.5 75q120 0 194 -70t74 -183q0 -30 -3 -53h-386q7 -46 40 -73.5t80 -27.5q80 0 111 61l134 -54q-24 -62 -90 -98.5t-153 -36.5q-125 0 -201.5 74t-76.5 192zM216 656q0 38 27 64.5t67 26.5q39 0 66 -26.5t27 -64.5q0 -40 -27 -66.5t-66 -26.5
q-40 0 -67 26.5t-27 66.5zM418 307q-8 41 -38.5 66.5t-74.5 25.5q-43 0 -75 -25t-42 -67h230z" />
    <glyph glyph-name="Eogonek" unicode="&#x118;" horiz-adv-x="610" 
d="M557 669v-150h-323v-112h313v-143h-313v-114h334v-150q-101 -35 -101 -78q0 -31 36 -31q19 0 62 13l1 -109q-44 -21 -99 -21q-61 0 -95 29.5t-34 77.5q0 29 20 62t60 57h-354v669h493z" />
    <glyph glyph-name="eogonek" unicode="&#x119;" horiz-adv-x="604" 
d="M30 254q0 119 76.5 194t200.5 75q120 0 194 -70t74 -183q0 -30 -3 -53h-386q7 -46 40 -73.5t80 -27.5q80 0 111 61l134 -54q-34 -88 -145 -121q-82 -33 -82 -72q0 -31 35 -31q21 0 62 13l1 -109q-44 -21 -99 -21q-61 0 -95 29.5t-34 77.5q0 58 59 103q-103 17 -163 87.5
t-60 174.5zM188 307h230q-8 41 -38.5 66.5t-74.5 25.5q-43 0 -75 -25t-42 -67z" />
    <glyph glyph-name="Ecaron" unicode="&#x11a;" horiz-adv-x="610" 
d="M64 669h493v-150h-323v-112h313v-143h-313v-114h334v-150h-504v669zM85 917h166l60 -89l58 89h166l-137 -190h-175z" />
    <glyph glyph-name="ecaron" unicode="&#x11b;" horiz-adv-x="604" 
d="M30 254q0 119 76.5 194t200.5 75q120 0 194 -70t74 -183q0 -30 -3 -53h-386q7 -46 40 -73.5t80 -27.5q80 0 111 61l134 -54q-24 -62 -90 -98.5t-153 -36.5q-125 0 -201.5 74t-76.5 192zM109 745h147l54 -80l53 80h146l-123 -169h-154zM188 307h230q-8 41 -38.5 66.5
t-74.5 25.5q-43 0 -75 -25t-42 -67z" />
    <glyph glyph-name="Gcircumflex" unicode="&#x11c;" horiz-adv-x="756" 
d="M32 335q0 151 100.5 248.5t256.5 97.5q187 0 290 -132l-132 -110q-25 40 -67 61t-89 21q-83 0 -133 -53.5t-50 -132.5q0 -81 51.5 -134.5t131.5 -53.5q65 0 109.5 35.5t44.5 83.5h-168v128h349v-70q0 -151 -95.5 -243.5t-242.5 -92.5q-156 0 -256 96.5t-100 250.5z
M302 916h174l138 -189h-166l-59 88l-59 -88h-167z" />
    <glyph glyph-name="gcircumflex" unicode="&#x11d;" horiz-adv-x="643" 
d="M31 265q0 111 69.5 184t173.5 73q93 0 156 -60v49h159v-467q0 -123 -79.5 -193t-219.5 -70q-112 0 -215 48v143q100 -52 201 -52q71 0 112 32.5t41 94.5v24q-60 -60 -156 -60q-105 0 -173.5 71.5t-68.5 182.5zM196 260q0 -50 33 -82.5t82 -32.5q50 0 83 33t33 82
q0 50 -32.5 83.5t-81.5 33.5q-51 0 -84 -33.5t-33 -83.5zM131 575l123 170h155l122 -170h-147l-52 81l-55 -81h-146z" />
    <glyph glyph-name="Gbreve" unicode="&#x11e;" horiz-adv-x="756" 
d="M32 335q0 151 100.5 248.5t256.5 97.5q187 0 290 -132l-132 -110q-25 40 -67 61t-89 21q-83 0 -133 -53.5t-50 -132.5q0 -81 51.5 -134.5t131.5 -53.5q65 0 109.5 35.5t44.5 83.5h-168v128h349v-70q0 -151 -95.5 -243.5t-242.5 -92.5q-156 0 -256 96.5t-100 250.5z
M312 914v-3q0 -32 21 -53.5t56 -21.5q34 0 55.5 22t21.5 56h138q-1 -89 -60 -138.5t-155 -49.5q-97 0 -155.5 49.5t-60.5 138.5h139z" />
    <glyph glyph-name="gbreve" unicode="&#x11f;" horiz-adv-x="643" 
d="M101 449q69 73 173 73q93 0 156 -60v49h159v-467q0 -123 -79.5 -193t-219.5 -70q-112 0 -215 48v143q100 -52 201 -52q71 0 112 32.5t41 94.5v24q-60 -60 -156 -60q-105 0 -173.5 71.5t-68.5 182.5t70 184zM134 744h126q0 -36 19 -57.5t52 -21.5t51.5 21.5t18.5 57.5h126
q-1 -82 -54.5 -126.5t-141.5 -44.5q-89 0 -142 44.5t-55 126.5zM229 178q33 -33 82 -33q50 0 83 33t33 82q0 50 -32.5 83.5t-81.5 33.5q-51 0 -84 -33.5t-33 -83.5t33 -82z" />
    <glyph glyph-name="Gdotaccent" unicode="&#x120;" horiz-adv-x="756" 
d="M32 335q0 151 100.5 248.5t256.5 97.5q187 0 290 -132l-132 -110q-25 40 -67 61t-89 21q-83 0 -133 -53.5t-50 -132.5q0 -81 51.5 -134.5t131.5 -53.5q65 0 109.5 35.5t44.5 83.5h-168v128h349v-70q0 -151 -95.5 -243.5t-242.5 -92.5q-156 0 -256 96.5t-100 250.5z
M297 822q0 39 26.5 66t65.5 27q40 0 67.5 -27t27.5 -66q0 -40 -27 -66.5t-68 -26.5q-39 0 -65.5 26.5t-26.5 66.5z" />
    <glyph glyph-name="gdotaccent" unicode="&#x121;" horiz-adv-x="643" 
d="M101 449q69 73 173 73q93 0 156 -60v49h159v-467q0 -123 -79.5 -193t-219.5 -70q-112 0 -215 48v143q100 -52 201 -52q71 0 112 32.5t41 94.5v24q-60 -60 -156 -60q-105 0 -173.5 71.5t-68.5 182.5t70 184zM229 178q33 -33 82 -33q50 0 83 33t33 82q0 50 -32.5 83.5
t-81.5 33.5q-51 0 -84 -33.5t-33 -83.5t33 -82zM238 654q0 38 27.5 65t66.5 27q40 0 67 -27t27 -65q0 -40 -27 -66.5t-67 -26.5q-39 0 -66.5 27t-27.5 66z" />
    <glyph glyph-name="uni0122" unicode="&#x122;" horiz-adv-x="756" 
d="M133 584q100 97 256 97q187 0 290 -132l-132 -110q-25 40 -67 61t-89 21q-83 0 -133 -53.5t-50 -132.5q0 -81 51.5 -134.5t131.5 -53.5q65 0 109.5 35.5t44.5 83.5h-168v128h349v-70q0 -151 -95.5 -243.5t-242.5 -92.5q-156 0 -256 96.5t-100 250.5q0 151 101 249z
M288 -46h181l-46 -185h-167z" />
    <glyph glyph-name="uni0123" unicode="&#x123;" horiz-adv-x="643" 
d="M101 449q69 73 173 73q93 0 156 -60v49h159v-467q0 -123 -79.5 -193t-219.5 -70q-112 0 -215 48v143q100 -52 201 -52q71 0 112 32.5t41 94.5v24q-60 -60 -156 -60q-105 0 -173.5 71.5t-68.5 182.5t70 184zM229 178q33 -33 82 -33q50 0 83 33t33 82q0 50 -32.5 83.5
t-81.5 33.5q-51 0 -84 -33.5t-33 -83.5t33 -82zM229 566l54 176h152l-33 -176h-173z" />
    <glyph glyph-name="Hcircumflex" unicode="&#x124;" horiz-adv-x="737" 
d="M64 669h178v-269h252v269h178v-669h-178v238h-252v-238h-178v669zM280 917h175l138 -190h-167l-59 89l-59 -89h-166z" />
    <glyph glyph-name="hcircumflex" unicode="&#x125;" horiz-adv-x="610" 
d="M55 689h169v-214q57 47 137 47q89 0 144.5 -55t55.5 -144v-323h-168v286q0 40 -22 64.5t-58 24.5q-38 0 -63.5 -29.5t-25.5 -74.5v-271h-169v689zM-86 728l138 189h175l138 -189h-167l-59 88l-59 -88h-166z" />
    <glyph glyph-name="Hbar" unicode="&#x126;" horiz-adv-x="772" 
d="M22 482v100h60v87h177v-87h253v87h178v-87h60v-100h-60v-482h-178v238h-253v-238h-177v482h-60zM259 400h253v82h-253v-82z" />
    <glyph glyph-name="hbar" unicode="&#x127;" horiz-adv-x="610" 
d="M55 640v68h169v-68h112v-79h-112v-86q57 47 137 47q89 0 144.5 -55t55.5 -144v-323h-168v286q0 40 -22 64.5t-58 24.5q-38 0 -63.5 -29.5t-25.5 -74.5v-271h-169v561h-67v79h67z" />
    <glyph glyph-name="Itilde" unicode="&#x128;" horiz-adv-x="305" 
d="M240 669v-669h-175v669h175zM-70 764q0 64 32.5 105t100.5 41q30 0 55 -9.5t38 -21t29.5 -21t32.5 -9.5q23 0 37.5 15.5t14.5 38.5v3h121q1 -9 1 -17q0 -59 -33 -105t-103 -46q-36 0 -64.5 16t-50 31.5t-40.5 15.5q-22 0 -35.5 -16t-14.5 -42h-120q-1 7 -1 21z" />
    <glyph glyph-name="itilde" unicode="&#x129;" horiz-adv-x="280" 
d="M225 511v-511h-170v511h170zM-67 603q0 64 33 104.5t101 40.5q37 0 61 -15t39.5 -29.5t33.5 -14.5q41 0 41 54h120q1 -9 1 -18q0 -59 -32.5 -104t-102.5 -45q-35 0 -59.5 15.5t-42.5 31t-37 15.5q-34 0 -34 -53v-3h-121q-1 7 -1 21z" />
    <glyph glyph-name="Imacron" unicode="&#x12a;" horiz-adv-x="305" 
d="M347 755h-384v124h384v-124zM65 0v669h176v-669h-176z" />
    <glyph glyph-name="imacron" unicode="&#x12b;" horiz-adv-x="280" 
d="M316 601h-351v113h351v-113zM225 0h-170v511h170v-511z" />
    <glyph glyph-name="Ibreve" unicode="&#x12c;" horiz-adv-x="305" 
d="M65 669h175v-669h-175v669zM76 915q0 -35 21.5 -57t55.5 -22t55.5 21.5t21.5 54.5v3h139q-2 -89 -61 -138.5t-155 -49.5q-97 0 -155.5 49.5t-60.5 138.5h139z" />
    <glyph glyph-name="ibreve" unicode="&#x12d;" horiz-adv-x="280" 
d="M55 511h170v-511h-170v511zM68 745q0 -36 18.5 -57.5t51.5 -21.5q32 0 51 21.5t20 57.5h126q-2 -82 -55 -126.5t-142 -44.5q-88 0 -141.5 44.5t-54.5 126.5h126z" />
    <glyph glyph-name="Iogonek" unicode="&#x12e;" horiz-adv-x="306" 
d="M11 -119q0 29 20.5 62t60.5 57h-26v669h175v-669q-100 -35 -100 -78q0 -31 35 -31q20 0 63 13v-109q-43 -21 -98 -21q-62 0 -96 29.5t-34 77.5z" />
    <glyph glyph-name="iogonek" unicode="&#x12f;" horiz-adv-x="281" 
d="M-4 -119q0 29 20.5 62t60.5 57h-21v511h169v-511h1q-100 -35 -100 -78q0 -31 35 -31q21 0 62 13l1 -109q-44 -21 -99 -21q-61 0 -95 29.5t-34 77.5zM70 731q29 28 71 28t70.5 -28.5t28.5 -70.5q0 -41 -28 -69q-29 -29 -71 -29t-71 28.5t-29 69.5q0 42 29 71z" />
    <glyph glyph-name="Idotaccent" unicode="&#x130;" horiz-adv-x="305" 
d="M240 669v-669h-175v669h175zM88 888q27 27 66 27q40 0 67 -27t27 -66t-27 -65.5t-67 -26.5q-39 0 -66 26.5t-27 65.5t27 66z" />
    <glyph glyph-name="dotlessi" unicode="&#x131;" horiz-adv-x="279" 
d="M224 0h-169v511h169v-511z" />
    <glyph glyph-name="IJ" unicode="&#x132;" horiz-adv-x="789" 
d="M311 167q67 -16 124 -16q120 0 120 116v402h176v-434q0 -119 -70 -182.5t-194 -63.5q-80 0 -156 23v155zM64 0v669h176v-669h-176z" />
    <glyph glyph-name="ij" unicode="&#x133;" horiz-adv-x="574" 
d="M284 -69q42 0 54 19.5t12 60.5v500h168v-550q0 -81 -52.5 -130.5t-139.5 -49.5q-57 0 -112 19v144q37 -13 70 -13zM55 511h170v-511h-170v511zM335 658q0 42 29.5 71t70.5 29t70 -29t29 -71q0 -41 -29 -69q-29 -29 -70 -29t-70.5 28.5t-29.5 69.5zM41 660q0 42 28.5 70.5
t70.5 28.5t70.5 -28.5t28.5 -70.5q0 -41 -28 -69q-29 -29 -71 -29t-70.5 28.5t-28.5 69.5z" />
    <glyph glyph-name="Jcircumflex" unicode="&#x134;" horiz-adv-x="497" 
d="M143 151q120 0 120 116v402h175v-434q0 -119 -70 -182.5t-193 -63.5q-80 0 -156 23v155q67 -16 124 -16zM267 917h175l138 -190h-167l-59 89l-59 -89h-166z" />
    <glyph glyph-name="jcircumflex" unicode="&#x135;" horiz-adv-x="292" 
d="M-2 -69q40 0 55 19.5t15 60.5v500h169v-547q0 -83 -54.5 -133t-151.5 -50q-63 0 -122 19v144q48 -13 89 -13zM-49 576l123 170h154l123 -170h-146l-53 81l-54 -81h-147z" />
    <glyph glyph-name="uni0136" unicode="&#x136;" horiz-adv-x="672" 
d="M240 669v-288l221 288h207l-264 -340l268 -329h-217l-215 270v-270h-176v669h176zM260 -48h181l-47 -185h-166z" />
    <glyph glyph-name="uni0137" unicode="&#x137;" horiz-adv-x="575" 
d="M222 701v-388l158 198h195l-197 -249l197 -262h-202l-151 204v-204h-167v701h167zM161 -233l44 181h168l-61 -181h-151z" />
    <glyph glyph-name="kgreenlandic" unicode="&#x138;" horiz-adv-x="577" 
d="M55 0v511h169v-210l160 210h193l-199 -262l200 -249h-201l-151 188l-2 1v-189h-169z" />
    <glyph glyph-name="Lacute" unicode="&#x139;" horiz-adv-x="561" 
d="M241 726h-175l57 183h194zM543 0h-479v669h176v-517h303v-152z" />
    <glyph glyph-name="lacute" unicode="&#x13a;" horiz-adv-x="282" 
d="M220 754h-160l52 184h177zM226 701v-701h-171v701h171z" />
    <glyph glyph-name="uni013B" unicode="&#x13b;" horiz-adv-x="561" 
d="M543 0h-479v669h176v-517h303v-152zM361 -231h-166l31 185h181z" />
    <glyph glyph-name="uni013C" unicode="&#x13c;" horiz-adv-x="281" 
d="M221 701v-701h-170v701h170zM160 -230h-151l44 181h169z" />
    <glyph glyph-name="Lcaron" unicode="&#x13d;" horiz-adv-x="575" 
d="M503 555h-147l24 196h165zM543 0h-479v669h176v-517h303v-152z" />
    <glyph glyph-name="lcaron" unicode="&#x13e;" horiz-adv-x="303" 
d="M408 555h-147l24 196h166zM226 701v-701h-171v701h171z" />
    <glyph glyph-name="Ldot" unicode="&#x13f;" horiz-adv-x="569" 
d="M64 669h176v-517h303v-152h-479v669zM327 399q0 40 28 67.5t68 27.5q41 0 69 -27.5t28 -67.5t-28 -68t-69 -28q-40 0 -68 28t-28 68z" />
    <glyph glyph-name="ldot" unicode="&#x140;" horiz-adv-x="448" 
d="M226 701v-701h-171v701h171zM295 414q28 27 69 27t69 -27.5t28 -67.5t-28 -68q-29 -29 -69 -29t-68.5 28.5t-28.5 68.5t28 68z" />
    <glyph glyph-name="Lslash" unicode="&#x141;" horiz-adv-x="580" 
d="M84 384v285h175v-185l85 48v-150l-85 -48v-182h304v-152h-479v234l-59 -33v149z" />
    <glyph glyph-name="lslash" unicode="&#x142;" horiz-adv-x="373" 
d="M32 330l65 46v325h170v-206l76 53v-163l-76 -54v-331h-170v211l-65 -46v165z" />
    <glyph glyph-name="Nacute" unicode="&#x143;" horiz-adv-x="742" 
d="M228 669l283 -400v400h166v-669h-160l-287 398v-398h-166v669h164zM337 909h195l-76 -184h-176z" />
    <glyph glyph-name="nacute" unicode="&#x144;" horiz-adv-x="610" 
d="M55 0v511h161v-50q58 61 145 61q89 0 144 -55t55 -144v-323h-168v288q0 39 -22 63.5t-57 24.5q-38 0 -63.5 -29t-25.5 -75v-272h-169zM266 744h187l-72 -166h-163z" />
    <glyph glyph-name="uni0145" unicode="&#x145;" horiz-adv-x="742" 
d="M228 669l283 -400v400h166v-669h-160l-287 398v-398h-166v669h164zM287 -46h181l-47 -185h-166z" />
    <glyph glyph-name="uni0146" unicode="&#x146;" horiz-adv-x="610" 
d="M216 511v-50q58 61 145 61q89 0 144 -55t55 -144v-323h-168v288q0 39 -22 63.5t-57 24.5q-38 0 -63.5 -29t-25.5 -75v-272h-169v511h161zM211 -53h169l-62 -180h-151z" />
    <glyph glyph-name="Ncaron" unicode="&#x147;" horiz-adv-x="742" 
d="M228 669l283 -400v400h166v-669h-160l-287 398v-398h-166v669h164zM309 916l60 -89l58 89h166l-137 -190h-175l-138 190h166z" />
    <glyph glyph-name="ncaron" unicode="&#x148;" horiz-adv-x="610" 
d="M55 0v511h161v-50q58 61 145 61q89 0 144 -55t55 -144v-323h-168v288q0 39 -22 63.5t-57 24.5q-38 0 -63.5 -29t-25.5 -75v-272h-169zM244 744l54 -80l53 80h147l-123 -169h-155l-123 169h147z" />
    <glyph glyph-name="Eng" unicode="&#x14a;" horiz-adv-x="742" 
d="M228 669l283 -400v400h166v-669q0 -107 -66 -163t-188 -56q-74 0 -152 20v142q65 -14 124 -14q60 0 84.5 22.5t27.5 63.5l-277 383v-398h-166v669h164z" />
    <glyph glyph-name="eng" unicode="&#x14b;" horiz-adv-x="610" 
d="M216 511v-50q58 61 145 61q89 0 144 -55t55 -144v-353q0 -85 -54.5 -137t-144.5 -52q-58 0 -115 20v144q33 -14 70 -14q46 0 61 23t15 63v271q0 39 -22 63.5t-57 24.5q-38 0 -63.5 -29t-25.5 -75v-272h-169v511h161z" />
    <glyph glyph-name="Omacron" unicode="&#x14c;" horiz-adv-x="764" 
d="M32 334q0 149 99 248t250 99t250.5 -99t99.5 -248t-99 -247q-100 -99 -251 -99t-250 98.5t-99 247.5zM201 334q0 -79 52 -132.5t128 -53.5q77 0 129 53.5t52 132.5t-52 132.5t-129 53.5q-76 0 -128 -53.5t-52 -132.5zM574 877v-124h-384v124h384z" />
    <glyph glyph-name="omacron" unicode="&#x14d;" horiz-adv-x="617" 
d="M108 447q78 76 201 76t201 -76.5t78 -192.5q0 -117 -79 -191.5t-200 -74.5q-122 0 -201 75.5t-79 190.5q0 116 79 193zM189 256q0 -53 34.5 -87.5t85.5 -34.5q52 0 86 34.5t34 87.5q0 51 -34 86t-85 35t-86 -35t-35 -86zM133 714h352v-113h-352v113z" />
    <glyph glyph-name="Obreve" unicode="&#x14e;" horiz-adv-x="764" 
d="M131 582q99 99 250 99t250.5 -99t99.5 -248t-99 -247q-100 -99 -251 -99t-250 98.5t-99 247.5t99 248zM201 334q0 -79 52 -132.5t128 -53.5q77 0 129 53.5t52 132.5t-52 132.5t-129 53.5q-76 0 -128 -53.5t-52 -132.5zM304 912v-3q0 -32 21 -53.5t56 -21.5q34 0 55 21.5
t21 53.5v3h139q-1 -89 -59 -138q-59 -49 -156 -49t-155.5 49t-60.5 138h139z" />
    <glyph glyph-name="obreve" unicode="&#x14f;" horiz-adv-x="617" 
d="M29 254q0 116 78.5 192.5t201.5 76.5t201 -76.5t78 -192.5q0 -117 -79 -191.5t-200 -74.5q-122 0 -201 75.5t-79 190.5zM189 256q0 -53 34.5 -87.5t85.5 -34.5q52 0 86 34.5t34 87.5q0 51 -34 86t-85 35t-86 -35t-35 -86zM236 745q0 -36 19 -57.5t51 -21.5q33 0 52 21.5
t19 57.5h126q-1 -82 -54.5 -126.5t-142.5 -44.5q-88 0 -141.5 44.5t-54.5 126.5h126z" />
    <glyph glyph-name="Ohungarumlaut" unicode="&#x150;" horiz-adv-x="764" 
d="M32 334q0 149 99 248t250 99t250.5 -99t99.5 -248t-99 -247q-100 -99 -251 -99t-250 98.5t-99 247.5zM201 334q0 -79 52 -132.5t128 -53.5q77 0 129 53.5t52 132.5t-52 132.5t-129 53.5q-76 0 -128 -53.5t-52 -132.5zM463 908h183l-72 -185h-169zM178 723l45 185h185
l-63 -185h-167z" />
    <glyph glyph-name="ohungarumlaut" unicode="&#x151;" horiz-adv-x="617" 
d="M108 447q78 76 201 76t201 -76.5t78 -192.5q0 -117 -79 -191.5t-200 -74.5q-122 0 -201 75.5t-79 190.5q0 116 79 193zM189 256q0 -53 34.5 -87.5t85.5 -34.5q52 0 86 34.5t34 87.5q0 51 -34 86t-85 35t-86 -35t-35 -86zM327 578l54 166h177l-67 -166h-164zM119 578
l36 166h178l-53 -166h-161z" />
    <glyph glyph-name="OE" unicode="&#x152;" horiz-adv-x="1068" 
d="M713 267v-118h314v-149h-478v64q-77 -75 -198 -75q-137 0 -227.5 98t-90.5 247t90.5 247.5t227.5 98.5q122 0 198 -76v65h467v-149h-303v-116h288v-137h-288zM374 145q74 0 124.5 55.5t50.5 134.5t-50.5 134t-125.5 55q-74 0 -124 -55t-50 -134t50.5 -134.5t124.5 -55.5z
" />
    <glyph glyph-name="oe" unicode="&#x153;" horiz-adv-x="955" 
d="M926 273q0 -28 -3 -55h-364q6 -46 34.5 -73.5t74.5 -27.5q69 0 101 60l134 -52q-26 -64 -87.5 -100t-147.5 -36q-125 0 -192 79q-71 -80 -186 -80q-111 0 -185.5 76t-74.5 189q0 116 74.5 193t186.5 77q116 0 186 -82q73 82 194 82q112 0 183.5 -70.5t71.5 -179.5z
M666 398q-40 0 -68.5 -25.5t-36.5 -67.5h208q-6 42 -33 67.5t-70 25.5zM299 129q48 0 80 35.5t32 90.5t-31.5 91t-80.5 36t-81 -36t-32 -91t32 -90.5t81 -35.5z" />
    <glyph glyph-name="Racute" unicode="&#x154;" horiz-adv-x="677" 
d="M64 669h338q102 0 168.5 -66t66.5 -167q0 -73 -33.5 -129t-92.5 -83l139 -224h-207l-111 194h-94v-194h-174v669zM238 335h126q43 0 70.5 25.5t27.5 66.5q0 40 -27 66.5t-68 26.5h-129v-185zM241 726l57 183h195l-76 -183h-176z" />
    <glyph glyph-name="racute" unicode="&#x155;" horiz-adv-x="430" 
d="M216 511v-53q47 65 132 65q27 0 62 -11l-1 -164q-39 13 -71 13q-57 0 -86.5 -32.5t-29.5 -88.5v-240h-167v511h161zM195 745h188l-73 -166h-162z" />
    <glyph glyph-name="uni0156" unicode="&#x156;" horiz-adv-x="677" 
d="M64 0v669h338q102 0 168.5 -66t66.5 -167q0 -73 -33.5 -129t-92.5 -83l139 -224h-207l-111 194h-94v-194h-174zM364 335q43 0 70.5 25.5t27.5 66.5q0 40 -27 66.5t-68 26.5h-129v-185h126zM214 -231l31 185h182l-47 -185h-166z" />
    <glyph glyph-name="uni0157" unicode="&#x157;" horiz-adv-x="430" 
d="M216 511v-53q47 65 132 65q27 0 62 -11l-1 -164q-39 13 -71 13q-57 0 -86.5 -32.5t-29.5 -88.5v-240h-167v511h161zM10 -234l45 181h167l-60 -181h-152z" />
    <glyph glyph-name="Rcaron" unicode="&#x158;" horiz-adv-x="677" 
d="M64 669h338q102 0 168.5 -66t66.5 -167q0 -73 -33.5 -129t-92.5 -83l139 -224h-207l-111 194h-94v-194h-174v669zM104 917h166l59 -89l60 89h166l-138 -190h-174zM238 335h126q43 0 70.5 25.5t27.5 66.5q0 40 -27 66.5t-68 26.5h-129v-185z" />
    <glyph glyph-name="rcaron" unicode="&#x159;" horiz-adv-x="431" 
d="M216 511v-54q46 66 132 66q28 0 63 -11l-2 -164q-39 13 -71 13q-56 0 -86 -32.5t-30 -88.5v-240h-166v511h160zM27 745h147l54 -80l52 80h148l-123 -169h-154z" />
    <glyph glyph-name="Sacute" unicode="&#x15a;" horiz-adv-x="656" 
d="M92 221q104 -81 252 -81q46 0 72.5 16t26.5 44q0 37 -58 52q-17 4 -71 13q-42 7 -69.5 12.5t-68 21t-64.5 35.5t-42 55t-18 80q0 103 78 157t211 54q150 0 268 -68l-70 -133q-94 55 -209 55q-99 0 -99 -55q0 -13 6.5 -22.5t15 -15.5t26 -11t29.5 -7.5t35 -6.5
q120 -21 167 -42q113 -50 114 -163q0 -106 -79.5 -164t-219.5 -58q-88 0 -168 27t-136 69zM312 909h194l-75 -184h-176z" />
    <glyph glyph-name="sacute" unicode="&#x15b;" horiz-adv-x="547" 
d="M19 61l59 122q38 -26 94.5 -45.5t105.5 -19.5q76 0 76 37q0 19 -23 27t-96 20q-93 16 -139 50.5t-46 105.5q0 77 60.5 121t171.5 44q118 0 218 -43l-42 -125q-102 45 -183 45q-64 0 -64 -35q0 -23 48 -34q12 -3 40 -8q12 -3 19 -4q104 -20 152.5 -52.5t48.5 -106.5
q0 -79 -65.5 -125t-178.5 -46q-151 0 -256 72zM205 581l46 166h188l-72 -166h-162z" />
    <glyph glyph-name="Scircumflex" unicode="&#x15c;" horiz-adv-x="656" 
d="M92 221q104 -81 252 -81q46 0 72.5 16t26.5 44q0 37 -58 52q-17 4 -71 13q-42 7 -69.5 12.5t-68 21t-64.5 35.5t-42 55t-18 80q0 103 78 157t211 54q150 0 268 -68l-70 -133q-94 55 -209 55q-99 0 -99 -55q0 -13 6.5 -22.5t15 -15.5t26 -11t29.5 -7.5t35 -6.5
q120 -21 167 -42q113 -50 114 -163q0 -106 -79.5 -164t-219.5 -58q-88 0 -168 27t-136 69zM117 727l138 189h175l137 -189h-166l-58 88l-60 -88h-166z" />
    <glyph glyph-name="scircumflex" unicode="&#x15d;" horiz-adv-x="547" 
d="M19 61l59 122q38 -26 94.5 -45.5t105.5 -19.5q76 0 76 37q0 19 -23 27t-96 20q-93 16 -139 50.5t-46 105.5q0 77 60.5 121t171.5 44q118 0 218 -43l-42 -125q-102 45 -183 45q-64 0 -64 -35q0 -23 48 -34q12 -3 40 -8q12 -3 19 -4q104 -20 152.5 -52.5t48.5 -106.5
q0 -79 -65.5 -125t-178.5 -46q-151 0 -256 72zM205 748h155l122 -169h-146l-53 81l-55 -81h-146z" />
    <glyph glyph-name="Scedilla" unicode="&#x15e;" horiz-adv-x="656" 
d="M92 221q104 -81 252 -81q46 0 72.5 16t26.5 44q0 37 -58 52q-17 4 -71 13q-42 7 -69.5 12.5t-68 21t-64.5 35.5t-42 55t-18 80q0 103 78 157t211 54q150 0 268 -68l-70 -133q-94 55 -209 55q-99 0 -99 -55q0 -13 6.5 -22.5t15 -15.5t26 -11t29.5 -7.5t35 -6.5
q120 -21 167 -42q113 -50 114 -163q0 -96 -66 -153t-183 -67l-11 -34q45 -4 70.5 -28.5t25.5 -62.5q0 -47 -40 -78t-103 -31q-59 0 -107 16l1 90q47 -15 79 -15q49 0 49 31q0 28 -44 28h-50l-7 12l26 74q-143 16 -243 92z" />
    <glyph glyph-name="scedilla" unicode="&#x15f;" horiz-adv-x="547" 
d="M78 183q38 -26 94.5 -45.5t105.5 -19.5q76 0 76 37q0 19 -23 27t-96 20q-93 16 -139 50.5t-46 105.5q0 77 60.5 121t171.5 44q118 0 218 -43l-42 -125q-102 45 -183 45q-64 0 -64 -35q0 -23 48 -34q12 -3 40 -8q12 -3 19 -4q104 -20 152.5 -52.5t48.5 -106.5
q0 -71 -52.5 -115t-144.5 -54l-11 -33q44 -4 69.5 -29t25.5 -62q0 -48 -39.5 -78.5t-102.5 -30.5t-107 16v89q48 -15 80 -15q49 0 49 32q0 28 -44 28h-50l-7 11l25 74q-113 14 -191 68z" />
    <glyph glyph-name="Scaron" unicode="&#x160;" horiz-adv-x="656" 
d="M92 221q104 -81 252 -81q46 0 72.5 16t26.5 44q0 37 -58 52q-17 4 -71 13q-42 7 -69.5 12.5t-68 21t-64.5 35.5t-42 55t-18 80q0 103 78 157t211 54q150 0 268 -68l-70 -133q-94 55 -209 55q-99 0 -99 -55q0 -13 6.5 -22.5t15 -15.5t26 -11t29.5 -7.5t35 -6.5
q120 -21 167 -42q113 -50 114 -163q0 -106 -79.5 -164t-219.5 -58q-88 0 -168 27t-136 69zM118 916h166l60 -89l58 89h166l-137 -190h-175z" />
    <glyph glyph-name="scaron" unicode="&#x161;" horiz-adv-x="547" 
d="M19 61l59 122q38 -26 94.5 -45.5t105.5 -19.5q76 0 76 37q0 19 -23 27t-96 20q-93 16 -139 50.5t-46 105.5q0 77 60.5 121t171.5 44q118 0 218 -43l-42 -125q-102 45 -183 45q-64 0 -64 -35q0 -23 48 -34q12 -3 40 -8q12 -3 19 -4q104 -20 152.5 -52.5t48.5 -106.5
q0 -79 -65.5 -125t-178.5 -46q-151 0 -256 72zM230 748l53 -81l53 81h147l-123 -170h-154l-123 170h147z" />
    <glyph glyph-name="Tcaron" unicode="&#x164;" horiz-adv-x="607" 
d="M17 669h572v-149h-198v-520h-175v520h-199v149zM79 917h166l60 -89l58 89h167l-138 -190h-175z" />
    <glyph glyph-name="tcaron" unicode="&#x165;" horiz-adv-x="444" 
d="M101 511v147h168v-147h127v-141h-127v-168q0 -34 13.5 -50.5t49.5 -16.5q38 0 81 16v-137q-65 -26 -131 -26q-92 0 -136.5 46t-44.5 127v209h-78v141h78zM342 754h166l-43 -196h-147z" />
    <glyph glyph-name="Tbar" unicode="&#x166;" horiz-adv-x="622" 
d="M25 669h571v-149h-197v-147h138v-125h-138v-248h-176v248h-134v125h134v147h-198v149z" />
    <glyph glyph-name="tbar" unicode="&#x167;" horiz-adv-x="432" 
d="M23 303h78v67h-78v141h78v147h168v-147h127v-141h-127v-67h127v-70h-127v-31q0 -34 13.5 -50.5t49.5 -16.5q38 0 81 16v-137q-65 -26 -131 -26q-92 0 -136.5 46t-44.5 127v72h-78v70z" />
    <glyph glyph-name="Utilde" unicode="&#x168;" horiz-adv-x="707" 
d="M232 669v-389q0 -53 32.5 -87.5t88.5 -34.5q55 0 88.5 35t33.5 87v389h175v-402q0 -124 -83 -201t-214 -77q-130 0 -213 77t-83 201v402h175zM162 869q33 41 101 41q30 0 55 -9.5t37.5 -21t29 -21t32.5 -9.5q23 0 37.5 15.5t14.5 38.5v3h121q0 -3 0.5 -9t0.5 -9
q0 -64 -35.5 -107t-99.5 -43q-36 0 -65 16t-50.5 31.5t-40.5 15.5q-22 0 -35.5 -16t-13.5 -42h-121q-1 7 -1 21q0 64 33 105z" />
    <glyph glyph-name="utilde" unicode="&#x169;" horiz-adv-x="609" 
d="M49 213v298h168v-288q0 -40 22 -64t57 -24q38 0 64 28t26 74v274h168v-511h-160v54q-59 -65 -153 -65q-89 0 -140.5 59t-51.5 165zM95 603q0 65 33 105t101 40q37 0 60.5 -15t39 -29.5t33.5 -14.5q41 0 41 52v2h121q1 -9 1 -17q0 -60 -33 -105t-102 -45q-35 0 -60 15.5
t-42.5 31t-36.5 15.5q-35 0 -35 -56h-120q-1 7 -1 21z" />
    <glyph glyph-name="Umacron" unicode="&#x16a;" horiz-adv-x="707" 
d="M57 669h175v-389q0 -53 32.5 -87.5t88.5 -34.5q55 0 88.5 35t33.5 87v389h175v-402q0 -124 -83 -201t-214 -77q-130 0 -213 77t-83 201v402zM546 879v-124h-384v124h384z" />
    <glyph glyph-name="umacron" unicode="&#x16b;" horiz-adv-x="609" 
d="M217 511v-288q0 -40 22 -64t57 -24q38 0 64 28t26 74v274h168v-511h-160v54q-59 -65 -153 -65q-89 0 -140.5 59t-51.5 165v298h168zM126 714h351v-113h-351v113z" />
    <glyph glyph-name="Ubreve" unicode="&#x16c;" horiz-adv-x="707" 
d="M57 267v402h175v-389q0 -53 32.5 -87.5t88.5 -34.5q55 0 88.5 35t33.5 87v389h175v-402q0 -124 -83 -201t-214 -77q-130 0 -213 77t-83 201zM137 915h139v-3q0 -33 21.5 -54.5t55.5 -21.5t55 22t21 54v3h139q-1 -89 -60 -138.5t-155 -49.5q-97 0 -156 49.5t-60 138.5z
" />
    <glyph glyph-name="ubreve" unicode="&#x16d;" horiz-adv-x="609" 
d="M49 213v298h168v-288q0 -40 22 -64t57 -24q38 0 64 28t26 74v274h168v-511h-160v54q-59 -65 -153 -65q-89 0 -140.5 59t-51.5 165zM229 745q0 -36 19 -57.5t51 -21.5q33 0 52 21.5t19 57.5h126q-1 -82 -54.5 -126.5t-142.5 -44.5q-88 0 -141 44.5t-55 126.5h126z" />
    <glyph glyph-name="Uring" unicode="&#x16e;" horiz-adv-x="707" 
d="M57 267v402h175v-389q0 -53 32.5 -87.5t88.5 -34.5q55 0 88.5 35t33.5 87v389h175v-402q0 -124 -83 -201t-214 -77q-130 0 -213 77t-83 201zM254 921q40 36 100 36q59 0 99 -36t40 -89q0 -54 -40 -89.5t-99 -35.5q-61 0 -100.5 35.5t-39.5 89.5q0 53 40 89zM299 830
q0 -22 16 -36q16 -15 39 -15t38.5 14.5t15.5 36.5q0 23 -15.5 38.5t-38.5 15.5t-39 -15.5t-16 -38.5z" />
    <glyph glyph-name="uring" unicode="&#x16f;" horiz-adv-x="609" 
d="M49 511h168v-288q0 -40 22 -64t57 -24q38 0 64 28t26 74v274h168v-511h-160v54q-59 -65 -153 -65q-89 0 -140.5 59t-51.5 165v298zM203 775q38 34 96 34t96 -34t38 -87q0 -51 -38 -85q-38 -35 -96 -35t-96 34.5t-38 85.5q0 52 38 87zM246 688q0 -22 15 -37t38 -15t38 15
t15 37t-15 37q-16 15 -38 15t-37.5 -15t-15.5 -37z" />
    <glyph glyph-name="Uhungarumlaut" unicode="&#x170;" horiz-adv-x="707" 
d="M57 669h175v-389q0 -53 32.5 -87.5t88.5 -34.5q55 0 88.5 35t33.5 87v389h175v-402q0 -124 -83 -201t-214 -77q-130 0 -213 77t-83 201v402zM195 910h185l-63 -184h-168zM435 910h182l-71 -184h-170z" />
    <glyph glyph-name="uhungarumlaut" unicode="&#x171;" horiz-adv-x="609" 
d="M217 511v-288q0 -40 22 -64t57 -24q38 0 64 28t26 74v274h168v-511h-160v54q-59 -65 -153 -65q-89 0 -140.5 59t-51.5 165v298h168zM319 578l56 166h176l-67 -166h-165zM148 744h179l-55 -166h-160z" />
    <glyph glyph-name="Uogonek" unicode="&#x172;" horiz-adv-x="707" 
d="M232 669v-389q0 -53 32.5 -87.5t88.5 -34.5q55 0 88.5 35t33.5 87v389h175v-402q0 -98 -52.5 -167t-137.5 -96q-98 -32 -98 -76q0 -32 36 -32q13 0 62 13l1 -109q-44 -21 -100 -21q-60 0 -94.5 30t-34.5 78q0 24 16 53.5t47 52.5q-108 17 -173 91t-65 183v402h175z" />
    <glyph glyph-name="uogonek" unicode="&#x173;" horiz-adv-x="609" 
d="M49 511h168v-288q0 -40 22 -64t57 -24q38 0 64 28t26 74v274h168v-511h-1q-100 -36 -100 -78q0 -31 36 -31q19 0 62 13l1 -109q-44 -21 -100 -21q-60 0 -94.5 29.5t-34.5 77.5q0 29 20.5 62t60.5 57h-10v54q-59 -65 -153 -65q-89 0 -140.5 59t-51.5 165v298z" />
    <glyph glyph-name="Wcircumflex" unicode="&#x174;" horiz-adv-x="986" 
d="M193 669l99 -452l122 452h158l125 -447l97 447h182l-184 -669h-185l-114 423l-116 -423h-185l-181 669h182zM265 727l139 190h175l137 -190h-166l-58 89l-60 -89h-167z" />
    <glyph glyph-name="wcircumflex" unicode="&#x175;" horiz-adv-x="844" 
d="M185 511l75 -303l89 303h146l90 -297l72 297h182l-158 -512h-166l-92 311l-92 -311h-167l-160 512h181zM220 576l123 170h155l122 -170h-146l-53 81l-55 -81h-146z" />
    <glyph glyph-name="Ycircumflex" unicode="&#x176;" horiz-adv-x="667" 
d="M203 669l129 -287l135 287h203l-250 -470v-199h-175v199l-244 470h202zM248 917h175l137 -190h-166l-59 89l-59 -89h-167z" />
    <glyph glyph-name="ycircumflex" unicode="&#x177;" horiz-adv-x="600" 
d="M172 512l134 -361l117 361h172l-171 -479q-16 -45 -27.5 -72.5t-35.5 -66t-50.5 -60t-69.5 -38t-96 -16.5q-60 0 -126 25v146q54 -27 108 -27q74 0 101 44l-229 544h173zM218 746h154l123 -169h-148l-52 80l-54 -80h-147z" />
    <glyph glyph-name="Ydieresis" unicode="&#x178;" horiz-adv-x="667" 
d="M203 669l129 -287l135 287h203l-250 -470v-199h-175v199l-244 470h202zM152 899q28 28 69 28t69 -28t28 -68q0 -41 -28 -69q-28 -29 -69 -29t-69 28.5t-28 69.5q0 40 28 68zM352 831q0 40 28.5 68t69.5 28q40 0 68 -27.5t28 -68.5t-28 -69.5t-68 -28.5q-41 0 -69.5 28.5
t-28.5 69.5z" />
    <glyph glyph-name="Zacute" unicode="&#x179;" horiz-adv-x="627" 
d="M282 910h194l-76 -184h-176zM583 526l-318 -377h329v-149h-558v137l326 383h-320v149h541v-143z" />
    <glyph glyph-name="zacute" unicode="&#x17a;" horiz-adv-x="532" 
d="M352 579h-162l47 166h187zM501 0h-469v117l239 255h-225v139h443v-111l-239 -260h251v-140z" />
    <glyph glyph-name="Zdotaccent" unicode="&#x17b;" horiz-adv-x="627" 
d="M36 137l326 383h-320v149h541v-143l-318 -377h329v-149h-558v137zM219 823q0 39 27.5 66t66.5 27q40 0 67.5 -27t27.5 -66t-27.5 -66t-67.5 -27q-39 0 -66.5 27t-27.5 66z" />
    <glyph glyph-name="zdotaccent" unicode="&#x17c;" horiz-adv-x="532" 
d="M32 117l239 255h-225v139h443v-111l-239 -260h251v-140h-469v117zM203 721q27 26 66 26t66.5 -26.5t27.5 -65.5t-27 -66q-28 -27 -67 -27t-66.5 27t-27.5 66t28 66z" />
    <glyph glyph-name="Zcaron" unicode="&#x17d;" horiz-adv-x="627" 
d="M36 0v137l326 383h-320v149h541v-143l-318 -377h329v-149h-558zM88 918h166l59 -89l59 89h167l-138 -190h-175z" />
    <glyph glyph-name="zcaron" unicode="&#x17e;" horiz-adv-x="532" 
d="M271 372h-225v139h443v-111l-239 -260h251v-140h-469v117zM69 745h146l54 -80l53 80h147l-123 -170h-154z" />
    <glyph glyph-name="Aringacute" unicode="&#x1fa;" horiz-adv-x="688" 
d="M240 669h211l232 -669h-184l-34 114h-241l-35 -114h-186zM205 832q0 53 39.5 89t99.5 36q44 0 77.5 -19.5t49.5 -53.5l103 65l48 -93l-146 -66q-14 -38 -49.5 -60.5t-82.5 -22.5q-60 0 -99.5 35.5t-39.5 89.5zM426 259l-80 263l-80 -263h160zM291 830q0 -22 15 -36.5
t38 -14.5t38.5 14.5t15.5 36.5q0 23 -15 39q-16 15 -39 15t-38 -15.5t-15 -38.5z" />
    <glyph glyph-name="aringacute" unicode="&#x1fb;" horiz-adv-x="641" 
d="M100 448q70 75 178 75q93 0 153 -67v55h155v-511h-155v54q-61 -66 -155 -66q-107 0 -176.5 75.5t-69.5 192.5t70 192zM191 687q0 53 38.5 87.5t96.5 34.5q80 0 117 -60l82 64l48 -100l-115 -48q-8 -43 -44.5 -70.5t-87.5 -27.5q-58 0 -96.5 34.5t-38.5 85.5zM228 169
q33 -35 84 -35q50 0 84 35.5t34 87.5q0 50 -34 85t-83 35q-51 0 -85 -34.5t-34 -86.5q0 -53 34 -87zM273 687q0 -22 15.5 -37t37.5 -15t37.5 15t15.5 37t-15 37q-16 15 -38 15t-37.5 -15t-15.5 -37z" />
    <glyph glyph-name="AEacute" unicode="&#x1fc;" horiz-adv-x="975" 
d="M-15 0l353 669h584v-149h-315v-117h299v-136h-299v-118h326v-149h-488v125h-219l-63 -125h-178zM565 909h194l-76 -183h-175zM296 263h149v297z" />
    <glyph glyph-name="aeacute" unicode="&#x1fd;" horiz-adv-x="923" 
d="M79 266q52 40 149 40h132q-1 43 -26.5 66t-98.5 23q-87 0 -167 -31v122q81 37 193 37q133 0 192 -74q72 74 187 74q110 0 181.5 -69.5t71.5 -177.5q0 -21 -2 -55l-365 -1q5 -47 34.5 -75.5t77.5 -28.5q70 0 101 61l132 -53q-25 -64 -86.5 -99.5t-147.5 -35.5
q-128 0 -195 83q-73 -84 -209 -84q-96 0 -151.5 45.5t-55.5 121.5q0 71 53 111zM372 579l47 166h188l-73 -166h-162zM178 163q0 -27 21 -41.5t55 -14.5q46 0 75 27.5t31 78.5h-106q-76 0 -76 -50zM740 308q-8 41 -36 66t-69 25t-69 -25t-37 -66h211z" />
    <glyph glyph-name="Oslashacute" unicode="&#x1fe;" horiz-adv-x="759" 
d="M32 334q0 149 99 247.5t249 98.5q91 0 167 -39l71 97l67 -50l-69 -95q111 -100 111 -259q0 -149 -98.5 -247t-248.5 -98q-92 0 -168 39l-72 -99l-71 56l69 95q-106 100 -106 254zM380 141q80 0 133.5 55.5t53.5 137.5q0 75 -46 129l-219 -306q38 -16 78 -16zM235 209
l220 304q-33 15 -75 15q-81 0 -134.5 -56t-53.5 -138q0 -72 43 -125zM284 726l57 183h194l-75 -183h-176z" />
    <glyph glyph-name="oslashacute" unicode="&#x1ff;" horiz-adv-x="621" 
d="M29 253q0 117 79.5 193.5t202.5 76.5q70 0 130 -27l63 84l57 -38l-61 -84q92 -76 92 -205q0 -115 -79 -190t-202 -75q-74 0 -134 29l-63 -84l-57 37l62 84q-90 76 -90 199zM216 579l46 166h188l-72 -166h-162zM312 125q56 0 94 37t38 93q0 51 -32 88l-151 -209
q24 -9 51 -9zM179 255q0 -48 28 -82l150 206q-22 8 -45 8q-57 0 -95 -38t-38 -94z" />
    <glyph glyph-name="uni0218" unicode="&#x218;" horiz-adv-x="656" 
d="M92 221q104 -81 252 -81q46 0 72.5 16t26.5 44q0 37 -58 52q-17 4 -71 13q-42 7 -69.5 12.5t-68 21t-64.5 35.5t-42 55t-18 80q0 103 78 157t211 54q150 0 268 -68l-70 -133q-94 55 -209 55q-99 0 -99 -55q0 -13 6.5 -22.5t15 -15.5t26 -11t29.5 -7.5t35 -6.5
q120 -21 167 -42q113 -50 114 -163q0 -106 -79.5 -164t-219.5 -58q-88 0 -168 27t-136 69zM238 -48h180l-47 -185h-165z" />
    <glyph glyph-name="uni0219" unicode="&#x219;" horiz-adv-x="547" 
d="M78 183q38 -26 94.5 -45.5t105.5 -19.5q76 0 76 37q0 19 -23 27t-96 20q-93 16 -139 50.5t-46 105.5q0 77 60.5 121t171.5 44q118 0 218 -43l-42 -125q-102 45 -183 45q-64 0 -64 -35q0 -23 48 -34q12 -3 40 -8q12 -3 19 -4q104 -20 152.5 -52.5t48.5 -106.5
q0 -79 -65.5 -125t-178.5 -46q-151 0 -256 72zM141 -231l44 180h169l-62 -180h-151z" />
    <glyph glyph-name="uni021A" unicode="&#x21a;" horiz-adv-x="607" 
d="M17 520v149h572v-149h-198v-520h-175v520h-199zM176 -230l31 186h181l-47 -186h-165z" />
    <glyph glyph-name="uni021B" unicode="&#x21b;" horiz-adv-x="432" 
d="M23 370v141h78v147h168v-147h127v-141h-127v-168q0 -34 13.5 -50.5t49.5 -16.5q38 0 81 16v-137q-65 -26 -131 -26q-92 0 -136.5 46t-44.5 127v209h-78zM167 -50h168l-61 -177h-152z" />
    <glyph glyph-name="uni0237" unicode="&#x237;" horiz-adv-x="292" 
d="M-2 -69q40 0 55 19.5t15 60.5v500h169v-547q0 -83 -54.5 -133t-151.5 -50q-63 0 -122 19v144q48 -13 89 -13z" />
    <glyph glyph-name="circumflex" unicode="&#x2c6;" horiz-adv-x="454" 
d="M151 745h154l123 -170h-148l-52 81l-55 -81h-146z" />
    <glyph glyph-name="caron" unicode="&#x2c7;" horiz-adv-x="454" 
d="M27 745h146l55 -82l52 82h148l-123 -170h-154z" />
    <glyph glyph-name="breve" unicode="&#x2d8;" horiz-adv-x="462" 
d="M34 745h126q0 -36 19 -57.5t52 -21.5t52 21.5t19 57.5h126q-2 -82 -55 -126q-54 -45 -142 -45t-141.5 44.5t-55.5 126.5z" />
    <glyph glyph-name="dotaccent" unicode="&#x2d9;" horiz-adv-x="272" 
d="M70 722q27 26 67 26q39 0 66 -26.5t27 -65.5q0 -40 -27 -66.5t-66 -26.5q-40 0 -67 26.5t-27 66.5q0 39 27 66z" />
    <glyph glyph-name="ring" unicode="&#x2da;" horiz-adv-x="339" 
d="M74 775q38 34 96 34t96 -34.5t38 -86.5q0 -51 -38.5 -86t-95.5 -35q-58 0 -96.5 35t-38.5 86q0 52 39 87zM117 687q0 -22 16 -37q15 -15 37 -15t37.5 15t15.5 37t-15.5 37t-37.5 15t-37.5 -15t-15.5 -37z" />
    <glyph glyph-name="ogonek" unicode="&#x2db;" horiz-adv-x="305" 
d="M165 -221q-61 0 -95 29.5t-34 77.5q0 32 24 68.5t74 59.5l132 -9q-101 -34 -101 -78q0 -12 8.5 -21.5t27.5 -9.5q20 0 63 13l1 -108q-44 -22 -100 -22z" />
    <glyph glyph-name="tilde" unicode="&#x2dc;" horiz-adv-x="503" 
d="M71 725q33 40 100 40q29 0 50.5 -9t32 -20.5t23.5 -20.5t28 -9q40 0 40 47v7h122q1 -9 1 -17q0 -59 -33 -104.5t-102 -45.5q-35 0 -60 15.5t-42.5 31t-36.5 15.5q-35 0 -35 -53v-3h-120q-1 7 -1 21q0 64 33 105z" />
    <glyph glyph-name="hungarumlaut" unicode="&#x2dd;" horiz-adv-x="503" 
d="M297 745h177l-68 -166h-163zM71 745h179l-55 -166h-160z" />
    <glyph glyph-name="gravecomb" unicode="&#x300;" horiz-adv-x="0" 
d="M-46 745l46 -166h-162l-73 166h189z" />
    <glyph glyph-name="acutecomb" unicode="&#x301;" horiz-adv-x="0" 
d="M-72 579h-162l46 166h188z" />
    <glyph glyph-name="uni0302" unicode="&#x302;" horiz-adv-x="0" 
d="M-277 745h154l123 -170h-147l-53 81l-54 -81h-147z" />
    <glyph glyph-name="tildecomb" unicode="&#x303;" horiz-adv-x="0" 
d="M-401 718q33 47 106 47q29 0 50.5 -9t31.5 -20.5t23.5 -20.5t28.5 -9q40 0 40 51v3h121v-15q0 -61 -32.5 -106.5t-101.5 -45.5q-35 0 -60 15.5t-42.5 31t-36.5 15.5q-35 0 -35 -53v-3h-121q-1 9 -1 19q0 59 29 100z" />
    <glyph glyph-name="uni0304" unicode="&#x304;" horiz-adv-x="0" 
d="M0 601h-352v113h352v-113z" />
    <glyph glyph-name="uni0306" unicode="&#x306;" horiz-adv-x="0" 
d="M-267 745q0 -36 19 -57.5t52 -21.5t52 21.5t19 57.5h125q-1 -82 -54.5 -126.5t-141.5 -44.5q-89 0 -142 44.5t-55 126.5h126z" />
    <glyph glyph-name="uni0307" unicode="&#x307;" horiz-adv-x="0" 
d="M-166 722q28 26 68 26q39 0 66 -26.5t27 -65.5q0 -40 -27 -66.5t-66 -26.5q-40 0 -67.5 26.5t-27.5 66.5q0 39 27 66z" />
    <glyph glyph-name="uni0308" unicode="&#x308;" horiz-adv-x="0" 
d="M-375 717q27 26 65 26q39 0 66 -26.5t27 -64.5q0 -39 -27 -66.5t-66 -27.5q-38 0 -65 27.5t-27 66.5q0 38 27 65zM-158 717q27 26 66 26q38 0 65 -26.5t27 -64.5q0 -39 -27 -66.5t-65 -27.5q-39 0 -66 27.5t-27 66.5q0 38 27 65z" />
    <glyph glyph-name="uni030A" unicode="&#x30a;" horiz-adv-x="0" 
d="M-231 775q39 34 97 34t96 -34.5t38 -86.5q0 -51 -38.5 -86t-95.5 -35q-58 0 -96.5 35t-38.5 86q0 52 38 87zM-187 687q0 -22 15 -37q16 -15 38 -15t37.5 15t15.5 37t-15.5 37t-37.5 15t-37.5 -15t-15.5 -37z" />
    <glyph glyph-name="uni030B" unicode="&#x30b;" horiz-adv-x="0" 
d="M-176 745h176l-68 -166h-163zM-403 745h179l-55 -166h-160z" />
    <glyph glyph-name="uni030C" unicode="&#x30c;" horiz-adv-x="0" 
d="M-401 745h147l54 -82l53 82h147l-123 -170h-154z" />
    <glyph glyph-name="uni0326" unicode="&#x326;" horiz-adv-x="0" 
d="M-61 -251h-152l45 180h168z" />
    <glyph glyph-name="uni0394" unicode="&#x394;" horiz-adv-x="700" 
d="M683 0h-666v131l263 538h139l264 -538v-131zM350 506l-162 -363h325z" />
    <glyph glyph-name="uni03A9" unicode="&#x3a9;" horiz-adv-x="743" 
d="M569 147h134v-146h-307v142q128 81 128 207q0 72 -43 120t-109 48q-65 0 -109 -48.5t-44 -121.5q0 -124 127 -205v-142h-306v146h132q-56 36 -88.5 100.5t-32.5 137.5q0 128 90.5 212.5t230.5 84.5q139 0 229.5 -84.5t90.5 -212.5q0 -72 -33 -136t-90 -102z" />
    <glyph glyph-name="uni03BC" unicode="&#x3bc;" horiz-adv-x="664" 
d="M595 148q25 0 43 7v-148q-28 -18 -96 -18q-44 0 -74 17.5t-42 47.5q-43 -65 -117 -65q-55 0 -85 34v-224h-169v712h169v-275q0 -43 22 -67t57 -24q37 0 62.5 27.5t25.5 73.5v265h169v-320q0 -43 35 -43z" />
    <glyph glyph-name="pi" unicode="&#x3c0;" horiz-adv-x="690" 
d="M606 148q25 0 45 7v-148q-30 -18 -98 -18q-154 0 -154 153v211h-124v-554h-169v554h-80v158h621v-158h-79v-162q0 -43 38 -43z" />
    <glyph glyph-name="uni0401" unicode="&#x401;" horiz-adv-x="610" 
d="M64 669h493v-150h-323v-112h313v-143h-313v-114h334v-150h-504v669zM327 831q0 41 28 68.5t69 27.5t69 -27.5t28 -68.5t-28 -69q-28 -29 -69 -29t-69 28.5t-28 69.5zM127 899q28 28 69 28q40 0 68 -27.5t28 -68.5t-28 -69.5t-68 -28.5q-41 0 -69.5 28.5t-28.5 69.5
q0 40 29 68z" />
    <glyph glyph-name="uni0402" unicode="&#x402;" horiz-adv-x="804" 
d="M17 520v149h572v-149h-198v-130q56 7 92 7q136 0 216 -78t80 -216q0 -135 -78.5 -221t-209.5 -86q-72 0 -111 15v149q48 -12 89 -12q60 0 97.5 41.5t37.5 110.5q0 64 -37.5 103t-101.5 39q-24 0 -74 -9v-233h-175v520h-199z" />
    <glyph glyph-name="uni0403" unicode="&#x403;" horiz-adv-x="522" 
d="M374 726h-176l57 183h195zM240 0h-176v669h442v-149h-266v-520z" />
    <glyph glyph-name="uni0404" unicode="&#x404;" horiz-adv-x="656" 
d="M130 585q97 95 256 95q66 0 134.5 -20t117.5 -57l-66 -132q-36 23 -88.5 38.5t-96.5 15.5q-66 0 -114 -35t-65 -94h285v-121h-285q17 -61 64.5 -97t116.5 -36q48 0 105 16t94 41l53 -138q-50 -34 -120.5 -53t-136.5 -19q-156 0 -253.5 97.5t-97.5 252.5q0 151 97 246z
" />
    <glyph glyph-name="uni0405" unicode="&#x405;" horiz-adv-x="656" 
d="M92 221q104 -81 252 -81q46 0 72.5 16t26.5 44q0 37 -58 52q-17 4 -71 13q-42 7 -69.5 12.5t-68 21t-64.5 35.5t-42 55t-18 80q0 103 78 157t211 54q150 0 268 -68l-70 -133q-94 55 -209 55q-99 0 -99 -55q0 -13 6.5 -22.5t15 -15.5t26 -11t29.5 -7.5t35 -6.5
q120 -21 167 -42q113 -50 114 -163q0 -106 -79.5 -164t-219.5 -58q-88 0 -168 27t-136 69z" />
    <glyph glyph-name="uni0406" unicode="&#x406;" horiz-adv-x="304" 
d="M64 0v669h176v-669h-176z" />
    <glyph glyph-name="uni0407" unicode="&#x407;" horiz-adv-x="305" 
d="M240 669v-669h-175v669h175zM-58 831q0 40 28 68t69 28t69.5 -28t28.5 -68q0 -41 -28 -69q-29 -29 -70 -29t-69 28.5t-28 69.5zM199 899q28 28 69 28t69 -28t28 -68q0 -41 -28 -69q-28 -29 -69 -29t-69 28.5t-28 69.5q0 40 28 68z" />
    <glyph glyph-name="uni0408" unicode="&#x408;" horiz-adv-x="497" 
d="M143 151q120 0 120 116v402h175v-434q0 -119 -70 -182.5t-193 -63.5q-80 0 -156 23v155q67 -16 124 -16z" />
    <glyph glyph-name="uni0409" unicode="&#x409;" horiz-adv-x="1101" 
d="M684 475h171q99 0 161.5 -65.5t62.5 -169.5q0 -106 -64.5 -173t-166.5 -67h-340v520h-173v-104q0 -61 -1.5 -97t-7.5 -92.5t-22 -99t-42 -72.5q-57 -66 -173 -66q-5 0 -74 6v161q27 -5 41 -5q52 0 76 50q19 37 24 110.5t5 221.5v136h523v-194zM684 140h124
q43 0 70.5 28.5t27.5 71.5q0 41 -27.5 68.5t-70.5 27.5h-124v-196z" />
    <glyph glyph-name="uni040A" unicode="&#x40a;" horiz-adv-x="1088" 
d="M242 669v-269h252v269h178v-194h170q99 0 161.5 -65.5t62.5 -169.5q0 -106 -64.5 -173t-167.5 -67h-340v238h-252v-238h-178v669h178zM795 140q43 0 70.5 28.5t27.5 71.5q0 41 -27.5 68.5t-70.5 27.5h-123v-196h123z" />
    <glyph glyph-name="uni040B" unicode="&#x40b;" horiz-adv-x="789" 
d="M589 669v-149h-198v-126q83 15 126 15q116 0 175.5 -53t59.5 -153v-203h-184v162q0 82 -88 82q-34 0 -89 -12v-232h-175v520h-199v149h572z" />
    <glyph glyph-name="uni040C" unicode="&#x40c;" horiz-adv-x="672" 
d="M64 669h176v-288l221 288h207l-264 -340l268 -329h-217l-215 270v-270h-176v669zM332 909h195l-76 -183h-176z" />
    <glyph glyph-name="uni040E" unicode="&#x40e;" horiz-adv-x="664" 
d="M22 669h189l144 -356l124 356h184l-195 -477q-17 -43 -35 -72.5t-50 -62.5t-81.5 -50t-115.5 -17q-64 0 -131 21v141q78 -20 120 -20q54 0 84 27zM148 912h126q1 -89 71 -89q68 0 71 89h126q-4 -83 -57 -130q-53 -48 -140 -48t-140 47.5t-57 130.5z" />
    <glyph glyph-name="uni040F" unicode="&#x40f;" horiz-adv-x="707" 
d="M468 669h175v-669h-203v-132h-172v132h-204v669h176v-520h228v520z" />
    <glyph glyph-name="uni0410" unicode="&#x410;" horiz-adv-x="688" 
d="M240 669h211l232 -669h-184l-34 114h-241l-35 -114h-186zM426 259l-80 263l-80 -263h160z" />
    <glyph glyph-name="uni0411" unicode="&#x411;" horiz-adv-x="671" 
d="M238 425h178q103 0 164.5 -58t61.5 -153t-63 -154.5t-165 -59.5h-350v669h518v-149h-344v-95zM238 137h144q37 0 61 22t24 56t-23 55.5t-58 21.5h-148v-155z" />
    <glyph glyph-name="uni0412" unicode="&#x412;" horiz-adv-x="681" 
d="M64 669h352q99 0 152 -50t53 -127q0 -46 -21.5 -80.5t-60.5 -51.5q51 -16 80.5 -57t29.5 -102q0 -94 -63.5 -147.5t-184.5 -53.5h-337v669zM237 282v-143h156q37 0 59.5 20.5t22.5 52.5q0 30 -21.5 50t-53.5 20h-163zM237 397h142q33 0 54 17.5t21 48.5q0 30 -20 49
t-51 19h-146v-134z" />
    <glyph glyph-name="uni0413" unicode="&#x413;" horiz-adv-x="522" 
d="M240 0h-176v669h442v-149h-266v-520z" />
    <glyph glyph-name="uni0414" unicode="&#x414;" horiz-adv-x="806" 
d="M677 669v-520h106v-279h-171v130h-427v-130h-171v279h86q31 39 44 108.5t13 192.5v219h520zM328 520v-128q0 -162 -37 -243h211v371h-174z" />
    <glyph glyph-name="uni0415" unicode="&#x415;" horiz-adv-x="610" 
d="M64 0v669h493v-150h-323v-112h313v-143h-313v-114h334v-150h-504z" />
    <glyph glyph-name="uni0416" unicode="&#x416;" horiz-adv-x="1014" 
d="M753 328l260 -328h-215l-207 272v-272h-168v272l-207 -272h-216l260 328l-256 341h204l215 -292v292h168v-292l214 292h205z" />
    <glyph glyph-name="uni0417" unicode="&#x417;" horiz-adv-x="641" 
d="M510 364q45 -20 72 -62t27 -95q0 -97 -85 -157.5t-219 -60.5q-79 0 -157.5 21t-133.5 63l67 136q102 -67 230 -67q59 0 90.5 20t31.5 53q0 29 -23 46t-57 17h-192v121h175q38 0 60 16.5t22 43.5q0 32 -29 49.5t-77 17.5q-45 0 -106.5 -15.5t-113.5 -41.5l-58 134
q55 36 134 57t153 21q120 0 195.5 -51t75.5 -131q0 -43 -22 -79t-60 -56z" />
    <glyph glyph-name="uni0418" unicode="&#x418;" horiz-adv-x="735" 
d="M233 669v-397l271 397h167v-669h-169v401l-276 -401h-162v669h169z" />
    <glyph glyph-name="uni0419" unicode="&#x419;" horiz-adv-x="735" 
d="M64 0v669h169v-397l271 397h167v-669h-169v401l-276 -401h-162zM291 912v-3q0 -33 21 -54.5t56 -21.5q34 0 55 21.5t21 54.5v3h139q-1 -89 -60 -138.5t-155 -49.5q-97 0 -156 49.5t-60 138.5h139z" />
    <glyph glyph-name="uni041A" unicode="&#x41a;" horiz-adv-x="672" 
d="M240 669v-288l221 288h207l-264 -340l268 -329h-217l-215 270v-270h-176v669h176z" />
    <glyph glyph-name="uni041B" unicode="&#x41b;" horiz-adv-x="748" 
d="M89 -11q-5 0 -74 6v161q27 -5 41 -5q52 0 76 50q19 37 24 110.5t5 221.5v136h523v-669h-176v520h-173v-104q0 -61 -1.5 -97t-7.5 -92.5t-22 -99t-42 -72.5q-57 -66 -173 -66z" />
    <glyph glyph-name="uni041C" unicode="&#x41c;" horiz-adv-x="896" 
d="M233 669l215 -353l215 353h168v-669h-168v376l-158 -249h-115l-157 249v-376h-169v669h169z" />
    <glyph glyph-name="uni041D" unicode="&#x41d;" horiz-adv-x="737" 
d="M64 669h178v-269h252v269h178v-669h-178v238h-252v-238h-178v669z" />
    <glyph glyph-name="uni041E" unicode="&#x41e;" horiz-adv-x="764" 
d="M131 582q99 99 250 99t250.5 -99t99.5 -248t-99 -247q-100 -99 -251 -99t-250 98.5t-99 247.5t99 248zM201 334q0 -79 52 -132.5t128 -53.5q77 0 129 53.5t52 132.5t-52 132.5t-129 53.5q-76 0 -128 -53.5t-52 -132.5z" />
    <glyph glyph-name="uni041F" unicode="&#x41f;" horiz-adv-x="711" 
d="M242 0h-178v669h583v-669h-177v520h-228v-520z" />
    <glyph glyph-name="uni0420" unicode="&#x420;" horiz-adv-x="661" 
d="M387 669q111 0 181.5 -69t70.5 -179q0 -113 -72 -181t-192 -68h-137v-172h-174v669h323zM359 321q46 0 75 28t29 71t-28 71.5t-73 28.5h-124v-199h121z" />
    <glyph glyph-name="uni0421" unicode="&#x421;" horiz-adv-x="712" 
d="M131 582q98 99 250 99q107 0 191.5 -52t121.5 -140l-151 -77q-21 49 -65 78.5t-100 29.5q-76 0 -126.5 -53t-50.5 -133q0 -79 51 -132.5t127 -53.5q56 0 101 30t65 81l155 -71q-37 -91 -123 -145.5t-196 -54.5q-151 0 -250 98.5t-99 247.5t99 248z" />
    <glyph glyph-name="uni0422" unicode="&#x422;" horiz-adv-x="607" 
d="M17 669h572v-149h-198v-520h-175v520h-199v149z" />
    <glyph glyph-name="uni0423" unicode="&#x423;" horiz-adv-x="664" 
d="M211 669l144 -356l124 356h184l-195 -477q-17 -43 -35 -72.5t-50 -62.5t-81.5 -50t-115.5 -17q-64 0 -131 21v141q78 -20 120 -20q54 0 84 27l-237 510h189z" />
    <glyph glyph-name="uni0424" unicode="&#x424;" horiz-adv-x="920" 
d="M650 600q107 0 173.5 -74t66.5 -192q0 -116 -66.5 -190t-174.5 -74q-44 0 -107 20v-127h-164v127q-63 -20 -107 -20q-107 0 -174 74t-67 190q0 117 66.5 191t174.5 74q44 0 107 -20v127h164v-127q65 21 108 21zM610 201q50 0 80 36.5t30 96.5t-29.5 97.5t-80.5 37.5
q-26 0 -70 -14v-241q37 -13 70 -13zM201 334q0 -60 31 -96.5t83 -36.5q31 0 65 12v241q-42 14 -68 14q-52 0 -81.5 -37t-29.5 -97z" />
    <glyph glyph-name="uni0425" unicode="&#x425;" horiz-adv-x="673" 
d="M226 339l-218 330h207l123 -200l128 200h205l-225 -334l222 -335h-207l-123 201l-134 -201h-204z" />
    <glyph glyph-name="uni0426" unicode="&#x426;" horiz-adv-x="758" 
d="M628 669v-515h106v-286h-171v132h-499v669h176v-515h212v515h176z" />
    <glyph glyph-name="uni0427" unicode="&#x427;" horiz-adv-x="691" 
d="M451 394v275h176v-669h-176v241q-79 -24 -155 -24q-121 0 -189.5 66.5t-68.5 182.5v203h175v-168q0 -127 125 -127q57 0 113 20z" />
    <glyph glyph-name="uni0428" unicode="&#x428;" horiz-adv-x="1046" 
d="M806 154v515h176v-669h-918v669h176v-515h195v515h176v-515h195z" />
    <glyph glyph-name="uni0429" unicode="&#x429;" horiz-adv-x="1112" 
d="M982 669v-515h107v-286h-172v132h-853v669h176v-515h195v515h176v-515h195v515h176z" />
    <glyph glyph-name="uni042A" unicode="&#x42a;" horiz-adv-x="773" 
d="M354 475h173q99 0 162 -66t63 -169q0 -106 -64.5 -173t-167.5 -67h-340v515h-161v154h335v-194zM354 140h126q43 0 70.5 28.5t27.5 71.5q0 41 -27.5 68.5t-69.5 27.5h-127v-196z" />
    <glyph glyph-name="uni042B" unicode="&#x42b;" horiz-adv-x="954" 
d="M64 0v669h173v-194h173q99 0 162 -66t63 -169q0 -106 -64.5 -173t-167.5 -67h-339zM890 669v-669h-176v669h176zM237 140h127q43 0 70.5 28.5t27.5 71.5q0 41 -27.5 68.5t-70.5 27.5h-127v-196z" />
    <glyph glyph-name="uni042C" unicode="&#x42c;" horiz-adv-x="657" 
d="M237 475h173q99 0 162 -66t63 -169q0 -106 -64.5 -173t-167.5 -67h-339v669h173v-194zM237 140h127q43 0 70.5 28.5t27.5 71.5q0 41 -27.5 68.5t-70.5 27.5h-127v-196z" />
    <glyph glyph-name="uni042D" unicode="&#x42d;" horiz-adv-x="656" 
d="M68 199q37 -25 94.5 -41t104.5 -16q69 0 116.5 36t64.5 97h-285v121h285q-17 59 -65 94t-114 35q-44 0 -96.5 -15.5t-87.5 -38.5l-67 132q49 37 117.5 57t135.5 20q158 0 255 -95t97 -246q0 -155 -97.5 -252.5t-253.5 -97.5q-66 0 -136 19t-121 53z" />
    <glyph glyph-name="uni042E" unicode="&#x42e;" horiz-adv-x="1057" 
d="M240 669v-259h94q24 121 117.5 196t223.5 75q151 0 250.5 -99t99.5 -248t-99.5 -247.5t-250.5 -98.5q-129 0 -222 73.5t-119 192.5h-94v-254h-176v669h176zM495 334q0 -79 52 -132.5t128 -53.5q77 0 129 53.5t52 132.5t-52 132.5t-129 53.5q-76 0 -128 -53.5t-52 -132.5z
" />
    <glyph glyph-name="uni042F" unicode="&#x42f;" horiz-adv-x="685" 
d="M621 669v-669h-171v201h-67l-157 -201h-206l175 213q-69 23 -109.5 81t-40.5 137q0 104 68.5 171t174.5 67h333zM324 327h126v195h-130q-44 0 -73 -27.5t-29 -69.5q0 -44 29.5 -71t76.5 -27z" />
    <glyph glyph-name="uni0430" unicode="&#x430;" horiz-adv-x="641" 
d="M100 448q70 75 178 75q93 0 153 -67v55h155v-511h-155v54q-61 -66 -155 -66q-107 0 -176.5 75.5t-69.5 192.5t70 192zM228 169q33 -35 84 -35q50 0 84 35.5t34 87.5q0 50 -34 85t-83 35q-51 0 -85 -34.5t-34 -86.5q0 -53 34 -87z" />
    <glyph glyph-name="uni0431" unicode="&#x431;" horiz-adv-x="633" 
d="M357 493q109 0 178 -69.5t69 -176.5q0 -114 -77.5 -186.5t-198.5 -72.5q-127 0 -205.5 78t-78.5 212v174q0 118 57.5 181.5t195.5 75.5q161 14 240 53l30 -145q-55 -37 -205 -49q-47 -4 -78 -12.5t-47.5 -17.5t-24.5 -27t-9 -30t-1 -37v-15q56 64 155 64zM326 128
q49 0 82 33t33 83t-32 82.5t-81 32.5q-50 0 -82.5 -32.5t-32.5 -82.5t32 -83t81 -33z" />
    <glyph glyph-name="uni0432" unicode="&#x432;" horiz-adv-x="592" 
d="M478 273q39 -15 61.5 -46.5t22.5 -73.5q0 -68 -47.5 -110.5t-123.5 -42.5h-336v511h331q65 0 107.5 -37.5t42.5 -95.5q0 -67 -58 -105zM323 399h-101v-92h98q23 0 38 13t15 33t-13.5 33t-36.5 13zM222 112h112q25 0 40 14.5t15 35.5q0 20 -14 34t-37 14h-116v-98z" />
    <glyph glyph-name="uni0433" unicode="&#x433;" horiz-adv-x="470" 
d="M226 0h-171v511h398v-152h-227v-359z" />
    <glyph glyph-name="uni0434" unicode="&#x434;" horiz-adv-x="713" 
d="M599 511v-368h92v-267h-164v124h-349v-124h-165v267h86q37 78 37 247v121h463zM302 369v-57q0 -108 -27 -169h155v226h-128z" />
    <glyph glyph-name="uni0435" unicode="&#x435;" horiz-adv-x="604" 
d="M30 254q0 119 76.5 194t200.5 75q120 0 194 -70t74 -183q0 -30 -3 -53h-386q7 -46 40 -73.5t80 -27.5q80 0 111 61l134 -54q-24 -62 -90 -98.5t-153 -36.5q-125 0 -201.5 74t-76.5 192zM188 307h230q-8 41 -38.5 66.5t-74.5 25.5q-43 0 -75 -25t-42 -67z" />
    <glyph glyph-name="uni0436" unicode="&#x436;" horiz-adv-x="871" 
d="M668 252l203 -252h-199l-155 196v-196h-164v195l-154 -195h-200l205 252l-203 259h193l159 -206v206h164v-206l159 206h194z" />
    <glyph glyph-name="uni0437" unicode="&#x437;" horiz-adv-x="547" 
d="M434 285q87 -36 87 -123q0 -78 -71.5 -126t-198.5 -48q-133 0 -220 34l-1 128q32 -13 99 -23.5t119 -10.5q92 0 92 47q0 39 -63 39h-166v109h141q67 0 67 41q0 43 -78 43q-106 0 -204 -31l3 121q87 39 226 39q106 0 165.5 -38.5t59.5 -101.5q0 -65 -57 -99z" />
    <glyph glyph-name="uni0438" unicode="&#x438;" horiz-adv-x="628" 
d="M55 511h158v-276l211 276h149v-511h-158v274l-209 -274h-151v511z" />
    <glyph glyph-name="uni0439" unicode="&#x439;" horiz-adv-x="628" 
d="M55 511h158v-276l211 276h149v-511h-158v274l-209 -274h-151v511zM122 740h127q0 -90 70 -90q68 0 71 90h126q-4 -83 -57 -130q-53 -48 -140 -48t-139.5 47.5t-57.5 130.5z" />
    <glyph glyph-name="uni043A" unicode="&#x43a;" horiz-adv-x="577" 
d="M55 0v511h169v-210l160 210h193l-199 -262l200 -249h-201l-151 188l-2 1v-189h-169z" />
    <glyph glyph-name="uni043B" unicode="&#x43b;" horiz-adv-x="644" 
d="M90 -10q-48 0 -75 9v145q27 -5 41 -5q42 0 61 28q10 15 15 43t5.5 52.5t0.5 78.5v170h451v-511h-171v362h-120v-92q0 -148 -42 -207q-52 -73 -166 -73z" />
    <glyph glyph-name="uni043C" unicode="&#x43c;" horiz-adv-x="771" 
d="M216 0h-161v511h152l179 -242l179 242h151v-511h-161v276l-135 -182h-70l-134 182v-276z" />
    <glyph glyph-name="uni043D" unicode="&#x43d;" horiz-adv-x="613" 
d="M386 320v191h172v-511h-172v177h-160v-177h-171v511h171v-191h160z" />
    <glyph glyph-name="uni043E" unicode="&#x43e;" horiz-adv-x="617" 
d="M108 447q78 76 201 76t201 -76.5t78 -192.5q0 -117 -79 -191.5t-200 -74.5q-122 0 -201 75.5t-79 190.5q0 116 79 193zM224 169q34 -35 85 -35q52 0 86 34.5t34 87.5q0 51 -34 86t-85 35t-86 -35t-35 -86q0 -53 35 -87z" />
    <glyph glyph-name="uni043F" unicode="&#x43f;" horiz-adv-x="606" 
d="M225 0h-170v511h496v-511h-170v359h-156v-359z" />
    <glyph glyph-name="uni0440" unicode="&#x440;" horiz-adv-x="645" 
d="M372 520q104 0 173.5 -76t69.5 -191q0 -114 -70 -189.5t-174 -75.5q-90 0 -151 58v-247h-165v712h162v-54q63 63 155 63zM334 131q50 0 83.5 35t33.5 87t-33.5 86.5t-83.5 34.5t-84 -34.5t-34 -86.5t34 -87t84 -35z" />
    <glyph glyph-name="uni0441" unicode="&#x441;" horiz-adv-x="589" 
d="M108 449q78 74 204 74q100 0 170.5 -48.5t89.5 -136.5l-153 -42q-9 36 -39 58.5t-69 22.5q-52 0 -84.5 -34t-32.5 -88q0 -53 33 -87t85 -34q37 0 68 22.5t42 57.5l146 -61q-24 -73 -93 -119t-168 -46q-124 0 -200.5 73.5t-76.5 192.5q0 120 78 195z" />
    <glyph glyph-name="uni0442" unicode="&#x442;" horiz-adv-x="525" 
d="M18 511h489v-152h-159v-359h-171v359h-159v152z" />
    <glyph glyph-name="uni0443" unicode="&#x443;" horiz-adv-x="600" 
d="M172 512l134 -361l117 361h172l-171 -479q-16 -45 -27.5 -72.5t-35.5 -66t-50.5 -60t-69.5 -38t-96 -16.5q-60 0 -126 25v146q54 -27 108 -27q74 0 101 44l-229 544h173z" />
    <glyph glyph-name="uni0444" unicode="&#x444;" horiz-adv-x="883" 
d="M605 516q110 0 178.5 -72t68.5 -189q0 -115 -67 -187.5t-174 -72.5q-45 0 -88 15v-211h-163v211q-44 -15 -88 -15q-107 0 -174.5 72.5t-67.5 187.5q0 117 68.5 189t178.5 72q41 0 83 -12v200h163v-200q42 12 82 12zM187 253q0 -54 29.5 -88.5t75.5 -34.5q32 0 70 16v218
q-36 13 -64 13q-50 0 -80.5 -34.5t-30.5 -89.5zM591 130q45 0 74.5 34.5t29.5 88.5q0 55 -30.5 89.5t-80.5 34.5q-27 0 -63 -13v-218q37 -16 70 -16z" />
    <glyph glyph-name="uni0445" unicode="&#x445;" horiz-adv-x="570" 
d="M395 254l172 -254h-189l-94 150l-96 -150h-184l169 255l-167 256h190l88 -152l97 152h184z" />
    <glyph glyph-name="uni0446" unicode="&#x446;" horiz-adv-x="656" 
d="M541 511v-368h92v-267h-164v124h-414v511h172v-368h143v368h171z" />
    <glyph glyph-name="uni0447" unicode="&#x447;" horiz-adv-x="597" 
d="M371 310v201h171v-511h-171v172q-69 -18 -124 -18q-106 0 -161 55.5t-55 154.5v147h169v-126q0 -17 2 -29t9.5 -27.5t26.5 -23.5t48 -8q37 0 85 13z" />
    <glyph glyph-name="uni0448" unicode="&#x448;" horiz-adv-x="907" 
d="M852 0h-797v511h172v-368h141v368h171v-368h142v368h171v-511z" />
    <glyph glyph-name="uni0449" unicode="&#x449;" horiz-adv-x="966" 
d="M852 511v-368h92v-267h-164v124h-725v511h172v-368h141v368h171v-368h142v368h171z" />
    <glyph glyph-name="uni044A" unicode="&#x44a;" horiz-adv-x="681" 
d="M316 388h152q83 0 138 -54.5t55 -136.5q0 -86 -54.5 -141.5t-142.5 -55.5h-308v359h-138v152h298v-123zM316 127h115q30 0 50 20t20 51t-20 51t-51 20h-114v-142z" />
    <glyph glyph-name="uni044B" unicode="&#x44b;" horiz-adv-x="840" 
d="M55 0v511h161v-123h151q83 0 138.5 -54.5t55.5 -136.5q0 -86 -55 -141.5t-143 -55.5h-308zM785 511v-511h-169v511h169zM216 127h115q30 0 50 20t20 51t-20.5 51t-51.5 20h-113v-142z" />
    <glyph glyph-name="uni044C" unicode="&#x44c;" horiz-adv-x="580" 
d="M216 388h151q83 0 138.5 -54.5t55.5 -136.5q0 -86 -55 -141.5t-143 -55.5h-308v511h161v-123zM216 127h115q30 0 50 20t20 51t-20.5 51t-51.5 20h-113v-142z" />
    <glyph glyph-name="uni044D" unicode="&#x44d;" horiz-adv-x="545" 
d="M233 524q127 0 205.5 -73.5t78.5 -194.5q0 -122 -79.5 -195t-213.5 -73q-122 0 -202 44l28 124q83 -36 163 -36q119 0 144 84h-227v104h226q-27 82 -138 82q-64 0 -156 -33l-39 122q99 45 210 45z" />
    <glyph glyph-name="uni044E" unicode="&#x44e;" horiz-adv-x="886" 
d="M225 511v-191h80q21 91 95 147t177 56q123 0 201.5 -76.5t78.5 -192.5t-79.5 -191t-200.5 -75q-99 0 -172 52t-97 137h-83v-177h-170v511h170zM492 169q35 -35 86 -35t84.5 34.5t33.5 87.5q0 51 -33.5 86t-84.5 35q-52 0 -86.5 -35t-34.5 -86q0 -53 35 -87z" />
    <glyph glyph-name="uni044F" unicode="&#x44f;" horiz-adv-x="606" 
d="M550 515v-515h-166v131h-59l-108 -131h-201l138 149q-52 21 -81.5 65.5t-29.5 103.5q0 88 59 142.5t155 54.5h293zM282 248h102v140h-101q-35 0 -55.5 -19.5t-20.5 -51.5t20.5 -50.5t54.5 -18.5z" />
    <glyph glyph-name="uni0451" unicode="&#x451;" horiz-adv-x="604" 
d="M107 448q76 75 200 75q120 0 194 -70t74 -183q0 -30 -3 -53h-386q7 -46 40 -73.5t80 -27.5q80 0 111 61l134 -54q-24 -62 -90 -98.5t-153 -36.5q-125 0 -201.5 74t-76.5 192q0 119 77 194zM326 653q0 38 26.5 64.5t65.5 26.5t65.5 -26.5t26.5 -64.5q0 -40 -26 -66
q-27 -27 -66 -27t-65.5 26.5t-26.5 66.5zM110 653q0 38 26 64.5t65 26.5t65.5 -26.5t26.5 -64.5q0 -40 -26 -66q-27 -27 -66 -27t-65 26.5t-26 66.5zM188 307h230q-8 41 -38.5 66.5t-74.5 25.5q-43 0 -75 -25t-42 -67z" />
    <glyph glyph-name="uni0452" unicode="&#x452;" horiz-adv-x="611" 
d="M-4 640h60v68h168v-68h121v-79h-121v-86q55 47 137 47q89 0 144.5 -55t55.5 -144v-351q0 -87 -57 -139t-156 -52q-67 0 -125 20v144q42 -14 91 -14q79 0 79 84v271q0 40 -22 64.5t-58 24.5q-38 0 -63.5 -29.5t-25.5 -74.5v-271h-168v561h-60v79z" />
    <glyph glyph-name="uni0453" unicode="&#x453;" horiz-adv-x="470" 
d="M331 578h-162l46 166h188zM226 0h-171v511h398v-152h-227v-359z" />
    <glyph glyph-name="uni0454" unicode="&#x454;" horiz-adv-x="541" 
d="M496 156l28 -124q-80 -44 -201 -44q-134 0 -213.5 73t-79.5 195q0 121 78 194.5t206 73.5q112 0 209 -45l-39 -122q-92 33 -155 33q-112 0 -139 -82h226v-104h-227q25 -84 144 -84q80 0 163 36z" />
    <glyph glyph-name="uni0455" unicode="&#x455;" horiz-adv-x="547" 
d="M19 61l59 122q38 -26 94.5 -45.5t105.5 -19.5q76 0 76 37q0 19 -23 27t-96 20q-93 16 -139 50.5t-46 105.5q0 77 60.5 121t171.5 44q118 0 218 -43l-42 -125q-102 45 -183 45q-64 0 -64 -35q0 -23 48 -34q12 -3 40 -8q12 -3 19 -4q104 -20 152.5 -52.5t48.5 -106.5
q0 -79 -65.5 -125t-178.5 -46q-151 0 -256 72z" />
    <glyph glyph-name="uni0456" unicode="&#x456;" horiz-adv-x="280" 
d="M55 0v511h170v-511h-170zM41 660q0 42 28.5 70.5t70.5 28.5t70.5 -28.5t28.5 -70.5q0 -41 -28 -69q-29 -29 -71 -29t-70.5 28.5t-28.5 69.5z" />
    <glyph glyph-name="uni0457" unicode="&#x457;" horiz-adv-x="280" 
d="M55 511h169v-511h-169v511zM-61 652q0 38 26.5 64.5t65.5 26.5t66 -26.5t27 -64.5q0 -39 -27 -66t-66 -27t-65.5 27t-26.5 66zM183 717q26 26 66 26q38 0 64.5 -26.5t26.5 -64.5q0 -39 -26.5 -66t-64.5 -27q-40 0 -66.5 27t-26.5 66q0 38 27 65z" />
    <glyph glyph-name="uni0458" unicode="&#x458;" horiz-adv-x="292" 
d="M-91 -200v144q48 -13 89 -13q40 0 55 19.5t15 60.5v500h169v-547q0 -83 -54.5 -133t-151.5 -50q-63 0 -122 19zM53 660q0 42 29 70.5t71 28.5t70 -28.5t28 -70.5q0 -41 -28 -69q-28 -29 -70 -29t-71 28.5t-29 69.5z" />
    <glyph glyph-name="uni0459" unicode="&#x459;" horiz-adv-x="949" 
d="M589 388h147q83 0 138.5 -54.5t55.5 -136.5q0 -86 -55.5 -141.5t-143.5 -55.5h-313v362h-120v-92q0 -148 -42 -207q-52 -73 -166 -73q-48 0 -75 9v145q27 -5 41 -5q42 0 61 28q10 15 15 43t5.5 52.5t0.5 78.5v170h451v-123zM589 127h110q30 0 50 20t20 51t-20 51t-51 20
h-109v-142z" />
    <glyph glyph-name="uni045A" unicode="&#x45a;" horiz-adv-x="917" 
d="M558 388h147q83 0 138 -54.5t55 -136.5q0 -86 -55.5 -141.5t-143.5 -55.5h-313v177h-160v-177h-171v511h171v-191h160v191h172v-123zM558 127h109q30 0 50.5 20t20.5 51t-20.5 51t-51.5 20h-108v-142z" />
    <glyph glyph-name="uni045B" unicode="&#x45b;" horiz-adv-x="610" 
d="M55 640v68h169v-68h112v-79h-112v-86q57 47 137 47q89 0 144.5 -55t55.5 -144v-323h-168v286q0 40 -22 64.5t-58 24.5q-38 0 -63.5 -29.5t-25.5 -74.5v-271h-169v561h-67v79h67z" />
    <glyph glyph-name="uni045C" unicode="&#x45c;" horiz-adv-x="577" 
d="M55 511h169v-210l160 210h193l-199 -262l200 -249h-201l-151 188l-2 1v-189h-169v511zM224 578l46 166h188l-72 -166h-162z" />
    <glyph glyph-name="uni045E" unicode="&#x45e;" horiz-adv-x="600" 
d="M172 512l134 -361l117 361h172l-171 -479q-16 -45 -27.5 -72.5t-35.5 -66t-50.5 -60t-69.5 -38t-96 -16.5q-60 0 -126 25v146q54 -27 108 -27q74 0 101 44l-229 544h173zM232 740q1 -90 70 -90q70 0 71 90h126q-4 -83 -57 -130.5t-140 -47.5q-86 0 -139 47.5t-57 130.5
h126z" />
    <glyph glyph-name="uni045F" unicode="&#x45f;" horiz-adv-x="607" 
d="M381 511h171v-511h-167v-124h-163v124h-167v511h172v-368h154v368z" />
    <glyph glyph-name="uni0490" unicode="&#x490;" horiz-adv-x="527" 
d="M339 669v132h171v-281h-270v-520h-176v669h275z" />
    <glyph glyph-name="uni0491" unicode="&#x491;" horiz-adv-x="470" 
d="M290 511v119h163v-271h-227v-359h-171v511h235z" />
    <glyph glyph-name="Wgrave" unicode="&#x1e80;" horiz-adv-x="986" 
d="M193 669l99 -452l122 452h158l125 -447l97 447h182l-184 -669h-185l-114 423l-116 -423h-185l-181 669h182zM521 909l58 -183h-176l-76 183h194z" />
    <glyph glyph-name="wgrave" unicode="&#x1e81;" horiz-adv-x="844" 
d="M185 511l75 -303l89 303h146l90 -297l72 297h182l-158 -512h-166l-92 311l-92 -311h-167l-160 512h181zM455 745l47 -166h-162l-73 166h188z" />
    <glyph glyph-name="Wacute" unicode="&#x1e82;" horiz-adv-x="986" 
d="M193 669l99 -452l122 452h158l125 -447l97 447h182l-184 -669h-185l-114 423l-116 -423h-185l-181 669h182zM404 726l57 183h194l-76 -183h-175z" />
    <glyph glyph-name="wacute" unicode="&#x1e83;" horiz-adv-x="844" 
d="M185 511l75 -303l89 303h146l90 -297l72 297h182l-158 -512h-166l-92 311l-92 -311h-167l-160 512h181zM343 578l46 166h188l-72 -166h-162z" />
    <glyph glyph-name="Wdieresis" unicode="&#x1e84;" horiz-adv-x="986" 
d="M193 669l99 -452l122 452h158l125 -447l97 447h182l-184 -669h-185l-114 423l-116 -423h-185l-181 669h182zM509 831q0 41 28 68.5t69 27.5t69 -28t28 -68q0 -41 -28 -69q-28 -29 -69 -29t-69 28.5t-28 69.5zM309 899q28 28 69 28q40 0 68 -27.5t28 -68.5t-28 -69.5
t-68 -28.5q-41 0 -69.5 28.5t-28.5 69.5q0 40 29 68z" />
    <glyph glyph-name="wdieresis" unicode="&#x1e85;" horiz-adv-x="844" 
d="M185 511l75 -303l89 303h146l90 -297l72 297h182l-158 -512h-166l-92 311l-92 -311h-167l-160 512h181zM248 717q26 26 65 26t66 -26.5t27 -64.5q0 -39 -27 -66t-66 -27t-65 27t-26 66q0 38 26 65zM438 652q0 38 27 64.5t65 26.5t65 -26.5t27 -64.5q0 -39 -27 -66
t-65 -27t-65 27t-27 66z" />
    <glyph glyph-name="Germandbls" unicode="&#x1e9e;" horiz-adv-x="685" 
d="M447 -11q-81 0 -141 27v145q55 -25 102 -25q45 0 67 17.5t22 42.5q0 20 -14.5 37t-35.5 31t-42 29.5t-35.5 40t-14.5 55.5q0 42 29 74.5t81 47.5q-41 13 -80 13q-146 0 -146 -143v-381h-175v410q0 125 79.5 197.5t230.5 72.5q74 0 134 -18t135 -53l-60 -146
q-34 -2 -58.5 -19.5t-24.5 -43.5q0 -17 12.5 -32.5t31.5 -27t41.5 -28t41.5 -34.5t31.5 -46.5t12.5 -62.5q0 -80 -59.5 -130t-164.5 -50z" />
    <glyph glyph-name="Ygrave" unicode="&#x1ef2;" horiz-adv-x="667" 
d="M203 669l129 -287l135 287h203l-250 -470v-199h-175v199l-244 470h202zM365 909l57 -183h-176l-75 183h194z" />
    <glyph glyph-name="ygrave" unicode="&#x1ef3;" horiz-adv-x="600" 
d="M172 512l134 -361l117 361h172l-171 -479q-16 -45 -27.5 -72.5t-35.5 -66t-50.5 -60t-69.5 -38t-96 -16.5q-60 0 -126 25v146q54 -27 108 -27q74 0 101 44l-229 544h173zM329 745l47 -165h-163l-72 165h188z" />
    <glyph glyph-name="uni2009" unicode="&#x2009;" horiz-adv-x="96" 
 />
    <glyph glyph-name="endash" unicode="&#x2013;" horiz-adv-x="641" 
d="M587 217h-534v142h534v-142z" />
    <glyph glyph-name="emdash" unicode="&#x2014;" horiz-adv-x="990" 
d="M936 217h-883v142h883v-142z" />
    <glyph glyph-name="quoteleft" unicode="&#x2018;" horiz-adv-x="298" 
d="M138 702h137l-66 -280h-187z" />
    <glyph glyph-name="quoteright" unicode="&#x2019;" horiz-adv-x="293" 
d="M168 423h-137l66 279h187z" />
    <glyph glyph-name="quotesinglbase" unicode="&#x201a;" horiz-adv-x="287" 
d="M136 -156h-137l66 280h187z" />
    <glyph glyph-name="quotedblleft" unicode="&#x201c;" horiz-adv-x="541" 
d="M138 702h137l-66 -280h-187zM381 702h137l-67 -280h-186z" />
    <glyph glyph-name="quotedblright" unicode="&#x201d;" horiz-adv-x="536" 
d="M168 423h-137l66 279h187zM411 423h-137l66 279h187z" />
    <glyph glyph-name="quotedblbase" unicode="&#x201e;" horiz-adv-x="530" 
d="M136 -156h-137l66 280h187zM379 -156h-138l67 280h187z" />
    <glyph glyph-name="dagger" unicode="&#x2020;" horiz-adv-x="554" 
d="M351 571h174v-143h-174v-329h-147v329h-175v143h175v166h147v-166z" />
    <glyph glyph-name="daggerdbl" unicode="&#x2021;" horiz-adv-x="581" 
d="M538 562v-144h-173v-119h173v-143h-173v-187h-148v187h-174v143h174v119h-174v144h174v161h148v-161h173z" />
    <glyph glyph-name="bullet" unicode="&#x2022;" horiz-adv-x="434" 
d="M218 166q-68 0 -114.5 47t-46.5 114t46.5 113.5t114.5 46.5t114 -46.5t46 -113.5q0 -68 -46.5 -114.5t-113.5 -46.5z" />
    <glyph glyph-name="ellipsis" unicode="&#x2026;" horiz-adv-x="752" 
d="M133 -13q-41 0 -69 28t-28 68q0 41 28 68.5t69 27.5t68.5 -27.5t27.5 -68.5q0 -40 -28 -68t-68 -28zM376 -13q-40 0 -68 28t-28 68q0 41 28 68.5t68 27.5t68 -27.5t28 -68.5q0 -40 -28 -68t-68 -28zM619 -13q-40 0 -68.5 28t-28.5 68t28 68t69 28t68.5 -27.5t27.5 -68.5
q0 -40 -28 -68t-68 -28z" />
    <glyph glyph-name="perthousand" unicode="&#x2030;" horiz-adv-x="1179" 
d="M194 343q-72 0 -119 48t-47 121t47 120.5t119 47.5q73 0 120 -47.5t47 -120.5t-47 -121t-120 -48zM214 0h-132l504 669h132zM195 439q28 0 45 20.5t17 52.5t-17 52.5t-45 20.5t-45 -20.5t-17 -52.5t17 -52.5t45 -20.5zM616 -11q-72 0 -119 48t-47 121q0 72 47 119.5
t119 47.5q73 0 120 -47.5t47 -119.5q0 -74 -47 -121.5t-120 -47.5zM988 -11q-72 0 -119.5 48t-47.5 121q0 72 47.5 119.5t119.5 47.5q73 0 120 -47.5t47 -119.5q0 -74 -47 -121.5t-120 -47.5zM617 85q28 0 44.5 20t16.5 53q0 32 -16.5 52.5t-44.5 20.5t-45 -20.5t-17 -52.5
q0 -33 17 -53t45 -20zM989 85q27 0 44 20t17 53q0 32 -17 52.5t-44 20.5q-28 0 -45.5 -20.5t-17.5 -52.5q0 -33 17.5 -53t45.5 -20z" />
    <glyph glyph-name="guilsinglleft" unicode="&#x2039;" horiz-adv-x="363" 
d="M329 27h-186l-115 223l123 223h186l-124 -223z" />
    <glyph glyph-name="guilsinglright" unicode="&#x203a;" horiz-adv-x="363" 
d="M335 250l-114 -223h-187l117 223l-125 223h186z" />
    <glyph glyph-name="fraction" unicode="&#x2044;" horiz-adv-x="178" 
d="M-88 0h-126l485 669h122z" />
    <glyph glyph-name="uni2070" unicode="&#x2070;" horiz-adv-x="419" 
d="M209 438q-78 0 -131 52.5t-53 131.5t53 132.5t131 53.5t131 -53.5t53 -132.5t-53 -131.5t-131 -52.5zM209 527q38 0 64 27.5t26 68.5q0 40 -26 67.5t-64 27.5t-64 -27.5t-26 -67.5q0 -41 26 -68.5t64 -27.5z" />
    <glyph glyph-name="uni2074" unicode="&#x2074;" horiz-adv-x="378" 
d="M311 585h47v-72h-47v-70h-97v70h-198v61l146 225h149v-214zM214 734l-92 -149h92v149z" />
    <glyph glyph-name="uni2075" unicode="&#x2075;" horiz-adv-x="352" 
d="M194 681q62 0 99.5 -32.5t37.5 -84.5q0 -54 -42.5 -90t-113.5 -36q-61 0 -104 27t-55 78l89 21q5 -20 23.5 -34t42.5 -14q26 0 43.5 14.5t17.5 37.5q0 22 -17 36t-42 14q-40 0 -60 -28l-80 39l31 175h247v-79h-174l-12 -60q29 16 69 16z" />
    <glyph glyph-name="uni2076" unicode="&#x2076;" horiz-adv-x="353" 
d="M208 689q55 0 91.5 -33.5t36.5 -84.5q0 -59 -44 -96t-112 -37q-69 0 -114 37.5t-45 97.5q0 37 14 65t42 61l88 105h113l-100 -118q14 3 30 3zM178 515q26 0 43.5 15.5t17.5 37.5q0 23 -17.5 38.5t-43.5 15.5q-25 0 -42.5 -15t-17.5 -38t17 -38.5t43 -15.5z" />
    <glyph glyph-name="uni2077" unicode="&#x2077;" horiz-adv-x="308" 
d="M20 720v84h271v-72l-145 -289h-110l145 277h-161z" />
    <glyph glyph-name="uni2078" unicode="&#x2078;" horiz-adv-x="370" 
d="M280 637q31 -12 48.5 -35.5t17.5 -53.5q0 -48 -44.5 -79t-116.5 -31t-116.5 31.5t-44.5 80.5q0 61 65 87q-48 24 -48 70q0 44 40.5 73t102.5 29q63 0 103 -29t40 -73q0 -47 -47 -70zM185 739q-24 0 -40 -12t-16 -30t16 -29.5t39 -11.5q24 0 40.5 12t16.5 30
q0 17 -16.5 29t-39.5 12zM184 508q26 0 44.5 13.5t18.5 33.5t-18 33.5t-44 13.5t-44.5 -13.5t-18.5 -33.5t18 -33.5t44 -13.5z" />
    <glyph glyph-name="uni2079" unicode="&#x2079;" horiz-adv-x="348" 
d="M171 809q69 0 113.5 -38.5t44.5 -97.5q0 -9 -1 -18t-4 -18t-5 -15.5t-8.5 -17t-8.5 -14.5t-11 -16.5t-11.5 -15.5t-14 -17.5t-13.5 -17.5l-62 -80h-116l91 117q-14 -2 -21 -2q-55 0 -91.5 33.5t-36.5 84.5q0 57 43.5 95t111.5 38zM112 678q0 -23 17 -38t42 -15
q26 0 43 15t17 38t-17 38t-43 15t-42.5 -15t-16.5 -38z" />
    <glyph glyph-name="uni2080" unicode="&#x2080;" horiz-adv-x="419" 
d="M209 -161q-78 0 -131 53t-53 132t53 132.5t131 53.5t131 -53.5t53 -132.5t-53 -132t-131 -53zM209 -71q38 0 64 27.5t26 68.5q0 40 -26 67.5t-64 27.5t-64 -27.5t-26 -67.5q0 -41 26 -68.5t64 -27.5z" />
    <glyph glyph-name="uni2081" unicode="&#x2081;" horiz-adv-x="356" 
d="M238 206v-278h103v-83h-311v83h109v174l-106 -30v91l138 43h67z" />
    <glyph glyph-name="uni2082" unicode="&#x2082;" horiz-adv-x="361" 
d="M254 -29l-64 -45h143v-81h-304v68l138 101q2 1 8.5 6t9 6.5t8 6t7.5 6.5t6.5 6t6.5 7t5 7t4 8l2 8t1 9q0 19 -13 31t-35 12q-25 0 -40.5 -18t-17.5 -44l-96 12q3 61 47 97t110 36q68 0 108 -34t40 -88q0 -66 -74 -117z" />
    <glyph glyph-name="uni2083" unicode="&#x2083;" horiz-adv-x="368" 
d="M323 127l-87 -55q46 -4 77 -31.5t31 -74.5q0 -56 -46.5 -91t-121.5 -35q-65 0 -108.5 27.5t-50.5 75.5l86 28q5 -23 25 -38t48 -15q27 0 46 15.5t19 38.5q0 22 -18 36.5t-47 14.5q-22 0 -53 -14l-34 49l108 66h-159v82h285v-79z" />
    <glyph glyph-name="uni2084" unicode="&#x2084;" horiz-adv-x="378" 
d="M311 -14h47v-71h-47v-70h-97v70h-198v61l146 224h149v-214zM214 136l-93 -150h93v150z" />
    <glyph glyph-name="uni2085" unicode="&#x2085;" horiz-adv-x="352" 
d="M195 82q62 0 99 -32t37 -84q0 -55 -42.5 -91t-113.5 -36q-61 0 -104 27.5t-55 78.5l89 21q5 -20 23.5 -34t42.5 -14q26 0 43.5 14.5t17.5 37.5q0 22 -17 36t-42 14q-40 0 -60 -28l-80 38l31 176h247v-80h-174l-12 -59q30 15 70 15z" />
    <glyph glyph-name="uni2086" unicode="&#x2086;" horiz-adv-x="353" 
d="M208 91q55 0 91.5 -34t36.5 -85q0 -59 -44.5 -96t-111.5 -37q-69 0 -114 38t-45 98q0 37 14 65t42 61l88 105h113l-100 -118q14 3 30 3zM178 -83q26 0 43.5 15.5t17.5 37.5q0 23 -17.5 38t-43.5 15t-43 -15t-17 -38t17.5 -38t42.5 -15z" />
    <glyph glyph-name="uni2087" unicode="&#x2087;" horiz-adv-x="308" 
d="M20 122v84h271v-73l-145 -288h-110l145 277h-161z" />
    <glyph glyph-name="uni2088" unicode="&#x2088;" horiz-adv-x="370" 
d="M280 38q66 -25 66 -88q0 -48 -44.5 -79.5t-116.5 -31.5t-116.5 32t-44.5 81q0 27 17 50.5t48 35.5q-48 24 -48 71q0 43 40.5 72t102.5 29q63 0 103 -28.5t40 -72.5q0 -47 -47 -71zM185 141q-24 0 -40 -12.5t-16 -29.5q0 -18 16 -29.5t39 -11.5q24 0 40.5 11.5t16.5 29.5
q0 17 -16.5 29.5t-39.5 12.5zM184 -90q26 0 44.5 13.5t18.5 33.5q0 19 -18 32.5t-44 13.5t-44.5 -13.5t-18.5 -32.5q0 -20 18 -33.5t44 -13.5z" />
    <glyph glyph-name="uni2089" unicode="&#x2089;" horiz-adv-x="348" 
d="M171 210q69 0 113.5 -38t44.5 -98q0 -10 -2 -20.5t-4 -18.5t-7.5 -19t-9 -17t-12 -18.5t-12 -17t-15 -19t-15.5 -19.5l-62 -80h-116l91 117q-7 -2 -21 -2q-55 0 -91.5 33.5t-36.5 84.5q0 57 43.5 94.5t111.5 37.5zM112 80q0 -23 17 -38t42 -15q26 0 43 15t17 38t-17 37.5
t-43 14.5t-42.5 -15t-16.5 -37z" />
    <glyph glyph-name="Euro" unicode="&#x20ac;" horiz-adv-x="683" 
d="M464 128q100 0 177 34v-137q-31 -16 -88 -27t-111 -11q-132 0 -221 68t-117 181h-76v71h66q-1 8 -1 25t1 25h-66v72h76q29 116 118 184.5t213 68.5q55 0 108 -13.5t86 -36.5v-138q-33 22 -82.5 34.5t-92.5 12.5q-65 0 -113 -30t-72 -82h267v-72h-287q-1 -8 -1 -26
q0 -16 1 -24h287v-71h-268q52 -108 196 -108z" />
    <glyph glyph-name="uni20B4" unicode="&#x20b4;" horiz-adv-x="682" 
d="M647 444v-74h-120q-34 -26 -103 -59h223v-74h-370q-13 -17 -13 -41q0 -29 26 -45t71 -16q49 0 116 9t108 23l8 -136q-112 -42 -236 -42q-259 0 -259 186q0 36 10 62h-78v74h128q36 32 99 59h-227v74h392q9 14 9 36q0 30 -27.5 46t-74.5 16q-91 0 -182 -31l-11 131
q106 38 198 38q125 0 192 -46t67 -138q0 -26 -8 -52h62z" />
    <glyph glyph-name="uni20BD" unicode="&#x20bd;" horiz-adv-x="698" 
d="M439 231h-146v-54h191v-89h-191v-88h-174v88h-78v89h78v54h-78v105h78v333h323q98 0 162 -62t64 -157q0 -97 -63 -158t-166 -61zM401 528h-108v-192h106q44 0 72 27t28 69q0 41 -27.5 68.5t-70.5 27.5z" />
    <glyph glyph-name="uni20BF" unicode="&#x20bf;" horiz-adv-x="686" 
d="M68 669h121v116h105v-116h63v116h104v-119q80 -10 122 -58t42 -116q0 -45 -21.5 -80t-60.5 -52q51 -16 80.5 -57t29.5 -102q0 -82 -48 -133t-142 -64v-118h-105v114h-62v-114h-106v114h-122v669zM397 139q37 0 59 20.5t22 52.5q0 30 -21 50t-53 20h-163v-143h156z
M382 397q33 0 55 17.5t22 48.5q0 30 -20.5 49t-51.5 19h-146v-134h141z" />
    <glyph glyph-name="uni2116" unicode="&#x2116;" horiz-adv-x="1198" 
d="M232 669l283 -400v400h166v-669h-160l-287 398v-398h-166v669h164zM768 476q0 85 56 140.5t142 55.5t142.5 -56t56.5 -141q0 -83 -56 -138q-57 -55 -143 -55t-142 55t-56 139zM1142 231v-97h-351v97h351zM899 408q27 -29 68 -29q40 0 67 28.5t27 69.5t-27 69t-67 28
q-41 0 -68.5 -28t-27.5 -69t28 -69z" />
    <glyph glyph-name="trademark" unicode="&#x2122;" horiz-adv-x="736" 
d="M115 584h-86v85h262v-85h-88v-214h-88v214zM501 520l86 149h88v-299h-82v151l-62 -98h-58l-64 103v-156h-84v299h92z" />
    <glyph glyph-name="estimated" unicode="&#x212e;" horiz-adv-x="861" 
d="M436 -14q-169 0 -282.5 99t-113.5 248q0 148 114.5 248t281.5 100q165 0 281.5 -98.5t116.5 -254.5v-23h-627v-208q36 -29 101.5 -49t127.5 -20q86 0 166 30t132 84l30 -28q-62 -61 -149.5 -94.5t-178.5 -33.5zM207 570v-220h460v220q-90 70 -231 70q-134 0 -229 -70z
" />
    <glyph glyph-name="arrowleft" unicode="&#x2190;" horiz-adv-x="740" 
d="M359 397h342v-155h-342l64 -65q27 -27 27 -64t-26.5 -64t-65.5 -27t-65 26l-270 272l271 271q27 27 68 27q37 0 63 -28.5t26 -64.5t-27 -63z" />
    <glyph glyph-name="arrowup" unicode="&#x2191;" horiz-adv-x="643" 
d="M321 649l272 -270q27 -27 27 -65q0 -39 -27.5 -65t-64.5 -26q-38 0 -65 27l-64 64v-343h-155v342l-64 -64q-28 -28 -64 -28t-64.5 26.5t-28.5 63.5q0 40 27 67z" />
    <glyph glyph-name="arrowright" unicode="&#x2192;" horiz-adv-x="740" 
d="M445 591l272 -271l-270 -272q-26 -26 -65 -26t-65 27t-26 64q0 38 26 64l64 65h-342v155h343l-65 65q-28 28 -28 63q0 36 26 64.5t63 28.5q40 0 67 -27z" />
    <glyph glyph-name="arrowdown" unicode="&#x2193;" horiz-adv-x="643" 
d="M528 378q37 0 64.5 -26t27.5 -65q0 -38 -27 -65l-272 -270l-271 271q-27 27 -27 67q0 37 28.5 63.5t64.5 26.5t64 -28l64 -64v341h155v-342l64 64q27 27 65 27z" />
    <glyph glyph-name="arrowboth" unicode="&#x2194;" horiz-adv-x="1157" 
d="M862 591l272 -271l-270 -272q-26 -26 -65 -26t-65 27t-26 64q0 38 26 64l65 65h-440l64 -65q27 -27 27 -64t-26.5 -64t-65.5 -27t-65 26l-270 272l271 271q27 27 68 27q37 0 63 -28.5t26 -64.5t-27 -63l-65 -65h440l-65 65q-28 28 -28 63q0 36 26.5 64.5t63.5 28.5
q39 0 66 -27z" />
    <glyph glyph-name="arrowupdn" unicode="&#x2195;" horiz-adv-x="651" 
d="M532 183q37 0 64.5 -26.5t27.5 -65.5q0 -37 -27 -64l-271 -270l-271 271q-27 27 -27 66q0 38 28 64.5t65 26.5q35 0 63 -28l64 -64v336l-65 -65q-27 -27 -63 -27q-37 0 -65 26.5t-28 63.5q0 40 27 67l271 271l271 -271q27 -27 27 -64q0 -39 -27.5 -65.5t-63.5 -26.5
q-37 0 -64 27l-65 64v-338l66 65q27 27 63 27z" />
    <glyph glyph-name="uni2196" unicode="&#x2196;" horiz-adv-x="682" 
d="M354 423l307 -307l-110 -109l-307 306v-91q0 -36 -25 -65q-25 -27 -65 -27q-39 0 -66 27t-27 65v384h383q36 0 65 -27q27 -27 27 -63q0 -40 -27 -67q-26 -26 -65 -26h-90z" />
    <glyph glyph-name="uni2197" unicode="&#x2197;" horiz-adv-x="681" 
d="M236 601h384v-383q0 -39 -26 -65q-27 -27 -64 -27t-66 27q-26 24 -26 64v91l-307 -308l-110 110l307 308h-92q-38 0 -64 24q-27 26 -27 65t27 66q26 28 64 28z" />
    <glyph glyph-name="uni2198" unicode="&#x2198;" horiz-adv-x="681" 
d="M594 448q27 -25 27 -64v-383h-384q-38 0 -65 27t-27 66q0 37 28 64q27 25 64 25h91l-307 308l110 110l307 -308v91q0 37 27 64t65 27q37 0 64 -27z" />
    <glyph glyph-name="uni2199" unicode="&#x2199;" horiz-adv-x="681" 
d="M508 158q27 -25 27 -64t-27 -66t-65 -27h-383v383q0 38 26 64q27 27 64 27q38 0 65 -27q27 -26 27 -64v-90l307 307l110 -110l-307 -308h91q40 0 65 -25z" />
    <glyph glyph-name="partialdiff" unicode="&#x2202;" horiz-adv-x="632" 
d="M94 544l68 147q100 1 177.5 -19.5t124.5 -54t77 -81t41.5 -95.5t11.5 -104q0 -158 -86.5 -253t-227.5 -95q-114 0 -183 61t-69 157q0 103 76 168.5t193 65.5q61 0 122 -18q-17 67 -94 95t-231 26zM287 136q54 0 91.5 42.5t44.5 104.5q-46 18 -97 18q-58 0 -89.5 -24.5
t-31.5 -64.5q0 -34 23 -55t59 -21z" />
    <glyph glyph-name="product" unicode="&#x220f;" horiz-adv-x="756" 
d="M300 -167h-175v680h-94v156h694v-156h-95v-680h-174v680h-156v-680z" />
    <glyph glyph-name="summation" unicode="&#x2211;" horiz-adv-x="618" 
d="M581 -167h-537v146l179 271l-179 272v147h537v-156h-337l171 -263l-171 -261h337v-156z" />
    <glyph glyph-name="minus" unicode="&#x2212;" horiz-adv-x="532" 
d="M475 252h-418v142h418v-142z" />
    <glyph glyph-name="radical" unicode="&#x221a;" horiz-adv-x="686" 
d="M466 669h213v-156h-101l-229 -680h-151l-200 562h170l105 -336z" />
    <glyph glyph-name="infinity" unicode="&#x221e;" horiz-adv-x="782" 
d="M567 473q74 0 126 -52.5t52 -126.5q0 -73 -51.5 -125t-126.5 -52q-21 0 -41 5t-33 11t-30.5 19t-25 20t-25 24.5t-22.5 21.5q-2 -2 -16.5 -17t-18.5 -19t-17.5 -16.5t-20.5 -16.5l-21 -12t-25 -11t-26.5 -6t-31.5 -3q-73 0 -124.5 52t-51.5 125q0 74 51.5 126.5
t125.5 52.5q18 0 35 -3t32 -10.5t25.5 -13t25 -18t20.5 -18t21 -21.5t18 -19q2 2 19 20t21.5 21.5t20.5 18t25 18.5t25 12t31.5 10.5t33.5 2.5zM213 225q12 0 21.5 2.5t20.5 10.5t16.5 13t21 20.5t22.5 21.5q-6 7 -19.5 20.5l-18.5 18.5t-14.5 13.5t-15.5 11.5t-15 5.5
t-18 2.5q-29 0 -49 -21t-20 -50t20 -49t48 -20zM567 225q30 0 50 20t20 49q0 30 -20 50.5t-50 20.5q-9 0 -17.5 -2.5t-14.5 -5.5t-15.5 -11t-15 -13.5t-18 -18.5t-19.5 -20q50 -51 65 -60q16 -9 35 -9z" />
    <glyph glyph-name="integral" unicode="&#x222b;" horiz-adv-x="557" 
d="M122 -179q-62 0 -120 19l2 147q50 -16 83 -16q43 0 64 25t27 74l46 423q23 217 212 217q60 0 119 -18l-3 -147q-41 14 -81 14q-82 0 -92 -98l-46 -424q-23 -216 -211 -216z" />
    <glyph glyph-name="approxequal" unicode="&#x2248;" horiz-adv-x="575" 
d="M372 347q-34 0 -62.5 16t-50.5 32t-41 16q-20 0 -29.5 -13t-12.5 -46h-125q4 90 49.5 135.5t104.5 45.5q35 0 63 -16t49 -31.5t39 -15.5q21 0 33 13t16 45h124q-6 -84 -48.5 -132.5t-108.5 -48.5zM373 132q-34 0 -62.5 16t-51 31.5t-41.5 15.5q-20 0 -29 -13t-13 -46
h-124q4 91 49 136t104 45q36 0 64 -15.5t48.5 -31.5t38.5 -16q42 0 50 58h123q-5 -83 -47.5 -131.5t-108.5 -48.5z" />
    <glyph glyph-name="notequal" unicode="&#x2260;" horiz-adv-x="527" 
d="M468 495v-139h-140l-34 -76h174v-139h-236l-50 -111h-86l50 111h-89v139h151l34 76h-185v139h247l51 113h86l-51 -113h78z" />
    <glyph glyph-name="lessequal" unicode="&#x2264;" horiz-adv-x="538" 
d="M476 341v-157l-423 147v150l423 145v-157l-275 -62zM476 155v-141h-425v141h425z" />
    <glyph glyph-name="greaterequal" unicode="&#x2265;" horiz-adv-x="538" 
d="M486 331l-424 -147v157l276 66l-276 62v157l424 -145v-150zM488 14h-426v141h426v-141z" />
    <glyph glyph-name="lozenge" unicode="&#x25ca;" horiz-adv-x="674" 
d="M421 0h-169l-226 335l226 334h169l227 -335zM217 335l120 -191l120 190l-120 191z" />
    <glyph glyph-name="uni2619" unicode="&#x2619;" horiz-adv-x="961" 
d="M736 402q87 -8 141 -59.5t54 -121.5q0 -61 -38.5 -93.5t-91.5 -32.5q-50 0 -81.5 25.5t-31.5 62.5q0 21 11.5 34t29.5 13q19 0 37 -15q-5 -13 -5 -27q0 -23 16 -37t35 -14q22 0 41 15t25 44q-55 5 -104 53.5t-76 113.5q-113 -7 -225 -58q3 1 10 1q37 0 62 -27t25 -63
q0 -46 -46 -79.5t-141 -33.5q-93 0 -176.5 33t-132 84.5t-48.5 105.5q0 27 13 44t31 17q31 0 49 -44q-35 -17 -35 -53q0 -23 16 -40.5t41 -17.5q40 0 62 50q8 17 18 52t20 62.5t25 55.5t39 44t57 16q42 0 69.5 -28.5t27.5 -71.5q0 -68 -73 -129l6 -9q1 1 3 2
q149 115 289 126q-66 186 -128 186q-10 0 -16.5 -5.5t-6.5 -13.5q0 -6 8 -19t8 -24q0 -16 -11.5 -26.5t-29.5 -10.5q-20 0 -34 13.5t-14 36.5q0 33 28 56.5t73 23.5q30 0 54 -12t39.5 -27.5t31 -46t23.5 -52.5t21 -61zM751 360q43 -110 129 -139q0 51 -35 89.5t-94 49.5z
" />
    <glyph glyph-name="uni2764" unicode="&#x2764;" horiz-adv-x="700" 
d="M350 67q-50 53 -116 104.5t-105.5 79.5t-68 68.5t-28.5 88.5q0 67 42.5 110t104.5 43q63 0 106.5 -48t56.5 -137h14q16 90 60 137.5t104 47.5q62 0 104.5 -43t42.5 -110q0 -39 -17 -71t-49.5 -60.5t-69 -54.5t-88 -68t-93.5 -87z" />
    <glyph glyph-name="uni2766" unicode="&#x2766;" horiz-adv-x="598" 
d="M451 477q-43 0 -95 19q-2 -32 -16 -83q34 28 78 28q42 0 70 -28t28 -69q0 -35 -27 -66.5t-59.5 -51t-59.5 -45t-27 -48.5q0 -17 11.5 -26.5t28.5 -9.5q21 0 35.5 15.5t13.5 46.5q21 6 35 6q20 0 30.5 -9.5t10.5 -23.5q0 -29 -34 -55t-91 -26q-70 0 -146.5 38.5
t-130 104.5t-53.5 135q0 48 30 79t75 31q53 0 83.5 -38.5t25.5 -102.5l12 -1q3 22 11 45q4 16 13.5 49t14.5 59t5 51v10q-3 1 -18.5 9.5t-21.5 12t-21 11t-25 10.5t-23.5 7.5t-25.5 6.5t-24 2q-47 0 -47 -29q0 -13 12 -21.5t30 -8.5q-5 -26 -20.5 -38t-35.5 -12
q-24 0 -44 16.5t-20 46.5q0 31 24.5 53.5t71.5 27.5q-8 13 -8 27q0 29 27.5 50t66.5 21q65 0 99 -49t37 -118q56 -28 91 -28q21 0 33 8.5t12 18.5q0 7 -20.5 18t-20.5 32t14.5 34t37.5 13q27 0 45.5 -18.5t18.5 -46.5q0 -38 -32.5 -64t-84.5 -26zM217 599q37 -9 100 -43
q-10 47 -34 77t-62 30q-18 0 -28 -8t-10 -21q0 -27 34 -35z" />
    <glyph glyph-name="uni2767" unicode="&#x2767;" horiz-adv-x="960" 
d="M890 387q18 0 31 -17t13 -44q0 -83 -108.5 -153t-247.5 -70q-96 0 -142.5 33.5t-46.5 79.5q0 36 25.5 63t62.5 27q7 0 10 -1q-115 51 -226 58q-27 -64 -75.5 -112.5t-103.5 -54.5q6 -29 25 -44t41 -15q19 0 35 14t16 38q0 9 -5 26q18 15 37 15q18 0 29.5 -13t11.5 -34
q0 -37 -31.5 -62.5t-82.5 -25.5q-52 0 -91 33t-39 93q0 70 54.5 121.5t141.5 59.5q37 111 58 147q44 69 117 70q44 0 72.5 -23.5t28.5 -56.5q0 -23 -14 -36.5t-34 -13.5q-18 0 -29.5 10.5t-11.5 26.5q0 11 8 24t8 19q0 19 -23 19q-62 0 -128 -186q140 -11 290 -127l1 -1
q3 3 7 9q-74 61 -74 129q0 43 27.5 71.5t70.5 28.5q33 0 57 -16t39 -44t25 -55.5t20 -62.5t18 -52q22 -50 62 -50q25 0 41 17.5t16 40.5q0 37 -35 53q18 44 49 44zM80 221q86 28 129 139q-59 -11 -94 -49t-35 -90z" />
    <glyph glyph-name="NULL.1" horiz-adv-x="0" 
 />
    <glyph glyph-name="J_acutecomb" horiz-adv-x="497" 
d="M143 151q120 0 120 116v402h175v-434q0 -119 -70 -182.5t-193 -63.5q-80 0 -156 23v155q67 -16 124 -16zM324 909h195l-76 -183h-176z" />
    <glyph glyph-name="Iacute_J.loclNLD" horiz-adv-x="789" 
d="M311 167q67 -16 124 -16q119 0 119 116v402h176v-434q0 -119 -70 -182.5t-193 -63.5q-82 0 -156 23v155zM64 669h176v-669h-176v669zM554 726l58 183h194l-76 -183h-176zM126 909h194l-75 -183h-176z" />
    <glyph glyph-name="G.ss01" horiz-adv-x="752" 
d="M132 584q100 97 255 97q182 0 288 -119l-131 -112q-56 71 -155 71q-83 0 -132 -53.5t-49 -135.5t50.5 -133.5t140.5 -51.5q79 0 146 45v74h-170v127h337v-279q-54 -56 -139 -91t-183 -35q-161 0 -259.5 97.5t-98.5 248.5q0 153 100 250z" />
    <glyph glyph-name="Gbreve.ss01" horiz-adv-x="752" 
d="M32 334q0 153 100 250t255 97q182 0 288 -119l-131 -112q-56 71 -155 71q-83 0 -132 -53.5t-49 -135.5t50.5 -133.5t140.5 -51.5q79 0 146 45v74h-170v127h337v-279q-54 -56 -139 -91t-183 -35q-161 0 -259.5 97.5t-98.5 248.5zM172 915h139q0 -35 21.5 -57t55.5 -22
t55.5 22t21.5 57h139q-2 -89 -60 -138q-59 -50 -156 -50t-155.5 49.5t-60.5 138.5z" />
    <glyph glyph-name="Gcircumflex.ss01" horiz-adv-x="752" 
d="M132 584q100 97 255 97q182 0 288 -119l-131 -112q-56 71 -155 71q-83 0 -132 -53.5t-49 -135.5t50.5 -133.5t140.5 -51.5q79 0 146 45v74h-170v127h337v-279q-54 -56 -139 -91t-183 -35q-161 0 -259.5 97.5t-98.5 248.5q0 153 100 250zM163 727l138 190h175l137 -190
h-166l-58 89l-60 -89h-166z" />
    <glyph glyph-name="uni0122.ss01" horiz-adv-x="752" 
d="M132 584q100 97 255 97q182 0 288 -119l-131 -112q-56 71 -155 71q-83 0 -132 -53.5t-49 -135.5t50.5 -133.5t140.5 -51.5q79 0 146 45v74h-170v127h337v-279q-54 -56 -139 -91t-183 -35q-161 0 -259.5 97.5t-98.5 248.5q0 153 100 250zM259 -231l32 185h180l-46 -185
h-166z" />
    <glyph glyph-name="Gdotaccent.ss01" horiz-adv-x="752" 
d="M32 334q0 153 100 250t255 97q182 0 288 -119l-131 -112q-56 71 -155 71q-83 0 -132 -53.5t-49 -135.5t50.5 -133.5t140.5 -51.5q79 0 146 45v74h-170v127h337v-279q-54 -56 -139 -91t-183 -35q-161 0 -259.5 97.5t-98.5 248.5zM296 822q0 39 27 66t66 27q40 0 67 -27
t27 -66t-27 -65.5t-67 -26.5q-39 0 -66 26.5t-27 65.5z" />
    <glyph glyph-name="E.ss07" horiz-adv-x="608" 
d="M52 669h504v-150h-504v150zM52 0v150h504v-150h-504zM556 407v-143h-504v143h504z" />
    <glyph glyph-name="Eacute.ss07" horiz-adv-x="608" 
d="M52 150h504v-150h-504v150zM52 669h504v-150h-504v150zM52 407h504v-143h-504v143zM275 909h194l-76 -183h-175z" />
    <glyph glyph-name="Ebreve.ss07" horiz-adv-x="608" 
d="M556 669v-150h-504v150h504zM52 150h504v-150h-504v150zM52 407h504v-143h-504v143zM88 915h140q0 -35 21.5 -57t55.5 -22t55 22t21 57h139q-1 -89 -60 -138.5t-155 -49.5q-97 0 -155.5 49.5t-61.5 138.5z" />
    <glyph glyph-name="Ecaron.ss07" horiz-adv-x="608" 
d="M52 519v150h504v-150h-504zM52 150h504v-150h-504v150zM52 407h504v-143h-504v143zM80 917h166l60 -89l59 89h166l-138 -190h-175z" />
    <glyph glyph-name="Ecircumflex.ss07" horiz-adv-x="608" 
d="M52 519v150h504v-150h-504zM52 150h504v-150h-504v150zM52 264v143h504v-143h-504zM79 727l139 190h174l138 -190h-166l-59 89l-60 -89h-166z" />
    <glyph glyph-name="Edieresis.ss07" horiz-adv-x="608" 
d="M52 150h504v-150h-504v150zM556 669v-150h-504v150h504zM556 407v-143h-504v143h504zM94 831q0 40 28 68t69 28t69 -27.5t28 -68.5t-28 -69q-28 -29 -69 -29t-69 28.5t-28 69.5zM323 831q0 41 27.5 68.5t68.5 27.5t69.5 -28t28.5 -68q0 -41 -28.5 -69.5t-69.5 -28.5
q-40 0 -68 28.5t-28 69.5z" />
    <glyph glyph-name="Edotaccent.ss07" horiz-adv-x="608" 
d="M52 519v150h504v-150h-504zM52 150h504v-150h-504v150zM556 407v-143h-504v143h504zM212 822q0 39 27 66t67 27t67 -27t27 -66t-27 -65q-27 -27 -67 -27t-67 26.5t-27 65.5z" />
    <glyph glyph-name="Egrave.ss07" horiz-adv-x="608" 
d="M52 150h504v-150h-504v150zM52 669h504v-150h-504v150zM52 407h504v-143h-504v143zM140 909h195l58 -183h-176z" />
    <glyph glyph-name="Emacron.ss07" horiz-adv-x="608" 
d="M52 150h504v-150h-504v150zM52 669h504v-150h-504v150zM52 407h504v-143h-504v143zM114 879h383v-124h-383v124z" />
    <glyph glyph-name="Eogonek.ss07" horiz-adv-x="607" 
d="M52 150h504v-150q-101 -35 -101 -78q0 -31 36 -31q19 0 62 13l1 -109q-43 -21 -99 -21q-61 0 -95 29.5t-34 77.5q0 29 20 62t61 57h-355v150zM556 669v-150h-504v150h504zM52 407h504v-143h-504v143z" />
    <glyph glyph-name="Q.ss08" horiz-adv-x="764" 
d="M131 582q99 99 250 99t250.5 -99t99.5 -248q0 -95 -43 -172.5t-118 -123.5l149 -113l-126 -130l-238 194q-141 9 -232 106t-91 239q0 149 99 248zM253 202q52 -54 128 -54q77 0 129 53.5t52 132.5t-52 132.5t-129 53.5q-76 0 -128 -53.5t-52 -132.5t52 -132z" />
    <glyph glyph-name="Y.ss12" horiz-adv-x="652" 
d="M-1 669h180l152 -317l149 317h175l-313 -669h-185l91 181z" />
    <glyph glyph-name="Yacute.ss12" horiz-adv-x="652" 
d="M179 669l152 -317l149 317h175l-313 -669h-185l91 181l-249 488h180zM243 726l57 183h195l-76 -183h-176z" />
    <glyph glyph-name="Ycircumflex.ss12" horiz-adv-x="652" 
d="M179 669l152 -317l149 317h175l-313 -669h-185l91 181l-249 488h180zM105 727l138 190h176l137 -190h-166l-59 89l-59 -89h-167z" />
    <glyph glyph-name="Ydieresis.ss12" horiz-adv-x="652" 
d="M179 669l152 -317l149 317h175l-313 -669h-185l91 181l-249 488h180zM119 831q0 40 28.5 68t69.5 28t69 -28t28 -68q0 -41 -28 -69q-28 -29 -69 -29t-69.5 28.5t-28.5 69.5zM348 831q0 40 28.5 68t69.5 28q40 0 68 -27.5t28 -68.5t-28 -69.5t-68 -28.5q-41 0 -69.5 28.5
t-28.5 69.5z" />
    <glyph glyph-name="Ygrave.ss12" horiz-adv-x="652" 
d="M179 669l152 -317l149 317h175l-313 -669h-185l91 181l-249 488h180zM167 909h194l57 -183h-176z" />
    <glyph glyph-name="Y.ss13" horiz-adv-x="664" 
d="M211 669l144 -356l124 356h184l-195 -477q-17 -43 -35 -72.5t-50 -62.5t-81.5 -50t-115.5 -17q-64 0 -131 21v141q78 -20 120 -20q54 0 84 27l-237 510h189z" />
    <glyph glyph-name="Yacute.ss13" horiz-adv-x="664" 
d="M211 669l144 -356l124 356h184l-195 -477q-17 -43 -35 -72.5t-50 -62.5t-81.5 -50t-115.5 -17q-64 0 -131 21v141q78 -20 120 -20q54 0 84 27l-237 510h189zM316 901h195l-76 -184h-176z" />
    <glyph glyph-name="Ycircumflex.ss13" horiz-adv-x="664" 
d="M211 669l144 -356l124 356h184l-195 -477q-17 -43 -35 -72.5t-50 -62.5t-81.5 -50t-115.5 -17q-64 0 -131 21v141q78 -20 120 -20q54 0 84 27l-237 510h189zM121 719l138 190h175l138 -190h-166l-60 89l-59 -89h-166z" />
    <glyph glyph-name="Ydieresis.ss13" horiz-adv-x="664" 
d="M211 669l144 -356l124 356h184l-195 -477q-17 -43 -35 -72.5t-50 -62.5t-81.5 -50t-115.5 -17q-64 0 -131 21v141q78 -20 120 -20q54 0 84 27l-237 510h189zM135 822q0 41 28.5 69t69.5 28t69 -28t28 -69t-28.5 -69.5t-68.5 -28.5q-41 0 -69.5 29t-28.5 69zM392 891
q28 28 69 28t69 -28t28 -69t-28 -69q-29 -29 -69 -29t-68.5 28.5t-28.5 69.5t28 69z" />
    <glyph glyph-name="Ygrave.ss13" horiz-adv-x="664" 
d="M211 669l144 -356l124 356h184l-195 -477q-17 -43 -35 -72.5t-50 -62.5t-81.5 -50t-115.5 -17q-64 0 -131 21v141q78 -20 120 -20q54 0 84 27l-237 510h189zM182 901h194l58 -184h-176z" />
    <glyph glyph-name="A.ss14" horiz-adv-x="683" 
d="M235 669h214l228 -669h-186l-149 506l-149 -506h-190z" />
    <glyph glyph-name="Aacute.ss14" horiz-adv-x="683" 
d="M3 0l232 669h214l228 -669h-186l-149 506l-149 -506h-190zM311 909h194l-75 -183h-176z" />
    <glyph glyph-name="Abreve.ss14" horiz-adv-x="683" 
d="M235 669h214l228 -669h-186l-149 506l-149 -506h-190zM264 915q0 -35 21.5 -57t55.5 -22t55.5 22t21.5 57h139q-2 -89 -61 -138.5t-155 -49.5q-97 0 -155.5 49.5t-60.5 138.5h139z" />
    <glyph glyph-name="Acircumflex.ss14" horiz-adv-x="683" 
d="M3 0l232 669h214l228 -669h-186l-149 506l-149 -506h-190zM254 917h174l138 -190h-166l-58 89l-60 -89h-166z" />
    <glyph glyph-name="Adieresis.ss14" horiz-adv-x="683" 
d="M3 0l232 669h214l228 -669h-186l-149 506l-149 -506h-190zM158 899q28 28 69 28t69.5 -28t28.5 -68q0 -41 -28 -69q-29 -29 -70 -29t-69 28.5t-28 69.5q0 40 28 68zM359 831q0 40 28 68t69 28t69 -28t28 -68q0 -41 -28 -69q-28 -29 -69 -29t-69 28.5t-28 69.5z" />
    <glyph glyph-name="Agrave.ss14" horiz-adv-x="683" 
d="M3 0l232 669h214l228 -669h-186l-149 506l-149 -506h-190zM177 909h195l57 -183h-176z" />
    <glyph glyph-name="Amacron.ss14" horiz-adv-x="683" 
d="M3 0l232 669h214l228 -669h-186l-149 506l-149 -506h-190zM150 755v124h384v-124h-384z" />
    <glyph glyph-name="Aogonek.ss14" horiz-adv-x="683" 
d="M613 -109q20 0 63 13l1 -109q-44 -21 -100 -21q-60 0 -94.5 29.5t-34.5 77.5q0 29 20 62t60 57h-37l-149 506l-149 -506h-190l232 669h214l228 -669q-99 -35 -99 -78q0 -31 35 -31z" />
    <glyph glyph-name="Aring.ss14" horiz-adv-x="683" 
d="M3 0l232 669h214l228 -669h-186l-149 506l-149 -506h-190zM243 921q39 36 99 36q59 0 98.5 -36t39.5 -89q0 -54 -39.5 -89.5t-98.5 -35.5q-60 0 -99.5 35.5t-39.5 89.5q0 53 40 89zM288 830q0 -22 16 -36q15 -15 38 -15t38.5 14.5t15.5 36.5q0 23 -15.5 38.5t-38.5 15.5
t-38.5 -15.5t-15.5 -38.5z" />
    <glyph glyph-name="Atilde.ss14" horiz-adv-x="683" 
d="M235 669h214l228 -669h-186l-149 506l-149 -506h-190zM118 766q0 63 33 103.5t100 40.5q30 0 55 -9.5t38 -21t29.5 -21t32.5 -9.5q23 0 37 15.5t14 38.5v3h122q1 -9 1 -17q0 -59 -33 -105t-103 -46q-36 0 -64.5 16t-50 31.5t-40.5 15.5q-22 0 -36 -16t-14 -42h-120
q-1 8 -1 23z" />
    <glyph glyph-name="i.loclTRK" horiz-adv-x="280" 
d="M55 0v511h170v-511h-170zM46 655q0 38 27.5 65t66.5 27t66 -27t27 -65q0 -40 -27 -66q-27 -27 -66 -27t-66.5 27t-27.5 66z" />
    <glyph glyph-name="j_acutecomb" horiz-adv-x="292" 
d="M-2 -69q40 0 55 19.5t15 60.5v500h169v-547q0 -83 -54.5 -133t-151.5 -50q-63 0 -122 19v144q48 -13 89 -13zM120 744h189l-73 -166h-163z" />
    <glyph glyph-name="germandbls.calt" horiz-adv-x="685" 
d="M447 -11q-81 0 -141 27v145q55 -25 102 -25q45 0 67 17.5t22 42.5q0 20 -14.5 37t-35.5 31t-42 29.5t-35.5 40t-14.5 55.5q0 42 29 74.5t81 47.5q-41 13 -80 13q-146 0 -146 -143v-381h-175v410q0 125 79.5 197.5t230.5 72.5q74 0 134 -18t135 -53l-60 -146
q-34 -2 -58.5 -19.5t-24.5 -43.5q0 -17 12.5 -32.5t31.5 -27t41.5 -28t41.5 -34.5t31.5 -46.5t12.5 -62.5q0 -80 -59.5 -130t-164.5 -50z" />
    <glyph glyph-name="iacute_j.loclNLD" horiz-adv-x="573" 
d="M190 -56q48 -13 88 -13t55.5 19.5t15.5 60.5v500h168v-547q0 -83 -54.5 -133t-151.5 -50q-64 0 -121 19v144zM56 511h169v-511h-169v511zM348 578l47 166h187l-72 -166h-162zM60 578l48 166h187l-73 -166h-162z" />
    <glyph glyph-name="j.short" horiz-adv-x="292" 
d="M153 560q-41 0 -70.5 28.5t-29.5 69.5q0 42 29.5 71t70.5 29t70 -29t29 -71q0 -41 -29 -69.5t-70 -28.5zM-68 -200v144q37 -13 69 -13q42 0 54.5 19.5t12.5 60.5v500h169v-550q0 -81 -52.5 -130.5t-140.5 -49.5q-57 0 -112 19z" />
    <glyph glyph-name="a.ss02" horiz-adv-x="592" 
d="M85 274q60 40 164 40h134q-1 36 -23.5 56t-88.5 20q-86 0 -194 -32v130q116 35 210 35q132 0 193 -51t61 -158v-314h-152v49q-61 -61 -170 -61q-93 0 -143.5 45.5t-50.5 118.5q0 82 60 122zM183 164q0 -55 82 -55q53 0 85.5 25.5t32.5 69.5v16h-124q-37 0 -56.5 -15
t-19.5 -41z" />
    <glyph glyph-name="aacute.ss02" horiz-adv-x="592" 
d="M85 274q60 40 164 40h134q-1 36 -23.5 56t-88.5 20q-86 0 -194 -32v130q116 35 210 35q132 0 193 -51t61 -158v-314h-152v49q-61 -61 -170 -61q-93 0 -143.5 45.5t-50.5 118.5q0 82 60 122zM271 744h189l-73 -166h-162zM265 109q53 0 85.5 25.5t32.5 69.5v16h-124
q-37 0 -56.5 -15t-19.5 -41q0 -55 82 -55z" />
    <glyph glyph-name="abreve.ss02" horiz-adv-x="592" 
d="M85 274q60 40 164 40h134q-1 36 -23.5 56t-88.5 20q-86 0 -194 -32v130q116 35 210 35q132 0 193 -51t61 -158v-314h-152v49q-61 -61 -170 -61q-93 0 -143.5 45.5t-50.5 118.5q0 82 60 122zM232 745q0 -36 19 -57.5t51 -21.5q33 0 51.5 21.5t19.5 57.5h126
q-2 -82 -55 -126q-54 -45 -142 -45t-141 44.5t-56 126.5h127zM183 164q0 -55 82 -55q53 0 85.5 25.5t32.5 69.5v16h-124q-37 0 -56.5 -15t-19.5 -41z" />
    <glyph glyph-name="acircumflex.ss02" horiz-adv-x="592" 
d="M85 274q60 40 164 40h134q-1 36 -23.5 56t-88.5 20q-86 0 -194 -32v130q116 35 210 35q132 0 193 -51t61 -158v-314h-152v49q-61 -61 -170 -61q-93 0 -143.5 45.5t-50.5 118.5q0 82 60 122zM226 746h154l123 -170h-147l-53 81l-54 -81h-147zM183 164q0 -55 82 -55
q53 0 85.5 25.5t32.5 69.5v16h-124q-37 0 -56.5 -15t-19.5 -41z" />
    <glyph glyph-name="adieresis.ss02" horiz-adv-x="592" 
d="M25 152q0 82 60 122t164 40h134q-1 36 -23.5 56t-88.5 20q-86 0 -194 -32v130q116 35 210 35q132 0 193 -51t61 -158v-314h-152v49q-61 -61 -170 -61q-93 0 -143.5 45.5t-50.5 118.5zM104 652q0 38 26.5 64.5t64.5 26.5q39 0 66 -26.5t27 -64.5q0 -39 -27 -66t-66 -27
q-38 0 -64.5 27t-26.5 66zM347 717q27 26 65 26q39 0 65.5 -26.5t26.5 -64.5q0 -39 -26.5 -66t-65.5 -27q-38 0 -65 27t-27 66q0 38 27 65zM183 164q0 -55 82 -55q53 0 85.5 25.5t32.5 69.5v16h-124q-37 0 -56.5 -15t-19.5 -41z" />
    <glyph glyph-name="agrave.ss02" horiz-adv-x="592" 
d="M25 152q0 82 60 122t164 40h134q-1 36 -23.5 56t-88.5 20q-86 0 -194 -32v130q116 35 210 35q132 0 193 -51t61 -158v-314h-152v49q-61 -61 -170 -61q-93 0 -143.5 45.5t-50.5 118.5zM149 745h188l47 -166h-162zM183 164q0 -55 82 -55q53 0 85.5 25.5t32.5 69.5v16h-124
q-37 0 -56.5 -15t-19.5 -41z" />
    <glyph glyph-name="amacron.ss02" horiz-adv-x="592" 
d="M85 274q60 40 164 40h134q-1 36 -23.5 56t-88.5 20q-86 0 -194 -32v130q116 35 210 35q132 0 193 -51t61 -158v-314h-152v49q-61 -61 -170 -61q-93 0 -143.5 45.5t-50.5 118.5q0 82 60 122zM129 714h351v-113h-351v113zM265 109q53 0 85.5 25.5t32.5 69.5v16h-124
q-37 0 -56.5 -15t-19.5 -41q0 -55 82 -55z" />
    <glyph glyph-name="aogonek.ss02" horiz-adv-x="592" 
d="M85 274q60 40 164 40h134q-1 36 -23.5 56t-88.5 20q-86 0 -194 -32v130q116 35 210 35q132 0 193 -51t61 -158v-314q-100 -36 -100 -78q0 -31 35 -31q20 0 63 13l1 -109q-44 -22 -99 -22q-62 0 -96 29.5t-34 78.5q0 29 20.5 62t62.5 57h-5v49q-61 -61 -170 -61
q-93 0 -143.5 45.5t-50.5 118.5q0 82 60 122zM183 164q0 -55 82 -55q53 0 85.5 25.5t32.5 69.5v16h-124q-37 0 -56.5 -15t-19.5 -41z" />
    <glyph glyph-name="aring.ss02" horiz-adv-x="592" 
d="M85 274q60 40 164 40h134q-1 36 -23.5 56t-88.5 20q-86 0 -194 -32v130q116 35 210 35q132 0 193 -51t61 -158v-314h-152v49q-61 -61 -170 -61q-93 0 -143.5 45.5t-50.5 118.5q0 82 60 122zM167 688q0 52 38 86.5t97 34.5q58 0 96 -34.5t38 -86.5q0 -51 -38 -85
q-38 -35 -96 -35t-96.5 34.5t-38.5 85.5zM265 109q53 0 85.5 25.5t32.5 69.5v16h-124q-37 0 -56.5 -15t-19.5 -41q0 -55 82 -55zM249 688q0 -22 15 -37t38 -15t38 15t15 37t-15 37q-16 15 -38 15t-37.5 -15t-15.5 -37z" />
    <glyph glyph-name="atilde.ss02" horiz-adv-x="592" 
d="M85 274q60 40 164 40h134q-1 36 -23.5 56t-88.5 20q-86 0 -194 -32v130q116 35 210 35q132 0 193 -51t61 -158v-314h-152v49q-61 -61 -170 -61q-93 0 -143.5 45.5t-50.5 118.5q0 82 60 122zM97 603q0 64 33 104.5t101 40.5q37 0 61 -15t39.5 -29.5t33.5 -14.5q40 0 40 51
v3h122v-15q0 -61 -32.5 -106.5t-102.5 -45.5q-35 0 -59.5 15.5t-42.5 31t-37 15.5q-34 0 -34 -53v-3h-121q-1 7 -1 21zM265 109q53 0 85.5 25.5t32.5 69.5v16h-124q-37 0 -56.5 -15t-19.5 -41q0 -55 82 -55z" />
    <glyph glyph-name="g.ss04" horiz-adv-x="655" 
d="M93 43q-34 29 -34 74q0 64 62 93q-74 48 -74 132q0 81 71 131.5t199 50.5q64 0 117 -14q59 9 128 88l94 -99q-42 -62 -96 -69q27 -39 27 -88q0 -80 -71 -130t-199 -50q-45 0 -83 6q-21 -7 -21 -25q0 -31 55 -31h151q103 0 158.5 -41.5t55.5 -111.5q0 -83 -84 -130.5
t-246 -47.5q-148 0 -222.5 42.5t-74.5 114.5q0 79 87 105zM206 -88q26 -14 74 -14h71q52 0 79.5 15t27.5 42q0 51 -87 51h-118q-73 -8 -73 -54q0 -25 26 -40zM244 289q27 -20 73 -20t73.5 20t27.5 54t-27 54q-28 20 -74 20t-73.5 -20t-27.5 -54t28 -54z" />
    <glyph glyph-name="gbreve.ss04" horiz-adv-x="655" 
d="M93 43q-34 29 -34 74q0 64 62 93q-74 48 -74 132q0 81 71 131.5t199 50.5q64 0 117 -14q59 9 128 88l94 -99q-42 -62 -96 -69q27 -39 27 -88q0 -80 -71 -130t-199 -50q-45 0 -83 6q-21 -7 -21 -25q0 -31 55 -31h151q103 0 158.5 -41.5t55.5 -111.5q0 -83 -84 -130.5
t-246 -47.5q-148 0 -222.5 42.5t-74.5 114.5q0 79 87 105zM244 746q0 -35 19 -56.5t52 -21.5t52 21.5t19 56.5h126q-1 -82 -54.5 -126.5t-142.5 -44.5q-88 0 -141.5 44.5t-54.5 126.5h125zM206 -88q26 -14 74 -14h71q52 0 79.5 15t27.5 42q0 51 -87 51h-118q-73 -8 -73 -54
q0 -25 26 -40zM244 289q27 -20 73 -20t73.5 20t27.5 54t-27 54q-28 20 -74 20t-73.5 -20t-27.5 -54t28 -54z" />
    <glyph glyph-name="gcircumflex.ss04" horiz-adv-x="655" 
d="M6 -62q0 79 87 105q-34 29 -34 74q0 64 62 93q-74 48 -74 132q0 81 71 131.5t199 50.5q64 0 117 -14q59 9 128 88l94 -99q-42 -62 -96 -69q27 -39 27 -88q0 -80 -71 -130t-199 -50q-45 0 -83 6q-21 -7 -21 -25q0 -31 55 -31h151q103 0 158.5 -41.5t55.5 -111.5
q0 -83 -84 -130.5t-246 -47.5q-148 0 -222.5 42.5t-74.5 114.5zM239 747h154l123 -169h-147l-53 80l-54 -80h-147zM206 -88q26 -14 74 -14h71q52 0 79.5 15t27.5 42q0 51 -87 51h-118q-73 -8 -73 -54q0 -25 26 -40zM216 343q0 -34 27.5 -54t73.5 -20t73.5 20t27.5 54t-27 54
q-28 20 -74 20t-73.5 -20t-27.5 -54z" />
    <glyph glyph-name="uni0123.ss04" horiz-adv-x="655" 
d="M6 -62q0 79 87 105q-34 29 -34 74q0 64 62 93q-74 48 -74 132q0 81 71 131.5t199 50.5q64 0 117 -14q59 9 128 88l94 -99q-42 -62 -96 -69q27 -39 27 -88q0 -80 -71 -130t-199 -50q-45 0 -83 6q-21 -7 -21 -25q0 -31 55 -31h151q103 0 158.5 -41.5t55.5 -111.5
q0 -83 -84 -130.5t-246 -47.5q-148 0 -222.5 42.5t-74.5 114.5zM236 567l54 175h151l-32 -175h-173zM206 -88q26 -14 74 -14h71q52 0 79.5 15t27.5 42q0 51 -87 51h-118q-73 -8 -73 -54q0 -25 26 -40zM244 289q27 -20 73 -20t73.5 20t27.5 54t-27 54q-28 20 -74 20
t-73.5 -20t-27.5 -54t28 -54z" />
    <glyph glyph-name="gdotaccent.ss04" horiz-adv-x="655" 
d="M93 43q-34 29 -34 74q0 64 62 93q-74 48 -74 132q0 81 71 131.5t199 50.5q64 0 117 -14q59 9 128 88l94 -99q-42 -62 -96 -69q27 -39 27 -88q0 -80 -71 -130t-199 -50q-45 0 -83 6q-21 -7 -21 -25q0 -31 55 -31h151q103 0 158.5 -41.5t55.5 -111.5q0 -83 -84 -130.5
t-246 -47.5q-148 0 -222.5 42.5t-74.5 114.5q0 79 87 105zM251 722q27 26 66 26t66 -26.5t27 -65.5q0 -40 -27 -66q-27 -27 -66 -27t-66.5 27t-27.5 66t28 66zM206 -88q26 -14 74 -14h71q52 0 79.5 15t27.5 42q0 51 -87 51h-118q-73 -8 -73 -54q0 -25 26 -40zM244 289
q27 -20 73 -20t73.5 20t27.5 54t-27 54q-28 20 -74 20t-73.5 -20t-27.5 -54t28 -54z" />
    <glyph glyph-name="germandbls.ss06" horiz-adv-x="637" 
d="M222 -173h-168v605q0 135 75 209t201 74q104 0 169 -47t65 -118q0 -35 -18 -65.5t-39.5 -47t-39.5 -34t-18 -29.5q0 -14 25.5 -32.5t56 -37t56 -56.5t25.5 -86q0 -76 -55 -124.5t-143 -48.5q-77 0 -133 27v141q55 -23 98 -23q35 0 52 13.5t17 34.5q0 19 -14.5 35.5
t-35.5 29.5t-42 27t-35.5 34t-14.5 43q0 24 16 45t34.5 34t34.5 33.5t16 43.5q0 29 -22 45.5t-55 16.5q-49 0 -78.5 -36.5t-29.5 -101.5v-604z" />
    <glyph glyph-name="a.ss09" horiz-adv-x="684" 
d="M627 130q29 0 58 13v-135q-52 -20 -103 -20q-105 0 -135 84q-64 -84 -175 -84q-105 0 -173.5 76t-68.5 193q0 116 70 191t177 75q91 0 152 -63v51h156v-324q0 -16 2 -26.5t11.5 -20.5t28.5 -10zM312 134q50 0 83.5 35.5t33.5 87.5q0 50 -33.5 85t-82.5 35
q-52 0 -85.5 -34t-33.5 -87t33.5 -87.5t84.5 -34.5z" />
    <glyph glyph-name="aacute.ss09" horiz-adv-x="684" 
d="M294 744h188l-73 -166h-162zM627 130q29 0 58 13v-135q-52 -20 -103 -20q-105 0 -135 84q-64 -84 -175 -84q-105 0 -173.5 76t-68.5 193q0 116 70 191t177 75q91 0 152 -63v51h156v-324q0 -16 2 -26.5t11.5 -20.5t28.5 -10zM312 134q50 0 83.5 35.5t33.5 87.5
q0 50 -33.5 85t-82.5 35q-52 0 -85.5 -34t-33.5 -87t33.5 -87.5t84.5 -34.5z" />
    <glyph glyph-name="abreve.ss09" horiz-adv-x="684" 
d="M324 574q-88 0 -141.5 44.5t-54.5 126.5h126q0 -36 19 -57.5t51 -21.5q33 0 52 21.5t19 57.5h126q-1 -82 -54.5 -126.5t-142.5 -44.5zM627 130q29 0 58 13v-135q-52 -20 -103 -20q-105 0 -135 84q-64 -84 -175 -84q-105 0 -173.5 76t-68.5 193q0 116 70 191t177 75
q91 0 152 -63v51h156v-324q0 -16 2 -26.5t11.5 -20.5t28.5 -10zM312 134q50 0 83.5 35.5t33.5 87.5q0 50 -33.5 85t-82.5 35q-52 0 -85.5 -34t-33.5 -87t33.5 -87.5t84.5 -34.5z" />
    <glyph glyph-name="acircumflex.ss09" horiz-adv-x="684" 
d="M378 576l-53 81l-54 -81h-146l123 170h154l123 -170h-147zM627 130q29 0 58 13v-135q-52 -20 -103 -20q-105 0 -135 84q-64 -84 -175 -84q-105 0 -173.5 76t-68.5 193q0 116 70 191t177 75q91 0 152 -63v51h156v-324q0 -16 2 -26.5t11.5 -20.5t28.5 -10zM312 134
q50 0 83.5 35.5t33.5 87.5q0 50 -33.5 85t-82.5 35q-52 0 -85.5 -34t-33.5 -87t33.5 -87.5t84.5 -34.5z" />
    <glyph glyph-name="adieresis.ss09" horiz-adv-x="684" 
d="M218 559q-39 0 -65.5 27t-26.5 66q0 38 26.5 64.5t65.5 26.5q38 0 65 -26.5t27 -64.5q0 -39 -27 -66t-65 -27zM435 559q-39 0 -66 27t-27 66q0 38 27 64.5t66 26.5q38 0 65 -26.5t27 -64.5q0 -39 -27 -66t-65 -27zM627 130q29 0 58 13v-135q-52 -20 -103 -20
q-105 0 -135 84q-64 -84 -175 -84q-105 0 -173.5 76t-68.5 193q0 116 70 191t177 75q91 0 152 -63v51h156v-324q0 -16 2 -26.5t11.5 -20.5t28.5 -10zM312 134q50 0 83.5 35.5t33.5 87.5q0 50 -33.5 85t-82.5 35q-52 0 -85.5 -34t-33.5 -87t33.5 -87.5t84.5 -34.5z" />
    <glyph glyph-name="agrave.ss09" horiz-adv-x="684" 
d="M359 745l47 -166h-162l-73 166h188zM627 130q29 0 58 13v-135q-52 -20 -103 -20q-105 0 -135 84q-64 -84 -175 -84q-105 0 -173.5 76t-68.5 193q0 116 70 191t177 75q91 0 152 -63v51h156v-324q0 -16 2 -26.5t11.5 -20.5t28.5 -10zM312 134q50 0 83.5 35.5t33.5 87.5
q0 50 -33.5 85t-82.5 35q-52 0 -85.5 -34t-33.5 -87t33.5 -87.5t84.5 -34.5z" />
    <glyph glyph-name="amacron.ss09" horiz-adv-x="684" 
d="M151 714h351v-113h-351v113zM627 130q29 0 58 13v-135q-52 -20 -103 -20q-105 0 -135 84q-64 -84 -175 -84q-105 0 -173.5 76t-68.5 193q0 116 70 191t177 75q91 0 152 -63v51h156v-324q0 -16 2 -26.5t11.5 -20.5t28.5 -10zM312 134q50 0 83.5 35.5t33.5 87.5
q0 50 -33.5 85t-82.5 35q-52 0 -85.5 -34t-33.5 -87t33.5 -87.5t84.5 -34.5z" />
    <glyph glyph-name="aogonek.ss09" horiz-adv-x="684" 
d="M662 0q-95 -32 -95 -76q0 -31 35 -31q20 0 63 13l1 -109q-44 -22 -100 -22q-61 0 -95 30t-34 78q0 28 19.5 60.5t59.5 56.5q-50 18 -69 72q-64 -84 -175 -84q-105 0 -173.5 76t-68.5 193q0 116 70 191t177 75q91 0 152 -63v51h156v-324q0 -16 2 -26.5t11.5 -20.5
t28.5 -10q29 0 58 13v-135q-16 -6 -23 -8zM312 134q50 0 83.5 35.5t33.5 87.5q0 50 -33.5 85t-82.5 35q-52 0 -85.5 -34t-33.5 -87t33.5 -87.5t84.5 -34.5z" />
    <glyph glyph-name="aring.ss09" horiz-adv-x="684" 
d="M420 603q-38 -35 -96 -35t-96.5 34.5t-38.5 85.5q0 52 38.5 86.5t96.5 34.5t96 -34.5t38 -86.5q0 -51 -38 -85zM324 740q-22 0 -37.5 -15t-15.5 -37t15 -37t38 -15t38 14.5t15 37.5q0 22 -15 37t-38 15zM627 130q29 0 58 13v-135q-52 -20 -103 -20q-105 0 -135 84
q-64 -84 -175 -84q-105 0 -173.5 76t-68.5 193q0 116 70 191t177 75q91 0 152 -63v51h156v-324q0 -16 2 -26.5t11.5 -20.5t28.5 -10zM312 134q50 0 83.5 35.5t33.5 87.5q0 50 -33.5 85t-82.5 35q-52 0 -85.5 -34t-33.5 -87t33.5 -87.5t84.5 -34.5z" />
    <glyph glyph-name="atilde.ss09" horiz-adv-x="684" 
d="M241 582h-121q-1 10 -1 19q0 60 30.5 103.5t103.5 43.5q37 0 61 -15t40 -29.5t34 -14.5q40 0 40 54h120q1 -9 1 -18q0 -59 -32.5 -104t-102.5 -45q-35 0 -59.5 15.5t-42 31t-36.5 15.5q-35 0 -35 -53v-3zM627 130q29 0 58 13v-135q-52 -20 -103 -20q-105 0 -135 84
q-64 -84 -175 -84q-105 0 -173.5 76t-68.5 193q0 116 70 191t177 75q91 0 152 -63v51h156v-324q0 -16 2 -26.5t11.5 -20.5t28.5 -10zM312 134q50 0 83.5 35.5t33.5 87.5q0 50 -33.5 85t-82.5 35q-52 0 -85.5 -34t-33.5 -87t33.5 -87.5t84.5 -34.5z" />
    <glyph glyph-name="u.ss09" horiz-adv-x="656" 
d="M218 511v-279q0 -40 22 -64t57 -24q38 0 63.5 28t25.5 73v266h169v-320q0 -16 2 -26.5t11.5 -20t27.5 -9.5q26 0 59 13v-140q-54 -20 -104 -20q-108 0 -137 84q-59 -84 -166 -84q-91 0 -145 59.5t-54 165.5v298h169z" />
    <glyph glyph-name="uacute.ss09" horiz-adv-x="656" 
d="M49 511h169v-279q0 -40 22 -64t57 -24q38 0 63.5 28t25.5 73v266h169v-320q0 -16 2 -26.5t11.5 -20t27.5 -9.5q26 0 59 13v-140q-54 -20 -104 -20q-108 0 -137 84q-59 -84 -166 -84q-91 0 -145 59.5t-54 165.5v298zM223 578l46 166h188l-73 -166h-161z" />
    <glyph glyph-name="ubreve.ss09" horiz-adv-x="656" 
d="M49 213v298h169v-279q0 -40 22 -64t57 -24q38 0 63.5 28t25.5 73v266h169v-320q0 -16 2 -26.5t11.5 -20t27.5 -9.5q26 0 59 13v-140q-54 -20 -104 -20q-108 0 -137 84q-59 -84 -166 -84q-91 0 -145 59.5t-54 165.5zM229 745q1 -36 19.5 -57.5t51.5 -21.5t51.5 21.5
t18.5 57.5h126q-1 -82 -54.5 -126.5t-141.5 -44.5q-89 0 -142 44.5t-55 126.5h126z" />
    <glyph glyph-name="ucircumflex.ss09" horiz-adv-x="656" 
d="M49 213v298h169v-279q0 -40 22 -64t57 -24q38 0 63.5 28t25.5 73v266h169v-320q0 -16 2 -26.5t11.5 -20t27.5 -9.5q26 0 59 13v-140q-54 -20 -104 -20q-108 0 -137 84q-59 -84 -166 -84q-91 0 -145 59.5t-54 165.5zM100 576l123 170h155l122 -170h-147l-53 81l-53 -81
h-147z" />
    <glyph glyph-name="udieresis.ss09" horiz-adv-x="656" 
d="M218 511v-279q0 -40 22 -64t57 -24q38 0 63.5 28t25.5 73v266h169v-320q0 -16 2 -26.5t11.5 -20t27.5 -9.5q26 0 59 13v-140q-54 -20 -104 -20q-108 0 -137 84q-59 -84 -166 -84q-91 0 -145 59.5t-54 165.5v298h169zM101 652q0 38 27 64.5t65 26.5q39 0 66 -26.5
t27 -64.5q0 -39 -27 -66t-66 -27q-38 0 -65 27t-27 66zM345 717q27 26 65 26q39 0 65.5 -26.5t26.5 -64.5q0 -39 -26.5 -66t-65.5 -27q-38 0 -65 27t-27 66q0 38 27 65z" />
    <glyph glyph-name="ugrave.ss09" horiz-adv-x="656" 
d="M49 213v298h169v-279q0 -40 22 -64t57 -24q38 0 63.5 28t25.5 73v266h169v-320q0 -16 2 -26.5t11.5 -20t27.5 -9.5q26 0 59 13v-140q-54 -20 -104 -20q-108 0 -137 84q-59 -84 -166 -84q-91 0 -145 59.5t-54 165.5zM147 745h188l47 -166h-163z" />
    <glyph glyph-name="uhungarumlaut.ss09" horiz-adv-x="656" 
d="M49 213v298h169v-279q0 -40 22 -64t57 -24q38 0 63.5 28t25.5 73v266h169v-320q0 -16 2 -26.5t11.5 -20t27.5 -9.5q26 0 59 13v-140q-54 -20 -104 -20q-108 0 -137 84q-59 -84 -166 -84q-91 0 -145 59.5t-54 165.5zM375 744h176l-67 -166h-164zM112 578l37 166h178
l-54 -166h-161z" />
    <glyph glyph-name="umacron.ss09" horiz-adv-x="656" 
d="M49 213v298h169v-279q0 -40 22 -64t57 -24q38 0 63.5 28t25.5 73v266h169v-320q0 -16 2 -26.5t11.5 -20t27.5 -9.5q26 0 59 13v-140q-54 -20 -104 -20q-108 0 -137 84q-59 -84 -166 -84q-91 0 -145 59.5t-54 165.5zM127 601v113h351v-113h-351z" />
    <glyph glyph-name="uogonek.ss09" horiz-adv-x="656" 
d="M49 511h169v-279q0 -40 22 -64t57 -24q38 0 63.5 28t25.5 73v266h169v-320q0 -16 2 -26.5t11.5 -20t27.5 -9.5q26 0 59 13v-140l-19 -7q-87 -32 -87 -72q0 -32 34 -32q14 0 63 13l1 -108q-44 -22 -99 -22q-61 0 -95 29.5t-34 77.5q0 27 17 57.5t51 53.5q-54 21 -73 74
q-59 -84 -166 -84q-91 0 -145 59.5t-54 165.5v298z" />
    <glyph glyph-name="uring.ss09" horiz-adv-x="656" 
d="M49 213v298h169v-279q0 -40 22 -64t57 -24q38 0 63.5 28t25.5 73v266h169v-320q0 -16 2 -26.5t11.5 -20t27.5 -9.5q26 0 59 13v-140q-54 -20 -104 -20q-108 0 -137 84q-59 -84 -166 -84q-91 0 -145 59.5t-54 165.5zM165 688q0 52 38 86.5t96 34.5t96 -34t38 -87
q0 -51 -38 -85q-38 -35 -96 -35t-96 34.5t-38 85.5zM247 688q0 -22 15 -37t37 -15q23 0 38.5 15t15.5 37t-15.5 37t-38.5 15q-22 0 -37 -15t-15 -37z" />
    <glyph glyph-name="utilde.ss09" horiz-adv-x="656" 
d="M218 511v-279q0 -40 22 -64t57 -24q38 0 63.5 28t25.5 73v266h169v-320q0 -16 2 -26.5t11.5 -20t27.5 -9.5q26 0 59 13v-140q-54 -20 -104 -20q-108 0 -137 84q-59 -84 -166 -84q-91 0 -145 59.5t-54 165.5v298h169zM128 708q33 40 101 40q37 0 60.5 -15t39.5 -29.5
t34 -14.5q40 0 40 51v3h121q1 -9 1 -18q0 -59 -32.5 -104t-102.5 -45q-35 0 -60 15.5t-42.5 31t-36.5 15.5q-34 0 -34 -53v-3h-121q-1 7 -1 21q0 65 33 105z" />
    <glyph glyph-name="y.ss15" horiz-adv-x="600" 
d="M-1 511h171l131 -329l127 329h170l-297 -722h-174l93 206z" />
    <glyph glyph-name="yacute.ss15" horiz-adv-x="600" 
d="M170 511l131 -329l127 329h170l-297 -722h-174l93 206l-221 516h171zM219 578l47 166h188l-73 -166h-162z" />
    <glyph glyph-name="ycircumflex.ss15" horiz-adv-x="600" 
d="M170 511l131 -329l127 329h170l-297 -722h-174l93 206l-221 516h171zM97 576l123 170h154l123 -170h-147l-53 81l-54 -81h-146z" />
    <glyph glyph-name="ydieresis.ss15" horiz-adv-x="600" 
d="M-1 511h171l131 -329l127 329h170l-297 -722h-174l93 206zM98 652q0 38 26.5 64.5t65.5 26.5q38 0 65.5 -26.5t27.5 -64.5q0 -39 -27.5 -66t-65.5 -27q-39 0 -65.5 27t-26.5 66zM342 717q27 26 65 26t65 -26.5t27 -64.5q0 -39 -27 -66t-65 -27t-65.5 27t-27.5 66
q0 38 28 65z" />
    <glyph glyph-name="ygrave.ss15" horiz-adv-x="600" 
d="M170 511l131 -329l127 329h170l-297 -722h-174l93 206l-221 516h171zM143 745h188l47 -166h-162z" />
    <glyph glyph-name="IJ.loclNLD" horiz-adv-x="789" 
d="M64 0v669h176v-669h-176zM467 -11q-80 0 -156 23v155q67 -16 124 -16q120 0 120 116v402h176v-434q0 -119 -70 -182.5t-194 -63.5z" />
    <glyph glyph-name="ij.loclNLD" horiz-adv-x="572" 
d="M140 562q-42 0 -70.5 28.5t-28.5 69.5q0 42 28.5 70.5t70.5 28.5t70.5 -28.5t28.5 -70.5q0 -41 -28.5 -69.5t-70.5 -28.5zM433 562q-42 0 -71 28.5t-29 69.5q0 42 29 70.5t71 28.5t70 -28.5t28 -70.5q0 -41 -28 -69.5t-70 -28.5zM225 0h-170v511h170v-511zM189 -200v144
q48 -13 89 -13q40 0 55 19.5t15 60.5v500h169v-547q0 -83 -54.5 -133t-151.5 -50q-63 0 -122 19z" />
    <glyph glyph-name="uni0414.loclBGR" horiz-adv-x="801" 
d="M516 669l184 -520h85v-279h-171v130h-427v-130h-171v279h87l185 520h228zM516 149l-114 375l-117 -375h231z" />
    <glyph glyph-name="uni041B.loclBGR" horiz-adv-x="683" 
d="M193 0h-190l232 669h214l228 -669h-186l-149 506z" />
    <glyph glyph-name="uni0423.loclBGR" horiz-adv-x="652" 
d="M331 352l149 317h175l-313 -669h-185l91 181l-249 488h180z" />
    <glyph glyph-name="uni0424.loclBGR" horiz-adv-x="976" 
d="M684 647q121 0 187.5 -81.5t66.5 -231.5t-67 -231t-187 -81q-52 0 -114 17v-120h-163v120q-73 -17 -115 -17q-120 0 -187 81.5t-67 230.5t67.5 230.5t187.5 81.5q39 0 114 -18v119h163v-117q65 17 114 17zM209 334q0 -181 127 -181q32 0 72 9v342q-50 11 -77 11
q-122 0 -122 -181zM645 152q124 0 124 182q0 181 -123 181q-34 0 -77 -10v-342q39 -11 76 -11z" />
    <glyph glyph-name="uni0430.loclBGR" horiz-adv-x="641" 
d="M100 448q70 75 178 75q93 0 153 -67v55h155v-511h-155v54q-61 -66 -155 -66q-107 0 -176.5 75.5t-69.5 192.5t70 192zM228 169q33 -35 84 -35q50 0 84 35.5t34 87.5q0 50 -34 85t-83 35q-51 0 -85 -34.5t-34 -86.5q0 -53 34 -87z" />
    <glyph glyph-name="uni0432.loclBGR" horiz-adv-x="620" 
d="M483 382q50 -21 78 -65t28 -104q0 -101 -75.5 -162t-196.5 -61q-123 0 -196.5 63.5t-73.5 179.5v238q0 122 74 189.5t194 67.5q112 0 179.5 -56t67.5 -143q0 -47 -21 -86t-58 -61zM315 591q-48 0 -78 -30t-30 -79v-61h106q47 0 72.5 24t25.5 61q0 40 -26.5 62.5
t-69.5 22.5zM318 124q50 0 79.5 25.5t29.5 68.5q0 40 -26 64.5t-71 24.5h-123v-66q0 -47 24.5 -82t86.5 -35z" />
    <glyph glyph-name="uni0433.loclBGR" horiz-adv-x="533" 
d="M259 -12q-107 0 -167.5 38.5t-60.5 117.5q0 120 156 156l79 18q17 4 25.5 7t17 10t8.5 18q0 34 -69 34q-83 0 -182 -31l-24 130q113 35 223 35q115 0 174 -42t59 -121q0 -65 -42 -94.5t-130 -50.5l-79 -19q-38 -9 -38 -37q0 -32 55 -32q46 0 107.5 15t103.5 33l26 -136
q-131 -49 -242 -49z" />
    <glyph glyph-name="uni0434.loclBGR" horiz-adv-x="643" 
d="M101 449q69 73 173 73q93 0 156 -60v49h159v-467q0 -123 -79.5 -193t-219.5 -70q-112 0 -215 48v143q100 -52 201 -52q71 0 112 32.5t41 94.5v24q-60 -60 -156 -60q-105 0 -173.5 71.5t-68.5 182.5t70 184zM196 260q0 -50 33 -82.5t82 -32.5q50 0 83 33t33 82
q0 50 -32.5 83.5t-81.5 33.5q-51 0 -84 -33.5t-33 -83.5z" />
    <glyph glyph-name="uni0436.loclBGR" horiz-adv-x="871" 
d="M668 252l203 -252h-199l-155 196v-196h-164v195l-154 -195h-200l205 252l-203 259h193l159 -206v206h164v-206l159 206h194z" />
    <glyph glyph-name="uni0437.loclBGR" horiz-adv-x="567" 
d="M447 183q93 -48 93 -164q0 -108 -76 -173t-208 -65q-118 0 -231 54v142q33 -17 103 -34t123 -17q60 0 92.5 23.5t32.5 63.5q0 36 -27.5 58t-73.5 22h-164v127h138q49 0 75.5 21t26.5 56q0 36 -28.5 58.5t-78.5 22.5q-41 0 -99.5 -13t-102.5 -32v142q108 49 223 49
q113 0 181 -56.5t68 -144.5q0 -89 -67 -140z" />
    <glyph glyph-name="uni0438.loclBGR" horiz-adv-x="609" 
d="M49 511h168v-288q0 -40 22 -64t57 -24q38 0 64 28t26 74v274h168v-511h-160v54q-59 -65 -153 -65q-89 0 -140.5 59t-51.5 165v298z" />
    <glyph glyph-name="uni0439.loclBGR" horiz-adv-x="609" 
d="M49 213v298h168v-288q0 -40 22 -64t57 -24q38 0 64 28t26 74v274h168v-511h-160v54q-59 -65 -153 -65q-89 0 -140.5 59t-51.5 165zM232 740q0 -90 69 -90q70 0 71 90h126q-4 -83 -57 -130.5t-140 -47.5q-86 0 -139 47.5t-57 130.5h127z" />
    <glyph glyph-name="uni043A.loclBGR" horiz-adv-x="575" 
d="M55 701h167v-388l158 198h195l-197 -249l197 -262h-202l-151 204v-204h-167v701z" />
    <glyph glyph-name="uni043B.loclBGR" horiz-adv-x="601" 
d="M193 -1h-188l185 512h228l178 -512h-189l-103 361z" />
    <glyph glyph-name="uni043F.loclBGR" horiz-adv-x="610" 
d="M216 511v-50q58 61 145 61q89 0 144 -55t55 -144v-323h-168v288q0 39 -22 63.5t-57 24.5q-38 0 -63.5 -29t-25.5 -75v-272h-169v511h161z" />
    <glyph glyph-name="uni0442.loclBGR" horiz-adv-x="935" 
d="M216 511v-50q58 61 149 61q96 0 147 -69q64 69 168 69q91 0 148 -54.5t57 -142.5v-325h-168v291q0 39 -21 62t-55 23q-37 0 -61.5 -27.5t-24.5 -73.5v-275h-168v289q0 40 -20.5 63.5t-55.5 23.5q-38 0 -62.5 -27.5t-24.5 -73.5v-275h-169v511h161z" />
    <glyph glyph-name="uni0446.loclBGR" horiz-adv-x="675" 
d="M622 135h57v-259h-164v112q-38 4 -64 29.5t-31 65.5q-57 -95 -171 -95q-91 0 -145.5 59.5t-54.5 165.5v298h169v-288q0 -40 21.5 -64.5t56.5 -24.5q38 0 64 28t26 72v277h169v-303q0 -73 67 -73z" />
    <glyph glyph-name="uni0448.loclBGR" horiz-adv-x="984" 
d="M925 135q27 0 59 13v-140q-54 -20 -105 -20q-105 0 -131 92q-57 -92 -172 -92q-111 0 -163 89q-57 -89 -166 -89q-90 0 -144 59.5t-54 165.5v298h169v-288q0 -41 21 -65t55 -24q37 0 62.5 27.5t25.5 71.5v278h169v-291q0 -39 20.5 -62.5t54.5 -23.5q38 0 63.5 27.5
t25.5 71.5v278h169v-319q0 -16 2 -26.5t11.5 -20.5t27.5 -10z" />
    <glyph glyph-name="uni0449.loclBGR" horiz-adv-x="1004" 
d="M951 135h57v-259h-163v112q-38 3 -65 29t-31 66q-57 -95 -170 -95q-114 0 -166 89q-57 -89 -166 -89q-90 0 -144 59.5t-54 165.5v298h169v-288q0 -41 20.5 -65t55.5 -24q37 0 62.5 27.5t25.5 71.5v278h169v-291q0 -39 20.5 -62.5t54.5 -23.5q38 0 63.5 27.5t25.5 71.5
v278h169v-303q0 -73 67 -73z" />
    <glyph glyph-name="uni044C.loclBGR" horiz-adv-x="600" 
d="M345 443q99 0 163.5 -64.5t64.5 -157.5q0 -102 -76 -167.5t-188 -65.5q-114 0 -188 67t-74 171v285h162v-113q56 45 136 45zM310 123q45 0 76 29t31 72t-31 72t-76 29q-46 0 -76 -28.5t-30 -72.5t30 -72.5t76 -28.5z" />
    <glyph glyph-name="uni044A.loclBGR" horiz-adv-x="683" 
d="M428 443q99 0 163.5 -64.5t64.5 -157.5q0 -102 -76 -167.5t-188 -65.5q-114 0 -188 67t-74 171v133h-112v152h274v-114q56 46 136 46zM393 123q46 0 76.5 29t30.5 72t-30.5 72t-76.5 29q-45 0 -75.5 -29t-30.5 -72t30.5 -72t75.5 -29z" />
    <glyph glyph-name="uni044E.loclBGR" horiz-adv-x="876" 
d="M221 701v-380h74q21 91 94.5 146.5t177.5 55.5q123 0 201.5 -76.5t78.5 -192.5t-79.5 -191t-200.5 -75q-99 0 -172 51.5t-97 136.5h-77v-176h-166v701h166zM447 256q0 -53 35 -87.5t86 -34.5q52 0 85 34.5t33 87.5q0 51 -33.5 86t-84.5 35t-86 -35t-35 -86z" />
    <glyph glyph-name="uni0431.loclSRB" horiz-adv-x="613" 
d="M345 469q50 -9 87.5 -22t74.5 -38.5t57 -69.5t20 -104q0 -117 -79.5 -181.5t-201.5 -64.5t-197.5 67t-75.5 172q0 131 104 187q-81 40 -81 134q0 71 54.5 115t142.5 44q22 0 65 -2.5t65 -2.5q84 0 160 31l23 -146q-56 -24 -129 -24q-31 0 -78 5t-62 5q-67 0 -67 -45
q0 -7 2 -13t6.5 -11t8.5 -8.5t12.5 -7t14 -5.5t17 -4.5t17.5 -3.5t20 -3.5t20 -3.5zM305 129q48 0 79.5 31t31.5 78t-31.5 78t-78.5 31q-48 0 -79.5 -31t-31.5 -78t31.5 -78t78.5 -31z" />
    <glyph glyph-name="uni0430.loclBGR.ss09" horiz-adv-x="684" 
d="M100 448q70 75 177 75q91 0 152 -63v51h156v-324q0 -57 37 -57q26 0 53 13v-135q-53 -20 -93 -20q-104 0 -129 92q-64 -92 -181 -92q-105 0 -173.5 76t-68.5 193q0 116 70 191zM194 256q0 -53 33.5 -87.5t84.5 -34.5q50 0 83.5 35.5t33.5 87.5q0 50 -33.5 85t-82.5 35
q-52 0 -85.5 -34t-33.5 -87z" />
    <glyph glyph-name="uni0438.loclBGR.ss09" horiz-adv-x="656" 
d="M218 511v-279q0 -40 22 -64t57 -24q38 0 63.5 28t25.5 73v266h169v-320q0 -56 37 -56q20 0 53 13v-140q-54 -20 -94 -20q-51 0 -85.5 25t-45.5 68q-59 -93 -172 -93q-91 0 -145 59.5t-54 165.5v298h169z" />
    <glyph glyph-name="uni0439.loclBGR.ss09" horiz-adv-x="656" 
d="M49 213v298h169v-279q0 -40 22 -64t57 -24q38 0 63.5 28t25.5 73v266h169v-320q0 -16 2 -26.5t11.5 -20t27.5 -9.5q26 0 59 13v-140q-54 -20 -104 -20q-51 0 -85.5 25t-45.5 68q-59 -93 -172 -93q-91 0 -145 59.5t-54 165.5zM229 743q0 -35 19 -56.5t51 -21.5
q33 0 52 21.5t19 56.5h126q-1 -82 -54.5 -126.5t-142.5 -44.5q-88 0 -141 44.5t-55 126.5h126z" />
    <glyph glyph-name="zero.zero" horiz-adv-x="656" 
d="M329 680q127 0 207 -96t80 -250q0 -153 -80 -249t-207 -96q-128 0 -208.5 96t-80.5 249t80.5 249.5t208.5 96.5zM329 546q-63 0 -101.5 -58t-38.5 -153q0 -78 26 -133l188 316q-33 28 -74 28zM329 122q62 0 100 58.5t38 154.5q0 74 -25 129l-186 -316q32 -26 73 -26z" />
    <glyph glyph-name="zero.lf" horiz-adv-x="670" 
d="M335 -11q-131 0 -213 96t-82 249q0 154 82 250t213 96t213.5 -96t82.5 -250q0 -153 -82.5 -249t-213.5 -96zM335 145q56 0 89.5 51.5t33.5 138.5q0 86 -33.5 137.5t-89.5 51.5t-89 -51.5t-33 -137.5q0 -87 33 -138.5t89 -51.5z" />
    <glyph glyph-name="one.lf" horiz-adv-x="405" 
d="M23 630l195 39h112v-669h-173v506l-134 -23v147z" />
    <glyph glyph-name="two.lf" horiz-adv-x="586" 
d="M381 222l-90 -77h251v-146h-496v127l232 207q56 50 70 70q18 27 18 55q0 35 -23 56t-58 21q-38 0 -63.5 -28.5t-26.5 -74.5l-158 17q1 104 72 167.5t183 63.5q108 0 176 -60t68 -154q0 -39 -12.5 -74t-39.5 -67.5t-46.5 -51.5t-56.5 -51z" />
    <glyph glyph-name="three.lf" horiz-adv-x="601" 
d="M528 540l-151 -120q82 -5 134 -58t52 -139q0 -104 -76 -169.5t-201 -65.5q-108 0 -179 53t-84 151l154 34q7 -44 36.5 -69.5t74.5 -25.5q44 0 73.5 28t29.5 70q0 40 -28.5 67t-72.5 27q-36 0 -77 -25l-63 93l172 137h-257v141h463v-129z" />
    <glyph glyph-name="four.lf" horiz-adv-x="636" 
d="M517 263h84v-134h-84v-129h-168v129h-327v116l274 424h221v-406zM349 524l-164 -261h164v261z" />
    <glyph glyph-name="five.lf" horiz-adv-x="606" 
d="M337 449q105 0 168.5 -62.5t63.5 -162.5q0 -105 -74.5 -170.5t-198.5 -65.5q-106 0 -178 49.5t-89 142.5l155 37q11 -43 41 -64.5t69 -21.5q44 0 74 28t30 72q0 43 -28.5 70.5t-74.5 27.5q-63 0 -99 -53l-136 65l51 328h422v-141h-296l-19 -111q52 32 119 32z" />
    <glyph glyph-name="six.lf" horiz-adv-x="610" 
d="M359 456q96 0 161 -63t65 -157q0 -109 -79 -178t-199 -69q-121 0 -199.5 69.5t-78.5 181.5q0 65 24 118.5t73 115.5l155 195h203l-178 -220q22 7 53 7zM305 129q44 0 74 29t30 73t-29.5 73t-73.5 29q-45 0 -74.5 -28.5t-29.5 -72.5t29.5 -73.5t73.5 -29.5z" />
    <glyph glyph-name="seven.lf" horiz-adv-x="521" 
d="M28 523v146h468v-127l-247 -542h-193l249 523h-277z" />
    <glyph glyph-name="eight.lf" horiz-adv-x="649" 
d="M499 359q54 -23 83.5 -66.5t29.5 -95.5q0 -91 -79 -149.5t-209 -58.5t-208.5 58t-78.5 150q0 52 30 95.5t85 65.5q-84 45 -84 133q0 82 71.5 135.5t183.5 53.5q113 0 185 -54t72 -136q0 -88 -81 -131zM324 552q-40 0 -67 -22.5t-27 -56.5q0 -33 27 -55t68 -22
q40 0 67 22.5t27 55.5q0 34 -27 56t-68 22zM324 122q46 0 76.5 24.5t30.5 62.5t-30 62t-76 24t-76 -24t-30 -62t29.5 -62.5t75.5 -24.5z" />
    <glyph glyph-name="nine.lf" horiz-adv-x="609" 
d="M302 680q121 0 199.5 -71t78.5 -181q0 -46 -17.5 -91.5t-38.5 -77t-62 -84.5q-3 -4 -5 -6t-4.5 -5.5t-4.5 -6.5l-120 -157h-203l169 219q-20 -3 -39 -3q-100 0 -165.5 62t-65.5 157q0 106 78 175.5t200 69.5zM196 438q0 -44 29.5 -73.5t73.5 -29.5t74 29t30 73
t-29.5 73.5t-73.5 29.5t-74 -29t-30 -73z" />
    <glyph glyph-name="zero.osf" horiz-adv-x="624" 
d="M312 -11q-118 0 -197.5 80.5t-79.5 200.5q0 121 79.5 202t197.5 81t197.5 -81t79.5 -202q0 -120 -79.5 -200.5t-197.5 -80.5zM312 126q51 0 85 41t34 103t-34 103t-85 41t-85.5 -41t-34.5 -103q0 -61 35 -102.5t85 -41.5z" />
    <glyph glyph-name="one.osf" horiz-adv-x="410" 
d="M26 477l207 59h114v-536h-157v369l-164 -43v151z" />
    <glyph glyph-name="two.osf" horiz-adv-x="542" 
d="M371 196l-93 -64h223v-132h-462v117l218 154q28 20 39 28.5t23.5 25.5t12.5 34q0 24 -18 39.5t-48 15.5q-31 0 -53 -19t-23 -53l-150 17q1 90 66 142.5t169 52.5q100 0 160.5 -51t60.5 -128q0 -33 -12.5 -62.5t-38 -54.5t-37.5 -35t-37 -27z" />
    <glyph glyph-name="three.osf" horiz-adv-x="568" 
d="M501 416l-150 -124q80 -5 132 -56t52 -130q0 -101 -72.5 -165.5t-191.5 -64.5q-103 0 -171.5 51.5t-81.5 148.5l145 32q7 -45 36.5 -71.5t72.5 -26.5t72.5 29t29.5 72q0 36 -28.5 63t-71.5 27q-33 0 -75 -27l-60 88l170 144h-250v130h442v-120z" />
    <glyph glyph-name="four.osf" horiz-adv-x="599" 
d="M492 156h77v-117h-77v-149h-152v149h-314v95l260 404h206v-382zM340 404l-153 -248h153v248z" />
    <glyph glyph-name="five.osf" horiz-adv-x="570" 
d="M316 319q100 0 160.5 -60.5t60.5 -152.5q0 -101 -71 -165.5t-187 -64.5q-100 0 -169.5 49t-85.5 139l142 36q12 -44 41.5 -68t68.5 -24q45 0 75 30.5t30 76.5q0 39 -29 67t-76 28q-61 0 -98 -55l-125 60l49 321h402v-130h-286l-19 -120q48 33 117 33z" />
    <glyph glyph-name="six.osf" horiz-adv-x="584" 
d="M344 435q92 0 156 -61.5t64 -150.5q0 -101 -76 -167.5t-189 -66.5t-189 67t-76 170q0 65 25 116.5t67 104.5l153 190h180l-171 -211q25 9 56 9zM297 114q45 0 77.5 30.5t32.5 74.5q0 43 -32 73.5t-78 30.5t-77 -30t-31 -73q0 -44 31 -75t77 -31z" />
    <glyph glyph-name="seven.osf" horiz-adv-x="497" 
d="M28 395v141h446v-124l-253 -523h-181l254 506h-266z" />
    <glyph glyph-name="eight.osf" horiz-adv-x="592" 
d="M447 341q52 -21 81 -63.5t29 -92.5q0 -85 -73 -140.5t-188 -55.5q-116 0 -188.5 55.5t-72.5 140.5q0 52 29.5 93.5t81.5 62.5q-82 42 -82 127q0 76 65.5 127.5t164.5 51.5q101 0 167.5 -51.5t66.5 -127.5q0 -85 -81 -127zM296 532q-36 0 -62.5 -23.5t-26.5 -56.5
t24 -54.5t61 -21.5q40 0 65.5 21.5t25.5 56.5q0 32 -26 55t-61 23zM296 107q41 0 69.5 26t28.5 62t-28 60t-70 24t-71 -24t-29 -61q0 -36 29 -61.5t71 -25.5z" />
    <glyph glyph-name="nine.osf" horiz-adv-x="587" 
d="M286 553q117 0 193.5 -69t76.5 -173q0 -46 -17.5 -91.5t-39 -76.5t-59.5 -80l-12 -15l-122 -157h-186l166 214q-20 -4 -43 -4q-95 0 -160 61.5t-65 154.5q0 100 76 168t192 68zM175 318q0 -45 32.5 -75t77.5 -30t76.5 30t31.5 75t-31.5 75.5t-76.5 30.5t-77.5 -30.5
t-32.5 -75.5z" />
    <glyph glyph-name="one.osf.salt" horiz-adv-x="391" 
d="M23 395v141h306v-536h-158v395h-148z" />
    <glyph glyph-name="zero.osf.zero" horiz-adv-x="611" 
d="M305 553q115 0 193 -81.5t78 -201.5t-78 -200.5t-193 -80.5q-114 0 -192 80.5t-78 200.5t77.5 201.5t192.5 81.5zM305 436q-59 0 -98.5 -48t-39.5 -118q0 -59 29 -104l169 255q-27 15 -60 15zM305 105q60 0 100 47.5t40 117.5q0 62 -31 105l-169 -255q27 -15 60 -15z" />
    <glyph glyph-name="zero.tf" 
d="M308 -11q-129 0 -205 95t-76 250t76 250.5t205 95.5t205 -95.5t76 -250.5t-76 -250t-205 -95zM308 145q51 0 79.5 50.5t28.5 139.5t-28.5 139t-79.5 50t-79.5 -50t-28.5 -139t28.5 -139.5t79.5 -50.5z" />
    <glyph glyph-name="one.tf" 
d="M409 669v-519h163v-151h-495v151h160v357l-150 -24v147l217 39h105z" />
    <glyph glyph-name="two.tf" 
d="M396 222l-91 -77h251v-146h-496v127l233 207q33 29 45 40.5t27 36t15 48.5q0 35 -23 56t-58 21q-38 0 -63.5 -28.5t-26.5 -74.5l-158 17q1 104 73 167.5t184 63.5q107 0 174.5 -60t67.5 -154q0 -40 -13 -76.5t-41 -69t-46.5 -50.5t-53.5 -48z" />
    <glyph glyph-name="three.tf" 
d="M539 540l-152 -120q82 -5 134 -58t52 -139q0 -104 -76 -169.5t-201 -65.5q-108 0 -179 53t-84 151l154 34q6 -43 36.5 -69t74.5 -26t74 28t30 70q0 40 -28.5 67t-72.5 27q-37 0 -77 -25l-64 93l172 137h-257v141h464v-129z" />
    <glyph glyph-name="four.tf" 
d="M514 263h83v-134h-83v-129h-169v129h-327v116l275 424h221v-406zM345 523l-163 -260h163v260z" />
    <glyph glyph-name="five.tf" 
d="M340 449q106 0 169.5 -62.5t63.5 -162.5q0 -105 -75 -170.5t-199 -65.5q-105 0 -177 49.5t-90 142.5l156 37q11 -43 40.5 -64.5t69.5 -21.5q44 0 73.5 28t29.5 72q0 43 -28.5 70.5t-74.5 27.5q-64 0 -98 -53l-137 65l51 328h423v-141h-296l-19 -111q50 32 118 32z" />
    <glyph glyph-name="six.tf" 
d="M360 456q97 0 162 -63t65 -157q0 -109 -79 -178t-199 -69q-121 0 -200 70t-79 181q0 65 25 119.5t73 114.5l155 195h203l-177 -220q21 7 51 7zM307 129q44 0 74 29t30 73t-30 73t-73 29q-45 0 -75 -29t-30 -72q0 -44 30 -73.5t74 -29.5z" />
    <glyph glyph-name="seven.tf" 
d="M74 523v146h468v-127l-248 -542h-192l249 523h-277z" />
    <glyph glyph-name="eight.tf" 
d="M481 359q55 -23 84 -66.5t29 -95.5q0 -91 -78.5 -149.5t-208.5 -58.5t-208 58t-78 150q0 52 29.5 95.5t84.5 65.5q-84 45 -84 133q0 82 71.5 135.5t182.5 53.5q113 0 185.5 -54t72.5 -136q0 -88 -82 -131zM307 552q-40 0 -67 -22.5t-27 -56.5q0 -33 27 -55t68 -22
q40 0 67 22.5t27 55.5q0 34 -27 56t-68 22zM307 122q46 0 76.5 24.5t30.5 62.5t-30 62t-77 24q-45 0 -75 -24t-30 -62t29.5 -62.5t75.5 -24.5z" />
    <glyph glyph-name="nine.tf" 
d="M305 680q123 0 201.5 -71t78.5 -181q0 -37 -8 -68.5t-32.5 -72t-37.5 -58t-55 -72.5l-120 -157h-202l168 219q-20 -3 -39 -3q-99 0 -164.5 62t-65.5 157q0 106 78 175.5t198 69.5zM200 438q0 -44 30 -73.5t74 -29.5t73.5 29t29.5 73t-29.5 73.5t-73.5 29.5t-74 -29
t-30 -73z" />
    <glyph glyph-name="zero.tf.zero" 
d="M308 680q126 0 203 -96t77 -250t-77 -249.5t-203 -95.5t-203 95.5t-77 249.5t77 250t203 96zM308 546q-61 0 -96 -57.5t-35 -153.5q0 -76 21 -127l184 309q-31 29 -74 29zM308 122q61 0 96 58t35 155q0 72 -20 124l-182 -310q30 -27 71 -27z" />
    <glyph glyph-name="zero.tosf" horiz-adv-x="585" 
d="M292 -11q-117 0 -191.5 80t-74.5 201q0 122 75 202.5t191 80.5q117 0 192 -80.5t75 -202.5q0 -121 -75 -201t-192 -80zM292 126q50 0 80 40t30 104t-30 104t-80 40q-49 0 -78.5 -39.5t-29.5 -104.5q0 -64 29.5 -104t78.5 -40z" />
    <glyph glyph-name="one.tosf" horiz-adv-x="585" 
d="M409 536v-404h145v-132h-463v132h160v236l-152 -42v151l195 59h115z" />
    <glyph glyph-name="two.tosf" horiz-adv-x="585" 
d="M393 196l-93 -64h222v-132h-462v117l218 154q38 26 56.5 45.5t18.5 42.5q0 24 -18.5 39.5t-48.5 15.5t-52.5 -19t-23.5 -53l-149 17q1 90 65.5 142.5t168.5 52.5q101 0 161.5 -51t60.5 -128q0 -94 -124 -179z" />
    <glyph glyph-name="three.tosf" horiz-adv-x="585" 
d="M513 416l-150 -124q80 -5 131.5 -56t51.5 -130q0 -101 -72.5 -165.5t-190.5 -64.5q-103 0 -172 51.5t-81 148.5l145 32q7 -45 36 -71.5t73 -26.5q43 0 72.5 29t29.5 72q0 36 -29 63t-72 27q-33 0 -75 -27l-59 88l169 144h-249v130h442v-120z" />
    <glyph glyph-name="four.tosf" horiz-adv-x="585" 
d="M487 156h77v-117h-77v-149h-152v149h-314v95l261 404h205v-382zM335 405l-153 -249h153v249z" />
    <glyph glyph-name="five.tosf" horiz-adv-x="585" 
d="M322 319q100 0 161 -60.5t61 -152.5q0 -101 -71.5 -165.5t-187.5 -64.5q-99 0 -168.5 49t-85.5 139l142 36q12 -44 41.5 -68t68.5 -24q44 0 74.5 30.5t30.5 76.5q0 39 -29 67t-76 28q-62 0 -98 -55l-126 60l50 321h402v-130h-286l-19 -119q49 32 116 32z" />
    <glyph glyph-name="six.tosf" horiz-adv-x="585" 
d="M339 435q92 0 156 -61.5t64 -150.5q0 -101 -75.5 -167.5t-188.5 -66.5q-114 0 -190 67t-76 170q0 65 25 115.5t68 105.5l151 190h181l-171 -211q25 9 56 9zM292 114q45 0 77.5 30.5t32.5 74.5q0 43 -32.5 73.5t-77.5 30.5q-46 0 -77 -30t-31 -73q0 -44 31 -75t77 -31z
" />
    <glyph glyph-name="seven.tosf" horiz-adv-x="585" 
d="M69 395v141h446v-124l-254 -523h-180l254 506h-266z" />
    <glyph glyph-name="eight.tosf" horiz-adv-x="585" 
d="M443 341q52 -21 81.5 -63.5t29.5 -92.5q0 -85 -73 -140.5t-188 -55.5q-117 0 -189 55t-72 141q0 52 29 93.5t81 62.5q-82 43 -82 127q0 76 66 127.5t165 51.5q101 0 167 -51.5t66 -127.5q0 -86 -81 -127zM293 532q-36 0 -62.5 -23.5t-26.5 -56.5q0 -34 24.5 -55.5
t66.5 -20.5q38 1 61.5 23t23.5 55q0 32 -25.5 55t-61.5 23zM293 107q41 0 69 26t28 62q0 37 -28 60.5t-70 23.5t-70.5 -24t-28.5 -61q0 -36 28.5 -61.5t71.5 -25.5z" />
    <glyph glyph-name="nine.tosf" horiz-adv-x="585" 
d="M291 553q117 0 193.5 -69t76.5 -173q0 -46 -17.5 -91.5t-39 -76.5t-59.5 -80l-12 -15l-122 -157h-185l165 214q-20 -4 -43 -4q-95 0 -159.5 61.5t-64.5 154.5q0 100 76 168t191 68zM181 318q0 -45 32 -75t77 -30t76.5 30t31.5 75t-31.5 75.5t-76.5 30.5t-77 -30.5
t-32 -75.5z" />
    <glyph glyph-name="zero.tosf.zero" horiz-adv-x="585" 
d="M292 553q115 0 190.5 -81t75.5 -202q0 -120 -75.5 -200.5t-190.5 -80.5q-114 0 -189.5 80.5t-75.5 200.5q0 121 75.5 202t189.5 81zM292 436q-58 0 -95.5 -47.5t-37.5 -118.5q0 -60 26 -101l166 252q-27 15 -59 15zM292 105q59 0 97 47.5t38 117.5q0 59 -27 103
l-167 -253q25 -15 59 -15z" />
    <glyph glyph-name="zero.dnom" horiz-adv-x="419" 
d="M209 -9q-78 0 -131 53.5t-53 132.5t53 132t131 53t131 -53t53 -132t-53 -132.5t-131 -53.5zM209 81q38 0 64 27.5t26 68.5t-26 68.5t-64 27.5t-64 -27.5t-26 -68.5t26 -68.5t64 -27.5z" />
    <glyph glyph-name="one.dnom" horiz-adv-x="356" 
d="M238 357v-277h103v-84h-311v84h109v174l-106 -30v90l138 43h67z" />
    <glyph glyph-name="two.dnom" horiz-adv-x="361" 
d="M254 123l-65 -45h144v-81h-304v68l138 101q2 1 8.5 6t9 6.5t8 6t7.5 6.5t6.5 6t6.5 7t5 7t4 8l2 8t1 9q0 19 -13 31t-35 12q-26 0 -41 -18t-17 -44l-96 12q3 61 47 97.5t110 36.5q68 0 108 -34.5t40 -88.5q0 -66 -74 -117z" />
    <glyph glyph-name="three.dnom" horiz-adv-x="368" 
d="M323 279l-88 -55q46 -3 77.5 -31.5t31.5 -74.5q0 -56 -46.5 -91.5t-121.5 -35.5q-65 0 -108.5 27.5t-50.5 76.5l86 28q5 -23 25 -38t48 -15q27 0 46 15t19 39q0 22 -18 36t-46 14q-26 0 -54 -14l-33 49l107 67h-159v81h285v-78z" />
    <glyph glyph-name="four.dnom" horiz-adv-x="378" 
d="M311 139h47v-73h-47v-70h-97v70h-198v62l146 224h149v-213zM214 287l-92 -148h92v148z" />
    <glyph glyph-name="five.dnom" horiz-adv-x="352" 
d="M194 234q62 0 99.5 -32.5t37.5 -83.5q0 -55 -43 -91t-113 -36q-61 0 -104 27.5t-55 78.5l89 21q5 -20 23.5 -34t42.5 -14q26 0 43.5 14.5t17.5 37.5q0 22 -17 36t-42 14q-40 0 -60 -28l-80 38l31 175h247v-79h-174l-12 -59q30 15 69 15z" />
    <glyph glyph-name="six.dnom" horiz-adv-x="353" 
d="M208 243q55 0 91.5 -34t36.5 -84q0 -59 -44.5 -96.5t-111.5 -37.5q-69 0 -114 38t-45 98t56 126l88 104h113l-100 -117q14 3 30 3zM178 69q26 0 43.5 15t17.5 37q0 23 -17.5 38.5t-43.5 15.5q-25 0 -42.5 -15t-17.5 -38t17.5 -38t42.5 -15z" />
    <glyph glyph-name="seven.dnom" horiz-adv-x="308" 
d="M20 273v84h271v-72l-145 -289h-110l144 277h-160z" />
    <glyph glyph-name="eight.dnom" horiz-adv-x="370" 
d="M280 190q66 -25 66 -88q0 -48 -44.5 -79.5t-116.5 -31.5t-116.5 31.5t-44.5 80.5q0 28 17 51.5t49 35.5q-49 24 -49 71q0 43 40.5 72t102.5 29q63 0 103 -28.5t40 -72.5q0 -47 -47 -71zM185 292q-24 0 -40 -12t-16 -29q0 -18 16 -30t39 -12q24 0 40.5 12t16.5 30
q0 17 -16.5 29t-39.5 12zM184 62q26 0 44.5 13.5t18.5 33.5q0 19 -18 32.5t-44 13.5t-44.5 -13.5t-18.5 -33.5q0 -19 18 -32.5t44 -13.5z" />
    <glyph glyph-name="nine.dnom" horiz-adv-x="348" 
d="M171 362q69 0 113.5 -38.5t44.5 -97.5q0 -17 -3 -31.5t-13.5 -32.5t-14.5 -24.5t-23.5 -31.5t-22.5 -29l-62 -81h-116l91 118q-7 -2 -21 -2q-56 0 -92 33t-36 85q0 57 43.5 94.5t111.5 37.5zM112 231q0 -22 16.5 -37t42.5 -15t43 14.5t17 37.5t-17 38t-43 15t-42.5 -15
t-16.5 -38z" />
    <glyph glyph-name="zero.numr" horiz-adv-x="419" 
d="M209 310q-78 0 -131 52.5t-53 131.5t53 132.5t131 53.5t131 -53.5t53 -132.5t-53 -131.5t-131 -52.5zM209 399q38 0 64 27.5t26 68.5q0 40 -26 67.5t-64 27.5t-64 -27.5t-26 -67.5q0 -41 26 -68.5t64 -27.5z" />
    <glyph glyph-name="one.numr" horiz-adv-x="356" 
d="M238 676v-278h103v-83h-311v83h109v175l-106 -31v91l138 43h67z" />
    <glyph glyph-name="two.numr" horiz-adv-x="361" 
d="M254 442l-65 -46h144v-81h-304v68l138 101q2 1 8.5 6t9 6.5t8 6t7.5 6.5t6.5 6t6.5 7t5 7t4 8l2 8t1 9q0 19 -13 31t-35 12q-25 0 -40.5 -18t-17.5 -44l-96 13q3 60 47 96.5t110 36.5q68 0 108 -34.5t40 -88.5q0 -64 -74 -116z" />
    <glyph glyph-name="three.numr" horiz-adv-x="368" 
d="M323 598l-89 -56q47 -3 78.5 -31t31.5 -74q0 -56 -46.5 -91.5t-121.5 -35.5q-65 0 -108.5 27.5t-50.5 76.5l86 27q5 -23 25 -37.5t48 -14.5q27 0 46 15t19 38q0 22 -18 36.5t-47 14.5q-22 0 -53 -14l-34 49l108 67h-159v81h285v-78z" />
    <glyph glyph-name="four.numr" horiz-adv-x="379" 
d="M311 457h48v-72h-48v-70h-98v70h-197v61l144 225h133l-6 -2l24 2v-214zM213 605l-91 -148h91v148z" />
    <glyph glyph-name="five.numr" horiz-adv-x="352" 
d="M194 553q62 0 99.5 -32.5t37.5 -84.5q0 -54 -42.5 -90t-113.5 -36q-61 0 -104 27t-55 78l89 21q5 -20 23.5 -34t42.5 -14q26 0 43.5 14.5t17.5 37.5q0 22 -17 36t-42 14q-40 0 -60 -28l-80 39l31 175h247v-79h-174l-12 -60q29 16 69 16z" />
    <glyph glyph-name="six.numr" horiz-adv-x="352" 
d="M208 561q55 0 91.5 -33.5t36.5 -84.5q0 -59 -44 -96t-112 -37q-69 0 -114 37.5t-45 97.5q0 61 56 126l89 105h112l-101 -119q12 4 31 4zM178 387q26 0 44 15.5t18 37.5q0 23 -18 38.5t-44 15.5q-25 0 -42.5 -15t-17.5 -38t17 -38.5t43 -15.5z" />
    <glyph glyph-name="seven.numr" horiz-adv-x="308" 
d="M20 592v84h271v-72l-145 -289h-110l145 277h-161z" />
    <glyph glyph-name="eight.numr" horiz-adv-x="370" 
d="M280 509q31 -12 48.5 -35.5t17.5 -53.5q0 -48 -44.5 -79t-116.5 -31t-116.5 31.5t-44.5 80.5q0 61 65 87q-48 24 -48 70q0 44 40.5 73t102.5 29q63 0 103 -29t40 -73q0 -47 -47 -70zM185 611q-24 0 -40 -12t-16 -30t16 -29.5t39 -11.5q24 0 40.5 12t16.5 30
q0 17 -16.5 29t-39.5 12zM184 380q26 0 44.5 13.5t18.5 33.5t-18 33.5t-44 13.5t-44.5 -13.5t-18.5 -33.5t18 -33.5t44 -13.5z" />
    <glyph glyph-name="nine.numr" horiz-adv-x="347" 
d="M170 681q69 0 113.5 -38.5t44.5 -97.5q0 -12 -1.5 -23.5t-6.5 -23.5t-8.5 -19.5t-13 -21t-13 -18.5t-16.5 -21.5t-17 -21.5l-63 -81h-116l93 118q-8 -2 -22 -2q-56 0 -92 33t-36 85q0 56 43.5 94t110.5 38zM112 550q0 -23 17 -38t42 -15t42 15t17 38t-16.5 38t-42.5 15
t-42.5 -15t-16.5 -38z" />
    <glyph glyph-name="colon.case" horiz-adv-x="307" 
d="M155 384q-43 0 -73 29t-30 71q0 43 30 72.5t73 29.5q42 0 71 -29.5t29 -72.5q0 -42 -29 -71t-71 -29zM155 64q-43 0 -73 29.5t-30 71.5q0 43 29.5 72t73.5 29q42 0 71 -29t29 -72q0 -42 -29 -71.5t-71 -29.5z" />
    <glyph glyph-name="semicolon.case" horiz-adv-x="307" 
d="M153 384q-43 0 -73 29t-30 71q0 43 30 72.5t73 29.5q42 0 71 -29.5t29 -72.5q0 -42 -29 -71t-71 -29zM152 269q46 0 76.5 -31t30.5 -78q0 -107 -175 -267l-35 35q71 89 98 151q-43 -1 -70.5 26t-27.5 64q0 43 29.5 71.5t73.5 28.5z" />
    <glyph glyph-name="exclamdown.case" horiz-adv-x="318" 
d="M159 690q40 0 67.5 -28t27.5 -68q0 -39 -27.5 -67t-67.5 -28t-68.5 28t-28.5 67q0 40 28.5 68t68.5 28zM60 -28l14 485h169l17 -485h-200z" />
    <glyph glyph-name="questiondown.case" horiz-adv-x="562" 
d="M298 690q40 0 66.5 -26.5t26.5 -65.5q0 -38 -26.5 -65t-66.5 -27q-39 0 -65.5 26.5t-26.5 65.5t26.5 65.5t65.5 26.5zM216 457h166v-42q0 -39 -17.5 -71t-43 -52t-51 -37.5t-43 -37t-17.5 -41.5q0 -29 25 -48t65 -19q71 0 112 67l130 -82q-30 -59 -94.5 -94.5
t-158.5 -35.5q-115 0 -186 55t-71 145q0 52 29 92.5t63 62t63 49t29 56.5v33z" />
    <glyph glyph-name="periodcentered.case" horiz-adv-x="279" 
d="M139 246q-40 0 -68 28t-28 68t28 68t68 28q41 0 69 -28t28 -68t-28.5 -68t-68.5 -28z" />
    <glyph glyph-name="questiondown.ss11.case" horiz-adv-x="567" 
d="M298 690q40 0 66.5 -26.5t26.5 -65.5q0 -38 -26.5 -65t-66.5 -27q-39 0 -65.5 26.5t-26.5 65.5t26.5 65.5t65.5 26.5zM216 457h166v-42q0 -39 -17.5 -70.5t-43 -51.5t-50.5 -37.5t-42.5 -38t-17.5 -44.5q0 -30 22.5 -47.5t56.5 -17.5q35 0 63.5 25t31.5 76l158 -19
q0 -112 -75 -169t-188 -57q-114 0 -181 53.5t-67 137.5q0 44 19 79.5t46 58.5t54 43t46 42.5t19 46.5v32z" />
    <glyph glyph-name="period.osf" horiz-adv-x="254" 
d="M127 -12q-37 0 -63.5 26t-26.5 63t26 63t64 26q37 0 63 -26t26 -63t-26 -63t-63 -26z" />
    <glyph glyph-name="comma.osf" horiz-adv-x="257" 
d="M126 158q41 0 68 -27.5t27 -69.5q0 -98 -154 -237l-32 31q63 79 87 134q-38 -1 -62 23t-24 57q0 38 25.5 63.5t64.5 25.5z" />
    <glyph glyph-name="colon.osf" horiz-adv-x="276" 
d="M139 312q-38 0 -64.5 26t-26.5 63t26.5 63t64.5 26q37 0 63 -26t26 -63t-26 -63t-63 -26zM139 -11q-38 0 -64.5 25.5t-26.5 62.5q0 38 26.5 64t64.5 26t63.5 -26t25.5 -64q0 -37 -26 -62.5t-63 -25.5z" />
    <glyph glyph-name="semicolon.osf" horiz-adv-x="273" 
d="M136 312q-38 0 -64 26t-26 63q0 38 26 64t64 26q39 0 65 -26t26 -64t-26 -63.5t-65 -25.5zM138 156q41 0 68 -27.5t27 -68.5q0 -95 -155 -238l-31 32q63 80 87 134q-38 -1 -62.5 23t-24.5 56q0 38 26 63.5t65 25.5z" />
    <glyph glyph-name="numbersign.osf" horiz-adv-x="668" 
d="M642 433l-20 -107h-85l-20 -112h96l-19 -110h-96l-19 -104h-140l20 104h-111l-20 -104h-141l22 104h-85l22 110h86l24 112h-96l21 107h97l22 103h132l-20 -103h111l20 103h132l-18 -103h85zM270 214h111l21 112h-111z" />
    <glyph glyph-name="comma.ss03" horiz-adv-x="281" 
d="M170 -194h-154l40 276h177z" />
    <glyph glyph-name="semicolon.ss03" horiz-adv-x="309" 
d="M158 323q-44 0 -73 29.5t-29 72.5q0 42 29.5 70.5t72.5 28.5t72 -28.5t29 -70.5q0 -43 -29 -72.5t-72 -29.5zM172 -194h-154l53 276h177z" />
    <glyph glyph-name="semicolon.case.ss03" horiz-adv-x="314" 
d="M159 384q-42 0 -71.5 29t-29.5 72t29.5 72t71.5 29q43 0 72.5 -29t29.5 -72t-29.5 -72t-72.5 -29zM167 -128h-154l54 275h177z" />
    <glyph glyph-name="question.ss11" horiz-adv-x="567" 
d="M351 222h-166v42q0 39 17.5 70.5t43 51.5t51 37.5t43 38t17.5 44.5q0 30 -22.5 47.5t-56.5 17.5q-36 0 -64.5 -24.5t-31.5 -76.5l-158 19q0 112 75.5 169.5t188.5 57.5t180.5 -54t67.5 -138q0 -44 -19 -79.5t-46 -59t-54.5 -43.5t-46.5 -42.5t-19 -46.5v-31zM269 -11
q-39 0 -66 26t-27 65q0 40 27 66.5t66 26.5q40 0 66.5 -26.5t26.5 -66.5q0 -39 -26.5 -65t-66.5 -26z" />
    <glyph glyph-name="questiondown.ss11" horiz-adv-x="562" 
d="M296 508q40 0 66.5 -26.5t26.5 -65.5q0 -40 -26.5 -66.5t-66.5 -26.5q-39 0 -65.5 26.5t-26.5 66.5q0 39 26.5 65.5t65.5 26.5zM214 274h167v-42q0 -33 -12.5 -61t-32 -45.5t-41.5 -35t-41.5 -30.5t-32 -31.5t-12.5 -38.5q0 -30 22.5 -47.5t56.5 -17.5q35 0 63.5 25
t31.5 77l158 -20q0 -112 -75 -169t-188 -57t-180.5 54t-67.5 138q0 43 19 78.5t46 59t54 43.5t46 42.5t19 46.5v31z" />
    <glyph glyph-name="parenleft.case" horiz-adv-x="363" 
d="M347 -137h-162q-54 64 -89.5 159t-46.5 166t-11 128q0 54 10.5 122.5t46 164t90.5 159.5h162q-141 -212 -141 -448q0 -231 141 -451z" />
    <glyph glyph-name="parenright.case" horiz-adv-x="363" 
d="M177 -137h-161q141 218 141 451q0 236 -141 448h161q55 -64 91 -159.5t46.5 -164t10.5 -122.5q0 -96 -35 -228t-113 -225z" />
    <glyph glyph-name="braceleft.case" horiz-adv-x="418" 
d="M349 628q-38 0 -60 -23.5t-17 -71.5l8 -80q2 -20 2 -30q0 -85 -65 -109q65 -24 65 -110q0 -9 -2 -29l-8 -80q-1 -6 -1 -16q0 -40 22 -60t56 -20q9 0 31 4v-140q-46 -7 -83 -7q-80 0 -130 46.5t-50 133.5q0 19 1 29l8 92q1 7 1 18q0 47 -22.5 61t-78.5 16v124q63 2 83 19
t16 76l-7 92q-1 10 -1 28q0 87 50 134t130 47q41 0 83 -8v-139q-16 3 -31 3z" />
    <glyph glyph-name="braceright.case" horiz-adv-x="418" 
d="M300 563l-8 -92q-1 -8 -1 -21q0 -46 22 -59t79 -15v-124q-32 -1 -48.5 -4t-31 -12.5t-19 -28.5t-1.5 -50l8 -92q1 -9 1 -27q0 -88 -49.5 -135t-130.5 -47q-37 0 -84 7v140q22 -4 32 -4q37 0 59 24t17 72l-8 80q-1 10 -1 27q0 88 64 112q-64 24 -64 112q0 17 1 27l8 80
q1 6 1 16q0 40 -21.5 59.5t-55.5 19.5q-16 0 -32 -3v139q43 8 84 8q81 0 130.5 -47.5t49.5 -134.5q0 -18 -1 -27z" />
    <glyph glyph-name="bracketleft.case" horiz-adv-x="418" 
d="M387 -137h-318v899h318v-150h-150v-598h150v-151z" />
    <glyph glyph-name="bracketright.case" horiz-adv-x="418" 
d="M350 762v-899h-318v151h150v598h-150v150h318z" />
    <glyph glyph-name="hyphen.case" horiz-adv-x="460" 
d="M403 258h-346v143h346v-143z" />
    <glyph glyph-name="endash.case" horiz-adv-x="647" 
d="M590 258h-533v143h533v-143z" />
    <glyph glyph-name="emdash.case" horiz-adv-x="996" 
d="M939 258h-882v143h882v-143z" />
    <glyph glyph-name="guillemotleft.case" horiz-adv-x="623" 
d="M326 97h-185l-110 225l118 220h185l-119 -220zM582 97h-186l-109 225l118 220h186l-120 -220z" />
    <glyph glyph-name="guillemotright.case" horiz-adv-x="623" 
d="M336 322l-109 -225h-186l111 225l-120 220h186zM592 322l-109 -225h-186l111 225l-119 220h185z" />
    <glyph glyph-name="guilsinglleft.case" horiz-adv-x="373" 
d="M332 97h-187l-114 223l123 222h186l-125 -223z" />
    <glyph glyph-name="guilsinglright.case" horiz-adv-x="373" 
d="M342 320l-114 -223h-187l116 222l-124 223h186z" />
    <glyph glyph-name="quotesingle.ss05" horiz-adv-x="281" 
d="M141 762q45 0 81.5 -34t36.5 -89q0 -41 -18.5 -80.5t-54 -74t-56 -51t-55.5 -41.5l-31 35q88 86 88 123q0 16 -15 26.5t-33 17t-33 25t-15 47.5q0 43 31 69.5t74 26.5z" />
    <glyph glyph-name="quotesinglbase.ss10" horiz-adv-x="290" 
d="M140 155q44 0 80.5 -34t36.5 -89q0 -41 -18 -79.5t-54 -74t-55.5 -51.5t-55.5 -42l-32 35q88 84 88 123q0 16 -15 26.5t-33 17t-33 25.5t-15 48q0 42 32 68.5t74 26.5z" />
    <glyph glyph-name="quotedblbase.ss10" horiz-adv-x="550" 
d="M140 155q44 0 80.5 -34t36.5 -89q0 -41 -18 -79.5t-54 -74t-55.5 -51.5t-55.5 -42l-32 35q88 84 88 123q0 16 -15 26.5t-33 17t-33 25.5t-15 48q0 42 32 68.5t74 26.5zM399 155q45 0 81.5 -34t36.5 -89q0 -41 -18 -79.5t-54 -74t-55.5 -51.5t-55.5 -42l-32 35
q88 84 88 123q0 16 -15 26.5t-32.5 17t-32.5 25.5t-15 48q0 42 31 68.5t73 26.5z" />
    <glyph glyph-name="quotedblleft.ss10" horiz-adv-x="541" 
d="M144 399q-45 0 -81.5 34t-36.5 89q0 41 18 80t53.5 74t55.5 51t55 42l32 -35q-87 -85 -87 -123q0 -15 15 -26t33 -17.5t33 -25t15 -47.5q0 -42 -31.5 -69t-73.5 -27zM404 399q-45 0 -81.5 34t-36.5 89q0 34 14.5 68t32 57.5t48 51t46 39.5t42.5 31l32 -35
q-88 -86 -88 -123q0 -15 15 -26t33 -17.5t33 -25t15 -47.5q0 -42 -31.5 -69t-73.5 -27z" />
    <glyph glyph-name="quotedblright.ss10" horiz-adv-x="541" 
d="M141 762q45 0 81.5 -34t36.5 -89q0 -41 -18.5 -80.5t-54 -74t-56 -51t-55.5 -41.5l-31 35q88 86 88 123q0 16 -15 26.5t-33 17t-33 25t-15 47.5q0 43 31 69.5t74 26.5zM401 762q44 0 80.5 -34t36.5 -89q0 -34 -14.5 -67.5t-32 -57.5t-47 -51.5t-45.5 -39.5t-43 -31
l-33 35q88 84 88 123q0 16 -15 26.5t-33 17t-33 25t-15 47.5q0 43 31.5 69.5t74.5 26.5z" />
    <glyph glyph-name="quoteleft.ss10" horiz-adv-x="281" 
d="M144 399q-45 0 -81.5 34t-36.5 89q0 41 18 80t53.5 74t55.5 51t55 42l32 -35q-87 -85 -87 -123q0 -15 15 -26t33 -17.5t33 -25t15 -47.5q0 -42 -31.5 -69t-73.5 -27z" />
    <glyph glyph-name="quoteright.ss10" horiz-adv-x="281" 
d="M141 762q45 0 81.5 -34t36.5 -89q0 -41 -18.5 -80.5t-54 -74t-56 -51t-55.5 -41.5l-31 35q88 86 88 123q0 16 -15 26.5t-33 17t-33 25t-15 47.5q0 43 31 69.5t74 26.5z" />
    <glyph glyph-name="uni20BF.osf" horiz-adv-x="574" 
d="M544 161q0 -65 -41 -106.5t-118 -51.5v-117h-90v114h-50v-114h-90v114h-102v537h102v127h89v-127h50v127h90v-129q65 -9 100.5 -48t35.5 -92q0 -76 -68 -106q42 -13 67 -46.5t25 -81.5zM321 423h-127v-103h123q28 0 47 14t19 37q0 22 -18 37t-44 15zM194 115h134
q32 0 52 15.5t20 39.5q0 23 -19 39t-46 16h-141v-110z" />
    <glyph glyph-name="cent.osf" horiz-adv-x="584" 
d="M305 143q40 0 73 24t44 60l141 -60q-20 -61 -73.5 -105t-132.5 -56v-120h-115v121q-99 17 -158 87.5t-59 173.5t59 174t158 90v122h115v-119q82 -11 138.5 -59t73.5 -124l-148 -40q-10 37 -43 60.5t-74 23.5q-52 0 -87.5 -36.5t-35.5 -90.5t35.5 -90t88.5 -36z" />
    <glyph glyph-name="dollar.osf" horiz-adv-x="562" 
d="M531 169q0 -65 -44 -110t-124 -62v-106h-146v102q-116 15 -190 75l59 114q99 -65 204 -65q95 0 95 43q0 8 -3.5 14t-11.5 10.5t-15 8t-21 6t-22.5 4t-26 4.5t-25.5 4q-36 6 -57.5 10.5t-54.5 16.5t-51.5 28.5t-33 46t-14.5 67.5q0 65 44.5 108.5t123.5 57.5v110h146v-108
q88 -14 155 -56l-58 -110q-74 47 -173 47q-93 0 -93 -40q0 -29 68 -41q7 -1 20 -3q7 -1 10 -2q107 -18 146 -36q93 -41 93 -138z" />
    <glyph glyph-name="Euro.osf" horiz-adv-x="606" 
d="M414 117q86 0 152 27v-124q-67 -31 -175 -31q-116 0 -194.5 54t-103.5 147h-68v60h59q-1 7 -1 22v16h-58v60h67q25 94 104 149.5t190 55.5q105 0 169 -41v-123q-27 15 -70 25.5t-75 10.5q-117 0 -162 -77h225v-60h-244q-1 -6 -1 -18q0 -13 1 -20h244v-60h-223
q45 -73 164 -73z" />
    <glyph glyph-name="uni20BD.osf" horiz-adv-x="622" 
d="M397 181h-122v-39h160v-80h-160v-62h-158v62h-79v80h79v39h-79v94h79v261h283q84 0 139 -50t55 -128t-54.5 -127.5t-142.5 -49.5zM363 410h-88v-135h85q35 0 58 19t23 48t-22 48.5t-56 19.5z" />
    <glyph glyph-name="sterling.osf" horiz-adv-x="557" 
d="M428 215h-166q-2 -53 -25 -88h275v-127h-455l-22 113q49 18 65.5 39t16.5 61v2h-76v100h45q-13 35 -13 65q0 76 62 124.5t162 48.5q30 0 57 -4t58.5 -16t54.5 -32t38.5 -55.5t15.5 -82.5l-135 -8q-3 70 -83 70q-36 0 -58.5 -18t-22.5 -46q0 -18 13 -46h193v-100z" />
    <glyph glyph-name="yen.osf" 
d="M426 536h170l-166 -288h87v-69h-127l-5 -9v-32h132v-70h-132v-68h-157v68h-130v70h130v32l-5 9h-125v69h86l-164 288h169l118 -237z" />
    <glyph glyph-name="uni20BF.tf" 
d="M30 669h120v116h106v-116h62v116h106v-119q78 -11 120 -59t42 -115q0 -95 -81 -132q50 -16 79.5 -57t29.5 -102q0 -82 -48 -133t-141 -64v-118h-106v114h-62v-114h-105v114h-122v669zM359 139q37 0 59 20.5t22 52.5q0 30 -21 50t-53 20h-164v-143h157zM345 397
q33 0 54 17.5t21 48.5q0 30 -20 49t-51 19h-147v-134h143z" />
    <glyph glyph-name="cent.tf" 
d="M98 472q59 71 158 89v112h115v-109q82 -11 138 -58.5t73 -123.5l-154 -41q-8 35 -38.5 57.5t-69.5 22.5q-51 0 -83.5 -34t-32.5 -88q0 -53 33 -86.5t84 -33.5q38 0 68.5 22t41.5 57l146 -62q-21 -61 -74.5 -104.5t-131.5 -55.5v-119h-115v120q-99 17 -158 87.5t-59 173.5
t59 174z" />
    <glyph glyph-name="dollar.tf" 
d="M585 210q0 -81 -48 -135.5t-134 -74.5v-130h-167v124q-127 17 -209 89l66 130q109 -79 226 -79q47 0 73 16t26 43q0 18 -10 30.5t-33.5 20.5t-39 11.5t-50.5 9.5q-31 5 -53.5 10.5t-52 15.5t-50 25t-39.5 35t-28.5 49.5t-9.5 66.5q0 81 48.5 133.5t135.5 70.5v135h167
v-132q101 -15 168 -61l-58 -133q-36 25 -91 41.5t-107 16.5q-96 0 -96 -57q0 -16 8.5 -27.5t26.5 -18.5t32 -11t39 -8q117 -22 164 -47q96 -49 96 -159z" />
    <glyph glyph-name="Euro.tf" 
d="M433 128q101 0 177 34v-137q-31 -16 -88 -27t-111 -11q-132 0 -221 67.5t-117 181.5h-76v71h66q-1 8 -1 25t1 25h-66v72h76q29 116 118 184.5t213 68.5q55 0 108.5 -13.5t85.5 -36.5v-138q-32 22 -81.5 34.5t-92.5 12.5q-65 0 -113 -30t-72 -82h267v-72h-287
q-1 -8 -1 -26q0 -16 1 -24h287v-71h-268q52 -108 195 -108z" />
    <glyph glyph-name="uni20B4.tf" 
d="M611 446v-75h-122q-33 -26 -104 -61h226v-75h-358q-13 -17 -13 -41q0 -28 24 -43.5t66 -15.5q46 0 112 9t104 21l10 -134q-105 -42 -229 -42q-133 0 -193 50t-60 135q0 34 9 61h-78v75h129q34 30 101 61h-230v75h379q9 14 9 35q0 28 -25.5 44.5t-69.5 16.5
q-90 0 -177 -30l-14 131q105 37 197 37q121 0 186.5 -46.5t65.5 -136.5q0 -30 -8 -51h63z" />
    <glyph glyph-name="uni20BD.tf" 
d="M388 231h-133v-54h185v-89h-185v-88h-169v88h-83v89h83v54h-83v105h83v333h305q98 0 162 -62t64 -157q0 -97 -63 -158t-166 -61zM350 528h-95v-192h86q48 0 77.5 27t29.5 69q0 41 -27.5 68.5t-70.5 27.5z" />
    <glyph glyph-name="sterling.tf" 
d="M291 265q0 -72 -32 -122h309v-143h-508l-23 128q54 21 72.5 48.5t18.5 80.5v14h-85v112h52q-16 46 -16 88q0 92 69.5 151t179.5 59q33 0 64 -5t66 -21t61 -40.5t43.5 -67t18.5 -97.5l-153 -10q-1 47 -26 72t-67 25q-40 0 -64.5 -24.5t-24.5 -61.5q0 -26 17 -68h211v-112
h-183v-6z" />
    </font>
</defs>
</svg>
