<?xml version="1.0" standalone="no"?>
<!DOCTYPE svg PUBLIC "-//W3C//DTD SVG 1.1//EN" "http://www.w3.org/Graphics/SVG/1.1/DTD/svg11.dtd" >
<svg xmlns="http://www.w3.org/2000/svg" xmlns:xlink="http://www.w3.org/1999/xlink" version="1.1">
<metadata>
Created by FontForge 20170731 at Tue Jul 14 08:18:43 2020
 By Aleksey,,,
Copyright (c) 2020 by Kastelov. All rights reserved.
</metadata>
<defs>
<font id="Kinetika-Light" horiz-adv-x="574" >
  <font-face 
    font-family="Kinetika-Light"
    font-weight="400"
    font-stretch="normal"
    units-per-em="1000"
    panose-1="0 0 3 0 0 0 0 0 0 0"
    ascent="767"
    descent="-233"
    x-height="467"
    cap-height="669"
    bbox="-364 -228 1101 889"
    underline-thickness="50"
    underline-position="-150"
    unicode-range="U+000D-2767"
  />
<missing-glyph horiz-adv-x="104" 
 />
    <glyph glyph-name=".notdef" horiz-adv-x="104" 
 />
    <glyph glyph-name=".null" horiz-adv-x="0" 
 />
    <glyph glyph-name="uni000D" horiz-adv-x="333" 
 />
    <glyph glyph-name="uni000D.1" unicode="&#xd;" horiz-adv-x="165" 
 />
    <glyph glyph-name="space" unicode=" " horiz-adv-x="227" 
 />
    <glyph glyph-name="exclam" unicode="!" horiz-adv-x="238" 
d="M144 702l-6 -567h-39l-5 567h50zM95 48q10 10 25 10q14 0 24.5 -10t10.5 -26q0 -15 -10.5 -25t-24.5 -10q-15 0 -25.5 10t-10.5 25t11 26z" />
    <glyph glyph-name="quotedbl" unicode="&#x22;" horiz-adv-x="308" 
d="M217 701h45l-41 -255h-34zM87 701h45l-41 -255h-34z" />
    <glyph glyph-name="numbersign" unicode="#" horiz-adv-x="662" 
d="M33 191l8 35h123l49 221h-142l8 34h141l42 188h37l-40 -188h210l41 188h39l-40 -188h120l-7 -34h-121l-47 -221h138l-6 -35h-140l-41 -191h-41l42 191h-210l-41 -191h-41l42 191h-123zM204 226h209l49 221h-211z" />
    <glyph glyph-name="dollar" unicode="$" horiz-adv-x="577" 
d="M46 63l16 35q107 -72 232 -72q96 0 151.5 40.5t55.5 106.5q0 19 -4 35t-14.5 28.5t-18.5 22t-27 18t-28 13.5t-34 11.5t-32 8t-35.5 7t-31.5 6.5q-50 10 -84 21t-68.5 30.5t-52 51.5t-17.5 75q0 80 60.5 127t162.5 52v126h41v-127q100 -3 201 -60l-16 -35q-89 58 -206 58
q-99 0 -150 -38.5t-51 -100.5q0 -30 13.5 -53t29.5 -36.5t48 -25.5t50 -16l54 -12q7 -1 31 -6t33.5 -7.5t32.5 -8t34 -10.5t30.5 -13.5t29.5 -17t23.5 -21t19.5 -26.5t11 -32.5t5 -39.5q0 -81 -60 -131.5t-163 -56.5v-120h-41v119q-129 5 -231 74z" />
    <glyph glyph-name="percent" unicode="%" horiz-adv-x="748" 
d="M82 634q46 46 112 46q67 0 113 -46t46 -113q0 -66 -46 -112.5t-113 -46.5q-66 0 -112 46.5t-46 112.5q0 67 46 113zM443 260q46 46 113 46q66 0 112 -46t46 -113q0 -66 -46 -112t-112 -46q-67 0 -113 46t-46 112q0 67 46 113zM468 57q35 -36 88 -36t88 36t35 90
q0 55 -35 91.5t-88 36.5t-88.5 -36.5t-35.5 -91.5q0 -54 36 -90zM71 521q0 -55 35 -91t88 -36t88.5 36t35.5 91q0 54 -35.5 90.5t-88.5 36.5q-52 0 -87.5 -36.5t-35.5 -90.5zM620 669h42l-545 -669h-43z" />
    <glyph glyph-name="ampersand" unicode="&#x26;" horiz-adv-x="656" 
d="M206 353q-31 30 -47.5 48t-35 53t-18.5 70q0 64 49 110t131 46q81 0 125 -47t44 -107q0 -52 -44.5 -93t-136.5 -90l223 -204q57 62 82 141h40q-21 -83 -93 -168l122 -112h-53l-95 86q-103 -97 -241 -97q-100 0 -156.5 50t-56.5 122q0 124 161 192zM87 161q0 -61 48.5 -99
t124.5 -38q113 0 211 88l-235 214q-149 -61 -149 -165zM146 523q0 -29 16 -59t33.5 -48.5t47.5 -45.5q94 48 132 82.5t38 73.5q0 52 -36 85t-93 33q-60 0 -99 -34t-39 -87z" />
    <glyph glyph-name="quotesingle" unicode="'" horiz-adv-x="179" 
d="M91 446h-34l30 255h45z" />
    <glyph glyph-name="parenleft" unicode="(" horiz-adv-x="257" 
d="M92 531q43 120 113 201h44q-157 -198 -157 -451q0 -239 157 -453h-44q-68 83 -112.5 203.5t-44.5 248.5q0 131 44 251z" />
    <glyph glyph-name="parenright" unicode=")" horiz-adv-x="257" 
d="M8 -172q156 212 156 453q0 253 -156 451h43q71 -81 114 -200.5t43 -251.5q0 -128 -44.5 -248.5t-112.5 -203.5h-43z" />
    <glyph glyph-name="asterisk" unicode="*" horiz-adv-x="442" 
d="M73 682l4 1l131 -88l-10 154l1 5h45l1 -5l-11 -154l131 88l3 -1l22 -38l-2 -4l-140 -69l139 -66l4 -4l-23 -38h-4l-130 86l11 -154l-1 -6h-45l-1 6l10 154l-129 -86h-6l-21 38l4 4l138 66l-140 69l-2 4z" />
    <glyph glyph-name="plus" unicode="+" horiz-adv-x="489" 
d="M36 305v36h189v191h39v-191h189v-36h-189v-191h-39v191h-189z" />
    <glyph glyph-name="comma" unicode="," horiz-adv-x="176" 
d="M94 -14q-4 -1 -10 -1q-17 0 -27 10.5t-10 24.5q0 16 12 27q11 11 28 11t29 -12.5t12 -35.5q0 -31 -20.5 -83.5t-48.5 -89.5l-16 9q43 80 51 140z" />
    <glyph glyph-name="hyphen" unicode="-" horiz-adv-x="459" 
d="M392 251h-325v39h325v-39z" />
    <glyph glyph-name="period" unicode="." horiz-adv-x="199" 
d="M74 49q10 10 26 10q14 0 24.5 -10.5t10.5 -25.5t-10.5 -25.5t-24.5 -10.5q-16 0 -26.5 10t-10.5 26q0 15 11 26z" />
    <glyph glyph-name="slash" unicode="/" horiz-adv-x="463" 
d="M69 -109h-44l372 841h43z" />
    <glyph glyph-name="zero" unicode="0" horiz-adv-x="622" 
d="M127 585q72 95 185 95q112 0 184 -95.5t72 -250.5q0 -154 -72 -249.5t-184 -95.5q-113 0 -185.5 95.5t-72.5 249.5q0 155 73 251zM97 334q0 -135 61 -220.5t154 -85.5q92 0 152.5 85.5t60.5 220.5q0 136 -60.5 221t-152.5 85q-93 0 -154 -85t-61 -221z" />
    <glyph glyph-name="one" unicode="1" horiz-adv-x="354" 
d="M19 609l197 60h31v-669h-42v628l-186 -58v39z" />
    <glyph glyph-name="two" unicode="2" horiz-adv-x="538" 
d="M46 -1v36l227 211q6 6 38 34t46.5 43t36.5 42.5t32 55t10 56.5q0 71 -48.5 118t-123.5 47q-74 0 -122.5 -50.5t-54.5 -129.5l-39 6q6 95 66 153.5t151 58.5q94 0 153.5 -58t59.5 -143q0 -22 -6 -44.5t-12.5 -39.5t-23.5 -40t-25 -34t-32 -34.5t-30 -29t-32.5 -29
t-27.5 -24.5l-187 -167h393v-38h-449z" />
    <glyph glyph-name="three" unicode="3" horiz-adv-x="551" 
d="M72 192q13 -75 69 -120.5t131 -45.5q80 0 135 53t55 133q0 76 -51.5 127t-132.5 51q-72 0 -134 -45l-23 29l295 256h-340v38h394v-37l-245 -217q32 9 61 9q95 0 157 -60.5t62 -151.5q0 -95 -67 -158.5t-167 -63.5q-90 0 -156.5 53t-81.5 141z" />
    <glyph glyph-name="four" unicode="4" horiz-adv-x="565" 
d="M393 669h45v-447h93v-38h-93v-184h-42v184h-376v34zM74 222h322v396z" />
    <glyph glyph-name="five" unicode="5" horiz-adv-x="555" 
d="M79 191q13 -75 69 -120t131 -45q80 0 135.5 53.5t55.5 132.5q0 80 -52.5 129.5t-136.5 49.5q-97 0 -177 -81l-34 19l41 340h361v-38h-325l-34 -272q76 68 173 68t161.5 -61.5t64.5 -155.5t-66.5 -157.5t-167.5 -63.5q-90 0 -156.5 53t-81.5 140z" />
    <glyph glyph-name="six" unicode="6" horiz-adv-x="548" 
d="M40 218q0 96 79 200l188 251h49l-200 -264q56 37 126 37q98 0 165 -64.5t67 -161.5q0 -98 -68 -162.5t-169 -64.5t-169 66t-68 163zM138 82q55 -56 138 -56q82 0 138.5 54t56.5 136t-57 136.5t-140 54.5q-82 0 -137 -53.5t-55 -134.5q0 -82 56 -137z" />
    <glyph glyph-name="seven" unicode="7" horiz-adv-x="466" 
d="M26 631v38h423v-41l-338 -628h-50l344 631h-379z" />
    <glyph glyph-name="eight" unicode="8" horiz-adv-x="614" 
d="M95 288q43 46 116 62q-61 17 -98 58t-37 96q0 76 66 126t165 50t165 -50t66 -126q0 -54 -36.5 -95.5t-97.5 -57.5q72 -16 115 -62.5t43 -109.5q0 -84 -72 -137t-183 -53t-183 52.5t-72 135.5q0 64 43 111zM96 179q0 -67 59 -110.5t152 -43.5q91 0 150.5 43.5t59.5 112.5
q0 66 -59 107.5t-150 41.5q-92 0 -152 -42t-60 -109zM170 405q53 -40 133 -40q83 0 138.5 40.5t55.5 100.5t-54 98.5t-136 38.5t-136 -39.5t-54 -100.5q0 -59 53 -98z" />
    <glyph glyph-name="nine" unicode="9" horiz-adv-x="548" 
d="M101 615q68 65 168 65q103 0 171 -66.5t68 -163.5q0 -96 -82 -203l-186 -247h-49l198 261q-53 -34 -123 -34q-98 0 -165.5 64.5t-67.5 160.5q0 98 68 163zM75 452q0 -82 57.5 -136t140.5 -54q82 0 137 53.5t55 134.5q0 82 -56 137.5t-138 55.5t-139 -54q-57 -55 -57 -137
z" />
    <glyph glyph-name="colon" unicode=":" horiz-adv-x="205" 
d="M77 48q11 11 26 11t25.5 -10.5t10.5 -25.5q0 -16 -10 -26q-11 -10 -26 -10t-26 10.5t-11 25.5q0 14 11 25zM77 430q11 11 26 11t25.5 -10.5t10.5 -25.5t-10 -25q-11 -11 -26 -11t-26 10.5t-11 25.5q0 14 11 25z" />
    <glyph glyph-name="semicolon" unicode=";" horiz-adv-x="221" 
d="M67 -154q41 75 51 140q-4 -1 -10 -1q-17 0 -27.5 10.5t-10.5 24.5q0 16 12 27t29 11t29 -12.5t12 -35.5q0 -31 -20.5 -83.5t-48.5 -89.5zM80 435q11 11 27 11t27 -11t11 -27t-11 -26q-11 -11 -27 -11t-27 10.5t-11 26.5t11 27z" />
    <glyph glyph-name="less" unicode="&#x3c;" horiz-adv-x="452" 
d="M391 512v-43l-317 -154l317 -154v-43l-360 179v37z" />
    <glyph glyph-name="equal" unicode="=" horiz-adv-x="502" 
d="M431 448v-39h-360v39h360zM71 202v38h360v-38h-360z" />
    <glyph glyph-name="greater" unicode="&#x3e;" horiz-adv-x="452" 
d="M422 334v-37l-361 -179v43l317 154l-317 154v43z" />
    <glyph glyph-name="question" unicode="?" horiz-adv-x="501" 
d="M117 680q58 30 124 30q93 0 156.5 -51t63.5 -138q0 -40 -15.5 -72t-38.5 -51t-50.5 -40.5t-50.5 -40t-38.5 -48.5t-15.5 -67v-67h-41v68q0 50 21.5 87t51.5 60.5t60.5 45.5t52 53.5t21.5 73.5q0 71 -52 110t-126 39q-54 0 -102.5 -24.5t-77.5 -77.5l-34 21q32 59 91 89z
M197 22q0 14 10.5 24t24.5 10t24.5 -10t10.5 -24q0 -15 -10 -25q-11 -10 -25 -10t-24.5 10t-10.5 25z" />
    <glyph glyph-name="at" unicode="@" horiz-adv-x="826" 
d="M46 236q0 157 103.5 260.5t267.5 103.5q158 0 258.5 -94.5t100.5 -232.5q0 -94 -48 -156t-116 -62q-39 0 -64.5 21.5t-30.5 57.5q-51 -80 -141 -80q-65 0 -107.5 47t-42.5 120q0 81 51.5 138t125.5 57q87 0 127 -77l5 69h35l-17 -245v-6q0 -29 17 -49t48 -20
q50 0 86.5 52.5t36.5 130.5q0 124 -91 209.5t-233 85.5q-150 0 -242.5 -96t-92.5 -236q0 -142 93 -235t238 -93q74 0 146 25t120 66l15 -27q-51 -44 -129.5 -70.5t-156.5 -26.5q-156 0 -259 103t-103 260zM298 126q33 -38 86 -38q57 0 98 47t41 114q0 57 -33.5 94.5
t-85.5 37.5q-58 0 -99 -46t-41 -112q0 -59 34 -97z" />
    <glyph glyph-name="A" unicode="A" horiz-adv-x="659" 
d="M310 669h41l287 -669h-46l-84 198h-357l-84 -198h-46zM164 236h330l-163 389z" />
    <glyph glyph-name="B" unicode="B" horiz-adv-x="684" 
d="M98 669h327q77 0 126 -49t49 -122q0 -47 -26 -86t-71 -57q58 -13 94 -60t36 -110q0 -79 -57 -132t-147 -53h-331v669zM141 329v-291h282q74 0 120.5 42t46.5 107q0 60 -40 101t-99 41h-310zM141 366h276q60 0 100.5 37t40.5 92q0 59 -38 98t-99 39h-280v-266z" />
    <glyph glyph-name="C" unicode="C" horiz-adv-x="726" 
d="M145 581q95 99 239 99q107 0 189.5 -57.5t118.5 -154.5l-38 -16q-34 85 -106.5 137t-164.5 52q-122 0 -207 -89t-85 -219q0 -128 85 -216.5t208 -88.5q89 0 161.5 50t105.5 132l40 -16q-38 -94 -120 -149.5t-187 -55.5q-143 0 -239 98.5t-96 245.5q0 148 96 248z" />
    <glyph glyph-name="D" unicode="D" horiz-adv-x="707" 
d="M98 669h227q151 0 241 -93.5t90 -241.5q0 -147 -85.5 -240.5t-230.5 -93.5h-242v669zM336 39q126 0 201.5 82.5t75.5 212.5q0 131 -76.5 213.5t-207.5 82.5h-188v-591h195z" />
    <glyph glyph-name="E" unicode="E" horiz-adv-x="612" 
d="M98 0v669h454v-38h-412v-273h398v-38h-398v-282h424v-38h-466z" />
    <glyph glyph-name="F" unicode="F" horiz-adv-x="571" 
d="M98 669h444v-39h-401v-274h374v-38h-374v-318h-43v669z" />
    <glyph glyph-name="G" unicode="G" horiz-adv-x="756" 
d="M50 334q0 149 94.5 247.5t242.5 98.5q95 0 176 -49.5t119 -130.5l-35 -22q-33 73 -104.5 118t-153.5 45q-131 0 -213.5 -87t-82.5 -220t84.5 -220t212.5 -87q122 0 200.5 79.5t78.5 198.5h-295v38h338v-28q0 -142 -91 -234t-233 -92q-147 0 -242.5 97.5t-95.5 247.5z" />
    <glyph glyph-name="H" unicode="H" horiz-adv-x="733" 
d="M141 669v-318h451v318h42v-669h-42v312h-451v-312h-43v669h43z" />
    <glyph glyph-name="I" unicode="I" horiz-adv-x="239" 
d="M98 0v669h43v-669h-43z" />
    <glyph glyph-name="J" unicode="J" horiz-adv-x="479" 
d="M24 47q63 -19 120 -19q98 0 150.5 52.5t52.5 135.5v453h42v-460q0 -100 -63.5 -160t-178.5 -60q-67 0 -122 19z" />
    <glyph glyph-name="K" unicode="K" horiz-adv-x="606" 
d="M141 669v-323l384 323h59l-402 -336l419 -333h-62l-398 318v-318h-43v669h43z" />
    <glyph glyph-name="L" unicode="L" horiz-adv-x="549" 
d="M526 0h-428v669h43v-630h385v-39z" />
    <glyph glyph-name="M" unicode="M" horiz-adv-x="881" 
d="M138 669l302 -472l303 472h40v-669h-42v594l-285 -446h-30l-286 446v-594h-42v669h40z" />
    <glyph glyph-name="N" unicode="N" horiz-adv-x="738" 
d="M140 669l458 -601v601h41v-669h-39l-460 600v-600h-42v669h42z" />
    <glyph glyph-name="O" unicode="O" horiz-adv-x="767" 
d="M145 581q95 99 239 99q143 0 238 -99.5t95 -247.5q0 -147 -95 -245.5t-238 -98.5q-144 0 -239.5 98.5t-95.5 245.5q0 148 96 248zM91 333q0 -128 85 -216.5t208 -88.5q122 0 206.5 88.5t84.5 216.5q0 130 -84.5 219t-206.5 89q-123 0 -208 -89t-85 -219z" />
    <glyph glyph-name="P" unicode="P" horiz-adv-x="645" 
d="M382 669q103 0 166 -61.5t63 -156.5q0 -97 -64 -158.5t-169 -61.5h-237v-231h-43v669h284zM375 269q87 0 140 51t53 131q0 78 -52 129t-136 51h-239v-362h234z" />
    <glyph glyph-name="Q" unicode="Q" horiz-adv-x="768" 
d="M145 581q95 99 239 99q143 0 238 -99.5t95 -247.5q0 -138 -84.5 -234.5t-215.5 -108.5q27 -46 81.5 -75t123.5 -29q50 0 102 16v-39q-53 -16 -110 -16q-88 0 -151.5 40.5t-95.5 101.5q-137 7 -227.5 104.5t-90.5 239.5q0 148 96 248zM176 117q85 -89 208 -89
q122 0 206.5 88.5t84.5 216.5q0 130 -84.5 219t-206.5 89q-123 0 -208 -89t-85 -219q0 -128 85 -216z" />
    <glyph glyph-name="R" unicode="R" horiz-adv-x="654" 
d="M98 669h282q99 0 161.5 -59t62.5 -151q0 -89 -57 -144.5t-149 -62.5l205 -252h-52l-199 249h-211v-249h-43v669zM141 287h225q88 0 141.5 46t53.5 125q0 75 -51 124t-133 49h-236v-344z" />
    <glyph glyph-name="S" unicode="S" horiz-adv-x="618" 
d="M55 113q108 -85 265 -85q96 0 156 40.5t60 111.5q0 30 -14 53t-33.5 36.5t-54 24.5t-60 15.5t-67.5 10.5q-33 5 -52.5 8.5t-53 12t-54.5 21t-43.5 30.5t-33 45t-10.5 61q0 87 66.5 134.5t183.5 47.5q128 0 240 -55l-17 -35q-108 52 -219 52q-103 0 -157 -38t-54 -104
q0 -30 13.5 -53t33 -37t51 -25t57.5 -16.5t64 -10.5q33 -5 52 -8t50 -10t49.5 -15t41 -21.5t35 -29.5t21 -40t8.5 -53q0 -97 -73.5 -144t-188.5 -47q-164 0 -281 87z" />
    <glyph glyph-name="T" unicode="T" horiz-adv-x="553" 
d="M23 669h507v-38h-232v-631h-42v631h-233v38z" />
    <glyph glyph-name="U" unicode="U" horiz-adv-x="708" 
d="M131 669v-420q0 -96 63 -158t160 -62q96 0 159 62t63 158v420h42v-421q0 -114 -73 -186q-74 -73 -191 -73t-191 72.5t-74 186.5v421h42z" />
    <glyph glyph-name="V" unicode="V" horiz-adv-x="653" 
d="M22 669h46l259 -619l256 619h47l-281 -669h-45z" />
    <glyph glyph-name="W" unicode="W" horiz-adv-x="939" 
d="M28 669h44l186 -609l193 609h36l196 -607l184 607h44l-207 -669h-44l-191 603l-189 -603h-43z" />
    <glyph glyph-name="X" unicode="X" horiz-adv-x="591" 
d="M269 341l-246 328h51l221 -297l225 297h49l-249 -329l259 -340h-52l-233 308l-233 -308h-50z" />
    <glyph glyph-name="Y" unicode="Y" horiz-adv-x="624" 
d="M30 669h48l234 -385l237 385h48l-265 -425v-244h-41v244z" />
    <glyph glyph-name="Z" unicode="Z" horiz-adv-x="559" 
d="M524 633l-445 -595h456v-38h-508v36l446 595h-434v38h485v-36z" />
    <glyph glyph-name="bracketleft" unicode="[" horiz-adv-x="320" 
d="M98 732h207v-38h-166v-823h166v-38h-207v899z" />
    <glyph glyph-name="backslash" unicode="\" horiz-adv-x="463" 
d="M66 732l371 -841h-43l-371 841h43z" />
    <glyph glyph-name="bracketright" unicode="]" horiz-adv-x="320" 
d="M16 694v38h206v-899h-206v38h165v823h-165z" />
    <glyph glyph-name="asciicircum" unicode="^" horiz-adv-x="510" 
d="M234 669h42l189 -286h-46l-164 249l-164 -249h-47z" />
    <glyph glyph-name="underscore" unicode="_" horiz-adv-x="535" 
d="M535 -99h-535v36h535v-36z" />
    <glyph glyph-name="grave" unicode="`" horiz-adv-x="216" 
d="M112 660l48 -129h-40l-65 129h57z" />
    <glyph glyph-name="a" unicode="a" horiz-adv-x="606" 
d="M112 408q67 69 167 69q66 0 119 -32.5t82 -87.5v110h41v-467h-41v111q-30 -56 -83 -88.5t-119 -32.5q-100 0 -166.5 69.5t-66.5 173.5q0 105 67 175zM144 87q55 -59 138 -59q84 0 140.5 59.5t56.5 148.5q0 86 -56.5 144.5t-139.5 58.5t-139 -59t-56 -147t56 -146z" />
    <glyph glyph-name="b" unicode="b" horiz-adv-x="601" 
d="M127 701v-341q30 54 83 85t118 31q97 0 162.5 -69.5t65.5 -173.5t-65 -173.5t-162 -69.5q-64 0 -117.5 31t-83.5 84v-105h-42v701h41zM125 234q0 -88 57 -147t142 -59q81 0 135.5 59t54.5 146q0 88 -55 146.5t-136 58.5q-84 0 -141 -58.5t-57 -145.5z" />
    <glyph glyph-name="c" unicode="c" horiz-adv-x="546" 
d="M115 408q70 70 174 70q76 0 136 -40t86 -105l-38 -14q-22 53 -72 86.5t-112 33.5q-87 0 -144.5 -58.5t-57.5 -147.5t58 -147t143 -58q61 0 112 33.5t75 87.5l37 -17q-27 -63 -88.5 -102.5t-137.5 -39.5q-103 0 -172 69t-69 174t70 175z" />
    <glyph glyph-name="d" unicode="d" horiz-adv-x="601" 
d="M111 407q65 69 163 69q64 0 117 -30.5t83 -83.5v339h42v-701h-42v106q-30 -54 -83 -85t-117 -31q-98 0 -163.5 69.5t-65.5 173.5t66 174zM88 233q0 -88 54.5 -146.5t135.5 -58.5q85 0 141.5 59t56.5 147t-56.5 146t-141.5 58q-81 0 -135.5 -58.5t-54.5 -146.5z" />
    <glyph glyph-name="e" unicode="e" horiz-adv-x="566" 
d="M45 233q0 105 69.5 174.5t173.5 69.5q101 0 167 -66.5t66 -168.5q0 -17 -2 -29h-431q6 -82 62.5 -134.5t137.5 -52.5q58 0 105.5 28t72.5 75l35 -17q-29 -56 -87 -89t-128 -33q-103 0 -172 69t-69 174zM87 248h393q-3 83 -57 138q-55 55 -136 55t-138.5 -56t-61.5 -137z
" />
    <glyph glyph-name="f" unicode="f" horiz-adv-x="376" 
d="M106 467v55q0 84 46.5 132.5t130.5 48.5q54 0 96 -17v-38q-38 17 -92 17q-67 0 -103 -38t-36 -107v-53h212v-36h-212v-431h-42v431h-85v36h85z" />
    <glyph glyph-name="g" unicode="g" horiz-adv-x="606" 
d="M113 407q67 69 166 69q66 0 119 -31.5t82 -85.5v108h42v-439q0 -117 -64 -178.5t-184 -61.5q-105 0 -186 50v45q80 -57 184 -57q101 0 155 53t54 149v86q-29 -56 -82.5 -89t-120.5 -33q-99 0 -165.5 69.5t-66.5 172.5q0 104 67 173zM89 233q0 -88 55 -145.5t139 -57.5
q85 0 140.5 58.5t55.5 148.5q0 87 -55.5 144.5t-139.5 57.5q-85 0 -140 -58.5t-55 -147.5z" />
    <glyph glyph-name="h" unicode="h" horiz-adv-x="589" 
d="M86 702h41v-341q28 57 78.5 86t108.5 29q85 0 142 -57.5t57 -143.5v-275h-42v265q0 74 -46.5 123t-116.5 49q-77 0 -129 -60t-52 -150v-227h-41v702z" />
    <glyph glyph-name="i" unicode="i" horiz-adv-x="213" 
d="M86 467h42v-467h-42v467zM79 620q11 11 27 11q17 0 28 -11t11 -26q0 -17 -11 -28t-28 -11q-16 0 -27 11t-11 28q0 15 11 26z" />
    <glyph glyph-name="j" unicode="j" horiz-adv-x="227" 
d="M-19 -174q118 0 118 125v516h42v-528q0 -73 -41.5 -112.5t-109.5 -39.5q-39 0 -73 10v38q31 -9 64 -9zM93 620q11 11 28 11q16 0 27 -11t11 -26q0 -17 -11 -28t-27 -11q-17 0 -28 11t-11 28q0 15 11 26z" />
    <glyph glyph-name="k" unicode="k" horiz-adv-x="492" 
d="M127 701v-460l286 226h56l-295 -233l305 -234h-60l-292 222v-222h-41v701h41z" />
    <glyph glyph-name="l" unicode="l" horiz-adv-x="213" 
d="M127 701v-701h-41v701h41z" />
    <glyph glyph-name="m" unicode="m" horiz-adv-x="915" 
d="M86 467h40v-96q26 49 72.5 77t101.5 28q58 0 104 -31t64 -83q23 51 74 82.5t111 31.5q82 0 134 -53t52 -136v-287h-42v283q0 69 -41 112t-107 43q-73 0 -119.5 -49.5t-46.5 -132.5v-256h-42v272q0 75 -39 120.5t-108 45.5q-71 0 -119 -51t-48 -132v-255h-41v467z" />
    <glyph glyph-name="n" unicode="n" horiz-adv-x="588" 
d="M126 467v-108q29 58 79 87.5t109 29.5q85 0 141.5 -57.5t56.5 -143.5v-275h-42v266q0 73 -46.5 122.5t-115.5 49.5q-77 0 -129 -60t-52 -150v-228h-41v467h40z" />
    <glyph glyph-name="o" unicode="o" horiz-adv-x="577" 
d="M115 408q69 70 173 70q105 0 174.5 -70t69.5 -175t-69.5 -174t-174.5 -69q-104 0 -173.5 69.5t-69.5 173.5t70 175zM87 233q0 -88 58 -146.5t144 -58.5q85 0 143 59t58 146q0 88 -57.5 147t-143.5 59t-144 -59t-58 -147z" />
    <glyph glyph-name="p" unicode="p" horiz-adv-x="602" 
d="M86 467h41v-108q30 55 83 86t118 31q98 0 163.5 -69.5t65.5 -173.5t-65.5 -173.5t-163.5 -69.5q-66 0 -118.5 31.5t-82.5 85.5v-308h-41v668zM125 234q0 -88 57 -147.5t141 -59.5q82 0 137 59t55 147t-55 146.5t-138 58.5q-84 0 -140.5 -58.5t-56.5 -145.5z" />
    <glyph glyph-name="q" unicode="q" horiz-adv-x="601" 
d="M111 407q65 69 163 69q65 0 117.5 -30.5t82.5 -84.5v106h42v-668h-42v308q-31 -54 -83.5 -85.5t-116.5 -31.5q-98 0 -163.5 69.5t-65.5 173.5t66 174zM88 233q0 -88 55 -147t137 -59q83 0 139.5 59.5t56.5 147.5t-56.5 146t-141.5 58q-81 0 -135.5 -58.5t-54.5 -146.5z
" />
    <glyph glyph-name="r" unicode="r" horiz-adv-x="372" 
d="M86 0v467h40v-88q23 46 66 72t99 26q35 0 64 -8v-41q-31 10 -69 10q-69 0 -114 -47.5t-45 -127.5v-263h-41z" />
    <glyph glyph-name="s" unicode="s" horiz-adv-x="487" 
d="M37 51l18 35q88 -58 196 -58q71 0 114 25t43 72q0 25 -12.5 41.5t-34.5 25.5t-50.5 15t-61.5 11q-3 0 -5.5 0.5t-4.5 0.5q-32 5 -51 9t-47.5 14t-44.5 22t-28.5 33.5t-12.5 49.5q0 61 51.5 96t140.5 35q97 0 179 -39l-12 -35q-79 37 -168 37q-72 0 -111 -25t-39 -68
q0 -25 11.5 -41.5t38 -26.5t44.5 -13.5t57 -9.5t62.5 -10.5t53.5 -14.5t46.5 -23t28 -34t11.5 -49q0 -67 -57 -101.5t-144 -34.5q-120 0 -211 61z" />
    <glyph glyph-name="t" unicode="t" horiz-adv-x="358" 
d="M21 467h91v191h41v-191h180v-36h-180v-292q0 -111 103 -111q47 0 97 21v-37q-53 -22 -104 -22q-68 0 -102.5 38t-34.5 107v296h-91v36z" />
    <glyph glyph-name="u" unicode="u" horiz-adv-x="588" 
d="M76 467h42v-266q0 -74 46.5 -123t116.5 -49q75 0 127.5 56.5t52.5 141.5v240h42v-467h-41v105q-29 -57 -79.5 -86t-108.5 -29q-87 0 -142.5 58t-55.5 147v272z" />
    <glyph glyph-name="v" unicode="v" horiz-adv-x="518" 
d="M66 467l192 -412h2l192 412h47l-220 -467h-39l-220 467h46z" />
    <glyph glyph-name="w" unicode="w" horiz-adv-x="772" 
d="M20 467h46l158 -412l143 412h39l143 -412l157 412h46l-185 -467h-38l-142 415l-144 -415h-38z" />
    <glyph glyph-name="x" unicode="x" horiz-adv-x="491" 
d="M219 237l-196 230h50l173 -204l174 204h50l-198 -231l201 -236h-49l-178 208l-180 -208h-50z" />
    <glyph glyph-name="y" unicode="y" horiz-adv-x="531" 
d="M66 467l209 -453l190 453h45l-223 -526q-9 -21 -16 -35.5t-23.5 -39t-34.5 -40t-46 -27.5t-60 -12q-40 0 -85 15v41q37 -17 82 -17q85 0 132 105l17 38l-233 498h46z" />
    <glyph glyph-name="z" unicode="z" horiz-adv-x="456" 
d="M429 0h-403v28l335 402h-315v37h371v-29l-333 -400h345v-38z" />
    <glyph glyph-name="braceleft" unicode="{" horiz-adv-x="325" 
d="M101 318q22 19 22 83q0 21 -1 34l-8 110q-1 8 -1 27q0 30 6 55.5t21 51.5t45.5 41t73.5 15q25 0 48 -5v-36q-20 4 -42 4q-112 0 -112 -130q0 -19 1 -29l8 -105q2 -28 2 -39q0 -50 -16 -76.5t-53 -37.5q37 -11 53 -37.5t16 -77.5q0 -11 -2 -39l-8 -105q-1 -10 -1 -29
q0 -129 112 -129q22 0 42 4v-36q-23 -5 -48 -5q-43 0 -73.5 15t-45.5 41t-21 51.5t-6 55.5q0 19 1 27l8 109q1 13 1 34q0 64 -22 83t-75 21v34q52 1 75 20z" />
    <glyph glyph-name="bar" unicode="|" horiz-adv-x="237" 
d="M138 -212h-39v1042h39v-1042z" />
    <glyph glyph-name="braceright" unicode="}" horiz-adv-x="325" 
d="M17 -168v36q20 -4 43 -4q112 0 112 129q0 14 -1 29l-8 105q-2 28 -2 39q0 51 16 77.5t53 37.5q-37 11 -53 37.5t-16 76.5q0 11 2 39l8 105q1 9 1 27q0 132 -112 132q-23 0 -43 -4v36q23 5 49 5q43 0 73.5 -15t45.5 -41t21 -51.5t6 -55.5q0 -19 -1 -27l-8 -110
q-1 -13 -1 -35q0 -63 22 -82t74 -20v-34q-52 -2 -74 -21t-22 -82q0 -22 1 -35l8 -109q1 -8 1 -27q0 -30 -6 -55.5t-21 -51.5t-45.5 -41t-73.5 -15q-26 0 -49 5z" />
    <glyph glyph-name="asciitilde" unicode="~" horiz-adv-x="596" 
d="M119 358q35 30 80 30q35 0 70 -23t69 -46t65 -23q63 0 83 75h42q-10 -54 -45 -84.5t-81 -30.5q-44 0 -108 46.5t-97 46.5q-63 0 -81 -76h-42q9 55 45 85z" />
    <glyph glyph-name="exclamdown" unicode="&#xa1;" horiz-adv-x="207" 
d="M83 355h40l6 -567h-51zM79 492q10 10 25 10q14 0 24.5 -10.5t10.5 -24.5q0 -15 -10.5 -25.5t-24.5 -10.5q-15 0 -25.5 10.5t-10.5 25.5q0 14 11 25z" />
    <glyph glyph-name="cent" unicode="&#xa2;" horiz-adv-x="552" 
d="M47 328q0 99 62.5 167.5t158.5 76.5v96h37v-95q72 -4 128 -43.5t79 -100.5l-38 -15q-21 54 -71 87t-113 33q-87 0 -144 -58.5t-57 -147.5t58 -147t143 -58q62 0 112.5 33.5t73.5 87.5l37 -17q-25 -59 -81.5 -98t-126.5 -43v-99h-37v99q-95 7 -158 75t-63 167z" />
    <glyph glyph-name="sterling" unicode="&#xa3;" horiz-adv-x="543" 
d="M49 350h70q-1 4 -5.5 14t-6.5 14.5t-5.5 14t-5.5 14.5t-4.5 14.5t-4 16t-3 15.5t-2 18t-0.5 18q0 82 55.5 136.5t147.5 54.5q90 0 149.5 -57t65.5 -155l-39 -6q-7 83 -52.5 131.5t-121.5 48.5t-119.5 -44t-43.5 -112q0 -11 1 -22t3.5 -22t4 -18.5t6.5 -20t6.5 -17t8 -19
t7.5 -17.5h248v-33h-236q16 -48 16 -94q0 -114 -76 -185h381v-38h-441l-2 34q97 71 97 188q0 47 -16 95h-83v33z" />
    <glyph glyph-name="currency" unicode="&#xa4;" horiz-adv-x="598" 
d="M95 543l8 -2l73 -78q50 47 123 47q72 0 122 -48l75 79l8 2l29 -30l-2 -6l-91 -66q33 -44 33 -104t-34 -107l92 -66l2 -8l-29 -28h-8l-76 81q-49 -46 -121 -46t-121 46l-75 -81h-8l-29 28l1 8l92 66q-35 46 -35 107q0 60 33 104l-90 66l-1 6zM199 236q40 -40 100 -40
t100 40t40 100t-40 100t-100 40t-100 -40t-40 -100t40 -100z" />
    <glyph glyph-name="yen" unicode="&#xa5;" horiz-adv-x="605" 
d="M29 669h46l227 -384l228 384h47l-236 -388h172v-32h-190v-74h190v-32h-190v-143h-42v143h-189v32h189v74h-189v32h171z" />
    <glyph glyph-name="brokenbar" unicode="&#xa6;" horiz-adv-x="237" 
d="M138 830v-416h-39v416h39zM99 -212v416h39v-416h-39z" />
    <glyph glyph-name="section" unicode="&#xa7;" horiz-adv-x="504" 
d="M50 -102l20 29q73 -71 176 -71q67 0 110.5 33.5t43.5 86.5q0 44 -35.5 71.5t-86 42.5t-101.5 31.5t-86.5 50t-35.5 86.5q0 51 30.5 87.5t83.5 48.5q-103 39 -103 129q0 70 52.5 113t138.5 43q123 0 194 -74l-21 -29q-71 68 -174 68q-68 0 -109 -32t-41 -87
q0 -47 35.5 -74.5t86 -40.5t101.5 -27.5t86.5 -47.5t35.5 -88q0 -51 -28 -89.5t-84 -49.5q101 -39 101 -127q0 -71 -53.5 -115t-140.5 -44q-59 0 -111 20.5t-85 55.5zM94 261q0 -23 9.5 -41.5t21.5 -30t37 -22.5t41 -16.5t49.5 -15t47.5 -13.5q51 8 81.5 42.5t30.5 79.5
q0 19 -5 34.5t-18 28t-22.5 20t-33.5 16.5t-34 12t-41 11.5t-39 10.5q-59 -4 -92 -36t-33 -80z" />
    <glyph glyph-name="dieresis" unicode="&#xa8;" horiz-adv-x="357" 
d="M220 613q12 11 30 11q17 0 29.5 -12t12.5 -28q0 -17 -12.5 -29t-29.5 -12q-18 0 -30 12t-12 29t12 29zM79 613q12 11 29 11q18 0 30 -11.5t12 -28.5t-12 -29t-30 -12q-17 0 -29 12t-12 29t12 29z" />
    <glyph glyph-name="copyright" unicode="&#xa9;" horiz-adv-x="795" 
d="M150 584q99 99 248 99t248.5 -99t99.5 -247t-99 -247q-100 -100 -249 -100t-248.5 99t-99.5 248q0 148 100 247zM173 112q90 -90 225 -90q134 0 224 90t90 225t-90 225t-224 90q-135 0 -225.5 -90t-90.5 -225t91 -225zM212 334q0 80 53 133.5t132 53.5q56 0 102.5 -30
t68.5 -80l-31 -14q-18 43 -56 67.5t-84 24.5q-65 0 -107.5 -44.5t-42.5 -110.5q0 -67 43 -111t107 -44q46 0 84.5 25t57.5 66l30 -14q-21 -49 -68 -79t-104 -30q-79 0 -132 53.5t-53 133.5z" />
    <glyph glyph-name="ordfeminine" unicode="&#xaa;" horiz-adv-x="373" 
d="M76 555q28 21 78 21h124v8q0 12 -0.5 20.5t-6 24t-15 25t-30 17.5t-48.5 8q-60 0 -107 -19l-1 28q51 18 110 18q127 0 127 -120v-168h-29v48q-39 -54 -122 -54q-49 0 -79 23.5t-30 61.5q0 36 29 58zM77 497q0 -28 22.5 -43.5t62.5 -15.5q53 0 84.5 26.5t31.5 76.5v11
h-122q-79 0 -79 -55z" />
    <glyph glyph-name="guillemotleft" unicode="&#xab;" horiz-adv-x="465" 
d="M375 473h50l-161 -223l153 -223h-51l-151 223zM45 250l160 223h50l-161 -223l152 -223h-50z" />
    <glyph glyph-name="logicalnot" unicode="&#xac;" horiz-adv-x="607" 
d="M491 339h-433v38h473v-227h-40v189z" />
    <glyph glyph-name="uni00AD" unicode="&#xad;" horiz-adv-x="502" 
d="M435 251h-368v39h368v-39z" />
    <glyph glyph-name="registered" unicode="&#xae;" horiz-adv-x="795" 
d="M150 584q99 99 248 99t248.5 -99t99.5 -247t-99.5 -247.5t-248.5 -99.5t-248.5 99t-99.5 248q0 148 100 247zM82 337q0 -135 90.5 -225t225.5 -90q134 0 224 90t90 225t-90 225t-224 90q-135 0 -225.5 -90t-90.5 -225zM272 161v356h145q54 0 89.5 -31.5t35.5 -79.5
q0 -44 -28 -75t-74 -37l110 -133h-41l-106 132h-97v-132h-34zM306 487v-165h114q39 0 63.5 23.5t24.5 59.5q0 35 -25 58.5t-65 23.5h-112z" />
    <glyph glyph-name="macron" unicode="&#xaf;" horiz-adv-x="400" 
d="M327 571h-253v35h253v-35z" />
    <glyph glyph-name="degree" unicode="&#xb0;" horiz-adv-x="360" 
d="M85 642q38 38 95 38t95 -38.5t38 -96.5t-38 -96t-95 -38t-95 38t-38 96t38 97zM80 545q0 -44 29 -73q28 -30 71 -30t72 29.5t29 73.5q0 45 -29 75t-72 30t-71.5 -30t-28.5 -75z" />
    <glyph glyph-name="plusminus" unicode="&#xb1;" horiz-adv-x="559" 
d="M71 359v39h188v189h41v-189h188v-39h-188v-189h-41v189h-188zM71 115h417v-39h-417v39z" />
    <glyph glyph-name="twosuperior" unicode="&#xb2;" horiz-adv-x="336" 
d="M31 685q4 58 42.5 91.5t93.5 33.5q56 0 92 -31t36 -78q0 -16 -6 -32.5t-13 -28t-21.5 -26t-22.5 -21.5t-25 -20.5t-21 -16.5l-101 -83h221v-30h-271v27l132 112q5 5 23 18.5t26.5 21.5t20 21t17 27t5.5 30q0 34 -25.5 56.5t-66.5 22.5q-43 0 -71 -27t-31 -71z" />
    <glyph glyph-name="threesuperior" unicode="&#xb3;" horiz-adv-x="338" 
d="M56 550q6 -36 37 -59.5t74 -23.5q44 0 75 26.5t31 65.5q0 38 -28.5 64t-74.5 26q-37 0 -76 -23l-15 21l165 128h-195v29h238v-29l-136 -107q12 4 29 4q55 0 91.5 -32.5t36.5 -80.5q0 -52 -41 -86.5t-101 -34.5q-55 0 -94.5 28.5t-47.5 75.5z" />
    <glyph glyph-name="acute" unicode="&#xb4;" horiz-adv-x="216" 
d="M98 531h-42l48 129h58z" />
    <glyph glyph-name="paragraph" unicode="&#xb6;" horiz-adv-x="520" 
d="M77 625q48 44 120 44h283v-38h-80v-798h-38v798h-114v-798h-40v524q-77 1 -128 45.5t-51 110.5q0 67 48 112z" />
    <glyph glyph-name="periodcentered" unicode="&#xb7;" horiz-adv-x="202" 
d="M77 302q10 10 25 10q14 0 24.5 -10t10.5 -25t-10.5 -25t-24.5 -10q-15 0 -25.5 10t-10.5 25q0 14 11 25z" />
    <glyph glyph-name="cedilla" unicode="&#xb8;" horiz-adv-x="318" 
d="M58 -177q34 -14 81 -14q40 0 62 15.5t22 43.5q0 50 -75 50h-47l-5 8l26 83l33 -6l-16 -57h15q48 0 77 -21.5t29 -56.5q0 -40 -31 -65.5t-87 -25.5q-47 0 -86 15z" />
    <glyph glyph-name="onesuperior" unicode="&#xb9;" horiz-adv-x="319" 
d="M153 473v292l-116 -52v33l124 58h27v-331h114v-30h-269v30h120z" />
    <glyph glyph-name="ordmasculine" unicode="&#xba;" horiz-adv-x="374" 
d="M86 665q41 41 102 41q60 0 100.5 -41.5t40.5 -102.5t-40.5 -102.5t-100.5 -41.5q-61 0 -102 41t-41 103t41 103zM109 480q32 -34 79 -34t78.5 33t31.5 83t-31.5 83.5t-78.5 33.5t-79.5 -34t-32.5 -83t33 -82z" />
    <glyph glyph-name="guillemotright" unicode="&#xbb;" horiz-adv-x="465" 
d="M40 473h50l160 -223l-151 -223h-50l153 223zM211 473h49l160 -223l-151 -223h-50l153 223z" />
    <glyph glyph-name="onequarter" unicode="&#xbc;" horiz-adv-x="756" 
d="M417 123l203 240h44v-239h53v-27h-53v-95h-33v95h-214v26zM655 669h37l-499 -669h-38zM42 345h122v292l-117 -52v33l124 58h27v-331h113v-30h-269v30zM458 124h173v210z" />
    <glyph glyph-name="onehalf" unicode="&#xbd;" horiz-adv-x="762" 
d="M451 244q4 58 42.5 91.5t93.5 33.5q57 0 92.5 -30.5t35.5 -78.5q0 -16 -6 -32.5t-13 -28t-21 -26t-22 -21t-25.5 -20.5t-21.5 -17l-100 -82h221v-31h-272v27l132 112q6 5 23 18.5t26 21.5t21 21t17.5 27t5.5 30q0 34 -26 56.5t-67 22.5q-42 0 -70 -26.5t-32 -71.5z
M626 669h37l-500 -669h-38zM44 315v30h121v292l-116 -52v33l123 58h27v-331h114v-30h-269z" />
    <glyph glyph-name="threequarters" unicode="&#xbe;" horiz-adv-x="745" 
d="M409 123l203 240h44v-239h54v-27h-54v-95h-32v95h-215v26zM64 422q6 -36 37 -59.5t74 -23.5q45 0 75.5 26.5t30.5 65.5q0 38 -28.5 64t-73.5 26q-38 0 -77 -23l-15 21l165 128h-195v29h238v-29l-136 -107q12 4 29 4q55 0 91.5 -32.5t36.5 -80.5q0 -52 -40.5 -86.5
t-101.5 -34.5q-55 0 -94.5 28.5t-47.5 75.5zM128 0l501 669h37l-500 -669h-38zM451 124h173v210z" />
    <glyph glyph-name="questiondown" unicode="&#xbf;" horiz-adv-x="493" 
d="M58 59q21 35 51.5 58t61.5 45.5t52.5 56t21.5 77.5v67h41v-68q0 -50 -21.5 -87.5t-52 -60.5t-60.5 -45t-51.5 -53.5t-21.5 -73.5q0 -71 52 -110.5t126 -39.5q53 0 101.5 25t77.5 77l34 -21q-31 -59 -89.5 -88.5t-125.5 -29.5q-93 0 -156 51t-63 137q0 47 22 83zM240 500
q10 10 24 10q15 0 25.5 -10t10.5 -25q0 -14 -10.5 -24t-25.5 -10q-14 0 -24 10t-10 24q0 15 10 25z" />
    <glyph glyph-name="Agrave" unicode="&#xc0;" horiz-adv-x="659" 
d="M310 669h41l287 -669h-46l-84 198h-357l-84 -198h-46zM164 236h330l-163 389zM302 856l49 -131h-43l-66 131h60z" />
    <glyph glyph-name="Aacute" unicode="&#xc1;" horiz-adv-x="659" 
d="M310 669h41l287 -669h-46l-84 198h-357l-84 -198h-46zM164 236h330l-163 389zM362 855h59l-66 -131h-42z" />
    <glyph glyph-name="Acircumflex" unicode="&#xc2;" horiz-adv-x="659" 
d="M21 0l289 669h41l287 -669h-46l-84 198h-357l-84 -198h-46zM494 236l-163 389l-167 -389h330zM189 731l125 128h30l125 -128h-50l-89 92l-91 -92h-50z" />
    <glyph glyph-name="Atilde" unicode="&#xc3;" horiz-adv-x="659" 
d="M310 669h41l287 -669h-46l-84 198h-357l-84 -198h-46zM164 236h330l-163 389zM175 823q27 27 70 27q39 0 84.5 -34.5t74.5 -34.5q28 0 48 19.5t21 49.5h37q-4 -44 -32 -72.5t-70 -28.5q-37 0 -83.5 34.5t-76.5 34.5q-28 0 -45.5 -19t-19.5 -50h-37q2 46 29 74z" />
    <glyph glyph-name="Adieresis" unicode="&#xc4;" horiz-adv-x="659" 
d="M310 669h41l287 -669h-46l-84 198h-357l-84 -198h-46zM494 236l-163 389l-167 -389h330zM361 802q0 18 12.5 30.5t31.5 12.5t31.5 -12.5t12.5 -30.5t-12 -30q-13 -13 -32 -13t-31.5 12.5t-12.5 30.5zM224 832q12 13 30 13q19 0 32 -12.5t13 -30.5t-13 -30.5t-32 -12.5
q-18 0 -30.5 12.5t-12.5 30.5q0 17 13 30z" />
    <glyph glyph-name="Aring" unicode="&#xc5;" horiz-adv-x="659" 
d="M310 669h41l287 -669h-46l-84 198h-357l-84 -198h-46zM494 236l-163 389l-167 -389h330zM235 797q0 38 27.5 65t67.5 27t67 -27t27 -65t-27 -64q-27 -27 -67 -27t-67.5 26.5t-27.5 64.5zM285 754q18 -18 45 -18q26 0 44.5 18t18.5 43q0 27 -18.5 45t-44.5 18
q-27 0 -45 -18t-18 -45q0 -26 18 -43z" />
    <glyph glyph-name="AE" unicode="&#xc6;" horiz-adv-x="945" 
d="M418 669h470v-38h-404v-274h383v-37h-383v-282h415v-38h-457v199h-278l-127 -199h-46zM187 236h255v400z" />
    <glyph glyph-name="Ccedilla" unicode="&#xc7;" horiz-adv-x="726" 
d="M145 581q95 99 239 99q107 0 189.5 -57.5t118.5 -154.5l-38 -16q-34 85 -106.5 137t-164.5 52q-122 0 -207 -89t-85 -219q0 -128 85 -216.5t208 -88.5q89 0 161.5 50t105.5 132l40 -16q-38 -94 -120 -149.5t-187 -55.5l-13 -44h16q48 0 76.5 -21.5t28.5 -57.5
q0 -40 -31 -65t-87 -25q-45 0 -86 14l3 32q34 -14 81 -14q39 0 61.5 15.5t22.5 43.5q0 50 -75 50h-48l-4 8l20 66q-130 13 -215 109t-85 233q0 148 96 248z" />
    <glyph glyph-name="Egrave" unicode="&#xc8;" horiz-adv-x="612" 
d="M98 669h454v-38h-412v-273h398v-38h-398v-282h424v-38h-466v669zM247 856h59l49 -131h-43z" />
    <glyph glyph-name="Eacute" unicode="&#xc9;" horiz-adv-x="612" 
d="M98 669h454v-38h-412v-273h398v-38h-398v-282h424v-38h-466v669zM317 724l49 131h59l-66 -131h-42z" />
    <glyph glyph-name="Ecircumflex" unicode="&#xca;" horiz-adv-x="612" 
d="M98 0v669h454v-38h-412v-273h398v-38h-398v-282h424v-38h-466zM193 731l125 128h30l125 -128h-49l-90 92l-91 -92h-50z" />
    <glyph glyph-name="Edieresis" unicode="&#xcb;" horiz-adv-x="612" 
d="M98 669h454v-38h-412v-273h398v-38h-398v-282h424v-38h-466v669zM215 802q0 18 12.5 30.5t31.5 12.5t31.5 -12.5t12.5 -30.5t-12 -30q-13 -13 -32 -13t-31.5 12.5t-12.5 30.5zM365 802q0 18 12.5 30.5t31.5 12.5t31.5 -12.5t12.5 -30.5t-12 -30q-13 -13 -32 -13
t-31.5 12.5t-12.5 30.5z" />
    <glyph glyph-name="Igrave" unicode="&#xcc;" horiz-adv-x="240" 
d="M92 856l49 -131h-43l-65 131h59zM99 0v669h42v-669h-42z" />
    <glyph glyph-name="Iacute" unicode="&#xcd;" horiz-adv-x="239" 
d="M145 724h-42l49 131h58zM98 0v669h43v-669h-43z" />
    <glyph glyph-name="Icircumflex" unicode="&#xce;" horiz-adv-x="240" 
d="M98 669h43v-669h-43v669zM105 859h29l126 -128h-50l-90 92l-91 -92h-49z" />
    <glyph glyph-name="Idieresis" unicode="&#xcf;" horiz-adv-x="240" 
d="M141 669v-669h-42v669h42zM1 802q0 18 12.5 30.5t31.5 12.5t31.5 -12.5t12.5 -30.5t-12 -30q-13 -13 -32 -13t-31.5 12.5t-12.5 30.5zM151 802q0 18 12.5 30.5t31.5 12.5t31.5 -12.5t12.5 -30.5t-12 -30q-13 -13 -32 -13t-31.5 12.5t-12.5 30.5z" />
    <glyph glyph-name="Eth" unicode="&#xd0;" horiz-adv-x="715" 
d="M32 317v34h74v318h227q152 0 241.5 -93.5t89.5 -241.5q0 -147 -85.5 -240.5t-230.5 -93.5h-242v317h-74zM148 39h196q126 0 201.5 82.5t75.5 212.5q0 131 -76.5 213.5t-207.5 82.5h-189v-279h210v-34h-210v-278z" />
    <glyph glyph-name="Ntilde" unicode="&#xd1;" horiz-adv-x="738" 
d="M140 669l458 -601v601h41v-669h-39l-460 600v-600h-42v669h42zM185 749q2 46 28.5 73t70.5 27q39 0 84.5 -34.5t73.5 -34.5q29 0 49 19.5t21 49.5h36q-3 -44 -31.5 -72.5t-70.5 -28.5q-36 0 -83 34.5t-76 34.5q-28 0 -45.5 -19t-19.5 -49h-37z" />
    <glyph glyph-name="Ograve" unicode="&#xd2;" horiz-adv-x="767" 
d="M145 581q95 99 239 99q143 0 238 -99.5t95 -247.5q0 -147 -95 -245.5t-238 -98.5q-144 0 -239.5 98.5t-95.5 245.5q0 148 96 248zM176 117q85 -89 208 -89q122 0 206.5 88.5t84.5 216.5q0 130 -84.5 219t-206.5 89q-123 0 -208 -89t-85 -219q0 -128 85 -216zM296 853h59
l50 -131h-43z" />
    <glyph glyph-name="Oacute" unicode="&#xd3;" horiz-adv-x="767" 
d="M145 581q95 99 239 99q143 0 238 -99.5t95 -247.5q0 -147 -95 -245.5t-238 -98.5q-144 0 -239.5 98.5t-95.5 245.5q0 148 96 248zM91 333q0 -128 85 -216.5t208 -88.5q122 0 206.5 88.5t84.5 216.5q0 130 -84.5 219t-206.5 89q-123 0 -208 -89t-85 -219zM416 852h58
l-65 -130h-42z" />
    <glyph glyph-name="Ocircumflex" unicode="&#xd4;" horiz-adv-x="767" 
d="M145 581q95 99 239 99q143 0 238 -99.5t95 -247.5q0 -147 -95 -245.5t-238 -98.5q-144 0 -239.5 98.5t-95.5 245.5q0 148 96 248zM176 117q85 -89 208 -89q122 0 206.5 88.5t84.5 216.5q0 130 -84.5 219t-206.5 89q-123 0 -208 -89t-85 -219q0 -128 85 -216zM369 857h29
l126 -128h-50l-90 92l-92 -92h-49z" />
    <glyph glyph-name="Otilde" unicode="&#xd5;" horiz-adv-x="767" 
d="M145 581q95 99 239 99q143 0 238 -99.5t95 -247.5q0 -147 -95 -245.5t-238 -98.5q-144 0 -239.5 98.5t-95.5 245.5q0 148 96 248zM91 333q0 -128 85 -216.5t208 -88.5q122 0 206.5 88.5t84.5 216.5q0 130 -84.5 219t-206.5 89q-123 0 -208 -89t-85 -219zM201 747
q2 46 28 73.5t70 27.5q32 0 59 -17.5t51 -35t48 -17.5q29 0 49 20t21 50h37q-4 -45 -32 -73t-70 -28q-37 0 -84 34.5t-76 34.5q-28 0 -45.5 -19t-19.5 -50h-36z" />
    <glyph glyph-name="Odieresis" unicode="&#xd6;" horiz-adv-x="767" 
d="M145 581q95 99 239 99q143 0 238 -99.5t95 -247.5q0 -147 -95 -245.5t-238 -98.5q-144 0 -239.5 98.5t-95.5 245.5q0 148 96 248zM91 333q0 -128 85 -216.5t208 -88.5q122 0 206.5 88.5t84.5 216.5q0 130 -84.5 219t-206.5 89q-123 0 -208 -89t-85 -219zM277 830
q13 13 32 13q18 0 30.5 -13t12.5 -30q0 -18 -12.5 -30.5t-30.5 -12.5q-19 0 -32 12.5t-13 30.5q0 17 13 30zM428 830q12 13 30 13q19 0 32 -13t13 -30q0 -18 -13 -30.5t-32 -12.5q-18 0 -30.5 12.5t-12.5 30.5q0 17 13 30z" />
    <glyph glyph-name="multiply" unicode="&#xd7;" horiz-adv-x="477" 
d="M391 487l27 -26l-152 -146l152 -145l-27 -27l-153 146l-152 -146l-27 26l152 146l-151 145l26 26l152 -145z" />
    <glyph glyph-name="Oslash" unicode="&#xd8;" horiz-adv-x="766" 
d="M670 710l-75 -105q57 -47 89.5 -118t32.5 -154q0 -147 -95.5 -245.5t-238.5 -98.5q-104 0 -187 55l-72 -101l-25 19l72 101q-122 100 -122 270q0 148 95.5 247.5t238.5 99.5q105 0 186 -56l75 105zM90 333q0 -72 27.5 -134t76.5 -104l353 497q-72 50 -164 50
q-125 0 -209 -88.5t-84 -220.5zM383 26q126 0 209.5 88t83.5 219q0 149 -104 240l-354 -497q73 -50 165 -50z" />
    <glyph glyph-name="Ugrave" unicode="&#xd9;" horiz-adv-x="708" 
d="M89 669h42v-420q0 -96 63 -158t160 -62q96 0 159 62t63 158v420h42v-421q0 -114 -73 -186q-74 -73 -191 -73t-191 72.5t-74 186.5v421zM326 856l49 -131h-42l-66 131h59z" />
    <glyph glyph-name="Uacute" unicode="&#xda;" horiz-adv-x="708" 
d="M89 669h42v-420q0 -96 63 -158t160 -62q96 0 159 62t63 158v420h42v-421q0 -114 -73 -186q-74 -73 -191 -73t-191 72.5t-74 186.5v421zM386 855h60l-66 -131h-43z" />
    <glyph glyph-name="Ucircumflex" unicode="&#xdb;" horiz-adv-x="708" 
d="M89 248v421h42v-420q0 -96 63 -158t160 -62q96 0 159 62t63 158v420h42v-421q0 -114 -73 -186q-74 -73 -191 -73t-191 72.5t-74 186.5zM214 731l125 128h30l125 -128h-50l-90 92l-91 -92h-49z" />
    <glyph glyph-name="Udieresis" unicode="&#xdc;" horiz-adv-x="708" 
d="M131 669v-420q0 -96 63 -158t160 -62q96 0 159 62t63 158v420h42v-421q0 -114 -73 -186q-74 -73 -191 -73t-191 72.5t-74 186.5v421h42zM248 833q12 12 31 12t31.5 -12.5t12.5 -30.5t-12 -30q-13 -13 -32 -13t-31.5 12.5t-12.5 30.5t13 31zM398 833q12 12 31 12
t31.5 -12.5t12.5 -30.5t-12 -30q-13 -13 -32 -13t-31.5 12.5t-12.5 30.5t13 31z" />
    <glyph glyph-name="Yacute" unicode="&#xdd;" horiz-adv-x="624" 
d="M78 669l234 -385l237 385h48l-265 -425v-244h-41v244l-261 425h48zM297 724l49 131h59l-66 -131h-42z" />
    <glyph glyph-name="Thorn" unicode="&#xde;" horiz-adv-x="654" 
d="M141 565h241q102 0 165 -61.5t63 -157.5q0 -97 -64 -158.5t-169 -61.5h-236v-126h-43v669h43v-104zM141 164h233q87 0 140 51t53 131q0 79 -51.5 129.5t-136.5 50.5h-238v-362z" />
    <glyph glyph-name="germandbls" unicode="&#xdf;" horiz-adv-x="614" 
d="M444 353q57 -18 91.5 -64.5t34.5 -107.5q0 -83 -61.5 -137t-155.5 -54q-83 0 -147 30v41q64 -33 146 -33q77 0 126.5 44t49.5 112q0 64 -47 106t-119 42h-116v35h115q62 0 103 40t41 101q0 67 -50.5 110.5t-127.5 43.5q-87 0 -143.5 -61.5t-56.5 -163.5v-592h-42v593
q0 118 69 190t174 72q95 0 156.5 -53t61.5 -135q0 -53 -28 -96t-74 -63z" />
    <glyph glyph-name="agrave" unicode="&#xe0;" horiz-adv-x="606" 
d="M45 233q0 105 67 174.5t167 69.5q66 0 119 -32.5t82 -87.5v110h41v-467h-41v111q-30 -56 -83 -88.5t-119 -32.5q-100 0 -166.5 69.5t-66.5 173.5zM88 233q0 -88 55.5 -146.5t138.5 -58.5q84 0 140.5 59.5t56.5 148.5q0 86 -56.5 144.5t-139.5 58.5t-139 -59t-56 -147z
M262 658l48 -129h-41l-65 129h58z" />
    <glyph glyph-name="aacute" unicode="&#xe1;" horiz-adv-x="606" 
d="M45 233q0 105 67 174.5t167 69.5q66 0 119 -32.5t82 -87.5v110h41v-467h-41v111q-30 -56 -83 -88.5t-119 -32.5q-100 0 -166.5 69.5t-66.5 173.5zM88 233q0 -88 55.5 -146.5t138.5 -58.5q84 0 140.5 59.5t56.5 148.5q0 86 -56.5 144.5t-139.5 58.5t-139 -59t-56 -147z
M316 658h58l-65 -129h-41z" />
    <glyph glyph-name="acircumflex" unicode="&#xe2;" horiz-adv-x="606" 
d="M112 408q67 69 167 69q66 0 119 -32.5t82 -87.5v110h41v-467h-41v111q-30 -56 -83 -88.5t-119 -32.5q-100 0 -166.5 69.5t-66.5 173.5q0 105 67 175zM144 87q55 -59 138 -59q84 0 140.5 59.5t56.5 148.5q0 86 -56.5 144.5t-139.5 58.5t-139 -59t-56 -147t56 -146z
M276 654h30l117 -126h-45l-87 94l-89 -94h-44z" />
    <glyph glyph-name="atilde" unicode="&#xe3;" horiz-adv-x="606" 
d="M112 408q67 69 167 69q66 0 119 -32.5t82 -87.5v110h41v-467h-41v111q-30 -56 -83 -88.5t-119 -32.5q-100 0 -166.5 69.5t-66.5 173.5q0 105 67 175zM144 87q55 -59 138 -59q84 0 140.5 59.5t56.5 148.5q0 86 -56.5 144.5t-139.5 58.5t-139 -59t-56 -147t56 -146z
M128 553q3 49 28.5 71t61.5 22q30 0 54.5 -15t46.5 -30.5t44 -15.5q28 0 44 16t18 45h35q-11 -93 -93 -93q-35 0 -76.5 30.5t-71.5 30.5q-24 0 -40 -16t-17 -45h-34z" />
    <glyph glyph-name="adieresis" unicode="&#xe4;" horiz-adv-x="606" 
d="M45 233q0 105 67 174.5t167 69.5q66 0 119 -32.5t82 -87.5v110h41v-467h-41v111q-30 -56 -83 -88.5t-119 -32.5q-100 0 -166.5 69.5t-66.5 173.5zM144 87q55 -59 138 -59q84 0 140.5 59.5t56.5 148.5q0 86 -56.5 144.5t-139.5 58.5t-139 -59t-56 -147t56 -146zM179 582
q0 17 12 29t29 12q18 0 29.5 -12t11.5 -29t-11.5 -29t-29.5 -12q-17 0 -29 12t-12 29zM333 611q11 12 29 12q17 0 29 -12t12 -29t-12 -29t-29 -12q-18 0 -29.5 12t-11.5 29t12 29z" />
    <glyph glyph-name="aring" unicode="&#xe5;" horiz-adv-x="606" 
d="M45 233q0 105 67 174.5t167 69.5q66 0 119 -32.5t82 -87.5v110h41v-467h-41v111q-30 -56 -83 -88.5t-119 -32.5q-100 0 -166.5 69.5t-66.5 173.5zM144 87q55 -59 138 -59q84 0 140.5 59.5t56.5 148.5q0 86 -56.5 144.5t-139.5 58.5t-139 -59t-56 -147t56 -146zM197 611
q0 38 26.5 64.5t66.5 26.5q39 0 66 -26.5t27 -64.5q0 -37 -27 -63t-66 -26q-40 0 -66.5 25.5t-26.5 63.5zM226 611q0 -26 19 -44.5t45 -18.5q27 0 45.5 18.5t18.5 44.5t-18.5 45t-45.5 19q-26 0 -45 -19t-19 -45z" />
    <glyph glyph-name="ae" unicode="&#xe6;" horiz-adv-x="896" 
d="M851 257q0 -25 -2 -33h-399q1 -84 54.5 -140.5t129.5 -56.5q53 0 97 27.5t68 73.5l34 -15q-28 -56 -81.5 -89.5t-118.5 -33.5q-67 0 -122.5 38t-81.5 104q-21 -62 -80 -102t-137 -40t-125.5 37.5t-47.5 101.5q0 60 45.5 94.5t127.5 34.5h192v17q0 84 -40 124.5t-124 40.5
q-89 0 -164 -32v39q84 31 166 31q158 0 193 -131q28 61 81 96t119 35q92 0 154 -64t62 -157zM635 441q-74 0 -125.5 -52t-58.5 -131h361q-1 79 -51.5 131t-125.5 52zM215 25q84 0 136.5 52.5t52.5 134.5v12h-189q-66 0 -100.5 -24.5t-34.5 -69.5q0 -48 37.5 -76.5
t97.5 -28.5z" />
    <glyph glyph-name="ccedilla" unicode="&#xe7;" horiz-adv-x="546" 
d="M115 408q70 70 174 70q76 0 136 -40t86 -105l-38 -14q-22 53 -72 86.5t-112 33.5q-87 0 -144.5 -58.5t-57.5 -147.5t58 -147t143 -58q61 0 112 33.5t75 87.5l37 -17q-27 -61 -85 -100t-131 -42l-13 -46h14q49 0 77.5 -21.5t28.5 -56.5q0 -40 -31 -65.5t-87 -25.5
q-47 0 -86 15l2 31q36 -14 82 -14q39 0 61.5 15.5t22.5 43.5q0 50 -76 50h-47l-4 8l20 67q-93 9 -154 76.5t-61 165.5q0 105 70 175z" />
    <glyph glyph-name="egrave" unicode="&#xe8;" horiz-adv-x="566" 
d="M115 408q69 69 173 69q101 0 167 -66.5t66 -168.5q0 -17 -2 -29h-431q6 -82 62.5 -134.5t137.5 -52.5q58 0 105.5 28t72.5 75l35 -17q-29 -56 -87 -89t-128 -33q-103 0 -172 69t-69 174t70 175zM87 248h393q-3 83 -57 138q-55 55 -136 55t-138.5 -56t-61.5 -137zM200 659
h58l48 -130h-41z" />
    <glyph glyph-name="eacute" unicode="&#xe9;" horiz-adv-x="566" 
d="M115 408q69 69 173 69q101 0 167 -66.5t66 -168.5q0 -17 -2 -29h-431q6 -82 62.5 -134.5t137.5 -52.5q58 0 105.5 28t72.5 75l35 -17q-29 -56 -87 -89t-128 -33q-103 0 -172 69t-69 174t70 175zM87 248h393q-3 83 -57 138q-55 55 -136 55t-138.5 -56t-61.5 -137zM312 659
h58l-65 -130h-41z" />
    <glyph glyph-name="ecircumflex" unicode="&#xea;" horiz-adv-x="566" 
d="M45 233q0 105 69.5 174.5t173.5 69.5q101 0 167 -66.5t66 -168.5q0 -17 -2 -29h-431q6 -82 62.5 -134.5t137.5 -52.5q58 0 105.5 28t72.5 75l35 -17q-29 -56 -87 -89t-128 -33q-103 0 -172 69t-69 174zM480 248q-3 83 -57 138q-55 55 -136 55t-138.5 -56t-61.5 -137h393z
M154 528l118 126h30l118 -126h-46l-86 94l-89 -94h-45z" />
    <glyph glyph-name="edieresis" unicode="&#xeb;" horiz-adv-x="566" 
d="M115 408q69 69 173 69q101 0 167 -66.5t66 -168.5q0 -17 -2 -29h-431q6 -82 62.5 -134.5t137.5 -52.5q58 0 105.5 28t72.5 75l35 -17q-29 -56 -87 -89t-128 -33q-103 0 -172 69t-69 174t70 175zM87 248h393q-3 83 -57 138q-55 55 -136 55t-138.5 -56t-61.5 -137zM316 583
q0 16 12 28.5t29 12.5q18 0 30 -12.5t12 -28.5q0 -18 -12 -30t-30 -12q-17 0 -29 12t-12 30zM187 612q12 12 29 12t29 -12.5t12 -28.5q0 -18 -11.5 -30t-29.5 -12q-17 0 -29.5 12t-12.5 30q0 16 13 29z" />
    <glyph glyph-name="igrave" unicode="&#xec;" horiz-adv-x="213" 
d="M78 658l47 -129h-40l-65 129h58zM128 0h-42v467h42v-467z" />
    <glyph glyph-name="iacute" unicode="&#xed;" horiz-adv-x="213" 
d="M125 529h-42l48 129h58zM127 0h-41v467h41v-467z" />
    <glyph glyph-name="icircumflex" unicode="&#xee;" horiz-adv-x="213" 
d="M128 467v-467h-42v467h42zM91 654h30l118 -126h-45l-87 94l-89 -94h-44z" />
    <glyph glyph-name="idieresis" unicode="&#xef;" horiz-adv-x="213" 
d="M86 0v467h41v-467h-41zM6 611q12 12 29 12q18 0 30 -12t12 -29q0 -18 -11.5 -29.5t-30.5 -11.5q-17 0 -29 12t-12 29t12 29zM136 582q0 17 11.5 29t29.5 12t29.5 -12t11.5 -29t-11 -29q-12 -12 -30 -12t-29.5 12t-11.5 29z" />
    <glyph glyph-name="eth" unicode="&#xf0;" horiz-adv-x="591" 
d="M465 708l-93 -74q158 -121 158 -378q0 -120 -70 -194t-177 -74q-102 0 -170 67.5t-68 169.5t67.5 169.5t168.5 67.5q64 0 116.5 -28.5t84.5 -76.5q-27 168 -142 252l-137 -110l-17 21l131 104q-69 43 -173 60l17 33q109 -16 188 -67l100 79zM284 27q87 0 145.5 60
t58.5 149q0 81 -58.5 135.5t-144.5 54.5q-84 0 -140.5 -57.5t-56.5 -143.5q0 -85 56 -141.5t140 -56.5z" />
    <glyph glyph-name="ntilde" unicode="&#xf1;" horiz-adv-x="588" 
d="M126 467v-108q29 58 79 87.5t109 29.5q85 0 141.5 -57.5t56.5 -143.5v-275h-42v266q0 73 -46.5 122.5t-115.5 49.5q-77 0 -129 -60t-52 -150v-228h-41v467h40zM170 624q25 22 61 22q39 0 80 -30.5t66 -30.5q27 0 44 16.5t18 44.5h34q-9 -93 -92 -93q-34 0 -76 30.5
t-72 30.5q-23 0 -39.5 -16t-17.5 -45h-34q3 49 28 71z" />
    <glyph glyph-name="ograve" unicode="&#xf2;" horiz-adv-x="577" 
d="M115 408q69 70 173 70q105 0 174.5 -70t69.5 -175t-69.5 -174t-174.5 -69q-104 0 -173.5 69.5t-69.5 173.5t70 175zM145 87q58 -59 144 -59q85 0 143 59t58 146q0 88 -57.5 147t-143.5 59t-144 -59t-58 -147t58 -146zM201 658h59l47 -129h-41z" />
    <glyph glyph-name="oacute" unicode="&#xf3;" horiz-adv-x="577" 
d="M115 408q69 70 173 70q105 0 174.5 -70t69.5 -175t-69.5 -174t-174.5 -69q-104 0 -173.5 69.5t-69.5 173.5t70 175zM87 233q0 -88 58 -146.5t144 -58.5q85 0 143 59t58 146q0 88 -57.5 147t-143.5 59t-144 -59t-58 -147zM313 658h58l-65 -129h-41z" />
    <glyph glyph-name="ocircumflex" unicode="&#xf4;" horiz-adv-x="577" 
d="M115 408q69 70 173 70q105 0 174.5 -70t69.5 -175t-69.5 -174t-174.5 -69q-104 0 -173.5 69.5t-69.5 173.5t70 175zM145 87q58 -59 144 -59q85 0 143 59t58 146q0 88 -57.5 147t-143.5 59t-144 -59t-58 -147t58 -146zM273 654h30l117 -126h-44l-88 94l-88 -94h-44z" />
    <glyph glyph-name="otilde" unicode="&#xf5;" horiz-adv-x="577" 
d="M45 233q0 104 69.5 174.5t173.5 70.5q105 0 174.5 -70t69.5 -175t-69.5 -174t-174.5 -69q-104 0 -173.5 69.5t-69.5 173.5zM145 87q58 -59 144 -59q85 0 143 59t58 146q0 88 -57.5 147t-143.5 59t-144 -59t-58 -147t58 -146zM125 553q3 49 28.5 71t61.5 22q37 0 78 -30.5
t67 -30.5q28 0 44.5 16t18.5 45h34q-9 -93 -93 -93q-35 0 -76.5 30.5t-71.5 30.5q-23 0 -39 -16t-17 -45h-35z" />
    <glyph glyph-name="odieresis" unicode="&#xf6;" horiz-adv-x="577" 
d="M115 408q69 70 173 70q105 0 174.5 -70t69.5 -175t-69.5 -174t-174.5 -69q-104 0 -173.5 69.5t-69.5 173.5t70 175zM87 233q0 -88 58 -146.5t144 -58.5q85 0 143 59t58 146q0 88 -57.5 147t-143.5 59t-144 -59t-58 -147zM176 582q0 17 11.5 29t29.5 12t29.5 -12t11.5 -29
t-11 -29q-12 -12 -30 -12t-29.5 12t-11.5 29zM330 611q11 12 29 12q17 0 29 -12t12 -29t-12 -29t-29 -12q-18 0 -29.5 12t-11.5 29t12 29z" />
    <glyph glyph-name="divide" unicode="&#xf7;" horiz-adv-x="496" 
d="M248 432q-17 0 -28.5 11.5t-11.5 28.5q0 16 11.5 27.5t28.5 11.5t28.5 -11.5t11.5 -27.5q0 -17 -11.5 -28.5t-28.5 -11.5zM428 304h-360v38h360v-38zM248 138q-17 0 -28.5 11.5t-11.5 28.5q0 16 11.5 28t28.5 12q16 0 28 -12t12 -28t-12 -28t-28 -12z" />
    <glyph glyph-name="oslash" unicode="&#xf8;" horiz-adv-x="577" 
d="M485 510l-51 -78q46 -34 72 -86t26 -113q0 -104 -69.5 -173.5t-173.5 -69.5q-63 0 -117 28l-51 -79l-26 16l52 78q-48 33 -75 85t-27 115q0 104 70 174.5t174 70.5q65 0 120 -30l51 77zM85 233q0 -109 83 -169l220 351q-45 25 -99 25q-87 0 -145.5 -59.5t-58.5 -147.5z
M289 26q87 0 145.5 59.5t58.5 147.5q0 106 -80 166l-220 -350q43 -23 96 -23z" />
    <glyph glyph-name="ugrave" unicode="&#xf9;" horiz-adv-x="588" 
d="M118 467v-266q0 -74 46.5 -123t116.5 -49q75 0 127.5 56.5t52.5 141.5v240h42v-467h-42v103q-29 -56 -79.5 -84.5t-107.5 -28.5q-87 0 -142.5 58t-55.5 147v272h42zM261 658l48 -129h-41l-65 129h58z" />
    <glyph glyph-name="uacute" unicode="&#xfa;" horiz-adv-x="588" 
d="M118 467v-266q0 -74 46.5 -123t116.5 -49q75 0 127.5 56.5t52.5 141.5v240h42v-467h-42v103q-29 -56 -79.5 -84.5t-107.5 -28.5q-87 0 -142.5 58t-55.5 147v272h42zM315 658h58l-65 -129h-41z" />
    <glyph glyph-name="ucircumflex" unicode="&#xfb;" horiz-adv-x="588" 
d="M76 467h42v-266q0 -74 46.5 -123t116.5 -49q75 0 127.5 56.5t52.5 141.5v240h42v-467h-42v103q-29 -56 -79.5 -84.5t-107.5 -28.5q-87 0 -142.5 58t-55.5 147v272zM275 654h30l118 -126h-45l-87 94l-89 -94h-44z" />
    <glyph glyph-name="udieresis" unicode="&#xfc;" horiz-adv-x="588" 
d="M76 195v272h42v-266q0 -74 46.5 -123t116.5 -49q75 0 127.5 56.5t52.5 141.5v240h42v-467h-42v103q-29 -56 -79.5 -84.5t-107.5 -28.5q-87 0 -142.5 58t-55.5 147zM319 582q0 17 11.5 29t29.5 12t30 -12t12 -29t-12 -29t-30 -12t-29.5 12t-11.5 29zM178 582q0 17 11.5 29
t28.5 12q18 0 30.5 -12t12.5 -29t-12 -29t-31 -12q-17 0 -28.5 12t-11.5 29z" />
    <glyph glyph-name="yacute" unicode="&#xfd;" horiz-adv-x="531" 
d="M66 467l209 -453l190 453h45l-223 -526q-9 -21 -16 -35.5t-23.5 -39t-34.5 -40t-46 -27.5t-60 -12q-40 0 -85 15v41q37 -17 82 -17q85 0 132 105l17 38l-233 498h46zM243 529l48 129h57l-64 -129h-41z" />
    <glyph glyph-name="thorn" unicode="&#xfe;" horiz-adv-x="602" 
d="M328 476q98 0 163.5 -69.5t65.5 -173.5t-65.5 -173.5t-163.5 -69.5q-66 0 -118.5 31.5t-82.5 85.5v-308h-41v903h41v-343q30 55 83 86t118 31zM323 27q82 0 137 59t55 147t-55 146.5t-138 58.5q-84 0 -140.5 -58.5t-56.5 -145.5q0 -88 57 -147.5t141 -59.5z" />
    <glyph glyph-name="ydieresis" unicode="&#xff;" horiz-adv-x="531" 
d="M66 467l209 -453l190 453h45l-223 -526q-9 -21 -16 -35.5t-23.5 -39t-34.5 -40t-46 -27.5t-60 -12q-40 0 -85 15v41q37 -17 82 -17q85 0 132 105l17 38l-233 498h46zM153 582q0 17 12 29t29 12q18 0 30 -12t12 -29t-12 -29t-30 -12q-17 0 -29 12t-12 29zM295 582
q0 17 11.5 29t29.5 12t29.5 -12t11.5 -29t-11 -29q-12 -12 -30 -12t-29.5 12t-11.5 29z" />
    <glyph glyph-name="Amacron" unicode="&#x100;" horiz-adv-x="659" 
d="M310 669h41l287 -669h-46l-84 198h-357l-84 -198h-46zM164 236h330l-163 389zM183 782v35h292v-35h-292z" />
    <glyph glyph-name="amacron" unicode="&#x101;" horiz-adv-x="606" 
d="M45 233q0 105 67 174.5t167 69.5q66 0 119 -32.5t82 -87.5v110h41v-467h-41v111q-30 -56 -83 -88.5t-119 -32.5q-100 0 -166.5 69.5t-66.5 173.5zM144 87q55 -59 138 -59q84 0 140.5 59.5t56.5 148.5q0 86 -56.5 144.5t-139.5 58.5t-139 -59t-56 -147t56 -146zM164 570
v34h252v-34h-252z" />
    <glyph glyph-name="Abreve" unicode="&#x102;" horiz-adv-x="659" 
d="M310 669h41l287 -669h-46l-84 198h-357l-84 -198h-46zM494 236l-163 389l-167 -389h330zM233 856q2 -43 28.5 -70t69.5 -27q42 0 68.5 27t27.5 70h38q0 -58 -37.5 -93.5t-96.5 -35.5q-60 0 -97.5 35.5t-37.5 93.5h37z" />
    <glyph glyph-name="abreve" unicode="&#x103;" horiz-adv-x="606" 
d="M45 233q0 105 67 174.5t167 69.5q66 0 119 -32.5t82 -87.5v110h41v-467h-41v111q-30 -56 -83 -88.5t-119 -32.5q-100 0 -166.5 69.5t-66.5 173.5zM88 233q0 -88 55.5 -146.5t138.5 -58.5q84 0 140.5 59.5t56.5 148.5q0 86 -56.5 144.5t-139.5 58.5t-139 -59t-56 -147z
M195 655q2 -44 28 -70.5t67 -26.5q43 0 69 26.5t27 70.5h38q0 -58 -37 -92.5t-97 -34.5q-59 0 -95 34.5t-37 92.5h37z" />
    <glyph glyph-name="Aogonek" unicode="&#x104;" horiz-adv-x="659" 
d="M310 669h41l287 -669q-58 -22 -89 -61t-31 -74q0 -22 12.5 -37t34.5 -15q23 0 65 21l4 -33q-37 -21 -70 -21q-40 0 -62 22t-22 58q0 34 27.5 75t81.5 72l-81 191h-357l-84 -198h-46zM494 236l-163 389l-167 -389h330z" />
    <glyph glyph-name="aogonek" unicode="&#x105;" horiz-adv-x="606" 
d="M112 408q67 69 167 69q66 0 119 -32.5t82 -87.5v110h41v-467q-59 -22 -90 -61t-31 -74q0 -22 12 -37t35 -15q22 0 66 21l4 -33q-38 -21 -70 -21q-40 0 -62.5 22t-22.5 58t30 78.5t88 73.5v99q-30 -56 -83 -88.5t-119 -32.5q-100 0 -166.5 69.5t-66.5 173.5q0 105 67 175z
M144 87q55 -59 138 -59q84 0 140.5 59.5t56.5 148.5q0 86 -56.5 144.5t-139.5 58.5t-139 -59t-56 -147t56 -146z" />
    <glyph glyph-name="Cacute" unicode="&#x106;" horiz-adv-x="726" 
d="M145 581q95 99 239 99q107 0 189.5 -57.5t118.5 -154.5l-38 -16q-34 85 -106.5 137t-164.5 52q-122 0 -207 -89t-85 -219q0 -128 85 -216.5t208 -88.5q89 0 161.5 50t105.5 132l40 -16q-38 -94 -120 -149.5t-187 -55.5q-143 0 -239 98.5t-96 245.5q0 148 96 248zM367 724
l49 131h58l-65 -131h-42z" />
    <glyph glyph-name="cacute" unicode="&#x107;" horiz-adv-x="546" 
d="M115 408q70 70 174 70q76 0 136 -40t86 -105l-38 -14q-22 53 -72 86.5t-112 33.5q-87 0 -144.5 -58.5t-57.5 -147.5t58 -147t143 -58q61 0 112 33.5t75 87.5l37 -17q-27 -63 -88.5 -102.5t-137.5 -39.5q-103 0 -172 69t-69 174t70 175zM265 529l48 129h58l-65 -129h-41z
" />
    <glyph glyph-name="Ccircumflex" unicode="&#x108;" horiz-adv-x="726" 
d="M145 581q95 99 239 99q107 0 189.5 -57.5t118.5 -154.5l-38 -16q-34 85 -106.5 137t-164.5 52q-122 0 -207 -89t-85 -219q0 -128 85 -216.5t208 -88.5q89 0 161.5 50t105.5 132l40 -16q-38 -94 -120 -149.5t-187 -55.5q-143 0 -239 98.5t-96 245.5q0 148 96 248zM369 859
h29l125 -128h-50l-90 92l-91 -92h-49z" />
    <glyph glyph-name="ccircumflex" unicode="&#x109;" horiz-adv-x="546" 
d="M115 408q70 70 174 70q76 0 136 -40t86 -105l-38 -14q-22 53 -72 86.5t-112 33.5q-87 0 -144.5 -58.5t-57.5 -147.5t58 -147t143 -58q61 0 112 33.5t75 87.5l37 -17q-27 -63 -88.5 -102.5t-137.5 -39.5q-103 0 -172 69t-69 174t70 175zM273 654h30l118 -126h-46l-86 94
l-89 -94h-44z" />
    <glyph glyph-name="Cdotaccent" unicode="&#x10a;" horiz-adv-x="726" 
d="M49 333q0 148 95.5 247.5t239.5 99.5q107 0 189.5 -57.5t118.5 -154.5l-38 -16q-34 85 -106.5 137t-164.5 52q-122 0 -207 -89t-85 -219q0 -128 85 -216.5t208 -88.5q89 0 161.5 50t105.5 132l40 -16q-38 -94 -120 -149.5t-187 -55.5q-143 0 -239 98.5t-96 245.5z
M345 801q0 16 11 27t27 11t27.5 -11t11.5 -27t-11 -27q-12 -11 -28 -11t-27 11t-11 27z" />
    <glyph glyph-name="cdotaccent" unicode="&#x10b;" horiz-adv-x="546" 
d="M45 233q0 105 70 175t174 70q76 0 136 -40t86 -105l-38 -14q-22 53 -72 86.5t-112 33.5q-87 0 -144.5 -58.5t-57.5 -147.5t58 -147t143 -58q61 0 112 33.5t75 87.5l37 -17q-27 -63 -88.5 -102.5t-137.5 -39.5q-103 0 -172 69t-69 174zM249 594q0 15 11 26t28 11
q16 0 27 -11t11 -26q0 -17 -11 -28t-27 -11q-17 0 -28 11t-11 28z" />
    <glyph glyph-name="Ccaron" unicode="&#x10c;" horiz-adv-x="726" 
d="M145 581q95 99 239 99q107 0 189.5 -57.5t118.5 -154.5l-38 -16q-34 85 -106.5 137t-164.5 52q-122 0 -207 -89t-85 -219q0 -128 85 -216.5t208 -88.5q89 0 161.5 50t105.5 132l40 -16q-38 -94 -120 -149.5t-187 -55.5q-143 0 -239 98.5t-96 245.5q0 148 96 248zM245 857
h49l91 -92l90 92h50l-125 -128h-30z" />
    <glyph glyph-name="ccaron" unicode="&#x10d;" horiz-adv-x="546" 
d="M115 408q70 70 174 70q76 0 136 -40t86 -105l-38 -14q-22 53 -72 86.5t-112 33.5q-87 0 -144.5 -58.5t-57.5 -147.5t58 -147t143 -58q61 0 112 33.5t75 87.5l37 -17q-27 -63 -88.5 -102.5t-137.5 -39.5q-103 0 -172 69t-69 174t70 175zM155 654h44l89 -94l87 94h45
l-118 -126h-30z" />
    <glyph glyph-name="Dcaron" unicode="&#x10e;" horiz-adv-x="707" 
d="M98 0v669h227q151 0 241 -93.5t90 -241.5q0 -147 -85.5 -240.5t-230.5 -93.5h-242zM141 630v-591h195q126 0 201.5 82.5t75.5 212.5q0 131 -76.5 213.5t-207.5 82.5h-188zM195 857h50l91 -92l90 92h50l-126 -128h-29z" />
    <glyph glyph-name="dcaron" unicode="&#x10f;" horiz-adv-x="604" 
d="M45 233q0 104 65.5 173.5t163.5 69.5q64 0 117 -30.5t83 -83.5v339h42v-701h-42v106q-30 -54 -83 -85t-117 -31q-98 0 -163.5 69.5t-65.5 173.5zM143 87q54 -59 135 -59q85 0 141.5 59t56.5 147t-56.5 146t-141.5 58q-81 0 -135.5 -58.5t-54.5 -146.5t55 -146zM597 705
h43l-27 -170h-34z" />
    <glyph glyph-name="Dcroat" unicode="&#x110;" horiz-adv-x="715" 
d="M32 317v34h74v318h227q152 0 241.5 -93.5t89.5 -241.5q0 -147 -85.5 -240.5t-230.5 -93.5h-242v317h-74zM148 39h196q126 0 201.5 82.5t75.5 212.5q0 131 -76.5 213.5t-207.5 82.5h-189v-279h210v-34h-210v-278z" />
    <glyph glyph-name="dcroat" unicode="&#x111;" horiz-adv-x="601" 
d="M45 233q0 104 65.5 173.5t163.5 69.5q64 0 117 -30.5t83 -83.5v205h-200v29h200v105h42v-105h71v-29h-71v-567h-42v106q-30 -54 -83 -85t-117 -31q-98 0 -163.5 69.5t-65.5 173.5zM143 87q54 -59 135 -59q85 0 141.5 59t56.5 147t-56.5 146t-141.5 58q-81 0 -135.5 -58.5
t-54.5 -146.5t55 -146z" />
    <glyph glyph-name="Emacron" unicode="&#x112;" horiz-adv-x="612" 
d="M98 669h454v-38h-412v-273h398v-38h-398v-282h424v-38h-466v669zM187 782v35h293v-35h-293z" />
    <glyph glyph-name="emacron" unicode="&#x113;" horiz-adv-x="566" 
d="M115 408q69 69 173 69q101 0 167 -66.5t66 -168.5q0 -17 -2 -29h-431q6 -82 62.5 -134.5t137.5 -52.5q58 0 105.5 28t72.5 75l35 -17q-29 -56 -87 -89t-128 -33q-103 0 -172 69t-69 174t70 175zM87 248h393q-3 83 -57 138q-55 55 -136 55t-138.5 -56t-61.5 -137zM160 604
h253v-34h-253v34z" />
    <glyph glyph-name="Ebreve" unicode="&#x114;" horiz-adv-x="612" 
d="M98 0v669h454v-38h-412v-273h398v-38h-398v-282h424v-38h-466zM200 856h37q2 -43 28.5 -70t69.5 -27q42 0 68.5 27t27.5 70h38q0 -58 -37.5 -93.5t-96.5 -35.5q-60 0 -97.5 35.5t-37.5 93.5z" />
    <glyph glyph-name="ebreve" unicode="&#x115;" horiz-adv-x="566" 
d="M115 408q69 69 173 69q101 0 167 -66.5t66 -168.5q0 -17 -2 -29h-431q6 -82 62.5 -134.5t137.5 -52.5q58 0 105.5 28t72.5 75l35 -17q-29 -56 -87 -89t-128 -33q-103 0 -172 69t-69 174t70 175zM480 248q-3 83 -57 138q-55 55 -136 55t-138.5 -56t-61.5 -137h393z
M192 655q0 -44 26 -70.5t69 -26.5q42 0 68 26.5t27 70.5h38q0 -57 -36 -92q-37 -35 -97 -35t-96.5 35t-36.5 92h38z" />
    <glyph glyph-name="Edotaccent" unicode="&#x116;" horiz-adv-x="612" 
d="M98 0v669h454v-38h-412v-273h398v-38h-398v-282h424v-38h-466zM307 828q10 11 27 11q16 0 27.5 -11t11.5 -27t-11.5 -27t-27.5 -11q-17 0 -27.5 11t-10.5 27t11 27z" />
    <glyph glyph-name="edotaccent" unicode="&#x117;" horiz-adv-x="566" 
d="M115 408q69 69 173 69q101 0 167 -66.5t66 -168.5q0 -17 -2 -29h-431q6 -82 62.5 -134.5t137.5 -52.5q58 0 105.5 28t72.5 75l35 -17q-29 -56 -87 -89t-128 -33q-103 0 -172 69t-69 174t70 175zM87 248h393q-3 83 -57 138q-55 55 -136 55t-138.5 -56t-61.5 -137zM248 594
q0 15 11.5 26t27.5 11t27 -11t11 -26q0 -17 -11 -28t-27 -11q-17 0 -28 11.5t-11 27.5z" />
    <glyph glyph-name="Eogonek" unicode="&#x118;" horiz-adv-x="612" 
d="M98 669h454v-38h-412v-273h398v-38h-398v-282h424v-38q-58 -22 -89.5 -61t-31.5 -74q0 -22 12.5 -37t35.5 -15t65 21l4 -33q-37 -21 -70 -21q-40 0 -62.5 22.5t-22.5 57.5q0 32 25 70.5t74 69.5h-406v669z" />
    <glyph glyph-name="eogonek" unicode="&#x119;" horiz-adv-x="566" 
d="M115 408q69 69 173 69q101 0 167 -66.5t66 -168.5q0 -17 -2 -29h-431q6 -82 62.5 -134.5t137.5 -52.5q58 0 105.5 28t72.5 75l35 -17q-41 -81 -138 -111q-54 -22 -83.5 -60t-29.5 -72q0 -23 12.5 -37.5t34.5 -14.5q31 0 65 22l5 -33q-38 -22 -71 -22q-39 0 -61.5 22.5
t-22.5 56.5q0 30 20 64t59 63h-5q-103 0 -172 69t-69 174t70 175zM87 248h393q-3 83 -57 138q-55 55 -136 55t-138.5 -56t-61.5 -137z" />
    <glyph glyph-name="Ecaron" unicode="&#x11a;" horiz-adv-x="612" 
d="M98 0v669h454v-38h-412v-273h398v-38h-398v-282h424v-38h-466zM196 857h49l91 -92l90 92h50l-125 -128h-30z" />
    <glyph glyph-name="ecaron" unicode="&#x11b;" horiz-adv-x="566" 
d="M45 233q0 105 69.5 174.5t173.5 69.5q101 0 167 -66.5t66 -168.5q0 -17 -2 -29h-431q6 -82 62.5 -134.5t137.5 -52.5q58 0 105.5 28t72.5 75l35 -17q-29 -56 -87 -89t-128 -33q-103 0 -172 69t-69 174zM87 248h393q-3 83 -57 138q-55 55 -136 55t-138.5 -56t-61.5 -137z
M198 654l89 -94l87 94h45l-118 -126h-30l-117 126h44z" />
    <glyph glyph-name="Gcircumflex" unicode="&#x11c;" horiz-adv-x="756" 
d="M145 582q94 98 242 98q95 0 176 -49.5t119 -130.5l-35 -22q-33 73 -104.5 118t-153.5 45q-131 0 -213.5 -87t-82.5 -220t84.5 -220t212.5 -87q122 0 200.5 79.5t78.5 198.5h-295v38h338v-28q0 -142 -91 -234t-233 -92q-147 0 -242.5 97.5t-95.5 247.5q0 149 95 248z
M247 730l125 128h30l125 -128h-49l-91 92l-91 -92h-49z" />
    <glyph glyph-name="gcircumflex" unicode="&#x11d;" horiz-adv-x="606" 
d="M46 234q0 104 67 173t166 69q66 0 119 -31.5t82 -85.5v108h42v-439q0 -117 -64 -178.5t-184 -61.5q-105 0 -186 50v45q80 -57 184 -57q101 0 155 53t54 149v86q-29 -56 -82.5 -89t-120.5 -33q-99 0 -165.5 69.5t-66.5 172.5zM144 88q55 -58 139 -58q85 0 140.5 58.5
t55.5 148.5q0 87 -55.5 144.5t-139.5 57.5q-85 0 -140 -58.5t-55 -147.5q0 -88 55 -145zM155 528l118 125h30l117 -125h-45l-87 93l-89 -93h-44z" />
    <glyph glyph-name="Gbreve" unicode="&#x11e;" horiz-adv-x="756" 
d="M50 334q0 149 94.5 247.5t242.5 98.5q95 0 176 -49.5t119 -130.5l-35 -22q-33 73 -104.5 118t-153.5 45q-131 0 -213.5 -87t-82.5 -220t84.5 -220t212.5 -87q122 0 200.5 79.5t78.5 198.5h-295v38h338v-28q0 -142 -91 -234t-233 -92q-147 0 -242.5 97.5t-95.5 247.5z
M253 855h38q1 -43 27.5 -69.5t69.5 -26.5t69.5 26.5t27.5 69.5h38q0 -58 -37 -93q-38 -36 -98 -36t-97 35.5t-38 93.5z" />
    <glyph glyph-name="gbreve" unicode="&#x11f;" horiz-adv-x="606" 
d="M46 234q0 104 67 173t166 69q66 0 119 -31.5t82 -85.5v108h42v-439q0 -117 -64 -178.5t-184 -61.5q-105 0 -186 50v45q80 -57 184 -57q101 0 155 53t54 149v86q-29 -56 -82.5 -89t-120.5 -33q-99 0 -165.5 69.5t-66.5 172.5zM89 233q0 -88 55 -145.5t139 -57.5
q85 0 140.5 58.5t55.5 148.5q0 87 -55.5 144.5t-139.5 57.5q-85 0 -140 -58.5t-55 -147.5zM155 654h37q2 -44 28 -70.5t67 -26.5q43 0 69 26.5t27 70.5h38q-1 -58 -37.5 -92t-96.5 -34q-59 0 -95 34.5t-37 91.5z" />
    <glyph glyph-name="Gdotaccent" unicode="&#x120;" horiz-adv-x="756" 
d="M50 334q0 149 94.5 247.5t242.5 98.5q95 0 176 -49.5t119 -130.5l-35 -22q-33 73 -104.5 118t-153.5 45q-131 0 -213.5 -87t-82.5 -220t84.5 -220t212.5 -87q122 0 200.5 79.5t78.5 198.5h-295v38h338v-28q0 -142 -91 -234t-233 -92q-147 0 -242.5 97.5t-95.5 247.5z
M360 828q11 11 27 11q17 0 28 -11.5t11 -26.5q0 -17 -11 -28t-28 -11q-16 0 -27 11t-11 28q0 15 11 27z" />
    <glyph glyph-name="gdotaccent" unicode="&#x121;" horiz-adv-x="606" 
d="M113 407q67 69 166 69q66 0 119 -31.5t82 -85.5v108h42v-439q0 -117 -64 -178.5t-184 -61.5q-105 0 -186 50v45q80 -57 184 -57q101 0 155 53t54 149v86q-29 -56 -82.5 -89t-120.5 -33q-99 0 -165.5 69.5t-66.5 172.5q0 104 67 173zM89 233q0 -88 55 -145.5t139 -57.5
q85 0 140.5 58.5t55.5 148.5q0 87 -55.5 144.5t-139.5 57.5q-85 0 -140 -58.5t-55 -147.5zM249 593q0 16 11 26.5t28 10.5q16 0 27 -10.5t11 -26.5q0 -17 -11 -27.5t-27 -10.5q-17 0 -28 10.5t-11 27.5z" />
    <glyph glyph-name="uni0122" unicode="&#x122;" horiz-adv-x="756" 
d="M145 582q94 98 242 98q95 0 176 -49.5t119 -130.5l-35 -22q-33 73 -104.5 118t-153.5 45q-131 0 -213.5 -87t-82.5 -220t84.5 -220t212.5 -87q122 0 200.5 79.5t78.5 198.5h-295v38h338v-28q0 -142 -91 -234t-233 -92q-147 0 -242.5 97.5t-95.5 247.5q0 149 95 248z
M360 -50h45l-47 -159h-37z" />
    <glyph glyph-name="uni0123" unicode="&#x123;" horiz-adv-x="606" 
d="M46 234q0 104 67 173t166 69q66 0 119 -31.5t82 -85.5v108h42v-439q0 -117 -64 -178.5t-184 -61.5q-105 0 -186 50v45q80 -57 184 -57q101 0 155 53t54 149v86q-29 -56 -82.5 -89t-120.5 -33q-99 0 -165.5 69.5t-66.5 172.5zM89 233q0 -88 55 -145.5t139 -57.5
q85 0 140.5 58.5t55.5 148.5q0 87 -55.5 144.5t-139.5 57.5q-85 0 -140 -58.5t-55 -147.5zM301 665h37l-35 -146h-46z" />
    <glyph glyph-name="Hcircumflex" unicode="&#x124;" horiz-adv-x="733" 
d="M141 669v-318h451v318h42v-669h-42v312h-451v-312h-43v669h43zM351 859h30l125 -128h-50l-90 92l-91 -92h-49z" />
    <glyph glyph-name="hcircumflex" unicode="&#x125;" horiz-adv-x="589" 
d="M86 700h42v-337q29 56 78.5 84.5t107.5 28.5q85 0 142 -57.5t57 -143.5v-275h-42v265q0 74 -46.5 123t-116.5 49q-77 0 -128.5 -60t-51.5 -150v-227h-42v700zM-33 730l125 127h29l126 -127h-50l-90 92l-91 -92h-49z" />
    <glyph glyph-name="Hbar" unicode="&#x126;" horiz-adv-x="680" 
d="M40 496v31h32v142h43v-142h451v142h42v-142h33v-31h-33v-496h-42v312h-451v-312h-43v496h-32zM115 351h451v145h-451v-145z" />
    <glyph glyph-name="hbar" unicode="&#x127;" horiz-adv-x="589" 
d="M86 596v106h42v-106h168v-30h-168v-203q29 56 78.5 84.5t107.5 28.5q85 0 142 -57.5t57 -143.5v-275h-42v265q0 74 -46.5 123t-116.5 49q-77 0 -128.5 -60t-51.5 -150v-227h-42v566h-104v30h104z" />
    <glyph glyph-name="Itilde" unicode="&#x128;" horiz-adv-x="240" 
d="M99 669h42v-669h-42v669zM-63 749q2 46 28.5 73.5t69.5 27.5q39 0 85 -34.5t74 -34.5t48 19.5t22 49.5h37q-5 -44 -33 -72.5t-70 -28.5q-37 0 -83.5 34.5t-76.5 34.5q-28 0 -45.5 -19t-19.5 -50h-36z" />
    <glyph glyph-name="itilde" unicode="&#x129;" horiz-adv-x="213" 
d="M86 0v467h42v-467h-42zM-28 624q25 22 61 22q38 0 79.5 -30.5t66.5 -30.5q27 0 43.5 16t18.5 45h34q-9 -93 -92 -93q-35 0 -77 30.5t-71 30.5q-24 0 -40 -16t-17 -45h-34q3 49 28 71z" />
    <glyph glyph-name="Imacron" unicode="&#x12a;" horiz-adv-x="240" 
d="M266 782h-292v35h292v-35zM99 0v669h43v-669h-43z" />
    <glyph glyph-name="imacron" unicode="&#x12b;" horiz-adv-x="213" 
d="M232 570h-252v34h252v-34zM128 0h-42v467h42v-467z" />
    <glyph glyph-name="Ibreve" unicode="&#x12c;" horiz-adv-x="240" 
d="M99 669h42v-669h-42v669zM24 856q1 -43 27.5 -70t69.5 -27q42 0 68.5 27t27.5 70h39q-1 -58 -38.5 -93.5t-96.5 -35.5q-60 0 -97.5 35.5t-37.5 93.5h38z" />
    <glyph glyph-name="ibreve" unicode="&#x12d;" horiz-adv-x="213" 
d="M86 467h42v-467h-42v467zM11 655q1 -44 27 -70.5t68 -26.5t68 26.5t28 70.5h38q-1 -58 -37.5 -92.5t-96.5 -34.5q-59 0 -95.5 35t-36.5 92h37z" />
    <glyph glyph-name="Iogonek" unicode="&#x12e;" horiz-adv-x="242" 
d="M-15 -140q0 36 29 78t87 73v658h42v-669q-59 -22 -90 -61t-31 -74q0 -22 12.5 -37t35.5 -15q24 0 64 21l5 -33q-38 -21 -70 -21q-39 0 -61.5 22t-22.5 58z" />
    <glyph glyph-name="iogonek" unicode="&#x12f;" horiz-adv-x="214" 
d="M-29 -140q0 36 29 77.5t87 72.5v457h43v-467h-1q-58 -22 -89.5 -61t-31.5 -74q0 -22 12.5 -37t35.5 -15t65 21l5 -33q-40 -21 -72 -21q-39 0 -61 22.5t-22 57.5zM70 594q0 15 11 26t27 11t27.5 -11t11.5 -26q0 -16 -11.5 -27.5t-27.5 -11.5t-27 11t-11 28z" />
    <glyph glyph-name="Idotaccent" unicode="&#x130;" horiz-adv-x="240" 
d="M141 669v-669h-43v669h43zM82 801q0 16 11 27t27 11t27.5 -11t11.5 -27t-11 -27q-12 -11 -28 -11t-27 11t-11 27z" />
    <glyph glyph-name="dotlessi" unicode="&#x131;" horiz-adv-x="213" 
d="M127 0h-41v467h41v-467z" />
    <glyph glyph-name="IJ" unicode="&#x132;" horiz-adv-x="701" 
d="M247 47q63 -19 121 -19q98 0 150 52.5t52 135.5v453h42v-460q0 -100 -63 -160t-178 -60q-68 0 -123 19zM98 0v669h43v-669h-43z" />
    <glyph glyph-name="ij" unicode="&#x133;" horiz-adv-x="453" 
d="M207 -174q118 0 118 125v516h42v-528q0 -73 -41.5 -112.5t-109.5 -39.5q-39 0 -73 10v38q32 -9 64 -9zM86 467h42v-467h-42v467zM307 586q0 16 11 27q11 10 28 10t28 -10.5t11 -26.5q0 -17 -11 -28t-28 -11q-16 0 -27.5 11.5t-11.5 27.5zM79 620q11 11 27 11q17 0 28 -11
t11 -26q0 -17 -11 -28t-28 -11q-16 0 -27 11t-11 28q0 15 11 26z" />
    <glyph glyph-name="Jcircumflex" unicode="&#x134;" horiz-adv-x="479" 
d="M24 47q63 -19 120 -19q98 0 150.5 52.5t52.5 135.5v453h42v-460q0 -100 -63.5 -160t-178.5 -60q-67 0 -122 19zM227 731l126 128h29l126 -128h-50l-90 92l-91 -92h-50z" />
    <glyph glyph-name="jcircumflex" unicode="&#x135;" horiz-adv-x="227" 
d="M-19 -174q118 0 118 125v516h42v-528q0 -73 -41.5 -112.5t-109.5 -39.5q-39 0 -73 10v38q31 -9 64 -9zM-12 528l118 126h30l118 -126h-46l-87 94l-88 -94h-45z" />
    <glyph glyph-name="uni0136" unicode="&#x136;" horiz-adv-x="606" 
d="M141 669v-323l384 323h59l-402 -336l419 -333h-62l-398 318v-318h-43v669h43zM320 -51h46l-48 -160h-37z" />
    <glyph glyph-name="uni0137" unicode="&#x137;" horiz-adv-x="492" 
d="M127 701v-460l286 226h56l-295 -233l305 -234h-60l-292 222v-222h-41v701h41zM209 -219l47 158h44l-56 -158h-35z" />
    <glyph glyph-name="kgreenlandic" unicode="&#x138;" horiz-adv-x="501" 
d="M128 467v-226l295 226h56l-301 -236l312 -231h-60l-302 218v-218h-42v467h42z" />
    <glyph glyph-name="Lacute" unicode="&#x139;" horiz-adv-x="549" 
d="M142 724h-42l49 131h59zM526 0h-428v669h43v-630h385v-39z" />
    <glyph glyph-name="lacute" unicode="&#x13a;" horiz-adv-x="214" 
d="M130 728h-41l49 131h57zM127 701v-701h-41v701h41z" />
    <glyph glyph-name="uni013B" unicode="&#x13b;" horiz-adv-x="549" 
d="M526 0h-428v669h43v-630h385v-39zM300 -209h-37l39 159h45z" />
    <glyph glyph-name="uni013C" unicode="&#x13c;" horiz-adv-x="213" 
d="M124 701v-701h-42v701h42zM73 -214h-36l48 159h44z" />
    <glyph glyph-name="Lcaron" unicode="&#x13d;" horiz-adv-x="551" 
d="M374 536h-34l18 170h43zM526 0h-428v669h43v-630h385v-39z" />
    <glyph glyph-name="lcaron" unicode="&#x13e;" horiz-adv-x="215" 
d="M224 536h-34l18 170h44zM127 701v-701h-41v701h41z" />
    <glyph glyph-name="Ldot" unicode="&#x13f;" horiz-adv-x="551" 
d="M98 669h43v-630h385v-39h-428v669zM353 365q0 14 10.5 24.5t25.5 10.5q14 0 24.5 -10t10.5 -25t-10.5 -25t-24.5 -10q-15 0 -25.5 10t-10.5 25z" />
    <glyph glyph-name="ldot" unicode="&#x140;" horiz-adv-x="238" 
d="M86 0v701h41v-701h-41zM200 372q10 10 25 10q14 0 24.5 -10t10.5 -25t-10.5 -25t-24.5 -10q-15 0 -25.5 10t-10.5 25q0 14 11 25z" />
    <glyph glyph-name="Lslash" unicode="&#x141;" horiz-adv-x="552" 
d="M101 298v371h42v-342l124 85v-44l-124 -85v-244h386v-39h-428v254l-62 -42v43z" />
    <glyph glyph-name="lslash" unicode="&#x142;" horiz-adv-x="262" 
d="M39 271l69 66v364h42v-324l72 69v-49l-72 -68v-329h-42v289l-69 -66v48z" />
    <glyph glyph-name="Nacute" unicode="&#x143;" horiz-adv-x="738" 
d="M140 669l458 -601v601h41v-669h-39l-460 600v-600h-42v669h42zM352 723l49 131h58l-65 -131h-42z" />
    <glyph glyph-name="nacute" unicode="&#x144;" horiz-adv-x="588" 
d="M86 467h40v-108q29 58 79 87.5t109 29.5q85 0 141.5 -57.5t56.5 -143.5v-275h-42v266q0 73 -46.5 122.5t-115.5 49.5q-77 0 -129 -60t-52 -150v-228h-41v467zM330 658h58l-65 -129h-41z" />
    <glyph glyph-name="uni0145" unicode="&#x145;" horiz-adv-x="738" 
d="M140 669l458 -601v601h41v-669h-39l-460 600v-600h-42v669h42zM373 -50h45l-48 -159h-36z" />
    <glyph glyph-name="uni0146" unicode="&#x146;" horiz-adv-x="588" 
d="M86 467h40v-108q29 58 79 87.5t109 29.5q85 0 141.5 -57.5t56.5 -143.5v-275h-42v266q0 73 -46.5 122.5t-115.5 49.5q-77 0 -129 -60t-52 -150v-228h-41v467zM276 -61h44l-56 -159h-36z" />
    <glyph glyph-name="Ncaron" unicode="&#x147;" horiz-adv-x="738" 
d="M98 669h42l458 -601v601h41v-669h-39l-460 600v-600h-42v669zM230 856h49l92 -92l90 92h49l-125 -128h-29z" />
    <glyph glyph-name="ncaron" unicode="&#x148;" horiz-adv-x="588" 
d="M126 467v-108q29 58 79 87.5t109 29.5q85 0 141.5 -57.5t56.5 -143.5v-275h-42v266q0 73 -46.5 122.5t-115.5 49.5q-77 0 -129 -60t-52 -150v-228h-41v467h40zM172 654h44l89 -94l87 94h45l-118 -126h-30z" />
    <glyph glyph-name="Eng" unicode="&#x14a;" horiz-adv-x="738" 
d="M140 669l458 -601v601h41v-661q0 -102 -56.5 -161.5t-170.5 -59.5q-59 0 -120 19l-1 41q59 -18 120 -18q94 0 139.5 47t47.5 127l-458 597v-600h-42v669h42z" />
    <glyph glyph-name="eng" unicode="&#x14b;" horiz-adv-x="588" 
d="M86 0v467h40v-108q29 58 79 87.5t109 29.5q85 0 141.5 -57.5t56.5 -143.5v-303q0 -87 -48 -136t-136 -49q-38 0 -93 15v38q51 -14 87 -14q75 0 112 41.5t37 113.5v285q-1 74 -47.5 123t-115.5 49q-77 0 -129 -60t-52 -150v-228h-41z" />
    <glyph glyph-name="Omacron" unicode="&#x14c;" horiz-adv-x="767" 
d="M145 581q95 99 239 99q143 0 238 -99.5t95 -247.5q0 -147 -95 -245.5t-238 -98.5q-144 0 -239.5 98.5t-95.5 245.5q0 148 96 248zM176 117q85 -89 208 -89q122 0 206.5 88.5t84.5 216.5q0 130 -84.5 219t-206.5 89q-123 0 -208 -89t-85 -219q0 -128 85 -216zM237 779v36
h292v-36h-292z" />
    <glyph glyph-name="omacron" unicode="&#x14d;" horiz-adv-x="577" 
d="M115 408q69 70 173 70q105 0 174.5 -70t69.5 -175t-69.5 -174t-174.5 -69q-104 0 -173.5 69.5t-69.5 173.5t70 175zM145 87q58 -59 144 -59q85 0 143 59t58 146q0 88 -57.5 147t-143.5 59t-144 -59t-58 -147t58 -146zM162 570v34h252v-34h-252z" />
    <glyph glyph-name="Obreve" unicode="&#x14e;" horiz-adv-x="767" 
d="M145 581q95 99 239 99q143 0 238 -99.5t95 -247.5q0 -147 -95 -245.5t-238 -98.5q-144 0 -239.5 98.5t-95.5 245.5q0 148 96 248zM91 333q0 -128 85 -216.5t208 -88.5q122 0 206.5 88.5t84.5 216.5q0 130 -84.5 219t-206.5 89q-123 0 -208 -89t-85 -219zM288 853
q1 -42 27.5 -69t68.5 -27t68.5 27t28.5 69h38q0 -58 -37 -93q-38 -35 -98 -35t-97 35.5t-37 92.5h38z" />
    <glyph glyph-name="obreve" unicode="&#x14f;" horiz-adv-x="577" 
d="M115 408q69 70 173 70q105 0 174.5 -70t69.5 -175t-69.5 -174t-174.5 -69q-104 0 -173.5 69.5t-69.5 173.5t70 175zM87 233q0 -88 58 -146.5t144 -58.5q85 0 143 59t58 146q0 88 -57.5 147t-143.5 59t-144 -59t-58 -147zM155 655h37q2 -44 28 -70.5t68 -26.5t68 26.5
t27 70.5h38q0 -57 -36.5 -92t-96.5 -35q-59 0 -95.5 34.5t-37.5 92.5z" />
    <glyph glyph-name="Ohungarumlaut" unicode="&#x150;" horiz-adv-x="767" 
d="M145 581q95 99 239 99q143 0 238 -99.5t95 -247.5q0 -147 -95 -245.5t-238 -98.5q-144 0 -239.5 98.5t-95.5 245.5q0 148 96 248zM91 333q0 -128 85 -216.5t208 -88.5q122 0 206.5 88.5t84.5 216.5q0 130 -84.5 219t-206.5 89q-123 0 -208 -89t-85 -219zM472 856h56
l-71 -131h-36zM333 856h56l-62 -131h-35z" />
    <glyph glyph-name="ohungarumlaut" unicode="&#x151;" horiz-adv-x="577" 
d="M115 408q69 70 173 70q105 0 174.5 -70t69.5 -175t-69.5 -174t-174.5 -69q-104 0 -173.5 69.5t-69.5 173.5t70 175zM87 233q0 -88 58 -146.5t144 -58.5q85 0 143 59t58 146q0 88 -57.5 147t-143.5 59t-144 -59t-58 -147zM378 658h57l-74 -129h-35zM204 529l38 129h56
l-59 -129h-35z" />
    <glyph glyph-name="OE" unicode="&#x152;" horiz-adv-x="1123" 
d="M663 320v-282h413v-38h-454v177q-35 -87 -105.5 -137.5t-162.5 -50.5q-132 0 -217.5 97.5t-85.5 247.5q0 151 86 248.5t217 97.5q92 0 162.5 -50.5t105.5 -138.5v178h443v-38h-402v-274h380v-37h-380zM357 27q111 0 186 88.5t75 217.5q0 131 -75 219.5t-186 88.5
q-113 0 -188.5 -88.5t-75.5 -219.5q0 -130 75.5 -218t188.5 -88z" />
    <glyph glyph-name="oe" unicode="&#x153;" horiz-adv-x="936" 
d="M891 247q0 -18 -2 -34h-399q4 -80 57 -133t128 -53q52 0 95.5 28t66.5 75l35 -16q-27 -56 -80.5 -90t-118.5 -34q-68 0 -124 39t-81 106q-24 -67 -78 -106t-123 -39q-95 0 -158 69.5t-63 173.5t63.5 174.5t157.5 70.5q70 0 123.5 -40t77.5 -108q25 67 80 107.5t126 40.5
q93 0 155 -67t62 -164zM673 441q-75 0 -127 -55.5t-56 -138.5h361q-1 83 -51.5 138.5t-126.5 55.5zM268 27q77 0 129 58t52 148q0 89 -51 147.5t-130 58.5t-130 -58.5t-51 -147.5t51 -147.5t130 -58.5z" />
    <glyph glyph-name="Racute" unicode="&#x154;" horiz-adv-x="654" 
d="M98 669h282q99 0 161.5 -59t62.5 -151q0 -89 -57 -144.5t-149 -62.5l205 -252h-52l-199 249h-211v-249h-43v669zM141 287h225q88 0 141.5 46t53.5 125q0 75 -51 124t-133 49h-236v-344zM295 724l49 131h58l-65 -131h-42z" />
    <glyph glyph-name="racute" unicode="&#x155;" horiz-adv-x="372" 
d="M86 0v467h40v-88q23 46 66 72t99 26q35 0 64 -8v-41q-31 10 -69 10q-69 0 -114 -47.5t-45 -127.5v-263h-41zM197 530l48 129h58l-65 -129h-41z" />
    <glyph glyph-name="uni0156" unicode="&#x156;" horiz-adv-x="654" 
d="M98 0v669h282q99 0 161.5 -59t62.5 -151q0 -89 -57 -144.5t-149 -62.5l205 -252h-52l-199 249h-211v-249h-43zM141 287h225q88 0 141.5 46t53.5 125q0 75 -51 124t-133 49h-236v-344zM322 -52h45l-47 -159h-37z" />
    <glyph glyph-name="uni0157" unicode="&#x157;" horiz-adv-x="372" 
d="M126 467v-88q23 46 66 72t99 26q35 0 64 -8v-41q-31 10 -69 10q-69 0 -114 -47.5t-45 -127.5v-263h-41v467h40zM36 -218l48 159h43l-55 -159h-36z" />
    <glyph glyph-name="Rcaron" unicode="&#x158;" horiz-adv-x="654" 
d="M98 669h282q99 0 161.5 -59t62.5 -151q0 -89 -57 -144.5t-149 -62.5l205 -252h-52l-199 249h-211v-249h-43v669zM141 287h225q88 0 141.5 46t53.5 125q0 75 -51 124t-133 49h-236v-344zM222 857l91 -92l91 92h50l-126 -128h-29l-126 128h49z" />
    <glyph glyph-name="rcaron" unicode="&#x159;" horiz-adv-x="373" 
d="M86 467h41v-86q23 45 66 70.5t99 25.5q33 0 64 -8l-1 -41q-31 10 -69 10q-69 0 -114 -47.5t-45 -127.5v-263h-41v467zM87 655h44l89 -94l87 94h45l-118 -126h-30z" />
    <glyph glyph-name="Sacute" unicode="&#x15a;" horiz-adv-x="618" 
d="M55 113q108 -85 265 -85q96 0 156 40.5t60 111.5q0 30 -14 53t-33.5 36.5t-54 24.5t-60 15.5t-67.5 10.5q-33 5 -52.5 8.5t-53 12t-54.5 21t-43.5 30.5t-33 45t-10.5 61q0 87 66.5 134.5t183.5 47.5q128 0 240 -55l-17 -35q-108 52 -219 52q-103 0 -157 -38t-54 -104
q0 -30 13.5 -53t33 -37t51 -25t57.5 -16.5t64 -10.5q33 -5 52 -8t50 -10t49.5 -15t41 -21.5t35 -29.5t21 -40t8.5 -53q0 -97 -73.5 -144t-188.5 -47q-164 0 -281 87zM351 854h58l-65 -131h-42z" />
    <glyph glyph-name="sacute" unicode="&#x15b;" horiz-adv-x="487" 
d="M37 51l18 35q88 -58 196 -58q71 0 114 25t43 72q0 20 -9 34.5t-20 23t-35.5 15.5t-39 10t-47.5 8q-13 2 -19 3q-30 5 -49.5 9t-47.5 13.5t-44.5 22t-29 34t-12.5 49.5q0 61 51.5 96t140.5 35q97 0 179 -39l-12 -35q-79 37 -168 37q-72 0 -111 -25t-39 -68q0 -20 10 -35.5
t21 -23.5t36.5 -15.5t38.5 -9.5t45 -7q39 -6 62 -10.5t53.5 -14.5t46.5 -22.5t28 -34t12 -49.5q0 -67 -57 -101.5t-144 -34.5q-120 0 -211 61zM234 529l48 130h57l-65 -130h-40z" />
    <glyph glyph-name="Scircumflex" unicode="&#x15c;" horiz-adv-x="618" 
d="M55 113q108 -85 265 -85q96 0 156 40.5t60 111.5q0 30 -14 53t-33.5 36.5t-54 24.5t-60 15.5t-67.5 10.5q-33 5 -52.5 8.5t-53 12t-54.5 21t-43.5 30.5t-33 45t-10.5 61q0 87 66.5 134.5t183.5 47.5q128 0 240 -55l-17 -35q-108 52 -219 52q-103 0 -157 -38t-54 -104
q0 -30 13.5 -53t33 -37t51 -25t57.5 -16.5t64 -10.5q33 -5 52 -8t50 -10t49.5 -15t41 -21.5t35 -29.5t21 -40t8.5 -53q0 -97 -73.5 -144t-188.5 -47q-164 0 -281 87zM178 730l126 128h29l126 -128h-50l-90 92l-92 -92h-49z" />
    <glyph glyph-name="scircumflex" unicode="&#x15d;" horiz-adv-x="487" 
d="M55 86q88 -58 196 -58q71 0 114 25t43 72q0 20 -9 34.5t-20 23t-35.5 15.5t-39 10t-47.5 8q-13 2 -19 3q-30 5 -49.5 9t-47.5 13.5t-44.5 22t-29 34t-12.5 49.5q0 61 51.5 96t140.5 35q97 0 179 -39l-12 -35q-79 37 -168 37q-72 0 -111 -25t-39 -68q0 -20 10 -35.5
t21 -23.5t36.5 -15.5t38.5 -9.5t45 -7q39 -6 62 -10.5t53.5 -14.5t46.5 -22.5t28 -34t12 -49.5q0 -67 -57 -101.5t-144 -34.5q-120 0 -211 61zM124 528l117 126h30l118 -126h-45l-87 95l-89 -95h-44z" />
    <glyph glyph-name="Scedilla" unicode="&#x15e;" horiz-adv-x="618" 
d="M36 77l19 36q108 -85 265 -85q96 0 156 40.5t60 111.5q0 30 -14 53t-33.5 36.5t-54 24.5t-60 15.5t-67.5 10.5q-33 5 -52.5 8.5t-53 12t-54.5 21t-43.5 30.5t-33 45t-10.5 61q0 87 66.5 134.5t183.5 47.5q128 0 240 -55l-17 -35q-108 52 -219 52q-103 0 -157 -38
t-54 -104q0 -30 13.5 -53t33 -37t51 -25t57.5 -16.5t64 -10.5q33 -5 52 -8t50 -10t49.5 -15t41 -21.5t35 -29.5t21 -40t8.5 -53q0 -97 -73.5 -144t-188.5 -47h-5l-14 -48h16q48 0 76.5 -21.5t28.5 -57.5q0 -40 -31 -65.5t-87 -25.5q-44 0 -86 15l2 32q36 -14 82 -14
q39 0 61.5 15.5t22.5 43.5q0 49 -75 49h-48l-5 9l22 69q-141 11 -241 86z" />
    <glyph glyph-name="scedilla" unicode="&#x15f;" horiz-adv-x="487" 
d="M37 51l18 35q88 -58 196 -58q71 0 114 25t43 72q0 20 -9 34.5t-20 23t-35.5 15.5t-39 10t-47.5 8q-13 2 -19 3q-30 5 -49.5 9t-47.5 13.5t-44.5 22t-29 34t-12.5 49.5q0 61 51.5 96t140.5 35q97 0 179 -39l-12 -35q-79 37 -168 37q-72 0 -111 -25t-39 -68q0 -20 10 -35.5
t21 -23.5t36.5 -15.5t38.5 -9.5t45 -7q39 -6 62 -10.5t53.5 -14.5t46.5 -22.5t28 -34t12 -49.5q0 -67 -57 -101.5t-144 -34.5h-13l-13 -45h15q48 0 77 -22t29 -57q0 -40 -31 -65t-87 -25q-50 0 -87 14l2 32q37 -14 83 -14q84 0 84 58q0 51 -76 51h-48l-4 7l22 69
q-95 11 -164 58z" />
    <glyph glyph-name="Scaron" unicode="&#x160;" horiz-adv-x="618" 
d="M55 113q108 -85 265 -85q96 0 156 40.5t60 111.5q0 30 -14 53t-33.5 36.5t-54 24.5t-60 15.5t-67.5 10.5q-33 5 -52.5 8.5t-53 12t-54.5 21t-43.5 30.5t-33 45t-10.5 61q0 87 66.5 134.5t183.5 47.5q128 0 240 -55l-17 -35q-108 52 -219 52q-103 0 -157 -38t-54 -104
q0 -30 13.5 -53t33 -37t51 -25t57.5 -16.5t64 -10.5q33 -5 52 -8t50 -10t49.5 -15t41 -21.5t35 -29.5t21 -40t8.5 -53q0 -97 -73.5 -144t-188.5 -47q-164 0 -281 87zM180 856h49l92 -92l90 92h49l-125 -128h-29z" />
    <glyph glyph-name="scaron" unicode="&#x161;" horiz-adv-x="487" 
d="M55 86q88 -58 196 -58q71 0 114 25t43 72q0 20 -9 34.5t-20 23t-35.5 15.5t-39 10t-47.5 8q-13 2 -19 3q-30 5 -49.5 9t-47.5 13.5t-44.5 22t-29 34t-12.5 49.5q0 61 51.5 96t140.5 35q97 0 179 -39l-12 -35q-79 37 -168 37q-72 0 -111 -25t-39 -68q0 -20 10 -35.5
t21 -23.5t36.5 -15.5t38.5 -9.5t45 -7q39 -6 62 -10.5t53.5 -14.5t46.5 -22.5t28 -34t12 -49.5q0 -67 -57 -101.5t-144 -34.5q-120 0 -211 61zM123 654h44l89 -93l87 93h45l-117 -126h-30z" />
    <glyph glyph-name="Tcaron" unicode="&#x164;" horiz-adv-x="553" 
d="M23 631v38h507v-38h-232v-631h-42v631h-233zM139 857h49l91 -92l90 92h50l-125 -128h-30z" />
    <glyph glyph-name="tcaron" unicode="&#x165;" horiz-adv-x="361" 
d="M21 467h91v191h41v-191h180v-36h-180v-292q0 -111 103 -111q47 0 97 21v-37q-53 -22 -104 -22q-68 0 -102.5 38t-34.5 107v296h-91v36zM266 706h44l-27 -170h-35z" />
    <glyph glyph-name="Tbar" unicode="&#x166;" horiz-adv-x="572" 
d="M32 669h508v-38h-233v-309h146v-36h-146v-286h-42v286h-146v36h146v309h-233v38z" />
    <glyph glyph-name="tbar" unicode="&#x167;" horiz-adv-x="358" 
d="M21 284h91v147h-91v36h91v191h41v-191h180v-36h-180v-147h180v-29h-180v-116q0 -111 103 -111q47 0 97 21v-37q-53 -22 -104 -22q-68 0 -102.5 38t-34.5 107v120h-91v29z" />
    <glyph glyph-name="Utilde" unicode="&#x168;" horiz-adv-x="708" 
d="M131 669v-420q0 -96 63 -158t160 -62q96 0 159 62t63 158v420h42v-421q0 -114 -73 -186q-74 -73 -191 -73t-191 72.5t-74 186.5v421h42zM171 749q2 46 28.5 73.5t69.5 27.5q39 0 85 -34.5t74 -34.5t48 19.5t22 49.5h36q-3 -44 -31 -72.5t-70 -28.5q-37 0 -84 34.5
t-76 34.5t-46.5 -19t-19.5 -50h-36z" />
    <glyph glyph-name="utilde" unicode="&#x169;" horiz-adv-x="588" 
d="M76 467h42v-266q0 -74 46.5 -123t116.5 -49q75 0 127.5 56.5t52.5 141.5v240h42v-467h-42v103q-29 -56 -79.5 -84.5t-107.5 -28.5q-87 0 -142.5 58t-55.5 147v272zM127 553q3 49 28 71t61 22q39 0 80 -30.5t66 -30.5q27 0 43.5 16t18.5 45h34q-9 -93 -92 -93
q-34 0 -76 30.5t-72 30.5q-24 0 -40 -16t-17 -45h-34z" />
    <glyph glyph-name="Umacron" unicode="&#x16a;" horiz-adv-x="708" 
d="M89 669h42v-420q0 -96 63 -158t160 -62q96 0 159 62t63 158v420h42v-421q0 -114 -73 -186q-74 -73 -191 -73t-191 72.5t-74 186.5v421zM208 782v35h292v-35h-292z" />
    <glyph glyph-name="umacron" unicode="&#x16b;" horiz-adv-x="588" 
d="M118 467v-266q0 -74 46.5 -123t116.5 -49q75 0 127.5 56.5t52.5 141.5v240h42v-467h-42v103q-29 -56 -79.5 -84.5t-107.5 -28.5q-87 0 -142.5 58t-55.5 147v272h42zM163 604h253v-34h-253v34z" />
    <glyph glyph-name="Ubreve" unicode="&#x16c;" horiz-adv-x="708" 
d="M89 669h42v-420q0 -96 63 -158t160 -62q96 0 159 62t63 158v420h42v-421q0 -114 -73 -186q-74 -73 -191 -73t-191 72.5t-74 186.5v421zM220 856h38q2 -43 28.5 -70t68.5 -27t68.5 27t27.5 70h39q0 -58 -37 -93q-38 -36 -98 -36t-97.5 36t-37.5 93z" />
    <glyph glyph-name="ubreve" unicode="&#x16d;" horiz-adv-x="588" 
d="M76 467h42v-266q0 -74 46.5 -123t116.5 -49q75 0 127.5 56.5t52.5 141.5v240h42v-467h-42v103q-29 -56 -79.5 -84.5t-107.5 -28.5q-87 0 -142.5 58t-55.5 147v272zM157 655h37q1 -44 27 -70.5t69 -26.5q41 0 67.5 27t27.5 70h37q0 -58 -36.5 -92.5t-95.5 -34.5
q-60 0 -96.5 34.5t-36.5 92.5z" />
    <glyph glyph-name="Uring" unicode="&#x16e;" horiz-adv-x="708" 
d="M89 248v421h42v-420q0 -96 63 -158t160 -62q96 0 159 62t63 158v420h42v-421q0 -114 -73 -186q-74 -73 -191 -73t-191 72.5t-74 186.5zM260 797q0 38 27 65t67 27t67 -27t27 -65t-27 -64q-27 -27 -67 -27t-67 26.5t-27 64.5zM291 797q0 -26 18 -43q18 -18 45 -18t45 17.5
t18 43.5q0 27 -18 45t-45 18t-45 -18t-18 -45z" />
    <glyph glyph-name="uring" unicode="&#x16f;" horiz-adv-x="588" 
d="M76 467h42v-266q0 -74 46.5 -123t116.5 -49q75 0 127.5 56.5t52.5 141.5v240h42v-467h-42v103q-29 -56 -79.5 -84.5t-107.5 -28.5q-87 0 -142.5 58t-55.5 147v272zM196 611q0 38 26.5 64.5t66.5 26.5t66.5 -26.5t26.5 -64.5t-26 -63q-27 -26 -67 -26t-66.5 25.5
t-26.5 63.5zM224 611q0 -26 19 -44.5t46 -18.5q26 0 45 18.5t19 44.5t-19 45t-45 19q-27 0 -46 -19t-19 -45z" />
    <glyph glyph-name="Uhungarumlaut" unicode="&#x170;" horiz-adv-x="708" 
d="M89 669h42v-420q0 -96 63 -158t160 -62q96 0 159 62t63 158v420h42v-421q0 -114 -73 -186q-74 -73 -191 -73t-191 72.5t-74 186.5v421zM442 858h57l-72 -131h-36zM263 727l41 131h56l-62 -131h-35z" />
    <glyph glyph-name="uhungarumlaut" unicode="&#x171;" horiz-adv-x="588" 
d="M118 467v-266q0 -74 46.5 -123t116.5 -49q75 0 127.5 56.5t52.5 141.5v240h42v-467h-42v103q-29 -56 -79.5 -84.5t-107.5 -28.5q-87 0 -142.5 58t-55.5 147v272h42zM328 529l53 129h55l-72 -129h-36zM244 658h56l-60 -129h-34z" />
    <glyph glyph-name="Uogonek" unicode="&#x172;" horiz-adv-x="708" 
d="M89 669h42v-420q0 -96 63 -158t160 -62q96 0 159 62t63 158v420h42v-421q0 -92 -49 -158.5t-132 -89.5q-53 -23 -81 -60t-28 -70q0 -22 12.5 -37t35.5 -15t65 21l4 -33q-38 -21 -70 -21q-39 0 -61.5 22.5t-22.5 57.5q0 28 19 61.5t56 62.5h-12q-117 0 -191 72.5
t-74 186.5v421z" />
    <glyph glyph-name="uogonek" unicode="&#x173;" horiz-adv-x="588" 
d="M118 467v-266q0 -74 46.5 -123t116.5 -49q75 0 127.5 56.5t52.5 141.5v240h42v-467q-59 -22 -90 -61t-31 -74q0 -22 12.5 -37t34.5 -15q24 0 66 21l4 -33q-38 -21 -71 -21q-39 0 -61 22t-22 58t29 78t87 73v92q-29 -56 -79.5 -84.5t-107.5 -28.5q-87 0 -142.5 58
t-55.5 147v272h42z" />
    <glyph glyph-name="Wcircumflex" unicode="&#x174;" horiz-adv-x="939" 
d="M28 669h44l186 -609l193 609h36l196 -607l184 607h44l-207 -669h-44l-191 603l-189 -603h-43zM329 731l126 128h29l125 -128h-49l-90 92l-92 -92h-49z" />
    <glyph glyph-name="wcircumflex" unicode="&#x175;" horiz-adv-x="772" 
d="M66 467l158 -412l143 412h39l143 -412l157 412h46l-185 -467h-38l-142 415l-144 -415h-38l-185 467h46zM254 528l117 126h30l118 -126h-45l-87 94l-89 -94h-44z" />
    <glyph glyph-name="Ycircumflex" unicode="&#x176;" horiz-adv-x="624" 
d="M78 669l234 -385l237 385h48l-265 -425v-244h-41v244l-261 425h48zM173 731l126 128h29l125 -128h-50l-90 92l-91 -92h-49z" />
    <glyph glyph-name="ycircumflex" unicode="&#x177;" horiz-adv-x="531" 
d="M66 467l209 -453l190 453h45l-223 -526q-9 -21 -16 -35.5t-23.5 -39t-34.5 -40t-46 -27.5t-60 -12q-40 0 -85 15v41q37 -17 82 -17q85 0 132 105l17 38l-233 498h46zM250 654h31l117 -126h-45l-87 94l-89 -94h-44z" />
    <glyph glyph-name="Ydieresis" unicode="&#x178;" horiz-adv-x="624" 
d="M78 669l234 -385l237 385h48l-265 -425v-244h-41v244l-261 425h48zM194 802q0 18 13 30.5t31 12.5t31 -12.5t13 -30.5t-12 -30q-13 -13 -32 -13t-31.5 12.5t-12.5 30.5zM357 833q13 12 32 12q18 0 30.5 -13t12.5 -30q0 -18 -12.5 -30.5t-30.5 -12.5q-19 0 -32 12.5
t-13 30.5t13 31z" />
    <glyph glyph-name="Zacute" unicode="&#x179;" horiz-adv-x="559" 
d="M313 856h58l-65 -131h-42zM524 633l-445 -595h456v-38h-508v36l446 595h-434v38h485v-36z" />
    <glyph glyph-name="zacute" unicode="&#x17a;" horiz-adv-x="456" 
d="M250 529h-41l48 129h58zM429 0h-403v28l335 402h-315v37h371v-29l-333 -400h345v-38z" />
    <glyph glyph-name="Zdotaccent" unicode="&#x17b;" horiz-adv-x="559" 
d="M27 36l446 595h-434v38h485v-36l-445 -595h456v-38h-508v36zM253 829q11 11 27 11q17 0 28 -11t11 -27t-11 -27t-28 -11q-16 0 -27 11t-11 27t11 27z" />
    <glyph glyph-name="zdotaccent" unicode="&#x17c;" horiz-adv-x="456" 
d="M26 28l335 402h-315v37h371v-29l-333 -400h345v-38h-403v28zM194 594q0 15 11 26t27 11t27.5 -11t11.5 -26q0 -16 -11 -27q-12 -12 -28 -12t-27 11t-11 28z" />
    <glyph glyph-name="Zcaron" unicode="&#x17d;" horiz-adv-x="559" 
d="M27 36l446 595h-434v38h485v-36l-445 -595h456v-38h-508v36zM142 857h49l91 -92l90 92h50l-125 -127h-29z" />
    <glyph glyph-name="zcaron" unicode="&#x17e;" horiz-adv-x="456" 
d="M361 430h-315v37h371v-29l-333 -400h345v-38h-403v28zM99 654h44l89 -94l87 94h45l-117 -126h-30z" />
    <glyph glyph-name="Aringacute" unicode="&#x1fa;" horiz-adv-x="659" 
d="M310 669h41l287 -669h-46l-84 198h-357l-84 -198h-46zM494 236l-163 389l-167 -389h330zM263 862q27 27 67 27q33 0 57.5 -18.5t32.5 -48.5l112 59l21 -40l-129 -49q-2 -36 -29 -61t-65 -25q-40 0 -67.5 26.5t-27.5 64.5t28 65zM267 797q0 -26 18 -43.5t45 -17.5t45 17.5
t18 43.5q0 27 -18 45t-45 18t-45 -18t-18 -45z" />
    <glyph glyph-name="aringacute" unicode="&#x1fb;" horiz-adv-x="606" 
d="M45 233q0 105 67 174.5t167 69.5q66 0 119 -32.5t82 -87.5v110h41v-467h-41v111q-30 -56 -83 -88.5t-119 -32.5q-100 0 -166.5 69.5t-66.5 173.5zM88 233q0 -88 55.5 -146.5t138.5 -58.5q84 0 140.5 59.5t56.5 148.5q0 86 -56.5 144.5t-139.5 58.5t-139 -59t-56 -147z
M197 611q0 38 26.5 64.5t66.5 26.5q30 0 54 -17t33 -44l106 56l19 -37l-120 -49q0 -37 -26 -63q-27 -26 -66 -26t-66 26t-27 63zM225 611q0 -26 19 -44.5t46 -18.5q26 0 44.5 18.5t18.5 44.5t-18.5 45.5t-44.5 19.5q-27 0 -46 -19.5t-19 -45.5z" />
    <glyph glyph-name="AEacute" unicode="&#x1fc;" horiz-adv-x="945" 
d="M-9 0l427 669h470v-38h-404v-274h383v-37h-383v-282h415v-38h-457v199h-278l-127 -199h-46zM187 236h255v400zM644 855h59l-65 -131h-43z" />
    <glyph glyph-name="aeacute" unicode="&#x1fd;" horiz-adv-x="896" 
d="M39 129q0 60 45.5 94.5t127.5 34.5h192v17q0 84 -40 124.5t-124 40.5q-89 0 -164 -32v39q84 31 166 31q158 0 193 -131q28 61 81 96t119 35q92 0 154 -64t62 -157q0 -25 -2 -33h-399q1 -84 54.5 -140.5t129.5 -56.5q53 0 97 27.5t68 73.5l34 -15q-28 -56 -81.5 -89.5
t-118.5 -33.5q-67 0 -122.5 38t-81.5 104q-21 -62 -80 -102t-137 -40t-125.5 37.5t-47.5 101.5zM80 130q0 -48 37.5 -76.5t97.5 -28.5q84 0 136.5 52.5t52.5 134.5v12h-189q-66 0 -100.5 -24.5t-34.5 -69.5zM812 258q-1 79 -51.5 131t-125.5 52q-74 0 -125.5 -52t-58.5 -131
h361zM420 531l48 129h58l-65 -129h-41z" />
    <glyph glyph-name="Oslashacute" unicode="&#x1fe;" horiz-adv-x="766" 
d="M49 333q0 148 95.5 247.5t238.5 99.5q105 0 186 -56l75 105l26 -19l-75 -105q57 -47 89.5 -118t32.5 -154q0 -147 -95.5 -245.5t-238.5 -98.5q-104 0 -187 55l-72 -101l-25 19l72 101q-122 100 -122 270zM383 26q126 0 209.5 88t83.5 219q0 149 -104 240l-354 -497
q73 -50 165 -50zM118 199q27 -62 76 -104l353 497q-72 50 -164 50q-125 0 -209 -88.5t-84 -220.5q0 -72 28 -134zM354 724l48 131h59l-65 -131h-42z" />
    <glyph glyph-name="oslashacute" unicode="&#x1ff;" horiz-adv-x="577" 
d="M45 233q0 104 70 174.5t174 70.5q65 0 120 -30l51 77l25 -15l-51 -78q46 -34 72 -86t26 -113q0 -104 -69.5 -173.5t-173.5 -69.5q-63 0 -117 28l-51 -79l-26 16l52 78q-48 33 -75 85t-27 115zM85 233q0 -109 83 -169l220 351q-45 25 -99 25q-87 0 -145.5 -59.5
t-58.5 -147.5zM289 26q87 0 145.5 59.5t58.5 147.5q0 106 -80 166l-220 -350q43 -23 96 -23zM248 531l48 129h59l-65 -129h-42z" />
    <glyph glyph-name="uni0218" unicode="&#x218;" horiz-adv-x="618" 
d="M55 113q108 -85 265 -85q96 0 156 40.5t60 111.5q0 30 -14 53t-33.5 36.5t-54 24.5t-60 15.5t-67.5 10.5q-33 5 -52.5 8.5t-53 12t-54.5 21t-43.5 30.5t-33 45t-10.5 61q0 87 66.5 134.5t183.5 47.5q128 0 240 -55l-17 -35q-108 52 -219 52q-103 0 -157 -38t-54 -104
q0 -30 13.5 -53t33 -37t51 -25t57.5 -16.5t64 -10.5q33 -5 52 -8t50 -10t49.5 -15t41 -21.5t35 -29.5t21 -40t8.5 -53q0 -97 -73.5 -144t-188.5 -47q-164 0 -281 87zM294 -51h45l-47 -160h-37z" />
    <glyph glyph-name="uni0219" unicode="&#x219;" horiz-adv-x="487" 
d="M37 51l18 35q88 -58 196 -58q71 0 114 25t43 72q0 20 -9 34.5t-20 23t-35.5 15.5t-39 10t-47.5 8q-13 2 -19 3q-30 5 -49.5 9t-47.5 13.5t-44.5 22t-29 34t-12.5 49.5q0 61 51.5 96t140.5 35q97 0 179 -39l-12 -35q-79 37 -168 37q-72 0 -111 -25t-39 -68q0 -20 10 -35.5
t21 -23.5t36.5 -15.5t38.5 -9.5t45 -7q39 -6 62 -10.5t53.5 -14.5t46.5 -22.5t28 -34t12 -49.5q0 -67 -57 -101.5t-144 -34.5q-120 0 -211 61zM186 -219l48 159h44l-56 -159h-36z" />
    <glyph glyph-name="uni021A" unicode="&#x21a;" horiz-adv-x="553" 
d="M530 669v-38h-232v-631h-42v631h-233v38h507zM252 -59h45l-47 -159h-37z" />
    <glyph glyph-name="uni021B" unicode="&#x21b;" horiz-adv-x="358" 
d="M21 431v36h91v191h41v-191h180v-36h-180v-292q0 -111 103 -111q47 0 97 21v-37q-53 -22 -104 -22q-68 0 -102.5 38t-34.5 107v296h-91zM147 -218l48 160h43l-56 -160h-35z" />
    <glyph glyph-name="uni0237" unicode="&#x237;" horiz-adv-x="226" 
d="M-19 -174q118 0 118 125v516h42v-528q0 -73 -41.5 -112.5t-109.5 -39.5q-39 0 -73 10v38q31 -9 64 -9z" />
    <glyph glyph-name="circumflex" unicode="&#x2c6;" horiz-adv-x="371" 
d="M170 656h30l118 -126h-45l-87 94l-89 -94h-44z" />
    <glyph glyph-name="caron" unicode="&#x2c7;" horiz-adv-x="371" 
d="M53 656h44l89 -94l87 94h45l-118 -127h-30z" />
    <glyph glyph-name="breve" unicode="&#x2d8;" horiz-adv-x="387" 
d="M98 657q1 -44 27 -71t69 -27q41 0 67.5 27t27.5 71h37q0 -58 -36.5 -93t-95.5 -35q-60 0 -96.5 35t-36.5 93h37z" />
    <glyph glyph-name="dotaccent" unicode="&#x2d9;" horiz-adv-x="212" 
d="M79 621q11 11 27 11q17 0 28 -11t11 -27t-11 -27t-28 -11q-16 0 -27.5 11t-11.5 27t12 27z" />
    <glyph glyph-name="ring" unicode="&#x2da;" horiz-adv-x="309" 
d="M89 677q26 26 66 26q39 0 66 -26.5t27 -64.5q0 -37 -27 -63t-66 -26t-66 26t-27 63q0 38 27 65zM90 612q0 -26 19 -44.5t46 -18.5q26 0 45 18.5t19 44.5t-19 45.5t-45 19.5q-27 0 -46 -19.5t-19 -45.5z" />
    <glyph glyph-name="ogonek" unicode="&#x2db;" horiz-adv-x="274" 
d="M143 -219q-39 0 -61.5 22t-22.5 57q0 39 34 84.5t101 75.5l23 -20q-58 -22 -89.5 -61t-31.5 -74q0 -22 12.5 -36.5t35.5 -14.5q28 0 64 21l5 -33q-37 -21 -70 -21z" />
    <glyph glyph-name="tilde" unicode="&#x2dc;" horiz-adv-x="455" 
d="M91 630q25 22 61 22q30 0 54.5 -15.5t46.5 -31t44 -15.5q28 0 44 16t18 45h35q-9 -93 -93 -93q-35 0 -77 30.5t-71 30.5q-23 0 -39.5 -16t-16.5 -44h-35q3 48 29 71z" />
    <glyph glyph-name="hungarumlaut" unicode="&#x2dd;" horiz-adv-x="343" 
d="M233 660h55l-72 -129h-35zM96 660h56l-60 -129h-34z" />
    <glyph glyph-name="gravecomb" unicode="&#x300;" horiz-adv-x="0" 
d="M-48 660l48 -129h-40l-65 129h57z" />
    <glyph glyph-name="acutecomb" unicode="&#x301;" horiz-adv-x="0" 
d="M-64 531h-42l48 129h58z" />
    <glyph glyph-name="uni0302" unicode="&#x302;" horiz-adv-x="0" 
d="M-148 656h30l118 -126h-45l-87 94l-89 -94h-44z" />
    <glyph glyph-name="tildecomb" unicode="&#x303;" horiz-adv-x="0" 
d="M-304 630q26 22 62 22q30 0 54.5 -15.5t46.5 -31t44 -15.5q28 0 44 16t18 45h35q-9 -93 -93 -93q-35 0 -77 30.5t-71 30.5q-23 0 -39.5 -16t-16.5 -44h-35q3 48 28 71z" />
    <glyph glyph-name="uni0304" unicode="&#x304;" horiz-adv-x="0" 
d="M0 571h-253v35h253v-35z" />
    <glyph glyph-name="uni0306" unicode="&#x306;" horiz-adv-x="0" 
d="M-266 657h37q1 -44 27 -71t69 -27q42 0 68 27t27 71h38q0 -58 -37 -93t-96 -35t-96 35t-37 93z" />
    <glyph glyph-name="uni0307" unicode="&#x307;" horiz-adv-x="0" 
d="M-66 621q11 11 27 11q17 0 28 -11t11 -27t-11 -27t-28 -11q-16 0 -27 11t-11 27t11 27z" />
    <glyph glyph-name="uni0308" unicode="&#x308;" horiz-adv-x="0" 
d="M-72 613q12 11 30 11q17 0 29.5 -12t12.5 -28q0 -17 -12.5 -29t-29.5 -12q-18 0 -30 12t-12 29t12 29zM-213 613q12 11 29 11q18 0 30 -11.5t12 -28.5t-12 -29t-30 -12q-17 0 -29 12t-12 29t12 29z" />
    <glyph glyph-name="uni030A" unicode="&#x30a;" horiz-adv-x="0" 
d="M-160 677q27 26 67 26q39 0 66 -26.5t27 -64.5q0 -37 -27 -63t-66 -26t-66 26t-27 63q0 38 26 65zM-158 612q0 -26 19 -44.5t46 -18.5q26 0 45 18.5t19 44.5t-19 45.5t-45 19.5q-27 0 -46 -19.5t-19 -45.5z" />
    <glyph glyph-name="uni030B" unicode="&#x30b;" horiz-adv-x="0" 
d="M-55 660h55l-72 -129h-36zM-192 660h56l-60 -129h-34z" />
    <glyph glyph-name="uni030C" unicode="&#x30c;" horiz-adv-x="0" 
d="M-265 656h44l89 -94l87 94h45l-118 -127h-30z" />
    <glyph glyph-name="uni0326" unicode="&#x326;" horiz-adv-x="0" 
d="M-56 -220h-36l48 159h44z" />
    <glyph glyph-name="uni0394" unicode="&#x394;" horiz-adv-x="680" 
d="M653 0h-627v40l296 629h38l293 -629v-40zM341 627l-273 -589h543z" />
    <glyph glyph-name="uni03A9" unicode="&#x3a9;" horiz-adv-x="760" 
d="M706 354q0 -98 -56.5 -186t-163.5 -131h211v-38h-282v35q124 49 186 130.5t62 183.5q0 121 -81 207t-202 86t-202.5 -86.5t-81.5 -206.5q0 -102 62 -183t187 -131v-35h-283v38h210q-106 43 -162 130.5t-56 186.5q0 135 93.5 231t232.5 96t232.5 -96t93.5 -231z" />
    <glyph glyph-name="uni03BC" unicode="&#x3bc;" horiz-adv-x="620" 
d="M547 30q24 0 55 11v-38q-32 -13 -64 -13t-53 20t-21 55v36q-22 -50 -69.5 -80.5t-108.5 -30.5q-109 0 -158 93v-284h-42v668h42v-250q0 -91 45 -139t115 -48q69 0 121.5 52t52.5 144v241h43v-390q0 -47 42 -47z" />
    <glyph glyph-name="pi" unicode="&#x3c0;" horiz-adv-x="605" 
d="M519 31q25 0 54 11v-38q-29 -13 -63 -13q-32 0 -53.5 20t-21.5 60v356h-288v-628h-42v628h-86v40h544v-40h-86v-349q0 -47 42 -47z" />
    <glyph glyph-name="uni0401" unicode="&#x401;" horiz-adv-x="612" 
d="M98 669h454v-38h-412v-273h398v-38h-398v-282h424v-38h-466v669zM215 802q0 18 12.5 30.5t31.5 12.5t31.5 -12.5t12.5 -30.5t-12 -30q-13 -13 -32 -13t-31.5 12.5t-12.5 30.5zM365 802q0 18 12.5 30.5t31.5 12.5t31.5 -12.5t12.5 -30.5t-12 -30q-13 -13 -32 -13
t-31.5 12.5t-12.5 30.5z" />
    <glyph glyph-name="uni0402" unicode="&#x402;" horiz-adv-x="760" 
d="M23 631v38h507v-38h-232v-257q79 31 162 31q124 0 191.5 -72t67.5 -189q0 -123 -70 -199.5t-182 -76.5q-59 0 -108 17v38q53 -17 106 -17q91 0 151.5 66t60.5 170q0 101 -56.5 162.5t-161.5 61.5q-78 0 -161 -32v-334h-42v631h-233z" />
    <glyph glyph-name="uni0403" unicode="&#x403;" horiz-adv-x="554" 
d="M344 724h-42l49 131h59zM141 0h-43v669h433v-38h-390v-631z" />
    <glyph glyph-name="uni0404" unicode="&#x404;" horiz-adv-x="658" 
d="M50 336q0 150 92 247t236 97q134 0 245 -76l-19 -33q-97 70 -226 70q-122 0 -201 -80.5t-85 -206.5h417v-38h-416q6 -128 87 -208.5t208 -80.5q123 0 227 67l13 -39q-108 -66 -239 -66q-151 0 -245 97t-94 250z" />
    <glyph glyph-name="uni0405" unicode="&#x405;" horiz-adv-x="618" 
d="M55 113q108 -85 265 -85q96 0 156 40.5t60 111.5q0 30 -14 53t-33.5 36.5t-54 24.5t-60 15.5t-67.5 10.5q-33 5 -52.5 8.5t-53 12t-54.5 21t-43.5 30.5t-33 45t-10.5 61q0 87 66.5 134.5t183.5 47.5q128 0 240 -55l-17 -35q-108 52 -219 52q-103 0 -157 -38t-54 -104
q0 -30 13.5 -53t33 -37t51 -25t57.5 -16.5t64 -10.5q33 -5 52 -8t50 -10t49.5 -15t41 -21.5t35 -29.5t21 -40t8.5 -53q0 -97 -73.5 -144t-188.5 -47q-164 0 -281 87z" />
    <glyph glyph-name="uni0406" unicode="&#x406;" horiz-adv-x="239" 
d="M98 0v669h43v-669h-43z" />
    <glyph glyph-name="uni0407" unicode="&#x407;" horiz-adv-x="240" 
d="M141 669v-669h-42v669h42zM1 802q0 18 12.5 30.5t31.5 12.5t31.5 -12.5t12.5 -30.5t-12 -30q-13 -13 -32 -13t-31.5 12.5t-12.5 30.5zM151 802q0 18 12.5 30.5t31.5 12.5t31.5 -12.5t12.5 -30.5t-12 -30q-13 -13 -32 -13t-31.5 12.5t-12.5 30.5z" />
    <glyph glyph-name="uni0408" unicode="&#x408;" horiz-adv-x="479" 
d="M24 47q63 -19 120 -19q98 0 150.5 52.5t52.5 135.5v453h42v-460q0 -100 -63.5 -160t-178.5 -60q-67 0 -122 19z" />
    <glyph glyph-name="uni0409" unicode="&#x409;" horiz-adv-x="1112" 
d="M612 400h270q86 0 141.5 -56.5t55.5 -144.5q0 -87 -56.5 -143t-144.5 -56h-308v631h-340v-116q0 -104 -1.5 -162.5t-10.5 -140t-27 -129.5q-19 -50 -48 -71.5t-76 -21.5q-28 0 -56 7v39q25 -6 52 -6q66 0 91 75q34 97 34 422v142h424v-269zM612 37h261q72 0 117.5 46
t45.5 116q0 72 -44.5 118t-115.5 46h-264v-326z" />
    <glyph glyph-name="uni040A" unicode="&#x40a;" horiz-adv-x="1134" 
d="M141 669v-318h451v318h42v-269h269q87 0 142.5 -56.5t55.5 -144.5q0 -87 -56 -143t-145 -56h-308v312h-451v-312h-43v669h43zM895 37q72 0 118 46t46 116q0 72 -45 118t-116 46h-264v-326h261z" />
    <glyph glyph-name="uni040B" unicode="&#x40b;" horiz-adv-x="761" 
d="M530 669v-38h-232v-267q102 41 200 41q105 0 159 -54t54 -150v-201h-44v194q0 79 -43 125t-131 46q-97 0 -195 -42v-323h-42v631h-233v38h507z" />
    <glyph glyph-name="uni040C" unicode="&#x40c;" horiz-adv-x="606" 
d="M141 669v-323l384 323h59l-402 -336l419 -333h-62l-398 318v-318h-43v669h43zM373 855h59l-65 -131h-43z" />
    <glyph glyph-name="uni040E" unicode="&#x40e;" horiz-adv-x="601" 
d="M60 669l261 -520l224 520h44l-228 -526q-67 -153 -197 -153q-46 0 -99 17v40q48 -20 98 -20q85 0 135 82l-283 560h45zM171 856h39q1 -50 26 -74t68 -24q42 0 68 24t27 74h38q0 -59 -35.5 -93.5t-97.5 -34.5q-61 0 -96.5 34.5t-36.5 93.5z" />
    <glyph glyph-name="uni040F" unicode="&#x40f;" horiz-adv-x="696" 
d="M556 669h42v-669h-229v-142h-42v142h-229v669h43v-631h415v631z" />
    <glyph glyph-name="uni0410" unicode="&#x410;" horiz-adv-x="659" 
d="M310 669h41l287 -669h-46l-84 198h-357l-84 -198h-46zM164 236h330l-163 389z" />
    <glyph glyph-name="uni0411" unicode="&#x411;" horiz-adv-x="663" 
d="M141 392h294q84 0 138 -55.5t54 -140.5t-56.5 -140.5t-142.5 -55.5h-330v669h467v-38h-424v-239zM141 38h283q70 0 115.5 44.5t45.5 113.5q0 68 -43.5 113t-110.5 45h-290v-316z" />
    <glyph glyph-name="uni0412" unicode="&#x412;" horiz-adv-x="684" 
d="M98 669h327q77 0 126 -49t49 -122q0 -47 -26 -86t-71 -57q58 -13 94 -60t36 -110q0 -79 -57 -132t-147 -53h-331v669zM141 329v-291h282q74 0 120.5 42t46.5 107q0 60 -40 101t-99 41h-310zM141 366h276q60 0 100.5 37t40.5 92q0 59 -38 98t-99 39h-280v-266z" />
    <glyph glyph-name="uni0413" unicode="&#x413;" horiz-adv-x="554" 
d="M141 0h-43v669h433v-38h-390v-631z" />
    <glyph glyph-name="uni0414" unicode="&#x414;" horiz-adv-x="723" 
d="M596 669v-631h101v-172h-41v134h-603v-134h-42v172h85q29 30 47 113t18 192v326h435zM202 631v-294q0 -213 -55 -299h408v593h-353z" />
    <glyph glyph-name="uni0415" unicode="&#x415;" horiz-adv-x="612" 
d="M98 0v669h454v-38h-412v-273h398v-38h-398v-282h424v-38h-466z" />
    <glyph glyph-name="uni0416" unicode="&#x416;" horiz-adv-x="866" 
d="M490 333l371 -333h-57l-351 318v-318h-39v318l-351 -318h-57l371 333l-355 336h54l338 -323v323h39v-323l338 323h53z" />
    <glyph glyph-name="uni0417" unicode="&#x417;" horiz-adv-x="612" 
d="M433 353q60 -16 94.5 -60.5t34.5 -103.5q0 -91 -75 -145.5t-199 -54.5q-143 0 -259 67l18 36q110 -65 242 -65q102 0 166 45.5t64 116.5q0 63 -47 102.5t-110 39.5h-189v36h182q60 0 101 37.5t41 93.5q0 66 -57 106.5t-148 40.5q-114 0 -224 -65l-17 35q106 68 245 68
q110 0 177 -49.5t67 -129.5q0 -50 -28 -91t-79 -60z" />
    <glyph glyph-name="uni0418" unicode="&#x418;" horiz-adv-x="740" 
d="M140 669v-602l463 602h38v-669h-41v602l-464 -602h-38v669h42z" />
    <glyph glyph-name="uni0419" unicode="&#x419;" horiz-adv-x="740" 
d="M140 669v-602l463 602h38v-669h-41v602l-464 -602h-38v669h42zM236 853h38q2 -43 28.5 -70t68.5 -27t68.5 27t27.5 70h39q0 -58 -37 -93q-38 -36 -98 -36t-97.5 36t-37.5 93z" />
    <glyph glyph-name="uni041A" unicode="&#x41a;" horiz-adv-x="606" 
d="M141 669v-323l384 323h59l-402 -336l419 -333h-62l-398 318v-318h-43v669h43z" />
    <glyph glyph-name="uni041B" unicode="&#x41b;" horiz-adv-x="710" 
d="M67 -10q-28 0 -56 7v39q25 -6 52 -6q66 0 91 75q34 97 34 422v142h424v-669h-42v631h-340v-116q0 -104 -1.5 -162.5t-10.5 -140t-27 -129.5q-19 -50 -48 -71.5t-76 -21.5z" />
    <glyph glyph-name="uni041C" unicode="&#x41c;" horiz-adv-x="881" 
d="M138 669l302 -472l303 472h40v-669h-42v594l-285 -446h-30l-286 446v-594h-42v669h40z" />
    <glyph glyph-name="uni041D" unicode="&#x41d;" horiz-adv-x="733" 
d="M141 669v-318h451v318h42v-669h-42v312h-451v-312h-43v669h43z" />
    <glyph glyph-name="uni041E" unicode="&#x41e;" horiz-adv-x="767" 
d="M145 581q95 99 239 99q143 0 238 -99.5t95 -247.5q0 -147 -95 -245.5t-238 -98.5q-144 0 -239.5 98.5t-95.5 245.5q0 148 96 248zM91 333q0 -128 85 -216.5t208 -88.5q122 0 206.5 88.5t84.5 216.5q0 130 -84.5 219t-206.5 89q-123 0 -208 -89t-85 -219z" />
    <glyph glyph-name="uni041F" unicode="&#x41f;" horiz-adv-x="699" 
d="M141 0h-43v669h502v-669h-42v631h-417v-631z" />
    <glyph glyph-name="uni0420" unicode="&#x420;" horiz-adv-x="645" 
d="M382 669q103 0 166 -61.5t63 -156.5q0 -97 -64 -158.5t-169 -61.5h-237v-231h-43v669h284zM375 269q87 0 140 51t53 131q0 78 -52 129t-136 51h-239v-362h234z" />
    <glyph glyph-name="uni0421" unicode="&#x421;" horiz-adv-x="726" 
d="M145 581q95 99 239 99q107 0 189.5 -57.5t118.5 -154.5l-38 -16q-34 85 -106.5 137t-164.5 52q-122 0 -207 -89t-85 -219q0 -128 85 -216.5t208 -88.5q89 0 161.5 50t105.5 132l40 -16q-38 -94 -120 -149.5t-187 -55.5q-143 0 -239 98.5t-96 245.5q0 148 96 248z" />
    <glyph glyph-name="uni0422" unicode="&#x422;" horiz-adv-x="553" 
d="M23 669h507v-38h-232v-631h-42v631h-233v38z" />
    <glyph glyph-name="uni0423" unicode="&#x423;" horiz-adv-x="601" 
d="M60 669l261 -520l224 520h44l-228 -526q-67 -153 -197 -153q-46 0 -99 17v40q48 -20 98 -20q85 0 135 82l-283 560h45z" />
    <glyph glyph-name="uni0424" unicode="&#x424;" horiz-adv-x="923" 
d="M642 604q103 0 166 -74t63 -194t-62.5 -195.5t-166.5 -75.5q-76 0 -160 44v-146h-40v147q-80 -45 -162 -45q-104 0 -166 75.5t-62 195.5q0 119 63 193.5t166 74.5q86 0 161 -50v152h40v-150q74 48 160 48zM94 334q0 -101 54.5 -166.5t139.5 -65.5q80 0 154 47v366
q-75 52 -152 52q-92 0 -144 -67t-52 -166zM636 102q85 0 139 65t54 167q0 99 -52 166t-143 67q-74 0 -153 -52v-366q73 -47 155 -47z" />
    <glyph glyph-name="uni0425" unicode="&#x425;" horiz-adv-x="591" 
d="M269 341l-246 328h51l221 -297l225 297h49l-249 -329l259 -340h-52l-233 308l-233 -308h-50z" />
    <glyph glyph-name="uni0426" unicode="&#x426;" horiz-adv-x="711" 
d="M584 669v-631h103v-180h-41v142h-548v669h43v-631h401v631h42z" />
    <glyph glyph-name="uni0427" unicode="&#x427;" horiz-adv-x="658" 
d="M518 343v326h42v-669h-42v302q-124 -43 -231 -43q-116 0 -177 57t-61 151v202h43v-198q0 -77 50 -125t151 -48q115 0 225 45z" />
    <glyph glyph-name="uni0428" unicode="&#x428;" horiz-adv-x="1064" 
d="M924 38v631h42v-669h-868v669h43v-631h370v631h42v-631h371z" />
    <glyph glyph-name="uni0429" unicode="&#x429;" horiz-adv-x="1094" 
d="M966 669v-631h103v-180h-41v142h-930v669h43v-631h370v631h42v-631h371v631h42z" />
    <glyph glyph-name="uni042A" unicode="&#x42a;" horiz-adv-x="777" 
d="M278 400h269q87 0 142 -56.5t55 -144.5q0 -87 -56 -143t-145 -56h-307v631h-214v38h256v-269zM278 37h261q72 0 117.5 46t45.5 116q0 71 -45 117.5t-115 46.5h-264v-326z" />
    <glyph glyph-name="uni042B" unicode="&#x42b;" horiz-adv-x="878" 
d="M98 0v669h42v-269h270q87 0 142 -56.5t55 -144.5q0 -87 -56 -143t-145 -56h-308zM140 37h261q72 0 117.5 46t45.5 116q0 72 -44.5 118t-115.5 46h-264v-326zM737 669h42v-669h-42v669z" />
    <glyph glyph-name="uni042C" unicode="&#x42c;" horiz-adv-x="640" 
d="M140 400h270q87 0 142 -56.5t55 -144.5q0 -87 -56 -143t-145 -56h-308v669h42v-269zM140 37h261q72 0 117.5 46t45.5 116q0 72 -44.5 118t-115.5 46h-264v-326z" />
    <glyph glyph-name="uni042D" unicode="&#x42d;" horiz-adv-x="658" 
d="M44 94q100 -67 226 -67q127 0 208 80.5t87 208.5h-416v38h417q-6 126 -85 206.5t-200 80.5q-130 0 -227 -70l-18 33q110 76 245 76q143 0 235 -97t92 -247q0 -153 -94 -250t-246 -97q-129 0 -239 66z" />
    <glyph glyph-name="uni042E" unicode="&#x42e;" horiz-adv-x="980" 
d="M98 669h43v-316h122q8 141 102.5 234t231.5 93q143 0 238.5 -99.5t95.5 -247.5q0 -147 -95.5 -245.5t-238.5 -98.5q-138 0 -232 92t-101 232h-123v-313h-43v669zM390 117q85 -89 207 -89t207 88.5t85 216.5q0 130 -85 219t-207 89t-207 -89t-85 -219q0 -128 85 -216z" />
    <glyph glyph-name="uni042F" unicode="&#x42f;" horiz-adv-x="653" 
d="M554 669v-669h-41v250h-173l-240 -250h-53l242 250h-12q-100 0 -164.5 57t-64.5 152q0 92 65 151t167 59h274zM288 286h225v345h-231q-85 0 -138 -49t-53 -125q0 -79 54.5 -125t142.5 -46z" />
    <glyph glyph-name="uni0430" unicode="&#x430;" horiz-adv-x="606" 
d="M112 408q67 69 167 69q66 0 119 -32.5t82 -87.5v110h41v-467h-41v111q-30 -56 -83 -88.5t-119 -32.5q-100 0 -166.5 69.5t-66.5 173.5q0 105 67 175zM144 87q55 -59 138 -59q84 0 140.5 59.5t56.5 148.5q0 86 -56.5 144.5t-139.5 58.5t-139 -59t-56 -147t56 -146z" />
    <glyph glyph-name="uni0431" unicode="&#x431;" horiz-adv-x="592" 
d="M314 468q100 0 166.5 -67t66.5 -168q0 -104 -68.5 -173.5t-170.5 -69.5t-170 70t-68 176v208q0 76 44 132t142 72q4 1 43 7t63 10t63 14t69 22l6 -40q-66 -26 -208 -48q-180 -26 -180 -170v-91q28 52 82.5 84t119.5 32zM306 27q85 0 141.5 59t56.5 147q0 84 -55.5 140.5
t-139.5 56.5q-83 0 -139.5 -56.5t-56.5 -140.5q0 -88 55.5 -147t137.5 -59z" />
    <glyph glyph-name="uni0432" unicode="&#x432;" horiz-adv-x="573" 
d="M434 246q40 -12 62 -43.5t22 -71.5q0 -57 -39.5 -94t-106.5 -37h-286v467h287q55 0 90.5 -34.5t35.5 -86.5q0 -30 -18 -58t-47 -42zM371 430h-243v-171h239q39 0 64.5 25t25.5 62t-24 60.5t-62 23.5zM128 36h239q54 0 81.5 26.5t27.5 69.5q0 41 -26 67.5t-69 26.5h-253
v-190z" />
    <glyph glyph-name="uni0433" unicode="&#x433;" horiz-adv-x="436" 
d="M128 0h-42v467h334v-39h-292v-428z" />
    <glyph glyph-name="uni0434" unicode="&#x434;" horiz-adv-x="603" 
d="M496 467v-429h89v-166h-41v128h-492v-128h-42v166h72q38 52 51 114.5t13 234.5v80h350zM188 429v-80q0 -142 -13.5 -206.5t-44.5 -104.5h324v391h-266z" />
    <glyph glyph-name="uni0435" unicode="&#x435;" horiz-adv-x="566" 
d="M45 233q0 105 69.5 174.5t173.5 69.5q101 0 167 -66.5t66 -168.5q0 -17 -2 -29h-431q6 -82 62.5 -134.5t137.5 -52.5q58 0 105.5 28t72.5 75l35 -17q-29 -56 -87 -89t-128 -33q-103 0 -172 69t-69 174zM87 248h393q-3 83 -57 138q-55 55 -136 55t-138.5 -56t-61.5 -137z
" />
    <glyph glyph-name="uni0436" unicode="&#x436;" horiz-adv-x="738" 
d="M435 233l290 -233h-59l-277 221v-221h-40v220l-276 -220h-61l292 232l-281 235h56l270 -228v228h40v-229l270 229h57z" />
    <glyph glyph-name="uni0437" unicode="&#x437;" horiz-adv-x="482" 
d="M332 247q51 -11 78.5 -42.5t27.5 -74.5q0 -61 -55 -100.5t-165 -39.5q-103 0 -184 32v39q81 -35 184 -35q83 0 129.5 28t46.5 79q0 91 -139 91h-134v34h118q62 0 97.5 23.5t35.5 65.5q0 43 -38.5 68t-114.5 25q-99 0 -178 -34l1 36q72 36 183 36q95 0 142 -36.5t47 -90.5
q0 -76 -82 -104z" />
    <glyph glyph-name="uni0438" unicode="&#x438;" horiz-adv-x="607" 
d="M86 0v467h40v-409l355 409h40v-467h-40v407l-355 -407h-40z" />
    <glyph glyph-name="uni0439" unicode="&#x439;" horiz-adv-x="607" 
d="M86 467h40v-409l355 409h40v-467h-40v407l-355 -407h-40v467zM210 655q1 -50 26 -74t68 -24t68 24t26 74h39q-1 -59 -36 -93q-36 -35 -97 -35t-96.5 34.5t-36.5 93.5h39z" />
    <glyph glyph-name="uni043A" unicode="&#x43a;" horiz-adv-x="501" 
d="M128 467v-226l295 226h56l-301 -236l312 -231h-60l-302 218v-218h-42v467h42z" />
    <glyph glyph-name="uni043B" unicode="&#x43b;" horiz-adv-x="575" 
d="M51 -10q-22 0 -39 5v39q21 -6 36 -6q43 0 64 33q27 41 27 209v48v149h351v-467h-42v428h-268v-165q0 -175 -29 -222q-31 -51 -100 -51z" />
    <glyph glyph-name="uni043C" unicode="&#x43c;" horiz-adv-x="741" 
d="M125 0h-39v467h37l247 -352l248 352h37v-467h-39v398l-235 -333h-21l-235 333v-398z" />
    <glyph glyph-name="uni043D" unicode="&#x43d;" horiz-adv-x="596" 
d="M468 256v211h43v-467h-43v217h-341v-217h-41v467h41v-211h341z" />
    <glyph glyph-name="uni043E" unicode="&#x43e;" horiz-adv-x="577" 
d="M115 408q69 70 173 70q105 0 174.5 -70t69.5 -175t-69.5 -174t-174.5 -69q-104 0 -173.5 69.5t-69.5 173.5t70 175zM87 233q0 -88 58 -146.5t144 -58.5q85 0 143 59t58 146q0 88 -57.5 147t-143.5 59t-144 -59t-58 -147z" />
    <glyph glyph-name="uni043F" unicode="&#x43f;" horiz-adv-x="593" 
d="M128 0h-42v467h421v-467h-42v428h-337v-428z" />
    <glyph glyph-name="uni0440" unicode="&#x440;" horiz-adv-x="602" 
d="M328 476q98 0 163.5 -69.5t65.5 -173.5t-65.5 -173.5t-163.5 -69.5q-66 0 -118.5 31.5t-82.5 85.5v-308h-41v668h41v-108q30 55 83 86t118 31zM323 27q82 0 137 59t55 147t-55 146.5t-138 58.5q-84 0 -140.5 -58.5t-56.5 -145.5q0 -88 57 -147.5t141 -59.5z" />
    <glyph glyph-name="uni0441" unicode="&#x441;" horiz-adv-x="546" 
d="M115 408q70 70 174 70q76 0 136 -40t86 -105l-38 -14q-22 53 -72 86.5t-112 33.5q-87 0 -144.5 -58.5t-57.5 -147.5t58 -147t143 -58q61 0 112 33.5t75 87.5l37 -17q-27 -63 -88.5 -102.5t-137.5 -39.5q-103 0 -172 69t-69 174t70 175z" />
    <glyph glyph-name="uni0442" unicode="&#x442;" horiz-adv-x="455" 
d="M16 467h422v-39h-189v-428h-42v428h-191v39z" />
    <glyph glyph-name="uni0443" unicode="&#x443;" horiz-adv-x="531" 
d="M66 467l209 -453l190 453h45l-223 -526q-9 -21 -16 -35.5t-23.5 -39t-34.5 -40t-46 -27.5t-60 -12q-40 0 -85 15v41q37 -17 82 -17q85 0 132 105l17 38l-233 498h46z" />
    <glyph glyph-name="uni0444" unicode="&#x444;" horiz-adv-x="803" 
d="M552 468q91 0 147.5 -67t56.5 -171q0 -102 -55 -171t-149 -69q-64 0 -129 34v-225h-41v226q-70 -35 -132 -35q-93 0 -148 69t-55 171q0 104 56.5 171t147.5 67q62 0 131 -35v268h41v-267q68 34 129 34zM89 230q0 -86 44 -144.5t124 -58.5q57 0 126 37v330q-70 36 -126 36
q-76 0 -122 -55.5t-46 -144.5zM547 27q76 0 121.5 55.5t45.5 144.5q0 87 -45 145t-124 58q-53 0 -123 -35v-332q65 -36 125 -36z" />
    <glyph glyph-name="uni0445" unicode="&#x445;" horiz-adv-x="491" 
d="M272 236l201 -236h-49l-178 208l-180 -208h-50l203 237l-196 230h50l173 -204l174 204h50z" />
    <glyph glyph-name="uni0446" unicode="&#x446;" horiz-adv-x="604" 
d="M496 467v-429h92v-166h-41v128h-461v467h42v-429h324v429h44z" />
    <glyph glyph-name="uni0447" unicode="&#x447;" horiz-adv-x="548" 
d="M420 227v240h42v-467h-42v190q-98 -34 -187 -34q-190 0 -190 176v135h42v-130q0 -69 34.5 -106t120.5 -37q92 0 180 33z" />
    <glyph glyph-name="uni0448" unicode="&#x448;" horiz-adv-x="926" 
d="M841 0h-755v467h42v-429h313v429h44v-429h313v429h43v-467z" />
    <glyph glyph-name="uni0449" unicode="&#x449;" horiz-adv-x="949" 
d="M841 467v-429h92v-166h-40v128h-807v467h42v-429h313v429h43v-429h314v429h43z" />
    <glyph glyph-name="uni044A" unicode="&#x44a;" horiz-adv-x="650" 
d="M226 315h229q70 0 116 -44.5t46 -111.5q0 -68 -46 -113.5t-116 -45.5h-270v428h-169v39h210v-152zM226 37h226q53 0 88.5 35t35.5 88q0 52 -35 86t-89 34h-226v-243z" />
    <glyph glyph-name="uni044B" unicode="&#x44b;" horiz-adv-x="720" 
d="M86 0v467h40v-152h230q70 0 115.5 -44t45.5 -112t-46 -113.5t-116 -45.5h-269zM126 37h226q53 0 88.5 35t35.5 88q0 52 -35 86t-88 34h-227v-243zM593 467h42v-467h-42v467z" />
    <glyph glyph-name="uni044C" unicode="&#x44c;" horiz-adv-x="550" 
d="M126 315h230q70 0 115.5 -44t45.5 -112t-46 -113.5t-116 -45.5h-269v467h40v-152zM126 37h226q53 0 88.5 35t35.5 88q0 52 -35 86t-88 34h-227v-243z" />
    <glyph glyph-name="uni044D" unicode="&#x44d;" horiz-adv-x="509" 
d="M215 478q110 0 179 -69t69 -176q0 -108 -69 -176t-182 -68q-100 0 -180 47l13 34q78 -44 165 -44q91 0 148.5 52.5t63.5 136.5h-278v37h278q-6 83 -62.5 135.5t-144.5 52.5q-91 0 -169 -44l-15 35q87 47 184 47z" />
    <glyph glyph-name="uni044E" unicode="&#x44e;" horiz-adv-x="758" 
d="M86 467h42v-214h100q7 97 75 161t167 64q104 0 173.5 -70.5t69.5 -174.5q0 -105 -69.5 -174t-173.5 -69q-99 0 -167 63.5t-75 160.5h-100v-214h-42v467zM327 87q57 -59 143 -59t143.5 59t57.5 146q0 88 -57.5 147t-143.5 59t-143.5 -59t-57.5 -147t58 -146z" />
    <glyph glyph-name="uni044F" unicode="&#x44f;" horiz-adv-x="545" 
d="M460 470v-470h-41v160h-141l-191 -160h-55l191 160h-6q-74 0 -120.5 42.5t-46.5 112.5q0 68 48 111.5t127 43.5h235zM220 197h199v236h-191q-62 0 -98.5 -33t-36.5 -85q0 -55 35 -86.5t92 -31.5z" />
    <glyph glyph-name="uni0451" unicode="&#x451;" horiz-adv-x="566" 
d="M115 408q69 69 173 69q101 0 167 -66.5t66 -168.5q0 -17 -2 -29h-431q6 -82 62.5 -134.5t137.5 -52.5q58 0 105.5 28t72.5 75l35 -17q-29 -56 -87 -89t-128 -33q-103 0 -172 69t-69 174t70 175zM87 248h393q-3 83 -57 138q-55 55 -136 55t-138.5 -56t-61.5 -137zM316 583
q0 16 12 28.5t29 12.5q18 0 30 -12.5t12 -28.5q0 -18 -12 -30t-30 -12q-17 0 -29 12t-12 30zM187 612q12 12 29 12t29 -12.5t12 -28.5q0 -18 -11.5 -30t-29.5 -12q-17 0 -29.5 12t-12.5 30q0 16 13 29z" />
    <glyph glyph-name="uni0452" unicode="&#x452;" horiz-adv-x="589" 
d="M86 597v105h42v-105h211v-29h-211v-205q29 56 78.5 84.5t107.5 28.5q85 0 142 -57.5t57 -143.5v-317q0 -78 -47 -124.5t-130 -46.5q-30 0 -89 13v39q54 -13 85 -13q65 0 102.5 38.5t37.5 102.5v298q0 73 -47 122.5t-117 49.5q-77 0 -128.5 -60t-51.5 -150v-227h-42v568
h-60v29h60z" />
    <glyph glyph-name="uni0453" unicode="&#x453;" horiz-adv-x="436" 
d="M271 529h-40l48 129h57zM128 0h-42v467h334v-39h-292v-428z" />
    <glyph glyph-name="uni0454" unicode="&#x454;" horiz-adv-x="509" 
d="M299 26q86 0 164 44l13 -34q-80 -47 -179 -47q-113 0 -182.5 68t-69.5 176q0 107 69.5 176t179.5 69q98 0 183 -47l-14 -35q-78 44 -169 44q-88 0 -144.5 -52.5t-62.5 -135.5h277v-37h-277q6 -84 63.5 -136.5t148.5 -52.5z" />
    <glyph glyph-name="uni0455" unicode="&#x455;" horiz-adv-x="487" 
d="M55 86q88 -58 196 -58q71 0 114 25t43 72q0 20 -9 34.5t-20 23t-35.5 15.5t-39 10t-47.5 8q-13 2 -19 3q-30 5 -49.5 9t-47.5 13.5t-44.5 22t-29 34t-12.5 49.5q0 61 51.5 96t140.5 35q97 0 179 -39l-12 -35q-79 37 -168 37q-72 0 -111 -25t-39 -68q0 -20 10 -35.5
t21 -23.5t36.5 -15.5t38.5 -9.5t45 -7q39 -6 62 -10.5t53.5 -14.5t46.5 -22.5t28 -34t12 -49.5q0 -67 -57 -101.5t-144 -34.5q-120 0 -211 61z" />
    <glyph glyph-name="uni0456" unicode="&#x456;" horiz-adv-x="213" 
d="M86 467h42v-467h-42v467zM79 620q11 11 27 11q17 0 28 -11t11 -26q0 -17 -11 -28t-28 -11q-16 0 -27 11t-11 28q0 15 11 26z" />
    <glyph glyph-name="uni0457" unicode="&#x457;" horiz-adv-x="213" 
d="M86 0v467h41v-467h-41zM6 611q12 12 29 12q18 0 30 -12t12 -29q0 -18 -11.5 -29.5t-30.5 -11.5q-17 0 -29 12t-12 29t12 29zM136 582q0 17 11.5 29t29.5 12t29.5 -12t11.5 -29t-11 -29q-12 -12 -30 -12t-29.5 12t-11.5 29z" />
    <glyph glyph-name="uni0458" unicode="&#x458;" horiz-adv-x="227" 
d="M-19 -174q118 0 118 125v516h42v-528q0 -73 -41.5 -112.5t-109.5 -39.5q-39 0 -73 10v38q31 -9 64 -9zM93 620q11 11 28 11q16 0 27 -11t11 -26q0 -17 -11 -28t-27 -11q-17 0 -28 11t-11 28q0 15 11 26z" />
    <glyph glyph-name="uni0459" unicode="&#x459;" horiz-adv-x="914" 
d="M490 315h230q69 0 115 -44.5t46 -111.5q0 -68 -46 -113.5t-116 -45.5h-271v428h-268v-165q0 -175 -29 -222q-31 -51 -100 -51q-22 0 -39 5v39q21 -6 36 -6q43 0 64 33q27 41 27 209v48v149h351v-152zM490 37h225q53 0 89 35t36 88q0 52 -35 86t-89 34h-226v-243z" />
    <glyph glyph-name="uni045A" unicode="&#x45a;" horiz-adv-x="933" 
d="M511 315h228q70 0 116 -44.5t46 -111.5q0 -68 -46.5 -113.5t-116.5 -45.5h-270v217h-341v-217h-41v467h41v-211h341v211h43v-152zM511 37h224q53 0 89 35t36 88q0 52 -35.5 86t-88.5 34h-225v-243z" />
    <glyph glyph-name="uni045B" unicode="&#x45b;" horiz-adv-x="589" 
d="M86 596v106h42v-106h168v-30h-168v-203q29 56 78.5 84.5t107.5 28.5q85 0 142 -57.5t57 -143.5v-275h-42v265q0 74 -46.5 123t-116.5 49q-77 0 -128.5 -60t-51.5 -150v-227h-42v566h-104v30h104z" />
    <glyph glyph-name="uni045C" unicode="&#x45c;" horiz-adv-x="501" 
d="M128 467v-226l295 226h56l-301 -236l312 -231h-60l-302 218v-218h-42v467h42zM296 658h58l-64 -129h-42z" />
    <glyph glyph-name="uni045E" unicode="&#x45e;" horiz-adv-x="531" 
d="M66 467l209 -453l190 453h45l-223 -526q-9 -21 -16 -35.5t-23.5 -39t-34.5 -40t-46 -27.5t-60 -12q-40 0 -85 15v41q37 -17 82 -17q85 0 132 105l17 38l-233 498h46zM138 655h39q1 -50 25.5 -74t67.5 -24q92 0 95 98h39q-1 -59 -37 -93q-36 -35 -97 -35t-96 34.5
t-36 93.5z" />
    <glyph glyph-name="uni045F" unicode="&#x45f;" horiz-adv-x="581" 
d="M453 467h44v-467h-186v-128h-40v128h-185v467h42v-429h325v429z" />
    <glyph glyph-name="uni0490" unicode="&#x490;" horiz-adv-x="555" 
d="M489 669v125h42v-163h-390v-631h-43v669h391z" />
    <glyph glyph-name="uni0491" unicode="&#x491;" horiz-adv-x="436" 
d="M379 467v120h41v-159h-292v-428h-42v467h293z" />
    <glyph glyph-name="Wgrave" unicode="&#x1e80;" horiz-adv-x="939" 
d="M28 669h44l186 -609l193 609h36l196 -607l184 607h44l-207 -669h-44l-191 603l-189 -603h-43zM441 856l49 -131h-42l-65 131h58z" />
    <glyph glyph-name="wgrave" unicode="&#x1e81;" horiz-adv-x="772" 
d="M66 467l158 -412l143 412h39l143 -412l157 412h46l-185 -467h-38l-142 415l-144 -415h-38l-185 467h46zM358 658l47 -129h-40l-65 129h58z" />
    <glyph glyph-name="Wacute" unicode="&#x1e82;" horiz-adv-x="939" 
d="M28 669h44l186 -609l193 609h36l196 -607l184 607h44l-207 -669h-44l-191 603l-189 -603h-43zM453 724l49 131h59l-65 -131h-43z" />
    <glyph glyph-name="wacute" unicode="&#x1e83;" horiz-adv-x="772" 
d="M66 467l158 -412l143 412h39l143 -412l157 412h46l-185 -467h-38l-142 415l-144 -415h-38l-185 467h46zM363 529l48 129h59l-65 -129h-42z" />
    <glyph glyph-name="Wdieresis" unicode="&#x1e84;" horiz-adv-x="939" 
d="M28 669h44l186 -609l193 609h36l196 -607l184 607h44l-207 -669h-44l-191 603l-189 -603h-43zM501 802q0 18 12.5 30.5t31.5 12.5t31.5 -12.5t12.5 -30.5t-12 -30q-13 -13 -32 -13t-31.5 12.5t-12.5 30.5zM363 833q13 12 32 12q18 0 30.5 -13t12.5 -30q0 -18 -12.5 -30.5
t-30.5 -12.5q-19 0 -32 12.5t-13 30.5t13 31z" />
    <glyph glyph-name="wdieresis" unicode="&#x1e85;" horiz-adv-x="772" 
d="M20 467h46l158 -412l143 412h39l143 -412l157 412h46l-185 -467h-38l-142 415l-144 -415h-38zM428 611q12 12 30 12q17 0 29 -12t12 -29t-12 -29t-29 -12q-18 0 -30 11.5t-12 29.5q0 17 12 29zM287 611q11 12 29 12t29.5 -12t11.5 -29t-11 -29q-12 -12 -30 -12t-29.5 12
t-11.5 29t12 29z" />
    <glyph glyph-name="Germandbls" unicode="&#x1e9e;" horiz-adv-x="681" 
d="M408 -12q-72 0 -138 26v44q71 -30 140 -30q94 0 149.5 40t55.5 103q0 38 -23 67t-55.5 47.5t-65 37.5t-55.5 47.5t-23 66.5q0 54 43.5 94t119.5 53q-72 57 -178 57q-110 0 -173.5 -60.5t-63.5 -168.5v-412h-43v416q0 120 73.5 192t205.5 72q144 0 230 -90l-16 -31
q-73 -10 -115 -42.5t-42 -76.5q0 -30 23 -53.5t56 -41.5t65.5 -38.5t55.5 -55t23 -80.5q0 -83 -68 -133t-181 -50z" />
    <glyph glyph-name="Ygrave" unicode="&#x1ef2;" horiz-adv-x="624" 
d="M78 669l234 -385l237 385h48l-265 -425v-244h-41v244l-261 425h48zM285 856l49 -131h-42l-65 131h58z" />
    <glyph glyph-name="ygrave" unicode="&#x1ef3;" horiz-adv-x="531" 
d="M66 467l209 -453l190 453h45l-223 -526q-9 -21 -16 -35.5t-23.5 -39t-34.5 -40t-46 -27.5t-60 -12q-40 0 -85 15v41q37 -17 82 -17q85 0 132 105l17 38l-233 498h46zM237 658l48 -129h-42l-65 129h59z" />
    <glyph glyph-name="uni2009" unicode="&#x2009;" horiz-adv-x="96" 
 />
    <glyph glyph-name="endash" unicode="&#x2013;" horiz-adv-x="589" 
d="M522 251h-455v39h455v-39z" />
    <glyph glyph-name="emdash" unicode="&#x2014;" horiz-adv-x="921" 
d="M853 251h-786v39h786v-39z" />
    <glyph glyph-name="quoteleft" unicode="&#x2018;" horiz-adv-x="202" 
d="M134 702h38l-82 -240h-48z" />
    <glyph glyph-name="quoteright" unicode="&#x2019;" horiz-adv-x="200" 
d="M82 462h-38l83 239h47z" />
    <glyph glyph-name="quotesinglbase" unicode="&#x201a;" horiz-adv-x="170" 
d="M35 -175h-38l82 240h47z" />
    <glyph glyph-name="quotedblleft" unicode="&#x201c;" horiz-adv-x="342" 
d="M134 702h38l-82 -240h-48zM274 702h38l-83 -240h-47z" />
    <glyph glyph-name="quotedblright" unicode="&#x201d;" horiz-adv-x="340" 
d="M82 462h-38l83 239h47zM222 462h-38l83 239h46z" />
    <glyph glyph-name="quotedblbase" unicode="&#x201e;" horiz-adv-x="310" 
d="M35 -175h-38l82 240h47zM175 -175h-38l82 240h47z" />
    <glyph glyph-name="dagger" unicode="&#x2020;" horiz-adv-x="484" 
d="M262 506h193v-38h-193v-380h-40v380h-192v38h192v219h40v-219z" />
    <glyph glyph-name="daggerdbl" unicode="&#x2021;" horiz-adv-x="517" 
d="M470 503v-39h-191v-193h191v-38h-191v-236h-41v236h-192v38h192v193h-192v39h192v214h41v-214h191z" />
    <glyph glyph-name="bullet" unicode="&#x2022;" horiz-adv-x="336" 
d="M168 242q-34 0 -58 24t-24 58t24 58t58 24t58 -24t24 -58t-24 -58t-58 -24z" />
    <glyph glyph-name="ellipsis" unicode="&#x2026;" horiz-adv-x="518" 
d="M99 -13q-15 0 -25.5 10t-10.5 25t10.5 25.5t25.5 10.5q14 0 24.5 -10.5t10.5 -25.5t-10.5 -25t-24.5 -10zM259 -13q-15 0 -25.5 10t-10.5 25t10.5 25.5t25.5 10.5q14 0 24.5 -10.5t10.5 -25.5t-10.5 -25t-24.5 -10zM418 -13q-15 0 -25 10t-10 25t10 25.5t25 10.5
t25 -10.5t10 -25.5t-10 -25t-25 -10z" />
    <glyph glyph-name="perthousand" unicode="&#x2030;" horiz-adv-x="1104" 
d="M194 362q-66 0 -112 46.5t-46 112.5q0 67 46 113t112 46q67 0 113 -46t46 -113q0 -66 -46 -112.5t-113 -46.5zM117 0h-43l546 669h42zM194 394q53 0 88.5 36t35.5 91q0 54 -35.5 90.5t-88.5 36.5q-52 0 -87.5 -36.5t-35.5 -90.5q0 -55 35 -91t88 -36zM556 -11
q-67 0 -113 46t-46 112q0 67 46 113t113 46q66 0 112 -46t46 -113q0 -66 -46 -112t-112 -46zM916 -11q-67 0 -113 46t-46 112q0 67 46 113t113 46q66 0 112 -46t46 -113q0 -66 -46 -112t-112 -46zM556 21q53 0 88 36t35 90q0 55 -35 91.5t-88 36.5t-88.5 -36.5t-35.5 -91.5
q0 -54 35.5 -90t88.5 -36zM916 21q53 0 88 36t35 90q0 55 -35 91.5t-88 36.5t-88.5 -36.5t-35.5 -91.5q0 -54 35.5 -90t88.5 -36z" />
    <glyph glyph-name="guilsinglleft" unicode="&#x2039;" horiz-adv-x="295" 
d="M247 27h-50l-152 223l161 223h50l-162 -223z" />
    <glyph glyph-name="guilsinglright" unicode="&#x203a;" horiz-adv-x="295" 
d="M250 250l-151 -223h-51l154 223l-162 223h50z" />
    <glyph glyph-name="fraction" unicode="&#x2044;" horiz-adv-x="119" 
d="M-170 0h-38l500 669h38z" />
    <glyph glyph-name="uni2070" unicode="&#x2070;" horiz-adv-x="403" 
d="M202 438q-72 0 -119.5 52.5t-47.5 132.5t47.5 132.5t119.5 52.5q71 0 118.5 -52.5t47.5 -132.5t-47.5 -132.5t-118.5 -52.5zM202 468q56 0 94.5 44.5t38.5 110.5t-38.5 110t-94.5 44q-58 0 -96.5 -44t-38.5 -110q0 -67 38.5 -111t96.5 -44z" />
    <glyph glyph-name="uni2074" unicode="&#x2074;" horiz-adv-x="345" 
d="M268 565h54v-27h-54v-95h-33v95h-214v25l203 241h44v-239zM235 773l-172 -208h172v208z" />
    <glyph glyph-name="uni2075" unicode="&#x2075;" horiz-adv-x="327" 
d="M170 680q55 0 91.5 -34t36.5 -86q0 -53 -38.5 -87.5t-96.5 -34.5q-52 0 -90 28.5t-46 75.5l32 7q6 -37 35.5 -59t68.5 -22q42 0 71 26.5t29 67.5q0 40 -27 66t-69 26q-52 0 -96 -46l-27 15l24 181h207v-29h-180l-18 -128q41 33 93 33z" />
    <glyph glyph-name="uni2076" unicode="&#x2076;" horiz-adv-x="322" 
d="M167 683q55 0 92.5 -35t37.5 -87q0 -53 -39 -88t-96 -35t-96 36t-39 88q0 55 45 111l103 131h39l-109 -137q26 16 62 16zM161 466q43 0 73 27t30 68t-29.5 68t-74.5 27q-42 0 -71 -26.5t-29 -66.5q0 -41 29 -69t72 -28z" />
    <glyph glyph-name="uni2077" unicode="&#x2077;" horiz-adv-x="281" 
d="M23 774v30h238v-30l-179 -331h-40l182 331h-201z" />
    <glyph glyph-name="uni2078" unicode="&#x2078;" horiz-adv-x="346" 
d="M229 633q38 -9 60.5 -33.5t22.5 -58.5q0 -45 -39 -74t-100 -29t-100 28.5t-39 73.5q0 33 22 58t61 35q-31 9 -50 30.5t-19 49.5q0 42 35.5 69.5t89.5 27.5t89.5 -27t35.5 -70q0 -28 -19 -49.5t-50 -30.5zM80 712q0 -31 26 -50.5t66 -19.5q41 0 68 20.5t27 50.5
q0 31 -26.5 51t-67.5 20q-40 0 -66.5 -20.5t-26.5 -51.5zM173 464q45 0 75 22.5t30 56.5q0 32 -29.5 54t-74.5 22t-75.5 -22t-30.5 -55t30 -55.5t75 -22.5z" />
    <glyph glyph-name="uni2079" unicode="&#x2079;" horiz-adv-x="320" 
d="M159 810q58 0 96.5 -36t38.5 -89q0 -24 -10 -49.5t-17.5 -36t-22.5 -30.5l-97 -126h-40l106 136q-28 -14 -59 -14q-54 0 -91.5 35t-37.5 86q0 53 38.5 88.5t95.5 35.5zM59 686q0 -40 29 -67.5t72 -27.5t71.5 27t28.5 67t-29 68t-71 28q-43 0 -72 -27.5t-29 -67.5z" />
    <glyph glyph-name="uni2080" unicode="&#x2080;" horiz-adv-x="403" 
d="M202 -161q-72 0 -119.5 53t-47.5 133t47.5 132.5t119.5 52.5q71 0 118.5 -53t47.5 -132q0 -80 -47.5 -133t-118.5 -53zM202 -130q56 0 94.5 44.5t38.5 110.5t-38.5 110t-94.5 44q-58 0 -96.5 -44t-38.5 -110q0 -67 38.5 -111t96.5 -44z" />
    <glyph glyph-name="uni2081" unicode="&#x2081;" horiz-adv-x="319" 
d="M188 206v-331h114v-30h-269v30h120v292l-116 -52v33l124 58h27z" />
    <glyph glyph-name="uni2082" unicode="&#x2082;" horiz-adv-x="336" 
d="M186 -42l-101 -83h221v-30h-271v26l132 113q4 3 27.5 22t33 28.5t20.5 28.5t11 38q0 34 -25.5 56.5t-66.5 22.5q-43 0 -71 -26.5t-31 -70.5l-34 4q4 57 42.5 90.5t93.5 33.5q57 0 92.5 -30.5t35.5 -77.5q0 -20 -6 -37.5t-22.5 -35.5t-24 -25.5t-32.5 -26.5z" />
    <glyph glyph-name="uni2083" unicode="&#x2083;" horiz-adv-x="338" 
d="M180 74q55 0 91.5 -32.5t36.5 -81.5q0 -52 -41 -86.5t-101 -34.5q-54 0 -94 29t-48 76l32 8q6 -36 37 -60t74 -24q44 0 75 27t31 66q0 38 -28.5 64t-74.5 26q-37 0 -76 -23l-15 20l165 128h-195v30h238v-30l-136 -105q14 3 29 3z" />
    <glyph glyph-name="uni2084" unicode="&#x2084;" horiz-adv-x="345" 
d="M268 -34h54v-27h-54v-94h-33v94h-214v26l203 240h44v-239zM235 175l-173 -209h173v209z" />
    <glyph glyph-name="uni2085" unicode="&#x2085;" horiz-adv-x="327" 
d="M170 81q55 0 91.5 -33.5t36.5 -85.5q0 -53 -38.5 -88t-96.5 -35q-52 0 -90 28.5t-46 75.5l32 8q6 -37 36 -59.5t68 -22.5q42 0 71 26.5t29 67.5q0 40 -27 66t-69 26q-53 0 -96 -46l-27 15l24 182h207v-30h-180l-18 -128q40 33 93 33z" />
    <glyph glyph-name="uni2086" unicode="&#x2086;" horiz-adv-x="322" 
d="M167 84q55 0 92.5 -34.5t37.5 -86.5q0 -54 -39 -89t-96 -35t-96 36t-39 88q0 56 45 112l103 131h39l-109 -137q27 15 62 15zM161 -132q43 0 73 27t30 68q0 40 -29.5 67.5t-74.5 27.5q-42 0 -71 -27t-29 -67q0 -41 29 -68.5t72 -27.5z" />
    <glyph glyph-name="uni2087" unicode="&#x2087;" horiz-adv-x="281" 
d="M23 176v30h238v-30l-179 -331h-40l182 331h-201z" />
    <glyph glyph-name="uni2088" unicode="&#x2088;" horiz-adv-x="346" 
d="M230 34q37 -9 59.5 -33.5t22.5 -57.5q0 -45 -39 -74.5t-100 -29.5t-100 29t-39 74q0 33 22 58t60 34q-31 10 -49.5 31.5t-18.5 49.5q0 42 35.5 69t89.5 27t89.5 -27t35.5 -69q0 -28 -18.5 -49.5t-49.5 -31.5zM80 114q0 -31 26 -50.5t66 -19.5q41 0 68 20t27 51
q0 30 -27 50.5t-67 20.5t-66.5 -20.5t-26.5 -51.5zM173 -135q45 0 75 23t30 57q0 32 -29.5 53.5t-74.5 21.5t-75.5 -21.5t-30.5 -54.5t30 -56t75 -23z" />
    <glyph glyph-name="uni2089" unicode="&#x2089;" horiz-adv-x="320" 
d="M159 212q58 0 96.5 -36.5t38.5 -89.5q0 -52 -50 -116l-97 -125h-40l105 134q-26 -13 -58 -13q-54 0 -91.5 35t-37.5 87q0 53 38.5 88.5t95.5 35.5zM59 88q0 -40 29 -67.5t72 -27.5t71.5 26.5t28.5 66.5q0 41 -29 69t-71 28q-43 0 -72 -27.5t-29 -67.5z" />
    <glyph glyph-name="Euro" unicode="&#x20ac;" horiz-adv-x="650" 
d="M414 26q48 0 102 13.5t90 36.5v-38q-35 -22 -90 -35.5t-106 -13.5q-125 0 -207.5 75t-101.5 202h-68v33h64q-1 11 -1 35t1 35h-64v32h68q18 127 101 203t208 76q119 0 191 -50v-39q-35 26 -87.5 39t-98.5 13q-109 0 -182.5 -66t-92.5 -176h362v-32h-366q-1 -11 -1 -35
t1 -35h366v-33h-362q19 -110 92 -175t182 -65z" />
    <glyph glyph-name="uni20B4" unicode="&#x20b4;" horiz-adv-x="682" 
d="M429 347l-157 -43q-60 -17 -88 -39h452v-32h-479q-14 -26 -14 -63q0 -67 54.5 -105.5t151.5 -38.5q108 0 230 47v-37q-116 -47 -232 -47q-128 0 -187 51t-59 129q0 33 12 64h-70v32h90q40 45 137 71l155 43q44 13 61 22h-443v31h481q21 27 21 70q0 65 -54 103t-143 38
q-101 0 -202 -38l-1 37q105 38 203 38q109 0 174 -47.5t65 -130.5q0 -38 -17 -70h66v-31h-92q-34 -31 -115 -54z" />
    <glyph glyph-name="uni20BD" unicode="&#x20bd;" horiz-adv-x="640" 
d="M392 262h-208v-79h244v-32h-244v-151h-42v151h-103v32h103v79h-103v33h103v374h251q93 0 154 -57.5t61 -145.5q0 -89 -61 -146.5t-155 -57.5zM389 632h-205v-337h203q77 0 128 48t51 121t-50 120.5t-127 47.5z" />
    <glyph glyph-name="uni20BF" unicode="&#x20bf;" horiz-adv-x="682" 
d="M98 0v669h151v116h38v-116h91v116h37v-116h10q78 0 127 -49t49 -122q0 -47 -26 -86t-71 -57q58 -13 93.5 -60t35.5 -110q0 -79 -57 -132t-147 -53h-12v-114h-39v114h-90v-114h-39v114h-151zM141 329v-291h282q74 0 120.5 42t46.5 107q0 60 -40 101t-99 41h-310zM141 632
v-266h277q59 0 99.5 37t40.5 92q0 59 -38 98t-98 39h-281z" />
    <glyph glyph-name="uni2116" unicode="&#x2116;" horiz-adv-x="1088" 
d="M724 514q0 69 46 115.5t115 46.5q68 0 114 -46.5t46 -116.5q0 -68 -46 -114.5t-114 -46.5q-69 0 -115 46.5t-46 115.5zM98 669h42l458 -600v600h41v-669h-38l-461 601v-601h-42v669zM759 514q0 -55 36.5 -92t89.5 -37t88.5 37t35.5 92t-35 92q-36 37 -89 37t-89.5 -37
t-36.5 -92zM740 254v32h293v-32h-293z" />
    <glyph glyph-name="trademark" unicode="&#x2122;" horiz-adv-x="719" 
d="M134 639h-102v30h237v-30h-103v-269h-32v269zM475 460l132 209h31v-299h-30v242l-125 -197h-16l-126 198v-243h-30v299h31z" />
    <glyph glyph-name="estimated" unicode="&#x212e;" horiz-adv-x="877" 
d="M446 -14q-170 0 -283.5 99.5t-113.5 247.5t115 248t282 100q165 0 281.5 -98.5t116.5 -254.5v-23h-627v-208q36 -29 101.5 -49t127.5 -20q86 0 166 30t132 84l29 -28q-61 -61 -148.5 -94.5t-178.5 -33.5zM217 570v-220h460v220q-90 70 -231 70q-134 0 -229 -70z" />
    <glyph glyph-name="arrowleft" unicode="&#x2190;" horiz-adv-x="584" 
d="M116 352h431v-38h-431l172 -173q7 -7 7 -15q0 -7 -6 -13.5t-14 -6.5q-9 0 -15 6l-220 221l221 222q6 6 14 6h1q8 0 13.5 -6.5t5.5 -13.5v-2q0 -7 -6 -13z" />
    <glyph glyph-name="arrowup" unicode="&#x2191;" horiz-adv-x="510" 
d="M255 528l221 -221q7 -6 7 -13q0 -9 -7 -15t-14 -6q-8 0 -14 7l-174 172v-432h-38v430l-173 -171q-5 -7 -15 -7q-8 0 -14.5 6t-5.5 15q0 7 6 14z" />
    <glyph glyph-name="arrowright" unicode="&#x2192;" horiz-adv-x="584" 
d="M324 555l221 -222l-220 -221q-7 -6 -15 -6t-14 6.5t-6 13.5q0 8 7 15l172 173h-431v38h431l-173 174q-7 5 -7 13q0 7 6 14.5t14 7.5q6 0 15 -6z" />
    <glyph glyph-name="arrowdown" unicode="&#x2193;" horiz-adv-x="510" 
d="M462 205q7 0 14 -6t7 -15q0 -8 -7 -14l-221 -221l-221 221q-6 8 -6 15v2q0 7 6.5 12.5t13.5 5.5h2q7 0 13 -6l173 -173v430h38v-432l174 174q7 7 14 7z" />
    <glyph glyph-name="arrowboth" unicode="&#x2194;" horiz-adv-x="902" 
d="M642 555l221 -222l-221 -221q-6 -6 -14 -6q-9 0 -14.5 6.5t-5.5 13.5q0 8 6 15l173 173h-671l172 -173q7 -7 7 -15q0 -7 -6 -13.5t-14 -6.5q-9 0 -15 6l-220 221l221 222q6 6 14 6h1q8 0 13.5 -6.5t5.5 -13.5v-2q0 -7 -6 -13l-173 -174h671l-173 174q-6 6 -6 13q0 8 5 15
t13 7t16 -6z" />
    <glyph glyph-name="arrowupdn" unicode="&#x2195;" horiz-adv-x="529" 
d="M473 47q7 0 13.5 -6t6.5 -15q0 -7 -7 -15l-221 -220l-221 221q-5 5 -7 14v1q0 9 6.5 14.5t14.5 5.5h2q5 0 13 -6l173 -174v678l-174 -173q-6 -8 -15 -6q-8 0 -14.5 6t-5.5 14q0 9 6 15l222 220l220 -220q7 -6 7 -14q0 -9 -6.5 -15t-13.5 -6t-16 7l-173 173v-680l174 174
q9 7 16 7z" />
    <glyph glyph-name="uni2196" unicode="&#x2196;" horiz-adv-x="573" 
d="M134 469l414 -414l-26 -27l-414 414v-245q0 -8 -7 -15q-6 -6 -15 -6q-8 0 -13 6q-5 7 -5 15v312h312q9 0 15 -6t6 -14t-6 -14t-15 -6h-246z" />
    <glyph glyph-name="uni2197" unicode="&#x2197;" horiz-adv-x="575" 
d="M193 478h311v-313q0 -10 -5 -15t-13 -5q-10 0 -15 5q-7 6 -7 15v246l-414 -414l-26 27l415 414h-246q-9 0 -15 6t-6 15q0 7 6 12q7 7 15 7z" />
    <glyph glyph-name="uni2198" unicode="&#x2198;" 
d="M498 328q6 -7 6 -16v-312h-312q-7 0 -15 6q-6 4 -6 12q0 9 6 15q7 7 15 7h246l-415 414l27 27l414 -415v246q0 8 6 16q5 5 15 5q8 0 13 -5z" />
    <glyph glyph-name="uni2199" unicode="&#x2199;" 
d="M396 33q6 -5 6 -14t-6 -13q-6 -6 -15 -6h-311v312q0 8 5 16q5 5 14 5q10 0 15 -5q6 -8 6 -16v-246l414 415l27 -27l-415 -414h245q9 0 15 -7z" />
    <glyph glyph-name="partialdiff" unicode="&#x2202;" horiz-adv-x="606" 
d="M149 637l17 40q389 -13 389 -338q0 -155 -83 -252.5t-214 -97.5q-102 0 -164.5 58t-62.5 149q0 98 69.5 161t177.5 63q66 0 128.5 -24.5t105.5 -64.5v6q0 87 -28 147t-80.5 92t-113 45.5t-141.5 15.5zM258 27q108 0 175 77.5t77 181.5q-94 96 -223 96q-95 0 -154 -51.5
t-59 -132.5q0 -75 51 -123t133 -48z" />
    <glyph glyph-name="product" unicode="&#x220f;" horiz-adv-x="734" 
d="M181 -167h-42v797h-109v39h673v-39h-108v-797h-42v797h-372v-797z" />
    <glyph glyph-name="summation" unicode="&#x2211;" horiz-adv-x="571" 
d="M539 -167h-505v36l246 381l-246 383v36h505v-39h-456l244 -380l-244 -379h456v-38z" />
    <glyph glyph-name="minus" unicode="&#x2212;" horiz-adv-x="530" 
d="M460 304h-390v38h390v-38z" />
    <glyph glyph-name="radical" unicode="&#x221a;" horiz-adv-x="670" 
d="M513 669h172v-39h-144l-299 -797h-33l-202 562h42l175 -501z" />
    <glyph glyph-name="infinity" unicode="&#x221e;" horiz-adv-x="800" 
d="M598 455q63 0 106.5 -45.5t43.5 -108.5q0 -62 -43.5 -107t-106.5 -45q-18 0 -34 3t-33.5 12.5t-27.5 15t-28.5 22.5t-24 22t-27 27t-23.5 24q-5 -5 -21 -21.5t-22.5 -23t-21.5 -20.5t-24 -20l-24 -16t-27 -14t-27 -7.5t-31 -3.5q-63 0 -106.5 45t-43.5 107q0 63 44 108.5
t107 45.5q17 0 33.5 -3t33.5 -12.5t27 -15t28.5 -22.5t24.5 -22t26.5 -26.5t23.5 -24.5q6 6 24 24.5t26 26t25 22.5t28.5 22t27.5 15.5t32.5 12t34.5 3.5zM202 187q10 0 20 2t18 4t18.5 8t16.5 9.5t17 12.5t16 13t17 15.5t15.5 15.5t16.5 17.5t16 16.5q-4 5 -18 19.5
t-19 19.5l-17.5 17.5t-18.5 17.5t-17.5 14t-19.5 12.5t-18.5 8.5t-20.5 6.5t-21 1.5q-48 0 -80.5 -35t-32.5 -82q0 -46 32 -80t80 -34zM598 187q48 0 80 34t32 80q0 48 -32 82.5t-80 34.5q-16 0 -33 -5.5t-28 -10.5t-29.5 -21t-25 -22t-29 -29.5t-27.5 -28.5q4 -4 23 -23.5
t25 -24.5t22 -20t25 -20t23 -13t27 -10.5t27 -2.5z" />
    <glyph glyph-name="integral" unicode="&#x222b;" horiz-adv-x="497" 
d="M76 -173q-40 0 -89 23v39q48 -23 89 -23q100 0 119 142l72 527q12 89 54 132t104 43q40 0 85 -15v-39q-42 16 -82 16q-103 0 -122 -142l-71 -527q-24 -176 -159 -176z" />
    <glyph glyph-name="approxequal" unicode="&#x2248;" horiz-adv-x="542" 
d="M361 351q-40 0 -95 36.5t-84 36.5q-51 0 -69 -66h-40q10 52 42 77t71 25q38 0 90.5 -36.5t84.5 -36.5q49 0 75 65h40q-34 -101 -115 -101zM363 208q-33 0 -64.5 18t-60.5 36.5t-54 18.5q-52 0 -70 -66h-39q10 51 42 76.5t70 25.5t90.5 -37t84.5 -37q49 0 76 66h38
q-31 -101 -113 -101z" />
    <glyph glyph-name="notequal" unicode="&#x2260;" horiz-adv-x="502" 
d="M460 446v-38h-137l-97 -168h234v-37h-255l-70 -121h-37l70 121h-126v37h147l97 168h-244v38h266l68 119h37l-68 -119h115z" />
    <glyph glyph-name="lessequal" unicode="&#x2264;" horiz-adv-x="512" 
d="M432 224v-42l-364 177v37l364 176v-43l-323 -151zM432 111v-38h-364v38h364z" />
    <glyph glyph-name="greaterequal" unicode="&#x2265;" horiz-adv-x="512" 
d="M444 359l-364 -177v42l322 154l-322 151v43l364 -176v-37zM444 73h-364v38h364v-38z" />
    <glyph glyph-name="lozenge" unicode="&#x25ca;" horiz-adv-x="606" 
d="M318 0h-29l-259 335l259 334h29l260 -335zM78 335l225 -294l226 293l-226 294z" />
    <glyph glyph-name="uni2619" unicode="&#x2619;" horiz-adv-x="852" 
d="M629 384q89 -1 138 -47t49 -105q0 -47 -27 -72.5t-64 -25.5q-19 0 -33.5 9t-14.5 24q0 24 32 24q-1 -14 6.5 -19.5t15.5 -5.5q21 0 37 12.5t22 33.5q-92 23 -171 153q-44 -2 -109 -25t-134 -64h9q28 0 47.5 -20t19.5 -47q0 -33 -36 -57t-111 -24q-107 0 -190 51t-83 113
q0 18 10 30t24 12q23 0 38 -32q-27 -11 -27 -38q0 -17 12 -30t31 -13q31 0 48 37q6 13 18 50t21 58t31.5 40t54.5 19q30 0 51.5 -21t21.5 -52q0 -50 -56 -93q1 -3 5 -7l12 7q161 114 281 124q-8 13 -25.5 43t-28.5 47.5t-29.5 42.5t-34 38.5t-36.5 24t-43 10.5
q-35 0 -35 -19q0 -4 8.5 -13.5t8.5 -18.5q0 -10 -7.5 -16t-17.5 -6q-14 0 -22 11t-8 26q0 21 17 39t52 18q20 0 39.5 -7t35 -16t32.5 -26.5t27.5 -30.5t25.5 -37t22 -36.5t21.5 -38.5t18.5 -34zM641 365q78 -119 152 -137v4q0 49 -40.5 88.5t-111.5 44.5z" />
    <glyph glyph-name="uni2764" unicode="&#x2764;" horiz-adv-x="472" 
d="M236 142q-20 35 -56.5 70t-65.5 57t-51 52.5t-22 61.5q0 43 24.5 68.5t65.5 25.5t68 -34t31 -96h12q5 62 32 96t68 34t65 -25t24 -68q0 -32 -22 -62.5t-50.5 -52.5t-65 -57t-57.5 -70z" />
    <glyph glyph-name="uni2766" unicode="&#x2766;" horiz-adv-x="592" 
d="M447 425q-51 0 -105 23q-4 -35 -31 -115q28 34 69 34q31 0 52 -21.5t21 -50.5q0 -26 -20.5 -50.5t-45.5 -40.5t-45.5 -37t-20.5 -40q0 -12 9 -20.5t21 -8.5q18 0 30.5 11.5t12.5 30.5q0 8 -1 12q14 9 29 9q12 0 18.5 -6.5t6.5 -16.5q0 -21 -25 -41t-66 -20q-78 0 -154 71
t-76 140q0 34 21 55.5t53 21.5q33 0 53.5 -26t19.5 -78l8 -1l3 17q6 31 22 88.5t19 90.5q-122 63 -186 63q-34 0 -56 -15.5t-22 -41.5q0 -34 50 -34q-5 -30 -26 -30q-20 0 -36 16t-16 41q0 38 30 62t84 24h8q-13 16 -13 36q0 26 20.5 43t53.5 17q59 0 93.5 -45t34.5 -112
v-10q57 -26 100 -26q35 0 57.5 11.5t22.5 30.5q0 6 -11 12t-11 18q0 11 7.5 18.5t19.5 7.5q14 0 23 -10.5t9 -26.5q0 -33 -32.5 -56.5t-81.5 -23.5zM198 533q60 -17 127 -53q1 0 1 -1q-2 56 -31 99t-78 43q-22 0 -36.5 -11.5t-14.5 -30.5q0 -31 32 -46z" />
    <glyph glyph-name="uni2767" unicode="&#x2767;" horiz-adv-x="853" 
d="M788 334q14 0 23.5 -12t9.5 -30q0 -62 -83 -113t-189 -51q-76 0 -112 24t-36 57q0 27 19.5 47t48.5 20h9q-147 86 -244 89q-79 -130 -170 -153q6 -20 22 -33t36 -13q24 0 22 25q33 0 33 -24q0 -15 -14.5 -24t-33.5 -9q-37 0 -64.5 25.5t-27.5 72.5q0 59 49 105t138 47
q4 8 18.5 34t21.5 38.5t22 36.5t25.5 37t27.5 30.5t32.5 26.5t35 16t39.5 7q35 0 52.5 -18t17.5 -39q0 -15 -8.5 -26t-22.5 -11q-10 0 -17.5 6t-7.5 16q0 9 8.5 18.5t8.5 13.5q0 19 -35 19q-25 0 -48 -11.5t-46.5 -39.5t-35.5 -45t-37 -59t-30 -51q122 -10 284 -126
q3 -1 9 -5q4 4 5 7q-56 43 -56 93q0 30 22 51.5t52 21.5q26 0 44.5 -11t30.5 -31t19.5 -39t15.5 -45.5t14 -40.5q17 -37 48 -37q19 0 31 13t12 30q0 26 -26 38q13 32 38 32zM61 228q76 20 151 137q-71 -5 -111 -44.5t-40 -88.5v-4z" />
    <glyph glyph-name="NULL.1" horiz-adv-x="0" 
 />
    <glyph glyph-name="J_acutecomb" horiz-adv-x="479" 
d="M24 47q63 -19 120 -19q98 0 150.5 52.5t52.5 135.5v453h42v-460q0 -100 -63.5 -160t-178.5 -60q-67 0 -122 19zM401 855h58l-65 -131h-42z" />
    <glyph glyph-name="Iacute_J.loclNLD" horiz-adv-x="702" 
d="M248 47q61 -19 120 -19q98 0 150 52.5t52 135.5v453h42v-460q0 -100 -63 -160t-178 -60q-68 0 -123 19v39zM98 669h43v-669h-43v669zM616 855h59l-65 -131h-43zM153 855h58l-65 -131h-42z" />
    <glyph glyph-name="G.ss01" horiz-adv-x="750" 
d="M142 582q92 98 240 98q185 0 282 -126l-32 -27q-87 114 -249 114q-129 0 -209.5 -87t-80.5 -221t83 -220t217 -86q57 0 109 14t81.5 29.5t71.5 41.5v193h-294v37h335v-251q-78 -51 -143.5 -76.5t-158.5 -25.5q-156 0 -250 97t-94 246q0 152 92 250z" />
    <glyph glyph-name="Gbreve.ss01" horiz-adv-x="750" 
d="M50 332q0 152 92 250t240 98q185 0 282 -126l-32 -27q-87 114 -249 114q-129 0 -209.5 -87t-80.5 -221t83 -220t217 -86q57 0 109 14t81.5 29.5t71.5 41.5v193h-294v37h335v-251q-78 -51 -143.5 -76.5t-158.5 -25.5q-156 0 -250 97t-94 246zM254 855h38q1 -42 27.5 -69
t69.5 -27q42 0 68.5 27t27.5 69h38q0 -58 -37.5 -93.5t-96.5 -35.5q-60 0 -97.5 35.5t-37.5 93.5z" />
    <glyph glyph-name="Gcircumflex.ss01" horiz-adv-x="750" 
d="M142 582q92 98 240 98q185 0 282 -126l-32 -27q-87 114 -249 114q-129 0 -209.5 -87t-80.5 -221t83 -220t217 -86q57 0 109 14t81.5 29.5t71.5 41.5v193h-294v37h335v-251q-78 -51 -143.5 -76.5t-158.5 -25.5q-156 0 -250 97t-94 246q0 152 92 250zM373 858h30l125 -128
h-50l-90 92l-91 -92h-49z" />
    <glyph glyph-name="uni0122.ss01" horiz-adv-x="750" 
d="M142 582q92 98 240 98q185 0 282 -126l-32 -27q-87 114 -249 114q-129 0 -209.5 -87t-80.5 -221t83 -220t217 -86q57 0 109 14t81.5 29.5t71.5 41.5v193h-294v37h335v-251q-78 -51 -143.5 -76.5t-158.5 -25.5q-156 0 -250 97t-94 246q0 152 92 250zM342 -209l40 159h45
l-47 -159h-38z" />
    <glyph glyph-name="Gdotaccent.ss01" horiz-adv-x="750" 
d="M50 332q0 152 92 250t240 98q185 0 282 -126l-32 -27q-87 114 -249 114q-129 0 -209.5 -87t-80.5 -221t83 -220t217 -86q57 0 109 14t81.5 29.5t71.5 41.5v193h-294v37h335v-251q-78 -51 -143.5 -76.5t-158.5 -25.5q-156 0 -250 97t-94 246zM350 801q0 16 11 27t27 11
t27.5 -11t11.5 -27q0 -17 -11 -28q-12 -11 -28 -11t-27 11t-11 28z" />
    <glyph glyph-name="E.ss07" horiz-adv-x="588" 
d="M527 358v-38h-466v38h466zM61 0v38h466v-38h-466zM61 669h466v-38h-466v38z" />
    <glyph glyph-name="Eacute.ss07" horiz-adv-x="588" 
d="M61 358h466v-38h-466v38zM61 669h466v-38h-466v38zM61 38h466v-38h-466v38zM331 855h59l-66 -131h-42z" />
    <glyph glyph-name="Ebreve.ss07" horiz-adv-x="588" 
d="M61 631v38h466v-38h-466zM61 38h466v-38h-466v38zM527 358v-38h-466v38h466zM202 856q2 -43 28.5 -70t68.5 -27q43 0 69.5 27t27.5 70h38q0 -58 -37.5 -93.5t-97.5 -35.5q-59 0 -96.5 35.5t-37.5 93.5h37z" />
    <glyph glyph-name="Ecaron.ss07" horiz-adv-x="588" 
d="M61 631v38h466v-38h-466zM61 38h466v-38h-466v38zM61 358h466v-38h-466v38zM161 857h49l91 -92l90 92h50l-126 -128h-29z" />
    <glyph glyph-name="Ecircumflex.ss07" horiz-adv-x="588" 
d="M527 38v-38h-466v38h466zM61 669h466v-38h-466v38zM61 320v38h466v-38h-466zM283 859h30l125 -128h-50l-89 92l-92 -92h-49z" />
    <glyph glyph-name="Edieresis.ss07" horiz-adv-x="588" 
d="M61 38h466v-38h-466v38zM61 358h466v-38h-466v38zM61 669h466v-38h-466v38zM329 802q0 18 13 30.5t32 12.5q18 0 31 -12.5t13 -30.5t-12 -30q-13 -13 -32 -13t-32 12.5t-13 30.5zM180 802q0 17 12.5 30t30.5 13q19 0 32 -12.5t13 -30.5t-13 -30.5t-32 -12.5
q-18 0 -30.5 12.5t-12.5 30.5z" />
    <glyph glyph-name="Edotaccent.ss07" horiz-adv-x="588" 
d="M61 669h466v-38h-466v38zM61 38h466v-38h-466v38zM61 358h466v-38h-466v38zM260 801q0 16 11 27t28 11q16 0 27.5 -11t11.5 -27t-11.5 -27t-27.5 -11q-17 0 -28 11t-11 27z" />
    <glyph glyph-name="Egrave.ss07" horiz-adv-x="588" 
d="M61 358h466v-38h-466v38zM61 669h466v-38h-466v38zM61 38h466v-38h-466v38zM211 856h59l49 -131h-42z" />
    <glyph glyph-name="Emacron.ss07" horiz-adv-x="588" 
d="M61 358h466v-38h-466v38zM61 669h466v-38h-466v38zM61 38h466v-38h-466v38zM152 817h292v-35h-292v35z" />
    <glyph glyph-name="Eogonek.ss07" horiz-adv-x="588" 
d="M61 38h466v-38q-58 -22 -89.5 -61t-31.5 -74q0 -22 12.5 -37t35.5 -15t65 21l4 -33q-37 -21 -70 -21q-40 0 -62.5 22t-22.5 58q0 32 25 70.5t74 69.5h-406v38zM61 669h466v-38h-466v38zM527 358v-38h-466v38h466z" />
    <glyph glyph-name="Q.ss08" horiz-adv-x="767" 
d="M145 581q95 99 239 99q143 0 238 -99.5t95 -247.5q0 -134 -80 -229t-205 -112l224 -159l-27 -34l-259 190q-139 5 -230 103t-91 241q0 148 96 248zM176 117q85 -89 208 -89q122 0 206.5 88.5t84.5 216.5q0 130 -84.5 219t-206.5 89q-123 0 -208 -89t-85 -219
q0 -128 85 -216z" />
    <glyph glyph-name="Y.ss12" horiz-adv-x="580" 
d="M2 669h46l242 -437l238 437h44l-359 -669h-47l104 188z" />
    <glyph glyph-name="Yacute.ss12" horiz-adv-x="580" 
d="M48 669l242 -437l238 437h44l-359 -669h-47l104 188l-268 481h46zM274 724l49 131h58l-65 -131h-42z" />
    <glyph glyph-name="Ycircumflex.ss12" horiz-adv-x="580" 
d="M2 669h46l242 -437l238 437h44l-359 -669h-47l104 188zM275 859h30l125 -128h-50l-89 92l-92 -92h-49z" />
    <glyph glyph-name="Ydieresis.ss12" horiz-adv-x="580" 
d="M2 669h46l242 -437l238 437h44l-359 -669h-47l104 188zM334 833q12 12 31 12t32 -12.5t13 -30.5t-13 -30q-13 -13 -32 -13t-31.5 12.5t-12.5 30.5t13 31zM185 832q12 13 30 13q19 0 31.5 -12.5t12.5 -30.5t-12.5 -30.5t-31.5 -12.5q-18 0 -30.5 12.5t-12.5 30.5
q0 17 13 30z" />
    <glyph glyph-name="Ygrave.ss12" horiz-adv-x="580" 
d="M48 669l242 -437l238 437h44l-359 -669h-47l104 188l-268 481h46zM262 856l49 -131h-42l-66 131h59z" />
    <glyph glyph-name="Y.ss13" horiz-adv-x="601" 
d="M60 669l261 -520l224 520h44l-228 -526q-67 -153 -197 -153q-46 0 -99 17v40q48 -20 98 -20q85 0 135 82l-283 560h45z" />
    <glyph glyph-name="Yacute.ss13" horiz-adv-x="601" 
d="M60 669l261 -520l224 520h44l-228 -526q-67 -153 -197 -153q-46 0 -99 17v40q48 -20 98 -20q85 0 135 82l-283 560h45zM346 852h59l-65 -131h-43z" />
    <glyph glyph-name="Ycircumflex.ss13" horiz-adv-x="601" 
d="M60 669l261 -520l224 520h44l-228 -526q-67 -153 -197 -153q-46 0 -99 17v40q48 -20 98 -20q85 0 135 82l-283 560h45zM174 727l125 128h29l126 -128h-50l-90 92l-91 -92h-49z" />
    <glyph glyph-name="Ydieresis.ss13" horiz-adv-x="601" 
d="M15 669h45l261 -520l224 520h44l-228 -526q-67 -153 -197 -153q-46 0 -99 17v40q48 -20 98 -20q85 0 135 82zM195 799q0 17 13 29.5t31 12.5q19 0 32 -12.5t13 -29.5q0 -19 -13 -31q-13 -13 -32 -13t-31.5 12.5t-12.5 31.5zM358 829q13 12 32 12q18 0 30.5 -12.5
t12.5 -29.5q0 -19 -12.5 -31.5t-30.5 -12.5q-19 0 -32 12.5t-13 31.5q0 17 13 30z" />
    <glyph glyph-name="Ygrave.ss13" horiz-adv-x="601" 
d="M60 669l261 -520l224 520h44l-228 -526q-67 -153 -197 -153q-46 0 -99 17v40q48 -20 98 -20q85 0 135 82l-283 560h45zM286 852l49 -131h-42l-66 131h59z" />
    <glyph glyph-name="A.ss14" horiz-adv-x="649" 
d="M302 669h45l281 -669h-48l-255 624l-257 -624h-47z" />
    <glyph glyph-name="Aacute.ss14" horiz-adv-x="649" 
d="M21 0l281 669h45l281 -669h-48l-255 624l-257 -624h-47zM356 855h60l-66 -131h-42z" />
    <glyph glyph-name="Abreve.ss14" horiz-adv-x="649" 
d="M21 0l281 669h45l281 -669h-48l-255 624l-257 -624h-47zM228 856q2 -43 28.5 -70t68.5 -27t69 27t28 70h38q0 -58 -37.5 -93.5t-97.5 -35.5q-59 0 -96.5 35.5t-38.5 93.5h38z" />
    <glyph glyph-name="Acircumflex.ss14" horiz-adv-x="649" 
d="M21 0l281 669h45l281 -669h-48l-255 624l-257 -624h-47zM184 731l125 128h30l125 -128h-50l-90 92l-91 -92h-49z" />
    <glyph glyph-name="Adieresis.ss14" horiz-adv-x="649" 
d="M21 0l281 669h45l281 -669h-48l-255 624l-257 -624h-47zM205 802q0 18 12.5 30.5t31.5 12.5t32 -12.5t13 -30.5t-13 -30q-13 -13 -32 -13t-31.5 12.5t-12.5 30.5zM368 833q13 12 32 12q18 0 30.5 -13t12.5 -30q0 -18 -12.5 -30.5t-30.5 -12.5q-19 0 -32 12.5t-13 30.5
t13 31z" />
    <glyph glyph-name="Agrave.ss14" horiz-adv-x="649" 
d="M21 0l281 669h45l281 -669h-48l-255 624l-257 -624h-47zM238 856h58l49 -131h-42z" />
    <glyph glyph-name="Amacron.ss14" horiz-adv-x="649" 
d="M21 0l281 669h45l281 -669h-48l-255 624l-257 -624h-47zM470 817v-35h-292v35h292z" />
    <glyph glyph-name="Aogonek.ss14" horiz-adv-x="649" 
d="M302 669h45l281 -669q-59 -22 -90 -61t-31 -74q0 -22 13 -37q12 -15 35 -15t65 21l4 -33q-38 -21 -70 -21q-40 0 -62 22t-22 58q0 34 27 74.5t80 71.5l-252 618l-257 -624h-47z" />
    <glyph glyph-name="Aring.ss14" horiz-adv-x="649" 
d="M302 669h45l281 -669h-48l-255 624l-257 -624h-47zM230 797q0 38 27 65t67 27t67 -26.5t27 -65.5q0 -38 -27 -64q-27 -27 -67 -27t-67 26.5t-27 64.5zM280 754q18 -18 44 -18q27 0 45 17.5t18 43.5q0 27 -18 45t-45 18q-26 0 -44.5 -18t-18.5 -45q0 -25 19 -43z" />
    <glyph glyph-name="Atilde.ss14" horiz-adv-x="649" 
d="M302 669h45l281 -669h-48l-255 624l-257 -624h-47zM170 823q26 27 69 27q39 0 85 -34.5t75 -34.5q28 0 47.5 19.5t21.5 49.5h37q-4 -44 -32 -72.5t-70 -28.5q-37 0 -83.5 34.5t-76.5 34.5q-29 0 -46.5 -19t-19.5 -50h-36q2 46 29 74z" />
    <glyph glyph-name="i.loclTRK" horiz-adv-x="213" 
d="M86 467h42v-467h-42v467zM79 620q11 11 27 11q17 0 28 -11t11 -26q0 -17 -11 -28t-28 -11q-16 0 -27 11t-11 28q0 15 11 26z" />
    <glyph glyph-name="j_acutecomb" horiz-adv-x="227" 
d="M-83 -203v38q31 -9 64 -9q118 0 118 125v516h42v-528q0 -73 -41.5 -112.5t-109.5 -39.5q-39 0 -73 10zM146 658h57l-64 -129h-41z" />
    <glyph glyph-name="germandbls.calt" horiz-adv-x="681" 
d="M408 -12q-72 0 -138 26v44q71 -30 140 -30q94 0 149.5 40t55.5 103q0 38 -23 67t-55.5 47.5t-65 37.5t-55.5 47.5t-23 66.5q0 54 43.5 94t119.5 53q-72 57 -178 57q-110 0 -173.5 -60.5t-63.5 -168.5v-412h-43v416q0 120 73.5 192t205.5 72q144 0 230 -90l-16 -31
q-73 -10 -115 -42.5t-42 -76.5q0 -30 23 -53.5t56 -41.5t65.5 -38.5t55.5 -55t23 -80.5q0 -83 -68 -133t-181 -50z" />
    <glyph glyph-name="iacute_j.loclNLD" horiz-adv-x="460" 
d="M150 -165q32 -9 65 -9q118 0 118 125v516h41v-528q0 -73 -41.5 -112.5t-108.5 -39.5q-40 0 -74 10v38zM94 467h42v-467h-42v467zM330 529l48 129h58l-65 -129h-41zM140 658h58l-65 -129h-41z" />
    <glyph glyph-name="j.short" horiz-adv-x="227" 
d="M121 547q-17 0 -28 11t-11 28q0 16 11 26.5t28 10.5q16 0 27 -10.5t11 -26.5q0 -17 -11 -28t-27 -11zM-83 -203v38q31 -9 64 -9q118 0 118 125v516h42v-528q0 -73 -41.5 -112.5t-109.5 -39.5q-39 0 -73 10z" />
    <glyph glyph-name="a.ss02" horiz-adv-x="550" 
d="M38 131q0 60 43 97t122 37h232v11q0 79 -40.5 121.5t-135.5 42.5q-102 0 -179 -32v39q86 31 180 31q215 0 215 -202v-276h-40v96q-30 -53 -88.5 -79.5t-125.5 -26.5q-83 0 -133 38.5t-50 102.5zM121 55q40 -29 108 -29q88 0 147 47.5t59 138.5v19h-233q-60 0 -91 -27.5
t-31 -71.5q0 -49 41 -77z" />
    <glyph glyph-name="aacute.ss02" horiz-adv-x="550" 
d="M38 131q0 60 43 97t122 37h232v11q0 79 -40.5 121.5t-135.5 42.5q-102 0 -179 -32v39q86 31 180 31q215 0 215 -202v-276h-40v96q-30 -53 -88.5 -79.5t-125.5 -26.5q-83 0 -133 38.5t-50 102.5zM121 55q40 -29 108 -29q88 0 147 47.5t59 138.5v19h-233q-60 0 -91 -27.5
t-31 -71.5q0 -49 41 -77zM246 529l48 129h58l-65 -129h-41z" />
    <glyph glyph-name="abreve.ss02" horiz-adv-x="550" 
d="M81 228q43 37 122 37h232v11q0 79 -40.5 121.5t-135.5 42.5q-102 0 -179 -32v39q86 31 180 31q215 0 215 -202v-276h-40v96q-30 -53 -88.5 -79.5t-125.5 -26.5q-83 0 -133 38.5t-50 102.5q0 60 43 97zM80 132q0 -49 40.5 -77.5t108.5 -28.5q88 0 147 47.5t59 138.5v19
h-233q-60 0 -91 -27.5t-31 -71.5zM173 655q2 -44 28 -70.5t68 -26.5t68 26.5t27 70.5h38q-1 -58 -37 -92q-37 -35 -96 -35t-95.5 34.5t-37.5 92.5h37z" />
    <glyph glyph-name="acircumflex.ss02" horiz-adv-x="550" 
d="M38 131q0 60 43 97t122 37h232v11q0 79 -40.5 121.5t-135.5 42.5q-102 0 -179 -32v39q86 31 180 31q215 0 215 -202v-276h-40v96q-30 -53 -88.5 -79.5t-125.5 -26.5q-83 0 -133 38.5t-50 102.5zM121 55q40 -29 108 -29q88 0 147 47.5t59 138.5v19h-233q-60 0 -91 -27.5
t-31 -71.5q0 -49 41 -77zM137 528l117 126h30l118 -126h-45l-87 94l-89 -94h-44z" />
    <glyph glyph-name="adieresis.ss02" horiz-adv-x="550" 
d="M38 131q0 60 43 97t122 37h232v11q0 79 -40.5 121.5t-135.5 42.5q-102 0 -179 -32v39q86 31 180 31q215 0 215 -202v-276h-40v96q-30 -53 -88.5 -79.5t-125.5 -26.5q-83 0 -133 38.5t-50 102.5zM80 132q0 -49 40.5 -77.5t108.5 -28.5q88 0 147 47.5t59 138.5v19h-233
q-60 0 -91 -27.5t-31 -71.5zM169 611q11 12 29 12t30 -12t12 -29t-12 -29t-30 -12t-29.5 12t-11.5 29t12 29zM298 582q0 17 12 29t30 12q17 0 29 -12t12 -29t-12 -29t-29 -12q-18 0 -30 12t-12 29z" />
    <glyph glyph-name="agrave.ss02" horiz-adv-x="550" 
d="M81 228q43 37 122 37h232v11q0 79 -40.5 121.5t-135.5 42.5q-102 0 -179 -32v39q86 31 180 31q215 0 215 -202v-276h-40v96q-30 -53 -88.5 -79.5t-125.5 -26.5q-83 0 -133 38.5t-50 102.5q0 60 43 97zM80 132q0 -49 40.5 -77.5t108.5 -28.5q88 0 147 47.5t59 138.5v19
h-233q-60 0 -91 -27.5t-31 -71.5zM240 658l48 -129h-41l-65 129h58z" />
    <glyph glyph-name="amacron.ss02" horiz-adv-x="550" 
d="M81 228q43 37 122 37h232v11q0 79 -40.5 121.5t-135.5 42.5q-102 0 -179 -32v39q86 31 180 31q215 0 215 -202v-276h-40v96q-30 -53 -88.5 -79.5t-125.5 -26.5q-83 0 -133 38.5t-50 102.5q0 60 43 97zM80 132q0 -49 40.5 -77.5t108.5 -28.5q88 0 147 47.5t59 138.5v19
h-233q-60 0 -91 -27.5t-31 -71.5zM395 604v-34h-253v34h253z" />
    <glyph glyph-name="aogonek.ss02" horiz-adv-x="550" 
d="M38 131q0 60 43 97t122 37h232v11q0 79 -40.5 121.5t-135.5 42.5q-102 0 -179 -32v39q86 31 180 31q215 0 215 -202v-276q-58 -23 -89 -61.5t-31 -73.5q0 -23 12 -37.5t35 -14.5q25 0 65 21l4 -33q-37 -21 -70 -21q-39 0 -61.5 22t-22.5 57q0 36 30 78.5t88 73.5v85
q-30 -53 -88.5 -79.5t-125.5 -26.5q-83 0 -133 38.5t-50 102.5zM80 132q0 -49 40.5 -77.5t108.5 -28.5q88 0 147 47.5t59 138.5v19h-233q-60 0 -91 -27.5t-31 -71.5z" />
    <glyph glyph-name="aring.ss02" horiz-adv-x="550" 
d="M38 131q0 60 43 97t122 37h232v11q0 79 -40.5 121.5t-135.5 42.5q-102 0 -179 -32v39q86 31 180 31q215 0 215 -202v-276h-40v96q-30 -53 -88.5 -79.5t-125.5 -26.5q-83 0 -133 38.5t-50 102.5zM80 132q0 -49 40.5 -77.5t108.5 -28.5q88 0 147 47.5t59 138.5v19h-233
q-60 0 -91 -27.5t-31 -71.5zM202 676q26 26 66 26t66.5 -26.5t26.5 -64.5t-26 -63q-27 -26 -67 -26t-66.5 25.5t-26.5 63.5t27 65zM222 567q19 -19 46 -19q26 0 45.5 18.5t19.5 44.5t-19.5 45t-45.5 19q-27 0 -46 -19t-19 -45t19 -44z" />
    <glyph glyph-name="atilde.ss02" horiz-adv-x="550" 
d="M38 131q0 60 43 97t122 37h232v11q0 79 -40.5 121.5t-135.5 42.5q-102 0 -179 -32v39q86 31 180 31q215 0 215 -202v-276h-40v96q-30 -53 -88.5 -79.5t-125.5 -26.5q-83 0 -133 38.5t-50 102.5zM80 132q0 -49 40.5 -77.5t108.5 -28.5q88 0 147 47.5t59 138.5v19h-233
q-60 0 -91 -27.5t-31 -71.5zM106 553q3 49 28 71t61 22q39 0 80 -30.5t66 -30.5q27 0 43.5 16t18.5 45h35q-11 -93 -93 -93q-34 0 -76 30.5t-72 30.5q-23 0 -39.5 -16t-17.5 -45h-34z" />
    <glyph glyph-name="g.ss04" horiz-adv-x="583" 
d="M48 3q26 29 71 42q-50 23 -50 68q0 25 17 44.5t45 27.5q-66 46 -66 125q0 75 62.5 121t167.5 46q59 0 109 -16h4q36 0 72 20t56 50l25 -27q-39 -57 -107 -67q71 -47 71 -127q0 -77 -62 -122.5t-168 -45.5q-76 0 -130 24q-56 -10 -56 -49q0 -22 21 -35.5t54 -13.5h214
q76 0 124.5 -34t48.5 -91q0 -75 -73.5 -115t-213.5 -40q-128 0 -195 39t-67 105q0 41 26 71zM121 -147q55 -29 157 -29h16q113 0 172.5 30t59.5 87q0 44 -35.5 68t-103.5 24h-155q-86 0 -126 -28t-40 -73q0 -49 55 -79zM158 213q51 -37 137 -37t137 36.5t51 97.5
q0 60 -51.5 96t-136.5 36q-86 0 -137 -36t-51 -96q0 -61 51 -97z" />
    <glyph glyph-name="gbreve.ss04" horiz-adv-x="583" 
d="M22 -68q0 41 26 70.5t71 42.5q-50 23 -50 68q0 25 17 44.5t45 27.5q-66 46 -66 125q0 75 62.5 121t167.5 46q59 0 109 -16h4q36 0 72 20t56 50l25 -27q-39 -57 -107 -67q71 -47 71 -127q0 -77 -62 -122.5t-168 -45.5q-76 0 -130 24q-56 -10 -56 -49q0 -22 21 -35.5
t54 -13.5h214q76 0 124.5 -34t48.5 -91q0 -75 -73.5 -115t-213.5 -40q-128 0 -195 39t-67 105zM66 -68q0 -49 55 -78.5t157 -29.5h16q113 0 172.5 30t59.5 87q0 44 -35.5 68t-103.5 24h-155q-86 0 -126 -28t-40 -73zM107 310q0 -61 51 -97.5t137 -36.5t137 36.5t51 97.5
q0 60 -51.5 96t-136.5 36q-86 0 -137 -36t-51 -96zM200 654q0 -44 26 -70.5t69 -26.5q42 0 68 26.5t27 70.5h38q0 -57 -36 -91q-37 -35 -97 -35t-96.5 34.5t-36.5 91.5h38z" />
    <glyph glyph-name="gcircumflex.ss04" horiz-adv-x="583" 
d="M22 -68q0 41 26 70.5t71 42.5q-50 23 -50 68q0 25 17 44.5t45 27.5q-66 46 -66 125q0 75 62.5 121t167.5 46q59 0 109 -16h4q36 0 72 20t56 50l25 -27q-39 -57 -107 -67q71 -47 71 -127q0 -77 -62 -122.5t-168 -45.5q-76 0 -130 24q-56 -10 -56 -49q0 -22 21 -35.5
t54 -13.5h214q76 0 124.5 -34t48.5 -91q0 -75 -73.5 -115t-213.5 -40q-128 0 -195 39t-67 105zM121 -147q55 -29 157 -29h16q113 0 172.5 30t59.5 87q0 44 -35.5 68t-103.5 24h-155q-86 0 -126 -28t-40 -73q0 -49 55 -79zM107 310q0 -61 51 -97.5t137 -36.5t137 36.5
t51 97.5q0 60 -51.5 96t-136.5 36q-86 0 -137 -36t-51 -96zM280 653h30l118 -125h-46l-86 93l-89 -93h-45z" />
    <glyph glyph-name="uni0123.ss04" horiz-adv-x="583" 
d="M48 3q26 29 71 42q-50 23 -50 68q0 25 17 44.5t45 27.5q-66 46 -66 125q0 75 62.5 121t167.5 46q59 0 109 -16h4q36 0 72 20t56 50l25 -27q-39 -57 -107 -67q71 -47 71 -127q0 -77 -62 -122.5t-168 -45.5q-76 0 -130 24q-56 -10 -56 -49q0 -22 21 -35.5t54 -13.5h214
q76 0 124.5 -34t48.5 -91q0 -75 -73.5 -115t-213.5 -40q-128 0 -195 39t-67 105q0 41 26 71zM66 -68q0 -49 55 -78.5t157 -29.5h16q113 0 172.5 30t59.5 87q0 44 -35.5 68t-103.5 24h-155q-86 0 -126 -28t-40 -73zM158 213q51 -37 137 -37t137 36.5t51 97.5q0 60 -51.5 96
t-136.5 36q-86 0 -137 -36t-51 -96q0 -61 51 -97zM310 665h37l-35 -140h-46z" />
    <glyph glyph-name="gdotaccent.ss04" horiz-adv-x="583" 
d="M48 3q26 29 71 42q-50 23 -50 68q0 25 17 44.5t45 27.5q-66 46 -66 125q0 75 62.5 121t167.5 46q59 0 109 -16h4q36 0 72 20t56 50l25 -27q-39 -57 -107 -67q71 -47 71 -127q0 -77 -62 -122.5t-168 -45.5q-76 0 -130 24q-56 -10 -56 -49q0 -22 21 -35.5t54 -13.5h214
q76 0 124.5 -34t48.5 -91q0 -75 -73.5 -115t-213.5 -40q-128 0 -195 39t-67 105q0 41 26 71zM66 -68q0 -49 55 -78.5t157 -29.5h16q113 0 172.5 30t59.5 87q0 44 -35.5 68t-103.5 24h-155q-86 0 -126 -28t-40 -73zM158 213q51 -37 137 -37t137 36.5t51 97.5q0 60 -51.5 96
t-136.5 36q-86 0 -137 -36t-51 -96q0 -61 51 -97zM267 620q11 10 28 10q16 0 27 -10.5t11 -26.5q0 -17 -10 -27q-11 -11 -28 -11t-28 11t-11 27t11 27z" />
    <glyph glyph-name="germandbls.ss06" horiz-adv-x="581" 
d="M127 -155h-42v571q0 131 64.5 207.5t176.5 76.5q81 0 131.5 -42.5t50.5 -110.5q0 -45 -24 -80.5t-52.5 -53.5t-52.5 -36.5t-24 -33.5q0 -14 20 -26.5t48.5 -26t57 -30.5t48.5 -47.5t20 -69.5q0 -70 -55 -112.5t-138 -42.5q-79 0 -138 26v41q61 -28 140 -28q66 0 108 33
t42 86q0 33 -20 57t-48 38.5t-56.5 27.5t-48.5 31t-20 41q0 20 15.5 38t38 33t45 31.5t38 42t15.5 57.5q0 54 -40 86.5t-103 32.5q-92 0 -144.5 -65.5t-52.5 -181.5v-570z" />
    <glyph glyph-name="a.ss09" horiz-adv-x="627" 
d="M45 236q0 103 66.5 172t166.5 69q64 0 116 -31t82 -84v105h41v-369q0 -71 55 -71q27 0 50 13v-36q-24 -14 -57 -14q-42 0 -65 27t-23 70v22q-30 -55 -82.5 -87t-118.5 -32q-99 0 -165 70t-66 176zM144 87q55 -59 138 -59t138.5 60t55.5 148q0 86 -56 144.5t-138 58.5
q-83 0 -138.5 -58.5t-55.5 -145.5q0 -89 56 -148z" />
    <glyph glyph-name="aacute.ss09" horiz-adv-x="627" 
d="M45 236q0 103 66.5 172t166.5 69q64 0 116 -31t82 -84v105h41v-369q0 -71 55 -71q27 0 50 13v-36q-24 -14 -57 -14q-42 0 -65 27t-23 70v22q-30 -55 -82.5 -87t-118.5 -32q-99 0 -165 70t-66 176zM144 87q55 -59 138 -59t138.5 60t55.5 148q0 86 -56 144.5t-138 58.5
q-83 0 -138.5 -58.5t-55.5 -145.5q0 -89 56 -148zM266 529l48 129h58l-65 -129h-41z" />
    <glyph glyph-name="abreve.ss09" horiz-adv-x="627" 
d="M112 408q66 69 166 69q64 0 116 -31t82 -84v105h41v-369q0 -71 55 -71q27 0 50 13v-36q-24 -14 -57 -14q-42 0 -65 27t-23 70v22q-30 -55 -82.5 -87t-118.5 -32q-99 0 -165 70t-66 176q0 103 67 172zM88 235q0 -89 56 -148q55 -59 138 -59t138.5 60t55.5 148
q0 86 -56 144.5t-138 58.5q-83 0 -138.5 -58.5t-55.5 -145.5zM157 655h36q2 -44 28 -70.5t68 -26.5t68 26.5t27 70.5h38q0 -58 -36.5 -92.5t-96.5 -34.5q-59 0 -95.5 34.5t-36.5 92.5z" />
    <glyph glyph-name="acircumflex.ss09" horiz-adv-x="627" 
d="M45 236q0 103 66.5 172t166.5 69q64 0 116 -31t82 -84v105h41v-369q0 -71 55 -71q27 0 50 13v-36q-24 -14 -57 -14q-42 0 -65 27t-23 70v22q-30 -55 -82.5 -87t-118.5 -32q-99 0 -165 70t-66 176zM144 87q55 -59 138 -59t138.5 60t55.5 148q0 86 -56 144.5t-138 58.5
q-83 0 -138.5 -58.5t-55.5 -145.5q0 -89 56 -148zM157 528l118 126h30l117 -126h-45l-87 94l-89 -94h-44z" />
    <glyph glyph-name="adieresis.ss09" horiz-adv-x="627" 
d="M112 408q66 69 166 69q64 0 116 -31t82 -84v105h41v-369q0 -71 55 -71q27 0 50 13v-36q-24 -14 -57 -14q-42 0 -65 27t-23 70v22q-30 -55 -82.5 -87t-118.5 -32q-99 0 -165 70t-66 176q0 103 67 172zM144 87q55 -59 138 -59t138.5 60t55.5 148q0 86 -56 144.5t-138 58.5
q-83 0 -138.5 -58.5t-55.5 -145.5q0 -89 56 -148zM177 582q0 17 12 29t29 12q18 0 30 -12t12 -29t-12 -29t-30 -12q-17 0 -29 12t-12 29zM331 611q11 12 29 12q17 0 29 -12t12 -29t-12 -29t-29 -12q-18 0 -29.5 12t-11.5 29t12 29z" />
    <glyph glyph-name="agrave.ss09" horiz-adv-x="627" 
d="M45 236q0 103 66.5 172t166.5 69q64 0 116 -31t82 -84v105h41v-369q0 -71 55 -71q27 0 50 13v-36q-24 -14 -57 -14q-42 0 -65 27t-23 70v22q-30 -55 -82.5 -87t-118.5 -32q-99 0 -165 70t-66 176zM144 87q55 -59 138 -59t138.5 60t55.5 148q0 86 -56 144.5t-138 58.5
q-83 0 -138.5 -58.5t-55.5 -145.5q0 -89 56 -148zM202 658h59l48 -129h-42z" />
    <glyph glyph-name="amacron.ss09" horiz-adv-x="627" 
d="M45 236q0 103 66.5 172t166.5 69q64 0 116 -31t82 -84v105h41v-369q0 -71 55 -71q27 0 50 13v-36q-24 -14 -57 -14q-42 0 -65 27t-23 70v22q-30 -55 -82.5 -87t-118.5 -32q-99 0 -165 70t-66 176zM144 87q55 -59 138 -59t138.5 60t55.5 148q0 86 -56 144.5t-138 58.5
q-83 0 -138.5 -58.5t-55.5 -145.5q0 -89 56 -148zM163 604h252v-34h-252v34z" />
    <glyph glyph-name="aogonek.ss09" horiz-adv-x="627" 
d="M45 236q0 103 66.5 172t166.5 69q64 0 116 -31t82 -84v105h41v-369q0 -71 55 -71q27 0 50 13v-36l-13 -6q-58 -22 -89.5 -60.5t-31.5 -73.5q0 -23 12.5 -37.5t35.5 -14.5q29 0 65 22l4 -33q-37 -22 -70 -22q-39 0 -61.5 22.5t-22.5 56.5q0 32 22.5 69t65.5 66
q-62 17 -62 94v22q-30 -55 -82.5 -87t-118.5 -32q-99 0 -165 70t-66 176zM144 87q55 -59 138 -59t138.5 60t55.5 148q0 86 -56 144.5t-138 58.5q-83 0 -138.5 -58.5t-55.5 -145.5q0 -89 56 -148z" />
    <glyph glyph-name="aring.ss09" horiz-adv-x="627" 
d="M45 236q0 103 66.5 172t166.5 69q64 0 116 -31t82 -84v105h41v-369q0 -71 55 -71q27 0 50 13v-36q-24 -14 -57 -14q-42 0 -65 27t-23 70v22q-30 -55 -82.5 -87t-118.5 -32q-99 0 -165 70t-66 176zM88 235q0 -89 56 -148q55 -59 138 -59t138.5 60t55.5 148q0 86 -56 144.5
t-138 58.5q-83 0 -138.5 -58.5t-55.5 -145.5zM195 611q0 38 26.5 64.5t66.5 26.5t66.5 -26.5t26.5 -64.5t-26 -63q-27 -26 -67 -26t-66.5 25.5t-26.5 63.5zM243 567q19 -19 45 -19q27 0 46 18.5t19 44.5t-19 45t-46 19q-26 0 -45 -19t-19 -45t19 -44z" />
    <glyph glyph-name="atilde.ss09" horiz-adv-x="627" 
d="M112 408q66 69 166 69q64 0 116 -31t82 -84v105h41v-369q0 -71 55 -71q27 0 50 13v-36q-24 -14 -57 -14q-42 0 -65 27t-23 70v22q-30 -55 -82.5 -87t-118.5 -32q-99 0 -165 70t-66 176q0 103 67 172zM144 87q55 -59 138 -59t138.5 60t55.5 148q0 86 -56 144.5t-138 58.5
q-83 0 -138.5 -58.5t-55.5 -145.5q0 -89 56 -148zM126 553q3 49 28.5 71t61.5 22q38 0 79 -30.5t66 -30.5q28 0 44.5 16t18.5 45h34q-9 -93 -93 -93q-34 0 -76 30.5t-72 30.5q-23 0 -39 -16t-17 -45h-35z" />
    <glyph glyph-name="u.ss09" horiz-adv-x="614" 
d="M118 467v-266q0 -74 47 -123.5t117 -49.5q75 0 127 56.5t52 141.5v241h43v-369q0 -70 55 -70q27 0 50 13v-37q-24 -14 -57 -14q-42 0 -65.5 27t-23.5 70v18q-29 -57 -79.5 -86t-108.5 -29q-87 0 -143 58t-56 147v272h42z" />
    <glyph glyph-name="uacute.ss09" horiz-adv-x="614" 
d="M76 467h42v-266q0 -74 47 -123.5t117 -49.5q75 0 127 56.5t52 141.5v241h43v-369q0 -70 55 -70q27 0 50 13v-37q-24 -14 -57 -14q-42 0 -65.5 27t-23.5 70v18q-29 -57 -79.5 -86t-108.5 -29q-87 0 -143 58t-56 147v272zM267 529l48 129h58l-65 -129h-41z" />
    <glyph glyph-name="ubreve.ss09" horiz-adv-x="614" 
d="M118 467v-266q0 -74 47 -123.5t117 -49.5q75 0 127 56.5t52 141.5v241h43v-369q0 -70 55 -70q27 0 50 13v-37q-24 -14 -57 -14q-42 0 -65.5 27t-23.5 70v18q-29 -57 -79.5 -86t-108.5 -29q-87 0 -143 58t-56 147v272h42zM194 655q2 -44 28 -70.5t68 -26.5t68 26.5
t27 70.5h38q0 -57 -36.5 -92t-96.5 -35q-59 0 -95.5 34.5t-37.5 92.5h37z" />
    <glyph glyph-name="ucircumflex.ss09" horiz-adv-x="614" 
d="M118 467v-266q0 -74 47 -123.5t117 -49.5q75 0 127 56.5t52 141.5v241h43v-369q0 -70 55 -70q27 0 50 13v-37q-24 -14 -57 -14q-42 0 -65.5 27t-23.5 70v18q-29 -57 -79.5 -86t-108.5 -29q-87 0 -143 58t-56 147v272h42zM276 654h30l117 -126h-45l-87 94l-89 -94h-44z
" />
    <glyph glyph-name="udieresis.ss09" horiz-adv-x="614" 
d="M76 467h42v-266q0 -74 47 -123.5t117 -49.5q75 0 127 56.5t52 141.5v241h43v-369q0 -70 55 -70q27 0 50 13v-37q-24 -14 -57 -14q-42 0 -65.5 27t-23.5 70v18q-29 -57 -79.5 -86t-108.5 -29q-87 0 -143 58t-56 147v272zM178 582q0 17 12 29t29 12q18 0 30 -12t12 -29
t-12 -29t-30 -12q-17 0 -29 12t-12 29zM320 582q0 17 11.5 29t29.5 12q17 0 29 -12t12 -29t-12 -29t-29 -12q-18 0 -29.5 12t-11.5 29z" />
    <glyph glyph-name="ugrave.ss09" horiz-adv-x="614" 
d="M76 195v272h42v-266q0 -74 47 -123.5t117 -49.5q75 0 127 56.5t52 141.5v241h43v-369q0 -70 55 -70q27 0 50 13v-37q-24 -14 -57 -14q-42 0 -65.5 27t-23.5 70v18q-29 -57 -79.5 -86t-108.5 -29q-87 0 -143 58t-56 147zM203 658h59l48 -129h-42z" />
    <glyph glyph-name="uhungarumlaut.ss09" horiz-adv-x="614" 
d="M118 467v-266q0 -74 47 -123.5t117 -49.5q75 0 127 56.5t52 141.5v241h43v-369q0 -70 55 -70q27 0 50 13v-37q-24 -14 -57 -14q-42 0 -65.5 27t-23.5 70v18q-29 -57 -79.5 -86t-108.5 -29q-87 0 -143 58t-56 147v272h42zM329 529l52 129h56l-73 -129h-35zM206 529l38 129
h56l-59 -129h-35z" />
    <glyph glyph-name="umacron.ss09" horiz-adv-x="614" 
d="M76 467h42v-266q0 -74 47 -123.5t117 -49.5q75 0 127 56.5t52 141.5v241h43v-369q0 -70 55 -70q27 0 50 13v-37q-24 -14 -57 -14q-42 0 -65.5 27t-23.5 70v18q-29 -57 -79.5 -86t-108.5 -29q-87 0 -143 58t-56 147v272zM416 604v-34h-253v34h253z" />
    <glyph glyph-name="uogonek.ss09" horiz-adv-x="614" 
d="M76 195v272h42v-266q0 -74 47 -123.5t117 -49.5q75 0 127 56.5t52 141.5v241h43v-369q0 -70 55 -70q27 0 50 13v-37q-12 -6 -20 -8q-54 -23 -83 -60.5t-29 -70.5q0 -23 12.5 -38t34.5 -15q25 0 65 22l4 -33q-37 -22 -70 -22q-39 0 -61.5 22.5t-22.5 56.5q0 31 22 68
t66 67q-31 7 -47.5 32.5t-16.5 61.5v18q-29 -57 -79.5 -86t-108.5 -29q-87 0 -143 58t-56 147z" />
    <glyph glyph-name="uring.ss09" horiz-adv-x="614" 
d="M76 467h42v-266q0 -74 47 -123.5t117 -49.5q75 0 127 56.5t52 141.5v241h43v-369q0 -70 55 -70q27 0 50 13v-37q-24 -14 -57 -14q-42 0 -65.5 27t-23.5 70v18q-29 -57 -79.5 -86t-108.5 -29q-87 0 -143 58t-56 147v272zM196 611q0 38 26.5 64.5t66.5 26.5t66.5 -26.5
t26.5 -64.5t-26 -63q-27 -26 -67 -26t-66.5 25.5t-26.5 63.5zM244 567q19 -19 45 -19t45.5 18.5t19.5 44.5t-19 45q-20 19 -46 19t-45 -19t-19 -45t19 -44z" />
    <glyph glyph-name="utilde.ss09" horiz-adv-x="614" 
d="M76 467h42v-266q0 -74 47 -123.5t117 -49.5q75 0 127 56.5t52 141.5v241h43v-369q0 -70 55 -70q27 0 50 13v-37q-24 -14 -57 -14q-42 0 -65.5 27t-23.5 70v18q-29 -57 -79.5 -86t-108.5 -29q-87 0 -143 58t-56 147v272zM127 553q3 49 28.5 71t61.5 22q38 0 79 -30.5
t66 -30.5q28 0 44 16t18 45h35q-11 -93 -93 -93q-34 0 -76 30.5t-72 30.5q-24 0 -40 -16t-17 -45h-34z" />
    <glyph glyph-name="y.ss15" horiz-adv-x="535" 
d="M19 467h44l208 -432l200 432h44l-313 -669h-45l92 192z" />
    <glyph glyph-name="yacute.ss15" horiz-adv-x="535" 
d="M63 467l208 -432l200 432h44l-313 -669h-45l92 192l-230 477h44zM244 529l48 129h58l-65 -129h-41z" />
    <glyph glyph-name="ycircumflex.ss15" horiz-adv-x="535" 
d="M19 467h44l208 -432l200 432h44l-313 -669h-45l92 192zM252 654h30l118 -126h-46l-87 94l-89 -94h-44z" />
    <glyph glyph-name="ydieresis.ss15" horiz-adv-x="535" 
d="M19 467h44l208 -432l200 432h44l-313 -669h-45l92 192zM308 611q12 12 30 12q17 0 29 -12t12 -29t-12 -29t-29 -12q-18 0 -30 12t-12 29t12 29zM155 582q0 17 12 29t29 12q18 0 29.5 -12t11.5 -29t-11.5 -29t-29.5 -12q-17 0 -29 12t-12 29z" />
    <glyph glyph-name="ygrave.ss15" horiz-adv-x="535" 
d="M63 467l208 -432l200 432h44l-313 -669h-45l92 192l-230 477h44zM238 658l48 -129h-41l-65 129h58z" />
    <glyph glyph-name="IJ.loclNLD" horiz-adv-x="702" 
d="M98 0v669h43v-669h-43zM371 -11q-67 0 -122 19l-1 39q63 -19 120 -19q98 0 150.5 52.5t52.5 135.5v453h42v-460q0 -100 -63.5 -160t-178.5 -60z" />
    <glyph glyph-name="ij.loclNLD" horiz-adv-x="450" 
d="M106 555q-16 0 -27 11t-11 28q0 15 11 26t27 11q17 0 28 -11t11 -26q0 -17 -11 -28t-28 -11zM345 555q-17 0 -28 11.5t-11 27.5q0 15 11.5 26t27.5 11t27 -11t11 -26q0 -16 -11 -27.5t-27 -11.5zM128 0h-42v467h42v-467zM141 -203v38q31 -9 65 -9q118 0 118 125v516h42
v-528q0 -73 -42 -112.5t-109 -39.5q-38 0 -74 10z" />
    <glyph glyph-name="uni0414.loclBGR" horiz-adv-x="720" 
d="M388 669l250 -631h65v-172h-41v134h-604v-134h-41v172h64l261 631h46zM592 38l-226 588l-238 -588h464z" />
    <glyph glyph-name="uni041B.loclBGR" horiz-adv-x="649" 
d="M68 0h-47l281 669h45l281 -669h-48l-255 624z" />
    <glyph glyph-name="uni0423.loclBGR" horiz-adv-x="580" 
d="M290 232l238 437h44l-359 -669h-47l104 188l-268 481h46z" />
    <glyph glyph-name="uni0424.loclBGR" horiz-adv-x="976" 
d="M659 645q125 0 193.5 -83t68.5 -228q0 -149 -68 -233.5t-192 -84.5q-80 0 -152 31v-133h-41v133q-72 -31 -153 -31q-124 0 -192 84.5t-68 233.5q0 145 68.5 228t193.5 83q84 0 151 -30v132h41v-131q67 29 150 29zM96 335q0 -133 59.5 -207.5t167.5 -74.5q82 0 146 33v490
q-68 33 -150 33q-107 0 -165 -73t-58 -201zM653 53q108 0 167.5 74.5t59.5 207.5q0 128 -58 201t-165 73q-79 0 -149 -32v-491q61 -33 145 -33z" />
    <glyph glyph-name="uni0430.loclBGR" horiz-adv-x="606" 
d="M112 408q67 69 167 69q66 0 119 -32.5t82 -87.5v110h41v-467h-41v111q-30 -56 -83 -88.5t-119 -32.5q-100 0 -166.5 69.5t-66.5 173.5q0 105 67 175zM144 87q55 -59 138 -59q84 0 140.5 59.5t56.5 148.5q0 86 -56.5 144.5t-139.5 58.5t-139 -59t-56 -147t56 -146z" />
    <glyph glyph-name="uni0432.loclBGR" horiz-adv-x="597" 
d="M414 368q64 -14 101 -59t37 -114q0 -94 -66.5 -150.5t-167.5 -56.5q-111 0 -178.5 63t-67.5 173v252q0 109 66 173.5t170 64.5q95 0 156.5 -52.5t61.5 -135.5q0 -58 -31 -100.5t-81 -57.5zM309 676q-88 0 -142 -55.5t-54 -144.5v-93h212q72 0 116 36.5t44 101.5
q0 70 -49.5 112.5t-126.5 42.5zM317 26q83 0 138 46t55 124q0 70 -48 110.5t-125 40.5h-224v-120q0 -93 55.5 -147t148.5 -54z" />
    <glyph glyph-name="uni0433.loclBGR" horiz-adv-x="483" 
d="M228 -10q-91 0 -139.5 32.5t-48.5 95.5q0 45 28.5 78t78.5 43l149 29q19 4 32.5 8.5t29.5 13t24.5 24t8.5 36.5q0 43 -38.5 66.5t-113.5 23.5q-98 0 -176 -28l-2 38q84 27 182 27q93 0 142.5 -33t49.5 -93q0 -30 -11.5 -52t-32.5 -34.5t-39 -18.5t-43 -11l-148 -28
q-37 -7 -57 -30.5t-20 -56.5q0 -93 144 -93q107 0 203 42l3 -38q-98 -41 -206 -41z" />
    <glyph glyph-name="uni0434.loclBGR" horiz-adv-x="606" 
d="M113 407q67 69 166 69q66 0 119 -31.5t82 -85.5v108h42v-439q0 -117 -64 -178.5t-184 -61.5q-105 0 -186 50v45q80 -57 184 -57q101 0 155 53t54 149v86q-29 -56 -82.5 -89t-120.5 -33q-99 0 -165.5 69.5t-66.5 172.5q0 104 67 173zM89 233q0 -88 55 -145.5t139 -57.5
q85 0 140.5 58.5t55.5 148.5q0 87 -55.5 144.5t-139.5 57.5q-85 0 -140 -58.5t-55 -147.5z" />
    <glyph glyph-name="uni0436.loclBGR" horiz-adv-x="738" 
d="M435 233l290 -233h-59l-277 221v-221h-40v220l-276 -220h-61l292 232l-281 235h56l270 -228v228h40v-229l270 229h57z" />
    <glyph glyph-name="uni0437.loclBGR" horiz-adv-x="501" 
d="M327 146q62 -14 98.5 -57.5t36.5 -108.5q0 -87 -65.5 -139.5t-171.5 -52.5q-53 0 -109 13t-90 33v39q37 -20 94 -33.5t105 -13.5q86 0 140.5 42.5t54.5 113.5q0 67 -48.5 103.5t-131.5 36.5h-140v37h137q70 0 115.5 39.5t45.5 101.5t-46.5 100.5t-126.5 38.5
q-93 0 -183 -49v38q82 50 185 50q98 0 155.5 -48.5t57.5 -125.5q0 -56 -31 -98.5t-82 -59.5z" />
    <glyph glyph-name="uni0438.loclBGR" horiz-adv-x="588" 
d="M76 467h42v-266q0 -74 46.5 -123t116.5 -49q75 0 127.5 56.5t52.5 141.5v240h42v-467h-41v105q-29 -57 -79.5 -86t-108.5 -29q-87 0 -142.5 58t-55.5 147v272z" />
    <glyph glyph-name="uni0439.loclBGR" horiz-adv-x="588" 
d="M76 195v272h42v-266q0 -74 46.5 -123t116.5 -49q75 0 127.5 56.5t52.5 141.5v240h42v-467h-41v105q-29 -57 -79.5 -86t-108.5 -29q-87 0 -142.5 58t-55.5 147zM157 655h39q1 -50 26 -74t68 -24t68 24t26 74h39q-1 -59 -36 -93q-36 -35 -97 -35t-96.5 34.5t-36.5 93.5z
" />
    <glyph glyph-name="uni043A.loclBGR" horiz-adv-x="492" 
d="M127 701v-460l286 226h56l-295 -233l305 -234h-60l-292 222v-222h-41v701h41z" />
    <glyph glyph-name="uni043B.loclBGR" horiz-adv-x="529" 
d="M69 0h-49l223 467h43l222 -467h-48l-195 419z" />
    <glyph glyph-name="uni043F.loclBGR" horiz-adv-x="588" 
d="M126 467v-108q29 58 79 87.5t109 29.5q85 0 141.5 -57.5t56.5 -143.5v-275h-42v266q0 73 -46.5 122.5t-115.5 49.5q-77 0 -129 -60t-52 -150v-228h-41v467h40z" />
    <glyph glyph-name="uni0442.loclBGR" horiz-adv-x="915" 
d="M86 467h40v-96q26 49 72.5 77t101.5 28q58 0 104 -31t64 -83q23 51 74 82.5t111 31.5q82 0 134 -53t52 -136v-287h-42v283q0 69 -41 112t-107 43q-73 0 -119.5 -49.5t-46.5 -132.5v-256h-42v272q0 75 -39 120.5t-108 45.5q-71 0 -119 -51t-48 -132v-255h-41v467z" />
    <glyph glyph-name="uni0446.loclBGR" horiz-adv-x="622" 
d="M574 28h44v-156h-40v118h-17q-46 0 -71 28.5t-26 84.5q-27 -56 -78.5 -84.5t-110.5 -28.5q-87 0 -143 58t-56 147v272h42v-266q0 -74 47 -123.5t117 -49.5q75 0 127 54.5t52 136.5v248h43v-351q0 -88 70 -88z" />
    <glyph glyph-name="uni0448.loclBGR" horiz-adv-x="955" 
d="M898 28q26 0 53 13v-37q-25 -14 -60 -14q-38 0 -61 27t-24 81q-25 -49 -75 -78.5t-109 -29.5q-61 0 -107.5 35t-63.5 91q-21 -57 -72 -91.5t-113 -34.5q-83 0 -136.5 57.5t-53.5 147.5v272h42v-266q0 -76 43 -124.5t111 -48.5q71 0 119 52t48 132v255h43v-281
q0 -68 42 -113t107 -45q72 0 122 52.5t50 131.5v255h43v-360q0 -79 52 -79z" />
    <glyph glyph-name="uni0449.loclBGR" horiz-adv-x="964" 
d="M915 28h45v-156h-41v118h-16q-95 0 -96 113q-25 -52 -74.5 -82.5t-109.5 -30.5q-61 0 -108 34.5t-64 91.5q-21 -57 -72 -91.5t-113 -34.5q-83 0 -136.5 57.5t-53.5 147.5v272h42v-266q0 -76 43 -124.5t111 -48.5q71 0 119 52t48 132v255h43v-281q0 -69 41.5 -113.5
t106.5 -44.5q73 0 123 52.5t50 131.5v255h43v-351q0 -88 69 -88z" />
    <glyph glyph-name="uni044C.loclBGR" horiz-adv-x="573" 
d="M304 411q95 0 159 -60.5t64 -150.5q0 -91 -65.5 -150.5t-161.5 -59.5q-98 0 -161.5 61t-63.5 155v261h41v-157q26 46 76 73.5t112 27.5zM301 26q78 0 131 49.5t53 124.5q0 74 -53.5 124.5t-132.5 50.5q-78 0 -130.5 -49.5t-52.5 -123.5q0 -75 53 -125.5t132 -50.5z" />
    <glyph glyph-name="uni044A.loclBGR" horiz-adv-x="654" 
d="M384 411q96 0 160 -60.5t64 -150.5q0 -91 -66 -150.5t-162 -59.5q-98 0 -162 61t-64 155v222h-140v39h182v-158q26 47 76 74.5t112 27.5zM381 26q79 0 132 49.5t53 124.5q0 74 -53.5 124.5t-132.5 50.5t-131.5 -49.5t-52.5 -123.5q0 -75 53 -125.5t132 -50.5z" />
    <glyph glyph-name="uni044E.loclBGR" horiz-adv-x="755" 
d="M86 701h41v-445h97q8 96 76 159t166 63q104 0 174 -70.5t70 -174.5q0 -105 -69.5 -174t-174.5 -69q-100 0 -168.5 64t-74.5 163h-96v-217h-41v701zM323 87q57 -59 143 -59t143.5 59t57.5 146q0 88 -57.5 147t-143.5 59t-143.5 -59t-57.5 -147t58 -146z" />
    <glyph glyph-name="uni0431.loclSRB" 
d="M300 459q108 -13 168 -74t60 -156q0 -105 -68.5 -172.5t-173.5 -67.5t-173 66.5t-68 168.5q0 78 41 136.5t109 81.5q-60 12 -93 46.5t-33 84.5q0 56 40 92.5t106 36.5q18 0 65.5 -5.5t70.5 -5.5q62 0 137 24l3 -39q-65 -22 -130 -22q-28 0 -76 4.5t-63 4.5
q-51 0 -80 -25.5t-29 -66.5q0 -18 6.5 -33.5t14.5 -25.5t24 -19t26.5 -13.5t31.5 -8.5t30 -5.5t30.5 -4t23.5 -2.5zM285 27q86 0 143 56.5t57 141.5t-57 140.5t-143 55.5q-85 0 -141 -55.5t-56 -140.5t56 -141.5t141 -56.5z" />
    <glyph glyph-name="uni0430.loclBGR.ss09" horiz-adv-x="627" 
d="M45 236q0 103 66.5 172t166.5 69q64 0 116 -31t82 -84v105h41v-369q0 -71 53 -71q28 0 51 13v-36q-25 -14 -56 -14q-41 0 -64 27t-23 70v24q-30 -56 -83 -88.5t-119 -32.5q-99 0 -165 70t-66 176zM144 87q55 -59 138 -59t138.5 60t55.5 148q0 86 -56 144.5t-138 58.5
q-83 0 -138.5 -58.5t-55.5 -145.5q0 -89 56 -148z" />
    <glyph glyph-name="uni0438.loclBGR.ss09" horiz-adv-x="614" 
d="M118 467v-266q0 -74 47 -123.5t117 -49.5q75 0 127 56.5t52 141.5v241h43v-369q0 -70 53 -70q27 0 50 13v-37q-24 -14 -55 -14q-42 0 -65 27t-23 70v20q-28 -58 -79 -87.5t-110 -29.5q-87 0 -143 58t-56 147v272h42z" />
    <glyph glyph-name="uni0439.loclBGR.ss09" horiz-adv-x="614" 
d="M118 467v-266q0 -74 47 -123.5t117 -49.5q75 0 127 56.5t52 141.5v241h43v-369q0 -70 55 -70q27 0 50 13v-37q-24 -14 -57 -14q-42 0 -65 27t-23 70v20q-28 -58 -79 -87.5t-110 -29.5q-87 0 -143 58t-56 147v272h42zM194 655q1 -44 27 -70.5t68 -26.5q43 0 68.5 26.5
t26.5 70.5h39q-1 -58 -38 -92q-37 -35 -96 -35t-95.5 35t-37.5 92h38z" />
    <glyph glyph-name="zero.zero" horiz-adv-x="621" 
d="M311 680q112 0 184 -95.5t72 -250.5q0 -154 -72 -249.5t-184 -95.5t-184.5 95.5t-72.5 249.5t72.5 250t184.5 96zM311 643q-93 0 -154.5 -86t-61.5 -223q0 -142 68 -231l283 478q-56 62 -135 62zM311 25q93 0 154 86t61 223t-60 222l-283 -476q57 -55 128 -55z" />
    <glyph glyph-name="zero.lf" horiz-adv-x="622" 
d="M312 -11q-113 0 -185.5 95.5t-72.5 249.5q0 155 72.5 250.5t185.5 95.5q112 0 184 -95.5t72 -250.5q0 -154 -72 -249.5t-184 -95.5zM312 28q92 0 152.5 85.5t60.5 220.5q0 136 -60.5 221t-152.5 85q-93 0 -154 -85t-61 -221q0 -135 61 -220.5t154 -85.5z" />
    <glyph glyph-name="one.lf" horiz-adv-x="354" 
d="M19 609l197 60h31v-669h-42v628l-186 -58v39z" />
    <glyph glyph-name="two.lf" horiz-adv-x="538" 
d="M289 204l-187 -167h393v-38h-449v36l227 211q6 6 38 34t46.5 43t36.5 42.5t32 55t10 56.5q0 71 -48.5 118t-123.5 47q-74 0 -122.5 -50.5t-54.5 -129.5l-39 6q6 95 66 153.5t151 58.5q94 0 153.5 -58t59.5 -143q0 -22 -6 -44.5t-12.5 -39.5t-23.5 -40t-25 -34t-32 -34.5
t-30 -29t-32.5 -29t-27.5 -24.5z" />
    <glyph glyph-name="three.lf" horiz-adv-x="551" 
d="M286 423q95 0 157 -60.5t62 -151.5q0 -95 -67 -158.5t-167 -63.5q-90 0 -156.5 53t-81.5 141l39 9q13 -75 69 -120.5t131 -45.5q80 0 135 53t55 133q0 76 -51.5 127t-132.5 51q-72 0 -134 -45l-23 29l295 256h-340v38h394v-37l-245 -217q32 9 61 9z" />
    <glyph glyph-name="four.lf" horiz-adv-x="565" 
d="M438 222h93v-38h-93v-184h-42v184h-376v34l373 451h45v-447zM396 618l-322 -396h322v396z" />
    <glyph glyph-name="five.lf" horiz-adv-x="555" 
d="M286 427q97 0 161.5 -61.5t64.5 -155.5t-66.5 -157.5t-167.5 -63.5q-90 0 -156.5 53t-81.5 140l39 9q13 -75 69 -120t131 -45q80 0 135.5 53.5t55.5 132.5q0 80 -52.5 129.5t-136.5 49.5q-97 0 -177 -81l-34 19l41 340h361v-38h-325l-34 -272q76 68 173 68z" />
    <glyph glyph-name="six.lf" horiz-adv-x="548" 
d="M282 442q98 0 165 -64.5t67 -161.5q0 -98 -68 -162.5t-169 -64.5t-169 66t-68 163q0 96 79 200l188 251h49l-200 -264q56 37 126 37zM276 26q82 0 138.5 54t56.5 136t-57 136.5t-140 54.5q-82 0 -137 -53.5t-55 -134.5q0 -82 55.5 -137.5t138.5 -55.5z" />
    <glyph glyph-name="seven.lf" horiz-adv-x="466" 
d="M26 631v38h423v-41l-338 -628h-50l344 631h-379z" />
    <glyph glyph-name="eight.lf" horiz-adv-x="614" 
d="M404 351q72 -16 115 -62.5t43 -109.5q0 -84 -72 -137t-183 -53t-183 52.5t-72 135.5q0 64 43 110.5t116 62.5q-61 17 -98 58t-37 96q0 76 66 126t165 50t165 -50t66 -126q0 -54 -36.5 -95.5t-97.5 -57.5zM117 503q0 -59 53 -98.5t133 -39.5q83 0 138.5 40.5t55.5 100.5
t-54 98.5t-136 38.5t-136 -39.5t-54 -100.5zM307 25q91 0 150.5 43.5t59.5 112.5q0 66 -59 107.5t-150 41.5q-92 0 -152 -42t-60 -109t59 -110.5t152 -43.5z" />
    <glyph glyph-name="nine.lf" horiz-adv-x="548" 
d="M269 680q103 0 171 -66.5t68 -163.5q0 -96 -82 -203l-186 -247h-49l198 261q-53 -34 -123 -34q-98 0 -165.5 64.5t-67.5 160.5q0 98 68 163t168 65zM75 452q0 -82 57.5 -136t140.5 -54q82 0 137 53.5t55 134.5q0 82 -56 137.5t-138 55.5t-139 -54.5t-57 -136.5z" />
    <glyph glyph-name="zero.osf" horiz-adv-x="601" 
d="M300 -11q-106 0 -177 80.5t-71 200.5q0 121 71.5 202t176.5 81q106 0 177.5 -81t71.5 -202q0 -120 -71.5 -200.5t-177.5 -80.5zM300 27q88 0 147 69.5t59 173.5t-59 173.5t-147 69.5q-87 0 -146 -69.5t-59 -173.5q0 -103 59 -173t146 -70z" />
    <glyph glyph-name="one.osf" horiz-adv-x="340" 
d="M29 481l181 61h33v-542h-42v499l-172 -58v40z" />
    <glyph glyph-name="two.osf" horiz-adv-x="495" 
d="M271 170l-166 -133h347v-37h-405v35l205 170q3 2 33.5 26t41 35t31.5 33.5t29 44t8 45.5q0 54 -42 90.5t-106 36.5q-65 0 -108.5 -41t-49.5 -105l-40 6q7 79 62.5 127.5t137.5 48.5q81 0 134.5 -46.5t53.5 -114.5q0 -21 -5.5 -41.5t-18 -40t-23.5 -34t-31 -32.5l-30 -27
t-32 -26t-26 -20z" />
    <glyph glyph-name="three.osf" horiz-adv-x="522" 
d="M274 301q88 0 145.5 -57.5t57.5 -141.5q0 -90 -63 -150t-156 -60q-84 0 -146.5 50t-75.5 133l38 9q12 -70 63.5 -112t121.5 -42q74 0 125 49.5t51 123.5q0 69 -48 117t-122 48q-68 0 -124 -41l-22 28l272 250h-316v37h370v-36l-229 -214q31 9 58 9z" />
    <glyph glyph-name="four.osf" horiz-adv-x="545" 
d="M425 114h87v-37h-87v-174h-42v174h-351v32l350 434h43v-429zM383 489l-299 -375h299v375z" />
    <glyph glyph-name="five.osf" horiz-adv-x="524" 
d="M269 304q91 0 151.5 -57.5t60.5 -146.5q0 -87 -63 -147.5t-156 -60.5q-83 0 -146 50t-77 132l39 9q12 -69 64 -111.5t120 -42.5q74 0 125.5 50t51.5 125q0 72 -48.5 119t-126.5 47q-88 0 -164 -77l-34 19l40 330h337v-37h-303l-32 -264q70 63 161 63z" />
    <glyph glyph-name="six.osf" horiz-adv-x="536" 
d="M282 422q94 0 159 -62t65 -154q0 -93 -66.5 -154.5t-162.5 -61.5q-98 0 -164 63t-66 155q0 91 76 191l181 239h49l-193 -251q53 35 122 35zM275 26q78 0 133 51t55 129t-55 129t-135 51q-78 0 -131.5 -50.5t-53.5 -126.5q0 -78 54 -130.5t133 -52.5z" />
    <glyph glyph-name="seven.osf" horiz-adv-x="456" 
d="M35 504v38h393v-39l-301 -612h-47l305 613h-350z" />
    <glyph glyph-name="eight.osf" horiz-adv-x="563" 
d="M369 334q65 -15 104 -60t39 -105q0 -79 -64.5 -130t-165.5 -51t-166 50.5t-65 129.5q0 60 39.5 104.5t105.5 60.5q-56 15 -90 54.5t-34 91.5q0 72 60 120t149 48t149.5 -48t60.5 -120q0 -51 -33.5 -90.5t-88.5 -54.5zM113 478q0 -57 47 -94t118 -37q73 0 122.5 38.5
t49.5 94.5q0 57 -48 94.5t-120 37.5q-71 0 -120 -38.5t-49 -95.5zM282 24q81 0 134 41.5t53 105.5q0 62 -53 102t-134 40q-82 0 -135 -40.5t-53 -103.5t53 -104t135 -41z" />
    <glyph glyph-name="nine.osf" horiz-adv-x="536" 
d="M260 552q99 0 164.5 -62.5t65.5 -154.5t-79 -193l-184 -239h-50l196 252q-53 -31 -117 -31q-94 0 -159.5 61t-65.5 152q0 92 66 153.5t163 61.5zM73 337q0 -77 55.5 -127.5t135.5 -50.5q78 0 131 50t53 126t-54 128t-133 52q-78 0 -133 -51t-55 -127z" />
    <glyph glyph-name="one.osf.salt" horiz-adv-x="328" 
d="M32 504v38h199v-542h-42v504h-157z" />
    <glyph glyph-name="zero.osf.zero" horiz-adv-x="600" 
d="M299 553q106 0 177.5 -81t71.5 -202q0 -120 -71.5 -200.5t-177.5 -80.5q-105 0 -176 80.5t-71 200.5t71 201.5t176 81.5zM92 270q0 -119 75 -191l241 402q-49 34 -109 34q-88 0 -147.5 -70t-59.5 -175zM299 25q89 0 149 70.5t60 174.5q0 119 -75 191l-242 -402
q48 -34 108 -34z" />
    <glyph glyph-name="zero.tf" 
d="M288 -11q-112 0 -181 95t-69 250q0 156 69 251t181 95q111 0 179.5 -95t68.5 -251q0 -155 -68.5 -250t-179.5 -95zM288 28q91 0 148 84.5t57 221.5t-56.5 221.5t-148.5 84.5t-149.5 -84.5t-57.5 -221.5q0 -136 57.5 -221t149.5 -85z" />
    <glyph glyph-name="one.tf" 
d="M324 669v-632h198v-38h-444v38h204v591l-197 -58v39l208 60h31z" />
    <glyph glyph-name="two.tf" 
d="M305 204l-186 -167h393v-38h-450v36l229 211q7 6 32 28t37 33.5t33 35t32 41.5t19.5 43t8.5 50q0 71 -48 118t-123 47t-123.5 -50.5t-54.5 -129.5l-39 6q5 95 66 153.5t151 58.5q94 0 153.5 -58t59.5 -143q0 -25 -6 -49t-20.5 -48.5t-25.5 -41.5t-35 -41t-34 -33.5
t-37.5 -33.5t-31.5 -28z" />
    <glyph glyph-name="three.tf" 
d="M300 423q95 0 156.5 -60.5t61.5 -151.5q0 -95 -67.5 -158.5t-166.5 -63.5q-90 0 -157 53.5t-81 140.5l39 9q12 -75 68 -120.5t131 -45.5q81 0 136 53t55 133q0 76 -51.5 127t-131.5 51q-73 0 -135 -45l-23 29l295 256h-340v38h394v-37l-247 -218q32 10 64 10z" />
    <glyph glyph-name="four.tf" 
d="M449 222h93v-38h-93v-184h-42v184h-375v34l373 451h44v-447zM407 617l-322 -395h322v395z" />
    <glyph glyph-name="five.tf" 
d="M295 427q96 0 160.5 -61.5t64.5 -155.5t-66 -157.5t-167 -63.5q-90 0 -156.5 53t-82.5 140l40 9q13 -75 69 -120t131 -45q80 0 135 53t55 133t-52.5 129.5t-136.5 49.5q-97 0 -177 -81l-33 19l41 340h361v-38h-326l-34 -273q76 69 174 69z" />
    <glyph glyph-name="six.tf" 
d="M292 442q98 0 165.5 -64.5t67.5 -161.5q0 -98 -68.5 -162.5t-168.5 -64.5q-103 0 -171 66t-68 163q0 96 79 200l189 251h50l-200 -263q53 36 125 36zM286 26q82 0 139 54t57 136t-57.5 136.5t-140.5 54.5q-82 0 -137 -53.5t-55 -134.5q0 -82 55.5 -137.5t138.5 -55.5z
" />
    <glyph glyph-name="seven.tf" 
d="M74 631v38h424v-41l-338 -628h-51l344 631h-379z" />
    <glyph glyph-name="eight.tf" 
d="M383 351q72 -16 115 -62.5t43 -109.5q0 -84 -71 -137t-183 -53q-111 0 -182.5 52.5t-71.5 135.5q0 64 43 110.5t115 62.5q-61 16 -98 57.5t-37 96.5q0 76 65.5 126t164.5 50q100 0 166 -50t66 -126q0 -54 -37 -95.5t-98 -57.5zM97 503q0 -60 53 -99t134 -39
q82 0 137 40.5t55 100.5t-54 98.5t-135 38.5t-135.5 -39.5t-54.5 -100.5zM287 25q91 0 150.5 43.5t59.5 112.5q0 66 -59 107.5t-150 41.5q-92 0 -151.5 -42t-59.5 -109t59 -110.5t151 -43.5z" />
    <glyph glyph-name="nine.tf" 
d="M286 680q102 0 170 -66.5t68 -163.5q0 -96 -82 -203l-186 -247h-50l198 260q-52 -33 -122 -33q-98 0 -165.5 64.5t-67.5 160.5q0 98 68 163t169 65zM92 452q0 -82 57 -136t140 -54q82 0 137 53.5t55 134.5q0 82 -55.5 137.5t-138.5 55.5q-82 0 -138.5 -54.5t-56.5 -136.5
z" />
    <glyph glyph-name="zero.tf.zero" 
d="M288 680q111 0 179 -95t68 -251q0 -155 -68.5 -250t-178.5 -95q-112 0 -180.5 95t-68.5 250q0 156 68.5 251t180.5 95zM288 643q-93 0 -150.5 -85.5t-57.5 -223.5q0 -144 61 -228l280 473q-55 64 -133 64zM288 25q92 0 149.5 85.5t57.5 223.5q0 133 -54 219l-280 -472
q53 -56 127 -56z" />
    <glyph glyph-name="zero.tosf" horiz-adv-x="550" 
d="M274 -11q-105 0 -172.5 80t-67.5 201t68 202t172 81q105 0 173 -80.5t68 -202.5q0 -121 -67.5 -201t-173.5 -80zM274 27q87 0 143 69.5t56 173.5q0 105 -56 174t-143 69q-86 0 -141.5 -69t-55.5 -174q0 -104 55.5 -173.5t141.5 -69.5z" />
    <glyph glyph-name="one.tosf" horiz-adv-x="550" 
d="M320 542v-505h178v-37h-404v37h185v462l-180 -60v40l189 63h32z" />
    <glyph glyph-name="two.tosf" horiz-adv-x="550" 
d="M296 170l-165 -133h345v-37h-403v35l204 170q4 3 33.5 26t41 34.5t32 34t29 44t8.5 45.5q0 54 -42.5 90.5t-105.5 36.5q-66 0 -109.5 -41t-48.5 -105l-40 6q7 79 62 127.5t137 48.5q81 0 134.5 -46.5t53.5 -114.5q0 -25 -9.5 -50t-19.5 -42t-34 -41t-33 -32t-39 -31.5
t-31 -24.5z" />
    <glyph glyph-name="three.tosf" horiz-adv-x="550" 
d="M289 301q88 0 145.5 -57.5t57.5 -141.5q0 -90 -63 -150t-156 -60q-84 0 -146.5 50t-75.5 133l39 9q11 -70 63 -112t121 -42q74 0 125 49.5t51 123.5q0 69 -47.5 117t-123.5 48q-67 0 -123 -41l-22 28l272 250h-316v37h369v-36l-228 -214q31 9 58 9z" />
    <glyph glyph-name="four.tosf" horiz-adv-x="550" 
d="M428 114h87v-37h-87v-174h-41v174h-352v32l350 434h43v-429zM387 490l-300 -376h300v376z" />
    <glyph glyph-name="five.tosf" horiz-adv-x="550" 
d="M283 304q90 0 150 -57.5t60 -146.5q0 -88 -62.5 -148t-155.5 -60q-83 0 -146 50t-77 132l39 9q12 -69 64 -111.5t121 -42.5q73 0 124 50t51 125q0 73 -48.5 119.5t-125.5 46.5q-90 0 -164 -77l-33 19l39 330h338v-37h-304l-31 -263q70 62 161 62z" />
    <glyph glyph-name="six.tosf" horiz-adv-x="550" 
d="M281 422q94 0 159 -62t65 -154q0 -93 -66 -154.5t-163 -61.5q-99 0 -165 63t-66 155q0 91 76 191l182 239h49l-192 -251q52 35 121 35zM274 26q79 0 134 51t55 129t-56 129t-135 51q-78 0 -131.5 -50.5t-53.5 -126.5q0 -78 54 -130.5t133 -52.5z" />
    <glyph glyph-name="seven.tosf" horiz-adv-x="550" 
d="M77 504v38h393v-39l-300 -612h-48l306 613h-351z" />
    <glyph glyph-name="eight.tosf" horiz-adv-x="550" 
d="M362 334q66 -15 105 -59.5t39 -105.5q0 -79 -65 -130t-166 -51t-166 50.5t-65 129.5q0 60 39.5 104.5t105.5 60.5q-55 15 -89 54.5t-34 91.5q0 72 60 120t149 48t149 -48t60 -120q0 -51 -33.5 -90.5t-88.5 -54.5zM106 478q0 -57 47.5 -94t118.5 -37q73 0 122 38.5
t49 94.5q0 57 -48 94.5t-120 37.5t-120.5 -38.5t-48.5 -95.5zM275 24q81 0 134 41.5t53 105.5q0 62 -53 102t-134 40t-134 -40.5t-53 -103.5t53 -104t134 -41z" />
    <glyph glyph-name="nine.tosf" horiz-adv-x="550" 
d="M274 552q99 0 165 -62.5t66 -154.5q0 -86 -81 -193l-183 -239h-51l196 251q-52 -30 -117 -30q-94 0 -159 61t-65 152q0 92 66 153.5t163 61.5zM87 337q0 -77 55.5 -127.5t135.5 -50.5q78 0 131 50t53 126t-53.5 128t-132.5 52q-78 0 -133.5 -51t-55.5 -127z" />
    <glyph glyph-name="zero.tosf.zero" horiz-adv-x="550" 
d="M274 553q105 0 174.5 -81t69.5 -202q0 -120 -69.5 -200.5t-174.5 -80.5t-173.5 80t-68.5 201t68.5 202t173.5 81zM72 270q0 -119 70 -189l240 400q-48 34 -108 34q-87 0 -144.5 -70t-57.5 -175zM274 25q88 0 146 70.5t58 174.5q0 117 -71 190l-241 -400q49 -35 108 -35z
" />
    <glyph glyph-name="zero.dnom" horiz-adv-x="403" 
d="M202 -3q-72 0 -119.5 53t-47.5 133t47.5 132.5t119.5 52.5q71 0 118.5 -53t47.5 -132q0 -80 -47.5 -133t-118.5 -53zM202 28q56 0 94.5 44.5t38.5 110.5t-38.5 110.5t-94.5 44.5q-58 0 -96.5 -44.5t-38.5 -110.5t38.5 -110.5t96.5 -44.5z" />
    <glyph glyph-name="one.dnom" horiz-adv-x="319" 
d="M188 363v-330h114v-31h-269v31h120v291l-116 -52v33l124 58h27z" />
    <glyph glyph-name="two.dnom" horiz-adv-x="336" 
d="M186 115l-100 -82h220v-31h-271v27l132 112q5 5 23 18.5t26.5 21.5t20 21t17 27t5.5 30q0 34 -25.5 56.5t-66.5 22.5q-43 0 -71 -26.5t-31 -71.5l-34 4q4 58 42.5 91.5t93.5 33.5q57 0 92.5 -30.5t35.5 -78.5q0 -16 -6 -32.5t-12 -27t-22 -26.5t-21 -20.5t-26 -21
t-22 -17.5z" />
    <glyph glyph-name="three.dnom" horiz-adv-x="338" 
d="M181 231q55 0 91.5 -32.5t36.5 -80.5q0 -52 -41 -86.5t-101 -34.5q-55 0 -94.5 28.5t-47.5 75.5l31 9q6 -36 37.5 -60t73.5 -24q45 0 76 26.5t31 66.5q0 37 -29 63t-74 26q-39 0 -76 -22l-16 20l165 128h-195v29h239v-29l-135 -106q12 3 28 3z" />
    <glyph glyph-name="four.dnom" horiz-adv-x="345" 
d="M268 124h53v-27h-53v-95h-33v95h-215v26l204 240h44v-239zM235 334l-173 -210h173v210z" />
    <glyph glyph-name="five.dnom" horiz-adv-x="327" 
d="M170 239q55 0 91.5 -33.5t36.5 -85.5q0 -53 -38.5 -88t-96.5 -35q-52 0 -90 28.5t-46 75.5l32 7q6 -37 35.5 -59t68.5 -22q42 0 71 26.5t29 67.5q0 40 -27 66t-69 26q-53 0 -96 -46l-27 15l24 181h207v-29h-180l-18 -128q41 33 93 33z" />
    <glyph glyph-name="six.dnom" horiz-adv-x="322" 
d="M167 242q55 0 92.5 -35t37.5 -87q0 -53 -39 -88t-96 -35t-96 36t-39 88q0 55 45 111l103 131h39l-109 -137q26 16 62 16zM161 25q43 0 73 27.5t30 67.5q0 41 -29.5 68t-74.5 27q-42 0 -71 -26.5t-29 -66.5q0 -41 29 -69t72 -28z" />
    <glyph glyph-name="seven.dnom" horiz-adv-x="281" 
d="M23 333v30h238v-30l-179 -331h-40l181 331h-200z" />
    <glyph glyph-name="eight.dnom" horiz-adv-x="346" 
d="M229 192q38 -9 60.5 -33.5t22.5 -58.5q0 -44 -39 -73.5t-100 -29.5t-100 29t-39 73q0 34 22 59t61 34q-31 9 -50 31t-19 50q0 42 35.5 69t89.5 27t89.5 -27t35.5 -69q0 -28 -19 -50t-50 -31zM80 271q0 -30 26 -50t66 -20q41 0 68 20.5t27 50.5q0 31 -27 51.5t-67 20.5
t-66.5 -21t-26.5 -52zM173 23q45 0 75 23t30 57q0 32 -29.5 53.5t-74.5 21.5t-75.5 -22t-30.5 -55t30 -55.5t75 -22.5z" />
    <glyph glyph-name="nine.dnom" horiz-adv-x="320" 
d="M159 369q58 0 96.5 -36t38.5 -89q0 -24 -10 -49.5t-17.5 -36t-22.5 -30.5l-97 -126h-40l106 136q-28 -14 -59 -14q-54 0 -91.5 35t-37.5 86q0 54 38.5 89t95.5 35zM59 245q0 -40 29 -67.5t72 -27.5t71.5 27t28.5 67q0 41 -29 68.5t-71 27.5q-43 0 -72 -27t-29 -68z" />
    <glyph glyph-name="zero.numr" horiz-adv-x="403" 
d="M202 310q-72 0 -119.5 52.5t-47.5 132.5t47.5 132.5t119.5 52.5q71 0 118.5 -52.5t47.5 -132.5t-47.5 -132.5t-118.5 -52.5zM202 340q56 0 94.5 44.5t38.5 110.5t-38.5 110t-94.5 44q-58 0 -96.5 -44t-38.5 -110q0 -67 38.5 -111t96.5 -44z" />
    <glyph glyph-name="one.numr" horiz-adv-x="319" 
d="M188 676v-331h114v-30h-269v30h120v292l-116 -52v33l124 58h27z" />
    <glyph glyph-name="two.numr" horiz-adv-x="336" 
d="M186 428l-101 -83h221v-30h-271v27l132 112q5 5 23 18.5t26.5 21.5t20 21t17 27t5.5 30q0 34 -25.5 56.5t-66.5 22.5q-43 0 -71 -27t-31 -71l-34 4q4 58 42.5 91.5t93.5 33.5q56 0 92 -31t36 -78q0 -16 -6 -32.5t-13 -28t-21.5 -26t-22.5 -21.5t-25 -20.5t-21 -16.5z" />
    <glyph glyph-name="three.numr" horiz-adv-x="338" 
d="M180 544q55 0 91.5 -32.5t36.5 -80.5q0 -52 -41 -86.5t-101 -34.5q-55 0 -94.5 28.5t-47.5 75.5l32 8q6 -36 37 -59.5t74 -23.5q44 0 75 26.5t31 65.5q0 38 -28.5 64t-74.5 26q-37 0 -76 -23l-15 21l165 128h-195v29h238v-29l-136 -107q12 4 29 4z" />
    <glyph glyph-name="four.numr" horiz-adv-x="345" 
d="M268 437h54v-27h-54v-95h-33v95h-214v25l203 241h44v-239zM235 645l-172 -208h172v208z" />
    <glyph glyph-name="five.numr" horiz-adv-x="327" 
d="M170 552q55 0 91.5 -34t36.5 -86q0 -53 -38.5 -87.5t-96.5 -34.5q-52 0 -90 28.5t-46 75.5l32 7q6 -37 35.5 -59t68.5 -22q42 0 71 26.5t29 67.5q0 40 -27 66t-69 26q-52 0 -96 -46l-27 15l24 181h207v-29h-180l-18 -128q41 33 93 33z" />
    <glyph glyph-name="six.numr" horiz-adv-x="322" 
d="M167 555q55 0 92.5 -35t37.5 -87q0 -53 -39 -88t-96 -35t-96 36t-39 88q0 55 45 111l103 131h39l-109 -137q26 16 62 16zM161 338q43 0 73 27t30 68t-29.5 68t-74.5 27q-42 0 -71 -26.5t-29 -66.5q0 -41 29 -69t72 -28z" />
    <glyph glyph-name="seven.numr" horiz-adv-x="281" 
d="M23 646v30h238v-30l-179 -331h-40l182 331h-201z" />
    <glyph glyph-name="eight.numr" horiz-adv-x="346" 
d="M229 505q38 -9 60.5 -33.5t22.5 -58.5q0 -45 -39 -74t-100 -29t-100 28.5t-39 73.5q0 33 22 58t61 35q-31 9 -50 30.5t-19 49.5q0 42 35.5 69.5t89.5 27.5t89.5 -27t35.5 -70q0 -28 -19 -49.5t-50 -30.5zM80 584q0 -31 26 -50.5t66 -19.5q41 0 68 20.5t27 50.5
q0 31 -26.5 51t-67.5 20q-40 0 -66.5 -20.5t-26.5 -51.5zM173 336q45 0 75 22.5t30 56.5q0 32 -29.5 54t-74.5 22t-75.5 -22t-30.5 -55t30 -55.5t75 -22.5z" />
    <glyph glyph-name="nine.numr" horiz-adv-x="320" 
d="M159 682q58 0 96.5 -36t38.5 -89q0 -24 -10 -49.5t-17.5 -36t-22.5 -30.5l-97 -126h-40l106 136q-28 -14 -59 -14q-54 0 -91.5 35t-37.5 86q0 53 38.5 88.5t95.5 35.5zM59 558q0 -40 29 -67.5t72 -27.5t71.5 27t28.5 67t-29 68t-71 28q-43 0 -72 -27.5t-29 -67.5z" />
    <glyph glyph-name="colon.case" horiz-adv-x="213" 
d="M107 450q-16 0 -26.5 10t-10.5 26q0 14 11 25t26 11q14 0 25 -10.5t11 -25.5t-10.5 -25.5t-25.5 -10.5zM107 120q-16 0 -26.5 10.5t-10.5 25.5t10.5 25.5t26.5 10.5q15 0 25.5 -10.5t10.5 -25.5t-11 -25.5t-25 -10.5z" />
    <glyph glyph-name="semicolon.case" horiz-adv-x="194" 
d="M97 450q-16 0 -26.5 10t-10.5 26q0 14 11 25t26 11q14 0 25 -10.5t11 -25.5t-10.5 -25.5t-25.5 -10.5zM96 193q18 0 30 -12.5t12 -35.5q0 -31 -20.5 -83.5t-48.5 -89.5l-16 9q42 80 51 140q-4 -1 -11 -1q-17 0 -27 10.5t-10 24.5q0 16 11.5 27t28.5 11z" />
    <glyph glyph-name="exclamdown.case" horiz-adv-x="240" 
d="M121 679q15 0 25.5 -10t10.5 -25t-10.5 -25t-25.5 -10t-25.5 10.5t-10.5 24.5q0 15 10.5 25t25.5 10zM96 -34l5 566h38l7 -566h-50z" />
    <glyph glyph-name="questiondown.case" horiz-adv-x="500" 
d="M267 679q15 0 25.5 -10t10.5 -24t-10.5 -24.5t-25.5 -10.5q-14 0 -24 10t-10 25q0 14 10 24t24 10zM247 533h41v-69q0 -42 -15.5 -75.5t-38 -53.5t-49.5 -41t-49.5 -39t-38 -46.5t-15.5 -63.5q0 -71 52 -110.5t126 -39.5q53 0 101.5 24.5t77.5 77.5l34 -21
q-31 -59 -89.5 -88.5t-125.5 -29.5q-93 0 -156 51t-63 136q0 47 21.5 83t52 59t61 45.5t52 55.5t21.5 77v68z" />
    <glyph glyph-name="periodcentered.case" horiz-adv-x="210" 
d="M105 258q-15 0 -25.5 10t-10.5 25q0 14 10.5 24.5t25.5 10.5q14 0 24.5 -10t10.5 -25t-10.5 -25t-24.5 -10z" />
    <glyph glyph-name="questiondown.ss11.case" horiz-adv-x="505" 
d="M267 679q15 0 25.5 -10t10.5 -24t-10.5 -24.5t-25.5 -10.5q-14 0 -24 10t-10 25q0 14 10 24t24 10zM247 533h41v-69q0 -47 -21 -83.5t-51.5 -61t-61 -47.5t-51.5 -56.5t-21 -75.5q0 -69 49.5 -107t119.5 -38q71 0 124 40t63 132l39 -7q-7 -103 -74.5 -152.5t-153.5 -49.5
q-88 0 -149 49.5t-61 133.5q0 47 21.5 84t52 62t61 48.5t52 56.5t21.5 74v67z" />
    <glyph glyph-name="period.osf" horiz-adv-x="198" 
d="M99 -13q-15 0 -25.5 10t-10.5 25t10.5 25.5t25.5 10.5q14 0 24.5 -10.5t10.5 -25.5t-10.5 -25t-24.5 -10z" />
    <glyph glyph-name="comma.osf" horiz-adv-x="184" 
d="M94 57q17 0 29 -12.5t12 -34.5q0 -30 -20.5 -81.5t-47.5 -88.5l-16 8q39 73 51 138q-4 -1 -10 -1q-16 0 -26.5 10.5t-10.5 23.5q0 16 11.5 27t27.5 11z" />
    <glyph glyph-name="colon.osf" horiz-adv-x="204" 
d="M103 369q-15 0 -25.5 10t-10.5 25q0 14 10.5 24.5t25.5 10.5q14 0 24.5 -10t10.5 -25t-10.5 -25t-24.5 -10zM103 -13q-15 0 -25.5 10t-10.5 25t10.5 25.5t25.5 10.5q14 0 24.5 -10.5t10.5 -25.5t-10.5 -25t-24.5 -10z" />
    <glyph glyph-name="semicolon.osf" horiz-adv-x="216" 
d="M106 371q-15 0 -26 10.5t-11 26.5q0 15 11 26t26 11t26 -10.5t11 -26.5t-11 -26.5t-26 -10.5zM110 57q17 0 28.5 -12.5t11.5 -35.5q0 -29 -20 -81t-47 -89l-17 9q41 74 51 138q-4 -1 -10 -1q-17 0 -27 10.5t-10 23.5q0 16 11.5 27t28.5 11z" />
    <glyph glyph-name="numbersign.osf" horiz-adv-x="650" 
d="M617 393l-7 -32h-122l-40 -176h134l-7 -33h-135l-35 -152h-40l36 152h-207l-35 -152h-41l36 152h-124l9 33h123l42 176h-136l8 32h136l35 149h37l-34 -149h208l35 149h37l-34 -149h121zM202 185h207l41 176h-208z" />
    <glyph glyph-name="comma.ss03" horiz-adv-x="164" 
d="M58 -182h-35l41 207h45z" />
    <glyph glyph-name="semicolon.ss03" horiz-adv-x="249" 
d="M131 372q-16 0 -27 11t-11 27q0 15 11 26t27 11t27 -10.5t11 -26.5t-11 -27t-27 -11zM101 -182h-35l43 207h45z" />
    <glyph glyph-name="semicolon.case.ss03" horiz-adv-x="214" 
d="M101 451q-16 0 -26 10t-10 26q0 15 10.5 25.5t25.5 10.5t25.5 -10.5t10.5 -25.5q0 -16 -10.5 -26t-25.5 -10zM63 -59h-35l42 206h46z" />
    <glyph glyph-name="question.ss11" horiz-adv-x="506" 
d="M258 135h-41v68q0 40 15.5 72.5t38 53t49.5 42.5t49.5 41.5t38 49t15.5 65.5q0 69 -49 106.5t-120 37.5q-44 0 -81 -14t-68 -54t-38 -103l-38 8q7 103 74 152.5t154 49.5q88 0 148.5 -49.5t60.5 -133.5q0 -47 -21.5 -84.5t-52 -62.5t-61 -49t-52 -57t-21.5 -73v-66z
M238 -13q-14 0 -24.5 10t-10.5 25q0 14 10.5 24t24.5 10t24 -10t10 -24q0 -15 -10 -25t-24 -10z" />
    <glyph glyph-name="questiondown.ss11" horiz-adv-x="499" 
d="M264 510q15 0 25.5 -10t10.5 -25q0 -14 -10.5 -24t-25.5 -10q-14 0 -24 10t-10 24q0 15 10 25t24 10zM245 363h41v-68q0 -47 -21.5 -84t-52 -61t-60.5 -47.5t-51.5 -57t-21.5 -75.5q0 -69 49.5 -106.5t119.5 -37.5q44 0 81 14t68.5 54t38.5 103l37 -7q-3 -54 -25 -94.5
t-55.5 -63t-70.5 -33.5t-76 -11q-88 0 -149 49.5t-61 133.5q0 47 21.5 84t52 62t61.5 49t52.5 57t21.5 73v67z" />
    <glyph glyph-name="parenleft.case" horiz-adv-x="267" 
d="M251 -142h-44q-67 84 -111.5 204t-44.5 248q0 131 43 250.5t113 201.5h44q-157 -198 -157 -452q0 -238 157 -452z" />
    <glyph glyph-name="parenright.case" horiz-adv-x="267" 
d="M59 -142h-43q156 212 156 452q0 254 -156 452h43q71 -82 114 -201.5t43 -250.5q0 -129 -44.5 -249t-112.5 -203z" />
    <glyph glyph-name="braceleft.case" horiz-adv-x="327" 
d="M266 729q-112 0 -112 -129q0 -19 1 -29l8 -106q1 -13 1 -35q0 -53 -15.5 -80t-53.5 -38q38 -11 53.5 -38t15.5 -80q0 -22 -1 -35l-8 -106q-1 -10 -1 -29q0 -129 112 -129q22 0 42 4v-36q-23 -5 -49 -5q-48 0 -80.5 19t-45.5 50.5t-17 60.5t-2 60l8 110q2 28 2 37
q0 62 -22.5 80t-74.5 20v34q52 2 74.5 20t22.5 80q0 9 -2 37l-8 110q-1 7 -1 24q0 30 6 56t21 52.5t45.5 42t73.5 15.5q21 0 49 -4v-37q-20 4 -42 4z" />
    <glyph glyph-name="braceright.case" horiz-adv-x="327" 
d="M213 576l-8 -110q-1 -13 -1 -35q0 -63 21.5 -81.5t74.5 -20.5v-34q-53 -2 -74.5 -20.5t-21.5 -81.5q0 -22 1 -35l8 -110q1 -8 1 -24q0 -30 -6 -56.5t-20.5 -52.5t-45 -41.5t-74.5 -15.5q-26 0 -49 5v36q20 -4 42 -4q112 0 112 129q0 19 -1 29l-8 106q-1 13 -1 35
q0 54 15.5 80.5t54.5 37.5q-39 11 -54.5 37.5t-15.5 80.5q0 22 1 35l8 106q1 10 1 29q0 129 -112 129q-22 0 -42 -4v37q28 4 49 4q39 0 68.5 -13t44 -33.5t23.5 -46t9 -50.5v-47z" />
    <glyph glyph-name="bracketleft.case" horiz-adv-x="322" 
d="M305 -137h-206v899h206v-38h-165v-823h165v-38z" />
    <glyph glyph-name="bracketright.case" horiz-adv-x="322" 
d="M224 762v-899h-207v38h165v823h-165v38h207z" />
    <glyph glyph-name="hyphen.case" horiz-adv-x="464" 
d="M394 293h-324v38h324v-38z" />
    <glyph glyph-name="endash.case" horiz-adv-x="594" 
d="M524 293h-454v38h454v-38z" />
    <glyph glyph-name="emdash.case" horiz-adv-x="925" 
d="M855 293h-785v38h785v-38z" />
    <glyph glyph-name="guillemotleft.case" horiz-adv-x="489" 
d="M252 98h-49l-152 224l160 222h50l-161 -223zM422 98h-49l-151 224l159 222h50l-161 -223z" />
    <glyph glyph-name="guillemotright.case" horiz-adv-x="489" 
d="M267 322l-151 -224h-49l152 223l-161 223h49zM438 322l-151 -224h-50l152 223l-161 223h50z" />
    <glyph glyph-name="guilsinglleft.case" horiz-adv-x="320" 
d="M252 96h-50l-152 223l161 223h49l-161 -224z" />
    <glyph glyph-name="guilsinglright.case" horiz-adv-x="320" 
d="M270 319l-152 -223h-50l153 222l-162 224h50z" />
    <glyph glyph-name="quotesingle.ss05" horiz-adv-x="208" 
d="M115 728q21 0 38 -16t17 -45q0 -40 -31.5 -82.5t-74.5 -72.5l-12 18q62 47 62 89q0 11 -7.5 17.5t-16.5 9t-16.5 11.5t-7.5 23q0 22 15 35t34 13z" />
    <glyph glyph-name="quotesinglbase.ss10" horiz-adv-x="200" 
d="M98 69q21 0 37.5 -16t16.5 -45q0 -39 -31 -81.5t-74 -72.5l-12 17q62 49 62 89q0 16 -24.5 27.5t-24.5 34.5q0 22 15.5 34.5t34.5 12.5z" />
    <glyph glyph-name="quotedblbase.ss10" horiz-adv-x="344" 
d="M98 69q21 0 37.5 -16t16.5 -45q0 -39 -31 -81.5t-74 -72.5l-12 17q62 49 62 89q0 16 -24.5 27.5t-24.5 34.5q0 22 15.5 34.5t34.5 12.5zM243 69q21 0 37.5 -16t16.5 -45q0 -39 -31 -81.5t-74 -72.5l-13 17q62 49 62 89q0 16 -23.5 27.5t-23.5 34.5q0 22 15 34.5t34 12.5z
" />
    <glyph glyph-name="quotedblleft.ss10" horiz-adv-x="353" 
d="M100 516q-21 0 -37.5 16t-16.5 45q0 40 31 82t74 72l12 -17q-62 -47 -62 -90q0 -11 7.5 -17t17 -9t17 -11.5t7.5 -23.5q0 -22 -15.5 -34.5t-34.5 -12.5zM246 516q-21 0 -38 16t-17 45q0 40 31 81.5t74 72.5l14 -17q-63 -48 -63 -90q0 -11 7.5 -17t16.5 -9t16.5 -11.5
t7.5 -23.5q0 -22 -15.5 -34.5t-33.5 -12.5z" />
    <glyph glyph-name="quotedblright.ss10" horiz-adv-x="353" 
d="M115 728q21 0 38 -16t17 -45q0 -40 -31.5 -82.5t-74.5 -72.5l-12 18q62 47 62 89q0 11 -7.5 17.5t-16.5 9t-16.5 11.5t-7.5 23q0 22 15 35t34 13zM260 728q21 0 38 -16t17 -45q0 -40 -31 -82.5t-74 -72.5l-13 18q62 49 62 89q0 11 -7.5 17.5t-16.5 9t-16.5 11.5t-7.5 23
q0 22 15.5 35t33.5 13z" />
    <glyph glyph-name="quoteleft.ss10" horiz-adv-x="207" 
d="M100 516q-21 0 -37.5 16t-16.5 45q0 40 31 82t74 72l12 -17q-62 -47 -62 -90q0 -11 7.5 -17t17 -9t17 -11.5t7.5 -23.5q0 -22 -15.5 -34.5t-34.5 -12.5z" />
    <glyph glyph-name="quoteright.ss10" horiz-adv-x="208" 
d="M115 728q21 0 38 -16t17 -45q0 -40 -31.5 -82.5t-74.5 -72.5l-12 18q62 47 62 89q0 11 -7.5 17.5t-16.5 9t-16.5 11.5t-7.5 23q0 22 15 35t34 13z" />
    <glyph glyph-name="uni20BF.osf" horiz-adv-x="562" 
d="M408 288q49 -10 79 -48.5t30 -88.5q0 -64 -48.5 -107.5t-124.5 -43.5h-9v-114h-33v114h-75v-114h-34v114h-125v542h125v122h33v-122h76v122h33v-122h6q66 0 107 -39.5t41 -99.5q0 -38 -22 -69.5t-59 -45.5zM338 509h-232v-212h228q49 0 83 30t34 74q0 46 -31.5 77
t-81.5 31zM106 33h233q61 0 99.5 34t38.5 85q0 48 -33 80.5t-82 32.5h-256v-232z" />
    <glyph glyph-name="cent.osf" horiz-adv-x="544" 
d="M286 65q62 0 112.5 33.5t74.5 87.5l37 -16q-25 -60 -81.5 -99t-127.5 -43v-100h-36v100q-95 7 -158 74.5t-63 167.5q0 99 62.5 167.5t158.5 76.5v99h36v-98q72 -4 128.5 -43t80.5 -102l-38 -14q-23 54 -73 87t-113 33q-86 0 -143 -59t-57 -147t57.5 -146.5t142.5 -58.5z
" />
    <glyph glyph-name="dollar.osf" horiz-adv-x="525" 
d="M491 144q0 -66 -54 -107.5t-148 -46.5v-99h-40v98q-116 5 -209 61l17 35q94 -59 208 -59q86 0 135.5 31.5t49.5 83.5q0 15 -3.5 27.5t-12.5 22t-16.5 17t-24 14.5t-25.5 10.5t-30 8.5t-28.5 6.5t-31.5 5.5t-28 5q-45 8 -74.5 16.5t-62 24.5t-49 42.5t-16.5 63.5
q0 65 54.5 104.5t146.5 43.5v102h40v-103q92 -5 181 -50l-16 -33q-81 47 -185 47q-89 0 -134.5 -30t-45.5 -79q0 -70 108 -98q18 -5 54 -12l12 -2q6 -1 31 -5.5t35 -7t33 -8t34 -11t29 -13.5t27.5 -18t19.5 -23t14.5 -29.5t4.5 -35.5z" />
    <glyph glyph-name="Euro.osf" horiz-adv-x="588" 
d="M370 26q100 0 169 40v-37q-68 -40 -173 -40q-110 0 -184 60.5t-91 161.5h-60v31h56q-1 9 -1 28q0 20 1 29h-56v30h60q17 103 91 164t184 61q103 0 168 -42v-37q-62 41 -163 41q-94 0 -157.5 -50.5t-80.5 -136.5h314v-30h-319q-1 -9 -1 -29q0 -19 1 -28h319v-31h-314
q17 -85 80 -135t157 -50z" />
    </font>
</defs>
</svg>
