<?xml version="1.0" standalone="no"?>
<!DOCTYPE svg PUBLIC "-//W3C//DTD SVG 1.1//EN" "http://www.w3.org/Graphics/SVG/1.1/DTD/svg11.dtd" >
<svg xmlns="http://www.w3.org/2000/svg" xmlns:xlink="http://www.w3.org/1999/xlink" version="1.1">
<metadata>
Created by FontForge 20170731 at Tue Jul 14 08:18:36 2020
 By Aleksey,,,
Copyright (c) 2020 by Kastelov. All rights reserved.
</metadata>
<defs>
<font id="Kinetika-Regular" horiz-adv-x="585" >
  <font-face 
    font-family="Kinetika-Regular"
    font-weight="400"
    font-stretch="normal"
    units-per-em="1000"
    panose-1="0 0 5 0 0 0 0 0 0 0"
    ascent="768"
    descent="-232"
    x-height="479"
    cap-height="669"
    bbox="-388 -232 1098 911"
    underline-thickness="50"
    underline-position="-150"
    unicode-range="U+000D-2767"
  />
<missing-glyph horiz-adv-x="104" 
 />
    <glyph glyph-name=".notdef" horiz-adv-x="104" 
 />
    <glyph glyph-name=".null" horiz-adv-x="0" 
 />
    <glyph glyph-name="uni000D" horiz-adv-x="333" 
 />
    <glyph glyph-name="uni000D.1" unicode="&#xd;" horiz-adv-x="145" 
 />
    <glyph glyph-name="space" unicode=" " horiz-adv-x="224" 
 />
    <glyph glyph-name="exclam" unicode="!" horiz-adv-x="256" 
d="M84 703h89l-9 -547h-73zM93 74q14 15 36 15q21 0 36 -15t15 -36t-15 -35.5t-36 -14.5q-22 0 -36.5 14.5t-14.5 35.5t15 36z" />
    <glyph glyph-name="quotedbl" unicode="&#x22;" horiz-adv-x="356" 
d="M233 701h82l-44 -261h-61zM79 701h82l-44 -261h-61z" />
    <glyph glyph-name="numbersign" unicode="#" horiz-adv-x="672" 
d="M44 236h115l43 201h-132l11 55h133l38 177h64l-37 -177h184l37 177h65l-37 -177h113l-11 -55h-113l-41 -201h130l-10 -56h-132l-37 -180h-68l38 180h-184l-38 -180h-67l39 180h-115zM225 236h184l42 201h-184z" />
    <glyph glyph-name="dollar" unicode="$" horiz-adv-x="587" 
d="M41 68l29 58q107 -74 230 -74q84 0 132.5 34.5t48.5 91.5q0 27 -11.5 47.5t-29 33t-43 22t-49 15t-51.5 10.5q-11 2 -17 3q-50 9 -83.5 20t-69.5 30.5t-54.5 53.5t-18.5 80q0 80 57.5 129t155.5 57v127h71v-127q103 -8 194 -61l-26 -58q-91 58 -204 58q-88 0 -132 -33
t-44 -87q0 -26 11.5 -46t26.5 -32t42.5 -22t44.5 -14t48 -10q110 -23 148 -39q105 -46 105 -149q0 -82 -57.5 -134t-156.5 -61v-121h-71v120q-129 8 -226 78z" />
    <glyph glyph-name="percent" unicode="%" horiz-adv-x="770" 
d="M416 150q0 68 46.5 114.5t114.5 46.5t114.5 -46.5t46.5 -114.5t-46 -114q-47 -47 -115 -47t-114.5 46.5t-46.5 114.5zM80 634q46 46 114 46t114.5 -46.5t46.5 -114.5t-46.5 -115t-114.5 -47q-67 0 -113.5 47t-46.5 115t46 115zM85 0l523 669h65l-522 -669h-66zM470 150
q0 -49 30.5 -81t77.5 -32q46 0 76 32t30 81t-30 81t-76 32q-47 0 -77.5 -32t-30.5 -81zM88 519q0 -49 30 -81t76 -32q47 0 77.5 32t30.5 81q0 48 -31 80.5t-77 32.5t-76 -32.5t-30 -80.5z" />
    <glyph glyph-name="ampersand" unicode="&#x26;" horiz-adv-x="672" 
d="M194 354q-27 26 -44.5 45.5t-33.5 52.5t-16 67q0 66 52 113.5t139 47.5q85 0 132.5 -47.5t47.5 -112.5q0 -55 -41.5 -95t-127.5 -87l191 -177q53 55 74 130h65q-19 -94 -92 -173l127 -118h-87l-83 76q-98 -87 -234 -87q-106 0 -163.5 51.5t-57.5 124.5q0 122 152 189z
M157 80q42 -33 109 -33q99 0 184 72l-207 190q-128 -54 -128 -143q0 -54 42 -86zM168 517q0 -25 14 -51t29.5 -42.5t43.5 -41.5q81 41 114.5 72.5t33.5 65.5q0 45 -32 74t-82 29q-53 0 -87 -30t-34 -76z" />
    <glyph glyph-name="quotesingle" unicode="'" horiz-adv-x="203" 
d="M117 440h-61l23 261h82z" />
    <glyph glyph-name="parenleft" unicode="(" horiz-adv-x="280" 
d="M86 525q41 123 114 207h71q-152 -200 -152 -450q0 -236 152 -453h-71q-70 84 -112.5 208.5t-42.5 243.5q0 121 41 244z" />
    <glyph glyph-name="parenright" unicode=")" horiz-adv-x="279" 
d="M8 -171q152 215 152 453q0 250 -152 450h71q73 -84 114 -207t41 -244q0 -119 -42.5 -243.5t-112.5 -208.5h-71z" />
    <glyph glyph-name="asterisk" unicode="*" horiz-adv-x="448" 
d="M47 633l31 54h5l121 -87l-13 147l2 5h62l3 -5l-14 -147l122 87h3l32 -54l-3 -5l-135 -63l134 -59l4 -4l-32 -55h-4l-121 85l14 -146l-3 -7h-62l-2 7l13 146l-120 -85h-6l-31 55l4 4l133 59l-135 62z" />
    <glyph glyph-name="plus" unicode="+" horiz-adv-x="496" 
d="M215 354v182h66v-182h180v-61h-180v-183h-66v183h-180v61h180z" />
    <glyph glyph-name="comma" unicode="," horiz-adv-x="203" 
d="M105 -14q-5 -1 -10 -1q-20 0 -35.5 14t-15.5 35q0 23 16 39t39 16q25 0 42 -17.5t17 -46.5q0 -38 -29 -95.5t-67 -102.5l-22 16q50 81 65 143z" />
    <glyph glyph-name="hyphen" unicode="-" horiz-adv-x="479" 
d="M415 243h-351v65h351v-65z" />
    <glyph glyph-name="period" unicode="." horiz-adv-x="219" 
d="M72 77q15 15 38 15q22 0 37 -15t15 -37t-15 -37.5t-37 -15.5q-23 0 -38.5 15.5t-15.5 37.5t16 37z" />
    <glyph glyph-name="slash" unicode="/" horiz-adv-x="478" 
d="M100 -109h-76l356 847h76z" />
    <glyph glyph-name="zero" unicode="0" horiz-adv-x="634" 
d="M126 584q74 96 192 96q116 0 190.5 -96t74.5 -250t-74.5 -249.5t-190.5 -95.5q-118 0 -192.5 95.5t-74.5 249.5t75 250zM126 334q0 -123 54 -199.5t138 -76.5q83 0 136.5 76.5t53.5 199.5q0 124 -53.5 200.5t-136.5 76.5q-84 0 -138 -77t-54 -200z" />
    <glyph glyph-name="one" unicode="1" horiz-adv-x="367" 
d="M20 614l197 55h51v-669h-74v596l-174 -47v65z" />
    <glyph glyph-name="two" unicode="2" horiz-adv-x="550" 
d="M114 621q63 59 158 59q97 0 158.5 -58.5t61.5 -145.5q0 -17 -3.5 -34.5t-8 -32t-14.5 -31.5t-16.5 -28.5t-21.5 -28.5t-22 -25t-24.5 -24.5t-23.5 -22t-24.5 -21.5t-21.5 -19l-163 -145h357v-65h-460v58l228 211q6 6 35 31.5t41.5 38.5t32 37t28 47.5t8.5 49.5
q0 62 -42.5 103t-107.5 41t-107.5 -45t-47.5 -117l-69 9q5 98 69 158z" />
    <glyph glyph-name="three" unicode="3" horiz-adv-x="563" 
d="M98 200q11 -67 60.5 -107.5t117.5 -40.5q71 0 120 47t49 117q0 67 -46 112t-118 45q-64 0 -120 -39l-32 44l263 226h-319v64h411v-59l-219 -191q24 4 39 4q94 0 154.5 -58.5t60.5 -149.5q0 -97 -69 -161t-175 -64q-95 0 -162.5 53t-82.5 143z" />
    <glyph glyph-name="four" unicode="4" horiz-adv-x="582" 
d="M362 669h95v-436h91v-63h-91v-170h-73v170h-363v58zM106 233h278v370z" />
    <glyph glyph-name="five" unicode="5" horiz-adv-x="567" 
d="M105 198q12 -67 62 -106.5t116 -39.5q71 0 120 47t49 118q0 70 -47 114.5t-121 44.5q-88 0 -158 -74l-59 30l43 337h377v-64h-318l-31 -232q70 59 161 59q99 0 163 -61.5t64 -157.5t-68.5 -160t-174.5 -64q-94 0 -162 52t-84 140z" />
    <glyph glyph-name="six" unicode="6" horiz-adv-x="563" 
d="M37 223q0 102 83 209l181 237h86l-193 -250q47 26 106 26q97 0 164 -64t67 -160q0 -101 -70.5 -166.5t-176.5 -65.5t-176.5 67t-70.5 167zM160 100q49 -50 122 -50t123.5 48.5t50.5 121.5t-50.5 121.5t-123.5 48.5q-74 0 -123 -47.5t-49 -120.5t50 -122z" />
    <glyph glyph-name="seven" unicode="7" horiz-adv-x="480" 
d="M27 604v65h434v-62l-315 -607h-86l320 604h-353z" />
    <glyph glyph-name="eight" unicode="8" horiz-adv-x="622" 
d="M48 182q0 61 38.5 106t106.5 64q-54 18 -86.5 57.5t-32.5 91.5q0 77 67 128t169 51q103 0 170.5 -51t67.5 -128q0 -51 -32 -90.5t-86 -57.5q67 -19 105.5 -64.5t38.5 -104.5q0 -86 -73 -140.5t-190 -54.5q-116 0 -189.5 54t-73.5 139zM179 89q51 -39 132 -39
q80 0 132 38.5t52 99.5q0 59 -51.5 96.5t-131.5 37.5q-81 0 -133 -38t-52 -98q0 -59 52 -97zM191 408q46 -35 116 -35q72 0 121 36t49 89t-47.5 88t-118.5 35t-118 -36q-48 -36 -48 -89t46 -88z" />
    <glyph glyph-name="nine" unicode="9" horiz-adv-x="562" 
d="M31 448q0 100 70.5 166t175.5 66q107 0 177.5 -67.5t70.5 -167.5q0 -44 -17.5 -90t-32.5 -68t-44 -61l-171 -226h-85l187 246q-45 -22 -99 -22q-99 0 -165.5 64t-66.5 160zM104 449q0 -73 50.5 -121.5t124.5 -48.5q73 0 122 47.5t49 120.5t-49.5 122t-123.5 49
q-72 0 -122.5 -48t-50.5 -121z" />
    <glyph glyph-name="colon" unicode=":" horiz-adv-x="227" 
d="M77 444q15 16 38 16q21 0 36.5 -16t15.5 -38t-15.5 -37t-36.5 -15q-23 0 -38.5 15t-15.5 37t16 38zM77 77q15 15 38 15q21 0 36.5 -15t15.5 -37t-15.5 -37.5t-36.5 -15.5q-23 0 -38.5 15.5t-15.5 37.5t16 37z" />
    <glyph glyph-name="semicolon" unicode=";" horiz-adv-x="241" 
d="M62 -157q48 78 64 143q-3 -1 -10 -1q-22 0 -36.5 15t-14.5 34q0 23 16 39t40 16q25 0 41.5 -17.5t16.5 -46.5q0 -38 -29 -95.5t-67 -102.5zM79 448q16 16 39 16t39 -16t16 -39q0 -22 -16 -37q-16 -16 -39 -16t-39 15.5t-16 37.5q0 23 16 39z" />
    <glyph glyph-name="less" unicode="&#x3c;" horiz-adv-x="457" 
d="M397 523v-74l-292 -133l292 -135v-75l-367 177v65z" />
    <glyph glyph-name="equal" unicode="=" horiz-adv-x="509" 
d="M440 466v-69h-371v69h371zM69 184v68h371v-68h-371z" />
    <glyph glyph-name="greater" unicode="&#x3e;" horiz-adv-x="457" 
d="M427 348v-65l-367 -177v75l292 135l-292 133v74z" />
    <glyph glyph-name="question" unicode="?" horiz-adv-x="515" 
d="M25 590q31 59 91 90t133 31q99 0 163.5 -52t64.5 -139q0 -46 -21 -81.5t-50.5 -58t-59 -44t-50.5 -52t-21 -69.5v-60h-72v63q0 40 14.5 72t37 51.5t48 39.5t48 37t37 43t14.5 57q0 61 -46 95t-111 34q-111 0 -163 -93zM191 36q0 20 14.5 34t34.5 14t34 -14t14 -34
t-14 -34t-34 -14t-34.5 14t-14.5 34z" />
    <glyph glyph-name="at" unicode="@" horiz-adv-x="825" 
d="M148 503q105 105 270 105q160 0 262.5 -95t102.5 -235q0 -98 -52.5 -160t-124.5 -62q-39 0 -65.5 20t-34.5 53q-50 -74 -134 -74q-64 0 -106 47t-42 120q0 81 51 138t123 57q79 0 119 -69l4 60h54l-16 -231v-6q0 -26 15.5 -44.5t42.5 -18.5q44 0 77.5 47t33.5 118
q0 119 -88 201t-222 82q-141 0 -230.5 -93t-89.5 -227q0 -135 88.5 -224.5t228.5 -89.5q67 0 133 22t115 59l23 -42q-51 -42 -127 -66t-151 -24q-159 0 -262 103t-103 263q0 161 105 266zM312 142q29 -34 75 -34q44 0 79.5 33t40.5 84l2 21v1q0 50 -29 83t-75 33
q-51 0 -87 -40t-36 -98q0 -50 30 -83z" />
    <glyph glyph-name="A" unicode="A" horiz-adv-x="662" 
d="M294 669h78l273 -669h-80l-69 177h-330l-70 -177h-80zM190 241h282l-138 356z" />
    <glyph glyph-name="B" unicode="B" horiz-adv-x="683" 
d="M90 669h332q83 0 133 -49.5t50 -122.5q0 -48 -25 -86t-68 -56q57 -14 90.5 -59t33.5 -108q0 -82 -58.5 -135t-156.5 -53h-331v669zM163 314v-252h253q65 0 105.5 36.5t40.5 93.5q0 52 -36 87t-89 35h-274zM163 375h244q53 0 89 32.5t36 81.5q0 51 -34 84.5t-87 33.5h-248
v-232z" />
    <glyph glyph-name="C" unicode="C" horiz-adv-x="722" 
d="M141 581q97 99 242 99q107 0 190 -56t120 -151l-66 -31q-30 76 -96 123t-149 47q-111 0 -188 -80.5t-77 -197.5t77 -197t189 -80q81 0 146.5 45t95.5 120l68 -29q-37 -93 -120.5 -148.5t-189.5 -55.5q-145 0 -242 98.5t-97 246.5t97 247z" />
    <glyph glyph-name="D" unicode="D" horiz-adv-x="708" 
d="M90 669h236q154 0 244.5 -93t90.5 -242t-86.5 -241.5t-234.5 -92.5h-250v669zM341 68q111 0 177.5 74.5t66.5 192.5t-67.5 192t-182.5 74h-172v-533h178z" />
    <glyph glyph-name="E" unicode="E" horiz-adv-x="611" 
d="M90 0v669h463v-65h-390v-233h376v-65h-376v-241h401v-65h-474z" />
    <glyph glyph-name="F" unicode="F" horiz-adv-x="572" 
d="M90 669h451v-66h-378v-237h351v-65h-351v-301h-73v669z" />
    <glyph glyph-name="G" unicode="G" horiz-adv-x="755" 
d="M45 335q0 149 96.5 247.5t246.5 98.5q93 0 172 -46t121 -124l-59 -43q-31 66 -95 105t-137 39q-120 0 -195 -79t-75 -198q0 -121 76.5 -200t193.5 -79q109 0 179 68t70 171h-267v65h343v-43q0 -143 -92 -236t-235 -93q-149 0 -246 97.5t-97 249.5z" />
    <glyph glyph-name="H" unicode="H" horiz-adv-x="733" 
d="M90 669h75v-306h403v306h75v-669h-75v294h-403v-294h-75v669z" />
    <glyph glyph-name="I" unicode="I" horiz-adv-x="253" 
d="M90 0v669h74v-669h-74z" />
    <glyph glyph-name="J" unicode="J" horiz-adv-x="482" 
d="M144 58q90 0 136 47t46 122v442h74v-454q0 -104 -64.5 -165t-181.5 -61q-67 0 -131 20v67q63 -18 121 -18z" />
    <glyph glyph-name="K" unicode="K" horiz-adv-x="621" 
d="M164 669v-317l345 317h94l-364 -335l378 -334h-99l-354 310v-310h-74v669h74z" />
    <glyph glyph-name="L" unicode="L" horiz-adv-x="552" 
d="M529 0h-439v669h74v-603h365v-66z" />
    <glyph glyph-name="M" unicode="M" horiz-adv-x="884" 
d="M160 669l281 -443l282 443h71v-669h-72v542l-255 -399h-51l-254 398v-541h-72v669h70z" />
    <glyph glyph-name="N" unicode="N" horiz-adv-x="738" 
d="M90 0v669h70l417 -553v553h71v-669h-68l-419 553v-553h-71z" />
    <glyph glyph-name="O" unicode="O" horiz-adv-x="766" 
d="M141 581q97 99 242 99t241 -99t96 -247t-96 -246.5t-241 -98.5q-146 0 -242.5 98.5t-96.5 246.5t97 247zM117 334q0 -116 77 -196.5t189 -80.5q111 0 187.5 80.5t76.5 196.5q0 117 -76.5 197.5t-187.5 80.5q-112 0 -189 -80.5t-77 -197.5z" />
    <glyph glyph-name="P" unicode="P" horiz-adv-x="648" 
d="M383 669q104 0 169 -63t65 -162q0 -101 -65.5 -164t-174.5 -63h-214v-217h-73v669h293zM370 281q77 0 124.5 45.5t47.5 116.5t-46 116t-121 45h-212v-323h207z" />
    <glyph glyph-name="Q" unicode="Q" horiz-adv-x="769" 
d="M141 581q97 99 242 99t241 -99t96 -247q0 -129 -74.5 -222.5t-193.5 -116.5q67 -86 187 -86q47 0 96 15v-67q-55 -15 -110 -15q-170 0 -259 147q-139 7 -230.5 104t-91.5 241q0 148 97 247zM194 138q77 -81 189 -81q111 0 187.5 80.5t76.5 196.5q0 117 -76.5 197.5
t-187.5 80.5q-112 0 -189 -80.5t-77 -197.5q0 -116 77 -196z" />
    <glyph glyph-name="R" unicode="R" horiz-adv-x="659" 
d="M385 669q99 0 162.5 -61t63.5 -155q0 -84 -50.5 -140.5t-132.5 -69.5l185 -243h-89l-174 235h-187v-235h-73v669h295zM163 299h202q77 0 124.5 40.5t47.5 110.5q0 67 -45.5 111t-117.5 44h-211v-306z" />
    <glyph glyph-name="S" unicode="S" horiz-adv-x="627" 
d="M32 79l31 60q108 -84 262 -84q84 0 136 34.5t52 95.5q0 26 -12 45.5t-29.5 31.5t-47.5 21t-53.5 13.5t-60.5 9.5q-40 6 -66 11t-65 19t-62.5 32t-41 50t-17.5 73q0 91 69.5 140t190.5 49q130 0 246 -58l-30 -59q-105 53 -217 53q-90 0 -137 -32.5t-47 -88.5
q0 -31 16 -53.5t47 -36t59 -20.5t71 -13q34 -5 51.5 -8t50.5 -10.5t51.5 -15t42.5 -22t36.5 -31.5t22 -42t9.5 -55q0 -99 -75.5 -148.5t-196.5 -49.5q-167 0 -286 89z" />
    <glyph glyph-name="T" unicode="T" horiz-adv-x="566" 
d="M22 669h522v-65h-224v-604h-74v604h-224v65z" />
    <glyph glyph-name="U" unicode="U" horiz-adv-x="707" 
d="M155 669v-412q0 -86 55.5 -141.5t142.5 -55.5q86 0 142.5 55.5t56.5 141.5v412h74v-416q0 -117 -76 -190q-77 -74 -197 -74t-196 73.5t-76 190.5v416h74z" />
    <glyph glyph-name="V" unicode="V" horiz-adv-x="659" 
d="M17 669h81l232 -587l230 587h81l-271 -669h-83z" />
    <glyph glyph-name="W" unicode="W" horiz-adv-x="951" 
d="M23 669h78l165 -571l176 571h65l179 -569l163 569h77l-202 -669h-76l-173 560l-173 -560h-77z" />
    <glyph glyph-name="X" unicode="X" horiz-adv-x="610" 
d="M258 341l-239 328h88l198 -275l201 275h88l-244 -330l249 -339h-88l-207 284l-210 -284h-86z" />
    <glyph glyph-name="Y" unicode="Y" horiz-adv-x="633" 
d="M22 669h85l209 -362l212 362h85l-260 -437v-232h-74v232z" />
    <glyph glyph-name="Z" unicode="Z" horiz-adv-x="577" 
d="M540 608l-419 -543h430v-65h-522v60l423 544h-412v65h500v-61z" />
    <glyph glyph-name="bracketleft" unicode="[" horiz-adv-x="343" 
d="M90 732h234v-65h-162v-769h162v-65h-234v899z" />
    <glyph glyph-name="backslash" unicode="\" horiz-adv-x="477" 
d="M97 738l356 -847h-76l-355 847h75z" />
    <glyph glyph-name="bracketright" unicode="]" horiz-adv-x="343" 
d="M19 667v65h234v-899h-234v65h163v769h-163z" />
    <glyph glyph-name="asciicircum" unicode="^" horiz-adv-x="522" 
d="M222 669h78l181 -284h-77l-143 225l-143 -225h-78z" />
    <glyph glyph-name="underscore" unicode="_" horiz-adv-x="545" 
d="M545 -120h-545v62h545v-62z" />
    <glyph glyph-name="grave" unicode="`" horiz-adv-x="236" 
d="M139 682l48 -139h-72l-67 139h91z" />
    <glyph glyph-name="a" unicode="a" horiz-adv-x="615" 
d="M109 418q67 71 169 71q61 0 109.5 -28t79.5 -76v94h70v-479h-70v94q-67 -105 -190 -105q-101 0 -168.5 71t-67.5 179t68 179zM165 108q50 -53 125 -53t125.5 53.5t50.5 132.5q0 77 -50.5 129.5t-124.5 52.5q-75 0 -125.5 -52.5t-50.5 -131.5t50 -131z" />
    <glyph glyph-name="b" unicode="b" horiz-adv-x="613" 
d="M152 702v-310q68 96 187 96q99 0 165.5 -71.5t66.5 -177.5q0 -107 -66 -178.5t-164 -71.5q-122 0 -190 99v-88h-73v702h74zM200 108q51 -53 127 -53q73 0 122 53t49 131q0 77 -49.5 130t-122.5 53q-75 0 -126 -52.5t-51 -130.5t51 -131z" />
    <glyph glyph-name="c" unicode="c" horiz-adv-x="558" 
d="M113 418q72 71 182 71q83 0 145.5 -42t86.5 -113l-68 -21q-18 49 -63.5 79.5t-100.5 30.5q-79 0 -130 -52t-51 -132t51 -132t129 -52q55 0 101 31t66 80l65 -29q-26 -65 -89.5 -106.5t-145.5 -41.5q-108 0 -179 70.5t-71 178.5q0 109 72 180z" />
    <glyph glyph-name="d" unicode="d" horiz-adv-x="613" 
d="M108 417q67 71 167 71q119 0 187 -97v311h73v-702h-72v90q-67 -101 -190 -101q-99 0 -165.5 71.5t-66.5 178.5q0 106 67 178zM164 108q49 -53 122 -53q77 0 128 52.5t51 131.5q0 78 -51 130.5t-127 52.5q-73 0 -122.5 -52.5t-49.5 -130.5q0 -79 49 -131z" />
    <glyph glyph-name="e" unicode="e" horiz-adv-x="576" 
d="M113 418q71 70 180 70q105 0 173.5 -67.5t68.5 -170.5q0 -20 -2 -38h-420q8 -71 58 -117t123 -46q52 0 95 24.5t65 66.5l58 -28q-26 -56 -86 -89.5t-134 -33.5q-110 0 -180.5 71t-70.5 179t72 179zM113 269h351q-6 70 -54.5 115.5t-117.5 45.5q-70 0 -120.5 -45.5
t-58.5 -115.5z" />
    <glyph glyph-name="f" unicode="f" horiz-adv-x="395" 
d="M109 479v51q0 85 49 134t136 49q60 0 104 -18v-64q-39 16 -92 16q-59 0 -91 -32.5t-32 -92.5v-43h196v-62h-196v-417h-74v417h-88v62h88z" />
    <glyph glyph-name="g" unicode="g" horiz-adv-x="615" 
d="M110 418q67 70 168 70q124 0 189 -100v91h72v-450q0 -118 -68 -180.5t-193 -62.5q-107 0 -193 49v70q83 -55 188 -55q93 0 143.5 46.5t50.5 133.5v69q-30 -47 -79.5 -74.5t-110.5 -27.5q-101 0 -168 69.5t-67 175.5t68 176zM116 240q0 -76 49.5 -126.5t124.5 -50.5
q76 0 125.5 51t49.5 129t-49.5 129t-124.5 51q-76 0 -125.5 -52t-49.5 -131z" />
    <glyph glyph-name="h" unicode="h" horiz-adv-x="593" 
d="M78 703h74v-305q60 90 173 90q87 0 143 -57t56 -144v-287h-74v268q0 65 -40 108t-101 43q-67 0 -112 -52t-45 -130v-237h-74v703z" />
    <glyph glyph-name="i" unicode="i" horiz-adv-x="230" 
d="M78 479h74v-479h-74v479zM77 649q16 15 38 15q23 0 38.5 -15.5t15.5 -37.5q0 -23 -15 -38q-16 -16 -39 -16t-38.5 15.5t-15.5 38.5q0 22 16 38z" />
    <glyph glyph-name="j" unicode="j" horiz-adv-x="243" 
d="M-79 -137q44 -10 72 -10q54 0 76 25.5t22 86.5v514h74v-541q0 -71 -42 -111.5t-119 -40.5q-42 0 -83 12v65zM90 649q16 15 39 15q22 0 37.5 -15.5t15.5 -37.5q0 -23 -15.5 -38.5t-37.5 -15.5q-23 0 -39 15.5t-16 38.5q0 22 16 38z" />
    <glyph glyph-name="k" unicode="k" horiz-adv-x="514" 
d="M150 701v-445l255 223h91l-274 -238l283 -241h-99l-256 219v-219h-72v701h72z" />
    <glyph glyph-name="l" unicode="l" horiz-adv-x="229" 
d="M152 701v-701h-74v701h74z" />
    <glyph glyph-name="m" unicode="m" horiz-adv-x="917" 
d="M149 479v-82q26 42 71 66.5t96 24.5q54 0 97.5 -27t64.5 -73q26 45 75 72.5t106 27.5q85 0 137.5 -53t52.5 -138v-297h-74v285q0 62 -36 99.5t-93 37.5q-63 0 -104.5 -45t-41.5 -119v-258h-74v276q0 66 -33.5 106t-93.5 40q-63 0 -105 -45.5t-42 -120.5v-256h-74v479h71z
" />
    <glyph glyph-name="n" unicode="n" horiz-adv-x="592" 
d="M149 479v-90q30 50 77.5 74.5t99.5 24.5q86 0 141.5 -57t55.5 -144v-287h-73v271q0 65 -40.5 108t-100.5 43q-67 0 -112 -52t-45 -130v-240h-74v479h71z" />
    <glyph glyph-name="o" unicode="o" horiz-adv-x="587" 
d="M112 418q72 71 181 71t181 -71.5t72 -178.5q0 -108 -72 -179t-181 -71q-108 0 -180.5 71.5t-72.5 178.5t72 179zM113 239q0 -79 52 -131q52 -53 129 -53t128.5 53t51.5 131q0 79 -51.5 131.5t-128.5 52.5t-129 -52.5t-52 -131.5z" />
    <glyph glyph-name="p" unicode="p" horiz-adv-x="614" 
d="M78 479h73v-89q31 46 80 72t108 26q100 0 166.5 -71.5t66.5 -178.5q0 -106 -66.5 -177.5t-165.5 -71.5q-122 0 -188 98v-288h-74v680zM200 107q51 -53 126 -53q74 0 123.5 52.5t49.5 131.5q0 78 -50 131t-124 53t-125 -52.5t-51 -130.5q0 -79 51 -132z" />
    <glyph glyph-name="q" unicode="q" horiz-adv-x="612" 
d="M41 238q0 107 66.5 178.5t166.5 71.5q121 0 188 -99v90h73v-680h-74v288q-67 -98 -187 -98q-99 0 -166 71.5t-67 177.5zM115 238q0 -79 49.5 -131.5t123.5 -52.5q75 0 126 53t51 132q0 78 -51.5 130.5t-127.5 52.5q-73 0 -122 -53t-49 -131z" />
    <glyph glyph-name="r" unicode="r" horiz-adv-x="386" 
d="M78 0v479h71v-78q49 88 156 88q31 0 64 -9l-1 -71q-31 11 -71 11q-65 0 -106 -44t-41 -117v-259h-72z" />
    <glyph glyph-name="s" unicode="s" horiz-adv-x="502" 
d="M32 54l29 57q89 -60 200 -60q59 0 98 20t39 60q0 45 -60 64q-24 7 -95 19q-34 6 -55.5 10.5t-49.5 14.5t-44.5 23.5t-28 35.5t-11.5 51q0 66 53.5 103.5t147.5 37.5q99 0 190 -41l-20 -58q-89 40 -172 40q-61 0 -95 -21t-34 -58q0 -17 7.5 -29t17 -19.5t30.5 -13.5
t35.5 -8.5t44.5 -7.5q41 -7 67 -12.5t56 -16t46.5 -24.5t27.5 -36t11 -51q0 -70 -59 -107t-153 -37q-127 0 -223 64z" />
    <glyph glyph-name="t" unicode="t" horiz-adv-x="375" 
d="M22 479h88v179h72v-179h167v-62h-167v-264q0 -50 21 -74t73 -24q44 0 91 18v-62q-52 -22 -106 -22q-74 0 -112.5 41t-38.5 113v274h-88v62z" />
    <glyph glyph-name="u" unicode="u" horiz-adv-x="592" 
d="M142 479v-272q0 -66 40 -108.5t100 -42.5q66 0 113 50t47 125v248h73v-479h-71v91q-30 -51 -78 -76t-102 -25q-87 0 -141 58t-54 152v279h73z" />
    <glyph glyph-name="v" unicode="v" horiz-adv-x="536" 
d="M96 479l171 -393h2l171 393h81l-215 -479h-76l-214 479h80z" />
    <glyph glyph-name="w" unicode="w" horiz-adv-x="790" 
d="M16 479h81l135 -395l129 395h71l128 -393l133 393h81l-178 -479h-73l-127 399l-129 -399h-73z" />
    <glyph glyph-name="x" unicode="x" horiz-adv-x="511" 
d="M209 242l-190 237h85l152 -192l154 192h84l-192 -239l196 -240h-86l-157 194l-158 -194h-84z" />
    <glyph glyph-name="y" unicode="y" horiz-adv-x="549" 
d="M93 479l190 -433l172 433h77l-210 -514q-15 -36 -28 -60.5t-37 -55.5t-59.5 -47.5t-80.5 -16.5q-47 0 -96 18v68q43 -20 88 -20q88 0 129 97l8 19l-231 512h78z" />
    <glyph glyph-name="z" unicode="z" horiz-adv-x="474" 
d="M446 0h-419v51l312 365h-293v63h388v-49l-310 -368h322v-62z" />
    <glyph glyph-name="braceleft" unicode="{" horiz-adv-x="349" 
d="M25 256v50q30 2 43.5 4.5t29.5 11.5t22 29.5t6 54.5q0 10 -2 38l-8 106q-1 7 -1 23q0 68 36 115.5t116 47.5q33 0 60 -7v-58q-22 3 -42 3q-102 0 -102 -113q0 -18 1 -27l8 -94q2 -30 2 -44q0 -54 -16.5 -79.5t-55.5 -35.5q39 -10 55.5 -35.5t16.5 -79.5q0 -14 -2 -44
l-8 -94q-1 -9 -1 -26q0 -113 102 -113q27 0 42 2v-58q-27 -7 -60 -7q-46 0 -78.5 17t-48 45.5t-20.5 55t-5 50.5q0 9 1 18l8 106q2 28 2 38q0 34 -6 54.5t-22 29.5t-29.5 11.5t-43.5 4.5z" />
    <glyph glyph-name="bar" unicode="|" horiz-adv-x="248" 
d="M157 -214h-66v1044h66v-1044z" />
    <glyph glyph-name="braceright" unicode="}" horiz-adv-x="349" 
d="M22 671v58q27 7 60 7q46 0 78.5 -17t48.5 -45.5t21 -55t5 -50.5q0 -9 -1 -18l-8 -106q-2 -30 -2 -40q0 -27 5 -45t11.5 -28t22 -15.5t26.5 -6.5t35 -3v-50q-24 -2 -35 -3t-26.5 -6.5t-22 -15.5t-11.5 -28t-5 -45q0 -10 2 -40l8 -106q1 -7 1 -20q0 -44 -12.5 -79
t-48.5 -61t-92 -26q-33 0 -60 7v58q15 -2 42 -2q102 0 102 115q0 16 -1 24l-8 94q-2 32 -2 47q0 52 17 77t55 35q-38 10 -55 35t-17 77q0 15 2 47l8 94q1 9 1 25q0 115 -102 115q-20 0 -42 -3z" />
    <glyph glyph-name="asciitilde" unicode="~" horiz-adv-x="607" 
d="M115 363q39 37 90 37q37 0 71.5 -22.5t66 -45t59.5 -22.5q61 0 76 75h69q-9 -66 -47.5 -104.5t-92.5 -38.5q-37 0 -73 22.5t-67.5 45t-58.5 22.5q-58 0 -73 -76h-69q9 70 49 107z" />
    <glyph glyph-name="exclamdown" unicode="&#xa1;" horiz-adv-x="229" 
d="M78 333h73l9 -547h-90zM79 486q15 15 37 15q20 0 35 -15t15 -35q0 -21 -15 -36t-35 -15q-22 0 -37 15t-15 36q0 20 15 35z" />
    <glyph glyph-name="cent" unicode="&#xa2;" horiz-adv-x="566" 
d="M106 501q62 69 159 80v98h56v-97q74 -6 130 -47.5t79 -106.5l-68 -22q-18 49 -63.5 79.5t-100.5 30.5q-79 0 -130 -52t-51 -132t51 -132t130 -52q54 0 100 31t66 80l65 -29q-24 -60 -79.5 -100t-128.5 -47v-104h-56v104q-97 11 -159 79.5t-62 168.5q0 101 62 170z" />
    <glyph glyph-name="sterling" unicode="&#xa3;" horiz-adv-x="560" 
d="M48 306v52h65q-32 76 -32 126q0 85 59 140.5t156 55.5q91 0 155 -56.5t68 -160.5l-66 -6q-5 74 -46 117t-109 43q-66 0 -105 -39.5t-39 -99.5q0 -44 32 -120h239v-52h-221q10 -35 10 -73q0 -102 -64 -170h362v-63h-457l-7 57q95 59 95 173q0 36 -11 76h-84z" />
    <glyph glyph-name="currency" unicode="&#xa4;" horiz-adv-x="599" 
d="M107 554l8 -2l67 -77q49 41 118 41t118 -41l67 77l8 2l48 -47l-3 -7l-86 -62q30 -44 30 -101q0 -59 -32 -105l88 -63l3 -8l-48 -47l-8 3l-69 79q-50 -39 -116 -39q-68 0 -116 39l-69 -79l-8 -3l-47 47l2 8l88 63q-32 46 -32 105q0 57 30 101l-86 62l-2 7zM211 246
q35 -36 89 -36t89.5 35.5t35.5 90.5t-35.5 91t-89.5 36q-53 0 -89 -36t-36 -91t36 -90z" />
    <glyph glyph-name="yen" unicode="&#xa5;" horiz-adv-x="619" 
d="M107 669l202 -364l202 364h81l-221 -378h152v-50h-178v-65h178v-49h-178v-127h-74v127h-176v49h176v65h-176v50h150l-218 378h80z" />
    <glyph glyph-name="brokenbar" unicode="&#xa6;" horiz-adv-x="248" 
d="M157 830v-417h-66v417h66zM91 -214v417h66v-417h-66z" />
    <glyph glyph-name="section" unicode="&#xa7;" horiz-adv-x="518" 
d="M47 -100l28 49q76 -71 179 -71q62 0 100 29t38 74q0 39 -35 64t-85 39t-100 30t-85 50t-35 86q0 50 29 86.5t81 49.5q-99 39 -99 130q0 74 55 118.5t145 44.5q60 0 114.5 -19.5t86.5 -53.5l-31 -48q-71 66 -172 66q-61 0 -96.5 -28t-35.5 -74q0 -41 35 -66t84.5 -37.5
t99.5 -27t85 -48.5t35 -88q0 -49 -27.5 -87t-82.5 -50q99 -41 99 -129q0 -74 -56.5 -120.5t-146.5 -46.5q-62 0 -118 21t-89 57zM122 230q5 -15 17.5 -26t23 -18.5t32 -15.5t34.5 -12t40 -11t39 -11q44 10 69.5 40t25.5 69q0 17 -4.5 31t-17 25t-22 18.5t-32 15.5t-33 11
t-39 11t-37.5 10q-49 -9 -75 -37.5t-26 -67.5q0 -18 5 -32z" />
    <glyph glyph-name="dieresis" unicode="&#xa8;" horiz-adv-x="387" 
d="M59 601q0 23 15.5 38.5t38.5 15.5t39 -15.5t16 -38.5t-16 -38q-16 -16 -39 -16t-38.5 15.5t-15.5 38.5zM220 601q0 23 15.5 38.5t38.5 15.5t39 -15.5t16 -38.5q0 -22 -16 -38t-39 -16q-22 0 -38 15.5t-16 38.5z" />
    <glyph glyph-name="copyright" unicode="&#xa9;" horiz-adv-x="787" 
d="M146 585q99 98 248 98t248 -98.5t99 -247.5t-99 -248t-248 -99t-248 99t-99 248t99 248zM93 337q0 -129 86.5 -215t215.5 -86q128 0 213.5 86t85.5 215t-86 215t-214 86t-214.5 -86t-86.5 -215zM262 467q53 53 133 53q55 0 101.5 -29t68.5 -78l-49 -23q-15 37 -48 58
t-74 21q-57 0 -94 -38.5t-37 -96.5t37.5 -96.5t93.5 -38.5q41 0 74.5 21.5t49.5 57.5l48 -25q-21 -47 -67.5 -76t-103.5 -29q-81 0 -134 52.5t-53 133.5q0 80 54 133z" />
    <glyph glyph-name="ordfeminine" unicode="&#xaa;" horiz-adv-x="369" 
d="M73 558q28 22 76 22h111v5q0 13 -1.5 22.5t-9 25t-27 24t-49.5 8.5q-57 0 -105 -21l-4 43q52 19 113 19q131 0 131 -115v-172h-48v38q-41 -44 -110 -44q-48 0 -77 24t-29 63q0 36 29 58zM112 466q19 -14 51 -14q44 0 70.5 22.5t26.5 63.5v11h-101q-66 0 -66 -47
q0 -23 19 -36z" />
    <glyph glyph-name="guillemotleft" unicode="&#xab;" horiz-adv-x="504" 
d="M40 251l150 222h85l-150 -223l142 -223h-86zM382 473h85l-150 -223l142 -223h-85l-141 224z" />
    <glyph glyph-name="logicalnot" unicode="&#xac;" horiz-adv-x="609" 
d="M470 316h-414v65h481v-237h-67v172z" />
    <glyph glyph-name="uni00AD" unicode="&#xad;" horiz-adv-x="494" 
d="M430 243h-366v65h366v-65z" />
    <glyph glyph-name="registered" unicode="&#xae;" horiz-adv-x="787" 
d="M146 585q99 98 248 98t248 -98.5t99 -247.5t-99 -248t-248 -99t-248 99t-99 248t99 248zM93 337q0 -129 86.5 -215t215.5 -86q128 0 213.5 86t85.5 215t-86 215t-214 86t-214.5 -86t-86.5 -215zM263 160v356h152q56 0 92 -32.5t36 -82.5q0 -43 -25 -73.5t-66 -39.5
l99 -128h-61l-92 124h-82v-124h-53zM316 472v-145h97q34 0 56 20.5t22 52.5q0 31 -22.5 51.5t-56.5 20.5h-96z" />
    <glyph glyph-name="macron" unicode="&#xaf;" horiz-adv-x="414" 
d="M346 579h-278v55h278v-55z" />
    <glyph glyph-name="degree" unicode="&#xb0;" horiz-adv-x="363" 
d="M82 641q39 39 99 39t99 -39t39 -99q0 -59 -39 -98t-99 -39q-59 0 -99 39t-40 98q0 60 40 99zM117 476q26 -26 64 -26q39 0 64.5 26t25.5 66t-25.5 66.5t-64.5 26.5q-38 0 -64 -26.5t-26 -66.5t26 -66z" />
    <glyph glyph-name="plusminus" unicode="&#xb1;" horiz-adv-x="558" 
d="M66 353v69h177v177h71v-177h177v-69h-177v-175h-71v175h-177zM66 129h425v-68h-425v68z" />
    <glyph glyph-name="twosuperior" unicode="&#xb2;" horiz-adv-x="345" 
d="M73 776q40 34 99 34q60 0 96.5 -32t36.5 -81q0 -10 -2 -19.5t-4.5 -17t-8 -16.5t-9.5 -15t-12 -14.5t-12 -12.5t-13.5 -12t-12.5 -10.5t-13.5 -10.5t-11.5 -9l-94 -73h203v-44h-281v38l134 109q4 4 20.5 16t24 19t18.5 19t15.5 24.5t4.5 26.5q0 30 -22 49.5t-58 19.5
q-38 0 -63 -24t-28 -64l-51 7q4 58 44 93z" />
    <glyph glyph-name="threesuperior" unicode="&#xb3;" horiz-adv-x="346" 
d="M67 555q6 -32 34.5 -53.5t67.5 -21.5q40 0 68 23t28 59q0 34 -26.5 57t-67.5 23q-32 0 -69 -21l-20 28l150 112h-186v43h251v-42l-125 -92q6 1 20 1q53 0 89 -31t36 -80q0 -53 -42 -87.5t-106 -34.5q-58 0 -99 28.5t-48 75.5z" />
    <glyph glyph-name="acute" unicode="&#xb4;" horiz-adv-x="237" 
d="M122 543h-72l48 139h91z" />
    <glyph glyph-name="paragraph" unicode="&#xb6;" horiz-adv-x="576" 
d="M81 620q52 49 131 49h325v-65h-82v-771h-60v771h-107v-771h-68v490q-83 1 -137.5 50.5t-54.5 122.5q0 74 53 124z" />
    <glyph glyph-name="periodcentered" unicode="&#xb7;" horiz-adv-x="220" 
d="M74 321q15 14 36 14q22 0 37 -14.5t15 -35.5q0 -22 -15 -36.5t-37 -14.5q-21 0 -36 14.5t-15 36.5q0 21 15 36z" />
    <glyph glyph-name="cedilla" unicode="&#xb8;" horiz-adv-x="319" 
d="M53 -163q37 -14 80 -14q36 0 56 13.5t20 37.5q0 45 -67 45h-48l-6 9l28 86l53 -4l-16 -57h7q49 0 77.5 -22.5t28.5 -59.5q0 -42 -33 -68.5t-91 -26.5q-48 0 -91 15z" />
    <glyph glyph-name="onesuperior" unicode="&#xb9;" horiz-adv-x="329" 
d="M150 487v261l-114 -46v48l128 54h37v-317h111v-44h-280v44h118z" />
    <glyph glyph-name="ordmasculine" unicode="&#xba;" horiz-adv-x="369" 
d="M82 665q41 41 103 41q61 0 102 -41t41 -103t-41 -103t-102 -41t-102.5 41t-41.5 103t41 103zM88 562q0 -43 28 -72t69 -29q40 0 67.5 29t27.5 72t-27 72t-68 29t-69 -29t-28 -72z" />
    <glyph glyph-name="guillemotright" unicode="&#xbb;" horiz-adv-x="504" 
d="M230 473h84l149 -222l-140 -224h-85l142 223zM37 473h84l149 -222l-140 -224h-84l142 223z" />
    <glyph glyph-name="onequarter" unicode="&#xbc;" horiz-adv-x="786" 
d="M437 124l184 236h76v-232h54v-39h-54v-88h-51v88h-209v35zM653 669h59l-494 -669h-61zM41 359h118v261l-114 -46v48l128 54h37v-317h111v-44h-280v44zM497 128h149v198z" />
    <glyph glyph-name="onehalf" unicode="&#xbd;" horiz-adv-x="789" 
d="M468 240q4 59 44.5 93t98.5 34q61 0 97.5 -31.5t36.5 -80.5q0 -11 -2 -21.5t-7 -20t-9 -17.5t-12.5 -17t-13 -14.5t-14.5 -14.5l-14 -12q-4 -3 -15 -11.5t-13 -9.5l-93 -72h203v-44h-282v38l135 109q4 4 20.5 16t24 19t18.5 19t15.5 24.5t4.5 26.5q0 30 -22.5 49.5
t-58.5 19.5q-38 0 -62.5 -24.5t-27.5 -63.5zM627 669h59l-495 -669h-60zM41 315v44h119v262l-114 -47v48l127 54h38v-317h110v-44h-280z" />
    <glyph glyph-name="threequarters" unicode="&#xbe;" horiz-adv-x="773" 
d="M426 124l183 236h77v-232h53v-39h-53v-88h-51v88h-209v35zM31 414l45 13q5 -32 33.5 -53.5t67.5 -21.5q41 0 68.5 23t27.5 59q0 34 -26 57t-67 23q-32 0 -70 -21l-20 28l151 112h-187v43h251v-42l-124 -92q6 1 19 1q53 0 89.5 -31t36.5 -80q0 -53 -42.5 -87.5
t-106.5 -34.5q-58 0 -98.5 28.5t-47.5 75.5zM626 669h59l-494 -669h-62zM635 128v198l-149 -198h149z" />
    <glyph glyph-name="questiondown" unicode="&#xbf;" horiz-adv-x="508" 
d="M56 59q21 35 50.5 57.5t59 44t50.5 52t21 69.5v60h71v-62q0 -47 -20.5 -83t-49.5 -58.5t-58 -43.5t-49.5 -49.5t-20.5 -65.5q0 -62 45.5 -96.5t111.5 -34.5q48 0 92 23t71 71l57 -36q-31 -59 -91.5 -90t-132.5 -31q-99 0 -163.5 52t-64.5 139q0 46 21 82zM224 461
q0 20 14 34t34 14t34.5 -14t14.5 -34t-14.5 -34t-34.5 -14t-34 14t-14 34z" />
    <glyph glyph-name="Agrave" unicode="&#xc0;" horiz-adv-x="662" 
d="M294 669h78l273 -669h-80l-69 177h-330l-70 -177h-80zM190 241h282l-138 356zM224 870h94l52 -145h-77z" />
    <glyph glyph-name="Aacute" unicode="&#xc1;" horiz-adv-x="662" 
d="M294 669h78l273 -669h-80l-69 177h-330l-70 -177h-80zM190 241h282l-138 356zM348 869h93l-68 -144h-76z" />
    <glyph glyph-name="Acircumflex" unicode="&#xc2;" horiz-adv-x="662" 
d="M294 669h78l273 -669h-80l-69 177h-330l-70 -177h-80zM472 241l-138 356l-144 -356h282zM298 874h66l129 -144h-80l-81 91l-83 -91h-80z" />
    <glyph glyph-name="Atilde" unicode="&#xc3;" horiz-adv-x="662" 
d="M16 0l278 669h78l273 -669h-80l-69 177h-330l-70 -177h-80zM190 241h282l-138 356zM138 747q0 53 28 85.5t80 32.5q33 0 60 -16.5t50 -33.5t47 -17q27 0 45 18.5t20 47.5h58q-2 -51 -31 -84.5t-79 -33.5q-39 0 -85 34q-47 33 -74 33t-43 -18t-18 -48h-58z" />
    <glyph glyph-name="Adieresis" unicode="&#xc4;" horiz-adv-x="662" 
d="M294 669h78l273 -669h-80l-69 177h-330l-70 -177h-80zM190 241h282l-138 356zM376 850q17 16 40 16q25 0 42 -16.5t17 -39.5q0 -24 -17 -40.5t-42 -16.5q-23 0 -40 16.5t-17 40.5q0 23 17 40zM189 810q0 23 17 39.5t40 16.5q25 0 41.5 -16.5t16.5 -39.5
q0 -24 -16.5 -40.5t-41.5 -16.5q-23 0 -40 16.5t-17 40.5z" />
    <glyph glyph-name="Aring" unicode="&#xc5;" horiz-adv-x="662" 
d="M294 669h78l273 -669h-80l-69 177h-330l-70 -177h-80zM472 241l-138 356l-144 -356h282zM224 809q0 43 31 72.5t77 29.5t76.5 -29.5t30.5 -72.5t-30 -72q-31 -30 -77 -30t-77 29.5t-31 72.5zM288 766q18 -18 44 -18t44 17.5t18 42.5q0 26 -18 44t-44 18t-44 -18t-18 -44
q0 -25 18 -42z" />
    <glyph glyph-name="AE" unicode="&#xc6;" horiz-adv-x="952" 
d="M399 669h497v-65h-383v-236h364v-60h-364v-243h394v-65h-464v181h-267l-109 -181h-77zM213 242h230v380z" />
    <glyph glyph-name="Ccedilla" unicode="&#xc7;" horiz-adv-x="722" 
d="M44 334q0 148 97 247t242 99q107 0 190 -56t120 -151l-66 -31q-30 76 -96 123t-149 47q-111 0 -188 -80.5t-77 -197.5t77 -197t189 -80q81 0 146.5 45t95.5 120l68 -29q-36 -91 -116 -146t-183 -58l-11 -40h9q48 0 76.5 -22.5t28.5 -59.5q0 -42 -33 -68.5t-91 -26.5
q-50 0 -91 15l1 47q39 -14 81 -14q75 0 75 52q0 43 -67 43h-49l-4 9l21 67q-129 15 -212.5 111t-83.5 232z" />
    <glyph glyph-name="Egrave" unicode="&#xc8;" horiz-adv-x="611" 
d="M90 669h463v-65h-390v-233h376v-65h-376v-241h401v-65h-474v669zM221 870h93l51 -145h-77z" />
    <glyph glyph-name="Eacute" unicode="&#xc9;" horiz-adv-x="611" 
d="M90 669h463v-65h-390v-233h376v-65h-376v-241h401v-65h-474v669zM293 725l51 144h93l-68 -144h-76z" />
    <glyph glyph-name="Ecircumflex" unicode="&#xca;" horiz-adv-x="611" 
d="M90 0v669h463v-65h-390v-233h376v-65h-376v-241h401v-65h-474zM165 730l129 144h66l129 -144h-79l-82 91l-83 -91h-80z" />
    <glyph glyph-name="Edieresis" unicode="&#xcb;" horiz-adv-x="611" 
d="M90 0v669h463v-65h-390v-233h376v-65h-376v-241h401v-65h-474zM355 810q0 23 16.5 39.5t40.5 16.5q25 0 41.5 -16.5t16.5 -39.5q0 -24 -16.5 -40.5t-41.5 -16.5q-24 0 -40.5 16.5t-16.5 40.5zM185 810q0 23 16.5 39.5t41.5 16.5q24 0 40.5 -16.5t16.5 -39.5
q0 -24 -16.5 -40.5t-40.5 -16.5q-25 0 -41.5 16.5t-16.5 40.5z" />
    <glyph glyph-name="Igrave" unicode="&#xcc;" horiz-adv-x="256" 
d="M115 870l52 -145h-77l-69 145h94zM91 0v669h75v-669h-75z" />
    <glyph glyph-name="Iacute" unicode="&#xcd;" horiz-adv-x="254" 
d="M169 725h-77l51 144h93zM90 0v669h74v-669h-74z" />
    <glyph glyph-name="Icircumflex" unicode="&#xce;" horiz-adv-x="256" 
d="M90 669h75v-669h-75v669zM95 874h66l129 -144h-80l-82 91l-83 -91h-79z" />
    <glyph glyph-name="Idieresis" unicode="&#xcf;" horiz-adv-x="257" 
d="M166 669v-669h-75v669h75zM156 810q0 23 17 39.5t41 16.5t41 -16.5t17 -39.5q0 -24 -17 -40q-17 -17 -41 -17t-41 16.5t-17 40.5zM3 850q16 16 41 16q24 0 40.5 -16.5t16.5 -39.5q0 -24 -16.5 -40.5t-40.5 -16.5q-25 0 -41.5 16.5t-16.5 40.5q0 23 17 40z" />
    <glyph glyph-name="Eth" unicode="&#xd0;" horiz-adv-x="720" 
d="M29 307v54h74v308h236q155 0 245 -93t90 -242t-86.5 -241.5t-234.5 -92.5h-250v307h-74zM176 68h178q111 0 178 74.5t67 192.5t-68 192t-183 74h-172v-240h192v-54h-192v-239z" />
    <glyph glyph-name="Ntilde" unicode="&#xd1;" horiz-adv-x="738" 
d="M90 669h70l417 -553v553h71v-669h-68l-419 553v-553h-71v669zM202 832q28 33 79 33q33 0 60.5 -17t50.5 -34t47 -17q27 0 45 18.5t20 47.5h58q-1 -50 -31 -84t-80 -34q-39 0 -85 34q-46 33 -73 33t-43 -17.5t-18 -47.5h-58q0 52 28 85z" />
    <glyph glyph-name="Ograve" unicode="&#xd2;" horiz-adv-x="766" 
d="M141 581q97 99 242 99t241 -99t96 -247t-96 -246.5t-241 -98.5q-146 0 -242.5 98.5t-96.5 246.5t97 247zM194 138q77 -81 189 -81q111 0 187.5 80.5t76.5 196.5q0 117 -76.5 197.5t-187.5 80.5q-112 0 -189 -80.5t-77 -197.5q0 -116 77 -196zM276 867h93l52 -145h-77z
" />
    <glyph glyph-name="Oacute" unicode="&#xd3;" horiz-adv-x="766" 
d="M141 581q97 99 242 99t241 -99t96 -247t-96 -246.5t-241 -98.5q-146 0 -242.5 98.5t-96.5 246.5t97 247zM194 138q77 -81 189 -81q111 0 187.5 80.5t76.5 196.5q0 117 -76.5 197.5t-187.5 80.5q-112 0 -189 -80.5t-77 -197.5q0 -116 77 -196zM399 866h93l-68 -144h-76z
" />
    <glyph glyph-name="Ocircumflex" unicode="&#xd4;" horiz-adv-x="766" 
d="M141 581q97 99 242 99t241 -99t96 -247t-96 -246.5t-241 -98.5q-146 0 -242.5 98.5t-96.5 246.5t97 247zM194 138q77 -81 189 -81q111 0 187.5 80.5t76.5 196.5q0 117 -76.5 197.5t-187.5 80.5q-112 0 -189 -80.5t-77 -197.5q0 -116 77 -196zM349 872h67l128 -144h-79
l-82 91l-83 -91h-79z" />
    <glyph glyph-name="Otilde" unicode="&#xd5;" horiz-adv-x="766" 
d="M141 581q97 99 242 99t241 -99t96 -247t-96 -246.5t-241 -98.5q-146 0 -242.5 98.5t-96.5 246.5t97 247zM117 334q0 -116 77 -196.5t189 -80.5q111 0 187.5 80.5t76.5 196.5q0 117 -76.5 197.5t-187.5 80.5q-112 0 -189 -80.5t-77 -197.5zM218 830q27 33 78 33
q42 0 87 -33.5t71 -33.5q27 0 45.5 19t19.5 47h59q-2 -51 -32 -84.5t-79 -33.5q-39 0 -85.5 33.5t-73.5 33.5t-43 -18t-18 -48h-58q1 52 29 85z" />
    <glyph glyph-name="Odieresis" unicode="&#xd6;" horiz-adv-x="766" 
d="M141 581q97 99 242 99t241 -99t96 -247t-96 -246.5t-241 -98.5q-146 0 -242.5 98.5t-96.5 246.5t97 247zM117 334q0 -116 77 -196.5t189 -80.5q111 0 187.5 80.5t76.5 196.5q0 117 -76.5 197.5t-187.5 80.5q-112 0 -189 -80.5t-77 -197.5zM427 847q17 17 41 17
t40.5 -16.5t16.5 -40.5t-16 -40.5t-41 -16.5q-24 0 -41 16.5t-17 40.5q0 23 17 40zM257 847q17 17 41 17t40.5 -17t16.5 -40q0 -24 -16.5 -40.5t-40.5 -16.5q-25 0 -41.5 16.5t-16.5 40.5q0 23 17 40z" />
    <glyph glyph-name="multiply" unicode="&#xd7;" horiz-adv-x="491" 
d="M391 503l46 -45l-145 -140l145 -140l-45 -46l-146 141l-146 -141l-46 45l145 141l-144 139l45 45l145 -140z" />
    <glyph glyph-name="Oslash" unicode="&#xd8;" horiz-adv-x="763" 
d="M673 705l-74 -103q56 -47 87.5 -116.5t31.5 -151.5q0 -148 -96 -246.5t-240 -98.5q-100 0 -183 51l-72 -100l-36 27l71 100q-56 47 -87 116.5t-31 150.5q0 148 96.5 247t241.5 99q100 0 181 -51l75 102zM113 334q0 -130 89 -213l324 453q-64 42 -144 42q-115 0 -192 -81
t-77 -201zM382 52q115 0 191.5 80.5t76.5 201.5q0 132 -90 214l-324 -454q65 -42 146 -42z" />
    <glyph glyph-name="Ugrave" unicode="&#xd9;" horiz-adv-x="707" 
d="M81 669h74v-412q0 -86 55.5 -141.5t142.5 -55.5q86 0 142.5 55.5t56.5 141.5v412h74v-416q0 -117 -76 -190q-77 -74 -197 -74t-196 73.5t-76 190.5v416zM340 870l52 -145h-77l-68 145h93z" />
    <glyph glyph-name="Uacute" unicode="&#xda;" horiz-adv-x="707" 
d="M81 669h74v-412q0 -86 55.5 -141.5t142.5 -55.5q86 0 142.5 55.5t56.5 141.5v412h74v-416q0 -117 -76 -190q-77 -74 -197 -74t-196 73.5t-76 190.5v416zM370 869h94l-69 -144h-76z" />
    <glyph glyph-name="Ucircumflex" unicode="&#xdb;" horiz-adv-x="707" 
d="M155 669v-412q0 -86 55.5 -141.5t142.5 -55.5q86 0 142.5 55.5t56.5 141.5v412h74v-416q0 -117 -76 -190q-77 -74 -197 -74t-196 73.5t-76 190.5v416h74zM191 730l129 144h67l128 -144h-79l-82 91l-83 -91h-80z" />
    <glyph glyph-name="Udieresis" unicode="&#xdc;" horiz-adv-x="707" 
d="M155 669v-412q0 -86 55.5 -141.5t142.5 -55.5q86 0 142.5 55.5t56.5 141.5v412h74v-416q0 -117 -76 -190q-77 -74 -197 -74t-196 73.5t-76 190.5v416h74zM381 810q0 23 17 39.5t41 16.5t41 -16.5t17 -39.5q0 -24 -17 -40q-17 -17 -41 -17t-41 16.5t-17 40.5zM211 810
q0 23 16.5 39.5t41.5 16.5q24 0 40.5 -16.5t16.5 -39.5q0 -24 -16.5 -40.5t-40.5 -16.5q-25 0 -41.5 16.5t-16.5 40.5z" />
    <glyph glyph-name="Yacute" unicode="&#xdd;" horiz-adv-x="633" 
d="M107 669l209 -362l212 362h85l-260 -437v-232h-74v232l-257 437h85zM334 869h94l-68 -144h-77z" />
    <glyph glyph-name="Thorn" unicode="&#xde;" horiz-adv-x="655" 
d="M163 570h218q104 0 169 -63t65 -162q0 -101 -66 -164t-175 -63h-211v-118h-73v669h73v-99zM163 182h205q77 0 124.5 46t47.5 117q0 70 -46 115.5t-121 45.5h-210v-324z" />
    <glyph glyph-name="germandbls" unicode="&#xdf;" horiz-adv-x="618" 
d="M459 355q55 -20 87 -65.5t32 -105.5q0 -85 -63 -140t-157 -55q-78 0 -141 28v66q62 -28 136 -28q68 0 110.5 38t42.5 96q0 57 -41.5 93.5t-107.5 36.5h-106v59h102q57 0 93.5 36t36.5 90q0 60 -43.5 98t-111.5 38q-80 0 -129.5 -56.5t-49.5 -155.5v-588h-72v595
q0 124 70.5 196.5t181.5 72.5q100 0 162.5 -53.5t62.5 -138.5q0 -51 -25.5 -93t-69.5 -64z" />
    <glyph glyph-name="agrave" unicode="&#xe0;" horiz-adv-x="615" 
d="M41 239q0 108 67.5 179t169.5 71q61 0 109.5 -28t79.5 -76v94h70v-479h-70v94q-67 -105 -190 -105q-101 0 -168.5 71t-67.5 179zM165 108q50 -53 125 -53t125.5 53.5t50.5 132.5q0 77 -50.5 129.5t-124.5 52.5q-75 0 -125.5 -52.5t-50.5 -131.5t50 -131zM196 681h92
l47 -139h-72z" />
    <glyph glyph-name="aacute" unicode="&#xe1;" horiz-adv-x="615" 
d="M41 239q0 108 67.5 179t169.5 71q61 0 109.5 -28t79.5 -76v94h70v-479h-70v94q-67 -105 -190 -105q-101 0 -168.5 71t-67.5 179zM165 108q50 -53 125 -53t125.5 53.5t50.5 132.5q0 77 -50.5 129.5t-124.5 52.5q-75 0 -125.5 -52.5t-50.5 -131.5t50 -131zM311 681h91
l-67 -139h-72z" />
    <glyph glyph-name="acircumflex" unicode="&#xe2;" horiz-adv-x="615" 
d="M41 239q0 108 67.5 179t169.5 71q61 0 109.5 -28t79.5 -76v94h70v-479h-70v94q-67 -105 -190 -105q-101 0 -168.5 71t-67.5 179zM165 108q50 -53 125 -53t125.5 53.5t50.5 132.5q0 77 -50.5 129.5t-124.5 52.5q-75 0 -125.5 -52.5t-50.5 -131.5t50 -131zM150 540l119 137
h62l119 -137h-72l-77 91l-81 -91h-70z" />
    <glyph glyph-name="atilde" unicode="&#xe3;" horiz-adv-x="615" 
d="M109 418q67 71 169 71q61 0 109.5 -28t79.5 -76v94h70v-479h-70v94q-67 -105 -190 -105q-101 0 -168.5 71t-67.5 179t68 179zM115 239q0 -79 50 -131q50 -53 125 -53t125.5 53.5t50.5 132.5q0 77 -50.5 129.5t-124.5 52.5q-75 0 -125.5 -52.5t-50.5 -131.5zM127 561
q1 54 28 82.5t73 28.5q40 0 79 -30.5t63 -30.5q25 0 40 16t16 44h57q-3 -55 -30.5 -83.5t-73.5 -28.5q-37 0 -77.5 30.5t-67.5 30.5q-22 0 -36 -15.5t-15 -43.5h-56z" />
    <glyph glyph-name="adieresis" unicode="&#xe4;" horiz-adv-x="615" 
d="M41 239q0 108 67.5 179t169.5 71q61 0 109.5 -28t79.5 -76v94h70v-479h-70v94q-67 -105 -190 -105q-101 0 -168.5 71t-67.5 179zM115 239q0 -79 50 -131q50 -53 125 -53t125.5 53.5t50.5 132.5q0 77 -50.5 129.5t-124.5 52.5q-75 0 -125.5 -52.5t-50.5 -131.5zM165 600
q0 22 15.5 38t38.5 16t39.5 -16t16.5 -38q0 -23 -16 -38q-17 -16 -40 -16t-38.5 15.5t-15.5 38.5zM327 600q0 23 15.5 38.5t38.5 15.5t38.5 -16t15.5 -38q0 -23 -15 -38q-16 -16 -39 -16t-38.5 15.5t-15.5 38.5z" />
    <glyph glyph-name="aring" unicode="&#xe5;" horiz-adv-x="615" 
d="M109 418q67 71 169 71q61 0 109.5 -28t79.5 -76v94h70v-479h-70v94q-67 -105 -190 -105q-101 0 -168.5 71t-67.5 179t68 179zM115 239q0 -79 50 -131q50 -53 125 -53t125.5 53.5t50.5 132.5q0 77 -50.5 129.5t-124.5 52.5q-75 0 -125.5 -52.5t-50.5 -131.5zM195 631
q0 41 30 70t74 29q43 0 73.5 -29t30.5 -70t-30 -69q-30 -29 -74 -29t-74 28.5t-30 69.5zM255 589q18 -18 44 -18t43.5 17t17.5 43q0 25 -17.5 43t-43.5 18q-25 0 -43.5 -18t-18.5 -43t18 -42z" />
    <glyph glyph-name="ae" unicode="&#xe6;" horiz-adv-x="902" 
d="M861 262q0 -33 -2 -43h-390q4 -73 50.5 -121.5t114.5 -48.5q48 0 87.5 24t61.5 66l57 -25q-27 -58 -81.5 -91t-124.5 -33q-65 0 -118 32t-83 90q-26 -54 -82.5 -88.5t-132.5 -34.5q-83 0 -132.5 39.5t-49.5 106.5q0 64 47.5 101t132.5 37h177v9q0 74 -36 110.5t-118 36.5
q-85 0 -165 -32v60q79 32 173 32q149 0 193 -111q31 53 82.5 82t113.5 29q97 0 161 -65t64 -162zM635 431q-65 0 -110.5 -45t-53.5 -113h323q-5 69 -49.5 113.5t-109.5 44.5zM225 46q75 0 121.5 47t46.5 121v4h-168q-120 0 -120 -80q0 -42 33 -67t87 -25z" />
    <glyph glyph-name="ccedilla" unicode="&#xe7;" horiz-adv-x="558" 
d="M113 418q72 71 182 71q83 0 145.5 -42t86.5 -113l-68 -21q-18 49 -63.5 79.5t-100.5 30.5q-79 0 -130 -52t-51 -132t51 -132t129 -52q55 0 101 31t66 80l65 -29q-25 -61 -83 -102t-134 -45l-13 -43h8q49 0 77.5 -22.5t28.5 -59.5q0 -42 -33 -69t-91 -27q-49 0 -92 16
l2 46q39 -14 81 -14q76 0 76 52q0 44 -68 44h-47l-6 8l23 70q-95 12 -154.5 80t-59.5 167q0 109 72 180z" />
    <glyph glyph-name="egrave" unicode="&#xe8;" horiz-adv-x="576" 
d="M113 418q71 70 180 70q105 0 173.5 -67.5t68.5 -170.5q0 -20 -2 -38h-420q8 -71 58 -117t123 -46q52 0 95 24.5t65 66.5l58 -28q-26 -56 -86 -89.5t-134 -33.5q-110 0 -180.5 71t-70.5 179t72 179zM113 269h351q-6 70 -54.5 115.5t-117.5 45.5q-70 0 -120.5 -45.5
t-58.5 -115.5zM280 681l47 -138h-72l-66 138h91z" />
    <glyph glyph-name="eacute" unicode="&#xe9;" horiz-adv-x="576" 
d="M113 418q71 70 180 70q105 0 173.5 -67.5t68.5 -170.5q0 -20 -2 -38h-420q8 -71 58 -117t123 -46q52 0 95 24.5t65 66.5l58 -28q-26 -56 -86 -89.5t-134 -33.5q-110 0 -180.5 71t-70.5 179t72 179zM113 269h351q-6 70 -54.5 115.5t-117.5 45.5q-70 0 -120.5 -45.5
t-58.5 -115.5zM255 543l48 138h91l-67 -138h-72z" />
    <glyph glyph-name="ecircumflex" unicode="&#xea;" horiz-adv-x="576" 
d="M41 239q0 108 71.5 178.5t180.5 70.5q105 0 173.5 -67.5t68.5 -170.5q0 -20 -2 -38h-420q8 -71 58 -117t123 -46q52 0 95 24.5t65 66.5l58 -28q-26 -56 -86 -89.5t-134 -33.5q-110 0 -180.5 71t-70.5 179zM113 269h351q-6 70 -54.5 115.5t-117.5 45.5q-70 0 -120.5 -45.5
t-58.5 -115.5zM143 541l118 137h62l119 -137h-71l-78 91l-80 -91h-70z" />
    <glyph glyph-name="edieresis" unicode="&#xeb;" horiz-adv-x="576" 
d="M41 239q0 108 71.5 178.5t180.5 70.5q105 0 173.5 -67.5t68.5 -170.5q0 -20 -2 -38h-420q8 -71 58 -117t123 -46q52 0 95 24.5t65 66.5l58 -28q-26 -56 -86 -89.5t-134 -33.5q-110 0 -180.5 71t-70.5 179zM464 269q-6 70 -54.5 115.5t-117.5 45.5q-70 0 -120.5 -45.5
t-58.5 -115.5h351zM174 640q15 15 38 15t39 -15.5t16 -38.5t-16 -39t-39 -16t-38.5 16t-15.5 39t16 39zM319 601q0 23 15.5 38.5t38.5 15.5t38.5 -15.5t15.5 -38.5t-15 -39q-16 -16 -39 -16t-38.5 16t-15.5 39z" />
    <glyph glyph-name="igrave" unicode="&#xec;" horiz-adv-x="230" 
d="M102 681l48 -139h-72l-67 139h91zM152 0h-74v479h74v-479z" />
    <glyph glyph-name="iacute" unicode="&#xed;" horiz-adv-x="230" 
d="M149 542h-72l48 139h91zM152 0h-74v479h74v-479z" />
    <glyph glyph-name="icircumflex" unicode="&#xee;" horiz-adv-x="230" 
d="M152 479v-479h-74v479h74zM83 677h63l119 -137h-72l-78 91l-80 -91h-70z" />
    <glyph glyph-name="idieresis" unicode="&#xef;" horiz-adv-x="230" 
d="M78 479h74v-479h-74v479zM-20 600q0 23 15.5 38.5t38.5 15.5t38.5 -15.5t15.5 -38.5t-15 -38q-16 -16 -39 -16t-38.5 15.5t-15.5 38.5zM141 600q0 23 15.5 38.5t38.5 15.5t38.5 -16t15.5 -38q0 -23 -15 -38q-16 -16 -39 -16t-38.5 15.5t-15.5 38.5z" />
    <glyph glyph-name="eth" unicode="&#xf0;" horiz-adv-x="602" 
d="M473 714l-89 -69q164 -121 164 -376q0 -125 -73 -203t-185 -78q-108 0 -178.5 68.5t-70.5 174.5q0 103 68.5 171t171.5 68q120 0 185 -88q-25 142 -140 219l-128 -99l-21 27l118 91q-70 37 -160 51l25 59q113 -16 194 -65l98 76zM292 55q77 0 129.5 53.5t52.5 132.5
q0 73 -52 121.5t-129 48.5q-76 0 -126.5 -51t-50.5 -127q0 -77 50 -127.5t126 -50.5z" />
    <glyph glyph-name="ntilde" unicode="&#xf1;" horiz-adv-x="592" 
d="M78 479h71v-90q30 50 77.5 74.5t99.5 24.5q86 0 141.5 -57t55.5 -144v-287h-73v271q0 65 -40.5 108t-100.5 43q-67 0 -112 -52t-45 -130v-240h-74v479zM131 561q1 54 28.5 82.5t72.5 28.5q32 0 56.5 -15t44.5 -30.5t41 -15.5q25 0 40.5 16t16.5 44h56q-2 -54 -29.5 -83
t-73.5 -29q-37 0 -77.5 30.5t-67.5 30.5q-23 0 -37 -15.5t-14 -43.5h-57z" />
    <glyph glyph-name="ograve" unicode="&#xf2;" horiz-adv-x="587" 
d="M112 418q72 71 181 71t181 -71.5t72 -178.5q0 -108 -72 -179t-181 -71q-108 0 -180.5 71.5t-72.5 178.5t72 179zM113 239q0 -79 52 -131q52 -53 129 -53t128.5 53t51.5 131q0 79 -51.5 131.5t-128.5 52.5t-129 -52.5t-52 -131.5zM189 681h91l48 -139h-72z" />
    <glyph glyph-name="oacute" unicode="&#xf3;" horiz-adv-x="587" 
d="M112 418q72 71 181 71t181 -71.5t72 -178.5q0 -108 -72 -179t-181 -71q-108 0 -180.5 71.5t-72.5 178.5t72 179zM165 108q52 -53 129 -53t128.5 53t51.5 131q0 79 -51.5 131.5t-128.5 52.5t-129 -52.5t-52 -131.5t52 -131zM255 542l48 139h92l-67 -139h-73z" />
    <glyph glyph-name="ocircumflex" unicode="&#xf4;" horiz-adv-x="587" 
d="M112 418q72 71 181 71t181 -71.5t72 -178.5q0 -108 -72 -179t-181 -71q-108 0 -180.5 71.5t-72.5 178.5t72 179zM113 239q0 -79 52 -131q52 -53 129 -53t128.5 53t51.5 131q0 79 -51.5 131.5t-128.5 52.5t-129 -52.5t-52 -131.5zM143 540l118 137h63l119 -137h-72l-78 91
l-79 -91h-71z" />
    <glyph glyph-name="otilde" unicode="&#xf5;" horiz-adv-x="587" 
d="M40 239q0 107 72 178.5t181 71.5t181 -71.5t72 -178.5q0 -108 -72 -179t-181 -71q-108 0 -180.5 71.5t-72.5 178.5zM165 108q52 -53 129 -53t128.5 53t51.5 131q0 79 -51.5 131.5t-128.5 52.5t-129 -52.5t-52 -131.5t52 -131zM148 644q27 28 72 28q41 0 80 -30.5
t63 -30.5q52 0 57 60h56q-3 -55 -30.5 -83.5t-73.5 -28.5q-37 0 -77.5 30.5t-67.5 30.5q-22 0 -36 -15.5t-15 -43.5h-57q1 54 29 83z" />
    <glyph glyph-name="odieresis" unicode="&#xf6;" horiz-adv-x="587" 
d="M40 239q0 107 72 178.5t181 71.5t181 -71.5t72 -178.5q0 -108 -72 -179t-181 -71q-108 0 -180.5 71.5t-72.5 178.5zM113 239q0 -79 52 -131q52 -53 129 -53t128.5 53t51.5 131q0 79 -51.5 131.5t-128.5 52.5t-129 -52.5t-52 -131.5zM319 600q0 23 16 38.5t39 15.5
q22 0 38 -16t16 -38q0 -23 -15 -38q-16 -16 -39 -16t-39 15.5t-16 38.5zM175 639q15 15 37 15q24 0 39.5 -15.5t15.5 -38.5t-15.5 -38.5t-39.5 -15.5q-23 0 -38 15.5t-15 38.5t16 39z" />
    <glyph glyph-name="divide" unicode="&#xf7;" horiz-adv-x="500" 
d="M249 432q-22 0 -37 15t-15 37t15 37t37 15t37.5 -15t15.5 -37t-15.5 -37t-37.5 -15zM439 290h-379v66h379v-66zM249 112q-22 0 -37 15.5t-15 37.5q0 21 15 36.5t37 15.5t37.5 -15t15.5 -37q0 -23 -15 -38t-38 -15z" />
    <glyph glyph-name="oslash" unicode="&#xf8;" horiz-adv-x="589" 
d="M504 518l-54 -79q97 -73 97 -201q0 -107 -72 -178t-181 -71q-66 0 -120 28l-55 -79l-34 21l54 78q-99 73 -99 201q0 108 72.5 179.5t181.5 71.5q69 0 122 -29l55 79zM109 239q0 -92 67 -146l205 313q-40 20 -86 20q-79 0 -132.5 -53.5t-53.5 -133.5zM295 52
q79 0 131.5 53.5t52.5 133.5q0 90 -66 145l-203 -313q40 -19 85 -19z" />
    <glyph glyph-name="ugrave" unicode="&#xf9;" horiz-adv-x="592" 
d="M69 479h73v-272q0 -66 40 -108.5t100 -42.5q66 0 112.5 50t46.5 125v248h74v-479h-72v89q-30 -50 -78 -74.5t-101 -24.5q-87 0 -141 58t-54 152v279zM279 681l47 -139h-72l-67 139h92z" />
    <glyph glyph-name="uacute" unicode="&#xfa;" horiz-adv-x="592" 
d="M69 479h73v-272q0 -66 40 -108.5t100 -42.5q66 0 112.5 50t46.5 125v248h74v-479h-72v89q-30 -50 -78 -74.5t-101 -24.5q-87 0 -141 58t-54 152v279zM302 681h91l-66 -139h-73z" />
    <glyph glyph-name="ucircumflex" unicode="&#xfb;" horiz-adv-x="592" 
d="M69 479h73v-272q0 -66 40 -108.5t100 -42.5q66 0 112.5 50t46.5 125v248h74v-479h-72v89q-30 -50 -78 -74.5t-101 -24.5q-87 0 -141 58t-54 152v279zM260 677h62l120 -137h-72l-78 91l-80 -91h-70z" />
    <glyph glyph-name="udieresis" unicode="&#xfc;" horiz-adv-x="592" 
d="M142 479v-272q0 -66 40 -108.5t100 -42.5q66 0 112.5 50t46.5 125v248h74v-479h-72v89q-30 -50 -78 -74.5t-101 -24.5q-87 0 -141 58t-54 152v279h73zM157 600q0 23 15.5 38.5t37.5 15.5q24 0 40 -15.5t16 -38.5t-16 -38.5t-40 -15.5q-23 0 -38 15.5t-15 38.5zM334 639
q15 15 38 15t38.5 -15.5t15.5 -38.5t-15 -38q-16 -16 -39 -16t-38.5 15.5t-15.5 38.5t16 39z" />
    <glyph glyph-name="yacute" unicode="&#xfd;" horiz-adv-x="549" 
d="M93 479l190 -433l172 433h77l-210 -514q-15 -36 -28 -60.5t-37 -55.5t-59.5 -47.5t-80.5 -16.5q-47 0 -96 18v68q43 -20 88 -20q88 0 129 97l8 19l-231 512h78zM284 681h91l-67 -139h-72z" />
    <glyph glyph-name="thorn" unicode="&#xfe;" horiz-adv-x="614" 
d="M339 488q100 0 166.5 -71.5t66.5 -178.5q0 -106 -66.5 -177.5t-165.5 -71.5q-122 0 -188 98v-288h-74v904h74v-312q31 46 80 71.5t107 25.5zM326 54q74 0 123.5 52.5t49.5 131.5q0 78 -50 131t-124 53t-125 -52.5t-51 -130.5q0 -79 51 -132t126 -53z" />
    <glyph glyph-name="ydieresis" unicode="&#xff;" horiz-adv-x="549" 
d="M15 479h78l190 -433l172 433h77l-210 -514q-15 -36 -28 -60.5t-37 -55.5t-59.5 -47.5t-80.5 -16.5q-47 0 -96 18v68q43 -20 88 -20q88 0 129 97l8 19zM138 600q0 22 16 38t38 16q23 0 39 -15.5t16 -38.5t-16 -38q-16 -16 -39 -16t-38.5 15.5t-15.5 38.5zM316 639
q15 15 37 15q23 0 39 -15.5t16 -38.5t-16 -38q-16 -16 -39 -16t-38 15.5t-15 38.5t16 39z" />
    <glyph glyph-name="Amacron" unicode="&#x100;" horiz-adv-x="662" 
d="M16 0l278 669h78l273 -669h-80l-69 177h-330l-70 -177h-80zM472 241l-138 356l-144 -356h282zM489 833v-58h-316v58h316z" />
    <glyph glyph-name="amacron" unicode="&#x101;" horiz-adv-x="615" 
d="M41 239q0 108 67.5 179t169.5 71q61 0 109.5 -28t79.5 -76v94h70v-479h-70v94q-67 -105 -190 -105q-101 0 -168.5 71t-67.5 179zM165 108q50 -53 125 -53t125.5 53.5t50.5 132.5q0 77 -50.5 129.5t-124.5 52.5q-75 0 -125.5 -52.5t-50.5 -131.5t50 -131zM439 632v-54
h-278v54h278z" />
    <glyph glyph-name="Abreve" unicode="&#x102;" horiz-adv-x="662" 
d="M294 669h78l273 -669h-80l-69 177h-330l-70 -177h-80zM472 241l-138 356l-144 -356h282zM240 871q1 -41 26.5 -66.5t65.5 -25.5t65.5 25.5t26.5 66.5h64q-1 -66 -44 -105t-112 -39t-112 39t-43 105h63z" />
    <glyph glyph-name="abreve" unicode="&#x103;" horiz-adv-x="615" 
d="M109 418q67 71 169 71q61 0 109.5 -28t79.5 -76v94h70v-479h-70v94q-67 -105 -190 -105q-101 0 -168.5 71t-67.5 179t68 179zM165 108q50 -53 125 -53t125.5 53.5t50.5 132.5q0 77 -50.5 129.5t-124.5 52.5q-75 0 -125.5 -52.5t-50.5 -131.5t50 -131zM150 678h60
q2 -41 26 -66.5t64 -25.5t64 25.5t25 66.5h60q-1 -63 -42 -101t-107 -38q-67 0 -108 37.5t-42 101.5z" />
    <glyph glyph-name="Aogonek" unicode="&#x104;" horiz-adv-x="662" 
d="M294 669h78l273 -669q-55 -21 -85.5 -54.5t-30.5 -65.5q0 -20 11.5 -33t33.5 -13q24 0 64 18l4 -52q-40 -21 -78 -21q-45 0 -70 23.5t-25 62.5q0 32 24 69.5t71 66.5l-68 176h-330l-70 -177h-80zM472 241l-138 356l-144 -356h282z" />
    <glyph glyph-name="aogonek" unicode="&#x105;" horiz-adv-x="614" 
d="M109 418q67 71 169 71q61 0 109.5 -28t79.5 -76v94h70v-479q-55 -21 -85 -54.5t-30 -65.5q0 -20 11.5 -33t32.5 -13q22 0 65 18l3 -52q-40 -21 -77 -21q-45 0 -70.5 23.5t-25.5 62.5q0 34 26.5 73.5t79.5 68.5v87q-67 -105 -190 -105q-101 0 -168.5 71t-67.5 179t68 179z
M115 239q0 -79 50 -131q50 -53 125 -53t125.5 53.5t50.5 132.5q0 77 -50.5 129.5t-124.5 52.5q-75 0 -125.5 -52.5t-50.5 -131.5z" />
    <glyph glyph-name="Cacute" unicode="&#x106;" horiz-adv-x="722" 
d="M141 581q97 99 242 99q107 0 190 -56t120 -151l-66 -31q-30 76 -96 123t-149 47q-111 0 -188 -80.5t-77 -197.5t77 -197t189 -80q81 0 146.5 45t95.5 120l68 -29q-37 -93 -120.5 -148.5t-189.5 -55.5q-145 0 -242 98.5t-97 246.5t97 247zM347 725l51 144h93l-68 -144h-76
z" />
    <glyph glyph-name="cacute" unicode="&#x107;" horiz-adv-x="558" 
d="M113 418q72 71 182 71q83 0 145.5 -42t86.5 -113l-68 -21q-18 49 -63.5 79.5t-100.5 30.5q-79 0 -130 -52t-51 -132t51 -132t129 -52q55 0 101 31t66 80l65 -29q-26 -65 -89.5 -106.5t-145.5 -41.5q-108 0 -179 70.5t-71 178.5q0 109 72 180zM257 542l48 139h91l-67 -139
h-72z" />
    <glyph glyph-name="Ccircumflex" unicode="&#x108;" horiz-adv-x="722" 
d="M141 581q97 99 242 99q107 0 190 -56t120 -151l-66 -31q-30 76 -96 123t-149 47q-111 0 -188 -80.5t-77 -197.5t77 -197t189 -80q81 0 146.5 45t95.5 120l68 -29q-37 -93 -120.5 -148.5t-189.5 -55.5q-145 0 -242 98.5t-97 246.5t97 247zM348 874h67l128 -144h-80l-81 91
l-84 -91h-79z" />
    <glyph glyph-name="ccircumflex" unicode="&#x109;" horiz-adv-x="558" 
d="M113 418q72 71 182 71q83 0 145.5 -42t86.5 -113l-68 -21q-18 49 -63.5 79.5t-100.5 30.5q-79 0 -130 -52t-51 -132t51 -132t129 -52q55 0 101 31t66 80l65 -29q-26 -65 -89.5 -106.5t-145.5 -41.5q-108 0 -179 70.5t-71 178.5q0 109 72 180zM144 540l119 137h62
l119 -137h-72l-77 91l-81 -91h-70z" />
    <glyph glyph-name="Cdotaccent" unicode="&#x10a;" horiz-adv-x="722" 
d="M44 334q0 148 97 247t242 99q107 0 190 -56t120 -151l-66 -31q-30 76 -96 123t-149 47q-111 0 -188 -80.5t-77 -197.5t77 -197t189 -80q81 0 146.5 45t95.5 120l68 -29q-37 -93 -120.5 -148.5t-189.5 -55.5q-145 0 -242 98.5t-97 246.5zM328 808q0 23 15.5 38.5
t38.5 15.5t39 -15.5t16 -38.5q0 -22 -16 -37q-16 -16 -39 -16t-38.5 15t-15.5 38z" />
    <glyph glyph-name="cdotaccent" unicode="&#x10b;" horiz-adv-x="558" 
d="M113 418q72 71 182 71q83 0 145.5 -42t86.5 -113l-68 -21q-18 49 -63.5 79.5t-100.5 30.5q-79 0 -130 -52t-51 -132t51 -132t129 -52q55 0 101 31t66 80l65 -29q-26 -65 -89.5 -106.5t-145.5 -41.5q-108 0 -179 70.5t-71 178.5q0 109 72 180zM255 649q16 15 39 15
t38.5 -15.5t15.5 -37.5q0 -23 -15 -38q-16 -16 -39 -16t-39 15.5t-16 38.5q0 22 16 38z" />
    <glyph glyph-name="Ccaron" unicode="&#x10c;" horiz-adv-x="722" 
d="M141 581q97 99 242 99q107 0 190 -56t120 -151l-66 -31q-30 76 -96 123t-149 47q-111 0 -188 -80.5t-77 -197.5t77 -197t189 -80q81 0 146.5 45t95.5 120l68 -29q-37 -93 -120.5 -148.5t-189.5 -55.5q-145 0 -242 98.5t-97 246.5t97 247zM300 872l83 -91l82 91h80
l-128 -144h-67l-129 144h79z" />
    <glyph glyph-name="ccaron" unicode="&#x10d;" horiz-adv-x="558" 
d="M113 418q72 71 182 71q83 0 145.5 -42t86.5 -113l-68 -21q-18 49 -63.5 79.5t-100.5 30.5q-79 0 -130 -52t-51 -132t51 -132t129 -52q55 0 101 31t66 80l65 -29q-26 -65 -89.5 -106.5t-145.5 -41.5q-108 0 -179 70.5t-71 178.5q0 109 72 180zM144 677h70l80 -90l78 90h72
l-119 -138h-63z" />
    <glyph glyph-name="Dcaron" unicode="&#x10e;" horiz-adv-x="708" 
d="M90 0v669h236q154 0 244.5 -93t90.5 -242t-86.5 -241.5t-234.5 -92.5h-250zM163 601v-533h178q111 0 177.5 74.5t66.5 192.5t-67.5 192t-182.5 74h-172zM173 872h79l83 -91l82 91h79l-128 -144h-67z" />
    <glyph glyph-name="dcaron" unicode="&#x10f;" horiz-adv-x="620" 
d="M41 239q0 106 67 177.5t167 71.5q119 0 187 -97v311h73v-702h-72v90q-67 -101 -190 -101q-99 0 -165.5 71.5t-66.5 178.5zM164 108q49 -53 122 -53q77 0 128 52.5t51 131.5q0 78 -51 130.5t-127 52.5q-73 0 -122.5 -52.5t-49.5 -130.5q0 -79 49 -131zM592 540l19 177h75
l-31 -177h-63z" />
    <glyph glyph-name="Dcroat" unicode="&#x110;" horiz-adv-x="720" 
d="M29 307v54h74v308h236q155 0 245 -93t90 -242t-86.5 -241.5t-234.5 -92.5h-250v307h-74zM176 68h178q111 0 178 74.5t67 192.5t-68 192t-183 74h-172v-240h192v-54h-192v-239z" />
    <glyph glyph-name="dcroat" unicode="&#x111;" horiz-adv-x="612" 
d="M108 417q67 71 167 71q119 0 187 -97v173h-180v43h180v95h73v-95h69v-43h-69v-564h-72v90q-67 -101 -190 -101q-99 0 -165.5 71.5t-66.5 178.5q0 106 67 178zM115 239q0 -79 49 -131.5t122 -52.5q77 0 128 52.5t51 131.5q0 78 -51 130.5t-127 52.5q-73 0 -122.5 -52.5
t-49.5 -130.5z" />
    <glyph glyph-name="Emacron" unicode="&#x112;" horiz-adv-x="611" 
d="M90 669h463v-65h-390v-233h376v-65h-376v-241h401v-65h-474v669zM169 775v58h316v-58h-316z" />
    <glyph glyph-name="emacron" unicode="&#x113;" horiz-adv-x="576" 
d="M113 418q71 70 180 70q105 0 173.5 -67.5t68.5 -170.5q0 -20 -2 -38h-420q8 -71 58 -117t123 -46q52 0 95 24.5t65 66.5l58 -28q-26 -56 -86 -89.5t-134 -33.5q-110 0 -180.5 71t-70.5 179t72 179zM113 269h351q-6 70 -54.5 115.5t-117.5 45.5q-70 0 -120.5 -45.5
t-58.5 -115.5zM432 633v-55h-278v55h278z" />
    <glyph glyph-name="Ebreve" unicode="&#x114;" horiz-adv-x="611" 
d="M90 0v669h463v-65h-390v-233h376v-65h-376v-241h401v-65h-474zM172 871h64q1 -41 26.5 -66.5t65.5 -25.5t65 25.5t27 66.5h63q0 -65 -43 -104q-43 -40 -112 -40t-112 39t-44 105z" />
    <glyph glyph-name="ebreve" unicode="&#x115;" horiz-adv-x="576" 
d="M113 418q71 70 180 70q105 0 173.5 -67.5t68.5 -170.5q0 -20 -2 -38h-420q8 -71 58 -117t123 -46q52 0 95 24.5t65 66.5l58 -28q-26 -56 -86 -89.5t-134 -33.5q-110 0 -180.5 71t-70.5 179t72 179zM113 269h351q-6 70 -54.5 115.5t-117.5 45.5q-70 0 -120.5 -45.5
t-58.5 -115.5zM203 679q1 -42 25 -67.5t64 -25.5t64 25.5t25 67.5h61q-1 -64 -42 -101q-41 -38 -108 -38t-107.5 37.5t-41.5 101.5h60z" />
    <glyph glyph-name="Edotaccent" unicode="&#x116;" horiz-adv-x="611" 
d="M90 0v669h463v-65h-390v-233h376v-65h-376v-241h401v-65h-474zM290 847q15 15 38 15t39 -15.5t16 -38.5q0 -22 -16 -37q-16 -16 -39 -16t-38.5 15t-15.5 38t16 39z" />
    <glyph glyph-name="edotaccent" unicode="&#x117;" horiz-adv-x="576" 
d="M113 418q71 70 180 70q105 0 173.5 -67.5t68.5 -170.5q0 -20 -2 -38h-420q8 -71 58 -117t123 -46q52 0 95 24.5t65 66.5l58 -28q-26 -56 -86 -89.5t-134 -33.5q-110 0 -180.5 71t-70.5 179t72 179zM464 269q-6 70 -54.5 115.5t-117.5 45.5q-70 0 -120.5 -45.5
t-58.5 -115.5h351zM238 612q0 22 16 37.5t39 15.5q22 0 37.5 -15.5t15.5 -37.5q0 -23 -15 -38q-15 -16 -38 -16t-39 15.5t-16 38.5z" />
    <glyph glyph-name="Eogonek" unicode="&#x118;" horiz-adv-x="611" 
d="M90 669h463v-65h-390v-233h376v-65h-376v-241h401v-65q-55 -21 -85.5 -55t-30.5 -65q0 -20 11.5 -33t33.5 -13q23 0 64 18l4 -52q-40 -21 -78 -21q-45 0 -70.5 24t-25.5 62q0 32 23.5 69t70.5 66h-391v669z" />
    <glyph glyph-name="eogonek" unicode="&#x119;" horiz-adv-x="576" 
d="M41 239q0 108 71.5 178.5t180.5 70.5q105 0 173.5 -67.5t68.5 -170.5q0 -20 -2 -38h-420q8 -71 58 -117t123 -46q52 0 95 24.5t65 66.5l58 -28q-39 -82 -140 -112q-49 -21 -76 -53t-27 -62q0 -21 11 -34t33 -13q26 0 64 20l5 -53q-39 -22 -79 -22q-44 0 -69.5 24.5
t-25.5 62.5q0 65 71 119q-105 4 -171.5 74.5t-66.5 175.5zM113 269h351q-6 70 -54.5 115.5t-117.5 45.5q-70 0 -120.5 -45.5t-58.5 -115.5z" />
    <glyph glyph-name="Ecaron" unicode="&#x11a;" horiz-adv-x="611" 
d="M90 0v669h463v-65h-390v-233h376v-65h-376v-241h401v-65h-474zM167 872h79l84 -91l81 91h80l-129 -144h-66z" />
    <glyph glyph-name="ecaron" unicode="&#x11b;" horiz-adv-x="576" 
d="M41 239q0 108 71.5 178.5t180.5 70.5q105 0 173.5 -67.5t68.5 -170.5q0 -20 -2 -38h-420q8 -71 58 -117t123 -46q52 0 95 24.5t65 66.5l58 -28q-26 -56 -86 -89.5t-134 -33.5q-110 0 -180.5 71t-70.5 179zM113 269h351q-6 70 -54.5 115.5t-117.5 45.5q-70 0 -120.5 -45.5
t-58.5 -115.5zM142 678h71l80 -91l78 91h71l-119 -138h-62z" />
    <glyph glyph-name="Gcircumflex" unicode="&#x11c;" horiz-adv-x="755" 
d="M142 583q96 98 246 98q93 0 172 -46t121 -124l-59 -43q-31 66 -95 105t-137 39q-120 0 -195 -79t-75 -198q0 -121 76.5 -200t193.5 -79q109 0 179 68t70 171h-267v65h343v-43q0 -143 -92 -236t-235 -93q-149 0 -246 97.5t-97 249.5q0 149 97 248zM226 729l128 144h67
l129 -144h-80l-82 91l-83 -91h-79z" />
    <glyph glyph-name="gcircumflex" unicode="&#x11d;" horiz-adv-x="615" 
d="M110 418q67 70 168 70q124 0 189 -100v91h72v-450q0 -118 -68 -180.5t-193 -62.5q-107 0 -193 49v70q83 -55 188 -55q93 0 143.5 46.5t50.5 133.5v69q-30 -47 -79.5 -74.5t-110.5 -27.5q-101 0 -168 69.5t-67 175.5t68 176zM116 240q0 -76 49.5 -126.5t124.5 -50.5
q76 0 125.5 51t49.5 129t-49.5 129t-124.5 51q-76 0 -125.5 -52t-49.5 -131zM149 539l119 138h62l119 -138h-72l-77 91l-81 -91h-70z" />
    <glyph glyph-name="Gbreve" unicode="&#x11e;" horiz-adv-x="755" 
d="M45 335q0 149 96.5 247.5t246.5 98.5q93 0 172 -46t121 -124l-59 -43q-31 66 -95 105t-137 39q-120 0 -195 -79t-75 -198q0 -121 76.5 -200t193.5 -79q109 0 179 68t70 171h-267v65h343v-43q0 -143 -92 -236t-235 -93q-149 0 -246 97.5t-97 249.5zM233 870h63
q1 -41 26.5 -66t65.5 -25t65.5 25t26.5 66h64q-1 -65 -44 -104q-43 -40 -112 -40t-112 39.5t-43 104.5z" />
    <glyph glyph-name="gbreve" unicode="&#x11f;" horiz-adv-x="615" 
d="M110 418q67 70 168 70q124 0 189 -100v91h72v-450q0 -118 -68 -180.5t-193 -62.5q-107 0 -193 49v70q83 -55 188 -55q93 0 143.5 46.5t50.5 133.5v69q-30 -47 -79.5 -74.5t-110.5 -27.5q-101 0 -168 69.5t-67 175.5t68 176zM116 240q0 -76 49.5 -126.5t124.5 -50.5
q76 0 125.5 51t49.5 129t-49.5 129t-124.5 51q-76 0 -125.5 -52t-49.5 -131zM149 677h60q2 -41 26 -66.5t64 -25.5t64 25.5t25 66.5h60q-1 -63 -41 -100q-41 -38 -108 -38t-108 37t-42 101z" />
    <glyph glyph-name="Gdotaccent" unicode="&#x120;" horiz-adv-x="755" 
d="M45 335q0 149 96.5 247.5t246.5 98.5q93 0 172 -46t121 -124l-59 -43q-31 66 -95 105t-137 39q-120 0 -195 -79t-75 -198q0 -121 76.5 -200t193.5 -79q109 0 179 68t70 171h-267v65h343v-43q0 -143 -92 -236t-235 -93q-149 0 -246 97.5t-97 249.5zM334 807
q0 23 15.5 38.5t38.5 15.5t39 -15.5t16 -38.5q0 -22 -16 -37q-16 -16 -39 -16t-38.5 15t-15.5 38z" />
    <glyph glyph-name="gdotaccent" unicode="&#x121;" horiz-adv-x="615" 
d="M42 242q0 106 67.5 176t168.5 70q124 0 189 -100v91h72v-450q0 -118 -68 -180.5t-193 -62.5q-107 0 -193 49v70q83 -55 188 -55q93 0 143.5 46.5t50.5 133.5v69q-30 -47 -79.5 -74.5t-110.5 -27.5q-101 0 -168 69.5t-67 175.5zM166 114q49 -51 124 -51q76 0 125.5 51
t49.5 129t-49.5 129t-124.5 51q-76 0 -125.5 -52t-49.5 -131q0 -76 50 -126zM260 649q16 15 39 15t38.5 -15.5t15.5 -38.5t-15 -38q-16 -15 -39 -15t-39 15.5t-16 37.5q0 23 16 39z" />
    <glyph glyph-name="uni0122" unicode="&#x122;" horiz-adv-x="755" 
d="M142 583q96 98 246 98q93 0 172 -46t121 -124l-59 -43q-31 66 -95 105t-137 39q-120 0 -195 -79t-75 -198q0 -121 76.5 -200t193.5 -79q109 0 179 68t70 171h-267v65h343v-43q0 -143 -92 -236t-235 -93q-149 0 -246 97.5t-97 249.5q0 149 97 248zM307 -212l34 159h80
l-43 -159h-71z" />
    <glyph glyph-name="uni0123" unicode="&#x123;" horiz-adv-x="615" 
d="M42 242q0 106 67.5 176t168.5 70q124 0 189 -100v91h72v-450q0 -118 -68 -180.5t-193 -62.5q-107 0 -193 49v70q83 -55 188 -55q93 0 143.5 46.5t50.5 133.5v69q-30 -47 -79.5 -74.5t-110.5 -27.5q-101 0 -168 69.5t-67 175.5zM116 240q0 -76 49.5 -126.5t124.5 -50.5
q76 0 125.5 51t49.5 129t-49.5 129t-124.5 51q-76 0 -125.5 -52t-49.5 -131zM250 536l46 147h67l-35 -147h-78z" />
    <glyph glyph-name="Hcircumflex" unicode="&#x124;" horiz-adv-x="733" 
d="M90 669h75v-306h403v306h75v-669h-75v294h-403v-294h-75v669zM332 874h67l128 -144h-79l-82 91l-83 -91h-80z" />
    <glyph glyph-name="hcircumflex" unicode="&#x125;" horiz-adv-x="594" 
d="M78 0v697h74v-300q60 91 174 91q87 0 142.5 -57t55.5 -144v-287h-73v268q0 65 -40 108t-101 43q-68 0 -113 -52t-45 -130v-237h-74zM-47 730l129 143h66l129 -143h-79l-83 91l-82 -91h-80z" />
    <glyph glyph-name="Hbar" unicode="&#x126;" horiz-adv-x="704" 
d="M35 492v49h41v128h74v-128h404v128h75v-128h40v-49h-40v-492h-75v294h-404v-294h-74v492h-41zM150 363h404v129h-404v-129z" />
    <glyph glyph-name="hbar" unicode="&#x127;" horiz-adv-x="594" 
d="M78 607v96h74v-96h154v-42h-154v-168q60 91 174 91q87 0 142.5 -57t55.5 -144v-287h-73v268q0 65 -40 108t-101 43q-68 0 -113 -52t-45 -130v-237h-74v565h-95v42h95z" />
    <glyph glyph-name="Itilde" unicode="&#x128;" horiz-adv-x="256" 
d="M91 669h75v-669h-75v669zM-65 747q0 53 28 85.5t79 32.5q34 0 61 -16.5t50 -33.5t47 -17q27 0 45.5 19t19.5 47h58q-2 -51 -31.5 -84.5t-78.5 -33.5q-39 0 -85.5 33.5t-73.5 33.5t-43 -18t-18 -48h-58z" />
    <glyph glyph-name="itilde" unicode="&#x129;" horiz-adv-x="230" 
d="M78 0v479h74v-479h-74zM-31 644q28 28 73 28q41 0 80 -30.5t63 -30.5q52 0 57 60h56q-3 -55 -30.5 -83.5t-73.5 -28.5q-37 0 -77.5 30.5t-67.5 30.5q-22 0 -36 -15.5t-15 -43.5h-57q1 54 28 83z" />
    <glyph glyph-name="Imacron" unicode="&#x12a;" horiz-adv-x="257" 
d="M286 775h-315v58h315v-58zM92 0v669h74v-669h-74z" />
    <glyph glyph-name="imacron" unicode="&#x12b;" horiz-adv-x="230" 
d="M254 578h-278v54h278v-54zM152 0h-74v479h74v-479z" />
    <glyph glyph-name="Ibreve" unicode="&#x12c;" horiz-adv-x="257" 
d="M166 669v-669h-75v669h75zM-27 871h65q1 -41 26 -66.5t65 -25.5t65.5 25.5t25.5 66.5h65q-1 -66 -44 -105t-112 -39t-112 39t-44 105z" />
    <glyph glyph-name="ibreve" unicode="&#x12d;" horiz-adv-x="230" 
d="M78 479h74v-479h-74v479zM26 678q0 -41 24.5 -66.5t63.5 -25.5q40 0 64.5 25.5t25.5 66.5h60q0 -63 -41.5 -101t-108.5 -38q-66 0 -107 38t-41 101h60z" />
    <glyph glyph-name="Iogonek" unicode="&#x12e;" horiz-adv-x="258" 
d="M-9 -135q0 33 26 72.5t77 68.5v663h74v-669q-55 -21 -85.5 -54.5t-30.5 -65.5q0 -20 11.5 -33t33.5 -13q24 0 64 18l3 -52q-38 -21 -77 -21q-45 0 -70.5 23.5t-25.5 62.5z" />
    <glyph glyph-name="iogonek" unicode="&#x12f;" horiz-adv-x="232" 
d="M-23 -135q0 33 26 72.5t78 68.5v473h73v-479q-55 -21 -85.5 -55t-30.5 -65q0 -20 11.5 -33t33.5 -13q23 0 64 18l4 -52q-40 -21 -79 -21q-45 0 -70 24t-25 62zM63 611q0 22 16 37.5t38 15.5q23 0 38.5 -15.5t15.5 -37.5q0 -23 -15.5 -38.5t-38.5 -15.5t-38.5 15.5
t-15.5 38.5z" />
    <glyph glyph-name="Idotaccent" unicode="&#x130;" horiz-adv-x="257" 
d="M165 669v-669h-75v669h75zM74 808q0 22 16 38t38 16q23 0 39 -15.5t16 -38.5q0 -22 -16 -37q-16 -16 -39 -16t-38.5 15.5t-15.5 37.5z" />
    <glyph glyph-name="dotlessi" unicode="&#x131;" horiz-adv-x="229" 
d="M152 0h-74v479h74v-479z" />
    <glyph glyph-name="IJ" unicode="&#x132;" horiz-adv-x="717" 
d="M259 76q63 -18 120 -18q91 0 137 47t46 122v442h75v-454q0 -104 -65.5 -165t-181.5 -61q-67 0 -131 20v67zM90 0v669h74v-669h-74z" />
    <glyph glyph-name="ij" unicode="&#x133;" horiz-adv-x="477" 
d="M227 -147q54 0 76.5 25.5t22.5 86.5v514h73v-541q0 -71 -42 -111.5t-118 -40.5q-43 0 -84 12v65q44 -10 72 -10zM78 479h74v-479h-74v479zM308 604q0 23 16 39q16 15 39 15t38 -15.5t15 -38.5t-15.5 -38.5t-37.5 -15.5q-23 0 -39 15.5t-16 38.5zM77 649q16 15 38 15
q23 0 38.5 -15.5t15.5 -37.5q0 -23 -15.5 -38.5t-38.5 -15.5t-38.5 15.5t-15.5 38.5q0 22 16 38z" />
    <glyph glyph-name="Jcircumflex" unicode="&#x134;" horiz-adv-x="484" 
d="M144 58q90 0 136 47t46 122v442h74v-454q0 -104 -64.5 -165t-181.5 -61q-67 0 -131 20v67q63 -18 121 -18zM203 730l128 144h66l130 -144h-80l-82 91l-83 -91h-79z" />
    <glyph glyph-name="jcircumflex" unicode="&#x135;" horiz-adv-x="243" 
d="M-7 -147q54 0 76 25.5t22 86.5v514h74v-541q0 -71 -42 -111.5t-119 -40.5q-42 0 -83 12v65q44 -10 72 -10zM-22 540l119 137h62l119 -137h-71l-78 91l-80 -91h-71z" />
    <glyph glyph-name="uni0136" unicode="&#x136;" horiz-adv-x="621" 
d="M164 669v-317l345 317h94l-364 -335l378 -334h-99l-354 310v-310h-74v669h74zM304 -54h80l-43 -160h-71z" />
    <glyph glyph-name="uni0137" unicode="&#x137;" horiz-adv-x="514" 
d="M78 0v701h72v-445l255 223h91l-274 -238l283 -241h-99l-256 219v-219h-72zM199 -220l43 158h75l-54 -158h-64z" />
    <glyph glyph-name="kgreenlandic" unicode="&#x138;" horiz-adv-x="523" 
d="M153 479v-229l262 229h89l-275 -247l286 -232h-100l-262 211v-211h-75v479h75z" />
    <glyph glyph-name="Lacute" unicode="&#x139;" horiz-adv-x="552" 
d="M167 725h-77l51 144h94zM529 0h-439v669h74v-603h365v-66z" />
    <glyph glyph-name="lacute" unicode="&#x13a;" horiz-adv-x="232" 
d="M155 734h-74l49 145h90zM152 701v-701h-74v701h74z" />
    <glyph glyph-name="uni013B" unicode="&#x13b;" horiz-adv-x="552" 
d="M529 0h-439v669h74v-603h365v-66zM318 -212h-70l33 159h81z" />
    <glyph glyph-name="uni013C" unicode="&#x13c;" horiz-adv-x="229" 
d="M140 701v-701h-73v701h73zM99 -215h-66l44 158h76z" />
    <glyph glyph-name="Lcaron" unicode="&#x13d;" horiz-adv-x="556" 
d="M408 540h-64l19 176h75zM529 0h-439v669h74v-603h365v-66z" />
    <glyph glyph-name="lcaron" unicode="&#x13e;" horiz-adv-x="236" 
d="M270 541h-63l20 177h75zM152 701v-701h-74v701h74z" />
    <glyph glyph-name="Ldot" unicode="&#x13f;" horiz-adv-x="555" 
d="M90 669h74v-603h365v-66h-439v669zM346 373q0 21 15 36.5t36 15.5q22 0 37 -15t15 -37q0 -20 -15 -35t-37 -15q-21 0 -36 15t-15 35z" />
    <glyph glyph-name="ldot" unicode="&#x140;" horiz-adv-x="291" 
d="M152 701v-701h-74v701h74zM223 382q15 15 36 15q22 0 36.5 -14.5t14.5 -36.5q0 -20 -15 -35t-36 -15t-36 15t-15 35q0 21 15 36z" />
    <glyph glyph-name="Lslash" unicode="&#x141;" horiz-adv-x="559" 
d="M98 320v349h74v-301l115 75v-71l-115 -75v-231h365v-66h-439v249l-62 -40v70z" />
    <glyph glyph-name="lslash" unicode="&#x142;" horiz-adv-x="290" 
d="M37 286l68 59v356h73v-294l75 65v-78l-75 -65v-329h-73v267l-68 -59v78z" />
    <glyph glyph-name="Nacute" unicode="&#x143;" horiz-adv-x="738" 
d="M90 0v669h70l417 -553v553h71v-669h-68l-419 553v-553h-71zM384 868h93l-68 -144h-76z" />
    <glyph glyph-name="nacute" unicode="&#x144;" horiz-adv-x="592" 
d="M78 479h71v-90q30 50 77.5 74.5t99.5 24.5q86 0 141.5 -57t55.5 -144v-287h-73v271q0 65 -40.5 108t-100.5 43q-67 0 -112 -52t-45 -130v-240h-74v479zM315 681h92l-67 -139h-73z" />
    <glyph glyph-name="uni0145" unicode="&#x145;" horiz-adv-x="738" 
d="M160 669l417 -553v553h71v-669h-68l-419 553v-553h-71v669h70zM350 -53h80l-44 -159h-70z" />
    <glyph glyph-name="uni0146" unicode="&#x146;" horiz-adv-x="592" 
d="M78 479h71v-90q30 50 77.5 74.5t99.5 24.5q86 0 141.5 -57t55.5 -144v-287h-73v271q0 65 -40.5 108t-100.5 43q-67 0 -112 -52t-45 -130v-240h-74v479zM217 -221l43 157h76l-54 -157h-65z" />
    <glyph glyph-name="Ncaron" unicode="&#x147;" horiz-adv-x="738" 
d="M160 669l417 -553v553h71v-669h-68l-419 553v-553h-71v669h70zM207 871h79l84 -91l81 91h80l-129 -144h-66z" />
    <glyph glyph-name="ncaron" unicode="&#x148;" horiz-adv-x="592" 
d="M149 479v-90q30 50 77.5 74.5t99.5 24.5q86 0 141.5 -57t55.5 -144v-287h-73v271q0 65 -40.5 108t-100.5 43q-67 0 -112 -52t-45 -130v-240h-74v479h71zM155 677h70l80 -90l78 90h71l-119 -138h-62z" />
    <glyph glyph-name="Eng" unicode="&#x14a;" horiz-adv-x="738" 
d="M90 669h70l417 -553v553h71v-656q0 -106 -59.5 -166.5t-175.5 -60.5q-61 0 -125 20l-1 72q65 -18 121 -18q157 0 166 147l-413 546v-553h-71v669z" />
    <glyph glyph-name="eng" unicode="&#x14b;" horiz-adv-x="592" 
d="M78 0v479h71v-90q30 50 77.5 74.5t99.5 24.5q86 0 141.5 -57t55.5 -144v-316q0 -86 -49.5 -135.5t-137.5 -49.5q-45 0 -99 16v65q45 -14 82 -14q131 0 131 137v281q0 65 -40.5 108t-100.5 43q-67 0 -112 -52t-45 -130v-240h-74z" />
    <glyph glyph-name="Omacron" unicode="&#x14c;" horiz-adv-x="766" 
d="M141 581q97 99 242 99t241 -99t96 -247t-96 -246.5t-241 -98.5q-146 0 -242.5 98.5t-96.5 246.5t97 247zM194 138q77 -81 189 -81q111 0 187.5 80.5t76.5 196.5q0 117 -76.5 197.5t-187.5 80.5q-112 0 -189 -80.5t-77 -197.5q0 -116 77 -196zM225 773v58h315v-58h-315z
" />
    <glyph glyph-name="omacron" unicode="&#x14d;" horiz-adv-x="587" 
d="M112 418q72 71 181 71t181 -71.5t72 -178.5q0 -108 -72 -179t-181 -71q-108 0 -180.5 71.5t-72.5 178.5t72 179zM165 108q52 -53 129 -53t128.5 53t51.5 131q0 79 -51.5 131.5t-128.5 52.5t-129 -52.5t-52 -131.5t52 -131zM432 632v-54h-278v54h278z" />
    <glyph glyph-name="Obreve" unicode="&#x14e;" horiz-adv-x="766" 
d="M44 334q0 148 97 247t242 99t241 -99t96 -247t-96 -246.5t-241 -98.5q-146 0 -242.5 98.5t-96.5 246.5zM194 138q77 -81 189 -81q111 0 187.5 80.5t76.5 196.5q0 117 -76.5 197.5t-187.5 80.5q-112 0 -189 -80.5t-77 -197.5q0 -116 77 -196zM227 868h65q0 -40 25.5 -65.5
t65.5 -25.5q39 0 64.5 25.5t27.5 65.5h64q-1 -66 -43.5 -104.5t-112.5 -38.5q-69 0 -112 38.5t-44 104.5z" />
    <glyph glyph-name="obreve" unicode="&#x14f;" horiz-adv-x="587" 
d="M40 239q0 107 72 178.5t181 71.5t181 -71.5t72 -178.5q0 -108 -72 -179t-181 -71q-108 0 -180.5 71.5t-72.5 178.5zM165 108q52 -53 129 -53t128.5 53t51.5 131q0 79 -51.5 131.5t-128.5 52.5t-129 -52.5t-52 -131.5t52 -131zM144 678h60q0 -41 24.5 -66.5t64.5 -25.5
q39 0 63.5 25.5t25.5 66.5h60q-1 -63 -42 -101t-107 -38q-67 0 -108 38t-41 101z" />
    <glyph glyph-name="Ohungarumlaut" unicode="&#x150;" horiz-adv-x="766" 
d="M141 581q97 99 242 99t241 -99t96 -247t-96 -246.5t-241 -98.5q-146 0 -242.5 98.5t-96.5 246.5t97 247zM117 334q0 -116 77 -196.5t189 -80.5q111 0 187.5 80.5t76.5 196.5q0 117 -76.5 197.5t-187.5 80.5q-112 0 -189 -80.5t-77 -197.5zM470 870h88l-67 -146h-70z
M303 870h89l-66 -146h-69z" />
    <glyph glyph-name="ohungarumlaut" unicode="&#x151;" horiz-adv-x="587" 
d="M112 418q72 71 181 71t181 -71.5t72 -178.5q0 -108 -72 -179t-181 -71q-108 0 -180.5 71.5t-72.5 178.5t72 179zM113 239q0 -79 52 -131q52 -53 129 -53t128.5 53t51.5 131q0 79 -51.5 131.5t-128.5 52.5t-129 -52.5t-52 -131.5zM326 542l53 139h87l-71 -139h-69z
M182 542l38 139h87l-58 -139h-67z" />
    <glyph glyph-name="OE" unicode="&#x152;" horiz-adv-x="1109" 
d="M674 308v-243h391v-65h-461v140q-39 -71 -103 -111t-148 -40q-133 0 -220 97.5t-87 247.5t87 248t220 98q84 0 148 -40t103 -111v140h449v-65h-379v-236h359v-60h-359zM361 55q103 0 172 80.5t69 198.5t-69.5 198.5t-172.5 80.5t-172.5 -80.5t-69.5 -198.5t69.5 -198.5
t173.5 -80.5z" />
    <glyph glyph-name="oe" unicode="&#x153;" horiz-adv-x="941" 
d="M900 253q0 -28 -3 -43h-389q6 -70 53 -115t114 -45q46 0 85 25t60 66l59 -26q-27 -58 -82 -91.5t-125 -33.5q-66 0 -119.5 32t-82.5 91q-28 -58 -80.5 -91t-116.5 -33q-99 0 -165.5 71.5t-66.5 177.5q0 107 67 179t165 72q65 0 116.5 -33.5t80.5 -91.5q29 58 83 91.5
t120 33.5q98 0 162.5 -68t64.5 -168zM671 430q-66 0 -112 -47t-51 -119h322q-3 72 -47.5 119t-111.5 47zM276 53q70 0 116.5 52t46.5 134q0 80 -46 132.5t-117 52.5t-117.5 -52.5t-46.5 -132.5t46.5 -133t117.5 -53z" />
    <glyph glyph-name="Racute" unicode="&#x154;" horiz-adv-x="659" 
d="M90 669h295q99 0 162.5 -61t63.5 -155q0 -84 -50.5 -140.5t-132.5 -69.5l185 -243h-89l-174 235h-187v-235h-73v669zM163 299h202q77 0 124.5 40.5t47.5 110.5q0 67 -45.5 111t-117.5 44h-211v-306zM280 725l51 144h94l-69 -144h-76z" />
    <glyph glyph-name="racute" unicode="&#x155;" horiz-adv-x="386" 
d="M78 0v479h71v-78q49 88 156 88q31 0 64 -9l-1 -71q-31 11 -71 11q-65 0 -106 -44t-41 -117v-259h-72zM231 682h92l-67 -139h-73z" />
    <glyph glyph-name="uni0156" unicode="&#x156;" horiz-adv-x="659" 
d="M90 0v669h295q99 0 162.5 -61t63.5 -155q0 -84 -50.5 -140.5t-132.5 -69.5l185 -243h-89l-174 235h-187v-235h-73zM163 299h202q77 0 124.5 40.5t47.5 110.5q0 67 -45.5 111t-117.5 44h-211v-306zM294 -54h80l-43 -160h-70z" />
    <glyph glyph-name="uni0157" unicode="&#x157;" horiz-adv-x="386" 
d="M149 479v-78q49 88 156 88q31 0 64 -9l-1 -71q-31 11 -71 11q-65 0 -106 -44t-41 -117v-259h-72v479h71zM76 -61h74l-52 -158h-66z" />
    <glyph glyph-name="Rcaron" unicode="&#x158;" horiz-adv-x="659" 
d="M90 669h295q99 0 162.5 -61t63.5 -155q0 -84 -50.5 -140.5t-132.5 -69.5l185 -243h-89l-174 235h-187v-235h-73v669zM163 299h202q77 0 124.5 40.5t47.5 110.5q0 67 -45.5 111t-117.5 44h-211v-306zM154 872h80l82 -91l83 91h79l-128 -144h-67z" />
    <glyph glyph-name="rcaron" unicode="&#x159;" horiz-adv-x="388" 
d="M79 0v479h70v-79q23 43 64.5 66t92.5 23q31 0 64 -9l-1 -71q-31 11 -70 11q-65 0 -106.5 -44t-41.5 -117v-259h-72zM72 678h70l80 -91l78 91h71l-119 -138h-62z" />
    <glyph glyph-name="Sacute" unicode="&#x15a;" horiz-adv-x="627" 
d="M32 79l31 60q108 -84 262 -84q84 0 136 34.5t52 95.5q0 26 -12 45.5t-29.5 31.5t-47.5 21t-53.5 13.5t-60.5 9.5q-40 6 -66 11t-65 19t-62.5 32t-41 50t-17.5 73q0 91 69.5 140t190.5 49q130 0 246 -58l-30 -59q-105 53 -217 53q-90 0 -137 -32.5t-47 -88.5
q0 -31 16 -53.5t47 -36t59 -20.5t71 -13q34 -5 51.5 -8t50.5 -10.5t51.5 -15t42.5 -22t36.5 -31.5t22 -42t9.5 -55q0 -99 -75.5 -148.5t-196.5 -49.5q-167 0 -286 89zM289 724l51 144h94l-68 -144h-77z" />
    <glyph glyph-name="sacute" unicode="&#x15b;" horiz-adv-x="502" 
d="M32 54l29 57q89 -60 200 -60q59 0 98 20t39 60q0 39 -36.5 54.5t-119.5 28.5q-32 5 -54 9.5t-49.5 15t-44 24t-28.5 35.5t-12 51q0 66 53.5 103.5t147.5 37.5q99 0 190 -41l-20 -58q-89 40 -172 40q-61 0 -95 -21t-34 -58q0 -17 8 -29.5t18 -19.5t31.5 -13t35 -9t41.5 -7
q40 -6 65.5 -11.5t55.5 -16t47.5 -24.5t29 -36.5t11.5 -51.5q0 -70 -59 -107t-153 -37q-127 0 -223 64zM226 543l48 138h91l-67 -138h-72z" />
    <glyph glyph-name="Scircumflex" unicode="&#x15c;" horiz-adv-x="627" 
d="M32 79l31 60q108 -84 262 -84q84 0 136 34.5t52 95.5q0 26 -12 45.5t-29.5 31.5t-47.5 21t-53.5 13.5t-60.5 9.5q-40 6 -66 11t-65 19t-62.5 32t-41 50t-17.5 73q0 91 69.5 140t190.5 49q130 0 246 -58l-30 -59q-105 53 -217 53q-90 0 -137 -32.5t-47 -88.5
q0 -31 16 -53.5t47 -36t59 -20.5t71 -13q34 -5 51.5 -8t50.5 -10.5t51.5 -15t42.5 -22t36.5 -31.5t22 -42t9.5 -55q0 -99 -75.5 -148.5t-196.5 -49.5q-167 0 -286 89zM162 729l128 144h67l129 -144h-80l-82 91l-83 -91h-79z" />
    <glyph glyph-name="scircumflex" unicode="&#x15d;" horiz-adv-x="502" 
d="M61 111q89 -60 200 -60q59 0 98 20t39 60q0 39 -36.5 54.5t-119.5 28.5q-32 5 -54 9.5t-49.5 15t-44 24t-28.5 35.5t-12 51q0 66 53.5 103.5t147.5 37.5q99 0 190 -41l-20 -58q-89 40 -172 40q-61 0 -95 -21t-34 -58q0 -17 8 -29.5t18 -19.5t31.5 -13t35 -9t41.5 -7
q40 -6 65.5 -11.5t55.5 -16t47.5 -24.5t29 -36.5t11.5 -51.5q0 -70 -59 -107t-153 -37q-127 0 -223 64zM113 542l118 137h63l119 -137h-72l-78 91l-80 -91h-70z" />
    <glyph glyph-name="Scedilla" unicode="&#x15e;" horiz-adv-x="627" 
d="M32 79l31 60q108 -84 262 -84q84 0 136 34.5t52 95.5q0 26 -12 45.5t-29.5 31.5t-47.5 21t-53.5 13.5t-60.5 9.5q-40 6 -66 11t-65 19t-62.5 32t-41 50t-17.5 73q0 91 69.5 140t190.5 49q130 0 246 -58l-30 -59q-105 53 -217 53q-90 0 -137 -32.5t-47 -88.5
q0 -31 16 -53.5t47 -36t59 -20.5t71 -13q34 -5 51.5 -8t50.5 -10.5t51.5 -15t42.5 -22t36.5 -31.5t22 -42t9.5 -55q0 -97 -73 -146.5t-190 -51.5l-13 -44h8q49 0 78 -22.5t29 -59.5q0 -42 -33.5 -69t-91.5 -27q-47 0 -92 16l2 47q42 -15 82 -15q74 0 74 52q0 44 -67 44h-48
l-5 9l23 71q-142 13 -241 87z" />
    <glyph glyph-name="scedilla" unicode="&#x15f;" horiz-adv-x="502" 
d="M32 54l29 57q89 -60 200 -60q59 0 98 20t39 60q0 39 -36.5 54.5t-119.5 28.5q-32 5 -54 9.5t-49.5 15t-44 24t-28.5 35.5t-12 51q0 66 53.5 103.5t147.5 37.5q99 0 190 -41l-20 -58q-89 40 -172 40q-61 0 -95 -21t-34 -58q0 -17 8 -29.5t18 -19.5t31.5 -13t35 -9t41.5 -7
q40 -6 65.5 -11.5t55.5 -16t47.5 -24.5t29 -36.5t11.5 -51.5q0 -70 -58.5 -107t-152.5 -37l-13 -42h8q48 0 77.5 -23t29.5 -59q0 -42 -33.5 -68.5t-91.5 -26.5q-51 0 -92 14l2 47q39 -14 82 -14q75 0 75 51q0 45 -68 45h-48l-5 9l23 70q-99 13 -170 61z" />
    <glyph glyph-name="Scaron" unicode="&#x160;" horiz-adv-x="627" 
d="M32 79l31 60q108 -84 262 -84q84 0 136 34.5t52 95.5q0 26 -12 45.5t-29.5 31.5t-47.5 21t-53.5 13.5t-60.5 9.5q-40 6 -66 11t-65 19t-62.5 32t-41 50t-17.5 73q0 91 69.5 140t190.5 49q130 0 246 -58l-30 -59q-105 53 -217 53q-90 0 -137 -32.5t-47 -88.5
q0 -31 16 -53.5t47 -36t59 -20.5t71 -13q34 -5 51.5 -8t50.5 -10.5t51.5 -15t42.5 -22t36.5 -31.5t22 -42t9.5 -55q0 -99 -75.5 -148.5t-196.5 -49.5q-167 0 -286 89zM163 871h80l83 -91l82 91h79l-128 -144h-67z" />
    <glyph glyph-name="scaron" unicode="&#x161;" horiz-adv-x="502" 
d="M61 111q89 -60 200 -60q59 0 98 20t39 60q0 39 -36.5 54.5t-119.5 28.5q-32 5 -54 9.5t-49.5 15t-44 24t-28.5 35.5t-12 51q0 66 53.5 103.5t147.5 37.5q99 0 190 -41l-20 -58q-89 40 -172 40q-61 0 -95 -21t-34 -58q0 -17 8 -29.5t18 -19.5t31.5 -13t35 -9t41.5 -7
q40 -6 65.5 -11.5t55.5 -16t47.5 -24.5t29 -36.5t11.5 -51.5q0 -70 -59 -107t-153 -37q-127 0 -223 64zM113 679h70l80 -91l78 91h72l-120 -138h-62z" />
    <glyph glyph-name="Tcaron" unicode="&#x164;" horiz-adv-x="566" 
d="M22 604v65h522v-65h-224v-604h-74v604h-224zM123 872h79l83 -91l82 91h80l-129 -144h-66z" />
    <glyph glyph-name="tcaron" unicode="&#x165;" horiz-adv-x="385" 
d="M22 479h88v179h72v-179h167v-62h-167v-264q0 -50 21 -74t73 -24q44 0 91 18v-62q-52 -22 -106 -22q-74 0 -112.5 41t-38.5 113v274h-88v62zM285 718h76l-32 -176h-63z" />
    <glyph glyph-name="Tbar" unicode="&#x166;" horiz-adv-x="583" 
d="M553 669v-65h-224v-269h145v-59h-145v-276h-74v276h-144v59h144v269h-225v65h523z" />
    <glyph glyph-name="tbar" unicode="&#x167;" horiz-adv-x="375" 
d="M22 289h88v128h-88v62h88v179h72v-179h167v-62h-167v-128h167v-40h-167v-96q0 -50 21 -74t73 -24q44 0 91 18v-62q-52 -22 -106 -22q-74 0 -112.5 41t-38.5 113v106h-88v40z" />
    <glyph glyph-name="Utilde" unicode="&#x168;" horiz-adv-x="707" 
d="M155 669v-412q0 -86 55.5 -141.5t142.5 -55.5q86 0 142.5 55.5t56.5 141.5v412h74v-416q0 -117 -76 -190q-77 -74 -197 -74t-196 73.5t-76 190.5v416h74zM189 832q28 33 78 33q34 0 61 -16.5t50 -33.5t47 -17q27 0 45.5 19t19.5 47h58q-1 -51 -31 -84.5t-79 -33.5
q-39 0 -85.5 33.5t-73.5 33.5t-43 -18t-18 -48h-58q0 52 29 85z" />
    <glyph glyph-name="utilde" unicode="&#x169;" horiz-adv-x="592" 
d="M69 479h73v-272q0 -66 40 -108.5t100 -42.5q66 0 112.5 50t46.5 125v248h74v-479h-72v89q-30 -50 -78 -74.5t-101 -24.5q-87 0 -141 58t-54 152v279zM146 644q27 28 73 28q32 0 56.5 -15t44.5 -30.5t41 -15.5q25 0 40.5 16t16.5 44h56q-2 -54 -29.5 -83t-73.5 -29
q-37 0 -77.5 30.5t-67.5 30.5q-23 0 -37 -15.5t-14 -43.5h-57q1 54 28 83z" />
    <glyph glyph-name="Umacron" unicode="&#x16a;" horiz-adv-x="707" 
d="M155 669v-412q0 -86 55.5 -141.5t142.5 -55.5q86 0 142.5 55.5t56.5 141.5v412h74v-416q0 -117 -76 -190q-77 -74 -197 -74t-196 73.5t-76 190.5v416h74zM196 775v58h315v-58h-315z" />
    <glyph glyph-name="umacron" unicode="&#x16b;" horiz-adv-x="592" 
d="M69 479h73v-272q0 -66 40 -108.5t100 -42.5q66 0 112.5 50t46.5 125v248h74v-479h-72v89q-30 -50 -78 -74.5t-101 -24.5q-87 0 -141 58t-54 152v279zM152 632h278v-54h-278v54z" />
    <glyph glyph-name="Ubreve" unicode="&#x16c;" horiz-adv-x="707" 
d="M155 669v-412q0 -86 55.5 -141.5t142.5 -55.5q86 0 142.5 55.5t56.5 141.5v412h74v-416q0 -117 -76 -190q-77 -74 -197 -74t-196 73.5t-76 190.5v416h74zM198 871h65q1 -41 26 -66.5t65 -25.5t65.5 25.5t25.5 66.5h65q-1 -66 -44 -105t-112 -39t-112 39t-44 105z" />
    <glyph glyph-name="ubreve" unicode="&#x16d;" horiz-adv-x="592" 
d="M69 200v279h73v-272q0 -66 40 -108.5t100 -42.5q66 0 112.5 50t46.5 125v248h74v-479h-72v89q-30 -50 -78 -74.5t-101 -24.5q-87 0 -141 58t-54 152zM202 678q1 -41 25 -66.5t64 -25.5t64 25.5t25 66.5h60q0 -63 -41 -101t-108 -38t-107.5 37.5t-41.5 101.5h60z" />
    <glyph glyph-name="Uring" unicode="&#x16e;" horiz-adv-x="707" 
d="M81 669h74v-412q0 -86 55.5 -141.5t142.5 -55.5q86 0 142.5 55.5t56.5 141.5v412h74v-416q0 -117 -76 -190q-77 -74 -197 -74t-196 73.5t-76 190.5v416zM246 809q0 43 31 72.5t77 29.5t77 -29.5t31 -72.5t-31 -72q-31 -30 -77 -30t-77 29.5t-31 72.5zM310 766
q18 -18 44 -18t43.5 17t17.5 43t-17.5 44t-43.5 18t-44 -18t-18 -44q0 -25 18 -42z" />
    <glyph glyph-name="uring" unicode="&#x16f;" horiz-adv-x="592" 
d="M142 479v-272q0 -66 40 -108.5t100 -42.5q66 0 112.5 50t46.5 125v248h74v-479h-72v89q-30 -50 -78 -74.5t-101 -24.5q-87 0 -141 58t-54 152v279h73zM187 631q0 42 29.5 70.5t73.5 28.5q45 0 74.5 -28.5t29.5 -70.5t-29.5 -70t-74.5 -28q-44 0 -73.5 28.5t-29.5 69.5z
M229 631q0 -25 17.5 -42.5t43.5 -17.5t44 17.5t18 42.5t-18 43t-44 18q-25 0 -43 -18t-18 -43z" />
    <glyph glyph-name="Uhungarumlaut" unicode="&#x170;" horiz-adv-x="707" 
d="M81 669h74v-412q0 -86 55.5 -141.5t142.5 -55.5q86 0 142.5 55.5t56.5 141.5v412h74v-416q0 -117 -76 -190q-77 -74 -197 -74t-196 73.5t-76 190.5v416zM441 872h88l-67 -146h-70zM228 726l46 146h89l-66 -146h-69z" />
    <glyph glyph-name="uhungarumlaut" unicode="&#x171;" horiz-adv-x="592" 
d="M69 479h73v-272q0 -66 40 -108.5t100 -42.5q66 0 112.5 50t46.5 125v248h74v-479h-72v89q-30 -50 -78 -74.5t-101 -24.5q-87 0 -141 58t-54 152v279zM378 681h87l-71 -139h-69zM218 681h88l-59 -139h-67z" />
    <glyph glyph-name="Uogonek" unicode="&#x172;" horiz-adv-x="707" 
d="M81 669h74v-412q0 -86 55.5 -141.5t142.5 -55.5q86 0 142.5 55.5t56.5 141.5v412h74v-416q0 -92 -49.5 -159t-132.5 -92q-51 -21 -79 -54t-28 -63q0 -46 45 -46q24 0 64 18l3 -52q-39 -22 -77 -22q-45 0 -70.5 24t-25.5 63q0 27 18 59t53 60q-118 2 -192 75.5t-74 188.5
v416z" />
    <glyph glyph-name="uogonek" unicode="&#x173;" horiz-adv-x="592" 
d="M69 479h73v-272q0 -66 40 -108.5t100 -42.5q66 0 112.5 50t46.5 125v248h74v-479h-2q-55 -21 -85 -54.5t-30 -65.5q0 -20 11.5 -33t33.5 -13q21 0 64 18l4 -52q-41 -21 -79 -21q-45 0 -70 24t-25 62q0 34 26.5 73.5t79.5 68.5v82q-30 -50 -78 -74.5t-101 -24.5
q-87 0 -141 58t-54 152v279z" />
    <glyph glyph-name="Wcircumflex" unicode="&#x174;" horiz-adv-x="951" 
d="M23 669h78l165 -571l176 571h65l179 -569l163 569h77l-202 -669h-76l-173 560l-173 -560h-77zM312 730l129 144h67l128 -144h-79l-82 91l-83 -91h-80z" />
    <glyph glyph-name="wcircumflex" unicode="&#x175;" horiz-adv-x="790" 
d="M97 479l135 -395l129 395h71l128 -393l133 393h81l-178 -479h-73l-127 399l-129 -399h-73l-178 479h81zM245 540l118 137h63l119 -137h-72l-78 91l-80 -91h-70z" />
    <glyph glyph-name="Ycircumflex" unicode="&#x176;" horiz-adv-x="633" 
d="M107 669l209 -362l212 362h85l-260 -437v-232h-74v232l-257 437h85zM156 730l129 144h66l128 -144h-79l-82 91l-83 -91h-79z" />
    <glyph glyph-name="ycircumflex" unicode="&#x177;" horiz-adv-x="549" 
d="M93 479l190 -433l172 433h77l-210 -514q-15 -36 -28 -60.5t-37 -55.5t-59.5 -47.5t-80.5 -16.5q-47 0 -96 18v68q43 -20 88 -20q88 0 129 97l8 19l-231 512h78zM123 540l119 137h62l119 -137h-72l-77 91l-81 -91h-70z" />
    <glyph glyph-name="Ydieresis" unicode="&#x178;" horiz-adv-x="633" 
d="M107 669l209 -362l212 362h85l-260 -437v-232h-74v232l-257 437h85zM345 810q0 23 17 39.5t41 16.5q25 0 41.5 -16.5t16.5 -39.5q0 -24 -16.5 -40.5t-41.5 -16.5q-24 0 -41 16.5t-17 40.5zM175 810q0 23 17 39.5t41 16.5t40.5 -16.5t16.5 -39.5q0 -24 -16 -40
q-17 -17 -41 -17t-41 16.5t-17 40.5z" />
    <glyph glyph-name="Zacute" unicode="&#x179;" horiz-adv-x="577" 
d="M306 870h93l-67 -144h-77zM540 608l-419 -543h430v-65h-522v60l423 544h-412v65h500v-61z" />
    <glyph glyph-name="zacute" unicode="&#x17a;" horiz-adv-x="474" 
d="M276 542h-72l48 139h91zM446 0h-419v51l312 365h-293v63h388v-49l-310 -368h322v-62z" />
    <glyph glyph-name="Zdotaccent" unicode="&#x17b;" horiz-adv-x="577" 
d="M29 60l423 544h-412v65h500v-61l-419 -543h430v-65h-522v60zM236 809q0 23 15.5 38.5t38.5 15.5t39 -15.5t16 -38.5t-16 -38q-16 -16 -39 -16t-38.5 15.5t-15.5 38.5z" />
    <glyph glyph-name="zdotaccent" unicode="&#x17c;" horiz-adv-x="474" 
d="M27 51l312 365h-293v63h388v-49l-310 -368h322v-62h-419v51zM187 611q0 22 16 37.5t38 15.5q23 0 38.5 -15.5t15.5 -37.5q0 -23 -15 -38q-16 -16 -39 -16t-38.5 15.5t-15.5 38.5z" />
    <glyph glyph-name="Zcaron" unicode="&#x17d;" horiz-adv-x="577" 
d="M29 60l423 544h-412v65h500v-61l-419 -543h430v-65h-522v60zM129 873h79l84 -92l81 92h80l-128 -144h-67z" />
    <glyph glyph-name="zcaron" unicode="&#x17e;" horiz-adv-x="474" 
d="M339 416h-293v63h388v-49l-310 -368h322v-62h-419v51zM91 677h70l80 -90l78 90h72l-119 -138h-62z" />
    <glyph glyph-name="Aringacute" unicode="&#x1fa;" horiz-adv-x="662" 
d="M294 669h78l273 -669h-80l-69 177h-330l-70 -177h-80zM472 241l-138 356l-144 -356h282zM255 882q31 29 77 29q34 0 61 -17.5t39 -45.5l117 63l29 -61l-138 -51q-5 -39 -35.5 -65.5t-72.5 -26.5q-46 0 -77 29.5t-31 72.5t31 73zM271 808q0 -26 17.5 -43t43.5 -17t44 17.5
t18 42.5q0 26 -18 44t-44 18t-43.5 -18t-17.5 -44z" />
    <glyph glyph-name="aringacute" unicode="&#x1fb;" horiz-adv-x="615" 
d="M109 418q67 71 169 71q61 0 109.5 -28t79.5 -76v94h70v-479h-70v94q-67 -105 -190 -105q-101 0 -168.5 71t-67.5 179t68 179zM165 108q50 -53 125 -53t125.5 53.5t50.5 132.5q0 77 -50.5 129.5t-124.5 52.5q-75 0 -125.5 -52.5t-50.5 -131.5t50 -131zM196 630
q0 42 29.5 71t74.5 29q33 0 59 -17t37 -45l97 56l31 -59l-122 -48q-5 -36 -34 -59.5t-68 -23.5q-45 0 -74.5 28t-29.5 68zM238 630q0 -25 18 -42t44 -17q25 0 43 17t18 42t-18 43.5t-43 18.5q-26 0 -44 -18t-18 -44z" />
    <glyph glyph-name="AEacute" unicode="&#x1fc;" horiz-adv-x="952" 
d="M-10 0l409 669h497v-65h-383v-236h364v-60h-364v-243h394v-65h-464v181h-267l-109 -181h-77zM213 242h230v380zM631 869h93l-67 -144h-77z" />
    <glyph glyph-name="aeacute" unicode="&#x1fd;" horiz-adv-x="902" 
d="M36 135q0 64 47.5 101t132.5 37h177v9q0 74 -36 110.5t-118 36.5q-85 0 -165 -32v60q79 32 173 32q149 0 193 -111q31 53 82.5 82t113.5 29q97 0 161 -65t64 -162q0 -33 -2 -43h-390q4 -73 50.5 -121.5t114.5 -48.5q48 0 87.5 24t61.5 66l57 -25q-27 -58 -81.5 -91
t-124.5 -33q-65 0 -118 32t-83 90q-26 -54 -82.5 -88.5t-132.5 -34.5q-83 0 -132.5 39.5t-49.5 106.5zM138 71q33 -25 87 -25q75 0 121.5 47t46.5 121v4h-168q-120 0 -120 -80q0 -42 33 -67zM794 273q-5 69 -49 114q-45 44 -110 44t-110.5 -45t-53.5 -113h323zM406 543
l48 139h91l-67 -139h-72z" />
    <glyph glyph-name="Oslashacute" unicode="&#x1fe;" horiz-adv-x="763" 
d="M141 581q96 99 241 99q100 0 181 -51l75 102l35 -26l-74 -103q56 -47 87.5 -116.5t31.5 -151.5q0 -148 -96 -246.5t-240 -98.5q-100 0 -183 51l-72 -100l-36 27l71 100q-56 47 -87 116.5t-31 150.5q0 148 97 247zM382 52q115 0 191.5 80.5t76.5 201.5q0 132 -90 214
l-324 -454q65 -42 146 -42zM113 334q0 -130 89 -213l324 453q-64 42 -144 42q-115 0 -192 -81t-77 -201zM340 725l51 144h93l-68 -144h-76z" />
    <glyph glyph-name="oslashacute" unicode="&#x1ff;" horiz-adv-x="589" 
d="M113 418q72 71 181 71q69 0 122 -29l55 79l33 -21l-54 -79q97 -73 97 -201q0 -107 -72 -178t-181 -71q-66 0 -120 28l-55 -79l-34 21l54 78q-99 73 -99 201q0 108 73 180zM176 93l205 313q-40 20 -86 20q-79 0 -132.5 -53.5t-53.5 -133.5q0 -92 67 -146zM295 52
q79 0 131.5 53.5t52.5 133.5q0 90 -66 145l-203 -313q40 -19 85 -19zM286 682h92l-67 -139h-73z" />
    <glyph glyph-name="uni0218" unicode="&#x218;" horiz-adv-x="627" 
d="M32 79l31 60q108 -84 262 -84q84 0 136 34.5t52 95.5q0 26 -12 45.5t-29.5 31.5t-47.5 21t-53.5 13.5t-60.5 9.5q-40 6 -66 11t-65 19t-62.5 32t-41 50t-17.5 73q0 91 69.5 140t190.5 49q130 0 246 -58l-30 -59q-105 53 -217 53q-90 0 -137 -32.5t-47 -88.5
q0 -31 16 -53.5t47 -36t59 -20.5t71 -13q34 -5 51.5 -8t50.5 -10.5t51.5 -15t42.5 -22t36.5 -31.5t22 -42t9.5 -55q0 -99 -75.5 -148.5t-196.5 -49.5q-167 0 -286 89zM277 -54h79l-43 -160h-70z" />
    <glyph glyph-name="uni0219" unicode="&#x219;" horiz-adv-x="502" 
d="M32 54l29 57q89 -60 200 -60q59 0 98 20t39 60q0 39 -36.5 54.5t-119.5 28.5q-32 5 -54 9.5t-49.5 15t-44 24t-28.5 35.5t-12 51q0 66 53.5 103.5t147.5 37.5q99 0 190 -41l-20 -58q-89 40 -172 40q-61 0 -95 -21t-34 -58q0 -17 8 -29.5t18 -19.5t31.5 -13t35 -9t41.5 -7
q40 -6 65.5 -11.5t55.5 -16t47.5 -24.5t29 -36.5t11.5 -51.5q0 -70 -59 -107t-153 -37q-127 0 -223 64zM178 -220l43 159h76l-54 -159h-65z" />
    <glyph glyph-name="uni021A" unicode="&#x21a;" horiz-adv-x="566" 
d="M22 604v65h522v-65h-224v-604h-74v604h-224zM206 -219l34 160h79l-43 -160h-70z" />
    <glyph glyph-name="uni021B" unicode="&#x21b;" horiz-adv-x="375" 
d="M22 417v62h88v179h72v-179h167v-62h-167v-264q0 -50 21 -74t73 -24q44 0 91 18v-62q-52 -22 -106 -22q-74 0 -112.5 41t-38.5 113v274h-88zM144 -217l43 158h76l-54 -158h-65z" />
    <glyph glyph-name="uni0237" unicode="&#x237;" horiz-adv-x="242" 
d="M-7 -147q54 0 76 25.5t22 86.5v514h74v-541q0 -71 -42 -111.5t-119 -40.5q-42 0 -83 12v65q44 -10 72 -10z" />
    <glyph glyph-name="circumflex" unicode="&#x2c6;" horiz-adv-x="392" 
d="M165 679h62l119 -137h-72l-78 90l-80 -90h-70z" />
    <glyph glyph-name="caron" unicode="&#x2c7;" horiz-adv-x="392" 
d="M46 678h70l80 -90l78 90h72l-119 -137h-62z" />
    <glyph glyph-name="breve" unicode="&#x2d8;" horiz-adv-x="407" 
d="M54 679h60q1 -41 25.5 -66.5t64.5 -25.5q39 0 63.5 25.5t24.5 66.5h60q0 -63 -40 -100q-41 -38 -108 -38t-108 37.5t-42 100.5z" />
    <glyph glyph-name="dotaccent" unicode="&#x2d9;" horiz-adv-x="227" 
d="M59 612q0 22 16 37.5t39 15.5t38.5 -15.5t15.5 -37.5q0 -23 -15 -38q-16 -16 -39 -16t-39 15.5t-16 38.5z" />
    <glyph glyph-name="ring" unicode="&#x2da;" horiz-adv-x="317" 
d="M85 702q29 29 74 29q43 0 73 -29t30 -71q0 -40 -30 -68t-73 -28q-45 0 -74.5 28t-29.5 68q0 42 30 71zM97 631q0 -25 18 -42t44 -17t43.5 17t17.5 42q0 26 -18 44t-43 18q-26 0 -44 -18t-18 -44z" />
    <glyph glyph-name="ogonek" unicode="&#x2db;" horiz-adv-x="282" 
d="M148 -220q-45 0 -70 24t-25 62q0 39 31 81.5t95 71.5l50 -18q-55 -20 -85 -54t-30 -66q0 -20 11.5 -33t32.5 -13q24 0 64 19l5 -52q-40 -22 -79 -22z" />
    <glyph glyph-name="tilde" unicode="&#x2dc;" horiz-adv-x="467" 
d="M56 569q1 54 28.5 83t72.5 29q41 0 80 -30.5t63 -30.5q53 0 56 59h57q-3 -55 -30.5 -83.5t-73.5 -28.5q-37 0 -77.5 31t-67.5 31q-23 0 -37 -16t-14 -44h-57z" />
    <glyph glyph-name="hungarumlaut" unicode="&#x2dd;" horiz-adv-x="385" 
d="M249 682h87l-71 -139h-68zM90 682h87l-58 -139h-67z" />
    <glyph glyph-name="gravecomb" unicode="&#x300;" horiz-adv-x="0" 
d="M-48 682l48 -139h-72l-67 139h91z" />
    <glyph glyph-name="acutecomb" unicode="&#x301;" horiz-adv-x="0" 
d="M-67 543h-72l48 139h91z" />
    <glyph glyph-name="uni0302" unicode="&#x302;" horiz-adv-x="0" 
d="M-181 679h62l119 -137h-72l-78 90l-80 -90h-70z" />
    <glyph glyph-name="tildecomb" unicode="&#x303;" horiz-adv-x="0" 
d="M-357 569q1 54 28.5 83t72.5 29q41 0 80 -30.5t63 -30.5q53 0 56 59h57q-3 -55 -30.5 -83.5t-73.5 -28.5q-37 0 -77.5 31t-67.5 31q-23 0 -37 -16t-14 -44h-57z" />
    <glyph glyph-name="uni0304" unicode="&#x304;" horiz-adv-x="0" 
d="M0 579h-278v55h278v-55z" />
    <glyph glyph-name="uni0306" unicode="&#x306;" horiz-adv-x="0" 
d="M-298 679h59q1 -41 25.5 -66.5t64.5 -25.5q39 0 63.5 25.5t25.5 66.5h60q0 -63 -41 -100q-41 -38 -108 -38t-108 37.5t-41 100.5z" />
    <glyph glyph-name="uni0307" unicode="&#x307;" horiz-adv-x="0" 
d="M-109 612q0 22 16 37.5t38 15.5q23 0 39 -15.5t16 -37.5q0 -23 -16 -38q-16 -16 -39 -16t-38.5 15.5t-15.5 38.5z" />
    <glyph glyph-name="uni0308" unicode="&#x308;" horiz-adv-x="0" 
d="M-255 640q16 15 39 15t39 -15.5t16 -38.5t-16 -38.5t-39 -15.5q-22 0 -38 15.5t-16 38.5t15 39zM-94 640q16 15 39 15t39 -15.5t16 -38.5q0 -22 -16 -38t-39 -16t-38.5 15.5t-15.5 38.5t15 39z" />
    <glyph glyph-name="uni030A" unicode="&#x30a;" horiz-adv-x="0" 
d="M-178 702q30 29 75 29q43 0 73 -29t30 -71q0 -40 -30 -68t-73 -28q-45 0 -74.5 28t-29.5 68q0 42 29 71zM-165 631q0 -25 18 -42t44 -17t43.5 17t17.5 42q0 26 -18 44t-43 18q-26 0 -44 -18t-18 -44z" />
    <glyph glyph-name="uni030B" unicode="&#x30b;" horiz-adv-x="0" 
d="M-87 682h87l-72 -139h-68zM-246 682h86l-58 -139h-66z" />
    <glyph glyph-name="uni030C" unicode="&#x30c;" horiz-adv-x="0" 
d="M-300 678h70l80 -90l78 90h72l-119 -137h-62z" />
    <glyph glyph-name="uni0326" unicode="&#x326;" horiz-adv-x="0" 
d="M-54 -221h-66l43 157h77z" />
    <glyph glyph-name="uni0394" unicode="&#x394;" horiz-adv-x="685" 
d="M660 0h-637v62l289 607h62l286 -607v-62zM343 598l-246 -535h490z" />
    <glyph glyph-name="uni03A9" unicode="&#x3a9;" horiz-adv-x="756" 
d="M703 362q0 -92 -50.5 -174.5t-144.5 -124.5h190v-63h-288v60q220 95 220 289q0 108 -72.5 185t-179.5 77t-179.5 -77t-72.5 -186q0 -194 220 -288v-60h-289v63h191q-94 41 -144.5 123.5t-50.5 175.5q0 132 93.5 226t231.5 94t231.5 -94t93.5 -226z" />
    <glyph glyph-name="uni03BC" unicode="&#x3bc;" horiz-adv-x="631" 
d="M559 60q25 0 53 10v-66q-31 -14 -73 -14q-39 0 -62.5 22.5t-23.5 60.5v12q-23 -44 -65 -69.5t-96 -25.5q-97 0 -140 81v-272h-74v680h74v-257q0 -78 39.5 -120t100.5 -42t106.5 45t45.5 126v248h75v-373q0 -46 40 -46z" />
    <glyph glyph-name="pi" unicode="&#x3c0;" horiz-adv-x="627" 
d="M542 61q24 0 51 10v-66q-29 -15 -72 -15q-42 0 -69 24t-27 75v319h-245v-609h-75v609h-84v71h563v-71h-83v-301q0 -46 41 -46z" />
    <glyph glyph-name="uni0401" unicode="&#x401;" horiz-adv-x="611" 
d="M90 0v669h463v-65h-390v-233h376v-65h-376v-241h401v-65h-474zM355 810q0 23 16.5 39.5t40.5 16.5q25 0 41.5 -16.5t16.5 -39.5q0 -24 -16.5 -40.5t-41.5 -16.5q-24 0 -40.5 16.5t-16.5 40.5zM185 810q0 23 16.5 39.5t41.5 16.5q24 0 40.5 -16.5t16.5 -39.5
q0 -24 -16.5 -40.5t-40.5 -16.5q-25 0 -41.5 16.5t-16.5 40.5z" />
    <glyph glyph-name="uni0402" unicode="&#x402;" horiz-adv-x="770" 
d="M22 604v65h522v-65h-224v-221q75 23 145 23q127 0 197.5 -74t70.5 -198q0 -126 -72.5 -205.5t-188.5 -79.5q-62 0 -108 16v66q53 -17 102 -17q84 0 139 61t55 157q0 94 -51.5 150.5t-147.5 56.5q-67 0 -141 -25v-314h-74v604h-224z" />
    <glyph glyph-name="uni0403" unicode="&#x403;" horiz-adv-x="546" 
d="M352 725h-76l50 144h94zM164 0h-74v669h434v-65h-360v-604z" />
    <glyph glyph-name="uni0404" unicode="&#x404;" horiz-adv-x="657" 
d="M45 337q0 150 93.5 246.5t240.5 96.5q137 0 247 -77l-30 -57q-42 30 -100.5 48.5t-115.5 18.5q-108 0 -179.5 -68t-82.5 -177h386v-65h-385q10 -111 83.5 -179.5t185.5 -68.5q119 0 220 64l23 -62q-106 -68 -243 -68q-153 0 -248 97t-95 251z" />
    <glyph glyph-name="uni0405" unicode="&#x405;" horiz-adv-x="627" 
d="M32 79l31 60q108 -84 262 -84q84 0 136 34.5t52 95.5q0 26 -12 45.5t-29.5 31.5t-47.5 21t-53.5 13.5t-60.5 9.5q-40 6 -66 11t-65 19t-62.5 32t-41 50t-17.5 73q0 91 69.5 140t190.5 49q130 0 246 -58l-30 -59q-105 53 -217 53q-90 0 -137 -32.5t-47 -88.5
q0 -31 16 -53.5t47 -36t59 -20.5t71 -13q34 -5 51.5 -8t50.5 -10.5t51.5 -15t42.5 -22t36.5 -31.5t22 -42t9.5 -55q0 -99 -75.5 -148.5t-196.5 -49.5q-167 0 -286 89z" />
    <glyph glyph-name="uni0406" unicode="&#x406;" horiz-adv-x="253" 
d="M90 0v669h74v-669h-74z" />
    <glyph glyph-name="uni0407" unicode="&#x407;" horiz-adv-x="257" 
d="M166 669v-669h-75v669h75zM156 810q0 23 17 39.5t41 16.5t41 -16.5t17 -39.5q0 -24 -17 -40q-17 -17 -41 -17t-41 16.5t-17 40.5zM3 850q16 16 41 16q24 0 40.5 -16.5t16.5 -39.5q0 -24 -16.5 -40.5t-40.5 -16.5q-25 0 -41.5 16.5t-16.5 40.5q0 23 17 40z" />
    <glyph glyph-name="uni0408" unicode="&#x408;" horiz-adv-x="482" 
d="M144 58q90 0 136 47t46 122v442h74v-454q0 -104 -64.5 -165t-181.5 -61q-67 0 -131 20v67q63 -18 121 -18z" />
    <glyph glyph-name="uni0409" unicode="&#x409;" horiz-adv-x="1108" 
d="M629 418h245q90 0 147 -58.5t57 -150.5q0 -91 -58.5 -150t-149.5 -59h-315v604h-300v-113q0 -97 -1.5 -152.5t-12.5 -135.5t-33 -127q-20 -44 -52 -65t-84 -21q-28 0 -60 6v69q30 -6 50 -6q62 0 87 69q15 41 23 115t9 129t1 156v141h447v-251zM629 62h227q66 0 107 41.5
t41 105.5t-40.5 106t-104.5 42h-230v-295z" />
    <glyph glyph-name="uni040A" unicode="&#x40a;" horiz-adv-x="1121" 
d="M165 669v-306h403v306h75v-251h244q90 0 147 -58.5t57 -150.5q0 -91 -58.5 -150t-149.5 -59h-315v294h-403v-294h-75v669h75zM869 62q66 0 107 41.5t41 105.5t-40.5 106t-104.5 42h-229v-295h226z" />
    <glyph glyph-name="uni040B" unicode="&#x40b;" horiz-adv-x="769" 
d="M544 669v-65h-224v-232q97 34 183 34q108 0 163.5 -53.5t55.5 -150.5v-202h-80v186q0 68 -36.5 108t-115.5 40q-80 0 -170 -33v-301h-74v604h-224v65h522z" />
    <glyph glyph-name="uni040C" unicode="&#x40c;" horiz-adv-x="621" 
d="M164 669v-317l345 317h94l-364 -335l378 -334h-99l-354 310v-310h-74v669h74zM311 725l51 144h94l-69 -144h-76z" />
    <glyph glyph-name="uni040E" unicode="&#x40e;" horiz-adv-x="616" 
d="M96 669l234 -483l199 483h78l-220 -514q-13 -30 -27 -53.5t-39.5 -51.5t-64.5 -44t-87 -16q-47 0 -107 18v64q55 -20 104 -20q78 0 123 67l-272 550h79zM226 870q1 -95 88 -95q86 0 89 95h60q-2 -65 -41 -103q-40 -38 -108 -38t-107.5 38t-41.5 103h61z" />
    <glyph glyph-name="uni040F" unicode="&#x40f;" horiz-adv-x="697" 
d="M534 669h74v-669h-223v-139h-73v139h-222v669h74v-604h370v604z" />
    <glyph glyph-name="uni0410" unicode="&#x410;" horiz-adv-x="662" 
d="M294 669h78l273 -669h-80l-69 177h-330l-70 -177h-80zM190 241h282l-138 356z" />
    <glyph glyph-name="uni0411" unicode="&#x411;" horiz-adv-x="664" 
d="M163 400h267q88 0 144 -57t56 -143t-58.5 -143t-147.5 -57h-334v669h478v-65h-405v-204zM163 63h247q64 0 105.5 39t41.5 99q0 59 -39 97.5t-100 38.5h-255v-274z" />
    <glyph glyph-name="uni0412" unicode="&#x412;" horiz-adv-x="683" 
d="M90 669h332q83 0 133 -49.5t50 -122.5q0 -48 -25 -86t-68 -56q57 -14 90.5 -59t33.5 -108q0 -82 -58.5 -135t-156.5 -53h-331v669zM163 314v-252h253q65 0 105.5 36.5t40.5 93.5q0 52 -36 87t-89 35h-274zM163 375h244q53 0 89 32.5t36 81.5q0 51 -34 84.5t-87 33.5h-248
v-232z" />
    <glyph glyph-name="uni0413" unicode="&#x413;" horiz-adv-x="546" 
d="M164 0h-74v669h434v-65h-360v-604z" />
    <glyph glyph-name="uni0414" unicode="&#x414;" horiz-adv-x="744" 
d="M616 669v-604h102v-198h-72v133h-562v-133h-72v198h87q61 74 61 304v300h456zM232 604v-253q0 -194 -50 -286h362v539h-312z" />
    <glyph glyph-name="uni0415" unicode="&#x415;" horiz-adv-x="611" 
d="M90 0v669h463v-65h-390v-233h376v-65h-376v-241h401v-65h-474z" />
    <glyph glyph-name="uni0416" unicode="&#x416;" horiz-adv-x="900" 
d="M552 333l343 -333h-92l-319 310v-310h-68v310l-318 -310h-93l342 332l-329 337h88l310 -319v319h68v-318l310 318h87z" />
    <glyph glyph-name="uni0417" unicode="&#x417;" horiz-adv-x="618" 
d="M452 356q56 -18 88.5 -61.5t32.5 -100.5q0 -92 -77.5 -148.5t-203.5 -56.5q-153 0 -267 71l30 60q108 -65 239 -65q92 0 148 39t56 101q0 55 -41.5 88t-97.5 33h-189v61h180q55 0 91.5 31t36.5 80q0 59 -50 93.5t-131 34.5q-113 0 -224 -63l-27 59q109 70 256 70
q112 0 180.5 -49.5t68.5 -129.5q0 -49 -26 -89t-73 -58z" />
    <glyph glyph-name="uni0418" unicode="&#x418;" horiz-adv-x="738" 
d="M162 669v-552l416 552h70v-669h-72v555l-419 -555h-67v669h72z" />
    <glyph glyph-name="uni0419" unicode="&#x419;" horiz-adv-x="738" 
d="M162 669v-552l416 552h70v-669h-72v555l-419 -555h-67v669h72zM214 868h64q1 -41 26.5 -66.5t65.5 -25.5t65 25.5t26 66.5h64q0 -65 -43 -104q-43 -40 -112 -40t-112 39t-44 105z" />
    <glyph glyph-name="uni041A" unicode="&#x41a;" horiz-adv-x="621" 
d="M164 669v-317l345 317h94l-364 -335l378 -334h-99l-354 310v-310h-74v669h74z" />
    <glyph glyph-name="uni041B" unicode="&#x41b;" horiz-adv-x="719" 
d="M72 -10q-28 0 -60 6v69q30 -6 50 -6q62 0 87 69q15 41 23 115t9 129t1 156v141h447v-669h-74v604h-300v-113q0 -97 -1.5 -152.5t-12.5 -135.5t-33 -127q-20 -44 -52 -65t-84 -21z" />
    <glyph glyph-name="uni041C" unicode="&#x41c;" horiz-adv-x="884" 
d="M160 669l281 -443l282 443h71v-669h-72v542l-255 -399h-51l-254 398v-541h-72v669h70z" />
    <glyph glyph-name="uni041D" unicode="&#x41d;" horiz-adv-x="733" 
d="M90 669h75v-306h403v306h75v-669h-75v294h-403v-294h-75v669z" />
    <glyph glyph-name="uni041E" unicode="&#x41e;" horiz-adv-x="766" 
d="M141 581q97 99 242 99t241 -99t96 -247t-96 -246.5t-241 -98.5q-146 0 -242.5 98.5t-96.5 246.5t97 247zM117 334q0 -116 77 -196.5t189 -80.5q111 0 187.5 80.5t76.5 196.5q0 117 -76.5 197.5t-187.5 80.5q-112 0 -189 -80.5t-77 -197.5z" />
    <glyph glyph-name="uni041F" unicode="&#x41f;" horiz-adv-x="700" 
d="M165 0h-75v669h521v-669h-75v604h-371v-604z" />
    <glyph glyph-name="uni0420" unicode="&#x420;" horiz-adv-x="648" 
d="M383 669q104 0 169 -63t65 -162q0 -101 -65.5 -164t-174.5 -63h-214v-217h-73v669h293zM370 281q77 0 124.5 45.5t47.5 116.5t-46 116t-121 45h-212v-323h207z" />
    <glyph glyph-name="uni0421" unicode="&#x421;" horiz-adv-x="722" 
d="M141 581q97 99 242 99q107 0 190 -56t120 -151l-66 -31q-30 76 -96 123t-149 47q-111 0 -188 -80.5t-77 -197.5t77 -197t189 -80q81 0 146.5 45t95.5 120l68 -29q-37 -93 -120.5 -148.5t-189.5 -55.5q-145 0 -242 98.5t-97 246.5t97 247z" />
    <glyph glyph-name="uni0422" unicode="&#x422;" horiz-adv-x="566" 
d="M22 669h522v-65h-224v-604h-74v604h-224v65z" />
    <glyph glyph-name="uni0423" unicode="&#x423;" horiz-adv-x="616" 
d="M96 669l234 -483l199 483h78l-220 -514q-13 -30 -27 -53.5t-39.5 -51.5t-64.5 -44t-87 -16q-47 0 -107 18v64q55 -20 104 -20q78 0 123 67l-272 550h79z" />
    <glyph glyph-name="uni0424" unicode="&#x424;" horiz-adv-x="919" 
d="M643 603q103 0 166.5 -74t63.5 -194q0 -119 -63 -194t-167 -75q-70 0 -148 38v-141h-70v141q-80 -38 -149 -38q-104 0 -167 75.5t-63 193.5q0 119 63.5 193.5t166.5 74.5q73 0 149 -43v146h70v-145q71 42 148 42zM120 335q0 -92 48.5 -150.5t125.5 -58.5q69 0 132 37v338
q-70 42 -131 42q-82 0 -128.5 -59.5t-46.5 -148.5zM627 126q76 0 125 58.5t49 150.5q0 88 -47 148t-128 60q-62 0 -132 -41v-339q67 -37 133 -37z" />
    <glyph glyph-name="uni0425" unicode="&#x425;" horiz-adv-x="610" 
d="M258 341l-239 328h88l198 -275l201 275h88l-244 -330l249 -339h-88l-207 284l-210 -284h-86z" />
    <glyph glyph-name="uni0426" unicode="&#x426;" horiz-adv-x="722" 
d="M594 669v-604h104v-204h-73v139h-535v669h74v-604h355v604h75z" />
    <glyph glyph-name="uni0427" unicode="&#x427;" horiz-adv-x="665" 
d="M502 355v314h74v-669h-74v287q-106 -38 -213 -38q-117 0 -180 59.5t-63 157.5v203h75v-191q0 -71 44 -116.5t139 -45.5q98 0 198 39z" />
    <glyph glyph-name="uni0428" unicode="&#x428;" horiz-adv-x="1059" 
d="M895 65v604h74v-669h-879v669h74v-604h328v604h75v-604h328z" />
    <glyph glyph-name="uni0429" unicode="&#x429;" horiz-adv-x="1098" 
d="M969 669v-604h105v-204h-73v139h-911v669h74v-604h328v604h75v-604h328v604h74z" />
    <glyph glyph-name="uni042A" unicode="&#x42a;" horiz-adv-x="775" 
d="M295 418h246q90 0 147 -58.5t57 -150.5q0 -91 -58 -150t-150 -59h-315v604h-201v65h274v-251zM295 62h229q65 0 106 41.5t41 105.5t-40.5 106t-103.5 42h-232v-295z" />
    <glyph glyph-name="uni042B" unicode="&#x42b;" horiz-adv-x="895" 
d="M90 0v669h73v-251h246q90 0 147 -58.5t57 -150.5q0 -91 -58 -150t-150 -59h-315zM163 62h228q66 0 107 41.5t41 105.5t-40.5 106t-104.5 42h-231v-295zM805 669v-669h-74v669h74z" />
    <glyph glyph-name="uni042C" unicode="&#x42c;" horiz-adv-x="643" 
d="M163 418h246q90 0 147 -58.5t57 -150.5q0 -91 -58 -150t-150 -59h-315v669h73v-251zM163 62h228q66 0 107 41.5t41 105.5t-40.5 106t-104.5 42h-231v-295z" />
    <glyph glyph-name="uni042D" unicode="&#x42d;" horiz-adv-x="657" 
d="M50 119q97 -64 219 -64q112 0 185.5 68.5t83.5 179.5h-386v65h387q-11 109 -82 177t-179 68q-58 0 -116 -18.5t-100 -48.5l-31 57q110 77 247 77q147 0 240.5 -96.5t93.5 -246.5q0 -154 -95 -251t-248 -97q-137 0 -243 68z" />
    <glyph glyph-name="uni042E" unicode="&#x42e;" horiz-adv-x="999" 
d="M90 669h74v-302h116q11 136 105.5 224.5t231.5 88.5q145 0 241.5 -99t96.5 -247t-96.5 -246.5t-241.5 -98.5q-136 0 -230 87t-106 222h-117v-298h-74v669zM429 138q77 -81 188 -81t188 80.5t77 196.5q0 117 -77 197.5t-188 80.5t-188 -80.5t-77 -197.5q0 -116 77 -196z
" />
    <glyph glyph-name="uni042F" unicode="&#x42f;" horiz-adv-x="659" 
d="M569 669v-669h-71v238h-150l-218 -238h-90l222 238q-95 5 -155 63.5t-60 151.5q0 94 66 155t168 61h288zM296 296h202v309h-207q-75 0 -122.5 -44t-47.5 -112q0 -71 48 -112t127 -41z" />
    <glyph glyph-name="uni0430" unicode="&#x430;" horiz-adv-x="615" 
d="M109 418q67 71 169 71q61 0 109.5 -28t79.5 -76v94h70v-479h-70v94q-67 -105 -190 -105q-101 0 -168.5 71t-67.5 179t68 179zM165 108q50 -53 125 -53t125.5 53.5t50.5 132.5q0 77 -50.5 129.5t-124.5 52.5q-75 0 -125.5 -52.5t-50.5 -131.5t50 -131z" />
    <glyph glyph-name="uni0431" unicode="&#x431;" horiz-adv-x="603" 
d="M325 474q103 0 170 -67.5t67 -170.5q0 -106 -71 -176.5t-178 -70.5q-109 0 -179.5 72.5t-70.5 185.5v199q0 19 0.5 30.5t4.5 34t11 38t22 35.5t36 34t54.5 26.5t75.5 19.5l38.5 5.5t50 7.5t48 9t55 13.5t47.5 17.5l10 -67q-21 -10 -43 -17t-46 -12.5t-39.5 -8t-43 -6.5
t-35.5 -5q-104 -16 -139 -55t-35 -102v-72q29 47 79 74.5t111 27.5zM311 54q76 0 126 52t50 130q0 74 -49.5 124.5t-123.5 50.5t-124.5 -50.5t-50.5 -124.5q0 -77 49.5 -129.5t122.5 -52.5z" />
    <glyph glyph-name="uni0432" unicode="&#x432;" horiz-adv-x="576" 
d="M446 250q38 -13 59.5 -44t21.5 -70q0 -59 -42 -97.5t-114 -38.5h-293v479h296q56 0 94 -36.5t38 -91.5q0 -66 -60 -101zM357 419h-204v-146h200q35 0 57 21t22 53q0 31 -20 51.5t-55 20.5zM153 60h204q47 0 70.5 22.5t23.5 57.5q0 33 -22.5 55.5t-59.5 22.5h-216v-158z
" />
    <glyph glyph-name="uni0433" unicode="&#x433;" horiz-adv-x="445" 
d="M152 0h-74v479h351v-68h-277v-411z" />
    <glyph glyph-name="uni0434" unicode="&#x434;" horiz-adv-x="631" 
d="M523 479v-414h89v-192h-71v127h-458v-127h-72v192h76q32 45 44 109.5t12 213.5v91h380zM218 414v-75q0 -114 -11.5 -175t-36.5 -99h278v349h-230z" />
    <glyph glyph-name="uni0435" unicode="&#x435;" horiz-adv-x="576" 
d="M113 418q71 70 180 70q105 0 173.5 -67.5t68.5 -170.5q0 -20 -2 -38h-420q8 -71 58 -117t123 -46q52 0 95 24.5t65 66.5l58 -28q-26 -56 -86 -89.5t-134 -33.5q-110 0 -180.5 71t-70.5 179t72 179zM113 269h351q-6 70 -54.5 115.5t-117.5 45.5q-70 0 -120.5 -45.5
t-58.5 -115.5z" />
    <glyph glyph-name="uni0436" unicode="&#x436;" horiz-adv-x="764" 
d="M487 235l267 -235h-97l-241 214v-214h-69v213l-240 -213h-98l270 233l-261 246h89l240 -229v229h69v-231l240 231h89z" />
    <glyph glyph-name="uni0437" unicode="&#x437;" horiz-adv-x="499" 
d="M360 257q47 -13 73 -44.5t26 -74.5q0 -66 -59 -107.5t-174 -41.5q-108 0 -193 33v61q83 -34 192 -34q74 0 115 24t41 68q0 76 -121 76h-142v56h124q55 0 85.5 19.5t30.5 55.5q0 38 -34 59.5t-101 21.5q-96 0 -183 -33l1 57q79 36 194 36q99 0 149 -36.5t50 -93.5
q0 -72 -74 -102z" />
    <glyph glyph-name="uni0438" unicode="&#x438;" horiz-adv-x="613" 
d="M78 479h70v-378l321 378h66v-479h-70v377l-320 -377h-67v479z" />
    <glyph glyph-name="uni0439" unicode="&#x439;" horiz-adv-x="613" 
d="M78 0v479h70v-378l321 378h66v-479h-70v377l-320 -377h-67zM220 677q1 -49 24.5 -72.5t63.5 -23.5q86 0 89 96h61q-2 -66 -42 -103q-40 -38 -108 -38t-107.5 38t-40.5 103h60z" />
    <glyph glyph-name="uni043A" unicode="&#x43a;" horiz-adv-x="523" 
d="M153 479v-229l262 229h89l-275 -247l286 -232h-100l-262 211v-211h-75v479h75z" />
    <glyph glyph-name="uni043B" unicode="&#x43b;" horiz-adv-x="593" 
d="M61 -10q-30 0 -48 6v66q17 -5 37 -5q42 0 63 31q26 37 26 201v35v155h377v-479h-76v411h-230v-146q0 -169 -32 -218q-38 -57 -117 -57z" />
    <glyph glyph-name="uni043C" unicode="&#x43c;" horiz-adv-x="749" 
d="M148 0h-70v479h64l233 -324l232 324h64v-479h-69v366l-211 -295h-32l-211 295v-366z" />
    <glyph glyph-name="uni043D" unicode="&#x43d;" horiz-adv-x="600" 
d="M447 273v206h76v-479h-76v207h-295v-207h-74v479h74v-206h295z" />
    <glyph glyph-name="uni043E" unicode="&#x43e;" horiz-adv-x="587" 
d="M112 418q72 71 181 71t181 -71.5t72 -178.5q0 -108 -72 -179t-181 -71q-108 0 -180.5 71.5t-72.5 178.5t72 179zM113 239q0 -79 52 -131q52 -53 129 -53t128.5 53t51.5 131q0 79 -51.5 131.5t-128.5 52.5t-129 -52.5t-52 -131.5z" />
    <glyph glyph-name="uni043F" unicode="&#x43f;" horiz-adv-x="596" 
d="M152 0h-74v479h441v-479h-76v410h-291v-410z" />
    <glyph glyph-name="uni0440" unicode="&#x440;" horiz-adv-x="614" 
d="M339 488q100 0 166.5 -71.5t66.5 -178.5q0 -106 -66.5 -177.5t-165.5 -71.5q-122 0 -188 98v-288h-74v680h73v-89q31 46 80 72t108 26zM326 54q74 0 123.5 52.5t49.5 131.5q0 78 -50 131t-124 53t-125 -52.5t-51 -130.5q0 -79 51 -132t126 -53z" />
    <glyph glyph-name="uni0441" unicode="&#x441;" horiz-adv-x="558" 
d="M113 418q72 71 182 71q83 0 145.5 -42t86.5 -113l-68 -21q-18 49 -63.5 79.5t-100.5 30.5q-79 0 -130 -52t-51 -132t51 -132t129 -52q55 0 101 31t66 80l65 -29q-26 -65 -89.5 -106.5t-145.5 -41.5q-108 0 -179 70.5t-71 178.5q0 109 72 180z" />
    <glyph glyph-name="uni0442" unicode="&#x442;" horiz-adv-x="473" 
d="M17 479h439v-68h-182v-411h-75v411h-182v68z" />
    <glyph glyph-name="uni0443" unicode="&#x443;" horiz-adv-x="549" 
d="M93 479l190 -433l172 433h77l-210 -514q-15 -36 -28 -60.5t-37 -55.5t-59.5 -47.5t-80.5 -16.5q-47 0 -96 18v68q43 -20 88 -20q88 0 129 97l8 19l-231 512h78z" />
    <glyph glyph-name="uni0444" unicode="&#x444;" horiz-adv-x="824" 
d="M566 480q96 0 155.5 -68t59.5 -176q0 -105 -58.5 -175t-155.5 -70q-55 0 -119 29v-221h-71v222q-65 -30 -122 -30q-96 0 -154.5 70t-58.5 175q0 108 60 176t156 68q59 0 119 -28v250h71v-249q59 27 118 27zM114 236q0 -78 40.5 -130t111.5 -52q49 0 112 30v302
q-59 30 -111 30q-69 0 -111 -50t-42 -130zM559 54q68 0 109 50t41 130q0 79 -41 130.5t-113 51.5q-51 0 -108 -29v-303q57 -30 112 -30z" />
    <glyph glyph-name="uni0445" unicode="&#x445;" horiz-adv-x="511" 
d="M302 240l196 -240h-86l-157 194l-158 -194h-84l196 242l-190 237h85l152 -192l154 192h84z" />
    <glyph glyph-name="uni0446" unicode="&#x446;" horiz-adv-x="618" 
d="M507 479v-414h92v-192h-71v127h-450v479h76v-414h278v414h75z" />
    <glyph glyph-name="uni0447" unicode="&#x447;" horiz-adv-x="559" 
d="M407 248v231h76v-479h-76v184q-92 -29 -171 -29q-88 0 -142 43t-54 142v139h74v-130q0 -61 30 -95t107 -34q75 0 156 28z" />
    <glyph glyph-name="uni0448" unicode="&#x448;" horiz-adv-x="921" 
d="M844 0h-766v479h76v-414h269v414h76v-414h269v414h76v-479z" />
    <glyph glyph-name="uni0449" unicode="&#x449;" horiz-adv-x="954" 
d="M844 479v-414h92v-192h-71v127h-787v479h76v-414h269v414h75v-414h270v414h76z" />
    <glyph glyph-name="uni044A" unicode="&#x44a;" horiz-adv-x="658" 
d="M248 334h210q73 0 121.5 -47t48.5 -118q0 -73 -48.5 -121t-122.5 -48h-280v411h-160v68h231v-145zM248 60h199q47 0 78.5 31t31.5 79q0 46 -31.5 76.5t-78.5 30.5h-199v-217z" />
    <glyph glyph-name="uni044B" unicode="&#x44b;" horiz-adv-x="750" 
d="M78 0v479h71v-145h210q73 0 121.5 -47t48.5 -118q0 -73 -48.5 -121t-123.5 -48h-279zM149 60h198q47 0 78.5 31t31.5 79q0 46 -31 76.5t-78 30.5h-199v-217zM599 479h73v-479h-73v479z" />
    <glyph glyph-name="uni044C" unicode="&#x44c;" horiz-adv-x="558" 
d="M149 334h210q73 0 121.5 -47t48.5 -118q0 -73 -48.5 -121t-123.5 -48h-279v479h71v-145zM149 60h198q47 0 78.5 31t31.5 79q0 46 -31 76.5t-78 30.5h-199v-217z" />
    <glyph glyph-name="uni044D" unicode="&#x44d;" horiz-adv-x="519" 
d="M218 489q115 0 187 -69.5t72 -180.5q0 -112 -72 -181.5t-189 -69.5q-108 0 -188 47l20 58q75 -41 163 -41q83 0 134 42.5t60 114.5h-265v61h265q-9 71 -59.5 113.5t-129.5 42.5q-89 0 -164 -41l-24 58q35 21 88.5 33.5t101.5 12.5z" />
    <glyph glyph-name="uni044E" unicode="&#x44e;" horiz-adv-x="792" 
d="M78 479h75v-207h94q11 95 81 156t170 61q108 0 180 -71.5t72 -178.5q0 -108 -72 -179t-180 -71q-100 0 -170 61t-81 156h-94v-206h-75v479zM370 108q51 -53 128 -53t128.5 53t51.5 131q0 79 -51.5 131.5t-128.5 52.5t-128.5 -52.5t-51.5 -131.5t52 -131z" />
    <glyph glyph-name="uni044F" unicode="&#x44f;" horiz-adv-x="559" 
d="M482 482v-482h-73v155h-121l-168 -155h-92l172 156q-69 7 -111 50.5t-42 110.5q0 73 50.5 119t135.5 46h249zM234 215h175v204h-170q-54 0 -85.5 -28t-31.5 -74q0 -48 30 -75t82 -27z" />
    <glyph glyph-name="uni0451" unicode="&#x451;" horiz-adv-x="576" 
d="M41 239q0 108 71.5 178.5t180.5 70.5q105 0 173.5 -67.5t68.5 -170.5q0 -20 -2 -38h-420q8 -71 58 -117t123 -46q52 0 95 24.5t65 66.5l58 -28q-26 -56 -86 -89.5t-134 -33.5q-110 0 -180.5 71t-70.5 179zM464 269q-6 70 -54.5 115.5t-117.5 45.5q-70 0 -120.5 -45.5
t-58.5 -115.5h351zM174 640q15 15 38 15t39 -15.5t16 -38.5t-16 -39t-39 -16t-38.5 16t-15.5 39t16 39zM319 601q0 23 15.5 38.5t38.5 15.5t38.5 -15.5t15.5 -38.5t-15 -39q-16 -16 -39 -16t-38.5 16t-15.5 39z" />
    <glyph glyph-name="uni0452" unicode="&#x452;" horiz-adv-x="594" 
d="M79 608v95h73v-95h189v-42h-189v-170q60 92 175 92q86 0 142 -57t56 -144v-326q0 -79 -49.5 -127t-136.5 -48q-45 0 -98 14v66q50 -13 86 -13q59 0 91.5 34t32.5 92v289q0 65 -40 108t-100 43q-68 0 -113.5 -52t-45.5 -130v-237h-73v566h-61v42h61z" />
    <glyph glyph-name="uni0453" unicode="&#x453;" horiz-adv-x="445" 
d="M287 542h-72l48 139h91zM152 0h-74v479h351v-68h-277v-411z" />
    <glyph glyph-name="uni0454" unicode="&#x454;" horiz-adv-x="519" 
d="M307 52q90 0 163 41l20 -58q-80 -47 -187 -47q-118 0 -190 69.5t-72 181.5q0 111 72 180.5t187 69.5q110 0 191 -46l-24 -58q-75 41 -165 41q-79 0 -129 -42.5t-59 -113.5h264v-61h-264q9 -72 60 -114.5t133 -42.5z" />
    <glyph glyph-name="uni0455" unicode="&#x455;" horiz-adv-x="502" 
d="M32 54l29 57q89 -60 200 -60q59 0 98 20t39 60q0 39 -36.5 54.5t-119.5 28.5q-32 5 -54 9.5t-49.5 15t-44 24t-28.5 35.5t-12 51q0 66 53.5 103.5t147.5 37.5q99 0 190 -41l-20 -58q-89 40 -172 40q-61 0 -95 -21t-34 -58q0 -17 8 -29.5t18 -19.5t31.5 -13t35 -9t41.5 -7
q40 -6 65.5 -11.5t55.5 -16t47.5 -24.5t29 -36.5t11.5 -51.5q0 -70 -59 -107t-153 -37q-127 0 -223 64z" />
    <glyph glyph-name="uni0456" unicode="&#x456;" horiz-adv-x="230" 
d="M78 479h74v-479h-74v479zM77 649q16 15 38 15q23 0 38.5 -15.5t15.5 -37.5q0 -23 -15 -38q-16 -16 -39 -16t-38.5 15.5t-15.5 38.5q0 22 16 38z" />
    <glyph glyph-name="uni0457" unicode="&#x457;" horiz-adv-x="230" 
d="M78 479h74v-479h-74v479zM-20 600q0 23 15.5 38.5t38.5 15.5t38.5 -15.5t15.5 -38.5t-15 -38q-16 -16 -39 -16t-38.5 15.5t-15.5 38.5zM141 600q0 23 15.5 38.5t38.5 15.5t38.5 -16t15.5 -38q0 -23 -15 -38q-16 -16 -39 -16t-38.5 15.5t-15.5 38.5z" />
    <glyph glyph-name="uni0458" unicode="&#x458;" horiz-adv-x="243" 
d="M-79 -137q44 -10 72 -10q54 0 76 25.5t22 86.5v514h74v-541q0 -71 -42 -111.5t-119 -40.5q-42 0 -83 12v65zM90 649q16 15 39 15q22 0 37.5 -15.5t15.5 -37.5q0 -23 -15.5 -38.5t-37.5 -15.5q-23 0 -39 15.5t-16 38.5q0 22 16 38z" />
    <glyph glyph-name="uni0459" unicode="&#x459;" horiz-adv-x="924" 
d="M516 334h208q73 0 121.5 -47t48.5 -118q0 -73 -48.5 -121t-123.5 -48h-282v411h-230v-146q0 -169 -32 -218q-38 -57 -117 -57q-30 0 -48 6v66q17 -5 37 -5q42 0 63 31q26 37 26 201v35v155h377v-145zM516 60h196q48 0 79.5 31t31.5 79q0 46 -31.5 76.5t-79.5 30.5h-196
v-217z" />
    <glyph glyph-name="uni045A" unicode="&#x45a;" horiz-adv-x="929" 
d="M523 334h208q73 0 121 -47t48 -118q0 -73 -48.5 -121t-123.5 -48h-281v207h-295v-207h-74v479h74v-206h295v206h76v-145zM523 60h196q47 0 78.5 31t31.5 79q0 46 -31.5 76.5t-78.5 30.5h-196v-217z" />
    <glyph glyph-name="uni045B" unicode="&#x45b;" horiz-adv-x="594" 
d="M78 607v96h74v-96h154v-42h-154v-168q60 91 174 91q87 0 142.5 -57t55.5 -144v-287h-73v268q0 65 -40 108t-101 43q-68 0 -113 -52t-45 -130v-237h-74v565h-95v42h95z" />
    <glyph glyph-name="uni045C" unicode="&#x45c;" horiz-adv-x="523" 
d="M153 479v-229l262 229h89l-275 -247l286 -232h-100l-262 211v-211h-75v479h75zM242 542l48 139h91l-67 -139h-72z" />
    <glyph glyph-name="uni045E" unicode="&#x45e;" horiz-adv-x="549" 
d="M93 479l190 -433l172 433h77l-210 -514q-15 -36 -28 -60.5t-37 -55.5t-59.5 -47.5t-80.5 -16.5q-47 0 -96 18v68q43 -20 88 -20q88 0 129 97l8 19l-231 512h78zM191 677q1 -49 24 -72.5t63 -23.5q87 0 90 96h60q-2 -65 -42 -103t-108 -38q-67 0 -106.5 38t-41.5 103h61z
" />
    <glyph glyph-name="uni045F" unicode="&#x45f;" horiz-adv-x="588" 
d="M435 479h76v-479h-181v-127h-70v127h-182v479h76v-414h281v414z" />
    <glyph glyph-name="uni0490" unicode="&#x490;" horiz-adv-x="547" 
d="M450 669v127h75v-192h-361v-604h-74v669h360z" />
    <glyph glyph-name="uni0491" unicode="&#x491;" horiz-adv-x="445" 
d="M357 479v119h72v-187h-277v-411h-74v479h279z" />
    <glyph glyph-name="Wgrave" unicode="&#x1e80;" horiz-adv-x="951" 
d="M101 669l165 -571l176 571h65l179 -569l163 569h77l-202 -669h-76l-173 560l-173 -560h-77l-202 669h78zM461 870l52 -145h-77l-68 145h93z" />
    <glyph glyph-name="wgrave" unicode="&#x1e81;" horiz-adv-x="790" 
d="M97 479l135 -395l129 395h71l128 -393l133 393h81l-178 -479h-73l-127 399l-129 -399h-73l-178 479h81zM382 681l48 -139h-72l-67 139h91z" />
    <glyph glyph-name="Wacute" unicode="&#x1e82;" horiz-adv-x="951" 
d="M101 669l165 -571l176 571h65l179 -569l163 569h77l-202 -669h-76l-173 560l-173 -560h-77l-202 669h78zM491 869h94l-69 -144h-76z" />
    <glyph glyph-name="wacute" unicode="&#x1e83;" horiz-adv-x="790" 
d="M97 479l135 -395l129 395h71l128 -393l133 393h81l-178 -479h-73l-127 399l-129 -399h-73l-178 479h81zM357 542l48 139h92l-67 -139h-73z" />
    <glyph glyph-name="Wdieresis" unicode="&#x1e84;" horiz-adv-x="951" 
d="M101 669l165 -571l176 571h65l179 -569l163 569h77l-202 -669h-76l-173 560l-173 -560h-77l-202 669h78zM519 850q17 16 41 16t41 -16.5t17 -39.5q0 -24 -17 -40q-17 -17 -41 -17t-41 16.5t-17 40.5q0 23 17 40zM332 810q0 23 16.5 39.5t41.5 16.5q24 0 40.5 -16.5
t16.5 -39.5q0 -24 -16.5 -40.5t-40.5 -16.5q-25 0 -41.5 16.5t-16.5 40.5z" />
    <glyph glyph-name="wdieresis" unicode="&#x1e85;" horiz-adv-x="790" 
d="M97 479l135 -395l129 395h71l128 -393l133 393h81l-178 -479h-73l-127 399l-129 -399h-73l-178 479h81zM437 639q16 15 39 15q22 0 38 -16t16 -38q0 -23 -15 -38q-16 -16 -39 -16t-39 15.5t-16 38.5t16 39zM261 600q0 23 15.5 38.5t38.5 15.5t38.5 -15.5t15.5 -38.5
t-15 -38q-16 -16 -39 -16t-38.5 15.5t-15.5 38.5z" />
    <glyph glyph-name="Germandbls" unicode="&#x1e9e;" horiz-adv-x="681" 
d="M411 -12q-72 0 -138 26v73q67 -30 138 -30q85 0 130.5 32.5t45.5 81.5q0 31 -21.5 56t-52 44t-61 38.5t-52 50t-21.5 69.5q0 53 42.5 94t117.5 53q-64 36 -146 36q-108 0 -168 -55.5t-60 -165.5v-391h-75v406q0 123 76 198.5t221 75.5q142 0 235 -84l-28 -58
q-65 -8 -105.5 -36t-40.5 -67q0 -27 22 -49t53 -40t62 -39t53 -55.5t22 -79.5q0 -85 -68 -134.5t-181 -49.5z" />
    <glyph glyph-name="Ygrave" unicode="&#x1ef2;" horiz-adv-x="633" 
d="M22 669h85l209 -362l212 362h85l-260 -437v-232h-74v232zM211 870h93l52 -145h-77z" />
    <glyph glyph-name="ygrave" unicode="&#x1ef3;" horiz-adv-x="549" 
d="M93 479l190 -433l172 433h77l-210 -514q-15 -36 -28 -60.5t-37 -55.5t-59.5 -47.5t-80.5 -16.5q-47 0 -96 18v68q43 -20 88 -20q88 0 129 97l8 19l-231 512h78zM261 681l47 -139h-73l-67 139h93z" />
    <glyph glyph-name="uni2009" unicode="&#x2009;" horiz-adv-x="96" 
 />
    <glyph glyph-name="endash" unicode="&#x2013;" horiz-adv-x="620" 
d="M557 243h-493v65h493v-65z" />
    <glyph glyph-name="emdash" unicode="&#x2014;" horiz-adv-x="926" 
d="M862 243h-798v65h798v-65z" />
    <glyph glyph-name="quoteleft" unicode="&#x2018;" horiz-adv-x="228" 
d="M132 702h67l-78 -241h-84z" />
    <glyph glyph-name="quoteright" unicode="&#x2019;" horiz-adv-x="224" 
d="M108 461h-67l79 241h83z" />
    <glyph glyph-name="quotesinglbase" unicode="&#x201a;" horiz-adv-x="201" 
d="M65 -161h-67l78 241h84z" />
    <glyph glyph-name="quotedblleft" unicode="&#x201c;" horiz-adv-x="393" 
d="M132 702h67l-78 -241h-84zM297 702h68l-79 -241h-83z" />
    <glyph glyph-name="quotedblright" unicode="&#x201d;" horiz-adv-x="390" 
d="M108 461h-67l79 240h83zM273 461h-67l79 240h83z" />
    <glyph glyph-name="quotedblbase" unicode="&#x201e;" horiz-adv-x="367" 
d="M65 -161h-67l78 241h84zM230 -161h-67l79 241h83z" />
    <glyph glyph-name="dagger" unicode="&#x2020;" horiz-adv-x="503" 
d="M285 523h188v-65h-188v-367h-68v367h-187v65h187v205h68v-205z" />
    <glyph glyph-name="daggerdbl" unicode="&#x2021;" horiz-adv-x="534" 
d="M488 518v-65h-187v-175h187v-65h-187v-223h-68v223h-188v65h188v175h-188v65h188v200h68v-200h187z" />
    <glyph glyph-name="bullet" unicode="&#x2022;" horiz-adv-x="361" 
d="M181 223q-43 0 -73 29.5t-30 72.5t29.5 72t73.5 29t73.5 -29t29.5 -72t-30 -72.5t-73 -29.5z" />
    <glyph glyph-name="ellipsis" unicode="&#x2026;" horiz-adv-x="578" 
d="M108 -13q-22 0 -37 15t-15 36t15 36t37 15q21 0 36 -14.5t15 -36.5q0 -21 -15 -36t-36 -15zM289 -13q-22 0 -36.5 15t-14.5 36t14.5 36t36.5 15q21 0 36 -14.5t15 -36.5q0 -21 -15 -36t-36 -15zM469 -13q-21 0 -36 15t-15 36t15 36t36 15q22 0 37 -14.5t15 -36.5
q0 -21 -15 -36t-37 -15z" />
    <glyph glyph-name="perthousand" unicode="&#x2030;" horiz-adv-x="1127" 
d="M194 357q-67 0 -113.5 47t-46.5 115t46 114.5t114 46.5t114.5 -46.5t46.5 -114.5t-46.5 -115t-114.5 -47zM151 0h-66l523 669h65zM194 406q47 0 77.5 32t30.5 81q0 48 -31 80.5t-77 32.5t-76 -32.5t-30 -80.5q0 -49 30 -81t76 -32zM577 -11q-68 0 -114.5 46.5
t-46.5 114.5t46.5 114.5t114.5 46.5t114.5 -46.5t46.5 -114.5t-46.5 -114.5t-114.5 -46.5zM937 -11q-68 0 -114.5 46.5t-46.5 114.5t46.5 114.5t114.5 46.5t114.5 -46.5t46.5 -114.5t-46.5 -114.5t-114.5 -46.5zM578 37q46 0 76 32t30 81t-30 81t-76 32q-47 0 -77.5 -32
t-30.5 -81t30.5 -81t77.5 -32zM938 37q46 0 76 32t30 81t-30 81t-76 32q-47 0 -77.5 -32t-30.5 -81t30.5 -81t77.5 -32z" />
    <glyph glyph-name="guilsinglleft" unicode="&#x2039;" horiz-adv-x="312" 
d="M268 27h-85l-143 223l152 223h84l-151 -223z" />
    <glyph glyph-name="guilsinglright" unicode="&#x203a;" horiz-adv-x="312" 
d="M272 250l-142 -223h-86l144 223l-152 223h85z" />
    <glyph glyph-name="fraction" unicode="&#x2044;" horiz-adv-x="134" 
d="M-149 0h-60l496 669h59z" />
    <glyph glyph-name="uni2070" unicode="&#x2070;" horiz-adv-x="408" 
d="M204 438q-74 0 -123 52.5t-49 132.5q0 79 49 132t123 53q73 0 121.5 -52.5t48.5 -132.5t-48 -132.5t-122 -52.5zM204 479q52 0 88 41.5t36 102.5t-35.5 102t-88.5 41t-89 -41t-36 -102t36 -102.5t89 -41.5z" />
    <glyph glyph-name="uni2074" unicode="&#x2074;" horiz-adv-x="355" 
d="M279 570h54v-38h-54v-89h-50v89h-209v34l183 237h76v-233zM229 768l-149 -198h149v198z" />
    <glyph glyph-name="uni2075" unicode="&#x2075;" horiz-adv-x="333" 
d="M175 681q58 0 94.5 -33.5t36.5 -86.5t-39 -88t-101 -35q-54 0 -93 28t-49 76l46 11q7 -33 33.5 -53t61.5 -20q38 0 64 23.5t26 59.5q0 35 -24.5 58t-62.5 23q-50 0 -86 -41l-41 21l26 180h218v-42h-180l-15 -108q38 27 85 27z" />
    <glyph glyph-name="uni2076" unicode="&#x2076;" horiz-adv-x="330" 
d="M177 684q55 0 92.5 -34.5t37.5 -85.5q0 -55 -40 -90.5t-100 -35.5q-61 0 -101 36.5t-40 90.5q0 57 47 114l99 125h57l-106 -132q24 12 54 12zM166 477q38 0 65 24.5t27 60.5q0 37 -26.5 61.5t-66.5 24.5q-38 0 -64.5 -24t-26.5 -60q0 -37 26.5 -62t65.5 -25z" />
    <glyph glyph-name="uni2077" unicode="&#x2077;" horiz-adv-x="288" 
d="M22 760v44h247v-41l-171 -320h-57l172 317h-191z" />
    <glyph glyph-name="uni2078" unicode="&#x2078;" horiz-adv-x="352" 
d="M244 634q36 -11 56.5 -35t20.5 -56q0 -46 -40.5 -75.5t-104.5 -29.5t-104.5 29.5t-40.5 75.5q0 31 21 56t57 35q-29 10 -45.5 31t-16.5 47q0 43 36.5 70.5t92.5 27.5t93 -27.5t37 -70.5q0 -27 -16.5 -47.5t-45.5 -30.5zM176 773q-36 0 -59.5 -18.5t-23.5 -46.5
q0 -27 23.5 -45t59.5 -18t60.5 18.5t24.5 45.5q0 28 -24.5 46t-60.5 18zM176 475q40 0 67 20.5t27 50.5q0 29 -26.5 48.5t-66.5 19.5t-67.5 -19.5t-27.5 -49.5q0 -29 27 -49.5t67 -20.5z" />
    <glyph glyph-name="uni2079" unicode="&#x2079;" horiz-adv-x="325" 
d="M161 810q60 0 100 -37t40 -91q0 -9 -1 -17.5t-3.5 -17t-4 -14.5t-6.5 -15t-7 -12.5t-8.5 -13t-8 -11.5t-9.5 -13l-8 -10l-89 -115h-58l100 128q-24 -8 -47 -8q-54 0 -91 34.5t-37 85.5q0 55 39.5 91t98.5 36zM71 684q0 -36 26 -60.5t64 -24.5t63.5 24.5t25.5 59.5
q0 36 -25.5 61t-63.5 25t-64 -24.5t-26 -60.5z" />
    <glyph glyph-name="uni2080" unicode="&#x2080;" horiz-adv-x="408" 
d="M204 -161q-74 0 -123 53t-49 133q0 79 49.5 132t122.5 53t121.5 -53t48.5 -132q0 -80 -48.5 -133t-121.5 -53zM204 -119q53 0 88.5 41.5t35.5 102.5t-35.5 102t-88.5 41t-89 -41t-36 -102t36 -102.5t89 -41.5z" />
    <glyph glyph-name="uni2081" unicode="&#x2081;" horiz-adv-x="329" 
d="M201 206v-317h111v-44h-280v44h118v260l-114 -45v48l128 54h37z" />
    <glyph glyph-name="uni2082" unicode="&#x2082;" horiz-adv-x="345" 
d="M206 -39l-93 -72h202v-44h-281v38l134 109q5 4 21 16t23.5 19t18 19t15.5 24t5 26q0 31 -22 50.5t-58 19.5q-38 0 -63 -24.5t-28 -63.5l-51 6q4 58 44 92.5t99 34.5q60 0 96.5 -31.5t36.5 -80.5q0 -30 -19.5 -60t-34.5 -42.5t-45 -35.5z" />
    <glyph glyph-name="uni2083" unicode="&#x2083;" horiz-adv-x="346" 
d="M192 73q53 0 89 -31t36 -81q0 -53 -42 -87.5t-106 -34.5q-58 0 -99 29t-48 76l45 13q6 -33 34.5 -54t67.5 -21q40 0 68 23t28 59q0 34 -26.5 56.5t-67.5 22.5q-34 0 -69 -20l-20 28l150 111h-186v44h251v-42l-125 -92q3 0 9.5 0.5t10.5 0.5z" />
    <glyph glyph-name="uni2084" unicode="&#x2084;" horiz-adv-x="355" 
d="M279 -29h54v-38h-54v-88h-50v88h-209v35l183 236h76v-233zM229 170l-149 -199h149v199z" />
    <glyph glyph-name="uni2085" unicode="&#x2085;" horiz-adv-x="333" 
d="M175 82q58 0 94.5 -33.5t36.5 -85.5q0 -54 -39 -89t-101 -35q-54 0 -93 28.5t-49 76.5l46 11q7 -33 33.5 -53t61.5 -20q38 0 64 23t26 60q0 35 -24.5 58t-62.5 23q-50 0 -86 -42l-41 21l26 181h218v-42h-180l-15 -109q38 27 85 27z" />
    <glyph glyph-name="uni2086" unicode="&#x2086;" horiz-adv-x="330" 
d="M177 85q55 0 92.5 -34.5t37.5 -85.5q0 -54 -40 -90t-100 -36q-61 0 -101 36.5t-40 90.5q0 58 47 115l99 125h57l-106 -132q22 11 54 11zM166 -121q38 0 65 24.5t27 60.5t-26.5 61t-66.5 25q-39 0 -65 -24t-26 -61q0 -36 26.5 -61t65.5 -25z" />
    <glyph glyph-name="uni2087" unicode="&#x2087;" horiz-adv-x="288" 
d="M22 162v44h247v-42l-171 -319h-57l172 317h-191z" />
    <glyph glyph-name="uni2088" unicode="&#x2088;" horiz-adv-x="352" 
d="M244 35q35 -10 56 -34t21 -56q0 -46 -40.5 -76t-104.5 -30t-104.5 29.5t-40.5 76.5q0 31 21 55.5t57 34.5q-62 23 -62 79q0 42 36.5 69.5t92.5 27.5t93 -27.5t37 -69.5q0 -56 -62 -79zM176 174q-35 0 -59 -18t-24 -46q0 -27 23.5 -45t59.5 -18t60.5 18t24.5 46
q0 27 -24.5 45t-60.5 18zM176 -123q40 0 67 20.5t27 50.5q0 29 -26.5 48.5t-66.5 19.5t-67.5 -19.5t-27.5 -49.5q0 -29 27 -49.5t67 -20.5z" />
    <glyph glyph-name="uni2089" unicode="&#x2089;" horiz-adv-x="325" 
d="M161 211q60 0 100 -36.5t40 -91.5q0 -25 -10 -50t-19 -37.5t-27 -35.5l-89 -115h-58l100 128q-24 -8 -47 -8q-54 0 -91 34.5t-37 85.5q0 54 39.5 90t98.5 36zM71 86q0 -36 26 -60.5t64 -24.5t63.5 24t25.5 60t-25.5 60.5t-63.5 24.5t-64 -24t-26 -60z" />
    <glyph glyph-name="Euro" unicode="&#x20ac;" horiz-adv-x="658" 
d="M425 50q48 0 101 12.5t88 33.5v-61q-33 -21 -89 -34t-107 -13q-125 0 -208.5 71t-106.5 191h-71v50h64q-1 11 -1 33q0 23 1 34h-64v50h71q23 121 106.5 192.5t206.5 71.5q121 0 191 -51v-63q-34 25 -85.5 38t-96.5 13q-97 0 -164 -54.5t-89 -146.5h338v-50h-347
q-1 -11 -1 -34q0 -22 1 -33h347v-50h-339q22 -92 89 -146t165 -54z" />
    <glyph glyph-name="uni20B4" unicode="&#x20b4;" horiz-adv-x="682" 
d="M417 335l-136 -38q-29 -9 -44 -16h402v-47h-455q-12 -22 -12 -58q0 -57 47.5 -90.5t132.5 -33.5q115 0 228 43l2 -60q-118 -46 -233 -46q-130 0 -189.5 51t-59.5 130q0 37 12 64h-72v47h105q43 42 140 69l132 37q1 1 3.5 1t3.5 1h-384v46h461q16 24 16 62
q0 57 -47.5 89.5t-126.5 32.5q-100 0 -197 -37l-4 60q104 38 203 38q112 0 177.5 -47.5t65.5 -131.5q0 -34 -15 -66h66v-46h-105q-41 -32 -117 -54z" />
    <glyph glyph-name="uni20BD" unicode="&#x20bd;" horiz-adv-x="654" 
d="M403 254h-193v-72h232v-46h-232v-136h-73v136h-97v46h97v72h-97v51h97v364h268q94 0 155.5 -58.5t61.5 -148.5t-61.5 -149t-157.5 -59zM392 607h-182v-302h180q69 0 114.5 43t45.5 108t-45 108t-113 43z" />
    <glyph glyph-name="uni20BF" unicode="&#x20bf;" horiz-adv-x="682" 
d="M90 669h139v116h63v-116h76v116h63v-116q79 -3 127 -52t48 -120q0 -48 -24.5 -86t-68.5 -56q57 -14 91 -59t34 -108q0 -80 -55.5 -132.5t-149.5 -55.5v-114h-63v114h-76v-114h-64v114h-140v669zM165 314v-252h252q65 0 105 36.5t40 93.5q0 52 -35.5 87t-89.5 35h-272z
M165 375h243q54 0 90 32.5t36 81.5q0 51 -34 84.5t-87 33.5h-248v-232z" />
    <glyph glyph-name="uni2116" unicode="&#x2116;" horiz-adv-x="1116" 
d="M90 0v669h72l416 -553v553h71v-669h-68l-419 553v-553h-72zM784 626q48 49 121 49t122 -49t49 -123q0 -72 -49 -120q-49 -49 -122 -49t-121 48.5t-48 121.5t48 122zM822 419q34 -35 84 -35t83.5 34.5t33.5 85.5q0 52 -33 87q-34 34 -84 34t-84 -34.5t-34 -86.5
q0 -51 34 -85zM753 223v49h308v-49h-308z" />
    <glyph glyph-name="trademark" unicode="&#x2122;" horiz-adv-x="723" 
d="M129 625h-98v44h243v-44h-98v-255h-47v255zM482 475l120 194h46v-299h-44v218l-109 -171h-27l-110 175v-222h-44v299h47z" />
    <glyph glyph-name="estimated" unicode="&#x212e;" horiz-adv-x="872" 
d="M443 -14q-169 0 -282.5 99t-113.5 248q0 148 114.5 248t281.5 100q165 0 281.5 -98.5t116.5 -254.5v-23h-627v-208q36 -29 101.5 -49t127.5 -20q86 0 166 30t132 84l30 -28q-62 -61 -149.5 -94.5t-178.5 -33.5zM214 570v-220h460v220q-90 70 -231 70q-134 0 -229 -70z
" />
    <glyph glyph-name="arrowleft" unicode="&#x2190;" horiz-adv-x="614" 
d="M173 364h404v-68h-404l146 -147q11 -11 11 -27q0 -14 -10.5 -25.5t-26.5 -11.5t-27 11l-231 235l234 234q11 11 26 11q14 0 25 -11.5t11 -25.5q0 -16 -11 -27z" />
    <glyph glyph-name="arrowup" unicode="&#x2191;" horiz-adv-x="544" 
d="M271 550l235 -231q11 -11 11 -26q0 -16 -12 -26.5t-25 -10.5q-16 0 -26 10l-149 147v-404h-68v402l-146 -146q-11 -11 -28 -11q-14 0 -25 10.5t-11 24.5q0 18 10 28z" />
    <glyph glyph-name="arrowright" unicode="&#x2192;" horiz-adv-x="615" 
d="M346 565l233 -234l-231 -235q-11 -11 -26 -11q-16 0 -26.5 11.5t-10.5 25.5q0 16 11 27l145 147h-403v68h403l-146 148q-12 12 -12 27q0 14 11 25.5t26 11.5t26 -11z" />
    <glyph glyph-name="arrowdown" unicode="&#x2193;" horiz-adv-x="544" 
d="M480 256q13 0 25 -10.5t12 -26.5t-11 -27l-235 -231l-234 233q-10 10 -10 28q0 14 11 24.5t25 10.5q17 0 28 -11l146 -146v402h68v-405l149 147q12 12 26 12z" />
    <glyph glyph-name="arrowboth" unicode="&#x2194;" horiz-adv-x="942" 
d="M673 565l234 -234l-231 -235q-11 -11 -27 -11t-26.5 11.5t-10.5 25.5q0 16 11 27l146 147h-596l146 -147q11 -11 11 -27q0 -14 -10.5 -25.5t-26.5 -11.5t-27 11l-231 235l234 234q11 11 26 11q14 0 25 -11.5t11 -25.5q0 -16 -11 -27l-147 -148h596l-147 148
q-11 11 -11 27q0 14 11 25.5t25 11.5q15 0 26 -11z" />
    <glyph glyph-name="arrowupdn" unicode="&#x2195;" horiz-adv-x="560" 
d="M489 78q13 0 25 -10.5t12 -26.5q0 -15 -12 -27l-234 -231l-234 233q-11 11 -11 26t11.5 26t25.5 11q16 0 27 -11l147 -147v582l-148 -146q-12 -12 -27 -12q-14 0 -25.5 11t-11.5 26q0 16 11 27l234 233l235 -232q11 -11 11 -26q0 -16 -12 -26.5t-25 -10.5q-16 0 -27 11
l-148 146v-193h1v-390l148 146q11 11 27 11z" />
    <glyph glyph-name="uni2196" unicode="&#x2196;" horiz-adv-x="602" 
d="M188 459l390 -389l-48 -48l-390 389v-208q0 -14 -12 -26q-9 -10 -25 -10t-27 10q-10 10 -10 26v330h330q16 0 27 -11q10 -10 10 -25q0 -17 -10 -27q-11 -11 -27 -11h-208z" />
    <glyph glyph-name="uni2197" unicode="&#x2197;" horiz-adv-x="603" 
d="M204 511h330v-330q0 -16 -10 -26q-10 -11 -25 -11q-16 0 -27 11q-11 9 -11 26v208l-390 -390l-48 48l391 390h-209q-14 0 -26 12q-11 9 -11 26q0 15 10 25q13 11 26 11z" />
    <glyph glyph-name="uni2198" unicode="&#x2198;" horiz-adv-x="602" 
d="M524 357q10 -11 10 -27v-330h-330q-15 0 -26 11q-10 10 -10 25q0 16 10 26q14 12 27 12h209l-392 390l48 48l391 -390v208q0 16 11 27q10 10 27 10q15 0 25 -10z" />
    <glyph glyph-name="uni2199" unicode="&#x2199;" horiz-adv-x="602" 
d="M423 62q11 -9 11 -25q0 -15 -11 -26t-26 -11h-330v330q0 14 11 27q10 10 25 10q17 0 27 -10q11 -11 11 -27v-207l389 389l49 -48l-391 -390h208q15 0 27 -12z" />
    <glyph glyph-name="partialdiff" unicode="&#x2202;" horiz-adv-x="612" 
d="M134 613l31 67q92 -2 162.5 -21.5t115 -51t72.5 -76t39 -91.5t11 -102q0 -156 -84 -252.5t-218 -96.5q-105 0 -169 58.5t-64 151.5q0 99 71 162.5t182 63.5q113 0 207 -64q-2 58 -20.5 102t-48.5 72t-75.5 45.5t-96 24.5t-115.5 8zM266 55q95 0 155 71t68 165
q-86 71 -192 71q-85 0 -137 -45t-52 -116q0 -64 43.5 -105t114.5 -41z" />
    <glyph glyph-name="product" unicode="&#x220f;" horiz-adv-x="739" 
d="M210 -167h-74v769h-106v67h678v-67h-105v-769h-73v769h-320v-769z" />
    <glyph glyph-name="summation" unicode="&#x2211;" horiz-adv-x="582" 
d="M549 -167h-512v62l229 355l-229 356v63h512v-67h-427l225 -352l-225 -351h427v-66z" />
    <glyph glyph-name="minus" unicode="&#x2212;" horiz-adv-x="530" 
d="M464 290h-397v66h397v-66z" />
    <glyph glyph-name="radical" unicode="&#x221a;" horiz-adv-x="674" 
d="M501 669h183v-67h-135l-282 -769h-61l-202 562h73l159 -461z" />
    <glyph glyph-name="infinity" unicode="&#x221e;" horiz-adv-x="796" 
d="M590 460q66 0 111.5 -47.5t45.5 -113.5q0 -65 -45 -111.5t-112 -46.5q-18 0 -34 3t-32.5 11.5t-27.5 14.5t-27.5 21t-23 21t-25 25t-22.5 23q-3 -3 -19.5 -20.5t-21.5 -22t-20.5 -19t-23.5 -19.5t-23 -14.5t-26.5 -13t-27 -7t-31.5 -3.5q-65 0 -111 47t-46 111
q0 66 46 113.5t112 47.5q21 0 41 -6t34 -12.5t33.5 -22.5t27.5 -23.5t29.5 -29.5t26.5 -27q4 4 22.5 23.5t25 25.5t23.5 21.5t27.5 21.5t27 14.5t32.5 11.5t34 3zM205 197q15 0 29.5 5t24.5 9.5t26.5 18t22.5 19t26 25.5l25 25q-5 5 -19.5 20.5t-19.5 20t-17.5 17
t-18.5 16.5t-17.5 12t-19.5 11t-19 5.5t-22 2.5q-43 0 -72.5 -31t-29.5 -74q0 -41 29 -71.5t72 -30.5zM590 197q44 0 73 30t29 72q0 43 -29.5 74t-72.5 31q-13 0 -24.5 -2.5t-23.5 -9t-20 -11.5t-21.5 -17.5t-19.5 -18.5t-22 -22.5t-22 -22.5q3 -3 15.5 -16t16 -16.5l14 -14
t15 -14t14 -11.5t15 -11t14.5 -8t16 -7t15.5 -3.5t17.5 -1.5z" />
    <glyph glyph-name="integral" unicode="&#x222b;" horiz-adv-x="513" 
d="M88 -174q-48 0 -97 21l1 66q49 -22 87 -22q95 0 112 132l65 502q12 95 57.5 140t114.5 45q44 0 94 -16l-2 -65q-42 16 -81 16q-98 0 -115 -131l-64 -503q-23 -185 -172 -185z" />
    <glyph glyph-name="approxequal" unicode="&#x2248;" horiz-adv-x="551" 
d="M364 350q-41 0 -93 35t-79 35q-49 0 -63 -63h-61q8 61 43.5 91.5t79.5 30.5q40 0 90.5 -35.5t78.5 -35.5q48 0 68 63h62q-30 -121 -126 -121zM366 189q-42 0 -94 34.5t-79 34.5q-48 0 -63 -63h-61q8 61 43.5 91.5t79.5 30.5q40 0 90 -35.5t79 -35.5q47 0 69 64h60
q-13 -60 -45.5 -90.5t-78.5 -30.5z" />
    <glyph glyph-name="notequal" unicode="&#x2260;" horiz-adv-x="509" 
d="M463 459v-65h-140l-78 -144h218v-63h-252l-64 -119h-50l64 119h-115v63h149l78 144h-227v65h262l63 117h50l-63 -117h105z" />
    <glyph glyph-name="lessequal" unicode="&#x2264;" horiz-adv-x="518" 
d="M443 254v-71l-379 168v67l379 168v-72l-310 -128zM443 123v-65h-380v65h380z" />
    <glyph glyph-name="greaterequal" unicode="&#x2265;" horiz-adv-x="518" 
d="M455 351l-380 -168v71l311 132l-311 128v72l380 -168v-67zM456 58h-381v65h381v-65z" />
    <glyph glyph-name="lozenge" unicode="&#x25ca;" horiz-adv-x="623" 
d="M345 0h-66l-250 335l250 334h66l251 -335zM113 335l199 -268l199 267l-199 267z" />
    <glyph glyph-name="uni2619" unicode="&#x2619;" horiz-adv-x="907" 
d="M689 381q88 -2 136 -47t48 -103q0 -45 -27 -71t-66 -26q-25 0 -43 12t-18 32q0 29 40 30q-1 -18 9.5 -25.5t22.5 -7.5q18 0 32.5 12t18.5 31q-49 5 -94 44t-75 96q-109 -4 -240 -71h9q33 0 56 -23t23 -54q0 -39 -42.5 -67t-129.5 -28q-125 0 -221.5 59.5t-96.5 131.5
q0 22 11.5 36t27.5 14q28 0 44 -37q-31 -15 -31 -45q0 -20 14 -35t36 -15q37 0 57 44q7 15 16 45t17.5 52.5t22.5 46.5t36.5 37t52.5 13q35 0 60.5 -25t25.5 -61q0 -56 -66 -107q3 -6 6 -9l10 7q74 51 151.5 79.5t138.5 33.5q-2 5 -13.5 28t-18.5 36.5t-20 37t-25 37.5
t-27 29.5t-32 23t-34 7.5q-30 0 -30 -17q0 -3 7.5 -11.5t7.5 -17.5q0 -12 -9.5 -19.5t-22.5 -7.5q-17 0 -27.5 13t-10.5 31q0 23 18 41.5t54 18.5q31 0 60 -16t48.5 -35.5t42 -57.5t32 -58.5zM701 357q25 -44 63.5 -78.5t79.5 -41.5q-2 43 -39 78.5t-104 41.5z" />
    <glyph glyph-name="uni2764" unicode="&#x2764;" horiz-adv-x="544" 
d="M272 115q-36 48 -83 92.5t-77 68.5t-51.5 56t-21.5 68q0 50 29.5 79.5t76.5 29.5q52 0 85 -40t34 -108h15q5 71 37.5 109.5t83.5 38.5q46 0 75.5 -29.5t29.5 -78.5q0 -37 -21.5 -69t-51.5 -56t-77 -68.5t-83 -92.5z" />
    <glyph glyph-name="uni2766" unicode="&#x2766;" horiz-adv-x="593" 
d="M449 459q-49 0 -107 23q-3 -35 -29 -114q33 43 81 43q36 0 60 -24.5t24 -57.5q0 -30 -23 -57t-51 -44.5t-51 -39.5t-23 -42q0 -14 9.5 -22.5t24.5 -8.5q19 0 32.5 14t11.5 41q17 7 31 7q15 0 23.5 -8t8.5 -20q0 -23 -28.5 -46t-74.5 -23q-90 0 -176 81t-86 159
q0 40 24 64.5t59 24.5q38 0 61 -30t22 -89l10 -1q0 5 6 30q3 30 18 84t15 89q-4 2 -21 11t-24 12t-23 10.5t-25.5 11t-24 8t-27 6t-25.5 1.5q-36 0 -55 -14.5t-19 -36.5q0 -17 14.5 -28.5t39.5 -11.5q-9 -35 -38 -35q-23 0 -41 17.5t-18 46.5q0 37 29.5 64.5t84.5 28.5
q-7 14 -7 28q0 27 23 43.5t51 16.5q61 0 93 -45.5t35 -110.5q60 -31 102 -31q29 0 48.5 11t19.5 25q0 5 -14.5 12.5t-14.5 20.5q0 14 10 24t25 10q18 0 30.5 -12.5t12.5 -33.5q0 -34 -30.5 -58t-82.5 -24zM215 648q-18 0 -29.5 -9.5t-11.5 -24.5q0 -24 27 -37q42 -9 117 -49
q-8 50 -34 85t-69 35z" />
    <glyph glyph-name="uni2767" unicode="&#x2767;" horiz-adv-x="908" 
d="M838 356q16 0 27.5 -14t11.5 -36q0 -72 -97 -131.5t-221 -59.5q-88 0 -130.5 28t-42.5 67q0 31 23 54t57 23h9q-131 67 -241 71q-30 -57 -74.5 -96t-93.5 -44q4 -19 18 -31t32 -12q33 0 33 33q40 -1 40 -30q0 -20 -18 -32t-43 -12q-39 0 -66 26t-27 71q0 58 48 103
t136 47q18 40 28 61.5t32 58.5t41.5 57t48.5 36t61 16q36 0 54 -18.5t18 -41.5q0 -18 -11 -31t-28 -13q-13 0 -22.5 7.5t-9.5 19.5q0 9 7.5 17.5t7.5 11.5q0 17 -30 17q-17 0 -33.5 -7.5t-32 -23t-27 -29.5t-25 -38t-20.5 -36.5t-18.5 -36.5t-13.5 -28q61 -5 141 -35
t154 -82q2 -1 2 -1.5t3 -1.5q4 2 7 9q-67 50 -67 107q0 36 26 61t60 25q30 0 52.5 -12.5t36.5 -36t22.5 -46t18 -53t16.5 -46.5q20 -44 57 -44q22 0 35.5 15t13.5 35q0 31 -30 45q16 37 44 37zM64 237q41 7 79.5 41.5t63.5 78.5q-67 -6 -104 -41.5t-39 -78.5z" />
    <glyph glyph-name="NULL.1" horiz-adv-x="0" 
 />
    <glyph glyph-name="J_acutecomb" horiz-adv-x="484" 
d="M144 58q90 0 136 47t46 122v442h74v-454q0 -104 -64.5 -165t-181.5 -61q-67 0 -131 20v67q63 -18 121 -18zM381 869h93l-67 -144h-77z" />
    <glyph glyph-name="Iacute_J.loclNLD" horiz-adv-x="720" 
d="M259 76q63 -18 121 -18q90 0 136 47t46 122v442h75v-454q0 -104 -65 -165t-182 -61q-68 0 -130 20zM90 669h74v-669h-74v669zM610 869h94l-68 -144h-77zM146 869h93l-67 -144h-77z" />
    <glyph glyph-name="G.ss01" horiz-adv-x="750" 
d="M139 583q94 98 244 98q184 0 284 -125l-57 -48q-77 104 -226 104q-118 0 -191 -79t-73 -201q0 -121 75.5 -198.5t200.5 -77.5q114 0 233 73v164h-265v65h336v-263q-143 -107 -305 -107q-159 0 -254.5 97.5t-95.5 247.5q0 151 94 250z" />
    <glyph glyph-name="Gbreve.ss01" horiz-adv-x="750" 
d="M139 583q94 98 244 98q184 0 284 -125l-57 -48q-77 104 -226 104q-118 0 -191 -79t-73 -201q0 -121 75.5 -198.5t200.5 -77.5q114 0 233 73v164h-265v65h336v-263q-143 -107 -305 -107q-159 0 -254.5 97.5t-95.5 247.5q0 151 94 250zM233 870h64q1 -40 26 -65.5t65 -25.5
t65.5 25.5t26.5 65.5h64q-1 -65 -44 -104t-112 -39t-111.5 39t-43.5 104z" />
    <glyph glyph-name="Gcircumflex.ss01" horiz-adv-x="750" 
d="M139 583q94 98 244 98q184 0 284 -125l-57 -48q-77 104 -226 104q-118 0 -191 -79t-73 -201q0 -121 75.5 -198.5t200.5 -77.5q114 0 233 73v164h-265v65h336v-263q-143 -107 -305 -107q-159 0 -254.5 97.5t-95.5 247.5q0 151 94 250zM354 873h67l129 -143h-80l-82 91
l-83 -91h-79z" />
    <glyph glyph-name="uni0122.ss01" horiz-adv-x="750" 
d="M139 583q94 98 244 98q184 0 284 -125l-57 -48q-77 104 -226 104q-118 0 -191 -79t-73 -201q0 -121 75.5 -198.5t200.5 -77.5q114 0 233 73v164h-265v65h336v-263q-143 -107 -305 -107q-159 0 -254.5 97.5t-95.5 247.5q0 151 94 250zM324 -212l35 159h80l-44 -159h-71z
" />
    <glyph glyph-name="Gdotaccent.ss01" horiz-adv-x="750" 
d="M45 333q0 151 94 249.5t244 98.5q184 0 284 -125l-57 -48q-77 104 -226 104q-118 0 -191 -79t-73 -201q0 -121 75.5 -198.5t200.5 -77.5q114 0 233 73v164h-265v65h336v-263q-143 -107 -305 -107q-159 0 -254.5 97.5t-95.5 247.5zM335 808q0 22 15.5 37.5t37.5 15.5
q23 0 39 -15.5t16 -37.5q0 -23 -16 -38.5t-39 -15.5q-22 0 -37.5 15.5t-15.5 38.5z" />
    <glyph glyph-name="E.ss07" horiz-adv-x="592" 
d="M533 371v-65h-474v65h474zM59 0v65h474v-65h-474zM59 669h474v-65h-474v65z" />
    <glyph glyph-name="Eacute.ss07" horiz-adv-x="592" 
d="M59 371h474v-65h-474v65zM59 669h474v-65h-474v65zM59 65h474v-65h-474v65zM317 869h93l-68 -144h-76z" />
    <glyph glyph-name="Ebreve.ss07" horiz-adv-x="592" 
d="M59 604v65h474v-65h-474zM59 65h474v-65h-474v65zM59 306v65h474v-65h-474zM145 871h64q1 -41 26.5 -66.5t65.5 -25.5t65.5 25.5t25.5 66.5h65q-1 -66 -44 -105t-112 -39t-112 39t-44 105z" />
    <glyph glyph-name="Ecaron.ss07" horiz-adv-x="592" 
d="M59 604v65h474v-65h-474zM59 65h474v-65h-474v65zM59 371h474v-65h-474v65zM140 872h80l82 -91l83 91h79l-129 -144h-66z" />
    <glyph glyph-name="Ecircumflex.ss07" horiz-adv-x="592" 
d="M533 65v-65h-474v65h474zM59 669h474v-65h-474v65zM59 306v65h474v-65h-474zM267 874h66l129 -144h-80l-81 91l-84 -91h-79z" />
    <glyph glyph-name="Edieresis.ss07" horiz-adv-x="592" 
d="M59 65h474v-65h-474v65zM59 371h474v-65h-474v65zM59 669h474v-65h-474v65zM345 850q16 16 40 16q25 0 42 -16.5t17 -39.5q0 -24 -17 -40.5t-42 -16.5q-24 0 -40.5 16.5t-16.5 40.5q0 23 17 40zM158 810q0 23 16.5 39.5t40.5 16.5q25 0 41.5 -16.5t16.5 -39.5
q0 -24 -16.5 -40.5t-41.5 -16.5q-24 0 -40.5 16.5t-16.5 40.5z" />
    <glyph glyph-name="Edotaccent.ss07" horiz-adv-x="592" 
d="M533 371v-65h-474v65h474zM59 65h474v-65h-474v65zM59 604v65h474v-65h-474zM246 808q0 23 16 38.5t39 15.5t39 -15.5t16 -38.5q0 -22 -16 -37q-16 -16 -39 -16t-39 15.5t-16 37.5z" />
    <glyph glyph-name="Egrave.ss07" horiz-adv-x="592" 
d="M59 371h474v-65h-474v65zM59 669h474v-65h-474v65zM59 65h474v-65h-474v65zM193 870h94l51 -145h-76z" />
    <glyph glyph-name="Emacron.ss07" horiz-adv-x="592" 
d="M59 371h474v-65h-474v65zM59 669h474v-65h-474v65zM59 65h474v-65h-474v65zM142 833h316v-58h-316v58z" />
    <glyph glyph-name="Eogonek.ss07" horiz-adv-x="592" 
d="M59 65h474v-65q-55 -21 -85 -54.5t-30 -65.5q0 -20 11.5 -33t32.5 -13q22 0 65 18l3 -52q-40 -21 -78 -21q-45 0 -70 23.5t-25 62.5q0 32 23.5 69t70.5 66h-392v65zM59 669h474v-65h-474v65zM533 371v-65h-474v65h474z" />
    <glyph glyph-name="Q.ss08" horiz-adv-x="766" 
d="M141 581q97 99 242 99t241 -99t96 -247q0 -124 -69 -215.5t-181 -118.5l200 -145l-53 -59l-252 193q-139 7 -230 104t-91 241q0 148 97 247zM194 138q77 -81 189 -81q111 0 187.5 80.5t76.5 196.5q0 117 -76.5 197.5t-187.5 80.5q-112 0 -189 -80.5t-77 -197.5
q0 -116 77 -196z" />
    <glyph glyph-name="Y.ss12" horiz-adv-x="597" 
d="M1 669h78l221 -409l216 409h77l-349 -669h-80l100 187z" />
    <glyph glyph-name="Yacute.ss12" horiz-adv-x="597" 
d="M79 669l221 -409l216 409h77l-349 -669h-80l100 187l-263 482h78zM317 869h93l-68 -144h-76z" />
    <glyph glyph-name="Ycircumflex.ss12" horiz-adv-x="597" 
d="M1 669h78l221 -409l216 409h77l-349 -669h-80l100 187zM267 874h67l128 -144h-79l-82 91l-83 -91h-80z" />
    <glyph glyph-name="Ydieresis.ss12" horiz-adv-x="597" 
d="M1 669h78l221 -409l216 409h77l-349 -669h-80l100 187zM158 810q0 23 16.5 39.5t41.5 16.5q24 0 40.5 -16.5t16.5 -39.5q0 -24 -16.5 -40.5t-40.5 -16.5q-25 0 -41.5 16.5t-16.5 40.5zM345 850q17 16 41 16t40.5 -16t16.5 -40t-16 -40.5t-41 -16.5q-24 0 -41 16.5
t-17 40.5q0 23 17 40z" />
    <glyph glyph-name="Ygrave.ss12" horiz-adv-x="597" 
d="M1 669h78l221 -409l216 409h77l-349 -669h-80l100 187zM193 870h94l52 -145h-77z" />
    <glyph glyph-name="Y.ss13" horiz-adv-x="616" 
d="M96 669l234 -483l199 483h78l-220 -514q-13 -30 -27 -53.5t-39.5 -51.5t-64.5 -44t-87 -16q-47 0 -107 18v64q55 -20 104 -20q78 0 123 67l-272 550h79z" />
    <glyph glyph-name="Yacute.ss13" horiz-adv-x="616" 
d="M96 669l234 -483l199 483h78l-220 -514q-13 -30 -27 -53.5t-39.5 -51.5t-64.5 -44t-87 -16q-47 0 -107 18v64q55 -20 104 -20q78 0 123 67l-272 550h79zM338 864h94l-67 -144h-78z" />
    <glyph glyph-name="Ycircumflex.ss13" horiz-adv-x="616" 
d="M96 669l234 -483l199 483h78l-220 -514q-13 -30 -27 -53.5t-39.5 -51.5t-64.5 -44t-87 -16q-47 0 -107 18v64q55 -20 104 -20q78 0 123 67l-272 550h79zM289 869h66l129 -144h-79l-83 91l-82 -91h-80z" />
    <glyph glyph-name="Ydieresis.ss13" horiz-adv-x="616" 
d="M96 669l234 -483l199 483h78l-220 -514q-13 -30 -27 -53.5t-39.5 -51.5t-64.5 -44t-87 -16q-47 0 -107 18v64q55 -20 104 -20q78 0 123 67l-272 550h79zM180 805q0 23 17 40t41 17t40.5 -17t16.5 -40q0 -24 -16.5 -41t-40.5 -17q-25 0 -41.5 17t-16.5 41zM350 805
q0 23 17 40t41 17t40.5 -17t16.5 -40q0 -24 -16 -41q-17 -17 -41 -17t-41 17t-17 41z" />
    <glyph glyph-name="Ygrave.ss13" horiz-adv-x="616" 
d="M96 669l234 -483l199 483h78l-220 -514q-13 -30 -27 -53.5t-39.5 -51.5t-64.5 -44t-87 -16q-47 0 -107 18v64q55 -20 104 -20q78 0 123 67l-272 550h79zM309 865l51 -145h-77l-67 145h93z" />
    <glyph glyph-name="A.ss14" horiz-adv-x="657" 
d="M286 669h85l268 -669h-80l-229 597l-232 -597h-82z" />
    <glyph glyph-name="Aacute.ss14" horiz-adv-x="657" 
d="M16 0l270 669h85l268 -669h-80l-229 597l-232 -597h-82zM345 869h93l-67 -144h-77z" />
    <glyph glyph-name="Abreve.ss14" horiz-adv-x="657" 
d="M16 0l270 669h85l268 -669h-80l-229 597l-232 -597h-82zM237 871q1 -41 26.5 -66.5t65.5 -25.5t65.5 25.5t26.5 66.5h64q0 -65 -43 -104.5t-113 -39.5q-69 0 -112 39t-44 105h64z" />
    <glyph glyph-name="Acircumflex.ss14" horiz-adv-x="657" 
d="M16 0l270 669h85l268 -669h-80l-229 597l-232 -597h-82zM167 730l128 144h66l129 -144h-79l-82 91l-83 -91h-79z" />
    <glyph glyph-name="Adieresis.ss14" horiz-adv-x="657" 
d="M16 0l270 669h85l268 -669h-80l-229 597l-232 -597h-82zM186 810q0 23 16.5 39.5t41.5 16.5q24 0 41 -16.5t17 -39.5q0 -24 -17 -40.5t-41 -16.5q-25 0 -41.5 16.5t-16.5 40.5zM356 810q0 23 17 39.5t41 16.5t40.5 -16.5t16.5 -39.5q0 -24 -16 -40q-17 -17 -41 -17
t-41 16.5t-17 40.5z" />
    <glyph glyph-name="Agrave.ss14" horiz-adv-x="657" 
d="M16 0l270 669h85l268 -669h-80l-229 597l-232 -597h-82zM222 870h93l51 -145h-77z" />
    <glyph glyph-name="Amacron.ss14" horiz-adv-x="657" 
d="M16 0l270 669h85l268 -669h-80l-229 597l-232 -597h-82zM486 833v-58h-316v58h316z" />
    <glyph glyph-name="Aogonek.ss14" horiz-adv-x="657" 
d="M286 669h85l268 -669q-55 -21 -85 -54.5t-30 -65.5q0 -20 12 -33q11 -13 33 -13t65 18l2 -52q-40 -21 -77 -21q-45 0 -70.5 23.5t-25.5 62.5q0 32 24 69.5t72 66.5l-229 596l-232 -597h-82z" />
    <glyph glyph-name="Aring.ss14" horiz-adv-x="657" 
d="M286 669h85l268 -669h-80l-229 597l-232 -597h-82zM220 809q0 43 31.5 72.5t77.5 29.5t76.5 -29.5t30.5 -72.5t-30 -72q-31 -30 -77 -30t-77.5 29.5t-31.5 72.5zM285 766q18 -18 44 -18t43.5 17t17.5 43t-17.5 44t-43.5 18t-44 -18t-18 -44q0 -25 18 -42z" />
    <glyph glyph-name="Atilde.ss14" horiz-adv-x="657" 
d="M286 669h85l268 -669h-80l-229 597l-232 -597h-82zM163 833q28 32 79 32q42 0 87 -33.5t71 -33.5q27 0 45 18.5t20 47.5h59q-2 -51 -32 -84.5t-79 -33.5q-40 0 -85.5 33.5t-72.5 33.5t-43.5 -18t-18.5 -48h-58q0 53 28 86z" />
    <glyph glyph-name="i.loclTRK" horiz-adv-x="230" 
d="M78 479h74v-479h-74v479zM77 649q16 15 38 15q23 0 38.5 -15.5t15.5 -37.5q0 -23 -15 -38q-16 -16 -39 -16t-38.5 15.5t-15.5 38.5q0 22 16 38z" />
    <glyph glyph-name="j_acutecomb" horiz-adv-x="243" 
d="M-7 -147q54 0 76 25.5t22 86.5v514h74v-541q0 -71 -42 -111.5t-119 -40.5q-42 0 -83 12v65q44 -10 72 -10zM139 681h91l-67 -139h-72z" />
    <glyph glyph-name="germandbls.calt" horiz-adv-x="681" 
d="M411 -12q-72 0 -138 26v73q67 -30 138 -30q85 0 130.5 32.5t45.5 81.5q0 31 -21.5 56t-52 44t-61 38.5t-52 50t-21.5 69.5q0 53 42.5 94t117.5 53q-64 36 -146 36q-108 0 -168 -55.5t-60 -165.5v-391h-75v406q0 123 76 198.5t221 75.5q142 0 235 -84l-28 -58
q-65 -8 -105.5 -36t-40.5 -67q0 -27 22 -49t53 -40t62 -39t53 -55.5t22 -79.5q0 -85 -68 -134.5t-181 -49.5z" />
    <glyph glyph-name="iacute_j.loclNLD" horiz-adv-x="482" 
d="M159 -137q44 -10 72 -10q54 0 76.5 25.5t22.5 86.5v514h73v-541q0 -71 -42 -111.5t-118 -40.5q-43 0 -84 12v65zM82 479h73v-479h-73v479zM327 542l48 139h91l-67 -139h-72zM129 681h90l-67 -139h-71z" />
    <glyph glyph-name="j.short" horiz-adv-x="244" 
d="M129 550q-23 0 -39 15.5t-16 38.5t16 38.5t39 15.5t38.5 -15.5t15.5 -38.5t-15.5 -38.5t-38.5 -15.5zM-79 -202v65q44 -10 72 -10q54 0 76 25.5t22 86.5v514h74v-541q0 -71 -42 -111.5t-119 -40.5q-42 0 -83 12z" />
    <glyph glyph-name="a.ss02" horiz-adv-x="561" 
d="M35 137q0 66 48 106t134 40h205v1q0 69 -35 106t-121 37q-100 0 -187 -32v63q88 31 189 31q107 0 165.5 -47t58.5 -156v-286h-68v82q-31 -45 -85 -69t-119 -24q-85 0 -135 40.5t-50 107.5zM142 73q34 -24 95 -24q79 0 132 42.5t53 123.5v13h-205q-54 0 -82 -24t-28 -64
q0 -43 35 -67z" />
    <glyph glyph-name="aacute.ss02" horiz-adv-x="561" 
d="M83 243q48 40 134 40h205v1q0 69 -35 106t-121 37q-100 0 -187 -32v63q88 31 189 31q107 0 165.5 -47t58.5 -156v-286h-68v82q-31 -45 -85 -69t-119 -24q-85 0 -135 40.5t-50 107.5q0 66 48 106zM142 73q34 -24 95 -24q79 0 132 42.5t53 123.5v13h-205q-54 0 -82 -24
t-28 -64q0 -43 35 -67zM240 542l48 139h91l-67 -139h-72z" />
    <glyph glyph-name="abreve.ss02" horiz-adv-x="561" 
d="M83 243q48 40 134 40h205v1q0 69 -35 106t-121 37q-100 0 -187 -32v63q88 31 189 31q107 0 165.5 -47t58.5 -156v-286h-68v82q-31 -45 -85 -69t-119 -24q-85 0 -135 40.5t-50 107.5q0 66 48 106zM107 140q0 -43 34.5 -67t95.5 -24q79 0 132 42.5t53 123.5v13h-205
q-54 0 -82 -24t-28 -64zM128 678h60q1 -41 25 -66.5t64 -25.5t64 25.5t25 66.5h60q0 -63 -41 -101t-108 -38q-66 0 -107 38t-42 101z" />
    <glyph glyph-name="acircumflex.ss02" horiz-adv-x="561" 
d="M83 243q48 40 134 40h205v1q0 69 -35 106t-121 37q-100 0 -187 -32v63q88 31 189 31q107 0 165.5 -47t58.5 -156v-286h-68v82q-31 -45 -85 -69t-119 -24q-85 0 -135 40.5t-50 107.5q0 66 48 106zM107 140q0 -43 34.5 -67t95.5 -24q79 0 132 42.5t53 123.5v13h-205
q-54 0 -82 -24t-28 -64zM127 540l119 137h63l119 -137h-72l-78 91l-80 -91h-71z" />
    <glyph glyph-name="adieresis.ss02" horiz-adv-x="561" 
d="M35 137q0 66 48 106t134 40h205v1q0 69 -35 106t-121 37q-100 0 -187 -32v63q88 31 189 31q107 0 165.5 -47t58.5 -156v-286h-68v82q-31 -45 -85 -69t-119 -24q-85 0 -135 40.5t-50 107.5zM142 73q34 -24 95 -24q79 0 132 42.5t53 123.5v13h-205q-54 0 -82 -24t-28 -64
q0 -43 35 -67zM303 600q0 23 16 38.5t39 15.5q22 0 38 -16t16 -38q0 -23 -15 -38q-16 -16 -39 -16t-39 15.5t-16 38.5zM159 639q15 15 38 15t38.5 -15.5t15.5 -38.5t-15 -38q-16 -16 -39 -16t-38.5 15.5t-15.5 38.5t16 39z" />
    <glyph glyph-name="agrave.ss02" horiz-adv-x="561" 
d="M83 243q48 40 134 40h205v1q0 69 -35 106t-121 37q-100 0 -187 -32v63q88 31 189 31q107 0 165.5 -47t58.5 -156v-286h-68v82q-31 -45 -85 -69t-119 -24q-85 0 -135 40.5t-50 107.5q0 66 48 106zM142 73q34 -24 95 -24q79 0 132 42.5t53 123.5v13h-205q-54 0 -82 -24
t-28 -64q0 -43 35 -67zM265 681l48 -139h-73l-67 139h92z" />
    <glyph glyph-name="amacron.ss02" horiz-adv-x="561" 
d="M83 243q48 40 134 40h205v1q0 69 -35 106t-121 37q-100 0 -187 -32v63q88 31 189 31q107 0 165.5 -47t58.5 -156v-286h-68v82q-31 -45 -85 -69t-119 -24q-85 0 -135 40.5t-50 107.5q0 66 48 106zM142 73q34 -24 95 -24q79 0 132 42.5t53 123.5v13h-205q-54 0 -82 -24
t-28 -64q0 -43 35 -67zM138 632h278v-54h-278v54z" />
    <glyph glyph-name="aogonek.ss02" horiz-adv-x="560" 
d="M83 243q48 40 134 40h205v1q0 69 -35 106t-121 37q-100 0 -187 -32v63q88 31 189 31q107 0 165.5 -47t58.5 -156v-286h-3l3 -1q-55 -21 -85 -54.5t-30 -65.5q0 -20 11.5 -33t32.5 -13q22 0 65 19l3 -53q-40 -21 -78 -21q-45 0 -70 24t-25 62q0 35 27 75t81 69v74
q-31 -45 -85 -69t-119 -24q-85 0 -135 40.5t-50 107.5q0 66 48 106zM107 140q0 -43 34.5 -67t95.5 -24q79 0 132 42.5t53 123.5v13h-205q-54 0 -82 -24t-28 -64z" />
    <glyph glyph-name="aring.ss02" horiz-adv-x="561" 
d="M35 137q0 66 48 106t134 40h205v1q0 69 -35 106t-121 37q-100 0 -187 -32v63q88 31 189 31q107 0 165.5 -47t58.5 -156v-286h-68v82q-31 -45 -85 -69t-119 -24q-85 0 -135 40.5t-50 107.5zM107 140q0 -43 34.5 -67t95.5 -24q79 0 132 42.5t53 123.5v13h-205
q-54 0 -82 -24t-28 -64zM172 631q0 41 30 70t74 29t74 -29t30 -70t-30 -69q-30 -29 -74 -29t-74 28.5t-30 69.5zM233 589q17 -18 43 -18t44 17.5t18 42.5t-18 43q-19 18 -44 18t-43 -18t-18 -43t18 -42z" />
    <glyph glyph-name="atilde.ss02" horiz-adv-x="561" 
d="M35 137q0 66 48 106t134 40h205v1q0 69 -35 106t-121 37q-100 0 -187 -32v63q88 31 189 31q107 0 165.5 -47t58.5 -156v-286h-68v82q-31 -45 -85 -69t-119 -24q-85 0 -135 40.5t-50 107.5zM107 140q0 -43 34.5 -67t95.5 -24q79 0 132 42.5t53 123.5v13h-205
q-54 0 -82 -24t-28 -64zM132 644q27 28 73 28q40 0 79 -30.5t63 -30.5q52 0 57 60h56q-3 -55 -30.5 -83.5t-73.5 -28.5q-37 0 -77.5 30.5t-67.5 30.5q-22 0 -36 -15.5t-15 -43.5h-57q1 54 29 83z" />
    <glyph glyph-name="g.ss04" horiz-adv-x="601" 
d="M43 2q24 28 68 40q-45 26 -45 72q0 55 62 78q-68 46 -68 126q0 77 65 123.5t176 46.5q62 0 110 -15q37 1 73.5 23t57.5 52l44 -45q-39 -58 -103 -67q58 -46 58 -118q0 -77 -64.5 -124t-175.5 -47q-68 0 -122 19q-44 -12 -44 -42q0 -21 19.5 -33t51.5 -12h197
q83 0 133.5 -36t50.5 -96q0 -77 -76 -118.5t-222 -41.5q-133 0 -202 39.5t-69 106.5q0 40 25 69zM95 -64q0 -42 44.5 -66t130.5 -24h43q195 0 195 98q0 37 -32.5 58t-93.5 21h-139q-75 0 -111.5 -24t-36.5 -63zM133 318q0 -53 45 -84t123 -31q76 0 121.5 31t45.5 84t-45 84
t-122 31q-78 0 -123 -31t-45 -84z" />
    <glyph glyph-name="gbreve.ss04" horiz-adv-x="601" 
d="M43 2q24 28 68 40q-45 26 -45 72q0 55 62 78q-68 46 -68 126q0 77 65 123.5t176 46.5q62 0 110 -15q37 1 73.5 23t57.5 52l44 -45q-39 -58 -103 -67q58 -46 58 -118q0 -77 -64.5 -124t-175.5 -47q-68 0 -122 19q-44 -12 -44 -42q0 -21 19.5 -33t51.5 -12h197
q83 0 133.5 -36t50.5 -96q0 -77 -76 -118.5t-222 -41.5q-133 0 -202 39.5t-69 106.5q0 40 25 69zM95 -64q0 -42 44.5 -66t130.5 -24h43q195 0 195 98q0 37 -32.5 58t-93.5 21h-139q-75 0 -111.5 -24t-36.5 -63zM178 234q45 -31 123 -31q76 0 121.5 31t45.5 84t-45 84
t-122 31q-78 0 -123 -31t-45 -84t45 -84zM151 678h60q1 -41 25 -66.5t64 -25.5t64 25.5t25 66.5h61q-1 -64 -42 -101q-41 -38 -108 -38t-107.5 37.5t-41.5 101.5z" />
    <glyph glyph-name="gcircumflex.ss04" horiz-adv-x="601" 
d="M43 2q24 28 68 40q-45 26 -45 72q0 55 62 78q-68 46 -68 126q0 77 65 123.5t176 46.5q62 0 110 -15q37 1 73.5 23t57.5 52l44 -45q-39 -58 -103 -67q58 -46 58 -118q0 -77 -64.5 -124t-175.5 -47q-68 0 -122 19q-44 -12 -44 -42q0 -21 19.5 -33t51.5 -12h197
q83 0 133.5 -36t50.5 -96q0 -77 -76 -118.5t-222 -41.5q-133 0 -202 39.5t-69 106.5q0 40 25 69zM140 -130q44 -24 130 -24h43q195 0 195 98q0 37 -32.5 58t-93.5 21h-139q-75 0 -111.5 -24t-36.5 -63q0 -42 45 -66zM178 234q45 -31 123 -31q76 0 121.5 31t45.5 84t-45 84
t-122 31q-78 0 -123 -31t-45 -84t45 -84zM151 540l118 137h62l119 -137h-71l-78 91l-80 -91h-70z" />
    <glyph glyph-name="uni0123.ss04" horiz-adv-x="601" 
d="M43 2q24 28 68 40q-45 26 -45 72q0 55 62 78q-68 46 -68 126q0 77 65 123.5t176 46.5q62 0 110 -15q37 1 73.5 23t57.5 52l44 -45q-39 -58 -103 -67q58 -46 58 -118q0 -77 -64.5 -124t-175.5 -47q-68 0 -122 19q-44 -12 -44 -42q0 -21 19.5 -33t51.5 -12h197
q83 0 133.5 -36t50.5 -96q0 -77 -76 -118.5t-222 -41.5q-133 0 -202 39.5t-69 106.5q0 40 25 69zM95 -64q0 -42 44.5 -66t130.5 -24h43q195 0 195 98q0 37 -32.5 58t-93.5 21h-139q-75 0 -111.5 -24t-36.5 -63zM178 234q45 -31 123 -31q76 0 121.5 31t45.5 84t-45 84
t-122 31q-78 0 -123 -31t-45 -84t45 -84zM305 683h67l-36 -143h-78z" />
    <glyph glyph-name="gdotaccent.ss04" horiz-adv-x="601" 
d="M18 -67q0 40 24.5 68.5t68.5 40.5q-45 26 -45 72q0 55 62 78q-68 46 -68 126q0 77 65 123.5t176 46.5q62 0 110 -15q37 1 73.5 23t57.5 52l44 -45q-39 -58 -103 -67q58 -46 58 -118q0 -77 -64.5 -124t-175.5 -47q-68 0 -122 19q-44 -12 -44 -42q0 -21 19.5 -33t51.5 -12
h197q83 0 133.5 -36t50.5 -96q0 -77 -76 -118.5t-222 -41.5q-133 0 -202 39.5t-69 106.5zM140 -130q44 -24 130 -24h43q195 0 195 98q0 37 -32.5 58t-93.5 21h-139q-75 0 -111.5 -24t-36.5 -63q0 -42 45 -66zM133 318q0 -53 45 -84t123 -31q76 0 121.5 31t45.5 84t-45 84
t-122 31q-78 0 -123 -31t-45 -84zM246 611q0 22 16 37.5t39 15.5q22 0 37.5 -15.5t15.5 -37.5q0 -23 -15.5 -38.5t-37.5 -15.5q-23 0 -39 15.5t-16 38.5z" />
    <glyph glyph-name="germandbls.ss06" horiz-adv-x="597" 
d="M149 -160h-72v577q0 133 67 210t181 77q87 0 142 -44t55 -110q0 -41 -23.5 -75t-51.5 -52t-51.5 -36t-23.5 -32q0 -15 30.5 -33t66.5 -35.5t66.5 -54.5t30.5 -86q0 -71 -55.5 -114.5t-143.5 -43.5q-76 0 -135 26v67q65 -27 134 -27q61 0 94.5 27.5t33.5 69.5
q0 30 -19.5 53t-47.5 37t-56 27.5t-47.5 33.5t-19.5 46q0 28 23 53t50.5 41.5t50.5 43.5t23 59q0 44 -35.5 69.5t-89.5 25.5q-82 0 -129.5 -59.5t-47.5 -170.5v-570z" />
    <glyph glyph-name="a.ss09" horiz-adv-x="642" 
d="M41 241q0 107 67.5 177t169.5 70q120 0 187 -100v91h69v-358q0 -67 50 -67q28 0 54 13v-62q-31 -16 -68 -16q-49 0 -75.5 29t-27.5 76q-67 -105 -192 -105q-101 0 -167.5 71.5t-66.5 180.5zM165 108q50 -53 125 -53q74 0 124.5 53.5t50.5 132.5q0 77 -50.5 129.5
t-124.5 52.5q-75 0 -125 -52t-50 -131t50 -132z" />
    <glyph glyph-name="aacute.ss09" horiz-adv-x="642" 
d="M109 418q67 70 169 70q120 0 187 -100v91h69v-358q0 -67 50 -67q28 0 54 13v-62q-31 -16 -68 -16q-49 0 -75.5 29t-27.5 76q-67 -105 -192 -105q-101 0 -167.5 71.5t-66.5 180.5q0 107 68 177zM115 240q0 -79 50 -132t125 -53q74 0 124.5 53.5t50.5 132.5
q0 77 -50.5 129.5t-124.5 52.5q-75 0 -125 -52t-50 -131zM261 542l48 139h91l-67 -139h-72z" />
    <glyph glyph-name="abreve.ss09" horiz-adv-x="642" 
d="M109 418q67 70 169 70q120 0 187 -100v91h69v-358q0 -67 50 -67q28 0 54 13v-62q-31 -16 -68 -16q-49 0 -75.5 29t-27.5 76q-67 -105 -192 -105q-101 0 -167.5 71.5t-66.5 180.5q0 107 68 177zM165 108q50 -53 125 -53q74 0 124.5 53.5t50.5 132.5q0 77 -50.5 129.5
t-124.5 52.5q-75 0 -125 -52t-50 -131t50 -132zM149 678h60q1 -41 25 -66.5t64 -25.5t64 25.5t25 66.5h61q-1 -63 -42 -101t-108 -38q-66 0 -107 38t-42 101z" />
    <glyph glyph-name="acircumflex.ss09" horiz-adv-x="642" 
d="M41 241q0 107 67.5 177t169.5 70q120 0 187 -100v91h69v-358q0 -67 50 -67q28 0 54 13v-62q-31 -16 -68 -16q-49 0 -75.5 29t-27.5 76q-67 -105 -192 -105q-101 0 -167.5 71.5t-66.5 180.5zM165 108q50 -53 125 -53q74 0 124.5 53.5t50.5 132.5q0 77 -50.5 129.5
t-124.5 52.5q-75 0 -125 -52t-50 -131t50 -132zM149 540l118 137h62l119 -137h-71l-78 91l-80 -91h-70z" />
    <glyph glyph-name="adieresis.ss09" horiz-adv-x="642" 
d="M109 418q67 70 169 70q120 0 187 -100v91h69v-358q0 -67 50 -67q28 0 54 13v-62q-31 -16 -68 -16q-49 0 -75.5 29t-27.5 76q-67 -105 -192 -105q-101 0 -167.5 71.5t-66.5 180.5q0 107 68 177zM115 240q0 -79 50 -132t125 -53q74 0 124.5 53.5t50.5 132.5
q0 77 -50.5 129.5t-124.5 52.5q-75 0 -125 -52t-50 -131zM180 639q15 15 38 15t39 -15.5t16 -38.5t-16 -38q-16 -16 -39 -16t-38.5 15.5t-15.5 38.5t16 39zM341 639q15 15 38 15t38.5 -16t15.5 -38q0 -23 -15 -38q-16 -16 -39 -16t-38.5 15.5t-15.5 38.5t16 39z" />
    <glyph glyph-name="agrave.ss09" horiz-adv-x="642" 
d="M109 418q67 70 169 70q120 0 187 -100v91h69v-358q0 -67 50 -67q28 0 54 13v-62q-31 -16 -68 -16q-49 0 -75.5 29t-27.5 76q-67 -105 -192 -105q-101 0 -167.5 71.5t-66.5 180.5q0 107 68 177zM165 108q50 -53 125 -53q74 0 124.5 53.5t50.5 132.5q0 77 -50.5 129.5
t-124.5 52.5q-75 0 -125 -52t-50 -131t50 -132zM194 681h92l47 -139h-72z" />
    <glyph glyph-name="amacron.ss09" horiz-adv-x="642" 
d="M41 241q0 107 67.5 177t169.5 70q120 0 187 -100v91h69v-358q0 -67 50 -67q28 0 54 13v-62q-31 -16 -68 -16q-49 0 -75.5 29t-27.5 76q-67 -105 -192 -105q-101 0 -167.5 71.5t-66.5 180.5zM115 240q0 -79 50 -132t125 -53q74 0 124.5 53.5t50.5 132.5q0 77 -50.5 129.5
t-124.5 52.5q-75 0 -125 -52t-50 -131zM160 632h278v-54h-278v54z" />
    <glyph glyph-name="aogonek.ss09" horiz-adv-x="642" 
d="M41 241q0 107 67.5 177t169.5 70q120 0 187 -100v91h69v-358q0 -67 50 -67q28 0 54 13v-62q-9 -4 -16 -7q-55 -20 -84 -53.5t-29 -65.5q0 -20 11.5 -33t32.5 -13q26 0 64 19l4 -52q-39 -22 -78 -22q-45 0 -70 24t-25 62q0 31 21 66.5t64 63.5q-64 21 -66 100
q-67 -105 -192 -105q-101 0 -167.5 71.5t-66.5 180.5zM165 108q50 -53 125 -53q74 0 124.5 53.5t50.5 132.5q0 77 -50.5 129.5t-124.5 52.5q-75 0 -125 -52t-50 -131t50 -132z" />
    <glyph glyph-name="aring.ss09" horiz-adv-x="642" 
d="M109 418q67 70 169 70q120 0 187 -100v91h69v-358q0 -67 50 -67q28 0 54 13v-62q-31 -16 -68 -16q-49 0 -75.5 29t-27.5 76q-67 -105 -192 -105q-101 0 -167.5 71.5t-66.5 180.5q0 107 68 177zM165 108q50 -53 125 -53q74 0 124.5 53.5t50.5 132.5q0 77 -50.5 129.5
t-124.5 52.5q-75 0 -125 -52t-50 -131t50 -132zM224 702q29 28 73 28t74 -29t30 -70t-30 -69q-30 -29 -74 -29t-73.5 28.5t-29.5 69.5q0 42 30 71zM253 589q18 -18 44 -18t44 17.5t18 42.5t-18 43t-44 18q-25 0 -43.5 -18t-18.5 -43t18 -42z" />
    <glyph glyph-name="atilde.ss09" horiz-adv-x="642" 
d="M41 241q0 107 67.5 177t169.5 70q120 0 187 -100v91h69v-358q0 -67 50 -67q28 0 54 13v-62q-31 -16 -68 -16q-49 0 -75.5 29t-27.5 76q-67 -105 -192 -105q-101 0 -167.5 71.5t-66.5 180.5zM115 240q0 -79 50 -132t125 -53q74 0 124.5 53.5t50.5 132.5q0 77 -50.5 129.5
t-124.5 52.5q-75 0 -125 -52t-50 -131zM153 644q27 28 73 28q32 0 56.5 -15t44.5 -30.5t41 -15.5q25 0 40.5 16t16.5 44h56q-2 -54 -29.5 -83t-73.5 -29q-37 0 -78 30.5t-68 30.5q-22 0 -36 -15.5t-15 -43.5h-56q1 54 28 83z" />
    <glyph glyph-name="u.ss09" horiz-adv-x="624" 
d="M144 479v-272q0 -66 40 -109t101 -43q65 0 111 49.5t46 124.5v250h75v-357q0 -66 50 -66q28 0 54 13v-64q-31 -16 -69 -16q-47 0 -74.5 27.5t-29.5 73.5q-31 -51 -79.5 -76t-101.5 -25q-88 0 -143 58.5t-55 152.5v279h75z" />
    <glyph glyph-name="uacute.ss09" horiz-adv-x="624" 
d="M69 479h75v-272q0 -66 40 -109t101 -43q65 0 111 49.5t46 124.5v250h75v-357q0 -66 50 -66q28 0 54 13v-64q-31 -16 -69 -16q-47 0 -74.5 27.5t-29.5 73.5q-31 -51 -79.5 -76t-101.5 -25q-88 0 -143 58.5t-55 152.5v279zM256 542l48 139h90l-67 -139h-71z" />
    <glyph glyph-name="ubreve.ss09" horiz-adv-x="624" 
d="M144 479v-272q0 -66 40 -109t101 -43q65 0 111 49.5t46 124.5v250h75v-357q0 -66 50 -66q28 0 54 13v-64q-31 -16 -69 -16q-47 0 -74.5 27.5t-29.5 73.5q-31 -51 -79.5 -76t-101.5 -25q-88 0 -143 58.5t-55 152.5v279h75zM203 678q1 -41 25.5 -66.5t64.5 -25.5
q39 0 63 25.5t25 66.5h61q-1 -63 -42 -101t-107 -38q-67 0 -108 38t-42 101h60z" />
    <glyph glyph-name="ucircumflex.ss09" horiz-adv-x="624" 
d="M69 479h75v-272q0 -66 40 -109t101 -43q65 0 111 49.5t46 124.5v250h75v-357q0 -66 50 -66q28 0 54 13v-64q-31 -16 -69 -16q-47 0 -74.5 27.5t-29.5 73.5q-31 -51 -79.5 -76t-101.5 -25q-88 0 -143 58.5t-55 152.5v279zM262 677h62l119 -137h-72l-78 91l-80 -91h-70z
" />
    <glyph glyph-name="udieresis.ss09" horiz-adv-x="624" 
d="M69 200v279h75v-272q0 -66 40 -109t101 -43q65 0 111 49.5t46 124.5v250h75v-357q0 -66 50 -66q28 0 54 13v-64q-31 -16 -69 -16q-47 0 -74.5 27.5t-29.5 73.5q-31 -51 -79.5 -76t-101.5 -25q-88 0 -143 58.5t-55 152.5zM335 638q15 16 38 16t39 -16t16 -38
q0 -23 -16 -38q-16 -16 -39 -16t-38.5 15.5t-15.5 38.5q0 22 16 38zM158 600q0 22 16 38t38 16q23 0 39 -15.5t16 -38.5t-16 -38q-16 -16 -39 -16t-38.5 15.5t-15.5 38.5z" />
    <glyph glyph-name="ugrave.ss09" horiz-adv-x="624" 
d="M69 479h75v-272q0 -66 40 -109t101 -43q65 0 111 49.5t46 124.5v250h75v-357q0 -66 50 -66q28 0 54 13v-64q-31 -16 -69 -16q-47 0 -74.5 27.5t-29.5 73.5q-31 -51 -79.5 -76t-101.5 -25q-88 0 -143 58.5t-55 152.5v279zM188 681h92l48 -139h-73z" />
    <glyph glyph-name="uhungarumlaut.ss09" horiz-adv-x="624" 
d="M69 479h75v-272q0 -66 40 -109t101 -43q65 0 111 49.5t46 124.5v250h75v-357q0 -66 50 -66q28 0 54 13v-64q-31 -16 -69 -16q-47 0 -74.5 27.5t-29.5 73.5q-31 -51 -79.5 -76t-101.5 -25q-88 0 -143 58.5t-55 152.5v279zM326 542l53 139h87l-72 -139h-68zM182 542l38 139
h86l-57 -139h-67z" />
    <glyph glyph-name="umacron.ss09" horiz-adv-x="624" 
d="M69 200v279h75v-272q0 -66 40 -109t101 -43q65 0 111 49.5t46 124.5v250h75v-357q0 -66 50 -66q28 0 54 13v-64q-31 -16 -69 -16q-47 0 -74.5 27.5t-29.5 73.5q-31 -51 -79.5 -76t-101.5 -25q-88 0 -143 58.5t-55 152.5zM153 578v54h278v-54h-278z" />
    <glyph glyph-name="uogonek.ss09" horiz-adv-x="624" 
d="M69 479h75v-272q0 -66 40 -109t101 -43q65 0 111 49.5t46 124.5v250h75v-357q0 -66 50 -66q28 0 54 13v-64q-9 -5 -24 -9q-48 -21 -75 -53.5t-27 -61.5q0 -21 11 -34t33 -13q26 0 64 19l4 -52q-39 -22 -78 -22q-45 0 -70.5 24.5t-25.5 62.5q0 29 21 64t62 64
q-65 19 -68 96q-31 -51 -79.5 -76t-101.5 -25q-88 0 -143 58.5t-55 152.5v279z" />
    <glyph glyph-name="uring.ss09" horiz-adv-x="624" 
d="M144 479v-272q0 -66 40 -109t101 -43q65 0 111 49.5t46 124.5v250h75v-357q0 -66 50 -66q28 0 54 13v-64q-31 -16 -69 -16q-47 0 -74.5 27.5t-29.5 73.5q-31 -51 -79.5 -76t-101.5 -25q-88 0 -143 58.5t-55 152.5v279h75zM188 631q0 42 29.5 70.5t74.5 28.5q43 0 73 -29
t30 -70t-30 -69.5t-73 -28.5q-45 0 -74.5 28t-29.5 70zM230 631q0 -25 18 -42.5t44 -17.5q25 0 43 17.5t18 42.5t-18 43t-43 18q-26 0 -44 -18t-18 -43z" />
    <glyph glyph-name="utilde.ss09" horiz-adv-x="624" 
d="M69 200v279h75v-272q0 -66 40 -109t101 -43q65 0 111 49.5t46 124.5v250h75v-357q0 -66 50 -66q28 0 54 13v-64q-31 -16 -69 -16q-47 0 -74.5 27.5t-29.5 73.5q-31 -51 -79.5 -76t-101.5 -25q-88 0 -143 58.5t-55 152.5zM119 561q1 54 28 82.5t73 28.5q25 0 46.5 -9.5
t33.5 -21t28.5 -21t33.5 -9.5q26 0 41 16t16 44h57q-3 -55 -30.5 -83.5t-73.5 -28.5q-37 0 -78 30.5t-68 30.5q-22 0 -36 -15.5t-15 -43.5h-56z" />
    <glyph glyph-name="y.ss15" horiz-adv-x="552" 
d="M14 479h77l188 -408l180 408h77l-308 -684h-79l92 195z" />
    <glyph glyph-name="yacute.ss15" horiz-adv-x="552" 
d="M91 479l188 -408l180 408h77l-308 -684h-79l92 195l-227 489h77zM285 681h91l-67 -139h-72z" />
    <glyph glyph-name="ycircumflex.ss15" horiz-adv-x="552" 
d="M14 479h77l188 -408l180 408h77l-308 -684h-79l92 195zM243 677h62l119 -137h-72l-78 91l-80 -91h-70z" />
    <glyph glyph-name="ydieresis.ss15" horiz-adv-x="552" 
d="M14 479h77l188 -408l180 408h77l-308 -684h-79l92 195zM316 639q16 15 39 15t38.5 -16t15.5 -38q0 -23 -15 -38q-16 -16 -39 -16t-39 15.5t-16 38.5t16 39zM140 600q0 23 15.5 38.5t37.5 15.5q24 0 39.5 -15.5t15.5 -38.5t-15.5 -38.5t-39.5 -15.5q-23 0 -38 15.5
t-15 38.5z" />
    <glyph glyph-name="ygrave.ss15" horiz-adv-x="552" 
d="M14 479h77l188 -408l180 408h77l-308 -684h-79l92 195zM170 681h91l48 -139h-72z" />
    <glyph glyph-name="IJ.loclNLD" horiz-adv-x="719" 
d="M90 0v669h74v-669h-74zM391 -11q-66 0 -131 20v67q63 -18 122 -18q90 0 136 47t46 122v442h74v-454q0 -104 -65 -165t-182 -61z" />
    <glyph glyph-name="ij.loclNLD" horiz-adv-x="477" 
d="M115 557q-23 0 -38.5 15.5t-15.5 38.5q0 22 16 37.5t38 15.5q23 0 38.5 -15.5t15.5 -37.5q0 -23 -15.5 -38.5t-38.5 -15.5zM363 557q-23 0 -38.5 15.5t-15.5 38.5q0 22 16 37.5t38 15.5t37.5 -15.5t15.5 -37.5q0 -23 -15.5 -38.5t-37.5 -15.5zM152 0h-74v479h74v-479z
M155 -202v65q46 -10 72 -10q54 0 76.5 25.5t22.5 86.5v514h73v-541q0 -71 -42 -111.5t-118 -40.5q-43 0 -84 12z" />
    <glyph glyph-name="uni0414.loclBGR" horiz-adv-x="739" 
d="M418 669l234 -604h71v-198h-72v133h-562v-133h-72v198h70l242 604h89zM572 65l-198 537l-207 -537h405z" />
    <glyph glyph-name="uni041B.loclBGR" horiz-adv-x="657" 
d="M98 0h-82l270 669h85l268 -669h-80l-229 597z" />
    <glyph glyph-name="uni0423.loclBGR" horiz-adv-x="597" 
d="M300 260l216 409h77l-349 -669h-80l100 187l-263 482h78z" />
    <glyph glyph-name="uni0424.loclBGR" horiz-adv-x="975" 
d="M665 646q124 0 192 -83t68 -229q0 -149 -68 -233t-191 -84q-73 0 -143 28v-134h-70v134q-74 -28 -144 -28q-123 0 -191 84t-68 233q0 146 68.5 229t192.5 83q70 0 142 -27v130h70v-130q64 27 142 27zM123 335q0 -124 53 -191t150 -67q73 0 128 26v456q-67 27 -132 27
q-95 0 -147 -66t-52 -185zM651 77q96 0 149 67.5t53 190.5q0 119 -52 185t-147 66q-69 0 -132 -27v-455q56 -27 129 -27z" />
    <glyph glyph-name="uni0430.loclBGR" horiz-adv-x="615" 
d="M109 418q67 71 169 71q61 0 109.5 -28t79.5 -76v94h70v-479h-70v94q-67 -105 -190 -105q-101 0 -168.5 71t-67.5 179t68 179zM165 108q50 -53 125 -53t125.5 53.5t50.5 132.5q0 77 -50.5 129.5t-124.5 52.5q-75 0 -125.5 -52.5t-50.5 -131.5t50 -131z" />
    <glyph glyph-name="uni0432.loclBGR" horiz-adv-x="603" 
d="M434 371q60 -16 94 -61t34 -110q0 -96 -68.5 -153.5t-175.5 -57.5q-114 0 -183 63t-69 175v248q0 112 67.5 177t176.5 65q99 0 162.5 -53.5t63.5 -136.5q0 -55 -27.5 -96.5t-74.5 -59.5zM310 654q-77 0 -124.5 -49t-47.5 -128v-84h184q66 0 105 33t39 91q0 63 -43.5 100
t-112.5 37zM318 50q74 0 122.5 41.5t48.5 109.5q0 62 -42 98.5t-112 36.5h-197v-106q0 -81 47.5 -130.5t132.5 -49.5z" />
    <glyph glyph-name="uni0433.loclBGR" horiz-adv-x="495" 
d="M236 -11q-95 0 -147 34.5t-52 101.5q0 50 32.5 84.5t87.5 45.5l131 27q25 5 39.5 10.5t29.5 20.5t15 38q0 75 -131 75q-91 0 -177 -28l-8 62q94 29 192 29q99 0 151 -35.5t52 -100.5q0 -58 -38 -85t-100 -39l-130 -26q-31 -7 -49 -27t-18 -46q0 -78 121 -78q101 0 206 43
l8 -62q-110 -44 -215 -44z" />
    <glyph glyph-name="uni0434.loclBGR" horiz-adv-x="615" 
d="M110 418q67 70 168 70q124 0 189 -100v91h72v-450q0 -118 -68 -180.5t-193 -62.5q-107 0 -193 49v70q83 -55 188 -55q93 0 143.5 46.5t50.5 133.5v69q-30 -47 -79.5 -74.5t-110.5 -27.5q-101 0 -168 69.5t-67 175.5t68 176zM116 240q0 -76 49.5 -126.5t124.5 -50.5
q76 0 125.5 51t49.5 129t-49.5 129t-124.5 51q-76 0 -125.5 -52t-49.5 -131z" />
    <glyph glyph-name="uni0436.loclBGR" horiz-adv-x="764" 
d="M487 235l267 -235h-97l-241 214v-214h-69v213l-240 -213h-98l270 233l-261 246h89l240 -229v229h69v-231l240 231h89z" />
    <glyph glyph-name="uni0437.loclBGR" horiz-adv-x="518" 
d="M359 154q59 -17 91.5 -60t32.5 -104q0 -92 -69.5 -148t-182.5 -56q-121 0 -205 48v65q36 -19 94.5 -33.5t109.5 -14.5q81 0 130.5 38t49.5 101q0 59 -43 91.5t-116 32.5h-148v61h140q63 0 104 34.5t41 89.5t-43 90t-115 35q-96 0 -187 -48v63q85 50 194 50
q102 0 162 -50.5t60 -129.5q0 -53 -27 -94t-73 -61z" />
    <glyph glyph-name="uni0438.loclBGR" horiz-adv-x="592" 
d="M142 479v-272q0 -66 40 -108.5t100 -42.5q66 0 113 50t47 125v248h73v-479h-71v91q-30 -51 -78 -76t-102 -25q-87 0 -141 58t-54 152v279h73z" />
    <glyph glyph-name="uni0439.loclBGR" horiz-adv-x="592" 
d="M142 479v-272q0 -66 40 -108.5t100 -42.5q66 0 113 50t47 125v248h73v-479h-71v91q-30 -51 -78 -76t-102 -25q-87 0 -141 58t-54 152v279h73zM143 677h61q1 -49 24 -72.5t63 -23.5q86 0 89 96h62q-2 -65 -42 -103q-41 -38 -109 -38t-107.5 38t-40.5 103z" />
    <glyph glyph-name="uni043A.loclBGR" horiz-adv-x="514" 
d="M150 701v-445l255 223h91l-274 -238l283 -241h-99l-256 219v-219h-72v701h72z" />
    <glyph glyph-name="uni043B.loclBGR" horiz-adv-x="547" 
d="M100 0h-84l213 479h91l211 -479h-85l-171 404z" />
    <glyph glyph-name="uni043F.loclBGR" horiz-adv-x="592" 
d="M149 479v-90q30 50 77.5 74.5t99.5 24.5q86 0 141.5 -57t55.5 -144v-287h-73v271q0 65 -40.5 108t-100.5 43q-67 0 -112 -52t-45 -130v-240h-74v479h71z" />
    <glyph glyph-name="uni0442.loclBGR" horiz-adv-x="917" 
d="M149 479v-82q26 42 71 66.5t96 24.5q54 0 97.5 -27t64.5 -73q26 45 75 72.5t106 27.5q85 0 137.5 -53t52.5 -138v-297h-74v285q0 62 -36 99.5t-93 37.5q-63 0 -104.5 -45t-41.5 -119v-258h-74v276q0 66 -33.5 106t-93.5 40q-63 0 -105 -45.5t-42 -120.5v-256h-74v479h71z
" />
    <glyph glyph-name="uni0446.loclBGR" horiz-adv-x="635" 
d="M586 56h47v-183h-70v116h-12q-44 0 -70.5 28.5t-27.5 80.5q-28 -55 -78.5 -82t-107.5 -27q-87 0 -142.5 58.5t-55.5 152.5v279h75v-272q0 -66 39 -109t100 -43q66 0 112.5 48t46.5 120v256h75v-339q0 -84 69 -84z" />
    <glyph glyph-name="uni0448.loclBGR" horiz-adv-x="963" 
d="M903 56q29 0 56 13v-64q-31 -16 -70 -16q-41 0 -67.5 26t-31.5 76q-27 -49 -76 -75.5t-105 -26.5q-58 0 -103 31t-65 83q-25 -54 -74 -84t-106 -30q-85 0 -138.5 58.5t-53.5 152.5v279h75v-272q0 -68 36.5 -110t95.5 -42q62 0 105 46t43 116v262h76v-285
q0 -60 35.5 -99.5t92.5 -39.5q63 0 107.5 46.5t44.5 115.5v262h76v-350q0 -73 47 -73z" />
    <glyph glyph-name="uni0449.loclBGR" horiz-adv-x="974" 
d="M925 56h47v-183h-71v116h-11q-44 0 -70.5 28.5t-27.5 80.5q-26 -52 -75 -80.5t-106 -28.5q-59 0 -104.5 30.5t-65.5 83.5q-24 -54 -73 -84t-107 -30q-84 0 -138 58.5t-54 152.5v279h75v-272q0 -68 36 -110t95 -42q63 0 106 46t43 116v262h76v-285q0 -61 35 -100t92 -39
q64 0 108.5 46.5t44.5 115.5v262h76v-339q0 -84 69 -84z" />
    <glyph glyph-name="uni044C.loclBGR" horiz-adv-x="579" 
d="M314 419q96 0 160 -61.5t64 -152.5q0 -94 -68.5 -155t-168.5 -61q-103 0 -168.5 62.5t-65.5 159.5v268h71v-143q59 83 176 83zM303 49q69 0 116 44.5t47 110.5q0 67 -47 111.5t-117 44.5t-117 -44.5t-47 -110.5t47.5 -111t117.5 -45z" />
    <glyph glyph-name="uni044A.loclBGR" horiz-adv-x="662" 
d="M396 419q96 0 160 -61.5t64 -152.5q0 -94 -68.5 -155t-168.5 -61q-102 0 -168 62.5t-66 159.5v200h-134v68h205v-144q59 84 176 84zM385 49q70 0 117 44t47 111t-47 111.5t-118 44.5q-70 0 -117 -44.5t-47 -110.5t47.5 -111t117.5 -45z" />
    <glyph glyph-name="uni044E.loclBGR" horiz-adv-x="786" 
d="M78 701h74v-428h90q12 95 81 155.5t169 60.5q109 0 181 -71.5t72 -178.5q0 -108 -72.5 -179t-180.5 -71q-100 0 -169.5 61t-80.5 157h-90v-207h-74v701zM364 108q51 -53 128 -53t128.5 53t51.5 131q0 79 -51.5 131.5t-128.5 52.5t-128.5 -52.5t-51.5 -131.5t52 -131z" />
    <glyph glyph-name="uni0431.loclSRB" horiz-adv-x="584" 
d="M312 462q107 -15 168.5 -73.5t61.5 -156.5q0 -108 -70.5 -175.5t-180.5 -67.5t-180 66.5t-70 168.5q0 73 36.5 129t99.5 82q-54 15 -83.5 49.5t-29.5 82.5q0 60 44 98t117 38q18 0 64.5 -4.5t69.5 -4.5q66 0 143 26l7 -67q-62 -22 -129 -22q-26 0 -71 5t-63 5
q-48 0 -76 -22t-28 -59q0 -18 5.5 -32t19 -24t23.5 -16t32 -11t30 -7t33 -5t27 -3zM290 55q76 0 125.5 48.5t49.5 122.5t-49.5 122t-125.5 48q-75 0 -124 -48t-49 -122t49.5 -122.5t123.5 -48.5z" />
    <glyph glyph-name="uni0430.loclBGR.ss09" horiz-adv-x="642" 
d="M109 418q67 70 169 70q120 0 187 -100v91h69v-358q0 -67 44 -67q29 0 54 13v-62q-31 -16 -62 -16q-48 0 -74 30t-26 78v2q-30 -51 -80.5 -80.5t-114.5 -29.5q-101 0 -167.5 71.5t-66.5 180.5q0 107 68 177zM115 240q0 -79 50 -132t125 -53q74 0 124.5 53.5t50.5 132.5
q0 77 -50.5 129.5t-124.5 52.5q-75 0 -125 -52t-50 -131z" />
    <glyph glyph-name="uni0438.loclBGR.ss09" horiz-adv-x="624" 
d="M144 479v-272q0 -66 40 -109t101 -43q65 0 111 49.5t46 124.5v250h75v-357q0 -66 44 -66q28 0 54 13v-64q-31 -16 -63 -16q-46 0 -73 29.5t-28 76.5q-30 -54 -79.5 -80t-104.5 -26q-88 0 -143 58.5t-55 152.5v279h75z" />
    <glyph glyph-name="uni0439.loclBGR.ss09" horiz-adv-x="624" 
d="M144 479v-272q0 -66 40 -109t101 -43q65 0 111 49.5t46 124.5v250h75v-357q0 -66 50 -66q28 0 54 13v-64q-31 -16 -69 -16q-46 0 -73 29.5t-28 76.5q-30 -54 -79.5 -80t-104.5 -26q-88 0 -143 58.5t-55 152.5v279h75zM202 677q1 -41 25.5 -66t64.5 -25t64 25t24 66h61
q-1 -63 -41 -100q-41 -38 -108 -38t-108 37.5t-42 100.5h60z" />
    <glyph glyph-name="zero.zero" horiz-adv-x="629" 
d="M316 680q116 0 189.5 -96t73.5 -250t-74 -249.5t-189 -95.5q-116 0 -190.5 95.5t-74.5 249.5t74.5 250t190.5 96zM118 334q0 -128 57 -207l260 438q-49 54 -119 54q-86 0 -142 -79.5t-56 -205.5zM316 50q85 0 140 79t55 205q0 120 -50 199l-259 -436q50 -47 114 -47z" />
    <glyph glyph-name="zero.lf" horiz-adv-x="634" 
d="M318 -11q-118 0 -192.5 95.5t-74.5 249.5t74.5 250t192.5 96q116 0 190.5 -96t74.5 -250t-74.5 -249.5t-190.5 -95.5zM318 58q83 0 136.5 76.5t53.5 199.5q0 124 -53.5 200.5t-136.5 76.5q-84 0 -138 -77t-54 -200t54 -199.5t138 -76.5z" />
    <glyph glyph-name="one.lf" horiz-adv-x="367" 
d="M20 614l197 55h51v-669h-74v596l-174 -47v65z" />
    <glyph glyph-name="two.lf" horiz-adv-x="550" 
d="M312 209l-163 -145h357v-65h-460v58l228 211q6 6 35 31.5t41.5 38.5t32 37t28 47.5t8.5 49.5q0 62 -42.5 103t-107.5 41t-107.5 -45t-47.5 -117l-69 9q5 98 68.5 157.5t158.5 59.5q97 0 158.5 -58.5t61.5 -145.5q0 -17 -3.5 -34.5t-8 -32t-14.5 -31.5t-16.5 -28.5
t-21.5 -28.5t-22 -25t-24.5 -24.5t-23.5 -22t-24.5 -21.5t-21.5 -19z" />
    <glyph glyph-name="three.lf" horiz-adv-x="563" 
d="M304 422q94 0 154.5 -58.5t60.5 -149.5q0 -97 -69 -161t-175 -64q-95 0 -162.5 53t-82.5 143l68 15q11 -67 60.5 -107.5t117.5 -40.5q71 0 120 47t49 117q0 67 -46 112t-118 45q-64 0 -120 -39l-32 44l263 226h-319v64h411v-59l-219 -191q24 4 39 4z" />
    <glyph glyph-name="four.lf" horiz-adv-x="582" 
d="M457 233h91v-63h-91v-170h-73v170h-363v58l341 441h95v-436zM384 603l-278 -370h278v370z" />
    <glyph glyph-name="five.lf" horiz-adv-x="567" 
d="M299 432q99 0 163 -61.5t64 -157.5t-68.5 -160t-174.5 -64q-94 0 -162 52t-84 140l68 17q12 -67 62 -106.5t116 -39.5q71 0 120 47t49 118q0 70 -47 114.5t-121 44.5q-88 0 -158 -74l-59 30l43 337h377v-64h-318l-31 -232q70 59 161 59z" />
    <glyph glyph-name="six.lf" horiz-adv-x="563" 
d="M300 445q97 0 164 -64t67 -160q0 -101 -70.5 -166.5t-176.5 -65.5t-176.5 67t-70.5 167q0 102 83 209l181 237h86l-193 -250q47 26 106 26zM282 50q73 0 123.5 48.5t50.5 121.5t-50.5 121.5t-123.5 48.5q-74 0 -123 -47.5t-49 -120.5t49.5 -122.5t122.5 -49.5z" />
    <glyph glyph-name="seven.lf" horiz-adv-x="480" 
d="M27 604v65h434v-62l-315 -607h-86l320 604h-353z" />
    <glyph glyph-name="eight.lf" horiz-adv-x="622" 
d="M430 353q67 -19 105.5 -64.5t38.5 -104.5q0 -86 -73 -140.5t-190 -54.5q-116 0 -189.5 54t-73.5 139q0 61 38.5 106t106.5 64q-54 18 -86.5 57.5t-32.5 91.5q0 77 67 128t169 51q103 0 170.5 -51t67.5 -128q0 -51 -32 -90.5t-86 -57.5zM145 496q0 -53 46 -88t116 -35
q72 0 121 36t49 89t-47.5 88t-118.5 35t-118.5 -36t-47.5 -89zM311 50q80 0 132 38.5t52 99.5q0 59 -51.5 96.5t-131.5 37.5q-81 0 -133 -38t-52 -98q0 -59 51.5 -97.5t132.5 -38.5z" />
    <glyph glyph-name="nine.lf" horiz-adv-x="562" 
d="M277 680q107 0 177.5 -67.5t70.5 -167.5q0 -44 -17.5 -90t-32.5 -68t-44 -61l-171 -226h-85l187 246q-45 -22 -99 -22q-99 0 -165.5 64t-66.5 160q0 100 70.5 166t175.5 66zM279 279q73 0 122 47.5t49 120.5t-49.5 122t-123.5 49q-72 0 -122.5 -48t-50.5 -121
t50.5 -121.5t124.5 -48.5z" />
    <glyph glyph-name="zero.osf" horiz-adv-x="608" 
d="M304 -11q-109 0 -182.5 80.5t-73.5 200.5q0 121 73.5 202t182.5 81t182.5 -81t73.5 -202q0 -120 -73.5 -200.5t-182.5 -80.5zM304 55q77 0 129.5 62t52.5 153q0 92 -52.5 153.5t-129.5 61.5t-129 -61t-52 -154q0 -92 52 -153.5t129 -61.5z" />
    <glyph glyph-name="one.osf" horiz-adv-x="360" 
d="M28 480l188 61h56v-541h-74v461l-170 -53v72z" />
    <glyph glyph-name="two.osf" horiz-adv-x="509" 
d="M299 178l-148 -115h315v-63h-421v58l208 166q3 3 25.5 20.5t30.5 24t25.5 23.5t24.5 29t14 29t7 34q0 46 -35.5 76.5t-90.5 30.5q-56 0 -94 -36t-42 -93l-71 9q5 82 64 132t146 50q86 0 141.5 -48t55.5 -119q0 -18 -5 -36t-11 -32t-19.5 -31t-21.5 -26.5t-26.5 -25.5
t-24.5 -21t-26 -20t-21 -16z" />
    <glyph glyph-name="three.osf" horiz-adv-x="536" 
d="M292 299q87 0 144 -56t57 -140q0 -93 -65 -154.5t-165 -61.5q-90 0 -154.5 51t-77.5 137l69 15q10 -63 55.5 -100.5t108.5 -37.5q65 0 110 44t45 109q0 60 -42.5 102t-108.5 42q-60 0 -111 -37l-32 45l243 220h-297v64h390v-60l-205 -186q15 4 36 4z" />
    <glyph glyph-name="four.osf" horiz-adv-x="560" 
d="M444 125h84v-58h-84v-167h-72v167h-341v49l324 426h89v-417zM372 470l-258 -345h258v345z" />
    <glyph glyph-name="five.osf" horiz-adv-x="538" 
d="M283 309q93 0 153.5 -59t60.5 -149q0 -91 -65 -152.5t-165 -61.5q-88 0 -152.5 49.5t-79.5 134.5l68 17q12 -62 57.5 -99t106.5 -37q65 0 110.5 44t45.5 111q0 63 -43.5 104.5t-111.5 41.5q-82 0 -146 -70l-59 30l42 328h355v-64h-298l-27 -222q63 54 148 54z" />
    <glyph glyph-name="six.osf" horiz-adv-x="550" 
d="M300 425q93 0 157.5 -62t64.5 -152q0 -96 -69 -158.5t-170 -62.5q-103 0 -171 64t-68 159q0 97 80 200l174 225h85l-187 -239q46 26 104 26zM282 50q69 0 117.5 45.5t48.5 114.5q0 68 -48.5 113t-118.5 45t-117 -44.5t-47 -111.5q0 -68 47.5 -115t117.5 -47z" />
    <glyph glyph-name="seven.osf" horiz-adv-x="467" 
d="M33 474v67h408v-62l-288 -589h-85l293 584h-328z" />
    <glyph glyph-name="eight.osf" horiz-adv-x="573" 
d="M394 336q61 -18 96.5 -62t35.5 -100q0 -81 -67 -133.5t-172 -52.5t-172.5 52t-67.5 133q0 57 36.5 101t97.5 61q-50 17 -80 55t-30 86q0 73 61.5 122t153.5 49t154.5 -49t62.5 -122q0 -48 -29.5 -85.5t-79.5 -54.5zM141 471q0 -49 41 -82.5t101 -33.5q64 0 106.5 34
t42.5 84q0 49 -42.5 82.5t-102.5 33.5q-61 0 -103.5 -34t-42.5 -84zM287 48q69 0 115 37t46 92t-46 90.5t-115 35.5q-70 0 -116 -35.5t-46 -91.5q0 -55 46 -91.5t116 -36.5z" />
    <glyph glyph-name="nine.osf" horiz-adv-x="550" 
d="M268 552q103 0 171.5 -64t68.5 -159q0 -42 -17 -86.5t-33 -68.5t-42 -58l-166 -216h-88l184 237q-42 -19 -93 -19q-95 0 -160 61t-65 153q0 94 69 157t171 63zM270 174q69 0 116.5 44.5t47.5 111.5t-48 113.5t-117 46.5t-118 -45.5t-49 -112.5q0 -68 49 -113t119 -45z
" />
    <glyph glyph-name="one.osf.salt" horiz-adv-x="346" 
d="M29 474v67h229v-541h-74v474h-155z" />
    <glyph glyph-name="zero.osf.zero" horiz-adv-x="604" 
d="M302 553q108 0 181 -81.5t73 -201.5t-73 -200.5t-181 -80.5t-181 80.5t-73 200.5t73.5 201.5t180.5 81.5zM115 270q0 -100 60 -165l222 358q-44 28 -95 28q-80 0 -133.5 -63t-53.5 -158zM302 49q80 0 134.5 64t54.5 157q0 101 -62 166l-222 -358q41 -29 95 -29z" />
    <glyph glyph-name="zero.tf" 
d="M294 -11q-117 0 -188 95t-71 250q0 156 71 251t188 95q115 0 186 -95.5t71 -250.5t-71 -250t-186 -95zM294 58q82 0 132 75.5t50 200.5t-50 201t-132 76q-83 0 -133.5 -76t-50.5 -201q0 -124 50.5 -200t133.5 -76z" />
    <glyph glyph-name="one.tf" 
d="M346 669v-605h189v-65h-458v65h195v533l-188 -48v65l211 55h51z" />
    <glyph glyph-name="two.tf" 
d="M329 209l-163 -145h357v-65h-460v58l229 211q5 4 35 30.5t41 39t31.5 37t28.5 48t8 49.5q0 62 -42 103t-107 41t-108 -45t-48 -117l-69 9q5 98 68.5 157.5t159.5 59.5q97 0 158.5 -58.5t61.5 -145.5q0 -19 -3.5 -37.5t-12 -37t-15 -32.5t-22.5 -33t-23.5 -28.5
t-27.5 -28.5t-25.5 -24.5t-27.5 -24.5t-24 -21z" />
    <glyph glyph-name="three.tf" 
d="M318 422q93 0 154 -58.5t61 -149.5q0 -97 -69.5 -161t-175.5 -64q-94 0 -162 53t-83 143l68 15q11 -67 60.5 -107.5t117.5 -40.5q71 0 120 47t49 117q0 67 -46 112t-117 45q-64 0 -120 -39l-33 44l264 226h-320v64h412v-59l-221 -192q20 5 41 5z" />
    <glyph glyph-name="four.tf" 
d="M465 233h91v-63h-91v-170h-73v170h-363v58l342 441h94v-436zM392 601l-277 -368h277v368z" />
    <glyph glyph-name="five.tf" 
d="M307 432q99 0 163 -61.5t64 -157.5t-68.5 -160t-174.5 -64q-94 0 -162 52t-84 140l69 17q12 -67 61.5 -106.5t115.5 -39.5q71 0 120 47t49 118q0 70 -47 114.5t-121 44.5q-89 0 -157 -74l-59 30l43 337h376v-64h-317l-32 -232q70 59 161 59z" />
    <glyph glyph-name="six.tf" 
d="M309 445q98 0 165 -64t67 -160q0 -100 -71 -166t-176 -66q-107 0 -177.5 67t-70.5 167q0 102 83 209l181 237h87l-194 -250q47 26 106 26zM292 50q73 0 123.5 48.5t50.5 121.5t-51 121.5t-125 48.5q-72 0 -121.5 -48t-49.5 -120q0 -73 50 -122.5t123 -49.5z" />
    <glyph glyph-name="seven.tf" 
d="M75 604v65h434v-62l-315 -607h-86l321 604h-354z" />
    <glyph glyph-name="eight.tf" 
d="M411 353q67 -19 105.5 -64.5t38.5 -104.5q0 -86 -73 -140.5t-190 -54.5q-115 0 -188.5 54t-73.5 139q0 61 39 106.5t106 63.5q-55 18 -87.5 57.5t-32.5 91.5q0 77 67 128t169 51q103 0 170.5 -51t67.5 -128q0 -51 -32 -90.5t-86 -57.5zM126 496q0 -53 46.5 -88t116.5 -35
q73 0 121 36t48 89t-47.5 88t-118.5 35t-118.5 -36t-47.5 -89zM292 50q80 0 132.5 38.5t52.5 99.5q0 59 -51.5 96.5t-132.5 37.5t-133 -38t-52 -98q0 -59 51.5 -97.5t132.5 -38.5z" />
    <glyph glyph-name="nine.tf" 
d="M291 680q107 0 177.5 -67.5t70.5 -167.5q0 -43 -17 -88.5t-33 -69.5t-44 -61l-170 -226h-86l187 245q-46 -21 -99 -21q-98 0 -165 64t-67 160q0 100 70.5 166t175.5 66zM294 279q73 0 121.5 47.5t48.5 120.5t-49.5 122t-122.5 49t-123 -48t-50 -121t50.5 -121.5
t124.5 -48.5z" />
    <glyph glyph-name="zero.tf.zero" 
d="M294 680q115 0 185 -95.5t70 -250.5t-70 -250t-185 -95t-186 95t-71 250t71 250.5t186 95.5zM294 619q-85 0 -137.5 -78.5t-52.5 -206.5q0 -124 51 -204l257 433q-48 56 -118 56zM294 50q84 0 135.5 78t51.5 206q0 119 -45 195l-255 -431q46 -48 113 -48z" />
    <glyph glyph-name="zero.tosf" horiz-adv-x="561" 
d="M280 -11q-108 0 -177.5 80t-69.5 201t70 202t177 81q109 0 179 -80.5t70 -202.5q0 -121 -70 -201t-179 -80zM280 55q77 0 126 61t49 154t-49 154t-126 61q-75 0 -123.5 -61t-48.5 -154t48.5 -154t123.5 -61z" />
    <glyph glyph-name="one.tosf" horiz-adv-x="561" 
d="M346 541v-478h169v-63h-420v63h178v398l-173 -53v71l191 62h55z" />
    <glyph glyph-name="two.tosf" horiz-adv-x="561" 
d="M324 178l-148 -115h314v-63h-420v58l208 166q5 4 22 17t25 20t23 20t23 23.5t17 24t13 27.5t4 28q0 46 -35.5 76.5t-90.5 30.5q-56 0 -94 -36t-42 -93l-71 9q5 82 63.5 132t146.5 50q86 0 141.5 -48t55.5 -119q0 -18 -5 -36t-11 -32t-19.5 -31t-21.5 -26.5t-26.5 -25.5
t-24.5 -21t-26 -20t-21 -16z" />
    <glyph glyph-name="three.tosf" horiz-adv-x="561" 
d="M307 299q87 0 144 -56t57 -140q0 -93 -65.5 -154.5t-165.5 -61.5q-90 0 -154 51t-77 137l68 15q10 -63 56 -100.5t108 -37.5q66 0 111 43.5t45 109.5q0 60 -42.5 102t-109.5 42q-59 0 -110 -37l-33 45l244 220h-298v64h390v-60l-204 -186q15 4 36 4z" />
    <glyph glyph-name="four.tosf" horiz-adv-x="561" 
d="M445 125h85v-58h-85v-167h-72v167h-341v49l325 426h88v-417zM373 470l-258 -345h258v345z" />
    <glyph glyph-name="five.tosf" horiz-adv-x="561" 
d="M295 309q93 0 153.5 -59t60.5 -149q0 -91 -64.5 -152.5t-164.5 -61.5q-88 0 -153 49.5t-80 134.5l68 17q12 -62 58 -99t106 -37q66 0 111 44t45 111q0 63 -43 104.5t-112 41.5q-82 0 -146 -70l-59 30l43 328h355v-64h-299l-27 -222q63 54 148 54z" />
    <glyph glyph-name="six.tosf" horiz-adv-x="561" 
d="M298 425q93 0 158 -62t65 -152q0 -96 -69 -158.5t-170 -62.5q-103 0 -171.5 64t-68.5 159q0 99 80 200l174 225h86l-187 -239q46 26 103 26zM280 50q69 0 118 45.5t49 114.5q0 67 -49 112.5t-119 45.5q-69 0 -116.5 -45t-47.5 -111q0 -68 48 -115t117 -47z" />
    <glyph glyph-name="seven.tosf" horiz-adv-x="561" 
d="M76 474v67h408v-62l-288 -589h-84l292 584h-328z" />
    <glyph glyph-name="eight.tosf" horiz-adv-x="561" 
d="M388 335q61 -17 96.5 -61t35.5 -100q0 -81 -67 -133.5t-172 -52.5q-106 0 -173 52t-67 133q0 58 36 101.5t98 60.5q-50 17 -80 55t-30 86q0 73 61.5 122t153.5 49q93 0 154.5 -48.5t61.5 -122.5q0 -48 -29 -85.5t-79 -55.5zM135 471q0 -49 41.5 -82.5t101.5 -33.5
q63 0 105.5 34t42.5 84q0 49 -42 82.5t-103 33.5t-103.5 -34t-42.5 -84zM281 48q70 0 115.5 36.5t45.5 92.5q0 55 -45.5 90.5t-115.5 35.5t-116 -35.5t-46 -91.5q0 -55 45.5 -91.5t116.5 -36.5z" />
    <glyph glyph-name="nine.tosf" horiz-adv-x="561" 
d="M280 552q104 0 172.5 -63.5t68.5 -159.5q0 -42 -16.5 -86t-32.5 -68t-43 -59l-167 -216h-88l184 236q-44 -18 -93 -18q-95 0 -160 61t-65 153q0 94 69 157t171 63zM283 174q69 0 116.5 44.5t47.5 111.5t-48 113.5t-117 46.5t-118 -45.5t-49 -112.5q0 -68 49 -113t119 -45
z" />
    <glyph glyph-name="zero.tosf.zero" horiz-adv-x="561" 
d="M280 553q108 0 179.5 -81t71.5 -202q0 -120 -71.5 -200.5t-179.5 -80.5t-178.5 80.5t-70.5 200.5t71 201.5t178 81.5zM98 270q0 -99 56 -163l220 355q-41 29 -94 29q-79 0 -130.5 -63t-51.5 -158zM280 49q80 0 132.5 63.5t52.5 157.5q0 100 -58 164l-221 -356
q44 -29 94 -29z" />
    <glyph glyph-name="zero.dnom" horiz-adv-x="408" 
d="M204 -4q-74 0 -123 53t-49 133q0 79 49.5 132t122.5 53t121.5 -53t48.5 -132q0 -80 -48.5 -133t-121.5 -53zM204 38q53 0 88.5 41.5t35.5 102.5t-35.5 101.5t-88.5 40.5t-89 -40.5t-36 -101.5t36 -102.5t89 -41.5z" />
    <glyph glyph-name="one.dnom" horiz-adv-x="329" 
d="M201 362v-318h111v-43h-280v43h118v261l-114 -45v48l128 54h37z" />
    <glyph glyph-name="two.dnom" horiz-adv-x="345" 
d="M206 117l-93 -72h202v-44h-281v38l134 109q4 4 20.5 16t24 19t18.5 19t15.5 24.5t4.5 26.5q0 30 -22 49.5t-58 19.5q-38 0 -63 -24.5t-28 -63.5l-51 6q4 59 44 93t99 34q60 0 96.5 -31.5t36.5 -80.5q0 -30 -19.5 -60t-34.5 -42.5t-45 -35.5z" />
    <glyph glyph-name="three.dnom" horiz-adv-x="346" 
d="M192 229q53 0 89.5 -31.5t36.5 -79.5q0 -53 -42 -88t-107 -35q-57 0 -98 28.5t-48 76.5l45 13q6 -32 34.5 -53.5t66.5 -21.5q41 0 69 23t28 59q0 33 -26.5 56t-67.5 23q-33 0 -70 -20l-20 28l151 112h-187v43h251v-42l-123 -92q6 1 18 1z" />
    <glyph glyph-name="four.dnom" horiz-adv-x="355" 
d="M279 128h53v-39h-53v-88h-50v88h-210v35l183 236h77v-232zM229 327l-150 -199h150v199z" />
    <glyph glyph-name="five.dnom" horiz-adv-x="333" 
d="M175 238q58 0 94.5 -33.5t36.5 -85.5q0 -53 -39 -88.5t-101 -35.5q-54 0 -93 28t-49 77l46 11q7 -33 33.5 -53t61.5 -20q38 0 64 23t26 60q0 35 -24.5 58t-62.5 23q-50 0 -86 -41l-41 21l26 180h218v-42h-180l-15 -109q38 27 85 27z" />
    <glyph glyph-name="six.dnom" horiz-adv-x="330" 
d="M177 242q55 0 92.5 -34.5t37.5 -86.5q0 -54 -40 -90t-100 -36t-100.5 36.5t-40.5 90.5q0 58 47 115l99 125h57l-105 -131q25 11 53 11zM166 35q38 0 65 24.5t27 60.5q0 37 -26.5 61t-66.5 24q-39 0 -65 -23.5t-26 -59.5q0 -37 26.5 -62t65.5 -25z" />
    <glyph glyph-name="seven.dnom" horiz-adv-x="288" 
d="M22 318v44h247v-41l-171 -320h-57l172 317h-191z" />
    <glyph glyph-name="eight.dnom" horiz-adv-x="352" 
d="M244 191q35 -10 56 -34t21 -56q0 -46 -40.5 -76t-104.5 -30t-104.5 29.5t-40.5 75.5q0 31 20.5 56t56.5 35q-28 11 -44.5 32t-16.5 47q0 42 36.5 69.5t92.5 27.5t93 -27.5t37 -69.5q0 -56 -62 -79zM176 330q-35 0 -59 -18t-24 -46q0 -27 23.5 -45t59.5 -18t60.5 18.5
t24.5 45.5t-24.5 45t-60.5 18zM176 33q41 0 67.5 20t26.5 51q0 29 -26.5 48.5t-66.5 19.5t-67.5 -20t-27.5 -49q0 -30 27 -50t67 -20z" />
    <glyph glyph-name="nine.dnom" horiz-adv-x="325" 
d="M161 367q60 0 100 -36.5t40 -91.5q0 -25 -11 -51t-17.5 -35t-27.5 -37l-89 -115h-58l100 128q-24 -8 -47 -8q-54 0 -91 34.5t-37 85.5q0 54 39.5 90t98.5 36zM71 242q0 -36 26 -60.5t64 -24.5t63.5 24t25.5 60t-25.5 60.5t-63.5 24.5t-64 -24t-26 -60z" />
    <glyph glyph-name="zero.numr" horiz-adv-x="408" 
d="M204 310q-74 0 -123 52.5t-49 132.5q0 79 49 132t123 53q73 0 121.5 -52.5t48.5 -132.5t-48 -132.5t-122 -52.5zM204 351q52 0 88 41.5t36 102.5t-35.5 102t-88.5 41t-89 -41t-36 -102t36 -102.5t89 -41.5z" />
    <glyph glyph-name="one.numr" horiz-adv-x="329" 
d="M201 676v-317h111v-44h-280v44h118v261l-114 -46v48l128 54h37z" />
    <glyph glyph-name="two.numr" horiz-adv-x="345" 
d="M206 432l-94 -73h203v-44h-281v38l134 109q4 4 20.5 16t24 19t18.5 19t15.5 24.5t4.5 26.5q0 30 -22 49.5t-58 19.5q-38 0 -63 -24t-28 -64l-51 7q4 58 44 92.5t99 34.5q60 0 96.5 -32t36.5 -81q0 -10 -2 -19.5t-4.5 -17t-8 -16.5t-9.5 -15t-12 -14.5t-12 -12.5
t-13.5 -12t-12.5 -10.5t-13.5 -10.5t-11.5 -9z" />
    <glyph glyph-name="three.numr" horiz-adv-x="346" 
d="M192 543q53 0 89 -31t36 -80q0 -53 -42 -87.5t-106 -34.5q-58 0 -99 28.5t-48 75.5l45 13q6 -32 34.5 -53.5t67.5 -21.5q40 0 68 23t28 59q0 34 -26.5 57t-67.5 23q-32 0 -69 -21l-20 28l150 112h-186v43h251v-42l-125 -92q6 1 20 1z" />
    <glyph glyph-name="four.numr" horiz-adv-x="355" 
d="M279 442h54v-38h-54v-89h-50v89h-209v34l183 237h76v-233zM229 640l-149 -198h149v198z" />
    <glyph glyph-name="five.numr" horiz-adv-x="333" 
d="M175 553q58 0 94.5 -33.5t36.5 -86.5t-39 -88t-101 -35q-54 0 -93 28t-49 76l46 11q7 -33 33.5 -53t61.5 -20q38 0 64 23.5t26 59.5q0 35 -24.5 58t-62.5 23q-50 0 -86 -41l-41 21l26 180h218v-42h-180l-15 -108q38 27 85 27z" />
    <glyph glyph-name="six.numr" horiz-adv-x="330" 
d="M177 556q55 0 92.5 -34.5t37.5 -85.5q0 -55 -40 -90.5t-100 -35.5q-61 0 -101 36.5t-40 90.5q0 57 47 114l99 125h57l-106 -132q24 12 54 12zM166 349q38 0 65 24.5t27 60.5q0 37 -26.5 61.5t-66.5 24.5q-38 0 -64.5 -24t-26.5 -60q0 -37 26.5 -62t65.5 -25z" />
    <glyph glyph-name="seven.numr" horiz-adv-x="288" 
d="M22 632v44h247v-41l-171 -320h-57l172 317h-191z" />
    <glyph glyph-name="eight.numr" horiz-adv-x="352" 
d="M244 506q36 -11 56.5 -35t20.5 -56q0 -46 -40.5 -75.5t-104.5 -29.5t-104.5 29.5t-40.5 75.5q0 31 21 56t57 35q-29 10 -45.5 31t-16.5 47q0 43 36.5 70.5t92.5 27.5t93 -27.5t37 -70.5q0 -27 -16.5 -47.5t-45.5 -30.5zM176 645q-36 0 -59.5 -18.5t-23.5 -46.5
q0 -27 23.5 -45t59.5 -18t60.5 18.5t24.5 45.5q0 28 -24.5 46t-60.5 18zM176 347q40 0 67 20.5t27 50.5q0 29 -26.5 48.5t-66.5 19.5t-67.5 -19.5t-27.5 -49.5q0 -29 27 -49.5t67 -20.5z" />
    <glyph glyph-name="nine.numr" horiz-adv-x="325" 
d="M161 682q60 0 100 -37t40 -91q0 -9 -1 -17.5t-3.5 -17t-4 -14.5t-6.5 -15t-7 -12.5t-8.5 -13t-8 -11.5t-9.5 -13l-8 -10l-89 -115h-58l100 128q-24 -8 -47 -8q-54 0 -91 34.5t-37 85.5q0 55 39.5 91t98.5 36zM71 556q0 -36 26 -60.5t64 -24.5t63.5 24.5t25.5 59.5
q0 36 -25.5 61t-63.5 25t-64 -24.5t-26 -60.5z" />
    <glyph glyph-name="colon.case" horiz-adv-x="237" 
d="M119 433q-23 0 -38.5 15t-15.5 37t15.5 37.5t38.5 15.5t38 -15t15 -38q0 -22 -15 -37t-38 -15zM119 106q-22 0 -38 15.5t-16 37.5t15.5 37t38.5 15q22 0 37.5 -15t15.5 -37t-15.5 -37.5t-37.5 -15.5z" />
    <glyph glyph-name="semicolon.case" horiz-adv-x="223" 
d="M111 433q-23 0 -38.5 15t-15.5 37t15.5 37.5t38.5 15.5t38 -15t15 -38q0 -22 -15 -37t-38 -15zM110 212q25 0 42 -17.5t17 -46.5q0 -38 -29.5 -95t-66.5 -101l-21 15q48 76 64 142q-26 -4 -43.5 11.5t-17.5 37.5q0 23 16 38.5t39 15.5z" />
    <glyph glyph-name="exclamdown.case" horiz-adv-x="259" 
d="M131 682q21 0 35.5 -14.5t14.5 -35.5q0 -22 -14.5 -36.5t-35.5 -14.5q-22 0 -37 15t-15 36t15 35.5t37 14.5zM86 -33l8 547h72l9 -547h-89z" />
    <glyph glyph-name="questiondown.case" horiz-adv-x="514" 
d="M274 682q21 0 35 -14t14 -34t-14 -34t-35 -14q-20 0 -34 14t-14 34t14 34t34 14zM239 515h72v-62q0 -47 -20.5 -83t-49.5 -58.5t-58 -43.5t-49.5 -49.5t-20.5 -65.5q0 -62 45.5 -96t110.5 -34q111 0 163 93l57 -35q-31 -60 -91 -91t-132 -31q-99 0 -164 52t-65 139
q0 46 21 81.5t50.5 58.5t59 44.5t50.5 51.5t21 69v60z" />
    <glyph glyph-name="periodcentered.case" horiz-adv-x="228" 
d="M113 255q-21 0 -36 15t-15 36t15 35.5t36 14.5q22 0 37 -14.5t15 -35.5t-15 -36t-37 -15z" />
    <glyph glyph-name="questiondown.ss11.case" horiz-adv-x="519" 
d="M274 682q21 0 35 -14t14 -34t-14 -34t-35 -14q-20 0 -34 14t-14 34t14 34t34 14zM239 515h72v-62q0 -47 -20.5 -83.5t-49.5 -60t-58 -45.5t-49.5 -51.5t-20.5 -66.5q0 -57 42 -90t106 -33q26 0 50.5 7t49.5 23.5t42 50t21 80.5l67 -8q-1 -59 -23.5 -103t-58 -68
t-73.5 -35t-79 -11q-95 0 -157.5 51t-62.5 136q0 46 21 82.5t50.5 61t59 48t50.5 54t21 66.5v57z" />
    <glyph glyph-name="period.osf" horiz-adv-x="215" 
d="M108 -12q-22 0 -36.5 14.5t-14.5 34.5q0 22 14.5 37t36.5 15q21 0 35.5 -15t14.5 -37q0 -20 -14.5 -34.5t-35.5 -14.5z" />
    <glyph glyph-name="comma.osf" horiz-adv-x="206" 
d="M104 85q24 0 40 -16.5t16 -44.5q0 -36 -28 -91.5t-64 -97.5l-21 14q46 77 62 138q-2 0 -5 -0.5t-4 -0.5q-22 0 -36 14.5t-14 32.5q0 22 15.5 37t38.5 15z" />
    <glyph glyph-name="colon.osf" horiz-adv-x="225" 
d="M113 354q-21 0 -36 14.5t-15 36.5q0 21 15 35.5t36 14.5t36 -14.5t15 -35.5q0 -22 -15 -36.5t-36 -14.5zM113 -12q-21 0 -36 14.5t-15 34.5q0 22 15 37t36 15t36 -15t15 -37q0 -20 -15 -34.5t-36 -14.5z" />
    <glyph glyph-name="semicolon.osf" horiz-adv-x="233" 
d="M115 356q-22 0 -37.5 15t-15.5 37t15.5 37t37.5 15t37.5 -15t15.5 -37t-15.5 -37t-37.5 -15zM118 85q24 0 40 -17t16 -45q0 -36 -28 -91t-64 -98l-21 15q48 78 62 137q-1 0 -4 -0.5t-5 -0.5q-22 0 -36 14.5t-14 33.5q0 22 15.5 37t38.5 15z" />
    <glyph glyph-name="numbersign.osf" horiz-adv-x="655" 
d="M625 405l-11 -54h-111l-34 -158h122l-11 -55h-122l-30 -138h-71l31 138h-178l-30 -138h-70l31 138h-112l12 55h113l36 158h-125l12 54h125l31 136h65l-30 -136h180l31 136h65l-29 -136h110zM222 193h179l35 158h-179z" />
    <glyph glyph-name="comma.ss03" horiz-adv-x="194" 
d="M91 -193h-65l36 216h79z" />
    <glyph glyph-name="semicolon.ss03" horiz-adv-x="264" 
d="M138 360q-23 0 -39 15.5t-16 38.5q0 22 16 37.5t39 15.5t38.5 -15.5t15.5 -37.5q0 -23 -15.5 -38.5t-38.5 -15.5zM124 -193h-66l41 216h79z" />
    <glyph glyph-name="semicolon.case.ss03" horiz-adv-x="240" 
d="M115 434q-23 0 -38 15t-15 37t15 37.5t38 15.5t38 -15.5t15 -37.5t-15 -37t-38 -15zM94 -88h-66l41 216h79z" />
    <glyph glyph-name="question.ss11" horiz-adv-x="519" 
d="M279 155h-71v63q0 47 20.5 83t49.5 59.5t58 45.5t49.5 51.5t20.5 66.5q0 57 -42 90t-105 33q-27 0 -51.5 -7t-49.5 -23.5t-42 -50t-21 -80.5l-67 8q1 59 23 103t57.5 68t74 35t80.5 11q94 0 156 -51t62 -136q0 -46 -21 -82.5t-50.5 -61t-59 -48t-50.5 -54t-21 -66.5v-57z
M244 -12q-20 0 -34.5 14t-14.5 34q0 19 14.5 33.5t34.5 14.5t34.5 -14t14.5 -34t-14.5 -34t-34.5 -14z" />
    <glyph glyph-name="questiondown.ss11" horiz-adv-x="513" 
d="M272 509q20 0 34.5 -14t14.5 -34t-14.5 -34t-34.5 -14t-34 14t-14 34t14 34t34 14zM237 342h71v-62q0 -47 -20.5 -83.5t-49.5 -60t-58 -45.5t-49.5 -51.5t-20.5 -66.5q0 -57 42.5 -90t105.5 -33q60 0 108 36t56 125l66 -8q-1 -59 -23 -103t-57.5 -68t-74 -35t-79.5 -11
q-95 0 -157 51t-62 136q0 46 21 82.5t50.5 61t59 48t50.5 54t21 66.5v57z" />
    <glyph glyph-name="parenleft.case" horiz-adv-x="289" 
d="M273 -141h-71q-69 84 -111.5 208.5t-42.5 243.5q0 121 41 244t113 207h71q-152 -203 -152 -451q0 -233 152 -452z" />
    <glyph glyph-name="parenright.case" horiz-adv-x="289" 
d="M87 -141h-71q152 215 152 452q0 250 -152 451h71q73 -84 114 -207t41 -244q0 -119 -42.5 -243.5t-112.5 -208.5z" />
    <glyph glyph-name="braceleft.case" horiz-adv-x="353" 
d="M286 705q-101 0 -101 -113q0 -18 1 -27l8 -94q2 -30 2 -44q0 -54 -16.5 -79.5t-55.5 -35.5q39 -9 55.5 -34.5t16.5 -80.5q0 -14 -2 -44l-8 -94q-1 -9 -1 -26q0 -113 101 -113q13 0 43 2v-58q-27 -7 -60 -7q-46 0 -78.5 17t-48.5 45.5t-21.5 59t-3.5 64.5l8 107q2 30 2 40
q0 27 -5 45t-11.5 27.5t-22.5 15t-26.5 6.5t-35.5 3v50q30 2 43.5 4.5t29.5 11.5t22 29t6 53q0 10 -2 40l-8 106q-1 7 -1 20q0 69 35.5 117.5t117.5 48.5q31 0 60 -6v-58q-30 2 -43 2z" />
    <glyph glyph-name="braceright.case" horiz-adv-x="353" 
d="M235 581l-8 -106q-1 -13 -1 -35q0 -24 2.5 -41t10 -28t13 -17t21 -9.5t23.5 -4.5t30 -3v-50q-21 -1 -29.5 -2t-23.5 -4.5t-21 -9.5t-13.5 -17t-10 -28t-2.5 -41q0 -22 1 -35l8 -107q1 -8 1 -23q0 -68 -35.5 -115.5t-115.5 -47.5q-34 0 -61 7v58q30 -2 42 -2
q102 0 102 113q0 17 -1 26l-8 94q-2 18 -2 47q0 53 17 78t55 34q-38 10 -55 35t-17 77q0 15 2 47l8 94q1 9 1 26q0 114 -102 114q-12 0 -42 -2v58q29 6 61 6q46 0 78.5 -17t47.5 -45.5t20.5 -59t3.5 -64.5z" />
    <glyph glyph-name="bracketleft.case" horiz-adv-x="346" 
d="M325 -137h-234v899h234v-65h-163v-769h163v-65z" />
    <glyph glyph-name="bracketright.case" horiz-adv-x="346" 
d="M255 762v-899h-234v65h162v769h-162v65h234z" />
    <glyph glyph-name="hyphen.case" horiz-adv-x="484" 
d="M418 284h-351v65h351v-65z" />
    <glyph glyph-name="endash.case" horiz-adv-x="625" 
d="M559 284h-492v65h492v-65z" />
    <glyph glyph-name="emdash.case" horiz-adv-x="931" 
d="M865 284h-798v65h798v-65z" />
    <glyph glyph-name="guillemotleft.case" horiz-adv-x="523" 
d="M271 98h-84l-141 224l149 221h85l-150 -222zM463 98h-84l-140 224l148 221h85l-151 -222z" />
    <glyph glyph-name="guillemotright.case" horiz-adv-x="524" 
d="M285 322l-140 -224h-84l141 223l-150 222h84zM478 322l-140 -224h-86l142 223l-150 222h85z" />
    <glyph glyph-name="guilsinglleft.case" horiz-adv-x="333" 
d="M272 96h-85l-142 223l151 223h85l-152 -224z" />
    <glyph glyph-name="guilsinglright.case" horiz-adv-x="334" 
d="M288 319l-142 -223h-85l143 222l-151 224h84z" />
    <glyph glyph-name="quotesingle.ss05" horiz-adv-x="227" 
d="M122 737q27 0 49 -21t22 -57q0 -49 -38 -96.5t-88 -81.5l-17 22q69 57 69 98q0 12 -9.5 19.5t-21 11.5t-21 15t-9.5 29q0 28 19.5 44.5t44.5 16.5z" />
    <glyph glyph-name="quotesinglbase.ss10" horiz-adv-x="223" 
d="M108 92q27 0 49 -21t22 -57q0 -88 -125 -178l-17 21q68 59 68 99q0 12 -9.5 19.5t-21 11.5t-21 15t-9.5 30q0 27 20 43.5t44 16.5z" />
    <glyph glyph-name="quotedblbase.ss10" horiz-adv-x="399" 
d="M108 92q27 0 49 -21t22 -57q0 -88 -125 -178l-17 21q68 59 68 99q0 12 -9.5 19.5t-21 11.5t-21 15t-9.5 30q0 27 20 43.5t44 16.5zM285 92q27 0 49 -21t22 -57q0 -49 -38 -95.5t-88 -82.5l-17 21q68 59 68 99q0 12 -9.5 19.5t-20.5 11.5t-20.5 15t-9.5 30q0 27 19.5 43.5
t44.5 16.5z" />
    <glyph glyph-name="quotedblleft.ss10" horiz-adv-x="403" 
d="M112 486q-27 0 -49 20.5t-22 56.5q0 88 125 178l17 -22q-68 -56 -68 -98q0 -12 9.5 -19.5t21 -11t21 -14.5t9.5 -30q0 -27 -19.5 -43.5t-44.5 -16.5zM288 486q-27 0 -49 20.5t-22 56.5q0 87 125 178l18 -22q-69 -57 -69 -98q0 -12 9.5 -19.5t21 -11t21 -14.5t9.5 -30
q0 -27 -19.5 -43.5t-44.5 -16.5z" />
    <glyph glyph-name="quotedblright.ss10" horiz-adv-x="403" 
d="M122 737q27 0 49 -21t22 -57q0 -49 -38 -96.5t-88 -81.5l-17 22q69 57 69 98q0 12 -9.5 19.5t-21 11.5t-21 15t-9.5 29q0 28 19.5 44.5t44.5 16.5zM297 737q27 0 49 -21t22 -57q0 -49 -38 -96.5t-87 -81.5l-17 22q68 59 68 98q0 12 -9.5 19.5t-21 11.5t-21 15t-9.5 29
q0 28 19.5 44.5t44.5 16.5z" />
    <glyph glyph-name="quoteleft.ss10" horiz-adv-x="226" 
d="M112 486q-27 0 -49 20.5t-22 56.5q0 88 125 178l17 -22q-68 -56 -68 -98q0 -12 9.5 -19.5t21 -11t21 -14.5t9.5 -30q0 -27 -19.5 -43.5t-44.5 -16.5z" />
    <glyph glyph-name="quoteright.ss10" horiz-adv-x="227" 
d="M122 737q27 0 49 -21t22 -57q0 -49 -38 -96.5t-88 -81.5l-17 22q69 57 69 98q0 12 -9.5 19.5t-21 11.5t-21 15t-9.5 29q0 28 19.5 44.5t44.5 16.5z" />
    <glyph glyph-name="uni20BF.osf" horiz-adv-x="573" 
d="M532 154q0 -66 -48.5 -109t-128.5 -45v-114h-52v114h-66v-114h-54v114h-119v541h119v123h52v-123h67v123h53v-123q68 -2 109 -42t41 -99q0 -37 -21.5 -67.5t-58.5 -44.5q48 -11 77.5 -48t29.5 -86zM338 486h-208v-183h204q45 0 75.5 26t30.5 64q0 40 -28.5 66.5
t-73.5 26.5zM130 55h211q54 0 88.5 29t34.5 73q0 41 -30 68.5t-75 27.5h-229v-198z" />
    <glyph glyph-name="cent.osf" horiz-adv-x="555" 
d="M291 86q56 0 102 31t66 80l66 -28q-24 -60 -79 -100.5t-129 -47.5v-104h-58v105q-97 10 -158.5 78.5t-61.5 168.5t61.5 169.5t158.5 80.5v105h58v-104q75 -6 131.5 -47.5t78.5 -107.5l-69 -21q-19 49 -64.5 79t-102.5 30q-76 0 -127 -52.5t-51 -130.5q0 -79 51.5 -131.5
t126.5 -52.5z" />
    <glyph glyph-name="dollar.osf" horiz-adv-x="536" 
d="M502 150q0 -65 -51 -108t-141 -51v-100h-69v99q-116 6 -204 65l28 57q96 -60 208 -60q74 0 116.5 25.5t42.5 68.5q0 12 -3 22.5t-11 18.5l-14.5 14.5t-21 12t-22.5 9t-26 7t-25.5 5t-27.5 5t-25 4.5q-37 7 -60.5 12.5t-54.5 17.5t-48.5 27t-30.5 40t-13 57q0 65 52 105.5
t140 48.5v103h69v-104q90 -7 174 -52l-28 -55q-78 47 -181 47q-78 0 -117 -24t-39 -65q0 -60 98 -83q15 -3 44 -8l9 -2q3 -1 28 -5.5t32 -5.5t30 -6.5t32 -9t28 -11.5t27.5 -15t21.5 -18.5t18.5 -24t10 -28.5t4.5 -35z" />
    <glyph glyph-name="Euro.osf" horiz-adv-x="593" 
d="M383 51q96 0 164 37v-62q-65 -37 -173 -37q-109 0 -183 55.5t-97 149.5h-64v48h56q-1 9 -1 29q0 17 1 25h-56v48h63q22 96 96.5 152.5t182.5 56.5q105 0 168 -41v-61q-30 19 -75 29.5t-82 10.5q-82 0 -139 -39.5t-78 -107.5h289v-48h-299q-1 -8 -1 -26q0 -19 1 -28h299
v-48h-289q21 -66 78.5 -104.5t138.5 -38.5z" />
    <glyph glyph-name="uni20BD.osf" horiz-adv-x="584" 
d="M365 202h-165v-55h198v-44h-198v-103h-75v103h-85v44h85v55h-85v50h85v289h242q80 0 133 -48t53 -121q0 -74 -53 -122t-135 -48zM353 480h-153v-228h151q56 0 92.5 32t36.5 82q0 49 -36 81.5t-91 32.5z" />
    </font>
</defs>
</svg>
