<?xml version="1.0" standalone="no"?>
<!DOCTYPE svg PUBLIC "-//W3C//DTD SVG 1.1//EN" "http://www.w3.org/Graphics/SVG/1.1/DTD/svg11.dtd" >
<svg xmlns="http://www.w3.org/2000/svg" xmlns:xlink="http://www.w3.org/1999/xlink" version="1.1">
<metadata>
Created by FontForge 20170731 at Tue Jul 14 08:18:24 2020
 By Aleksey,,,
Copyright (c) 2020 by Kastelov. All rights reserved.
</metadata>
<defs>
<font id="Kinetika-Ultra" horiz-adv-x="619" >
  <font-face 
    font-family="Kinetika-Ultra"
    font-weight="400"
    font-stretch="normal"
    units-per-em="1000"
    panose-1="0 0 9 0 0 0 0 0 0 0"
    ascent="785"
    descent="-215"
    x-height="529"
    cap-height="669"
    bbox="-557 -270 1264 972"
    underline-thickness="50"
    underline-position="-150"
    unicode-range="U+000D-2767"
  />
<missing-glyph horiz-adv-x="104" 
 />
    <glyph glyph-name=".notdef" horiz-adv-x="104" 
 />
    <glyph glyph-name=".null" horiz-adv-x="0" 
 />
    <glyph glyph-name="uni000D" horiz-adv-x="333" 
 />
    <glyph glyph-name="uni000D.1" unicode="&#xd;" horiz-adv-x="55" 
 />
    <glyph glyph-name="space" unicode=" " horiz-adv-x="208" 
 />
    <glyph glyph-name="exclam" unicode="!" horiz-adv-x="338" 
d="M300 710l-21 -452h-221l-18 452h260zM83 194q35 35 86 35q50 0 85 -35t35 -85t-35 -85t-85 -35q-51 0 -86 35t-35 85t35 85z" />
    <glyph glyph-name="quotedbl" unicode="&#x22;" horiz-adv-x="568" 
d="M306 701h241l-53 -289h-185zM286 701l-53 -289h-185l-3 289h241z" />
    <glyph glyph-name="numbersign" unicode="#" horiz-adv-x="725" 
d="M56 282h74l22 109h-87l28 157h89l24 121h190l-21 -121h56l21 121h190l-19 -121h75l-28 -157h-72l-17 -109h88l-27 -160h-86l-19 -122h-203l22 122h-56l-22 -122h-203l24 122h-72zM328 282h56l19 109h-56z" />
    <glyph glyph-name="dollar" unicode="$" horiz-adv-x="634" 
d="M97 254q123 -85 234 -85q59 0 59 29q0 9 -5.5 15.5t-19.5 11.5t-24.5 7t-35.5 7q-11 2 -16 3q-28 6 -43.5 9.5t-44.5 12t-46 18t-39 25.5t-34 35.5t-21 48t-9 62.5q0 81 44.5 135t125.5 77v141h216v-135q101 -18 154 -61l-69 -166q-37 23 -94 40.5t-108 17.5
q-56 0 -56 -28q0 -16 16.5 -22.5t59.5 -13.5q38 -7 59.5 -11.5t57.5 -15.5t57.5 -25.5t44.5 -36.5t33.5 -54t10.5 -72q0 -79 -44 -135t-122 -81v-137h-216v127q-122 24 -201 89z" />
    <glyph glyph-name="percent" unicode="%" horiz-adv-x="830" 
d="M575 669h167l-496 -669h-169zM513 286q47 48 122 48t123 -48.5t48 -123.5q0 -76 -48 -124q-48 -49 -123 -49t-122 48t-47 125q0 75 47 124zM25 508q0 76 47 124t122 48t122.5 -48t47.5 -124t-47 -124q-48 -49 -123 -49t-122 48t-47 125zM157 509q0 -52 38 -52q17 0 27 14
t10 38q0 50 -37 50q-38 0 -38 -50zM598 162q0 -24 10.5 -38t27.5 -14q38 0 38 52q0 51 -38 51q-17 0 -27.5 -13.5t-10.5 -37.5z" />
    <glyph glyph-name="ampersand" unicode="&#x26;" horiz-adv-x="743" 
d="M144 355q-62 66 -62 140q0 78 62.5 132t172.5 54q105 0 167.5 -50.5t62.5 -137.5q0 -61 -30 -101t-86 -77l56 -55q29 33 31 85h176v-8q0 -109 -82 -197l145 -141h-235l-36 34q-80 -45 -198 -45q-70 0 -121.5 16.5t-80.5 44.5t-42.5 61.5t-13.5 71.5q0 113 114 173z
M308 433q48 28 48 57q0 17 -12 28.5t-32 11.5q-21 0 -31.5 -12.5t-10.5 -27.5q0 -19 38 -57zM239 187q0 -20 15 -31t41 -11q28 0 57 13l-78 74q-35 -18 -35 -45z" />
    <glyph glyph-name="quotesingle" unicode="'" horiz-adv-x="307" 
d="M233 412h-185l-3 289h241z" />
    <glyph glyph-name="parenleft" unicode="(" horiz-adv-x="392" 
d="M35 358q4 41 16 109t44 140t78 125h210q-134 -219 -134 -446q0 -232 134 -451h-210q-46 54 -77 126t-44 140.5t-17.5 111.5t-4.5 75q0 29 5 70z" />
    <glyph glyph-name="parenright" unicode=")" horiz-adv-x="392" 
d="M9 -165q134 219 134 451q0 227 -134 446h210q46 -53 78 -125t44 -140t16.5 -109t4.5 -70q0 -32 -4.5 -75t-17.5 -111.5t-44 -140.5t-77 -126h-210z" />
    <glyph glyph-name="asterisk" unicode="*" horiz-adv-x="474" 
d="M311 338h-148l-2 7l29 113l-84 -80l-8 -2l-73 126l5 8l112 31l-110 30l-7 8l73 128l11 -3l81 -80l-29 111l2 10h148l3 -10l-29 -111l81 81l9 2l75 -128l-7 -7l-110 -31l110 -31l7 -8l-75 -126l-8 2l-82 80l29 -113z" />
    <glyph glyph-name="plus" unicode="+" horiz-adv-x="526" 
d="M170 413v141h188v-141h136v-179h-136v-141h-188v141h-137v179h137z" />
    <glyph glyph-name="comma" unicode="," horiz-adv-x="318" 
d="M28 99q0 53 36 89.5t91 36.5q57 0 95.5 -38.5t38.5 -95.5q0 -130 -218 -305l-42 46q82 92 114 155q-50 0 -82.5 33.5t-32.5 78.5z" />
    <glyph glyph-name="hyphen" unicode="-" horiz-adv-x="434" 
d="M386 202h-338v185h338v-185z" />
    <glyph glyph-name="period" unicode="." horiz-adv-x="306" 
d="M26 114q0 53 37 90t91 37t90.5 -37t36.5 -90t-36 -90q-37 -37 -91 -37t-91 37t-37 90z" />
    <glyph glyph-name="slash" unicode="/" horiz-adv-x="607" 
d="M262 -109h-244l326 851h246z" />
    <glyph glyph-name="zero" unicode="0" horiz-adv-x="691" 
d="M121 584q86 96 224 96t224.5 -96.5t86.5 -249.5t-86 -249t-225 -96q-138 0 -224.5 96t-86.5 249t87 250zM260 335q0 -66 23 -104q22 -38 62 -38t62.5 37.5t22.5 104.5q0 65 -22.5 103t-62.5 38t-62.5 -37.5t-22.5 -103.5z" />
    <glyph glyph-name="one" unicode="1" horiz-adv-x="427" 
d="M25 638l194 31h144v-669h-225v461l-113 -13v190z" />
    <glyph glyph-name="two" unicode="2" horiz-adv-x="606" 
d="M107 614q75 66 196 66q113 0 184 -61t71 -158q0 -73 -36 -124t-103 -107l-48 -40h190v-191h-515v165l234 203q22 19 30 26.5t18 23t10 30.5q0 21 -14 32t-34 11q-26 0 -43 -17.5t-17 -52.5l-198 21v3q0 104 75 170z" />
    <glyph glyph-name="three" unicode="3" horiz-adv-x="622" 
d="M18 196l201 44q12 -66 75 -66q30 0 49.5 18t19.5 45q0 25 -19.5 41.5t-48.5 16.5q-26 0 -53 -17l-80 120l122 88h-223v183h492v-167l-118 -86q69 -13 110.5 -61.5t41.5 -125.5q0 -109 -79 -175t-215 -66q-116 0 -188.5 52t-86.5 156z" />
    <glyph glyph-name="four" unicode="4" horiz-adv-x="665" 
d="M262 669h288v-391h79v-171h-79v-107h-220v107h-308v147zM221 278h109v191z" />
    <glyph glyph-name="five" unicode="5" horiz-adv-x="626" 
d="M24 180l202 47q20 -56 75 -56q29 0 48.5 19t19.5 48q0 30 -19 48.5t-50 18.5q-21 0 -40 -11.5t-27 -30.5l-177 83l56 323h446v-181h-285l-14 -65q42 21 101 21q105 0 168 -60.5t63 -157.5q0 -106 -78 -172t-211 -66q-110 0 -184.5 47.5t-93.5 144.5z" />
    <glyph glyph-name="six" unicode="6" horiz-adv-x="635" 
d="M48 370q23 55 82 127l140 172h267l-172 -208q8 1 25 1q96 0 160 -62t64 -156q0 -114 -83 -184.5t-211 -70.5q-129 0 -212.5 71t-83.5 188q0 67 24 122zM271 191q18 -19 47 -19q28 0 46.5 19t18.5 47q0 27 -18.5 45.5t-46.5 18.5t-47 -18.5t-19 -45.5q0 -29 19 -47z" />
    <glyph glyph-name="seven" unicode="7" horiz-adv-x="542" 
d="M29 478v191h485v-163l-211 -506h-249l212 478h-237z" />
    <glyph glyph-name="eight" unicode="8" horiz-adv-x="663" 
d="M32 205q0 50 25.5 92t75.5 65q-68 44 -68 124q0 84 74 139t191 55q118 0 192.5 -55t74.5 -140q0 -79 -66 -123q49 -24 75 -66.5t26 -91.5q0 -94 -81.5 -154.5t-219.5 -60.5t-218.5 60.5t-80.5 155.5zM286 178q18 -17 45 -17q28 0 46 17t18 43t-18 42.5t-46 16.5
q-27 0 -45 -16.5t-18 -42.5t18 -43zM292 424q15 -15 40 -15q24 0 39.5 14.5t15.5 38.5q0 22 -16 37t-40 15t-39 -15t-15 -38t15 -37z" />
    <glyph glyph-name="nine" unicode="9" horiz-adv-x="634" 
d="M104 608q82 72 211 72q130 0 213 -73t83 -187q0 -70 -30.5 -125.5t-106.5 -153.5q-4 -5 -6 -8t-5.5 -7t-6.5 -8l-91 -118h-267l164 211h-12q-99 0 -164 61t-65 156q0 108 83 180zM246 431q0 -28 18.5 -46.5t45.5 -18.5q29 0 48 18.5t19 46.5q0 29 -18 47.5t-47 18.5
q-28 0 -47 -18.5t-19 -47.5z" />
    <glyph glyph-name="colon" unicode=":" horiz-adv-x="329" 
d="M75 503q37 37 90 37q54 0 90.5 -37t36.5 -90t-36.5 -90t-90.5 -37q-53 0 -90.5 37t-37.5 90t38 90zM75 204q37 37 90 37q54 0 90.5 -37t36.5 -90t-36.5 -90t-90.5 -37q-53 0 -90.5 37t-37.5 90t38 90z" />
    <glyph glyph-name="semicolon" unicode=";" horiz-adv-x="334" 
d="M76 189q36 36 90 36q57 0 95.5 -38.5t38.5 -95.5q0 -130 -218 -305l-42 46q82 92 114 155q-50 0 -82.5 33.5t-32.5 78.5q0 53 37 90zM72 502q37 36 90 36q54 0 90.5 -36.5t36.5 -89.5t-36.5 -89.5t-90.5 -36.5q-53 0 -90 37t-37 89q0 53 37 90z" />
    <glyph glyph-name="less" unicode="&#x3c;" horiz-adv-x="479" 
d="M426 574v-212l-187 -45l187 -49v-213l-397 169v186z" />
    <glyph glyph-name="equal" unicode="=" horiz-adv-x="536" 
d="M476 545v-199h-417v199h417zM59 105v198h417v-198h-417z" />
    <glyph glyph-name="greater" unicode="&#x3e;" horiz-adv-x="479" 
d="M450 410v-186l-397 -169v213l187 49l-187 45v212z" />
    <glyph glyph-name="question" unicode="?" horiz-adv-x="589" 
d="M115 680q66 38 172 38q124 0 199 -57t75 -149q0 -41 -18 -74.5t-44 -55t-52 -39.5t-44 -34.5t-18 -32.5v-18h-218v31q0 43 25 78t54.5 53.5t54.5 38.5t25 36q0 12 -14 22.5t-39 10.5q-52 0 -84 -54l-171 108q30 60 97 98zM195 189q33 33 83 33t83 -33.5t33 -83.5t-33 -83
t-83 -33t-83.5 33t-33.5 83t34 84z" />
    <glyph glyph-name="at" unicode="@" horiz-adv-x="843" 
d="M145 529q117 113 299 113q172 0 281.5 -101.5t109.5 -253.5q0 -111 -63.5 -174.5t-157.5 -63.5q-85 0 -124 62q-42 -57 -112 -57q-63 0 -103 45.5t-40 121.5q0 84 50.5 139.5t114.5 55.5q50 0 84 -36l2 23h135l-13 -175v-7q0 -18 11 -28t24 -10q22 0 36 24.5t14 68.5
q0 99 -71.5 166.5t-177.5 67.5q-116 0 -194.5 -80t-78.5 -199q0 -108 70 -183t204 -75q84 0 173 43l52 -111q-35 -27 -100.5 -45t-135.5 -18q-177 0 -292 110.5t-115 285.5q0 177 118 291zM374 226q0 -21 12.5 -34.5t31.5 -13.5q23 0 38.5 18t15.5 45q0 19 -12 32.5
t-31 13.5q-23 0 -39 -17.5t-16 -43.5z" />
    <glyph glyph-name="A" unicode="A" horiz-adv-x="704" 
d="M210 669h285l210 -669h-242l-17 79h-187l-19 -79h-245zM404 269l-52 213l-48 -213h100z" />
    <glyph glyph-name="B" unicode="B" horiz-adv-x="680" 
d="M50 669h363q107 0 162 -50.5t55 -128.5q0 -92 -75 -127q100 -35 100 -155q0 -100 -65.5 -154t-200.5 -54h-339v669zM277 265v-84h104q22 0 34 11.5t12 30.5t-13 30.5t-33 11.5h-104zM277 489v-80h86q49 0 49 40q0 18 -12.5 29t-31.5 11h-91z" />
    <glyph glyph-name="C" unicode="C" horiz-adv-x="706" 
d="M126 583q100 98 255 98q108 0 192.5 -50t122.5 -134l-198 -102q-16 35 -48.5 55t-72.5 20q-57 0 -93.5 -38t-36.5 -98q0 -59 37 -97.5t94 -38.5q42 0 75.5 22t47.5 59l202 -93q-35 -90 -123 -144t-200 -54q-154 0 -254 98t-100 248t100 249z" />
    <glyph glyph-name="D" unicode="D" horiz-adv-x="714" 
d="M50 669h288q166 0 257 -90.5t91 -245.5q0 -154 -89 -243.5t-252 -89.5h-295v669zM367 210q37 0 62 35.5t25 92.5q0 55 -24.5 88t-62.5 33h-88v-249h88z" />
    <glyph glyph-name="E" unicode="E" horiz-adv-x="609" 
d="M50 0v669h508v-192h-286v-55h278v-174h-278v-56h297v-192h-519z" />
    <glyph glyph-name="F" unicode="F" horiz-adv-x="576" 
d="M50 669h490v-199h-262v-60h236v-192h-236v-218h-228v669z" />
    <glyph glyph-name="G" unicode="G" horiz-adv-x="756" 
d="M25 335q0 152 102 249t263 97q92 0 161 -26t127 -85l-172 -148q-43 50 -115 50q-64 0 -100 -39.5t-36 -97.5q0 -60 38 -99.5t97 -39.5q42 0 72.5 17.5t30.5 36.5h-114v158h352v-81q0 -156 -97 -247.5t-247 -91.5q-160 0 -261 96t-101 251z" />
    <glyph glyph-name="H" unicode="H" horiz-adv-x="738" 
d="M50 669h233v-249h171v249h233v-669h-233v208h-171v-208h-233v669z" />
    <glyph glyph-name="I" unicode="I" horiz-adv-x="331" 
d="M50 0v669h231v-669h-231z" />
    <glyph glyph-name="J" unicode="J" horiz-adv-x="505" 
d="M143 202q30 0 49 7.5t26 23t8.5 26t1.5 30.5v380h231v-423q0 -127 -73 -192t-200 -65q-91 0 -169 25v202q70 -14 126 -14z" />
    <glyph glyph-name="K" unicode="K" horiz-adv-x="699" 
d="M50 669h231v-258l154 258h268l-218 -348l216 -321h-281l-139 227v-227h-231v669z" />
    <glyph glyph-name="L" unicode="L" horiz-adv-x="566" 
d="M551 0h-501v669h231v-470h270v-199z" />
    <glyph glyph-name="M" unicode="M" horiz-adv-x="902" 
d="M50 669h222l178 -303l181 303h221v-669h-221v285l-105 -167h-149l-106 168v-286h-221v669z" />
    <glyph glyph-name="N" unicode="N" horiz-adv-x="743" 
d="M50 0v669h215l211 -317v317h217v-669h-211l-215 313v-313h-217z" />
    <glyph glyph-name="O" unicode="O" horiz-adv-x="762" 
d="M26 334q0 151 100.5 249t254.5 98t255.5 -98.5t101.5 -248.5q0 -149 -101 -247q-102 -99 -256 -99t-254.5 98t-100.5 248zM247 334q0 -57 39 -96q38 -40 95 -40t96 39.5t39 96.5q0 58 -39 97t-96 39q-58 0 -96 -39t-38 -97z" />
    <glyph glyph-name="P" unicode="P" horiz-adv-x="667" 
d="M389 669q114 0 187.5 -72t73.5 -187q0 -120 -74.5 -191.5t-201.5 -71.5h-95v-147h-229v669h339zM354 342q28 0 47 18.5t19 46.5q0 29 -18.5 48t-45.5 19h-77v-132h75z" />
    <glyph glyph-name="Q" unicode="Q" horiz-adv-x="780" 
d="M127 583q100 98 254 98t255.5 -98.5t101.5 -248.5q0 -86 -35.5 -157.5t-99.5 -118.5q54 -40 123 -40q35 0 64 9v-196q-61 -11 -114 -11q-98 0 -182 49.5t-135 119.5q-146 8 -239.5 104.5t-93.5 240.5q0 151 101 249zM247 334q0 -57 38.5 -96.5t95.5 -39.5t96 39.5
t39 96.5q0 58 -39 97t-96 39q-58 0 -96 -39t-38 -97z" />
    <glyph glyph-name="R" unicode="R" horiz-adv-x="688" 
d="M412 669q104 0 172 -69t68 -174q0 -67 -27 -121t-75 -86l120 -219h-272l-83 171h-36v-171h-229v669h362zM279 354h85q25 0 41 17t16 43t-16.5 43t-41.5 17h-84v-120z" />
    <glyph glyph-name="S" unicode="S" horiz-adv-x="671" 
d="M106 265q109 -83 244 -83q56 0 56 26q0 4 -1.5 8t-4.5 7t-6.5 5t-9 4t-10.5 3.5t-13 3t-14 2.5t-16 2.5t-17 2.5q-31 5 -49.5 8.5t-49.5 12t-51 18t-44 26t-38 36t-23.5 48.5t-9.5 63q0 109 83 165.5t221 56.5q169 0 280 -74l-91 -171q-38 24 -95 41.5t-112 17.5
q-53 0 -53 -24q0 -4 1 -7t3 -5t4.5 -4t6.5 -3.5t7.5 -3t10 -2.5t10.5 -2t12 -2.5t13 -2.5q112 -21 148 -34q144 -52 144 -182q0 -109 -81.5 -171t-231.5 -62q-90 0 -173 27.5t-140 72.5z" />
    <glyph glyph-name="T" unicode="T" horiz-adv-x="629" 
d="M15 669h599v-195h-184v-474h-231v474h-184v195z" />
    <glyph glyph-name="U" unicode="U" horiz-adv-x="708" 
d="M274 669v-376q0 -35 20.5 -58.5t59.5 -23.5q38 0 59 24t21 58v376h230v-394q0 -128 -87 -207t-223 -79t-223 79t-87 207v394h230z" />
    <glyph glyph-name="V" unicode="V" horiz-adv-x="717" 
d="M-3 669h266l95 -389l97 389h265l-222 -669h-281z" />
    <glyph glyph-name="W" unicode="W" horiz-adv-x="1006" 
d="M5 669h238l63 -390l93 390h209l94 -380l63 380h239l-174 -669h-244l-83 346l-85 -346h-244z" />
    <glyph glyph-name="X" unicode="X" horiz-adv-x="709" 
d="M211 338l-209 331h271l81 -154l91 154h269l-216 -334l208 -335h-272l-77 150l-93 -150h-269z" />
    <glyph glyph-name="Y" unicode="Y" horiz-adv-x="686" 
d="M-11 669h267l87 -237l91 237h267l-244 -488v-181h-230v181z" />
    <glyph glyph-name="Z" unicode="Z" horiz-adv-x="654" 
d="M606 481l-261 -286h273v-195h-579v180l272 294h-267v195h562v-188z" />
    <glyph glyph-name="bracketleft" unicode="[" horiz-adv-x="449" 
d="M52 732h363v-197h-142v-505h142v-197h-363v899z" />
    <glyph glyph-name="backslash" unicode="\" horiz-adv-x="606" 
d="M262 742l327 -851h-245l-327 851h245z" />
    <glyph glyph-name="bracketright" unicode="]" horiz-adv-x="450" 
d="M34 535v197h364v-899h-364v197h143v505h-143z" />
    <glyph glyph-name="asciicircum" unicode="^" horiz-adv-x="577" 
d="M171 669h235l146 -278h-213l-51 124l-50 -124h-214z" />
    <glyph glyph-name="underscore" unicode="_" horiz-adv-x="580" 
d="M580 -189h-580v155h580v-155z" />
    <glyph glyph-name="grave" unicode="`" horiz-adv-x="326" 
d="M258 778l47 -180h-211l-76 180h240z" />
    <glyph glyph-name="a" unicode="a" horiz-adv-x="655" 
d="M96 465q71 77 182 77q78 0 133 -50v38h201v-530h-201v36q-56 -48 -137 -48q-110 0 -180 77.5t-70 200.5q0 121 72 199zM262 202q24 -25 62 -25q37 0 61.5 25t24.5 63q0 37 -24 62t-61 25q-39 0 -63.5 -24.5t-24.5 -63.5q0 -38 25 -62z" />
    <glyph glyph-name="b" unicode="b" horiz-adv-x="662" 
d="M258 709v-215q57 45 130 45q107 0 178.5 -79t71.5 -198q0 -117 -71 -195.5t-177 -78.5q-79 0 -138 48v-36h-209v709h215zM279 202q25 -26 60 -26q36 0 60.5 25t24.5 61t-25 62t-61 26q-35 0 -60 -26t-25 -62q0 -35 26 -60z" />
    <glyph glyph-name="c" unicode="c" horiz-adv-x="607" 
d="M105 465q82 77 217 77q108 0 183 -53t93 -149l-200 -52q-4 28 -26 46.5t-52 18.5q-36 0 -59 -25t-23 -65q0 -38 23.5 -62t60.5 -24q28 0 50.5 17.5t28.5 44.5l189 -78q-22 -76 -94.5 -124.5t-179.5 -48.5q-133 0 -213 75.5t-80 198.5q0 126 82 203z" />
    <glyph glyph-name="d" unicode="d" horiz-adv-x="662" 
d="M24 263q0 118 72.5 197t181.5 79q71 0 128 -44v214h212v-709h-208v35q-60 -47 -138 -47q-106 0 -177 78.5t-71 196.5zM237 262q0 -36 25 -61q24 -25 61 -25t62 25t25 61q0 38 -24.5 63t-61.5 25q-38 0 -62.5 -25t-24.5 -63z" />
    <glyph glyph-name="e" unicode="e" 
d="M104 465q80 77 211 77q127 0 204.5 -71.5t77.5 -188.5q0 -35 -3 -62h-368q7 -33 30.5 -50.5t56.5 -17.5q64 0 86 49l174 -67q-22 -68 -90.5 -107t-165.5 -39q-134 0 -214 75t-80 199q0 125 81 203zM231 326h162q-8 26 -29.5 41t-50.5 15q-61 0 -82 -56z" />
    <glyph glyph-name="f" unicode="f" horiz-adv-x="472" 
d="M120 527v48q0 87 58.5 137.5t159.5 50.5q83 0 137 -20v-175q-42 11 -84 11q-58 0 -58 -45v-7h122v-179h-122v-348h-213v348h-99v179h99z" />
    <glyph glyph-name="g" unicode="g" horiz-adv-x="658" 
d="M25 277q0 114 70.5 188.5t176.5 74.5q77 0 138 -43v33h206v-477q0 -126 -86 -200.5t-233 -74.5q-113 0 -227 48v182q116 -50 208 -50q59 0 95 25.5t36 74.5v4q-57 -43 -138 -43q-106 0 -176 72.5t-70 185.5zM263 212q24 -23 60 -23q35 0 59.5 23.5t24.5 57.5
q0 35 -23.5 59t-58.5 24q-37 0 -61.5 -24t-24.5 -59t24 -58z" />
    <glyph glyph-name="h" unicode="h" 
d="M43 710h219v-202q51 32 117 32q91 0 146.5 -54.5t55.5 -143.5v-342h-220v297q0 54 -46 54q-23 0 -38 -16.5t-15 -44.5v-290h-219v710z" />
    <glyph glyph-name="i" unicode="i" horiz-adv-x="306" 
d="M42 0v530h221v-530h-221zM29 686q0 52 35.5 88t88.5 36q52 0 87.5 -36t35.5 -88q0 -51 -35 -86q-36 -36 -88 -36t-88 35.5t-36 86.5z" />
    <glyph glyph-name="j" unicode="j" horiz-adv-x="318" 
d="M-90 -199v185q49 -13 92 -13q54 0 54 58v499h219v-555q0 -89 -60.5 -143t-165.5 -54q-76 0 -139 23zM42 686q0 52 36 88t88 36t88 -36t36 -88q0 -51 -36 -86q-36 -36 -88 -36t-88 35.5t-36 86.5z" />
    <glyph glyph-name="k" unicode="k" horiz-adv-x="607" 
d="M43 701h218v-337l105 166h251l-161 -251l155 -279h-255l-95 192v-192h-218v701z" />
    <glyph glyph-name="l" unicode="l" horiz-adv-x="309" 
d="M266 701v-701h-223v701h223z" />
    <glyph glyph-name="m" unicode="m" horiz-adv-x="946" 
d="M43 0v530h209v-39q54 49 139 49q88 0 139 -57q65 57 162 57q95 0 154.5 -55t59.5 -144v-341h-220v294q0 27 -13 42t-34 15q-24 0 -39 -17.5t-15 -47.5v-286h-220v295q0 26 -13 41t-35 15q-24 0 -39.5 -18t-15.5 -47v-286h-219z" />
    <glyph glyph-name="n" unicode="n" 
d="M43 0v530h209v-36q54 46 127 46q91 0 146.5 -54.5t55.5 -143.5v-342h-219v296q0 26 -12.5 40.5t-34.5 14.5t-37.5 -16.5t-15.5 -44.5v-290h-219z" />
    <glyph glyph-name="o" unicode="o" horiz-adv-x="634" 
d="M105 463q82 79 213 79q130 0 212 -79.5t82 -200.5t-83 -197.5t-211 -76.5q-130 0 -213 77.5t-83 196.5q0 121 83 201zM256 202q26 -26 62 -26q38 0 62 25t24 63t-24 63.5t-61 25.5t-63 -25.5t-26 -63.5q0 -37 26 -62z" />
    <glyph glyph-name="p" unicode="p" horiz-adv-x="662" 
d="M252 530v-41q58 49 138 49q106 0 177 -79t71 -197q0 -119 -71 -196.5t-179 -77.5q-76 0 -130 41v-230h-215v731h209zM251 261q0 -37 25 -62q25 -26 62 -26t62 25.5t25 62.5t-24.5 62.5t-61.5 25.5t-62.5 -25.5t-25.5 -62.5z" />
    <glyph glyph-name="q" unicode="q" horiz-adv-x="662" 
d="M24 262q0 117 70.5 196.5t176.5 79.5q81 0 139 -49v41h208v-731h-213v232q-55 -43 -132 -43q-105 0 -177 78t-72 196zM237 261q0 -37 25 -62q25 -26 62 -26t61.5 25t24.5 63t-25 63t-62 25t-61.5 -25.5t-24.5 -62.5z" />
    <glyph glyph-name="r" unicode="r" horiz-adv-x="454" 
d="M252 530v-43q43 54 119 54q31 0 62 -13l-3 -214q-42 14 -68 14q-100 0 -100 -99v-229h-219v530h209z" />
    <glyph glyph-name="s" unicode="s" horiz-adv-x="566" 
d="M85 217q33 -26 93 -48t107 -22q46 0 46 20q0 6 -3.5 9.5t-12.5 6.5t-17.5 4.5t-26.5 4.5t-32 6q-101 21 -146.5 59t-45.5 107q0 83 63 130t179 47q127 0 236 -45l-54 -156q-44 22 -96.5 36t-87.5 14q-37 0 -37 -16q0 -4 2 -7.5t6.5 -6t10 -4.5t15 -4t18 -3.5t22 -4
t25.5 -5.5q102 -22 147.5 -56t45.5 -111q0 -82 -68 -132.5t-192 -50.5q-76 0 -148 20.5t-122 55.5z" />
    <glyph glyph-name="t" unicode="t" horiz-adv-x="462" 
d="M23 530h73v128h219v-128h107v-186h-107v-112q0 -26 10 -40.5t41 -14.5q29 0 70 13v-179q-61 -23 -139 -23q-103 0 -152 48.5t-49 134.5v173h-73v186z" />
    <glyph glyph-name="u" unicode="u" 
d="M38 530h220v-299q0 -26 12.5 -40t33.5 -14q24 0 38.5 17t14.5 46v290h219v-530h-209v38q-55 -50 -137 -50q-90 0 -141 60t-51 174v308z" />
    <glyph glyph-name="v" unicode="v" horiz-adv-x="615" 
d="M242 529l64 -290h6l62 290h244l-190 -529h-242l-188 529h244z" />
    <glyph glyph-name="w" unicode="w" horiz-adv-x="873" 
d="M-2 529h236l44 -244l67 244h184l68 -233l41 233h236l-148 -530h-215l-72 261l-73 -261h-219z" />
    <glyph glyph-name="x" unicode="x" horiz-adv-x="602" 
d="M154 262l-154 268h245l54 -132l67 132h237l-156 -268l158 -262h-245l-61 126l-62 -126h-238z" />
    <glyph glyph-name="y" unicode="y" horiz-adv-x="628" 
d="M214 530l104 -310l88 310h223l-151 -460q-16 -47 -29 -80t-32.5 -69.5t-42.5 -60t-53.5 -43.5t-70.5 -29.5t-90 -9.5q-72 0 -142 29v187q62 -30 119 -30q56 0 77 14l-223 552h223z" />
    <glyph glyph-name="z" unicode="z" horiz-adv-x="564" 
d="M531 0h-497v153l199 194h-187v183h474v-146l-202 -202h213v-182z" />
    <glyph glyph-name="braceleft" unicode="{" horiz-adv-x="441" 
d="M18 200v166q58 0 79 13.5t21 44.5q0 5 -1 11l-8 83q-2 22 -2 32q0 101 57.5 147t139.5 46q27 0 95 -7v-185q-14 3 -25 3q-29 0 -47 -15.5t-18 -44.5q0 -6 1 -12l8 -73q1 -7 1 -21q0 -78 -64 -104q64 -28 64 -105q0 -14 -1 -21l-8 -73q-1 -6 -1 -12q0 -29 18 -44.5
t47 -15.5q12 0 25 3v-185q-68 -7 -95 -7q-82 0 -139.5 46t-57.5 147q0 10 2 32l8 83q1 6 1 12q0 29 -19.5 42.5t-73.5 13.5h-7z" />
    <glyph glyph-name="bar" unicode="|" horiz-adv-x="299" 
d="M246 -222h-193v1052h193v-1052z" />
    <glyph glyph-name="braceright" unicode="}" horiz-adv-x="440" 
d="M41 551v185q68 7 95 7q82 0 139.5 -46t57.5 -147q0 -10 -2 -32l-8 -83q-1 -6 -1 -11q0 -31 21 -44.5t79 -13.5v-166h-7q-52 0 -72.5 -13t-20.5 -44q0 -5 1 -11l8 -83q2 -22 2 -32q0 -101 -57.5 -147t-139.5 -46q-27 0 -95 7v185q13 -3 25 -3q29 0 47 15.5t18 44.5
q0 6 -1 12l-8 73q-1 7 -1 21q0 77 64 105q-64 26 -64 104q0 14 1 21l8 73q1 6 1 12q0 29 -18 44.5t-47 15.5q-12 0 -25 -3z" />
    <glyph glyph-name="asciitilde" unicode="~" horiz-adv-x="658" 
d="M96 384q58 66 136 66q34 0 62 -11.5t42.5 -25t31 -25t30.5 -11.5q21 0 32 14.5t14 54.5h185q-3 -121 -58.5 -194t-144.5 -73q-33 0 -60.5 11.5t-42.5 26t-33 26t-35 11.5q-19 0 -26.5 -14t-9.5 -58h-185q3 135 62 202z" />
    <glyph glyph-name="exclamdown" unicode="&#xa1;" horiz-adv-x="334" 
d="M38 -222l18 452h221l21 -452h-260zM81 464q34 35 85 35t85.5 -35t34.5 -85t-34.5 -85t-85.5 -35t-85.5 35t-34.5 85t35 85z" />
    <glyph glyph-name="cent" unicode="&#xa2;" horiz-adv-x="630" 
d="M91 523q58 72 159 94v118h145v-115q85 -15 141 -65.5t71 -131.5l-199 -52q-5 29 -26.5 47t-51.5 18q-36 0 -59.5 -25t-23.5 -65q0 -38 23.5 -62t60.5 -24q29 0 51 17.5t28 44.5l190 -78q-19 -62 -72.5 -107t-132.5 -60v-128h-145v129q-101 20 -159 91.5t-58 176.5t58 177
z" />
    <glyph glyph-name="sterling" unicode="&#xa3;" horiz-adv-x="650" 
d="M34 166q52 17 69 34t19 51h-78v146h47q-9 36 -9 66q0 97 74.5 157.5t193.5 60.5q33 0 62 -3.5t69 -18t68.5 -38.5t48.5 -70.5t20 -108.5l-200 -12q0 63 -60 63q-25 0 -41.5 -16t-16.5 -41q0 -16 9 -39h195v-146h-169q-5 -37 -17 -64h284v-187h-535z" />
    <glyph glyph-name="currency" unicode="&#xa4;" horiz-adv-x="606" 
d="M31 481l131 126l8 -8l47 -71q42 17 88 17q43 0 85 -16l47 70l8 8l129 -126l-6 -11l-65 -47q18 -43 18 -87q0 -50 -22 -94l69 -49l6 -11l-129 -127l-8 8l-52 79q-39 -14 -80 -14q-45 0 -82 15l-53 -80l-8 -8l-131 127l7 11l72 52q-20 42 -20 91q0 45 17 84l-69 50z
M261 285q15 -19 43 -19t43 18.5t15 50.5q0 33 -15 51.5t-43 18.5t-43.5 -19t-15.5 -51t16 -50z" />
    <glyph glyph-name="yen" unicode="&#xa5;" horiz-adv-x="685" 
d="M264 669l79 -256l78 256h245l-162 -344h70v-112h-118v-31h118v-113h-118v-69h-229v69h-114v113h114v31h-114v112h67l-160 344h244z" />
    <glyph glyph-name="brokenbar" unicode="&#xa6;" horiz-adv-x="299" 
d="M246 830v-420h-193v420h193zM53 -222v420h193v-420h-193z" />
    <glyph glyph-name="section" unicode="&#xa7;" horiz-adv-x="590" 
d="M31 -90l71 146q38 -30 92.5 -50t105.5 -20q53 0 53 20q0 15 -32 25t-77.5 20.5t-91.5 26.5t-78 50.5t-32 85.5q0 46 24 80t68 51q-82 44 -82 137q0 92 68 145t178 53q66 0 133 -19t99 -47l-78 -141q-29 18 -78 33.5t-89 15.5q-42 0 -42 -17q0 -14 32.5 -24t78.5 -20.5
t92 -26.5t78.5 -51.5t32.5 -87.5q0 -43 -24.5 -79t-73.5 -49q87 -43 87 -139q0 -93 -71 -149.5t-183 -56.5q-74 0 -148 25t-113 63zM233 267q0 -25 25.5 -38t75.5 -24q29 18 29 41q0 24 -25.5 36t-81.5 24q-23 -18 -23 -39z" />
    <glyph glyph-name="dieresis" unicode="&#xa8;" horiz-adv-x="524" 
d="M272 679q0 47 33 79t81 32q47 0 79.5 -32.5t32.5 -78.5q0 -48 -32.5 -81t-79.5 -33q-48 0 -81 33t-33 81zM26 679q0 47 32.5 79t79.5 32t80 -32.5t33 -78.5q0 -48 -33 -81t-80 -33t-79.5 33t-32.5 81z" />
    <glyph glyph-name="copyright" unicode="&#xa9;" horiz-adv-x="754" 
d="M130 585q98 98 248 98q149 0 246.5 -98t97.5 -248t-97.5 -248.5t-246.5 -98.5q-150 0 -248.5 98.5t-98.5 248.5t99 248zM141 337q0 -104 67 -173t170 -69q102 0 169 69t67 173t-67 172.5t-169 68.5q-103 0 -170 -68.5t-67 -172.5zM246 469q54 50 142 50q48 0 94.5 -27
t71.5 -69l-130 -66q-5 11 -17.5 19t-25.5 8q-21 0 -34.5 -14t-13.5 -36q0 -21 14 -35.5t35 -14.5q15 0 28 8t18 19l125 -68q-21 -42 -66.5 -68t-100.5 -26q-86 0 -140 50.5t-54 134.5t54 135z" />
    <glyph glyph-name="ordfeminine" unicode="&#xaa;" horiz-adv-x="353" 
d="M28 510q0 37 27 59.5t78 22.5h69q0 15 -8 21t-37 6q-51 0 -106 -21l-8 85q54 23 124 23q50 0 82.5 -12t44 -33t14 -33.5t2.5 -30.5v-171h-107v15q-32 -20 -73 -20q-46 0 -74 24.5t-28 64.5zM166 497q15 0 25.5 8.5t10.5 21.5v11h-36q-10 0 -17.5 -5.5t-7.5 -15.5
q0 -20 25 -20z" />
    <glyph glyph-name="guillemotleft" unicode="&#xab;" horiz-adv-x="675" 
d="M313 252l101 221h240l-102 -221l94 -225h-240zM22 252l102 221h239l-102 -221l94 -225h-240z" />
    <glyph glyph-name="logicalnot" unicode="&#xac;" 
d="M377 214h-331v185h519v-280h-188v95z" />
    <glyph glyph-name="uni00AD" unicode="&#xad;" horiz-adv-x="458" 
d="M410 202h-362v185h362v-185z" />
    <glyph glyph-name="registered" unicode="&#xae;" horiz-adv-x="754" 
d="M130 585q98 98 248 98q149 0 246.5 -98t97.5 -248t-97.5 -248.5t-246.5 -98.5q-150 0 -248.5 98.5t-98.5 248.5t99 248zM208 164q67 -69 170 -69q97 0 164 64h-136l-39 86h-10v-86h-135v352h183q63 0 102.5 -37.5t39.5 -95.5q0 -76 -55 -108l57 -104q65 68 65 171
q0 104 -67 172.5t-169 68.5q-103 0 -170 -68.5t-67 -172.5t67 -173zM357 408v-59h23q13 0 22.5 8.5t9.5 20.5q0 13 -8 21.5t-21 8.5h-26z" />
    <glyph glyph-name="macron" unicode="&#xaf;" horiz-adv-x="475" 
d="M433 613h-391v145h391v-145z" />
    <glyph glyph-name="degree" unicode="&#xb0;" horiz-adv-x="374" 
d="M70 637q46 43 116 43q71 0 117.5 -43.5t46.5 -110.5q0 -66 -46.5 -109t-117.5 -43q-70 0 -116 43t-46 109q0 67 46 111zM146 526q0 -18 11.5 -30t28.5 -12q18 0 29.5 12t11.5 30q0 19 -11.5 31.5t-29.5 12.5q-17 0 -28.5 -12.5t-11.5 -31.5z" />
    <glyph glyph-name="plusminus" unicode="&#xb1;" horiz-adv-x="554" 
d="M47 334v192h128v122h206v-122h127v-192h-127v-122h-206v122h-128zM47 184h461v-192h-461v192z" />
    <glyph glyph-name="twosuperior" unicode="&#xb2;" horiz-adv-x="376" 
d="M19 672q2 61 49.5 99t118.5 38q74 0 117 -35.5t43 -92.5q0 -64 -64 -107l-46 -30h112v-101h-322v83l142 97q40 27 46 40q3 6 3 12q0 13 -9.5 21t-24.5 8q-40 0 -44 -48z" />
    <glyph glyph-name="threesuperior" unicode="&#xb3;" horiz-adv-x="381" 
d="M14 542l108 36q5 -19 20.5 -30t36.5 -11t35 10.5t14 26.5q0 17 -13.5 26.5t-35.5 9.5q-20 0 -44 -11l-41 61l85 42h-145v102h304v-98l-69 -39q40 -7 65 -32.5t25 -67.5q0 -58 -49 -93.5t-131 -35.5q-69 0 -113.5 27t-51.5 77z" />
    <glyph glyph-name="acute" unicode="&#xb4;" horiz-adv-x="325" 
d="M231 598h-210l45 180h240z" />
    <glyph glyph-name="paragraph" unicode="&#xb6;" horiz-adv-x="851" 
d="M98 596q76 73 188 73h527v-195h-91v-641h-165v641h-76v-641h-204v323q-109 1 -182 75.5t-73 182.5t76 182z" />
    <glyph glyph-name="periodcentered" unicode="&#xb7;" horiz-adv-x="300" 
d="M30 320q0 50 34.5 84.5t85.5 34.5t86 -34.5t35 -84.5q0 -51 -35 -86t-86 -35t-85.5 35t-34.5 86z" />
    <glyph glyph-name="cedilla" unicode="&#xb8;" horiz-adv-x="321" 
d="M108 -115q34 0 34 20t-31 20h-50l-8 12l36 101l141 1l-18 -59q40 -6 62.5 -31t22.5 -62q0 -50 -43 -83.5t-110 -33.5q-63 0 -114 16v113q48 -14 78 -14z" />
    <glyph glyph-name="onesuperior" unicode="&#xb9;" horiz-adv-x="370" 
d="M134 548v129l-103 -24v113l143 38h84v-256h99v-105h-329v105h106z" />
    <glyph glyph-name="ordmasculine" unicode="&#xba;" horiz-adv-x="351" 
d="M24 563q0 63 42.5 103t108.5 40t109 -40.5t43 -102.5q0 -63 -43 -104t-109 -41t-108.5 40.5t-42.5 104.5zM130 563q0 -19 13 -32q13 -14 32 -14t32 13t13 33t-12.5 32.5t-32.5 12.5q-19 0 -32 -12.5t-13 -32.5z" />
    <glyph glyph-name="guillemotright" unicode="&#xbb;" horiz-adv-x="675" 
d="M312 473h239l102 -221l-93 -225h-240l94 225zM22 473h239l101 -221l-92 -225h-240l93 225z" />
    <glyph glyph-name="onequarter" unicode="&#xbc;" horiz-adv-x="918" 
d="M644 669h154l-472 -669h-161zM668 348h190l-7 -2v-202h43v-90h-43v-60h-121v60h-192v76zM34 315v105h106v129l-102 -24v113l143 38h84v-256h98v-105h-329zM730 144v115l-65 -115h65z" />
    <glyph glyph-name="onehalf" unicode="&#xbd;" horiz-adv-x="908" 
d="M156 0l479 669h155l-473 -669h-161zM547 223q2 61 49.5 99t118.5 38q75 0 117.5 -35.5t42.5 -92.5q0 -64 -64 -106l-47 -31h113v-101h-322v84l142 96q2 1 5 3q38 26 43 40l1 9q0 28 -34 28q-40 0 -44 -47zM31 315v105h106v129l-103 -24v113l144 38h84v-256h98v-105h-329z
" />
    <glyph glyph-name="threequarters" unicode="&#xbe;" horiz-adv-x="890" 
d="M616 669h154l-472 -669h-161zM24 414l108 36q4 -19 20 -30t37 -11t35 10.5t14 26.5q0 17 -13.5 26.5t-35.5 9.5q-21 0 -44 -11l-42 61l86 42h-146v102h305v-98l-69 -39q39 -7 64.5 -33t25.5 -67q0 -57 -49.5 -93t-130.5 -36q-70 0 -114 27t-51 77zM510 54v76l129 218h190
l-7 -2v-202h44v-90h-44v-60h-121v60h-191zM637 144h64v114z" />
    <glyph glyph-name="questiondown" unicode="&#xbf;" horiz-adv-x="587" 
d="M45 59q18 33 44 54.5t52 39.5t44 34.5t18 32.5v18h218v-31q0 -43 -25 -78t-54.5 -53.5t-54.5 -38.5t-25 -36q0 -12 14 -22.5t39 -10.5q52 0 84 54l171 -108q-30 -60 -96.5 -98t-172.5 -38q-124 0 -199 57t-75 149q0 41 18 75zM194 391q0 50 33 83t83 33t83.5 -33
t33.5 -83t-33.5 -83.5t-83.5 -33.5t-83 33.5t-33 83.5z" />
    <glyph glyph-name="Agrave" unicode="&#xc0;" horiz-adv-x="704" 
d="M210 669h285l210 -669h-242l-17 79h-187l-19 -79h-245zM154 931h249l61 -205h-230zM404 269l-52 213l-48 -213h100z" />
    <glyph glyph-name="Aacute" unicode="&#xc1;" horiz-adv-x="704" 
d="M210 669h285l210 -669h-242l-17 79h-187l-19 -79h-245zM234 726l61 205h249l-80 -205h-230zM304 269h100l-52 213z" />
    <glyph glyph-name="Acircumflex" unicode="&#xc2;" horiz-adv-x="704" 
d="M-5 0l215 669h285l210 -669h-242l-17 79h-187l-19 -79h-245zM90 726l144 215h233l143 -215h-213l-47 88l-47 -88h-213zM404 269l-52 213l-48 -213h100z" />
    <glyph glyph-name="Atilde" unicode="&#xc3;" horiz-adv-x="704" 
d="M210 669h285l210 -669h-242l-17 79h-187l-19 -79h-245zM110 775q0 70 35.5 114.5t112.5 44.5q41 0 69.5 -14t47.5 -28t36 -14q21 0 32.5 13t11.5 32v6h155q2 -20 2 -29q0 -71 -38 -118.5t-111 -47.5q-39 0 -68 15t-49 30t-37 15q-20 0 -31.5 -14t-11.5 -35v-4h-154
q-2 22 -2 34zM304 269h100l-52 213z" />
    <glyph glyph-name="Adieresis" unicode="&#xc4;" horiz-adv-x="704" 
d="M-5 0l215 669h285l210 -669h-242l-17 79h-187l-19 -79h-245zM137 926q34 34 84 34t84 -34t34 -84q0 -51 -34 -85q-34 -35 -84 -35t-84.5 34.5t-34.5 85.5q0 50 35 84zM362 842q0 50 34.5 84t84.5 34t83.5 -34t33.5 -84q0 -51 -33 -85q-34 -35 -84 -35t-84.5 34.5
t-34.5 85.5zM404 269l-52 213l-48 -213h100z" />
    <glyph glyph-name="Aring" unicode="&#xc5;" horiz-adv-x="704" 
d="M210 669h285l210 -669h-242l-17 79h-187l-19 -79h-245zM240 932q44 38 111 38t111 -38t44 -97t-44 -98t-111 -39t-111 39t-44 98t44 97zM304 269h100l-52 213zM316 798q14 -14 35 -14t35.5 14t14.5 35q0 20 -14 34q-15 14 -36 14t-35.5 -14t-14.5 -34q0 -21 15 -35z" />
    <glyph glyph-name="AE" unicode="&#xc6;" horiz-adv-x="986" 
d="M307 669h630v-192h-281v-55h266v-175h-266v-55h292v-192h-502v97h-190l-44 -97h-230zM336 274h110v244z" />
    <glyph glyph-name="Ccedilla" unicode="&#xc7;" horiz-adv-x="706" 
d="M126 583q100 98 255 98q108 0 192.5 -50t122.5 -134l-198 -102q-16 35 -48.5 55t-72.5 20q-57 0 -93.5 -38t-36.5 -98q0 -59 37 -97.5t94 -38.5q42 0 75.5 22t47.5 59l202 -93q-30 -76 -98 -127t-158 -66l-9 -27q39 -6 61.5 -31t22.5 -60q0 -48 -43 -80.5t-109 -32.5
t-115 16v108q58 -13 79 -13q34 0 34 20q0 9 -9 14.5t-21 5.5h-52l-7 10l25 72q-124 23 -201 116t-77 223q0 150 100 249z" />
    <glyph glyph-name="Egrave" unicode="&#xc8;" horiz-adv-x="609" 
d="M558 669v-192h-286v-55h278v-174h-278v-56h297v-192h-519v669h508zM353 931l61 -205h-230l-80 205h249z" />
    <glyph glyph-name="Eacute" unicode="&#xc9;" horiz-adv-x="609" 
d="M558 669v-192h-286v-55h278v-174h-278v-56h297v-192h-519v669h508zM245 931h249l-80 -205h-230z" />
    <glyph glyph-name="Ecircumflex" unicode="&#xca;" horiz-adv-x="609" 
d="M558 669v-192h-286v-55h278v-174h-278v-56h297v-192h-519v669h508zM40 726l144 215h233l142 -215h-213l-46 88l-47 -88h-213z" />
    <glyph glyph-name="Edieresis" unicode="&#xcb;" horiz-adv-x="609" 
d="M50 669h508v-192h-286v-55h278v-174h-278v-56h297v-192h-519v669zM86 926q34 34 84 34t84.5 -34t34.5 -84q0 -51 -34 -85q-35 -35 -85 -35t-84.5 34.5t-34.5 85.5q0 50 35 84zM312 842q0 50 34 84t84 34t84 -34t34 -84q0 -51 -34 -85q-34 -35 -84 -35t-84 34.5t-34 85.5z
" />
    <glyph glyph-name="Igrave" unicode="&#xcc;" horiz-adv-x="331" 
d="M220 931l61 -205h-230l-80 205h249zM50 0v669h231v-669h-231z" />
    <glyph glyph-name="Iacute" unicode="&#xcd;" horiz-adv-x="332" 
d="M281 726h-230l61 205h249zM50 0v669h231v-669h-231z" />
    <glyph glyph-name="Icircumflex" unicode="&#xce;" horiz-adv-x="331" 
d="M50 669h231v-669h-231v669zM51 941h233l142 -215h-212l-47 88l-47 -88h-213z" />
    <glyph glyph-name="Idieresis" unicode="&#xcf;" horiz-adv-x="331" 
d="M281 669v-669h-231v669h231zM-82 842q0 50 35 84t85 34t84 -34t34 -84q0 -51 -34 -85q-34 -35 -84 -35t-85 34.5t-35 85.5zM214 926q34 34 84 34t83.5 -34t33.5 -84q0 -51 -33 -85q-34 -35 -84 -35t-84.5 34.5t-34.5 85.5q0 50 35 84z" />
    <glyph glyph-name="Eth" unicode="&#xd0;" horiz-adv-x="745" 
d="M13 266v141h69v262h288q166 0 257 -90.5t91 -245.5q0 -154 -89 -243.5t-252 -89.5h-295v266h-69zM311 210h88q37 0 62 35.5t25 92.5q0 55 -24.5 88t-62.5 33h-88v-52h95v-141h-95v-56z" />
    <glyph glyph-name="Ntilde" unicode="&#xd1;" horiz-adv-x="743" 
d="M50 669h215l211 -317v317h217v-669h-211l-215 313v-313h-217v669zM128 775q0 70 36 114.5t112 44.5q33 0 58 -9t37.5 -19.5t27.5 -19.5t30 -9q20 0 32 14t12 34v3h155q1 -9 1 -27q0 -72 -37.5 -120t-110.5 -48q-39 0 -68.5 15.5t-49.5 30.5t-37 15q-20 0 -31 -14.5
t-11 -35.5v-4h-154q-2 24 -2 35z" />
    <glyph glyph-name="Ograve" unicode="&#xd2;" horiz-adv-x="762" 
d="M26 334q0 151 100.5 249t254.5 98t255.5 -98.5t101.5 -248.5q0 -149 -101 -247q-102 -99 -256 -99t-254.5 98t-100.5 248zM247 334q0 -57 39 -96q38 -40 95 -40t96 39.5t39 96.5q0 58 -39 97t-96 39q-58 0 -96 -39t-38 -97zM185 929h249l60 -206h-229z" />
    <glyph glyph-name="Oacute" unicode="&#xd3;" horiz-adv-x="762" 
d="M26 334q0 151 100.5 249t254.5 98t255.5 -98.5t101.5 -248.5q0 -149 -101 -247q-102 -99 -256 -99t-254.5 98t-100.5 248zM286 238q38 -40 95 -40t96 39.5t39 96.5q0 58 -39 97t-96 39q-58 0 -96 -39t-38 -97q0 -57 39 -96zM265 723l61 206h248l-80 -206h-229z" />
    <glyph glyph-name="Ocircumflex" unicode="&#xd4;" horiz-adv-x="762" 
d="M26 334q0 151 100.5 249t254.5 98t255.5 -98.5t101.5 -248.5q0 -149 -101 -247q-102 -99 -256 -99t-254.5 98t-100.5 248zM121 723l144 215h233l142 -215h-213l-46 88l-47 -88h-213zM247 334q0 -57 39 -96q38 -40 95 -40t96 39.5t39 96.5q0 58 -39 97t-96 39
q-58 0 -96 -39t-38 -97z" />
    <glyph glyph-name="Otilde" unicode="&#xd5;" horiz-adv-x="762" 
d="M127 583q100 98 254 98t255.5 -98.5t101.5 -248.5q0 -149 -101 -247q-102 -99 -256 -99t-254.5 98t-100.5 248q0 151 101 249zM140 771q0 71 36 116t113 45q33 0 58 -9t37.5 -19.5t27.5 -19.5t30 -9q20 0 32 14t12 34v3h155q1 -9 1 -27q0 -72 -37.5 -120t-110.5 -48
q-39 0 -68.5 15.5t-49.5 30.5t-37 15q-20 0 -31 -14.5t-11 -35.5v-4h-155q-2 22 -2 33zM286 238q38 -40 95 -40t96 39.5t39 96.5q0 58 -39 97t-96 39q-58 0 -96 -39t-38 -97q0 -57 39 -96z" />
    <glyph glyph-name="Odieresis" unicode="&#xd6;" horiz-adv-x="762" 
d="M127 583q100 98 254 98t255.5 -98.5t101.5 -248.5q0 -149 -101 -247q-102 -99 -256 -99t-254.5 98t-100.5 248q0 151 101 249zM247 334q0 -57 39 -96q38 -40 95 -40t96 39.5t39 96.5q0 58 -39 97t-96 39q-58 0 -96 -39t-38 -97zM167 924q34 34 84 34t84.5 -34t34.5 -84
q0 -51 -34 -85q-35 -35 -85 -35t-84.5 34.5t-34.5 85.5q0 49 35 84zM393 840q0 50 34.5 84t83.5 34q50 0 84 -34t34 -84q0 -51 -34 -85q-34 -35 -84 -35t-84 34.5t-34 85.5z" />
    <glyph glyph-name="multiply" unicode="&#xd7;" horiz-adv-x="554" 
d="M406 328l119 -118l-131 -132l-117 118l-116 -118l-131 132l116 118l-115 116l130 128l114 -114l115 116l131 -129z" />
    <glyph glyph-name="Oslash" unicode="&#xd8;" horiz-adv-x="758" 
d="M693 680l-67 -93q107 -99 107 -253q0 -149 -100.5 -247t-253.5 -98q-86 0 -159 34l-73 -99l-89 71l68 92q-100 98 -100 247q0 150 100 248t253 98q84 0 158 -33l70 95zM379 478q-61 0 -102 -41.5t-41 -102.5q0 -42 20 -74l157 214q-15 4 -34 4zM379 190q61 0 102 42
t41 102q0 45 -23 80l-158 -219q20 -5 38 -5z" />
    <glyph glyph-name="Ugrave" unicode="&#xd9;" horiz-adv-x="708" 
d="M44 669h230v-376q0 -35 20.5 -58.5t59.5 -23.5q38 0 59 24t21 58v376h230v-394q0 -128 -87 -207t-223 -79t-223 79t-87 207v394zM406 931l61 -205h-229l-80 205h248z" />
    <glyph glyph-name="Uacute" unicode="&#xda;" horiz-adv-x="708" 
d="M44 669h230v-376q0 -35 20.5 -58.5t59.5 -23.5q38 0 59 24t21 58v376h230v-394q0 -128 -87 -207t-223 -79t-223 79t-87 207v394zM238 726l60 205h249l-80 -205h-229z" />
    <glyph glyph-name="Ucircumflex" unicode="&#xdb;" horiz-adv-x="708" 
d="M44 669h230v-376q0 -35 20.5 -58.5t59.5 -23.5q38 0 59 24t21 58v376h230v-394q0 -128 -87 -207t-223 -79t-223 79t-87 207v394zM94 726l144 215h232l143 -215h-213l-46 88l-48 -88h-212z" />
    <glyph glyph-name="Udieresis" unicode="&#xdc;" horiz-adv-x="708" 
d="M44 275v394h230v-376q0 -35 20.5 -58.5t59.5 -23.5q38 0 59 24t21 58v376h230v-394q0 -128 -87 -207t-223 -79t-223 79t-87 207zM140 926q34 34 84 34t84 -34t34 -84q0 -51 -34 -85q-34 -35 -84 -35t-84.5 34.5t-34.5 85.5q0 50 35 84zM366 842q0 50 34 84t84 34t84 -34
t34 -84q0 -51 -34 -85q-34 -35 -84 -35t-84 34.5t-34 85.5z" />
    <glyph glyph-name="Yacute" unicode="&#xdd;" horiz-adv-x="686" 
d="M256 669l87 -237l91 237h267l-244 -488v-181h-230v181l-238 488h267zM290 931h248l-80 -205h-229z" />
    <glyph glyph-name="Thorn" unicode="&#xde;" horiz-adv-x="664" 
d="M279 597h99q114 0 188 -72t74 -187q0 -121 -75 -192t-201 -71h-85v-75h-229v669h229v-72zM279 270h63q29 0 48 18.5t19 46.5q0 29 -18.5 48t-45.5 19h-66v-132z" />
    <glyph glyph-name="germandbls" unicode="&#xdf;" horiz-adv-x="673" 
d="M548 370q47 -22 74 -65.5t27 -102.5q0 -94 -63.5 -154t-160.5 -60q-69 0 -111 13v186q30 -8 64 -8q27 0 41.5 13t14.5 34t-14.5 32.5t-36.5 11.5h-75v156h39q31 0 49 15.5t18 39.5t-17.5 36.5t-46.5 12.5q-39 0 -63.5 -24.5t-24.5 -75.5v-610h-220v619q0 136 83 209.5
t223 73.5q125 0 200 -56.5t75 -148.5q0 -96 -75 -147z" />
    <glyph glyph-name="agrave" unicode="&#xe0;" horiz-adv-x="655" 
d="M24 266q0 121 71.5 198.5t182.5 77.5q78 0 133 -50v38h201v-530h-201v36q-56 -48 -137 -48q-110 0 -180 77.5t-70 200.5zM160 779h240l46 -180h-210zM262 202q24 -25 62 -25q37 0 61.5 25t24.5 63q0 37 -24 62t-61 25q-39 0 -63.5 -24.5t-24.5 -63.5q0 -38 25 -62z" />
    <glyph glyph-name="aacute" unicode="&#xe1;" horiz-adv-x="655" 
d="M24 266q0 121 71.5 198.5t182.5 77.5q78 0 133 -50v38h201v-530h-201v36q-56 -48 -137 -48q-110 0 -180 77.5t-70 200.5zM286 778h240l-75 -180h-210zM237 264q0 -38 24.5 -62.5t62.5 -24.5q37 0 61.5 25t24.5 63q0 37 -24 62t-61 25q-39 0 -63.5 -24.5t-24.5 -63.5z" />
    <glyph glyph-name="acircumflex" unicode="&#xe2;" horiz-adv-x="655" 
d="M96 465q71 77 182 77q78 0 133 -50v38h201v-530h-201v36q-56 -48 -137 -48q-110 0 -180 77.5t-70 200.5q0 121 72 199zM113 596l125 187h204l125 -187h-187l-40 75l-40 -75h-187zM262 202q24 -25 62 -25q37 0 61.5 25t24.5 63q0 37 -24 62t-61 25q-39 0 -63.5 -24.5
t-24.5 -63.5q0 -38 25 -62z" />
    <glyph glyph-name="atilde" unicode="&#xe3;" horiz-adv-x="655" 
d="M96 465q71 77 182 77q78 0 133 -50v38h201v-530h-201v36q-56 -48 -137 -48q-110 0 -180 77.5t-70 200.5q0 121 72 199zM118 629q0 70 36.5 115t115.5 45q31 0 52.5 -9t30.5 -20.5t21 -20.5t25 -9q32 0 32 46v6h155q2 -20 2 -29q0 -70 -38.5 -118.5t-113.5 -48.5
q-37 0 -62 15.5t-41.5 31t-32.5 15.5q-17 0 -21.5 -10.5t-4.5 -33.5v-10h-154q-2 24 -2 35zM262 202q24 -25 62 -25q37 0 61.5 25t24.5 63q0 37 -24 62t-61 25q-39 0 -63.5 -24.5t-24.5 -63.5q0 -38 25 -62z" />
    <glyph glyph-name="adieresis" unicode="&#xe4;" horiz-adv-x="655" 
d="M24 266q0 121 71.5 198.5t182.5 77.5q78 0 133 -50v38h201v-530h-201v36q-56 -48 -137 -48q-110 0 -180 77.5t-70 200.5zM106 680q0 46 33 78.5t80 32.5t80 -32.5t33 -78.5q0 -48 -33 -81t-80 -33t-80 33t-33 81zM353 680q0 46 33 78.5t80 32.5t79.5 -32t32.5 -79
q0 -48 -32 -81q-33 -33 -80 -33t-80 33t-33 81zM237 264q0 -38 24.5 -62.5t62.5 -24.5q37 0 61.5 25t24.5 63q0 37 -24 62t-61 25q-39 0 -63.5 -24.5t-24.5 -63.5z" />
    <glyph glyph-name="aring" unicode="&#xe5;" horiz-adv-x="655" 
d="M96 465q71 77 182 77q78 0 133 -50v38h201v-530h-201v36q-56 -48 -137 -48q-110 0 -180 77.5t-70 200.5q0 121 72 199zM188 719q0 58 43 95.5t108 37.5t108 -37.5t43 -95.5t-43 -95q-43 -38 -108 -38t-108 37.5t-43 95.5zM262 202q24 -25 62 -25q37 0 61.5 25t24.5 63
q0 37 -24 62t-61 25q-39 0 -63.5 -24.5t-24.5 -63.5q0 -38 25 -62zM291 718q0 -21 14 -34.5t34 -13.5q21 0 35 13.5t14 34.5q0 20 -14 34t-35 14q-20 0 -34 -14t-14 -34z" />
    <glyph glyph-name="ae" unicode="&#xe6;" horiz-adv-x="934" 
d="M911 284q0 -29 -3 -62h-351q10 -71 80 -71q56 0 82 49l171 -63q-23 -72 -88.5 -110.5t-162.5 -38.5q-126 0 -193 70q-74 -70 -204 -70q-103 0 -161.5 48.5t-58.5 128.5q0 76 54.5 117t158.5 41h107q-1 16 -7.5 26t-31.5 19t-69 9q-90 0 -169 -31v156q83 39 205 39
q127 0 189 -60q73 61 183 61q118 0 193.5 -72t75.5 -186zM635 382q-57 0 -75 -57h150q-15 57 -75 57zM270 141q66 0 72 71h-72q-27 0 -39.5 -11t-12.5 -24q0 -36 52 -36z" />
    <glyph glyph-name="ccedilla" unicode="&#xe7;" horiz-adv-x="607" 
d="M23 262q0 126 82 203t217 77q108 0 183 -53t93 -149l-200 -52q-4 28 -26 46.5t-52 18.5q-36 0 -59 -25t-23 -65q0 -38 23.5 -62t60.5 -24q28 0 50.5 17.5t28.5 44.5l189 -78q-20 -66 -78 -112t-145 -58l-10 -33q40 -6 62.5 -30t22.5 -58q0 -47 -43 -78.5t-110 -31.5
q-66 0 -115 15v107q50 -14 79 -14q34 0 34 19q0 18 -31 18h-50l-8 12l31 81q-96 23 -151 93t-55 171z" />
    <glyph glyph-name="egrave" unicode="&#xe8;" 
d="M23 262q0 125 80.5 202.5t211.5 77.5q127 0 204.5 -71.5t77.5 -188.5q0 -35 -3 -62h-368q7 -33 30.5 -50.5t56.5 -17.5q64 0 86 49l174 -67q-22 -68 -90.5 -107t-165.5 -39q-134 0 -214 75t-80 199zM137 780h240l46 -180h-210zM231 326h162q-8 26 -29.5 41t-50.5 15
q-61 0 -82 -56z" />
    <glyph glyph-name="eacute" unicode="&#xe9;" 
d="M104 465q80 77 211 77q127 0 204.5 -71.5t77.5 -188.5q0 -35 -3 -62h-368q7 -33 30.5 -50.5t56.5 -17.5q64 0 86 49l174 -67q-22 -68 -90.5 -107t-165.5 -39q-134 0 -214 75t-80 199q0 125 81 203zM263 779h240l-75 -180h-210zM231 326h162q-8 26 -29.5 41t-50.5 15
q-61 0 -82 -56z" />
    <glyph glyph-name="ecircumflex" unicode="&#xea;" 
d="M104 465q80 77 211 77q127 0 204.5 -71.5t77.5 -188.5q0 -35 -3 -62h-368q7 -33 30.5 -50.5t56.5 -17.5q64 0 86 49l174 -67q-22 -68 -90.5 -107t-165.5 -39q-134 0 -214 75t-80 199q0 125 81 203zM215 784h204l125 -187h-187l-40 75l-40 -75h-187zM231 326h162
q-8 26 -29.5 41t-50.5 15q-61 0 -82 -56z" />
    <glyph glyph-name="edieresis" unicode="&#xeb;" 
d="M23 262q0 125 80.5 202.5t211.5 77.5q127 0 204.5 -71.5t77.5 -188.5q0 -35 -3 -62h-368q7 -33 30.5 -50.5t56.5 -17.5q64 0 86 49l174 -67q-22 -68 -90.5 -107t-165.5 -39q-134 0 -214 75t-80 199zM116 760q33 32 80 32t80 -32.5t33 -78.5q0 -48 -33 -81
q-33 -34 -80 -34t-80 33.5t-33 81.5q0 46 33 79zM363 760q33 32 80 32t79.5 -32.5t32.5 -78.5q0 -48 -32 -81q-33 -34 -80 -34t-80 33.5t-33 81.5q0 46 33 79zM393 326q-8 26 -29.5 41t-50.5 15q-61 0 -82 -56h162z" />
    <glyph glyph-name="igrave" unicode="&#xec;" horiz-adv-x="307" 
d="M211 779l47 -180h-211l-76 180h240zM264 0h-221v530h221v-530z" />
    <glyph glyph-name="iacute" unicode="&#xed;" horiz-adv-x="306" 
d="M262 598h-210l46 180h240zM264 0h-221v530h221v-530z" />
    <glyph glyph-name="icircumflex" unicode="&#xee;" horiz-adv-x="306" 
d="M43 530h221v-530h-221v530zM50 783h204l124 -187h-187l-40 75l-40 -75h-187z" />
    <glyph glyph-name="idieresis" unicode="&#xef;" horiz-adv-x="307" 
d="M43 530h221v-530h-221v530zM197 759q33 32 81 32q47 0 79.5 -32.5t32.5 -78.5q0 -48 -32.5 -81t-79.5 -33q-48 0 -81 33t-33 81q0 47 33 79zM-82 680q0 47 32.5 79t79.5 32t80 -32.5t33 -78.5q0 -48 -33 -81t-80 -33t-79.5 33t-32.5 81z" />
    <glyph glyph-name="eth" unicode="&#xf0;" horiz-adv-x="654" 
d="M506 741l-67 -46q189 -121 189 -370q0 -149 -86 -243t-222 -94q-133 0 -215 74t-82 193q0 111 72 180.5t187 69.5q61 0 106 -25q-32 51 -128 90l-82 -57l-40 56l40 28q-47 11 -81 17l57 172q123 -14 217 -55l95 66zM327 181q35 0 59 23.5t24 57.5q0 36 -24 60t-59 24
q-37 0 -61 -24t-24 -59t24 -58.5t61 -23.5z" />
    <glyph glyph-name="ntilde" unicode="&#xf1;" 
d="M43 0v530h209v-36q54 46 127 46q91 0 146.5 -54.5t55.5 -143.5v-342h-219v296q0 26 -12.5 40.5t-34.5 14.5t-37.5 -16.5t-15.5 -44.5v-290h-219zM69 629q0 70 36.5 115t115.5 45q31 0 52.5 -9t30.5 -20.5t21 -20.5t25 -9q32 0 32 46v6h156q1 -9 1 -27q0 -71 -38.5 -120
t-113.5 -49q-37 0 -62 15.5t-41 31t-33 15.5t-21.5 -10.5t-4.5 -27.5q0 -7 1 -16h-155q-2 24 -2 35z" />
    <glyph glyph-name="ograve" unicode="&#xf2;" horiz-adv-x="634" 
d="M105 463q82 79 213 79q130 0 212 -79.5t82 -200.5t-83 -197.5t-211 -76.5q-130 0 -213 77.5t-83 196.5q0 121 83 201zM135 779h240l47 -180h-211zM256 202q26 -26 62 -26q38 0 62 25t24 63t-24 63.5t-61 25.5t-63 -25.5t-26 -63.5q0 -37 26 -62z" />
    <glyph glyph-name="oacute" unicode="&#xf3;" horiz-adv-x="634" 
d="M105 463q82 79 213 79q130 0 212 -79.5t82 -200.5t-83 -197.5t-211 -76.5q-130 0 -213 77.5t-83 196.5q0 121 83 201zM262 778h240l-76 -180h-210zM230 264q0 -37 26 -62.5t62 -25.5q38 0 62 25t24 63t-24 63.5t-61 25.5t-63 -25.5t-26 -63.5z" />
    <glyph glyph-name="ocircumflex" unicode="&#xf4;" horiz-adv-x="634" 
d="M105 463q82 79 213 79q130 0 212 -79.5t82 -200.5t-83 -197.5t-211 -76.5q-130 0 -213 77.5t-83 196.5q0 121 83 201zM214 783h204l124 -187h-187l-40 75l-40 -75h-187zM230 264q0 -37 26 -62.5t62 -25.5q38 0 62 25t24 63t-24 63.5t-61 25.5t-63 -25.5t-26 -63.5z" />
    <glyph glyph-name="otilde" unicode="&#xf5;" horiz-adv-x="634" 
d="M22 262q0 121 82.5 200.5t213.5 79.5q130 0 212 -79.5t82 -200.5t-83 -197.5t-211 -76.5q-130 0 -213 77.5t-83 196.5zM130 744q36 45 115 45q31 0 52.5 -9t30.5 -20.5t21 -20.5t25 -9q32 0 32 46v6h156q1 -9 1 -27q0 -71 -38.5 -120t-113.5 -49q-37 0 -62 15.5t-41 31
t-33 15.5t-21.5 -10.5t-4.5 -27.5q0 -7 1 -16h-155q-2 24 -2 35q0 70 37 115zM256 202q26 -26 62 -26q38 0 62 25t24 63t-24 63.5t-61 25.5t-63 -25.5t-26 -63.5q0 -37 26 -62z" />
    <glyph glyph-name="odieresis" unicode="&#xf6;" horiz-adv-x="634" 
d="M22 262q0 121 82.5 200.5t213.5 79.5q130 0 212 -79.5t82 -200.5t-83 -197.5t-211 -76.5q-130 0 -213 77.5t-83 196.5zM328 680q0 47 33 79t81 32q47 0 79.5 -32.5t32.5 -78.5q0 -48 -32.5 -81t-79.5 -33q-48 0 -81 33t-33 81zM115 759q32 32 79 32t80 -32.5t33 -78.5
q0 -48 -33 -81t-80 -33t-79.5 33t-32.5 81q0 47 33 79zM256 202q26 -26 62 -26q38 0 62 25t24 63t-24 63.5t-61 25.5t-63 -25.5t-26 -63.5q0 -37 26 -62z" />
    <glyph glyph-name="divide" unicode="&#xf7;" horiz-adv-x="517" 
d="M258 433q-47 0 -77.5 31t-30.5 77q0 45 30.5 75t77.5 30q46 0 76.5 -30.5t30.5 -74.5q0 -46 -30.5 -77t-76.5 -31zM494 231h-471v184h471v-184zM258 -2q-47 0 -77.5 31t-30.5 77q0 45 30.5 75.5t77.5 30.5q46 0 76.5 -30.5t30.5 -75.5t-31 -76.5t-76 -31.5z" />
    <glyph glyph-name="oslash" unicode="&#xf8;" horiz-adv-x="640" 
d="M593 554l-65 -85q90 -80 90 -207q0 -120 -83.5 -197t-214.5 -77q-78 0 -142 29l-67 -87l-69 47l66 86q-86 78 -86 199q0 122 84 201t214 79q71 0 135 -27l68 87zM321 365q-45 0 -75 -29t-30 -73q0 -26 12 -47l114 147q-14 2 -21 2zM321 164q45 0 75 28t30 71q0 32 -17 57
l-118 -152q13 -4 30 -4z" />
    <glyph glyph-name="ugrave" unicode="&#xf9;" 
d="M258 530v-299q0 -26 12.5 -40t33.5 -14q24 0 38.5 17t14.5 46v290h219v-530h-209v38q-55 -50 -137 -50q-90 0 -141 60t-51 174v308h220zM365 779l46 -180h-210l-76 180h240z" />
    <glyph glyph-name="uacute" unicode="&#xfa;" 
d="M258 530v-299q0 -26 12.5 -40t33.5 -14q24 0 38.5 17t14.5 46v290h219v-530h-209v38q-55 -50 -137 -50q-90 0 -141 60t-51 174v308h220zM206 598l45 180h240l-75 -180h-210z" />
    <glyph glyph-name="ucircumflex" unicode="&#xfb;" 
d="M38 530h220v-299q0 -26 12.5 -40t33.5 -14q24 0 38.5 17t14.5 46v290h219v-530h-209v38q-55 -50 -137 -50q-90 0 -141 60t-51 174v308zM203 783h204l125 -187h-187l-40 75l-40 -75h-187z" />
    <glyph glyph-name="udieresis" unicode="&#xfc;" 
d="M38 222v308h220v-299q0 -26 12.5 -40t33.5 -14q24 0 38.5 17t14.5 46v290h219v-530h-209v38q-55 -50 -137 -50q-90 0 -141 60t-51 174zM104 759q33 32 80 32t80 -32.5t33 -78.5q0 -48 -33 -81t-80 -33t-80 33t-33 81q0 46 33 79zM351 759q33 32 80 32t79.5 -32t32.5 -79
q0 -48 -32 -81q-33 -33 -80 -33t-80 33t-33 81q0 46 33 79z" />
    <glyph glyph-name="yacute" unicode="&#xfd;" horiz-adv-x="628" 
d="M-9 530h223l104 -310l88 310h223l-151 -460q-16 -47 -29 -80t-32.5 -69.5t-42.5 -60t-53.5 -43.5t-70.5 -29.5t-90 -9.5q-72 0 -142 29v187q62 -30 119 -30q56 0 77 14zM253 779h240l-75 -180h-211z" />
    <glyph glyph-name="thorn" unicode="&#xfe;" horiz-adv-x="662" 
d="M390 538q106 0 177 -79t71 -197q0 -119 -71 -196.5t-179 -77.5q-76 0 -130 41v-230h-215v911h215v-216q58 44 132 44zM338 173q37 0 62 25.5t25 62.5t-24.5 62.5t-61.5 25.5t-62.5 -25.5t-25.5 -62.5t25 -62.5t62 -25.5z" />
    <glyph glyph-name="ydieresis" unicode="&#xff;" horiz-adv-x="628" 
d="M214 530l104 -310l88 310h223l-151 -460q-16 -47 -29 -80t-32.5 -69.5t-42.5 -60t-53.5 -43.5t-70.5 -29.5t-90 -9.5q-72 0 -142 29v187q62 -30 119 -30q56 0 77 14l-223 552h223zM319 681q0 46 33.5 78.5t80.5 32.5q46 0 79 -32.5t33 -78.5q0 -48 -32 -81
q-33 -34 -80 -34t-80.5 33.5t-33.5 81.5zM73 681q0 46 32.5 78.5t80.5 32.5q46 0 79 -32.5t33 -78.5q0 -48 -32.5 -81.5t-79.5 -33.5q-48 0 -80.5 33.5t-32.5 81.5z" />
    <glyph glyph-name="Amacron" unicode="&#x100;" horiz-adv-x="704" 
d="M-5 0l215 669h285l210 -669h-242l-17 79h-187l-19 -79h-245zM142 904h420v-161h-420v161zM304 269h100l-52 213z" />
    <glyph glyph-name="amacron" unicode="&#x101;" horiz-adv-x="655" 
d="M24 266q0 121 71.5 198.5t182.5 77.5q78 0 133 -50v38h201v-530h-201v36q-56 -48 -137 -48q-110 0 -180 77.5t-70 200.5zM147 614v144h391v-144h-391zM262 202q24 -25 62 -25q37 0 61.5 25t24.5 63q0 37 -24 62t-61 25q-39 0 -63.5 -24.5t-24.5 -63.5q0 -38 25 -62z" />
    <glyph glyph-name="Abreve" unicode="&#x102;" horiz-adv-x="704" 
d="M210 669h285l210 -669h-242l-17 79h-187l-19 -79h-245zM281 938v-3q0 -29 19 -48.5t50 -19.5t49.5 19.5t18.5 48.5v3h180q-3 -102 -70 -156.5t-178 -54.5q-112 0 -179 54.5t-69 156.5h179zM404 269l-52 213l-48 -213h100z" />
    <glyph glyph-name="abreve" unicode="&#x103;" horiz-adv-x="655" 
d="M96 465q71 77 182 77q78 0 133 -50v38h201v-530h-201v36q-56 -48 -137 -48q-110 0 -180 77.5t-70 200.5q0 121 72 199zM118 781h160q0 -33 16.5 -52.5t45.5 -19.5q28 0 44.5 19.5t16.5 52.5h161q-3 -92 -62 -140q-60 -49 -160 -49t-160 48.5t-62 140.5zM262 202
q24 -25 62 -25q37 0 61.5 25t24.5 63q0 37 -24 62t-61 25q-39 0 -63.5 -24.5t-24.5 -63.5q0 -38 25 -62z" />
    <glyph glyph-name="Aogonek" unicode="&#x104;" horiz-adv-x="704" 
d="M613 -55q0 -23 31 -23q11 0 61 10v-139q-46 -22 -111 -22q-70 0 -109 32.5t-39 86.5q0 27 19 58t56 52h-58l-17 79h-187l-19 -79h-245l215 669h285l210 -669q-67 -21 -80 -32q-12 -10 -12 -23zM304 269h100l-52 213z" />
    <glyph glyph-name="aogonek" unicode="&#x105;" horiz-adv-x="655" 
d="M24 266q0 121 71.5 198.5t182.5 77.5q78 0 133 -50v38h201v-530q-67 -21 -80 -32q-12 -10 -12 -23q0 -23 31 -23q11 0 61 10v-139q-46 -22 -111 -22q-70 0 -108.5 32.5t-38.5 86.5q0 27 18.5 58t55.5 52h-17v36q-56 -48 -137 -48q-110 0 -180 77.5t-70 200.5zM262 202
q24 -25 62 -25q37 0 61.5 25t24.5 63q0 37 -24 62t-61 25q-39 0 -63.5 -24.5t-24.5 -63.5q0 -38 25 -62z" />
    <glyph glyph-name="Cacute" unicode="&#x106;" horiz-adv-x="706" 
d="M126 583q100 98 255 98q108 0 192.5 -50t122.5 -134l-198 -102q-16 35 -48.5 55t-72.5 20q-57 0 -93.5 -38t-36.5 -98q0 -59 37 -97.5t94 -38.5q42 0 75.5 22t47.5 59l202 -93q-35 -90 -123 -144t-200 -54q-154 0 -254 98t-100 248t100 249zM318 931h249l-80 -205h-229z
" />
    <glyph glyph-name="cacute" unicode="&#x107;" horiz-adv-x="607" 
d="M105 465q82 77 217 77q108 0 183 -53t93 -149l-200 -52q-4 28 -26 46.5t-52 18.5q-36 0 -59 -25t-23 -65q0 -38 23.5 -62t60.5 -24q28 0 50.5 17.5t28.5 44.5l189 -78q-22 -76 -94.5 -124.5t-179.5 -48.5q-133 0 -213 75.5t-80 198.5q0 126 82 203zM220 598l46 180h240
l-76 -180h-210z" />
    <glyph glyph-name="Ccircumflex" unicode="&#x108;" horiz-adv-x="706" 
d="M126 583q100 98 255 98q108 0 192.5 -50t122.5 -134l-198 -102q-16 35 -48.5 55t-72.5 20q-57 0 -93.5 -38t-36.5 -98q0 -59 37 -97.5t94 -38.5q42 0 75.5 22t47.5 59l202 -93q-35 -90 -123 -144t-200 -54q-154 0 -254 98t-100 248t100 249zM114 726l144 215h232
l143 -215h-213l-46 88l-48 -88h-212z" />
    <glyph glyph-name="ccircumflex" unicode="&#x109;" horiz-adv-x="607" 
d="M105 465q82 77 217 77q108 0 183 -53t93 -149l-200 -52q-4 28 -26 46.5t-52 18.5q-36 0 -59 -25t-23 -65q0 -38 23.5 -62t60.5 -24q28 0 50.5 17.5t28.5 44.5l189 -78q-22 -76 -94.5 -124.5t-179.5 -48.5q-133 0 -213 75.5t-80 198.5q0 126 82 203zM92 596l126 187h204
l124 -187h-187l-40 75l-40 -75h-187z" />
    <glyph glyph-name="Cdotaccent" unicode="&#x10a;" horiz-adv-x="706" 
d="M26 334q0 150 100 248.5t255 98.5q108 0 192.5 -50t122.5 -134l-198 -102q-16 35 -48.5 55t-72.5 20q-57 0 -93.5 -38t-36.5 -98q0 -59 37 -97.5t94 -38.5q42 0 75.5 22t47.5 59l202 -93q-35 -90 -123 -144t-200 -54q-154 0 -254 98t-100 248zM259 829q0 49 33.5 82.5
t81.5 33.5q49 0 82.5 -33.5t33.5 -82.5q0 -47 -33.5 -80t-82.5 -33q-48 0 -81.5 33t-33.5 80z" />
    <glyph glyph-name="cdotaccent" unicode="&#x10b;" horiz-adv-x="607" 
d="M105 465q82 77 217 77q108 0 183 -53t93 -149l-200 -52q-4 28 -26 46.5t-52 18.5q-36 0 -59 -25t-23 -65q0 -38 23.5 -62t60.5 -24q28 0 50.5 17.5t28.5 44.5l189 -78q-22 -76 -94.5 -124.5t-179.5 -48.5q-133 0 -213 75.5t-80 198.5q0 126 82 203zM207 677q0 49 33 82
t82 33q48 0 81 -33t33 -82q0 -47 -33 -80t-81 -33q-49 0 -82 33t-33 80z" />
    <glyph glyph-name="Ccaron" unicode="&#x10c;" horiz-adv-x="706" 
d="M126 583q100 98 255 98q108 0 192.5 -50t122.5 -134l-198 -102q-16 35 -48.5 55t-72.5 20q-57 0 -93.5 -38t-36.5 -98q0 -59 37 -97.5t94 -38.5q42 0 75.5 22t47.5 59l202 -93q-35 -90 -123 -144t-200 -54q-154 0 -254 98t-100 248t100 249zM114 941h213l47 -87l46 87
h214l-144 -215h-232z" />
    <glyph glyph-name="ccaron" unicode="&#x10d;" horiz-adv-x="607" 
d="M105 465q82 77 217 77q108 0 183 -53t93 -149l-200 -52q-4 28 -26 46.5t-52 18.5q-36 0 -59 -25t-23 -65q0 -38 23.5 -62t60.5 -24q28 0 50.5 17.5t28.5 44.5l189 -78q-22 -76 -94.5 -124.5t-179.5 -48.5q-133 0 -213 75.5t-80 198.5q0 126 82 203zM94 781h188l40 -76
l40 76h187l-125 -187h-204z" />
    <glyph glyph-name="Dcaron" unicode="&#x10e;" horiz-adv-x="714" 
d="M50 669h288q166 0 257 -90.5t91 -245.5q0 -154 -89 -243.5t-252 -89.5h-295v669zM286 941l48 -87l45 87h214l-143 -215h-233l-144 215h213zM279 459v-249h88q37 0 62 35.5t25 92.5q0 55 -24.5 88t-62.5 33h-88z" />
    <glyph glyph-name="dcaron" unicode="&#x10f;" horiz-adv-x="693" 
d="M24 263q0 118 72.5 197t181.5 79q71 0 128 -44v214h212v-709h-208v35q-60 -47 -138 -47q-106 0 -177 78.5t-71 196.5zM650 561l26 207h215l-49 -207h-192zM262 201q24 -25 61 -25t62 25t25 61q0 38 -24.5 63t-61.5 25q-38 0 -62.5 -25t-24.5 -63q0 -36 25 -61z" />
    <glyph glyph-name="Dcroat" unicode="&#x110;" horiz-adv-x="745" 
d="M13 266v141h69v262h288q166 0 257 -90.5t91 -245.5q0 -154 -89 -243.5t-252 -89.5h-295v266h-69zM311 210h88q37 0 62 35.5t25 92.5q0 55 -24.5 88t-62.5 33h-88v-52h95v-141h-95v-56z" />
    <glyph glyph-name="dcroat" unicode="&#x111;" horiz-adv-x="662" 
d="M24 263q0 118 72.5 197t181.5 79q71 0 128 -44v60h-90v98h90v56h212v-56h61v-98h-61v-555h-208v35q-60 -47 -138 -47q-106 0 -177 78.5t-71 196.5zM237 262q0 -36 25 -61q24 -25 61 -25t62 25t25 61q0 38 -24.5 63t-61.5 25q-38 0 -62.5 -25t-24.5 -63z" />
    <glyph glyph-name="Emacron" unicode="&#x112;" horiz-adv-x="609" 
d="M50 0v669h508v-192h-286v-55h278v-174h-278v-56h297v-192h-519zM512 904v-161h-421v161h421z" />
    <glyph glyph-name="emacron" unicode="&#x113;" 
d="M23 262q0 125 80.5 202.5t211.5 77.5q127 0 204.5 -71.5t77.5 -188.5q0 -35 -3 -62h-368q7 -33 30.5 -50.5t56.5 -17.5q64 0 86 49l174 -67q-22 -68 -90.5 -107t-165.5 -39q-134 0 -214 75t-80 199zM515 759v-145h-391v145h391zM231 326h162q-8 26 -29.5 41t-50.5 15
q-61 0 -82 -56z" />
    <glyph glyph-name="Ebreve" unicode="&#x114;" horiz-adv-x="609" 
d="M558 669v-192h-286v-55h278v-174h-278v-56h297v-192h-519v669h508zM230 938q0 -31 19 -51t50 -20t50 19.5t19 48.5v3h179q-2 -102 -69 -156q-67 -55 -179 -55t-179 54.5t-69 156.5h179z" />
    <glyph glyph-name="ebreve" unicode="&#x115;" 
d="M104 465q80 77 211 77q127 0 204.5 -71.5t77.5 -188.5q0 -35 -3 -62h-368q7 -33 30.5 -50.5t56.5 -17.5q64 0 86 49l174 -67q-22 -68 -90.5 -107t-165.5 -39q-134 0 -214 75t-80 199q0 125 81 203zM255 782q0 -33 16.5 -52.5t45.5 -19.5q28 0 44.5 19.5t16.5 52.5h160
q-2 -92 -62 -140.5t-159 -48.5q-101 0 -160.5 48.5t-62.5 140.5h161zM393 326q-8 26 -29.5 41t-50.5 15q-61 0 -82 -56h162z" />
    <glyph glyph-name="Edotaccent" unicode="&#x116;" horiz-adv-x="609" 
d="M50 669h508v-192h-286v-55h278v-174h-278v-56h297v-192h-519v669zM219 912q33 33 82 33q48 0 82 -33.5t34 -82.5q0 -47 -34 -80t-82 -33q-49 0 -82.5 33t-33.5 80q0 49 34 83z" />
    <glyph glyph-name="edotaccent" unicode="&#x117;" 
d="M104 465q80 77 211 77q127 0 204.5 -71.5t77.5 -188.5q0 -35 -3 -62h-368q7 -33 30.5 -50.5t56.5 -17.5q64 0 86 49l174 -67q-22 -68 -90.5 -107t-165.5 -39q-134 0 -214 75t-80 199q0 125 81 203zM204 678q0 49 33.5 82t81.5 33q49 0 81.5 -33t32.5 -82
q0 -48 -32.5 -80.5t-81.5 -32.5q-48 0 -81.5 33t-33.5 80zM231 326h162q-8 26 -29.5 41t-50.5 15q-61 0 -82 -56z" />
    <glyph glyph-name="Eogonek" unicode="&#x118;" horiz-adv-x="610" 
d="M558 669v-192h-286v-55h278v-174h-278v-56h297v-192q-67 -21 -80 -32q-12 -10 -12 -23q0 -23 31 -23q11 0 61 10v-139q-46 -22 -111 -22q-70 0 -109 32.5t-39 86.5q0 27 19 58t56 52h-335v669h508z" />
    <glyph glyph-name="eogonek" unicode="&#x119;" 
d="M104 465q80 77 211 77q127 0 204.5 -71.5t77.5 -188.5q0 -35 -3 -62h-368q7 -33 30.5 -50.5t56.5 -17.5q64 0 86 49l174 -67q-32 -98 -158 -135q-30 -9 -46 -19t-16 -28q0 -24 31 -24q6 0 61 11v-146q-49 -22 -111 -22q-70 0 -109 34t-39 89q0 57 54 101q-101 21 -159 92
t-58 175q0 125 81 203zM231 326h162q-8 26 -29.5 41t-50.5 15q-61 0 -82 -56z" />
    <glyph glyph-name="Ecaron" unicode="&#x11a;" horiz-adv-x="610" 
d="M51 669h508v-192h-286v-55h278v-174h-278v-56h297v-192h-519v669zM254 941l48 -87l45 87h214l-143 -215h-233l-144 215h213z" />
    <glyph glyph-name="ecaron" unicode="&#x11b;" 
d="M104 465q80 77 211 77q127 0 204.5 -71.5t77.5 -188.5q0 -35 -3 -62h-368q7 -33 30.5 -50.5t56.5 -17.5q64 0 86 49l174 -67q-22 -68 -90.5 -107t-165.5 -39q-134 0 -214 75t-80 199q0 125 81 203zM92 782h187l40 -76l40 76h187l-124 -188h-204zM231 326h162
q-8 26 -29.5 41t-50.5 15q-61 0 -82 -56z" />
    <glyph glyph-name="Gcircumflex" unicode="&#x11c;" horiz-adv-x="756" 
d="M25 335q0 152 102 249t263 97q92 0 161 -26t127 -85l-172 -148q-43 50 -115 50q-64 0 -100 -39.5t-36 -97.5q0 -60 38 -99.5t97 -39.5q42 0 72.5 17.5t30.5 36.5h-114v158h352v-81q0 -156 -97 -247.5t-247 -91.5q-160 0 -261 96t-101 251zM130 725l144 215h232l143 -215
h-213l-46 88l-48 -88h-212z" />
    <glyph glyph-name="gcircumflex" unicode="&#x11d;" horiz-adv-x="658" 
d="M96 466q70 74 176 74q77 0 138 -43v33h206v-477q0 -126 -86 -200.5t-233 -74.5q-113 0 -227 48v182q116 -50 208 -50q59 0 95 25.5t36 74.5v4q-57 -43 -138 -43q-106 0 -176 72.5t-70 185.5q0 114 71 189zM246 782h204l125 -187h-187l-40 75l-40 -75h-187zM239 270
q0 -35 24 -58t60 -23q35 0 59.5 23.5t24.5 57.5q0 35 -23.5 59t-58.5 24q-37 0 -61.5 -24t-24.5 -59z" />
    <glyph glyph-name="Gbreve" unicode="&#x11e;" horiz-adv-x="756" 
d="M25 335q0 152 102 249t263 97q92 0 161 -26t127 -85l-172 -148q-43 50 -115 50q-64 0 -100 -39.5t-36 -97.5q0 -60 38 -99.5t97 -39.5q42 0 72.5 17.5t30.5 36.5h-114v158h352v-81q0 -156 -97 -247.5t-247 -91.5q-160 0 -261 96t-101 251zM320 938v-3q0 -30 19 -49.5
t50 -19.5t50 20t19 52h179q-2 -103 -69 -157q-67 -55 -179 -55t-179 54.5t-69 157.5h179z" />
    <glyph glyph-name="gbreve" unicode="&#x11f;" horiz-adv-x="658" 
d="M96 466q70 74 176 74q77 0 138 -43v33h206v-477q0 -126 -86 -200.5t-233 -74.5q-113 0 -227 48v182q116 -50 208 -50q59 0 95 25.5t36 74.5v4q-57 -43 -138 -43q-106 0 -176 72.5t-70 185.5q0 114 71 189zM126 780h160q0 -33 16.5 -52.5t45.5 -19.5q28 0 44.5 19.5
t16.5 52.5h161q-3 -92 -62 -140q-60 -49 -160 -49t-160 48.5t-62 140.5zM263 212q24 -23 60 -23q35 0 59.5 23.5t24.5 57.5q0 35 -23.5 59t-58.5 24q-37 0 -61.5 -24t-24.5 -59t24 -58z" />
    <glyph glyph-name="Gdotaccent" unicode="&#x120;" horiz-adv-x="756" 
d="M25 335q0 152 102 249t263 97q92 0 161 -26t127 -85l-172 -148q-43 50 -115 50q-64 0 -100 -39.5t-36 -97.5q0 -60 38 -99.5t97 -39.5q42 0 72.5 17.5t30.5 36.5h-114v158h352v-81q0 -156 -97 -247.5t-247 -91.5q-160 0 -261 96t-101 251zM275 829q0 48 33.5 81.5
t81.5 33.5q49 0 82.5 -33.5t33.5 -81.5q0 -47 -33.5 -80.5t-82.5 -33.5q-48 0 -81.5 33.5t-33.5 80.5z" />
    <glyph glyph-name="gdotaccent" unicode="&#x121;" horiz-adv-x="658" 
d="M25 277q0 114 70.5 188.5t176.5 74.5q77 0 138 -43v33h206v-477q0 -126 -86 -200.5t-233 -74.5q-113 0 -227 48v182q116 -50 208 -50q59 0 95 25.5t36 74.5v4q-57 -43 -138 -43q-106 0 -176 72.5t-70 185.5zM235 677q0 48 33.5 81.5t81.5 33.5q49 0 82 -33.5t33 -81.5
q0 -47 -33 -80q-34 -34 -82 -34t-81.5 33.5t-33.5 80.5zM263 212q24 -23 60 -23q35 0 59.5 23.5t24.5 57.5q0 35 -23.5 59t-58.5 24q-37 0 -61.5 -24t-24.5 -59t24 -58z" />
    <glyph glyph-name="uni0122" unicode="&#x122;" horiz-adv-x="756" 
d="M25 335q0 152 102 249t263 97q92 0 161 -26t127 -85l-172 -148q-43 50 -115 50q-64 0 -100 -39.5t-36 -97.5q0 -60 38 -99.5t97 -39.5q42 0 72.5 17.5t30.5 36.5h-114v158h352v-81q0 -156 -97 -247.5t-247 -91.5q-160 0 -261 96t-101 251zM259 -45h235l-49 -202h-218z
" />
    <glyph glyph-name="uni0123" unicode="&#x123;" horiz-adv-x="658" 
d="M25 277q0 114 70.5 188.5t176.5 74.5q77 0 138 -43v33h206v-477q0 -126 -86 -200.5t-233 -74.5q-113 0 -227 48v182q116 -50 208 -50q59 0 95 25.5t36 74.5v4q-57 -43 -138 -43q-106 0 -176 72.5t-70 185.5zM276 777h198l-32 -194h-223zM239 270q0 -35 24 -58t60 -23
q35 0 59.5 23.5t24.5 57.5q0 35 -23.5 59t-58.5 24q-37 0 -61.5 -24t-24.5 -59z" />
    <glyph glyph-name="Hcircumflex" unicode="&#x124;" horiz-adv-x="738" 
d="M50 669h233v-249h171v249h233v-669h-233v208h-171v-208h-233v669zM108 726l144 215h233l142 -215h-213l-46 88l-47 -88h-213z" />
    <glyph glyph-name="hcircumflex" unicode="&#x125;" horiz-adv-x="618" 
d="M42 684h220v-175q50 31 116 31q91 0 146.5 -54.5t55.5 -143.5v-342h-220v297q0 54 -46 54q-23 0 -37.5 -16t-14.5 -45v-290h-220v684zM-108 726l144 215h233l142 -215h-213l-46 88l-47 -88h-213z" />
    <glyph glyph-name="Hbar" unicode="&#x126;" horiz-adv-x="808" 
d="M14 477v127h72v65h232v-65h172v65h232v-65h72v-127h-72v-477h-232v208h-172v-208h-232v477h-72zM318 420h172v57h-172v-57z" />
    <glyph glyph-name="hbar" unicode="&#x127;" 
d="M-10 658h53v52h219v-52h91v-98h-91v-52q51 32 117 32q91 0 146.5 -54.5t55.5 -143.5v-342h-220v297q0 54 -46 54q-23 0 -38 -16.5t-15 -44.5v-290h-219v560h-53v98z" />
    <glyph glyph-name="Itilde" unicode="&#x128;" horiz-adv-x="331" 
d="M281 669v-669h-231v669h231zM-73 775q0 70 35.5 114.5t112.5 44.5q41 0 69.5 -14t47 -28t36.5 -14q21 0 32.5 13.5t11.5 34.5v3h155q2 -20 2 -29q0 -71 -38 -118.5t-111 -47.5q-39 0 -68 15t-49 30t-37 15q-20 0 -31.5 -14t-11.5 -35v-4h-154q-2 22 -2 34z" />
    <glyph glyph-name="itilde" unicode="&#x129;" horiz-adv-x="306" 
d="M42 530h221v-530h-221v530zM-72 629q0 70 36.5 115t115.5 45q31 0 52.5 -9t31 -20.5t21.5 -20.5t25 -9q32 0 32 49v3h155q1 -9 1 -27q0 -71 -38.5 -120t-113.5 -49q-37 0 -62 15.5t-41 31t-33 15.5t-21.5 -10.5t-4.5 -27.5q0 -7 1 -16h-155q-2 24 -2 35z" />
    <glyph glyph-name="Imacron" unicode="&#x12a;" horiz-adv-x="332" 
d="M379 743h-421v161h421v-161zM50 0v669h231v-669h-231z" />
    <glyph glyph-name="imacron" unicode="&#x12b;" horiz-adv-x="306" 
d="M350 614h-392v144h392v-144zM264 0h-221v530h221v-530z" />
    <glyph glyph-name="Ibreve" unicode="&#x12c;" horiz-adv-x="330" 
d="M50 669h230v-669h-230v669zM97 938v-3q0 -29 19 -48.5t50 -19.5t49.5 19.5t18.5 48.5v3h180q-3 -102 -70 -156.5t-178 -54.5q-112 0 -179 54.5t-69 156.5h179z" />
    <glyph glyph-name="ibreve" unicode="&#x12d;" horiz-adv-x="306" 
d="M43 0v530h221v-530h-221zM-71 781h161q0 -33 16 -52.5t45 -19.5t45 19.5t16 52.5h161q-2 -92 -62 -140q-60 -49 -160 -49t-160 48.5t-62 140.5z" />
    <glyph glyph-name="Iogonek" unicode="&#x12e;" horiz-adv-x="331" 
d="M22 -110q0 27 19 58t56 52h-47v669h231v-669q-67 -21 -80 -32q-12 -10 -12 -23q0 -23 31 -23q11 0 61 10v-139q-46 -22 -111 -22q-70 0 -109 32.5t-39 86.5z" />
    <glyph glyph-name="iogonek" unicode="&#x12f;" horiz-adv-x="306" 
d="M25 -52q18 31 55 52h-38v530h221v-530h1q-67 -21 -80 -32q-12 -10 -12 -23q0 -23 31 -23q11 0 61 10v-139q-46 -22 -111 -22q-70 0 -108.5 32.5t-38.5 86.5q0 27 19 58zM65 774q35 36 88 36q52 0 87.5 -36t35.5 -88q0 -51 -35 -86q-36 -36 -88 -36t-88 35.5t-36 86.5
q0 52 36 88z" />
    <glyph glyph-name="Idotaccent" unicode="&#x130;" horiz-adv-x="332" 
d="M282 669v-669h-231v669h231zM87 912q33 33 82 33q48 0 82 -33.5t34 -82.5q0 -47 -34 -80t-82 -33q-49 0 -82.5 33t-33.5 80q0 49 34 83z" />
    <glyph glyph-name="dotlessi" unicode="&#x131;" horiz-adv-x="307" 
d="M264 0h-221v530h221v-530z" />
    <glyph glyph-name="IJ" unicode="&#x132;" horiz-adv-x="822" 
d="M335 216q72 -14 127 -14q30 0 48.5 7.5t25.5 23t8.5 26t1.5 30.5v380h232v-423q0 -127 -73 -192t-200 -65q-92 0 -170 25v202zM50 669h231v-669h-231v669z" />
    <glyph glyph-name="ij" unicode="&#x133;" horiz-adv-x="627" 
d="M315 -27q10 0 18 2t13 4t8.5 7t5.5 7.5t3 10t1 9.5v517h220v-559q0 -85 -58 -139t-149 -54q-67 0 -125 23v185q28 -13 63 -13zM42 530h221v-530h-221v530zM65 774q35 36 88 36q52 0 87.5 -36t35.5 -88q0 -51 -35 -86q-36 -36 -88 -36t-88 35.5t-36 86.5q0 52 36 88z
M350 688q0 52 36.5 87.5t87.5 35.5q52 0 88 -35.5t36 -87.5t-36 -87t-88 -35t-88 35t-36 87z" />
    <glyph glyph-name="Jcircumflex" unicode="&#x134;" horiz-adv-x="506" 
d="M143 202q30 0 49 7.5t26 23t8.5 26t1.5 30.5v380h231v-423q0 -127 -73 -192t-200 -65q-91 0 -169 25v202q70 -14 126 -14zM234 941h232l143 -215h-213l-46 88l-48 -88h-212z" />
    <glyph glyph-name="jcircumflex" unicode="&#x135;" horiz-adv-x="318" 
d="M2 -27q54 0 54 58v499h219v-555q0 -89 -60.5 -143t-165.5 -54q-76 0 -139 23v185q49 -13 92 -13zM62 783h204l125 -187h-187l-40 75l-40 -75h-187z" />
    <glyph glyph-name="uni0136" unicode="&#x136;" horiz-adv-x="699" 
d="M50 669h231v-258l154 258h268l-218 -348l216 -321h-281l-139 227v-227h-231v669zM237 -46h235l-50 -203h-217z" />
    <glyph glyph-name="uni0137" unicode="&#x137;" horiz-adv-x="607" 
d="M261 701v-337l105 166h251l-161 -251l155 -279h-255l-95 192v-192h-218v701h218zM138 -245l47 196h218l-67 -196h-198z" />
    <glyph glyph-name="kgreenlandic" unicode="&#x138;" horiz-adv-x="606" 
d="M43 530h219v-175l104 175h250l-162 -263l158 -267h-255l-94 176h-1v-176h-219v530z" />
    <glyph glyph-name="Lacute" unicode="&#x139;" horiz-adv-x="566" 
d="M282 726h-230l61 205h249zM551 0h-501v669h231v-470h270v-199z" />
    <glyph glyph-name="lacute" unicode="&#x13a;" horiz-adv-x="308" 
d="M254 764h-204l55 206h221zM266 701v-701h-223v701h223z" />
    <glyph glyph-name="uni013B" unicode="&#x13b;" horiz-adv-x="566" 
d="M551 0h-501v669h231v-470h270v-199zM382 -247h-217l32 202h235z" />
    <glyph glyph-name="uni013C" unicode="&#x13c;" horiz-adv-x="311" 
d="M268 701v-701h-222v701h222zM192 -243h-198l47 196h218z" />
    <glyph glyph-name="Lcaron" unicode="&#x13d;" horiz-adv-x="585" 
d="M554 562h-192l26 208h215zM551 0h-501v669h231v-470h270v-199z" />
    <glyph glyph-name="lcaron" unicode="&#x13e;" horiz-adv-x="339" 
d="M482 562h-192l26 208h215zM266 701v-701h-223v701h223z" />
    <glyph glyph-name="Ldot" unicode="&#x13f;" horiz-adv-x="577" 
d="M50 669h231v-470h270v-199h-501v669zM326 413q0 46 32.5 78t79.5 32t79 -31.5t32 -78.5t-32 -79q-32 -33 -79 -33t-79.5 32.5t-32.5 79.5z" />
    <glyph glyph-name="ldot" unicode="&#x140;" horiz-adv-x="533" 
d="M266 701v-701h-223v701h223zM342 424q32 32 79 32t79.5 -32t32.5 -78q0 -47 -32 -79q-33 -33 -80 -33t-79.5 32.5t-32.5 79.5q0 46 33 78z" />
    <glyph glyph-name="Lslash" unicode="&#x141;" horiz-adv-x="592" 
d="M76 418v251h230v-126l69 37v-193l-69 -37v-151h271v-199h-501v226l-56 -30v192z" />
    <glyph glyph-name="lslash" unicode="&#x142;" horiz-adv-x="418" 
d="M30 354l63 41v306h222v-161l76 50v-210l-76 -50v-330h-222v184l-63 -42v212z" />
    <glyph glyph-name="Nacute" unicode="&#x143;" horiz-adv-x="743" 
d="M50 669h215l211 -317v317h217v-669h-211l-215 313v-313h-217v669zM313 930h249l-80 -205h-230z" />
    <glyph glyph-name="nacute" unicode="&#x144;" 
d="M252 530v-36q54 46 127 46q91 0 146.5 -54.5t55.5 -143.5v-342h-219v296q0 26 -12.5 40.5t-34.5 14.5t-37.5 -16.5t-15.5 -44.5v-290h-219v530h209zM238 778h240l-76 -180h-210z" />
    <glyph glyph-name="uni0145" unicode="&#x145;" horiz-adv-x="743" 
d="M50 669h215l211 -317v317h217v-669h-211l-215 313v-313h-217v669zM222 -247l32 202h235l-50 -202h-217z" />
    <glyph glyph-name="uni0146" unicode="&#x146;" 
d="M252 530v-36q54 46 127 46q91 0 146.5 -54.5t55.5 -143.5v-342h-219v296q0 26 -12.5 40.5t-34.5 14.5t-37.5 -16.5t-15.5 -44.5v-290h-219v530h209zM184 -49h218l-67 -196h-198z" />
    <glyph glyph-name="Ncaron" unicode="&#x147;" horiz-adv-x="743" 
d="M50 669h215l211 -317v317h217v-669h-211l-215 313v-313h-217v669zM108 940h214l47 -87l45 87h214l-143 -214h-233z" />
    <glyph glyph-name="ncaron" unicode="&#x148;" 
d="M252 530v-36q54 46 127 46q91 0 146.5 -54.5t55.5 -143.5v-342h-219v296q0 26 -12.5 40.5t-34.5 14.5t-37.5 -16.5t-15.5 -44.5v-290h-219v530h209zM66 781h188l40 -76l40 76h187l-125 -187h-204z" />
    <glyph glyph-name="Eng" unicode="&#x14a;" horiz-adv-x="743" 
d="M50 0v669h215l211 -317v317h217v-674q0 -109 -69.5 -163t-195.5 -54q-75 0 -167 21v176q71 -11 126 -11q48 0 64 14.5t18 40.5l-202 294v-313h-217z" />
    <glyph glyph-name="eng" unicode="&#x14b;" 
d="M252 530v-36q54 46 127 46q91 0 146.5 -54.5t55.5 -143.5v-372q0 -85 -58 -138.5t-148 -53.5q-67 0 -125 23v169q30 -13 64 -13q15 0 25 3t14 11t5.5 12.5t2.5 16.5t1 15v281q0 26 -12.5 40.5t-34.5 14.5t-37.5 -16.5t-15.5 -44.5v-290h-219v530h209z" />
    <glyph glyph-name="Omacron" unicode="&#x14c;" horiz-adv-x="762" 
d="M26 334q0 151 100.5 249t254.5 98t255.5 -98.5t101.5 -248.5q0 -149 -101 -247q-102 -99 -256 -99t-254.5 98t-100.5 248zM593 902v-161h-421v161h421zM286 238q38 -40 95 -40t96 39.5t39 96.5q0 58 -39 97t-96 39q-58 0 -96 -39t-38 -97q0 -57 39 -96z" />
    <glyph glyph-name="omacron" unicode="&#x14d;" horiz-adv-x="634" 
d="M105 463q82 79 213 79q130 0 212 -79.5t82 -200.5t-83 -197.5t-211 -76.5q-130 0 -213 77.5t-83 196.5q0 121 83 201zM122 758h392v-144h-392v144zM230 264q0 -37 26 -62.5t62 -25.5q38 0 62 25t24 63t-24 63.5t-61 25.5t-63 -25.5t-26 -63.5z" />
    <glyph glyph-name="Obreve" unicode="&#x14e;" horiz-adv-x="762" 
d="M127 583q100 98 254 98t255.5 -98.5t101.5 -248.5q0 -149 -101 -247q-102 -99 -256 -99t-254.5 98t-100.5 248q0 151 101 249zM132 936h179v-3q0 -30 19 -49t50 -19t50 19t19 49v3h179q-2 -102 -69 -156q-67 -55 -179 -55t-179 54.5t-69 156.5zM286 238q38 -40 95 -40
t96 39.5t39 96.5q0 58 -39 97t-96 39q-58 0 -96 -39t-38 -97q0 -57 39 -96z" />
    <glyph glyph-name="obreve" unicode="&#x14f;" horiz-adv-x="634" 
d="M105 463q82 79 213 79q130 0 212 -79.5t82 -200.5t-83 -197.5t-211 -76.5q-130 0 -213 77.5t-83 196.5q0 121 83 201zM254 781q0 -33 16 -52.5t45 -19.5t45 19.5t16 52.5h161q-2 -92 -62 -140q-60 -49 -160 -49t-160 48.5t-62 140.5h161zM256 202q26 -26 62 -26
q38 0 62 25t24 63t-24 63.5t-61 25.5t-63 -25.5t-26 -63.5q0 -37 26 -62z" />
    <glyph glyph-name="Ohungarumlaut" unicode="&#x150;" horiz-adv-x="762" 
d="M26 334q0 151 100.5 249t254.5 98t255.5 -98.5t101.5 -248.5q0 -149 -101 -247q-102 -99 -256 -99t-254.5 98t-100.5 248zM286 238q38 -40 95 -40t96 39.5t39 96.5q0 58 -39 97t-96 39q-58 0 -96 -39t-38 -97q0 -57 39 -96zM394 723l65 206h235l-76 -206h-224zM137 723
l44 206h236l-60 -206h-220z" />
    <glyph glyph-name="ohungarumlaut" unicode="&#x151;" horiz-adv-x="634" 
d="M105 463q82 79 213 79q130 0 212 -79.5t82 -200.5t-83 -197.5t-211 -76.5q-130 0 -213 77.5t-83 196.5q0 121 83 201zM328 598l56 180h225l-66 -180h-215zM122 778h227l-52 -180h-211zM230 264q0 -37 26 -62.5t62 -25.5q38 0 62 25t24 63t-24 63.5t-61 25.5t-63 -25.5
t-26 -63.5z" />
    <glyph glyph-name="OE" unicode="&#x152;" horiz-adv-x="1046" 
d="M732 249v-58h275v-191h-487v39q-69 -50 -170 -50q-140 0 -232 98t-92 247t92 247.5t232 98.5q101 0 170 -50v39h476v-191h-264v-56h252v-173h-252zM381 193q55 0 94 36t45 89v35q-6 52 -45.5 87.5t-95.5 35.5q-58 0 -98 -41.5t-40 -99.5t40.5 -100t99.5 -42z" />
    <glyph glyph-name="oe" unicode="&#x153;" horiz-adv-x="963" 
d="M940 284q0 -28 -3 -61h-349q10 -69 80 -69q54 0 76 43l171 -67q-26 -69 -89.5 -105.5t-158.5 -36.5q-121 0 -188 63q-72 -63 -180 -63q-118 0 -197 78.5t-79 194.5q0 120 79.5 200.5t198.5 80.5q109 0 180 -67q74 67 189 67q119 0 194.5 -72t75.5 -186zM663 380
q-55 0 -71 -53h143q-17 53 -72 53zM312 170q37 0 60 26t23 67q0 43 -23 69.5t-60 26.5q-38 0 -62 -27t-24 -69q0 -41 24 -67t62 -26z" />
    <glyph glyph-name="Racute" unicode="&#x154;" horiz-adv-x="688" 
d="M50 0v669h362q104 0 172 -69t68 -174q0 -67 -27 -121t-75 -86l120 -219h-272l-83 171h-36v-171h-229zM221 726l61 205h248l-80 -205h-229zM279 474v-120h85q25 0 41 17t16 43t-16.5 43t-41.5 17h-84z" />
    <glyph glyph-name="racute" unicode="&#x155;" horiz-adv-x="454" 
d="M43 0v530h209v-43q43 54 119 54q31 0 62 -13l-3 -214q-42 14 -68 14q-100 0 -100 -99v-229h-219zM174 779h240l-75 -180h-210z" />
    <glyph glyph-name="uni0156" unicode="&#x156;" horiz-adv-x="688" 
d="M50 669h362q104 0 172 -69t68 -174q0 -67 -27 -121t-75 -86l120 -219h-272l-83 171h-36v-171h-229v669zM190 -245l32 203h235l-50 -203h-217zM279 354h85q25 0 41 17t16 43t-16.5 43t-41.5 17h-84v-120z" />
    <glyph glyph-name="uni0157" unicode="&#x157;" horiz-adv-x="455" 
d="M253 530v-43q45 54 119 54q31 0 62 -13l-3 -214q-42 14 -69 14q-99 0 -99 -99v-229h-219v530h209zM43 -52h219l-68 -196h-198z" />
    <glyph glyph-name="Rcaron" unicode="&#x158;" horiz-adv-x="688" 
d="M412 669q104 0 172 -69t68 -174q0 -67 -27 -121t-75 -86l120 -219h-272l-83 171h-36v-171h-229v669h362zM290 941l48 -87l45 87h214l-143 -215h-233l-144 215h213zM279 354h85q25 0 41 17t16 43t-16.5 43t-41.5 17h-84v-120z" />
    <glyph glyph-name="rcaron" unicode="&#x159;" horiz-adv-x="454" 
d="M252 530v-43q43 54 119 54q31 0 62 -13l-3 -214q-42 14 -68 14q-100 0 -100 -99v-229h-219v530h209zM190 782l40 -76l40 76h188l-125 -188h-204l-126 188h187z" />
    <glyph glyph-name="Sacute" unicode="&#x15a;" horiz-adv-x="671" 
d="M106 265q109 -83 244 -83q56 0 56 26q0 4 -1.5 8t-4.5 7t-6.5 5t-9 4t-10.5 3.5t-13 3t-14 2.5t-16 2.5t-17 2.5q-31 5 -49.5 8.5t-49.5 12t-51 18t-44 26t-38 36t-23.5 48.5t-9.5 63q0 109 83 165.5t221 56.5q169 0 280 -74l-91 -171q-38 24 -95 41.5t-112 17.5
q-53 0 -53 -24q0 -4 1 -7t3 -5t4.5 -4t6.5 -3.5t7.5 -3t10 -2.5t10.5 -2t12 -2.5t13 -2.5q112 -21 148 -34q144 -52 144 -182q0 -109 -81.5 -171t-231.5 -62q-90 0 -173 27.5t-140 72.5zM236 725l61 205h249l-80 -205h-230z" />
    <glyph glyph-name="sacute" unicode="&#x15b;" horiz-adv-x="566" 
d="M85 217q33 -26 93 -48t107 -22q46 0 46 20q0 4 -1.5 7t-6 5.5t-9 4t-13 3.5t-16.5 3t-21.5 3.5t-24.5 4.5q-101 21 -146.5 59t-45.5 107q0 83 63 130t179 47q127 0 236 -45l-54 -156q-44 22 -96.5 36t-87.5 14q-37 0 -37 -16q0 -4 2 -7.5t6.5 -6t10 -4.5t15 -4t18 -3.5
t22 -4t25.5 -5.5q102 -22 147.5 -56t45.5 -111q0 -82 -68 -132.5t-192 -50.5q-76 0 -148 20.5t-122 55.5zM236 782h240l-75 -180h-211z" />
    <glyph glyph-name="Scircumflex" unicode="&#x15c;" horiz-adv-x="671" 
d="M106 265q109 -83 244 -83q56 0 56 26q0 4 -1.5 8t-4.5 7t-6.5 5t-9 4t-10.5 3.5t-13 3t-14 2.5t-16 2.5t-17 2.5q-31 5 -49.5 8.5t-49.5 12t-51 18t-44 26t-38 36t-23.5 48.5t-9.5 63q0 109 83 165.5t221 56.5q169 0 280 -74l-91 -171q-38 24 -95 41.5t-112 17.5
q-53 0 -53 -24q0 -4 1 -7t3 -5t4.5 -4t6.5 -3.5t7.5 -3t10 -2.5t10.5 -2t12 -2.5t13 -2.5q112 -21 148 -34q144 -52 144 -182q0 -109 -81.5 -171t-231.5 -62q-90 0 -173 27.5t-140 72.5zM236 940h233l142 -215h-213l-46 88l-47 -88h-213z" />
    <glyph glyph-name="scircumflex" unicode="&#x15d;" horiz-adv-x="566" 
d="M85 217q33 -26 93 -48t107 -22q46 0 46 20q0 4 -1.5 7t-6 5.5t-9 4t-13 3.5t-16.5 3t-21.5 3.5t-24.5 4.5q-101 21 -146.5 59t-45.5 107q0 83 63 130t179 47q127 0 236 -45l-54 -156q-44 22 -96.5 36t-87.5 14q-37 0 -37 -16q0 -4 2 -7.5t6.5 -6t10 -4.5t15 -4t18 -3.5
t22 -4t25.5 -5.5q102 -22 147.5 -56t45.5 -111q0 -82 -68 -132.5t-192 -50.5q-76 0 -148 20.5t-122 55.5zM62 600l126 187h204l125 -187h-187l-40 75l-40 -75h-188z" />
    <glyph glyph-name="Scedilla" unicode="&#x15e;" horiz-adv-x="671" 
d="M106 265q109 -83 244 -83q56 0 56 26q0 4 -1.5 8t-4.5 7t-6.5 5t-9 4t-10.5 3.5t-13 3t-14 2.5t-16 2.5t-17 2.5q-31 5 -49.5 8.5t-49.5 12t-51 18t-44 26t-38 36t-23.5 48.5t-9.5 63q0 109 83 165.5t221 56.5q169 0 280 -74l-91 -171q-38 24 -95 41.5t-112 17.5
q-53 0 -53 -24q0 -4 1 -7t3 -5t4.5 -4t6.5 -3.5t7.5 -3t10 -2.5t10.5 -2t12 -2.5t13 -2.5q112 -21 148 -34q144 -52 144 -182q0 -95 -62 -155t-179 -74l-10 -30q39 -6 61.5 -30t22.5 -59q0 -48 -43 -79.5t-110 -31.5q-65 0 -114 15v107q50 -13 78 -13q35 0 35 20
q0 8 -9.5 13.5t-21.5 5.5h-51l-7 10l26 73q-143 18 -242 95z" />
    <glyph glyph-name="scedilla" unicode="&#x15f;" horiz-adv-x="566" 
d="M85 217q33 -26 93 -48t107 -22q46 0 46 20q0 4 -1.5 7t-6 5.5t-9 4t-13 3.5t-16.5 3t-21.5 3.5t-24.5 4.5q-101 21 -146.5 59t-45.5 107q0 83 63 130t179 47q127 0 236 -45l-54 -156q-44 22 -96.5 36t-87.5 14q-37 0 -37 -16q0 -4 2 -7.5t6.5 -6t10 -4.5t15 -4t18 -3.5
t22 -4t25.5 -5.5q102 -22 147.5 -56t45.5 -111q0 -69 -48.5 -116.5t-139.5 -61.5l-11 -32q41 -6 63.5 -30t22.5 -60q0 -48 -43 -80.5t-110 -32.5q-63 0 -114 16v108q50 -13 78 -13q34 0 34 20q0 19 -31 19h-50l-8 11l27 74q-119 14 -200 71z" />
    <glyph glyph-name="Scaron" unicode="&#x160;" horiz-adv-x="671" 
d="M106 265q109 -83 244 -83q56 0 56 26q0 4 -1.5 8t-4.5 7t-6.5 5t-9 4t-10.5 3.5t-13 3t-14 2.5t-16 2.5t-17 2.5q-31 5 -49.5 8.5t-49.5 12t-51 18t-44 26t-38 36t-23.5 48.5t-9.5 63q0 109 83 165.5t221 56.5q169 0 280 -74l-91 -171q-38 24 -95 41.5t-112 17.5
q-53 0 -53 -24q0 -4 1 -7t3 -5t4.5 -4t6.5 -3.5t7.5 -3t10 -2.5t10.5 -2t12 -2.5t13 -2.5q112 -21 148 -34q144 -52 144 -182q0 -109 -81.5 -171t-231.5 -62q-90 0 -173 27.5t-140 72.5zM306 940l47 -87l45 87h214l-143 -214h-233l-144 214h214z" />
    <glyph glyph-name="scaron" unicode="&#x161;" horiz-adv-x="566" 
d="M85 217q33 -26 93 -48t107 -22q46 0 46 20q0 4 -1.5 7t-6 5.5t-9 4t-13 3.5t-16.5 3t-21.5 3.5t-24.5 4.5q-101 21 -146.5 59t-45.5 107q0 83 63 130t179 47q127 0 236 -45l-54 -156q-44 22 -96.5 36t-87.5 14q-37 0 -37 -16q0 -4 2 -7.5t6.5 -6t10 -4.5t15 -4t18 -3.5
t22 -4t25.5 -5.5q102 -22 147.5 -56t45.5 -111q0 -82 -68 -132.5t-192 -50.5q-76 0 -148 20.5t-122 55.5zM252 785l40 -76l40 76h187l-125 -187h-204l-125 187h187z" />
    <glyph glyph-name="Tcaron" unicode="&#x164;" horiz-adv-x="629" 
d="M15 669h599v-195h-184v-474h-231v474h-184v195zM54 941h214l47 -87l46 87h213l-143 -215h-233z" />
    <glyph glyph-name="tcaron" unicode="&#x165;" horiz-adv-x="474" 
d="M96 530v128h219v-128h107v-186h-107v-112q0 -26 10 -40.5t41 -14.5q29 0 70 13v-179q-61 -23 -139 -23q-103 0 -152 48.5t-49 134.5v173h-73v186h73zM372 774h215l-49 -208h-192z" />
    <glyph glyph-name="Tbar" unicode="&#x166;" horiz-adv-x="644" 
d="M22 669h599v-195h-184v-81h133v-160h-133v-233h-231v233h-129v160h129v81h-184v195z" />
    <glyph glyph-name="tbar" unicode="&#x167;" horiz-adv-x="462" 
d="M96 530v128h219v-128h107v-186h-107v-34h107v-86h-107q1 -22 12 -34q10 -13 39 -13t70 13v-179q-61 -23 -139 -23q-103 0 -152 48.5t-49 134.5v53h-71v86h71v34h-73v186h73z" />
    <glyph glyph-name="Utilde" unicode="&#x168;" horiz-adv-x="708" 
d="M274 669v-376q0 -35 20.5 -58.5t59.5 -23.5q38 0 59 24t21 58v376h230v-394q0 -128 -87 -207t-223 -79t-223 79t-87 207v394h230zM149 890q36 44 113 44q41 0 69.5 -14t47 -28t35.5 -14q21 0 32.5 13t11.5 32v6h156q1 -9 1 -27q0 -72 -37.5 -120t-111.5 -48q-39 0 -68 15
t-49 30t-37 15q-20 0 -31 -14t-11 -35v-4h-155q-2 22 -2 34q0 70 36 115z" />
    <glyph glyph-name="utilde" unicode="&#x169;" 
d="M258 530v-299q0 -26 12.5 -40t33.5 -14q24 0 38.5 17t14.5 46v290h219v-530h-209v38q-55 -50 -137 -50q-90 0 -141 60t-51 174v308h220zM83 630q0 69 36.5 114t114.5 45q31 0 53 -9t31 -20.5t21 -20.5t25 -9q32 0 32 46v6h155q2 -18 2 -28q0 -71 -39 -119.5t-113 -48.5
q-37 0 -62 15.5t-41.5 31t-32.5 15.5q-17 0 -21.5 -10.5t-4.5 -33.5v-10h-154q-2 24 -2 36z" />
    <glyph glyph-name="Umacron" unicode="&#x16a;" horiz-adv-x="708" 
d="M44 669h230v-376q0 -35 20.5 -58.5t59.5 -23.5q38 0 59 24t21 58v376h230v-394q0 -128 -87 -207t-223 -79t-223 79t-87 207v394zM145 743v161h421v-161h-421z" />
    <glyph glyph-name="umacron" unicode="&#x16b;" 
d="M258 530v-299q0 -26 12.5 -40t33.5 -14q24 0 38.5 17t14.5 46v290h219v-530h-209v38q-55 -50 -137 -50q-90 0 -141 60t-51 174v308h220zM112 758h391v-144h-391v144z" />
    <glyph glyph-name="Ubreve" unicode="&#x16c;" horiz-adv-x="708" 
d="M44 669h230v-376q0 -35 20.5 -58.5t59.5 -23.5q38 0 59 24t21 58v376h230v-394q0 -128 -87 -207t-223 -79t-223 79t-87 207v394zM105 938h179v-3q0 -29 19 -48.5t50 -19.5t50 20t19 51h179q-2 -102 -69 -156q-67 -55 -179 -55t-179 54.5t-69 156.5z" />
    <glyph glyph-name="ubreve" unicode="&#x16d;" 
d="M38 530h220v-299q0 -26 12.5 -40t33.5 -14q24 0 38.5 17t14.5 46v290h219v-530h-209v38q-55 -50 -137 -50q-90 0 -141 60t-51 174v308zM243 781q0 -33 16.5 -52.5t45.5 -19.5q28 0 44.5 19.5t16.5 52.5h160q-2 -92 -62 -140.5t-159 -48.5q-101 0 -160.5 48.5t-62.5 140.5
h161z" />
    <glyph glyph-name="Uring" unicode="&#x16e;" horiz-adv-x="708" 
d="M274 669v-376q0 -35 20.5 -58.5t59.5 -23.5q38 0 59 24t21 58v376h230v-394q0 -128 -87 -207t-223 -79t-223 79t-87 207v394h230zM243 932q44 38 111 38t111 -38t44 -97t-44 -98t-111 -39t-111 39t-44 98t44 97zM304 833q0 -21 15 -35q14 -14 35 -14t35.5 14t14.5 35
q0 20 -14.5 34t-35.5 14t-35.5 -14t-14.5 -34z" />
    <glyph glyph-name="uring" unicode="&#x16f;" 
d="M258 530v-299q0 -26 12.5 -40t33.5 -14q24 0 38.5 17t14.5 46v290h219v-530h-209v38q-55 -50 -137 -50q-90 0 -141 60t-51 174v308h220zM196 815q43 37 108 37t108 -37.5t43 -95.5t-43 -95q-43 -38 -108 -38t-108 37.5t-43 95.5t43 96zM256 718q0 -21 14 -34.5t34 -13.5
q21 0 35 13.5t14 34.5q0 20 -14 34t-35 14q-20 0 -34 -14t-14 -34z" />
    <glyph glyph-name="Uhungarumlaut" unicode="&#x170;" horiz-adv-x="708" 
d="M274 669v-376q0 -35 20.5 -58.5t59.5 -23.5q38 0 59 24t21 58v376h230v-394q0 -128 -87 -207t-223 -79t-223 79t-87 207v394h230zM432 931h234l-76 -205h-223zM110 726l44 205h236l-60 -205h-220z" />
    <glyph glyph-name="uhungarumlaut" unicode="&#x171;" 
d="M258 530v-299q0 -26 12.5 -40t33.5 -14q24 0 38.5 17t14.5 46v290h219v-530h-209v38q-55 -50 -137 -50q-90 0 -141 60t-51 174v308h220zM318 598l56 180h224l-65 -180h-215zM111 778h227l-52 -180h-211z" />
    <glyph glyph-name="Uogonek" unicode="&#x172;" horiz-adv-x="708" 
d="M44 275v394h230v-376q0 -35 20.5 -58.5t59.5 -23.5q38 0 59 24t21 58v376h230v-394q0 -104 -59 -177t-158 -98q-36 -12 -53 -22t-17 -28q0 -23 31 -23q6 0 61 11v-140q-47 -21 -111 -21q-70 0 -109 32.5t-39 85.5q0 24 15.5 52.5t46.5 50.5q-103 22 -165.5 96t-62.5 181z
" />
    <glyph glyph-name="uogonek" unicode="&#x173;" 
d="M38 530h220v-299q0 -26 12.5 -40t33.5 -14q24 0 38.5 17t14.5 46v290h219v-530h-1q-5 -2 -15.5 -5t-16 -5t-14 -5t-13 -5t-11 -5.5t-9.5 -6t-6.5 -6.5t-5 -8t-1.5 -9q0 -23 31 -23q11 0 61 10v-139q-45 -22 -111 -22q-69 0 -108 32.5t-39 86.5q0 27 18.5 58t55.5 52h-24
v38q-55 -50 -137 -50q-90 0 -141 60t-51 174v308z" />
    <glyph glyph-name="Wcircumflex" unicode="&#x174;" horiz-adv-x="1006" 
d="M5 669h238l63 -390l93 390h209l94 -380l63 380h239l-174 -669h-244l-83 346l-85 -346h-244zM241 726l144 215h233l142 -215h-213l-46 88l-47 -88h-213z" />
    <glyph glyph-name="wcircumflex" unicode="&#x175;" horiz-adv-x="873" 
d="M-2 529h236l44 -244l67 244h184l68 -233l41 233h236l-148 -530h-215l-72 261l-73 -261h-219zM207 596l126 187h204l125 -187h-188l-40 75l-40 -75h-187z" />
    <glyph glyph-name="Ycircumflex" unicode="&#x176;" horiz-adv-x="686" 
d="M256 669l87 -237l91 237h267l-244 -488v-181h-230v181l-238 488h267zM229 941h233l142 -215h-213l-46 88l-47 -88h-213z" />
    <glyph glyph-name="ycircumflex" unicode="&#x177;" horiz-adv-x="628" 
d="M214 530l104 -310l88 310h223l-151 -460q-16 -47 -29 -80t-32.5 -69.5t-42.5 -60t-53.5 -43.5t-70.5 -29.5t-90 -9.5q-72 0 -142 29v187q62 -30 119 -30q56 0 77 14l-223 552h223zM205 784h204l125 -187h-188l-40 75l-40 -75h-187z" />
    <glyph glyph-name="Ydieresis" unicode="&#x178;" horiz-adv-x="686" 
d="M-11 669h267l87 -237l91 237h267l-244 -488v-181h-230v181zM131 926q34 34 84 34t84.5 -34t34.5 -84q0 -51 -34 -85q-35 -35 -85 -35t-84.5 34.5t-34.5 85.5q0 50 35 84zM357 842q0 50 34 84t84 34t84 -34t34 -84q0 -51 -34 -85q-34 -35 -84 -35t-84 34.5t-34 85.5z" />
    <glyph glyph-name="Zacute" unicode="&#x179;" horiz-adv-x="654" 
d="M270 932h248l-80 -206h-229zM606 481l-261 -286h273v-195h-579v180l272 294h-267v195h562v-188z" />
    <glyph glyph-name="zacute" unicode="&#x17a;" horiz-adv-x="564" 
d="M393 599h-211l46 180h240zM531 0h-497v153l199 194h-187v183h474v-146l-202 -202h213v-182z" />
    <glyph glyph-name="Zdotaccent" unicode="&#x17b;" horiz-adv-x="654" 
d="M39 180l272 294h-267v195h562v-188l-261 -286h273v-195h-579v180zM244 913q33 33 82 33q48 0 81.5 -33.5t33.5 -82.5q0 -47 -33.5 -80t-81.5 -33q-49 0 -82.5 33t-33.5 80q0 49 34 83z" />
    <glyph glyph-name="zdotaccent" unicode="&#x17c;" horiz-adv-x="564" 
d="M233 347h-187v183h474v-146l-202 -202h213v-182h-497v153zM202 760q33 33 82 33t81.5 -33t32.5 -82q0 -48 -33 -80.5t-81 -32.5q-49 0 -82 33t-33 80q0 49 33 82z" />
    <glyph glyph-name="Zcaron" unicode="&#x17d;" horiz-adv-x="654" 
d="M39 180l272 294h-267v195h562v-188l-261 -286h273v-195h-579v180zM65 942h213l48 -88l45 88h214l-143 -215h-233z" />
    <glyph glyph-name="zcaron" unicode="&#x17e;" horiz-adv-x="564" 
d="M233 347h-187v183h474v-146l-202 -202h213v-182h-497v153zM57 782h187l40 -76l40 76h187l-125 -188h-204z" />
    <glyph glyph-name="Aringacute" unicode="&#x1fa;" horiz-adv-x="704" 
d="M210 669h285l210 -669h-242l-17 79h-187l-19 -79h-245zM195 837q0 59 44 97t112 38q46 0 83 -19.5t55 -53.5l104 68l56 -128l-157 -59q-17 -36 -55 -58t-86 -22q-67 0 -111.5 39t-44.5 98zM404 269l-52 213l-48 -213h100zM315 800q14 -14 36 -14q21 0 35 14t14 35
q0 20 -14.5 34t-34.5 14q-22 0 -36.5 -14t-14.5 -34q0 -22 15 -35z" />
    <glyph glyph-name="aringacute" unicode="&#x1fb;" horiz-adv-x="655" 
d="M96 465q71 77 182 77q78 0 133 -50v38h201v-530h-201v36q-56 -48 -137 -48q-110 0 -180 77.5t-70 200.5q0 121 72 199zM188 719q0 58 43 95.5t108 37.5q85 0 127 -58l83 62l50 -106l-111 -51q-8 -50 -49 -81t-100 -31q-65 0 -108 37.5t-43 94.5zM262 202q24 -25 62 -25
q37 0 61.5 25t24.5 63q0 37 -24 62t-61 25q-39 0 -63.5 -24.5t-24.5 -63.5q0 -38 25 -62zM305 685q14 -14 34 -14q21 0 35 13.5t14 33.5t-14 34t-35 14q-20 0 -34 -14t-14 -34t14 -33z" />
    <glyph glyph-name="AEacute" unicode="&#x1fc;" horiz-adv-x="986" 
d="M-18 0l325 669h630v-192h-281v-55h266v-175h-266v-55h292v-192h-502v97h-190l-44 -97h-230zM545 931h249l-80 -205h-230zM336 274h110v244z" />
    <glyph glyph-name="aeacute" unicode="&#x1fd;" horiz-adv-x="934" 
d="M22 165q0 76 54.5 117t158.5 41h107q-1 16 -7.5 26t-31.5 19t-69 9q-90 0 -169 -31v156q83 39 205 39q127 0 189 -60q73 61 183 61q118 0 193.5 -72t75.5 -186q0 -29 -3 -62h-351q10 -71 80 -71q56 0 82 49l171 -63q-23 -72 -88.5 -110.5t-162.5 -38.5q-126 0 -193 70
q-74 -70 -204 -70q-103 0 -161.5 48.5t-58.5 128.5zM368 598l45 180h240l-75 -180h-210zM270 141q66 0 72 71h-72q-27 0 -39.5 -11t-12.5 -24q0 -36 52 -36zM710 325q-15 57 -75 57q-57 0 -75 -57h150z" />
    <glyph glyph-name="Oslashacute" unicode="&#x1fe;" horiz-adv-x="758" 
d="M26 334q0 150 100 248t253 98q84 0 158 -33l70 95l86 -62l-67 -93q107 -99 107 -253q0 -149 -100.5 -247t-253.5 -98q-86 0 -159 34l-73 -99l-89 71l68 92q-100 98 -100 247zM327 931h249l-80 -205h-230zM379 190q61 0 102 42t41 102q0 45 -23 80l-158 -219q20 -5 38 -5z
M236 334q0 -42 20 -74l157 214q-15 4 -34 4q-61 0 -102 -41.5t-41 -102.5z" />
    <glyph glyph-name="oslashacute" unicode="&#x1ff;" horiz-adv-x="640" 
d="M22 262q0 122 84 201t214 79q71 0 135 -27l68 87l70 -48l-65 -85q90 -80 90 -207q0 -120 -83.5 -197t-214.5 -77q-78 0 -142 29l-67 -87l-69 47l66 86q-86 78 -86 199zM259 778h240l-75 -180h-210zM291 168q13 -4 30 -4q45 0 75 28t30 71q0 32 -17 57zM228 216l114 147
q-14 2 -21 2q-45 0 -75 -29t-30 -73q0 -26 12 -47z" />
    <glyph glyph-name="uni0218" unicode="&#x218;" horiz-adv-x="671" 
d="M106 265q109 -83 244 -83q56 0 56 26q0 4 -1.5 8t-4.5 7t-6.5 5t-9 4t-10.5 3.5t-13 3t-14 2.5t-16 2.5t-17 2.5q-31 5 -49.5 8.5t-49.5 12t-51 18t-44 26t-38 36t-23.5 48.5t-9.5 63q0 109 83 165.5t221 56.5q169 0 280 -74l-91 -171q-38 24 -95 41.5t-112 17.5
q-53 0 -53 -24q0 -4 1 -7t3 -5t4.5 -4t6.5 -3.5t7.5 -3t10 -2.5t10.5 -2t12 -2.5t13 -2.5q112 -21 148 -34q144 -52 144 -182q0 -109 -81.5 -171t-231.5 -62q-90 0 -173 27.5t-140 72.5zM183 -249l32 203h235l-49 -203h-218z" />
    <glyph glyph-name="uni0219" unicode="&#x219;" horiz-adv-x="566" 
d="M85 217q33 -26 93 -48t107 -22q46 0 46 20q0 4 -1.5 7t-6 5.5t-9 4t-13 3.5t-16.5 3t-21.5 3.5t-24.5 4.5q-101 21 -146.5 59t-45.5 107q0 83 63 130t179 47q127 0 236 -45l-54 -156q-44 22 -96.5 36t-87.5 14q-37 0 -37 -16q0 -4 2 -7.5t6.5 -6t10 -4.5t15 -4t18 -3.5
t22 -4t25.5 -5.5q102 -22 147.5 -56t45.5 -111q0 -82 -68 -132.5t-192 -50.5q-76 0 -148 20.5t-122 55.5zM162 -46h219l-67 -196h-199z" />
    <glyph glyph-name="uni021A" unicode="&#x21a;" horiz-adv-x="629" 
d="M15 474v195h599v-195h-184v-474h-231v474h-184zM158 -241l32 203h235l-50 -203h-217z" />
    <glyph glyph-name="uni021B" unicode="&#x21b;" horiz-adv-x="462" 
d="M23 344v186h73v128h219v-128h107v-186h-107v-112q0 -26 10 -40.5t41 -14.5q29 0 70 13v-179q-61 -23 -139 -23q-103 0 -152 48.5t-49 134.5v173h-73zM155 -46h219l-68 -192h-198z" />
    <glyph glyph-name="uni0237" unicode="&#x237;" horiz-adv-x="318" 
d="M2 -27q54 0 54 58v499h219v-555q0 -89 -60.5 -143t-165.5 -54q-76 0 -139 23v185q49 -13 92 -13z" />
    <glyph glyph-name="circumflex" unicode="&#x2c6;" horiz-adv-x="488" 
d="M142 780h204l125 -187h-187l-40 75l-40 -75h-187z" />
    <glyph glyph-name="caron" unicode="&#x2c7;" horiz-adv-x="488" 
d="M17 780h187l40 -76l40 76h187l-125 -187h-204z" />
    <glyph glyph-name="breve" unicode="&#x2d8;" horiz-adv-x="492" 
d="M24 781h161q0 -33 16 -52.5t45 -19.5t45 19.5t16 52.5h161q-2 -92 -62 -140q-60 -49 -160 -49t-160 48.5t-62 140.5z" />
    <glyph glyph-name="dotaccent" unicode="&#x2d9;" horiz-adv-x="297" 
d="M67 761q33 33 82 33q48 0 81 -33t33 -82q0 -47 -33 -80t-81 -33q-49 0 -82 33t-33 80q0 49 33 82z" />
    <glyph glyph-name="ring" unicode="&#x2da;" horiz-adv-x="352" 
d="M68 814q43 37 108 37t108 -37.5t43 -95.5q0 -57 -43 -94q-43 -38 -108 -38t-108 37.5t-43 94.5q0 58 43 96zM128 717q0 -20 14 -33.5t34 -13.5q21 0 35 13.5t14 33.5t-14 34t-35 14q-20 0 -34 -14t-14 -34z" />
    <glyph glyph-name="ogonek" unicode="&#x2db;" horiz-adv-x="316" 
d="M174 -222q-70 0 -109 32.5t-39 86.5q0 29 21 61.5t62 52.5l176 -4q-6 -2 -16 -5t-15.5 -5t-14 -5t-13.5 -5t-11 -5t-9.5 -6t-6.5 -7t-4.5 -8t-1.5 -9q0 -23 31 -23q11 0 61 10v-139q-46 -22 -111 -22z" />
    <glyph glyph-name="tilde" unicode="&#x2dc;" horiz-adv-x="522" 
d="M27 651q0 70 36 114.5t115 44.5q31 0 53 -9t31 -20t21 -20t25 -9q32 0 32 46v6h155q2 -20 2 -29q0 -71 -39 -119t-113 -48q-37 0 -62 15.5t-41.5 31t-32.5 15.5q-17 0 -21.5 -11t-4.5 -34v-10h-154q-2 24 -2 36z" />
    <glyph glyph-name="hungarumlaut" unicode="&#x2dd;" horiz-adv-x="566" 
d="M323 778h225l-66 -180h-215zM61 778h227l-52 -180h-211z" />
    <glyph glyph-name="gravecomb" unicode="&#x300;" horiz-adv-x="0" 
d="M-47 778l47 -180h-211l-76 180h240z" />
    <glyph glyph-name="acutecomb" unicode="&#x301;" horiz-adv-x="0" 
d="M-75 598h-210l45 180h240z" />
    <glyph glyph-name="uni0302" unicode="&#x302;" horiz-adv-x="0" 
d="M-328 780h204l124 -187h-187l-40 75l-40 -75h-187z" />
    <glyph glyph-name="tildecomb" unicode="&#x303;" horiz-adv-x="0" 
d="M-470 651q0 70 36.5 114.5t115.5 44.5q31 0 52.5 -9t30.5 -20t21 -20t25 -9q32 0 32 46v6h156q1 -9 1 -27q0 -71 -38.5 -120t-113.5 -49q-37 0 -62 15.5t-41 31t-33 15.5t-21.5 -10.5t-4.5 -28.5q0 -7 1 -16h-155q-2 24 -2 36z" />
    <glyph glyph-name="uni0304" unicode="&#x304;" horiz-adv-x="0" 
d="M0 613h-391v145h391v-145z" />
    <glyph glyph-name="uni0306" unicode="&#x306;" horiz-adv-x="0" 
d="M-444 781h161q0 -33 16 -52.5t45 -19.5t45 19.5t16 52.5h161q-2 -92 -62 -140q-60 -49 -160 -49t-160 48.5t-62 140.5z" />
    <glyph glyph-name="uni0307" unicode="&#x307;" horiz-adv-x="0" 
d="M-205 761q33 33 82 33q48 0 81 -33t33 -82q0 -47 -33 -80t-81 -33q-49 0 -82 33t-33 80q0 49 33 82z" />
    <glyph glyph-name="uni0308" unicode="&#x308;" horiz-adv-x="0" 
d="M-226 679q0 47 33 79t81 32q47 0 79.5 -32.5t32.5 -78.5q0 -48 -32.5 -81t-79.5 -33q-48 0 -81 33t-33 81zM-472 679q0 47 32.5 79t79.5 32t80 -32.5t33 -78.5q0 -48 -33 -81t-80 -33t-79.5 33t-32.5 81z" />
    <glyph glyph-name="uni030A" unicode="&#x30a;" horiz-adv-x="0" 
d="M-259 814q43 37 108 37t108 -37.5t43 -95.5q0 -57 -43 -94q-43 -38 -108 -38t-108 37.5t-43 94.5q0 58 43 96zM-199 717q0 -20 14 -33.5t34 -13.5q21 0 35 13.5t14 33.5t-14 34t-35 14q-20 0 -34 -14t-14 -34z" />
    <glyph glyph-name="uni030B" unicode="&#x30b;" horiz-adv-x="0" 
d="M-225 778h225l-65 -180h-216zM-487 778h227l-52 -180h-211z" />
    <glyph glyph-name="uni030C" unicode="&#x30c;" horiz-adv-x="0" 
d="M-454 780h187l40 -76l40 76h187l-124 -187h-204z" />
    <glyph glyph-name="uni0326" unicode="&#x326;" horiz-adv-x="0" 
d="M-68 -270h-198l47 196h219z" />
    <glyph glyph-name="uni0394" unicode="&#x394;" horiz-adv-x="708" 
d="M695 0h-681v170l248 499h182l251 -499v-170zM354 455l-117 -268h235z" />
    <glyph glyph-name="uni03A9" unicode="&#x3a9;" horiz-adv-x="738" 
d="M594 191h112v-190h-317v186q77 73 77 163q0 53 -27 85t-69 32q-43 0 -71 -32.5t-28 -86.5q0 -47 17 -84t59 -77v-186h-316v190h111q-42 34 -67 89t-25 118q0 125 89.5 204.5t230.5 79.5q139 0 228 -79.5t89 -204.5q0 -62 -25 -117.5t-68 -89.5z" />
    <glyph glyph-name="uni03BC" unicode="&#x3bc;" horiz-adv-x="681" 
d="M615 195q16 0 36 5v-191q-25 -21 -107 -21q-88 0 -127 58q-36 -58 -99 -58q-33 0 -56 14v-203h-219v731h219v-286q0 -25 12.5 -39t34.5 -14q24 0 38.5 18t14.5 45v276h220v-293q0 -42 33 -42z" />
    <glyph glyph-name="pi" unicode="&#x3c0;" horiz-adv-x="723" 
d="M682 530v-207h-77v-86q0 -43 37 -43q15 0 40 5v-190q-27 -21 -112 -21q-185 0 -185 182v153h-59v-524h-220v524h-76v207h652z" />
    <glyph glyph-name="uni0401" unicode="&#x401;" horiz-adv-x="609" 
d="M50 669h508v-192h-286v-55h278v-174h-278v-56h297v-192h-519v669zM86 926q34 34 84 34t84.5 -34t34.5 -84q0 -51 -34 -85q-35 -35 -85 -35t-84.5 34.5t-34.5 85.5q0 50 35 84zM312 842q0 50 34 84t84 34t84 -34t34 -84q0 -51 -34 -85q-34 -35 -84 -35t-84 34.5t-34 85.5z
" />
    <glyph glyph-name="uni0402" unicode="&#x402;" horiz-adv-x="823" 
d="M15 474v195h599v-195h-184v-96q29 4 65 4q138 0 223 -78t85 -218q0 -138 -82 -223t-219 -85q-78 0 -114 13v179q46 -11 75 -11q50 0 80 34t30 86q0 116 -114 116q-7 0 -29 -2v-193h-231v474h-184z" />
    <glyph glyph-name="uni0403" unicode="&#x403;" horiz-adv-x="510" 
d="M386 726h-229l61 205h248zM281 0h-231v669h446v-195h-215v-474z" />
    <glyph glyph-name="uni0404" unicode="&#x404;" horiz-adv-x="657" 
d="M126 586q99 94 264 94q66 0 135.5 -20t119.5 -57l-86 -173q-31 20 -80.5 33.5t-85.5 13.5q-91 0 -129 -67h222v-150h-223q37 -70 127 -70q40 0 97 14.5t91 37.5l68 -180q-51 -36 -124.5 -54.5t-138.5 -18.5q-158 0 -257.5 97.5t-99.5 254.5q0 151 100 245z" />
    <glyph glyph-name="uni0405" unicode="&#x405;" horiz-adv-x="671" 
d="M106 265q109 -83 244 -83q56 0 56 26q0 4 -1.5 8t-4.5 7t-6.5 5t-9 4t-10.5 3.5t-13 3t-14 2.5t-16 2.5t-17 2.5q-31 5 -49.5 8.5t-49.5 12t-51 18t-44 26t-38 36t-23.5 48.5t-9.5 63q0 109 83 165.5t221 56.5q169 0 280 -74l-91 -171q-38 24 -95 41.5t-112 17.5
q-53 0 -53 -24q0 -4 1 -7t3 -5t4.5 -4t6.5 -3.5t7.5 -3t10 -2.5t10.5 -2t12 -2.5t13 -2.5q112 -21 148 -34q144 -52 144 -182q0 -109 -81.5 -171t-231.5 -62q-90 0 -173 27.5t-140 72.5z" />
    <glyph glyph-name="uni0406" unicode="&#x406;" horiz-adv-x="331" 
d="M50 0v669h231v-669h-231z" />
    <glyph glyph-name="uni0407" unicode="&#x407;" horiz-adv-x="331" 
d="M281 669v-669h-231v669h231zM-82 842q0 50 35 84t85 34t84 -34t34 -84q0 -51 -34 -85q-34 -35 -84 -35t-85 34.5t-35 85.5zM214 926q34 34 84 34t83.5 -34t33.5 -84q0 -51 -33 -85q-34 -35 -84 -35t-84.5 34.5t-34.5 85.5q0 50 35 84z" />
    <glyph glyph-name="uni0408" unicode="&#x408;" horiz-adv-x="505" 
d="M143 202q30 0 49 7.5t26 23t8.5 26t1.5 30.5v380h231v-423q0 -127 -73 -192t-200 -65q-91 0 -169 25v202q70 -14 126 -14z" />
    <glyph glyph-name="uni0409" unicode="&#x409;" horiz-adv-x="1098" 
d="M714 506h131q104 0 170 -69.5t66 -180.5q0 -113 -68 -184.5t-177 -71.5h-353v474h-104v-99q0 -56 -1.5 -89t-9 -85.5t-26.5 -91t-49 -63.5q-68 -57 -194 -57q-7 0 -82 6v210q27 -3 36 -3q46 0 71 39q10 15 14.5 32.5t8 81t3.5 181.5v133h564v-163zM714 182h68
q30 0 51 21.5t21 52.5q0 29 -21 48.5t-51 19.5h-68v-142z" />
    <glyph glyph-name="uni040A" unicode="&#x40a;" horiz-adv-x="1070" 
d="M283 669v-249h171v249h233v-163h130q104 0 170 -69.5t66 -180.5q0 -113 -68 -184.5t-177 -71.5h-354v208h-171v-208h-233v669h233zM754 182q30 0 51 21.5t21 52.5q0 29 -21 48.5t-51 19.5h-67v-142h67z" />
    <glyph glyph-name="uni040B" unicode="&#x40b;" horiz-adv-x="800" 
d="M15 474v195h599v-195h-184v-73q63 9 93 9q245 0 245 -207v-203h-240v158q0 2 -0.5 5.5t-1.5 6t-2.5 6.5t-4.5 6.5t-7 5t-9.5 4.5t-12.5 3t-16 1q-12 0 -44 -4v-192h-231v474h-184z" />
    <glyph glyph-name="uni040C" unicode="&#x40c;" horiz-adv-x="699" 
d="M50 669h231v-258l154 258h268l-218 -348l216 -321h-281l-139 227v-227h-231v669zM257 726l61 205h248l-80 -205h-229z" />
    <glyph glyph-name="uni040E" unicode="&#x40e;" horiz-adv-x="690" 
d="M26 669h248l96 -276l83 276h241l-182 -457q-16 -41 -32 -70.5t-42.5 -60t-58 -49t-78.5 -30.5t-106 -12q-79 0 -144 23v184q76 -20 130 -20q39 0 60 10zM140 934h161q1 -87 61 -87t61 87h161q-6 -92 -65 -145q-60 -53 -157 -53t-156.5 53t-65.5 145z" />
    <glyph glyph-name="uni040F" unicode="&#x40f;" horiz-adv-x="713" 
d="M431 669h231v-669h-192v-128h-226v128h-194v669h231v-473h150v473z" />
    <glyph glyph-name="uni0410" unicode="&#x410;" horiz-adv-x="704" 
d="M210 669h285l210 -669h-242l-17 79h-187l-19 -79h-245zM404 269l-52 213l-48 -213h100z" />
    <glyph glyph-name="uni0411" unicode="&#x411;" horiz-adv-x="674" 
d="M278 439h133q110 0 173.5 -59t63.5 -154q0 -100 -67 -163t-175 -63h-356v669h547v-183h-319v-47zM278 178h92q21 0 35 14t14 35t-13.5 34.5t-35.5 13.5h-92v-97z" />
    <glyph glyph-name="uni0412" unicode="&#x412;" horiz-adv-x="680" 
d="M50 669h363q107 0 162 -50.5t55 -128.5q0 -92 -75 -127q100 -35 100 -155q0 -100 -65.5 -154t-200.5 -54h-339v669zM277 265v-84h104q22 0 34 11.5t12 30.5t-13 30.5t-33 11.5h-104zM277 489v-80h86q49 0 49 40q0 18 -12.5 29t-31.5 11h-91z" />
    <glyph glyph-name="uni0413" unicode="&#x413;" horiz-adv-x="510" 
d="M281 0h-231v669h446v-195h-215v-474z" />
    <glyph glyph-name="uni0414" unicode="&#x414;" horiz-adv-x="839" 
d="M710 669v-474h108v-323h-225v128h-354v-128h-225v323h88q30 40 41 105.5t11 193.5v175h556zM380 474v-59q0 -148 -29 -220h127v279h-98z" />
    <glyph glyph-name="uni0415" unicode="&#x415;" horiz-adv-x="609" 
d="M50 0v669h508v-192h-286v-55h278v-174h-278v-56h297v-192h-519z" />
    <glyph glyph-name="uni0416" unicode="&#x416;" horiz-adv-x="1077" 
d="M811 669h269l-221 -347l219 -322h-282l-148 238v-238h-220v237l-147 -237h-283l219 322l-221 347h270l162 -268v268h220v-270z" />
    <glyph glyph-name="uni0417" unicode="&#x417;" horiz-adv-x="654" 
d="M539 368q41 -23 65 -63.5t24 -90.5q0 -99 -88 -162t-230 -63q-82 0 -164.5 21.5t-138.5 63.5l78 176q110 -64 227 -64q87 0 87 40q0 33 -49 33h-179v150h158q57 0 57 37q0 36 -71 36q-41 0 -103 -13.5t-115 -37.5l-69 171q54 36 138.5 57.5t163.5 21.5q126 0 205 -52
t79 -133q0 -40 -20 -74t-55 -54z" />
    <glyph glyph-name="uni0418" unicode="&#x418;" horiz-adv-x="734" 
d="M271 669v-311l193 311h219v-669h-221v315l-199 -315h-213v669h221z" />
    <glyph glyph-name="uni0419" unicode="&#x419;" horiz-adv-x="734" 
d="M50 669h221v-311l193 311h219v-669h-221v315l-199 -315h-213v669zM298 935q0 -31 19 -51t50 -20t50 19.5t19 48.5v3h179q-2 -102 -69 -156q-67 -55 -179 -55t-179 54.5t-69 156.5h179z" />
    <glyph glyph-name="uni041A" unicode="&#x41a;" horiz-adv-x="699" 
d="M50 669h231v-258l154 258h268l-218 -348l216 -321h-281l-139 227v-227h-231v669z" />
    <glyph glyph-name="uni041B" unicode="&#x41b;" horiz-adv-x="766" 
d="M99 -11q-7 0 -82 6v210q27 -3 36 -3q46 0 71 39q10 15 14.5 32.5t8 81t3.5 181.5v133h564v-669h-231v474h-104v-99q0 -56 -1.5 -89t-9 -85.5t-26.5 -91t-49 -63.5q-68 -57 -194 -57z" />
    <glyph glyph-name="uni041C" unicode="&#x41c;" horiz-adv-x="902" 
d="M50 669h222l178 -303l181 303h221v-669h-221v285l-105 -167h-149l-106 168v-286h-221v669z" />
    <glyph glyph-name="uni041D" unicode="&#x41d;" horiz-adv-x="738" 
d="M50 669h233v-249h171v249h233v-669h-233v208h-171v-208h-233v669z" />
    <glyph glyph-name="uni041E" unicode="&#x41e;" horiz-adv-x="762" 
d="M26 334q0 151 100.5 249t254.5 98t255.5 -98.5t101.5 -248.5q0 -149 -101 -247q-102 -99 -256 -99t-254.5 98t-100.5 248zM247 334q0 -57 39 -96q38 -40 95 -40t96 39.5t39 96.5q0 58 -39 97t-96 39q-58 0 -96 -39t-38 -97z" />
    <glyph glyph-name="uni041F" unicode="&#x41f;" horiz-adv-x="718" 
d="M283 0h-233v669h616v-669h-232v474h-151v-474z" />
    <glyph glyph-name="uni0420" unicode="&#x420;" horiz-adv-x="667" 
d="M389 669q114 0 187.5 -72t73.5 -187q0 -120 -74.5 -191.5t-201.5 -71.5h-95v-147h-229v669h339zM354 342q28 0 47 18.5t19 46.5q0 29 -18.5 48t-45.5 19h-77v-132h75z" />
    <glyph glyph-name="uni0421" unicode="&#x421;" horiz-adv-x="706" 
d="M126 583q100 98 255 98q108 0 192.5 -50t122.5 -134l-198 -102q-16 35 -48.5 55t-72.5 20q-57 0 -93.5 -38t-36.5 -98q0 -59 37 -97.5t94 -38.5q42 0 75.5 22t47.5 59l202 -93q-35 -90 -123 -144t-200 -54q-154 0 -254 98t-100 248t100 249z" />
    <glyph glyph-name="uni0422" unicode="&#x422;" horiz-adv-x="629" 
d="M15 669h599v-195h-184v-474h-231v474h-184v195z" />
    <glyph glyph-name="uni0423" unicode="&#x423;" horiz-adv-x="690" 
d="M274 669l96 -276l83 276h241l-182 -457q-16 -41 -32 -70.5t-42.5 -60t-58 -49t-78.5 -30.5t-106 -12q-79 0 -144 23v184q76 -20 130 -20q39 0 60 10l-215 482h248z" />
    <glyph glyph-name="uni0424" unicode="&#x424;" horiz-adv-x="921" 
d="M654 598q109 0 177.5 -73.5t68.5 -190.5q0 -116 -69 -189t-178 -73q-35 0 -85 11v-120h-214v120q-51 -11 -85 -11q-110 0 -178.5 73t-68.5 189t68.5 190t178.5 74q32 0 85 -10v118h214v-118q50 10 86 10zM602 241q34 0 53.5 24.5t19.5 68.5t-19.5 69t-53.5 25
q-14 0 -36 -3v-181q18 -3 36 -3zM246 334q0 -43 21.5 -67.5t58.5 -24.5q11 0 29 2v181q-18 2 -34 2q-34 0 -54.5 -24.5t-20.5 -68.5z" />
    <glyph glyph-name="uni0425" unicode="&#x425;" horiz-adv-x="709" 
d="M211 338l-209 331h271l81 -154l91 154h269l-216 -334l208 -335h-272l-77 150l-93 -150h-269z" />
    <glyph glyph-name="uni0426" unicode="&#x426;" horiz-adv-x="777" 
d="M646 669v-466h108v-331h-224v128h-480v669h231v-466h134v466h231z" />
    <glyph glyph-name="uni0427" unicode="&#x427;" horiz-adv-x="706" 
d="M423 415v254h232v-669h-232v216q-66 -18 -123 -18q-123 0 -194.5 71t-71.5 197v203h230v-155v-7q0 -21 1.5 -33t9 -31t28 -28.5t53.5 -9.5q38 0 67 10z" />
    <glyph glyph-name="uni0428" unicode="&#x428;" horiz-adv-x="1038" 
d="M757 203v466h231v-669h-938v669h231v-466h122v466h231v-466h123z" />
    <glyph glyph-name="uni0429" unicode="&#x429;" horiz-adv-x="1120" 
d="M988 669v-466h109v-331h-226v128h-821v669h231v-466h122v466h231v-466h124v466h230z" />
    <glyph glyph-name="uni042A" unicode="&#x42a;" horiz-adv-x="773" 
d="M386 506h133q105 0 170.5 -69.5t65.5 -180.5q0 -113 -68 -184.5t-177 -71.5h-352v466h-141v203h369v-163zM386 182h71q30 0 50.5 21.5t20.5 52.5q0 29 -20.5 48.5t-51.5 19.5h-70v-142z" />
    <glyph glyph-name="uni042B" unicode="&#x42b;" horiz-adv-x="986" 
d="M50 0v669h228v-163h133q105 0 170.5 -69.5t65.5 -180.5q0 -113 -68 -184.5t-177 -71.5h-352zM705 669h230v-669h-230v669zM278 182h71q30 0 50.5 21.5t20.5 52.5q0 29 -20.5 48.5t-51.5 19.5h-70v-142z" />
    <glyph glyph-name="uni042C" unicode="&#x42c;" horiz-adv-x="664" 
d="M278 506h133q105 0 170.5 -69.5t65.5 -180.5q0 -113 -68 -184.5t-177 -71.5h-352v669h228v-163zM278 182h71q30 0 50.5 21.5t20.5 52.5q0 29 -20.5 48.5t-51.5 19.5h-70v-142z" />
    <glyph glyph-name="uni042D" unicode="&#x42d;" horiz-adv-x="656" 
d="M78 242q34 -23 91 -37.5t97 -14.5q90 0 127 70h-223v150h222q-38 67 -129 67q-36 0 -85.5 -13.5t-80.5 -33.5l-86 173q50 37 119.5 57t135.5 20q165 0 264.5 -94t99.5 -245q0 -157 -99.5 -254.5t-257.5 -97.5q-65 0 -138.5 18.5t-124.5 54.5z" />
    <glyph glyph-name="uni042E" unicode="&#x42e;" horiz-adv-x="1088" 
d="M281 669v-235h83q31 112 123.5 179.5t218.5 67.5q155 0 256 -98.5t101 -248.5t-101 -248t-256 -98q-124 0 -216 66t-124 176h-85v-230h-231v669h231zM611 238q38 -40 95 -40t96.5 39.5t39.5 96.5q0 58 -39.5 97t-96.5 39t-95 -39t-38 -97q0 -57 38 -96z" />
    <glyph glyph-name="uni042F" unicode="&#x42f;" horiz-adv-x="698" 
d="M648 669v-669h-225v181h-15l-130 -181h-270l157 206q-56 29 -89 85t-33 128q0 110 70 180t177 70h358zM423 478h-87q-26 0 -45.5 -19t-19.5 -48t19 -48.5t48 -19.5h85v135z" />
    <glyph glyph-name="uni0430" unicode="&#x430;" horiz-adv-x="655" 
d="M96 465q71 77 182 77q78 0 133 -50v38h201v-530h-201v36q-56 -48 -137 -48q-110 0 -180 77.5t-70 200.5q0 121 72 199zM262 202q24 -25 62 -25q37 0 61.5 25t24.5 63q0 37 -24 62t-61 25q-39 0 -63.5 -24.5t-24.5 -63.5q0 -38 25 -62z" />
    <glyph glyph-name="uni0431" unicode="&#x431;" horiz-adv-x="650" 
d="M374 503q112 0 182 -70t70 -180q0 -119 -80.5 -192t-209.5 -73q-137 0 -219.5 81t-82.5 225v162q0 25 0.5 38t3 38t7 39.5t14 37t23 36t35 30.5t48.5 27.5t64.5 19t82.5 12.5q10 1 36.5 3t34 3t28.5 3t29.5 4l25.5 6t28 8.5t26 11t30 14.5l44 -190q-41 -26 -89 -35.5
t-123 -15.5q-67 -5 -98.5 -16.5t-38.5 -26.5t-7 -47q50 47 136 47zM334 168q35 0 58 23t23 58t-23 58.5t-58 23.5q-36 0 -59 -23.5t-23 -58.5t23.5 -58t58.5 -23z" />
    <glyph glyph-name="uni0432" unicode="&#x432;" horiz-adv-x="597" 
d="M489 285q41 -16 64.5 -48.5t23.5 -74.5q0 -72 -50 -117t-126 -45h-358v530h348q68 0 113 -39t45 -98q0 -67 -60 -108zM305 395h-51v-74h50q18 0 29 10t11 27t-11 27t-28 10zM254 134h68q16 0 26.5 11t10.5 28t-10.5 27.5t-26.5 10.5h-68v-77z" />
    <glyph glyph-name="uni0433" unicode="&#x433;" horiz-adv-x="484" 
d="M266 0h-223v530h423v-199h-200v-331z" />
    <glyph glyph-name="uni0434" unicode="&#x434;" horiz-adv-x="758" 
d="M641 530v-345h92v-307h-215v122h-288v-122h-215v307h88q30 76 30 205v140h508zM347 345v-47q0 -63 -18 -113h91v160h-73z" />
    <glyph glyph-name="uni0435" unicode="&#x435;" 
d="M104 465q80 77 211 77q127 0 204.5 -71.5t77.5 -188.5q0 -35 -3 -62h-368q7 -33 30.5 -50.5t56.5 -17.5q64 0 86 49l174 -67q-22 -68 -90.5 -107t-165.5 -39q-134 0 -214 75t-80 199q0 125 81 203zM231 326h162q-8 26 -29.5 41t-50.5 15q-61 0 -82 -56z" />
    <glyph glyph-name="uni0436" unicode="&#x436;" horiz-adv-x="932" 
d="M690 530h250l-178 -264l176 -266h-255l-109 183v-183h-216v184h-1l-109 -184h-254l176 268l-178 262h250l116 -180v180h216v-177z" />
    <glyph glyph-name="uni0437" unicode="&#x437;" horiz-adv-x="573" 
d="M470 300q84 -38 84 -126q0 -85 -78 -135.5t-220 -50.5q-139 0 -226 34l-2 160q34 -11 106 -22.5t120 -11.5q64 0 64 31q0 25 -34 25h-177v122h155q43 0 43 26q0 30 -56 30q-38 0 -104.5 -9.5t-109.5 -20.5l2 150q99 40 245 40q111 0 175.5 -39t64.5 -107q0 -61 -52 -96z
" />
    <glyph glyph-name="uni0438" unicode="&#x438;" horiz-adv-x="636" 
d="M43 530h206v-222l150 222h194v-530h-205v218l-147 -218h-198v530z" />
    <glyph glyph-name="uni0439" unicode="&#x439;" horiz-adv-x="636" 
d="M43 530h206v-222l150 222h194v-530h-205v218l-147 -218h-198v530zM263 774q1 -88 62 -88q60 0 61 88h160q-6 -93 -65 -146t-156 -53q-98 0 -157.5 53t-65.5 146h161z" />
    <glyph glyph-name="uni043A" unicode="&#x43a;" horiz-adv-x="606" 
d="M43 530h219v-175l104 175h250l-162 -263l158 -267h-255l-94 176h-1v-176h-219v530z" />
    <glyph glyph-name="uni043B" unicode="&#x43b;" horiz-adv-x="673" 
d="M106 -10q-27 0 -55.5 4t-33.5 7v187q34 -4 44 -4q41 0 59 26q12 17 15.5 46t3.5 94v180h491v-530h-223v336h-62v-62v-14v-19t-0.5 -20.5t-2 -24t-3.5 -23.5t-5.5 -26.5t-8.5 -25t-12 -26.5t-15 -24q-60 -81 -192 -81z" />
    <glyph glyph-name="uni043C" unicode="&#x43c;" horiz-adv-x="782" 
d="M252 0h-209v530h200l148 -200l151 200h197v-530h-209v228l-93 -122h-91l-94 122v-228z" />
    <glyph glyph-name="uni043D" unicode="&#x43d;" horiz-adv-x="620" 
d="M354 346v184h223v-530h-223v161h-88v-161h-223v530h223v-184h88z" />
    <glyph glyph-name="uni043E" unicode="&#x43e;" horiz-adv-x="634" 
d="M105 463q82 79 213 79q130 0 212 -79.5t82 -200.5t-83 -197.5t-211 -76.5q-130 0 -213 77.5t-83 196.5q0 121 83 201zM256 202q26 -26 62 -26q38 0 62 25t24 63t-24 63.5t-61 25.5t-63 -25.5t-26 -63.5q0 -37 26 -62z" />
    <glyph glyph-name="uni043F" unicode="&#x43f;" horiz-adv-x="611" 
d="M263 0h-220v530h525v-530h-221v331h-84v-331z" />
    <glyph glyph-name="uni0440" unicode="&#x440;" horiz-adv-x="662" 
d="M390 538q106 0 177 -79t71 -197q0 -119 -71 -196.5t-179 -77.5q-76 0 -130 41v-230h-215v731h209v-41q58 49 138 49zM338 173q37 0 62 25.5t25 62.5t-24.5 62.5t-61.5 25.5t-62.5 -25.5t-25.5 -62.5t25 -62.5t62 -25.5z" />
    <glyph glyph-name="uni0441" unicode="&#x441;" horiz-adv-x="607" 
d="M105 465q82 77 217 77q108 0 183 -53t93 -149l-200 -52q-4 28 -26 46.5t-52 18.5q-36 0 -59 -25t-23 -65q0 -38 23.5 -62t60.5 -24q28 0 50.5 17.5t28.5 44.5l189 -78q-22 -76 -94.5 -124.5t-179.5 -48.5q-133 0 -213 75.5t-80 198.5q0 126 82 203z" />
    <glyph glyph-name="uni0442" unicode="&#x442;" horiz-adv-x="553" 
d="M18 530h516v-199h-146v-331h-222v331h-148v199z" />
    <glyph glyph-name="uni0443" unicode="&#x443;" horiz-adv-x="628" 
d="M214 530l104 -310l88 310h223l-151 -460q-16 -47 -29 -80t-32.5 -69.5t-42.5 -60t-53.5 -43.5t-70.5 -29.5t-90 -9.5q-72 0 -142 29v187q62 -30 119 -30q56 0 77 14l-223 552h223z" />
    <glyph glyph-name="uni0444" unicode="&#x444;" horiz-adv-x="914" 
d="M627 536q117 0 190 -74.5t73 -196.5q0 -121 -71.5 -194.5t-184.5 -73.5q-36 0 -71 9v-207h-212v207q-33 -9 -70 -9q-113 0 -185 73.5t-72 194.5t73.5 196t189.5 75q35 0 64 -7v177h212v-177q29 7 64 7zM226 263q0 -42 23.5 -67.5t56.5 -25.5q16 0 48 9v171q-23 5 -39 5
q-39 0 -64 -25.5t-25 -66.5zM608 170q34 0 57.5 26t23.5 67t-25 66.5t-64 25.5q-17 0 -39 -5v-170q30 -10 47 -10z" />
    <glyph glyph-name="uni0445" unicode="&#x445;" horiz-adv-x="602" 
d="M447 262l158 -262h-245l-61 126l-62 -126h-238l155 262l-154 268h245l54 -132l67 132h237z" />
    <glyph glyph-name="uni0446" unicode="&#x446;" horiz-adv-x="676" 
d="M559 530v-345h92v-307h-214v122h-394v530h222v-345h72v345h222z" />
    <glyph glyph-name="uni0447" unicode="&#x447;" horiz-adv-x="618" 
d="M352 344v186h222v-530h-222v166q-51 -12 -98 -12q-116 0 -172 61.5t-56 161.5v153h221v-125v-7v-10t1 -11t3 -11.5t6.5 -10t10.5 -9t15.5 -6t21.5 -2.5q20 0 47 6z" />
    <glyph glyph-name="uni0448" unicode="&#x448;" horiz-adv-x="899" 
d="M856 0h-813v530h222v-345h73v345h222v-345h74v345h222v-530z" />
    <glyph glyph-name="uni0449" unicode="&#x449;" horiz-adv-x="974" 
d="M857 530v-345h92v-307h-215v122h-691v530h223v-345h73v345h222v-345h73v345h223z" />
    <glyph glyph-name="uni044A" unicode="&#x44a;" horiz-adv-x="693" 
d="M352 418h121q88 0 147 -59.5t59 -147.5q0 -93 -58.5 -152t-153.5 -59h-323v331h-126v199h334v-112zM352 162h70q21 0 35 15t14 37q0 21 -14.5 35.5t-36.5 14.5h-68v-102z" />
    <glyph glyph-name="uni044B" unicode="&#x44b;" horiz-adv-x="888" 
d="M43 0v530h208v-112h121q88 0 147 -59.5t59 -147.5q0 -93 -58.5 -152t-153.5 -59h-323zM845 530v-530h-221v530h221zM251 162h71q20 0 34 15t14 37q0 21 -14.5 35.5t-36.5 14.5h-68v-102z" />
    <glyph glyph-name="uni044C" unicode="&#x44c;" horiz-adv-x="592" 
d="M251 418h121q88 0 147 -59.5t59 -147.5q0 -93 -58.5 -152t-153.5 -59h-323v530h208v-112zM251 162h71q20 0 34 15t14 37q0 21 -14.5 35.5t-36.5 14.5h-68v-102z" />
    <glyph glyph-name="uni044D" unicode="&#x44d;" horiz-adv-x="551" 
d="M231 542q135 0 216.5 -74.5t81.5 -201.5q0 -128 -84 -203t-223 -75q-54 0 -115 11.5t-96 30.5l34 156q88 -36 161 -36q91 0 115 56h-205v119h203q-26 53 -109 53q-66 0 -151 -36l-46 156q98 44 218 44z" />
    <glyph glyph-name="uni044E" unicode="&#x44e;" horiz-adv-x="936" 
d="M264 530v-184h73q26 89 101.5 142.5t181.5 53.5q130 0 212 -79.5t82 -200.5t-83 -197.5t-211 -76.5q-99 0 -173 47t-104 126h-79v-161h-221v530h221zM559 202q25 -26 62 -26t61 25t24 63t-24 63.5t-60 25.5q-38 0 -63.5 -25.5t-25.5 -63.5q0 -37 26 -62z" />
    <glyph glyph-name="uni044F" unicode="&#x44f;" horiz-adv-x="631" 
d="M588 533v-533h-217v118h-20l-82 -118h-259l126 150q-45 25 -70 68.5t-25 99.5q0 96 63.5 155.5t165.5 59.5h318zM371 370h-64q-23 0 -38.5 -14.5t-15.5 -38.5t15.5 -38.5t39.5 -14.5h63v106z" />
    <glyph glyph-name="uni0451" unicode="&#x451;" 
d="M23 262q0 125 80.5 202.5t211.5 77.5q127 0 204.5 -71.5t77.5 -188.5q0 -35 -3 -62h-368q7 -33 30.5 -50.5t56.5 -17.5q64 0 86 49l174 -67q-22 -68 -90.5 -107t-165.5 -39q-134 0 -214 75t-80 199zM116 760q33 32 80 32t80 -32.5t33 -78.5q0 -48 -33 -81
q-33 -34 -80 -34t-80 33.5t-33 81.5q0 46 33 79zM363 760q33 32 80 32t79.5 -32.5t32.5 -78.5q0 -48 -32 -81q-33 -34 -80 -34t-80 33.5t-33 81.5q0 46 33 79zM393 326q-8 26 -29.5 41t-50.5 15q-61 0 -82 -56h162z" />
    <glyph glyph-name="uni0452" unicode="&#x452;" 
d="M43 656v54h219v-54h85v-98h-85v-50q51 32 117 32q91 0 146.5 -54.5t55.5 -143.5v-364q0 -91 -61 -145.5t-166 -54.5q-76 0 -141 23v185q49 -13 94 -13q32 0 43 15.5t11 45.5v263q0 54 -46 54q-23 0 -38 -16.5t-15 -44.5v-290h-219v558h-59v98h59z" />
    <glyph glyph-name="uni0453" unicode="&#x453;" horiz-adv-x="484" 
d="M354 598h-210l46 180h240zM266 0h-223v530h423v-199h-200v-331z" />
    <glyph glyph-name="uni0454" unicode="&#x454;" horiz-adv-x="552" 
d="M507 185l34 -156q-35 -19 -96.5 -31t-114.5 -12q-139 0 -223 75.5t-84 203.5q0 126 82 201t216 75q118 0 218 -45l-46 -156q-83 37 -151 37q-85 0 -109 -54h203v-119h-205q24 -56 115 -56q71 0 161 37z" />
    <glyph glyph-name="uni0455" unicode="&#x455;" horiz-adv-x="566" 
d="M85 217q33 -26 93 -48t107 -22q46 0 46 20q0 4 -1.5 7t-6 5.5t-9 4t-13 3.5t-16.5 3t-21.5 3.5t-24.5 4.5q-101 21 -146.5 59t-45.5 107q0 83 63 130t179 47q127 0 236 -45l-54 -156q-44 22 -96.5 36t-87.5 14q-37 0 -37 -16q0 -4 2 -7.5t6.5 -6t10 -4.5t15 -4t18 -3.5
t22 -4t25.5 -5.5q102 -22 147.5 -56t45.5 -111q0 -82 -68 -132.5t-192 -50.5q-76 0 -148 20.5t-122 55.5z" />
    <glyph glyph-name="uni0456" unicode="&#x456;" horiz-adv-x="306" 
d="M42 0v530h221v-530h-221zM29 686q0 52 35.5 88t88.5 36q52 0 87.5 -36t35.5 -88q0 -51 -35 -86q-36 -36 -88 -36t-88 35.5t-36 86.5z" />
    <glyph glyph-name="uni0457" unicode="&#x457;" horiz-adv-x="307" 
d="M43 530h221v-530h-221v530zM197 759q33 32 81 32q47 0 79.5 -32.5t32.5 -78.5q0 -48 -32.5 -81t-79.5 -33q-48 0 -81 33t-33 81q0 47 33 79zM-82 680q0 47 32.5 79t79.5 32t80 -32.5t33 -78.5q0 -48 -33 -81t-80 -33t-79.5 33t-32.5 81z" />
    <glyph glyph-name="uni0458" unicode="&#x458;" horiz-adv-x="318" 
d="M-90 -199v185q49 -13 92 -13q54 0 54 58v499h219v-555q0 -89 -60.5 -143t-165.5 -54q-76 0 -139 23zM42 686q0 52 36 88t88 36t88 -36t36 -88q0 -51 -36 -86q-36 -36 -88 -36t-88 35.5t-36 86.5z" />
    <glyph glyph-name="uni0459" unicode="&#x459;" horiz-adv-x="963" 
d="M630 418h113q88 0 147.5 -59.5t59.5 -147.5q0 -93 -58.5 -152t-153.5 -59h-331v336h-62v-62v-14v-19t-0.5 -20.5t-2 -24t-3.5 -23.5t-5.5 -26.5t-8.5 -25t-12 -26.5t-15 -24q-60 -81 -192 -81q-27 0 -55.5 4t-33.5 7v187q34 -4 44 -4q41 0 59 26q12 17 15.5 46t3.5 94
v180h491v-112zM630 162h63q20 0 34.5 15t14.5 37q0 21 -15 35.5t-37 14.5h-60v-102z" />
    <glyph glyph-name="uni045A" unicode="&#x45a;" horiz-adv-x="911" 
d="M577 418h113q88 0 147.5 -59.5t59.5 -147.5q0 -93 -58.5 -152t-153.5 -59h-331v161h-88v-161h-223v530h223v-184h88v184h223v-112zM577 162h63q20 0 34.5 15t14.5 37q0 21 -15 35.5t-36 14.5h-61v-102z" />
    <glyph glyph-name="uni045B" unicode="&#x45b;" 
d="M-10 658h53v52h219v-52h91v-98h-91v-52q51 32 117 32q91 0 146.5 -54.5t55.5 -143.5v-342h-220v297q0 54 -46 54q-23 0 -38 -16.5t-15 -44.5v-290h-219v560h-53v98z" />
    <glyph glyph-name="uni045C" unicode="&#x45c;" horiz-adv-x="606" 
d="M43 530h219v-175l104 175h250l-162 -263l158 -267h-255l-94 176h-1v-176h-219v530zM214 598l46 180h240l-75 -180h-211z" />
    <glyph glyph-name="uni045E" unicode="&#x45e;" horiz-adv-x="628" 
d="M-9 530h223l104 -310l88 310h223l-151 -460q-16 -47 -29 -80t-32.5 -69.5t-42.5 -60t-53.5 -43.5t-70.5 -29.5t-90 -9.5q-72 0 -142 29v187q62 -30 119 -30q56 0 77 14zM93 774h161q0 -88 61 -88q60 0 61 88h161q-6 -93 -65 -146q-60 -53 -157 -53t-156.5 53t-65.5 146z
" />
    <glyph glyph-name="uni045F" unicode="&#x45f;" horiz-adv-x="617" 
d="M351 530h223v-530h-159v-122h-213v122h-159v530h222v-345h86v345z" />
    <glyph glyph-name="uni0490" unicode="&#x490;" horiz-adv-x="515" 
d="M279 669v136h223v-331h-221v-474h-231v669h229z" />
    <glyph glyph-name="uni0491" unicode="&#x491;" horiz-adv-x="484" 
d="M254 530v117h212v-316h-200v-331h-223v530h211z" />
    <glyph glyph-name="Wgrave" unicode="&#x1e80;" horiz-adv-x="1006" 
d="M243 669l63 -390l93 390h209l94 -380l63 380h239l-174 -669h-244l-83 346l-85 -346h-244l-169 669h238zM305 931h249l60 -205h-229z" />
    <glyph glyph-name="wgrave" unicode="&#x1e81;" horiz-adv-x="873" 
d="M234 529l44 -244l67 244h184l68 -233l41 233h236l-148 -530h-215l-72 261l-73 -261h-219l-149 530h236zM254 779h240l47 -180h-211z" />
    <glyph glyph-name="Wacute" unicode="&#x1e82;" horiz-adv-x="1006" 
d="M5 669h238l63 -390l93 390h209l94 -380l63 380h239l-174 -669h-244l-83 346l-85 -346h-244zM385 726l61 205h248l-80 -205h-229z" />
    <glyph glyph-name="wacute" unicode="&#x1e83;" horiz-adv-x="873" 
d="M-2 529h236l44 -244l67 244h184l68 -233l41 233h236l-148 -530h-215l-72 261l-73 -261h-219zM335 598l46 180h240l-75 -180h-211z" />
    <glyph glyph-name="Wdieresis" unicode="&#x1e84;" horiz-adv-x="1006" 
d="M5 669h238l63 -390l93 390h209l94 -380l63 380h239l-174 -669h-244l-83 346l-85 -346h-244zM287 926q34 34 84 34t84.5 -34t34.5 -84q0 -51 -34 -85q-35 -35 -85 -35t-84.5 34.5t-34.5 85.5q0 50 35 84zM513 842q0 50 34 84t84 34t84 -34t34 -84q0 -51 -34 -85
q-34 -35 -84 -35t-84 34.5t-34 85.5z" />
    <glyph glyph-name="wdieresis" unicode="&#x1e85;" horiz-adv-x="873" 
d="M-2 529h236l44 -244l67 244h184l68 -233l41 233h236l-148 -530h-215l-72 261l-73 -261h-219zM447 680q0 46 33.5 78.5t80.5 32.5t79.5 -32.5t32.5 -78.5q0 -48 -32 -81q-33 -33 -80 -33t-80.5 33t-33.5 81zM234 759q32 32 80 32q47 0 79.5 -32.5t32.5 -78.5
q0 -48 -32.5 -81t-79.5 -33q-48 0 -80.5 33t-32.5 81q0 47 33 79z" />
    <glyph glyph-name="Germandbls" unicode="&#x1e9e;" horiz-adv-x="687" 
d="M473 -11q-86 0 -142 28v182q46 -21 78 -21q42 0 42 33q0 17 -16 33.5t-35.5 29.5t-35.5 36.5t-16 53.5q0 70 83 107q-27 5 -49 5q-29 0 -49.5 -8t-30 -17.5t-15 -26t-6 -25.5t-0.5 -24v-375h-231v409q0 129 82.5 200t238.5 71q124 0 290 -66l-77 -192q-18 -1 -34 -12.5
t-16 -31.5q0 -15 15 -30t37 -30t44 -33.5t37 -49t15 -68.5q0 -78 -55 -128t-154 -50z" />
    <glyph glyph-name="Ygrave" unicode="&#x1ef2;" horiz-adv-x="686" 
d="M-11 669h267l87 -237l91 237h267l-244 -488v-181h-230v181zM398 931l60 -205h-229l-80 205h249z" />
    <glyph glyph-name="ygrave" unicode="&#x1ef3;" horiz-adv-x="628" 
d="M214 530l104 -310l88 310h223l-151 -460q-16 -47 -29 -80t-32.5 -69.5t-42.5 -60t-53.5 -43.5t-70.5 -29.5t-90 -9.5q-72 0 -142 29v187q62 -30 119 -30q56 0 77 14l-223 552h223zM366 780l47 -180h-211l-76 180h240z" />
    <glyph glyph-name="uni2009" unicode="&#x2009;" horiz-adv-x="96" 
 />
    <glyph glyph-name="endash" unicode="&#x2013;" horiz-adv-x="646" 
d="M598 202h-550v185h550v-185z" />
    <glyph glyph-name="emdash" unicode="&#x2014;" horiz-adv-x="1028" 
d="M980 202h-932v185h932v-185z" />
    <glyph glyph-name="quoteleft" unicode="&#x2018;" horiz-adv-x="336" 
d="M142 702h174l-60 -303h-242z" />
    <glyph glyph-name="quoteright" unicode="&#x2019;" horiz-adv-x="330" 
d="M199 400h-173l60 302h242z" />
    <glyph glyph-name="quotesinglbase" unicode="&#x201a;" horiz-adv-x="334" 
d="M173 -156h-174l60 303h243z" />
    <glyph glyph-name="quotedblleft" unicode="&#x201c;" horiz-adv-x="621" 
d="M142 702h173l-59 -303h-242zM427 702h173l-59 -303h-243z" />
    <glyph glyph-name="quotedblright" unicode="&#x201d;" horiz-adv-x="614" 
d="M199 400h-173l60 302h242zM484 400h-174l60 302h243z" />
    <glyph glyph-name="quotedblbase" unicode="&#x201e;" horiz-adv-x="618" 
d="M173 -156h-174l60 303h243zM458 -156h-174l60 303h242z" />
    <glyph glyph-name="dagger" unicode="&#x2020;" horiz-adv-x="583" 
d="M386 597h168v-185h-168v-308h-189v308h-168v185h168v145h189v-145z" />
    <glyph glyph-name="daggerdbl" unicode="&#x2021;" horiz-adv-x="606" 
d="M565 586v-186h-167v-90h167v-184h-167v-169h-190v169h-167v184h167v90h-167v186h167v139h190v-139h167z" />
    <glyph glyph-name="bullet" unicode="&#x2022;" horiz-adv-x="474" 
d="M237 136q-80 0 -135.5 56t-55.5 137q0 80 55.5 135.5t135.5 55.5t135.5 -55.5t55.5 -135.5q0 -81 -55.5 -137t-135.5 -56z" />
    <glyph glyph-name="ellipsis" unicode="&#x2026;" horiz-adv-x="846" 
d="M146 -13q-50 0 -85 35t-35 86q0 50 35 84.5t85 34.5q51 0 86.5 -34.5t35.5 -84.5q0 -51 -35.5 -86t-86.5 -35zM423 -13q-51 0 -86 35t-35 86q0 50 35 84.5t86 34.5t86 -34.5t35 -84.5q0 -51 -35 -86t-86 -35zM700 -13q-51 0 -86 35t-35 86q0 50 35 84.5t86 34.5t86 -34.5
t35 -84.5q0 -51 -35 -86t-86 -35z" />
    <glyph glyph-name="perthousand" unicode="&#x2030;" horiz-adv-x="1206" 
d="M194 335q-75 0 -122 48t-47 125q0 76 47 124t122 48t122.5 -48t47.5 -124t-47.5 -124.5t-122.5 -48.5zM246 0h-169l498 669h167zM195 457q17 0 27 14t10 38q0 50 -37 50q-38 0 -38 -50q0 -52 38 -52zM635 -11q-75 0 -122 48t-47 125q0 75 47 123.5t122 48.5t123 -48.5
t48 -123.5q0 -76 -48 -124.5t-123 -48.5zM1014 -11q-75 0 -122 48t-47 125q0 75 47 123.5t122 48.5t122.5 -48.5t47.5 -123.5q0 -76 -47.5 -124.5t-122.5 -48.5zM636 110q38 0 38 52q0 51 -38 51q-17 0 -27.5 -13.5t-10.5 -37.5t10.5 -38t27.5 -14zM1014 110q38 0 38 52
q0 51 -38 51q-17 0 -27.5 -13.5t-10.5 -37.5t10.5 -38t27.5 -14z" />
    <glyph glyph-name="guilsinglleft" unicode="&#x2039;" horiz-adv-x="392" 
d="M362 27h-240l-100 223l108 223h240l-110 -223z" />
    <glyph glyph-name="guilsinglright" unicode="&#x203a;" horiz-adv-x="391" 
d="M370 250l-100 -223h-241l102 223l-110 223h240z" />
    <glyph glyph-name="fraction" unicode="&#x2044;" horiz-adv-x="201" 
d="M-55 0h-161l479 669h155z" />
    <glyph glyph-name="uni2070" unicode="&#x2070;" horiz-adv-x="424" 
d="M211 438q-80 0 -135 53t-55 131q0 79 55 132.5t135 53.5q81 0 136.5 -53.5t55.5 -132.5q0 -78 -55.5 -131t-136.5 -53zM211 549q32 0 54 21.5t22 52.5q0 32 -22 53t-54 21q-31 0 -52.5 -21t-21.5 -53q0 -31 21.5 -52.5t52.5 -21.5z" />
    <glyph glyph-name="uni2074" unicode="&#x2074;" horiz-adv-x="390" 
d="M327 593h43v-90h-43v-60h-121v60h-192v75l130 219h190l-7 -2v-202zM206 707l-65 -114h65v114z" />
    <glyph glyph-name="uni2075" unicode="&#x2075;" horiz-adv-x="362" 
d="M206 678q62 0 100.5 -31.5t38.5 -81.5q0 -55 -45 -91t-122 -36q-63 0 -107.5 27t-58.5 79l112 26q3 -13 17.5 -23.5t32.5 -10.5q20 0 33 9.5t13 24.5t-13 24.5t-32 9.5q-36 0 -45 -20l-100 46l33 174h262v-99h-171l-10 -37q30 10 62 10z" />
    <glyph glyph-name="uni2076" unicode="&#x2076;" horiz-adv-x="365" 
d="M225 692q55 0 91.5 -33.5t36.5 -83.5q0 -61 -47 -99t-119 -38q-74 0 -121 38.5t-47 101.5q0 67 60 133l83 93h144l-101 -113q6 1 20 1zM186 537q18 0 30.5 10t12.5 25t-12.5 25t-30.5 10q-19 0 -31 -10.5t-12 -25.5t12 -24.5t31 -9.5z" />
    <glyph glyph-name="uni2077" unicode="&#x2077;" horiz-adv-x="320" 
d="M18 698v106h285v-89l-131 -272h-139l131 255h-146z" />
    <glyph glyph-name="uni2078" unicode="&#x2078;" horiz-adv-x="379" 
d="M298 638q61 -27 61 -86q0 -50 -46.5 -82t-122.5 -32q-77 0 -123.5 32.5t-46.5 83.5q0 26 15.5 49t45.5 35q-43 24 -43 68t43 73.5t107 29.5q66 0 108.5 -29.5t42.5 -73.5t-41 -68zM190 721q-18 0 -29.5 -9t-11.5 -21q0 -13 12 -21t29 -8q16 0 28 8.5t12 20.5t-12 21
t-28 9zM190 526q18 0 31 10t13 24q0 15 -12.5 25t-31.5 10q-18 0 -32 -10t-14 -24t13.5 -24.5t32.5 -10.5z" />
    <glyph glyph-name="uni2079" unicode="&#x2079;" horiz-adv-x="362" 
d="M177 809q73 0 120 -40t47 -102q0 -9 -1.5 -17.5t-2.5 -15.5t-5 -16.5t-6 -14.5t-9 -15.5t-9.5 -14.5t-12 -16.5t-12 -16t-14.5 -18t-15 -18.5l-49 -61h-148l90 113h-10q-56 0 -91.5 33t-35.5 84q0 59 45.5 97.5t118.5 38.5zM134 674q0 -15 12.5 -24.5t31.5 -9.5
q18 0 30.5 10t12.5 25t-12.5 25t-30.5 10q-19 0 -31.5 -10t-12.5 -26z" />
    <glyph glyph-name="uni2080" unicode="&#x2080;" horiz-adv-x="424" 
d="M211 -161q-80 0 -135 53t-55 132t55 132.5t135 53.5q81 0 136.5 -53.5t55.5 -132.5t-55.5 -132t-136.5 -53zM211 -50q32 0 54 21.5t22 53.5q0 31 -22 52t-54 21q-31 0 -52.5 -21t-21.5 -52t21.5 -53t52.5 -22z" />
    <glyph glyph-name="uni2081" unicode="&#x2081;" horiz-adv-x="370" 
d="M258 206v-256h99v-105h-329v105h106v128l-103 -24v114l143 38h84z" />
    <glyph glyph-name="uni2082" unicode="&#x2082;" horiz-adv-x="376" 
d="M283 -24l-46 -30h112v-101h-322v83l142 97q40 27 46 40q3 6 3 12q0 13 -9.5 21t-24.5 8q-39 0 -44 -48l-121 16q2 61 49.5 98.5t118.5 37.5q74 0 117 -35.5t43 -92.5q0 -65 -64 -106z" />
    <glyph glyph-name="uni2083" unicode="&#x2083;" horiz-adv-x="381" 
d="M338 107l-68 -38q39 -7 64 -33t25 -67q0 -58 -49 -93.5t-131 -35.5q-69 0 -113.5 27t-51.5 76l108 36q5 -19 20.5 -30t36.5 -11t35 11t14 27t-13.5 25.5t-35.5 9.5q-20 0 -44 -10l-41 61l85 42h-145v102h304v-99z" />
    <glyph glyph-name="uni2084" unicode="&#x2084;" horiz-adv-x="390" 
d="M327 -6h43v-89h-43v-60h-121v60h-192v75l130 218h190l-7 -2v-202zM206 109l-65 -115h65v115z" />
    <glyph glyph-name="uni2085" unicode="&#x2085;" horiz-adv-x="362" 
d="M206 80q62 0 100.5 -31.5t38.5 -82.5q0 -54 -45 -90.5t-122 -36.5q-63 0 -107.5 27.5t-58.5 79.5l112 26q3 -13 17.5 -23.5t32.5 -10.5q21 0 33.5 9t12.5 25q0 15 -13 24.5t-32 9.5q-36 0 -45 -20l-100 46l33 174h262v-100h-171l-9 -36q28 10 61 10z" />
    <glyph glyph-name="uni2086" unicode="&#x2086;" horiz-adv-x="365" 
d="M225 94q55 0 91.5 -33.5t36.5 -83.5q0 -62 -47 -100t-119 -38q-74 0 -121 38.5t-47 101.5q0 38 14 68t46 66l83 93h144l-100 -113q6 1 19 1zM186 -62q18 0 30.5 10.5t12.5 25.5t-12.5 25t-30.5 10q-19 0 -31 -10.5t-12 -25.5t12 -25t31 -10z" />
    <glyph glyph-name="uni2087" unicode="&#x2087;" horiz-adv-x="320" 
d="M18 100v106h285v-89l-131 -272h-139l131 255h-146z" />
    <glyph glyph-name="uni2088" unicode="&#x2088;" horiz-adv-x="379" 
d="M298 40q61 -27 61 -86q0 -50 -46.5 -82.5t-122.5 -32.5q-77 0 -123.5 33t-46.5 83q0 58 60 85q-42 23 -42 67t43 73.5t107 29.5q66 0 108.5 -29t42.5 -74q0 -43 -41 -67zM190 122q-18 0 -29.5 -8.5t-11.5 -20.5q0 -13 11.5 -21.5t29.5 -8.5q16 0 28 8.5t12 21.5
q0 12 -12 20.5t-28 8.5zM190 -72q18 0 31 10t13 24q0 15 -12.5 25t-31.5 10q-18 0 -32 -10t-14 -25q0 -14 13.5 -24t32.5 -10z" />
    <glyph glyph-name="uni2089" unicode="&#x2089;" horiz-adv-x="362" 
d="M177 210q74 0 120.5 -39.5t46.5 -101.5q0 -9 -1.5 -17.5t-2.5 -15.5t-5 -16.5t-6 -14.5t-9 -15.5t-9.5 -14.5t-12 -16.5t-12 -16t-14.5 -18t-15 -18.5l-49 -61h-148l90 113h-10q-56 0 -91.5 32.5t-35.5 83.5q0 59 45.5 97.5t118.5 38.5zM134 76q0 -15 12.5 -24.5
t31.5 -9.5q18 0 30.5 10t12.5 25t-12.5 25t-30.5 10q-19 0 -31.5 -10t-12.5 -26z" />
    <glyph glyph-name="Euro" unicode="&#x20ac;" horiz-adv-x="697" 
d="M485 170q93 0 170 28v-178q-29 -14 -87 -24t-114 -10q-135 0 -227 66.5t-123 177.5h-78v80h66q-1 7 -1 22v20h-65v81h78q30 114 122.5 181.5t219.5 67.5q58 0 111.5 -13.5t82.5 -34.5v-180q-33 20 -80.5 32.5t-89.5 12.5q-94 0 -143 -66h223v-81h-254q-1 -7 -1 -22
q0 -13 1 -20h254v-80h-221q50 -60 156 -60z" />
    <glyph glyph-name="uni20B4" unicode="&#x20b4;" horiz-adv-x="682" 
d="M652 449v-88h-125q-22 -17 -50 -35h175v-88h-322q-15 -16 -15 -32q0 -26 51 -26q47 0 116.5 7.5t105.5 17.5l11 -176q-44 -17 -111.5 -28.5t-125.5 -11.5q-265 0 -265 189q0 31 8 60h-79v88h137q23 20 50 35h-187v88h352q5 10 5 21q0 30 -61 30q-86 0 -173 -28l-16 170
q101 38 196 38q268 0 268 -186q0 -24 -6 -45h61z" />
    <glyph glyph-name="uni20BD" unicode="&#x20bd;" horiz-adv-x="722" 
d="M459 218h-121v-43h168v-113h-168v-62h-229v62h-68v113h68v43h-68v134h68v317h353q101 0 166 -63.5t65 -162.5q0 -100 -64 -162.5t-170 -62.5zM406 486h-68v-134h65q29 0 48 19t19 47q0 29 -18 48.5t-46 19.5z" />
    <glyph glyph-name="uni20BF" unicode="&#x20bf;" horiz-adv-x="688" 
d="M56 669h112v116h126v-116h57v116h126v-121q78 -13 118 -60.5t40 -113.5q0 -92 -75 -127q101 -35 101 -155q0 -170 -183 -202v-120h-125v114h-57v-114h-126v114h-114v669zM282 265v-84h104q23 0 35 11.5t12 30.5t-13 30.5t-34 11.5h-104zM369 409q49 0 49 40
q0 18 -12.5 29t-31.5 11h-92v-80h87z" />
    <glyph glyph-name="uni2116" unicode="&#x2116;" horiz-adv-x="1242" 
d="M56 669h214l212 -317v317h216v-669h-210l-215 313v-313h-217v669zM786 461q0 91 60 150t152 59q93 0 154.5 -59.5t61.5 -150.5q0 -89 -61.5 -147.5t-154.5 -58.5q-92 0 -152 58.5t-60 148.5zM812 86v124h373v-124h-373zM940 402q23 -24 59 -24t59.5 24t23.5 60t-23 60
q-24 24 -60 24t-59.5 -24t-23.5 -60t24 -60z" />
    <glyph glyph-name="trademark" unicode="&#x2122;" horiz-adv-x="742" 
d="M106 562h-79v107h272v-107h-81v-192h-112v192zM510 545l68 124h112v-299h-103v116l-38 -60h-75l-38 63v-119h-106v299h116z" />
    <glyph glyph-name="estimated" unicode="&#x212e;" horiz-adv-x="854" 
d="M432 -14q-170 0 -283.5 99.5t-113.5 247.5t115 248t282 100q165 0 281.5 -98.5t116.5 -254.5v-23h-628v-208q36 -29 102 -49t128 -20q86 0 165.5 29.5t132.5 84.5l29 -28q-61 -61 -148.5 -94.5t-178.5 -33.5zM202 570v-220h460v220q-89 70 -230 70q-135 0 -230 -70z" />
    <glyph glyph-name="arrowleft" unicode="&#x2190;" horiz-adv-x="810" 
d="M461 415h310v-203h-309l18 -18q35 -35 35 -85t-34.5 -86t-86.5 -36q-51 0 -86 35l-291 292l292 291q35 35 88 35q50 0 85 -37t35 -86q0 -46 -37 -83z" />
    <glyph glyph-name="arrowup" unicode="&#x2191;" horiz-adv-x="696" 
d="M348 705l291 -291q35 -35 35 -87q0 -51 -36 -86t-85 -35t-85 36l-18 18v-310h-204v311l-19 -19q-37 -37 -82 -37q-49 0 -86 34.5t-37 84.5q0 54 35 89z" />
    <glyph glyph-name="arrowright" unicode="&#x2192;" horiz-adv-x="810" 
d="M502 605l292 -291l-292 -292q-35 -35 -86 -35q-52 0 -86.5 36t-34.5 86t35 85l18 18h-309v203h310l-19 19q-36 36 -36 83q0 49 34.5 86t84.5 37q49 0 89 -35z" />
    <glyph glyph-name="arrowdown" unicode="&#x2193;" horiz-adv-x="696" 
d="M553 442q50 0 85.5 -34.5t35.5 -85.5q0 -52 -35 -87l-291 -291l-291 292q-35 35 -35 89q0 50 37 84.5t86 34.5q45 0 82 -37l19 -19v310h204v-309l18 18q35 35 85 35z" />
    <glyph glyph-name="arrowboth" unicode="&#x2194;" horiz-adv-x="1281" 
d="M972 605l292 -291l-291 -292q-35 -35 -87 -35q-51 0 -85.5 36t-34.5 86t35 85l18 18h-357l18 -18q35 -35 35 -85t-34.5 -86t-86.5 -36q-51 0 -86 35l-291 292l292 291q35 35 88 35q50 0 85 -37t35 -86q0 -46 -37 -83l-19 -19h359l-19 19q-37 37 -37 83q0 49 34.5 86
t84.5 37q54 0 89 -35z" />
    <glyph glyph-name="arrowupdn" unicode="&#x2195;" horiz-adv-x="700" 
d="M555 232q50 0 86 -34.5t36 -85.5q0 -52 -35 -87l-292 -291l-291 292q-35 35 -35 89q0 50 37 84.5t86 34.5q46 0 83 -37l19 -19v230l-20 -20q-37 -37 -83 -37q-48 0 -85.5 35t-37.5 86q0 52 35 87l292 292l291 -291q35 -35 35 -86q0 -52 -36 -86.5t-86 -34.5q-49 0 -84 35
l-19 19v-229l19 19q35 35 85 35z" />
    <glyph glyph-name="uni2196" unicode="&#x2196;" horiz-adv-x="726" 
d="M444 402l262 -261l-144 -143l-262 261v-28q0 -52 -31 -85q-34 -36 -87 -36q-52 0 -88 36t-36 86v413h412q52 0 85 -35q36 -36 36 -85q0 -48 -36 -87q-33 -36 -85 -36h-26z" />
    <glyph glyph-name="uni2197" unicode="&#x2197;" horiz-adv-x="723" 
d="M254 648h412v-411q0 -51 -35 -86t-85 -35t-87 35q-35 33 -35 85v26l-262 -262l-143 144l262 262h-28q-54 0 -86 32q-35 33 -35 87q0 52 35 87q36 36 87 36z" />
    <glyph glyph-name="uni2198" unicode="&#x2198;" horiz-adv-x="723" 
d="M633 498q35 -35 35 -86v-411h-413q-50 0 -86 36t-36 87q0 53 36 87q33 31 85 31h29l-262 263l143 144l262 -263v27q0 52 35 85q37 35 87 35t85 -35z" />
    <glyph glyph-name="uni2199" unicode="&#x2199;" horiz-adv-x="722" 
d="M554 211q36 -34 36 -87q0 -51 -36 -87t-86 -36h-413v411q0 51 35 86t85 35t87 -35q36 -33 36 -85v-26l261 262l143 -144l-262 -263h29q52 0 85 -31z" />
    <glyph glyph-name="partialdiff" unicode="&#x2202;" horiz-adv-x="642" 
d="M72 506l88 191q105 2 185.5 -18.5t129.5 -55t80 -83.5t42.5 -98.5t11.5 -105.5q0 -159 -87.5 -253t-232.5 -94q-118 0 -190.5 62.5t-72.5 160.5q0 104 78.5 170.5t200.5 66.5q31 0 70 -6q-45 63 -262 63h-41zM298 180q30 0 53.5 23t33.5 61q-20 4 -44 4q-42 0 -62.5 -14
t-20.5 -36q0 -17 11.5 -27.5t28.5 -10.5z" />
    <glyph glyph-name="product" unicode="&#x220f;" horiz-adv-x="765" 
d="M350 -167h-230v632h-89v204h703v-204h-89v-632h-229v632h-66v-632z" />
    <glyph glyph-name="summation" unicode="&#x2211;" horiz-adv-x="638" 
d="M598 -167h-551v190l153 227l-153 226v193h551v-204h-286l141 -215l-141 -213h286v-204z" />
    <glyph glyph-name="minus" unicode="&#x2212;" horiz-adv-x="534" 
d="M482 231h-429v184h429v-184z" />
    <glyph glyph-name="radical" unicode="&#x221a;" horiz-adv-x="692" 
d="M446 669h231v-204h-83l-200 -632h-200l-200 562h224l75 -268z" />
    <glyph glyph-name="infinity" unicode="&#x221e;" horiz-adv-x="774" 
d="M555 480q78 0 133.5 -55.5t55.5 -134.5q0 -77 -55.5 -131.5t-133.5 -54.5q-21 0 -41 4.5t-33 10t-29.5 17.5t-23 18t-22.5 21.5t-20 19.5q-2 -2 -12 -12.5t-13 -13.5l-12.5 -12.5t-14 -12.5t-14.5 -10.5t-16.5 -10t-17.5 -7.5t-20.5 -7t-22 -3.5t-25.5 -1.5
q-78 0 -133 54t-55 132q0 79 55 134.5t133 55.5q22 0 42 -5t32.5 -10t30 -18t23 -18t23 -23t18.5 -19q2 2 15 16t17 17.5t16.5 14.5t19 15t19.5 11.5t24 10.5t26 5.5t31 2.5zM218 240q8 0 14.5 1.5t14 7t11.5 9.5l15 15l18 18q-6 6 -16 16.5t-13 14t-10 9t-11 7.5t-10 3.5
t-13 1.5q-21 0 -36.5 -15t-15.5 -38q0 -21 15.5 -35.5t36.5 -14.5zM555 240q22 0 37.5 14.5t15.5 35.5q0 23 -15.5 38t-37.5 15q-6 0 -12 -1.5t-10 -3.5t-10 -7.5t-10 -9t-13.5 -14t-15.5 -16.5l17 -17t13.5 -14t9.5 -9t10 -6.5t9 -3t12 -1.5z" />
    <glyph glyph-name="integral" unicode="&#x222b;" horiz-adv-x="581" 
d="M140 -182q-69 0 -133 19l3 191q46 -13 82 -13q43 0 59 21.5t20 59.5l35 379q21 235 234 235q69 0 134 -20l-4 -191q-45 14 -82 14q-38 0 -56.5 -19.5t-22.5 -60.5l-36 -381q-22 -234 -233 -234z" />
    <glyph glyph-name="approxequal" unicode="&#x2248;" horiz-adv-x="588" 
d="M377 346q-35 0 -62.5 15t-47 30t-36.5 15q-16 0 -22.5 -11.5t-7.5 -45.5h-158q2 106 52 159.5t117 53.5q29 0 53 -9.5t36.5 -20.5t26.5 -20.5t26 -9.5q18 0 27.5 12t11.5 44h157q-1 -95 -48.5 -153.5t-124.5 -58.5zM377 102q-36 0 -63 15t-46.5 30t-36.5 15
q-16 0 -22.5 -12t-7.5 -46h-159q3 107 52.5 160t116.5 53q29 0 53 -9t36.5 -20.5t27 -20.5t26.5 -9q17 0 27 11.5t12 43.5h157q-1 -95 -48.5 -153t-124.5 -58z" />
    <glyph glyph-name="notequal" unicode="&#x2260;" horiz-adv-x="536" 
d="M472 515v-179h-137l-17 -40h154v-179h-227l-44 -108h-106l44 108h-76v179h149l17 40h-166v179h239l45 111h106l-45 -111h64z" />
    <glyph glyph-name="lessequal" unicode="&#x2264;" horiz-adv-x="550" 
d="M495 387v-202l-448 136v194l448 133v-202l-257 -27zM495 174v-184h-450v184h450z" />
    <glyph glyph-name="greaterequal" unicode="&#x2265;" horiz-adv-x="549" 
d="M502 321l-448 -136v202l257 32l-257 27v202l448 -133v-194zM505 -10h-451v184h451v-184z" />
    <glyph glyph-name="lozenge" unicode="&#x25ca;" horiz-adv-x="700" 
d="M462 0h-225l-213 335l213 334h225l213 -335zM271 335l79 -149l78 148l-78 151z" />
    <glyph glyph-name="uni2619" unicode="&#x2619;" horiz-adv-x="982" 
d="M755 414q87 -12 143.5 -67t56.5 -133q0 -70 -46 -106t-106 -36q-65 0 -104 33t-39 79q0 27 14 44t35 17q27 0 50 -30q-10 -21 -10 -40q0 -28 19.5 -45.5t43.5 -17.5q25 0 47 17t29 52q-58 8 -108.5 62.5t-75.5 122.5v1q-103 -6 -218 -52h9q38 0 64.5 -29.5t26.5 -67.5
q0 -49 -47.5 -84.5t-145.5 -35.5q-145 0 -257 74.5t-112 162.5q0 29 13.5 47t31.5 18q33 0 52 -46q-38 -18 -38 -56q0 -25 17 -44t42 -19q42 0 65 55q8 18 22.5 68.5t27 84t42 62.5t70.5 29q47 0 74 -29.5t27 -75.5q0 -75 -74 -139l6 -9q1 0 1 1q153 125 284 134
q-56 173 -105 181q-24 2 -24 -22q0 -8 9 -24t9 -29q0 -17 -12 -28.5t-34 -11.5t-37 13t-15 39q0 41 37 67t84 25q18 0 32.5 -3.5t27 -12t21.5 -15t18 -23t14 -24.5t12.5 -30.5t10 -31.5l10 -36t10.5 -36zM771 361q19 -58 46 -94.5t74 -57.5v2q0 56 -33 96t-87 54z" />
    <glyph glyph-name="uni2764" unicode="&#x2764;" horiz-adv-x="778" 
d="M390 44q-55 53 -130 107t-120 83.5t-78 75t-33 99.5q0 75 49.5 125.5t119.5 50.5q66 0 115 -51.5t70 -151.5h13q23 99 72.5 151t112.5 52q70 0 119.5 -50.5t49.5 -125.5q0 -54 -33.5 -99.5t-78.5 -75t-119.5 -83.5t-128.5 -107z" />
    <glyph glyph-name="uni2766" unicode="&#x2766;" horiz-adv-x="599" 
d="M451 481q-38 0 -86 17q-3 -36 -12 -71q34 23 75 23q45 0 75 -29t30 -75q0 -30 -19 -57.5t-46.5 -48t-54.5 -39t-46 -39t-19 -40.5q0 -18 12 -29t31 -11q22 0 37.5 16.5t14.5 49.5q23 6 38 6q44 0 44 -36q0 -31 -37 -58.5t-100 -27.5q-76 0 -159 38t-143.5 108.5
t-60.5 150.5q0 51 33 85t82 34q55 0 89 -36.5t34 -92.5q0 -14 -1 -22l14 -1q5 30 11 47q37 102 37 159v14q-3 2 -21 11.5t-25.5 13.5t-25 11.5t-29 11.5t-26.5 7t-28 3q-31 0 -31 -17q0 -11 9.5 -17t23.5 -6q-5 -30 -24 -43.5t-41 -13.5q-24 0 -44.5 15t-20.5 44
q0 28 21.5 47.5t63.5 25.5q-8 14 -8 29q0 29 30 53t76 24q67 0 103 -52.5t39 -125.5q53 -23 82 -23q18 0 26.5 7.5t8.5 15.5q0 7 -7.5 12.5t-16.5 9t-16.5 14t-7.5 25.5q0 23 17 37.5t44 14.5q32 0 53 -21.5t21 -53.5q0 -41 -34 -67.5t-85 -26.5zM220 605v-1q32 -8 98 -43
q-11 46 -34.5 75.5t-59.5 29.5q-38 0 -38 -28q0 -11 9 -20.5t25 -12.5z" />
    <glyph glyph-name="uni2767" unicode="&#x2767;" horiz-adv-x="980" 
d="M911 400q18 0 31.5 -18t13.5 -47q0 -88 -112 -162.5t-257 -74.5q-98 0 -145.5 35.5t-47.5 84.5q0 38 26.5 67.5t64.5 29.5h9q-115 46 -218 52v-1q-25 -68 -75.5 -122.5t-108.5 -62.5q7 -35 29 -52t47 -17q24 0 43.5 17.5t19.5 45.5q0 19 -10 40q23 30 50 30q21 0 35 -17
t14 -44q0 -46 -39 -79t-104 -33q-60 0 -106 36t-46 106q0 78 56.5 133t143.5 67q2 7 10 35.5t10.5 36.5t10.5 31.5t12.5 31t14 24.5t18.5 23t21 15t27 12t32 3q47 1 84 -25t37 -67q0 -26 -15 -39t-37 -13t-34 11.5t-12 28.5q0 13 9 29t9 24q0 24 -24 22q-49 -8 -105 -181
q131 -9 284 -134l1 -1l6 9q-74 64 -74 139q0 46 27 75.5t74 29.5q41 0 70.5 -29t42 -62.5t27 -84t22.5 -68.5q23 -55 65 -55q25 0 42 19t17 44q0 38 -38 56q19 46 52 46zM89 209q47 21 74 57.5t46 94.5q-54 -14 -87 -54t-33 -96v-2z" />
    <glyph glyph-name="NULL.1" horiz-adv-x="0" 
 />
    <glyph glyph-name="J_acutecomb" horiz-adv-x="506" 
d="M143 202q30 0 49 7.5t26 23t8.5 26t1.5 30.5v380h231v-423q0 -127 -73 -192t-200 -65q-91 0 -169 25v202q70 -14 126 -14zM234 726l60 205h249l-80 -205h-229z" />
    <glyph glyph-name="Iacute_J.loclNLD" horiz-adv-x="834" 
d="M346 14v202q70 -14 126 -14q30 0 49 7.5t26 23t8.5 26t1.5 30.5v380h231v-423q0 -127 -73 -192t-200 -65q-91 0 -169 25zM50 0v669h231v-669h-231zM559 726l61 205h249l-80 -205h-230zM54 726l61 205h249l-80 -205h-230z" />
    <glyph glyph-name="G.ss01" horiz-adv-x="753" 
d="M128 585q103 96 261 96q94 0 163.5 -27t125.5 -88l-171 -148q-44 54 -117 54q-63 0 -99 -40t-36 -100t37 -98t108 -38q54 0 98 30v26h-118v156h338v-283q-49 -60 -140.5 -98.5t-191.5 -38.5q-161 0 -261 97.5t-100 248.5q0 154 103 251z" />
    <glyph glyph-name="Gbreve.ss01" horiz-adv-x="753" 
d="M25 334q0 154 103 250.5t261 96.5q94 0 163.5 -27t125.5 -88l-171 -148q-44 54 -117 54q-63 0 -99 -40t-36 -100t37 -98t108 -38q54 0 98 30v26h-118v156h338v-283q-49 -60 -140.5 -98.5t-191.5 -38.5q-161 0 -261 97.5t-100 248.5zM139 938h179q0 -31 19 -51t50 -20
t50 19.5t19 48.5v3h179q-2 -102 -69 -156q-67 -55 -179 -55t-179 54.5t-69 156.5z" />
    <glyph glyph-name="Gcircumflex.ss01" horiz-adv-x="753" 
d="M128 585q103 96 261 96q94 0 163.5 -27t125.5 -88l-171 -148q-44 54 -117 54q-63 0 -99 -40t-36 -100t37 -98t108 -38q54 0 98 30v26h-118v156h338v-283q-49 -60 -140.5 -98.5t-191.5 -38.5q-161 0 -261 97.5t-100 248.5q0 154 103 251zM272 941h233l142 -215h-213
l-46 88l-47 -88h-213z" />
    <glyph glyph-name="uni0122.ss01" horiz-adv-x="753" 
d="M128 585q103 96 261 96q94 0 163.5 -27t125.5 -88l-171 -148q-44 54 -117 54q-63 0 -99 -40t-36 -100t37 -98t108 -38q54 0 98 30v26h-118v156h338v-283q-49 -60 -140.5 -98.5t-191.5 -38.5q-161 0 -261 97.5t-100 248.5q0 154 103 251zM254 -45h235l-50 -202h-217z" />
    <glyph glyph-name="Gdotaccent.ss01" horiz-adv-x="753" 
d="M25 334q0 154 103 250.5t261 96.5q94 0 163.5 -27t125.5 -88l-171 -148q-44 54 -117 54q-63 0 -99 -40t-36 -100t37 -98t108 -38q54 0 98 30v26h-118v156h338v-283q-49 -60 -140.5 -98.5t-191.5 -38.5q-161 0 -261 97.5t-100 248.5zM273 829q0 49 33.5 82.5t82.5 33.5
q48 0 82 -33.5t34 -82.5q0 -47 -34 -80t-82 -33q-49 0 -82.5 33t-33.5 80z" />
    <glyph glyph-name="E.ss07" horiz-adv-x="607" 
d="M49 669h509v-192h-509v192zM49 0v192h509v-192h-509zM558 422v-174h-509v174h509z" />
    <glyph glyph-name="Eacute.ss07" horiz-adv-x="607" 
d="M49 192h509v-192h-509v192zM49 669h509v-192h-509v192zM49 422h509v-174h-509v174zM243 931h249l-80 -205h-230z" />
    <glyph glyph-name="Ebreve.ss07" horiz-adv-x="607" 
d="M558 669v-192h-509v192h509zM49 192h509v-192h-509v192zM49 422h509v-174h-509v174zM50 938h179v-3q0 -29 19 -48.5t50 -19.5t49.5 19.5t18.5 48.5v3h180q-3 -102 -70 -156.5t-178 -54.5q-112 0 -179 54.5t-69 156.5z" />
    <glyph glyph-name="Ecaron.ss07" horiz-adv-x="617" 
d="M58 669h510v-192h-510v192zM58 192h510v-192h-510v192zM58 422h510v-174h-510v174zM48 941h214l47 -87l45 87h214l-143 -215h-233z" />
    <glyph glyph-name="Ecircumflex.ss07" horiz-adv-x="616" 
d="M58 192h509v-192h-509v192zM58 669h509v-192h-509v192zM567 422v-174h-509v174h509zM191 941h233l142 -215h-212l-47 88l-47 -88h-213z" />
    <glyph glyph-name="Edieresis.ss07" horiz-adv-x="607" 
d="M49 192h509v-192h-509v192zM558 669v-192h-509v192h509zM558 422v-174h-509v174h509zM50 842q0 50 34.5 84t84.5 34t84 -34t34 -84q0 -51 -34 -85q-34 -35 -84 -35t-84.5 34.5t-34.5 85.5zM345 926q34 34 84 34t83.5 -34t33.5 -84q0 -51 -33 -85q-34 -35 -84 -35
t-84.5 34.5t-34.5 85.5q0 50 35 84z" />
    <glyph glyph-name="Edotaccent.ss07" horiz-adv-x="607" 
d="M49 669h509v-192h-509v192zM49 192h509v-192h-509v192zM49 422h509v-174h-509v174zM183 829q0 49 34 82.5t82 33.5q49 0 82.5 -33.5t33.5 -82.5q0 -47 -33.5 -80t-82.5 -33q-48 0 -82 33t-34 80z" />
    <glyph glyph-name="Egrave.ss07" horiz-adv-x="607" 
d="M49 192h509v-192h-509v192zM49 669h509v-192h-509v192zM49 422h509v-174h-509v174zM102 931h249l61 -205h-230z" />
    <glyph glyph-name="Emacron.ss07" horiz-adv-x="607" 
d="M49 192h509v-192h-509v192zM49 669h509v-192h-509v192zM49 422h509v-174h-509v174zM90 904h420v-161h-420v161z" />
    <glyph glyph-name="Eogonek.ss07" horiz-adv-x="617" 
d="M49 192h509v-192q-5 -2 -15.5 -5t-16 -5t-14 -5t-13 -5t-11 -5.5t-9.5 -6t-6.5 -6.5t-5 -8t-1.5 -9q0 -23 32 -23q10 0 60 10v-139q-45 -22 -111 -22q-69 0 -108 32.5t-39 86.5q0 27 18.5 58t55.5 52h-325v192zM49 477v192h509v-192h-509zM49 422h509v-174h-509v174z" />
    <glyph glyph-name="Q.ss08" horiz-adv-x="764" 
d="M127 583q100 98 254 98t255.5 -98.5t101.5 -248.5q0 -167 -124 -267l132 -104l-164 -168l-234 194q-142 11 -232 107.5t-90 237.5q0 151 101 249zM247 334q0 -57 38.5 -96.5t95.5 -39.5t96 39.5t39 96.5q0 58 -39 97t-96 39q-58 0 -96 -39t-38 -97z" />
    <glyph glyph-name="Y.ss12" horiz-adv-x="680" 
d="M-3 669h236l115 -263l111 263h230l-295 -669h-241l86 178z" />
    <glyph glyph-name="Yacute.ss12" horiz-adv-x="680" 
d="M233 669l115 -263l111 263h230l-295 -669h-241l86 178l-242 491h236zM292 931h249l-80 -205h-230z" />
    <glyph glyph-name="Ycircumflex.ss12" horiz-adv-x="680" 
d="M233 669l115 -263l111 263h230l-295 -669h-241l86 178l-242 491h236zM87 726l144 215h233l142 -215h-212l-47 88l-47 -88h-213z" />
    <glyph glyph-name="Ydieresis.ss12" horiz-adv-x="680" 
d="M233 669l115 -263l111 263h230l-295 -669h-241l86 178l-242 491h236zM98 842q0 50 35 84t85 34t84 -34t34 -84q0 -51 -34 -85q-34 -35 -84 -35t-85 34.5t-35 85.5zM359 842q0 50 34.5 84t84.5 34t83.5 -34t33.5 -84q0 -51 -33 -85q-34 -35 -84 -35t-84.5 34.5t-34.5 85.5
z" />
    <glyph glyph-name="Ygrave.ss12" horiz-adv-x="680" 
d="M-3 669h236l115 -263l111 263h230l-295 -669h-241l86 178zM400 931l61 -205h-230l-80 205h249z" />
    <glyph glyph-name="Y.ss13" horiz-adv-x="690" 
d="M274 669l96 -276l83 276h241l-182 -457q-16 -41 -32 -70.5t-42.5 -60t-58 -49t-78.5 -30.5t-106 -12q-79 0 -144 23v184q76 -20 130 -20q39 0 60 10l-215 482h248z" />
    <glyph glyph-name="Yacute.ss13" horiz-adv-x="690" 
d="M26 669h248l96 -276l83 276h241l-182 -457q-16 -41 -32 -70.5t-42.5 -60t-58 -49t-78.5 -30.5t-106 -12q-79 0 -144 23v184q76 -20 130 -20q39 0 60 10zM244 715l61 206h249l-80 -206h-230z" />
    <glyph glyph-name="Ycircumflex.ss13" horiz-adv-x="690" 
d="M274 669l96 -276l83 276h241l-182 -457q-16 -41 -32 -70.5t-42.5 -60t-58 -49t-78.5 -30.5t-106 -12q-79 0 -144 23v184q76 -20 130 -20q39 0 60 10l-215 482h248zM100 715l144 215h233l142 -215h-213l-46 88l-47 -88h-213z" />
    <glyph glyph-name="Ydieresis.ss13" horiz-adv-x="690" 
d="M26 669h248l96 -276l83 276h241l-182 -457q-16 -41 -32 -70.5t-42.5 -60t-58 -49t-78.5 -30.5t-106 -12q-79 0 -144 23v184q76 -20 130 -20q39 0 60 10zM111 832q0 49 34.5 83.5t84.5 34.5t84.5 -34t34.5 -84q0 -51 -34 -85q-35 -35 -85 -35t-84.5 34.5t-34.5 85.5z
M406 916q34 34 84 34t84 -34t34 -84q0 -51 -34 -85q-34 -35 -84 -35t-84 34.5t-34 85.5q0 50 34 84z" />
    <glyph glyph-name="Ygrave.ss13" horiz-adv-x="690" 
d="M274 669l96 -276l83 276h241l-182 -457q-16 -41 -32 -70.5t-42.5 -60t-58 -49t-78.5 -30.5t-106 -12q-79 0 -144 23v184q76 -20 130 -20q39 0 60 10l-215 482h248zM413 921l61 -206h-230l-80 206h249z" />
    <glyph glyph-name="A.ss14" horiz-adv-x="698" 
d="M207 669h283l208 -669h-245l-104 457l-105 -457h-248z" />
    <glyph glyph-name="Aacute.ss14" horiz-adv-x="698" 
d="M-4 0l211 669h283l208 -669h-245l-104 457l-105 -457h-248zM232 726l61 205h249l-80 -205h-230z" />
    <glyph glyph-name="Abreve.ss14" horiz-adv-x="698" 
d="M-4 0l211 669h283l208 -669h-245l-104 457l-105 -457h-248zM278 938q0 -31 19 -51t50 -20t50 19.5t19 48.5v3h179q-2 -102 -69 -156q-67 -55 -179 -55t-179 54.5t-69 156.5h179z" />
    <glyph glyph-name="Acircumflex.ss14" horiz-adv-x="698" 
d="M-4 0l211 669h283l208 -669h-245l-104 457l-105 -457h-248zM232 941h233l142 -215h-213l-46 88l-47 -88h-213z" />
    <glyph glyph-name="Adieresis.ss14" horiz-adv-x="698" 
d="M-4 0l211 669h283l208 -669h-245l-104 457l-105 -457h-248zM99 842q0 50 34.5 84t84.5 34t84.5 -34t34.5 -84q0 -51 -34 -85q-35 -35 -85 -35t-84.5 34.5t-34.5 85.5zM394 926q34 34 84 34t84 -34t34 -84q0 -51 -34 -85q-34 -35 -84 -35t-84 34.5t-34 85.5q0 50 34 84z
" />
    <glyph glyph-name="Agrave.ss14" horiz-adv-x="698" 
d="M207 669h283l208 -669h-245l-104 457l-105 -457h-248zM401 931l61 -205h-230l-80 205h249z" />
    <glyph glyph-name="Amacron.ss14" horiz-adv-x="698" 
d="M-4 0l211 669h283l208 -669h-245l-104 457l-105 -457h-248zM139 743v161h421v-161h-421z" />
    <glyph glyph-name="Aogonek.ss14" horiz-adv-x="698" 
d="M606 -55q0 -23 32 -23q10 0 60 10v-139q-45 -22 -111 -22q-69 0 -108 32.5t-39 86.5q0 27 18.5 58t55.5 52h-61l-104 457l-105 -457h-248l211 669h283l208 -669q-5 -2 -15.5 -5t-16 -5t-14 -5t-13 -5t-11 -5.5t-9.5 -6t-6.5 -6.5t-5 -8t-1.5 -9z" />
    <glyph glyph-name="Aring.ss14" horiz-adv-x="698" 
d="M207 669h283l208 -669h-245l-104 457l-105 -457h-248zM237 932q44 38 112 38q67 0 111 -38t44 -97t-44 -98t-111 -39t-111.5 39t-44.5 98t44 97zM314 798q14 -14 35 -14t35.5 14t14.5 35q0 20 -15 34t-35 14q-21 0 -35.5 -14t-14.5 -34q0 -21 15 -35z" />
    <glyph glyph-name="Atilde.ss14" horiz-adv-x="698" 
d="M207 669h283l208 -669h-245l-104 457l-105 -457h-248zM144 890q36 44 112 44q41 0 69.5 -14t47 -28t36.5 -14q21 0 32.5 13.5t11.5 34.5v3h155q1 -9 1 -27q0 -72 -37.5 -120t-110.5 -48q-39 0 -68.5 15t-49.5 30t-37 15q-20 0 -31 -14t-11 -35v-4h-154q-2 24 -2 35
q0 70 36 114z" />
    <glyph glyph-name="i.loclTRK" horiz-adv-x="306" 
d="M42 530h221v-530h-221v530zM71 759q33 33 82 33q48 0 81 -33t33 -82q0 -47 -33 -80t-81 -33q-49 0 -82 33t-33 80q0 49 33 82z" />
    <glyph glyph-name="j_acutecomb" horiz-adv-x="318" 
d="M2 -27q54 0 54 58v499h219v-555q0 -89 -60.5 -143t-165.5 -54q-76 0 -139 23v185q49 -13 92 -13zM110 778h240l-75 -180h-210z" />
    <glyph glyph-name="germandbls.calt" horiz-adv-x="687" 
d="M473 -11q-86 0 -142 28v182q46 -21 78 -21q42 0 42 33q0 17 -16 33.5t-35.5 29.5t-35.5 36.5t-16 53.5q0 70 83 107q-27 5 -49 5q-29 0 -49.5 -8t-30 -17.5t-15 -26t-6 -25.5t-0.5 -24v-375h-231v409q0 129 82.5 200t238.5 71q124 0 290 -66l-77 -192q-18 -1 -34 -12.5
t-16 -31.5q0 -15 15 -30t37 -30t44 -33.5t37 -49t15 -68.5q0 -78 -55 -128t-154 -50z" />
    <glyph glyph-name="iacute_j.loclNLD" horiz-adv-x="620" 
d="M211 -14q49 -13 93 -13q54 0 54 58v499h219v-555q0 -89 -60.5 -143t-166.5 -54q-74 0 -139 23v185zM38 530h221v-530h-221v530zM358 598l46 180h240l-75 -180h-211zM47 598l46 180h240l-75 -180h-211z" />
    <glyph glyph-name="j.short" horiz-adv-x="318" 
d="M166 566q-52 0 -88 35t-36 87t36 87.5t88 35.5q51 0 87 -35.5t36 -87.5t-36 -87t-87 -35zM-57 -199v185q28 -13 63 -13q12 0 20.5 1.5t13.5 6.5t8.5 7.5t5 11t1.5 10.5v12.5v11.5v496h220v-559q0 -85 -57.5 -139t-149.5 -54q-67 0 -125 23z" />
    <glyph glyph-name="a.ss02" horiz-adv-x="609" 
d="M266 328h96q-1 12 -5.5 20t-25 15t-57.5 7q-70 0 -198 -32v166q5 1 27.5 7.5t38.5 10.5t41.5 9t54.5 7.5t60 2.5q145 0 207 -53t62 -158v-330h-197v33q-58 -45 -152 -45q-97 0 -147 47.5t-50 123.5q0 169 245 169zM225 177q0 -36 57 -36q39 0 59.5 15.5t20.5 40.5v18h-80
q-28 0 -42.5 -10.5t-14.5 -27.5z" />
    <glyph glyph-name="aacute.ss02" horiz-adv-x="609" 
d="M21 159q0 169 245 169h96q-1 12 -5.5 20t-25 15t-57.5 7q-70 0 -198 -32v166q5 1 27.5 7.5t38.5 10.5t41.5 9t54.5 7.5t60 2.5q145 0 207 -53t62 -158v-330h-197v33q-58 -45 -152 -45q-97 0 -147 47.5t-50 123.5zM263 778h240l-75 -180h-210zM282 141q39 0 59.5 15.5
t20.5 40.5v18h-80q-28 0 -42.5 -10.5t-14.5 -27.5q0 -36 57 -36z" />
    <glyph glyph-name="abreve.ss02" horiz-adv-x="609" 
d="M266 328h96q-1 12 -5.5 20t-25 15t-57.5 7q-70 0 -198 -32v166q5 1 27.5 7.5t38.5 10.5t41.5 9t54.5 7.5t60 2.5q145 0 207 -53t62 -158v-330h-197v33q-58 -45 -152 -45q-97 0 -147 47.5t-50 123.5q0 169 245 169zM255 781q0 -33 16.5 -52.5t45.5 -19.5q28 0 44.5 19.5
t16.5 52.5h160q-2 -92 -62 -140.5t-159 -48.5q-101 0 -160.5 48.5t-62.5 140.5h161zM282 141q39 0 59.5 15.5t20.5 40.5v18h-80q-28 0 -42.5 -10.5t-14.5 -27.5q0 -36 57 -36z" />
    <glyph glyph-name="acircumflex.ss02" horiz-adv-x="609" 
d="M21 159q0 169 245 169h96q-1 12 -5.5 20t-25 15t-57.5 7q-70 0 -198 -32v166q5 1 27.5 7.5t38.5 10.5t41.5 9t54.5 7.5t60 2.5q145 0 207 -53t62 -158v-330h-197v33q-58 -45 -152 -45q-97 0 -147 47.5t-50 123.5zM90 596l125 187h204l125 -187h-187l-40 75l-40 -75h-187z
M225 177q0 -36 57 -36q39 0 59.5 15.5t20.5 40.5v18h-80q-28 0 -42.5 -10.5t-14.5 -27.5z" />
    <glyph glyph-name="adieresis.ss02" horiz-adv-x="609" 
d="M266 328h96q-1 12 -5.5 20t-25 15t-57.5 7q-70 0 -198 -32v166q5 1 27.5 7.5t38.5 10.5t41.5 9t54.5 7.5t60 2.5q145 0 207 -53t62 -158v-330h-197v33q-58 -45 -152 -45q-97 0 -147 47.5t-50 123.5q0 169 245 169zM83 680q0 46 33 78.5t80 32.5t80 -32.5t33 -78.5
q0 -48 -33 -81t-80 -33t-80 33t-33 81zM330 680q0 46 33 78.5t80 32.5t79.5 -32t32.5 -79q0 -48 -32 -81q-33 -33 -80 -33t-80 33t-33 81zM225 177q0 -36 57 -36q39 0 59.5 15.5t20.5 40.5v18h-80q-28 0 -42.5 -10.5t-14.5 -27.5z" />
    <glyph glyph-name="agrave.ss02" horiz-adv-x="609" 
d="M21 159q0 169 245 169h96q-1 12 -5.5 20t-25 15t-57.5 7q-70 0 -198 -32v166q5 1 27.5 7.5t38.5 10.5t41.5 9t54.5 7.5t60 2.5q145 0 207 -53t62 -158v-330h-197v33q-58 -45 -152 -45q-97 0 -147 47.5t-50 123.5zM137 779h240l46 -180h-210zM282 141q39 0 59.5 15.5
t20.5 40.5v18h-80q-28 0 -42.5 -10.5t-14.5 -27.5q0 -36 57 -36z" />
    <glyph glyph-name="amacron.ss02" horiz-adv-x="609" 
d="M21 159q0 169 245 169h96q-1 12 -5.5 20t-25 15t-57.5 7q-70 0 -198 -32v166q5 1 27.5 7.5t38.5 10.5t41.5 9t54.5 7.5t60 2.5q145 0 207 -53t62 -158v-330h-197v33q-58 -45 -152 -45q-97 0 -147 47.5t-50 123.5zM515 758v-144h-391v144h391zM282 141q39 0 59.5 15.5
t20.5 40.5v18h-80q-28 0 -42.5 -10.5t-14.5 -27.5q0 -36 57 -36z" />
    <glyph glyph-name="aogonek.ss02" horiz-adv-x="609" 
d="M21 159q0 169 245 169h96q-1 12 -5.5 20t-25 15t-57.5 7q-70 0 -198 -32v166q5 1 27.5 7.5t38.5 10.5t41.5 9t54.5 7.5t60 2.5q145 0 207 -53t62 -158v-330h1q-67 -21 -80 -32q-12 -10 -12 -23q0 -23 31 -23q11 0 61 10v-139q-46 -22 -111 -22q-70 0 -108.5 32.5
t-38.5 86.5q0 27 18.5 58t55.5 52h-14v33q-58 -45 -152 -45q-97 0 -147 47.5t-50 123.5zM225 177q0 -36 57 -36q39 0 59.5 15.5t20.5 40.5v18h-80q-28 0 -42.5 -10.5t-14.5 -27.5z" />
    <glyph glyph-name="aring.ss02" horiz-adv-x="609" 
d="M21 159q0 169 245 169h96q-1 12 -5.5 20t-25 15t-57.5 7q-70 0 -198 -32v166q5 1 27.5 7.5t38.5 10.5t41.5 9t54.5 7.5t60 2.5q145 0 207 -53t62 -158v-330h-197v33q-58 -45 -152 -45q-97 0 -147 47.5t-50 123.5zM165 719q0 58 43 95.5t108 37.5t108 -37.5t43 -95.5
t-43 -95q-43 -38 -108 -38t-108 37.5t-43 95.5zM225 177q0 -36 57 -36q39 0 59.5 15.5t20.5 40.5v18h-80q-28 0 -42.5 -10.5t-14.5 -27.5zM282 684q14 -14 34 -14q21 0 35 13.5t14 34.5q0 20 -14 34t-35 14q-20 0 -34 -14t-14 -34q0 -21 14 -34z" />
    <glyph glyph-name="atilde.ss02" horiz-adv-x="609" 
d="M266 328h96q-1 12 -5.5 20t-25 15t-57.5 7q-70 0 -198 -32v166q5 1 27.5 7.5t38.5 10.5t41.5 9t54.5 7.5t60 2.5q145 0 207 -53t62 -158v-330h-197v33q-58 -45 -152 -45q-97 0 -147 47.5t-50 123.5q0 169 245 169zM132 744q36 45 114 45q31 0 53 -9t31 -20.5t21 -20.5
t25 -9q32 0 32 46v6h155q2 -18 2 -28q0 -71 -39 -119.5t-113 -48.5q-37 0 -62 15.5t-41.5 31t-32.5 15.5q-17 0 -21.5 -10.5t-4.5 -33.5v-10h-154q-2 24 -2 36q0 69 37 114zM282 141q39 0 59.5 15.5t20.5 40.5v18h-80q-28 0 -42.5 -10.5t-14.5 -27.5q0 -36 57 -36z" />
    <glyph glyph-name="g.ss04" horiz-adv-x="683" 
d="M85 46q-30 32 -30 73q0 69 63 100q-77 51 -77 137q0 83 74 134.5t211 51.5q66 0 115 -12q23 4 52 23.5t40 31t40 40.5l121 -128q-46 -67 -99 -72q16 -31 16 -69q0 -83 -74 -134.5t-211 -51.5q-29 0 -56 3q-15 -7 -15 -20q0 -23 47 -23h125q114 0 172.5 -44.5t58.5 -119.5
q0 -86 -88 -137t-259 -51q-156 0 -233.5 44t-77.5 119q0 81 85 105zM243 -66q17 -9 45 -9h82q28 0 44.5 10.5t16.5 25.5q0 37 -65 37h-95q-45 -5 -45 -37q0 -17 17 -27zM280 319q18 -14 46 -14t46 14t18 38t-18 38t-46 14t-46 -14t-18 -38t18 -38z" />
    <glyph glyph-name="gbreve.ss04" horiz-adv-x="683" 
d="M85 46q-30 32 -30 73q0 69 63 100q-77 51 -77 137q0 83 74 134.5t211 51.5q66 0 115 -12q23 4 52 23.5t40 31t40 40.5l121 -128q-46 -67 -99 -72q16 -31 16 -69q0 -83 -74 -134.5t-211 -51.5q-29 0 -56 3q-15 -7 -15 -20q0 -23 47 -23h125q114 0 172.5 -44.5t58.5 -119.5
q0 -86 -88 -137t-259 -51q-156 0 -233.5 44t-77.5 119q0 81 85 105zM101 782h161q0 -33 16 -52.5t45 -19.5t45 19.5t16 52.5h161q-2 -91 -62 -139q-60 -49 -160 -49t-160 48.5t-62 139.5zM243 -66q17 -9 45 -9h82q28 0 44.5 10.5t16.5 25.5q0 37 -65 37h-95q-45 -5 -45 -37
q0 -17 17 -27zM262 357q0 -24 18 -38t46 -14t46 14t18 38t-18 38t-46 14t-46 -14t-18 -38z" />
    <glyph glyph-name="gcircumflex.ss04" horiz-adv-x="683" 
d="M0 -59q0 81 85 105q-30 32 -30 73q0 69 63 100q-77 51 -77 137q0 83 74 134.5t211 51.5q66 0 115 -12q45 7 106 68h-184l-40 75l-40 -75h-187l126 187h204l123 -185q4 5 12 13l12 12l121 -128q-46 -67 -99 -72q16 -31 16 -69q0 -83 -74 -134.5t-211 -51.5q-29 0 -56 3
q-15 -7 -15 -20q0 -23 47 -23h125q114 0 172.5 -44.5t58.5 -119.5q0 -86 -88 -137t-259 -51q-156 0 -233.5 44t-77.5 119zM243 -66q17 -9 45 -9h82q28 0 44.5 10.5t16.5 25.5q0 37 -65 37h-95q-45 -5 -45 -37q0 -17 17 -27zM262 357q0 -24 18 -38t46 -14t46 14t18 38t-18 38
t-46 14t-46 -14t-18 -38z" />
    <glyph glyph-name="uni0123.ss04" horiz-adv-x="683" 
d="M0 -59q0 81 85 105q-30 32 -30 73q0 69 63 100q-77 51 -77 137q0 83 74 134.5t211 51.5q66 0 115 -12q23 4 52 23.5t40 31t40 40.5l121 -128q-46 -67 -99 -72q16 -31 16 -69q0 -83 -74 -134.5t-211 -51.5q-29 0 -56 3q-15 -7 -15 -20q0 -23 47 -23h125q114 0 172.5 -44.5
t58.5 -119.5q0 -86 -88 -137t-259 -51q-156 0 -233.5 44t-77.5 119zM282 777h197l-32 -194h-222zM243 -66q17 -9 45 -9h82q28 0 44.5 10.5t16.5 25.5q0 37 -65 37h-95q-45 -5 -45 -37q0 -17 17 -27zM280 319q18 -14 46 -14t46 14t18 38t-18 38t-46 14t-46 -14t-18 -38
t18 -38z" />
    <glyph glyph-name="gdotaccent.ss04" horiz-adv-x="683" 
d="M85 46q-30 32 -30 73q0 69 63 100q-77 51 -77 137q0 83 74 134.5t211 51.5q66 0 115 -12q23 4 52 23.5t40 31t40 40.5l121 -128q-46 -67 -99 -72q16 -31 16 -69q0 -83 -74 -134.5t-211 -51.5q-29 0 -56 3q-15 -7 -15 -20q0 -23 47 -23h125q114 0 172.5 -44.5t58.5 -119.5
q0 -86 -88 -137t-259 -51q-156 0 -233.5 44t-77.5 119q0 81 85 105zM211 679q0 49 33 82t82 33q48 0 81 -33t33 -82q0 -47 -33 -80t-81 -33q-49 0 -82 33t-33 80zM226 -39q0 -17 17 -26.5t45 -9.5h82q28 0 44.5 10.5t16.5 25.5q0 37 -65 37h-95q-45 -5 -45 -37zM262 357
q0 -24 18 -38t46 -14t46 14t18 38t-18 38t-46 14t-46 -14t-18 -38z" />
    <glyph glyph-name="germandbls.ss06" horiz-adv-x="659" 
d="M262 -180h-220v622q0 135 79 207.5t213 72.5q113 0 183.5 -49.5t70.5 -123.5q0 -32 -15 -60.5t-32.5 -44t-32.5 -32.5t-15 -29t15 -25.5t36.5 -29t42.5 -35t36 -52t15 -71.5q0 -79 -55 -130t-143 -51q-77 0 -131 28v182q44 -21 77 -21q37 0 37 21q0 15 -17.5 33t-39 32
t-39 37.5t-17.5 49.5t18.5 47.5t37 42t18.5 43.5q0 21 -14 33.5t-37 12.5q-32 0 -51.5 -23.5t-19.5 -61.5v-625z" />
    <glyph glyph-name="a.ss09" horiz-adv-x="707" 
d="M95 464q71 78 181 78q78 0 134 -48v36h201v-308q0 -52 39 -52q23 0 60 13v-173q-60 -22 -121 -22q-107 0 -143 86q-62 -86 -176 -86q-108 0 -177 77.5t-69 199.5q0 121 71 199zM237 264q0 -38 24.5 -62.5t62.5 -24.5q37 0 61.5 25t24.5 63q0 37 -24 62t-61 25
q-39 0 -63.5 -24.5t-24.5 -63.5z" />
    <glyph glyph-name="aacute.ss09" horiz-adv-x="707" 
d="M95 464q71 78 181 78q78 0 134 -48v36h201v-308q0 -52 39 -52q23 0 60 13v-173q-60 -22 -121 -22q-107 0 -143 86q-62 -86 -176 -86q-108 0 -177 77.5t-69 199.5q0 121 71 199zM285 778h240l-75 -180h-211zM262 202q24 -25 62 -25q37 0 61.5 25t24.5 63q0 37 -24 62
t-61 25q-39 0 -63.5 -24.5t-24.5 -63.5q0 -38 25 -62z" />
    <glyph glyph-name="abreve.ss09" horiz-adv-x="707" 
d="M95 464q71 78 181 78q78 0 134 -48v36h201v-308q0 -52 39 -52q23 0 60 13v-173q-60 -22 -121 -22q-107 0 -143 86q-62 -86 -176 -86q-108 0 -177 77.5t-69 199.5q0 121 71 199zM277 781q0 -33 16 -52.5t45 -19.5t45 19.5t16 52.5h161q-2 -92 -62 -140q-60 -49 -160 -49
t-160 48.5t-62 140.5h161zM262 202q24 -25 62 -25q37 0 61.5 25t24.5 63q0 37 -24 62t-61 25q-39 0 -63.5 -24.5t-24.5 -63.5q0 -38 25 -62z" />
    <glyph glyph-name="acircumflex.ss09" horiz-adv-x="707" 
d="M95 464q71 78 181 78q78 0 134 -48v36h201v-308q0 -52 39 -52q23 0 60 13v-173q-60 -22 -121 -22q-107 0 -143 86q-62 -86 -176 -86q-108 0 -177 77.5t-69 199.5q0 121 71 199zM111 596l126 187h204l125 -187h-188l-40 75l-40 -75h-187zM262 202q24 -25 62 -25
q37 0 61.5 25t24.5 63q0 37 -24 62t-61 25q-39 0 -63.5 -24.5t-24.5 -63.5q0 -38 25 -62z" />
    <glyph glyph-name="adieresis.ss09" horiz-adv-x="707" 
d="M24 265q0 121 71 199t181 78q78 0 134 -48v36h201v-308q0 -52 39 -52q23 0 60 13v-173q-60 -22 -121 -22q-107 0 -143 86q-62 -86 -176 -86q-108 0 -177 77.5t-69 199.5zM385 759q33 32 80 32t79.5 -32.5t32.5 -78.5q0 -48 -32 -81q-33 -33 -80 -33t-80.5 33t-33.5 81
q0 46 34 79zM105 680q0 47 32.5 79t80.5 32q47 0 79.5 -32.5t32.5 -78.5q0 -48 -32.5 -81t-79.5 -33q-48 0 -80.5 33t-32.5 81zM262 202q24 -25 62 -25q37 0 61.5 25t24.5 63q0 37 -24 62t-61 25q-39 0 -63.5 -24.5t-24.5 -63.5q0 -38 25 -62z" />
    <glyph glyph-name="agrave.ss09" horiz-adv-x="707" 
d="M24 265q0 121 71 199t181 78q78 0 134 -48v36h201v-308q0 -52 39 -52q23 0 60 13v-173q-60 -22 -121 -22q-107 0 -143 86q-62 -86 -176 -86q-108 0 -177 77.5t-69 199.5zM398 779l47 -180h-211l-76 180h240zM237 264q0 -38 24.5 -62.5t62.5 -24.5q37 0 61.5 25t24.5 63
q0 37 -24 62t-61 25q-39 0 -63.5 -24.5t-24.5 -63.5z" />
    <glyph glyph-name="amacron.ss09" horiz-adv-x="707" 
d="M24 265q0 121 71 199t181 78q78 0 134 -48v36h201v-308q0 -52 39 -52q23 0 60 13v-173q-60 -22 -121 -22q-107 0 -143 86q-62 -86 -176 -86q-108 0 -177 77.5t-69 199.5zM146 758h391v-144h-391v144zM237 264q0 -38 24.5 -62.5t62.5 -24.5q37 0 61.5 25t24.5 63
q0 37 -24 62t-61 25q-39 0 -63.5 -24.5t-24.5 -63.5z" />
    <glyph glyph-name="aogonek.ss09" horiz-adv-x="707" 
d="M95 464q71 78 181 78q78 0 134 -48v36h201v-308q0 -52 39 -52q23 0 60 13v-173q-7 -3 -19 -6t-17 -5q-27 -9 -40 -14t-24.5 -15t-11.5 -23q0 -23 31 -23q11 0 61 10v-139q-47 -21 -112 -21q-69 0 -108 32t-39 86q0 28 20 60t60 52q-45 22 -65 70q-62 -86 -176 -86
q-108 0 -177 77.5t-69 199.5q0 121 71 199zM237 264q0 -38 24.5 -62.5t62.5 -24.5q37 0 61.5 25t24.5 63q0 37 -24 62t-61 25q-39 0 -63.5 -24.5t-24.5 -63.5z" />
    <glyph glyph-name="aring.ss09" horiz-adv-x="707" 
d="M24 265q0 121 71 199t181 78q78 0 134 -48v36h201v-308q0 -52 39 -52q23 0 60 13v-173q-60 -22 -121 -22q-107 0 -143 86q-62 -86 -176 -86q-108 0 -177 77.5t-69 199.5zM230 815q43 37 108 37t108 -37.5t43 -95.5t-43 -95q-43 -38 -108 -38t-108.5 37.5t-43.5 95.5
t44 96zM237 264q0 -38 24.5 -62.5t62.5 -24.5q37 0 61.5 25t24.5 63q0 37 -24 62t-61 25q-39 0 -63.5 -24.5t-24.5 -63.5zM290 718q0 -21 13.5 -34.5t34.5 -13.5t34.5 13.5t13.5 34.5q0 20 -13 34q-14 14 -35 14t-34.5 -14t-13.5 -34z" />
    <glyph glyph-name="atilde.ss09" horiz-adv-x="707" 
d="M95 464q71 78 181 78q78 0 134 -48v36h201v-308q0 -52 39 -52q23 0 60 13v-173q-60 -22 -121 -22q-107 0 -143 86q-62 -86 -176 -86q-108 0 -177 77.5t-69 199.5q0 121 71 199zM116 629q0 70 36.5 115t115.5 45q31 0 52.5 -9t31 -20.5t21.5 -20.5t25 -9q32 0 32 49v3h155
q1 -9 1 -27q0 -71 -38.5 -120t-113.5 -49q-37 0 -62 15.5t-41 31t-33 15.5t-21.5 -10.5t-4.5 -27.5q0 -7 1 -16h-155q-2 24 -2 35zM262 202q24 -25 62 -25q37 0 61.5 25t24.5 63q0 37 -24 62t-61 25q-39 0 -63.5 -24.5t-24.5 -63.5q0 -38 25 -62z" />
    <glyph glyph-name="u.ss09" horiz-adv-x="672" 
d="M38 530h220v-284q0 -54 45 -54q24 0 38.5 16.5t14.5 45.5v276h219v-303q0 -49 38 -49q27 0 61 12v-180q-63 -22 -124 -22q-53 0 -91 24t-54 66q-57 -90 -166 -90q-93 0 -147 60t-54 174v308z" />
    <glyph glyph-name="uacute.ss09" horiz-adv-x="672" 
d="M38 530h220v-284q0 -54 45 -54q24 0 38.5 16.5t14.5 45.5v276h219v-303q0 -49 38 -49q27 0 61 12v-180q-63 -22 -124 -22q-53 0 -91 24t-54 66q-57 -90 -166 -90q-93 0 -147 60t-54 174v308zM250 778h240l-75 -180h-210z" />
    <glyph glyph-name="ubreve.ss09" horiz-adv-x="672" 
d="M38 530h220v-284q0 -54 45 -54q24 0 38.5 16.5t14.5 45.5v276h219v-303q0 -49 38 -49q27 0 61 12v-180q-63 -22 -124 -22q-53 0 -91 24t-54 66q-57 -90 -166 -90q-93 0 -147 60t-54 174v308zM242 781q0 -33 16.5 -52.5t45.5 -19.5q28 0 44.5 19.5t16.5 52.5h161
q-3 -92 -62 -140q-60 -49 -160 -49t-160 48.5t-62 140.5h160z" />
    <glyph glyph-name="ucircumflex.ss09" horiz-adv-x="672" 
d="M38 530h220v-284q0 -54 45 -54q24 0 38.5 16.5t14.5 45.5v276h219v-303q0 -49 38 -49q27 0 61 12v-180q-63 -22 -124 -22q-53 0 -91 24t-54 66q-57 -90 -166 -90q-93 0 -147 60t-54 174v308zM202 783h204l125 -187h-187l-40 75l-40 -75h-187z" />
    <glyph glyph-name="udieresis.ss09" horiz-adv-x="672" 
d="M38 222v308h220v-284q0 -54 45 -54q24 0 38.5 16.5t14.5 45.5v276h219v-303q0 -49 38 -49q27 0 61 12v-180q-63 -22 -124 -22q-53 0 -91 24t-54 66q-57 -90 -166 -90q-93 0 -147 60t-54 174zM103 759q33 32 80 32t80 -32.5t33 -78.5q0 -48 -33 -81t-80 -33t-80 33t-33 81
q0 46 33 79zM350 759q33 32 80 32t79.5 -32t32.5 -79q0 -48 -32 -81q-33 -33 -80 -33t-80 33t-33 81q0 46 33 79z" />
    <glyph glyph-name="ugrave.ss09" horiz-adv-x="672" 
d="M258 530v-284q0 -54 45 -54q24 0 38.5 16.5t14.5 45.5v276h219v-303q0 -49 38 -49q27 0 61 12v-180q-63 -22 -124 -22q-53 0 -91 24t-54 66q-57 -90 -166 -90q-93 0 -147 60t-54 174v308h220zM124 779h240l46 -180h-210z" />
    <glyph glyph-name="uhungarumlaut.ss09" horiz-adv-x="672" 
d="M258 530v-284q0 -54 45 -54q24 0 38.5 16.5t14.5 45.5v276h219v-303q0 -49 38 -49q27 0 61 12v-180q-63 -22 -124 -22q-53 0 -91 24t-54 66q-57 -90 -166 -90q-93 0 -147 60t-54 174v308h220zM317 598l56 180h225l-66 -180h-215zM74 598l36 180h228l-52 -180h-212z" />
    <glyph glyph-name="umacron.ss09" horiz-adv-x="672" 
d="M258 530v-284q0 -54 45 -54q24 0 38.5 16.5t14.5 45.5v276h219v-303q0 -49 38 -49q27 0 61 12v-180q-63 -22 -124 -22q-53 0 -91 24t-54 66q-57 -90 -166 -90q-93 0 -147 60t-54 174v308h220zM111 758h391v-144h-391v144z" />
    <glyph glyph-name="uogonek.ss09" horiz-adv-x="671" 
d="M258 530v-284q0 -54 45 -54q24 0 38.5 16.5t14.5 45.5v276h219v-303q0 -49 38 -49q27 0 61 12v-180q-10 -3 -36 -11q-61 -19 -61 -45q0 -24 31 -24q6 0 61 11v-139q-46 -22 -111 -22q-70 0 -109 32.5t-39 85.5q0 25 16 54t49 51q-50 23 -70 75q-57 -90 -166 -90
q-93 0 -147 60t-54 174v308h220z" />
    <glyph glyph-name="uring.ss09" horiz-adv-x="672" 
d="M38 222v308h220v-284q0 -54 45 -54q24 0 38.5 16.5t14.5 45.5v276h219v-303q0 -49 38 -49q27 0 61 12v-180q-63 -22 -124 -22q-53 0 -91 24t-54 66q-57 -90 -166 -90q-93 0 -147 60t-54 174zM152 719q0 58 43 95.5t108 37.5t108 -37.5t43 -95.5t-43 -95q-43 -38 -108 -38
t-108 37.5t-43 95.5zM255 718q0 -21 14 -34.5t34 -13.5q21 0 35 13.5t14 34.5q0 20 -14 34t-35 14q-20 0 -34 -14t-14 -34z" />
    <glyph glyph-name="utilde.ss09" horiz-adv-x="672" 
d="M38 530h220v-284q0 -54 45 -54q24 0 38.5 16.5t14.5 45.5v276h219v-303q0 -49 38 -49q27 0 61 12v-180q-63 -22 -124 -22q-53 0 -91 24t-54 66q-57 -90 -166 -90q-93 0 -147 60t-54 174v308zM82 629q0 70 36.5 115t115.5 45q31 0 52.5 -9t30.5 -20.5t21 -20.5t25 -9
q32 0 32 46v6h155q2 -20 2 -29q0 -70 -38.5 -118.5t-113.5 -48.5q-37 0 -62 15.5t-41.5 31t-32.5 15.5q-17 0 -21.5 -10.5t-4.5 -33.5v-10h-154q-2 24 -2 35z" />
    <glyph glyph-name="y.ss15" horiz-adv-x="625" 
d="M-9 530h221l101 -276l97 276h221l-291 -744h-225l93 211z" />
    <glyph glyph-name="yacute.ss15" horiz-adv-x="625" 
d="M212 530l101 -276l97 276h221l-291 -744h-225l93 211l-217 533h221zM255 778h240l-75 -180h-210z" />
    <glyph glyph-name="ycircumflex.ss15" horiz-adv-x="625" 
d="M212 530l101 -276l97 276h221l-291 -744h-225l93 211l-217 533h221zM82 596l125 187h204l125 -187h-187l-40 75l-40 -75h-187z" />
    <glyph glyph-name="ydieresis.ss15" horiz-adv-x="625" 
d="M212 530l101 -276l97 276h221l-291 -744h-225l93 211l-217 533h221zM75 680q0 46 33 78.5t80 32.5t80 -32.5t33 -78.5q0 -48 -33 -81t-80 -33t-80 33t-33 81zM322 680q0 46 33 78.5t80 32.5t79.5 -32t32.5 -79q0 -48 -32 -81q-33 -33 -80 -33t-80 33t-33 81z" />
    <glyph glyph-name="ygrave.ss15" horiz-adv-x="625" 
d="M212 530l101 -276l97 276h221l-291 -744h-225l93 211l-217 533h221zM129 779h240l46 -180h-210z" />
    <glyph glyph-name="IJ.loclNLD" horiz-adv-x="822" 
d="M50 0v669h231v-669h-231zM505 -11q-92 0 -170 25v202q72 -14 127 -14q30 0 48.5 7.5t25.5 23t8.5 26t1.5 30.5v380h232v-423q0 -127 -73 -192t-200 -65z" />
    <glyph glyph-name="ij.loclNLD" horiz-adv-x="624" 
d="M153 564q-52 0 -88 35.5t-36 86.5q0 52 35.5 88t88.5 36q52 0 87.5 -36t35.5 -88q0 -51 -35.5 -86.5t-87.5 -35.5zM472 564q-52 0 -88 35.5t-36 86.5q0 52 36 88t88 36t87.5 -35.5t35.5 -88.5q0 -51 -35.5 -86.5t-87.5 -35.5zM263 0h-221v530h221v-530zM215 -199v185
q49 -13 93 -13q54 0 54 58v499h219v-555q0 -89 -60.5 -143t-166.5 -54q-74 0 -139 23z" />
    <glyph glyph-name="uni0414.loclBGR" horiz-adv-x="835" 
d="M569 669l157 -474h93v-323h-225v128h-352v-128h-226v323h93l157 474h303zM489 195l-72 287l-72 -287h144z" />
    <glyph glyph-name="uni041B.loclBGR" horiz-adv-x="698" 
d="M244 0h-248l211 669h283l208 -669h-245l-104 457z" />
    <glyph glyph-name="uni0423.loclBGR" horiz-adv-x="680" 
d="M348 406l111 263h230l-295 -669h-241l86 178l-242 491h236z" />
    <glyph glyph-name="uni0424.loclBGR" horiz-adv-x="977" 
d="M696 647q118 0 184 -81t66 -232q0 -150 -66.5 -230t-185.5 -80q-43 0 -98 12v-120h-214v121q-66 -13 -99 -13q-119 0 -185.5 80t-66.5 230q0 151 66.5 231.5t185.5 80.5q32 0 99 -12v121h214v-120q57 12 100 12zM255 334q0 -140 87 -140q20 0 41 3v275q-27 4 -46 4
q-82 0 -82 -142zM642 193q81 0 81 141q0 142 -81 142q-18 0 -48 -3v-276q24 -4 48 -4z" />
    <glyph glyph-name="uni0430.loclBGR" horiz-adv-x="655" 
d="M96 465q71 77 182 77q78 0 133 -50v38h201v-530h-201v36q-56 -48 -137 -48q-110 0 -180 77.5t-70 200.5q0 121 72 199zM262 202q24 -25 62 -25q37 0 61.5 25t24.5 63q0 37 -24 62t-61 25q-39 0 -63.5 -24.5t-24.5 -63.5q0 -38 25 -62z" />
    <glyph glyph-name="uni0432.loclBGR" horiz-adv-x="629" 
d="M506 387q99 -46 99 -167q0 -104 -79 -167t-209 -63q-127 0 -203.5 64t-76.5 183v233q0 126 77.5 195t202.5 69q118 0 189 -57.5t71 -146.5q0 -95 -71 -143zM317 558q-32 0 -51.5 -20t-19.5 -53v-48h63q37 0 54.5 18.5t17.5 44.5q0 58 -64 58zM318 164q37 0 56.5 17
t19.5 46q0 28 -17 46t-49 18h-82v-44v-7v-11t1 -11.5t3 -13t5 -11.5t8.5 -11.5t13 -9t18 -6.5t23.5 -2z" />
    <glyph glyph-name="uni0433.loclBGR" horiz-adv-x="550" 
d="M267 -12q-110 0 -175 40t-65 126q0 35 12.5 62.5t29 44t44 30t44 19t43.5 12.5l56 15q36 9 36 23q0 18 -38 18q-74 0 -189 -36l-31 160q125 39 239 39q120 0 182.5 -45.5t62.5 -130.5q0 -30 -9.5 -52t-21.5 -36t-42 -27.5t-49.5 -20t-65.5 -20.5l-50 -15q-29 -8 -29 -23
q0 -16 30 -16q40 0 103 16.5t106 34.5l33 -167q-136 -51 -256 -51z" />
    <glyph glyph-name="uni0434.loclBGR" horiz-adv-x="658" 
d="M25 277q0 114 70.5 188.5t176.5 74.5q77 0 138 -43v33h206v-477q0 -126 -86 -200.5t-233 -74.5q-113 0 -227 48v182q116 -50 208 -50q59 0 95 25.5t36 74.5v4q-57 -43 -138 -43q-106 0 -176 72.5t-70 185.5zM263 212q24 -23 60 -23q35 0 59.5 23.5t24.5 57.5
q0 35 -23.5 59t-58.5 24q-37 0 -61.5 -24t-24.5 -59t24 -58z" />
    <glyph glyph-name="uni0436.loclBGR" horiz-adv-x="932" 
d="M690 530h250l-178 -264l176 -266h-255l-109 183v-183h-216v184h-1l-109 -184h-254l176 268l-178 262h250l116 -180v180h216v-177z" />
    <glyph glyph-name="uni0437.loclBGR" horiz-adv-x="593" 
d="M489 198q81 -51 81 -167q0 -113 -79 -183t-217 -70q-124 0 -250 55v179q139 -54 238 -54q50 0 72.5 18.5t22.5 44.5q0 25 -19 41t-52 16h-170v165h134q80 0 80 55q0 27 -20.5 43.5t-61.5 16.5q-37 0 -99.5 -13.5t-106.5 -31.5v180q114 49 237 49q120 0 192.5 -59
t72.5 -153q0 -82 -55 -132z" />
    <glyph glyph-name="uni0438.loclBGR" 
d="M38 530h220v-299q0 -26 12.5 -40t33.5 -14q24 0 38.5 17t14.5 46v290h219v-530h-209v38q-55 -50 -137 -50q-90 0 -141 60t-51 174v308z" />
    <glyph glyph-name="uni0439.loclBGR" 
d="M38 530h220v-299q0 -26 12.5 -40t33.5 -14q24 0 38.5 17t14.5 46v290h219v-530h-209v38q-55 -50 -137 -50q-90 0 -141 60t-51 174v308zM246 774q1 -88 62 -88q60 0 61 88h160q-6 -93 -65 -146t-156 -53q-98 0 -157.5 53t-65.5 146h161z" />
    <glyph glyph-name="uni043A.loclBGR" horiz-adv-x="607" 
d="M43 701h218v-337l105 166h251l-161 -251l155 -279h-255l-95 192v-192h-218v701z" />
    <glyph glyph-name="uni043B.loclBGR" horiz-adv-x="630" 
d="M243 -1h-244l169 530h303l159 -530h-244l-67 338z" />
    <glyph glyph-name="uni043F.loclBGR" 
d="M43 0v530h209v-36q54 46 127 46q91 0 146.5 -54.5t55.5 -143.5v-342h-219v296q0 26 -12.5 40.5t-34.5 14.5t-37.5 -16.5t-15.5 -44.5v-290h-219z" />
    <glyph glyph-name="uni0442.loclBGR" horiz-adv-x="946" 
d="M43 0v530h209v-39q54 49 139 49q88 0 139 -57q65 57 162 57q95 0 154.5 -55t59.5 -144v-341h-220v294q0 27 -13 42t-34 15q-24 0 -39 -17.5t-15 -47.5v-286h-220v295q0 26 -13 41t-35 15q-24 0 -39.5 -18t-15.5 -47v-286h-219z" />
    <glyph glyph-name="uni0446.loclBGR" horiz-adv-x="697" 
d="M642 178h62v-300h-214v112q-33 6 -57.5 29.5t-30.5 54.5q-56 -86 -163 -86q-93 0 -147 60t-54 174v308h220v-299q0 -54 45 -54q24 0 38.5 17t14.5 47v289h219v-286q0 -35 15.5 -50.5t51.5 -15.5z" />
    <glyph glyph-name="uni0448.loclBGR" horiz-adv-x="996" 
d="M937 178q27 0 61 12v-180q-64 -22 -125 -22q-112 0 -146 88q-57 -88 -168 -88q-106 0 -160 78q-55 -78 -158 -78q-94 0 -148.5 60t-54.5 174v308h220v-299q0 -26 13 -40t34 -14q24 0 39 17.5t15 47.5v288h219v-296q0 -27 13 -42t35 -15q24 0 39 17.5t15 47.5v288h219
v-304q0 -14 1.5 -22t10.5 -17t26 -9z" />
    <glyph glyph-name="uni0449.loclBGR" horiz-adv-x="1020" 
d="M966 178h62v-300h-214v112q-33 6 -57.5 29.5t-30.5 54.5q-56 -86 -164 -86q-110 0 -163 78q-55 -78 -159 -78q-93 0 -147.5 60t-54.5 174v308h220v-299q0 -26 13 -40t34 -14q24 0 39 17.5t15 47.5v288h219v-296q0 -27 13 -42t35 -15q24 0 39 17.5t15 47.5v288h219v-286
q0 -35 15.5 -50.5t51.5 -15.5z" />
    <glyph glyph-name="uni044C.loclBGR" horiz-adv-x="612" 
d="M363 455q100 0 165 -65.5t65 -160.5q0 -106 -80.5 -173.5t-198.5 -67.5q-120 0 -198.5 69t-78.5 177v296h210v-106q50 31 116 31zM314 163q32 0 54 21t22 52t-22 51.5t-54 20.5t-53.5 -21t-21.5 -52t21.5 -51.5t53.5 -20.5z" />
    <glyph glyph-name="uni044A.loclBGR" horiz-adv-x="695" 
d="M446 455q100 0 165 -65.5t65 -160.5q0 -106 -80.5 -173.5t-198.5 -67.5q-120 0 -198.5 69t-78.5 177v97h-100v199h310v-106q48 31 116 31zM398 163q32 0 54 21t22 52t-22 51.5t-54 20.5q-33 0 -54.5 -20.5t-21.5 -52.5q0 -31 21.5 -51.5t54.5 -20.5z" />
    <glyph glyph-name="uni044E.loclBGR" horiz-adv-x="923" 
d="M259 701v-355h65q26 89 101.5 142.5t181.5 53.5q130 0 212.5 -79.5t82.5 -200.5t-83.5 -197.5t-211.5 -76.5q-99 0 -172.5 46.5t-103.5 125.5h-72v-160h-216v701h216zM546 202q25 -26 62 -26t61.5 25t24.5 63t-24 63.5t-61 25.5q-38 0 -63.5 -25.5t-25.5 -63.5
q0 -37 26 -62z" />
    <glyph glyph-name="uni0431.loclSRB" horiz-adv-x="630" 
d="M362 474q27 -5 40.5 -8.5t43.5 -13t48 -19.5t42 -28.5t37 -41t23 -55.5t10 -72q0 -119 -85 -183t-211 -64q-127 0 -206.5 67.5t-79.5 173.5q0 119 89 175q-67 44 -67 135q0 76 60.5 123.5t156.5 47.5q24 0 66.5 -2t62.5 -2q90 0 170 35l30 -189q-51 -25 -129 -25
q-31 0 -80.5 5t-63.5 5q-46 0 -46 -25q0 -15 17 -21.5t60 -15.5q2 0 3.5 -0.5t4 -1t4.5 -0.5zM314 169q32 0 54 22t22 54t-21.5 54.5t-53.5 22.5q-33 0 -55 -22.5t-22 -54.5t22 -54t54 -22z" />
    <glyph glyph-name="uni0430.loclBGR.ss09" horiz-adv-x="707" 
d="M95 464q71 78 181 78q78 0 134 -48v36h201v-316q0 -44 35 -44q15 0 52 13v-173q-60 -22 -109 -22q-107 0 -143 86q-62 -86 -176 -86q-108 0 -177 77.5t-69 199.5q0 121 71 199zM237 264q0 -38 24.5 -62.5t62.5 -24.5q37 0 61.5 25t24.5 63q0 37 -24 62t-61 25
q-39 0 -63.5 -24.5t-24.5 -63.5z" />
    <glyph glyph-name="uni0438.loclBGR.ss09" horiz-adv-x="672" 
d="M38 530h220v-284q0 -54 45 -54q24 0 38.5 16.5t14.5 45.5v276h219v-310q0 -42 32 -42q21 0 55 12v-180q-63 -22 -112 -22q-53 0 -91 24t-54 66q-57 -90 -166 -90q-93 0 -147 60t-54 174v308z" />
    <glyph glyph-name="uni0439.loclBGR.ss09" horiz-adv-x="672" 
d="M258 530v-284q0 -54 45 -54q24 0 38.5 16.5t14.5 45.5v276h219v-303q0 -49 38 -49q27 0 61 12v-180q-63 -22 -124 -22q-53 0 -91 24t-54 66q-57 -90 -166 -90q-93 0 -147 60t-54 174v308h220zM82 778h161q0 -33 16.5 -52.5t45.5 -19.5q28 0 44.5 19.5t16.5 52.5h160
q-2 -91 -62 -139.5t-159 -48.5q-101 0 -160.5 48.5t-62.5 139.5z" />
    <glyph glyph-name="zero.zero" horiz-adv-x="670" 
d="M336 680q133 0 216.5 -96.5t83.5 -249.5q0 -152 -83.5 -248.5t-216.5 -96.5q-134 0 -218 96.5t-84 248.5q0 153 84 249.5t218 96.5zM336 506q-50 0 -79.5 -46.5t-29.5 -124.5q0 -53 13 -89l145 245q-23 15 -49 15zM336 162q49 0 78 47t29 126q0 51 -12 88l-145 -245
q20 -16 50 -16z" />
    <glyph glyph-name="zero.lf" horiz-adv-x="691" 
d="M345 -11q-138 0 -224.5 96t-86.5 249t86.5 249.5t224.5 96.5t224.5 -96.5t86.5 -249.5t-86 -249t-225 -96zM345 193q40 0 62.5 37.5t22.5 104.5q0 65 -22.5 103t-62.5 38t-62.5 -37.5t-22.5 -103.5t22.5 -104t62.5 -38z" />
    <glyph glyph-name="one.lf" horiz-adv-x="427" 
d="M25 638l194 31h144v-669h-225v461l-113 -13v190z" />
    <glyph glyph-name="two.lf" horiz-adv-x="606" 
d="M419 230l-48 -40h190v-191h-515v165l234 203q22 19 30 26.5t18 23t10 30.5q0 21 -14 32t-34 11q-26 0 -43 -17.5t-17 -52.5l-198 21q-1 106 74.5 172.5t196.5 66.5q113 0 184 -61t71 -158q0 -73 -36 -124t-103 -107z" />
    <glyph glyph-name="three.lf" horiz-adv-x="622" 
d="M553 502l-118 -86q69 -13 110.5 -61.5t41.5 -125.5q0 -109 -79 -175t-215 -66q-116 0 -188.5 52t-86.5 156l201 44q12 -66 75 -66q30 0 49.5 18t19.5 45q0 25 -19.5 41.5t-48.5 16.5q-26 0 -53 -17l-80 120l122 88h-223v183h492v-167z" />
    <glyph glyph-name="four.lf" horiz-adv-x="665" 
d="M550 278h79v-171h-79v-107h-220v107h-308v147l240 415h288v-391zM330 469l-109 -191h109v191z" />
    <glyph glyph-name="five.lf" horiz-adv-x="626" 
d="M360 444q105 0 168 -60.5t63 -157.5q0 -106 -78 -172t-211 -66q-110 0 -184.5 47.5t-93.5 144.5l202 47q20 -56 75 -56q29 0 48.5 19t19.5 48q0 30 -19 48.5t-50 18.5q-21 0 -40 -11.5t-27 -30.5l-177 83l56 323h446v-181h-285l-14 -65q42 21 101 21z" />
    <glyph glyph-name="six.lf" horiz-adv-x="635" 
d="M390 462q96 0 160 -62t64 -156q0 -114 -83 -184.5t-211 -70.5q-129 0 -212.5 71t-83.5 188q0 67 23.5 122t82.5 127l140 172h267l-172 -208q8 1 25 1zM318 172q28 0 46.5 19t18.5 47q0 27 -18.5 45.5t-46.5 18.5t-47 -18.5t-19 -45.5q0 -29 18.5 -47.5t47.5 -18.5z" />
    <glyph glyph-name="seven.lf" horiz-adv-x="542" 
d="M29 478v191h485v-163l-211 -506h-249l212 478h-237z" />
    <glyph glyph-name="eight.lf" horiz-adv-x="663" 
d="M531 362q49 -24 75 -66.5t26 -91.5q0 -94 -81.5 -154.5t-219.5 -60.5t-218.5 60.5t-80.5 155.5q0 50 25.5 92t75.5 65q-68 44 -68 124q0 84 74 139t191 55q118 0 192.5 -55t74.5 -140q0 -79 -66 -123zM331 514q-24 0 -39 -15t-15 -38t15 -37.5t40 -14.5q24 0 39.5 14.5
t15.5 38.5q0 22 -16 37t-40 15zM331 161q28 0 46 17t18 43t-18 42.5t-46 16.5q-27 0 -45 -16.5t-18 -42.5t18 -43t45 -17z" />
    <glyph glyph-name="nine.lf" horiz-adv-x="634" 
d="M315 680q130 0 213 -73t83 -187q0 -70 -30.5 -125.5t-106.5 -153.5q-4 -5 -6 -8t-5.5 -7t-6.5 -8l-91 -118h-267l164 211h-12q-99 0 -164 61t-65 156q0 108 82.5 180t211.5 72zM246 431q0 -28 18.5 -46.5t45.5 -18.5q29 0 48 18.5t19 46.5q0 29 -18 47.5t-47 18.5
q-28 0 -47 -18.5t-19 -47.5z" />
    <glyph glyph-name="zero.osf" horiz-adv-x="632" 
d="M316 -11q-122 0 -204.5 80.5t-82.5 200.5q0 121 82.5 202t204.5 81q123 0 205.5 -81t82.5 -202q0 -120 -82.5 -200.5t-205.5 -80.5zM316 164q37 0 62 30.5t25 75.5q0 46 -25 76.5t-62 30.5t-61.5 -30.5t-24.5 -76.5q0 -45 24.5 -75.5t61.5 -30.5z" />
    <glyph glyph-name="one.osf" horiz-adv-x="435" 
d="M24 475l217 59h146v-534h-201v321l-162 -38v192z" />
    <glyph glyph-name="two.osf" horiz-adv-x="558" 
d="M410 206l-60 -39h169v-167h-484v149l235 145q43 26 43 51q0 15 -11.5 25.5t-31.5 10.5q-24 0 -39.5 -15.5t-14.5 -40.5l-180 20q-2 97 65.5 153t180.5 56q109 0 172.5 -51.5t63.5 -128.5q0 -98 -108 -168z" />
    <glyph glyph-name="three.osf" horiz-adv-x="585" 
d="M522 382l-123 -96q70 -11 114 -58.5t44 -119.5q0 -106 -76.5 -172t-204.5 -66q-110 0 -180.5 52t-83.5 154l185 41q5 -35 25.5 -55.5t54.5 -20.5q32 0 52.5 21t20.5 52q0 23 -21.5 42t-50.5 19q-22 0 -57 -21l-75 110l131 104h-224v166h469v-152z" />
    <glyph glyph-name="four.osf" horiz-adv-x="620" 
d="M518 172h72v-149h-72v-138h-194v138h-301v120l227 393h268v-364zM324 360l-103 -188h103v188z" />
    <glyph glyph-name="five.osf" horiz-adv-x="587" 
d="M333 325q104 0 165 -61.5t61 -155.5q0 -106 -74.5 -172t-200.5 -66q-105 0 -177 48.5t-89 142.5l182 45q21 -68 82 -68q33 0 55 23t22 58q0 26 -21.5 47t-55.5 21q-22 0 -43 -12.5t-31 -33.5l-160 76l52 317h426v-166h-279l-12 -66q41 23 98 23z" />
    <glyph glyph-name="six.osf" horiz-adv-x="602" 
d="M369 440q91 0 154 -61.5t63 -149.5q0 -105 -79 -172.5t-199 -67.5t-199 67.5t-79 175.5q0 70 25.5 123t72.5 110l142 171h230l-166 -199q15 3 35 3zM306 148q33 0 56.5 22.5t23.5 54.5q0 30 -23.5 52t-56.5 22q-34 0 -56.5 -22t-22.5 -54q0 -31 23 -53t56 -22z" />
    <glyph glyph-name="seven.osf" horiz-adv-x="512" 
d="M25 354v180h467v-159l-236 -487h-231l233 466h-233z" />
    <glyph glyph-name="eight.osf" horiz-adv-x="602" 
d="M472 344q48 -23 74.5 -64.5t26.5 -88.5q0 -87 -76 -144.5t-197 -57.5q-122 0 -196.5 57t-74.5 145q0 50 26 90.5t74 62.5q-70 45 -70 121q0 77 67.5 129.5t171.5 52.5q105 0 174 -53t69 -131q0 -77 -69 -119zM300 502q-23 0 -40.5 -18t-17.5 -42q0 -25 16 -40.5t44 -15.5
q25 0 40.5 16t15.5 42q0 22 -18 40t-40 18zM300 138q27 0 46 20t19 46q0 27 -19 45t-47 18q-27 0 -46 -18.5t-19 -45.5q0 -26 19 -45.5t47 -19.5z" />
    <glyph glyph-name="nine.osf" horiz-adv-x="607" 
d="M295 553q124 0 205.5 -71.5t81.5 -180.5q0 -18 -2 -34t-8 -34t-9.5 -30t-15.5 -32t-16.5 -29t-21.5 -31.5t-22 -29.5t-26.5 -34t-26.5 -34l-98 -127h-238l161 208q-7 -1 -21 -1q-97 0 -161 60.5t-64 155.5q0 104 79.5 174t202.5 70zM214 310q0 -32 23 -54.5t56 -22.5
q32 0 55 22t23 56q0 33 -22.5 55.5t-55.5 22.5q-32 0 -55.5 -23t-23.5 -56z" />
    <glyph glyph-name="one.osf.salt" horiz-adv-x="414" 
d="M19 354v180h347v-534h-202v354h-145z" />
    <glyph glyph-name="zero.osf.zero" horiz-adv-x="614" 
d="M306 553q120 0 200 -81.5t80 -201.5t-80 -200.5t-200 -80.5q-117 0 -197 80.5t-80 200.5t80 201.5t197 81.5zM306 407q-48 0 -80 -39.5t-32 -97.5q0 -37 16 -71l136 200q-19 8 -40 8zM306 134q49 0 82 39t33 97q0 39 -16 73l-138 -201q19 -8 39 -8z" />
    <glyph glyph-name="zero.tf" horiz-adv-x="640" 
d="M319 -11q-136 0 -215 95t-79 250t79 250.5t215 95.5q137 0 216 -95.5t79 -250.5t-79 -250t-216 -95zM319 193q69 0 69 142q0 141 -69 141t-69 -141q0 -142 69 -142z" />
    <glyph glyph-name="one.tf" horiz-adv-x="640" 
d="M450 669v-471h142v-199h-514v199h146v260l-129 -18v190l219 39h136z" />
    <glyph glyph-name="two.tf" horiz-adv-x="640" 
d="M437 230l-49 -40h190v-191h-515v165l235 203q22 19 30 27t17.5 23t9.5 30q0 21 -13.5 32t-33.5 11q-26 0 -43.5 -17.5t-17.5 -52.5l-197 21q-1 106 74.5 172.5t196.5 66.5q112 0 183.5 -61t71.5 -158q0 -73 -36 -124.5t-103 -106.5z" />
    <glyph glyph-name="three.tf" horiz-adv-x="640" 
d="M565 502l-118 -86q69 -13 110.5 -61.5t41.5 -125.5q0 -109 -79 -175t-215 -66q-116 0 -188.5 52t-86.5 156l201 44q12 -66 75 -66q30 0 49.5 18t19.5 45q0 25 -19.5 41.5t-48.5 16.5q-26 0 -53 -17l-80 120l122 88h-223v183h492v-167z" />
    <glyph glyph-name="four.tf" horiz-adv-x="640" 
d="M544 278h79v-171h-79v-107h-220v107h-308v147l240 415h288v-391zM324 469l-109 -191h109v191z" />
    <glyph glyph-name="five.tf" horiz-adv-x="640" 
d="M366 444q104 0 167.5 -61t63.5 -157q0 -107 -78 -172.5t-212 -65.5q-110 0 -184.5 48t-92.5 144l202 47q19 -56 74 -56q30 0 49 19t19 48q0 30 -19 48.5t-49 18.5q-21 0 -40 -11.5t-28 -30.5l-176 83l56 323h445v-181h-285l-13 -65q42 21 101 21z" />
    <glyph glyph-name="six.tf" horiz-adv-x="640" 
d="M393 462q96 0 159.5 -62t63.5 -156q0 -114 -83 -184.5t-211 -70.5q-129 0 -212.5 71t-83.5 188q0 67 23.5 122t82.5 127l141 172h266l-172 -208q8 1 26 1zM320 172q28 0 47 19t19 47q0 27 -18.5 45.5t-46.5 18.5t-47.5 -18.5t-19.5 -45.5q0 -29 18.5 -47.5t47.5 -18.5z
" />
    <glyph glyph-name="seven.tf" horiz-adv-x="640" 
d="M78 478v191h485v-163l-211 -506h-249l212 478h-237z" />
    <glyph glyph-name="eight.tf" horiz-adv-x="640" 
d="M520 363q49 -24 75 -67t26 -92q0 -94 -81.5 -154.5t-219.5 -60.5t-218.5 60.5t-80.5 155.5q0 49 25.5 91t75.5 66q-68 44 -68 124q0 84 73.5 139t190.5 55q119 0 193.5 -55t74.5 -140q0 -80 -66 -122zM320 514q-24 0 -39 -15t-15 -38t15 -37.5t40 -14.5q24 0 39.5 14.5
t15.5 38.5q0 22 -16 37t-40 15zM320 161q28 0 46 17t18 43t-18 42.5t-46 16.5q-27 0 -45 -16.5t-18 -42.5t18 -43t45 -17z" />
    <glyph glyph-name="nine.tf" horiz-adv-x="640" 
d="M318 680q130 0 213 -73t83 -187q0 -70 -30.5 -125.5t-106.5 -153.5q-4 -5 -6 -8t-5.5 -7t-6.5 -8l-91 -118h-266l163 211h-11q-100 0 -165 61t-65 156q0 108 82.5 180t211.5 72zM250 431q0 -28 18 -46.5t46 -18.5t47 18.5t19 46.5q0 29 -18 47.5t-47 18.5
q-28 0 -46.5 -18.5t-18.5 -47.5z" />
    <glyph glyph-name="zero.tf.zero" horiz-adv-x="640" 
d="M321 680q132 0 212 -96.5t80 -249.5t-80 -249t-212 -96q-133 0 -213.5 96t-80.5 249q0 154 80.5 250t213.5 96zM321 506q-49 0 -75 -46t-26 -125q0 -45 9 -81l139 237q-20 15 -47 15zM321 162q48 0 73.5 46.5t25.5 126.5q0 45 -9 80l-140 -237q22 -16 50 -16z" />
    <glyph glyph-name="zero.tosf" horiz-adv-x="608" 
d="M304 -11q-121 0 -200 80t-79 201t79 202t200 81q122 0 201 -80.5t79 -202.5q0 -121 -79 -201t-201 -80zM304 164q36 0 57.5 29t21.5 77t-21.5 77.5t-57.5 29.5q-35 0 -56.5 -29.5t-21.5 -77.5t21.5 -77t56.5 -29z" />
    <glyph glyph-name="one.tosf" horiz-adv-x="608" 
d="M438 534v-367h132v-167h-480v167h147v153l-146 -37v192l201 59h146z" />
    <glyph glyph-name="two.tosf" horiz-adv-x="608" 
d="M434 206l-60 -39h170v-167h-484v149l235 145q14 9 20.5 13.5t14.5 15t8 22.5q0 15 -11.5 25.5t-31.5 10.5q-24 0 -39.5 -15.5t-14.5 -40.5l-180 20q-2 97 65 153t180 56q109 0 172.5 -51t63.5 -129q0 -97 -108 -168z" />
    <glyph glyph-name="three.tosf" horiz-adv-x="608" 
d="M538 382l-123 -96q70 -11 113.5 -58.5t43.5 -119.5q0 -106 -76.5 -172t-204.5 -66q-110 0 -180.5 52t-83.5 154l185 41q5 -35 25.5 -55.5t54.5 -20.5q32 0 52.5 21t20.5 52q0 23 -21 42t-51 19q-22 0 -57 -21l-74 110l130 104h-224v166h470v-152z" />
    <glyph glyph-name="four.tosf" horiz-adv-x="608" 
d="M515 172h73v-149h-73v-138h-193v138h-301v120l227 393h267v-364zM322 361l-104 -189h104v189z" />
    <glyph glyph-name="five.tosf" horiz-adv-x="608" 
d="M342 325q104 0 165 -61.5t61 -155.5q0 -106 -74.5 -172t-200.5 -66q-105 0 -177.5 48.5t-89.5 142.5l183 45q10 -33 32 -50.5t49 -17.5q33 0 55.5 23.5t22.5 57.5q0 26 -22 47t-56 21q-22 0 -43 -12.5t-30 -33.5l-160 76l52 317h426v-166h-279l-12 -66q41 23 98 23z" />
    <glyph glyph-name="six.tosf" horiz-adv-x="608" 
d="M366 440q91 0 154.5 -61.5t63.5 -149.5q0 -105 -79 -172.5t-199 -67.5t-199.5 68t-79.5 175q0 70 25.5 122.5t73.5 110.5l141 171h231l-167 -199q17 3 35 3zM303 148q33 0 57 22.5t24 54.5q0 30 -23.5 52t-56.5 22q-34 0 -56.5 -22t-22.5 -54q0 -31 22.5 -53t55.5 -22z
" />
    <glyph glyph-name="seven.tosf" horiz-adv-x="608" 
d="M70 354v180h468v-159l-236 -487h-232l234 466h-234z" />
    <glyph glyph-name="eight.tosf" horiz-adv-x="608" 
d="M476 344q48 -23 74.5 -64.5t26.5 -88.5q0 -87 -76 -144.5t-197 -57.5q-122 0 -196.5 57t-74.5 145q0 50 26 90.5t74 62.5q-70 45 -70 121q0 77 67.5 129.5t171.5 52.5q105 0 174 -53t69 -131q0 -77 -69 -119zM304 502q-23 0 -40.5 -18t-17.5 -42q0 -25 16 -40.5t44 -15.5
q25 0 40.5 16t15.5 42q0 22 -18 40t-40 18zM304 138q27 0 46 20t19 46q0 27 -19 45t-47 18q-27 0 -46 -18.5t-19 -45.5q0 -26 19 -45.5t47 -19.5z" />
    <glyph glyph-name="nine.tosf" horiz-adv-x="608" 
d="M302 553q123 0 204.5 -71.5t81.5 -180.5q0 -48 -19.5 -95.5t-42.5 -81t-69 -91.5q-11 -13 -16 -20l-99 -127h-237l161 208q-8 -1 -22 -1q-96 0 -160.5 61t-64.5 155q0 104 80 174t203 70zM220 310q0 -32 23 -54.5t56 -22.5q32 0 55.5 22t23.5 56q0 33 -23 55.5t-56 22.5
q-31 0 -55 -23t-24 -56z" />
    <glyph glyph-name="zero.tosf.zero" horiz-adv-x="608" 
d="M303 553q119 0 198.5 -81.5t79.5 -201.5t-79.5 -200.5t-198.5 -80.5q-117 0 -196 80.5t-79 200.5t79 201.5t196 81.5zM303 407q-47 0 -78 -39.5t-31 -97.5q0 -38 14 -69l135 198q-19 8 -40 8zM303 134q49 0 80.5 39t31.5 97q0 41 -15 71l-136 -199q19 -8 39 -8z" />
    <glyph glyph-name="zero.dnom" horiz-adv-x="424" 
d="M211 -10q-80 0 -135 53t-55 131q0 79 55 132.5t135 53.5q81 0 136.5 -53.5t55.5 -132.5q0 -78 -55.5 -131t-136.5 -53zM211 101q32 0 54 21.5t22 52.5q0 32 -22 53t-54 21q-31 0 -52.5 -21t-21.5 -53q0 -31 21.5 -52.5t52.5 -21.5z" />
    <glyph glyph-name="one.dnom" horiz-adv-x="370" 
d="M258 355v-256h99v-105h-329v105h106v129l-103 -24v114l143 37h84z" />
    <glyph glyph-name="two.dnom" horiz-adv-x="376" 
d="M283 126l-46 -30h112v-101h-322v83l142 97q40 27 46 40q3 6 3 12q0 28 -34 28q-40 0 -44 -47l-121 16q2 61 49.5 99t118.5 38q75 0 117.5 -36t42.5 -92q0 -64 -64 -107z" />
    <glyph glyph-name="three.dnom" horiz-adv-x="380" 
d="M338 257l-69 -38q39 -7 64 -33t25 -68q0 -57 -49 -92.5t-131 -35.5q-69 0 -113 27t-51 76l108 36q10 -41 56 -41q21 0 35 11t14 27t-13.5 25.5t-35.5 9.5q-20 0 -44 -11l-41 61l85 43h-145v101h305v-98z" />
    <glyph glyph-name="four.dnom" horiz-adv-x="390" 
d="M327 144h43v-90h-43v-60h-121v60h-192v76l130 218h190l-7 -2v-202zM206 259l-65 -115h65v115z" />
    <glyph glyph-name="five.dnom" horiz-adv-x="362" 
d="M206 230q62 0 100.5 -32t38.5 -82q0 -54 -45 -90.5t-122 -36.5q-63 0 -107.5 27t-58.5 79l112 27q3 -13 17.5 -24t32.5 -11q20 0 33 9.5t13 25.5q0 15 -13 24t-32 9q-36 0 -45 -20l-100 47l33 173h262v-99h-171l-9 -36q28 10 61 10z" />
    <glyph glyph-name="six.dnom" horiz-adv-x="365" 
d="M225 243q55 0 91.5 -33t36.5 -84q0 -61 -47 -99t-119 -38q-74 0 -121 38.5t-47 101.5q0 38 14 68t46 65l83 93h144l-101 -113q6 1 20 1zM186 88q18 0 30.5 10t12.5 25t-12.5 25t-30.5 10q-19 0 -31 -10.5t-12 -25.5t12 -24.5t31 -9.5z" />
    <glyph glyph-name="seven.dnom" horiz-adv-x="320" 
d="M18 250v105h285v-89l-131 -272h-139l132 256h-147z" />
    <glyph glyph-name="eight.dnom" horiz-adv-x="379" 
d="M298 190q61 -28 61 -87q0 -50 -46.5 -82t-122.5 -32q-77 0 -123.5 32.5t-46.5 83.5q0 26 15.5 49t44.5 35q-42 25 -42 68q0 44 43 73.5t107 29.5q66 0 108.5 -29.5t42.5 -73.5q0 -43 -41 -67zM190 272q-18 0 -29.5 -9t-11.5 -21q0 -13 12 -21t29 -8q16 0 28 8.5t12 20.5
t-12 21t-28 9zM190 78q18 0 31 10t13 23q0 15 -12.5 25t-31.5 10q-18 0 -32 -10t-14 -24t13.5 -24t32.5 -10z" />
    <glyph glyph-name="nine.dnom" horiz-adv-x="362" 
d="M177 360q74 0 120.5 -39.5t46.5 -102.5q0 -10 -1 -19t-4 -19t-5.5 -16.5t-9 -17.5t-9.5 -16t-12.5 -17.5t-13.5 -17.5t-16 -19.5t-16 -20.5l-49 -61h-148l90 113h-10q-56 0 -91.5 33t-35.5 84q0 59 45.5 97.5t118.5 38.5zM134 226q0 -15 12.5 -25t31.5 -10q18 0 30.5 10
t12.5 25q0 16 -12.5 26t-30.5 10q-19 0 -31.5 -10.5t-12.5 -25.5z" />
    <glyph glyph-name="zero.numr" horiz-adv-x="424" 
d="M211 310q-80 0 -135 53t-55 131q0 79 55 132.5t135 53.5q81 0 136.5 -53.5t55.5 -132.5q0 -78 -55.5 -131t-136.5 -53zM211 421q32 0 54 21.5t22 52.5q0 32 -22 53t-54 21q-31 0 -52.5 -21t-21.5 -53q0 -31 21.5 -52.5t52.5 -21.5z" />
    <glyph glyph-name="one.numr" horiz-adv-x="370" 
d="M258 676v-256h99v-105h-329v105h106v129l-103 -24v113l143 38h84z" />
    <glyph glyph-name="two.numr" horiz-adv-x="376" 
d="M283 446l-46 -30h112v-101h-322v83l142 97q40 27 46 40q3 6 3 12q0 13 -9.5 21t-24.5 8q-40 0 -44 -48l-121 16q2 61 49.5 99t118.5 38q74 0 117 -35.5t43 -92.5q0 -64 -64 -107z" />
    <glyph glyph-name="three.numr" horiz-adv-x="381" 
d="M338 578l-69 -39q40 -7 65 -32.5t25 -67.5q0 -58 -49 -93.5t-131 -35.5q-69 0 -113.5 27t-51.5 77l108 36q5 -19 20.5 -30t36.5 -11t35 10.5t14 26.5q0 17 -13.5 26.5t-35.5 9.5q-17 0 -43 -15l-40 61l92 46h-154v102h304v-98z" />
    <glyph glyph-name="four.numr" horiz-adv-x="390" 
d="M327 465h43v-90h-43v-60h-121v60h-192v75l130 219h190l-7 -2v-202zM206 579l-65 -114h65v114z" />
    <glyph glyph-name="five.numr" horiz-adv-x="362" 
d="M206 550q62 0 100.5 -31.5t38.5 -81.5q0 -55 -45 -91t-122 -36q-63 0 -107.5 27t-58.5 79l112 26q3 -13 17.5 -23.5t32.5 -10.5q20 0 33 9.5t13 24.5t-13 24.5t-32 9.5q-36 0 -45 -20l-100 46l33 174h262v-99h-171l-10 -37q30 10 62 10z" />
    <glyph glyph-name="six.numr" horiz-adv-x="365" 
d="M225 564q55 0 91.5 -33.5t36.5 -83.5q0 -61 -47 -99t-119 -38q-74 0 -121 38.5t-47 101.5q0 67 60 133l83 93h144l-101 -113q6 1 20 1zM186 409q18 0 30.5 10t12.5 25t-12.5 25t-30.5 10q-19 0 -31 -10.5t-12 -25.5t12 -24.5t31 -9.5z" />
    <glyph glyph-name="seven.numr" horiz-adv-x="320" 
d="M18 570v106h285v-89l-131 -272h-139l131 255h-146z" />
    <glyph glyph-name="eight.numr" horiz-adv-x="379" 
d="M298 510q61 -27 61 -86q0 -50 -46.5 -82t-122.5 -32q-77 0 -123.5 32.5t-46.5 83.5q0 26 15.5 49t45.5 35q-43 24 -43 68t43 73.5t107 29.5q66 0 108.5 -29.5t42.5 -73.5t-41 -68zM190 593q-18 0 -29.5 -9t-11.5 -21q0 -13 12 -21t29 -8q16 0 28 8.5t12 20.5t-12 21
t-28 9zM190 398q18 0 31 10t13 24q0 15 -12.5 25t-31.5 10q-18 0 -32 -10t-14 -24t13.5 -24.5t32.5 -10.5z" />
    <glyph glyph-name="nine.numr" horiz-adv-x="362" 
d="M177 681q73 0 120 -40t47 -102q0 -9 -1.5 -17.5t-2.5 -15.5t-5 -16.5t-6 -14.5t-9 -15.5t-9.5 -14.5t-12 -16.5t-12 -16t-14.5 -18t-15 -18.5l-49 -61h-148l90 113h-10q-56 0 -91.5 33t-35.5 84q0 59 45.5 97.5t118.5 38.5zM134 546q0 -15 12.5 -24.5t31.5 -9.5
q18 0 30.5 10t12.5 25t-12.5 25t-30.5 10q-19 0 -31.5 -10t-12.5 -26z" />
    <glyph glyph-name="colon.case" horiz-adv-x="345" 
d="M173 358q-53 0 -90.5 37t-37.5 89q0 53 37.5 90t90.5 37q54 0 90.5 -37t36.5 -90t-36.5 -89.5t-90.5 -36.5zM173 42q-53 0 -90.5 37t-37.5 90t37.5 90t90.5 37q54 0 90.5 -37t36.5 -90t-36.5 -90t-90.5 -37z" />
    <glyph glyph-name="semicolon.case" horiz-adv-x="353" 
d="M174 358q-53 0 -90.5 37t-37.5 89q0 53 37.5 90t90.5 37q54 0 91 -37t37 -90t-37 -89.5t-91 -36.5zM174 301q57 0 95 -38.5t38 -95.5q0 -129 -217 -305l-43 46q82 92 114 155q-50 0 -82.5 33.5t-32.5 78.5q0 53 36.5 89.5t91.5 36.5z" />
    <glyph glyph-name="exclamdown.case" horiz-adv-x="350" 
d="M174 694q51 0 85.5 -35t34.5 -85t-34.5 -85t-85.5 -35t-85.5 35t-34.5 85t34.5 85t85.5 35zM46 -26l18 451h221l21 -451h-260z" />
    <glyph glyph-name="questiondown.case" horiz-adv-x="589" 
d="M310 694q51 0 84.5 -33t33.5 -83t-33.5 -83t-84.5 -33q-50 0 -83 33t-33 83t33 83t83 33zM204 425h218v-31q0 -43 -25 -78t-55 -53.5t-55 -38.5t-25 -36q0 -12 14.5 -22.5t39.5 -10.5q52 0 84 54l171 -108q-30 -60 -96.5 -97.5t-172.5 -37.5q-124 0 -199 57t-75 148
q0 41 18 74.5t44 55t52 39.5t44 34.5t18 32.5v18z" />
    <glyph glyph-name="periodcentered.case" horiz-adv-x="307" 
d="M154 242q-51 0 -86 34.5t-35 85.5t35 85.5t86 34.5t85.5 -34.5t34.5 -85.5t-34.5 -85.5t-85.5 -34.5z" />
    <glyph glyph-name="questiondown.ss11.case" horiz-adv-x="594" 
d="M310 694q51 0 84.5 -33t33.5 -83t-33.5 -83t-84.5 -33q-50 0 -83 33t-33 83t33 83t83 33zM204 425h218v-31q0 -35 -16.5 -63t-39.5 -46t-46 -33.5t-39.5 -31.5t-16.5 -32t12 -25t30 -9q24 0 40 18.5t18 47.5l208 -26q1 -110 -77 -169t-203 -59q-123 0 -193.5 55
t-70.5 138q0 43 18 78t44 57.5t52 41t44 36.5t18 35v18z" />
    <glyph glyph-name="period.osf" horiz-adv-x="272" 
d="M136 -12q-46 0 -78 31.5t-32 76.5q0 46 32 77.5t78 31.5t77.5 -31.5t31.5 -77.5q0 -45 -31.5 -76.5t-77.5 -31.5z" />
    <glyph glyph-name="comma.osf" horiz-adv-x="281" 
d="M137 194q49 0 81 -33t32 -82q0 -110 -185 -260l-36 39q69 77 97 132q-43 1 -70.5 29.5t-27.5 66.5q0 45 31 76.5t78 31.5z" />
    <glyph glyph-name="colon.osf" horiz-adv-x="301" 
d="M151 288q-46 0 -77.5 31.5t-31.5 76.5q0 46 31.5 77.5t77.5 31.5t77.5 -31.5t31.5 -77.5q0 -45 -31.5 -76.5t-77.5 -31.5zM151 -11q-46 0 -77.5 31.5t-31.5 76.5q0 46 31.5 77.5t77.5 31.5t77.5 -31.5t31.5 -77.5q0 -45 -31.5 -76.5t-77.5 -31.5z" />
    <glyph glyph-name="semicolon.osf" horiz-adv-x="290" 
d="M146 288q-45 0 -77 31.5t-32 76.5t32 76t77 31q46 0 77 -31t31 -76t-31 -76.5t-77 -31.5zM146 192q49 0 81.5 -33t32.5 -81q0 -112 -186 -260l-36 39q68 76 98 132q-43 1 -70.5 29.5t-27.5 66.5q0 45 31 76t77 31z" />
    <glyph glyph-name="numbersign.osf" horiz-adv-x="675" 
d="M651 448l-24 -135h-70l-14 -89h83l-25 -138h-80l-14 -86h-177l15 86h-76l-15 -86h-178l17 86h-71l27 138h72l18 89h-82l26 135h83l17 86h167l-15 -86h75l15 86h167l-14 -86h73zM294 224h76l16 89h-76z" />
    <glyph glyph-name="comma.ss03" horiz-adv-x="327" 
d="M211 -190h-202l43 312h231z" />
    <glyph glyph-name="semicolon.ss03" horiz-adv-x="332" 
d="M167 303q-53 0 -89.5 37t-36.5 90t36.5 89.5t89.5 36.5q54 0 90.5 -36.5t36.5 -89.5t-36.5 -90t-90.5 -37zM195 -190h-201l61 312h231z" />
    <glyph glyph-name="semicolon.case.ss03" horiz-adv-x="354" 
d="M183 358q-53 0 -90.5 37t-37.5 89q0 53 37.5 90t90.5 37q54 0 90.5 -37t36.5 -90t-36.5 -89.5t-90.5 -36.5zM198 -161h-201l61 312h231z" />
    <glyph glyph-name="question.ss11" horiz-adv-x="594" 
d="M390 258h-217v31q0 35 16 63t39 46t46.5 33.5t39.5 31.5t16 32q0 17 -12 26t-29 9q-24 0 -41 -19t-18 -48l-208 26q0 110 77.5 169.5t202.5 59.5q124 0 194 -55.5t70 -138.5q0 -43 -18 -78t-44 -57t-52 -40.5t-44 -36.5t-18 -36v-18zM284 -11q-50 0 -84 33t-34 83
t34 83.5t84 33.5q49 0 82.5 -33.5t33.5 -83.5t-33 -83t-83 -33z" />
    <glyph glyph-name="questiondown.ss11" horiz-adv-x="590" 
d="M310 507q50 0 83.5 -33t33.5 -83t-33.5 -83.5t-83.5 -33.5t-83 33.5t-33 83.5t33 83t83 33zM203 238h218v-31q0 -35 -16.5 -63t-39.5 -46t-46 -33.5t-39.5 -31.5t-16.5 -32q0 -17 12 -26t30 -9q24 0 40.5 19t17.5 48l208 -26q1 -110 -77 -169.5t-203 -59.5
q-123 0 -193.5 55.5t-70.5 138.5q0 43 18 78t44 57t52 40.5t44 36.5t18 36v18z" />
    <glyph glyph-name="parenleft.case" horiz-adv-x="404" 
d="M387 -135h-210q-46 54 -77 125.5t-44 140t-17.5 112t-4.5 75.5q0 29 4.5 70t16.5 109t44 140t78 125h210q-134 -220 -134 -446q0 -232 134 -451z" />
    <glyph glyph-name="parenright.case" horiz-adv-x="402" 
d="M226 -135h-210q134 219 134 451q0 226 -134 446h210q46 -53 78 -125t44.5 -139.5t17 -109t4.5 -70.5q0 -32 -4.5 -75.5t-17.5 -112t-44.5 -140t-77.5 -125.5z" />
    <glyph glyph-name="braceleft.case" horiz-adv-x="452" 
d="M382 586q-28 0 -48 -17.5t-16 -54.5l8 -74q1 -7 1 -21q0 -76 -64 -104q64 -28 64 -104q0 -14 -1 -21l-8 -74q-4 -37 15.5 -54.5t48.5 -17.5q4 0 8 0.5t9 1.5t8 1v-185q-68 -7 -95 -7q-82 0 -139.5 46.5t-57.5 146.5q0 10 2 32l8 83q4 39 -17 54t-82 14v167q61 0 82 14.5
t17 53.5l-8 84q-2 22 -2 32q0 100 57.5 146t139.5 46q27 0 95 -7v-185q-18 4 -25 4z" />
    <glyph glyph-name="braceright.case" horiz-adv-x="452" 
d="M335 550l-8 -84q-4 -40 18.5 -54t80.5 -14v-167q-58 2 -80.5 -13t-18.5 -55l8 -83q2 -22 2 -32q0 -100 -57.5 -146.5t-139.5 -46.5q-27 0 -95 7v185q2 0 11 -1.5t14 -1.5q28 0 48 17.5t16 54.5l-8 74q-1 7 -1 21q0 76 64 104q-64 28 -64 104q0 14 1 21l8 74
q4 37 -16 54.5t-48 17.5q-7 0 -25 -4v185q68 7 95 7q82 0 139.5 -46t57.5 -146q0 -10 -2 -32z" />
    <glyph glyph-name="bracketleft.case" horiz-adv-x="458" 
d="M420 -137h-363v899h363v-196h-142v-506h142v-197z" />
    <glyph glyph-name="bracketright.case" horiz-adv-x="458" 
d="M401 762v-899h-363v197h142v506h-142v196h363z" />
    <glyph glyph-name="hyphen.case" horiz-adv-x="441" 
d="M389 244h-338v185h338v-185z" />
    <glyph glyph-name="endash.case" horiz-adv-x="653" 
d="M602 244h-551v185h551v-185z" />
    <glyph glyph-name="emdash.case" horiz-adv-x="1034" 
d="M983 244h-932v185h932v-185z" />
    <glyph glyph-name="guillemotleft.case" horiz-adv-x="677" 
d="M356 97h-240l-93 225l102 220h239l-102 -220zM646 97h-240l-92 225l101 220h239l-101 -220z" />
    <glyph glyph-name="guillemotright.case" horiz-adv-x="677" 
d="M363 322l-93 -225h-240l94 225l-102 220h240zM654 322l-93 -225h-240l94 225l-102 220h239z" />
    <glyph glyph-name="guilsinglleft.case" horiz-adv-x="394" 
d="M364 97h-241l-100 223l109 222h240l-110 -222z" />
    <glyph glyph-name="guilsinglright.case" horiz-adv-x="395" 
d="M371 320l-100 -223h-241l103 223l-111 222h240z" />
    <glyph glyph-name="quotesingle.ss05" horiz-adv-x="310" 
d="M151 776q54 0 98.5 -41t44.5 -106q0 -26 -7.5 -52t-16.5 -46t-28 -43.5t-31 -37t-36.5 -34t-34.5 -28t-34 -25t-26 -19.5l-40 42q99 99 99 137q0 17 -18 30t-39.5 21t-39.5 30.5t-18 57.5q0 50 38 82t89 32z" />
    <glyph glyph-name="quotesinglbase.ss10" horiz-adv-x="326" 
d="M156 190q54 0 98.5 -41.5t44.5 -106.5q0 -23 -4.5 -45t-16 -43.5t-20.5 -38t-28.5 -36t-29.5 -30.5t-33 -29t-29.5 -23.5t-29.5 -22.5l-23 -16l-40 42q99 100 99 137q0 17 -18 29.5t-39.5 20.5t-39.5 30.5t-18 57.5q0 51 37.5 83t89.5 32z" />
    <glyph glyph-name="quotedblbase.ss10" horiz-adv-x="630" 
d="M156 190q54 0 98.5 -41.5t44.5 -106.5q0 -23 -4.5 -45t-16 -43.5t-20.5 -38t-28.5 -36t-29.5 -30.5t-33 -29t-29.5 -23.5t-29.5 -22.5l-23 -16l-40 42q99 100 99 137q0 17 -18 29.5t-39.5 20.5t-39.5 30.5t-18 57.5q0 51 37.5 83t89.5 32zM460 190q54 0 98.5 -41.5
t44.5 -106.5q0 -23 -4.5 -45t-16 -43.5t-20.5 -38t-28.5 -36t-29.5 -30.5t-33 -29t-29.5 -23.5t-29.5 -22.5l-23 -16l-40 42q99 100 99 137q0 17 -18 29.5t-39.5 20.5t-39.5 30.5t-18 57.5q0 51 37.5 83t89.5 32z" />
    <glyph glyph-name="quotedblleft.ss10" horiz-adv-x="616" 
d="M161 353q-54 0 -98.5 41t-44.5 106q0 26 7.5 52t16.5 45.5t28 43.5t31 37t37 34.5t33.5 28t34 25t26.5 19.5l40 -43q-58 -57 -78.5 -86.5t-20.5 -49.5q0 -17 18 -30t39.5 -21t39.5 -30.5t18 -57.5q0 -50 -38 -82t-89 -32zM466 353q-54 0 -99 41t-45 106q0 23 4.5 45
t15.5 43t21 38t28.5 36.5t29.5 31t33 29t30 24t30 22t23 16.5l40 -43q-58 -57 -78.5 -86.5t-20.5 -49.5q0 -17 18 -30t39.5 -21t39.5 -30.5t18 -57.5q0 -50 -38 -82t-89 -32z" />
    <glyph glyph-name="quotedblright.ss10" horiz-adv-x="615" 
d="M151 776q54 0 98.5 -41t44.5 -106q0 -26 -7.5 -52t-16.5 -46t-28 -43.5t-31 -37t-36.5 -34t-34.5 -28t-34 -25t-26 -19.5l-40 42q99 99 99 137q0 17 -18 30t-39.5 21t-39.5 30.5t-18 57.5q0 50 38 82t89 32zM456 776q54 0 98.5 -41t44.5 -106q0 -26 -7.5 -52t-16.5 -46
t-28 -43.5t-31 -37t-36.5 -34t-34.5 -28t-34 -25t-26 -19.5l-40 42q99 100 99 137q0 17 -18 30t-39.5 21t-39.5 30.5t-18 57.5q0 50 38 82t89 32z" />
    <glyph glyph-name="quoteleft.ss10" horiz-adv-x="311" 
d="M161 353q-54 0 -98.5 41t-44.5 106q0 26 7.5 52t16.5 45.5t28 43.5t31 37t37 34.5t33.5 28t34 25t26.5 19.5l40 -43q-58 -57 -78.5 -86.5t-20.5 -49.5q0 -17 18 -30t39.5 -21t39.5 -30.5t18 -57.5q0 -50 -38 -82t-89 -32z" />
    <glyph glyph-name="quoteright.ss10" horiz-adv-x="310" 
d="M151 776q54 0 98.5 -41t44.5 -106q0 -26 -7.5 -52t-16.5 -46t-28 -43.5t-31 -37t-36.5 -34t-34.5 -28t-34 -25t-26 -19.5l-40 42q99 99 99 137q0 17 -18 30t-39.5 21t-39.5 30.5t-18 57.5q0 50 38 82t89 32z" />
    <glyph glyph-name="uni20BF.osf" horiz-adv-x="572" 
d="M547 166q0 -135 -149 -160v-120h-108v114h-42v-114h-109v114h-92v535h92v129h107v-129h43v129h108v-133q63 -12 95 -49.5t32 -90.5q0 -74 -61 -101q39 -13 61.5 -45t22.5 -79zM350 359q0 14 -12 22.5t-28 8.5h-81v-62h77q44 0 44 31zM321 210h-92v-64h91q19 0 30.5 9
t11.5 23q0 13 -12 22.5t-29 9.5z" />
    <glyph glyph-name="cent.osf" horiz-adv-x="598" 
d="M311 173q32 0 58.5 19.5t33.5 49.5l180 -76q-19 -62 -72 -107t-133 -60v-129h-145v130q-100 20 -158 91t-58 176t58 177t158 93v133h145v-129q85 -13 141.5 -63.5t71.5 -132.5l-189 -49q-6 29 -32.5 49.5t-59.5 20.5q-39 0 -66 -28t-27 -69t27 -68.5t67 -27.5z" />
    <glyph glyph-name="dollar.osf" horiz-adv-x="573" 
d="M543 178q0 -69 -41 -114.5t-116 -63.5v-109h-180v104q-119 19 -184 74l70 140q96 -62 204 -62q66 0 66 22q0 3 -1.5 6t-4.5 5.5t-6.5 4t-9.5 3.5t-11.5 3t-14.5 2.5t-15.5 2.5t-18 2.5t-19.5 2.5q-38 5 -61 9.5t-55.5 17t-51 29t-32 46.5t-13.5 70q0 64 42 108.5
t116 61.5v113h180v-110q90 -15 147 -52l-68 -139q-70 45 -172 45q-67 0 -67 -21q0 -4 2 -7.5t6.5 -5.5t9.5 -4t12.5 -3t12.5 -1.5t14 -1.5t14 -2q43 -6 69.5 -11t64 -18t59 -30.5t37.5 -47.5t16 -69z" />
    <glyph glyph-name="Euro.osf" horiz-adv-x="614" 
d="M430 152q75 0 146 21v-157q-71 -27 -177 -27q-120 0 -201 54.5t-106 147.5h-69v63h59q-1 6 -1 19v12h-58v63h68q25 93 106.5 149t195.5 56q105 0 170 -41v-157q-26 13 -67.5 24t-72.5 11q-86 0 -126 -42h186v-63h-215q-1 -5 -1 -15q0 -11 1 -16h215v-63h-183
q42 -39 130 -39z" />
    <glyph glyph-name="uni20BD.osf" horiz-adv-x="642" 
d="M414 169h-100v-30h141v-99h-141v-40h-203v40h-75v99h75v30h-75v117h75v248h307q86 0 142 -51.5t56 -131.5q0 -81 -55 -131.5t-147 -50.5zM367 373h-53v-87h51q23 0 39 12.5t16 31.5t-15 31t-38 12z" />
    <glyph glyph-name="sterling.osf" horiz-adv-x="574" 
d="M443 200h-152q-3 -21 -12 -39h251v-161h-472l-28 143q42 13 58 24.5t20 32.5h-70v125h41q-8 24 -8 51q0 79 66 128t171 49q235 0 235 -195l-173 -11q0 43 -55 43q-23 0 -38.5 -10.5t-15.5 -28.5q0 -10 6 -26h176v-125z" />
    <glyph glyph-name="yen.osf" horiz-adv-x="641" 
d="M409 534h217l-153 -279h66v-80h-110l-9 -17v-22h119v-79h-119v-57h-201v57h-117v79h117v22l-9 17h-108v80h64l-151 279h216l89 -208z" />
    <glyph glyph-name="uni20BF.tf" horiz-adv-x="640" 
d="M32 669h112v116h126v-116h57v116h126v-121q78 -13 118 -60.5t40 -113.5q0 -92 -75 -127q101 -35 101 -155q0 -170 -183 -202v-120h-125v114h-57v-114h-126v114h-114v669zM258 265v-84h104q23 0 35 11.5t12 30.5t-13 30.5t-34 11.5h-104zM345 409q49 0 49 40
q0 18 -12.5 29t-31.5 11h-92v-80h87z" />
    <glyph glyph-name="cent.tf" horiz-adv-x="640" 
d="M94 484q58 72 159 94v119h145v-116q85 -14 141 -64.5t71 -131.5l-199 -52q-4 28 -26 46.5t-52 18.5q-36 0 -59.5 -25t-23.5 -65q0 -37 24 -61.5t60 -24.5q29 0 51.5 17.5t28.5 44.5l189 -78q-19 -62 -72 -107t-133 -60v-129h-145v130q-101 20 -159 91t-58 176t58 177z
" />
    <glyph glyph-name="dollar.tf" horiz-adv-x="640" 
d="M609 223q0 -79 -44 -135.5t-123 -80.5v-137h-216v128q-120 22 -200 88l76 168q123 -85 234 -85q59 0 59 29q0 9 -5.5 15.5t-19.5 11.5t-24.5 7t-35.5 7q-11 2 -16 3q-28 6 -44 9.5t-44.5 12t-45.5 18t-39 25.5t-34.5 35.5t-21 48t-8.5 62.5q0 80 44 134.5t125 77.5v141
h216v-134q100 -19 155 -62l-69 -166q-37 23 -94 40.5t-108 17.5q-56 0 -56 -28q0 -16 16.5 -22.5t58.5 -13.5q39 -7 61 -12t58 -16t57.5 -25.5t44 -36t33 -53.5t10.5 -72z" />
    <glyph glyph-name="Euro.tf" horiz-adv-x="640" 
d="M458 170q94 0 171 28v-178q-30 -14 -87.5 -24t-113.5 -10q-136 0 -228 66.5t-122 177.5h-79v80h67q-1 7 -1 22v20h-66v81h79q30 114 122 181.5t219 67.5q58 0 111.5 -13.5t83.5 -34.5v-180q-32 20 -80.5 32.5t-89.5 12.5q-94 0 -143 -66h223v-81h-254q-1 -7 -1 -22
q0 -13 1 -20h254v-80h-222q50 -60 156 -60z" />
    <glyph glyph-name="uni20B4.tf" horiz-adv-x="640" 
d="M634 450v-90h-125q-21 -16 -48 -33h173v-89h-326q-14 -15 -14 -32q0 -26 54 -26q45 0 116 8t106 17l12 -176q-45 -17 -113 -28.5t-126 -11.5q-266 0 -266 190q0 30 8 59h-79v89h138q22 19 46 33h-184v90h355q5 8 5 19q0 31 -64 31q-84 0 -173 -28l-16 170q102 38 197 38
q270 0 270 -188q0 -20 -5 -42h59z" />
    </font>
</defs>
</svg>
