<?xml version="1.0" encoding="UTF-8"?>
<svg width="20px" height="22px" viewBox="0 0 20 22" version="1.1" xmlns="http://www.w3.org/2000/svg" xmlns:xlink="http://www.w3.org/1999/xlink">
    <title>bell</title>
    <g id="Page-1" stroke="none" stroke-width="1" fill="none" fill-rule="evenodd">
        <g id="bell" transform="translate(1.000000, 1.000000)" fill="#21BF73" fill-rule="nonzero">
            <path d="M9.0387,-0.75 L8.9611,-0.75 C5.2948315,-0.75 1.93332079,1.87790314 1.60720331,5.35703535 C1.58544099,5.60602884 1.57061032,5.86046753 1.56103608,6.13458439 L1.54754676,6.78626596 L1.545,7.349 L1.56136605,7.2835367 C1.41006109,8.01239707 1.06134899,8.68847566 0.551342301,9.24079798 L0.478230325,9.33371282 C0.041502362,9.98911864 -0.209417552,10.7476647 -0.248250045,11.5309639 L-0.24917,11.7871 C-0.271471594,12.8173481 0.0858831884,13.8367898 0.758182327,14.6465024 C1.66989027,15.5974648 2.85005796,16.1647149 4.11669316,16.2850387 C7.35618038,16.6326263 10.6338193,16.6326263 13.8824004,16.2841211 C15.1403571,16.1698179 16.3241074,15.6008538 17.1975445,14.685018 C17.8570816,13.9055712 18.2170382,12.9701441 18.2478409,12.0016491 L18.2489,11.5681 C18.2127949,10.7504367 17.9603103,9.99111131 17.518403,9.33855831 L17.4512021,9.25333005 L17.2872075,9.06278131 C16.9186513,8.60808319 16.6495663,8.08434571 16.4964711,7.5241502 L16.448,7.323 L16.437932,7.11204963 L16.432964,6.78054879 L16.4328224,6.05718744 L16.4266966,5.7565968 L16.4129862,5.49263446 C16.4099571,5.44945222 16.4065279,5.4061155 16.4026566,5.36178398 C16.0653723,1.87605206 12.7029526,-0.75 9.0387,-0.75 Z M8.9611,0.75 L9.0387,0.75 C11.9740633,0.75 14.6517724,2.84129263 14.9089873,5.49927069 L14.9188757,5.63005874 L14.9305365,5.9159411 C14.9316939,5.96907429 14.9324967,6.02587903 14.9330028,6.08774804 L14.9359534,7.06001847 L14.9488418,7.38363872 C14.9509597,7.41865951 14.9533303,7.45403041 14.955978,7.49041384 L14.9699916,7.59003073 L15.0405968,7.88649714 C15.2498289,8.6707461 15.6256323,9.40236182 16.1429986,10.0331464 L16.293,10.207 L16.276397,10.1796417 C16.563317,10.6033289 16.7268073,11.0950116 16.7497904,11.6018819 L16.7489,11.7776 C16.7662496,12.4828518 16.5295517,13.1529891 16.0816577,13.6836563 C15.4899049,14.3021332 14.6438609,14.7087804 13.7344735,14.7914823 C10.5801807,15.1297737 7.40981962,15.1297737 4.26762087,14.792679 C3.3482656,14.7052892 2.50165976,14.2983664 1.87581084,13.6475435 C1.47010011,13.1557901 1.23595215,12.487826 1.25065706,11.8032055 L1.25083,11.5681 L1.26983652,11.3633293 C1.31561746,11.0207015 1.43149249,10.6734948 1.6111163,10.3537687 L1.707,10.197 L1.6533777,10.258402 C2.34761378,9.50656466 2.82332784,8.58425626 3.03005395,7.5884233 L3.04571,7.43598 L3.05280016,6.44827178 L3.07027465,5.94661937 C3.07820309,5.78838058 3.0883541,5.63803033 3.10108464,5.49229827 C3.34957967,2.84142958 6.02485442,0.75 8.9611,0.75 Z" id="Path"></path>
            <path d="M10.782967,18.381511 C11.0427005,18.058848 11.5148261,18.0078335 11.837489,18.267567 C12.160152,18.5273005 12.2111665,18.9994261 11.951433,19.322089 C11.7593731,19.5606822 11.53764,19.7742733 11.3028001,19.949156 C10.5109958,20.5629568 9.50433892,20.8412902 8.50446167,20.7236503 C7.50384854,20.6057848 6.59115505,20.1009237 5.96832532,19.3191275 C5.71022749,18.9951546 5.76362973,18.5232932 6.08760254,18.2651953 C6.41157536,18.0070975 6.88343685,18.0604997 7.14153468,18.3844725 C7.51714037,18.8559451 8.07078281,19.1621953 8.6798363,19.2339377 C9.28982779,19.3057058 9.90337786,19.1360636 10.3950727,18.7550745 C10.5398725,18.647141 10.6702024,18.5215967 10.782967,18.381511 Z" id="Path"></path>
        </g>
    </g>
</svg>