<svg width="22" height="22" viewBox="0 0 22 22" fill="none" xmlns="http://www.w3.org/2000/svg">
<path d="M20.1706 1.06012C19.4538 0.93665 18.7279 0.8731 18.0006 0.87012C15.5189 0.86809 13.0891 1.57969 11.0006 2.92012C8.90672 1.59729 6.47723 0.90315 4.00057 0.92012C3.27322 0.9231 2.54738 0.98665 1.83057 1.11012C1.59578 1.1506 1.38316 1.27358 1.23099 1.45691C1.07882 1.64025 0.997106 1.87189 1.00057 2.11012V14.1101C0.998426 14.2571 1.0287 14.4027 1.08922 14.5366C1.14975 14.6705 1.23904 14.7894 1.35075 14.8849C1.46246 14.9803 1.59383 15.05 1.73553 15.089C1.87723 15.1279 2.02577 15.1351 2.17057 15.1101C3.60359 14.862 5.07178 14.9032 6.48864 15.2312C7.9055 15.5592 9.24239 16.1675 10.4206 17.0201L10.5406 17.0901H10.6506C10.7615 17.1363 10.8804 17.1601 11.0006 17.1601C11.1207 17.1601 11.2397 17.1363 11.3506 17.0901H11.4606L11.5806 17.0201C12.7505 16.1484 14.0836 15.5205 15.5007 15.1735C16.9179 14.8265 18.3902 14.7675 19.8306 15.0001C19.9754 15.0251 20.1239 15.0179 20.2656 14.979C20.4073 14.94 20.5387 14.8703 20.6504 14.7749C20.7621 14.6794 20.8514 14.5605 20.9119 14.4266C20.9725 14.2927 21.0027 14.1471 21.0006 14.0001V2.00012C20.9902 1.77228 20.9022 1.55483 20.7512 1.38386C20.6003 1.21289 20.3954 1.09866 20.1706 1.06012ZM10.0006 14.3501C8.15046 13.3768 6.09109 12.8688 4.00057 12.8701C3.67057 12.8701 3.34057 12.8701 3.00057 12.8701V2.87012C3.33363 2.85093 3.66752 2.85093 4.00057 2.87012C6.13396 2.86776 8.22079 3.49381 10.0006 4.67012V14.3501ZM19.0006 12.9101C18.6606 12.9101 18.3306 12.9101 18.0006 12.9101C15.9101 12.9088 13.8507 13.4168 12.0006 14.3901V4.67012C13.7804 3.49381 15.8672 2.86776 18.0006 2.87012C18.3336 2.85093 18.6675 2.85093 19.0006 2.87012V12.9101ZM20.1706 17.0601C19.4538 16.9367 18.7279 16.8731 18.0006 16.8701C15.5189 16.8681 13.0891 17.5797 11.0006 18.9201C8.91209 17.5797 6.48221 16.8681 4.00057 16.8701C3.27322 16.8731 2.54738 16.9367 1.83057 17.0601C1.7004 17.0808 1.5756 17.127 1.46334 17.196C1.35108 17.2651 1.25358 17.3557 1.17644 17.4625C1.09931 17.5694 1.04406 17.6905 1.01388 17.8188C0.983696 17.9471 0.979176 18.0801 1.00057 18.2101C1.05139 18.4698 1.20306 18.6988 1.42237 18.8468C1.64167 18.9949 1.91071 19.05 2.17057 19.0001C3.60359 18.752 5.07178 18.7932 6.48864 19.1212C7.9055 19.4492 9.24239 20.0575 10.4206 20.9101C10.5899 21.0307 10.7927 21.0955 11.0006 21.0955C11.2085 21.0955 11.4112 21.0307 11.5806 20.9101C12.7588 20.0575 14.0957 19.4492 15.5125 19.1212C16.9294 18.7932 18.3976 18.752 19.8306 19.0001C20.0904 19.05 20.3595 18.9949 20.5788 18.8468C20.7981 18.6988 20.9498 18.4698 21.0006 18.2101C21.022 18.0801 21.0175 17.9471 20.9873 17.8188C20.9571 17.6905 20.9019 17.5694 20.8247 17.4625C20.7476 17.3557 20.6501 17.2651 20.5378 17.196C20.4256 17.127 20.3008 17.0808 20.1706 17.0601Z" fill="#21BF73"/>
</svg>
