<?xml version="1.0" encoding="UTF-8"?>
<svg width="21px" height="20px" viewBox="0 0 21 20" version="1.1" xmlns="http://www.w3.org/2000/svg" xmlns:xlink="http://www.w3.org/1999/xlink">
    <title>checked-sq</title>
    <g id="Page-1" stroke="none" stroke-width="1" fill="none" fill-rule="evenodd">
        <g id="checked-sq" transform="translate(1.000000, 1.000000)" fill="#21BF73" fill-rule="nonzero">
            <path d="M14.7974454,5.47691973 C15.1200793,5.21715008 15.5922106,5.26811159 15.8519803,5.59074545 C16.0881345,5.88404895 16.0674861,6.30090408 15.8193806,6.56944071 L15.7381546,6.64528027 L11.46512,10.0856459 C10.4401556,10.8891611 9.02286516,10.9293369 7.95421729,10.2026521 L7.78848875,10.0815391 L3.48643875,6.64723912 C3.16272306,6.38881887 3.10979064,5.91690445 3.36821088,5.59318875 C3.60313838,5.29890176 4.01450734,5.22840259 4.33057254,5.41217164 L4.42226125,5.47496088 L8.71912001,8.90515412 C9.21341854,9.29265674 9.89013674,9.32246463 10.4064951,8.99934856 L10.5320454,8.91121973 L14.7974454,5.47691973 Z" id="Path"></path>
            <path d="M14.3158,-0.25 L4.88787,-0.25 C1.61156074,-0.25 -0.75,2.39186181 -0.75,5.79412 L-0.75,12.322 C-0.75,15.7242746 1.61154979,18.3661 4.88787,18.3661 L14.3158,18.3661 C15.8896254,18.3485493 17.3792567,17.686895 18.4461021,16.5356918 C19.5120755,15.3854295 20.0628807,13.8468852 19.970709,12.2780131 L19.972,5.79412 C20.0628815,4.26923137 19.5120663,2.73063756 18.4460971,1.58040277 C17.379265,0.429248351 15.8896525,-0.232391424 14.3158,-0.25 Z M4.88787,1.25 L14.3158,1.25 C15.460715,1.26289106 16.5587129,1.75058774 17.3459055,2.59999998 C18.1339341,3.45032284 18.5415184,4.58882918 18.473291,5.75013282 L18.472,12.322 C18.5415177,13.5272872 18.1339432,14.6657503 17.3458979,15.5161082 C16.558698,16.3655538 15.4607082,16.8532514 14.3074145,16.8661469 L4.88787,16.8661469 C2.47980008,16.8661469 0.75,14.9310022 0.75,12.322 L0.75,5.79412 C0.75,3.18513155 2.47981444,1.25 4.88787,1.25 Z" id="Path"></path>
        </g>
    </g>
</svg>