<svg width="50" height="50" viewBox="0 0 50 50" fill="none" xmlns="http://www.w3.org/2000/svg">
<path fill-rule="evenodd" clip-rule="evenodd" d="M14.1755 -0.000244141H35.8504C44.3254 -0.000244141 50.0004 5.94976 50.0004 14.7998V35.2273C50.0004 44.0498 44.3254 49.9998 35.8504 49.9998H14.1755C5.70049 49.9998 0.000488281 44.0498 0.000488281 35.2273V14.7998C0.000488281 5.94976 5.70049 -0.000244141 14.1755 -0.000244141ZM23.5754 32.4748L35.4504 20.5998C36.3004 19.7498 36.3004 18.3748 35.4504 17.4998C34.6004 16.6498 33.2004 16.6498 32.3504 17.4998L22.0254 27.8248L17.6505 23.4498C16.8005 22.5998 15.4005 22.5998 14.5505 23.4498C13.7005 24.2998 13.7005 25.6748 14.5505 26.5498L20.5004 32.4748C20.9254 32.8998 21.4754 33.0998 22.0254 33.0998C22.6004 33.0998 23.1504 32.8998 23.5754 32.4748Z" fill="#21BF73"/>
</svg>
