<svg width="22" height="20" viewBox="0 0 22 20" fill="none" xmlns="http://www.w3.org/2000/svg">
<path d="M5 4C5 3.46957 5.21071 2.96086 5.58579 2.58579C5.96086 2.21071 6.46957 2 7 2C7.26522 2 7.51957 1.89464 7.70711 1.70711C7.89464 1.51957 8 1.26522 8 1C8 0.73478 7.89464 0.48043 7.70711 0.29289C7.51957 0.10536 7.26522 0 7 0C5.93913 0 4.92172 0.42143 4.17157 1.17157C3.42143 1.92172 3 2.93913 3 4V7C3 7.53043 2.78929 8.0391 2.41421 8.4142C2.03914 8.7893 1.53043 9 1 9C0.73478 9 0.48043 9.1054 0.29289 9.2929C0.10536 9.4804 0 9.7348 0 10C0 10.2652 0.10536 10.5196 0.29289 10.7071C0.48043 10.8946 0.73478 11 1 11C1.53043 11 2.03914 11.2107 2.41421 11.5858C2.78929 11.9609 3 12.4696 3 13V16C3 17.0609 3.42143 18.0783 4.17157 18.8284C4.92172 19.5786 5.93913 20 7 20C7.26522 20 7.51957 19.8946 7.70711 19.7071C7.89464 19.5196 8 19.2652 8 19C8 18.7348 7.89464 18.4804 7.70711 18.2929C7.51957 18.1054 7.26522 18 7 18C6.46957 18 5.96086 17.7893 5.58579 17.4142C5.21071 17.0391 5 16.5304 5 16V13C4.99679 12.4305 4.87201 11.8683 4.63403 11.3509C4.39604 10.8336 4.05032 10.373 3.62 10C4.05032 9.627 4.39604 9.1664 4.63403 8.6491C4.87201 8.1317 4.99679 7.56947 5 7V4ZM21 9C20.4696 9 19.9609 8.7893 19.5858 8.4142C19.2107 8.0391 19 7.53043 19 7V4C19 2.93913 18.5786 1.92172 17.8284 1.17157C17.0783 0.42143 16.0609 0 15 0C14.7348 0 14.4804 0.10536 14.2929 0.29289C14.1054 0.48043 14 0.73478 14 1C14 1.26522 14.1054 1.51957 14.2929 1.70711C14.4804 1.89464 14.7348 2 15 2C15.5304 2 16.0391 2.21071 16.4142 2.58579C16.7893 2.96086 17 3.46957 17 4V7C17.0032 7.56947 17.128 8.1317 17.366 8.6491C17.604 9.1664 17.9497 9.627 18.38 10C17.9497 10.373 17.604 10.8336 17.366 11.3509C17.128 11.8683 17.0032 12.4305 17 13V16C17 16.5304 16.7893 17.0391 16.4142 17.4142C16.0391 17.7893 15.5304 18 15 18C14.7348 18 14.4804 18.1054 14.2929 18.2929C14.1054 18.4804 14 18.7348 14 19C14 19.2652 14.1054 19.5196 14.2929 19.7071C14.4804 19.8946 14.7348 20 15 20C16.0609 20 17.0783 19.5786 17.8284 18.8284C18.5786 18.0783 19 17.0609 19 16V13C19 12.4696 19.2107 11.9609 19.5858 11.5858C19.9609 11.2107 20.4696 11 21 11C21.2652 11 21.5196 10.8946 21.7071 10.7071C21.8946 10.5196 22 10.2652 22 10C22 9.7348 21.8946 9.4804 21.7071 9.2929C21.5196 9.1054 21.2652 9 21 9Z" fill="#21BF73"/>
</svg>
