<?xml version="1.0" encoding="UTF-8"?>
<svg width="20px" height="20px" viewBox="0 0 20 20" version="1.1" xmlns="http://www.w3.org/2000/svg" xmlns:xlink="http://www.w3.org/1999/xlink">
    <title>image</title>
    <g id="Page-1" stroke="none" stroke-width="1" fill="none" fill-rule="evenodd">
        <g id="image" fill="#21BF73" fill-rule="nonzero">
            <path d="M14.3,0.00073 L5.65,0.00073 C2.26183067,0.00073 0,2.42511934 0,5.89973 L0,14.0497 C0,17.5281374 2.25524645,19.9497 5.65,19.9497 L14.3,19.9497 C17.6962977,19.9497 19.96,17.5262069 19.96,14.0497 L19.96,5.89973 C19.96,2.42340269 17.6964421,0.00073 14.3,0.00073 Z M5.65,1.50073 L14.3,1.50073 C16.844385,1.50073 18.46,3.2299132 18.46,5.89973 L18.46,14.0497 C18.46,16.7197813 16.8441419,18.4497 14.3,18.4497 L5.65,18.4497 C3.10846234,18.4497 1.5,16.7226195 1.5,14.0497 L1.5,5.89973 C1.5,3.23117571 3.11441692,1.50073 5.65,1.50073 Z" id="Path"></path>
            <path d="M11.5076944,10.4328978 C12.3932383,9.35502487 13.9878849,9.24601659 15.0107772,10.1583262 L15.1408502,10.2831194 L17.2168502,12.4250194 C17.5051321,12.7224525 17.4977136,13.1972683 17.2002806,13.4855502 C16.9298869,13.7476246 16.5128959,13.7653186 16.2227236,13.542904 L16.1397498,13.4689806 L14.0638409,11.3271745 C13.7021491,10.9541314 13.1141163,10.9506183 12.7471027,11.2987408 L12.6665343,11.3853106 L10.4379833,14.0958857 C9.64966442,15.0561485 8.23130531,15.1590388 7.31354782,14.3543282 L7.19160816,14.2389646 L6.30218308,13.3314111 C6.06858316,13.0889882 5.69600267,13.0660686 5.43652246,13.2617466 L5.35456374,13.3350676 L3.82556374,14.9480676 C3.54060272,15.2486838 3.0658986,15.2613748 2.76528242,14.9764137 C2.49199498,14.7173583 2.45666223,14.3014903 2.66659211,14.0021615 L2.73693626,13.9161324 L4.26561338,12.3034732 C5.07038671,11.4534223 6.3956567,11.4080692 7.25293378,12.1662776 L7.37789184,12.2860354 L8.26280851,13.1889504 C8.52153765,13.452858 8.9361676,13.459573 9.20349109,13.2222081 L9.27896574,13.1436894 L11.5076944,10.4328978 Z" id="Path"></path>
            <path d="M6.55952,4.63025 C5.17736468,4.63025 4.05652,5.75197793 4.05652,7.13425 C4.05652,8.51656104 5.17735364,9.6383 6.55952,9.6383 C7.94174344,9.6383 9.0635,8.51650369 9.0635,7.13425 C9.0635,5.75203527 7.9417324,4.63025 6.55952,4.63025 Z M6.55952,6.13025 C7.11329998,6.13025 7.5635,6.58045711 7.5635,7.13425 C7.5635,7.68808846 7.11330441,8.1383 6.55952,8.1383 C6.006052,8.1383 5.55652,7.6884049 5.55652,7.13425 C5.55652,6.58014067 6.00605642,6.13025 6.55952,6.13025 Z" id="Path"></path>
        </g>
    </g>
</svg>