<svg width="18" height="19" viewBox="0 0 18 19" fill="none" xmlns="http://www.w3.org/2000/svg">
<path d="M2.29033 7.3C2.12731 7.4637 2.02601 7.6789 2.00366 7.9088C1.9813 8.1388 2.03927 8.3694 2.1677 8.5615C2.29614 8.7535 2.48711 8.8952 2.70818 8.9624C2.92924 9.0295 3.16675 9.0181 3.38033 8.93C3.50186 8.8756 3.61341 8.8013 3.71033 8.71C3.80028 8.6178 3.87159 8.5092 3.92033 8.39C3.9775 8.2682 4.00491 8.1345 4.00033 8C3.99923 7.7377 3.89508 7.4863 3.71033 7.3C3.61737 7.2063 3.50677 7.1319 3.38491 7.0811C3.26305 7.0303 3.13234 7.0042 3.00033 7.0042C2.86832 7.0042 2.73761 7.0303 2.61575 7.0811C2.4939 7.1319 2.38329 7.2063 2.29033 7.3ZM3.00033 2C3.26555 2 3.5199 2.10536 3.70744 2.29289C3.89497 2.48043 4.00033 2.73478 4.00033 3C4.00033 3.26522 3.89497 3.51957 3.70744 3.70711C3.5199 3.89464 3.26555 4 3.00033 4C2.73511 4 2.48076 4.10536 2.29322 4.29289C2.10569 4.48043 2.00033 4.73478 2.00033 5C2.00033 5.26522 2.10569 5.51957 2.29322 5.70711C2.48076 5.89464 2.73511 6 3.00033 6C3.52686 5.99966 4.04403 5.86075 4.49987 5.59723C4.9557 5.33371 5.33416 4.95486 5.5972 4.49875C5.86025 4.04264 5.99862 3.52533 5.99841 2.9988C5.9982 2.47227 5.85941 1.95507 5.596 1.49917C5.33259 1.04326 4.95383 0.66472 4.49778 0.40156C4.04173 0.13841 3.52445 -7.99654e-05 2.99793 3.46399e-08C2.4714 8.00346e-05 1.95417 0.13874 1.4982 0.40204C1.04223 0.66534 0.663604 1.04401 0.400334 1.5C0.334214 1.61413 0.291334 1.74022 0.274144 1.871C0.256964 2.00178 0.265824 2.13466 0.300214 2.262C0.334604 2.38934 0.393844 2.50862 0.474534 2.61297C0.555214 2.71732 0.655744 2.80467 0.770334 2.87C0.999954 3.00037 1.27181 3.03464 1.5266 2.96532C1.78138 2.896 1.99841 2.72873 2.13033 2.5C2.21844 2.34739 2.3453 2.22078 2.49808 2.13298C2.65085 2.04517 2.82412 1.9993 3.00033 2ZM15.0003 3H9.00034C8.73514 3 8.48074 3.10536 8.29324 3.29289C8.10564 3.48043 8.00034 3.73478 8.00034 4C8.00034 4.26522 8.10564 4.51957 8.29324 4.70711C8.48074 4.89464 8.73514 5 9.00034 5H15.0003C15.2655 5 15.5199 5.10536 15.7074 5.29289C15.8949 5.48043 16.0003 5.73478 16.0003 6V15.72L14.4303 14.27C14.2459 14.0973 14.0029 14.0009 13.7503 14H5.00033C4.73512 14 4.48076 13.8946 4.29322 13.7071C4.10569 13.5196 4.00033 13.2652 4.00033 13V12C4.00033 11.7348 3.89497 11.4804 3.70744 11.2929C3.5199 11.1054 3.26555 11 3.00033 11C2.73511 11 2.48076 11.1054 2.29322 11.2929C2.10569 11.4804 2.00033 11.7348 2.00033 12V13C2.00033 13.7956 2.3164 14.5587 2.87901 15.1213C3.44162 15.6839 4.20468 16 5.00033 16H13.3603L16.3603 18.73C16.5345 18.8936 16.7615 18.9894 17.0003 19C17.1374 18.9985 17.2731 18.9714 17.4003 18.92C17.5792 18.8419 17.7313 18.7132 17.8379 18.5497C17.9445 18.3863 18.001 18.1952 18.0003 18V6C18.0003 5.20435 17.6842 4.44129 17.1216 3.87868C16.559 3.31607 15.7959 3 15.0003 3Z" fill="#21BF73"/>
</svg>
