<?xml version="1.0" encoding="UTF-8"?>
<svg width="22px" height="22px" viewBox="0 0 22 22" version="1.1" xmlns="http://www.w3.org/2000/svg" xmlns:xlink="http://www.w3.org/1999/xlink">
    <title>plus-sq</title>
    <g id="Page-1" stroke="none" stroke-width="1" fill="none" fill-rule="evenodd">
        <g id="plus-sq" transform="translate(1.000000, 1.000000)" fill="#21BF73" fill-rule="nonzero">
            <path d="M10.0001,5.57733 C10.3797958,5.57733 10.693591,5.85948388 10.7432534,6.22555944 L10.7501,6.32733 L10.7501,13.6537 C10.7501,14.0679136 10.4143136,14.4037 10.0001,14.4037 C9.62040423,14.4037 9.30660904,14.1215461 9.25694662,13.7554706 L9.2501,13.6537 L9.2501,6.32733 C9.2501,5.91311644 9.58588644,5.57733 10.0001,5.57733 Z" id="Path"></path>
            <path d="M13.6666,9.2405 C14.0808136,9.2405 14.4166,9.57628644 14.4166,9.9905 C14.4166,10.3701958 14.1344461,10.683991 13.7683706,10.7336534 L13.6666,10.7405 L6.33325,10.7405 C5.91903644,10.7405 5.58325,10.4047136 5.58325,9.9905 C5.58325,9.61080423 5.86540388,9.29700904 6.23147944,9.24734662 L6.33325,9.2405 L13.6666,9.2405 Z" id="Path"></path>
            <path d="M14.6857,-0.75 L5.31429,-0.75 C1.67505047,-0.75 -0.75,1.85139089 -0.75,5.58516 L-0.75,14.4148 C-0.75,18.1520813 1.66866356,20.75 5.31429,20.75 L14.6857,20.75 C18.3313347,20.75 20.75,18.152083 20.75,14.4148 L20.75,5.58516 C20.75,1.84789755 18.3313345,-0.75 14.6857,-0.75 Z M5.31429,0.75 L14.6857,0.75 C17.4779987,0.75 19.25,2.65331319 19.25,5.58516 L19.25,14.4148 C19.25,17.3466697 17.4779962,19.25 14.6857,19.25 L5.31429,19.25 C2.52200263,19.25 0.75,17.3466684 0.75,14.4148 L0.75,5.58516 C0.75,2.65720423 2.52792062,0.75 5.31429,0.75 Z" id="Path"></path>
        </g>
    </g>
</svg>