<?xml version="1.0" encoding="UTF-8"?>
<svg width="20px" height="20px" viewBox="0 0 20 20" version="1.1" xmlns="http://www.w3.org/2000/svg" xmlns:xlink="http://www.w3.org/1999/xlink">
    <title>toggle</title>
    <g id="Page-1" stroke="none" stroke-width="1" fill="none" fill-rule="evenodd">
        <g id="toggle" transform="translate(0.000000, 1.000000)" fill="#21BF73" fill-rule="nonzero">
            <path d="M8.1172,14.2366 C8.53141356,14.2366 8.8672,14.5723864 8.8672,14.9866 C8.8672,15.3662958 8.58504612,15.680091 8.21897056,15.7297534 L8.1172,15.7366 L0.88306,15.7366 C0.468846438,15.7366 0.13306,15.4008136 0.13306,14.9866 C0.13306,14.6069042 0.415213882,14.293109 0.781289443,14.2434466 L0.88306,14.2366 L8.1172,14.2366 Z" id="Path"></path>
            <path d="M16.2379,11.3566 C14.2327507,11.3566 12.6079,12.981022 12.6079,14.9866 C12.6079,16.9914136 14.2330864,18.6166 16.2379,18.6166 C18.2427136,18.6166 19.8679,16.9914136 19.8679,14.9866 C19.8679,12.981022 18.2430493,11.3566 16.2379,11.3566 Z M16.2379,12.8566 C17.4147107,12.8566 18.3679,13.8095378 18.3679,14.9866 C18.3679,16.1629864 17.4142864,17.1166 16.2379,17.1166 C15.0615136,17.1166 14.1079,16.1629864 14.1079,14.9866 C14.1079,13.8095378 15.0610893,12.8566 16.2379,12.8566 Z" id="Path"></path>
            <path d="M19.118,2.51212 C19.5322136,2.51212 19.868,2.84790644 19.868,3.26212 C19.868,3.64181577 19.5858461,3.95561096 19.2197706,4.00527338 L19.118,4.01212 L11.8827,4.01212 C11.4684864,4.01212 11.1327,3.67633356 11.1327,3.26212 C11.1327,2.88242423 11.4148539,2.56862904 11.7809294,2.51896662 L11.8827,2.51212 L19.118,2.51212 Z" id="Path"></path>
            <path d="M3.76257,-0.36786 C1.75776644,-0.36786 0.13257,1.25733644 0.13257,3.26214 C0.13257,5.26776355 1.7574063,6.89214 3.76257,6.89214 C5.7677337,6.89214 7.39257,5.26776355 7.39257,3.26214 C7.39257,1.25733644 5.76737356,-0.36786 3.76257,-0.36786 Z M3.76257,1.13214 C4.93894644,1.13214 5.89257,2.08576356 5.89257,3.26214 C5.89257,4.43924137 4.93940161,5.39214 3.76257,5.39214 C2.58573839,5.39214 1.63257,4.43924137 1.63257,3.26214 C1.63257,2.08576356 2.58619356,1.13214 3.76257,1.13214 Z" id="Path"></path>
        </g>
    </g>
</svg>