<?xml version="1.0" standalone="no"?>
<!DOCTYPE svg PUBLIC "-//W3C//DTD SVG 1.1//EN" "http://www.w3.org/Graphics/SVG/1.1/DTD/svg11.dtd" >
<svg xmlns="http://www.w3.org/2000/svg" xmlns:xlink="http://www.w3.org/1999/xlink" version="1.1">
<metadata>
Created by FontForge 20170731 at Thu Oct  1 08:31:42 2020
 By Aleksey,,,
Copyright (c) 2020 by Spacetype Ltd. All rights reserved.
</metadata>
<defs>
<font id="Gogh-Medium" horiz-adv-x="0" >
  <font-face 
    font-family="Gogh-Medium"
    font-weight="400"
    font-stretch="normal"
    units-per-em="1000"
    panose-1="0 0 6 0 0 0 0 0 0 0"
    ascent="691"
    descent="-309"
    x-height="510"
    cap-height="700"
    bbox="-500 -348 1310 976"
    underline-thickness="50"
    underline-position="-150"
    unicode-range="U+000D-FB02"
  />
<missing-glyph horiz-adv-x="787" 
d="M701 740v-780h-614v780h614zM615 40v620h-442v-620h442zM394 589q70 0 113 -35.5t43 -96.5q0 -40 -20 -69.5t-57 -60.5q-27 -23 -36 -39.5t-9 -44.5v-18h-78v27q0 42 15.5 67.5t55.5 57.5q48 38 48 74q0 27 -21 45.5t-59 18.5q-61 0 -107 -67l-55 46q63 95 167 95z
M354 170q14 13 35 13t35.5 -13.5t14.5 -34.5t-14 -34q-15 -14 -36 -14t-35.5 13.5t-14.5 34.5t15 35z" />
    <glyph glyph-name="fi" unicode="fi" horiz-adv-x="677" 
d="M599 510v-510h-105v416h-251v-416h-105v416h-105v94h105v34q0 96 55 149t151 53q112 0 210 -65l-46 -82q-81 52 -154 52q-53 0 -82 -29t-29 -82v-30h356z" />
    <glyph glyph-name="fl" unicode="fl" horiz-adv-x="678" 
d="M372 765q114 0 228 -46v-719h-105v651q-47 16 -119 16q-73 0 -103 -29.5t-30 -100.5v-27h155v-94h-155v-416h-105v416h-105v94h105v36q0 107 60 163t174 56z" />
    <glyph glyph-name="f_f" unicode="ff" horiz-adv-x="775" 
d="M603 570v-60h161v-94h-161v-416h-105v416h-255v-416h-105v416h-105v94h105v64q0 80 42 125.5t116 45.5q62 0 115 -30l-34 -83q-32 18 -68 18q-66 0 -66 -80v-60h255v64q0 80 42.5 125.5t117.5 45.5q63 0 117 -30l-34 -83q-33 18 -70 18q-68 0 -68 -80z" />
    <glyph glyph-name="f_f_i" unicode="ffi" horiz-adv-x="1037" 
d="M959 510v-510h-105v416h-251v-416h-105v416h-255v-416h-105v416h-105v94h105v64q0 80 42 125.5t116 45.5q62 0 115 -30l-34 -83q-32 18 -68 18q-66 0 -66 -80v-60h255v34q0 96 55 149t150 53q113 0 211 -65l-46 -82q-81 52 -154 52q-52 0 -81.5 -29.5t-29.5 -81.5v-30
h356z" />
    <glyph glyph-name="f_f_j.liga" unicode="ffj" horiz-adv-x="1037" 
d="M959 510v-585q0 -77 -41.5 -119.5t-116.5 -42.5q-44 0 -91 14l23 94q31 -9 57 -9q34 0 49 18.5t15 61.5v474h-251v-416h-105v416h-255v-416h-105v416h-105v94h105v64q0 80 42 125.5t116 45.5q61 0 115 -30l-34 -83q-28 18 -68 18q-66 0 -66 -80v-60h255v34q0 95 54 148.5
t151 53.5q113 0 211 -65l-46 -82q-84 52 -154 52q-52 0 -81.5 -29.5t-29.5 -81.5v-30h356z" />
    <glyph glyph-name="f_f_l" unicode="ffl" horiz-adv-x="1039" 
d="M733 765q115 0 228 -46v-719h-105v651q-48 16 -119 16q-73 0 -103 -29.5t-30 -100.5v-27h154v-94h-154v-416h-105v416h-256v-416h-105v416h-105v94h105v63q0 80 42 125.5t116 45.5q61 0 115 -30l-34 -83q-28 18 -68 18q-66 0 -66 -80v-59h256v36q0 107 60 163t174 56z
" />
    <glyph glyph-name="f_f_uni013C.liga" unicode="ff&#x13c;" horiz-adv-x="1039" 
d="M604 537v-27h154v-94h-154v-416h-105v416h-256v-416h-105v416h-105v94h105v63q0 80 42 125.5t116 45.5q61 0 115 -30l-34 -83q-28 18 -68 18q-66 0 -66 -80v-59h256v36q0 107 60 163t174 56q115 0 228 -46v-719h-105v651q-48 16 -119 16q-73 0 -103 -29.5t-30 -100.5z
M903 -50q31 0 49.5 -21.5t18.5 -57.5q0 -71 -74 -139l-34 32q31 35 39 68q-25 1 -41 17t-16 39q0 27 16.5 44.5t41.5 17.5z" />
    <glyph glyph-name="f_f_t.liga" unicode="fft" horiz-adv-x="1142" 
d="M1091 109l33 -90q-53 -26 -113 -26q-76 0 -120 47t-44 126v250h-244v-416h-105v416h-255v-416h-105v416h-105v94h105v64q0 80 42.5 125.5t117.5 45.5q63 0 117 -30l-34 -83q-33 18 -70 18q-68 0 -68 -80v-60h255v64q0 80 42.5 125.5t117.5 45.5q63 0 117 -30l-34 -83
q-33 18 -70 18q-68 0 -68 -80v-60h244v119h105v-119h146v-94h-146v-245q0 -80 70 -80q28 0 69 18z" />
    <glyph glyph-name="f_f_tcaron.liga" unicode="ff&#x165;" horiz-adv-x="1142" 
d="M1022 91q28 0 69 18l33 -90q-53 -26 -113 -26q-76 0 -120 47t-44 126v250h-244v-416h-105v416h-255v-416h-105v416h-105v94h105v64q0 80 42.5 125.5t117.5 45.5q63 0 117 -30l-34 -83q-33 18 -70 18q-68 0 -68 -80v-60h255v64q0 80 42.5 125.5t117.5 45.5q63 0 117 -30
l-34 -83q-33 18 -70 18q-68 0 -68 -80v-60h244v119h105v-119h146v-94h-146v-245q0 -80 70 -80zM1071 740h107l-57 -176h-82z" />
    <glyph glyph-name="f_f_uni0163.liga" unicode="ff&#x163;" horiz-adv-x="1142" 
d="M1037 -6l-8 -38q46 1 74 -24.5t28 -69.5q0 -48 -36.5 -76t-92.5 -28q-62 0 -111 38l36 56q29 -24 69 -24q52 0 52 36q0 43 -80 31l-19 18l18 85q-56 13 -88 57t-32 111v250h-244v-416h-105v416h-255v-416h-105v416h-105v94h105v64q0 80 42.5 125.5t117.5 45.5
q63 0 117 -30l-34 -83q-33 18 -70 18q-68 0 -68 -80v-60h255v64q0 80 42.5 125.5t117.5 45.5q63 0 117 -30l-34 -83q-33 18 -70 18q-68 0 -68 -80v-60h244v119h105v-119h146v-94h-146v-245q0 -80 70 -80q28 0 69 18l33 -90q-41 -20 -87 -25z" />
    <glyph glyph-name="f_f_uni021B.liga" unicode="ff&#x21b;" horiz-adv-x="1142" 
d="M1091 109l33 -90q-53 -26 -113 -26q-76 0 -120 47t-44 126v250h-244v-416h-105v416h-255v-416h-105v416h-105v94h105v64q0 80 42.5 125.5t117.5 45.5q63 0 117 -30l-34 -83q-33 18 -70 18q-68 0 -68 -80v-60h255v64q0 80 42.5 125.5t117.5 45.5q63 0 117 -30l-34 -83
q-33 18 -70 18q-68 0 -68 -80v-60h244v119h105v-119h146v-94h-146v-245q0 -80 70 -80q28 0 69 18zM995 -50q31 0 49.5 -21.5t18.5 -57.5q0 -71 -74 -139l-34 32q31 35 39 68q-25 1 -41 17t-16 39q0 27 16.5 44.5t41.5 17.5z" />
    <glyph glyph-name="f_j.liga" unicode="fj" horiz-adv-x="677" 
d="M599 510v-585q0 -77 -40.5 -119.5t-116.5 -42.5q-46 0 -91 14l22 94q30 -9 57 -9q36 0 50 19.5t14 60.5v474h-251v-416h-105v416h-105v94h105v34q0 96 55 149t151 53q112 0 210 -65l-46 -82q-81 52 -154 52q-52 0 -81.5 -29.5t-29.5 -81.5v-30h356z" />
    <glyph glyph-name="f_uni013C.liga" unicode="f&#x13c;" horiz-adv-x="678" 
d="M243 537v-27h155v-94h-155v-416h-105v416h-105v94h105v36q0 107 60 163t174 56t228 -46v-719h-105v651q-47 16 -119 16q-73 0 -103 -29.5t-30 -100.5zM542 -50q31 0 49.5 -21.5t18.5 -57.5q0 -71 -74 -139l-34 32q31 35 39 68q-25 1 -41 17t-16 39q0 27 16.5 44.5
t41.5 17.5z" />
    <glyph glyph-name="f_t.liga" unicode="ft" horiz-adv-x="782" 
d="M731 109l33 -90q-53 -26 -113 -26q-76 0 -120 47t-44 126v250h-244v-416h-105v416h-105v94h105v64q0 80 42.5 125.5t117.5 45.5q63 0 117 -30l-34 -83q-33 18 -70 18q-68 0 -68 -80v-60h244v119h105v-119h146v-94h-146v-245q0 -80 70 -80q28 0 69 18z" />
    <glyph glyph-name="f_tcaron.liga" unicode="f&#x165;" horiz-adv-x="782" 
d="M662 91q28 0 69 18l33 -90q-53 -26 -113 -26q-76 0 -120 47t-44 126v250h-244v-416h-105v416h-105v94h105v64q0 80 42.5 125.5t117.5 45.5q63 0 117 -30l-34 -83q-33 18 -70 18q-68 0 -68 -80v-60h244v119h105v-119h146v-94h-146v-245q0 -80 70 -80zM711 740h107
l-57 -176h-82z" />
    <glyph glyph-name="f_uni0163.liga" unicode="f&#x163;" horiz-adv-x="782" 
d="M677 -6l-8 -38q46 1 74 -24.5t28 -69.5q0 -48 -36.5 -76t-92.5 -28q-62 0 -111 38l36 56q29 -24 69 -24q52 0 52 36q0 43 -80 31l-19 18l18 85q-56 13 -88 57t-32 111v250h-244v-416h-105v416h-105v94h105v64q0 80 42.5 125.5t117.5 45.5q63 0 117 -30l-34 -83
q-33 18 -70 18q-68 0 -68 -80v-60h244v119h105v-119h146v-94h-146v-245q0 -80 70 -80q28 0 69 18l33 -90q-41 -20 -87 -25z" />
    <glyph glyph-name="f_uni021B.liga" unicode="f&#x21b;" horiz-adv-x="782" 
d="M731 109l33 -90q-53 -26 -113 -26q-76 0 -120 47t-44 126v250h-244v-416h-105v416h-105v94h105v64q0 80 42.5 125.5t117.5 45.5q63 0 117 -30l-34 -83q-33 18 -70 18q-68 0 -68 -80v-60h244v119h105v-119h146v-94h-146v-245q0 -80 70 -80q28 0 69 18zM636 -50
q31 0 49.5 -21.5t18.5 -57.5q0 -71 -74 -139l-34 32q31 35 39 68q-25 1 -41 17t-16 39q0 27 16.5 44.5t41.5 17.5z" />
    <glyph glyph-name=".notdef" horiz-adv-x="787" 
d="M701 740v-780h-614v780h614zM615 40v620h-442v-620h442zM394 589q70 0 113 -35.5t43 -96.5q0 -40 -20 -69.5t-57 -60.5q-27 -23 -36 -39.5t-9 -44.5v-18h-78v27q0 42 15.5 67.5t55.5 57.5q48 38 48 74q0 27 -21 45.5t-59 18.5q-61 0 -107 -67l-55 46q63 95 167 95z
M354 170q14 13 35 13t35.5 -13.5t14.5 -34.5t-14 -34q-15 -14 -36 -14t-35.5 13.5t-14.5 34.5t15 35z" />
    <glyph glyph-name="uni0000" horiz-adv-x="600" 
 />
    <glyph glyph-name="uni0000" horiz-adv-x="600" 
 />
    <glyph glyph-name="uni000D" horiz-adv-x="333" 
 />
    <glyph glyph-name="uni000D.1" unicode="&#xd;" horiz-adv-x="241" 
 />
    <glyph glyph-name="space" unicode=" " horiz-adv-x="241" 
 />
    <glyph glyph-name="exclam" unicode="!" horiz-adv-x="267" 
d="M188 700l-3 -254l-9 -276h-85l-9 276l-3 254h109zM84 107q20 18 50 18q29 0 49 -19t20 -48q0 -30 -20 -49t-49 -19q-30 0 -50 19t-20 49t20 49z" />
    <glyph glyph-name="quotedbl" unicode="&#x22;" horiz-adv-x="337" 
d="M138 757l-5 -240h-82l-5 240h92zM200 757h91l-5 -240h-81z" />
    <glyph glyph-name="numbersign" unicode="#" horiz-adv-x="709" 
d="M144 248l58 214h-105v95h131l39 143h107l-39 -143h156l38 143h107l-39 -143h100v-95h-126l-58 -214h100v-95h-125l-42 -153h-107l42 153h-156l-41 -153h-107l42 153h-107v95h132zM409 246l59 218h-161l-59 -218h161z" />
    <glyph glyph-name="dollar" unicode="$" horiz-adv-x="601" 
d="M93 170q82 -64 179 -73v215q-110 34 -160.5 84t-50.5 123q0 76 57 128t151 60v87h87v-91q103 -15 186 -86l-56 -85q-57 50 -133 66v-201q110 -38 160.5 -88t50.5 -121q0 -74 -57.5 -126.5t-150.5 -65.5v-93h-87v90q-135 11 -230 89zM353 284v-185q47 8 73 30t26 56
q0 30 -23 53.5t-76 45.5zM170 524q0 -30 22.5 -52.5t79.5 -45.5v177q-47 -5 -74.5 -26.5t-27.5 -52.5z" />
    <glyph glyph-name="percent" unicode="%" horiz-adv-x="787" 
d="M25 548q0 69 45.5 113.5t115.5 44.5t114.5 -44.5t44.5 -113.5t-44 -113q-45 -45 -115 -45t-115.5 44.5t-45.5 113.5zM438 152q0 69 45 113.5t115 44.5t115 -44.5t45 -113.5t-45 -113q-45 -45 -115 -45t-115 44.5t-45 113.5zM117 27l490 689l59 -43l-489 -689zM102 548
q0 -37 24 -60q23 -24 60 -24t59.5 23.5t22.5 60.5t-22.5 61t-59.5 24t-60.5 -24t-23.5 -61zM538 91q23 -24 60 -24t60 24t23 61t-23 60.5t-60 23.5t-60 -23.5t-23 -60.5t23 -61z" />
    <glyph glyph-name="ampersand" unicode="&#x26;" horiz-adv-x="688" 
d="M48 178q0 57 37.5 106.5t103.5 82.5l-15 16q-40 40 -58 74.5t-18 79.5q0 76 56 123.5t147 47.5t147.5 -45.5t56.5 -120.5q0 -114 -148 -196l137 -137q37 54 60 144l95 -26q-27 -112 -82 -191l80 -80l-74 -77l-77 78q-87 -67 -208 -67q-108 0 -174 51.5t-66 136.5z
M194 117q36 -26 100 -26q77 0 131 38l-170 172q-52 -26 -75 -52.5t-23 -61.5q0 -45 37 -70zM259 444l33 -33q105 66 105 124q0 35 -26.5 56t-70.5 21q-43 0 -68.5 -20t-25.5 -54q0 -42 53 -94z" />
    <glyph glyph-name="quotesingle" unicode="'" horiz-adv-x="186" 
d="M135 517h-84l-5 240h94z" />
    <glyph glyph-name="parenleft" unicode="(" horiz-adv-x="328" 
d="M38 295q0 264 204 466l66 -64q-163 -183 -163 -402t163 -402l-66 -64q-204 202 -204 466z" />
    <glyph glyph-name="parenright" unicode=")" horiz-adv-x="328" 
d="M20 -107q163 183 163 402t-163 402l66 64q204 -202 204 -466t-204 -466z" />
    <glyph glyph-name="asterisk" unicode="*" horiz-adv-x="364" 
d="M220 441h-76l4 90l-77 -49l-38 67l81 42l-81 40l38 67l77 -49l-4 91h76l-4 -91l77 49l38 -67l-82 -40l82 -42l-38 -67l-77 49z" />
    <glyph glyph-name="plus" unicode="+" horiz-adv-x="522" 
d="M213 351v167h96v-167h163v-93h-163v-168h-96v168h-163v93h163z" />
    <glyph glyph-name="comma" unicode="," horiz-adv-x="254" 
d="M54 60q0 29 19.5 48t49.5 19q35 0 55 -26.5t20 -72.5q0 -53 -25 -103t-71 -87l-39 38q51 54 58 114q-29 1 -48 21t-19 49z" />
    <glyph glyph-name="hyphen" unicode="-" horiz-adv-x="449" 
d="M404 315v-89h-359v89h359z" />
    <glyph glyph-name="period" unicode="." horiz-adv-x="247" 
d="M74 106q20 19 49 19q30 0 50 -18.5t20 -48.5t-20 -49t-50 -19q-29 0 -49 19t-20 49q0 29 20 48z" />
    <glyph glyph-name="slash" unicode="/" horiz-adv-x="459" 
d="M118 -47h-90l313 787h90z" />
    <glyph glyph-name="zero" unicode="0" horiz-adv-x="670" 
d="M126 616q76 96 209 96t208.5 -96.5t75.5 -265.5q0 -168 -75 -265q-76 -97 -209 -97t-209 96.5t-76 265.5t76 266zM159 350q0 -119 47.5 -189t128.5 -70q82 0 129 69.5t47 189.5t-47 189.5t-129 69.5q-81 0 -128.5 -70t-47.5 -189z" />
    <glyph glyph-name="one" unicode="1" horiz-adv-x="402" 
d="M139 627q46 23 87 73h89v-700h-107v554q-76 -45 -180 -45v95q64 0 111 23z" />
    <glyph glyph-name="two" unicode="2" horiz-adv-x="586" 
d="M41 88l250 230q114 105 114 187q0 45 -33.5 74.5t-86.5 29.5q-87 0 -157 -100l-80 65q45 71 102.5 104.5t135.5 33.5q100 0 163 -57t63 -147q0 -71 -34.5 -131.5t-114.5 -132.5l-154 -141h324v-103h-492v88z" />
    <glyph glyph-name="three" unicode="3" horiz-adv-x="557" 
d="M29 108l74 67q68 -86 163 -86q61 0 98 34.5t37 90.5q0 73 -50 96t-101 23q-27 0 -58 -5l-33 60l183 210h-279v102h417v-87l-165 -189q83 -9 138 -68.5t55 -144.5q0 -98 -67 -160.5t-173 -62.5q-152 0 -239 120z" />
    <glyph glyph-name="four" unicode="4" horiz-adv-x="624" 
d="M28 237l377 463h99v-461h84v-102h-84v-137h-107v137h-369v100zM159 237h240v294z" />
    <glyph glyph-name="five" unicode="5" horiz-adv-x="559" 
d="M29 108l74 68q68 -87 163 -87q65 0 102.5 35.5t37.5 96.5q0 58 -42 94t-110 36q-64 0 -133 -25l-54 39l28 335h383v-102h-290l-13 -160q45 14 93 14q106 0 175.5 -65t69.5 -166q0 -104 -67 -168.5t-176 -64.5q-154 0 -241 120z" />
    <glyph glyph-name="six" unicode="6" horiz-adv-x="608" 
d="M126 610q76 100 211 100q116 0 199 -76l-60 -78q-58 53 -136 53q-79 0 -128 -57t-53 -157q67 77 174 77q98 0 165 -70t67 -172q0 -107 -70.5 -174.5t-183.5 -67.5q-122 0 -191.5 91t-69.5 254q0 177 76 277zM209 128q39 -39 104 -39t105 38.5t40 102.5q0 63 -40 102
t-105 39t-104.5 -39t-39.5 -102q0 -64 40 -102z" />
    <glyph glyph-name="seven" unicode="7" horiz-adv-x="500" 
d="M28 598v102h454v-87l-264 -613h-116l257 598h-331z" />
    <glyph glyph-name="eight" unicode="8" horiz-adv-x="612" 
d="M153 368q-84 54 -84 150q0 85 66.5 139.5t170.5 54.5t170.5 -54.5t66.5 -139.5q0 -96 -84 -150q105 -58 105 -169q0 -94 -71 -152.5t-187 -58.5t-187 58.5t-71 152.5q0 112 105 169zM197 119q41 -32 109 -32t109.5 31.5t41.5 82.5q0 52 -41.5 83.5t-109.5 31.5
t-109.5 -31.5t-41.5 -83.5q0 -51 42 -82zM212 439q36 -28 94 -28t94.5 28t36.5 73t-36 73q-37 28 -95 28t-94.5 -28t-36.5 -73t37 -73z" />
    <glyph glyph-name="nine" unicode="9" horiz-adv-x="606" 
d="M113 643q69 68 180 68q126 0 194.5 -89.5t68.5 -255.5q0 -178 -75.5 -277.5t-211.5 -99.5q-109 0 -198 68l54 86q62 -50 143 -50q80 0 126.5 54.5t51.5 149.5q-68 -74 -171 -74q-99 0 -165.5 70.5t-66.5 173.5q0 108 70 176zM149 467q0 -64 41 -103q40 -39 105 -39
t105 39t40 103t-40 103.5t-105 39.5t-105.5 -39.5t-40.5 -103.5z" />
    <glyph glyph-name="colon" unicode=":" horiz-adv-x="267" 
d="M84 106q20 19 49 19q30 0 50 -18.5t20 -48.5t-20 -49t-50 -19q-29 0 -49 19t-20 49q0 29 20 48zM84 396q20 19 49 19q30 0 50 -18.5t20 -48.5t-20 -49t-50 -19q-29 0 -49 19t-20 49q0 29 20 48z" />
    <glyph glyph-name="semicolon" unicode=";" horiz-adv-x="271" 
d="M64 60q0 29 19.5 48t49.5 19q35 0 55 -26.5t20 -72.5q0 -113 -97 -190l-38 38q51 54 58 114q-29 1 -48 21t-19 49zM64 348q0 29 20 48t49 19t49.5 -19t20.5 -48q0 -30 -20 -49q-21 -19 -50 -19t-49 19t-20 49z" />
    <glyph glyph-name="less" unicode="&#x3c;" horiz-adv-x="508" 
d="M467 537v-105l-285 -133l285 -133v-104l-432 207v60z" />
    <glyph glyph-name="equal" unicode="=" horiz-adv-x="507" 
d="M457 438v-90h-407v90h407zM50 169v90h407v-90h-407z" />
    <glyph glyph-name="greater" unicode="&#x3e;" horiz-adv-x="508" 
d="M325 300l-285 133v104l432 -207v-60l-432 -208v105z" />
    <glyph glyph-name="question" unicode="?" horiz-adv-x="504" 
d="M15 578q88 133 235 133q101 0 162 -51.5t61 -134.5q0 -57 -29 -102.5t-88 -95.5q-30 -25 -42 -48t-12 -63v-46h-102v52q0 60 20.5 96.5t72.5 78.5q44 36 58 61.5t14 57.5q0 43 -31 70.5t-88 27.5q-90 0 -155 -95zM202 106q20 19 49 19t49.5 -19t20.5 -48q0 -30 -20 -49
q-21 -19 -50 -19t-49.5 19t-20.5 49q0 29 21 48z" />
    <glyph glyph-name="at" unicode="@" horiz-adv-x="1021" 
d="M180 570q131 132 331 132q205 0 333.5 -123.5t128.5 -312.5q0 -65 -17 -113.5t-44.5 -73.5t-57 -36.5t-59.5 -11.5q-50 0 -88.5 22.5t-58.5 61.5q-60 -88 -158 -88q-86 0 -143.5 59t-57.5 149t57.5 149t143.5 59q84 0 141 -65v54h97v-182q0 -130 69 -130q36 0 57 37
t21 111q0 149 -100 245t-264 96q-160 0 -262.5 -105t-102.5 -269q0 -163 102.5 -268.5t262.5 -105.5q146 0 243 88l58 -76q-123 -104 -301 -104q-201 0 -331.5 131.5t-130.5 334.5t131 335zM392 235q0 -50 32 -82q32 -33 80 -33t79.5 32.5t31.5 82.5t-31.5 82.5t-79.5 32.5
t-80 -32.5t-32 -82.5z" />
    <glyph glyph-name="A" unicode="A" horiz-adv-x="715" 
d="M294 700h130l271 -700h-112l-53 137h-344l-53 -137h-113zM222 235h272l-135 352z" />
    <glyph glyph-name="B" unicode="B" horiz-adv-x="652" 
d="M87 0v700h286q92 0 149.5 -53t57.5 -138q0 -93 -71 -147q44 -24 69 -68.5t25 -98.5q0 -86 -60.5 -140.5t-155.5 -54.5h-300zM195 308v-208h183q54 0 85 28t31 76t-31 76t-85 28h-183zM195 600v-196h173q48 0 76 27t28 71t-28.5 71t-76.5 27h-172z" />
    <glyph glyph-name="C" unicode="C" horiz-adv-x="729" 
d="M146 610q96 102 248 102q177 0 293 -149l-78 -68q-38 54 -94.5 83t-120.5 29q-104 0 -169.5 -72.5t-65.5 -184.5q0 -113 65.5 -185t173.5 -72q70 0 129.5 30.5t99.5 86.5l78 -66q-116 -156 -307 -156q-155 0 -252 102.5t-97 259.5t97 260z" />
    <glyph glyph-name="D" unicode="D" horiz-adv-x="739" 
d="M87 0v700h248q161 0 258 -96t97 -254t-97 -254t-258 -96h-248zM196 596v-492h132q118 0 184.5 65.5t66.5 180.5t-66.5 180.5t-184.5 65.5h-132z" />
    <glyph glyph-name="E" unicode="E" horiz-adv-x="593" 
d="M87 0v700h441v-101h-332v-195h306v-98h-306v-204h345v-102h-454z" />
    <glyph glyph-name="F" unicode="F" horiz-adv-x="543" 
d="M87 700h423v-104h-314v-205h291v-103h-291v-288h-109v700z" />
    <glyph glyph-name="G" unicode="G" horiz-adv-x="765" 
d="M148 610q99 102 258 102q162 0 271 -112l-70 -74q-35 38 -89 59.5t-112 21.5q-110 0 -178.5 -72t-68.5 -185q0 -114 68 -185.5t183 -71.5q117 0 195 61v124h-227v102h331v-273q-55 -58 -133.5 -88.5t-163.5 -30.5q-165 0 -264 101t-99 261q0 157 99 260z" />
    <glyph glyph-name="H" unicode="H" horiz-adv-x="741" 
d="M87 700h109v-291h349v291h109v-700h-109v305h-349v-305h-109v700z" />
    <glyph glyph-name="I" unicode="I" horiz-adv-x="282" 
d="M196 0h-109v700h109v-700z" />
    <glyph glyph-name="J" unicode="J" horiz-adv-x="465" 
d="M7 27l42 92q59 -28 116 -28t84.5 39t27.5 122v448h109v-459q0 -123 -57 -188t-164 -65q-73 0 -158 39z" />
    <glyph glyph-name="K" unicode="K" horiz-adv-x="642" 
d="M87 0v700h109v-296h65l224 296h136l-263 -344l273 -356h-137l-230 303h-68v-303h-109z" />
    <glyph glyph-name="L" unicode="L" horiz-adv-x="552" 
d="M196 700v-596h321v-104h-430v700h109z" />
    <glyph glyph-name="M" unicode="M" horiz-adv-x="876" 
d="M184 700l254 -345l254 345h97v-700h-109v514l-213 -287h-58l-213 287v-514h-109v700h97z" />
    <glyph glyph-name="N" unicode="N" horiz-adv-x="757" 
d="M87 0v700h97l378 -508v508h108v-700h-98l-377 508v-508h-108z" />
    <glyph glyph-name="O" unicode="O" horiz-adv-x="818" 
d="M49 350q0 158 101.5 260t258.5 102t259 -102.5t102 -259.5t-102 -259q-102 -103 -259 -103t-258.5 102t-101.5 260zM159 350q0 -112 71 -184q70 -73 179 -73t179.5 72.5t70.5 184.5t-70.5 184.5t-179.5 72.5t-179.5 -72.5t-70.5 -184.5z" />
    <glyph glyph-name="P" unicode="P" horiz-adv-x="608" 
d="M87 700h254q110 0 177.5 -65t67.5 -172t-67.5 -172.5t-177.5 -65.5h-145v-225h-109v700zM333 327q67 0 105.5 37t38.5 99t-38.5 98.5t-105.5 36.5h-138v-271h138z" />
    <glyph glyph-name="Q" unicode="Q" horiz-adv-x="818" 
d="M151 610q101 102 258 102t259 -102.5t102 -259.5q0 -174 -121 -277l81 -117l-79 -56l-82 122q-73 -34 -160 -34q-157 0 -258.5 102t-101.5 260t102 260zM159 350q0 -112 70.5 -184.5t179.5 -72.5q52 0 101 19l-110 162l76 54l111 -164q72 72 72 186q0 112 -70.5 184.5
t-179.5 72.5t-179 -72q-71 -73 -71 -185z" />
    <glyph glyph-name="R" unicode="R" horiz-adv-x="663" 
d="M365 700q105 0 172.5 -64.5t67.5 -160.5q0 -72 -40 -129t-108 -82l168 -264h-122l-157 249h-150v-249h-109v700h278zM194 598v-250h167q64 0 100 34q36 33 36 91t-36 91.5t-100 33.5h-167z" />
    <glyph glyph-name="S" unicode="S" horiz-adv-x="602" 
d="M39 85l56 85q94 -74 212 -74q69 0 108 23.5t39 65.5q0 39 -40.5 68t-136.5 58q-111 34 -162.5 84t-51.5 124q0 83 66.5 136t172.5 53q137 0 245 -92l-59 -84q-37 33 -87.5 52.5t-100.5 19.5q-58 0 -93 -22t-35 -58q0 -37 35.5 -63.5t130.5 -57.5q120 -39 174 -90t54 -125
q0 -85 -74 -140.5t-188 -55.5q-153 0 -265 93z" />
    <glyph glyph-name="T" unicode="T" horiz-adv-x="596" 
d="M26 596v104h543v-104h-217v-596h-109v596h-217z" />
    <glyph glyph-name="U" unicode="U" horiz-adv-x="722" 
d="M187 700v-416q0 -92 45.5 -141.5t128.5 -49.5t128 49t45 142v416h109v-423q0 -131 -78 -210t-204 -79t-204 79t-78 210v423h108z" />
    <glyph glyph-name="V" unicode="V" horiz-adv-x="696" 
d="M20 700h117l213 -573l210 573h116l-262 -700h-130z" />
    <glyph glyph-name="W" unicode="W" horiz-adv-x="1067" 
d="M25 700h114l169 -566l170 540h112l172 -543l167 569h113l-213 -700h-131l-164 510l-72 -231l-90 -279h-131z" />
    <glyph glyph-name="X" unicode="X" horiz-adv-x="652" 
d="M260 364l-227 336h130l87 -127l79 -121l78 121l85 127h129l-225 -339l244 -361h-130l-183 272l-101 -151l-83 -121h-131z" />
    <glyph glyph-name="Y" unicode="Y" horiz-adv-x="664" 
d="M17 700h127l103 -175l86 -143l189 318h125l-260 -433v-267h-109v266z" />
    <glyph glyph-name="Z" unicode="Z" horiz-adv-x="598" 
d="M191 103h367v-103h-507v88l352 510h-341v102h482v-87z" />
    <glyph glyph-name="bracketleft" unicode="[" horiz-adv-x="351" 
d="M313 731v-88h-133v-696h133v-88h-233v872h233z" />
    <glyph glyph-name="backslash" unicode="\" horiz-adv-x="459" 
d="M118 740l313 -787h-90l-313 787h90z" />
    <glyph glyph-name="bracketright" unicode="]" horiz-adv-x="351" 
d="M172 -53v696h-134v88h233v-872h-233v88h134z" />
    <glyph glyph-name="asciicircum" unicode="^" horiz-adv-x="498" 
d="M37 438l167 285h89l167 -285h-107l-105 186l-106 -186h-105z" />
    <glyph glyph-name="underscore" unicode="_" horiz-adv-x="677" 
d="M630 -99v-71h-584v71h584z" />
    <glyph glyph-name="grave" unicode="`" horiz-adv-x="390" 
d="M226 740l64 -146h-94l-96 146h126z" />
    <glyph glyph-name="a" unicode="a" horiz-adv-x="574" 
d="M98 276q56 46 150 46q77 0 152 -27v27q0 52 -31 75.5t-98 23.5q-71 0 -160 -39l-30 87q104 48 198 48q108 0 166 -50t58 -144v-323h-100l-1 67q-66 -74 -179 -74q-82 0 -132 44t-50 115q0 77 57 124zM146 157q0 -35 25 -54t72 -19q66 0 109.5 35t48.5 90q-79 25 -140 25
q-55 0 -85 -20t-30 -57z" />
    <glyph glyph-name="b" unicode="b" horiz-adv-x="660" 
d="M79 740h105v-296q70 78 180 78t181 -75t71 -192t-71 -192t-181 -75q-112 0 -182 80v-68h-103v740zM182 255q0 -75 46 -122t118 -47q73 0 119 47t46 122q0 74 -46 121.5t-119 47.5q-72 0 -118 -47.5t-46 -121.5z" />
    <glyph glyph-name="c" unicode="c" horiz-adv-x="550" 
d="M119 447q74 75 188 75q133 0 209 -93l-64 -67q-60 62 -143 62q-70 0 -114.5 -47.5t-44.5 -121.5q0 -75 43.5 -122t116.5 -47q92 0 148 70l70 -64q-34 -50 -92.5 -77t-129.5 -27q-113 0 -187 75.5t-74 191.5t74 192z" />
    <glyph glyph-name="d" unicode="d" horiz-adv-x="660" 
d="M45 255q0 117 70.5 192t180.5 75q111 0 181 -79v297h105v-740h-103v69q-70 -81 -183 -81q-110 0 -180.5 75t-70.5 192zM150 255q0 -75 46 -122t118 -47q73 0 119 47t46 122q0 74 -46 121.5t-119 47.5q-72 0 -118 -47.5t-46 -121.5z" />
    <glyph glyph-name="e" unicode="e" horiz-adv-x="600" 
d="M118 447q73 75 186 75q128 0 193 -83t65 -176q0 -29 -5 -60h-406q13 -53 57 -86.5t105 -33.5q91 0 160 67l62 -68q-81 -94 -224 -94q-119 0 -192.5 74.5t-73.5 192.5q0 117 73 192zM149 293h311q-10 59 -52 96t-104 37q-60 0 -102 -36.5t-53 -96.5z" />
    <glyph glyph-name="f" unicode="f" horiz-adv-x="415" 
d="M33 416v94h105v64q0 80 42.5 125.5t117.5 45.5q63 0 117 -30l-34 -83q-33 18 -70 18q-68 0 -68 -80v-60h161v-94h-161v-416h-105v416h-105z" />
    <glyph glyph-name="g" unicode="g" horiz-adv-x="633" 
d="M86 -65q-39 33 -39 84q0 70 73 117q-47 60 -47 145q0 102 66.5 165.5t172.5 63.5h295v-92h-112q57 -57 57 -142q0 -97 -68 -160.5t-172 -63.5q-71 0 -126 29q-37 -17 -37 -48q0 -29 41 -42t155 -18q133 -6 194 -40.5t61 -103.5q0 -77 -71 -119.5t-199 -42.5
q-144 0 -220 41.5t-76 119.5q0 71 52 107zM214 185q38 -38 98 -38q61 0 99 37.5t38 96.5t-38 96.5t-99 37.5q-60 0 -98 -37.5t-38 -96.5t38 -96zM137 -163q0 -40 44.5 -57.5t143.5 -17.5q171 0 171 61q0 28 -36 40.5t-120 14.5q-100 1 -166 18q-16 -10 -26.5 -26.5
t-10.5 -32.5z" />
    <glyph glyph-name="h" unicode="h" horiz-adv-x="624" 
d="M79 740h105v-293q64 70 162 70q93 0 149.5 -57.5t56.5 -152.5v-307h-105v288q0 64 -31 97.5t-89 33.5q-66 0 -104.5 -40t-38.5 -108v-271h-105v740z" />
    <glyph glyph-name="i" unicode="i" horiz-adv-x="262" 
d="M79 510h105v-510h-105v510zM76 711q21 21 55 21q33 0 54.5 -21.5t21.5 -55.5t-21.5 -56t-54.5 -22q-34 0 -55 21.5t-21 56.5q0 34 21 56z" />
    <glyph glyph-name="j" unicode="j" horiz-adv-x="262" 
d="M-65 -223l23 94q32 -9 57 -9q34 0 49 18.5t15 61.5v568h105v-585q0 -77 -41.5 -119.5t-116.5 -42.5q-44 0 -91 14zM76 711q21 21 55 21q33 0 54.5 -21.5t21.5 -55.5t-21.5 -56t-54.5 -22q-34 0 -55 21.5t-21 56.5q0 34 21 56z" />
    <glyph glyph-name="k" unicode="k" horiz-adv-x="540" 
d="M79 0v740h105v-429h62l148 199h126l-188 -249l198 -261h-129l-160 215h-57v-215h-105z" />
    <glyph glyph-name="l" unicode="l" horiz-adv-x="262" 
d="M184 0h-105v740h105v-740z" />
    <glyph glyph-name="m" unicode="m" horiz-adv-x="970" 
d="M182 510v-65q65 72 156 72q108 0 159 -87q72 87 189 87q97 0 155 -57.5t58 -153.5v-306h-105v288q0 61 -32 96t-88 35q-58 0 -95.5 -42t-37.5 -106v-271h-105v288q0 61 -32 96t-87 35q-58 0 -95.5 -41.5t-37.5 -106.5v-271h-105v510h103z" />
    <glyph glyph-name="n" unicode="n" horiz-adv-x="624" 
d="M182 510v-66q67 73 164 73q93 0 149.5 -58t56.5 -154v-305h-105v286q0 65 -31 99t-89 34q-66 0 -104.5 -40.5t-38.5 -109.5v-269h-105v510h103z" />
    <glyph glyph-name="o" unicode="o" horiz-adv-x="630" 
d="M121 448q75 74 194 74t195 -74.5t76 -192.5t-76 -192q-76 -75 -195 -75t-194.5 74.5t-75.5 192.5t76 193zM150 255q0 -75 46.5 -122t118.5 -47q73 0 119.5 47t46.5 122t-46.5 122t-119.5 47q-72 0 -118.5 -47t-46.5 -122z" />
    <glyph glyph-name="p" unicode="p" horiz-adv-x="660" 
d="M79 510h103v-69q70 81 182 81q110 0 181 -75t71 -192t-71 -192t-181 -75t-180 78v-296h-105v740zM182 255q0 -74 46.5 -121.5t117.5 -47.5q73 0 119 47t46 122q0 74 -46 121.5t-119 47.5q-71 0 -117.5 -47.5t-46.5 -121.5z" />
    <glyph glyph-name="q" unicode="q" horiz-adv-x="660" 
d="M45 255q0 117 70.5 192t180.5 75q112 0 183 -82v70h103v-740h-105v297q-70 -79 -181 -79q-110 0 -180.5 75t-70.5 192zM150 255q0 -75 46 -122t118 -47t118.5 47.5t46.5 121.5t-46.5 121.5t-118.5 47.5t-118 -47.5t-46 -121.5z" />
    <glyph glyph-name="r" unicode="r" horiz-adv-x="415" 
d="M79 0v510h103v-70q64 77 157 77q37 0 70 -12l-27 -105q-33 11 -65 11q-67 0 -100 -46.5t-33 -121.5v-243h-105z" />
    <glyph glyph-name="s" unicode="s" horiz-adv-x="484" 
d="M81 146q85 -56 168 -56q46 0 71.5 14t25.5 39q0 23 -25 39.5t-83 31.5q-95 25 -138 63t-43 98q0 66 49 104.5t136 38.5q116 0 200 -70l-50 -79q-28 23 -69.5 37.5t-81.5 14.5q-81 0 -81 -47q0 -23 23.5 -38t84.5 -30q183 -45 183 -160q0 -70 -55.5 -112t-147.5 -42
q-120 0 -213 70z" />
    <glyph glyph-name="t" unicode="t" horiz-adv-x="412" 
d="M117 510v119h105v-119h146v-92h-146v-247q0 -80 69 -80q30 0 69 18l34 -90q-55 -26 -113 -26q-76 0 -120 47t-44 126v252h-93v92h93z" />
    <glyph glyph-name="u" unicode="u" horiz-adv-x="624" 
d="M71 510h105v-286q0 -65 31 -99t90 -34q67 0 105 40.5t38 109.5v269h105v-510h-103v65q-68 -72 -165 -72q-93 0 -149.5 58.5t-56.5 153.5v305z" />
    <glyph glyph-name="v" unicode="v" horiz-adv-x="570" 
d="M18 510h113l155 -389l154 389h112l-206 -510h-122z" />
    <glyph glyph-name="w" unicode="w" horiz-adv-x="860" 
d="M23 510h111l121 -378l125 361h101l124 -363l68 209l54 171h110l-169 -510h-121l-116 344l-119 -344h-120z" />
    <glyph glyph-name="x" unicode="x" horiz-adv-x="524" 
d="M196 257l-176 253h124l69 -99l49 -73l118 172h123l-175 -253l185 -257h-126l-125 177l-126 -177h-125z" />
    <glyph glyph-name="y" unicode="y" horiz-adv-x="569" 
d="M133 510l164 -398l142 398h112l-222 -600q-53 -144 -185 -144q-46 0 -91 17l27 90q25 -9 58 -9q36 0 57 17t38 62l13 33l-228 534h115z" />
    <glyph glyph-name="z" unicode="z" horiz-adv-x="492" 
d="M179 91h276v-91h-409v75l265 343h-255v92h389v-74z" />
    <glyph glyph-name="braceleft" unicode="{" horiz-adv-x="380" 
d="M24 339q40 0 58.5 19.5t18.5 65.5v152q0 72 37 113.5t109 41.5h107v-88h-95q-59 0 -59 -67v-171q0 -77 -58 -110q58 -33 58 -110v-171q0 -67 59 -67h95v-88h-107q-72 0 -109 41.5t-37 113.5v152q0 45 -19 65t-58 20v88z" />
    <glyph glyph-name="bar" unicode="|" horiz-adv-x="235" 
d="M166 -141h-97v881h97v-881z" />
    <glyph glyph-name="braceright" unicode="}" horiz-adv-x="380" 
d="M26 -53h94q60 0 60 67v171q0 78 57 110q-57 32 -57 110v171q0 67 -60 67h-94v88h107q72 0 109 -41.5t37 -113.5v-152q0 -46 18.5 -65.5t58.5 -19.5v-88q-39 0 -58 -20t-19 -65v-152q0 -72 -37 -113.5t-109 -41.5h-107v88z" />
    <glyph glyph-name="asciitilde" unicode="~" horiz-adv-x="600" 
d="M53 239q7 77 48 121.5t106 44.5q73 0 117 -48q32 -33 65 -33q49 0 57 81l100 -12q-7 -77 -48 -121.5t-106 -44.5q-72 0 -117 48q-31 33 -65 33q-49 0 -57 -81z" />
    <glyph glyph-name="uni00A0" unicode="&#xa0;" horiz-adv-x="241" 
 />
    <glyph glyph-name="exclamdown" unicode="&#xa1;" horiz-adv-x="267" 
d="M79 -163l3 254l9 276h85l9 -276l3 -254h-109zM64 479q0 30 20 49t50 19q29 0 49 -19t20 -49q0 -29 -20 -48t-49 -19q-30 0 -50 18.5t-20 48.5z" />
    <glyph glyph-name="cent" unicode="&#xa2;" horiz-adv-x="550" 
d="M45 255q0 102 59 174.5t155 88.5v89h88v-88q108 -14 169 -90l-64 -68q-46 48 -109 60v-332q70 11 115 67l70 -64q-59 -86 -181 -102v-92h-88v94q-95 16 -154.5 88t-59.5 175zM180 150q30 -44 83 -58v326q-52 -14 -82 -58q-31 -44 -31 -105t30 -105z" />
    <glyph glyph-name="sterling" unicode="&#xa3;" horiz-adv-x="564" 
d="M32 295v86h100q-1 3 -6 14t-7 15t-6 14.5t-5.5 16t-4.5 15.5t-4 17.5t-2 17t-1 19.5q0 88 61 144.5t158 56.5q62 0 116.5 -25.5t84.5 -70.5l-74 -65q-45 60 -122 60q-55 0 -84.5 -27t-29.5 -72q0 -19 4 -38.5t8 -29.5t14 -32.5t13 -29.5h207v-86h-185q2 -22 2 -37
q0 -81 -55 -154h314v-104h-457v81q53 52 72 94.5t19 88.5q0 11 -2 31h-128z" />
    <glyph glyph-name="currency" unicode="&#xa4;" horiz-adv-x="617" 
d="M41 69l74 74q-38 59 -38 131q0 73 38 130l-71 71l63 63l72 -72q56 36 130 36t129 -35l74 74l64 -63l-73 -73q37 -55 37 -131t-38 -131l71 -71l-63 -63l-72 72q-55 -35 -129 -35q-73 0 -129 36l-76 -76zM205 169q40 -41 104 -41t104.5 40.5t40.5 105.5t-40.5 105.5
t-104.5 40.5t-104 -41q-41 -41 -41 -105t41 -105z" />
    <glyph glyph-name="yen" unicode="&#xa5;" horiz-adv-x="664" 
d="M17 700h128l188 -300l187 300h127l-222 -350h129v-90h-167v-56h167v-86h-167v-118h-109v118h-168v86h168v56h-168v90h129z" />
    <glyph glyph-name="brokenbar" unicode="&#xa6;" horiz-adv-x="231" 
d="M164 205v-346h-97v346h97zM164 740v-343h-97v343h97z" />
    <glyph glyph-name="section" unicode="&#xa7;" horiz-adv-x="523" 
d="M48 -18l46 79q87 -57 168 -57q46 0 73 16t27 46q0 27 -25.5 45t-85.5 34q-202 52 -202 176q0 81 81 125q-60 42 -60 115q0 66 51.5 108.5t133.5 42.5q114 0 204 -69l-49 -77q-31 23 -73 38.5t-78 15.5q-42 0 -64.5 -15.5t-22.5 -43.5q0 -31 24.5 -48.5t84.5 -32.5
q99 -26 146 -66.5t47 -103.5q0 -37 -22 -71t-62 -55q74 -45 74 -118q0 -69 -55 -111.5t-144 -42.5q-117 0 -217 70zM180 270q32 -22 101 -41l20 -6q74 29 74 83q0 30 -29 51t-95 38q-7 2 -19 5.5t-16 4.5q-33 -12 -50.5 -34t-17.5 -47q0 -33 32 -54z" />
    <glyph glyph-name="dieresis" unicode="&#xa8;" horiz-adv-x="512" 
d="M285 646q0 29 18 47t46 18t45.5 -18t17.5 -47t-17 -47q-18 -19 -46 -19t-46 18.5t-18 47.5zM100 646q0 29 18 47t46 18t45.5 -18t17.5 -47t-17 -47q-18 -19 -46 -19t-46 18.5t-18 47.5z" />
    <glyph glyph-name="copyright" unicode="&#xa9;" horiz-adv-x="812" 
d="M150 609q101 102 256 102t256.5 -102.5t101.5 -258.5t-101 -258q-102 -103 -257 -103t-256 102.5t-101 258.5t101 259zM134 350q0 -120 77 -199q77 -80 195 -80t195 79.5t77 199.5t-77 199.5t-195 79.5t-195 -79.5t-77 -199.5zM213 349q0 85 55 142t141 57q102 0 161 -83
l-57 -47q-37 56 -104 56q-52 0 -85.5 -36t-33.5 -90q0 -55 33 -90t86 -35q70 0 109 57l57 -44q-62 -87 -166 -87q-86 0 -141 57t-55 143z" />
    <glyph glyph-name="ordfeminine" unicode="&#xaa;" horiz-adv-x="351" 
d="M54 552q37 31 100 31q45 0 88 -13v1q0 62 -75 62q-56 0 -106 -23l-19 67q62 29 129 29q73 0 112 -35t39 -100v-201h-78v37q-45 -43 -114 -43q-51 0 -82.5 30t-31.5 78q0 49 38 80zM98 472q0 -41 57 -41q33 0 57 22t29 53q-43 10 -74 10q-69 0 -69 -44z" />
    <glyph glyph-name="guillemotleft" unicode="&#xab;" horiz-adv-x="664" 
d="M273 544l71 -61l-167 -202l167 -205l-71 -61l-221 266zM527 544l71 -61l-167 -202l167 -205l-71 -61l-221 266z" />
    <glyph glyph-name="logicalnot" unicode="&#xac;" horiz-adv-x="522" 
d="M50 288v93h406v-230h-95v137h-311z" />
    <glyph glyph-name="uni00AD" unicode="&#xad;" horiz-adv-x="449" 
d="M404 315v-89h-359v89h359z" />
    <glyph glyph-name="registered" unicode="&#xae;" horiz-adv-x="541" 
d="M105 637q65 63 165 63q103 0 167.5 -62.5t64.5 -162.5t-64.5 -163t-167.5 -63q-100 0 -165.5 64t-65.5 162t66 162zM112 475q0 -68 45 -113q45 -46 113 -46t113.5 45.5t45.5 113.5q0 70 -44.5 114t-114.5 44t-114 -43.5t-44 -114.5zM193 576h84q36 0 58 -20.5t22 -52.5
q0 -42 -36 -59l44 -72h-61l-36 62h-23v-62h-52v204zM244 480h30q30 0 30 24q0 23 -30 23h-30v-47z" />
    <glyph glyph-name="macron" unicode="&#xaf;" horiz-adv-x="478" 
d="M378 604h-278v77h278v-77z" />
    <glyph glyph-name="degree" unicode="&#xb0;" horiz-adv-x="376" 
d="M36 572q0 64 43.5 106.5t108.5 42.5t108.5 -42.5t43.5 -106.5t-43 -106q-44 -43 -109 -43t-108.5 42.5t-43.5 106.5zM106 572q0 -35 23 -57q23 -23 59 -23t58.5 22.5t22.5 57.5t-22.5 57.5t-58.5 22.5t-59 -22.5t-23 -57.5z" />
    <glyph glyph-name="plusminus" unicode="&#xb1;" horiz-adv-x="522" 
d="M50 381v94h163v133h96v-133h163v-94h-163v-127h-96v127h-163zM50 152h422v-90h-422v90z" />
    <glyph glyph-name="twosuperior" unicode="&#xb2;" horiz-adv-x="280" 
d="M132 816q50 0 81 -28t31 -74q0 -28 -10 -48.5t-49 -69.5l-41 -52h114v-72h-234v51l102 122q38 46 38 66q0 34 -39 34q-40 0 -69 -35l-45 52q55 54 121 54z" />
    <glyph glyph-name="threesuperior" unicode="&#xb3;" horiz-adv-x="281" 
d="M18 506l39 62q35 -28 72 -28q23 0 37 12t14 32q0 27 -16.5 35.5t-31.5 8.5q-14 0 -32 -5l-20 33l57 83h-100v71h203v-41l-68 -88q39 -8 62.5 -35.5t23.5 -66.5q0 -50 -33.5 -81.5t-87.5 -31.5q-71 0 -119 40z" />
    <glyph glyph-name="acute" unicode="&#xb4;" horiz-adv-x="390" 
d="M194 594h-94l64 146h126z" />
    <glyph glyph-name="uni00B5" unicode="&#xb5;" horiz-adv-x="631" 
d="M79 -230v740h105v-277q0 -68 34 -105t95 -37q62 0 98 38.5t36 103.5v277h105v-510h-103v58q-54 -60 -139 -60q-77 0 -130 47v-275h-101z" />
    <glyph glyph-name="paragraph" unicode="&#xb6;" horiz-adv-x="666" 
d="M94 643q65 57 155 57h385v-88h-84v-722h-96v722h-101v-722h-96v392h-8q-89 0 -155 59t-66 149q0 95 66 153z" />
    <glyph glyph-name="periodcentered" unicode="&#xb7;" horiz-adv-x="247" 
d="M74 330q20 19 49 19q30 0 50 -19t20 -49t-20 -49t-50 -19q-29 0 -49 19t-20 49t20 49z" />
    <glyph glyph-name="cedilla" unicode="&#xb8;" horiz-adv-x="440" 
d="M100 -204l36 56q28 -24 69 -24q52 0 52 36q0 34 -49 34q-14 0 -31 -3l-19 18l24 111h69l-13 -68h3q44 0 71.5 -25t27.5 -69q0 -48 -36.5 -76t-92.5 -28q-62 0 -111 38z" />
    <glyph glyph-name="onesuperior" unicode="&#xb9;" horiz-adv-x="214" 
d="M111 810h68v-338h-76v243q-37 -19 -88 -19v63q62 0 96 51z" />
    <glyph glyph-name="ordmasculine" unicode="&#xba;" horiz-adv-x="389" 
d="M18 535q0 74 49.5 122.5t127.5 48.5t126.5 -48t48.5 -123t-48 -123q-49 -48 -127 -48t-127.5 48t-49.5 123zM103 535q0 -40 26 -66q26 -27 66 -27t65.5 26t25.5 67t-25.5 67t-65.5 26t-66 -26.5t-26 -66.5z" />
    <glyph glyph-name="guillemotright" unicode="&#xbb;" horiz-adv-x="664" 
d="M65 483l71 61l221 -263l-221 -266l-71 61l168 205zM319 483l71 61l221 -263l-221 -266l-71 61l168 205z" />
    <glyph glyph-name="onequarter" unicode="&#xbc;" horiz-adv-x="739" 
d="M532 748l71 -48l-494 -738l-71 47zM439 126l168 212h70v-205h40v-69h-40v-64h-74v64h-164v62zM111 700h68v-338h-76v243q-37 -19 -88 -19v63q62 0 96 51zM531 132h73v93z" />
    <glyph glyph-name="onehalf" unicode="&#xbd;" horiz-adv-x="707" 
d="M532 748l71 -48l-494 -738l-71 47zM438 290q55 54 121 54q50 0 81 -28t31 -74q0 -28 -10 -48t-49 -70l-41 -52h114v-72h-234v51l102 122q38 46 38 66q0 34 -39 34q-40 0 -69 -35zM111 700h68v-338h-76v243q-37 -19 -88 -19v63q62 0 96 51z" />
    <glyph glyph-name="threequarters" unicode="&#xbe;" horiz-adv-x="806" 
d="M105 9l494 739l71 -48l-494 -738zM506 126l168 212h70v-205h40v-69h-40v-64h-74v64h-164v62zM18 396l39 62q35 -28 72 -28q23 0 37 12t14 32q0 27 -16.5 35.5t-31.5 8.5q-14 0 -32 -5l-20 33l57 83h-100v71h203v-41l-68 -88q39 -8 62.5 -35.5t23.5 -66.5
q0 -50 -33.5 -81.5t-87.5 -31.5q-71 0 -119 40zM671 132v93l-73 -93h73z" />
    <glyph glyph-name="questiondown" unicode="&#xbf;" horiz-adv-x="504" 
d="M31 12q0 57 29 102.5t88 95.5q30 25 42 48t12 63v46h102v-52q0 -60 -20.5 -96.5t-72.5 -78.5q-43 -36 -57 -61.5t-14 -57.5q0 -43 31 -70.5t87 -27.5q90 0 155 95l76 -59q-88 -133 -235 -133q-101 0 -162 51.5t-61 134.5zM204 528q20 19 49 19t49.5 -19t20.5 -49
q0 -29 -20.5 -48t-49.5 -19t-49 19t-20 48q0 30 20 49z" />
    <glyph glyph-name="Agrave" unicode="&#xc0;" horiz-adv-x="715" 
d="M294 700h130l271 -700h-112l-53 137h-344l-53 -137h-113zM222 235h272l-135 352zM219 898h126l64 -126h-93z" />
    <glyph glyph-name="Aacute" unicode="&#xc1;" horiz-adv-x="715" 
d="M294 700h130l271 -700h-112l-53 137h-344l-53 -137h-113zM222 235h272l-135 352zM374 898h126l-97 -126h-93z" />
    <glyph glyph-name="Acircumflex" unicode="&#xc2;" horiz-adv-x="715" 
d="M20 0l274 700h130l271 -700h-112l-53 137h-344l-53 -137h-113zM494 235l-135 352l-137 -352h272zM318 898h82l124 -126h-108l-56 60l-57 -60h-109z" />
    <glyph glyph-name="Atilde" unicode="&#xc3;" horiz-adv-x="715" 
d="M294 700h130l271 -700h-112l-53 137h-344l-53 -137h-113zM222 235h272l-135 352zM192 801q34 90 103 90q31 0 68 -24t54 -24q28 0 50 45l60 -34q-34 -89 -103 -89q-31 0 -68 24t-54 24q-28 0 -50 -46z" />
    <glyph glyph-name="Adieresis" unicode="&#xc4;" horiz-adv-x="715" 
d="M294 700h130l271 -700h-112l-53 137h-344l-53 -137h-113zM222 235h272l-135 352zM389 828q0 30 18 49t47 19q28 0 46 -19t18 -49q0 -29 -18 -48t-46 -19q-29 0 -47 19t-18 48zM218 877q18 19 47 19q28 0 46 -19t18 -49q0 -29 -18 -48t-46 -19q-29 0 -47 19t-18 48
q0 30 18 49z" />
    <glyph glyph-name="Aring" unicode="&#xc5;" horiz-adv-x="715" 
d="M294 700h130l271 -700h-112l-53 137h-344l-53 -137h-113zM271 943q36 33 88 33q53 0 89 -33.5t36 -83.5t-36 -84t-89 -34q-52 0 -88 34t-36 84t36 84zM494 235l-135 352l-137 -352h272zM310 859q0 -22 14 -35.5t35 -13.5q22 0 36 13.5t14 35.5t-14 35.5t-36 13.5
q-21 0 -35 -13.5t-14 -35.5z" />
    <glyph glyph-name="AE" unicode="&#xc6;" horiz-adv-x="949" 
d="M421 700h464v-100h-302v-191h276v-99h-276v-209h314v-101h-419v148h-258l-85 -148h-121zM274 244h204v353z" />
    <glyph glyph-name="Ccedilla" unicode="&#xc7;" horiz-adv-x="729" 
d="M49 350q0 157 96.5 259.5t248.5 102.5q177 0 293 -149l-78 -68q-38 54 -94.5 83t-120.5 29q-104 0 -169.5 -72.5t-65.5 -184.5q0 -113 65.5 -185t173.5 -72q70 0 129.5 30.5t99.5 86.5l78 -66q-105 -140 -271 -154l-6 -33h3q45 0 73 -26t28 -69q0 -48 -37.5 -76
t-94.5 -28q-64 0 -114 38l36 57q30 -23 72 -23q53 0 53 35q0 33 -50 33q-14 0 -32 -3l-20 18l17 77q-140 12 -226.5 112t-86.5 248z" />
    <glyph glyph-name="Egrave" unicode="&#xc8;" horiz-adv-x="593" 
d="M528 700v-101h-332v-195h306v-98h-306v-204h345v-102h-454v700h441zM303 898l64 -126h-93l-97 126h126z" />
    <glyph glyph-name="Eacute" unicode="&#xc9;" horiz-adv-x="593" 
d="M87 700h441v-101h-332v-195h306v-98h-306v-204h345v-102h-454v700zM267 772l64 126h126l-97 -126h-93z" />
    <glyph glyph-name="Ecircumflex" unicode="&#xca;" horiz-adv-x="593" 
d="M87 0v700h441v-101h-332v-195h306v-98h-306v-204h345v-102h-454zM152 772l124 126h82l124 -126h-108l-56 60l-57 -60h-109z" />
    <glyph glyph-name="Edieresis" unicode="&#xcb;" horiz-adv-x="593" 
d="M87 0v700h441v-101h-332v-195h306v-98h-306v-204h345v-102h-454zM176 877q18 19 47 19q28 0 46 -19t18 -49q0 -29 -18 -48t-46 -19q-29 0 -47 19t-18 48q0 30 18 49zM347 828q0 30 18 49t47 19q28 0 46 -19t18 -49q0 -29 -18 -48t-46 -19q-29 0 -47 19t-18 48z" />
    <glyph glyph-name="Igrave" unicode="&#xcc;" horiz-adv-x="282" 
d="M127 898l64 -126h-93l-97 126h126zM196 0h-109v700h109v-700z" />
    <glyph glyph-name="Iacute" unicode="&#xcd;" horiz-adv-x="282" 
d="M184 772h-93l64 126h126zM196 0h-109v700h109v-700z" />
    <glyph glyph-name="Icircumflex" unicode="&#xce;" horiz-adv-x="282" 
d="M196 700v-700h-109v700h109zM-24 772l124 126h82l124 -126h-108l-56 60l-57 -60h-109z" />
    <glyph glyph-name="Idieresis" unicode="&#xcf;" horiz-adv-x="282" 
d="M196 700v-700h-109v700h109zM189 877q18 19 47 19q28 0 46 -19t18 -49q0 -29 -18 -48t-46 -19q-29 0 -47 19t-18 48q0 30 18 49zM0 877q18 19 47 19q28 0 46 -19t18 -49q0 -29 -18 -48t-46 -19q-29 0 -47 19t-18 48q0 30 18 49z" />
    <glyph glyph-name="Eth" unicode="&#xd0;" horiz-adv-x="764" 
d="M16 401h96v299h248q161 0 258 -96t97 -254t-97 -254t-258 -96h-248v311h-96v90zM220 104h133q117 0 184 65.5t67 180.5t-67 180.5t-184 65.5h-133v-197h159v-86h-159v-209z" />
    <glyph glyph-name="Ntilde" unicode="&#xd1;" horiz-adv-x="757" 
d="M184 700l378 -508v508h108v-700h-98l-377 508v-508h-108v700h97zM320 891q31 0 68 -24t54 -24q28 0 50 45l60 -34q-34 -89 -103 -89q-31 0 -68 24t-54 24q-28 0 -50 -46l-60 34q35 90 103 90z" />
    <glyph glyph-name="Ograve" unicode="&#xd2;" horiz-adv-x="818" 
d="M151 610q101 102 258 102t259 -102.5t102 -259.5t-102 -259q-102 -103 -259 -103t-258.5 102t-101.5 260t102 260zM230 166q70 -73 179 -73t179.5 72.5t70.5 184.5t-70.5 184.5t-179.5 72.5t-179.5 -72.5t-70.5 -184.5t71 -184zM395 898l64 -126h-93l-97 126h126z" />
    <glyph glyph-name="Oacute" unicode="&#xd3;" horiz-adv-x="818" 
d="M49 350q0 158 101.5 260t258.5 102t259 -102.5t102 -259.5t-102 -259q-102 -103 -259 -103t-258.5 102t-101.5 260zM230 166q70 -73 179 -73t179.5 72.5t70.5 184.5t-70.5 184.5t-179.5 72.5t-179.5 -72.5t-70.5 -184.5t71 -184zM359 772l64 126h126l-97 -126h-93z" />
    <glyph glyph-name="Ocircumflex" unicode="&#xd4;" horiz-adv-x="818" 
d="M49 350q0 158 102 260q101 102 258 102t259 -102.5t102 -259.5t-102 -259.5t-259 -102.5t-258.5 102t-101.5 260zM159 350q0 -112 71 -184q70 -73 179 -73t179.5 72.5t70.5 184.5t-70.5 184.5t-179.5 72.5t-179.5 -72.5t-70.5 -184.5zM244 772l124 126h82l124 -126h-108
l-56 60l-57 -60h-109z" />
    <glyph glyph-name="Otilde" unicode="&#xd5;" horiz-adv-x="818" 
d="M49 350q0 158 101.5 260t258.5 102t259 -102.5t102 -259.5t-102 -259q-102 -103 -259 -103t-258.5 102t-101.5 260zM159 350q0 -112 71 -184q70 -73 179 -73t179.5 72.5t70.5 184.5t-70.5 184.5t-179.5 72.5t-179.5 -72.5t-70.5 -184.5zM345 891q31 0 68 -24t54 -24
q28 0 50 45l60 -34q-34 -89 -103 -89q-31 0 -68 24t-54 24q-28 0 -50 -46l-60 34q34 90 103 90z" />
    <glyph glyph-name="Odieresis" unicode="&#xd6;" horiz-adv-x="818" 
d="M151 610q101 102 258 102t259 -102.5t102 -259.5t-102 -259q-102 -103 -259 -103t-258.5 102t-101.5 260t102 260zM230 166q70 -73 179 -73t179.5 72.5t70.5 184.5t-70.5 184.5t-179.5 72.5t-179.5 -72.5t-70.5 -184.5t71 -184zM457 877q18 19 47 19q28 0 46 -19t18 -49
q0 -29 -18 -48t-46 -19q-29 0 -47 19t-18 48q0 30 18 49zM250 828q0 30 18 49t47 19q28 0 46 -19t18 -49q0 -29 -18 -48t-46 -19q-29 0 -47 19t-18 48z" />
    <glyph glyph-name="multiply" unicode="&#xd7;" horiz-adv-x="470" 
d="M356 491l66 -65l-121 -121l121 -121l-66 -66l-121 121l-121 -121l-65 66l121 121l-121 120l65 66l121 -121z" />
    <glyph glyph-name="Oslash" unicode="&#xd8;" horiz-adv-x="818" 
d="M49 350q0 158 101.5 260t258.5 102q76 0 142 -26l63 110l80 -45l-63 -110q65 -49 102 -124.5t37 -166.5q0 -157 -102 -259.5t-259 -102.5q-76 0 -142 26l-63 -110l-80 45l63 109q-65 49 -101.5 124.5t-36.5 167.5zM320 108q40 -15 89 -15q109 0 179.5 72.5t70.5 184.5
q0 127 -86 200zM245 151l252 442q-42 14 -88 14q-109 0 -179.5 -72.5t-70.5 -184.5q0 -126 86 -199z" />
    <glyph glyph-name="Ugrave" unicode="&#xd9;" horiz-adv-x="722" 
d="M79 700h108v-416q0 -92 45.5 -141.5t128.5 -49.5t128 49t45 142v416h109v-423q0 -131 -78 -210t-204 -79t-204 79t-78 210v423zM347 898l64 -126h-93l-97 126h126z" />
    <glyph glyph-name="Uacute" unicode="&#xda;" horiz-adv-x="722" 
d="M79 700h108v-416q0 -92 45.5 -141.5t128.5 -49.5t128 49t45 142v416h109v-423q0 -131 -78 -210t-204 -79t-204 79t-78 210v423zM375 898h126l-97 -126h-93z" />
    <glyph glyph-name="Ucircumflex" unicode="&#xdb;" horiz-adv-x="722" 
d="M187 700v-416q0 -92 45.5 -141.5t128.5 -49.5t128 49t45 142v416h109v-423q0 -131 -78 -210t-204 -79t-204 79t-78 210v423h108zM320 898h82l124 -126h-108l-56 60l-57 -60h-109z" />
    <glyph glyph-name="Udieresis" unicode="&#xdc;" horiz-adv-x="722" 
d="M187 700v-416q0 -92 45.5 -141.5t128.5 -49.5t128 49t45 142v416h109v-423q0 -131 -78 -210t-204 -79t-204 79t-78 210v423h108zM409 877q18 19 47 19q28 0 46 -19t18 -49q0 -29 -18 -48t-46 -19q-29 0 -47 19t-18 48q0 30 18 49zM202 828q0 30 18 49t47 19q28 0 46 -19
t18 -49q0 -29 -18 -48t-46 -19q-29 0 -47 19t-18 48z" />
    <glyph glyph-name="Yacute" unicode="&#xdd;" horiz-adv-x="664" 
d="M144 700l103 -175l86 -143l189 318h125l-260 -433v-267h-109v265l-261 435h127zM348 898h126l-97 -126h-93z" />
    <glyph glyph-name="Thorn" unicode="&#xde;" horiz-adv-x="608" 
d="M87 700h109v-109h145q114 0 179.5 -66.5t65.5 -170.5t-65.5 -170.5t-179.5 -66.5h-145v-117h-109v700zM195 219h138q68 0 106 36.5t38 98.5t-38 98.5t-106 36.5h-138v-270z" />
    <glyph glyph-name="germandbls" unicode="&#xdf;" horiz-adv-x="652" 
d="M411 -9q-91 0 -149 46l45 81q47 -29 99 -29q42 0 69.5 21.5t27.5 53.5q0 31 -18 56t-63 58q-47 35 -65 60.5t-18 57.5q0 48 40 96q37 45 37 83q0 36 -28.5 58t-74.5 22q-63 0 -98 -38.5t-35 -107.5v-509h-101v509q0 110 64 176.5t170 66.5q93 0 150.5 -46t57.5 -120
q0 -63 -50 -128q-27 -35 -27 -54q0 -27 56 -67q108 -78 108 -173q0 -77 -54.5 -125t-142.5 -48z" />
    <glyph glyph-name="agrave" unicode="&#xe0;" horiz-adv-x="574" 
d="M98 276q56 46 150 46q77 0 152 -27v27q0 52 -31 75.5t-98 23.5q-71 0 -160 -39l-30 87q104 48 198 48q108 0 166 -50t58 -144v-323h-100l-1 67q-66 -74 -179 -74q-82 0 -132 44t-50 115q0 77 57 124zM171 103q25 -19 72 -19q66 0 109.5 35t48.5 90q-79 25 -140 25
q-55 0 -85 -20t-30 -57q0 -35 25 -54zM140 740h126l64 -146h-94z" />
    <glyph glyph-name="aacute" unicode="&#xe1;" horiz-adv-x="574" 
d="M98 276q56 46 150 46q77 0 152 -27v27q0 52 -31 75.5t-98 23.5q-71 0 -160 -39l-30 87q104 48 198 48q108 0 166 -50t58 -144v-323h-100l-1 67q-66 -74 -179 -74q-82 0 -132 44t-50 115q0 77 57 124zM146 157q0 -35 25 -54t72 -19q66 0 109.5 35t48.5 90q-79 25 -140 25
q-55 0 -85 -20t-30 -57zM290 740h126l-96 -146h-94z" />
    <glyph glyph-name="acircumflex" unicode="&#xe2;" horiz-adv-x="574" 
d="M98 276q56 46 150 46q77 0 152 -27v27q0 52 -31 75.5t-98 23.5q-71 0 -160 -39l-30 87q104 48 198 48q108 0 166 -50t58 -144v-323h-100l-1 67q-66 -74 -179 -74q-82 0 -132 44t-50 115q0 77 57 124zM171 103q25 -19 72 -19q66 0 109.5 35t48.5 90q-79 25 -140 25
q-55 0 -85 -20t-30 -57q0 -35 25 -54zM113 594l124 146h82l124 -146h-108l-56 72l-57 -72h-109z" />
    <glyph glyph-name="atilde" unicode="&#xe3;" horiz-adv-x="574" 
d="M41 152q0 77 56.5 123.5t150.5 46.5q77 0 152 -27v27q0 52 -31 75.5t-98 23.5q-71 0 -160 -39l-30 87q104 48 198 48q108 0 166 -50t58 -144v-323h-100l-1 67q-66 -74 -179 -74q-82 0 -132 44t-50 115zM146 157q0 -35 25 -54t72 -19q66 0 109.5 35t48.5 90
q-79 25 -140 25q-55 0 -85 -20t-30 -57zM214 709q27 0 73 -28q33 -20 47 -20q27 0 49 46l59 -34q-34 -90 -101 -90q-27 0 -73 28q-33 20 -47 20q-28 0 -49 -46l-60 35q35 89 102 89z" />
    <glyph glyph-name="adieresis" unicode="&#xe4;" horiz-adv-x="574" 
d="M41 152q0 77 56.5 123.5t150.5 46.5q77 0 152 -27v27q0 52 -31 75.5t-98 23.5q-71 0 -160 -39l-30 87q104 48 198 48q108 0 166 -50t58 -144v-323h-100l-1 67q-66 -74 -179 -74q-82 0 -132 44t-50 115zM146 157q0 -35 25 -54t72 -19q66 0 109.5 35t48.5 90
q-79 25 -140 25q-55 0 -85 -20t-30 -57zM121 646q0 29 18 47t46 18t45.5 -18t17.5 -47t-17 -47q-18 -19 -46 -19t-46 18.5t-18 47.5zM324 693q18 18 46 18t45.5 -18t17.5 -47t-17 -47q-18 -19 -46 -19t-46 18.5t-18 47.5t18 47z" />
    <glyph glyph-name="aring" unicode="&#xe5;" horiz-adv-x="574" 
d="M41 152q0 77 56.5 123.5t150.5 46.5q77 0 152 -27v27q0 52 -31 75.5t-98 23.5q-71 0 -160 -39l-30 87q104 48 198 48q108 0 166 -50t58 -144v-323h-100l-1 67q-66 -74 -179 -74q-82 0 -132 44t-50 115zM189 770q36 34 88 34q53 0 89 -34t36 -83q0 -50 -36 -84t-89 -34
q-52 0 -88 34t-36 84q0 49 36 83zM171 103q25 -19 72 -19q66 0 109.5 35t48.5 90q-79 25 -140 25q-55 0 -85 -20t-30 -57q0 -35 25 -54zM242 652q14 -15 35 -15q22 0 36 14.5t14 35.5t-14 35t-36 14q-21 0 -35 -14t-14 -35t14 -35z" />
    <glyph glyph-name="ae" unicode="&#xe6;" horiz-adv-x="938" 
d="M97 276q56 46 149 46q71 0 150 -28v28q0 56 -31.5 79.5t-95.5 23.5q-77 0 -158 -43l-30 87q101 53 189 53q138 0 191 -87q71 87 189 87q124 0 187.5 -83.5t63.5 -177.5q0 -28 -5 -58h-397q13 -54 56 -87t101 -33q88 0 155 67l63 -68q-78 -94 -215 -94t-207 102
q-70 -102 -223 -102q-85 0 -136.5 45t-51.5 119q0 77 56 124zM241 83q66 0 110 35t47 90q-78 26 -139 26q-54 0 -83.5 -20.5t-29.5 -58.5q0 -72 95 -72zM497 293h301q-10 60 -50.5 96.5t-100.5 36.5q-58 0 -98.5 -36.5t-51.5 -96.5z" />
    <glyph glyph-name="ccedilla" unicode="&#xe7;" horiz-adv-x="550" 
d="M45 255q0 116 74 191.5t188 75.5q133 0 209 -93l-64 -67q-60 62 -143 62q-70 0 -114.5 -47.5t-44.5 -121.5q0 -75 43.5 -122t116.5 -47q92 0 148 70l70 -64q-62 -91 -188 -102l-7 -34h3q44 0 71.5 -25t27.5 -69q0 -48 -36.5 -76t-92.5 -28q-62 0 -111 38l36 56
q29 -24 69 -24q52 0 52 36q0 34 -49 34q-14 0 -31 -3l-19 18l17 77q-99 13 -162 86.5t-63 178.5z" />
    <glyph glyph-name="egrave" unicode="&#xe8;" horiz-adv-x="600" 
d="M118 447q73 75 186 75q128 0 193 -83t65 -176q0 -29 -5 -60h-406q13 -53 57 -86.5t105 -33.5q91 0 160 67l62 -68q-81 -94 -224 -94q-119 0 -192.5 74.5t-73.5 192.5q0 117 73 192zM149 293h311q-10 59 -52 96t-104 37q-60 0 -102 -36.5t-53 -96.5zM293 740l64 -146h-94
l-96 146h126z" />
    <glyph glyph-name="eacute" unicode="&#xe9;" horiz-adv-x="600" 
d="M118 447q73 75 186 75q128 0 193 -83t65 -176q0 -29 -5 -60h-406q13 -53 57 -86.5t105 -33.5q91 0 160 67l62 -68q-81 -94 -224 -94q-119 0 -192.5 74.5t-73.5 192.5q0 117 73 192zM149 293h311q-10 59 -52 96t-104 37q-60 0 -102 -36.5t-53 -96.5zM317 740h126l-96 -146
h-94z" />
    <glyph glyph-name="ecircumflex" unicode="&#xea;" horiz-adv-x="600" 
d="M45 255q0 117 73 192t186 75q128 0 193 -83t65 -176q0 -29 -5 -60h-406q13 -53 57 -86.5t105 -33.5q91 0 160 67l62 -68q-81 -94 -224 -94q-119 0 -192.5 74.5t-73.5 192.5zM460 293q-10 59 -52 96t-104 37q-60 0 -102 -36.5t-53 -96.5h311zM264 740h82l124 -146h-108
l-56 72l-57 -72h-109z" />
    <glyph glyph-name="edieresis" unicode="&#xeb;" horiz-adv-x="600" 
d="M118 447q73 75 186 75q128 0 193 -83t65 -176q0 -29 -5 -60h-406q13 -53 57 -86.5t105 -33.5q91 0 160 67l62 -68q-81 -94 -224 -94q-119 0 -192.5 74.5t-73.5 192.5q0 117 73 192zM149 293h311q-10 59 -52 96t-104 37q-60 0 -102 -36.5t-53 -96.5zM334 646q0 29 18 47
t46 18t45.5 -18t17.5 -47t-17 -47q-18 -19 -46 -19t-46 18.5t-18 47.5zM149 646q0 29 18 47t46 18t45.5 -18t17.5 -47t-17 -47q-18 -19 -46 -19t-46 18.5t-18 47.5z" />
    <glyph glyph-name="igrave" unicode="&#xec;" horiz-adv-x="262" 
d="M129 740l56 -146h-94l-88 146h126zM184 0h-105v510h105v-510z" />
    <glyph glyph-name="iacute" unicode="&#xed;" horiz-adv-x="262" 
d="M171 594h-94l56 146h126zM184 0h-105v510h105v-510z" />
    <glyph glyph-name="icircumflex" unicode="&#xee;" horiz-adv-x="262" 
d="M79 510h105v-510h-105v510zM-12 594l102 146h82l103 -146h-104l-39 67l-40 -67h-104z" />
    <glyph glyph-name="idieresis" unicode="&#xef;" horiz-adv-x="262" 
d="M79 510h105v-510h-105v510zM-20 646q0 29 17.5 47t45.5 18t45.5 -18t17.5 -47t-17 -47q-18 -19 -46 -19t-45.5 18.5t-17.5 47.5zM157 646q0 29 17.5 47t45.5 18t45 -18t17 -47t-17 -47q-17 -19 -45 -19t-45.5 18.5t-17.5 47.5z" />
    <glyph glyph-name="eth" unicode="&#xf0;" horiz-adv-x="630" 
d="M444 717l-70 -49q101 -87 156.5 -191.5t55.5 -210.5q0 -124 -75 -201t-196 -77q-119 0 -194.5 73t-75.5 189q0 114 71 188t180 74q72 0 128 -35q-54 75 -131 134l-110 -77l-45 64l87 61q-41 25 -82 45l49 85q59 -29 118 -71l89 63zM315 86q74 0 120 45.5t46 118.5
t-46 118.5t-120 45.5q-73 0 -119 -45.5t-46 -118.5t46 -118.5t119 -45.5z" />
    <glyph glyph-name="ntilde" unicode="&#xf1;" horiz-adv-x="624" 
d="M79 510h103v-66q67 73 164 73q93 0 149.5 -58t56.5 -154v-305h-105v286q0 65 -31 99t-89 34q-66 0 -104.5 -40.5t-38.5 -109.5v-269h-105v510zM153 620q35 89 102 89q27 0 73 -28q32 -20 47 -20q27 0 49 46l59 -34q-34 -90 -101 -90q-27 0 -73 28q-32 20 -47 20
q-28 0 -49 -46z" />
    <glyph glyph-name="ograve" unicode="&#xf2;" horiz-adv-x="630" 
d="M45 255q0 118 75.5 192.5t194.5 74.5t195 -74.5t76 -192.5t-76 -192q-76 -75 -195 -75t-194.5 74.5t-75.5 192.5zM150 255q0 -75 46.5 -122t118.5 -47q73 0 119.5 47t46.5 122t-46.5 122t-119.5 47q-72 0 -118.5 -47t-46.5 -122zM303 740l64 -146h-94l-96 146h126z" />
    <glyph glyph-name="oacute" unicode="&#xf3;" horiz-adv-x="630" 
d="M45 255q0 118 75.5 192.5t194.5 74.5t195 -74.5t76 -192.5t-76 -192q-76 -75 -195 -75t-194.5 74.5t-75.5 192.5zM150 255q0 -75 46.5 -122t118.5 -47q73 0 119.5 47t46.5 122t-46.5 122t-119.5 47q-72 0 -118.5 -47t-46.5 -122zM263 594l64 146h126l-96 -146h-94z" />
    <glyph glyph-name="ocircumflex" unicode="&#xf4;" horiz-adv-x="630" 
d="M45 255q0 118 76 193q75 74 194 74t195 -74.5t76 -192.5t-76 -192.5t-195 -74.5t-194.5 74.5t-75.5 192.5zM197 133q46 -47 118 -47q73 0 119.5 47t46.5 122t-46.5 122t-119.5 47q-72 0 -118.5 -47t-46.5 -122t47 -122zM150 594l124 146h82l124 -146h-108l-56 72l-57 -72
h-109z" />
    <glyph glyph-name="otilde" unicode="&#xf5;" horiz-adv-x="630" 
d="M45 255q0 118 75.5 192.5t194.5 74.5t195 -74.5t76 -192.5t-76 -192q-76 -75 -195 -75t-194.5 74.5t-75.5 192.5zM197 133q46 -47 118 -47q73 0 119.5 47t46.5 122t-46.5 122t-119.5 47q-72 0 -118.5 -47t-46.5 -122t47 -122zM149 620q35 89 102 89q27 0 73 -28
q32 -20 47 -20q27 0 49 46l59 -34q-34 -90 -101 -90q-27 0 -73 28q-32 20 -47 20q-28 0 -49 -46z" />
    <glyph glyph-name="odieresis" unicode="&#xf6;" horiz-adv-x="630" 
d="M121 448q75 74 194 74t195 -74.5t76 -192.5t-76 -192q-76 -75 -195 -75t-194.5 74.5t-75.5 192.5t76 193zM197 133q46 -47 118 -47q73 0 119.5 47t46.5 122t-46.5 122t-119.5 47q-72 0 -118.5 -47t-46.5 -122t47 -122zM159 646q0 29 18 47t46 18t45.5 -18t17.5 -47
t-17 -47q-18 -19 -46 -19t-46 18.5t-18 47.5zM344 646q0 29 18 47t46 18t45.5 -18t17.5 -47t-17 -47q-18 -19 -46 -19t-46 18.5t-18 47.5z" />
    <glyph glyph-name="divide" unicode="&#xf7;" horiz-adv-x="507" 
d="M253 403q-27 0 -46.5 17.5t-19.5 45.5t19.5 45.5t46.5 17.5t46.5 -17.5t19.5 -45.5t-19.5 -45.5t-46.5 -17.5zM457 258h-407v92h407v-92zM253 79q-27 0 -46.5 17.5t-19.5 45.5t19.5 45.5t46.5 17.5t46.5 -17.5t19.5 -45.5t-19.5 -45.5t-46.5 -17.5z" />
    <glyph glyph-name="oslash" unicode="&#xf8;" horiz-adv-x="630" 
d="M45 255q0 118 75.5 192.5t194.5 74.5q55 0 103 -17l49 80l74 -44l-48 -78q93 -77 93 -208q0 -118 -76 -192.5t-195 -74.5q-55 0 -103 17l-50 -80l-74 43l49 79q-92 76 -92 208zM264 93q22 -7 51 -7q73 0 119.5 47t46.5 122q0 74 -46 122zM150 255q0 -73 45 -121l170 283
q-21 7 -50 7q-72 0 -118.5 -47t-46.5 -122z" />
    <glyph glyph-name="ugrave" unicode="&#xf9;" horiz-adv-x="624" 
d="M176 510v-286q0 -65 31 -99t90 -34q67 0 105 40.5t38 109.5v269h105v-510h-103v65q-68 -72 -165 -72q-93 0 -149.5 58.5t-56.5 153.5v305h105zM171 740h126l64 -146h-94z" />
    <glyph glyph-name="uacute" unicode="&#xfa;" horiz-adv-x="624" 
d="M176 510v-286q0 -65 31 -99t90 -34q67 0 105 40.5t38 109.5v269h105v-510h-103v65q-68 -72 -165 -72q-93 0 -149.5 58.5t-56.5 153.5v305h105zM321 740h126l-96 -146h-94z" />
    <glyph glyph-name="ucircumflex" unicode="&#xfb;" horiz-adv-x="624" 
d="M176 510v-286q0 -65 31 -99t90 -34q67 0 105 40.5t38 109.5v269h105v-510h-103v65q-68 -72 -165 -72q-93 0 -149.5 58.5t-56.5 153.5v305h105zM268 740h82l124 -146h-108l-56 72l-57 -72h-109z" />
    <glyph glyph-name="udieresis" unicode="&#xfc;" horiz-adv-x="624" 
d="M71 510h105v-286q0 -65 31 -99t90 -34q67 0 105 40.5t38 109.5v269h105v-510h-103v65q-68 -72 -165 -72q-93 0 -149.5 58.5t-56.5 153.5v305zM171 693q18 18 46 18t45.5 -18t17.5 -47t-17 -47q-18 -19 -46 -19t-46 18.5t-18 47.5t18 47zM356 693q18 18 46 18t45.5 -18
t17.5 -47t-17 -47q-18 -19 -46 -19t-46 18.5t-18 47.5t18 47z" />
    <glyph glyph-name="yacute" unicode="&#xfd;" horiz-adv-x="569" 
d="M18 510h115l164 -398l142 398h112l-222 -600q-53 -144 -185 -144q-46 0 -91 17l27 90q25 -9 58 -9q36 0 57 17t38 62l13 33zM302 740h126l-96 -146h-94z" />
    <glyph glyph-name="thorn" unicode="&#xfe;" horiz-adv-x="660" 
d="M79 740h105v-297q70 79 180 79t181 -75t71 -192t-71 -192t-181 -75t-180 78v-296h-105v970zM229 134q46 -48 117 -48q73 0 119 47t46 122q0 74 -46 121.5t-119 47.5q-71 0 -117.5 -47.5t-46.5 -121.5t47 -121z" />
    <glyph glyph-name="ydieresis" unicode="&#xff;" horiz-adv-x="569" 
d="M133 510l164 -398l142 398h112l-222 -600q-53 -144 -185 -144q-46 0 -91 17l27 90q25 -9 58 -9q36 0 57 17t38 62l13 33l-228 534h115zM318 646q0 29 18 47t46 18t45.5 -18t17.5 -47t-17 -47q-18 -19 -46 -19t-46 18.5t-18 47.5zM133 646q0 29 18 47t46 18t45.5 -18
t17.5 -47t-17 -47q-18 -19 -46 -19t-46 18.5t-18 47.5z" />
    <glyph glyph-name="Amacron" unicode="&#x100;" horiz-adv-x="715" 
d="M20 0l274 700h130l271 -700h-112l-53 137h-344l-53 -137h-113zM494 235l-135 352l-137 -352h272zM502 861v-79h-286v79h286z" />
    <glyph glyph-name="amacron" unicode="&#x101;" horiz-adv-x="574" 
d="M41 152q0 77 56.5 123.5t150.5 46.5q77 0 152 -27v27q0 52 -31 75.5t-98 23.5q-71 0 -160 -39l-30 87q104 48 198 48q108 0 166 -50t58 -144v-323h-100l-1 67q-66 -74 -179 -74q-82 0 -132 44t-50 115zM171 103q25 -19 72 -19q66 0 109.5 35t48.5 90q-79 25 -140 25
q-55 0 -85 -20t-30 -57q0 -35 25 -54zM417 681v-77h-278v77h278z" />
    <glyph glyph-name="Abreve" unicode="&#x102;" horiz-adv-x="715" 
d="M20 0l274 700h130l271 -700h-112l-53 137h-344l-53 -137h-113zM222 235h272l-135 352zM209 888l84 16q9 -62 67 -62q57 0 66 62l84 -16q-18 -121 -150 -121q-133 0 -151 121z" />
    <glyph glyph-name="abreve" unicode="&#x103;" horiz-adv-x="574" 
d="M98 276q56 46 150 46q77 0 152 -27v27q0 52 -31 75.5t-98 23.5q-71 0 -160 -39l-30 87q104 48 198 48q108 0 166 -50t58 -144v-323h-100l-1 67q-66 -74 -179 -74q-82 0 -132 44t-50 115q0 77 57 124zM146 157q0 -35 25 -54t72 -19q66 0 109.5 35t48.5 90q-79 25 -140 25
q-55 0 -85 -20t-30 -57zM124 728l79 16q10 -81 74 -81q65 0 75 81l79 -16q-9 -71 -46 -105q-38 -34 -108 -34t-107 34t-46 105z" />
    <glyph glyph-name="Aogonek" unicode="&#x104;" horiz-adv-x="715" 
d="M294 700h130l271 -700q-70 -43 -70 -96q0 -37 35 -37q21 0 49 19l37 -61q-48 -42 -101 -42q-48 0 -76.5 27.5t-28.5 73.5q0 64 60 116h-17l-53 137h-344l-53 -137h-113zM222 235h272l-135 352z" />
    <glyph glyph-name="aogonek" unicode="&#x105;" horiz-adv-x="574" 
d="M98 276q56 46 150 46q77 0 152 -27v27q0 52 -31 75.5t-98 23.5q-71 0 -160 -39l-30 87q104 48 198 48q108 0 166 -50t58 -144v-323h-1q-70 -45 -70 -98q0 -37 35 -37q22 0 48 19l36 -60q-47 -41 -100 -41q-46 0 -74 27t-28 72q0 66 64 118h-10l-1 67q-66 -74 -179 -74
q-82 0 -132 44t-50 115q0 77 57 124zM171 103q25 -19 72 -19q66 0 109.5 35t48.5 90q-79 25 -140 25q-55 0 -85 -20t-30 -57q0 -35 25 -54z" />
    <glyph glyph-name="Cacute" unicode="&#x106;" horiz-adv-x="729" 
d="M146 610q96 102 248 102q177 0 293 -149l-78 -68q-38 54 -94.5 83t-120.5 29q-104 0 -169.5 -72.5t-65.5 -184.5q0 -113 65.5 -185t173.5 -72q70 0 129.5 30.5t99.5 86.5l78 -66q-116 -156 -307 -156q-155 0 -252 102.5t-97 259.5t97 260zM345 772l64 126h126l-97 -126
h-93z" />
    <glyph glyph-name="cacute" unicode="&#x107;" horiz-adv-x="550" 
d="M119 447q74 75 188 75q133 0 209 -93l-64 -67q-60 62 -143 62q-70 0 -114.5 -47.5t-44.5 -121.5q0 -75 43.5 -122t116.5 -47q92 0 148 70l70 -64q-34 -50 -92.5 -77t-129.5 -27q-113 0 -187 75.5t-74 191.5t74 192zM315 740h126l-96 -146h-94z" />
    <glyph glyph-name="Ccircumflex" unicode="&#x108;" horiz-adv-x="729" 
d="M146 610q96 102 248 102q177 0 293 -149l-78 -68q-38 54 -94.5 83t-120.5 29q-104 0 -169.5 -72.5t-65.5 -184.5q0 -113 65.5 -185t173.5 -72q70 0 129.5 30.5t99.5 86.5l78 -66q-116 -156 -307 -156q-155 0 -252 102.5t-97 259.5t97 260zM353 898h82l124 -126h-108
l-56 60l-57 -60h-109z" />
    <glyph glyph-name="ccircumflex" unicode="&#x109;" horiz-adv-x="550" 
d="M45 255q0 116 74 191.5t188 75.5q133 0 209 -93l-64 -67q-60 62 -143 62q-70 0 -114.5 -47.5t-44.5 -121.5q0 -75 43.5 -122t116.5 -47q92 0 148 70l70 -64q-34 -50 -92.5 -77t-129.5 -27q-113 0 -187 75.5t-74 191.5zM138 594l124 146h82l124 -146h-108l-56 72l-57 -72
h-109z" />
    <glyph glyph-name="Cdotaccent" unicode="&#x10a;" horiz-adv-x="729" 
d="M146 610q96 102 248 102q177 0 293 -149l-78 -68q-38 54 -94.5 83t-120.5 29q-104 0 -169.5 -72.5t-65.5 -184.5q0 -113 65.5 -185t173.5 -72q70 0 129.5 30.5t99.5 86.5l78 -66q-116 -156 -307 -156q-155 0 -252 102.5t-97 259.5t97 260zM319 837q0 34 21 55t54 21
t54.5 -21t21.5 -55t-21 -55q-22 -21 -55 -21t-54 21t-21 55z" />
    <glyph glyph-name="cdotaccent" unicode="&#x10b;" horiz-adv-x="550" 
d="M45 255q0 116 74 191.5t188 75.5q133 0 209 -93l-64 -67q-60 62 -143 62q-70 0 -114.5 -47.5t-44.5 -121.5q0 -75 43.5 -122t116.5 -47q92 0 148 70l70 -64q-34 -50 -92.5 -77t-129.5 -27q-113 0 -187 75.5t-74 191.5zM251 703q20 20 52 20t53 -20.5t21 -53.5t-21 -54
t-53 -21t-52.5 21t-20.5 54t21 54z" />
    <glyph glyph-name="Ccaron" unicode="&#x10c;" horiz-adv-x="729" 
d="M49 350q0 157 96.5 259.5t248.5 102.5q177 0 293 -149l-78 -68q-38 54 -94.5 83t-120.5 29q-104 0 -169.5 -72.5t-65.5 -184.5q0 -113 65.5 -185t173.5 -72q70 0 129.5 30.5t99.5 86.5l78 -66q-116 -156 -307 -156q-155 0 -252 102.5t-97 259.5zM338 898l57 -60l56 60
h108l-124 -126h-82l-124 126h109z" />
    <glyph glyph-name="ccaron" unicode="&#x10d;" horiz-adv-x="550" 
d="M45 255q0 116 74 191.5t188 75.5q133 0 209 -93l-64 -67q-60 62 -143 62q-70 0 -114.5 -47.5t-44.5 -121.5q0 -75 43.5 -122t116.5 -47q92 0 148 70l70 -64q-34 -50 -92.5 -77t-129.5 -27q-113 0 -187 75.5t-74 191.5zM138 740h109l57 -72l56 72h108l-124 -146h-82z" />
    <glyph glyph-name="Dcaron" unicode="&#x10e;" horiz-adv-x="739" 
d="M87 700h248q161 0 258 -96t97 -254t-97 -254t-258 -96h-248v700zM196 596v-492h132q118 0 184.5 65.5t66.5 180.5t-66.5 180.5t-184.5 65.5h-132zM172 898h109l57 -60l56 60h108l-124 -126h-82z" />
    <glyph glyph-name="dcaron" unicode="&#x10f;" horiz-adv-x="704" 
d="M45 255q0 117 70.5 192t180.5 75q111 0 181 -79v297h105v-740h-103v69q-70 -81 -183 -81q-110 0 -180.5 75t-70.5 192zM196 133q46 -47 118 -47q73 0 119 47t46 122q0 74 -46 121.5t-119 47.5q-72 0 -118 -47.5t-46 -121.5q0 -75 46 -122zM625 534l34 206h112l-65 -206
h-81z" />
    <glyph glyph-name="Dcroat" unicode="&#x110;" horiz-adv-x="764" 
d="M16 401h96v299h248q161 0 258 -96t97 -254t-97 -254t-258 -96h-248v311h-96v90zM220 104h133q117 0 184 65.5t67 180.5t-67 180.5t-184 65.5h-133v-197h159v-86h-159v-209z" />
    <glyph glyph-name="dcroat" unicode="&#x111;" horiz-adv-x="699" 
d="M582 657h93v-78h-93v-579h-103v69q-70 -81 -183 -81q-109 0 -180 74.5t-71 189.5t71 189.5t180 74.5q111 0 181 -78v141h-152v78h152v83h105v-83zM314 86q72 0 118.5 47t46.5 119t-46.5 119t-118.5 47t-118 -46.5t-46 -119.5t46 -119.5t118 -46.5z" />
    <glyph glyph-name="Emacron" unicode="&#x112;" horiz-adv-x="593" 
d="M87 0v700h441v-101h-332v-195h306v-98h-306v-204h345v-102h-454zM460 861v-79h-286v79h286z" />
    <glyph glyph-name="emacron" unicode="&#x113;" horiz-adv-x="600" 
d="M118 447q73 75 186 75q128 0 193 -83t65 -176q0 -29 -5 -60h-406q13 -53 57 -86.5t105 -33.5q91 0 160 67l62 -68q-81 -94 -224 -94q-119 0 -192.5 74.5t-73.5 192.5q0 117 73 192zM149 293h311q-10 59 -52 96t-104 37q-60 0 -102 -36.5t-53 -96.5zM166 604v77h278v-77
h-278z" />
    <glyph glyph-name="Ebreve" unicode="&#x114;" horiz-adv-x="593" 
d="M87 0v700h441v-101h-332v-195h306v-98h-306v-204h345v-102h-454zM251 904q9 -62 67 -62q57 0 66 62l84 -16q-18 -121 -150 -121q-133 0 -151 121z" />
    <glyph glyph-name="ebreve" unicode="&#x115;" horiz-adv-x="600" 
d="M118 447q73 75 186 75q128 0 193 -83t65 -176q0 -29 -5 -60h-406q13 -53 57 -86.5t105 -33.5q91 0 160 67l62 -68q-81 -94 -224 -94q-119 0 -192.5 74.5t-73.5 192.5q0 117 73 192zM149 293h311q-10 59 -52 96t-104 37q-60 0 -102 -36.5t-53 -96.5zM152 728l79 16
q10 -81 74 -81q65 0 75 81l79 -16q-9 -71 -46 -105q-38 -34 -108 -34t-107 34t-46 105z" />
    <glyph glyph-name="Edotaccent" unicode="&#x116;" horiz-adv-x="593" 
d="M87 0v700h441v-101h-332v-195h306v-98h-306v-204h345v-102h-454zM263 892q21 21 54 21t54.5 -21t21.5 -55t-21 -55q-22 -21 -55 -21t-54 21t-21 55t21 55z" />
    <glyph glyph-name="edotaccent" unicode="&#x117;" horiz-adv-x="600" 
d="M45 255q0 117 73 192t186 75q128 0 193 -83t65 -176q0 -29 -5 -60h-406q13 -53 57 -86.5t105 -33.5q91 0 160 67l62 -68q-81 -94 -224 -94q-119 0 -192.5 74.5t-73.5 192.5zM149 293h311q-10 59 -52 96t-104 37q-60 0 -102 -36.5t-53 -96.5zM253 703q20 20 52 20
t53 -20.5t21 -53.5t-21 -54t-53 -21t-52.5 21t-20.5 54t21 54z" />
    <glyph glyph-name="Eogonek" unicode="&#x118;" horiz-adv-x="593" 
d="M87 0v700h441v-101h-332v-195h306v-98h-306v-204h345v-102h-1q-70 -43 -70 -96q0 -37 35 -37q21 0 49 19l37 -61q-48 -42 -101 -42q-48 0 -76.5 27.5t-28.5 73.5q0 64 60 116h-358z" />
    <glyph glyph-name="eogonek" unicode="&#x119;" horiz-adv-x="611" 
d="M44 255q0 117 73.5 192t186.5 75q128 0 194 -83.5t66 -179.5q0 -27 -5 -56h-409q13 -53 58 -86.5t105 -33.5q90 0 160 67l62 -68q-29 -34 -98 -77q-77 -50 -77 -98q0 -19 10.5 -30.5t27.5 -11.5q23 0 46 19l36 -59q-46 -42 -97 -42q-46 0 -75.5 28.5t-29.5 72.5
q0 54 46 104h-10q-120 0 -195 74t-75 193zM149 293h311q-10 59 -52.5 96t-103.5 37q-60 0 -102 -36.5t-53 -96.5z" />
    <glyph glyph-name="Ecaron" unicode="&#x11a;" horiz-adv-x="593" 
d="M87 0v700h441v-101h-332v-195h306v-98h-306v-204h345v-102h-454zM261 898l57 -60l56 60h108l-124 -126h-82l-124 126h109z" />
    <glyph glyph-name="ecaron" unicode="&#x11b;" horiz-adv-x="600" 
d="M45 255q0 117 73 192t186 75q128 0 193 -83t65 -176q0 -29 -5 -60h-406q13 -53 57 -86.5t105 -33.5q91 0 160 67l62 -68q-81 -94 -224 -94q-119 0 -192.5 74.5t-73.5 192.5zM460 293q-10 59 -52 96t-104 37q-60 0 -102 -36.5t-53 -96.5h311zM249 740l57 -72l56 72h108
l-124 -146h-82l-124 146h109z" />
    <glyph glyph-name="Gcircumflex" unicode="&#x11c;" horiz-adv-x="765" 
d="M148 610q99 102 258 102q162 0 271 -112l-70 -74q-35 38 -89 59.5t-112 21.5q-110 0 -178.5 -72t-68.5 -185q0 -114 68 -185.5t183 -71.5q117 0 195 61v124h-227v102h331v-273q-56 -58 -134 -88.5t-163 -30.5q-165 0 -264 101t-99 261q0 157 99 260zM365 898h82l124 -126
h-108l-56 60l-57 -60h-109z" />
    <glyph glyph-name="gcircumflex" unicode="&#x11d;" horiz-adv-x="633" 
d="M86 -65q-39 33 -39 84q0 70 73 117q-47 60 -47 145q0 102 66.5 165.5t172.5 63.5h295v-92h-112q57 -57 57 -142q0 -97 -68 -160.5t-172 -63.5q-71 0 -126 29q-37 -17 -37 -48q0 -29 41 -42t155 -18q133 -6 194 -40.5t61 -103.5q0 -77 -71 -119.5t-199 -42.5
q-144 0 -220 41.5t-76 119.5q0 71 52 107zM214 185q38 -38 98 -38q61 0 99 37.5t38 96.5t-38 96.5t-99 37.5q-60 0 -98 -37.5t-38 -96.5t38 -96zM137 -163q0 -40 44.5 -57.5t143.5 -17.5q171 0 171 61q0 28 -36 40.5t-120 14.5q-100 1 -166 18q-16 -10 -26.5 -26.5
t-10.5 -32.5zM279 740h82l124 -146h-108l-56 72l-57 -72h-109z" />
    <glyph glyph-name="Gbreve" unicode="&#x11e;" horiz-adv-x="765" 
d="M148 610q99 102 258 102q162 0 271 -112l-70 -74q-35 38 -89 59.5t-112 21.5q-110 0 -178.5 -72t-68.5 -185q0 -114 68 -185.5t183 -71.5q117 0 195 61v124h-227v102h331v-273q-56 -58 -134 -88.5t-163 -30.5q-165 0 -264 101t-99 261q0 157 99 260zM339 904
q9 -62 67 -62q57 0 66 62l84 -16q-18 -121 -150 -121q-133 0 -151 121z" />
    <glyph glyph-name="gbreve" unicode="&#x11f;" horiz-adv-x="633" 
d="M86 -65q-39 33 -39 84q0 70 73 117q-47 60 -47 145q0 102 66.5 165.5t172.5 63.5h295v-92h-112q57 -57 57 -142q0 -97 -68 -160.5t-172 -63.5q-71 0 -126 29q-37 -17 -37 -48q0 -29 41 -42t155 -18q133 -6 194 -40.5t61 -103.5q0 -77 -71 -119.5t-199 -42.5
q-144 0 -220 41.5t-76 119.5q0 71 52 107zM176 281q0 -59 38 -96.5t98 -37.5q61 0 99 37.5t38 96.5t-38 96.5t-99 37.5q-60 0 -98 -37.5t-38 -96.5zM182 -221q44 -17 143 -17q171 0 171 61q0 28 -36 40.5t-120 14.5q-100 1 -166 18q-16 -10 -26.5 -26.5t-10.5 -32.5
q0 -40 45 -58zM167 728l79 16q10 -81 74 -81q65 0 75 81l79 -16q-9 -71 -46 -105q-38 -34 -108 -34t-107 34t-46 105z" />
    <glyph glyph-name="Gdotaccent" unicode="&#x120;" horiz-adv-x="765" 
d="M148 610q99 102 258 102q162 0 271 -112l-70 -74q-35 38 -89 59.5t-112 21.5q-110 0 -178.5 -72t-68.5 -185q0 -114 68 -185.5t183 -71.5q117 0 195 61v124h-227v102h331v-273q-56 -58 -134 -88.5t-163 -30.5q-165 0 -264 101t-99 261q0 157 99 260zM330 837q0 34 21 55
t54 21t54.5 -21t21.5 -55t-21 -55q-22 -21 -55 -21t-54 21t-21 55z" />
    <glyph glyph-name="gdotaccent" unicode="&#x121;" horiz-adv-x="633" 
d="M86 -65q-39 33 -39 84q0 70 73 117q-47 60 -47 145q0 102 66.5 165.5t172.5 63.5h295v-92h-112q57 -57 57 -142q0 -97 -68 -160.5t-172 -63.5q-71 0 -126 29q-37 -17 -37 -48q0 -29 41 -42t155 -18q133 -6 194 -40.5t61 -103.5q0 -77 -71 -119.5t-199 -42.5
q-144 0 -220 41.5t-76 119.5q0 71 52 107zM176 281q0 -59 38 -96.5t98 -37.5q61 0 99 37.5t38 96.5t-38 96.5t-99 37.5q-60 0 -98 -37.5t-38 -96.5zM137 -163q0 -40 44.5 -57.5t143.5 -17.5q171 0 171 61q0 28 -36 40.5t-120 14.5q-100 1 -166 18q-16 -10 -26.5 -26.5
t-10.5 -32.5zM247 649q0 33 20.5 53.5t52.5 20.5t53 -20.5t21 -53.5t-21 -54t-53 -21t-52.5 21t-20.5 54z" />
    <glyph glyph-name="uni0122" unicode="&#x122;" horiz-adv-x="765" 
d="M148 610q99 102 258 102q162 0 271 -112l-70 -74q-35 38 -89 59.5t-112 21.5q-110 0 -178.5 -72t-68.5 -185q0 -114 68 -185.5t183 -71.5q117 0 195 61v124h-227v102h331v-273q-56 -58 -134 -88.5t-163 -30.5q-165 0 -264 101t-99 261q0 157 99 260zM354 -112
q0 27 16.5 44.5t41.5 17.5q31 0 49.5 -21.5t18.5 -57.5q0 -71 -74 -139l-34 32q31 35 39 68q-25 1 -41 17t-16 39z" />
    <glyph glyph-name="uni0123" unicode="&#x123;" horiz-adv-x="633" 
d="M86 -65q-39 33 -39 84q0 70 73 117q-47 60 -47 145q0 102 66.5 165.5t172.5 63.5h295v-92h-112q57 -57 57 -142q0 -97 -68 -160.5t-172 -63.5q-71 0 -126 29q-37 -17 -37 -48q0 -29 41 -42t155 -18q133 -6 194 -40.5t61 -103.5q0 -77 -71 -119.5t-199 -42.5
q-144 0 -220 41.5t-76 119.5q0 71 52 107zM214 185q38 -38 98 -38q61 0 99 37.5t38 96.5t-38 96.5t-99 37.5q-60 0 -98 -37.5t-38 -96.5t38 -96zM182 -221q44 -17 143 -17q171 0 171 61q0 28 -36 40.5t-120 14.5q-100 1 -166 18q-16 -10 -26.5 -26.5t-10.5 -32.5
q0 -40 45 -58zM331 789l34 -32q-31 -35 -39 -68q25 -1 41 -17t16 -39q0 -27 -16.5 -44.5t-41.5 -17.5q-31 0 -49.5 21.5t-18.5 57.5q0 71 74 139z" />
    <glyph glyph-name="Hcircumflex" unicode="&#x124;" horiz-adv-x="741" 
d="M87 700h109v-291h349v291h109v-700h-109v305h-349v-305h-109v700zM330 898h82l124 -126h-108l-56 60l-57 -60h-109z" />
    <glyph glyph-name="hcircumflex" unicode="&#x125;" horiz-adv-x="624" 
d="M79 740h105v-293q64 70 162 70q93 0 149.5 -57.5t56.5 -152.5v-307h-105v288q0 64 -31 97.5t-89 33.5q-66 0 -104.5 -40t-38.5 -108v-271h-105v740zM-34 812l124 126h82l124 -126h-108l-56 60l-57 -60h-109z" />
    <glyph glyph-name="Hbar" unicode="&#x126;" horiz-adv-x="765" 
d="M667 602h76v-90h-76v-512h-109v307h-350v-307h-109v512h-77v90h77v98h109v-98h350v98h109v-98zM208 514v-110h350v110h-350z" />
    <glyph glyph-name="hbar" unicode="&#x127;" horiz-adv-x="634" 
d="M356 517q92 0 149 -58t57 -152v-307h-105v288q0 64 -31 97.5t-89 33.5q-67 0 -105.5 -40t-38.5 -108v-271h-105v579h-93v78h93v83h105v-83h152v-78h-152v-133q64 71 163 71z" />
    <glyph glyph-name="Itilde" unicode="&#x128;" horiz-adv-x="282" 
d="M196 700v-700h-109v700h109zM77 891q31 0 68 -24t54 -24q28 0 50 45l60 -34q-34 -89 -103 -89q-31 0 -68 24t-54 24q-28 0 -50 -46l-60 34q34 90 103 90z" />
    <glyph glyph-name="itilde" unicode="&#x129;" horiz-adv-x="262" 
d="M79 0v510h105v-510h-105zM-26 611q33 89 97 89q28 0 62 -24t49 -24q28 0 44 46l59 -34q-31 -89 -96 -89q-28 0 -62 24t-49 24q-28 0 -44 -46z" />
    <glyph glyph-name="Imacron" unicode="&#x12a;" horiz-adv-x="282" 
d="M273 782h-265v79h265v-79zM196 0h-109v700h109v-700z" />
    <glyph glyph-name="imacron" unicode="&#x12b;" horiz-adv-x="262" 
d="M256 604h-249v77h249v-77zM184 0h-105v510h105v-510z" />
    <glyph glyph-name="Ibreve" unicode="&#x12c;" horiz-adv-x="282" 
d="M196 700v-700h-109v700h109zM75 904q9 -62 67 -62q57 0 66 62l84 -16q-18 -121 -150 -121q-133 0 -151 121z" />
    <glyph glyph-name="ibreve" unicode="&#x12d;" horiz-adv-x="262" 
d="M184 510v-510h-105v510h105zM67 744q9 -81 64 -81q56 0 65 81l79 -16q-16 -139 -144 -139q-127 0 -143 139z" />
    <glyph glyph-name="Iogonek" unicode="&#x12e;" horiz-adv-x="282" 
d="M40 -116q0 64 60 116h-13v700h109v-700h-1q-70 -43 -70 -96q0 -37 35 -37q21 0 49 19l37 -61q-48 -42 -101 -42q-48 0 -76.5 27.5t-28.5 73.5z" />
    <glyph glyph-name="iogonek" unicode="&#x12f;" horiz-adv-x="262" 
d="M38 -118q0 67 59 118h-18v510h105v-510q-63 -44 -63 -98q0 -37 34 -37q23 0 46 19l36 -60q-46 -41 -98 -41q-46 0 -73.5 27t-27.5 72zM76 711q21 21 55 21q33 0 54.5 -21.5t21.5 -55.5t-21.5 -56t-54.5 -22q-34 0 -55 21.5t-21 56.5q0 34 21 56z" />
    <glyph glyph-name="Idotaccent" unicode="&#x130;" horiz-adv-x="282" 
d="M87 700h109v-700h-109v700zM66 837q0 34 21 55t54 21t54.5 -21t21.5 -55t-21 -55q-22 -21 -55 -21t-54 21t-21 55z" />
    <glyph glyph-name="dotlessi" unicode="&#x131;" horiz-adv-x="262" 
d="M184 0h-105v510h105v-510z" />
    <glyph glyph-name="IJ" unicode="&#x132;" horiz-adv-x="747" 
d="M331 119q59 -28 116 -28t84.5 39t27.5 122v448h109v-459q0 -123 -57 -188t-164 -65q-73 0 -158 39zM196 700v-700h-109v700h109z" />
    <glyph glyph-name="ij" unicode="&#x133;" horiz-adv-x="524" 
d="M197 -223l23 94q32 -9 57 -9q34 0 49 18.5t15 61.5v568h105v-585q0 -77 -41.5 -119.5t-116.5 -42.5q-44 0 -91 14zM79 0v510h105v-510h-105zM76 711q21 21 55 21q33 0 54.5 -21.5t21.5 -55.5t-21.5 -56t-54.5 -22q-34 0 -55 21.5t-21 56.5q0 34 21 56zM317 655
q0 34 21 55.5t55 21.5q33 0 54.5 -21.5t21.5 -55.5t-21.5 -56t-54.5 -22q-34 0 -55 21.5t-21 56.5z" />
    <glyph glyph-name="Jcircumflex" unicode="&#x134;" horiz-adv-x="465" 
d="M49 119q59 -28 116 -28t84.5 39t27.5 122v448h109v-459q0 -123 -57 -188t-164 -65q-73 0 -158 39zM167 772l124 126h82l124 -126h-108l-56 60l-57 -60h-109z" />
    <glyph glyph-name="jcircumflex" unicode="&#x135;" horiz-adv-x="262" 
d="M-65 -223l23 94q32 -9 57 -9q34 0 49 18.5t15 61.5v568h105v-585q0 -77 -41.5 -119.5t-116.5 -42.5q-44 0 -91 14zM90 740h82l103 -146h-104l-39 67l-40 -67h-104z" />
    <glyph glyph-name="uni0136" unicode="&#x136;" horiz-adv-x="642" 
d="M196 700v-296h66l223 296h136l-263 -344l273 -356h-137l-231 303h-67v-303h-109v700h109zM291 -68q16 18 41 18q31 0 49.5 -21.5t18.5 -57.5q0 -71 -74 -139l-34 32q31 35 39 68q-25 1 -41 17t-16 39q0 27 17 44z" />
    <glyph glyph-name="uni0137" unicode="&#x137;" horiz-adv-x="540" 
d="M79 740h105v-429h61l149 199h126l-188 -249l198 -261h-129l-160 215h-57v-215h-105v740zM221 -112q0 27 16.5 44.5t41.5 17.5q31 0 49.5 -21.5t18.5 -57.5q0 -71 -74 -139l-34 32q31 35 39 68q-25 1 -41 17t-16 39z" />
    <glyph glyph-name="kgreenlandic" unicode="&#x138;" horiz-adv-x="540" 
d="M79 0v510h105v-199h62l148 199h126l-188 -249l198 -261h-129l-160 215h-57v-215h-105z" />
    <glyph glyph-name="Lacute" unicode="&#x139;" horiz-adv-x="552" 
d="M155 898h126l-97 -126h-93zM196 700v-596h321v-104h-430v700h109z" />
    <glyph glyph-name="lacute" unicode="&#x13a;" horiz-adv-x="262" 
d="M174 812h-93l64 126h126zM184 0h-105v740h105v-740z" />
    <glyph glyph-name="uni013B" unicode="&#x13b;" horiz-adv-x="552" 
d="M196 700v-596h321v-104h-430v700h109zM248 -112q0 27 16.5 44.5t41.5 17.5q31 0 49.5 -21.5t18.5 -57.5q0 -71 -74 -139l-34 32q31 35 39 68q-25 1 -41 17t-16 39z" />
    <glyph glyph-name="uni013C" unicode="&#x13c;" horiz-adv-x="262" 
d="M184 740v-740h-105v740h105zM85 -68q16 18 41 18q31 0 49.5 -21.5t18.5 -57.5q0 -71 -74 -139l-34 32q31 35 39 68q-25 1 -41 17t-16 39q0 27 17 44z" />
    <glyph glyph-name="Lcaron" unicode="&#x13d;" horiz-adv-x="552" 
d="M196 700v-596h321v-104h-430v700h109zM358 494l30 206h118l-61 -206h-87z" />
    <glyph glyph-name="lcaron" unicode="&#x13e;" horiz-adv-x="305" 
d="M79 0v740h105v-740h-105zM227 534l34 206h112l-65 -206h-81z" />
    <glyph glyph-name="Ldot" unicode="&#x13f;" horiz-adv-x="552" 
d="M87 0v700h109v-596h321v-104h-430zM360 438q20 19 49 19q30 0 50 -18.5t20 -48.5t-20 -49t-50 -19q-29 0 -49 19t-20 49q0 29 20 48z" />
    <glyph glyph-name="ldot" unicode="&#x140;" horiz-adv-x="431" 
d="M79 740h105v-740h-105v740zM268 366q20 19 49 19q30 0 50 -18.5t20 -48.5t-20 -49t-50 -19q-29 0 -49 19t-20 49q0 29 20 48z" />
    <glyph glyph-name="Lslash" unicode="&#x141;" horiz-adv-x="571" 
d="M105 365v335h109v-288l206 88v-98l-206 -88v-210h321v-104h-430v267l-97 -42v98z" />
    <glyph glyph-name="lslash" unicode="&#x142;" horiz-adv-x="290" 
d="M0 349l92 44v347h105v-296l93 45v-98l-93 -45v-346h-105v295l-92 -44v98z" />
    <glyph glyph-name="Nacute" unicode="&#x143;" horiz-adv-x="757" 
d="M87 0v700h97l378 -508v508h108v-700h-98l-377 508v-508h-108zM398 898h126l-97 -126h-93z" />
    <glyph glyph-name="nacute" unicode="&#x144;" horiz-adv-x="624" 
d="M79 0v510h103v-66q67 73 164 73q93 0 149.5 -58t56.5 -154v-305h-105v286q0 65 -31 99t-89 34q-66 0 -104.5 -40.5t-38.5 -109.5v-269h-105zM331 740h126l-96 -146h-94z" />
    <glyph glyph-name="uni0145" unicode="&#x145;" horiz-adv-x="757" 
d="M87 700h97l378 -508v508h108v-700h-98l-377 508v-508h-108v700zM338 -68q16 18 41 18q31 0 49.5 -21.5t18.5 -57.5q0 -71 -74 -139l-34 32q31 35 39 68q-25 1 -41 17t-16 39q0 27 17 44z" />
    <glyph glyph-name="uni0146" unicode="&#x146;" horiz-adv-x="624" 
d="M79 0v510h103v-66q67 73 164 73q93 0 149.5 -58t56.5 -154v-305h-105v286q0 65 -31 99t-89 34q-66 0 -104.5 -40.5t-38.5 -109.5v-269h-105zM270 -68q16 18 41 18q31 0 49.5 -21.5t18.5 -57.5q0 -71 -74 -139l-34 32q31 35 39 68q-25 1 -41 17t-16 39q0 27 17 44z" />
    <glyph glyph-name="Ncaron" unicode="&#x147;" horiz-adv-x="757" 
d="M184 700l378 -508v508h108v-700h-98l-377 508v-508h-108v700h97zM219 898h109l57 -60l56 60h108l-124 -126h-82z" />
    <glyph glyph-name="ncaron" unicode="&#x148;" horiz-adv-x="624" 
d="M182 510v-66q67 73 164 73q93 0 149.5 -58t56.5 -154v-305h-105v286q0 65 -31 99t-89 34q-66 0 -104.5 -40.5t-38.5 -109.5v-269h-105v510h103zM154 740h109l57 -72l56 72h108l-124 -146h-82z" />
    <glyph glyph-name="napostrophe" unicode="&#x149;" horiz-adv-x="705" 
d="M159 1v510h103v-67q67 74 165 74q93 0 149.5 -58.5t56.5 -153.5v-305h-105v286q0 65 -31 99t-89 34q-67 0 -105.5 -40.5t-38.5 -109.5v-269h-105zM13 722q18 19 46 19q35 0 55 -23.5t20 -63.5q0 -78 -81 -153l-38 36q34 38 43 74q-27 2 -45 19.5t-18 42.5q0 30 18 49z
" />
    <glyph glyph-name="Eng" unicode="&#x14a;" horiz-adv-x="757" 
d="M562 188v512h108v-775q0 -77 -41 -119.5t-116 -42.5q-43 0 -90 14l22 94q30 -9 57 -9q34 0 48.5 18.5t14.5 61.5v67l-370 502v-511h-108v700h97z" />
    <glyph glyph-name="eng" unicode="&#x14b;" horiz-adv-x="624" 
d="M182 510v-66q66 73 164 73q93 0 149.5 -58t56.5 -154v-380q0 -77 -41 -119.5t-116 -42.5q-44 0 -91 14l23 92q31 -9 57 -9q34 0 48.5 18.5t14.5 61.5v346q0 65 -31 99t-89 34q-66 0 -104.5 -40.5t-38.5 -109.5v-269h-105v510h103z" />
    <glyph glyph-name="Omacron" unicode="&#x14c;" horiz-adv-x="818" 
d="M49 350q0 158 101.5 260t258.5 102t259 -102.5t102 -259.5t-102 -259q-102 -103 -259 -103t-258.5 102t-101.5 260zM230 166q70 -73 179 -73t179.5 72.5t70.5 184.5t-70.5 184.5t-179.5 72.5t-179.5 -72.5t-70.5 -184.5t71 -184zM266 782v79h286v-79h-286z" />
    <glyph glyph-name="omacron" unicode="&#x14d;" horiz-adv-x="630" 
d="M45 255q0 118 75.5 192.5t194.5 74.5t195 -74.5t76 -192.5t-76 -192q-76 -75 -195 -75t-194.5 74.5t-75.5 192.5zM150 255q0 -75 46.5 -122t118.5 -47q73 0 119.5 47t46.5 122t-46.5 122t-119.5 47q-72 0 -118.5 -47t-46.5 -122zM176 604v77h278v-77h-278z" />
    <glyph glyph-name="Obreve" unicode="&#x14e;" horiz-adv-x="818" 
d="M49 350q0 158 101.5 260t258.5 102t259 -102.5t102 -259.5t-102 -259q-102 -103 -259 -103t-258.5 102t-101.5 260zM230 166q70 -73 179 -73t179.5 72.5t70.5 184.5t-70.5 184.5t-179.5 72.5t-179.5 -72.5t-70.5 -184.5t71 -184zM343 904q9 -62 67 -62q57 0 66 62l84 -16
q-18 -121 -150 -121q-133 0 -151 121z" />
    <glyph glyph-name="obreve" unicode="&#x14f;" horiz-adv-x="630" 
d="M121 448q75 74 194 74t195 -74.5t76 -192.5t-76 -192q-76 -75 -195 -75t-194.5 74.5t-75.5 192.5t76 193zM197 133q46 -47 118 -47q73 0 119.5 47t46.5 122t-46.5 122t-119.5 47q-72 0 -118.5 -47t-46.5 -122t47 -122zM241 744q10 -81 74 -81q65 0 75 81l79 -16
q-9 -71 -46 -105q-38 -34 -108 -34t-107 34t-46 105z" />
    <glyph glyph-name="Ohungarumlaut" unicode="&#x150;" horiz-adv-x="818" 
d="M151 610q101 102 258 102t259 -102.5t102 -259.5t-102 -259q-102 -103 -259 -103t-258.5 102t-101.5 260t102 260zM230 166q70 -73 179 -73t179.5 72.5t70.5 184.5t-70.5 184.5t-179.5 72.5t-179.5 -72.5t-70.5 -184.5t71 -184zM432 772l72 126h115l-96 -126h-91z
M333 898h115l-86 -126h-87z" />
    <glyph glyph-name="ohungarumlaut" unicode="&#x151;" horiz-adv-x="630" 
d="M45 255q0 118 75.5 192.5t194.5 74.5t195 -74.5t76 -192.5t-76 -192q-76 -75 -195 -75t-194.5 74.5t-75.5 192.5zM197 133q46 -47 118 -47q73 0 119.5 47t46.5 122t-46.5 122t-119.5 47q-72 0 -118.5 -47t-46.5 -122t47 -122zM339 594l72 146h115l-96 -146h-91zM182 594
l58 146h115l-86 -146h-87z" />
    <glyph glyph-name="OE" unicode="&#x152;" horiz-adv-x="996" 
d="M49 350q0 165 100 263.5t266 98.5q60 0 111 -12h406v-101h-299v-193h273v-98h-273v-206h311v-102h-418q-50 -12 -106 -12q-169 0 -270 98.5t-101 263.5zM159 350q0 -124 72.5 -192.5t202.5 -68.5q44 0 92 9v502q-43 10 -93 10q-129 0 -201.5 -68.5t-72.5 -191.5z" />
    <glyph glyph-name="oe" unicode="&#x153;" horiz-adv-x="1005" 
d="M45 255q0 118 72 192.5t185 74.5q141 0 214 -110q34 52 88 81t119 29q121 0 183.5 -83.5t62.5 -177.5q0 -28 -5 -58h-397q13 -55 55.5 -87.5t101.5 -32.5q88 0 155 67l62 -68q-76 -94 -212 -94q-143 0 -214 109q-34 -51 -89.5 -80t-123.5 -29q-113 0 -185 74.5t-72 192.5
zM195 133q44 -47 115 -47q70 0 115 47t45 122t-45 122t-115 47q-71 0 -115.5 -47t-44.5 -122t45 -122zM865 293q-10 60 -50 96.5t-100 36.5q-58 0 -98.5 -36.5t-51.5 -96.5h300z" />
    <glyph glyph-name="Racute" unicode="&#x154;" horiz-adv-x="663" 
d="M87 700h278q105 0 172.5 -64.5t67.5 -160.5q0 -72 -40 -129t-108 -82l168 -264h-122l-157 249h-150v-249h-109v700zM361 348q64 0 100 34q36 33 36 91t-36 91.5t-100 33.5h-167v-250h167zM269 772l64 126h126l-97 -126h-93z" />
    <glyph glyph-name="racute" unicode="&#x155;" horiz-adv-x="415" 
d="M79 0v510h103v-70q64 77 157 77q37 0 70 -12l-27 -105q-33 11 -65 11q-67 0 -100 -46.5t-33 -121.5v-243h-105zM256 740h126l-96 -146h-94z" />
    <glyph glyph-name="uni0156" unicode="&#x156;" horiz-adv-x="663" 
d="M87 700h278q105 0 172.5 -64.5t67.5 -160.5q0 -72 -40 -129t-108 -82l168 -264h-122l-157 249h-150v-249h-109v700zM361 348q64 0 100 34q36 33 36 91t-36 91.5t-100 33.5h-167v-250h167zM280 -112q0 27 16.5 44.5t41.5 17.5q31 0 49.5 -21.5t18.5 -57.5q0 -71 -74 -139
l-34 32q31 35 39 68q-25 1 -41 17t-16 39z" />
    <glyph glyph-name="uni0157" unicode="&#x157;" horiz-adv-x="415" 
d="M182 510v-70q64 77 157 77q37 0 70 -12l-27 -105q-33 11 -65 11q-67 0 -100 -46.5t-33 -121.5v-243h-105v510h103zM85 -68q16 18 41 18q31 0 49.5 -21.5t18.5 -57.5q0 -71 -74 -139l-34 32q31 35 39 68q-25 1 -41 17t-16 39q0 27 17 44z" />
    <glyph glyph-name="Rcaron" unicode="&#x158;" horiz-adv-x="663" 
d="M365 700q105 0 172.5 -64.5t67.5 -160.5q0 -72 -40 -129t-108 -82l168 -264h-122l-157 249h-150v-249h-109v700h278zM361 348q64 0 100 34q36 33 36 91t-36 91.5t-100 33.5h-167v-250h167zM154 898h109l57 -60l56 60h108l-124 -126h-82z" />
    <glyph glyph-name="rcaron" unicode="&#x159;" horiz-adv-x="415" 
d="M79 0v510h103v-70q64 77 157 77q37 0 70 -12l-27 -105q-33 11 -65 11q-67 0 -100 -46.5t-33 -121.5v-243h-105zM188 740l57 -72l56 72h108l-124 -146h-82l-124 146h109z" />
    <glyph glyph-name="Sacute" unicode="&#x15a;" horiz-adv-x="602" 
d="M39 85l56 85q94 -74 212 -74q69 0 108 23.5t39 65.5q0 39 -40.5 68t-136.5 58q-111 34 -162.5 84t-51.5 124q0 83 66.5 136t172.5 53q137 0 245 -92l-59 -84q-37 33 -87.5 52.5t-100.5 19.5q-58 0 -93 -22t-35 -58q0 -37 35.5 -63.5t130.5 -57.5q120 -39 174 -90t54 -125
q0 -85 -74 -140.5t-188 -55.5q-153 0 -265 93zM319 898h126l-97 -126h-93z" />
    <glyph glyph-name="sacute" unicode="&#x15b;" horiz-adv-x="484" 
d="M81 146q85 -56 168 -56q46 0 71.5 14t25.5 39q0 23 -25 39.5t-83 31.5q-95 25 -138 63t-43 98q0 66 49 104.5t136 38.5q116 0 200 -70l-50 -79q-28 23 -69.5 37.5t-81.5 14.5q-81 0 -81 -47q0 -23 23.5 -38t84.5 -30q183 -45 183 -160q0 -70 -55.5 -112t-147.5 -42
q-120 0 -213 70zM195 594l64 146h126l-96 -146h-94z" />
    <glyph glyph-name="Scircumflex" unicode="&#x15c;" horiz-adv-x="602" 
d="M39 85l56 85q94 -74 212 -74q69 0 108 23.5t39 65.5q0 39 -40.5 68t-136.5 58q-111 34 -162.5 84t-51.5 124q0 83 66.5 136t172.5 53q137 0 245 -92l-59 -84q-37 33 -87.5 52.5t-100.5 19.5q-58 0 -93 -22t-35 -58q0 -37 35.5 -63.5t130.5 -57.5q120 -39 174 -90t54 -125
q0 -85 -74 -140.5t-188 -55.5q-153 0 -265 93zM263 898h82l124 -126h-108l-56 60l-57 -60h-109z" />
    <glyph glyph-name="scircumflex" unicode="&#x15d;" horiz-adv-x="484" 
d="M35 62l46 84q85 -56 168 -56q46 0 71.5 14t25.5 39q0 23 -25 39.5t-83 31.5q-95 25 -138 63t-43 98q0 66 49 104.5t136 38.5q116 0 200 -70l-50 -79q-28 23 -69.5 37.5t-81.5 14.5q-81 0 -81 -47q0 -23 23.5 -38t84.5 -30q183 -45 183 -160q0 -70 -55.5 -112t-147.5 -42
q-120 0 -213 70zM82 594l124 146h82l124 -146h-108l-56 72l-57 -72h-109z" />
    <glyph glyph-name="Scedilla" unicode="&#x15e;" horiz-adv-x="602" 
d="M95 170q94 -74 212 -74q69 0 108 23.5t39 65.5q0 39 -40.5 68t-136.5 58q-111 34 -162.5 84t-51.5 124q0 83 66.5 136t172.5 53q137 0 245 -92l-59 -84q-37 33 -87.5 52.5t-100.5 19.5q-58 0 -93 -22t-35 -58q0 -37 35.5 -63.5t130.5 -57.5q120 -39 174 -90t54 -125
q0 -77 -61.5 -130.5t-160.5 -63.5l-7 -37h3q45 0 73 -26t28 -69q0 -48 -37.5 -76t-94.5 -28q-64 0 -114 38l36 57q30 -23 72 -23q53 0 53 35q0 33 -50 33q-14 0 -32 -3l-20 18l18 80q-136 11 -233 92z" />
    <glyph glyph-name="scedilla" unicode="&#x15f;" horiz-adv-x="484" 
d="M81 146q85 -56 168 -56q46 0 71.5 14t25.5 39q0 23 -25 39.5t-83 31.5q-95 25 -138 63t-43 98q0 66 49 104.5t136 38.5q116 0 200 -70l-50 -79q-28 23 -69.5 37.5t-81.5 14.5q-81 0 -81 -47q0 -23 23.5 -38t84.5 -30q183 -45 183 -160q0 -62 -44 -102.5t-120 -49.5
l-7 -38h3q44 0 71.5 -25t27.5 -69q0 -48 -36.5 -76t-92.5 -28q-62 0 -111 38l36 56q28 -24 69 -24q52 0 52 36q0 34 -49 34q-14 0 -31 -3l-19 18l17 80q-103 9 -182 69z" />
    <glyph glyph-name="Scaron" unicode="&#x160;" horiz-adv-x="602" 
d="M39 85l56 85q94 -74 212 -74q69 0 108 23.5t39 65.5q0 39 -40.5 68t-136.5 58q-111 34 -162.5 84t-51.5 124q0 83 66.5 136t172.5 53q137 0 245 -92l-59 -84q-37 33 -87.5 52.5t-100.5 19.5q-58 0 -93 -22t-35 -58q0 -37 35.5 -63.5t130.5 -57.5q120 -39 174 -90t54 -125
q0 -85 -74 -140.5t-188 -55.5q-153 0 -265 93zM248 898l57 -60l56 60h108l-124 -126h-82l-124 126h109z" />
    <glyph glyph-name="scaron" unicode="&#x161;" horiz-adv-x="484" 
d="M35 62l46 84q85 -56 168 -56q46 0 71.5 14t25.5 39q0 23 -25 39.5t-83 31.5q-95 25 -138 63t-43 98q0 66 49 104.5t136 38.5q116 0 200 -70l-50 -79q-28 23 -69.5 37.5t-81.5 14.5q-81 0 -81 -47q0 -23 23.5 -38t84.5 -30q183 -45 183 -160q0 -70 -55.5 -112t-147.5 -42
q-120 0 -213 70zM82 740h109l57 -72l56 72h108l-124 -146h-82z" />
    <glyph glyph-name="uni0162" unicode="&#x162;" horiz-adv-x="596" 
d="M569 700v-104h-217v-596h-17l-8 -43h3q45 0 73 -26t28 -69q0 -48 -37.5 -76t-94.5 -28q-64 0 -114 38l36 57q30 -23 72 -23q53 0 53 35q0 33 -50 33q-14 0 -32 -3l-20 18l20 87h-21v596h-217v104h543z" />
    <glyph glyph-name="uni0163" unicode="&#x163;" horiz-adv-x="412" 
d="M24 418v92h93v119h105v-119h146v-92h-146v-247q0 -80 69 -80q30 0 69 18l34 -90q-43 -20 -87 -25l-8 -38h3q44 0 71.5 -25t27.5 -69q0 -48 -36.5 -76t-92.5 -28q-62 0 -111 38l36 56q29 -24 69 -24q52 0 52 36q0 34 -49 34q-14 0 -31 -3l-19 18l18 85q-56 13 -88 57
t-32 111v252h-93z" />
    <glyph glyph-name="Tcaron" unicode="&#x164;" horiz-adv-x="596" 
d="M26 596v104h543v-104h-217v-596h-109v596h-217zM133 898h109l57 -60l56 60h108l-124 -126h-82z" />
    <glyph glyph-name="tcaron" unicode="&#x165;" horiz-adv-x="412" 
d="M117 510v119h105v-119h146v-92h-146v-247q0 -80 69 -80q30 0 69 18l34 -90q-55 -26 -113 -26q-76 0 -120 47t-44 126v252h-93v92h93zM309 564l32 176h107l-57 -176h-82z" />
    <glyph glyph-name="Tbar" unicode="&#x166;" horiz-adv-x="596" 
d="M569 700v-104h-217v-200h136v-90h-136v-306h-109v306h-135v90h135v200h-217v104h543z" />
    <glyph glyph-name="tbar" unicode="&#x167;" horiz-adv-x="412" 
d="M362 105l32 -87q-54 -25 -113 -25q-76 0 -120 47t-44 126v68h-83v81h83v103h-93v92h93v119h105v-119h146v-92h-146v-103h132v-81h-132v-65q0 -80 69 -80q32 0 71 16z" />
    <glyph glyph-name="Utilde" unicode="&#x168;" horiz-adv-x="722" 
d="M187 700v-416q0 -92 45.5 -141.5t128.5 -49.5t128 49t45 142v416h109v-423q0 -131 -78 -210t-204 -79t-204 79t-78 210v423h108zM194 801q34 90 103 90q31 0 68 -24t54 -24q28 0 50 45l60 -34q-34 -89 -103 -89q-31 0 -68 24t-54 24q-28 0 -50 -46z" />
    <glyph glyph-name="utilde" unicode="&#x169;" horiz-adv-x="624" 
d="M71 205v305h105v-286q0 -65 31 -99t90 -34q67 0 105 40.5t38 109.5v269h105v-510h-103v65q-68 -72 -165 -72q-93 0 -149.5 58.5t-56.5 153.5zM143 620q35 89 102 89q27 0 73 -28q33 -20 47 -20q27 0 49 46l59 -34q-34 -90 -101 -90q-27 0 -73 28q-33 20 -47 20
q-28 0 -49 -46z" />
    <glyph glyph-name="Umacron" unicode="&#x16a;" horiz-adv-x="722" 
d="M79 700h108v-416q0 -92 45.5 -141.5t128.5 -49.5t128 49t45 142v416h109v-423q0 -131 -78 -210t-204 -79t-204 79t-78 210v423zM218 782v79h286v-79h-286z" />
    <glyph glyph-name="umacron" unicode="&#x16b;" horiz-adv-x="624" 
d="M176 510v-286q0 -65 31 -99t90 -34q67 0 105 40.5t38 109.5v269h105v-510h-103v65q-68 -72 -165 -72q-93 0 -149.5 58.5t-56.5 153.5v305h105zM170 681h278v-77h-278v77z" />
    <glyph glyph-name="Ubreve" unicode="&#x16c;" horiz-adv-x="722" 
d="M79 700h108v-416q0 -92 45.5 -141.5t128.5 -49.5t128 49t45 142v416h109v-423q0 -131 -78 -210t-204 -79t-204 79t-78 210v423zM294 904q9 -62 67 -62q57 0 66 62l84 -16q-18 -121 -150 -121q-133 0 -151 121z" />
    <glyph glyph-name="ubreve" unicode="&#x16d;" horiz-adv-x="624" 
d="M71 205v305h105v-286q0 -65 31 -99t90 -34q67 0 105 40.5t38 109.5v269h105v-510h-103v65q-68 -72 -165 -72q-93 0 -149.5 58.5t-56.5 153.5zM156 728l79 16q10 -81 74 -81q65 0 75 81l79 -16q-9 -71 -46 -105q-38 -34 -108 -34t-107 34t-46 105z" />
    <glyph glyph-name="Uring" unicode="&#x16e;" horiz-adv-x="722" 
d="M79 277v423h108v-416q0 -92 45.5 -141.5t128.5 -49.5t128 49t45 142v416h109v-423q0 -131 -78 -210t-204 -79t-204 79t-78 210zM273 943q36 33 88 33q53 0 89 -33.5t36 -83.5t-36 -84t-89 -34q-52 0 -88 34t-36 84t36 84zM326 824q14 -14 35 -14q22 0 36 13.5t14 35.5
t-14 35.5t-36 13.5q-21 0 -35 -13.5t-14 -35.5t14 -35z" />
    <glyph glyph-name="uring" unicode="&#x16f;" horiz-adv-x="624" 
d="M176 510v-286q0 -65 31 -99t90 -34q67 0 105 40.5t38 109.5v269h105v-510h-103v65q-68 -72 -165 -72q-93 0 -149.5 58.5t-56.5 153.5v305h105zM185 687q0 49 36 83t88 34q53 0 89 -34t36 -83q0 -50 -36 -84t-89 -34q-52 0 -88 34t-36 84zM260 687q0 -21 14 -35.5
t35 -14.5q22 0 36 14.5t14 35.5t-14 35t-36 14q-21 0 -35 -14t-14 -35z" />
    <glyph glyph-name="Uhungarumlaut" unicode="&#x170;" horiz-adv-x="722" 
d="M79 700h108v-416q0 -92 45.5 -141.5t128.5 -49.5t128 49t45 142v416h109v-423q0 -131 -78 -210t-204 -79t-204 79t-78 210v423zM456 898h115l-96 -126h-91zM227 772l58 126h115l-86 -126h-87z" />
    <glyph glyph-name="uhungarumlaut" unicode="&#x171;" horiz-adv-x="624" 
d="M176 510v-286q0 -65 31 -99t90 -34q67 0 105 40.5t38 109.5v269h105v-510h-103v65q-68 -72 -165 -72q-93 0 -149.5 58.5t-56.5 153.5v305h105zM405 740h115l-96 -146h-91zM234 740h115l-86 -146h-87z" />
    <glyph glyph-name="Uogonek" unicode="&#x172;" horiz-adv-x="722" 
d="M534 284v416h109v-423q0 -91 -41.5 -158.5t-119.5 -105.5q-41 -20 -64.5 -49.5t-23.5 -61.5q0 -37 36 -37q21 0 47 19l37 -60q-47 -41 -100 -41q-46 0 -74 27t-28 72q0 59 44 106q-125 2 -201 80.5t-76 208.5v423h108v-416q0 -92 45.5 -141.5t128.5 -49.5q85 0 129 49
t44 142z" />
    <glyph glyph-name="uogonek" unicode="&#x173;" horiz-adv-x="624" 
d="M71 510h105v-286q0 -65 31 -99t90 -34q67 0 105 40.5t38 109.5v269h105v-510q-70 -45 -70 -98q0 -37 35 -37q22 0 48 19l36 -60q-47 -41 -100 -41q-46 0 -74 27t-28 72q0 66 64 118h-14v65q-68 -72 -165 -72q-93 0 -149.5 58.5t-56.5 153.5v305z" />
    <glyph glyph-name="Wcircumflex" unicode="&#x174;" horiz-adv-x="1067" 
d="M139 700l169 -566l170 540h112l172 -543l167 569h113l-213 -700h-131l-164 510l-72 -231l-90 -279h-131l-216 700h114zM369 772l124 126h82l124 -126h-108l-56 60l-57 -60h-109z" />
    <glyph glyph-name="wcircumflex" unicode="&#x175;" horiz-adv-x="860" 
d="M134 510l121 -378l125 361h101l124 -363l68 209l54 171h110l-169 -510h-121l-116 344l-119 -344h-120l-169 510h111zM266 594l124 146h82l124 -146h-108l-56 72l-57 -72h-109z" />
    <glyph glyph-name="Ycircumflex" unicode="&#x176;" horiz-adv-x="664" 
d="M17 700h127l103 -175l86 -143l189 318h125l-260 -433v-267h-109v265zM292 898h82l124 -126h-108l-56 60l-57 -60h-109z" />
    <glyph glyph-name="ycircumflex" unicode="&#x177;" horiz-adv-x="569" 
d="M133 510l164 -398l142 398h112l-222 -600q-53 -144 -185 -144q-46 0 -91 17l27 90q25 -9 58 -9q36 0 57 17t38 62l13 33l-228 534h115zM249 740h82l124 -146h-108l-56 72l-57 -72h-109z" />
    <glyph glyph-name="Ydieresis" unicode="&#x178;" horiz-adv-x="664" 
d="M144 700l103 -175l86 -143l189 318h125l-260 -433v-267h-109v265l-261 435h127zM381 877q18 19 47 19q28 0 46 -19t18 -49q0 -29 -18 -48t-46 -19q-29 0 -47 19t-18 48q0 30 18 49zM174 828q0 30 18 49t47 19q28 0 46 -19t18 -49q0 -29 -18 -48t-46 -19q-29 0 -47 19
t-18 48z" />
    <glyph glyph-name="Zacute" unicode="&#x179;" horiz-adv-x="598" 
d="M318 898h126l-97 -126h-93zM191 103h367v-103h-507v88l352 510h-341v102h482v-87z" />
    <glyph glyph-name="zacute" unicode="&#x17a;" horiz-adv-x="492" 
d="M258 740h126l-96 -146h-94zM179 91h276v-91h-409v75l265 343h-255v92h389v-74z" />
    <glyph glyph-name="Zdotaccent" unicode="&#x17b;" horiz-adv-x="598" 
d="M51 0v88l352 510h-341v102h482v-87l-353 -510h367v-103h-507zM228 837q0 34 21 55t54 21t54.5 -21t21.5 -55t-21 -55q-22 -21 -55 -21t-54 21t-21 55z" />
    <glyph glyph-name="zdotaccent" unicode="&#x17c;" horiz-adv-x="492" 
d="M46 0v75l265 343h-255v92h389v-74l-266 -345h276v-91h-409zM172 649q0 33 20.5 53.5t52.5 20.5t53 -20.5t21 -53.5t-21 -54t-53 -21t-52.5 21t-20.5 54z" />
    <glyph glyph-name="Zcaron" unicode="&#x17d;" horiz-adv-x="598" 
d="M403 598h-341v102h482v-87l-353 -510h367v-103h-507v88zM139 898h109l57 -60l56 60h108l-124 -126h-82z" />
    <glyph glyph-name="zcaron" unicode="&#x17e;" horiz-adv-x="492" 
d="M311 418h-255v92h389v-74l-266 -345h276v-91h-409v75zM81 740h109l57 -72l56 72h108l-124 -146h-82z" />
    <glyph glyph-name="longs" unicode="&#x17f;" horiz-adv-x="405" 
d="M33 510h105v64q0 83 40 127t115 44q56 0 112 -25l-34 -84q-34 14 -65 14q-30 0 -46.5 -21t-16.5 -59v-570h-105v416h-105v94z" />
    <glyph glyph-name="florin" unicode="&#x192;" horiz-adv-x="426" 
d="M361 649q-37 0 -58.5 -19t-25.5 -51l-9 -69h143v-92h-155l-64 -482q-11 -83 -56.5 -127t-121.5 -44q-56 0 -107 23l37 86q29 -14 59 -14q36 0 57.5 19t26.5 52l64 487h-114v92h127l8 64q11 83 56.5 127t121.5 44q57 0 108 -23l-38 -86q-30 13 -59 13z" />
    <glyph glyph-name="AEacute" unicode="&#x1fc;" horiz-adv-x="949" 
d="M14 0l407 700h464v-100h-302v-191h276v-99h-276v-209h314v-101h-419v148h-258l-85 -148h-121zM274 244h204v353zM555 898h126l-97 -126h-93z" />
    <glyph glyph-name="aeacute" unicode="&#x1fd;" horiz-adv-x="938" 
d="M97 276q56 46 149 46q71 0 150 -28v28q0 56 -31.5 79.5t-95.5 23.5q-77 0 -158 -43l-30 87q101 53 189 53q138 0 191 -87q71 87 189 87q124 0 187.5 -83.5t63.5 -177.5q0 -28 -5 -58h-397q13 -54 56 -87t101 -33q88 0 155 67l63 -68q-78 -94 -215 -94t-207 102
q-70 -102 -223 -102q-85 0 -136.5 45t-51.5 119q0 77 56 124zM241 83q66 0 110 35t47 90q-78 26 -139 26q-54 0 -83.5 -20.5t-29.5 -58.5q0 -72 95 -72zM798 293q-10 60 -50.5 96.5t-100.5 36.5q-58 0 -98.5 -36.5t-51.5 -96.5h301zM475 740h126l-96 -146h-94z" />
    <glyph glyph-name="Oslashacute" unicode="&#x1fe;" horiz-adv-x="818" 
d="M151 610q101 102 258 102q76 0 142 -26l63 110l80 -45l-63 -110q65 -49 102 -124.5t37 -166.5q0 -157 -102 -259.5t-259 -102.5q-76 0 -142 26l-63 -110l-80 45l63 109q-65 49 -101.5 124.5t-36.5 167.5q0 158 102 260zM320 108q40 -15 89 -15q109 0 179.5 72.5
t70.5 184.5q0 127 -86 200zM159 350q0 -126 86 -199l252 442q-42 14 -88 14q-109 0 -179.5 -72.5t-70.5 -184.5zM359 772l64 126h126l-97 -126h-93z" />
    <glyph glyph-name="oslashacute" unicode="&#x1ff;" horiz-adv-x="630" 
d="M121 448q75 74 194 74q55 0 103 -17l49 80l74 -44l-48 -78q93 -77 93 -208q0 -118 -76 -192.5t-195 -74.5q-55 0 -103 17l-50 -80l-74 43l49 79q-92 76 -92 208q0 118 76 193zM315 86q73 0 119.5 47t46.5 122q0 74 -46 122l-171 -284q22 -7 51 -7zM195 134l170 283
q-21 7 -50 7q-72 0 -118.5 -47t-46.5 -122q0 -73 45 -121zM263 594l64 146h126l-96 -146h-94z" />
    <glyph glyph-name="uni0218" unicode="&#x218;" horiz-adv-x="602" 
d="M39 85l56 85q94 -74 212 -74q69 0 108 23.5t39 65.5q0 39 -40.5 68t-136.5 58q-111 34 -162.5 84t-51.5 124q0 83 66.5 136t172.5 53q137 0 245 -92l-59 -84q-37 33 -87.5 52.5t-100.5 19.5q-58 0 -93 -22t-35 -58q0 -37 35.5 -63.5t130.5 -57.5q120 -39 174 -90t54 -125
q0 -85 -74 -140.5t-188 -55.5q-153 0 -265 93zM244 -112q0 27 16.5 44.5t41.5 17.5q31 0 49.5 -21.5t18.5 -57.5q0 -71 -74 -139l-34 32q31 35 39 68q-25 1 -41 17t-16 39z" />
    <glyph glyph-name="uni0219" unicode="&#x219;" horiz-adv-x="484" 
d="M35 62l46 84q85 -56 168 -56q46 0 71.5 14t25.5 39q0 23 -25 39.5t-83 31.5q-95 25 -138 63t-43 98q0 66 49 104.5t136 38.5q116 0 200 -70l-50 -79q-28 23 -69.5 37.5t-81.5 14.5q-81 0 -81 -47q0 -23 23.5 -38t84.5 -30q183 -45 183 -160q0 -70 -55.5 -112t-147.5 -42
q-120 0 -213 70zM206 -68q16 18 41 18q31 0 49.5 -21.5t18.5 -57.5q0 -71 -74 -139l-34 32q31 35 39 68q-25 1 -41 17t-16 39q0 27 17 44z" />
    <glyph glyph-name="uni021A" unicode="&#x21a;" horiz-adv-x="596" 
d="M26 596v104h543v-104h-217v-596h-109v596h-217zM235 -112q0 27 16.5 44.5t41.5 17.5q31 0 49.5 -21.5t18.5 -57.5q0 -71 -74 -139l-34 32q31 35 39 68q-25 1 -41 17t-16 39z" />
    <glyph glyph-name="uni021B" unicode="&#x21b;" horiz-adv-x="412" 
d="M117 510v119h105v-119h146v-92h-146v-247q0 -80 69 -80q30 0 69 18l34 -90q-55 -26 -113 -26q-76 0 -120 47t-44 126v252h-93v92h93zM207 -112q0 27 16.5 44.5t41.5 17.5q31 0 49.5 -21.5t18.5 -57.5q0 -71 -74 -139l-34 32q31 35 39 68q-25 1 -41 17t-16 39z" />
    <glyph glyph-name="uni0237" unicode="&#x237;" horiz-adv-x="262" 
d="M-42 -129q32 -9 57 -9q34 0 49 18.5t15 61.5v568h105v-585q0 -77 -41.5 -119.5t-116.5 -42.5q-44 0 -91 14z" />
    <glyph glyph-name="circumflex" unicode="&#x2c6;" horiz-adv-x="530" 
d="M100 594l124 146h82l124 -146h-108l-56 72l-57 -72h-109z" />
    <glyph glyph-name="caron" unicode="&#x2c7;" horiz-adv-x="530" 
d="M100 740h109l57 -72l56 72h108l-124 -146h-82z" />
    <glyph glyph-name="breve" unicode="&#x2d8;" horiz-adv-x="507" 
d="M100 728l79 16q10 -81 74 -81q65 0 75 81l79 -16q-9 -71 -46 -105q-38 -34 -108 -34t-107 34t-46 105z" />
    <glyph glyph-name="dotaccent" unicode="&#x2d9;" horiz-adv-x="347" 
d="M100 649q0 33 20.5 53.5t52.5 20.5t53 -20.5t21 -53.5t-21 -54t-53 -21t-52.5 21t-20.5 54z" />
    <glyph glyph-name="ring" unicode="&#x2da;" horiz-adv-x="449" 
d="M136 770q36 34 88 34q53 0 89 -34t36 -83q0 -50 -36 -84t-89 -34q-52 0 -88 34t-36 84q0 49 36 83zM175 687q0 -21 14 -35.5t35 -14.5q22 0 36 14.5t14 35.5t-14 35t-36 14q-21 0 -35 -14t-14 -35z" />
    <glyph glyph-name="ogonek" unicode="&#x2db;" horiz-adv-x="402" 
d="M202 -217q-46 0 -74 27t-28 72q0 87 107 147l46 -29q-70 -45 -70 -98q0 -37 35 -37q22 0 48 19l36 -60q-47 -41 -100 -41z" />
    <glyph glyph-name="tilde" unicode="&#x2dc;" horiz-adv-x="530" 
d="M202 709q27 0 73 -28q33 -20 47 -20q27 0 49 46l59 -34q-34 -90 -101 -90q-27 0 -73 28q-32 20 -47 20q-28 0 -49 -46l-60 35q35 89 102 89z" />
    <glyph glyph-name="hungarumlaut" unicode="&#x2dd;" horiz-adv-x="544" 
d="M329 740h115l-96 -146h-91zM158 740h115l-86 -146h-87z" />
    <glyph glyph-name="gravecomb" unicode="&#x300;" 
d="M-164 740l64 -146h-94l-96 146h126z" />
    <glyph glyph-name="acutecomb" unicode="&#x301;" 
d="M-196 594h-94l64 146h126z" />
    <glyph glyph-name="uni0302" unicode="&#x302;" 
d="M-430 594l124 146h82l124 -146h-108l-56 72l-57 -72h-109z" />
    <glyph glyph-name="tildecomb" unicode="&#x303;" 
d="M-328 709q27 0 73 -28q33 -20 47 -20q27 0 49 46l59 -34q-34 -90 -101 -90q-27 0 -73 28q-32 20 -47 20q-28 0 -49 -46l-60 35q35 89 102 89z" />
    <glyph glyph-name="uni0304" unicode="&#x304;" 
d="M-100 604h-278v77h278v-77z" />
    <glyph glyph-name="uni0306" unicode="&#x306;" 
d="M-407 728l79 16q10 -81 74 -81q65 0 75 81l79 -16q-9 -71 -47 -105q-37 -34 -107 -34t-107 34t-46 105z" />
    <glyph glyph-name="uni0307" unicode="&#x307;" 
d="M-247 649q0 33 20.5 53.5t52.5 20.5t53 -20.5t21 -53.5t-21 -54t-53 -21t-52.5 21t-20.5 54z" />
    <glyph glyph-name="uni0308" unicode="&#x308;" 
d="M-227 646q0 29 18 47t46 18t45.5 -18t17.5 -47t-18 -47q-17 -19 -45 -19t-46 18.5t-18 47.5zM-412 646q0 29 18 47t46 18t45.5 -18t17.5 -47t-18 -47q-17 -19 -45 -19t-46 18.5t-18 47.5z" />
    <glyph glyph-name="uni030A" unicode="&#x30a;" 
d="M-313 770q36 34 88 34q53 0 89 -34t36 -83q0 -50 -36 -84t-89 -34q-52 0 -88 34t-36 84q0 49 36 83zM-274 687q0 -21 14 -35.5t35 -14.5q22 0 36 14.5t14 35.5t-14 35t-36 14q-21 0 -35 -14t-14 -35z" />
    <glyph glyph-name="uni030B" unicode="&#x30b;" 
d="M-215 740h115l-96 -146h-91zM-386 740h115l-86 -146h-87z" />
    <glyph glyph-name="uni030C" unicode="&#x30c;" 
d="M-430 740h109l57 -72l56 72h108l-124 -146h-82z" />
    <glyph glyph-name="uni0312" unicode="&#x312;" 
d="M-152 789l34 -32q-32 -36 -39 -68q25 -1 41 -17t16 -39q0 -27 -16.5 -44.5t-41.5 -17.5q-31 0 -49.5 21.5t-18.5 57.5q0 71 74 139z" />
    <glyph glyph-name="uni0326" unicode="&#x326;" 
d="M-210 -68q17 18 42 18q31 0 49.5 -21.5t18.5 -57.5q0 -71 -74 -139l-34 32q32 36 39 68q-25 1 -41 17t-16 39q0 27 16 44z" />
    <glyph glyph-name="uni0327" unicode="&#x327;" 
d="M-340 -204l36 56q28 -24 69 -24q52 0 52 36q0 34 -49 34q-14 0 -31 -3l-19 18l24 111h69l-13 -68h3q44 0 71.5 -25t27.5 -69q0 -48 -36.5 -76t-92.5 -28q-62 0 -111 38z" />
    <glyph glyph-name="uni0328" unicode="&#x328;" 
d="M-195 29l46 -29q-70 -45 -70 -98q0 -37 35 -37q22 0 48 19l36 -60q-47 -41 -100 -41q-46 0 -74 27t-28 72q0 87 107 147z" />
    <glyph glyph-name="uni03BC" unicode="&#x3bc;" horiz-adv-x="631" 
d="M447 233v277h105v-510h-103v58q-54 -60 -139 -60q-77 0 -130 47v-275h-101v740h105v-277q0 -68 34 -105t95 -37q62 0 98 38.5t36 103.5z" />
    <glyph glyph-name="pi" unicode="&#x3c0;" horiz-adv-x="628" 
d="M589 94l19 -97q-35 -8 -66 -8q-60 0 -101.5 36.5t-41.5 115.5v268h-190v-409h-105v409h-77v101h555v-101h-78v-251q0 -68 55 -68q17 0 30 4z" />
    <glyph glyph-name="uni0400" unicode="&#x400;" horiz-adv-x="593" 
d="M528 700v-101h-332v-195h306v-98h-306v-204h345v-102h-454v700h441zM303 898l64 -126h-93l-97 126h126z" />
    <glyph glyph-name="uni0401" unicode="&#x401;" horiz-adv-x="593" 
d="M87 0v700h441v-101h-332v-195h306v-98h-306v-204h345v-102h-454zM176 877q18 19 47 19q28 0 46 -19t18 -49q0 -29 -18 -48t-46 -19q-29 0 -47 19t-18 48q0 30 18 49zM347 828q0 30 18 49t47 19q28 0 46 -19t18 -49q0 -29 -18 -48t-46 -19q-29 0 -47 19t-18 48z" />
    <glyph glyph-name="uni0402" unicode="&#x402;" horiz-adv-x="820" 
d="M519 449q117 0 186.5 -62t69.5 -166q0 -100 -62 -164t-161 -64q-65 0 -141 32l38 96q54 -24 100 -24q55 0 85 32.5t30 87.5q0 62 -40.5 95t-114.5 33q-78 0 -159 -38v-307h-109v596h-215v104h589v-103h-265v-183q85 35 169 35z" />
    <glyph glyph-name="uni0403" unicode="&#x403;" horiz-adv-x="532" 
d="M310 898h126l-97 -126h-93zM87 700h422v-104h-313v-596h-109v700z" />
    <glyph glyph-name="uni0404" unicode="&#x404;" horiz-adv-x="728" 
d="M49 350q0 158 96.5 260t247.5 102q174 0 290 -135l-76 -72q-82 102 -211 102q-90 0 -154 -55.5t-80 -146.5h378v-102h-380q14 -96 79 -153t161 -57q137 0 225 107l76 -71q-124 -141 -301 -141q-155 0 -253 101.5t-98 260.5z" />
    <glyph glyph-name="uni0405" unicode="&#x405;" horiz-adv-x="602" 
d="M39 85l56 85q94 -74 212 -74q69 0 108 23.5t39 65.5q0 39 -40.5 68t-136.5 58q-111 34 -162.5 84t-51.5 124q0 83 66.5 136t172.5 53q137 0 245 -92l-59 -84q-37 33 -87.5 52.5t-100.5 19.5q-58 0 -93 -22t-35 -58q0 -37 35.5 -63.5t130.5 -57.5q120 -39 174 -90t54 -125
q0 -85 -74 -140.5t-188 -55.5q-153 0 -265 93z" />
    <glyph glyph-name="uni0406" unicode="&#x406;" horiz-adv-x="282" 
d="M196 0h-109v700h109v-700z" />
    <glyph glyph-name="uni0407" unicode="&#x407;" horiz-adv-x="282" 
d="M196 700v-700h-109v700h109zM189 877q18 19 47 19q28 0 46 -19t18 -49q0 -29 -18 -48t-46 -19q-29 0 -47 19t-18 48q0 30 18 49zM0 877q18 19 47 19q28 0 46 -19t18 -49q0 -29 -18 -48t-46 -19q-29 0 -47 19t-18 48q0 30 18 49z" />
    <glyph glyph-name="uni0408" unicode="&#x408;" horiz-adv-x="465" 
d="M7 27l42 92q59 -28 116 -28t84.5 39t27.5 122v448h109v-459q0 -123 -57 -188t-164 -65q-73 0 -158 39z" />
    <glyph glyph-name="uni0409" unicode="&#x409;" horiz-adv-x="1085" 
d="M657 455h155q109 0 175.5 -62.5t66.5 -165.5t-66 -165t-176 -62h-264v596h-258l-23 -319q-10 -132 -63 -197t-166 -85l-27 99q82 17 111 54.5t36 135.5l30 416h469v-245zM656 102h149q67 0 103.5 32.5t36.5 92.5q0 61 -36.5 93.5t-103.5 32.5h-149v-251z" />
    <glyph glyph-name="uni040A" unicode="&#x40a;" horiz-adv-x="1073" 
d="M87 0v700h109v-291h339v291h109v-246h156q109 0 175.5 -62.5t66.5 -164.5q0 -103 -66 -165t-176 -62h-265v305h-339v-305h-109zM643 351v-249h150q68 0 104 33t36 92t-36 91.5t-104 32.5h-150z" />
    <glyph glyph-name="uni040B" unicode="&#x40b;" horiz-adv-x="832" 
d="M515 457q121 0 188.5 -70.5t67.5 -196.5v-190h-109v179q0 173 -150 173q-87 0 -162 -36v-316h-109v596h-215v104h586v-103h-262v-173q83 33 165 33z" />
    <glyph glyph-name="uni040C" unicode="&#x40c;" horiz-adv-x="642" 
d="M196 700v-296h66l223 296h136l-263 -344l273 -356h-137l-231 303h-67v-303h-109v700h109zM351 898h126l-97 -126h-93z" />
    <glyph glyph-name="uni040D" unicode="&#x40d;" horiz-adv-x="757" 
d="M196 700v-516l375 516h99v-700h-109v516l-375 -516h-99v700h109zM368 898l64 -126h-93l-97 126h126z" />
    <glyph glyph-name="uni040E" unicode="&#x40e;" horiz-adv-x="666" 
d="M143 700l85 -171l118 -233l186 404h119l-276 -588q-31 -65 -74 -94.5t-108 -29.5q-60 0 -106 20l31 98q34 -13 66 -13q65 0 98 69l5 11l-267 527h123zM271 904q9 -62 67 -62q57 0 66 62l84 -16q-18 -121 -150 -121q-133 0 -151 121z" />
    <glyph glyph-name="uni040F" unicode="&#x40f;" horiz-adv-x="741" 
d="M545 104v596h109v-700h-231v-161h-105v161h-231v700h109v-596h349z" />
    <glyph glyph-name="uni0410" unicode="&#x410;" horiz-adv-x="715" 
d="M294 700h130l271 -700h-112l-53 137h-344l-53 -137h-113zM222 235h272l-135 352z" />
    <glyph glyph-name="uni0411" unicode="&#x411;" horiz-adv-x="635" 
d="M87 700h459v-102h-350v-158h156q110 0 176 -60t66 -160t-66 -160t-176 -60h-265v700zM196 102h149q65 0 102.5 31.5t37.5 86.5t-38 87t-102 32h-149v-237z" />
    <glyph glyph-name="uni0412" unicode="&#x412;" horiz-adv-x="652" 
d="M87 0v700h286q92 0 149.5 -53t57.5 -138q0 -93 -71 -147q44 -24 69 -68.5t25 -98.5q0 -86 -60.5 -140.5t-155.5 -54.5h-300zM195 308v-208h183q54 0 85 28t31 76t-31 76t-85 28h-183zM195 600v-196h173q48 0 76 27t28 71t-28.5 71t-76.5 27h-172z" />
    <glyph glyph-name="uni0413" unicode="&#x413;" horiz-adv-x="532" 
d="M87 700h422v-104h-313v-596h-109v700z" />
    <glyph glyph-name="uni0414" unicode="&#x414;" horiz-adv-x="791" 
d="M661 700v-596h102v-265h-104v161h-533v-161h-104v265h83q31 25 47.5 68.5t22.5 128.5l29 399h457zM552 598h-247l-21 -306q-8 -123 -51 -191h319v497z" />
    <glyph glyph-name="uni0415" unicode="&#x415;" horiz-adv-x="593" 
d="M87 0v700h441v-101h-332v-195h306v-98h-306v-204h345v-102h-454z" />
    <glyph glyph-name="uni0416" unicode="&#x416;" horiz-adv-x="978" 
d="M11 0l261 356l-251 344h133l214 -296h68v296h106v-296h68l214 296h133l-251 -344l261 -356h-134l-220 303h-71v-303h-106v303h-71l-220 -303h-134z" />
    <glyph glyph-name="uni0417" unicode="&#x417;" horiz-adv-x="615" 
d="M110 169q88 -73 198 -73q73 0 110.5 27.5t37.5 79.5q0 48 -33.5 75.5t-92.5 27.5h-144v101h137q51 0 81 27.5t30 73.5q0 45 -34.5 70.5t-95.5 25.5q-100 0 -187 -73l-61 79q104 98 248 98q110 0 174 -51.5t64 -139.5q0 -98 -76 -154q47 -26 73.5 -71t26.5 -100
q0 -91 -68.5 -145.5t-187.5 -54.5q-151 0 -262 98z" />
    <glyph glyph-name="uni0418" unicode="&#x418;" horiz-adv-x="757" 
d="M196 700v-516l375 516h99v-700h-109v516l-375 -516h-99v700h109z" />
    <glyph glyph-name="uni0419" unicode="&#x419;" horiz-adv-x="757" 
d="M196 700v-516l375 516h99v-700h-109v516l-375 -516h-99v700h109zM232 888l84 16q9 -62 67 -62q57 0 66 62l84 -16q-18 -121 -150 -121q-133 0 -151 121z" />
    <glyph glyph-name="uni041A" unicode="&#x41a;" horiz-adv-x="642" 
d="M87 0v700h109v-296h65l224 296h136l-263 -344l273 -356h-137l-230 303h-68v-303h-109z" />
    <glyph glyph-name="uni041B" unicode="&#x41b;" horiz-adv-x="757" 
d="M162 284l30 416h478v-700h-108v596h-268l-23 -319q-10 -133 -65 -198t-168 -84l-27 94q88 24 116 60.5t35 134.5z" />
    <glyph glyph-name="uni041C" unicode="&#x41c;" horiz-adv-x="876" 
d="M184 700l254 -345l254 345h97v-700h-109v514l-213 -287h-58l-213 287v-514h-109v700h97z" />
    <glyph glyph-name="uni041D" unicode="&#x41d;" horiz-adv-x="741" 
d="M87 700h109v-291h349v291h109v-700h-109v305h-349v-305h-109v700z" />
    <glyph glyph-name="uni041E" unicode="&#x41e;" horiz-adv-x="818" 
d="M49 350q0 158 101.5 260t258.5 102t259 -102.5t102 -259.5t-102 -259q-102 -103 -259 -103t-258.5 102t-101.5 260zM159 350q0 -112 71 -184q70 -73 179 -73t179.5 72.5t70.5 184.5t-70.5 184.5t-179.5 72.5t-179.5 -72.5t-70.5 -184.5z" />
    <glyph glyph-name="uni041F" unicode="&#x41f;" horiz-adv-x="741" 
d="M654 700v-700h-109v596h-349v-596h-109v700h567z" />
    <glyph glyph-name="uni0420" unicode="&#x420;" horiz-adv-x="608" 
d="M87 700h254q110 0 177.5 -65t67.5 -172t-67.5 -172.5t-177.5 -65.5h-145v-225h-109v700zM333 327q67 0 105.5 37t38.5 99t-38.5 98.5t-105.5 36.5h-138v-271h138z" />
    <glyph glyph-name="uni0421" unicode="&#x421;" horiz-adv-x="729" 
d="M146 610q96 102 248 102q177 0 293 -149l-78 -68q-38 54 -94.5 83t-120.5 29q-104 0 -169.5 -72.5t-65.5 -184.5q0 -113 65.5 -185t173.5 -72q70 0 129.5 30.5t99.5 86.5l78 -66q-116 -156 -307 -156q-155 0 -252 102.5t-97 259.5t97 260z" />
    <glyph glyph-name="uni0422" unicode="&#x422;" horiz-adv-x="596" 
d="M26 596v104h543v-104h-217v-596h-109v596h-217z" />
    <glyph glyph-name="uni0423" unicode="&#x423;" horiz-adv-x="666" 
d="M20 700h123l85 -171l118 -233l186 404h119l-276 -588q-31 -65 -74 -94.5t-108 -29.5q-60 0 -106 20l31 98q34 -13 66 -13q65 0 98 69l5 11z" />
    <glyph glyph-name="uni0424" unicode="&#x424;" horiz-adv-x="833" 
d="M785 350q0 -133 -87 -215.5t-227 -90.5v-105h-109v105q-140 8 -226.5 90.5t-86.5 215.5t86.5 215.5t226.5 90.5v103h109v-103q140 -8 227 -90.5t87 -215.5zM470 551v-402q92 7 148 60t56 141t-56 141t-148 60zM159 350q0 -87 56.5 -140.5t147.5 -60.5v402
q-91 -7 -147.5 -60.5t-56.5 -140.5z" />
    <glyph glyph-name="uni0425" unicode="&#x425;" horiz-adv-x="652" 
d="M260 364l-227 336h130l87 -127l79 -121l78 121l85 127h129l-225 -339l244 -361h-130l-183 272l-101 -151l-83 -121h-131z" />
    <glyph glyph-name="uni0426" unicode="&#x426;" horiz-adv-x="785" 
d="M654 700v-596h103v-265h-104v161h-566v700h109v-596h349v596h109z" />
    <glyph glyph-name="uni0427" unicode="&#x427;" horiz-adv-x="679" 
d="M52 700h109v-204q0 -173 155 -173q90 0 167 36v341h109v-700h-109v252q-83 -34 -169 -34q-124 0 -193 70.5t-69 196.5v215z" />
    <glyph glyph-name="uni0428" unicode="&#x428;" horiz-adv-x="1160" 
d="M964 104v596h109v-700h-986v700h109v-596h329v596h109v-596h330z" />
    <glyph glyph-name="uni0429" unicode="&#x429;" horiz-adv-x="1204" 
d="M1073 700v-596h103v-265h-105v161h-984v700h109v-596h329v596h109v-596h330v596h109z" />
    <glyph glyph-name="uni042A" unicode="&#x42a;" horiz-adv-x="772" 
d="M334 700v-245h165q109 0 175.5 -62.5t66.5 -165.5t-66.5 -165t-175.5 -62h-274v596h-201v104h310zM333 353v-251h158q69 0 105 33t36 92t-36 92.5t-105 33.5h-158z" />
    <glyph glyph-name="uni042B" unicode="&#x42b;" horiz-adv-x="916" 
d="M87 700h109v-245h165q109 0 175.5 -62.5t66.5 -165.5t-66.5 -165t-175.5 -62h-274v700zM721 700h109v-700h-109v700zM195 353v-251h158q69 0 105 33t36 92t-36 92.5t-105 33.5h-158z" />
    <glyph glyph-name="uni042C" unicode="&#x42c;" horiz-adv-x="634" 
d="M196 700v-245h165q109 0 175.5 -62.5t66.5 -165.5t-66.5 -165t-175.5 -62h-274v700h109zM195 353v-251h158q69 0 105 33t36 92t-36 92.5t-105 33.5h-158z" />
    <glyph glyph-name="uni042D" unicode="&#x42d;" horiz-adv-x="728" 
d="M103 200q88 -107 225 -107q96 0 161 57t79 153h-380v102h378q-16 91 -80 146.5t-154 55.5q-129 0 -211 -102l-76 72q116 135 290 135q151 0 247.5 -102t96.5 -260q0 -159 -98 -260.5t-253 -101.5q-177 0 -301 141z" />
    <glyph glyph-name="uni042E" unicode="&#x42e;" horiz-adv-x="1070" 
d="M87 700h109v-291h120q19 135 115.5 219t234.5 84q154 0 254.5 -102.5t100.5 -259.5t-100.5 -259.5t-254.5 -102.5q-142 0 -239.5 88.5t-112.5 228.5h-118v-305h-109v700zM421 350q0 -112 69 -184.5t175 -72.5q107 0 176 72.5t69 184.5t-69 184.5t-176 72.5
q-106 0 -175 -72.5t-69 -184.5z" />
    <glyph glyph-name="uni042F" unicode="&#x42f;" horiz-adv-x="663" 
d="M38 0l165 266q-67 24 -106.5 80t-39.5 129q0 97 68.5 161t172.5 64h278v-700h-109v249h-150l-153 -249h-126zM166 473q0 -59 36 -92t100 -33h167v250h-167q-64 0 -100 -33.5t-36 -91.5z" />
    <glyph glyph-name="uni0430" unicode="&#x430;" horiz-adv-x="574" 
d="M98 276q56 46 150 46q77 0 152 -27v27q0 52 -31 75.5t-98 23.5q-71 0 -160 -39l-30 87q104 48 198 48q108 0 166 -50t58 -144v-323h-100l-1 67q-66 -74 -179 -74q-82 0 -132 44t-50 115q0 77 57 124zM146 157q0 -35 25 -54t72 -19q66 0 109.5 35t48.5 90q-79 25 -140 25
q-55 0 -85 -20t-30 -57z" />
    <glyph glyph-name="uni0431" unicode="&#x431;" horiz-adv-x="626" 
d="M332 515q111 0 180.5 -73.5t69.5 -189.5q0 -115 -75.5 -189.5t-192.5 -74.5q-124 0 -195.5 83.5t-71.5 240.5q0 146 32 235.5t95 135t168 63.5q141 24 192 49l34 -90q-33 -19 -71.5 -29.5t-133.5 -26.5q-108 -18 -154 -65.5t-54 -142.5q66 74 177 74zM314 86
q72 0 117.5 46.5t45.5 119.5t-45.5 119.5t-117.5 46.5q-71 0 -116.5 -46.5t-45.5 -119.5t45.5 -119.5t116.5 -46.5z" />
    <glyph glyph-name="uni0432" unicode="&#x432;" horiz-adv-x="555" 
d="M435 265q35 -16 55.5 -48.5t20.5 -72.5q0 -64 -49.5 -104t-129.5 -40h-253v510h243q79 0 126 -36.5t47 -96.5q0 -71 -60 -112zM392 363q0 30 -18.5 46.5t-53.5 16.5h-137v-125h137q72 0 72 62zM183 85h147q78 0 78 67q0 68 -78 68h-147v-135z" />
    <glyph glyph-name="uni0433" unicode="&#x433;" horiz-adv-x="441" 
d="M79 510h342v-97h-237v-413h-105v510z" />
    <glyph glyph-name="uni0434" unicode="&#x434;" horiz-adv-x="666" 
d="M551 510v-413h89v-244h-99v147h-421v-147h-100v244h64q45 45 54 158l21 255h392zM447 413h-191l-13 -167q-7 -98 -40 -151h244v318z" />
    <glyph glyph-name="uni0435" unicode="&#x435;" horiz-adv-x="600" 
d="M118 447q73 75 186 75q128 0 193 -83t65 -176q0 -29 -5 -60h-406q13 -53 57 -86.5t105 -33.5q91 0 160 67l62 -68q-81 -94 -224 -94q-119 0 -192.5 74.5t-73.5 192.5q0 117 73 192zM149 293h311q-10 59 -52 96t-104 37q-60 0 -102 -36.5t-53 -96.5z" />
    <glyph glyph-name="uni0436" unicode="&#x436;" horiz-adv-x="804" 
d="M10 0l189 261l-179 249h126l142 -199h61v199h105v-199h62l142 199h125l-179 -248l190 -262h-129l-153 215h-58v-215h-105v215h-57l-153 -215h-129z" />
    <glyph glyph-name="uni0437" unicode="&#x437;" horiz-adv-x="498" 
d="M379 268q76 -37 76 -122q0 -70 -57.5 -112t-154.5 -42q-128 0 -215 78l56 77q71 -57 157 -57q51 0 79.5 17t28.5 48q0 27 -24 42.5t-66 15.5h-106v94h102q35 0 55.5 15t20.5 41q0 58 -93 58q-73 0 -145 -51l-54 76q95 72 206 72q94 0 142.5 -40.5t48.5 -102.5
q0 -65 -57 -107z" />
    <glyph glyph-name="uni0438" unicode="&#x438;" horiz-adv-x="638" 
d="M79 510h104v-349l279 349h97v-510h-104v351l-279 -351h-97v510z" />
    <glyph glyph-name="uni0439" unicode="&#x439;" horiz-adv-x="638" 
d="M183 510v-349l279 349h97v-510h-104v351l-279 -351h-97v510h104zM245 744q10 -81 74 -81q65 0 75 81l79 -16q-9 -71 -46 -105q-38 -34 -108 -34t-107 34t-46 105z" />
    <glyph glyph-name="uni043A" unicode="&#x43a;" horiz-adv-x="540" 
d="M79 0v510h105v-199h62l148 199h126l-188 -249l198 -261h-129l-160 215h-57v-215h-105z" />
    <glyph glyph-name="uni043B" unicode="&#x43b;" horiz-adv-x="624" 
d="M132 228l23 282h391v-510h-105v413h-189l-15 -195q-8 -105 -52 -154.5t-149 -70.5l-26 91q69 19 92.5 45.5t29.5 98.5z" />
    <glyph glyph-name="uni043C" unicode="&#x43c;" horiz-adv-x="724" 
d="M362 258l186 252h97v-510h-104v350l-152 -207h-53l-153 207v-350h-104v510h97z" />
    <glyph glyph-name="uni043D" unicode="&#x43d;" horiz-adv-x="626" 
d="M442 312v198h105v-510h-105v214h-258v-214h-105v510h105v-198h258z" />
    <glyph glyph-name="uni043E" unicode="&#x43e;" horiz-adv-x="630" 
d="M121 448q75 74 194 74t195 -74.5t76 -192.5t-76 -192q-76 -75 -195 -75t-194.5 74.5t-75.5 192.5t76 193zM150 255q0 -75 46.5 -122t118.5 -47q73 0 119.5 47t46.5 122t-46.5 122t-119.5 47q-72 0 -118.5 -47t-46.5 -122z" />
    <glyph glyph-name="uni043F" unicode="&#x43f;" horiz-adv-x="626" 
d="M547 510v-510h-105v413h-258v-413h-105v510h468z" />
    <glyph glyph-name="uni0440" unicode="&#x440;" horiz-adv-x="660" 
d="M79 510h103v-69q70 81 182 81q110 0 181 -75t71 -192t-71 -192t-181 -75t-180 78v-296h-105v740zM182 255q0 -74 46.5 -121.5t117.5 -47.5q73 0 119 47t46 122q0 74 -46 121.5t-119 47.5q-71 0 -117.5 -47.5t-46.5 -121.5z" />
    <glyph glyph-name="uni0441" unicode="&#x441;" horiz-adv-x="550" 
d="M119 447q74 75 188 75q133 0 209 -93l-64 -67q-60 62 -143 62q-70 0 -114.5 -47.5t-44.5 -121.5q0 -75 43.5 -122t116.5 -47q92 0 148 70l70 -64q-34 -50 -92.5 -77t-129.5 -27q-113 0 -187 75.5t-74 191.5t74 192z" />
    <glyph glyph-name="uni0442" unicode="&#x442;" horiz-adv-x="504" 
d="M23 510h457v-97h-175v-413h-105v413h-177v97z" />
    <glyph glyph-name="uni0443" unicode="&#x443;" horiz-adv-x="569" 
d="M133 510l164 -398l142 398h112l-222 -600q-53 -144 -185 -144q-46 0 -91 17l27 90q25 -9 58 -9q36 0 57 17t38 62l13 33l-228 534h115z" />
    <glyph glyph-name="uni0444" unicode="&#x444;" horiz-adv-x="718" 
d="M674 255q0 -112 -72 -185.5t-190 -80.5v-219h-105v219q-119 7 -190.5 80.5t-71.5 185.5t71.5 185.5t190.5 80.5v219h105v-219q118 -7 190 -80.5t72 -185.5zM150 255q0 -70 43 -115.5t116 -52.5v336q-72 -7 -115.5 -53t-43.5 -115zM410 423v-336q73 7 116 52.5t43 115.5
q0 69 -43 115t-116 53z" />
    <glyph glyph-name="uni0445" unicode="&#x445;" horiz-adv-x="524" 
d="M196 257l-176 253h124l69 -99l49 -73l118 172h123l-175 -253l185 -257h-126l-125 177l-126 -177h-125z" />
    <glyph glyph-name="uni0446" unicode="&#x446;" horiz-adv-x="662" 
d="M547 510v-413h89v-244h-99v147h-458v510h105v-413h258v413h105z" />
    <glyph glyph-name="uni0447" unicode="&#x447;" horiz-adv-x="567" 
d="M47 510h105v-139q0 -127 113 -127q58 0 118 27v239h105v-510h-105v168q-64 -22 -127 -22q-100 0 -154.5 56t-54.5 159v149z" />
    <glyph glyph-name="uni0448" unicode="&#x448;" horiz-adv-x="965" 
d="M782 97v413h105v-510h-808v510h105v-413h247v413h103v-413h248z" />
    <glyph glyph-name="uni0449" unicode="&#x449;" horiz-adv-x="1001" 
d="M887 510v-413h89v-244h-99v147h-798v510h105v-413h247v413h103v-413h248v413h105z" />
    <glyph glyph-name="uni044A" unicode="&#x44a;" horiz-adv-x="634" 
d="M284 355h122q97 0 149.5 -47t52.5 -130q0 -84 -52.5 -131t-149.5 -47h-227v413h-157v97h262v-155zM283 95h122q98 0 98 84q0 40 -25 61.5t-73 21.5h-122v-167z" />
    <glyph glyph-name="uni044B" unicode="&#x44b;" horiz-adv-x="797" 
d="M184 510v-155h123q96 0 149 -47t53 -130q0 -84 -53 -131t-149 -47h-228v510h105zM614 0v510h105v-510h-105zM183 262v-167h123q98 0 98 84q0 40 -25 61.5t-73 21.5h-123z" />
    <glyph glyph-name="uni044C" unicode="&#x44c;" horiz-adv-x="535" 
d="M184 510v-155h123q96 0 149 -47t53 -130q0 -84 -53 -131t-149 -47h-228v510h105zM183 262v-167h123q98 0 98 84q0 40 -25 61.5t-73 21.5h-123z" />
    <glyph glyph-name="uni044D" unicode="&#x44d;" horiz-adv-x="552" 
d="M93 150q56 -64 146 -64q62 0 104 33t54 90h-243v95h242q-14 55 -55.5 87.5t-100.5 32.5q-81 0 -141 -57l-62 73q76 82 206 82q116 0 190 -75t74 -192t-74.5 -192t-191.5 -75q-67 0 -124 25t-92 69z" />
    <glyph glyph-name="uni044E" unicode="&#x44e;" horiz-adv-x="872" 
d="M79 510h105v-202h111q17 97 88.5 155.5t175.5 58.5q119 0 194 -74.5t75 -192.5t-75 -192.5t-194 -74.5q-106 0 -178.5 61t-86.5 161h-110v-210h-105v510zM394 255q0 -75 46 -122t118 -47q73 0 119 47t46 122q0 74 -46 121.5t-119 47.5q-72 0 -118 -47.5t-46 -121.5z" />
    <glyph glyph-name="uni044F" unicode="&#x44f;" horiz-adv-x="557" 
d="M244 510h235v-510h-105v170h-117l-104 -170h-119l116 187q-100 41 -100 153q0 78 52 124t142 46zM376 419h-125q-46 0 -71 -21t-25 -59t25 -59.5t71 -21.5h125v161z" />
    <glyph glyph-name="uni0450" unicode="&#x450;" horiz-adv-x="600" 
d="M118 447q73 75 186 75q128 0 193 -83t65 -176q0 -29 -5 -60h-406q13 -53 57 -86.5t105 -33.5q91 0 160 67l62 -68q-81 -94 -224 -94q-119 0 -192.5 74.5t-73.5 192.5q0 117 73 192zM149 293h311q-10 59 -52 96t-104 37q-60 0 -102 -36.5t-53 -96.5zM293 740l64 -146h-94
l-96 146h126z" />
    <glyph glyph-name="uni0451" unicode="&#x451;" horiz-adv-x="600" 
d="M118 447q73 75 186 75q128 0 193 -83t65 -176q0 -29 -5 -60h-406q13 -53 57 -86.5t105 -33.5q91 0 160 67l62 -68q-81 -94 -224 -94q-119 0 -192.5 74.5t-73.5 192.5q0 117 73 192zM149 293h311q-10 59 -52 96t-104 37q-60 0 -102 -36.5t-53 -96.5zM334 646q0 29 18 47
t46 18t45.5 -18t17.5 -47t-17 -47q-18 -19 -46 -19t-46 18.5t-18 47.5zM149 646q0 29 18 47t46 18t45.5 -18t17.5 -47t-17 -47q-18 -19 -46 -19t-46 18.5t-18 47.5z" />
    <glyph glyph-name="uni0452" unicode="&#x452;" horiz-adv-x="634" 
d="M356 517q93 0 149.5 -58.5t56.5 -153.5v-380q0 -77 -41 -119.5t-116 -42.5q-46 0 -91 14l23 92q31 -9 56 -9q35 0 49.5 18.5t14.5 61.5v346q0 65 -31 99t-89 34q-67 0 -105.5 -40t-38.5 -108v-271h-105v579h-93v78h93v83h105v-83h152v-78h-152v-132q64 70 163 70z" />
    <glyph glyph-name="uni0453" unicode="&#x453;" horiz-adv-x="441" 
d="M257 740h126l-96 -146h-94zM79 510h342v-97h-237v-413h-105v510z" />
    <glyph glyph-name="uni0454" unicode="&#x454;" horiz-adv-x="552" 
d="M119 447q74 75 190 75q130 0 206 -82l-62 -73q-60 57 -141 57q-59 0 -100.5 -32.5t-55.5 -87.5h242v-95h-243q12 -57 54 -90t104 -33q90 0 146 64l68 -68q-35 -44 -92 -69t-124 -25q-117 0 -191.5 75t-74.5 192t74 192z" />
    <glyph glyph-name="uni0455" unicode="&#x455;" horiz-adv-x="484" 
d="M81 146q85 -56 168 -56q46 0 71.5 14t25.5 39q0 23 -25 39.5t-83 31.5q-95 25 -138 63t-43 98q0 66 49 104.5t136 38.5q116 0 200 -70l-50 -79q-28 23 -69.5 37.5t-81.5 14.5q-81 0 -81 -47q0 -23 23.5 -38t84.5 -30q183 -45 183 -160q0 -70 -55.5 -112t-147.5 -42
q-120 0 -213 70z" />
    <glyph glyph-name="uni0456" unicode="&#x456;" horiz-adv-x="262" 
d="M79 510h105v-510h-105v510zM76 711q21 21 55 21q33 0 54.5 -21.5t21.5 -55.5t-21.5 -56t-54.5 -22q-34 0 -55 21.5t-21 56.5q0 34 21 56z" />
    <glyph glyph-name="uni0457" unicode="&#x457;" horiz-adv-x="262" 
d="M79 510h105v-510h-105v510zM-20 646q0 29 17.5 47t45.5 18t45.5 -18t17.5 -47t-17 -47q-18 -19 -46 -19t-45.5 18.5t-17.5 47.5zM157 646q0 29 17.5 47t45.5 18t45 -18t17 -47t-17 -47q-17 -19 -45 -19t-45.5 18.5t-17.5 47.5z" />
    <glyph glyph-name="uni0458" unicode="&#x458;" horiz-adv-x="262" 
d="M-65 -223l23 94q32 -9 57 -9q34 0 49 18.5t15 61.5v568h105v-585q0 -77 -41.5 -119.5t-116.5 -42.5q-44 0 -91 14zM76 711q21 21 55 21q33 0 54.5 -21.5t21.5 -55.5t-21.5 -56t-54.5 -22q-34 0 -55 21.5t-21 56.5q0 34 21 56z" />
    <glyph glyph-name="uni0459" unicode="&#x459;" horiz-adv-x="885" 
d="M543 355h124q89 0 140.5 -47.5t51.5 -129.5q0 -83 -51.5 -130.5t-140.5 -47.5h-229v413h-186l-15 -195q-8 -105 -52 -154.5t-149 -70.5l-26 91q69 19 92.5 45.5t29.5 98.5l23 282h388v-155zM542 95h124q41 0 64.5 22t23.5 62q0 39 -23.5 61t-64.5 22h-124v-167z" />
    <glyph glyph-name="uni045A" unicode="&#x45a;" horiz-adv-x="886" 
d="M544 354h122q91 0 142.5 -47t51.5 -130t-51.5 -130t-142.5 -47h-227v215h-255v-215h-105v510h105v-198h255v198h105v-156zM543 95h124q41 0 64.5 22t23.5 61t-23.5 60.5t-64.5 21.5h-124v-165z" />
    <glyph glyph-name="uni045B" unicode="&#x45b;" horiz-adv-x="634" 
d="M356 517q92 0 149 -58t57 -152v-307h-105v288q0 64 -31 97.5t-89 33.5q-67 0 -105.5 -40t-38.5 -108v-271h-105v579h-93v78h93v83h105v-83h152v-78h-152v-133q64 71 163 71z" />
    <glyph glyph-name="uni045C" unicode="&#x45c;" horiz-adv-x="540" 
d="M184 510v-199h61l149 199h126l-188 -249l198 -261h-129l-160 215h-57v-215h-105v510h105zM295 740h126l-96 -146h-94z" />
    <glyph glyph-name="uni045D" unicode="&#x45d;" horiz-adv-x="638" 
d="M183 510v-349l279 349h97v-510h-104v351l-279 -351h-97v510h104zM307 740l64 -146h-94l-96 146h126z" />
    <glyph glyph-name="uni045E" unicode="&#x45e;" horiz-adv-x="569" 
d="M133 510l164 -398l142 398h112l-222 -600q-53 -144 -185 -144q-46 0 -91 17l27 90q25 -9 58 -9q36 0 57 17t38 62l13 33l-228 534h115zM215 744q10 -81 74 -81q65 0 75 81l79 -16q-9 -71 -46 -105q-38 -34 -108 -34t-107 34t-46 105z" />
    <glyph glyph-name="uni045F" unicode="&#x45f;" horiz-adv-x="626" 
d="M442 97v413h105v-510h-183v-147h-102v147h-183v510h105v-413h258z" />
    <glyph glyph-name="uni0490" unicode="&#x490;" horiz-adv-x="532" 
d="M402 700v155h107v-259h-313v-596h-109v700h315z" />
    <glyph glyph-name="uni0491" unicode="&#x491;" horiz-adv-x="441" 
d="M318 510v157h103v-254h-237v-413h-105v510h239z" />
    <glyph glyph-name="uni04D4" unicode="&#x4d4;" horiz-adv-x="949" 
d="M421 700h464v-100h-302v-191h276v-99h-276v-209h314v-101h-419v148h-258l-85 -148h-121zM274 244h204v353z" />
    <glyph glyph-name="uni04D5" unicode="&#x4d5;" horiz-adv-x="938" 
d="M97 276q56 46 149 46q71 0 150 -28v28q0 56 -31.5 79.5t-95.5 23.5q-77 0 -158 -43l-30 87q101 53 189 53q138 0 191 -87q71 87 189 87q124 0 187.5 -83.5t63.5 -177.5q0 -28 -5 -58h-397q13 -54 56 -87t101 -33q88 0 155 67l63 -68q-78 -94 -215 -94t-207 102
q-70 -102 -223 -102q-85 0 -136.5 45t-51.5 119q0 77 56 124zM241 83q66 0 110 35t47 90q-78 26 -139 26q-54 0 -83.5 -20.5t-29.5 -58.5q0 -72 95 -72zM497 293h301q-10 60 -50.5 96.5t-100.5 36.5q-58 0 -98.5 -36.5t-51.5 -96.5z" />
    <glyph glyph-name="Wgrave" unicode="&#x1e80;" horiz-adv-x="1067" 
d="M139 700l169 -566l170 540h112l172 -543l167 569h113l-213 -700h-131l-164 510l-72 -231l-90 -279h-131l-216 700h114zM520 898l64 -126h-93l-97 126h126z" />
    <glyph glyph-name="wgrave" unicode="&#x1e81;" horiz-adv-x="860" 
d="M134 510l121 -378l125 361h101l124 -363l68 209l54 171h110l-169 -510h-121l-116 344l-119 -344h-120l-169 510h111zM419 740l64 -146h-94l-96 146h126z" />
    <glyph glyph-name="Wacute" unicode="&#x1e82;" horiz-adv-x="1067" 
d="M139 700l169 -566l170 540h112l172 -543l167 569h113l-213 -700h-131l-164 510l-72 -231l-90 -279h-131l-216 700h114zM484 772l64 126h126l-97 -126h-93z" />
    <glyph glyph-name="wacute" unicode="&#x1e83;" horiz-adv-x="860" 
d="M134 510l121 -378l125 361h101l124 -363l68 209l54 171h110l-169 -510h-121l-116 344l-119 -344h-120l-169 510h111zM379 594l64 146h126l-96 -146h-94z" />
    <glyph glyph-name="Wdieresis" unicode="&#x1e84;" horiz-adv-x="1067" 
d="M139 700l169 -566l170 540h112l172 -543l167 569h113l-213 -700h-131l-164 510l-72 -231l-90 -279h-131l-216 700h114zM375 828q0 30 18 49t47 19q28 0 46 -19t18 -49q0 -29 -18 -48t-46 -19q-29 0 -47 19t-18 48zM564 828q0 30 18 49t47 19q28 0 46 -19t18 -49
q0 -29 -18 -48t-46 -19q-29 0 -47 19t-18 48z" />
    <glyph glyph-name="wdieresis" unicode="&#x1e85;" horiz-adv-x="860" 
d="M134 510l121 -378l125 361h101l124 -363l68 209l54 171h110l-169 -510h-121l-116 344l-119 -344h-120l-169 510h111zM274 646q0 29 18 47t46 18t45.5 -18t17.5 -47t-17 -47q-18 -19 -46 -19t-46 18.5t-18 47.5zM477 693q18 18 46 18t45.5 -18t17.5 -47t-17 -47
q-18 -19 -46 -19t-46 18.5t-18 47.5t18 47z" />
    <glyph glyph-name="Germandbls" unicode="&#x1e9e;" horiz-adv-x="703" 
d="M79 0v425q0 128 63.5 201.5t193.5 73.5h266v-83l-151 -195q94 -10 148.5 -68.5t54.5 -148.5q0 -96 -63 -154.5t-170 -58.5q-104 0 -175 46l48 86q53 -32 116 -32q64 0 99 32t35 86q0 71 -48.5 95.5t-106.5 24.5q-22 0 -47 -3l-31 69l158 205h-138q-70 0 -107 -44.5
t-37 -126.5v-430h-108z" />
    <glyph glyph-name="Ygrave" unicode="&#x1ef2;" horiz-adv-x="664" 
d="M144 700l103 -175l86 -143l189 318h125l-260 -433v-267h-109v265l-261 435h127zM319 898l64 -126h-93l-97 126h126z" />
    <glyph glyph-name="ygrave" unicode="&#x1ef3;" horiz-adv-x="569" 
d="M133 510l164 -398l142 398h112l-222 -600q-53 -144 -185 -144q-46 0 -91 17l27 90q25 -9 58 -9q36 0 57 17t38 62l13 33l-228 534h115zM152 740h126l64 -146h-94z" />
    <glyph glyph-name="uni2009" unicode="&#x2009;" horiz-adv-x="199" 
 />
    <glyph glyph-name="uni200B" unicode="&#x200b;" 
 />
    <glyph glyph-name="endash" unicode="&#x2013;" horiz-adv-x="542" 
d="M497 315v-89h-452v89h452z" />
    <glyph glyph-name="emdash" unicode="&#x2014;" horiz-adv-x="676" 
d="M630 315v-89h-584v89h584z" />
    <glyph glyph-name="quoteleft" unicode="&#x2018;" horiz-adv-x="244" 
d="M127 635q26 -1 44.5 -19.5t18.5 -44.5q0 -27 -18.5 -45t-46.5 -18q-32 0 -50.5 24.5t-18.5 67.5q0 106 89 176l36 -35q-47 -50 -54 -106z" />
    <glyph glyph-name="quoteright" unicode="&#x2019;" horiz-adv-x="244" 
d="M119 772q32 0 50.5 -25t18.5 -68q0 -105 -90 -176l-35 35q46 50 53 106q-27 2 -44.5 20t-17.5 45t18.5 45t46.5 18z" />
    <glyph glyph-name="quotesinglbase" unicode="&#x201a;" horiz-adv-x="244" 
d="M119 126q32 0 50.5 -24.5t18.5 -67.5q0 -105 -90 -176l-35 35q46 50 53 106q-27 1 -44.5 19.5t-17.5 44.5q0 27 18.5 45t46.5 18z" />
    <glyph glyph-name="quotedblleft" unicode="&#x201c;" horiz-adv-x="417" 
d="M127 635q26 -1 44.5 -19.5t18.5 -44.5q0 -27 -18.5 -45t-46.5 -18q-32 0 -50.5 24.5t-18.5 67.5q0 106 89 176l36 -35q-47 -50 -54 -106zM300 635q26 -1 44.5 -19.5t18.5 -44.5q0 -27 -18.5 -45t-46.5 -18q-32 0 -50.5 24.5t-18.5 67.5q0 106 89 176l36 -35
q-47 -50 -54 -106z" />
    <glyph glyph-name="quotedblright" unicode="&#x201d;" horiz-adv-x="417" 
d="M119 772q32 0 50.5 -25t18.5 -68q0 -105 -90 -176l-35 35q46 50 53 106q-27 2 -44.5 20t-17.5 45t18.5 45t46.5 18zM292 772q32 0 50.5 -25t18.5 -68q0 -105 -90 -176l-35 35q46 50 53 106q-27 2 -44.5 20t-17.5 45t18.5 45t46.5 18z" />
    <glyph glyph-name="quotedblbase" unicode="&#x201e;" horiz-adv-x="417" 
d="M119 126q32 0 50.5 -24.5t18.5 -67.5q0 -105 -90 -176l-35 35q46 50 53 106q-27 1 -44.5 19.5t-17.5 44.5q0 27 18.5 45t46.5 18zM292 126q32 0 50.5 -24.5t18.5 -67.5q0 -105 -90 -176l-35 35q46 50 53 106q-27 1 -44.5 19.5t-17.5 44.5q0 27 18.5 45t46.5 18z" />
    <glyph glyph-name="dagger" unicode="&#x2020;" horiz-adv-x="539" 
d="M318 381h166v-90h-166v-521h-97v521h-166v90h166v240h97v-240z" />
    <glyph glyph-name="daggerdbl" unicode="&#x2021;" horiz-adv-x="539" 
d="M484 401v-90h-166v-200h166v-90h-166v-251h-97v251h-166v90h166v200h-166v90h166v220h97v-220h166z" />
    <glyph glyph-name="bullet" unicode="&#x2022;" horiz-adv-x="365" 
d="M182 170q-50 0 -84.5 32.5t-34.5 83.5t34.5 83.5t84.5 32.5t84.5 -32.5t34.5 -83.5t-34.5 -83.5t-84.5 -32.5z" />
    <glyph glyph-name="ellipsis" unicode="&#x2026;" horiz-adv-x="647" 
d="M123 -10q-29 0 -49 19t-20 49q0 29 20 48t49 19q30 0 50 -18.5t20 -48.5t-20 -49t-50 -19zM323 -10q-29 0 -49 19t-20 49q0 29 20 48t49 19q30 0 50 -18.5t20 -48.5t-20 -49t-50 -19zM523 -10q-29 0 -49 19t-20 49q0 29 20 48t49 19q30 0 50 -18.5t20 -48.5t-20 -49
t-50 -19z" />
    <glyph glyph-name="perthousand" unicode="&#x2030;" horiz-adv-x="1150" 
d="M666 673l-489 -689l-60 43l490 689zM186 390q-70 0 -115.5 44.5t-45.5 113.5t45.5 113.5t115.5 44.5t114.5 -44.5t44.5 -113.5t-44.5 -113.5t-114.5 -44.5zM186 464q37 0 59.5 23.5t22.5 60.5t-22.5 61t-59.5 24t-60.5 -24t-23.5 -61t23.5 -60.5t60.5 -23.5zM598 -6
q-70 0 -115 44.5t-45 113.5t45 113.5t115 44.5t115 -44.5t45 -113.5t-45 -113.5t-115 -44.5zM978 -6q-69 0 -113.5 43.5t-44.5 111.5t44.5 111.5t113.5 43.5t113 -43.5t44 -111.5t-44 -111.5t-113 -43.5zM598 67q37 0 60 24t23 61t-23 60.5t-60 23.5t-60 -23.5t-23 -60.5
t23 -61t60 -24zM978 62q38 0 61.5 24.5t23.5 62.5t-23.5 62.5t-61.5 24.5t-61.5 -24.5t-23.5 -62.5t23.5 -62.5t61.5 -24.5z" />
    <glyph glyph-name="minute" unicode="&#x2032;" horiz-adv-x="221" 
d="M122 450h-84l56 310h93z" />
    <glyph glyph-name="second" unicode="&#x2033;" horiz-adv-x="374" 
d="M120 450h-82l50 310h91zM271 450h-82l60 310h91z" />
    <glyph glyph-name="guilsinglleft" unicode="&#x2039;" horiz-adv-x="410" 
d="M273 544l71 -61l-167 -202l167 -205l-71 -61l-221 266z" />
    <glyph glyph-name="guilsinglright" unicode="&#x203a;" horiz-adv-x="410" 
d="M65 485l71 61l221 -266l-221 -263l-71 61l168 202z" />
    <glyph glyph-name="uni203D" unicode="&#x203d;" horiz-adv-x="503" 
d="M255 711q98 0 158 -51.5t60 -134.5q0 -55 -27 -98.5t-95 -99.5q-31 -26 -41 -48t-10 -66v-43h-103l-5 276v100h98v-100l-1 -57q1 1 7 5q40 26 57 54.5t17 68.5q0 48 -32.5 75t-91.5 27q-46 0 -89 -26t-71 -70l-71 55q83 133 240 133zM248 125q30 0 50 -19t20 -48
t-20 -48.5t-50 -19.5t-50 19.5t-20 48.5t20 48t50 19z" />
    <glyph glyph-name="fraction" unicode="&#x2044;" horiz-adv-x="213" 
d="M389 700l-494 -738l-71 47l494 739z" />
    <glyph glyph-name="uni2070" unicode="&#x2070;" horiz-adv-x="352" 
d="M176 466q-67 0 -106 47.5t-39 127.5t39 127.5t106 47.5t106 -47.5t39 -127.5t-39 -127.5t-106 -47.5zM176 538q66 0 66 103t-66 103t-66 -103t66 -103z" />
    <glyph glyph-name="uni2074" unicode="&#x2074;" horiz-adv-x="312" 
d="M250 605h40v-69h-40v-64h-74v64h-164v62l168 212h70v-205zM177 697l-73 -93h73v93z" />
    <glyph glyph-name="uni2075" unicode="&#x2075;" horiz-adv-x="285" 
d="M140 686q52 0 85.5 -29t33.5 -80t-34 -81t-88 -30q-68 0 -117 40l39 62q37 -28 72 -28q22 0 36 11.5t14 29.5q0 19 -15 30t-39 11q-31 0 -63 -9l-26 25l13 172h185v-72h-124l-4 -55q16 3 32 3z" />
    <glyph glyph-name="uni2076" unicode="&#x2076;" horiz-adv-x="311" 
d="M170 700q52 0 83 -33t31 -84q0 -52 -33.5 -84.5t-87.5 -32.5q-59 0 -95.5 43t-36.5 125q0 88 37 135t103 47q52 0 97 -30l-35 -53q-26 16 -55 16q-63 0 -72 -72q24 23 64 23zM162 531q20 0 34 14.5t14 37.5t-14 37t-34 14q-22 0 -35.5 -14t-13.5 -37q0 -24 13 -38t36 -14
z" />
    <glyph glyph-name="uni2077" unicode="&#x2077;" horiz-adv-x="266" 
d="M20 740v70h220v-51l-86 -287h-80l79 268h-133z" />
    <glyph glyph-name="uni2078" unicode="&#x2078;" horiz-adv-x="314" 
d="M241 651q45 -29 45 -81q0 -47 -35 -75.5t-94 -28.5q-58 0 -93 28.5t-35 75.5q0 52 45 81q-34 28 -34 71q0 41 32.5 67.5t84.5 26.5t85 -26.5t33 -67.5q0 -43 -34 -71zM157 752q-18 0 -29 -10t-11 -26q0 -17 10.5 -27t29.5 -10t30 10t11 27q0 16 -11 26t-30 10zM157 530
q23 0 37.5 12.5t14.5 32.5q0 19 -14.5 31.5t-37.5 12.5t-37 -12.5t-14 -31.5q0 -20 14 -32.5t37 -12.5z" />
    <glyph glyph-name="uni2079" unicode="&#x2079;" horiz-adv-x="311" 
d="M148 816q59 0 95.5 -43t36.5 -125q0 -88 -37 -135t-103 -47q-52 0 -97 30l35 53q26 -16 55 -16q63 0 72 72q-24 -23 -64 -23q-52 0 -83 33t-31 84q0 52 33.5 84.5t87.5 32.5zM149 648q22 0 35.5 14t13.5 37q0 24 -13 38t-36 14q-20 0 -34 -14.5t-14 -37.5t14 -37t34 -14z
" />
    <glyph glyph-name="uni2080" unicode="&#x2080;" horiz-adv-x="352" 
d="M176 -116q-67 0 -106 47.5t-39 127.5t39 127.5t106 47.5t106 -47.5t39 -127.5t-39 -127.5t-106 -47.5zM176 -44q66 0 66 103t-66 103t-66 -103t66 -103z" />
    <glyph glyph-name="uni2081" unicode="&#x2081;" horiz-adv-x="214" 
d="M111 228h68v-338h-76v243q-37 -19 -88 -19v63q62 0 96 51z" />
    <glyph glyph-name="uni2082" unicode="&#x2082;" horiz-adv-x="280" 
d="M258 -110h-234v51l102 122q38 46 38 66q0 34 -39 34q-40 0 -69 -35l-45 52q55 54 121 54q50 0 81 -28t31 -74q0 -28 -10 -48t-49 -70l-41 -52h114v-72z" />
    <glyph glyph-name="uni2083" unicode="&#x2083;" horiz-adv-x="281" 
d="M240 187l-68 -88q39 -8 62.5 -35.5t23.5 -66.5q0 -50 -33.5 -81.5t-87.5 -31.5q-71 0 -119 40l39 62q35 -28 72 -28q23 0 37 12t14 32q0 27 -21.5 38t-58.5 1l-20 33l57 83h-100v71h203v-41z" />
    <glyph glyph-name="uni2084" unicode="&#x2084;" horiz-adv-x="312" 
d="M250 23h40v-69h-40v-64h-74v64h-164v62l168 212h70v-205zM177 115l-73 -93h73v93z" />
    <glyph glyph-name="uni2085" unicode="&#x2085;" horiz-adv-x="285" 
d="M140 104q52 0 85.5 -29t33.5 -80t-34 -81t-88 -30q-68 0 -117 40l39 62q37 -28 72 -28q22 0 36 11.5t14 29.5q0 19 -15 30t-39 11q-31 0 -63 -9l-26 25l13 172h185v-72h-124l-4 -55q17 3 32 3z" />
    <glyph glyph-name="uni2086" unicode="&#x2086;" horiz-adv-x="311" 
d="M170 118q52 0 83 -33t31 -84q0 -52 -33.5 -84.5t-87.5 -32.5q-59 0 -95.5 43t-36.5 125q0 88 37 135t103 47q52 0 97 -30l-35 -53q-26 16 -55 16q-63 0 -72 -72q24 23 64 23zM162 -51q20 0 34 14.5t14 37.5t-14 37t-34 14q-22 0 -35.5 -14t-13.5 -37q0 -24 13 -38t36 -14
z" />
    <glyph glyph-name="uni2087" unicode="&#x2087;" horiz-adv-x="266" 
d="M20 158v70h220v-51l-86 -287h-80l79 268h-133z" />
    <glyph glyph-name="uni2088" unicode="&#x2088;" horiz-adv-x="314" 
d="M241 69q45 -29 45 -81q0 -47 -35 -75.5t-94 -28.5q-58 0 -93 28.5t-35 75.5q0 52 45 81q-34 28 -34 71q0 41 32.5 67.5t84.5 26.5t85 -26.5t33 -67.5q0 -43 -34 -71zM157 170q-18 0 -29 -10t-11 -26q0 -17 10.5 -27t29.5 -10t30 10t11 27q0 16 -11 26t-30 10zM157 -52
q23 0 37.5 12.5t14.5 32.5q0 19 -14.5 31.5t-37.5 12.5t-37 -12.5t-14 -31.5q0 -20 14 -32.5t37 -12.5z" />
    <glyph glyph-name="uni2089" unicode="&#x2089;" horiz-adv-x="311" 
d="M148 234q59 0 95.5 -43t36.5 -125q0 -88 -37 -135t-103 -47q-51 0 -97 30l35 53q26 -16 55 -16q63 0 72 72q-24 -23 -64 -23q-52 0 -83 33t-31 84q0 52 33.5 84.5t87.5 32.5zM150 66q22 0 35 14t13 37q0 24 -13 38t-35 14q-21 0 -35 -14.5t-14 -37.5t14 -37t35 -14z" />
    <glyph glyph-name="Euro" unicode="&#x20ac;" horiz-adv-x="794" 
d="M692 205l78 -62q-122 -155 -299 -155q-129 0 -217.5 67t-118.5 182h-112v82h99q-1 10 -1 31q0 22 1 32h-99v81h112q31 115 119 182t216 67q170 0 290 -149l-75 -62q-43 52 -101 80.5t-117 28.5q-77 0 -133.5 -39.5t-82.5 -107.5h255v-81h-273q-1 -10 -1 -32q0 -21 1 -31
h273v-82h-255q26 -70 83 -109t137 -39q130 0 221 116z" />
    <glyph glyph-name="uni20B4" unicode="&#x20b4;" horiz-adv-x="590" 
d="M498 463h53v-82h-513v82h354q15 22 15 56q0 93 -107 93q-75 0 -148 -65l-60 75q93 87 217 87q92 0 149 -51.5t57 -124.5q0 -42 -17 -70zM93 237h-55v82h513v-82h-350q-15 -23 -15 -56q0 -42 31 -66.5t82 -24.5q91 0 181 73l49 -82q-103 -88 -230 -88q-102 0 -161.5 45
t-59.5 124q0 40 15 75z" />
    <glyph glyph-name="uni20BA" unicode="&#x20ba;" horiz-adv-x="686" 
d="M556 250l94 -28q-23 -111 -86.5 -166.5t-187.5 -55.5h-209v229l-112 -42l-28 77l143 54v66l-116 -44l-28 77l141 53v230h109v-188l177 67l27 -77l-207 -79v-66l181 68l27 -77l-205 -77v-167h100q87 0 124 34.5t56 111.5z" />
    <glyph glyph-name="uni20BD" unicode="&#x20bd;" horiz-adv-x="637" 
d="M355 261h-106v-57h151v-86h-151v-118h-109v118h-114v86h114v57h-111v90h111v349h232q107 0 175 -62t68 -161t-70.5 -157.5t-189.5 -58.5zM362 598h-115v-247h115q67 0 105.5 32.5t38.5 89.5t-39 91t-105 34z" />
    <glyph glyph-name="uni2103" unicode="&#x2103;" horiz-adv-x="1088" 
d="M504 610q96 102 249 102q177 0 293 -149l-78 -68q-38 54 -94.5 83t-120.5 29q-105 0 -170 -72.5t-65 -184.5q0 -113 65.5 -185t173.5 -72q69 0 128.5 30.5t100.5 86.5l77 -66q-115 -156 -306 -156q-155 0 -252.5 102.5t-97.5 259.5t97 260zM36 572q0 64 43.5 106.5
t108.5 42.5t108.5 -42.5t43.5 -106.5t-43 -106q-44 -43 -109 -43t-108.5 42.5t-43.5 106.5zM106 572q0 -35 23 -57q23 -23 59 -23t58.5 22.5t22.5 57.5t-22.5 57.5t-58.5 22.5t-59 -22.5t-23 -57.5z" />
    <glyph glyph-name="uni2109" unicode="&#x2109;" horiz-adv-x="905" 
d="M448 700h424v-104h-315v-205h292v-103h-292v-288h-109v700zM36 572q0 64 44 107q43 42 108 42t108.5 -42.5t43.5 -106.5t-43.5 -106.5t-108.5 -42.5t-108.5 42.5t-43.5 106.5zM106 572q0 -35 23 -57q23 -23 59 -23t58.5 22.5t22.5 57.5t-22.5 57.5t-58.5 22.5t-59 -22.5
t-23 -57.5z" />
    <glyph glyph-name="uni2113" unicode="&#x2113;" horiz-adv-x="471" 
d="M308 85q40 0 86 20l26 -86q-55 -29 -125 -29q-82 0 -128.5 48.5t-46.5 138.5v40l-63 -25l-32 85l95 38v243q0 88 43 137.5t118 49.5q67 0 113 -50t46 -146q0 -202 -220 -292v-72q0 -52 21.5 -76t66.5 -24zM279 650q-27 0 -43 -22.5t-16 -68.5v-203q119 56 119 189
q0 105 -60 105z" />
    <glyph glyph-name="uni2116" unicode="&#x2116;" horiz-adv-x="1102" 
d="M87 700h97l378 -512v512h108v-700h-98l-377 512v-512h-108v700zM743 541q0 70 49 118t121 48q73 0 121.5 -47.5t48.5 -118.5t-48.5 -118.5t-121.5 -47.5q-72 0 -121 48.5t-49 117.5zM763 250v80h300v-80h-300zM853 481q24 -22 60 -22t60 22t24 60t-24 60t-60 22t-60 -22
t-24 -60t24 -60z" />
    <glyph glyph-name="uni2117" unicode="&#x2117;" horiz-adv-x="812" 
d="M406 711q155 0 256.5 -102.5t101.5 -258.5t-101.5 -258.5t-256.5 -102.5t-256 102.5t-101 258.5t101 258.5t256 102.5zM406 71q118 0 195 79.5t77 199.5t-77 199.5t-195 79.5t-195 -79.5t-77 -199.5t77 -199.5t195 -79.5zM294 538h138q64 0 101.5 -37t37.5 -94
q0 -56 -37.5 -93t-101.5 -37h-66v-124h-72v385zM365 343h62q32 0 50 17.5t18 46.5t-18 47t-50 18h-62v-129z" />
    <glyph glyph-name="trademark" unicode="&#x2122;" horiz-adv-x="580" 
d="M102 643h-76v57h215v-57h-76v-206h-63v206zM408 581l82 119h55v-263h-62v152l-58 -88h-36l-56 84v-148h-63v263h56z" />
    <glyph glyph-name="uni2126" unicode="&#x2126;" horiz-adv-x="852" 
d="M683 95h122v-95h-318v87q189 72 189 257q0 117 -70 191t-180 74t-180.5 -74t-70.5 -191q0 -185 189 -257v-87h-318v95h122q-48 43 -75.5 110t-27.5 145q0 157 102.5 259.5t258.5 102.5t258 -102.5t102 -259.5q0 -78 -27.5 -145t-75.5 -110z" />
    <glyph glyph-name="estimated" unicode="&#x212e;" horiz-adv-x="794" 
d="M746 327h-562v-202q80 -91 220 -91q80 0 152.5 41t122.5 123l38 -26q-120 -184 -313 -184q-160 0 -257.5 103.5t-97.5 259.5q0 153 98.5 257t256.5 104q157 0 253 -106.5t89 -278.5zM404 666q-136 0 -220 -99v-198h432v210q-81 87 -212 87z" />
    <glyph glyph-name="uni2150" unicode="&#x2150;" horiz-adv-x="693" 
d="M38 9l494 739l71 -48l-494 -738zM179 362h-76v243q-37 -19 -88 -19v63q62 0 96 51h68v-338zM447 268v70h220v-51l-86 -287h-80l79 268h-133z" />
    <glyph glyph-name="uni2151" unicode="&#x2151;" horiz-adv-x="738" 
d="M38 9l494 739l71 -48l-494 -738zM179 362h-76v243q-37 -19 -88 -19v63q62 0 96 51h68v-338zM575 344q59 0 95.5 -43t36.5 -125q0 -88 -37 -135t-103 -47q-51 0 -97 30l35 53q26 -16 55 -16q63 0 72 72q-24 -23 -64 -23q-52 0 -83 33t-31 84q0 52 33.5 84.5t87.5 32.5z
M577 176q22 0 35 14t13 37q0 24 -13 38t-35 14q-21 0 -35 -14.5t-14 -37.5t14 -37t35 -14z" />
    <glyph glyph-name="onethird" unicode="&#x2153;" horiz-adv-x="708" 
d="M38 9l494 739l71 -48l-494 -738zM179 362h-76v243q-37 -19 -88 -19v63q62 0 96 51h68v-338zM667 297l-68 -88q39 -8 62.5 -35.5t23.5 -66.5q0 -50 -33.5 -81.5t-87.5 -31.5q-71 0 -119 40l39 62q35 -28 72 -28q23 0 37 12t14 32q0 27 -21.5 38t-58.5 1l-20 33l57 83h-100
v71h203v-41z" />
    <glyph glyph-name="twothirds" unicode="&#x2154;" horiz-adv-x="774" 
d="M104 9l494 739l71 -48l-494 -738zM24 362v51l102 122q38 46 38 66q0 34 -39 34q-40 0 -69 -35l-45 52q55 54 121 54q50 0 81 -28t31 -74q0 -28 -10 -48t-49 -70l-41 -52h114v-72h-234zM733 297l-68 -88q39 -8 62.5 -35.5t23.5 -66.5q0 -50 -33.5 -81.5t-87.5 -31.5
q-71 0 -119 40l39 62q35 -28 72 -28q23 0 37 12t14 32q0 27 -21.5 38t-58.5 1l-20 33l57 83h-100v71h203v-41z" />
    <glyph glyph-name="uni2155" unicode="&#x2155;" horiz-adv-x="712" 
d="M38 9l494 739l71 -48l-494 -738zM179 362h-76v243q-37 -19 -88 -19v63q62 0 96 51h68v-338zM567 214q52 0 85.5 -29t33.5 -80t-34 -81t-88 -30q-68 0 -117 40l39 62q37 -28 72 -28q22 0 36 11.5t14 29.5q0 19 -15 30t-39 11q-32 0 -63 -9l-26 25l13 172h185v-72h-124
l-4 -55q17 3 32 3z" />
    <glyph glyph-name="uni2156" unicode="&#x2156;" horiz-adv-x="778" 
d="M104 9l494 739l71 -48l-494 -738zM24 362v51l102 122q38 46 38 66q0 34 -39 34q-40 0 -69 -35l-45 52q55 54 121 54q50 0 81 -28t31 -74q0 -28 -10 -48t-49 -70l-41 -52h114v-72h-234zM633 214q52 0 85.5 -29t33.5 -80t-34 -81t-88 -30q-68 0 -117 40l39 62
q37 -28 72 -28q22 0 36 11.5t14 29.5q0 19 -15 30t-39 11q-32 0 -63 -9l-26 25l13 172h185v-72h-124l-4 -55q17 3 32 3z" />
    <glyph glyph-name="uni2157" unicode="&#x2157;" horiz-adv-x="779" 
d="M105 9l494 739l71 -48l-494 -738zM129 430q23 0 37 12t14 32q0 27 -21.5 38t-58.5 1l-20 33l57 83h-100v71h203v-41l-68 -88q39 -8 62.5 -35.5t23.5 -66.5q0 -50 -33.5 -81.5t-87.5 -31.5q-71 0 -119 40l39 62q35 -28 72 -28zM634 214q52 0 85.5 -29t33.5 -80t-34 -81
t-88 -30q-68 0 -117 40l39 62q37 -28 72 -28q22 0 36 11.5t14 29.5q0 19 -15 30t-39 11q-31 0 -63 -9l-26 25l13 172h185v-72h-124l-4 -55q16 3 32 3z" />
    <glyph glyph-name="uni2158" unicode="&#x2158;" horiz-adv-x="810" 
d="M136 9l494 739l71 -48l-494 -738zM250 362h-74v64h-164v62l168 212h70v-205h40v-69h-40v-64zM104 494h73v93zM665 214q52 0 85.5 -29t33.5 -80t-34 -81t-88 -30q-68 0 -117 40l39 62q37 -28 72 -28q22 0 36 11.5t14 29.5q0 19 -15 30t-39 11q-32 0 -63 -9l-26 25l13 172
h185v-72h-124l-4 -55q17 3 32 3z" />
    <glyph glyph-name="uni2159" unicode="&#x2159;" horiz-adv-x="738" 
d="M38 9l494 739l71 -48l-494 -738zM179 362h-76v243q-37 -19 -88 -19v63q62 0 96 51h68v-338zM597 228q52 0 83 -33t31 -84q0 -52 -33.5 -84.5t-87.5 -32.5q-59 0 -95.5 43t-36.5 125q0 88 37 135t103 47q52 0 97 -30l-35 -53q-26 16 -55 16q-63 0 -72 -72q24 23 64 23z
M589 59q20 0 34 14.5t14 37.5t-14 37t-34 14q-22 0 -35.5 -14t-13.5 -37q0 -24 13 -38t36 -14z" />
    <glyph glyph-name="uni215A" unicode="&#x215a;" horiz-adv-x="809" 
d="M109 9l494 739l71 -48l-494 -738zM131 430q22 0 36 11.5t14 29.5q0 19 -15 30t-39 11q-31 0 -63 -9l-26 25l13 172h185v-72h-124l-4 -55q16 3 32 3q52 0 85.5 -29t33.5 -80t-34 -81t-88 -30q-68 0 -117 40l39 62q37 -28 72 -28zM668 228q52 0 83 -33t31 -84
q0 -52 -33.5 -84.5t-87.5 -32.5q-59 0 -95.5 43t-36.5 125q0 88 37 135t103 47q52 0 97 -30l-35 -53q-26 16 -55 16q-63 0 -72 -72q24 23 64 23zM660 59q20 0 34 14.5t14 37.5t-14 37t-34 14q-22 0 -35.5 -14t-13.5 -37q0 -24 13 -38t36 -14z" />
    <glyph glyph-name="oneeighth" unicode="&#x215b;" horiz-adv-x="741" 
d="M38 9l494 739l71 -48l-494 -738zM179 362h-76v243q-37 -19 -88 -19v63q62 0 96 51h68v-338zM668 179q45 -29 45 -81q0 -47 -35 -75.5t-94 -28.5q-58 0 -93 28.5t-35 75.5q0 52 45 81q-34 28 -34 71q0 41 32.5 67.5t84.5 26.5t85 -26.5t33 -67.5q0 -43 -34 -71zM584 280
q-18 0 -29 -10t-11 -26q0 -17 10.5 -27t29.5 -10t30 10t11 27q0 16 -11 26t-30 10zM584 58q23 0 37.5 12.5t14.5 32.5q0 19 -14.5 31.5t-37.5 12.5t-37 -12.5t-14 -31.5q0 -20 14 -32.5t37 -12.5z" />
    <glyph glyph-name="threeeighths" unicode="&#x215c;" horiz-adv-x="808" 
d="M105 9l494 739l71 -48l-494 -738zM129 430q23 0 37 12t14 32q0 27 -21.5 38t-58.5 1l-20 33l57 83h-100v71h203v-41l-68 -88q39 -8 62.5 -35.5t23.5 -66.5q0 -50 -33.5 -81.5t-87.5 -31.5q-71 0 -119 40l39 62q35 -28 72 -28zM735 179q45 -29 45 -81q0 -47 -35 -75.5
t-94 -28.5q-58 0 -93 28.5t-35 75.5q0 52 45 81q-34 28 -34 71q0 41 32.5 67.5t84.5 26.5t85 -26.5t33 -67.5q0 -43 -34 -71zM651 280q-18 0 -29 -10t-11 -26q0 -17 10.5 -27t29.5 -10t30 10t11 27q0 16 -11 26t-30 10zM651 58q23 0 37.5 12.5t14.5 32.5q0 19 -14.5 31.5
t-37.5 12.5t-37 -12.5t-14 -31.5q0 -20 14 -32.5t37 -12.5z" />
    <glyph glyph-name="fiveeighths" unicode="&#x215d;" horiz-adv-x="812" 
d="M109 9l494 739l71 -48l-494 -738zM131 430q22 0 36 11.5t14 29.5q0 19 -15 30t-39 11q-31 0 -63 -9l-26 25l13 172h185v-72h-124l-4 -55q16 3 32 3q52 0 85.5 -29t33.5 -80t-34 -81t-88 -30q-68 0 -117 40l39 62q37 -28 72 -28zM739 179q45 -29 45 -81q0 -47 -35 -75.5
t-94 -28.5q-58 0 -93 28.5t-35 75.5q0 52 45 81q-34 28 -34 71q0 41 32.5 67.5t84.5 26.5t85 -26.5t33 -67.5q0 -43 -34 -71zM655 280q-18 0 -29 -10t-11 -26q0 -17 10.5 -27t29.5 -10t30 10t11 27q0 16 -11 26t-30 10zM655 58q23 0 37.5 12.5t14.5 32.5q0 19 -14.5 31.5
t-37.5 12.5t-37 -12.5t-14 -31.5q0 -20 14 -32.5t37 -12.5z" />
    <glyph glyph-name="seveneighths" unicode="&#x215e;" horiz-adv-x="793" 
d="M90 9l494 739l71 -48l-494 -738zM240 649l-86 -287h-80l79 268h-133v70h220v-51zM720 179q45 -29 45 -81q0 -47 -35 -75.5t-94 -28.5q-58 0 -93 28.5t-35 75.5q0 52 45 81q-34 28 -34 71q0 41 32.5 67.5t84.5 26.5t85 -26.5t33 -67.5q0 -43 -34 -71zM636 280
q-18 0 -29 -10t-11 -26q0 -17 10.5 -27t29.5 -10t30 10t11 27q0 16 -11 26t-30 10zM636 58q23 0 37.5 12.5t14.5 32.5q0 19 -14.5 31.5t-37.5 12.5t-37 -12.5t-14 -31.5q0 -20 14 -32.5t37 -12.5z" />
    <glyph glyph-name="arrowleft" unicode="&#x2190;" horiz-adv-x="786" 
d="M235 375h510v-98h-510l182 -183l-72 -72l-303 304l303 304l72 -72z" />
    <glyph glyph-name="arrowup" unicode="&#x2191;" horiz-adv-x="690" 
d="M345 692l304 -303l-72 -72l-183 182v-510h-98v510l-183 -182l-72 72z" />
    <glyph glyph-name="arrowright" unicode="&#x2192;" horiz-adv-x="786" 
d="M369 558l72 72l303 -304l-303 -304l-72 72l182 183h-510v98h510z" />
    <glyph glyph-name="arrowdown" unicode="&#x2193;" horiz-adv-x="690" 
d="M394 152l183 182l72 -72l-304 -303l-304 303l72 72l183 -182v510h98v-510z" />
    <glyph glyph-name="arrowboth" unicode="&#x2194;" horiz-adv-x="1088" 
d="M671 558l72 72l303 -304l-303 -304l-72 72l183 183h-619l182 -183l-72 -72l-303 304l303 304l72 -72l-182 -183h619z" />
    <glyph glyph-name="arrowupdn" unicode="&#x2195;" horiz-adv-x="690" 
d="M394 590v-620l183 183l72 -72l-304 -304l-304 304l72 72l183 -183v620l-183 -183l-72 72l304 304l304 -304l-72 -72z" />
    <glyph glyph-name="uni2196" unicode="&#x2196;" horiz-adv-x="640" 
d="M226 479l362 -361l-69 -69l-361 361v-259h-102v430h430v-102h-260z" />
    <glyph glyph-name="uni2197" unicode="&#x2197;" horiz-adv-x="640" 
d="M155 479v102h429v-430h-101v259l-362 -361l-68 69l361 361h-259z" />
    <glyph glyph-name="uni2198" unicode="&#x2198;" horiz-adv-x="640" 
d="M483 261v259h101v-430h-429v102h259l-361 361l68 69z" />
    <glyph glyph-name="uni2199" unicode="&#x2199;" horiz-adv-x="640" 
d="M519 629l69 -69l-361 -361h259v-102h-430v430h102v-259z" />
    <glyph glyph-name="uni21A9" unicode="&#x21a9;" horiz-adv-x="1126" 
d="M695 848h50q158 0 258.5 -97t100.5 -249t-101 -250t-258 -98h-508l180 -181l-72 -72l-303 304l303 304l72 -72l-184 -185h512q115 0 185.5 68.5t70.5 181.5q0 111 -70.5 180t-185.5 69h-50v97z" />
    <glyph glyph-name="uni21AA" unicode="&#x21aa;" horiz-adv-x="1126" 
d="M709 437l72 72l304 -304l-304 -304l-72 72l181 181h-509q-157 0 -258 98t-101 250t100.5 249t258.5 97h50v-97h-50q-115 0 -185.5 -69t-70.5 -180q0 -112 70.5 -181t185.5 -69h513z" />
    <glyph glyph-name="uni21B0" unicode="&#x21b0;" horiz-adv-x="875" 
d="M417 788l-182 -183h553v-545h-101v447h-452l182 -183l-72 -72l-303 304l303 304z" />
    <glyph glyph-name="uni21B1" unicode="&#x21b1;" horiz-adv-x="875" 
d="M457 788l72 72l304 -304l-304 -304l-72 72l183 183h-452v-447h-101v545h553z" />
    <glyph glyph-name="uni21B3" unicode="&#x21b3;" horiz-adv-x="875" 
d="M457 498l72 72l304 -304l-304 -304l-72 72l183 183h-553v545h101v-447h452z" />
    <glyph glyph-name="uni21B4" unicode="&#x21b4;" horiz-adv-x="921" 
d="M625 211l183 183l72 -72l-304 -303l-303 303l72 72l183 -184v454h-447v101h544v-554z" />
    <glyph glyph-name="carriagereturn" unicode="&#x21b5;" horiz-adv-x="875" 
d="M687 315v447h101v-545h-553l182 -183l-72 -72l-303 304l303 304l72 -72l-182 -183h452z" />
    <glyph glyph-name="uni21BA" unicode="&#x21ba;" horiz-adv-x="890" 
d="M426 623h25q170 0 280 -108.5t110 -277.5t-110 -278t-280 -109q-171 0 -281 109t-110 278h95q0 -128 84.5 -213.5t211.5 -85.5q126 0 210.5 85.5t84.5 213.5t-84.5 213.5t-210.5 85.5h-34l133 -133l-66 -64l-237 236l237 236l66 -65z" />
    <glyph glyph-name="uni21BB" unicode="&#x21bb;" horiz-adv-x="890" 
d="M734 237h96q0 -169 -110 -278t-281 -109t-280.5 109t-109.5 278t109.5 277.5t280.5 108.5h24l-123 123l66 65l237 -236l-237 -236l-66 64l132 133h-33q-127 0 -211 -85.5t-84 -213.5t84 -213.5t211 -85.5t211 85.5t84 213.5z" />
    <glyph glyph-name="uni21E4" unicode="&#x21e4;" horiz-adv-x="1056" 
d="M184 11h-97v628h97v-628zM405 374h610v-98h-610l183 -183l-72 -72l-304 304l304 304l72 -72z" />
    <glyph glyph-name="uni21E5" unicode="&#x21e5;" horiz-adv-x="1056" 
d="M872 11v628h98v-628h-98zM651 374l-182 183l72 72l303 -304l-303 -304l-72 72l182 183h-610v98h610z" />
    <glyph glyph-name="uni21E7" unicode="&#x21e7;" horiz-adv-x="885" 
d="M625 -5h-365v310h-219l401 455l402 -455h-219v-310zM363 402v-310h159v310h102l-182 207l-181 -207h102z" />
    <glyph glyph-name="uni21EA" unicode="&#x21ea;" horiz-adv-x="885" 
d="M625 163h-365v142h-219l401 455l402 -455h-219v-142zM363 402v-156h159v156h102l-182 207l-181 -207h102zM625 -116h-365v226h365v-226zM363 27v-61h159v61h-159z" />
    <glyph glyph-name="partialdiff" unicode="&#x2202;" horiz-adv-x="645" 
d="M241 714l38 77q88 -32 152 -81.5t99.5 -108t51.5 -118t16 -123.5q0 -177 -88.5 -274.5t-224.5 -97.5q-108 0 -174 65t-66 170q0 121 81.5 205t202.5 84q103 0 157 -57q-14 82 -71 145t-174 114zM294 86q80 0 137 58.5t57 133.5q0 60 -38.5 98t-108.5 38
q-79 0 -134.5 -53.5t-55.5 -135.5q0 -63 39.5 -101t103.5 -38z" />
    <glyph glyph-name="emptyset" unicode="&#x2205;" horiz-adv-x="773" 
d="M700 620l-67 -80q86 -92 86 -224q0 -139 -95.5 -233.5t-236.5 -94.5q-99 0 -176 48l-68 -82l-68 57l67 80q-87 92 -87 225q0 139 95.5 233.5t236.5 94.5q98 0 179 -49l67 80zM387 552q-100 0 -166.5 -67t-66.5 -169q0 -90 53 -154l301 358q-53 32 -121 32zM387 80
q100 0 166.5 67t66.5 169q0 86 -50 151l-302 -356q54 -31 119 -31z" />
    <glyph glyph-name="uni2206" unicode="&#x2206;" horiz-adv-x="715" 
d="M294 700h130l271 -700h-675zM545 96l-186 492l-189 -492h375z" />
    <glyph glyph-name="product" unicode="&#x220f;" horiz-adv-x="712" 
d="M679 700v-95h-91v-715h-103v715h-259v-715h-103v715h-91v95h647z" />
    <glyph glyph-name="summation" unicode="&#x2211;" horiz-adv-x="528" 
d="M378 300l-212 -315h338v-95h-466v82l219 325l-216 321v82h446v-95h-314z" />
    <glyph glyph-name="minus" unicode="&#x2212;" horiz-adv-x="507" 
d="M457 258h-407v93h407v-93z" />
    <glyph glyph-name="uni2215" unicode="&#x2215;" horiz-adv-x="213" 
d="M389 700l-494 -738l-71 47l494 739z" />
    <glyph glyph-name="uni2219" unicode="&#x2219;" horiz-adv-x="308" 
d="M154 193q-42 0 -71.5 27t-29.5 70t29.5 70.5t71.5 27.5t71.5 -27.5t29.5 -70.5t-29.5 -70t-71.5 -27z" />
    <glyph glyph-name="radical" unicode="&#x221a;" horiz-adv-x="676" 
d="M425 255l201 645h100l-288 -900h-122l-158 432h-133v78h206l89 -255l55 -156z" />
    <glyph glyph-name="infinity" unicode="&#x221e;" horiz-adv-x="840" 
d="M627 482q80 0 132 -50.5t52 -129.5t-52 -129.5t-132 -50.5q-119 0 -197 103q-78 -103 -198 -103q-80 0 -132 50.5t-52 129.5t52 129.5t132 50.5q120 0 198 -103q78 103 197 103zM235 205q37 0 73.5 22.5t62.5 62.5l8 12l-8 12q-26 40 -62.5 62.5t-73.5 22.5
q-42 0 -69 -27.5t-27 -69.5t27 -69.5t69 -27.5zM624 205q42 0 69 27.5t27 69.5t-27 69.5t-69 27.5q-37 0 -73.5 -22.5t-61.5 -62.5l-8 -12l8 -12q25 -40 61.5 -62.5t73.5 -22.5z" />
    <glyph glyph-name="integral" unicode="&#x222b;" horiz-adv-x="382" 
d="M85 -235q-57 0 -115 25l34 84q37 -14 67 -14q65 0 65 80v634q0 79 42.5 125t114.5 46q56 0 114 -25l-34 -84q-36 14 -67 14t-48 -21t-17 -59v-634q0 -79 -42 -125t-114 -46z" />
    <glyph glyph-name="approxequal" unicode="&#x2248;" horiz-adv-x="602" 
d="M153 321l-100 12q7 70 46 108t104 38q48 0 109 -34q54 -32 82 -32q48 0 71 64l85 -36q-46 -119 -149 -119q-57 0 -120 39q-42 27 -71 27q-51 0 -57 -67zM153 134l-100 13q7 70 46 107.5t104 37.5q51 0 109 -34q54 -32 82 -32q48 0 71 65l85 -37q-46 -118 -149 -118
q-58 0 -120 38q-42 27 -71 27q-51 0 -57 -67z" />
    <glyph glyph-name="notequal" unicode="&#x2260;" horiz-adv-x="507" 
d="M457 438v-90h-138l-34 -89h172v-90h-207l-40 -104l-85 33l28 71h-103v90h138l34 89h-172v90h207l40 104l84 -32l-27 -72h103z" />
    <glyph glyph-name="lessequal" unicode="&#x2264;" horiz-adv-x="502" 
d="M459 330v-99l-423 158v61l423 148v-99l-168 -55l-82 -26zM35 62v89h426v-89h-426z" />
    <glyph glyph-name="greaterequal" unicode="&#x2265;" horiz-adv-x="502" 
d="M43 598l422 -148v-61l-422 -158v99l250 88l-83 26l-167 55v99zM40 62v89h426v-89h-426z" />
    <glyph glyph-name="uni2303" unicode="&#x2303;" horiz-adv-x="757" 
d="M379 411l-267 -267l-72 72l339 339l338 -339l-72 -72z" />
    <glyph glyph-name="uni2305" unicode="&#x2305;" horiz-adv-x="758" 
d="M696 548h-310l331 -332l-71 -72l-267 267l-267 -267l-72 72l332 332h-309v97h633v-97z" />
    <glyph glyph-name="uni2318" unicode="&#x2318;" horiz-adv-x="854" 
d="M216 -26q-72 0 -119 47t-47 119q0 69 47 115.5t119 46.5h61v98h-61q-72 0 -119 46.5t-47 115.5q0 72 47 119t119 47q69 0 115.5 -47t46.5 -119v-61h98v61q0 72 45.5 119t115.5 47q73 0 120 -47t47 -119q0 -69 -47.5 -115.5t-119.5 -46.5h-60v-98h60q72 0 119.5 -46.5
t47.5 -115.5q0 -72 -47 -119t-120 -47q-70 0 -115.5 47t-45.5 119v61h-98v-61q0 -72 -46.5 -119t-115.5 -47zM216 501h61v61q0 26 -17.5 43.5t-43.5 17.5t-43.5 -17.5t-17.5 -43.5t17.5 -43.5t43.5 -17.5zM577 562v-61h60q26 0 44 17.5t18 43.5t-18 43.5t-44 17.5t-43 -17.5
t-17 -43.5zM378 400v-98h98v98h-98zM216 79q26 0 43.5 17.5t17.5 43.5v61h-61q-26 0 -43.5 -17.5t-17.5 -43.5t17.5 -43.5t43.5 -17.5zM637 79q26 0 44 17.5t18 43.5t-18 43.5t-44 17.5h-60v-61q0 -26 17 -43.5t43 -17.5z" />
    <glyph glyph-name="uni2325" unicode="&#x2325;" horiz-adv-x="866" 
d="M826 0h-273l-303 609h-210v91h273l302 -609h211v-91zM826 609h-267v91h267v-91z" />
    <glyph glyph-name="uni2326" unicode="&#x2326;" horiz-adv-x="1122" 
d="M87 700h654l339 -350l-339 -350h-654v700zM178 88h515l255 262l-255 262h-515v-524zM610 524l61 -59l-114 -114l116 -116l-61 -59l-115 115l-115 -115l-62 59l116 116l-114 114l62 59l113 -113z" />
    <glyph glyph-name="uni2327" unicode="&#x2327;" horiz-adv-x="897" 
d="M87 0v700h723v-700h-723zM178 88h540v524h-540v-524zM441 288l-115 -115l-62 59l116 116l-114 114l62 59l113 -113l113 113l61 -59l-114 -114l116 -116l-62 -59z" />
    <glyph glyph-name="uni232B" unicode="&#x232b;" horiz-adv-x="1122" 
d="M42 350l339 350h654v-700h-654zM429 88h515v524h-515l-255 -262zM625 291l-115 -115l-61 59l116 116l-114 114l61 59l113 -113l113 113l62 -59l-114 -114l116 -116l-62 -59z" />
    <glyph glyph-name="uni2387" unicode="&#x2387;" horiz-adv-x="866" 
d="M313 0h-273v91h211l302 609h273v-91h-211zM826 0h-267v91h267v-91z" />
    <glyph glyph-name="uni238B" unicode="&#x238b;" horiz-adv-x="905" 
d="M438 532v91q175 0 291.5 -110t116.5 -275q0 -166 -111 -276.5t-277 -110.5q-168 0 -280 110.5t-112 276.5h91q0 -128 86.5 -213.5t214.5 -85.5q125 0 208 85.5t83 213.5q0 127 -88.5 210.5t-222.5 83.5zM424 204l-266 266v-160h-92v313h315v-92h-154l262 -262z" />
    <glyph glyph-name="uni23CE" unicode="&#x23ce;" horiz-adv-x="1117" 
d="M693 619v97h337v-497h-797l184 -185l-72 -72l-303 304l303 304l72 -72l-180 -181h692v302h-236z" />
    <glyph glyph-name="uni23CF" unicode="&#x23cf;" horiz-adv-x="886" 
d="M846 293h-806l403 457zM443 599l-183 -208h366zM815 -89h-744v277h744v-277zM174 106v-112h538v112h-538z" />
    <glyph glyph-name="uni2423" unicode="&#x2423;" horiz-adv-x="408" 
d="M392 -93h-376v155h80v-83h216v83h80v-155z" />
    <glyph glyph-name="uni2460" unicode="&#x2460;" horiz-adv-x="927" 
d="M464 744q179 0 292 -114.5t113 -284.5t-113 -284.5t-292 -114.5t-292 114.5t-113 284.5t113 284.5t292 114.5zM464 29q139 0 226.5 91t87.5 225t-87.5 225t-226.5 91q-140 0 -227.5 -91t-87.5 -225t87.5 -225t227.5 -91zM358 404v63q63 0 96 51h69v-338h-76v244
q-37 -20 -89 -20z" />
    <glyph glyph-name="uni2461" unicode="&#x2461;" horiz-adv-x="927" 
d="M464 -54q-179 0 -292 114.5t-113 284.5t113 284.5t292 114.5t292 -114.5t113 -284.5t-113 -284.5t-292 -114.5zM464 29q139 0 226.5 91t87.5 225t-87.5 225t-226.5 91q-140 0 -227.5 -91t-87.5 -225t87.5 -225t227.5 -91zM583 180h-234v51l102 122q24 30 31.5 42t7.5 24
q0 34 -40 34t-69 -35l-45 52q55 54 121 54q51 0 81.5 -28t30.5 -74q0 -28 -10 -48t-49 -70l-41 -52h114v-72z" />
    <glyph glyph-name="uni2462" unicode="&#x2462;" horiz-adv-x="927" 
d="M464 744q179 0 292 -114.5t113 -284.5t-113 -284.5t-292 -114.5t-292 114.5t-113 284.5t113 284.5t292 114.5zM464 29q139 0 226.5 91t87.5 225t-87.5 225t-226.5 91q-140 0 -227.5 -91t-87.5 -225t87.5 -225t227.5 -91zM565 477l-68 -88q39 -8 62.5 -35.5t23.5 -66.5
q0 -50 -33.5 -81.5t-87.5 -31.5q-71 0 -119 40l39 62q35 -28 72 -28q23 0 37 12t14 32q0 27 -21.5 38t-58.5 1l-20 33l57 83h-100v71h203v-41z" />
    <glyph glyph-name="uni2463" unicode="&#x2463;" horiz-adv-x="927" 
d="M464 744q179 0 292 -114.5t113 -284.5t-113 -284.5t-292 -114.5t-292 114.5t-113 284.5t113 284.5t292 114.5zM464 29q139 0 226.5 91t87.5 225t-87.5 225t-226.5 91q-140 0 -227.5 -91t-87.5 -225t87.5 -225t227.5 -91zM467 518h70v-205h39v-69h-39v-64h-74v64h-164v62z
M464 405l-73 -93h73v93z" />
    <glyph glyph-name="uni2464" unicode="&#x2464;" horiz-adv-x="927" 
d="M464 745q179 0 292 -114.5t113 -284.5t-113 -284.5t-292 -114.5t-292 114.5t-113 284.5t113 284.5t292 114.5zM464 30q139 0 226.5 91t87.5 225t-87.5 225t-226.5 91q-140 0 -227.5 -91t-87.5 -225t87.5 -225t227.5 -91zM457 394q52 0 85.5 -29t33.5 -80t-34 -81t-88 -30
q-68 0 -117 40l39 62q37 -28 72 -28q22 0 36 11.5t14 29.5q0 19 -15 30t-39 11q-32 0 -63 -9l-26 25l13 172h185v-72h-124l-4 -55q16 3 32 3z" />
    <glyph glyph-name="uni2465" unicode="&#x2465;" horiz-adv-x="927" 
d="M464 744q179 0 292 -114.5t113 -284.5t-113 -284.5t-292 -114.5t-292 114.5t-113 284.5t113 284.5t292 114.5zM464 29q139 0 226.5 91t87.5 225t-87.5 225t-226.5 91q-140 0 -227.5 -91t-87.5 -225t87.5 -225t227.5 -91zM472 408q52 0 83 -33t31 -84q0 -52 -33.5 -84.5
t-87.5 -32.5q-60 0 -96.5 43t-36.5 125q0 88 37.5 135t103.5 47q51 0 97 -30l-36 -53q-26 16 -55 16q-61 0 -72 -72q24 23 65 23zM463 239q20 0 34.5 14.5t14.5 37.5q0 22 -14.5 36t-34.5 14q-22 0 -35.5 -13.5t-13.5 -36.5q0 -24 13.5 -38t35.5 -14z" />
    <glyph glyph-name="uni2466" unicode="&#x2466;" horiz-adv-x="927" 
d="M464 744q179 0 292 -114.5t113 -284.5t-113 -284.5t-292 -114.5t-292 114.5t-113 284.5t113 284.5t292 114.5zM464 29q139 0 226.5 91t87.5 225t-87.5 225t-226.5 91q-140 0 -227.5 -91t-87.5 -225t87.5 -225t227.5 -91zM484 448h-133v70h220v-51l-86 -287h-80z" />
    <glyph glyph-name="uni2467" unicode="&#x2467;" horiz-adv-x="927" 
d="M464 744q179 0 292 -114.5t113 -284.5t-113 -284.5t-292 -114.5t-292 114.5t-113 284.5t113 284.5t292 114.5zM464 29q139 0 226.5 91t87.5 225t-87.5 225t-226.5 91q-140 0 -227.5 -91t-87.5 -225t87.5 -225t227.5 -91zM547 358q45 -28 45 -81q0 -47 -35 -75.5
t-93 -28.5q-59 0 -94 28.5t-35 75.5q0 53 45 81q-34 28 -34 71q0 41 33 67.5t85 26.5t84.5 -26.5t32.5 -67.5q0 -43 -34 -71zM464 459q-19 0 -30 -10t-11 -26q0 -17 11 -27t30 -10t29.5 10t10.5 27q0 16 -11 26t-29 10zM464 237q23 0 37 12.5t14 32.5q0 19 -14 31.5
t-37 12.5t-37.5 -12.5t-14.5 -31.5q0 -20 14.5 -32.5t37.5 -12.5z" />
    <glyph glyph-name="uni2468" unicode="&#x2468;" horiz-adv-x="927" 
d="M464 744q179 0 292 -114.5t113 -284.5t-113 -284.5t-292 -114.5t-292 114.5t-113 284.5t113 284.5t292 114.5zM464 29q139 0 226.5 91t87.5 225t-87.5 225t-226.5 91q-140 0 -227.5 -91t-87.5 -225t87.5 -225t227.5 -91zM458 523q60 0 96.5 -43t36.5 -125
q0 -88 -37.5 -135t-103.5 -47q-51 0 -97 30l35 53q26 -16 55 -16q63 0 72 72q-24 -23 -64 -23q-52 0 -83 33t-31 84q0 52 33.5 84.5t87.5 32.5zM460 355q22 0 35 14t13 37q0 24 -13 38t-35 14q-20 0 -34.5 -14.5t-14.5 -37.5t14.5 -37t34.5 -14z" />
    <glyph glyph-name="uni2469" unicode="&#x2469;" horiz-adv-x="927" 
d="M464 744q179 0 292 -114.5t113 -284.5t-113 -284.5t-292 -114.5t-292 114.5t-113 284.5t113 284.5t292 114.5zM464 29q139 0 226.5 91t87.5 225t-87.5 225t-226.5 91q-140 0 -227.5 -91t-87.5 -225t87.5 -225t227.5 -91zM570 523q66 0 105.5 -47.5t39.5 -127.5
t-39.5 -127.5t-105.5 -47.5q-67 0 -106.5 47.5t-39.5 127.5t39.5 127.5t106.5 47.5zM227 403v63q62 0 96 51h68v-338h-76v243q-37 -19 -88 -19zM570 245q66 0 66 103t-66 103q-67 0 -67 -103t67 -103z" />
    <glyph glyph-name="uni24EA" unicode="&#x24ea;" horiz-adv-x="927" 
d="M464 -54q-179 0 -292 114.5t-113 284.5t113 284.5t292 114.5t292 -114.5t113 -284.5t-113 -284.5t-292 -114.5zM464 29q139 0 226.5 91t87.5 225t-87.5 225t-226.5 91q-140 0 -227.5 -91t-87.5 -225t87.5 -225t227.5 -91zM464 170q-67 0 -106.5 47.5t-39.5 127.5
t39.5 127.5t106.5 47.5q66 0 105.5 -47.5t39.5 -127.5t-39.5 -127.5t-105.5 -47.5zM464 242q66 0 66 103t-66 103q-67 0 -67 -103t67 -103z" />
    <glyph glyph-name="uni24FF" unicode="&#x24ff;" horiz-adv-x="918" 
d="M459 -54q-178 0 -289 114.5t-111 284.5t111.5 284.5t288.5 114.5q176 0 288 -115t112 -284t-112 -284t-288 -115zM459 170q66 0 105.5 47.5t39.5 127.5t-39.5 127.5t-105.5 47.5q-67 0 -106 -47.5t-39 -127.5t39 -127.5t106 -47.5zM459 242q-67 0 -67 103t67 103
q66 0 66 -103t-66 -103z" />
    <glyph glyph-name="filledbox" unicode="&#x25a0;" horiz-adv-x="816" 
d="M730 26h-643v643h643v-643z" />
    <glyph glyph-name="uni25A1" unicode="&#x25a1;" horiz-adv-x="816" 
d="M730 26h-643v643h643v-643zM178 581v-467h460v467h-460z" />
    <glyph glyph-name="triagup" unicode="&#x25b2;" horiz-adv-x="865" 
d="M845 10h-825l412 743z" />
    <glyph glyph-name="uni25B3" unicode="&#x25b3;" horiz-adv-x="865" 
d="M845 10h-825l412 743zM432 552l-247 -444h494z" />
    <glyph glyph-name="uni25B6" unicode="&#x25b6;" horiz-adv-x="871" 
d="M87 -38v825l742 -413z" />
    <glyph glyph-name="uni25BB" unicode="&#x25bb;" horiz-adv-x="871" 
d="M87 -38v825l742 -413zM628 374l-444 247v-493z" />
    <glyph glyph-name="triagdn" unicode="&#x25bc;" horiz-adv-x="865" 
d="M20 715h825l-413 -743z" />
    <glyph glyph-name="uni25BD" unicode="&#x25bd;" horiz-adv-x="865" 
d="M20 715h825l-413 -743zM432 173l247 444h-494z" />
    <glyph glyph-name="triaglf" unicode="&#x25c4;" horiz-adv-x="871" 
d="M42 374l742 413v-825z" />
    <glyph glyph-name="uni25C5" unicode="&#x25c5;" horiz-adv-x="871" 
d="M784 787v-825l-742 412zM243 374l444 -246v493z" />
    <glyph glyph-name="uni25C6" unicode="&#x25c6;" horiz-adv-x="947" 
d="M906 339l-432 -432l-432 432l432 431z" />
    <glyph glyph-name="uni25C7" unicode="&#x25c7;" horiz-adv-x="947" 
d="M906 338l-432 -431l-432 431l432 431zM167 338l307 -306l306 306l-306 306z" />
    <glyph glyph-name="lozenge" unicode="&#x25ca;" horiz-adv-x="581" 
d="M239 642h103l196 -321l-196 -321h-103l-196 321zM156 321l135 -221l134 221l-134 221z" />
    <glyph glyph-name="circle" unicode="&#x25cb;" horiz-adv-x="851" 
d="M425 -12q-159 0 -262.5 104.5t-103.5 258.5q0 153 104 257t262 104q159 0 263 -104t104 -257q0 -154 -103.5 -258.5t-263.5 -104.5zM425 79q116 0 193 79t77 193q0 112 -77 191t-193 79q-115 0 -192 -79t-77 -191q0 -114 77 -193t192 -79z" />
    <glyph glyph-name="uni25CF" unicode="&#x25cf;" horiz-adv-x="851" 
d="M425 -12q-159 0 -262.5 104.5t-103.5 257.5q0 154 104 258t262 104q159 0 263 -104t104 -258q0 -153 -104 -257.5t-263 -104.5z" />
    <glyph glyph-name="uni261C" unicode="&#x261c;" horiz-adv-x="1094" 
d="M766 564v50h242v-559h-242v41q-42 -41 -116 -41h-308q-37 0 -58 22t-21 55q0 19 9 34q-43 21 -43 65q0 22 13 38q-41 19 -41 66q0 12 6 24h-83q-34 0 -56.5 22t-22.5 54t22.5 54.5t56.5 22.5h195q-18 18 -18 55v47h349q74 0 116 -50zM499 107h151q51 0 83.5 31.5
t32.5 83.5v224q0 49 -33.5 82.5t-82.5 33.5h-293v-3q0 -21 12.5 -34t36.5 -13h156q0 -59 17.5 -88t66.5 -41l-14 -49q-103 23 -116 126h-392q-10 0 -17 -7.5t-7 -17.5t7 -17t17 -7h306q32 0 54.5 -22.5t22.5 -53.5q0 -33 -22 -51q22 -19 22 -50q0 -33 -23 -52q23 -19 23 -47
q0 -15 -8 -28zM822 107h130v455h-130v-455zM281 309h149q10 0 17.5 7.5t7.5 18.5q0 10 -7.5 17t-17.5 7h-149q-10 0 -17.5 -7t-7.5 -17t7.5 -18t17.5 -8zM308 208h122q11 0 18 7t7 19q0 9 -7.5 16.5t-17.5 7.5h-122q-10 0 -17 -7.5t-7 -16.5q0 -11 7 -18.5t17 -7.5zM342 107
h88q10 0 17.5 7.5t7.5 17.5t-7.5 17t-17.5 7h-88q-9 0 -16.5 -7t-7.5 -17t7.5 -17.5t16.5 -7.5z" />
    <glyph glyph-name="uni261D" unicode="&#x261d;" horiz-adv-x="732" 
d="M646 601v-308q0 -74 -42 -116h42v-241h-559v241h49q-49 41 -49 116v349h47q37 0 55 -19v196q0 34 22 57t54 23t54.5 -23t22.5 -57v-81q12 5 24 5q46 0 65 -42q16 14 39 14q19 0 37 -12t27 -32q14 10 35 10q34 0 55.5 -21t21.5 -59zM189 381v156q0 24 -13.5 36.5
t-34.5 12.5h-2v-293q0 -49 33.5 -82.5t82.5 -33.5h224q52 0 83.5 33t31.5 83v152q-14 -8 -28 -8q-28 0 -47 23q-19 -23 -52 -23q-31 0 -50 22q-18 -22 -51 -22q-32 0 -54 22.5t-22 53.5v306q0 10 -7 17t-18 7q-10 0 -17 -7t-7 -17v-392q103 -13 126 -116l-49 -14
q-12 49 -41 66.5t-88 17.5zM366 687q-10 0 -17 -7t-7 -18v-149q0 -10 7 -17t17 -7t17.5 7t7.5 17v149q0 10 -7.5 17.5t-17.5 7.5zM443 635v-122q0 -10 7.5 -17t16.5 -7q11 0 18 7t7 17v122q0 11 -7 17.5t-18 6.5q-10 0 -17 -7t-7 -17zM544 601v-88q0 -10 7.5 -17t17.5 -7
t17.5 7t7.5 17v88q0 9 -7.5 16.5t-17.5 7.5t-17.5 -7.5t-7.5 -16.5zM139 -9h455v130h-455v-130z" />
    <glyph glyph-name="uni261E" unicode="&#x261e;" horiz-adv-x="1094" 
d="M775 512h195q34 0 57 -22.5t23 -54.5t-23 -54t-57 -22h-82q6 -12 6 -24q0 -47 -41 -66q13 -16 13 -38q0 -44 -43 -65q9 -15 9 -34q0 -34 -21 -55.5t-59 -21.5h-308q-74 0 -116 41v-41h-241v559h241v-50q42 50 116 50h349v-47q0 -37 -18 -55zM142 107h130v455h-130v-455z
M664 411h306q10 0 17 7t7 17q0 11 -7 18t-17 7h-392q-13 -103 -116 -126l-14 49q49 12 66.5 41t17.5 88h156q24 0 36.5 13t12.5 34v3h-293q-49 0 -82.5 -33.5t-33.5 -82.5v-224q0 -52 33 -83.5t83 -31.5h152q-8 13 -8 28q0 28 23 47q-23 19 -23 52q0 31 22 50q-22 18 -22 51
q0 31 22 53.5t54 22.5zM664 309h149q10 0 17.5 7.5t7.5 18.5q0 10 -7.5 17t-17.5 7h-149q-10 0 -17 -7t-7 -17q0 -11 7 -18.5t17 -7.5zM664 208h122q10 0 17 7.5t7 18.5q0 9 -7 16.5t-17 7.5h-122q-10 0 -17 -7.5t-7 -16.5q0 -12 7 -19t17 -7zM664 107h88q9 0 16.5 7.5
t7.5 17.5t-7.5 17t-16.5 7h-88q-10 0 -17 -7t-7 -17t7 -17.5t17 -7.5z" />
    <glyph glyph-name="uni261F" unicode="&#x261f;" horiz-adv-x="732" 
d="M87 675h559v-242h-42q42 -42 42 -116v-308q0 -37 -22 -58t-55 -21q-19 0 -35 9q-9 -20 -27 -32t-37 -12q-23 0 -39 14q-19 -42 -65 -42q-14 0 -24 6v-82q0 -34 -22.5 -57t-54.5 -23t-54 23t-22 57v196q-18 -19 -55 -19h-47v349q0 75 49 116h-49v242zM594 619h-455v-130
h455v130zM290 -209v306q0 32 22.5 54.5t53.5 22.5q33 0 51 -22q19 22 50 22q32 0 52 -23q19 23 47 23q14 0 28 -8v151q0 51 -31.5 83.5t-83.5 32.5h-224q-49 0 -82.5 -33.5t-33.5 -82.5v-293h2q21 0 34.5 12.5t13.5 36.5v156q59 0 88 17.5t41 66.5l49 -14
q-23 -103 -126 -116v-392q0 -10 7 -17t17 -7t17.5 7t7.5 17zM391 -52v149q0 11 -7.5 18t-17.5 7t-17 -7t-7 -18v-149q0 -11 7 -18t17 -7t17.5 7.5t7.5 17.5zM492 -25v122q0 11 -7 18t-18 7q-9 0 -16.5 -7.5t-7.5 -17.5v-122q0 -10 7 -17t17 -7q11 0 18 6.5t7 17.5zM594 9v88
q0 10 -7.5 17.5t-17.5 7.5t-17.5 -7.5t-7.5 -17.5v-88q0 -9 7.5 -16.5t17.5 -7.5t17.5 7.5t7.5 16.5z" />
    <glyph glyph-name="uni2661" unicode="&#x2661;" horiz-adv-x="878" 
d="M607 693q97 0 159 -55t62 -141q0 -64 -26 -117t-106 -141.5t-257 -256.5q-135 128 -208.5 203.5t-116 133.5t-53.5 93.5t-11 84.5q0 86 62 141t160 55q95 0 167 -71q72 71 168 71zM439 119q122 114 185 184.5t82 109t19 77.5q0 48 -31.5 77t-83.5 29q-98 0 -171 -101
q-73 101 -170 101q-53 0 -84.5 -29t-31.5 -77q0 -39 19 -77.5t82 -109t185 -184.5z" />
    <glyph glyph-name="heart" unicode="&#x2665;" horiz-adv-x="878" 
d="M614 693q97 0 155.5 -53.5t58.5 -144.5q0 -88 -80.5 -195.5t-308.5 -318.5q-228 211 -308.5 319t-80.5 195q0 91 59 144.5t156 53.5q100 0 174 -71q74 71 175 71z" />
    <glyph glyph-name="uni26A0" unicode="&#x26a0;" horiz-adv-x="922" 
d="M902 6h-882l441 759zM411 375l7 -160h86l8 160l4 163h-109zM461 43q29 0 49.5 18.5t20.5 47.5t-20.5 48t-49.5 19t-49.5 -19t-20.5 -48t20.5 -47.5t49.5 -18.5z" />
    <glyph glyph-name="uni2713" unicode="&#x2713;" horiz-adv-x="889" 
d="M869 612l-550 -591l-279 279l64 65l214 -213l485 524z" />
    <glyph glyph-name="uni2717" unicode="&#x2717;" horiz-adv-x="696" 
d="M620 686l63 -66l-271 -270l271 -270l-63 -66l-272 272l-273 -272l-63 66l271 270l-271 270l63 66l273 -272z" />
    <glyph glyph-name="uni2776" unicode="&#x2776;" horiz-adv-x="918" 
d="M459 -54q-177 0 -288.5 114.5t-111.5 284.5t111.5 284.5t288.5 114.5q176 0 288 -115t112 -284t-112 -284t-288 -115zM433 423v-243h76v338h-68q-34 -51 -96 -51v-63q51 0 88 19z" />
    <glyph glyph-name="uni2777" unicode="&#x2777;" horiz-adv-x="918" 
d="M459 -54q-174 0 -287 112.5t-113 286.5q0 173 113 286t287 113q173 0 286.5 -113t113.5 -286t-113.5 -286t-286.5 -113zM349 231v-51h234v72h-114l41 52q37 47 48 71.5t11 51.5q0 43 -30.5 70t-81.5 27q-66 0 -121 -54l45 -52q29 35 69 35t40 -34q0 -20 -39 -66z" />
    <glyph glyph-name="uni2778" unicode="&#x2778;" horiz-adv-x="918" 
d="M459 -54q-174 0 -287 112.5t-113 286.5q0 173 113 286t287 113q173 0 286.5 -113t113.5 -286t-113.5 -286t-286.5 -113zM462 174q54 0 87.5 31.5t33.5 81.5q0 38 -23.5 66.5t-62.5 35.5l68 88v41h-203v-71h101l-58 -83l20 -33q37 10 58.5 -1t21.5 -38q0 -20 -13.5 -32
t-37.5 -12q-37 0 -72 28l-39 -62q48 -40 119 -40z" />
    <glyph glyph-name="uni2779" unicode="&#x2779;" horiz-adv-x="918" 
d="M459 -54q-177 0 -288.5 114.5t-111.5 284.5t111.5 284.5t288.5 114.5q176 0 288 -115t112 -284t-112 -284t-288 -115zM463 244v-64h74v64h39v69h-39v205h-70l-168 -212v-62h164zM464 312h-74l74 93v-93z" />
    <glyph glyph-name="uni277A" unicode="&#x277a;" horiz-adv-x="918" 
d="M459 -53q-177 0 -288.5 114.5t-111.5 284.5t111.5 284.5t288.5 114.5q176 0 288 -115t112 -284t-112 -284t-288 -115zM454 174q54 0 88 30t34 81t-33.5 80t-85.5 29q-15 0 -32 -3l4 55h124v72h-185l-13 -172l26 -25q31 9 63 9q24 0 39 -11t15 -30q0 -18 -14 -29.5
t-36 -11.5q-35 0 -72 28l-39 -62q49 -40 117 -40z" />
    <glyph glyph-name="uni277B" unicode="&#x277b;" horiz-adv-x="918" 
d="M459 -54q-177 0 -288.5 114.5t-111.5 284.5t111.5 284.5t288.5 114.5q176 0 288 -115t112 -284t-112 -284t-288 -115zM465 174q54 0 87.5 32.5t33.5 84.5q0 51 -31 84t-83 33q-40 0 -65 -24q11 73 72 73q29 0 55 -16l36 53q-46 30 -97 30q-66 0 -103.5 -47t-37.5 -135
q0 -82 36.5 -125t96.5 -43zM463 239q-22 0 -35.5 14t-13.5 38q0 23 13.5 37t35.5 14q20 0 34.5 -14t14.5 -37t-14.5 -37.5t-34.5 -14.5z" />
    <glyph glyph-name="uni277C" unicode="&#x277c;" horiz-adv-x="918" 
d="M459 -54q-177 0 -288.5 114.5t-111.5 284.5t111.5 284.5t288.5 114.5q176 0 288 -115t112 -284t-112 -284t-288 -115zM483 448l-78 -268h80l86 287v51h-220v-70h132z" />
    <glyph glyph-name="uni277D" unicode="&#x277d;" horiz-adv-x="918" 
d="M459 -54q-178 0 -289 114.5t-111 284.5t111.5 284.5t288.5 114.5q176 0 288 -115t112 -284t-112 -284t-288 -115zM459 173q59 0 94 28.5t35 75.5q0 52 -46 81q35 29 35 71q0 41 -33 67.5t-85 26.5t-85 -26.5t-33 -67.5q0 -43 35 -71q-46 -29 -46 -81q0 -47 35 -75.5
t94 -28.5zM459 386q-19 0 -30 10t-11 27q0 16 11 26t30 10t30 -10t11 -26q0 -17 -11 -27t-30 -10zM459 237q-23 0 -37.5 12.5t-14.5 32.5q0 19 14.5 31.5t37.5 12.5t37.5 -12.5t14.5 -31.5q0 -20 -14.5 -32.5t-37.5 -12.5z" />
    <glyph glyph-name="uni277E" unicode="&#x277e;" horiz-adv-x="918" 
d="M459 -54q-177 0 -288.5 114.5t-111.5 284.5t111.5 284.5t288.5 114.5q176 0 288 -115t112 -284t-112 -284t-288 -115zM447 173q66 0 103.5 47t37.5 135q0 82 -36.5 125t-96.5 43q-54 0 -87.5 -32.5t-33.5 -84.5q0 -51 31 -84t83 -33q40 0 65 24q-10 -73 -73 -73
q-29 0 -55 16l-35 -53q46 -30 97 -30zM457 355q-20 0 -34.5 14t-14.5 37t14.5 37.5t34.5 14.5q22 0 35.5 -14t13.5 -38q0 -23 -13.5 -37t-35.5 -14z" />
    <glyph glyph-name="uni277F" unicode="&#x277f;" horiz-adv-x="918" 
d="M459 -54q-177 0 -288.5 114.5t-111.5 284.5t111.5 284.5t288.5 114.5q176 0 288 -115t112 -284t-112 -284t-288 -115zM570 173q65 0 104.5 47t39.5 128q0 82 -39.5 128.5t-104.5 46.5q-66 0 -106 -46.5t-40 -128.5q0 -81 40 -128t106 -47zM302 423v-243h76v338h-68
q-34 -51 -96 -51v-63q50 0 88 19zM570 245q-67 0 -67 103t67 103q65 0 65 -103t-65 -103z" />
    <glyph glyph-name="uni27F5" unicode="&#x27f5;" horiz-adv-x="1186" 
d="M235 374h910v-98h-910l182 -183l-72 -72l-303 304l303 304l72 -72z" />
    <glyph glyph-name="uni27F6" unicode="&#x27f6;" horiz-adv-x="1186" 
d="M769 557l72 72l303 -304l-303 -304l-72 72l182 183h-910v98h910z" />
    <glyph glyph-name="uni2B06" unicode="&#x2b06;" horiz-adv-x="885" 
d="M625 -5h-365v310h-219l401 455l402 -455h-219v-310z" />
    <glyph glyph-name="uniF8FF" unicode="&#xf8ff;" horiz-adv-x="605" 
d="M565 -93h-525v185h106v-92h313v92h106v-185z" />
    <glyph glyph-name="J_acutecomb" horiz-adv-x="465" 
d="M49 119q59 -28 116 -28t84.5 39t27.5 122v448h109v-459q0 -123 -57 -188t-164 -65q-73 0 -158 39zM346 898h126l-97 -126h-93z" />
    <glyph glyph-name="Adieresis.ss01" horiz-adv-x="715" 
d="M294 700h130l271 -700h-112l-53 137h-344l-53 -137h-113zM222 235h272l-135 352zM470 719q0 29 18.5 48t48.5 19q29 0 47.5 -19t18.5 -48t-18.5 -48t-47.5 -19q-30 0 -48.5 19t-18.5 48zM116 719q0 29 18.5 48t48.5 19q29 0 47.5 -19t18.5 -48t-18.5 -48t-47.5 -19
q-30 0 -48.5 19t-18.5 48z" />
    <glyph glyph-name="Aring.ss01" horiz-adv-x="715" 
d="M20 0l259 662q-44 34 -44 90q0 50 36 84t88 34q53 0 89 -34t36 -84q0 -57 -45 -91l256 -661h-112l-53 137h-344l-53 -137h-113zM494 235l-135 352l-137 -352h272zM324 717q13 -14 35 -14t35.5 14t13.5 35q0 22 -13 36q-14 14 -36 14t-35.5 -14t-13.5 -36q0 -21 14 -35z
" />
    <glyph glyph-name="Ccedilla.ss01" horiz-adv-x="729" 
d="M49 350q0 157 96.5 259.5t248.5 102.5q177 0 293 -149l-78 -68q-38 54 -94.5 83t-120.5 29q-104 0 -169.5 -72.5t-65.5 -184.5q0 -113 65.5 -185t173.5 -72q70 0 129.5 30.5t99.5 86.5l78 -66q-101 -136 -262 -154l-5 -142h-105l27 142q-140 13 -225.5 113t-85.5 247z
" />
    <glyph glyph-name="G.ss01" horiz-adv-x="792" 
d="M150 610q101 102 257 102q165 0 277 -112l-67 -76q-38 39 -94 61t-116 22q-109 0 -178.5 -72t-69.5 -185q0 -115 67 -186t177 -71q95 0 158.5 53.5t69.5 139.5h-265v102h378v-20q0 -174 -86.5 -277t-251.5 -103q-158 0 -257.5 101t-99.5 261q0 158 101 260z" />
    <glyph glyph-name="Gbreve.ss01" horiz-adv-x="792" 
d="M49 350q0 158 101 260t257 102q165 0 277 -112l-67 -76q-38 39 -94 61t-116 22q-109 0 -178.5 -72t-69.5 -185q0 -115 67 -186t177 -71q95 0 158.5 53.5t69.5 139.5h-265v102h378v-20q0 -174 -86.5 -277t-251.5 -103q-158 0 -257.5 101t-99.5 261zM257 888l84 16
q9 -62 67 -62q57 0 66 62l84 -16q-18 -121 -150 -121q-133 0 -151 121z" />
    <glyph glyph-name="Gcircumflex.ss01" horiz-adv-x="792" 
d="M150 610q101 102 257 102q165 0 277 -112l-67 -76q-38 39 -94 61t-116 22q-109 0 -178.5 -72t-69.5 -185q0 -115 67 -186t177 -71q95 0 158.5 53.5t69.5 139.5h-265v102h378v-20q0 -174 -86.5 -277t-251.5 -103q-158 0 -257.5 101t-99.5 261q0 158 101 260zM366 898h82
l124 -126h-108l-56 60l-57 -60h-109z" />
    <glyph glyph-name="uni0122.ss01" horiz-adv-x="792" 
d="M49 350q0 158 101 260t257 102q165 0 277 -112l-67 -76q-38 39 -94 61t-116 22q-109 0 -178.5 -72t-69.5 -185q0 -115 67 -186t177 -71q95 0 158.5 53.5t69.5 139.5h-265v102h378v-20q0 -174 -86.5 -277t-251.5 -103q-158 0 -257.5 101t-99.5 261zM371 -68q16 18 41 18
q31 0 49.5 -21.5t18.5 -57.5q0 -71 -74 -139l-34 32q31 35 39 68q-25 1 -41 17t-16 39q0 27 17 44z" />
    <glyph glyph-name="Gdotaccent.ss01" horiz-adv-x="792" 
d="M49 350q0 158 101 260t257 102q165 0 277 -112l-67 -76q-38 39 -94 61t-116 22q-109 0 -178.5 -72t-69.5 -185q0 -115 67 -186t177 -71q95 0 158.5 53.5t69.5 139.5h-265v102h378v-20q0 -174 -86.5 -277t-251.5 -103q-158 0 -257.5 101t-99.5 261zM332 837q0 34 21 55
t54 21t54.5 -21t21.5 -55t-21 -55q-22 -21 -55 -21t-54 21t-21 55z" />
    <glyph glyph-name="K.ss01" horiz-adv-x="657" 
d="M241 381l260 319h133l-284 -345l296 -355h-135l-270 327v54zM196 700v-700h-109v700h109z" />
    <glyph glyph-name="uni0136.ss01" horiz-adv-x="657" 
d="M501 700h133l-284 -345l296 -355h-135l-270 327v54zM87 0v700h109v-700h-109zM274 -112q0 27 16.5 44.5t41.5 17.5q31 0 49.5 -21.5t18.5 -57.5q0 -71 -74 -139l-34 32q31 35 39 68q-25 1 -41 17t-16 39z" />
    <glyph glyph-name="Odieresis.ss01" horiz-adv-x="818" 
d="M151 610q101 102 258 102t259 -102.5t102 -259.5t-102 -259q-102 -103 -259 -103t-258.5 102t-101.5 260t102 260zM159 350q0 -112 71 -184q70 -73 179 -73t179.5 72.5t70.5 184.5t-70.5 184.5t-179.5 72.5t-179.5 -72.5t-70.5 -184.5zM79 767q18 19 48 19q29 0 47.5 -19
t18.5 -48t-18.5 -48t-47.5 -19q-30 0 -48.5 19t-18.5 48t19 48zM626 719q0 29 18.5 48t47.5 19t48 -19t19 -48t-19 -48t-48 -19t-47.5 19t-18.5 48z" />
    <glyph glyph-name="Q.ss01" horiz-adv-x="818" 
d="M151 610q101 102 258 102t259 -102.5t102 -259.5q0 -144 -87.5 -243.5t-226.5 -115.5l10 -189h-115l10 189q-139 16 -225.5 115t-86.5 244q0 158 102 260zM230 166q70 -73 179 -73t179.5 72.5t70.5 184.5t-70.5 184.5t-179.5 72.5t-179.5 -72.5t-70.5 -184.5t71 -184z
" />
    <glyph glyph-name="R.ss01" horiz-adv-x="662" 
d="M87 700h280q108 0 173 -62t65 -158q0 -86 -52.5 -145.5t-142.5 -72.5l215 -262h-133l-236 292v60h99q67 0 104 32.5t37 90.5t-37 90.5t-104 32.5h-159v-598h-109v700z" />
    <glyph glyph-name="Racute.ss01" horiz-adv-x="662" 
d="M367 700q108 0 173 -62t65 -158q0 -86 -52.5 -145.5t-142.5 -72.5l215 -262h-133l-236 292v60h99q67 0 104 32.5t37 90.5t-37 90.5t-104 32.5h-159v-598h-109v700h280zM277 772l64 126h126l-97 -126h-93z" />
    <glyph glyph-name="Rcaron.ss01" horiz-adv-x="662" 
d="M87 700h280q108 0 173 -62t65 -158q0 -86 -52.5 -145.5t-142.5 -72.5l215 -262h-133l-236 292v60h99q67 0 104 32.5t37 90.5t-37 90.5t-104 32.5h-159v-598h-109v700zM161 898h109l57 -60l56 60h108l-124 -126h-82z" />
    <glyph glyph-name="uni0156.ss01" horiz-adv-x="662" 
d="M87 0v700h280q108 0 173 -62t65 -158q0 -86 -52.5 -145.5t-142.5 -72.5l215 -262h-133l-236 292v60h99q67 0 104 32.5t37 90.5t-37 90.5t-104 32.5h-159v-598h-109zM293 -68q16 18 41 18q31 0 49.5 -21.5t18.5 -57.5q0 -71 -74 -139l-34 32q32 36 39 68q-25 1 -41 17
t-16 39q0 27 17 44z" />
    <glyph glyph-name="Scedilla.ss01" horiz-adv-x="602" 
d="M39 85l56 85q94 -74 212 -74q69 0 108 23.5t39 65.5q0 39 -40.5 68t-136.5 58q-111 34 -162.5 84t-51.5 124q0 83 66.5 136t172.5 53q137 0 245 -92l-59 -84q-37 33 -87.5 52.5t-100.5 19.5q-58 0 -93 -22t-35 -58q0 -37 35.5 -63.5t130.5 -57.5q120 -39 174 -90t54 -125
q0 -75 -58.5 -128t-154.5 -65l-5 -147h-105l28 145q-133 11 -232 92z" />
    <glyph glyph-name="uni0162.ss01" horiz-adv-x="596" 
d="M26 596v104h543v-104h-217v-596h-9l-5 -152h-105l29 152h-19v596h-217z" />
    <glyph glyph-name="Udieresis.ss01" horiz-adv-x="722" 
d="M79 277v423h108v-416q0 -92 45.5 -141.5t128.5 -49.5t128 49t45 142v416h109v-423q0 -131 -78 -210t-204 -79t-204 79t-78 210zM88 865q18 18 47 18q28 0 46 -18.5t18 -47.5t-18 -48t-46 -19q-29 0 -47 19t-18 48t18 48zM522 817q0 29 18 47.5t47 18.5q28 0 46 -18.5
t18 -47.5t-18 -48t-46 -19q-29 0 -47 19t-18 48z" />
    <glyph glyph-name="i.loclTRK" horiz-adv-x="262" 
d="M79 510h105v-510h-105v510zM79 703q20 20 52 20t53 -20.5t21 -53.5t-21 -54t-53 -21t-52.5 21t-20.5 54t21 54z" />
    <glyph glyph-name="j_acutecomb" horiz-adv-x="262" 
d="M-42 -129q32 -9 57 -9q34 0 49 18.5t15 61.5v568h105v-585q0 -77 -41.5 -119.5t-116.5 -42.5q-44 0 -91 14zM133 740h126l-88 -146h-94z" />
    <glyph glyph-name="germandbls.calt" horiz-adv-x="703" 
d="M79 0v425q0 128 63.5 201.5t193.5 73.5h266v-83l-151 -195q94 -10 148.5 -68.5t54.5 -148.5q0 -96 -63 -154.5t-170 -58.5q-104 0 -175 46l48 86q53 -32 116 -32q64 0 99 32t35 86q0 71 -48.5 95.5t-106.5 24.5q-22 0 -47 -3l-31 69l158 205h-138q-70 0 -107 -44.5
t-37 -126.5v-430h-108z" />
    <glyph glyph-name="a.ss01" horiz-adv-x="660" 
d="M45 255q0 117 70.5 192t180.5 75q113 0 183 -81v69h103v-510h-103v69q-70 -81 -183 -81q-110 0 -180.5 75t-70.5 192zM150 255q0 -74 46 -121q46 -48 118 -48t118.5 47.5t46.5 121.5t-46.5 121.5t-118.5 47.5t-118 -47.5t-46 -121.5z" />
    <glyph glyph-name="aacute.ss01" horiz-adv-x="660" 
d="M45 255q0 117 70.5 192t180.5 75q113 0 183 -81v69h103v-510h-103v69q-70 -81 -183 -81q-110 0 -180.5 75t-70.5 192zM150 255q0 -74 46 -121q46 -48 118 -48t118.5 47.5t46.5 121.5t-46.5 121.5t-118.5 47.5t-118 -47.5t-46 -121.5zM336 740h126l-96 -146h-94z" />
    <glyph glyph-name="abreve.ss01" horiz-adv-x="660" 
d="M45 255q0 117 70.5 192t180.5 75q113 0 183 -81v69h103v-510h-103v69q-70 -81 -183 -81q-110 0 -180.5 75t-70.5 192zM150 255q0 -74 46 -121q46 -48 118 -48t118.5 47.5t46.5 121.5t-46.5 121.5t-118.5 47.5t-118 -47.5t-46 -121.5zM171 728l79 16q10 -81 74 -81
q65 0 75 81l79 -16q-9 -71 -46 -105q-38 -34 -108 -34t-107 34t-46 105z" />
    <glyph glyph-name="acircumflex.ss01" horiz-adv-x="660" 
d="M45 255q0 117 70.5 192t180.5 75q113 0 183 -81v69h103v-510h-103v69q-70 -81 -183 -81q-110 0 -180.5 75t-70.5 192zM150 255q0 -74 46 -121q46 -48 118 -48t118.5 47.5t46.5 121.5t-46.5 121.5t-118.5 47.5t-118 -47.5t-46 -121.5zM159 594l124 146h82l124 -146h-108
l-56 72l-57 -72h-109z" />
    <glyph glyph-name="adieresis.ss01" horiz-adv-x="660" 
d="M45 255q0 117 70.5 192t180.5 75q113 0 183 -81v69h103v-510h-103v69q-70 -81 -183 -81q-110 0 -180.5 75t-70.5 192zM150 255q0 -74 46 -121q46 -48 118 -48t118.5 47.5t46.5 121.5t-46.5 121.5t-118.5 47.5t-118 -47.5t-46 -121.5zM371 693q18 18 46 18t45.5 -18
t17.5 -47t-17 -47q-18 -19 -46 -19t-46 18.5t-18 47.5t18 47zM186 693q18 18 46 18t45.5 -18t17.5 -47t-17 -47q-18 -19 -46 -19t-46 18.5t-18 47.5t18 47z" />
    <glyph glyph-name="agrave.ss01" horiz-adv-x="660" 
d="M45 255q0 117 70.5 192t180.5 75q113 0 183 -81v69h103v-510h-103v69q-70 -81 -183 -81q-110 0 -180.5 75t-70.5 192zM196 134q46 -48 118 -48t118.5 47.5t46.5 121.5t-46.5 121.5t-118.5 47.5t-118 -47.5t-46 -121.5t46 -121zM186 740h126l64 -146h-94z" />
    <glyph glyph-name="amacron.ss01" horiz-adv-x="660" 
d="M45 255q0 117 70.5 192t180.5 75q113 0 183 -81v69h103v-510h-103v69q-70 -81 -183 -81q-110 0 -180.5 75t-70.5 192zM196 134q46 -48 118 -48t118.5 47.5t46.5 121.5t-46.5 121.5t-118.5 47.5t-118 -47.5t-46 -121.5t46 -121zM463 681v-77h-278v77h278z" />
    <glyph glyph-name="aogonek.ss01" horiz-adv-x="660" 
d="M116 447q70 75 180 75q113 0 183 -81v69h103v-510h-1q-70 -45 -70 -98q0 -37 35 -37q22 0 48 19l36 -60q-47 -41 -100 -41q-46 0 -74 27t-28 72q0 66 64 118h-13v69q-70 -81 -183 -81q-110 0 -180.5 75t-70.5 192t71 192zM196 134q46 -48 118 -48t118.5 47.5t46.5 121.5
t-46.5 121.5t-118.5 47.5t-118 -47.5t-46 -121.5t46 -121z" />
    <glyph glyph-name="aring.ss01" horiz-adv-x="660" 
d="M45 255q0 117 70.5 192t180.5 75q113 0 183 -81v69h103v-510h-103v69q-70 -81 -183 -81q-110 0 -180.5 75t-70.5 192zM196 134q46 -48 118 -48t118.5 47.5t46.5 121.5t-46.5 121.5t-118.5 47.5t-118 -47.5t-46 -121.5t46 -121zM199 687q0 49 36 83t88 34q53 0 89 -34
t36 -83q0 -50 -36 -84t-89 -34q-52 0 -88 34t-36 84zM274 687q0 -21 14 -35.5t35 -14.5q22 0 36 14.5t14 35.5t-14 35t-36 14q-21 0 -35 -14t-14 -35z" />
    <glyph glyph-name="atilde.ss01" horiz-adv-x="660" 
d="M116 447q70 75 180 75q113 0 183 -81v69h103v-510h-103v69q-70 -81 -183 -81q-110 0 -180.5 75t-70.5 192t71 192zM196 134q46 -48 118 -48t118.5 47.5t46.5 121.5t-46.5 121.5t-118.5 47.5t-118 -47.5t-46 -121.5t46 -121zM260 709q27 0 73 -28q32 -20 47 -20
q27 0 49 46l59 -34q-34 -90 -101 -90q-27 0 -73 28q-32 20 -47 20q-28 0 -49 -46l-60 35q35 89 102 89z" />
    <glyph glyph-name="ae.ss01" horiz-adv-x="1012" 
d="M45 255q0 117 69 192t177 75q107 0 176 -77v65h103v-65q61 77 173 77q118 0 175 -81.5t57 -171.5q0 -32 -6 -66h-397q13 -54 55.5 -87t102.5 -33q88 0 155 67l62 -68q-69 -94 -201 -94q-116 0 -176 76v-64h-103v65q-69 -77 -176 -77q-108 0 -177 75t-69 192zM195 134
q44 -47 114 -47q69 0 114 47.5t45 120.5t-45 120.5t-114 47.5q-70 0 -114.5 -47t-44.5 -121t45 -121zM570 293h303q-10 59 -51 96t-101 37q-58 0 -99 -36.5t-52 -96.5z" />
    <glyph glyph-name="aeacute.ss01" horiz-adv-x="1012" 
d="M45 255q0 117 69 192t177 75q107 0 176 -77v65h103v-65q61 77 173 77q118 0 175 -81.5t57 -171.5q0 -32 -6 -66h-397q13 -54 55.5 -87t102.5 -33q88 0 155 67l62 -68q-69 -94 -201 -94q-116 0 -176 76v-64h-103v65q-69 -77 -176 -77q-108 0 -177 75t-69 192zM195 134
q44 -47 114 -47q69 0 114 47.5t45 120.5t-45 120.5t-114 47.5q-70 0 -114.5 -47t-44.5 -121t45 -121zM873 293q-10 59 -51 96t-101 37q-58 0 -99 -36.5t-52 -96.5h303zM478 594l64 146h126l-96 -146h-94z" />
    <glyph glyph-name="ccedilla.ss01" horiz-adv-x="550" 
d="M45 255q0 116 74 191.5t188 75.5q133 0 209 -93l-64 -67q-60 62 -143 62q-70 0 -114.5 -47.5t-44.5 -121.5q0 -75 43.5 -122t116.5 -47q92 0 148 70l70 -64q-63 -90 -191 -103l-5 -141h-98l27 144q-96 15 -156 87.5t-60 175.5z" />
    <glyph glyph-name="f.ss01" horiz-adv-x="415" 
d="M33 416v94h105v64q0 80 42.5 125.5t117.5 45.5q63 0 117 -30l-34 -83q-33 18 -70 18q-68 0 -68 -80v-60h161v-94h-161v-416h-105v416h-105z" />
    <glyph glyph-name="g.ss01" horiz-adv-x="658" 
d="M116 448q70 74 179 74q112 0 182 -80v68h103v-505q0 -113 -73 -180t-196 -67q-137 0 -244 77l52 81q85 -60 186 -60q78 0 124 41.5t46 111.5v63q-70 -78 -180 -78q-109 0 -179.5 74.5t-70.5 189.5t71 190zM150 258q0 -73 46 -119q46 -47 117 -47t117.5 47t46.5 119
t-46.5 119t-117.5 47t-117 -46.5t-46 -119.5z" />
    <glyph glyph-name="gbreve.ss01" horiz-adv-x="658" 
d="M45 258q0 115 70.5 189.5t179.5 74.5q112 0 182 -80v68h103v-505q0 -113 -73 -180t-196 -67q-137 0 -244 77l52 81q85 -60 186 -60q78 0 124 41.5t46 111.5v63q-70 -78 -180 -78q-109 0 -179.5 74.5t-70.5 189.5zM150 258q0 -73 46 -119q46 -47 117 -47t117.5 47
t46.5 119t-46.5 119t-117.5 47t-117 -46.5t-46 -119.5zM160 728l79 16q10 -81 74 -81q65 0 75 81l79 -16q-9 -71 -46 -105q-38 -34 -108 -34t-107 34t-46 105z" />
    <glyph glyph-name="gcircumflex.ss01" horiz-adv-x="658" 
d="M116 448q70 74 179 74q112 0 182 -80v68h103v-505q0 -113 -73 -180t-196 -67q-137 0 -244 77l52 81q85 -60 186 -60q78 0 124 41.5t46 111.5v63q-70 -78 -180 -78q-109 0 -179.5 74.5t-70.5 189.5t71 190zM196 139q46 -47 117 -47t117.5 47t46.5 119t-46.5 119t-117.5 47
t-117 -46.5t-46 -119.5t46 -119zM272 740h82l124 -146h-108l-56 72l-57 -72h-109z" />
    <glyph glyph-name="uni0123.ss01" horiz-adv-x="658" 
d="M45 258q0 115 70.5 189.5t179.5 74.5q112 0 182 -80v68h103v-505q0 -113 -73 -180t-196 -67q-137 0 -244 77l52 81q85 -60 186 -60q78 0 124 41.5t46 111.5v63q-70 -78 -180 -78q-109 0 -179.5 74.5t-70.5 189.5zM150 258q0 -73 46 -119q46 -47 117 -47t117.5 47
t46.5 119t-46.5 119t-117.5 47t-117 -46.5t-46 -119.5zM250 650q0 71 74 139l34 -32q-31 -35 -39 -68q25 -1 41 -17t16 -39q0 -27 -16.5 -44.5t-41.5 -17.5q-31 0 -49.5 21.5t-18.5 57.5z" />
    <glyph glyph-name="gdotaccent.ss01" horiz-adv-x="658" 
d="M45 258q0 115 70.5 189.5t179.5 74.5q112 0 182 -80v68h103v-505q0 -113 -73 -180t-196 -67q-137 0 -244 77l52 81q85 -60 186 -60q78 0 124 41.5t46 111.5v63q-70 -78 -180 -78q-109 0 -179.5 74.5t-70.5 189.5zM150 258q0 -73 46 -119q46 -47 117 -47t117.5 47
t46.5 119t-46.5 119t-117.5 47t-117 -46.5t-46 -119.5zM261 703q20 20 52 20t53 -20.5t21 -53.5t-21 -54t-53 -21t-52.5 21t-20.5 54t21 54z" />
    <glyph glyph-name="k.ss01" horiz-adv-x="550" 
d="M79 740h105v-740h-105v740zM224 234v51l177 225h128l-197 -248l207 -262h-131z" />
    <glyph glyph-name="uni0137.ss01" horiz-adv-x="550" 
d="M79 0v740h105v-740h-105zM224 285l177 225h128l-197 -248l207 -262h-131l-184 234v51zM234 -68q16 18 41 18q31 0 49.5 -21.5t18.5 -57.5q0 -71 -74 -139l-34 32q31 35 39 68q-25 1 -41 17t-16 39q0 27 17 44z" />
    <glyph glyph-name="kgreenlandic.ss01" horiz-adv-x="550" 
d="M224 285l177 225h128l-197 -248l207 -262h-131l-184 234v51zM184 510v-510h-105v510h105z" />
    <glyph glyph-name="scedilla.ss01" horiz-adv-x="484" 
d="M81 146q85 -56 168 -56q46 0 71.5 14t25.5 39q0 23 -25 39.5t-83 31.5q-95 25 -138 63t-43 98q0 66 49 104.5t136 38.5q116 0 200 -70l-50 -79q-28 23 -69.5 37.5t-81.5 14.5q-81 0 -81 -47q0 -23 23.5 -38t84.5 -30q183 -45 183 -160q0 -62 -45 -103t-121 -49l-6 -146
h-98l27 146q-96 10 -173 68z" />
    <glyph glyph-name="uni0163.ss01" horiz-adv-x="412" 
d="M24 510h93v119h105v-119h146v-92h-146v-247q0 -80 69 -80q30 0 69 18l34 -90q-40 -19 -90 -25l-6 -146h-98l28 152q-53 15 -82 58.5t-29 107.5v252h-93v92z" />
    <glyph glyph-name="u.ss01" horiz-adv-x="612" 
d="M71 224v286h105v-275q0 -144 130 -144q129 0 129 144v275h105v-286q0 -107 -63 -169q-64 -62 -171 -62t-171 62t-64 169z" />
    <glyph glyph-name="uacute.ss01" horiz-adv-x="612" 
d="M176 510v-275q0 -144 130 -144q129 0 129 144v275h105v-286q0 -107 -63 -169q-64 -62 -171 -62t-171 62t-64 169v286h105zM257 594l64 146h126l-96 -146h-94z" />
    <glyph glyph-name="ubreve.ss01" horiz-adv-x="612" 
d="M71 224v286h105v-275q0 -144 130 -144q129 0 129 144v275h105v-286q0 -107 -63 -169q-64 -62 -171 -62t-171 62t-64 169zM234 744q10 -81 74 -81q65 0 75 81l79 -16q-9 -71 -46 -105q-38 -34 -108 -34t-107 34t-46 105z" />
    <glyph glyph-name="ucircumflex.ss01" horiz-adv-x="612" 
d="M71 510h105v-275q0 -144 130 -144q129 0 129 144v275h105v-286q0 -107 -63.5 -169t-170.5 -62t-171 62t-64 169v286zM144 594l124 146h82l124 -146h-108l-56 72l-57 -72h-109z" />
    <glyph glyph-name="udieresis.ss01" horiz-adv-x="612" 
d="M71 224v286h105v-275q0 -144 130 -144q129 0 129 144v275h105v-286q0 -107 -63 -169q-64 -62 -171 -62t-171 62t-64 169zM337 646q0 29 18 47t46 18t45.5 -18t17.5 -47t-17 -47q-18 -19 -46 -19t-46 18.5t-18 47.5zM152 646q0 29 18 47t46 18t45.5 -18t17.5 -47t-17 -47
q-18 -19 -46 -19t-46 18.5t-18 47.5z" />
    <glyph glyph-name="ugrave.ss01" horiz-adv-x="612" 
d="M71 510h105v-275q0 -144 130 -144q129 0 129 144v275h105v-286q0 -107 -63 -169q-64 -62 -171 -62t-171 62t-64 169v286zM297 740l64 -146h-94l-96 146h126z" />
    <glyph glyph-name="uhungarumlaut.ss01" horiz-adv-x="612" 
d="M176 510v-275q0 -144 130 -144q129 0 129 144v275h105v-286q0 -107 -63 -169q-64 -62 -171 -62t-171 62t-64 169v286h105zM405 740h115l-96 -146h-91zM234 740h115l-86 -146h-87z" />
    <glyph glyph-name="umacron.ss01" horiz-adv-x="612" 
d="M71 224v286h105v-275q0 -144 130 -144q129 0 129 144v275h105v-286q0 -107 -63 -169q-64 -62 -171 -62t-171 62t-64 169zM170 604v77h278v-77h-278z" />
    <glyph glyph-name="uogonek.ss01" horiz-adv-x="612" 
d="M435 235v275h105v-286q0 -147 -134 -223q-81 -45 -81 -99q0 -37 35 -37q21 0 48 19l36 -60q-47 -41 -100 -41q-46 0 -74 27t-28 72q0 62 54 110q-106 6 -165.5 67.5t-59.5 164.5v286h105v-275q0 -144 130 -144q129 0 129 144z" />
    <glyph glyph-name="uring.ss01" horiz-adv-x="612" 
d="M71 510h105v-275q0 -144 130 -144q129 0 129 144v275h105v-286q0 -107 -63 -169q-64 -62 -171 -62t-171 62t-64 169v286zM184 687q0 49 36 83t88 34q53 0 89 -34t36 -83q0 -50 -36 -84t-89 -34q-52 0 -88 34t-36 84zM259 687q0 -21 14 -35.5t35 -14.5q22 0 36 14.5
t14 35.5t-14 35t-36 14q-21 0 -35 -14t-14 -35z" />
    <glyph glyph-name="utilde.ss01" horiz-adv-x="612" 
d="M71 510h105v-275q0 -144 130 -144q129 0 129 144v275h105v-286q0 -107 -63 -169q-64 -62 -171 -62t-171 62t-64 169v286zM143 620q35 89 102 89q27 0 73 -28q33 -20 47 -20q27 0 49 46l59 -34q-34 -90 -101 -90q-27 0 -73 28q-33 20 -47 20q-28 0 -49 -46z" />
    <glyph glyph-name="y.ss01" horiz-adv-x="624" 
d="M71 205v305h105v-286q0 -65 31 -99t90 -34q67 0 105 40.5t38 109.5v269h105v-505q0 -112 -68 -179.5t-179 -67.5q-118 0 -223 76l52 80q82 -58 166 -58q67 0 107.5 41.5t40.5 111.5v56q-66 -72 -164 -72q-93 0 -149.5 58.5t-56.5 153.5z" />
    <glyph glyph-name="yacute.ss01" horiz-adv-x="624" 
d="M71 205v305h105v-286q0 -65 31 -99t90 -34q67 0 105 40.5t38 109.5v269h105v-505q0 -112 -68 -179.5t-179 -67.5q-118 0 -223 76l52 80q82 -58 166 -58q67 0 107.5 41.5t40.5 111.5v56q-66 -72 -164 -72q-93 0 -149.5 58.5t-56.5 153.5zM321 740h126l-96 -146h-94z" />
    <glyph glyph-name="ycircumflex.ss01" horiz-adv-x="624" 
d="M71 205v305h105v-286q0 -65 31 -99t90 -34q67 0 105 40.5t38 109.5v269h105v-505q0 -112 -68 -179.5t-179 -67.5q-118 0 -223 76l52 80q82 -58 166 -58q67 0 107.5 41.5t40.5 111.5v56q-66 -72 -164 -72q-93 0 -149.5 58.5t-56.5 153.5zM268 740h82l124 -146h-108l-56 72
l-57 -72h-109z" />
    <glyph glyph-name="ydieresis.ss01" horiz-adv-x="624" 
d="M71 205v305h105v-286q0 -65 31 -99t90 -34q67 0 105 40.5t38 109.5v269h105v-505q0 -112 -68 -179.5t-179 -67.5q-118 0 -223 76l52 80q82 -58 166 -58q67 0 107.5 41.5t40.5 111.5v56q-66 -72 -164 -72q-93 0 -149.5 58.5t-56.5 153.5zM171 693q18 18 46 18t45.5 -18
t17.5 -47t-17 -47q-18 -19 -46 -19t-46 18.5t-18 47.5t18 47zM356 693q18 18 46 18t45.5 -18t17.5 -47t-17 -47q-18 -19 -46 -19t-46 18.5t-18 47.5t18 47z" />
    <glyph glyph-name="ygrave.ss01" horiz-adv-x="624" 
d="M71 510h105v-286q0 -65 31 -99t90 -34q67 0 105 40.5t38 109.5v269h105v-505q0 -112 -68 -179.5t-179 -67.5q-118 0 -223 76l52 80q82 -58 166 -58q67 0 107.5 41.5t40.5 111.5v56q-66 -72 -164 -72q-93 0 -149.5 58.5t-56.5 153.5v305zM297 740l64 -146h-94l-96 146h126
z" />
    <glyph glyph-name="f_t_y.dlig" horiz-adv-x="1319" 
d="M1090 233l99 277h112l-222 -600q-53 -144 -185 -144q-47 0 -92 17l28 90q25 -9 57 -9q36 0 57.5 17t38.5 62l13 33l-188 440h-216v-245q0 -80 70 -80q28 0 69 18l33 -90q-53 -26 -113 -26q-76 0 -120 47t-44 126v250h-244v-416h-105v416h-105v94h105v64q0 80 42.5 125.5
t117.5 45.5q63 0 117 -30l-34 -83q-33 18 -70 18q-68 0 -68 -80v-60h244v119h105v-119h290l115 -276l50 -122z" />
    <glyph glyph-name="f_t_yacute.dlig" horiz-adv-x="1319" 
d="M1090 233l99 277h112l-222 -600q-53 -144 -185 -144q-47 0 -92 17l28 90q25 -9 57 -9q36 0 57.5 17t38.5 62l13 33l-188 440h-216v-245q0 -80 70 -80q28 0 69 18l33 -90q-53 -26 -113 -26q-76 0 -120 47t-44 126v250h-244v-416h-105v416h-105v94h105v64q0 80 42.5 125.5
t117.5 45.5q63 0 117 -30l-34 -83q-33 18 -70 18q-68 0 -68 -80v-60h244v119h105v-119h290l115 -276l50 -122zM1048 740h126l-96 -146h-94z" />
    <glyph glyph-name="f_t_ycircumflex.dlig" horiz-adv-x="1319" 
d="M1090 233l99 277h112l-222 -600q-53 -144 -185 -144q-47 0 -92 17l28 90q25 -9 57 -9q36 0 57.5 17t38.5 62l13 33l-188 440h-216v-245q0 -80 70 -80q28 0 69 18l33 -90q-53 -26 -113 -26q-76 0 -120 47t-44 126v250h-244v-416h-105v416h-105v94h105v64q0 80 42.5 125.5
t117.5 45.5q63 0 117 -30l-34 -83q-33 18 -70 18q-68 0 -68 -80v-60h244v119h105v-119h290l115 -276l50 -122zM1093 594l-56 72l-57 -72h-109l124 146h82l124 -146h-108z" />
    <glyph glyph-name="f_t_ydieresis.dlig" horiz-adv-x="1319" 
d="M1090 233l99 277h112l-222 -600q-53 -144 -185 -144q-47 0 -92 17l28 90q25 -9 57 -9q36 0 57.5 17t38.5 62l13 33l-188 440h-216v-245q0 -80 70 -80q28 0 69 18l33 -90q-53 -26 -113 -26q-76 0 -120 47t-44 126v250h-244v-416h-105v416h-105v94h105v64q0 80 42.5 125.5
t117.5 45.5q63 0 117 -30l-34 -83q-33 18 -70 18q-68 0 -68 -80v-60h244v119h105v-119h290l115 -276l50 -122zM1093 594l-56 72l-57 -72h-109l124 146h82l124 -146h-108z" />
    <glyph glyph-name="f_t_ygrave.dlig" horiz-adv-x="1319" 
d="M1090 233l99 277h112l-222 -600q-53 -144 -185 -144q-47 0 -92 17l28 90q25 -9 57 -9q36 0 57.5 17t38.5 62l13 33l-188 440h-216v-245q0 -80 70 -80q28 0 69 18l33 -90q-53 -26 -113 -26q-76 0 -120 47t-44 126v250h-244v-416h-105v416h-105v94h105v64q0 80 42.5 125.5
t117.5 45.5q63 0 117 -30l-34 -83q-33 18 -70 18q-68 0 -68 -80v-60h244v119h105v-119h290l115 -276l50 -122zM1024 740l64 -146h-94l-96 146h126z" />
    <glyph glyph-name="f_t_y.ss01.dlig" horiz-adv-x="1388" 
d="M1205 241v269h105v-505q0 -112 -67 -179.5t-176 -67.5q-119 0 -214 72l46 84q79 -58 162 -58q66 0 105.5 41.5t39.5 111.5v57q-64 -73 -162 -73q-92 0 -148 58.5t-56 153.5v211h-248v-245q0 -80 65 -80q27 0 64 18l33 -90q-51 -26 -108 -26q-74 0 -116.5 47t-42.5 126
v250h-244v-416h-105v416h-105v94h105v64q0 80 42.5 125.5t117.5 45.5q63 0 117 -30l-34 -83q-33 18 -70 18q-68 0 -68 -80v-60h244v119h105v-119h353v-286q0 -65 30 -99t88 -34q66 0 104 40.5t38 109.5z" />
    <glyph glyph-name="f_t_yacute.ss01.dlig" horiz-adv-x="1388" 
d="M1205 241v269h105v-505q0 -112 -67 -179.5t-176 -67.5q-119 0 -214 72l46 84q79 -58 162 -58q66 0 105.5 41.5t39.5 111.5v57q-64 -73 -162 -73q-92 0 -148 58.5t-56 153.5v211h-248v-245q0 -80 65 -80q27 0 64 18l33 -90q-51 -26 -108 -26q-74 0 -116.5 47t-42.5 126
v250h-244v-416h-105v416h-105v94h105v64q0 80 42.5 125.5t117.5 45.5q63 0 117 -30l-34 -83q-33 18 -70 18q-68 0 -68 -80v-60h244v119h105v-119h353v-286q0 -65 30 -99t88 -34q66 0 104 40.5t38 109.5zM1087 740h126l-96 -146h-94z" />
    <glyph glyph-name="f_t_ycircumflex.ss01.dlig" horiz-adv-x="1388" 
d="M1205 241v269h105v-505q0 -112 -67 -179.5t-176 -67.5q-119 0 -214 72l46 84q79 -58 162 -58q66 0 105.5 41.5t39.5 111.5v57q-64 -73 -162 -73q-92 0 -148 58.5t-56 153.5v211h-248v-245q0 -80 65 -80q27 0 64 18l33 -90q-51 -26 -108 -26q-74 0 -116.5 47t-42.5 126
v250h-244v-416h-105v416h-105v94h105v64q0 80 42.5 125.5t117.5 45.5q63 0 117 -30l-34 -83q-33 18 -70 18q-68 0 -68 -80v-60h244v119h105v-119h353v-286q0 -65 30 -99t88 -34q66 0 104 40.5t38 109.5zM1132 594l-56 72l-57 -72h-109l124 146h82l124 -146h-108z" />
    <glyph glyph-name="f_t_ydieresis.ss01.dlig" horiz-adv-x="1388" 
d="M1205 241v269h105v-505q0 -112 -67 -179.5t-176 -67.5q-119 0 -214 72l46 84q79 -58 162 -58q66 0 105.5 41.5t39.5 111.5v57q-64 -73 -162 -73q-92 0 -148 58.5t-56 153.5v211h-248v-245q0 -80 65 -80q27 0 64 18l33 -90q-51 -26 -108 -26q-74 0 -116.5 47t-42.5 126
v250h-244v-416h-105v416h-105v94h105v64q0 80 42.5 125.5t117.5 45.5q63 0 117 -30l-34 -83q-33 18 -70 18q-68 0 -68 -80v-60h244v119h105v-119h353v-286q0 -65 30 -99t88 -34q66 0 104 40.5t38 109.5zM983 580q-28 0 -46 18.5t-18 47.5t18 47t46 18t45.5 -18t17.5 -47
t-17.5 -47.5t-45.5 -18.5zM1168 580q-28 0 -46 18.5t-18 47.5t18 47t46 18t45.5 -18t17.5 -47t-17.5 -47.5t-45.5 -18.5z" />
    <glyph glyph-name="f_t_ygrave.ss01.dlig" horiz-adv-x="1388" 
d="M1205 241v269h105v-505q0 -112 -67 -179.5t-176 -67.5q-119 0 -214 72l46 84q79 -58 162 -58q66 0 105.5 41.5t39.5 111.5v57q-64 -73 -162 -73q-92 0 -148 58.5t-56 153.5v211h-248v-245q0 -80 65 -80q27 0 64 18l33 -90q-51 -26 -108 -26q-74 0 -116.5 47t-42.5 126
v250h-244v-416h-105v416h-105v94h105v64q0 80 42.5 125.5t117.5 45.5q63 0 117 -30l-34 -83q-33 18 -70 18q-68 0 -68 -80v-60h244v119h105v-119h353v-286q0 -65 30 -99t88 -34q66 0 104 40.5t38 109.5zM1063 740l64 -146h-94l-96 146h126z" />
    <glyph glyph-name="t_y.ss01.dlig" horiz-adv-x="1018" 
d="M834 241v269h105v-505q0 -112 -66.5 -179.5t-175.5 -67.5q-119 0 -214 72l46 84q79 -58 162 -58q66 0 105 41.5t39 111.5v56q-65 -72 -161 -72q-92 0 -148 58.5t-56 153.5v213h-248v-247q0 -80 64 -80q28 0 64 18l34 -90q-52 -26 -108 -26q-74 0 -116.5 47t-42.5 126v252
h-93v92h93v119h105v-119h353v-286q0 -65 30 -99t88 -34q66 0 103.5 40.5t37.5 109.5z" />
    <glyph glyph-name="t_yacute.ss01.dlig" horiz-adv-x="1018" 
d="M717 740h126l-96 -146h-94zM834 241v269h105v-505q0 -112 -66.5 -179.5t-175.5 -67.5q-119 0 -214 72l46 84q79 -58 162 -58q66 0 105 41.5t39 111.5v56q-65 -72 -161 -72q-92 0 -148 58.5t-56 153.5v213h-248v-247q0 -80 64 -80q28 0 64 18l34 -90q-52 -26 -108 -26
q-74 0 -116.5 47t-42.5 126v252h-93v92h93v119h105v-119h353v-286q0 -65 30 -99t88 -34q66 0 103.5 40.5t37.5 109.5z" />
    <glyph glyph-name="t_ycircumflex.ss01.dlig" horiz-adv-x="1018" 
d="M762 594l-56 72l-57 -72h-109l124 146h82l124 -146h-108zM834 241v269h105v-505q0 -112 -66.5 -179.5t-175.5 -67.5q-119 0 -214 72l46 84q79 -58 162 -58q66 0 105 41.5t39 111.5v56q-65 -72 -161 -72q-92 0 -148 58.5t-56 153.5v213h-248v-247q0 -80 64 -80q28 0 64 18
l34 -90q-52 -26 -108 -26q-74 0 -116.5 47t-42.5 126v252h-93v92h93v119h105v-119h353v-286q0 -65 30 -99t88 -34q66 0 103.5 40.5t37.5 109.5z" />
    <glyph glyph-name="t_ydieresis.ss01.dlig" horiz-adv-x="1018" 
d="M613 580q-28 0 -46 18.5t-18 47.5t18 47t46 18t45.5 -18t17.5 -47t-17.5 -47.5t-45.5 -18.5zM798 580q-28 0 -46 18.5t-18 47.5t18 47t46 18t45.5 -18t17.5 -47t-17.5 -47.5t-45.5 -18.5zM834 241v269h105v-505q0 -112 -66.5 -179.5t-175.5 -67.5q-119 0 -214 72l46 84
q79 -58 162 -58q66 0 105 41.5t39 111.5v56q-65 -72 -161 -72q-92 0 -148 58.5t-56 153.5v213h-248v-247q0 -80 64 -80q28 0 64 18l34 -90q-52 -26 -108 -26q-74 0 -116.5 47t-42.5 126v252h-93v92h93v119h105v-119h353v-286q0 -65 30 -99t88 -34q66 0 103.5 40.5
t37.5 109.5z" />
    <glyph glyph-name="t_ygrave.ss01.dlig" horiz-adv-x="1018" 
d="M693 740l64 -146h-94l-96 146h126zM834 241v269h105v-505q0 -112 -66.5 -179.5t-175.5 -67.5q-119 0 -214 72l46 84q79 -58 162 -58q66 0 105 41.5t39 111.5v56q-65 -72 -161 -72q-92 0 -148 58.5t-56 153.5v213h-248v-247q0 -80 64 -80q28 0 64 18l34 -90
q-52 -26 -108 -26q-74 0 -116.5 47t-42.5 126v252h-93v92h93v119h105v-119h353v-286q0 -65 30 -99t88 -34q66 0 103.5 40.5t37.5 109.5z" />
    <glyph glyph-name="t_y.dlig" horiz-adv-x="948" 
d="M719 233l99 277h112l-221 -600q-53 -144 -185 -144q-47 0 -92 17l27 90q27 -9 58 -9q36 0 57 17t38 62l13 33l-189 442h-214v-247q0 -80 69 -80q30 0 69 18l34 -90q-55 -26 -113 -26q-76 0 -120 47t-44 126v252h-93v92h93v119h105v-119h290l165 -396z" />
    <glyph glyph-name="t_yacute.dlig" horiz-adv-x="948" 
d="M680 740h126l-96 -146h-94zM719 233l99 277h112l-221 -600q-53 -144 -185 -144q-47 0 -92 17l27 90q27 -9 58 -9q36 0 57 17t38 62l13 33l-189 442h-214v-247q0 -80 69 -80q30 0 69 18l34 -90q-55 -26 -113 -26q-76 0 -120 47t-44 126v252h-93v92h93v119h105v-119h290
l165 -396z" />
    <glyph glyph-name="t_ycircumflex.dlig" horiz-adv-x="948" 
d="M725 594l-56 72l-57 -72h-109l124 146h82l124 -146h-108zM719 233l99 277h112l-221 -600q-53 -144 -185 -144q-47 0 -92 17l27 90q27 -9 58 -9q36 0 57 17t38 62l13 33l-189 442h-214v-247q0 -80 69 -80q30 0 69 18l34 -90q-55 -26 -113 -26q-76 0 -120 47t-44 126v252
h-93v92h93v119h105v-119h290l165 -396z" />
    <glyph glyph-name="t_ydieresis.dlig" horiz-adv-x="948" 
d="M576 580q-28 0 -46 18.5t-18 47.5t18 47t46 18t45.5 -18t17.5 -47t-17.5 -47.5t-45.5 -18.5zM761 580q-28 0 -46 18.5t-18 47.5t18 47t46 18t45.5 -18t17.5 -47t-17.5 -47.5t-45.5 -18.5zM719 233l99 277h112l-221 -600q-53 -144 -185 -144q-47 0 -92 17l27 90
q27 -9 58 -9q36 0 57 17t38 62l13 33l-189 442h-214v-247q0 -80 69 -80q30 0 69 18l34 -90q-55 -26 -113 -26q-76 0 -120 47t-44 126v252h-93v92h93v119h105v-119h290l165 -396z" />
    </font>
</defs>
</svg>
