<?xml version="1.0" standalone="no"?>
<!DOCTYPE svg PUBLIC "-//W3C//DTD SVG 1.1//EN" "http://www.w3.org/Graphics/SVG/1.1/DTD/svg11.dtd" >
<svg xmlns="http://www.w3.org/2000/svg" xmlns:xlink="http://www.w3.org/1999/xlink" version="1.1">
<metadata>
Created by FontForge 20170731 at Thu Oct  1 08:32:01 2020
 By Aleksey,,,
Copyright (c) 2020 by Spacetype Ltd. All rights reserved.
</metadata>
<defs>
<font id="Gogh-ExtraBold" horiz-adv-x="0" >
  <font-face 
    font-family="Gogh-ExtraBold"
    font-weight="400"
    font-stretch="normal"
    units-per-em="1000"
    panose-1="0 0 9 0 0 0 0 0 0 0"
    ascent="694"
    descent="-306"
    x-height="516"
    cap-height="700"
    bbox="-500 -348 1365 993"
    underline-thickness="50"
    underline-position="-150"
    unicode-range="U+000D-FB02"
  />
<missing-glyph horiz-adv-x="755" 
d="M685 740v-780h-614v780h614zM599 40v620h-442v-620h442zM378 589q70 0 113 -35.5t43 -96.5q0 -40 -20 -69.5t-57 -60.5q-27 -23 -36 -39.5t-9 -44.5v-18h-78v27q0 42 15.5 67.5t55.5 57.5q48 38 48 74q0 27 -21 45.5t-59 18.5q-61 0 -107 -67l-55 46q63 95 167 95z
M338 170q14 13 35 13t35.5 -13.5t14.5 -34.5t-14 -34q-15 -14 -36 -14t-35.5 13.5t-14.5 34.5t15 35z" />
    <glyph glyph-name="fi" unicode="fi" horiz-adv-x="707" 
d="M643 516v-516h-163v386h-199v-386h-163v386h-91v130h91v26q0 106 59 162.5t175 56.5q133 0 238 -64l-53 -112q-80 45 -152 45q-104 0 -104 -99v-15h362z" />
    <glyph glyph-name="fl" unicode="fl" horiz-adv-x="712" 
d="M381 776q145 0 267 -56v-720h-163v632q-47 11 -93 11q-61 0 -86 -23.5t-25 -81.5v-22h128v-130h-128v-386h-163v386h-91v130h91v26q0 234 263 234z" />
    <glyph glyph-name="f_f" unicode="ff" horiz-adv-x="804" 
d="M646 559v-45h143v-128h-143v-386h-163v386h-202v-386h-163v386h-91v130h91v62q0 85 48.5 132t134.5 47q73 0 134 -31l-43 -112q-25 13 -55 13q-56 0 -56 -68v-45h202v64q0 85 48.5 132t136.5 47q74 0 136 -31l-43 -112q-27 13 -57 13q-58 0 -58 -68z" />
    <glyph glyph-name="f_f_i" unicode="ffi" horiz-adv-x="1070" 
d="M1007 516v-516h-163v386h-198v-386h-163v386h-202v-386h-163v386h-91v130h91v62q0 85 48.5 132t134.5 47q73 0 134 -31l-43 -112q-25 13 -55 13q-56 0 -56 -68v-43h202v26q0 106 58.5 162.5t174.5 56.5q133 0 238 -64l-53 -112q-80 45 -152 45q-103 0 -103 -99v-15h361z
" />
    <glyph glyph-name="f_f_j.liga" unicode="ffj" horiz-adv-x="1070" 
d="M1007 516v-572q0 -185 -191 -185q-56 0 -111 18l30 129q32 -8 54 -8q30 0 42.5 15.5t12.5 51.5v421h-198v-386h-163v386h-202v-386h-163v386h-91v130h91v62q0 85 48.5 132t134.5 47q74 0 134 -31l-43 -112q-23 13 -55 13q-56 0 -56 -68v-43h202v26q0 105 58 162t175 57
q133 0 238 -64l-53 -112q-78 45 -152 45q-103 0 -103 -99v-15h361z" />
    <glyph glyph-name="f_f_l" unicode="ffl" horiz-adv-x="1078" 
d="M746 776q146 0 268 -56v-720h-163v632q-46 11 -93 11q-62 0 -87 -24t-25 -81v-22h128v-130h-128v-386h-163v386h-202v-386h-163v386h-91v130h91v61q0 85 48.5 132t134.5 47q75 0 134 -30l-43 -113q-23 13 -55 13q-56 0 -56 -67v-43h202v26q0 117 68 175.5t195 58.5z" />
    <glyph glyph-name="f_f_uni013C.liga" unicode="ff&#x13c;" horiz-adv-x="1078" 
d="M746 776q146 0 268 -56v-720h-163v632q-46 11 -93 11q-62 0 -87 -24t-25 -81v-22h128v-130h-128v-386h-163v386h-202v-386h-163v386h-91v130h91v61q0 85 48.5 132t134.5 47q75 0 134 -30l-43 -113q-23 13 -55 13q-56 0 -56 -67v-43h202v26q0 117 68 175.5t195 58.5z
M929 -47q39 0 61.5 -25t22.5 -65q0 -84 -89 -157l-45 38q32 35 43 68q-31 1 -49 20.5t-18 45.5q0 32 19.5 53.5t54.5 21.5z" />
    <glyph glyph-name="f_f_t.liga" unicode="fft" horiz-adv-x="1176" 
d="M1124 152l35 -134q-60 -27 -128 -27q-93 0 -141 50.5t-48 147.5v197h-196v-386h-163v386h-202v-386h-163v386h-91v130h91v62q0 85 48.5 132t135.5 47q74 0 135 -31l-43 -112q-26 13 -56 13q-57 0 -57 -68v-45h202v64q0 85 48.5 132t135.5 47q73 0 135 -31l-43 -112
q-26 13 -56 13q-57 0 -57 -68v-45h198l3 126h158v-124h127v-130h-127v-181q0 -67 58 -67q27 0 61 14z" />
    <glyph glyph-name="f_f_tcaron.liga" unicode="ff&#x165;" horiz-adv-x="1176" 
d="M1063 138q27 0 61 14l35 -134q-60 -27 -128 -27q-93 0 -141 50.5t-48 147.5v197h-196v-386h-163v386h-202v-386h-163v386h-91v130h91v62q0 85 48.5 132t135.5 47q74 0 135 -31l-43 -112q-26 13 -56 13q-57 0 -57 -68v-45h202v64q0 85 48.5 132t135.5 47q73 0 135 -31
l-43 -112q-26 13 -56 13q-57 0 -57 -68v-45h198l3 126h158v-124h127v-130h-127v-181q0 -67 58 -67zM1075 563l23 177h127l-52 -177h-98z" />
    <glyph glyph-name="f_f_uni0163.liga" unicode="ff&#x163;" horiz-adv-x="1176" 
d="M1062 -7l-6 -30q45 -2 72.5 -29t27.5 -70q0 -49 -37.5 -78t-101.5 -29q-66 0 -124 35l41 76q35 -21 71 -21q42 0 42 27q0 36 -74 21l-23 22l20 80q-128 30 -128 192v197h-196v-386h-163v386h-202v-386h-163v386h-91v130h91v62q0 85 48.5 132t135.5 47q74 0 135 -31
l-43 -112q-26 13 -56 13q-57 0 -57 -68v-45h202v64q0 85 48.5 132t135.5 47q73 0 135 -31l-43 -112q-26 13 -56 13q-57 0 -57 -68v-45h198l3 126h158v-124h127v-130h-127v-181q0 -67 58 -67q27 0 61 14l35 -134q-43 -20 -97 -25z" />
    <glyph glyph-name="f_f_uni021B.liga" unicode="ff&#x21b;" horiz-adv-x="1176" 
d="M1124 152l35 -134q-60 -27 -128 -27q-93 0 -141 50.5t-48 147.5v197h-196v-386h-163v386h-202v-386h-163v386h-91v130h91v62q0 85 48.5 132t135.5 47q74 0 135 -31l-43 -112q-26 13 -56 13q-57 0 -57 -68v-45h202v64q0 85 48.5 132t135.5 47q73 0 135 -31l-43 -112
q-26 13 -56 13q-57 0 -57 -68v-45h198l3 126h158v-124h127v-130h-127v-181q0 -67 58 -67q27 0 61 14zM1013 -47q39 0 61.5 -25t22.5 -65q0 -84 -89 -157l-45 38q32 35 43 68q-31 1 -49 20.5t-18 45.5q0 32 19.5 53.5t54.5 21.5z" />
    <glyph glyph-name="f_j.liga" unicode="fj" horiz-adv-x="705" 
d="M643 516v-572q0 -185 -191 -185q-57 0 -112 18l31 129q30 -8 53 -8q31 0 43.5 16t12.5 51v421h-199v-386h-163v386h-91v130h91v26q0 106 59 162.5t175 56.5q132 0 237 -64l-53 -112q-78 45 -152 45q-103 0 -103 -99v-15h362z" />
    <glyph glyph-name="f_uni013C.liga" unicode="f&#x13c;" horiz-adv-x="712" 
d="M381 776q145 0 267 -56v-720h-163v632q-47 11 -93 11q-61 0 -86 -23.5t-25 -81.5v-22h128v-130h-128v-386h-163v386h-91v130h91v26q0 234 263 234zM564 -47q39 0 61.5 -25t22.5 -65q0 -84 -89 -157l-45 38q32 35 43 68q-31 1 -49 20.5t-18 45.5q0 32 19.5 53.5t54.5 21.5
z" />
    <glyph glyph-name="f_t.liga" unicode="ft" horiz-adv-x="811" 
d="M759 152l36 -134q-60 -27 -129 -27q-93 0 -141 50.5t-48 147.5v197h-196v-386h-163v386h-91v130h91v62q0 85 48.5 132t135.5 47q74 0 135 -31l-43 -112q-26 13 -56 13q-57 0 -57 -68v-45h198l3 126h158v-124h127v-130h-127v-181q0 -67 58 -67q27 0 61 14z" />
    <glyph glyph-name="f_tcaron.liga" unicode="f&#x165;" horiz-adv-x="811" 
d="M698 138q27 0 61 14l36 -134q-60 -27 -129 -27q-93 0 -141 50.5t-48 147.5v197h-196v-386h-163v386h-91v130h91v62q0 85 48.5 132t135.5 47q74 0 135 -31l-43 -112q-26 13 -56 13q-57 0 -57 -68v-45h198l3 126h158v-124h127v-130h-127v-181q0 -67 58 -67zM711 563l23 177
h127l-52 -177h-98z" />
    <glyph glyph-name="f_uni0163.liga" unicode="f&#x163;" horiz-adv-x="811" 
d="M697 -7l-6 -30q45 -2 72.5 -29t27.5 -70q0 -49 -37.5 -78t-101.5 -29q-66 0 -124 35l41 76q35 -21 71 -21q42 0 42 27q0 36 -74 21l-23 22l20 80q-128 30 -128 192v197h-196v-386h-163v386h-91v130h91v62q0 85 48.5 132t135.5 47q74 0 135 -31l-43 -112q-26 13 -56 13
q-57 0 -57 -68v-45h198l3 126h158v-124h127v-130h-127v-181q0 -67 58 -67q27 0 61 14l36 -134q-45 -20 -98 -25z" />
    <glyph glyph-name="f_uni021B.liga" unicode="f&#x21b;" horiz-adv-x="811" 
d="M759 152l36 -134q-60 -27 -129 -27q-93 0 -141 50.5t-48 147.5v197h-196v-386h-163v386h-91v130h91v62q0 85 48.5 132t135.5 47q74 0 135 -31l-43 -112q-26 13 -56 13q-57 0 -57 -68v-45h198l3 126h158v-124h127v-130h-127v-181q0 -67 58 -67q27 0 61 14zM649 -47
q39 0 61.5 -25t22.5 -65q0 -84 -89 -157l-45 38q32 35 43 68q-31 1 -49 20.5t-18 45.5q0 32 19.5 53.5t54.5 21.5z" />
    <glyph glyph-name=".notdef" horiz-adv-x="755" 
d="M685 740v-780h-614v780h614zM599 40v620h-442v-620h442zM378 589q70 0 113 -35.5t43 -96.5q0 -40 -20 -69.5t-57 -60.5q-27 -23 -36 -39.5t-9 -44.5v-18h-78v27q0 42 15.5 67.5t55.5 57.5q48 38 48 74q0 27 -21 45.5t-59 18.5q-61 0 -107 -67l-55 46q63 95 167 95z
M338 170q14 13 35 13t35.5 -13.5t14.5 -34.5t-14 -34q-15 -14 -36 -14t-35.5 13.5t-14.5 34.5t15 35z" />
    <glyph glyph-name="uni0000" horiz-adv-x="600" 
 />
    <glyph glyph-name="uni0000" horiz-adv-x="600" 
 />
    <glyph glyph-name="uni000D" horiz-adv-x="333" 
 />
    <glyph glyph-name="uni000D.1" unicode="&#xd;" horiz-adv-x="228" 
 />
    <glyph glyph-name="space" unicode=" " horiz-adv-x="228" 
 />
    <glyph glyph-name="exclam" unicode="!" horiz-adv-x="295" 
d="M65 700h164l-3 -244l-13 -254h-132l-12 254zM54 78q0 39 26.5 63.5t66.5 24.5t66.5 -24.5t26.5 -63.5t-26 -63q-27 -25 -67 -25t-66.5 24.5t-26.5 63.5z" />
    <glyph glyph-name="quotedbl" unicode="&#x22;" horiz-adv-x="387" 
d="M164 757l-5 -240h-116l-5 240h126zM223 757h125l-5 -240h-115z" />
    <glyph glyph-name="numbersign" unicode="#" horiz-adv-x="728" 
d="M139 273l47 174h-90v121h123l36 132h144l-36 -132h123l36 132h144l-36 -132h87v-121h-120l-47 -174h82v-121h-115l-41 -152h-144l41 152h-123l-41 -152h-144l41 152h-95v121h128zM409 269l50 182h-131l-50 -182h131z" />
    <glyph glyph-name="dollar" unicode="$" horiz-adv-x="628" 
d="M29 84l73 125q101 -71 214 -71q53 0 81.5 16t28.5 45q0 28 -31.5 47.5t-110.5 41.5q-117 31 -172 83t-55 136q0 79 53 132t148 66v89h126v-90q106 -16 196 -80l-74 -121q-36 28 -87 45t-99 17q-43 0 -68 -15t-25 -40q0 -26 28 -44.5t105 -40.5q123 -34 181 -87t58 -136
q0 -82 -58 -137.5t-157 -69.5v-92h-126v92q-131 15 -229 89z" />
    <glyph glyph-name="percent" unicode="%" horiz-adv-x="809" 
d="M20 543q0 73 48 119t124 46t123.5 -46t47.5 -119t-47 -119q-48 -46 -124 -46t-124 46t-48 119zM444 157q0 73 48 119t124 46t123.5 -46t47.5 -119t-47 -119q-48 -46 -124 -46t-124 46t-48 119zM603 719l83 -59l-482 -679l-84 59zM127 543q0 -29 19 -48q18 -19 46 -19
t46 19t18 48t-18 47.5t-46 18.5t-46.5 -18.5t-18.5 -47.5zM570 110q18 -19 46 -19t46 18.5t18 47.5t-18 48t-46 19t-46.5 -19t-18.5 -48t19 -47z" />
    <glyph glyph-name="ampersand" unicode="&#x26;" horiz-adv-x="707" 
d="M41 178q0 56 34.5 105t95.5 82l-10 9q-72 71 -72 153q0 84 62 134t164 50q97 0 158 -47t61 -122q0 -116 -138 -202l104 -100q29 43 53 121l125 -38q-27 -103 -79 -178l68 -65l-100 -101l-68 67q-84 -58 -200 -58q-118 0 -188 51.5t-70 138.5zM192 196q0 -37 31 -57.5
t83 -20.5q56 0 95 23l-143 138q-66 -35 -66 -83zM238 528q0 -36 48 -83l21 -20q78 51 78 99q0 28 -20.5 45.5t-53.5 17.5q-34 0 -53.5 -16t-19.5 -43z" />
    <glyph glyph-name="quotesingle" unicode="'" horiz-adv-x="210" 
d="M167 517h-124l-5 240h134z" />
    <glyph glyph-name="parenleft" unicode="(" horiz-adv-x="361" 
d="M35 295q0 282 214 481l99 -86q-155 -187 -155 -395t155 -395l-99 -86q-214 199 -214 481z" />
    <glyph glyph-name="parenright" unicode=")" horiz-adv-x="361" 
d="M13 -100q156 188 156 395t-156 395l99 86q214 -199 214 -481t-214 -481z" />
    <glyph glyph-name="asterisk" unicode="*" horiz-adv-x="387" 
d="M243 418h-99l8 90l-74 -52l-49 85l83 38l-83 37l49 86l74 -52l-8 90h99l-8 -90l74 52l49 -85l-83 -38l83 -38l-49 -85l-74 52z" />
    <glyph glyph-name="plus" unicode="+" horiz-adv-x="529" 
d="M192 373v155h144v-155h149v-138h-149v-155h-144v155h-148v138h148z" />
    <glyph glyph-name="comma" unicode="," horiz-adv-x="274" 
d="M67 143q25 25 65 25q46 0 72.5 -34t26.5 -92q0 -61 -30.5 -120t-85.5 -103l-50 46q54 61 61 125q-37 2 -61 27t-24 61q0 39 26 65z" />
    <glyph glyph-name="hyphen" unicode="-" horiz-adv-x="454" 
d="M418 338v-135h-383v135h383z" />
    <glyph glyph-name="period" unicode="." horiz-adv-x="268" 
d="M41 79q0 39 26.5 64t66.5 25t66.5 -25t26.5 -64q0 -40 -26 -64q-27 -25 -67 -25t-66.5 24.5t-26.5 64.5z" />
    <glyph glyph-name="slash" unicode="/" horiz-adv-x="496" 
d="M160 -47h-136l313 787h136z" />
    <glyph glyph-name="zero" unicode="0" horiz-adv-x="698" 
d="M124 616q82 96 225 96t224.5 -96.5t81.5 -265.5q0 -168 -82 -265t-224 -97q-143 0 -225 96.5t-82 265.5t82 266zM212 350q0 -98 37 -155q36 -58 100 -58t100.5 57t36.5 156t-36.5 156t-100.5 57t-100.5 -57.5t-36.5 -155.5z" />
    <glyph glyph-name="one" unicode="1" horiz-adv-x="423" 
d="M60 603q114 0 157 97h135v-700h-165v473h-156v130h29z" />
    <glyph glyph-name="two" unicode="2" horiz-adv-x="603" 
d="M299 712q111 0 178.5 -58.5t67.5 -155.5q0 -71 -34.5 -131t-113.5 -126l-115 -97l115 3h165v-147h-519v123l254 231q82 75 82 133q0 32 -24.5 53t-63.5 21q-77 0 -143 -89l-107 102q101 138 258 138z" />
    <glyph glyph-name="three" unicode="3" horiz-adv-x="584" 
d="M22 91l85 115q65 -70 158 -70q50 0 81 25t31 66q0 54 -41 70t-80 16q-27 0 -59 -6l-40 87l157 167h-253v139h447v-114l-157 -165q85 -10 138 -67t53 -141q0 -101 -73.5 -163t-195.5 -62q-73 0 -139 27t-112 76z" />
    <glyph glyph-name="four" unicode="4" horiz-adv-x="656" 
d="M24 120v130l368 450h152v-440h83v-140h-83v-120h-155v120h-365zM395 256v95l3 141l-94 -117l-98 -119h189z" />
    <glyph glyph-name="five" unicode="5" horiz-adv-x="585" 
d="M22 91l85 114q68 -71 158 -71q54 0 84.5 26t30.5 72q0 45 -35 71.5t-95 26.5q-57 0 -119 -23l-67 43l26 350h420v-140h-284l-9 -120q43 12 93 12q104 0 169.5 -62.5t65.5 -164.5q0 -109 -71.5 -173t-193.5 -64q-161 0 -258 103z" />
    <glyph glyph-name="six" unicode="6" horiz-adv-x="627" 
d="M124 611q81 99 225 99q118 0 210 -64l-60 -121q-60 44 -140 44q-72 0 -115 -44t-49 -123q63 68 164 68q99 0 165.5 -68.5t66.5 -169.5q0 -109 -74 -176.5t-193 -67.5q-131 0 -206.5 91.5t-75.5 254.5q0 177 82 277zM245 153q30 -30 79 -30q50 0 80.5 30t30.5 79
t-30.5 79.5t-80.5 30.5q-49 0 -79 -30.5t-30 -79.5t30 -79z" />
    <glyph glyph-name="seven" unicode="7" horiz-adv-x="534" 
d="M20 549v151h498v-121l-255 -579h-179l245 549h-309z" />
    <glyph glyph-name="eight" unicode="8" horiz-adv-x="629" 
d="M143 364q-88 55 -88 154q0 88 71 141t189 53t189 -53t71 -141q0 -98 -89 -155q111 -55 111 -168q0 -94 -77 -150.5t-205 -56.5q-129 0 -205.5 56t-76.5 151q0 112 110 169zM232 139q32 -26 83 -26t82.5 26t31.5 69q0 42 -31.5 68t-82.5 26t-83 -26t-32 -68q0 -43 32 -69z
M243 445q28 -23 72 -23t71.5 22.5t27.5 59.5t-27 60q-28 23 -72 23t-72 -23t-28 -60t28 -59z" />
    <glyph glyph-name="nine" unicode="9" horiz-adv-x="626" 
d="M109 643q74 68 191 68q134 0 208.5 -91t74.5 -255q0 -179 -82 -278t-227 -99q-113 0 -211 59l56 126q64 -42 147 -42q73 0 115 42.5t50 120.5q-65 -67 -165 -67q-99 0 -165 68t-66 170q0 109 74 178zM191 465q0 -49 31 -79.5t80 -30.5q50 0 80.5 30.5t30.5 79.5
t-30.5 79.5t-80.5 30.5q-49 0 -80 -30.5t-31 -79.5z" />
    <glyph glyph-name="colon" unicode=":" horiz-adv-x="288" 
d="M78 143q26 25 66 25t66.5 -25t26.5 -64q0 -40 -26 -64q-27 -25 -67 -25t-66.5 24.5t-26.5 64.5q0 39 27 64zM78 433q26 25 66 25t66.5 -25t26.5 -64q0 -40 -26 -64q-27 -25 -67 -25t-66.5 24.5t-26.5 64.5q0 39 27 64z" />
    <glyph glyph-name="semicolon" unicode=";" horiz-adv-x="292" 
d="M53 78q0 39 25.5 64.5t65.5 25.5q46 0 72.5 -34t26.5 -92q0 -61 -30.5 -120t-85.5 -103l-50 46q54 61 61 125q-37 2 -61 27t-24 61zM53 369q0 39 26.5 64t66.5 25t66.5 -25t26.5 -64q0 -40 -26 -64q-27 -25 -67 -25t-66.5 24.5t-26.5 64.5z" />
    <glyph glyph-name="less" unicode="&#x3c;" horiz-adv-x="533" 
d="M495 554v-155l-161 -67l-85 -32l85 -33l161 -68v-154l-462 207v95z" />
    <glyph glyph-name="equal" unicode="=" horiz-adv-x="516" 
d="M472 473v-132h-428v132h428zM44 133v132h428v-132h-428z" />
    <glyph glyph-name="greater" unicode="&#x3e;" horiz-adv-x="533" 
d="M199 267l85 33l-85 32l-161 68v154l462 -207v-95l-462 -207v155z" />
    <glyph glyph-name="question" unicode="?" horiz-adv-x="546" 
d="M14 599q108 114 253 114q108 0 173 -53.5t65 -142.5q0 -107 -109 -185q-31 -21 -43.5 -42t-12.5 -56v-32h-146v45q0 57 21 94t69 71q34 25 46 44.5t12 42.5q0 32 -23.5 51.5t-68.5 19.5q-84 0 -152 -78zM201 142q26 24 66 24t66.5 -24.5t26.5 -63.5t-26 -63
q-27 -25 -67 -25t-66.5 24.5t-26.5 63.5t27 64z" />
    <glyph glyph-name="at" unicode="@" horiz-adv-x="1029" 
d="M172 575q135 133 343 133q212 0 344.5 -123.5t132.5 -317.5q0 -118 -57.5 -181t-139.5 -63q-108 0 -151 81q-59 -76 -155 -76q-88 0 -144.5 58.5t-56.5 149.5q0 92 56.5 150t144.5 58q81 0 136 -55l2 44h113v-195q0 -96 52 -96q64 0 64 125q0 139 -93.5 225.5
t-249.5 86.5q-150 0 -245 -96t-95 -247t95.5 -247t246.5 -96q131 0 221 64l59 -109q-117 -83 -280 -83q-212 0 -345 131t-133 340q0 206 135 339zM422 236q0 -41 25.5 -67.5t63.5 -26.5q39 0 64 26.5t25 67.5t-25 67.5t-64 26.5q-38 0 -63.5 -27t-25.5 -67z" />
    <glyph glyph-name="A" unicode="A" horiz-adv-x="750" 
d="M284 700h184l268 -700h-177l-42 114h-283l-41 -114h-180zM271 238h210l-104 287z" />
    <glyph glyph-name="B" unicode="B" horiz-adv-x="656" 
d="M71 0v700h319q95 0 153 -51t58 -134q0 -96 -82 -152q48 -26 76 -71t28 -100q0 -86 -60.5 -139t-158.5 -53h-333zM235 292v-165h125q46 0 72 22t26 61q0 38 -26 60t-72 22h-125zM235 573v-158h115q42 0 67 22q24 21 24 57t-24.5 57.5t-66.5 21.5h-115z" />
    <glyph glyph-name="C" unicode="C" horiz-adv-x="721" 
d="M136 610q98 103 258 103q173 0 296 -139l-105 -110q-73 92 -180 92q-86 0 -139 -57.5t-53 -148.5q0 -92 53.5 -149t141.5 -57q115 0 192 97l105 -110q-112 -144 -308 -144q-162 0 -261 102t-99 261q0 156 99 260z" />
    <glyph glyph-name="D" unicode="D" horiz-adv-x="750" 
d="M71 0v700h280q164 0 262.5 -95.5t98.5 -254.5t-98.5 -254.5t-262.5 -95.5h-280zM243 544v-388h90q98 0 152 51t54 143t-54 143t-152 51h-90z" />
    <glyph glyph-name="E" unicode="E" horiz-adv-x="599" 
d="M71 0v700h476v-137h-308v-142h282v-135h-282v-147h320v-139h-488z" />
    <glyph glyph-name="F" unicode="F" horiz-adv-x="562" 
d="M534 700v-144h-292v-162h264v-140h-263v-254h-172v700h463z" />
    <glyph glyph-name="G" unicode="G" horiz-adv-x="766" 
d="M37 350q0 158 103 260.5t266 102.5t282 -108l-92 -113q-73 70 -182 70q-92 0 -149 -59.5t-57 -152.5q0 -95 58 -153.5t156 -58.5q84 0 152 40v91h-197v131h342v-300q-119 -113 -305 -113q-169 0 -273 101t-104 262z" />
    <glyph glyph-name="H" unicode="H" horiz-adv-x="745" 
d="M71 0v700h172v-265h259v265h173v-700h-173v277h-259v-277h-172z" />
    <glyph glyph-name="I" unicode="I" horiz-adv-x="314" 
d="M243 0h-172v700h172v-700z" />
    <glyph glyph-name="J" unicode="J" horiz-adv-x="496" 
d="M63 167q48 -24 99 -24t74 32.5t23 99.5v425h172v-435q0 -277 -251 -277q-91 0 -176 44z" />
    <glyph glyph-name="K" unicode="K" horiz-adv-x="681" 
d="M71 0v700h172v-270h55l165 270h200l-218 -343l226 -357h-202l-171 277h-55v-277h-172z" />
    <glyph glyph-name="L" unicode="L" horiz-adv-x="567" 
d="M243 700v-541h296v-159h-468v700h172z" />
    <glyph glyph-name="M" unicode="M" horiz-adv-x="884" 
d="M223 700l218 -297l219 297h153v-700h-171v431l-162 -226h-77l-162 226v-431h-170v700h152z" />
    <glyph glyph-name="N" unicode="N" horiz-adv-x="758" 
d="M71 0v700h139l312 -414v414h165v-700h-140l-311 413v-413h-165z" />
    <glyph glyph-name="O" unicode="O" horiz-adv-x="821" 
d="M143 610q106 103 267 103q163 0 268 -102.5t105 -260.5t-105 -260.5t-268 -102.5q-161 0 -267 103t-106 260t106 260zM213 350q0 -91 55.5 -148.5t141.5 -57.5q87 0 142.5 57.5t55.5 148.5t-55.5 148.5t-142.5 57.5q-86 0 -141.5 -57.5t-55.5 -148.5z" />
    <glyph glyph-name="P" unicode="P" horiz-adv-x="641" 
d="M71 700h279q126 0 198.5 -67t72.5 -184q0 -115 -72.5 -183t-198.5 -68h-107v-198h-172v700zM332 340q55 0 85.5 28.5t30.5 78.5q0 51 -30.5 79t-85.5 28h-92v-214h92z" />
    <glyph glyph-name="Q" unicode="Q" horiz-adv-x="821" 
d="M37 350q0 157 106 260t267 103q163 0 268 -102.5t105 -260.5q0 -153 -100 -255l97 -137l-143 -99l-100 147q-62 -19 -127 -19q-161 0 -267 103t-106 260zM269 202q55 -58 141 -58q87 0 142.5 57.5t55.5 148.5t-55.5 148.5t-142.5 57.5q-86 0 -141 -57q-56 -58 -56 -149
t56 -148z" />
    <glyph glyph-name="R" unicode="R" horiz-adv-x="680" 
d="M365 700q121 0 194.5 -65t73.5 -172q0 -153 -133 -211l155 -252h-187l-132 226h-93v-226h-172v700h294zM348 356q54 0 84 27q29 26 29 74t-29.5 75t-83.5 27h-108v-203h108z" />
    <glyph glyph-name="S" unicode="S" horiz-adv-x="629" 
d="M29 85l74 124q102 -71 214 -71q53 0 81.5 16t28.5 45q0 28 -31.5 47.5t-110.5 41.5q-117 31 -172 83.5t-55 136.5q0 90 68.5 145.5t188.5 55.5q151 0 267 -86l-75 -120q-36 28 -87 45t-99 17q-43 0 -68 -15t-25 -40q0 -26 28 -44.5t105 -40.5q123 -34 181 -88t58 -137
q0 -94 -76.5 -151.5t-202.5 -57.5q-168 0 -292 94z" />
    <glyph glyph-name="T" unicode="T" horiz-adv-x="625" 
d="M23 542v158h579v-158h-204v-542h-172v542h-203z" />
    <glyph glyph-name="U" unicode="U" horiz-adv-x="730" 
d="M65 700h172v-410q0 -145 128 -145q62 0 95 37t33 108v410h172v-424q0 -135 -80.5 -211.5t-219.5 -76.5q-140 0 -220 76.5t-80 211.5v424z" />
    <glyph glyph-name="V" unicode="V" horiz-adv-x="726" 
d="M13 700h184l97 -276l71 -220l70 220l96 276h182l-257 -700h-182z" />
    <glyph glyph-name="W" unicode="W" horiz-adv-x="1101" 
d="M17 700h178l75 -257l62 -225l138 456h161l140 -457l62 226l74 257h177l-212 -700h-183l-82 255l-56 182l-55 -182l-82 -255h-182z" />
    <glyph glyph-name="X" unicode="X" horiz-adv-x="695" 
d="M244 361l-217 339h195l70 -111l59 -99l58 99l67 111h194l-216 -340l230 -360h-196l-70 113l-70 118l-70 -118l-70 -113h-197z" />
    <glyph glyph-name="Y" unicode="Y" horiz-adv-x="698" 
d="M11 700h196l79 -145l64 -125l67 125l80 145h190l-252 -441v-259h-172v259z" />
    <glyph glyph-name="Z" unicode="Z" horiz-adv-x="625" 
d="M259 148l327 1v-149h-540v123l314 430l-302 -1v148h516v-122z" />
    <glyph glyph-name="bracketleft" unicode="[" horiz-adv-x="387" 
d="M353 731v-128h-131v-616h131v-128h-278v872h278z" />
    <glyph glyph-name="backslash" unicode="\" horiz-adv-x="496" 
d="M160 740l313 -787h-136l-313 787h136z" />
    <glyph glyph-name="bracketright" unicode="]" horiz-adv-x="387" 
d="M165 -13v616h-131v128h278v-872h-278v128h131z" />
    <glyph glyph-name="asciicircum" unicode="^" horiz-adv-x="505" 
d="M29 438l173 285h101l173 -285h-142l-83 145l-84 -145h-138z" />
    <glyph glyph-name="underscore" unicode="_" horiz-adv-x="676" 
d="M642 -84v-99h-609v99h609z" />
    <glyph glyph-name="grave" unicode="`" horiz-adv-x="428" 
d="M263 740l65 -146h-125l-103 146h163z" />
    <glyph glyph-name="a" unicode="a" horiz-adv-x="588" 
d="M94 281q60 46 165 46q60 0 121 -16v13q0 41 -26.5 60t-84.5 19q-71 0 -162 -39l-39 113q110 50 223 50q115 0 177 -54t62 -152v-321h-141l-3 63q-70 -70 -176 -70q-80 0 -128.5 44.5t-48.5 116.5q0 81 61 127zM190 162q0 -56 70 -56q50 0 84 28.5t38 71.5q-59 17 -102 17
q-90 0 -90 -61z" />
    <glyph glyph-name="b" unicode="b" horiz-adv-x="671" 
d="M64 0v740h163v-284q66 71 168 71q106 0 174 -75t68 -194t-68 -194.5t-174 -75.5q-116 0 -180 81l-2 -69h-149zM260 164q35 -37 90 -37q56 0 91 36.5t35 94.5t-35 94.5t-91 36.5t-91 -36.5t-35 -94.5t36 -94z" />
    <glyph glyph-name="c" unicode="c" horiz-adv-x="555" 
d="M112 453q77 76 198 76q139 0 218 -90l-89 -101q-51 51 -119 51q-55 0 -90 -36.5t-35 -94.5t34.5 -94.5t91.5 -36.5q80 0 125 61l94 -96q-84 -105 -231 -105q-121 0 -198 76t-77 195t78 195z" />
    <glyph glyph-name="d" unicode="d" horiz-adv-x="672" 
d="M34 258q0 119 68 194t174 75q103 0 169 -72v285h162v-740h-149l-2 69q-65 -81 -180 -81q-106 0 -174 75.5t-68 194.5zM195 258q0 -58 35 -94q35 -37 91 -37t91 36.5t35 94.5t-35 94.5t-91 36.5t-91 -36.5t-35 -94.5z" />
    <glyph glyph-name="e" unicode="e" horiz-adv-x="610" 
d="M111 453q76 76 198 76q137 0 204.5 -84t67.5 -184q0 -30 -5 -62h-385q12 -41 50.5 -64.5t95.5 -23.5q85 0 155 51l63 -102q-92 -73 -230 -73q-132 0 -211.5 74.5t-79.5 195.5q0 120 77 196zM189 303h242q-10 46 -41.5 73.5t-79.5 27.5q-47 0 -79.5 -27.5t-41.5 -73.5z
" />
    <glyph glyph-name="f" unicode="f" horiz-adv-x="439" 
d="M27 386v130h91v62q0 85 49 132t136 47q74 0 136 -31l-43 -112q-26 13 -57 13q-58 0 -58 -68v-45h142v-128h-142v-386h-163v386h-91z" />
    <glyph glyph-name="g" unicode="g" horiz-adv-x="643" 
d="M21 -166q0 64 45 107q-33 33 -33 83q0 76 70 124q-46 57 -46 139q0 105 69 167t187 62h309v-124h-94q41 -47 41 -117q0 -96 -70 -154t-186 -58q-61 0 -110 17q-23 -14 -23 -35q0 -24 33.5 -33.5t131.5 -13.5q142 -5 209 -43.5t67 -114.5q0 -84 -77 -131t-213 -47
q-152 0 -231 44t-79 128zM209 287q0 -45 29 -74t74 -29q46 0 75 29t29 74q0 44 -29 73t-75 29q-45 0 -74 -29t-29 -73zM159 -151q0 -63 163 -63q149 0 149 46q0 21 -31 31t-106 11q-97 3 -157 16q-18 -20 -18 -41z" />
    <glyph glyph-name="h" unicode="h" horiz-adv-x="636" 
d="M64 740h163v-287q65 71 161 71q86 0 137.5 -56t51.5 -145v-323h-163v279q0 101 -86 101q-48 0 -74.5 -29.5t-26.5 -80.5v-270h-163v740z" />
    <glyph glyph-name="i" unicode="i" horiz-adv-x="291" 
d="M64 516h163v-516h-163v516zM73 739q27 26 73 26q44 0 71 -26t27 -69t-27 -69.5t-71 -26.5q-46 0 -73 26t-27 70q0 43 27 69z" />
    <glyph glyph-name="j" unicode="j" horiz-adv-x="289" 
d="M-47 -94q30 -8 53 -8q31 0 43.5 15.5t12.5 51.5v551h163v-572q0 -185 -191 -185q-58 0 -111 18zM72 739q27 26 72 26q44 0 71 -26t27 -69t-27 -69.5t-71 -26.5q-45 0 -72.5 26.5t-27.5 69.5t28 69z" />
    <glyph glyph-name="k" unicode="k" horiz-adv-x="592" 
d="M64 0v740h163v-406h48l111 182h187l-162 -249l172 -267h-190l-121 197h-45v-197h-163z" />
    <glyph glyph-name="l" unicode="l" horiz-adv-x="291" 
d="M227 0h-163v740h163v-740z" />
    <glyph glyph-name="m" unicode="m" horiz-adv-x="970" 
d="M64 0v516h149l2 -70q68 78 164 78q106 0 154 -87q73 87 182 87q90 0 143.5 -55t53.5 -147v-322h-163v279q0 49 -22.5 75t-63.5 26q-43 0 -69 -30t-26 -80v-270h-160v279q0 49 -22.5 75t-63.5 26q-43 0 -69 -30t-26 -80v-270h-163z" />
    <glyph glyph-name="n" unicode="n" horiz-adv-x="636" 
d="M64 0v516h149l2 -71q69 79 170 79q88 0 140 -56t52 -146v-322h-163v278q0 102 -86 102q-48 0 -74.5 -30t-26.5 -81v-269h-163z" />
    <glyph glyph-name="o" unicode="o" horiz-adv-x="643" 
d="M114 454q79 75 208 75q128 0 207.5 -75t79.5 -196t-79.5 -196t-207.5 -75q-129 0 -208.5 75t-79.5 196t80 196zM230 163q35 -36 92 -36q56 0 91 36t35 95q0 58 -35 94.5t-91 36.5t-91.5 -36.5t-35.5 -94.5q0 -59 35 -95z" />
    <glyph glyph-name="p" unicode="p" horiz-adv-x="671" 
d="M213 516l2 -75q67 86 180 86q106 0 174 -75t68 -194t-68 -194.5t-174 -75.5q-104 0 -168 67v-285h-163v746h149zM260 164q35 -37 90 -37q56 0 91 36.5t35 94.5t-35 94.5t-91 36.5q-55 0 -90.5 -36.5t-35.5 -94.5t36 -94z" />
    <glyph glyph-name="q" unicode="q" horiz-adv-x="672" 
d="M34 258q0 119 68 194t174 75q111 0 180 -85l2 74h149v-746h-162v286q-63 -68 -169 -68t-174 75.5t-68 194.5zM195 258q0 -58 35 -94.5t91 -36.5q55 0 90.5 36.5t35.5 94.5t-35 94.5t-91 36.5t-91 -36.5t-35 -94.5z" />
    <glyph glyph-name="r" unicode="r" horiz-adv-x="451" 
d="M213 516l2 -70q59 77 158 77q38 0 73 -12l-36 -151q-33 10 -64 10q-119 0 -119 -145v-225h-163v516h149z" />
    <glyph glyph-name="s" unicode="s" horiz-adv-x="506" 
d="M26 59l58 111q92 -54 172 -54q68 0 68 37q0 31 -86 51q-98 23 -143 63t-45 105q0 70 52.5 111.5t148.5 41.5q118 0 218 -62l-58 -107q-29 20 -72 33t-79 13q-59 0 -59 -32q0 -17 18.5 -28t69.5 -23q190 -43 190 -165q0 -75 -60 -119.5t-161 -44.5q-125 0 -232 69z" />
    <glyph glyph-name="t" unicode="t" horiz-adv-x="439" 
d="M23 387v129h85l3 124h157v-124h128v-129h-128v-182q0 -67 58 -67q28 0 62 14l35 -134q-60 -27 -128 -27q-94 0 -142 50.5t-48 147.5v198h-82z" />
    <glyph glyph-name="u" unicode="u" horiz-adv-x="632" 
d="M57 516h163v-279q0 -101 86 -101q48 0 74.5 30t26.5 81v269h163v-516h-149l-2 70q-68 -78 -170 -78q-88 0 -140 56t-52 146v322z" />
    <glyph glyph-name="v" unicode="v" horiz-adv-x="599" 
d="M12 516h176l76 -221l36 -111l37 111l76 221h174l-206 -516h-163z" />
    <glyph glyph-name="w" unicode="w" horiz-adv-x="896" 
d="M15 516h171l43 -154l48 -177l105 312h134l107 -316l90 335h168l-170 -516h-158l-104 307l-104 -307h-158z" />
    <glyph glyph-name="x" unicode="x" horiz-adv-x="560" 
d="M182 261l-163 255h172l55 -87l34 -58l34 58l54 87h173l-162 -255l171 -261h-175l-55 86l-40 66l-40 -66l-56 -86h-174z" />
    <glyph glyph-name="y" unicode="y" horiz-adv-x="600" 
d="M189 516l84 -230l37 -109l31 109l74 230h173l-217 -600q-56 -151 -213 -151q-53 0 -104 17l30 135q32 -9 57 -9q69 0 97 68l-226 540h177z" />
    <glyph glyph-name="z" unicode="z" horiz-adv-x="515" 
d="M245 134l92 2h143v-136h-439v107l229 279l-103 -2h-116v132h419v-102z" />
    <glyph glyph-name="braceleft" unicode="{" horiz-adv-x="420" 
d="M29 358q46 0 66 19.5t20 65.5v134q0 81 43 123.5t122 42.5h115v-128h-69q-64 0 -64 -69v-125q0 -84 -64 -125q64 -42 64 -126v-125q0 -69 64 -69h69v-128h-115q-78 0 -121.5 47t-43.5 129v124q0 46 -20 65.5t-66 19.5v125z" />
    <glyph glyph-name="bar" unicode="|" horiz-adv-x="246" 
d="M187 -141h-129v881h129v-881z" />
    <glyph glyph-name="braceright" unicode="}" horiz-adv-x="420" 
d="M25 -24h70q63 0 63 69v125q0 84 64 126q-64 41 -64 125v125q0 69 -63 69h-70v128h115q79 0 122 -42.5t43 -123.5v-134q0 -46 20 -65.5t66 -19.5v-125q-46 0 -66 -19.5t-20 -65.5v-124q0 -82 -43.5 -129t-121.5 -47h-115v128z" />
    <glyph glyph-name="asciitilde" unicode="~" horiz-adv-x="633" 
d="M44 225q11 96 55 148t115 52q62 0 120 -43q37 -28 69 -28q48 0 54 71l135 -22q-11 -96 -55 -148t-115 -52q-60 0 -120 43q-37 28 -69 28q-48 0 -55 -71z" />
    <glyph glyph-name="uni00A0" unicode="&#xa0;" horiz-adv-x="228" 
 />
    <glyph glyph-name="exclamdown" unicode="&#xa1;" horiz-adv-x="295" 
d="M66 -163l3 244l12 254h132l13 -254l4 -244h-164zM54 459q0 39 27 64q26 24 66 24t66.5 -24.5t26.5 -63.5t-26.5 -63.5t-66.5 -24.5t-66.5 24.5t-26.5 63.5z" />
    <glyph glyph-name="cent" unicode="&#xa2;" horiz-adv-x="555" 
d="M34 258q0 103 58.5 174.5t155.5 90.5v84h123v-83q98 -19 157 -85l-89 -101q-51 51 -119 51q-55 0 -90 -36.5t-35 -94.5t34.5 -94.5t91.5 -36.5q80 0 125 61l94 -96q-64 -80 -169 -100v-94h-123v95q-97 18 -155.5 90t-58.5 175z" />
    <glyph glyph-name="sterling" unicode="&#xa3;" horiz-adv-x="589" 
d="M32 400h84q-26 58 -26 110q0 92 63 147.5t174 55.5q137 0 224 -90l-84 -105q-50 53 -121 53q-48 0 -73 -21.5t-25 -58.5q0 -31 27 -91h201v-120h-171v-16q0 -61 -36 -117h288v-147h-492v112q50 45 68 83.5t18 80.5v4h-119v120z" />
    <glyph glyph-name="currency" unicode="&#xa4;" horiz-adv-x="617" 
d="M101 146q-35 57 -35 128q0 72 35 127l-68 68l80 80l69 -69q55 32 127 32q71 0 127 -31l71 71l80 -80l-69 -69q34 -56 34 -129q0 -74 -35 -129l67 -67l-80 -80l-69 69q-56 -31 -126 -31q-71 0 -126 32l-73 -73l-80 80zM190 274q0 -54 33 -88t86 -34t86 33.5t33 88.5
t-33 88.5t-86 33.5t-86 -34t-33 -88z" />
    <glyph glyph-name="yen" unicode="&#xa5;" horiz-adv-x="701" 
d="M11 700h197l93 -160l51 -95l52 95l95 160h191l-208 -347h107v-103h-152v-45h152v-100h-152v-105h-172v105h-154v100h154v45h-154v103h108z" />
    <glyph glyph-name="brokenbar" unicode="&#xa6;" horiz-adv-x="242" 
d="M185 214v-355h-129v355h129zM185 740v-353h-129v353h129z" />
    <glyph glyph-name="section" unicode="&#xa7;" horiz-adv-x="540" 
d="M38 -22l56 105q90 -51 174 -51q73 0 73 41q0 21 -21.5 34.5t-72.5 24.5q-101 22 -152.5 65.5t-51.5 116.5q0 79 72 130q-56 44 -56 110q0 73 55 115.5t152 42.5q124 0 216 -63l-54 -99q-78 44 -150 44q-71 0 -71 -40q0 -21 20.5 -34t72.5 -25q104 -23 153 -66t49 -112
q0 -75 -70 -128q61 -46 61 -115q0 -73 -60 -117.5t-159 -44.5q-124 0 -236 66zM179 324q0 -58 118 -83q6 -1 23 -5q46 30 46 71q0 29 -26.5 48t-85.5 32q-14 2 -32 8q-43 -29 -43 -71z" />
    <glyph glyph-name="dieresis" unicode="&#xa8;" horiz-adv-x="574" 
d="M123 715q23 22 59 22q35 0 58 -22.5t23 -57.5q0 -36 -23 -58.5t-58 -22.5q-36 0 -59 22.5t-23 58.5q0 35 23 58zM334 715q23 22 59 22q35 0 58 -22.5t23 -57.5q0 -36 -23 -58.5t-58 -22.5q-36 0 -59 22.5t-23 58.5q0 35 23 58z" />
    <glyph glyph-name="copyright" unicode="&#xa9;" horiz-adv-x="816" 
d="M37 350q0 161 105 265.5t266 104.5t265.5 -104.5t104.5 -265.5q0 -160 -104 -264q-105 -105 -266 -105t-266 104.5t-105 264.5zM147 350q0 -116 74 -191q73 -75 187 -75t187 75t73 191t-73 191t-187 75t-187.5 -75t-73.5 -191zM267 494q56 56 146 56q102 0 167 -84
l-73 -57q-37 48 -91 48q-46 0 -75 -30.5t-29 -77.5t28.5 -76.5t75.5 -29.5q59 0 95 49l69 -55q-65 -88 -167 -88q-90 0 -146 56.5t-56 144.5t56 144z" />
    <glyph glyph-name="ordfeminine" unicode="&#xaa;" horiz-adv-x="358" 
d="M50 551q36 30 99 30q44 0 80 -12q0 24 -18.5 37.5t-51.5 13.5q-48 0 -102 -24l-24 79q67 31 139 31q162 0 162 -146v-190h-99l-2 36q-41 -42 -105 -42q-52 0 -83.5 29.5t-31.5 76.5q0 51 37 81zM121 474q0 -30 41 -30q26 0 43 16t22 42q-29 7 -55 7q-51 0 -51 -35z" />
    <glyph glyph-name="guillemotleft" unicode="&#xab;" horiz-adv-x="744" 
d="M287 567l100 -88l-164 -198l164 -201l-100 -87l-239 288zM584 567l100 -88l-165 -198l165 -201l-100 -87l-240 288z" />
    <glyph glyph-name="logicalnot" unicode="&#xac;" horiz-adv-x="531" 
d="M44 265v139h431v-269h-147v130h-284z" />
    <glyph glyph-name="uni00AD" unicode="&#xad;" horiz-adv-x="454" 
d="M418 338v-135h-383v135h383z" />
    <glyph glyph-name="registered" unicode="&#xae;" horiz-adv-x="536" 
d="M100 637q66 63 168 63q104 0 169.5 -62.5t65.5 -162.5t-65.5 -163t-169.5 -63q-102 0 -168.5 64t-66.5 162t67 162zM159 369q42 -42 109 -42t109.5 41.5t42.5 106.5q0 67 -41.5 107t-110.5 40t-110.5 -40t-41.5 -107q0 -65 43 -106zM275 576q37 0 60 -20.5t23 -52.5
q0 -42 -36 -59l40 -72h-69l-31 62h-14v-62h-62v204h89zM247 524v-41h23q25 0 25 21q0 20 -25 20h-23z" />
    <glyph glyph-name="macron" unicode="&#xaf;" horiz-adv-x="501" 
d="M401 596h-301v100h301v-100z" />
    <glyph glyph-name="degree" unicode="&#xb0;" horiz-adv-x="380" 
d="M33 572q0 64 44 106.5t113 42.5t113 -42.5t44 -106.5t-44 -106q-44 -43 -113 -43t-113 42.5t-44 106.5zM121 572q0 -30 19 -49t50 -19t50 19t19 49t-19 49t-50 19t-50 -19t-19 -49z" />
    <glyph glyph-name="plusminus" unicode="&#xb1;" horiz-adv-x="529" 
d="M44 369v137h148v133h144v-133h149v-137h-149v-129h-144v129h-148zM44 166h441v-135h-441v135z" />
    <glyph glyph-name="twosuperior" unicode="&#xb2;" horiz-adv-x="302" 
d="M144 816q55 0 88.5 -28.5t33.5 -75.5q0 -30 -13.5 -53.5t-53.5 -67.5l-30 -34h107v-85h-251v63l103 111q36 40 36 57q0 28 -33 28q-34 0 -67 -33l-51 63q58 55 131 55z" />
    <glyph glyph-name="threesuperior" unicode="&#xb3;" horiz-adv-x="296" 
d="M16 506l43 73q35 -26 72 -26q45 0 45 33q0 22 -15.5 28t-29.5 6t-32 -4l-21 46l59 64h-100v84h219v-59l-69 -72q40 -8 64 -35.5t24 -65.5q0 -50 -37.5 -81t-98.5 -31q-73 0 -123 40z" />
    <glyph glyph-name="acute" unicode="&#xb4;" horiz-adv-x="428" 
d="M225 594h-125l64 146h164z" />
    <glyph glyph-name="uni00B5" unicode="&#xb5;" horiz-adv-x="640" 
d="M64 -230v746h163v-275q0 -51 24 -78t69 -27q43 0 68.5 28.5t25.5 76.5v275h163v-516h-146l-1 55q-40 -52 -112 -52q-57 0 -95 33v-266h-159z" />
    <glyph glyph-name="paragraph" unicode="&#xb6;" horiz-adv-x="707" 
d="M91 642q64 57 164 58h428v-114h-84v-696h-125v696h-94v-696h-125v381q-99 1 -164 60t-65 155q0 98 65 156z" />
    <glyph glyph-name="periodcentered" unicode="&#xb7;" horiz-adv-x="268" 
d="M41 281q0 39 26.5 64t66.5 25t66.5 -25t26.5 -64t-26 -64q-27 -25 -67 -25t-66.5 25t-26.5 64z" />
    <glyph glyph-name="cedilla" unicode="&#xb8;" horiz-adv-x="463" 
d="M100 -208l41 76q35 -21 71 -21q42 0 42 27q0 25 -37 25q-15 0 -37 -4l-23 22l27 108h92l-13 -62q45 -2 72.5 -29t27.5 -70q0 -49 -37.5 -78t-101.5 -29q-66 0 -124 35z" />
    <glyph glyph-name="onesuperior" unicode="&#xb9;" horiz-adv-x="228" 
d="M39 758q55 0 77 52h81v-338h-96v207h-86v79h24z" />
    <glyph glyph-name="ordmasculine" unicode="&#xba;" horiz-adv-x="396" 
d="M14 535q0 74 51.5 122.5t133.5 48.5t132.5 -48t50.5 -123t-50 -123q-51 -48 -133 -48t-133.5 48t-51.5 123zM127 535q0 -32 21 -53q20 -21 51 -21t50.5 21t19.5 53t-19.5 53t-50.5 21t-51.5 -21t-20.5 -53z" />
    <glyph glyph-name="guillemotright" unicode="&#xbb;" horiz-adv-x="744" 
d="M60 479l100 88l240 -286l-240 -288l-100 87l165 201zM357 479l100 88l239 -286l-239 -288l-100 87l164 201z" />
    <glyph glyph-name="onequarter" unicode="&#xbc;" horiz-adv-x="751" 
d="M39 7l502 751l81 -56l-502 -751zM444 127l162 211h91v-204h35v-80h-35v-54h-89v54h-164v73zM39 648q55 0 77 52h81v-338h-96v207h-86v79h24zM543 131h69v91z" />
    <glyph glyph-name="onehalf" unicode="&#xbd;" horiz-adv-x="735" 
d="M39 7l502 751l81 -56l-502 -751zM446 289q58 55 131 55q55 0 88.5 -28.5t33.5 -75.5q0 -30 -13.5 -53.5t-53.5 -67.5l-30 -34h107v-85h-251v63l103 111q36 40 36 57q0 28 -33 28q-34 0 -67 -33zM39 648q55 0 77 52h81v-338h-96v207h-86v79h24z" />
    <glyph glyph-name="threequarters" unicode="&#xbe;" horiz-adv-x="819" 
d="M609 758l81 -56l-502 -751l-81 56zM512 127l162 211h91v-204h35v-80h-35v-54h-89v54h-164v73zM16 396l43 73q35 -26 72 -26q45 0 45 33q0 22 -15.5 28t-29.5 6t-32 -4l-21 46l59 64h-100v84h219v-59l-69 -72q40 -8 64 -35.5t24 -65.5q0 -50 -37.5 -81t-98.5 -31
q-73 0 -123 40zM680 131v91l-69 -91h69z" />
    <glyph glyph-name="questiondown" unicode="&#xbf;" horiz-adv-x="546" 
d="M41 20q0 107 108 185q32 21 44.5 42t12.5 56v32h146v-45q0 -57 -21 -94t-70 -71q-34 -25 -45.5 -44t-11.5 -43q0 -32 23.5 -51.5t68.5 -19.5q84 0 152 78l84 -107q-108 -114 -253 -114q-108 0 -173 53.5t-65 142.5zM185 459q0 39 27 64q26 24 66 24t66.5 -24.5
t26.5 -63.5t-26.5 -63.5t-66.5 -24.5t-66.5 24.5t-26.5 63.5z" />
    <glyph glyph-name="Agrave" unicode="&#xc0;" horiz-adv-x="750" 
d="M284 700h184l268 -700h-177l-42 114h-283l-41 -114h-180zM271 238h210l-104 287zM381 908l63 -135h-129l-102 135h168z" />
    <glyph glyph-name="Aacute" unicode="&#xc1;" horiz-adv-x="750" 
d="M284 700h184l268 -700h-177l-42 114h-283l-41 -114h-180zM271 238h210l-104 287zM371 908h168l-102 -135h-129z" />
    <glyph glyph-name="Acircumflex" unicode="&#xc2;" horiz-adv-x="750" 
d="M284 700h184l268 -700h-177l-42 114h-283l-41 -114h-180zM312 908h129l118 -135h-139l-44 55l-44 -55h-139zM481 238l-104 287l-106 -287h210z" />
    <glyph glyph-name="Atilde" unicode="&#xc3;" horiz-adv-x="750" 
d="M284 700h184l268 -700h-177l-42 114h-283l-41 -114h-180zM198 816q41 96 111 96q29 0 66.5 -22.5t58.5 -22.5q28 0 51 40l71 -50q-41 -95 -111 -95q-29 0 -67 22.5t-58 22.5q-29 0 -50 -40zM271 238h210l-104 287z" />
    <glyph glyph-name="Adieresis" unicode="&#xc4;" horiz-adv-x="750" 
d="M284 700h184l268 -700h-177l-42 114h-283l-41 -114h-180zM271 238h210l-104 287zM209 902q23 23 60 23t60 -23t23 -60q0 -36 -23 -59t-60 -23t-60 23t-23 59q0 37 23 60zM401 842q0 37 23 60t60 23t60 -23t23 -60q0 -36 -23 -59t-60 -23t-60 23t-23 59z" />
    <glyph glyph-name="Aring" unicode="&#xc5;" horiz-adv-x="750" 
d="M284 700h184l268 -700h-177l-42 114h-283l-41 -114h-180zM240 867q0 55 38.5 90.5t97.5 35.5t98 -35.5t39 -90.5t-39 -90q-39 -36 -98 -36t-97.5 35.5t-38.5 90.5zM481 238l-104 287l-106 -287h210zM332 867q0 -20 12.5 -32.5t31.5 -12.5q20 0 32.5 12.5t12.5 32.5
t-12.5 32.5t-32.5 12.5q-19 0 -31.5 -12.5t-12.5 -32.5z" />
    <glyph glyph-name="AE" unicode="&#xc6;" horiz-adv-x="991" 
d="M428 700h511v-135h-276v-143h250v-132h-250v-153h288v-137h-449v127h-222l-72 -127h-198zM343 247h159v285z" />
    <glyph glyph-name="Ccedilla" unicode="&#xc7;" horiz-adv-x="721" 
d="M37 350q0 156 98.5 259.5t258.5 103.5q173 0 296 -139l-105 -110q-73 92 -180 92q-86 0 -139 -57.5t-53 -148.5q0 -92 53.5 -149t141.5 -57q115 0 192 97l105 -110q-97 -123 -257 -141l-6 -26q46 -3 74.5 -30.5t28.5 -69.5q0 -49 -38.5 -78t-104.5 -29t-126 35l42 77
q36 -21 72 -21q43 0 43 27q0 24 -37 24q-16 0 -39 -4l-23 22l19 72q-144 15 -230 114.5t-86 246.5z" />
    <glyph glyph-name="Egrave" unicode="&#xc8;" horiz-adv-x="599" 
d="M547 700v-137h-308v-142h282v-135h-282v-147h320v-139h-488v700h476zM319 908l63 -135h-129l-102 135h168z" />
    <glyph glyph-name="Eacute" unicode="&#xc9;" horiz-adv-x="599" 
d="M71 700h476v-137h-308v-142h282v-135h-282v-147h320v-139h-488v700zM245 773l63 135h168l-102 -135h-129z" />
    <glyph glyph-name="Ecircumflex" unicode="&#xca;" horiz-adv-x="599" 
d="M71 0v700h476v-137h-308v-142h282v-135h-282v-147h320v-139h-488zM130 773l119 135h129l118 -135h-139l-44 55l-44 -55h-139z" />
    <glyph glyph-name="Edieresis" unicode="&#xcb;" horiz-adv-x="599" 
d="M71 700h476v-137h-308v-142h282v-135h-282v-147h320v-139h-488v700zM146 902q23 23 60 23t60 -23t23 -60q0 -36 -23 -59t-60 -23t-60 23t-23 59q0 37 23 60zM338 842q0 37 23 60t60 23t60 -23t23 -60q0 -36 -23 -59t-60 -23t-60 23t-23 59z" />
    <glyph glyph-name="Igrave" unicode="&#xcc;" horiz-adv-x="314" 
d="M162 908l63 -135h-129l-102 135h168zM243 0h-172v700h172v-700z" />
    <glyph glyph-name="Iacute" unicode="&#xcd;" horiz-adv-x="314" 
d="M218 773h-129l63 135h168zM243 0h-172v700h172v-700z" />
    <glyph glyph-name="Icircumflex" unicode="&#xce;" horiz-adv-x="314" 
d="M71 700h172v-700h-172v700zM-26 773l119 135h129l118 -135h-139l-44 55l-44 -55h-139z" />
    <glyph glyph-name="Idieresis" unicode="&#xcf;" horiz-adv-x="314" 
d="M71 700h172v-700h-172v700zM-34 842q0 37 23 60t60 23t60 -23t23 -60q0 -36 -23 -59t-60 -23t-60 23t-23 59zM181 842q0 37 23 60t60 23t60 -23t23 -60q0 -36 -23 -59t-60 -23t-60 23t-23 59z" />
    <glyph glyph-name="Eth" unicode="&#xd0;" horiz-adv-x="784" 
d="M17 419h87v281h281q164 0 262.5 -95.5t98.5 -254.5t-98.5 -254.5t-262.5 -95.5h-281v288h-87v131zM276 155h91q98 0 152.5 51t54.5 144t-54.5 144t-152.5 51h-91v-132h128v-119h-128v-139z" />
    <glyph glyph-name="Ntilde" unicode="&#xd1;" horiz-adv-x="758" 
d="M210 700l312 -414v414h165v-700h-140l-311 413v-413h-165v700h139zM199 816q41 96 111 96q29 0 66.5 -22.5t58.5 -22.5q28 0 51 40l71 -50q-41 -95 -111 -95q-30 0 -67 22.5t-58 22.5q-29 0 -50 -40z" />
    <glyph glyph-name="Ograve" unicode="&#xd2;" horiz-adv-x="821" 
d="M143 610q106 103 267 103q163 0 268 -102.5t105 -260.5t-105 -260.5t-268 -102.5q-161 0 -267 103t-106 260t106 260zM213 350q0 -91 55.5 -148.5t141.5 -57.5q87 0 142.5 57.5t55.5 148.5t-55.5 148.5t-142.5 57.5q-86 0 -141.5 -57.5t-55.5 -148.5zM248 908h168
l63 -135h-129z" />
    <glyph glyph-name="Oacute" unicode="&#xd3;" horiz-adv-x="821" 
d="M143 610q106 103 267 103q163 0 268 -102.5t105 -260.5t-105 -260.5t-268 -102.5q-161 0 -267 103t-106 260t106 260zM213 350q0 -91 55.5 -148.5t141.5 -57.5q87 0 142.5 57.5t55.5 148.5t-55.5 148.5t-142.5 57.5q-86 0 -141.5 -57.5t-55.5 -148.5zM342 773l63 135h168
l-102 -135h-129z" />
    <glyph glyph-name="Ocircumflex" unicode="&#xd4;" horiz-adv-x="821" 
d="M143 610q106 103 267 103q163 0 268 -102.5t105 -260.5t-105 -260.5t-268 -102.5q-161 0 -267 103t-106 260t106 260zM269 202q55 -58 141 -58q87 0 142.5 57.5t55.5 148.5t-55.5 148.5t-142.5 57.5q-86 0 -141.5 -57.5t-55.5 -148.5t56 -148zM227 773l119 135h129
l118 -135h-139l-44 55l-44 -55h-139z" />
    <glyph glyph-name="Otilde" unicode="&#xd5;" horiz-adv-x="821" 
d="M143 610q106 103 267 103q163 0 268 -102.5t105 -260.5t-105 -260.5t-268 -102.5q-161 0 -267 103t-106 260t106 260zM269 202q55 -58 141 -58q87 0 142.5 57.5t55.5 148.5t-55.5 148.5t-142.5 57.5q-86 0 -141.5 -57.5t-55.5 -148.5t56 -148zM343 912q29 0 66.5 -22.5
t58.5 -22.5q28 0 51 40l71 -50q-41 -95 -111 -95q-29 0 -67 22.5t-58 22.5q-29 0 -50 -40l-72 49q41 96 111 96z" />
    <glyph glyph-name="Odieresis" unicode="&#xd6;" horiz-adv-x="821" 
d="M37 350q0 157 106 260t267 103q163 0 268 -102.5t105 -260.5t-105 -260.5t-268 -102.5q-161 0 -267 103t-106 260zM213 350q0 -91 55.5 -148.5t141.5 -57.5q87 0 142.5 57.5t55.5 148.5t-55.5 148.5t-142.5 57.5q-86 0 -141.5 -57.5t-55.5 -148.5zM243 902q23 23 60 23
t60 -23t23 -60q0 -36 -23 -59t-60 -23t-60 23t-23 59q0 37 23 60zM435 842q0 37 23 60t60 23t60 -23t23 -60q0 -36 -23 -59t-60 -23t-60 23t-23 59z" />
    <glyph glyph-name="multiply" unicode="&#xd7;" horiz-adv-x="503" 
d="M362 512l98 -99l-110 -110l110 -110l-98 -99l-110 111l-111 -111l-98 99l110 110l-110 110l98 99l111 -110z" />
    <glyph glyph-name="Oslash" unicode="&#xd8;" horiz-adv-x="821" 
d="M37 350q0 157 106 260t267 103q65 0 125 -19l65 112l111 -64l-62 -107q64 -49 99 -123t35 -162q0 -157 -105.5 -260t-267.5 -103q-63 0 -125 19l-64 -112l-111 64l62 107q-64 49 -99.5 123t-35.5 162zM355 145q24 -7 55 -7q87 0 145 60t58 152q0 90 -54 149zM261 201
l203 354q-24 7 -54 7q-88 0 -145 -59.5t-57 -152.5q0 -90 53 -149z" />
    <glyph glyph-name="Ugrave" unicode="&#xd9;" horiz-adv-x="730" 
d="M237 700v-410q0 -145 128 -145q62 0 95 37t33 108v410h172v-424q0 -135 -80.5 -211.5t-219.5 -76.5q-140 0 -220 76.5t-80 211.5v424h172zM370 908l63 -135h-129l-102 135h168z" />
    <glyph glyph-name="Uacute" unicode="&#xda;" horiz-adv-x="730" 
d="M65 276v424h172v-410q0 -145 128 -145q62 0 95 37t33 108v410h172v-424q0 -135 -80.5 -211.5t-219.5 -76.5q-140 0 -220 76.5t-80 211.5zM297 773l63 135h168l-102 -135h-129z" />
    <glyph glyph-name="Ucircumflex" unicode="&#xdb;" horiz-adv-x="730" 
d="M65 700h172v-410q0 -145 128 -145q62 0 95 37t33 108v410h172v-424q0 -135 -80.5 -211.5t-219.5 -76.5q-140 0 -220 76.5t-80 211.5v424zM182 773l119 135h129l118 -135h-139l-44 55l-44 -55h-139z" />
    <glyph glyph-name="Udieresis" unicode="&#xdc;" horiz-adv-x="730" 
d="M65 276v424h172v-410q0 -145 128 -145q62 0 95 37t33 108v410h172v-424q0 -135 -80.5 -211.5t-219.5 -76.5q-140 0 -220 76.5t-80 211.5zM389 842q0 37 23 60t60 23t60 -23t23 -60q0 -36 -23 -59t-60 -23t-60 23t-23 59zM174 842q0 37 23 60t60 23t60 -23t23 -60
q0 -36 -23 -59t-60 -23t-60 23t-23 59z" />
    <glyph glyph-name="Yacute" unicode="&#xdd;" horiz-adv-x="698" 
d="M207 700l79 -145l64 -125l67 125l80 145h190l-252 -441v-259h-172v259l-252 441h196zM347 908h168l-102 -135h-129z" />
    <glyph glyph-name="Thorn" unicode="&#xde;" horiz-adv-x="632" 
d="M71 700h172v-97h112q119 0 188 -69t69 -182t-69 -181.5t-188 -68.5h-112v-102h-172v700zM240 245h91q56 0 86.5 28.5t30.5 78.5t-30.5 78.5t-86.5 28.5h-91v-214z" />
    <glyph glyph-name="germandbls" unicode="&#xdf;" horiz-adv-x="685" 
d="M444 -12q-87 0 -158 45l53 112q40 -22 83 -22q30 0 49 15.5t19 40.5t-15 47t-51 49q-45 34 -63.5 60t-18.5 59q0 43 33 85q28 37 28 69q0 29 -21.5 47t-57.5 18q-48 0 -73.5 -30t-25.5 -84v-499h-161v496q0 124 69 190.5t195 66.5q107 0 173 -49t66 -129q0 -60 -41 -114
q-25 -31 -25 -54q0 -30 57 -74q94 -71 94 -165q0 -82 -55 -131t-153 -49z" />
    <glyph glyph-name="agrave" unicode="&#xe0;" horiz-adv-x="588" 
d="M94 281q60 46 165 46q60 0 121 -16v13q0 41 -26.5 60t-84.5 19q-71 0 -162 -39l-39 113q110 50 223 50q115 0 177 -54t62 -152v-321h-141l-3 63q-70 -70 -176 -70q-80 0 -128.5 44.5t-48.5 116.5q0 81 61 127zM135 740h164l64 -146h-125zM190 162q0 -56 70 -56
q50 0 84 28.5t38 71.5q-59 17 -102 17q-90 0 -90 -61z" />
    <glyph glyph-name="aacute" unicode="&#xe1;" horiz-adv-x="588" 
d="M33 154q0 81 60.5 127t165.5 46q60 0 121 -16v13q0 41 -26.5 60t-84.5 19q-71 0 -162 -39l-39 113q110 50 223 50q115 0 177 -54t62 -152v-321h-141l-3 63q-70 -70 -176 -70q-80 0 -128.5 44.5t-48.5 116.5zM282 740h164l-103 -146h-125zM190 162q0 -56 70 -56
q50 0 84 28.5t38 71.5q-59 17 -102 17q-90 0 -90 -61z" />
    <glyph glyph-name="acircumflex" unicode="&#xe2;" horiz-adv-x="588" 
d="M33 154q0 81 60.5 127t165.5 46q60 0 121 -16v13q0 41 -26.5 60t-84.5 19q-71 0 -162 -39l-39 113q110 50 223 50q115 0 177 -54t62 -152v-321h-141l-3 63q-70 -70 -176 -70q-80 0 -128.5 44.5t-48.5 116.5zM107 594l121 146h125l120 -146h-139l-44 61l-44 -61h-139z
M260 106q50 0 84 28.5t38 71.5q-59 17 -102 17q-90 0 -90 -61q0 -56 70 -56z" />
    <glyph glyph-name="atilde" unicode="&#xe3;" horiz-adv-x="588" 
d="M94 281q60 46 165 46q60 0 121 -16v13q0 41 -26.5 60t-84.5 19q-71 0 -162 -39l-39 113q110 50 223 50q115 0 177 -54t62 -152v-321h-141l-3 63q-70 -70 -176 -70q-80 0 -128.5 44.5t-48.5 116.5q0 81 61 127zM223 729q26 0 69 -25q34 -20 53 -20q28 0 50 40l68 -48
q-38 -95 -107 -95q-25 0 -69 25q-34 20 -52 20q-28 0 -50 -40l-69 47q39 96 107 96zM260 106q50 0 84 28.5t38 71.5q-59 17 -102 17q-90 0 -90 -61q0 -56 70 -56z" />
    <glyph glyph-name="adieresis" unicode="&#xe4;" horiz-adv-x="588" 
d="M94 281q60 46 165 46q60 0 121 -16v13q0 41 -26.5 60t-84.5 19q-71 0 -162 -39l-39 113q110 50 223 50q115 0 177 -54t62 -152v-321h-141l-3 63q-70 -70 -176 -70q-80 0 -128.5 44.5t-48.5 116.5q0 81 61 127zM126 715q23 22 59 22q35 0 58 -22.5t23 -57.5
q0 -36 -23 -58.5t-58 -22.5q-36 0 -59 22.5t-23 58.5q0 35 23 58zM337 715q23 22 59 22q35 0 58 -22.5t23 -57.5q0 -36 -23 -58.5t-58 -22.5q-36 0 -59 22.5t-23 58.5q0 35 23 58zM260 106q50 0 84 28.5t38 71.5q-59 17 -102 17q-90 0 -90 -61q0 -56 70 -56z" />
    <glyph glyph-name="aring" unicode="&#xe5;" horiz-adv-x="588" 
d="M94 281q60 46 165 46q60 0 121 -16v13q0 41 -26.5 60t-84.5 19q-71 0 -162 -39l-39 113q110 50 223 50q115 0 177 -54t62 -152v-321h-141l-3 63q-70 -70 -176 -70q-80 0 -128.5 44.5t-48.5 116.5q0 81 61 127zM193 790q38 36 97 36t98 -36t39 -91t-39 -90
q-39 -36 -98 -36t-97.5 35.5t-38.5 90.5t39 91zM190 162q0 -56 70 -56q50 0 84 28.5t38 71.5q-59 17 -102 17q-90 0 -90 -61zM246 699q0 -19 12.5 -31.5t31.5 -12.5q20 0 32.5 12.5t12.5 31.5q0 20 -12.5 32.5t-32.5 12.5q-19 0 -31.5 -12.5t-12.5 -32.5z" />
    <glyph glyph-name="ae" unicode="&#xe6;" horiz-adv-x="938" 
d="M93 281q60 46 165 46q59 0 120 -16v13q0 44 -27 62.5t-83 18.5q-71 0 -161 -41l-40 114q108 51 214 51q124 0 185 -79q71 79 188 79q129 0 192.5 -84t63.5 -183q0 -30 -5 -63h-377q13 -41 49.5 -64.5t88.5 -23.5q86 0 156 52l62 -103q-86 -73 -211 -73q-145 0 -219 96
q-76 -96 -223 -96q-94 0 -146 45.5t-52 121.5q0 81 60 127zM259 106q51 0 85.5 28.5t36.5 71.5q-60 17 -102 17q-89 0 -89 -62q0 -55 69 -55zM525 303h235q-10 47 -40.5 74t-75.5 27q-46 0 -77.5 -27t-41.5 -74z" />
    <glyph glyph-name="ccedilla" unicode="&#xe7;" horiz-adv-x="555" 
d="M34 258q0 119 77.5 195t198.5 76q139 0 218 -90l-89 -101q-51 51 -119 51q-55 0 -90 -36.5t-35 -94.5t34.5 -94.5t91.5 -36.5q80 0 125 61l94 -96q-71 -89 -190 -103l-5 -26q45 -2 72.5 -29t27.5 -70q0 -49 -37.5 -78t-101.5 -29q-66 0 -124 35l41 76q35 -21 71 -21
q42 0 42 27q0 25 -37 25q-15 0 -37 -4l-23 22l19 74q-101 16 -162.5 89t-61.5 178z" />
    <glyph glyph-name="egrave" unicode="&#xe8;" horiz-adv-x="610" 
d="M34 257q0 120 76.5 196t198.5 76q137 0 204.5 -84t67.5 -184q0 -30 -5 -62h-385q12 -41 50.5 -64.5t95.5 -23.5q85 0 155 51l63 -102q-92 -73 -230 -73q-132 0 -211.5 74.5t-79.5 195.5zM318 740l64 -146h-125l-103 146h164zM431 303q-10 46 -41.5 73.5t-79.5 27.5
q-47 0 -79.5 -27.5t-41.5 -73.5h242z" />
    <glyph glyph-name="eacute" unicode="&#xe9;" horiz-adv-x="610" 
d="M111 453q76 76 198 76q137 0 204.5 -84t67.5 -184q0 -30 -5 -62h-385q12 -41 50.5 -64.5t95.5 -23.5q85 0 155 51l63 -102q-92 -73 -230 -73q-132 0 -211.5 74.5t-79.5 195.5q0 120 77 196zM238 594l64 146h164l-103 -146h-125zM189 303h242q-10 46 -41.5 73.5
t-79.5 27.5q-47 0 -79.5 -27.5t-41.5 -73.5z" />
    <glyph glyph-name="ecircumflex" unicode="&#xea;" horiz-adv-x="610" 
d="M34 257q0 120 76.5 196t198.5 76q137 0 204.5 -84t67.5 -184q0 -30 -5 -62h-385q12 -41 50.5 -64.5t95.5 -23.5q85 0 155 51l63 -102q-92 -73 -230 -73q-132 0 -211.5 74.5t-79.5 195.5zM248 740h125l120 -146h-139l-44 61l-44 -61h-139zM431 303q-10 46 -41.5 73.5
t-79.5 27.5q-47 0 -79.5 -27.5t-41.5 -73.5h242z" />
    <glyph glyph-name="edieresis" unicode="&#xeb;" horiz-adv-x="610" 
d="M34 257q0 120 76.5 196t198.5 76q137 0 204.5 -84t67.5 -184q0 -30 -5 -62h-385q12 -41 50.5 -64.5t95.5 -23.5q85 0 155 51l63 -102q-92 -73 -230 -73q-132 0 -211.5 74.5t-79.5 195.5zM123 657q0 35 23 57.5t59 22.5q35 0 58 -22.5t23 -57.5q0 -36 -23 -58.5t-58 -22.5
q-36 0 -59 22.5t-23 58.5zM357 715q23 22 59 22q35 0 58 -22.5t23 -57.5q0 -36 -23 -58.5t-58 -22.5q-36 0 -59 22.5t-23 58.5q0 35 23 58zM189 303h242q-10 46 -41.5 73.5t-79.5 27.5q-47 0 -79.5 -27.5t-41.5 -73.5z" />
    <glyph glyph-name="igrave" unicode="&#xec;" horiz-adv-x="291" 
d="M163 740l52 -146h-126l-85 146h159zM227 0h-163v516h163v-516z" />
    <glyph glyph-name="iacute" unicode="&#xed;" horiz-adv-x="291" 
d="M202 594h-126l52 146h159zM227 0h-163v516h163v-516z" />
    <glyph glyph-name="icircumflex" unicode="&#xee;" horiz-adv-x="291" 
d="M64 516h163v-516h-163v516zM-22 594l104 146h128l103 -146h-132l-35 58l-36 -58h-132z" />
    <glyph glyph-name="idieresis" unicode="&#xef;" horiz-adv-x="291" 
d="M64 516h163v-516h-163v516zM-32 657q0 35 22 57.5t56 22.5t56.5 -22.5t22.5 -57.5t-22 -58q-23 -23 -57 -23t-56 23t-22 58zM168 657q0 35 22 57.5t56 22.5t56.5 -22.5t22.5 -57.5t-22 -58q-23 -23 -57 -23t-56 23t-22 58z" />
    <glyph glyph-name="eth" unicode="&#xf0;" horiz-adv-x="642" 
d="M467 730l-70 -49q211 -176 211 -401q0 -135 -77 -214t-210 -79q-128 0 -207.5 72.5t-79.5 190.5q0 117 72 190t186 73q54 0 103 -20q-50 62 -111 107l-110 -78l-57 77l79 57q-28 15 -73 36l68 118q69 -32 125 -69l94 67zM321 127q56 0 91 35.5t35 92.5t-35 92.5t-91 35.5
t-91 -35.5t-35 -92.5t35 -92.5t91 -35.5z" />
    <glyph glyph-name="ntilde" unicode="&#xf1;" horiz-adv-x="636" 
d="M64 0v516h149l2 -71q69 79 170 79q88 0 140 -56t52 -146v-322h-163v278q0 102 -86 102q-48 0 -74.5 -30t-26.5 -81v-269h-163zM156 633q39 96 107 96q26 0 69 -25q34 -20 53 -20q28 0 50 40l68 -48q-38 -95 -107 -95q-25 0 -69 25q-34 20 -52 20q-28 0 -50 -40z" />
    <glyph glyph-name="ograve" unicode="&#xf2;" horiz-adv-x="643" 
d="M114 454q79 75 208 75q128 0 207.5 -75t79.5 -196t-79.5 -196t-207.5 -75q-129 0 -208.5 75t-79.5 196t80 196zM195 258q0 -59 35 -95t92 -36q56 0 91 36t35 95q0 58 -35 94.5t-91 36.5t-91.5 -36.5t-35.5 -94.5zM166 740h164l64 -146h-125z" />
    <glyph glyph-name="oacute" unicode="&#xf3;" horiz-adv-x="643" 
d="M114 454q79 75 208 75q128 0 207.5 -75t79.5 -196t-79.5 -196t-207.5 -75q-129 0 -208.5 75t-79.5 196t80 196zM195 258q0 -59 35 -95t92 -36q56 0 91 36t35 95q0 58 -35 94.5t-91 36.5t-91.5 -36.5t-35.5 -94.5zM250 594l64 146h164l-103 -146h-125z" />
    <glyph glyph-name="ocircumflex" unicode="&#xf4;" horiz-adv-x="643" 
d="M114 454q79 75 208 75q128 0 207.5 -75t79.5 -196t-79.5 -196t-207.5 -75q-129 0 -208.5 75t-79.5 196t80 196zM230 163q35 -36 92 -36q56 0 91 36t35 95q0 58 -35 94.5t-91 36.5t-91.5 -36.5t-35.5 -94.5q0 -59 35 -95zM259 740h125l120 -146h-139l-44 61l-44 -61h-139z
" />
    <glyph glyph-name="otilde" unicode="&#xf5;" horiz-adv-x="643" 
d="M34 258q0 121 79.5 196t208.5 75q128 0 207.5 -75t79.5 -196t-79.5 -196t-207.5 -75q-129 0 -208.5 75t-79.5 196zM195 258q0 -59 35 -95t92 -36q56 0 91 36t35 95q0 58 -35 94.5t-91 36.5t-91.5 -36.5t-35.5 -94.5zM148 633q39 96 107 96q26 0 69 -25q34 -20 53 -20
q28 0 50 40l68 -48q-38 -95 -107 -95q-25 0 -69 25q-34 20 -52 20q-28 0 -50 -40z" />
    <glyph glyph-name="odieresis" unicode="&#xf6;" horiz-adv-x="643" 
d="M34 258q0 121 79.5 196t208.5 75q128 0 207.5 -75t79.5 -196t-79.5 -196t-207.5 -75q-129 0 -208.5 75t-79.5 196zM195 258q0 -59 35 -95t92 -36q56 0 91 36t35 95q0 58 -35 94.5t-91 36.5t-91.5 -36.5t-35.5 -94.5zM135 657q0 35 23 57.5t59 22.5q35 0 58 -22.5
t23 -57.5q0 -36 -23 -58.5t-58 -22.5q-36 0 -59 22.5t-23 58.5zM369 715q23 22 59 22q35 0 58 -22.5t23 -57.5q0 -36 -23 -58.5t-58 -22.5q-36 0 -59 22.5t-23 58.5q0 35 23 58z" />
    <glyph glyph-name="divide" unicode="&#xf7;" horiz-adv-x="516" 
d="M258 405q-39 0 -64 22.5t-25 59.5t25 60t64 23q38 0 63 -23t25 -60t-25 -59.5t-63 -22.5zM472 240h-428v128h428v-128zM258 38q-39 0 -64 23t-25 59q0 37 25 60t64 23q38 0 63 -23t25 -60q0 -36 -25 -59t-63 -23z" />
    <glyph glyph-name="oslash" unicode="&#xf8;" horiz-adv-x="643" 
d="M34 258q0 121 79.5 196t208.5 75q52 0 100 -14l52 82l90 -54l-49 -76q94 -76 94 -209q0 -121 -79.5 -196t-207.5 -75q-52 0 -100 14l-52 -83l-91 54l49 77q-94 76 -94 209zM292 125q15 -3 30 -3q58 0 94.5 37.5t36.5 98.5q0 51 -26 85zM191 258q0 -49 24 -84l136 217
q-13 3 -29 3q-59 0 -95 -37.5t-36 -98.5z" />
    <glyph glyph-name="ugrave" unicode="&#xf9;" horiz-adv-x="632" 
d="M220 516v-279q0 -101 86 -101q48 0 74.5 30t26.5 81v269h163v-516h-149l-2 70q-68 -78 -170 -78q-88 0 -140 56t-52 146v322h163zM322 740l64 -146h-125l-103 146h164z" />
    <glyph glyph-name="uacute" unicode="&#xfa;" horiz-adv-x="632" 
d="M57 516h163v-279q0 -101 86 -101q48 0 74.5 30t26.5 81v269h163v-516h-149l-2 70q-68 -78 -170 -78q-88 0 -140 56t-52 146v322zM242 594l64 146h164l-103 -146h-125z" />
    <glyph glyph-name="ucircumflex" unicode="&#xfb;" horiz-adv-x="632" 
d="M220 516v-279q0 -101 86 -101q48 0 74.5 30t26.5 81v269h163v-516h-149l-2 70q-68 -78 -170 -78q-88 0 -140 56t-52 146v322h163zM252 740h125l120 -146h-139l-44 61l-44 -61h-139z" />
    <glyph glyph-name="udieresis" unicode="&#xfc;" horiz-adv-x="632" 
d="M57 516h163v-279q0 -101 86 -101q48 0 74.5 30t26.5 81v269h163v-516h-149l-2 70q-68 -78 -170 -78q-88 0 -140 56t-52 146v322zM150 715q23 22 59 22q35 0 58 -22.5t23 -57.5q0 -36 -23 -58.5t-58 -22.5q-36 0 -59 22.5t-23 58.5q0 35 23 58zM338 657q0 35 23 57.5
t59 22.5q35 0 58 -22.5t23 -57.5q0 -36 -23 -58.5t-58 -22.5q-36 0 -59 22.5t-23 58.5z" />
    <glyph glyph-name="yacute" unicode="&#xfd;" horiz-adv-x="600" 
d="M189 516l84 -230l37 -109l31 109l74 230h173l-217 -600q-56 -151 -213 -151q-53 0 -104 17l30 135q32 -9 57 -9q69 0 97 68l-226 540h177zM233 594l64 146h164l-103 -146h-125z" />
    <glyph glyph-name="thorn" unicode="&#xfe;" horiz-adv-x="671" 
d="M64 740h163v-285q67 72 168 72q107 0 174.5 -75.5t67.5 -193.5q0 -119 -68 -194.5t-174 -75.5q-102 0 -168 72v-290h-163v970zM260 164q35 -37 90 -37q56 0 91 36.5t35 94.5t-35 94.5t-91 36.5t-91 -36.5t-35 -94.5t36 -94z" />
    <glyph glyph-name="ydieresis" unicode="&#xff;" horiz-adv-x="600" 
d="M189 516l84 -230l37 -109l31 109l74 230h173l-217 -600q-56 -151 -213 -151q-53 0 -104 17l30 135q32 -9 57 -9q69 0 97 68l-226 540h177zM141 715q23 22 59 22q35 0 58 -22.5t23 -57.5q0 -36 -23 -58.5t-58 -22.5q-36 0 -59 22.5t-23 58.5q0 35 23 58zM329 657
q0 35 23 57.5t59 22.5q35 0 58 -22.5t23 -57.5q0 -36 -23 -58.5t-58 -22.5q-36 0 -59 22.5t-23 58.5z" />
    <glyph glyph-name="Amacron" unicode="&#x100;" horiz-adv-x="750" 
d="M13 0l271 700h184l268 -700h-177l-42 114h-283l-41 -114h-180zM220 883h312v-102h-312v102zM481 238l-104 287l-106 -287h210z" />
    <glyph glyph-name="amacron" unicode="&#x101;" horiz-adv-x="588" 
d="M33 154q0 81 60.5 127t165.5 46q60 0 121 -16v13q0 41 -26.5 60t-84.5 19q-71 0 -162 -39l-39 113q110 50 223 50q115 0 177 -54t62 -152v-321h-141l-3 63q-70 -70 -176 -70q-80 0 -128.5 44.5t-48.5 116.5zM441 696v-100h-301v100h301zM190 162q0 -56 70 -56
q50 0 84 28.5t38 71.5q-59 17 -102 17q-90 0 -90 -61z" />
    <glyph glyph-name="Abreve" unicode="&#x102;" horiz-adv-x="750" 
d="M284 700h184l268 -700h-177l-42 114h-283l-41 -114h-180zM215 896l104 19q8 -55 58 -55q49 0 57 55l104 -19q-17 -129 -161 -129t-162 129zM481 238l-104 287l-106 -287h210z" />
    <glyph glyph-name="abreve" unicode="&#x103;" horiz-adv-x="588" 
d="M94 281q60 46 165 46q60 0 121 -16v13q0 41 -26.5 60t-84.5 19q-71 0 -162 -39l-39 113q110 50 223 50q115 0 177 -54t62 -152v-321h-141l-3 63q-70 -70 -176 -70q-80 0 -128.5 44.5t-48.5 116.5q0 81 61 127zM129 727l97 19q9 -70 65 -70q55 0 64 70l97 -19
q-16 -140 -161 -140q-144 0 -162 140zM190 162q0 -56 70 -56q50 0 84 28.5t38 71.5q-59 17 -102 17q-90 0 -90 -61z" />
    <glyph glyph-name="Aogonek" unicode="&#x104;" horiz-adv-x="750" 
d="M735 -114l44 -76q-51 -41 -117 -41q-58 0 -92 29.5t-34 80.5q0 68 67 121h-44l-42 114h-283l-41 -114h-180l271 700h184l268 -700q-79 -46 -79 -95q0 -35 34 -35q20 0 44 16zM481 238l-104 287l-106 -287h210z" />
    <glyph glyph-name="aogonek" unicode="&#x105;" horiz-adv-x="588" 
d="M33 154q0 81 60.5 127t165.5 46q60 0 121 -16v13q0 41 -26.5 60t-84.5 19q-71 0 -162 -39l-39 113q110 50 223 50q115 0 177 -54t62 -152v-321q-80 -47 -80 -97q0 -35 34 -35q20 0 43 15l43 -74q-50 -40 -115 -40q-57 0 -90 29t-33 79q0 71 71 123h-14l-3 63
q-70 -70 -176 -70q-80 0 -128.5 44.5t-48.5 116.5zM260 106q50 0 84 28.5t38 71.5q-59 17 -102 17q-90 0 -90 -61q0 -56 70 -56z" />
    <glyph glyph-name="Cacute" unicode="&#x106;" horiz-adv-x="721" 
d="M136 610q98 103 258 103q173 0 296 -139l-105 -110q-73 92 -180 92q-86 0 -139 -57.5t-53 -148.5q0 -92 53.5 -149t141.5 -57q115 0 192 97l105 -110q-112 -144 -308 -144q-162 0 -261 102t-99 261q0 156 99 260zM388 908h168l-102 -135h-129z" />
    <glyph glyph-name="cacute" unicode="&#x107;" horiz-adv-x="555" 
d="M112 453q77 76 198 76q139 0 218 -90l-89 -101q-51 51 -119 51q-55 0 -90 -36.5t-35 -94.5t34.5 -94.5t91.5 -36.5q80 0 125 61l94 -96q-84 -105 -231 -105q-121 0 -198 76t-77 195t78 195zM300 740h164l-103 -146h-125z" />
    <glyph glyph-name="Ccircumflex" unicode="&#x108;" horiz-adv-x="721" 
d="M136 610q98 103 258 103q173 0 296 -139l-105 -110q-73 92 -180 92q-86 0 -139 -57.5t-53 -148.5q0 -92 53.5 -149t141.5 -57q115 0 192 97l105 -110q-112 -144 -308 -144q-162 0 -261 102t-99 261q0 156 99 260zM329 908h129l118 -135h-139l-44 55l-44 -55h-139z" />
    <glyph glyph-name="ccircumflex" unicode="&#x109;" horiz-adv-x="555" 
d="M34 258q0 119 77.5 195t198.5 76q139 0 218 -90l-89 -101q-51 51 -119 51q-55 0 -90 -36.5t-35 -94.5t34.5 -94.5t91.5 -36.5q80 0 125 61l94 -96q-84 -105 -231 -105q-121 0 -198 76t-77 195zM125 594l121 146h125l120 -146h-139l-44 61l-44 -61h-139z" />
    <glyph glyph-name="Cdotaccent" unicode="&#x10a;" horiz-adv-x="721" 
d="M37 350q0 156 98.5 259.5t258.5 103.5q173 0 296 -139l-105 -110q-73 92 -180 92q-86 0 -139 -57.5t-53 -148.5q0 -92 53.5 -149t141.5 -57q115 0 192 97l105 -110q-112 -144 -308 -144q-162 0 -261 102t-99 261zM326 913q25 24 66 24t66.5 -24t25.5 -64t-25 -64
q-26 -25 -67 -25t-66 24.5t-25 64.5t25 64z" />
    <glyph glyph-name="cdotaccent" unicode="&#x10b;" horiz-adv-x="555" 
d="M34 258q0 119 77.5 195t198.5 76q139 0 218 -90l-89 -101q-51 51 -119 51q-55 0 -90 -36.5t-35 -94.5t34.5 -94.5t91.5 -36.5q80 0 125 61l94 -96q-84 -105 -231 -105q-121 0 -198 76t-77 195zM214 661q0 41 25.5 65.5t68.5 24.5q42 0 67.5 -24.5t25.5 -65.5t-25.5 -65.5
t-67.5 -24.5q-43 0 -68.5 24.5t-25.5 65.5z" />
    <glyph glyph-name="Ccaron" unicode="&#x10c;" horiz-adv-x="721" 
d="M136 610q98 103 258 103q173 0 296 -139l-105 -110q-73 92 -180 92q-86 0 -139 -57.5t-53 -148.5q0 -92 53.5 -149t141.5 -57q115 0 192 97l105 -110q-112 -144 -308 -144q-162 0 -261 102t-99 261q0 156 99 260zM349 908l44 -55l44 55h139l-118 -135h-129l-119 135h139z
" />
    <glyph glyph-name="ccaron" unicode="&#x10d;" horiz-adv-x="555" 
d="M34 258q0 119 77.5 195t198.5 76q139 0 218 -90l-89 -101q-51 51 -119 51q-55 0 -90 -36.5t-35 -94.5t34.5 -94.5t91.5 -36.5q80 0 125 61l94 -96q-84 -105 -231 -105q-121 0 -198 76t-77 195zM125 740h139l44 -61l44 61h139l-120 -146h-125z" />
    <glyph glyph-name="Dcaron" unicode="&#x10e;" horiz-adv-x="750" 
d="M71 700h280q164 0 262.5 -95.5t98.5 -254.5t-98.5 -254.5t-262.5 -95.5h-280v700zM243 544v-388h90q98 0 152 51t54 143t-54 143t-152 51h-90zM161 908h139l44 -55l44 55h139l-118 -135h-129z" />
    <glyph glyph-name="dcaron" unicode="&#x10f;" horiz-adv-x="730" 
d="M34 258q0 119 68 194t174 75q103 0 169 -72v285h162v-740h-149l-2 69q-65 -81 -180 -81q-106 0 -174 75.5t-68 194.5zM230 164q35 -37 91 -37t91 36.5t35 94.5t-35 94.5t-91 36.5t-91 -36.5t-35 -94.5t35 -94zM649 538l34 202h134l-66 -202h-102z" />
    <glyph glyph-name="Dcroat" unicode="&#x110;" horiz-adv-x="784" 
d="M17 419h87v281h281q164 0 262.5 -95.5t98.5 -254.5t-98.5 -254.5t-262.5 -95.5h-281v288h-87v131zM276 155h91q98 0 152.5 51t54.5 144t-54.5 144t-152.5 51h-91v-132h128v-119h-128v-139z" />
    <glyph glyph-name="dcroat" unicode="&#x111;" horiz-adv-x="685" 
d="M607 661h90v-98h-90v-563h-149l-2 67q-66 -79 -179 -79q-107 0 -175 74.5t-68 191.5t68 191t175 74q100 0 167 -67v113h-141v96h141v79h163v-79zM321 126q55 0 90.5 36t35.5 92t-35.5 92t-90.5 36t-90 -36t-35 -92t35 -92t90 -36z" />
    <glyph glyph-name="Emacron" unicode="&#x112;" horiz-adv-x="599" 
d="M71 0v700h476v-137h-308v-142h282v-135h-282v-147h320v-139h-488zM469 883v-102h-312v102h312z" />
    <glyph glyph-name="emacron" unicode="&#x113;" horiz-adv-x="610" 
d="M111 453q76 76 198 76q137 0 204.5 -84t67.5 -184q0 -30 -5 -62h-385q12 -41 50.5 -64.5t95.5 -23.5q85 0 155 51l63 -102q-92 -73 -230 -73q-132 0 -211.5 74.5t-79.5 195.5q0 120 77 196zM460 696v-100h-301v100h301zM431 303q-10 46 -41.5 73.5t-79.5 27.5
q-47 0 -79.5 -27.5t-41.5 -73.5h242z" />
    <glyph glyph-name="Ebreve" unicode="&#x114;" horiz-adv-x="599" 
d="M71 0v700h476v-137h-308v-142h282v-135h-282v-147h320v-139h-488zM152 896l104 19q8 -55 58 -55q49 0 57 55l104 -19q-17 -129 -161 -129t-162 129z" />
    <glyph glyph-name="ebreve" unicode="&#x115;" horiz-adv-x="610" 
d="M111 453q76 76 198 76q137 0 204.5 -84t67.5 -184q0 -30 -5 -62h-385q12 -41 50.5 -64.5t95.5 -23.5q85 0 155 51l63 -102q-92 -73 -230 -73q-132 0 -211.5 74.5t-79.5 195.5q0 120 77 196zM245 746q9 -70 65 -70q55 0 64 70l97 -19q-16 -140 -161 -140q-144 0 -162 140z
M431 303q-10 46 -41.5 73.5t-79.5 27.5q-47 0 -79.5 -27.5t-41.5 -73.5h242z" />
    <glyph glyph-name="Edotaccent" unicode="&#x116;" horiz-adv-x="599" 
d="M71 0v700h476v-137h-308v-142h282v-135h-282v-147h320v-139h-488zM247 913q25 24 66 24t66.5 -24t25.5 -64t-25 -64q-26 -25 -67 -25t-66 24.5t-25 64.5t25 64z" />
    <glyph glyph-name="edotaccent" unicode="&#x117;" horiz-adv-x="610" 
d="M34 257q0 120 76.5 196t198.5 76q137 0 204.5 -84t67.5 -184q0 -30 -5 -62h-385q12 -41 50.5 -64.5t95.5 -23.5q85 0 155 51l63 -102q-92 -73 -230 -73q-132 0 -211.5 74.5t-79.5 195.5zM216 661q0 41 25.5 65.5t68.5 24.5q42 0 67.5 -24.5t25.5 -65.5t-25.5 -65.5
t-67.5 -24.5q-43 0 -68.5 24.5t-25.5 65.5zM189 303h242q-10 46 -41.5 73.5t-79.5 27.5q-47 0 -79.5 -27.5t-41.5 -73.5z" />
    <glyph glyph-name="Eogonek" unicode="&#x118;" horiz-adv-x="599" 
d="M547 700v-137h-308v-142h282v-135h-282v-147h320v-139q-79 -46 -79 -95q0 -35 34 -35q20 0 44 16l44 -76q-51 -41 -117 -41q-58 0 -92 29.5t-34 80.5q0 68 67 121h-355v700h476z" />
    <glyph glyph-name="eogonek" unicode="&#x119;" horiz-adv-x="617" 
d="M35 257q0 120 77 196t197 76q137 0 205 -85t68 -185q0 -29 -5 -60h-386q13 -41 51.5 -64.5t94.5 -23.5q85 0 156 51l63 -102q-50 -40 -85 -65q-59 -43 -59 -83q0 -39 34 -39q22 0 43 15l44 -75q-52 -39 -115 -39q-57 0 -90.5 29.5t-33.5 79.5q0 53 46 104h-12
q-133 0 -213 74t-80 196zM189 303h243q-10 47 -42.5 74t-78.5 27q-47 0 -79.5 -27.5t-42.5 -73.5z" />
    <glyph glyph-name="Ecaron" unicode="&#x11a;" horiz-adv-x="599" 
d="M71 0v700h476v-137h-308v-142h282v-135h-282v-147h320v-139h-488zM269 908l44 -55l44 55h139l-118 -135h-129l-119 135h139z" />
    <glyph glyph-name="ecaron" unicode="&#x11b;" horiz-adv-x="610" 
d="M34 257q0 120 76.5 196t198.5 76q137 0 204.5 -84t67.5 -184q0 -30 -5 -62h-385q12 -41 50.5 -64.5t95.5 -23.5q85 0 155 51l63 -102q-92 -73 -230 -73q-132 0 -211.5 74.5t-79.5 195.5zM266 740l44 -61l44 61h139l-120 -146h-125l-121 146h139zM431 303
q-10 46 -41.5 73.5t-79.5 27.5q-47 0 -79.5 -27.5t-41.5 -73.5h242z" />
    <glyph glyph-name="Gcircumflex" unicode="&#x11c;" horiz-adv-x="766" 
d="M140 611q103 102 266 102t282 -108l-92 -113q-73 70 -182 70q-92 0 -149 -59.5t-57 -152.5q0 -95 58 -153.5t156 -58.5q84 0 152 40v91h-197v131h342v-299q-58 -55 -138 -84.5t-167 -29.5q-169 0 -273 101t-104 262q0 158 103 261zM342 908h129l118 -135h-139l-44 55
l-44 -55h-139z" />
    <glyph glyph-name="gcircumflex" unicode="&#x11d;" horiz-adv-x="643" 
d="M21 -166q0 64 45 107q-33 33 -33 83q0 76 70 124q-46 57 -46 139q0 105 69 167t187 62h309v-124h-94q41 -47 41 -117q0 -96 -70 -154t-186 -58q-61 0 -110 17q-23 -14 -23 -35q0 -24 33.5 -33.5t131.5 -13.5q142 -5 209 -43.5t67 -114.5q0 -84 -77 -131t-213 -47
q-152 0 -231 44t-79 128zM209 287q0 -45 29 -74t74 -29q46 0 75 29t29 74q0 44 -29 73t-75 29q-45 0 -74 -29t-29 -73zM258 740h125l120 -146h-139l-44 61l-44 -61h-139zM159 -151q0 -63 163 -63q149 0 149 46q0 21 -31 31t-106 11q-97 3 -157 16q-18 -20 -18 -41z" />
    <glyph glyph-name="Gbreve" unicode="&#x11e;" horiz-adv-x="766" 
d="M37 350q0 158 103 260.5t266 102.5t282 -108l-92 -113q-73 70 -182 70q-92 0 -149 -59.5t-57 -152.5q0 -95 58 -153.5t156 -58.5q84 0 152 40v91h-197v131h342v-299q-58 -55 -138 -84.5t-167 -29.5q-169 0 -273 101t-104 262zM349 915q8 -55 58 -55q49 0 57 55l104 -19
q-17 -129 -161 -129t-162 129z" />
    <glyph glyph-name="gbreve" unicode="&#x11f;" horiz-adv-x="643" 
d="M66 -59q-33 33 -33 83q0 76 70 124q-46 57 -46 139q0 105 69 167t187 62h309v-124h-94q41 -47 41 -117q0 -96 -70 -154t-186 -58q-61 0 -110 17q-23 -14 -23 -35q0 -24 33.5 -33.5t131.5 -13.5q142 -5 209 -43.5t67 -114.5q0 -84 -77 -131t-213 -47q-152 0 -231 44
t-79 128q0 64 45 107zM255 746q9 -70 65 -70q55 0 64 70l97 -19q-16 -140 -161 -140q-144 0 -162 140zM238 213q29 -29 74 -29q46 0 75 29t29 74q0 44 -29 73t-75 29q-45 0 -74 -29t-29 -73q0 -45 29 -74zM159 -151q0 -63 163 -63q149 0 149 46q0 21 -31 31t-106 11
q-97 3 -157 16q-18 -20 -18 -41z" />
    <glyph glyph-name="Gdotaccent" unicode="&#x120;" horiz-adv-x="766" 
d="M37 350q0 158 103 260.5t266 102.5t282 -108l-92 -113q-73 70 -182 70q-92 0 -149 -59.5t-57 -152.5q0 -95 58 -153.5t156 -58.5q84 0 152 40v91h-197v131h342v-299q-58 -55 -138 -84.5t-167 -29.5q-169 0 -273 101t-104 262zM315 849q0 40 25 64t66 24t66.5 -24
t25.5 -64t-25 -64q-26 -25 -67 -25t-66 24.5t-25 64.5z" />
    <glyph glyph-name="gdotaccent" unicode="&#x121;" horiz-adv-x="643" 
d="M21 -166q0 64 45 107q-33 33 -33 83q0 76 70 124q-46 57 -46 139q0 105 69 167t187 62h309v-124h-94q41 -47 41 -117q0 -96 -70 -154t-186 -58q-61 0 -110 17q-23 -14 -23 -35q0 -24 33.5 -33.5t131.5 -13.5q142 -5 209 -43.5t67 -114.5q0 -84 -77 -131t-213 -47
q-152 0 -231 44t-79 128zM238 213q29 -29 74 -29q46 0 75 29t29 74q0 44 -29 73t-75 29q-45 0 -74 -29t-29 -73q0 -45 29 -74zM252 727q25 24 68 24q42 0 67.5 -24.5t25.5 -65.5t-25.5 -65.5t-67.5 -24.5q-43 0 -68.5 24.5t-25.5 65.5t26 66zM322 -214q149 0 149 46
q0 21 -31 31t-106 11q-97 3 -157 16q-18 -20 -18 -41q0 -63 163 -63z" />
    <glyph glyph-name="uni0122" unicode="&#x122;" horiz-adv-x="766" 
d="M37 350q0 158 103 260.5t266 102.5t282 -108l-92 -113q-73 70 -182 70q-92 0 -149 -59.5t-57 -152.5q0 -95 58 -153.5t156 -58.5q84 0 152 40v91h-197v131h342v-299q-58 -55 -138 -84.5t-167 -29.5q-169 0 -273 101t-104 262zM363 -69q19 22 54 22q39 0 61.5 -25
t22.5 -65q0 -84 -89 -157l-45 38q32 35 43 68q-31 1 -49 20.5t-18 45.5q0 32 20 53z" />
    <glyph glyph-name="uni0123" unicode="&#x123;" horiz-adv-x="643" 
d="M21 -166q0 64 45 107q-33 33 -33 83q0 76 70 124q-46 57 -46 139q0 105 69 167t187 62h309v-124h-94q41 -47 41 -117q0 -96 -70 -154t-186 -58q-61 0 -110 17q-23 -14 -23 -35q0 -24 33.5 -33.5t131.5 -13.5q142 -5 209 -43.5t67 -114.5q0 -84 -77 -131t-213 -47
q-152 0 -231 44t-79 128zM209 287q0 -45 29 -74t74 -29q46 0 75 29t29 74q0 44 -29 73t-75 29q-45 0 -74 -29t-29 -73zM241 658q0 84 89 157l45 -38q-32 -35 -43 -68q31 -1 49 -20.5t18 -45.5q0 -32 -19.5 -53.5t-54.5 -21.5q-39 0 -61.5 25t-22.5 65zM322 -214
q149 0 149 46q0 21 -31 31t-106 11q-97 3 -157 16q-18 -20 -18 -41q0 -63 163 -63z" />
    <glyph glyph-name="Hcircumflex" unicode="&#x124;" horiz-adv-x="745" 
d="M71 0v700h172v-265h259v265h173v-700h-173v277h-259v-277h-172zM190 773l119 135h129l118 -135h-139l-44 55l-44 -55h-139z" />
    <glyph glyph-name="hcircumflex" unicode="&#x125;" horiz-adv-x="636" 
d="M64 0v740h163v-287q65 71 161 71q86 0 137.5 -56t51.5 -145v-323h-163v279q0 101 -86 101q-48 0 -74.5 -29.5t-26.5 -80.5v-270h-163zM-37 813l119 135h129l118 -135h-139l-44 55l-44 -55h-139z" />
    <glyph glyph-name="Hbar" unicode="&#x126;" horiz-adv-x="786" 
d="M695 615h74v-115h-74v-500h-173v280h-259v-280h-172v500h-75v115h75v85h172v-85h259v85h173v-85zM263 506v-90h259v90h-259z" />
    <glyph glyph-name="hbar" unicode="&#x127;" horiz-adv-x="652" 
d="M403 519q86 0 138 -56t52 -145v-318h-163v275q0 100 -86 100q-48 0 -74.5 -29.5t-26.5 -80.5v-265h-163v563h-90v98h90v79h163v-79h141v-96h-141v-117q65 71 160 71z" />
    <glyph glyph-name="Itilde" unicode="&#x128;" horiz-adv-x="314" 
d="M71 700h172v-700h-172v700zM89 912q29 0 66.5 -22.5t58.5 -22.5q28 0 51 40l71 -50q-41 -95 -111 -95q-29 0 -67 22.5t-58 22.5q-29 0 -50 -40l-72 49q41 96 111 96z" />
    <glyph glyph-name="itilde" unicode="&#x129;" horiz-adv-x="291" 
d="M64 516h163v-516h-163v516zM82 724q27 0 61.5 -22.5t53.5 -22.5q27 0 46 40l69 -47q-37 -96 -104 -96q-27 0 -62 22.5t-53 22.5q-27 0 -46 -40l-69 48q37 95 104 95z" />
    <glyph glyph-name="Imacron" unicode="&#x12a;" horiz-adv-x="314" 
d="M307 781h-300v102h300v-102zM243 0h-172v700h172v-700z" />
    <glyph glyph-name="imacron" unicode="&#x12b;" horiz-adv-x="291" 
d="M284 596h-277v100h277v-100zM227 0h-163v516h163v-516z" />
    <glyph glyph-name="Ibreve" unicode="&#x12c;" horiz-adv-x="314" 
d="M71 0v700h172v-700h-172zM99 915q8 -55 58 -55q49 0 57 55l104 -19q-17 -129 -161 -129t-162 129z" />
    <glyph glyph-name="ibreve" unicode="&#x12d;" horiz-adv-x="291" 
d="M64 0v516h163v-516h-163zM89 746q9 -70 57 -70t57 70l97 -19q-16 -140 -154 -140t-154 140z" />
    <glyph glyph-name="Iogonek" unicode="&#x12e;" horiz-adv-x="314" 
d="M110 0h-39v700h172v-700q-79 -46 -79 -95q0 -35 34 -35q20 0 44 16l44 -76q-51 -41 -117 -41q-58 0 -92 29.5t-34 80.5q0 68 67 121z" />
    <glyph glyph-name="iogonek" unicode="&#x12f;" horiz-adv-x="291" 
d="M39 -123q0 70 66 123h-41v516h163v-516q-71 -46 -71 -97q0 -35 32 -35q18 0 40 15l43 -74q-50 -40 -112 -40q-56 0 -88 29t-32 79zM73 739q27 26 73 26q44 0 71 -26t27 -69t-27 -69.5t-71 -26.5q-46 0 -73 26t-27 70q0 43 27 69z" />
    <glyph glyph-name="Idotaccent" unicode="&#x130;" horiz-adv-x="314" 
d="M71 0v700h172v-700h-172zM65 849q0 40 25 64t66 24t66.5 -24t25.5 -64t-25 -64q-26 -25 -67 -25t-66 24.5t-25 64.5z" />
    <glyph glyph-name="dotlessi" unicode="&#x131;" horiz-adv-x="291" 
d="M227 0h-163v516h163v-516z" />
    <glyph glyph-name="IJ" unicode="&#x132;" horiz-adv-x="810" 
d="M377 167q48 -24 99 -24t74 32.5t23 99.5v425h172v-435q0 -277 -251 -277q-91 0 -176 44zM243 700v-700h-172v700h172z" />
    <glyph glyph-name="ij" unicode="&#x133;" horiz-adv-x="580" 
d="M214 -223l30 129q30 -8 53 -8q31 0 43.5 15.5t12.5 51.5v551h163v-572q0 -185 -191 -185q-59 0 -111 18zM227 516v-516h-163v516h163zM73 739q27 26 73 26q44 0 71 -26t27 -69t-27 -69.5t-71 -26.5q-46 0 -73 26t-27 70q0 43 27 69zM336 670q0 43 27 69t72 26t72 -26
t27 -69t-27.5 -69.5t-71.5 -26.5q-45 0 -72 26t-27 70z" />
    <glyph glyph-name="Jcircumflex" unicode="&#x134;" horiz-adv-x="496" 
d="M63 167q48 -24 99 -24t74 32.5t23 99.5v425h172v-435q0 -277 -251 -277q-91 0 -176 44zM281 908h129l118 -135h-139l-44 55l-44 -55h-139z" />
    <glyph glyph-name="jcircumflex" unicode="&#x135;" horiz-adv-x="289" 
d="M-47 -94q30 -8 53 -8q31 0 43.5 15.5t12.5 51.5v551h163v-572q0 -185 -191 -185q-58 0 -111 18zM80 740h128l103 -146h-132l-35 58l-36 -58h-132z" />
    <glyph glyph-name="uni0136" unicode="&#x136;" horiz-adv-x="681" 
d="M243 700v-270h55l165 270h200l-218 -343l226 -357h-202l-171 277h-55v-277h-172v700h172zM274 -122q0 32 19.5 53.5t54.5 21.5q39 0 61.5 -25t22.5 -65q0 -84 -89 -157l-45 38q32 35 43 68q-31 1 -49 20.5t-18 45.5z" />
    <glyph glyph-name="uni0137" unicode="&#x137;" horiz-adv-x="592" 
d="M64 740h163v-406h48l111 182h187l-162 -249l172 -267h-190l-121 197h-45v-197h-163v740zM229 -122q0 32 19.5 53.5t54.5 21.5q39 0 61.5 -25t22.5 -65q0 -84 -89 -157l-45 38q32 35 43 68q-31 1 -49 20.5t-18 45.5z" />
    <glyph glyph-name="kgreenlandic" unicode="&#x138;" horiz-adv-x="592" 
d="M64 0v516h163v-182h48l111 182h187l-162 -249l172 -267h-190l-121 197h-45v-197h-163z" />
    <glyph glyph-name="Lacute" unicode="&#x139;" horiz-adv-x="567" 
d="M152 908h168l-102 -135h-129zM243 700v-541h296v-159h-468v700h172z" />
    <glyph glyph-name="lacute" unicode="&#x13a;" horiz-adv-x="291" 
d="M207 813h-129l63 135h168zM227 0h-163v740h163v-740z" />
    <glyph glyph-name="uni013B" unicode="&#x13b;" horiz-adv-x="567" 
d="M243 700v-541h296v-159h-468v700h172zM235 -122q0 32 19.5 53.5t54.5 21.5q39 0 61.5 -25t22.5 -65q0 -84 -89 -157l-45 38q32 35 43 68q-31 1 -49 20.5t-18 45.5z" />
    <glyph glyph-name="uni013C" unicode="&#x13c;" horiz-adv-x="291" 
d="M64 0v740h163v-740h-163zM68 -122q0 32 19.5 53.5t54.5 21.5q39 0 61.5 -25t22.5 -65q0 -84 -89 -157l-45 38q32 35 43 68q-31 1 -49 20.5t-18 45.5z" />
    <glyph glyph-name="Lcaron" unicode="&#x13d;" horiz-adv-x="567" 
d="M243 700v-541h296v-159h-468v700h172zM355 498l32 202h146l-64 -202h-114z" />
    <glyph glyph-name="lcaron" unicode="&#x13e;" horiz-adv-x="350" 
d="M64 0v740h163v-740h-163zM269 538l34 202h133l-66 -202h-101z" />
    <glyph glyph-name="Ldot" unicode="&#x13f;" horiz-adv-x="567" 
d="M71 0v700h172v-541h296v-159h-468zM364 462q26 24 65 24q38 0 64 -24t26 -62q0 -39 -26 -63t-64 -24q-39 0 -65 24t-26 63q0 38 26 62z" />
    <glyph glyph-name="ldot" unicode="&#x140;" horiz-adv-x="495" 
d="M64 0v740h163v-740h-163zM302 378q26 25 65 25t65 -24.5t26 -63.5t-26 -63t-65 -24t-65.5 24t-26.5 63q0 38 27 63z" />
    <glyph glyph-name="Lslash" unicode="&#x141;" horiz-adv-x="599" 
d="M102 373v327h172v-252l172 75v-128l-172 -75v-161h297v-159h-469v245l-94 -41v128z" />
    <glyph glyph-name="lslash" unicode="&#x142;" horiz-adv-x="325" 
d="M2 372l81 34v334h163v-266l80 33v-139l-80 -33v-335h-163v267l-81 -34v139z" />
    <glyph glyph-name="Nacute" unicode="&#x143;" horiz-adv-x="758" 
d="M71 0v700h139l312 -414v414h165v-700h-140l-311 413v-413h-165zM372 908h168l-102 -135h-129z" />
    <glyph glyph-name="nacute" unicode="&#x144;" horiz-adv-x="636" 
d="M64 0v516h149l2 -71q69 79 170 79q88 0 140 -56t52 -146v-322h-163v278q0 102 -86 102q-48 0 -74.5 -30t-26.5 -81v-269h-163zM322 740h164l-103 -146h-125z" />
    <glyph glyph-name="uni0145" unicode="&#x145;" horiz-adv-x="758" 
d="M71 700h139l312 -414v414h165v-700h-140l-311 413v-413h-165v700zM330 -69q19 22 54 22q39 0 61.5 -25t22.5 -65q0 -84 -89 -157l-45 38q32 35 43 68q-31 1 -49 20.5t-18 45.5q0 32 20 53z" />
    <glyph glyph-name="uni0146" unicode="&#x146;" horiz-adv-x="636" 
d="M213 516l2 -71q69 79 170 79q88 0 140 -56t52 -146v-322h-163v278q0 102 -86 102q-48 0 -74.5 -30t-26.5 -81v-269h-163v516h149zM244 -122q0 32 19.5 53.5t54.5 21.5q39 0 61.5 -25t22.5 -65q0 -84 -89 -157l-45 38q32 35 43 68q-31 1 -49 20.5t-18 45.5z" />
    <glyph glyph-name="Ncaron" unicode="&#x147;" horiz-adv-x="758" 
d="M71 700h139l312 -414v414h165v-700h-140l-311 413v-413h-165v700zM333 908l44 -55l44 55h139l-118 -135h-129l-119 135h139z" />
    <glyph glyph-name="ncaron" unicode="&#x148;" horiz-adv-x="636" 
d="M213 516l2 -71q69 79 170 79q88 0 140 -56t52 -146v-322h-163v278q0 102 -86 102q-48 0 -74.5 -30t-26.5 -81v-269h-163v516h149zM147 740h139l44 -61l44 61h139l-120 -146h-125z" />
    <glyph glyph-name="napostrophe" unicode="&#x149;" horiz-adv-x="752" 
d="M180 516h149l2 -70q68 78 170 78q88 0 140 -56t52 -146v-321h-163v278q0 101 -86 101q-48 0 -74.5 -29.5t-26.5 -80.5v-269h-163v515zM-10 660q0 34 20.5 56.5t57.5 22.5q41 0 64.5 -26.5t23.5 -67.5q0 -88 -93 -166l-48 40q35 39 45 71q-32 2 -51 22t-19 48z" />
    <glyph glyph-name="Eng" unicode="&#x14a;" horiz-adv-x="758" 
d="M522 283v417h165v-743q0 -198 -189 -198q-52 0 -109 19l30 128q29 -8 52 -8q30 0 42.5 15t12.5 50v65l-290 388v-416h-165v700h139z" />
    <glyph glyph-name="eng" unicode="&#x14b;" horiz-adv-x="632" 
d="M62 0v516h149l2 -70q67 78 170 78q88 0 140 -56t52 -146v-378q0 -185 -188 -185q-58 0 -109 18l30 126q29 -8 51 -8q29 0 41 15.5t12 51.5v316q0 102 -86 102q-48 0 -74.5 -30t-26.5 -81v-269h-163z" />
    <glyph glyph-name="Omacron" unicode="&#x14c;" horiz-adv-x="821" 
d="M143 610q106 103 267 103q163 0 268 -102.5t105 -260.5t-105 -260.5t-268 -102.5q-161 0 -267 103t-106 260t106 260zM213 350q0 -91 55.5 -148.5t141.5 -57.5q87 0 142.5 57.5t55.5 148.5t-55.5 148.5t-142.5 57.5q-86 0 -141.5 -57.5t-55.5 -148.5zM254 781v102h312
v-102h-312z" />
    <glyph glyph-name="omacron" unicode="&#x14d;" horiz-adv-x="643" 
d="M114 454q79 75 208 75q128 0 207.5 -75t79.5 -196t-79.5 -196t-207.5 -75q-129 0 -208.5 75t-79.5 196t80 196zM195 258q0 -59 35 -95t92 -36q56 0 91 36t35 95q0 58 -35 94.5t-91 36.5t-91.5 -36.5t-35.5 -94.5zM171 696h301v-100h-301v100z" />
    <glyph glyph-name="Obreve" unicode="&#x14e;" horiz-adv-x="821" 
d="M143 610q106 103 267 103q163 0 268 -102.5t105 -260.5t-105 -260.5t-268 -102.5q-161 0 -267 103t-106 260t106 260zM213 350q0 -91 55.5 -148.5t141.5 -57.5q87 0 142.5 57.5t55.5 148.5t-55.5 148.5t-142.5 57.5q-86 0 -141.5 -57.5t-55.5 -148.5zM353 915
q8 -55 58 -55q49 0 57 55l104 -19q-17 -129 -161 -129t-162 129z" />
    <glyph glyph-name="obreve" unicode="&#x14f;" horiz-adv-x="643" 
d="M34 258q0 121 79.5 196t208.5 75q128 0 207.5 -75t79.5 -196t-79.5 -196t-207.5 -75q-129 0 -208.5 75t-79.5 196zM195 258q0 -59 35 -95t92 -36q56 0 91 36t35 95q0 58 -35 94.5t-91 36.5t-91.5 -36.5t-35.5 -94.5zM160 727l97 19q9 -70 65 -70q55 0 64 70l97 -19
q-16 -140 -161 -140q-144 0 -162 140z" />
    <glyph glyph-name="Ohungarumlaut" unicode="&#x150;" horiz-adv-x="821" 
d="M143 610q106 103 267 103q163 0 268 -102.5t105 -260.5t-105 -260.5t-268 -102.5q-161 0 -267 103t-106 260t106 260zM269 202q55 -58 141 -58q87 0 142.5 57.5t55.5 148.5t-55.5 148.5t-142.5 57.5q-86 0 -141.5 -57.5t-55.5 -148.5t56 -148zM426 773l71 135h148
l-98 -135h-121zM245 773l53 135h148l-81 -135h-120z" />
    <glyph glyph-name="ohungarumlaut" unicode="&#x151;" horiz-adv-x="643" 
d="M114 454q79 75 208 75q128 0 207.5 -75t79.5 -196t-79.5 -196t-207.5 -75q-129 0 -208.5 75t-79.5 196t80 196zM230 163q35 -36 92 -36q56 0 91 36t35 95q0 58 -35 94.5t-91 36.5t-91.5 -36.5t-35.5 -94.5q0 -59 35 -95zM413 740h148l-98 -146h-121zM161 594l53 146h148
l-81 -146h-120z" />
    <glyph glyph-name="OE" unicode="&#x152;" horiz-adv-x="994" 
d="M37 350q0 163 101 262.5t266 99.5q57 0 105 -12h433v-136h-275v-143h249v-132h-249v-151h287v-138h-445q-47 -12 -102 -12q-167 0 -268.5 99t-101.5 263zM213 350q0 -98 57 -154.5t156 -56.5q41 0 80 10v401q-37 10 -80 10q-101 0 -157 -56t-56 -154z" />
    <glyph glyph-name="oe" unicode="&#x153;" horiz-adv-x="989" 
d="M34 258q0 121 74.5 196t194.5 75q132 0 206 -88q75 88 198 88q127 0 190 -84.5t63 -182.5q0 -30 -5 -63h-372q12 -42 48.5 -65t87.5 -23q84 0 154 52l61 -103q-84 -73 -209 -73q-139 0 -216 88q-74 -88 -206 -88q-120 0 -194.5 75t-74.5 196zM229 163q34 -36 88 -36
t87.5 36t33.5 95q0 58 -34 94.5t-87 36.5q-54 0 -88 -36.5t-34 -94.5q0 -59 34 -95zM580 303h230q-10 46 -40 73.5t-74 27.5t-75.5 -27.5t-40.5 -73.5z" />
    <glyph glyph-name="Racute" unicode="&#x154;" horiz-adv-x="680" 
d="M71 0v700h294q121 0 194.5 -65t73.5 -172q0 -153 -133 -211l155 -252h-187l-132 226h-93v-226h-172zM348 356q54 0 84 27q29 26 29 74t-29.5 75t-83.5 27h-108v-203h108zM314 908h168l-102 -135h-129z" />
    <glyph glyph-name="racute" unicode="&#x155;" horiz-adv-x="451" 
d="M64 516h149l2 -70q59 77 158 77q38 0 73 -12l-36 -151q-33 10 -64 10q-119 0 -119 -145v-225h-163v516zM243 740h164l-103 -146h-125z" />
    <glyph glyph-name="uni0156" unicode="&#x156;" horiz-adv-x="680" 
d="M71 700h294q121 0 194.5 -65t73.5 -172q0 -153 -133 -211l155 -252h-187l-132 226h-93v-226h-172v700zM348 356q54 0 84 27q29 26 29 74t-29.5 75t-83.5 27h-108v-203h108zM274 -122q0 32 19.5 53.5t54.5 21.5q39 0 61.5 -25t22.5 -65q0 -84 -89 -157l-45 38q32 35 43 68
q-31 1 -49 20.5t-18 45.5z" />
    <glyph glyph-name="uni0157" unicode="&#x157;" horiz-adv-x="451" 
d="M213 516l2 -70q59 77 158 77q38 0 73 -12l-36 -151q-33 10 -64 10q-119 0 -119 -145v-225h-163v516h149zM88 -69q19 22 54 22q39 0 61.5 -25t22.5 -65q0 -84 -89 -157l-45 38q32 35 43 68q-31 1 -49 20.5t-18 45.5q0 32 20 53z" />
    <glyph glyph-name="Rcaron" unicode="&#x158;" horiz-adv-x="680" 
d="M365 700q121 0 194.5 -65t73.5 -172q0 -153 -133 -211l155 -252h-187l-132 226h-93v-226h-172v700h294zM348 356q54 0 84 27q29 26 29 74t-29.5 75t-83.5 27h-108v-203h108zM275 908l44 -55l44 55h139l-118 -135h-129l-119 135h139z" />
    <glyph glyph-name="rcaron" unicode="&#x159;" horiz-adv-x="451" 
d="M64 0v516h149l2 -70q59 77 158 77q38 0 73 -12l-36 -151q-33 10 -64 10q-119 0 -119 -145v-225h-163zM68 740h139l44 -61l44 61h139l-120 -146h-125z" />
    <glyph glyph-name="Sacute" unicode="&#x15a;" horiz-adv-x="629" 
d="M103 209q102 -71 214 -71q53 0 81.5 16t28.5 45q0 28 -31.5 47.5t-110.5 41.5q-117 31 -172 83.5t-55 136.5q0 90 68.5 145.5t188.5 55.5q151 0 267 -86l-75 -120q-36 28 -87 45t-99 17q-43 0 -68 -15t-25 -40q0 -26 28 -44.5t105 -40.5q123 -34 181 -88t58 -137
q0 -94 -76.5 -151.5t-202.5 -57.5q-168 0 -292 94zM314 908h168l-102 -135h-129z" />
    <glyph glyph-name="sacute" unicode="&#x15b;" horiz-adv-x="506" 
d="M26 59l58 111q92 -54 172 -54q68 0 68 37q0 31 -86 51q-98 23 -143 63t-45 105q0 70 52.5 111.5t148.5 41.5q118 0 218 -62l-58 -107q-29 20 -72 33t-79 13q-59 0 -59 -32q0 -17 18.5 -28t69.5 -23q190 -43 190 -165q0 -75 -60 -119.5t-161 -44.5q-125 0 -232 69z
M248 740h164l-103 -146h-125z" />
    <glyph glyph-name="Scircumflex" unicode="&#x15c;" horiz-adv-x="629" 
d="M29 85l74 124q102 -71 214 -71q53 0 81.5 16t28.5 45q0 28 -31.5 47.5t-110.5 41.5q-117 31 -172 83.5t-55 136.5q0 90 68.5 145.5t188.5 55.5q151 0 267 -86l-75 -120q-36 28 -87 45t-99 17q-43 0 -68 -15t-25 -40q0 -26 28 -44.5t105 -40.5q123 -34 181 -88t58 -137
q0 -94 -76.5 -151.5t-202.5 -57.5q-168 0 -292 94zM136 773l119 135h129l118 -135h-139l-44 55l-44 -55h-139z" />
    <glyph glyph-name="scircumflex" unicode="&#x15d;" horiz-adv-x="506" 
d="M26 59l58 111q92 -54 172 -54q68 0 68 37q0 31 -86 51q-98 23 -143 63t-45 105q0 70 52.5 111.5t148.5 41.5q118 0 218 -62l-58 -107q-29 20 -72 33t-79 13q-59 0 -59 -32q0 -17 18.5 -28t69.5 -23q190 -43 190 -165q0 -75 -60 -119.5t-161 -44.5q-125 0 -232 69z
M194 740h125l120 -146h-139l-44 61l-44 -61h-139z" />
    <glyph glyph-name="Scedilla" unicode="&#x15e;" horiz-adv-x="629" 
d="M103 209q102 -71 214 -71q53 0 81.5 16t28.5 45q0 28 -31.5 47.5t-110.5 41.5q-117 31 -172 83.5t-55 136.5q0 90 68.5 145.5t188.5 55.5q151 0 267 -86l-75 -120q-36 28 -87 45t-99 17q-43 0 -68 -15t-25 -40q0 -26 28 -44.5t105 -40.5q123 -34 181 -88t58 -137
q0 -84 -62.5 -140t-168.5 -67l-7 -29q46 -3 74.5 -30.5t28.5 -69.5q0 -49 -38.5 -78t-104.5 -29t-126 35l42 77q36 -21 72 -21q43 0 43 27q0 24 -37 24q-16 0 -39 -4l-23 22l20 76q-143 14 -245 92z" />
    <glyph glyph-name="scedilla" unicode="&#x15f;" horiz-adv-x="506" 
d="M84 170q92 -54 172 -54q68 0 68 37q0 31 -86 51q-98 23 -143 63t-45 105q0 70 52.5 111.5t148.5 41.5q118 0 218 -62l-58 -107q-29 20 -72 33t-79 13q-59 0 -59 -32q0 -17 18.5 -28t69.5 -23q190 -43 190 -165q0 -65 -46 -107.5t-125 -53.5l-6 -30q45 -2 72.5 -29
t27.5 -70q0 -49 -37.5 -78t-101.5 -29q-66 0 -124 35l41 76q35 -21 71 -21q42 0 42 27q0 25 -37 25q-15 0 -37 -4l-23 22l19 75q-100 10 -189 67z" />
    <glyph glyph-name="Scaron" unicode="&#x160;" horiz-adv-x="629" 
d="M29 85l74 124q102 -71 214 -71q53 0 81.5 16t28.5 45q0 28 -31.5 47.5t-110.5 41.5q-117 31 -172 83.5t-55 136.5q0 90 68.5 145.5t188.5 55.5q151 0 267 -86l-75 -120q-36 28 -87 45t-99 17q-43 0 -68 -15t-25 -40q0 -26 28 -44.5t105 -40.5q123 -34 181 -88t58 -137
q0 -94 -76.5 -151.5t-202.5 -57.5q-168 0 -292 94zM275 908l44 -55l44 55h139l-118 -135h-129l-119 135h139z" />
    <glyph glyph-name="scaron" unicode="&#x161;" horiz-adv-x="506" 
d="M26 59l58 111q92 -54 172 -54q68 0 68 37q0 31 -86 51q-98 23 -143 63t-45 105q0 70 52.5 111.5t148.5 41.5q118 0 218 -62l-58 -107q-29 20 -72 33t-79 13q-59 0 -59 -32q0 -17 18.5 -28t69.5 -23q190 -43 190 -165q0 -75 -60 -119.5t-161 -44.5q-125 0 -232 69z
M212 740l44 -61l44 61h139l-120 -146h-125l-121 146h139z" />
    <glyph glyph-name="uni0162" unicode="&#x162;" horiz-adv-x="625" 
d="M602 700v-158h-204v-542h-36l-8 -36q46 -3 74.5 -30.5t28.5 -69.5q0 -49 -38.5 -78t-104.5 -29t-126 35l42 77q36 -21 72 -21q43 0 43 27q0 24 -37 24q-16 0 -39 -4l-23 22l22 83h-42v542h-203v158h579z" />
    <glyph glyph-name="uni0163" unicode="&#x163;" horiz-adv-x="439" 
d="M23 387v129h85l3 124h157v-124h128v-129h-128v-182q0 -67 58 -67q28 0 62 14l35 -134q-43 -20 -97 -25l-6 -30q45 -2 72.5 -29t27.5 -70q0 -49 -37.5 -78t-101.5 -29q-66 0 -124 35l41 76q35 -21 71 -21q42 0 42 27q0 25 -37 25q-15 0 -37 -4l-23 22l20 80
q-129 30 -129 192v198h-82z" />
    <glyph glyph-name="Tcaron" unicode="&#x164;" horiz-adv-x="625" 
d="M23 542v158h579v-158h-204v-542h-172v542h-203zM129 908h139l44 -55l44 55h139l-118 -135h-129z" />
    <glyph glyph-name="tcaron" unicode="&#x165;" horiz-adv-x="439" 
d="M23 516h85l3 124h157v-124h128v-129h-128v-182q0 -67 58 -67q28 0 62 14l35 -134q-60 -27 -128 -27q-94 0 -142 50.5t-48 147.5v198h-82v129zM362 740h127l-52 -177h-98z" />
    <glyph glyph-name="Tbar" unicode="&#x166;" horiz-adv-x="625" 
d="M602 700v-158h-204v-150h124v-117h-124v-275h-172v275h-122v117h122v150h-203v158h579z" />
    <glyph glyph-name="tbar" unicode="&#x167;" horiz-adv-x="441" 
d="M392 146l33 -126q-64 -29 -132 -29q-93 0 -140.5 50.5t-47.5 147.5v38h-73v102h73v75h-82v112h85l3 124h157v-124h128v-112h-128v-75h117v-97h-117v-33q0 -67 61 -67q27 0 63 14z" />
    <glyph glyph-name="Utilde" unicode="&#x168;" horiz-adv-x="730" 
d="M65 276v424h172v-410q0 -145 128 -145q62 0 95 37t33 108v410h172v-424q0 -135 -80.5 -211.5t-219.5 -76.5q-140 0 -220 76.5t-80 211.5zM297 912q29 0 66.5 -22.5t58.5 -22.5q28 0 51 40l71 -50q-41 -95 -111 -95q-29 0 -67 22.5t-58 22.5q-29 0 -50 -40l-72 49
q41 96 111 96z" />
    <glyph glyph-name="utilde" unicode="&#x169;" horiz-adv-x="632" 
d="M57 194v322h163v-279q0 -101 86 -101q48 0 74.5 30t26.5 81v269h163v-516h-149l-2 70q-68 -78 -170 -78q-88 0 -140 56t-52 146zM140 633q39 96 107 96q26 0 69 -25q34 -20 53 -20q28 0 50 40l68 -48q-38 -95 -107 -95q-25 0 -69 25q-34 20 -52 20q-28 0 -50 -40z" />
    <glyph glyph-name="Umacron" unicode="&#x16a;" horiz-adv-x="730" 
d="M65 700h172v-410q0 -145 128 -145q62 0 95 37t33 108v410h172v-424q0 -135 -80.5 -211.5t-219.5 -76.5q-140 0 -220 76.5t-80 211.5v424zM520 883v-102h-312v102h312z" />
    <glyph glyph-name="umacron" unicode="&#x16b;" horiz-adv-x="632" 
d="M220 516v-279q0 -101 86 -101q48 0 74.5 30t26.5 81v269h163v-516h-149l-2 70q-68 -78 -170 -78q-88 0 -140 56t-52 146v322h163zM163 596v100h301v-100h-301z" />
    <glyph glyph-name="Ubreve" unicode="&#x16c;" horiz-adv-x="730" 
d="M65 700h172v-410q0 -145 128 -145q62 0 95 37t33 108v410h172v-424q0 -135 -80.5 -211.5t-219.5 -76.5q-140 0 -220 76.5t-80 211.5v424zM307 915q8 -55 58 -55q49 0 57 55l104 -19q-17 -129 -161 -129t-162 129z" />
    <glyph glyph-name="ubreve" unicode="&#x16d;" horiz-adv-x="632" 
d="M220 516v-279q0 -101 86 -101q48 0 74.5 30t26.5 81v269h163v-516h-149l-2 70q-68 -78 -170 -78q-88 0 -140 56t-52 146v322h163zM249 746q9 -70 65 -70q55 0 64 70l97 -19q-16 -140 -161 -140q-144 0 -162 140z" />
    <glyph glyph-name="Uring" unicode="&#x16e;" horiz-adv-x="730" 
d="M237 700v-410q0 -145 128 -145q62 0 95 37t33 108v410h172v-424q0 -135 -80.5 -211.5t-219.5 -76.5q-140 0 -220 76.5t-80 211.5v424h172zM228 867q0 55 38.5 90.5t97.5 35.5t98 -35.5t39 -90.5t-39 -90q-39 -36 -98 -36t-97.5 35.5t-38.5 90.5zM333 835q12 -13 31 -13
q20 0 32.5 12.5t12.5 32.5t-12.5 32.5t-32.5 12.5q-19 0 -31.5 -12.5t-12.5 -32.5t13 -32z" />
    <glyph glyph-name="uring" unicode="&#x16f;" horiz-adv-x="632" 
d="M57 516h163v-279q0 -101 86 -101q48 0 74.5 30t26.5 81v269h163v-516h-149l-2 70q-68 -78 -170 -78q-88 0 -140 56t-52 146v322zM216 790q38 36 97 36t98 -36t39 -91t-39 -90q-39 -36 -98 -36t-97.5 35.5t-38.5 90.5t39 91zM282 668q12 -13 31 -13q20 0 32.5 12.5
t12.5 31.5q0 20 -12.5 32.5t-32.5 12.5q-19 0 -31.5 -12.5t-12.5 -32.5q0 -19 13 -31z" />
    <glyph glyph-name="Uhungarumlaut" unicode="&#x170;" horiz-adv-x="730" 
d="M237 700v-410q0 -145 128 -145q62 0 95 37t33 108v410h172v-424q0 -135 -80.5 -211.5t-219.5 -76.5q-140 0 -220 76.5t-80 211.5v424h172zM451 908h148l-98 -135h-121zM252 908h148l-81 -135h-120z" />
    <glyph glyph-name="uhungarumlaut" unicode="&#x171;" horiz-adv-x="632" 
d="M220 516v-279q0 -101 86 -101q48 0 74.5 30t26.5 81v269h163v-516h-149l-2 70q-68 -78 -170 -78q-88 0 -140 56t-52 146v322h163zM334 594l71 146h148l-98 -146h-121zM153 594l53 146h148l-81 -146h-120z" />
    <glyph glyph-name="Uogonek" unicode="&#x172;" horiz-adv-x="730" 
d="M493 290v410h172v-424q0 -182 -149 -257q-95 -47 -95 -114q0 -37 35 -37q19 0 42 15l43 -74q-52 -40 -116 -40q-57 0 -90 29t-33 79q0 60 46 111q-131 3 -207 80t-76 208v424h172v-410q0 -71 33 -108t95 -37q128 0 128 145z" />
    <glyph glyph-name="uogonek" unicode="&#x173;" horiz-adv-x="632" 
d="M220 516v-279q0 -101 86 -101q48 0 74.5 30t26.5 81v269h163v-516q-80 -47 -80 -97q0 -35 34 -35q20 0 43 15l43 -74q-50 -40 -115 -40q-57 0 -90 29t-33 79q0 71 71 123h-22l-2 70q-68 -78 -170 -78q-88 0 -140 56t-52 146v322h163z" />
    <glyph glyph-name="Wcircumflex" unicode="&#x174;" horiz-adv-x="1101" 
d="M17 700h178l75 -257l62 -225l138 456h161l140 -457l62 226l74 257h177l-212 -700h-183l-82 255l-56 182l-55 -182l-82 -255h-182zM368 773l119 135h129l118 -135h-139l-44 55l-44 -55h-139z" />
    <glyph glyph-name="wcircumflex" unicode="&#x175;" horiz-adv-x="896" 
d="M186 516l43 -154l48 -177l105 312h134l107 -316l90 335h168l-170 -516h-158l-104 307l-104 -307h-158l-172 516h171zM265 594l121 146h125l120 -146h-139l-44 61l-44 -61h-139z" />
    <glyph glyph-name="Ycircumflex" unicode="&#x176;" horiz-adv-x="698" 
d="M11 700h196l79 -145l64 -125l67 125l80 145h190l-252 -441v-259h-172v259zM169 773l119 135h129l118 -135h-139l-44 55l-44 -55h-139z" />
    <glyph glyph-name="ycircumflex" unicode="&#x177;" horiz-adv-x="600" 
d="M189 516l84 -230l37 -109l31 109l74 230h173l-217 -600q-56 -151 -213 -151q-53 0 -104 17l30 135q32 -9 57 -9q69 0 97 68l-226 540h177zM243 740h125l120 -146h-139l-44 61l-44 -61h-139z" />
    <glyph glyph-name="Ydieresis" unicode="&#x178;" horiz-adv-x="698" 
d="M207 700l79 -145l64 -125l67 125l80 145h190l-252 -441v-259h-172v259l-252 441h196zM185 902q23 23 60 23t60 -23t23 -60q0 -36 -23 -59t-60 -23t-60 23t-23 59q0 37 23 60zM400 902q23 23 60 23t60 -23t23 -60q0 -36 -23 -59t-60 -23t-60 23t-23 59q0 37 23 60z" />
    <glyph glyph-name="Zacute" unicode="&#x179;" horiz-adv-x="625" 
d="M311 908h168l-102 -135h-129zM259 148l327 1v-149h-540v123l314 430l-302 -1v148h516v-122z" />
    <glyph glyph-name="zacute" unicode="&#x17a;" horiz-adv-x="515" 
d="M248 740h164l-103 -146h-125zM245 134l92 2h143v-136h-439v107l229 279l-103 -2h-116v132h419v-102z" />
    <glyph glyph-name="Zdotaccent" unicode="&#x17b;" horiz-adv-x="625" 
d="M46 0v123l314 430l-302 -1v148h516v-122l-315 -430l327 1v-149h-540zM225 849q0 40 25 64t66 24t66.5 -24t25.5 -64t-25 -64q-26 -25 -67 -25t-66 24.5t-25 64.5z" />
    <glyph glyph-name="zdotaccent" unicode="&#x17c;" horiz-adv-x="515" 
d="M41 107l229 279l-103 -2h-116v132h419v-102l-225 -280l92 2h143v-136h-439v107zM162 661q0 41 25.5 65.5t68.5 24.5q42 0 67.5 -24.5t25.5 -65.5t-25.5 -65.5t-67.5 -24.5q-43 0 -68.5 24.5t-25.5 65.5z" />
    <glyph glyph-name="Zcaron" unicode="&#x17d;" horiz-adv-x="625" 
d="M46 123l314 430l-302 -1v148h516v-122l-315 -430l327 1v-149h-540v123zM272 908l44 -55l44 55h139l-118 -135h-129l-119 135h139z" />
    <glyph glyph-name="zcaron" unicode="&#x17e;" horiz-adv-x="515" 
d="M41 107l229 279l-103 -2h-116v132h419v-102l-225 -280l92 2h143v-136h-439v107zM73 740h139l44 -61l44 61h139l-120 -146h-125z" />
    <glyph glyph-name="longs" unicode="&#x17f;" horiz-adv-x="432" 
d="M27 516h91v62q0 86 47 132.5t134 46.5q69 0 133 -27l-43 -114q-27 11 -53 11q-55 0 -55 -68v-559h-163v386h-91v130z" />
    <glyph glyph-name="florin" unicode="&#x192;" horiz-adv-x="457" 
d="M390 628q-63 0 -71 -63l-7 -51h120v-122h-136l-61 -454q-11 -87 -61.5 -133t-136.5 -46q-74 0 -132 29l50 111q23 -11 50 -11q63 0 71 63l59 441h-103v124h120l8 62q11 87 62 133t137 46q70 0 132 -28l-50 -113q-27 12 -51 12z" />
    <glyph glyph-name="AEacute" unicode="&#x1fc;" horiz-adv-x="991" 
d="M10 0l418 700h511v-135h-276v-143h250v-132h-250v-153h288v-137h-449v127h-222l-72 -127h-198zM343 247h159v285zM590 908h168l-102 -135h-129z" />
    <glyph glyph-name="aeacute" unicode="&#x1fd;" horiz-adv-x="938" 
d="M93 281q60 46 165 46q59 0 120 -16v13q0 44 -27 62.5t-83 18.5q-71 0 -161 -41l-40 114q108 51 214 51q124 0 185 -79q71 79 188 79q129 0 192.5 -84t63.5 -183q0 -30 -5 -63h-377q13 -41 49.5 -64.5t88.5 -23.5q86 0 156 52l62 -103q-86 -73 -211 -73q-145 0 -219 96
q-76 -96 -223 -96q-94 0 -146 45.5t-52 121.5q0 81 60 127zM400 594l64 146h164l-103 -146h-125zM259 106q51 0 85.5 28.5t36.5 71.5q-60 17 -102 17q-89 0 -89 -62q0 -55 69 -55zM525 303h235q-10 47 -40.5 74t-75.5 27q-46 0 -77.5 -27t-41.5 -74z" />
    <glyph glyph-name="Oslashacute" unicode="&#x1fe;" horiz-adv-x="821" 
d="M143 610q106 103 267 103q65 0 125 -19l65 112l111 -64l-62 -107q64 -49 99 -123t35 -162q0 -157 -105.5 -260t-267.5 -103q-63 0 -125 19l-64 -112l-111 64l62 107q-64 49 -99.5 123t-35.5 162q0 157 106 260zM410 138q87 0 145 60t58 152q0 90 -54 149l-204 -354
q24 -7 55 -7zM261 201l203 354q-24 7 -54 7q-88 0 -145 -59.5t-57 -152.5q0 -90 53 -149zM405 908h168l-102 -135h-129z" />
    <glyph glyph-name="oslashacute" unicode="&#x1ff;" horiz-adv-x="643" 
d="M114 454q79 75 208 75q52 0 100 -14l52 82l90 -54l-49 -76q94 -76 94 -209q0 -121 -79.5 -196t-207.5 -75q-52 0 -100 14l-52 -83l-91 54l49 77q-94 76 -94 209q0 121 80 196zM250 594l64 146h164l-103 -146h-125zM322 122q58 0 94.5 37.5t36.5 98.5q0 51 -26 85
l-135 -218q15 -3 30 -3zM191 258q0 -49 24 -84l136 217q-13 3 -29 3q-59 0 -95 -37.5t-36 -98.5z" />
    <glyph glyph-name="uni0218" unicode="&#x218;" horiz-adv-x="629" 
d="M29 85l74 124q102 -71 214 -71q53 0 81.5 16t28.5 45q0 28 -31.5 47.5t-110.5 41.5q-117 31 -172 83.5t-55 136.5q0 90 68.5 145.5t188.5 55.5q151 0 267 -86l-75 -120q-36 28 -87 45t-99 17q-43 0 -68 -15t-25 -40q0 -26 28 -44.5t105 -40.5q123 -34 181 -88t58 -137
q0 -94 -76.5 -151.5t-202.5 -57.5q-168 0 -292 94zM243 -122q0 32 19.5 53.5t54.5 21.5q39 0 61.5 -25t22.5 -65q0 -84 -89 -157l-45 38q32 35 43 68q-31 1 -49 20.5t-18 45.5z" />
    <glyph glyph-name="uni0219" unicode="&#x219;" horiz-adv-x="506" 
d="M26 59l58 111q92 -54 172 -54q68 0 68 37q0 31 -86 51q-98 23 -143 63t-45 105q0 70 52.5 111.5t148.5 41.5q118 0 218 -62l-58 -107q-29 20 -72 33t-79 13q-59 0 -59 -32q0 -17 18.5 -28t69.5 -23q190 -43 190 -165q0 -75 -60 -119.5t-161 -44.5q-125 0 -232 69z
M205 -69q19 22 54 22q39 0 61.5 -25t22.5 -65q0 -84 -89 -157l-45 38q32 35 43 68q-31 1 -49 20.5t-18 45.5q0 32 20 53z" />
    <glyph glyph-name="uni021A" unicode="&#x21a;" horiz-adv-x="625" 
d="M23 700h579v-158h-204v-542h-172v542h-203v158zM255 -69q19 22 54 22q39 0 61.5 -25t22.5 -65q0 -84 -89 -157l-45 38q32 35 43 68q-31 1 -49 20.5t-18 45.5q0 32 20 53z" />
    <glyph glyph-name="uni021B" unicode="&#x21b;" horiz-adv-x="439" 
d="M108 516l3 124h157v-124h128v-129h-128v-182q0 -67 58 -67q28 0 62 14l35 -134q-60 -27 -128 -27q-94 0 -142 50.5t-48 147.5v198h-82v129h85zM223 -69q19 22 54 22q39 0 61.5 -25t22.5 -65q0 -84 -89 -157l-45 38q32 35 43 68q-31 1 -49 20.5t-18 45.5q0 32 20 53z" />
    <glyph glyph-name="uni0237" unicode="&#x237;" horiz-adv-x="289" 
d="M-47 -94q30 -8 53 -8q31 0 43.5 15.5t12.5 51.5v551h163v-572q0 -185 -191 -185q-58 0 -111 18z" />
    <glyph glyph-name="circumflex" unicode="&#x2c6;" horiz-adv-x="566" 
d="M100 594l121 146h125l120 -146h-139l-44 61l-44 -61h-139z" />
    <glyph glyph-name="caron" unicode="&#x2c7;" horiz-adv-x="566" 
d="M100 740h139l44 -61l44 61h139l-120 -146h-125z" />
    <glyph glyph-name="breve" unicode="&#x2d8;" horiz-adv-x="523" 
d="M100 727l97 19q9 -70 65 -70q55 0 64 70l97 -19q-16 -140 -161 -140q-144 0 -162 140z" />
    <glyph glyph-name="dotaccent" unicode="&#x2d9;" horiz-adv-x="374" 
d="M100 650q0 38 24 61.5t64 23.5t64.5 -23.5t24.5 -61.5t-24 -62q-25 -24 -65 -24t-64 24t-24 62z" />
    <glyph glyph-name="ring" unicode="&#x2da;" horiz-adv-x="473" 
d="M139 790q38 36 97 36t98 -36t39 -91t-39 -90q-39 -36 -98 -36t-97.5 35.5t-38.5 90.5t39 91zM192 699q0 -19 12.5 -31.5t31.5 -12.5q20 0 32.5 12.5t12.5 31.5q0 20 -12.5 32.5t-32.5 12.5q-19 0 -31.5 -12.5t-12.5 -32.5z" />
    <glyph glyph-name="ogonek" unicode="&#x2db;" horiz-adv-x="438" 
d="M223 -231q-57 0 -90 29t-33 79t38.5 93.5t108.5 71.5l51 -42q-80 -47 -80 -97q0 -35 34 -35q20 0 43 15l43 -74q-50 -40 -115 -40z" />
    <glyph glyph-name="tilde" unicode="&#x2dc;" horiz-adv-x="547" 
d="M207 729q26 0 69 -25q34 -20 53 -20q28 0 50 40l68 -48q-38 -95 -107 -95q-25 0 -69 25q-34 20 -52 20q-28 0 -50 -40l-69 47q39 96 107 96z" />
    <glyph glyph-name="hungarumlaut" unicode="&#x2dd;" horiz-adv-x="600" 
d="M352 740h148l-98 -146h-121zM153 740h148l-81 -146h-120z" />
    <glyph glyph-name="gravecomb" unicode="&#x300;" 
d="M-165 740l65 -146h-125l-103 146h163z" />
    <glyph glyph-name="acutecomb" unicode="&#x301;" 
d="M-203 594h-125l64 146h164z" />
    <glyph glyph-name="uni0302" unicode="&#x302;" 
d="M-466 594l121 146h125l120 -146h-139l-44 61l-44 -61h-139z" />
    <glyph glyph-name="tildecomb" unicode="&#x303;" 
d="M-340 729q26 0 69 -25q34 -20 53 -20q28 0 50 40l68 -48q-38 -95 -107 -95q-25 0 -69 25q-34 20 -52 20q-28 0 -50 -40l-69 47q39 96 107 96z" />
    <glyph glyph-name="uni0304" unicode="&#x304;" 
d="M-100 596h-301v100h301v-100z" />
    <glyph glyph-name="uni0306" unicode="&#x306;" 
d="M-423 727l97 19q9 -70 65 -70q55 0 64 70l97 -19q-16 -140 -161 -140q-144 0 -162 140z" />
    <glyph glyph-name="uni0307" unicode="&#x307;" 
d="M-262 727q26 24 69 24q42 0 67.5 -24.5t25.5 -65.5t-25.5 -65.5t-67.5 -24.5q-43 0 -68.5 24.5t-25.5 65.5t25 66z" />
    <glyph glyph-name="uni0308" unicode="&#x308;" 
d="M-451 715q23 22 59 22q35 0 58 -22.5t23 -57.5q0 -36 -23 -58.5t-58 -22.5q-36 0 -59 22.5t-23 58.5q0 35 23 58zM-240 715q23 22 59 22q35 0 58 -22.5t23 -57.5q0 -36 -23 -58.5t-58 -22.5q-36 0 -59 22.5t-23 58.5q0 35 23 58z" />
    <glyph glyph-name="uni030A" unicode="&#x30a;" 
d="M-335 790q39 36 98 36t98 -36t39 -91t-39 -90q-39 -36 -98 -36t-97.5 35.5t-38.5 90.5t38 91zM-281 699q0 -19 12.5 -31.5t31.5 -12.5q20 0 32.5 12.5t12.5 31.5q0 20 -12.5 32.5t-32.5 12.5q-19 0 -31.5 -12.5t-12.5 -32.5z" />
    <glyph glyph-name="uni030B" unicode="&#x30b;" 
d="M-248 740h148l-98 -146h-121zM-447 740h148l-81 -146h-120z" />
    <glyph glyph-name="uni030C" unicode="&#x30c;" 
d="M-466 740h139l44 -61l44 61h139l-120 -146h-125z" />
    <glyph glyph-name="uni0312" unicode="&#x312;" 
d="M-170 815l45 -38q-33 -38 -42 -68q30 -1 48.5 -20.5t18.5 -45.5q0 -32 -20 -53.5t-55 -21.5q-39 0 -61 25.5t-22 64.5q0 84 88 157z" />
    <glyph glyph-name="uni0326" unicode="&#x326;" 
d="M-239 -69q20 22 55 22q39 0 61.5 -25t22.5 -65q0 -84 -89 -157l-45 38q33 37 43 68q-31 1 -49 20.5t-18 45.5q0 32 19 53z" />
    <glyph glyph-name="uni0327" unicode="&#x327;" 
d="M-363 -208l41 76q35 -21 71 -21q42 0 42 27q0 25 -37 25q-15 0 -37 -4l-23 22l27 108h92l-13 -62q45 -2 72.5 -29t27.5 -70q0 -49 -37.5 -78t-101.5 -29q-66 0 -124 35z" />
    <glyph glyph-name="uni0328" unicode="&#x328;" 
d="M-300 -30q39 44 109 72l51 -42q-80 -47 -80 -97q0 -35 34 -35q20 0 43 15l43 -74q-50 -40 -115 -40q-57 0 -90 29t-33 79t38 93z" />
    <glyph glyph-name="uni03BC" unicode="&#x3bc;" horiz-adv-x="640" 
d="M414 241v275h163v-516h-146l-1 55q-40 -52 -112 -52q-57 0 -95 33v-266h-159v746h163v-275q0 -51 24 -78t69 -27q43 0 68.5 28.5t25.5 76.5z" />
    <glyph glyph-name="pi" unicode="&#x3c0;" horiz-adv-x="692" 
d="M656 128l19 -128q-41 -11 -85 -11q-182 0 -182 186v197h-145v-372h-163v372h-79v144h627v-144h-79v-180q0 -36 13.5 -51.5t42.5 -15.5q16 0 31 3z" />
    <glyph glyph-name="uni0400" unicode="&#x400;" horiz-adv-x="599" 
d="M547 700v-137h-308v-142h282v-135h-282v-147h320v-139h-488v700h476zM319 908l63 -135h-129l-102 135h168z" />
    <glyph glyph-name="uni0401" unicode="&#x401;" horiz-adv-x="599" 
d="M71 700h476v-137h-308v-142h282v-135h-282v-147h320v-139h-488v700zM146 902q23 23 60 23t60 -23t23 -60q0 -36 -23 -59t-60 -23t-60 23t-23 59q0 37 23 60zM338 842q0 37 23 60t60 23t60 -23t23 -60q0 -36 -23 -59t-60 -23t-60 23t-23 59z" />
    <glyph glyph-name="uni0402" unicode="&#x402;" horiz-adv-x="842" 
d="M549 449q123 0 191.5 -60t68.5 -168q0 -106 -61 -167.5t-167 -61.5q-70 0 -142 32l46 129q47 -20 76 -20q39 0 59.5 23.5t20.5 61.5q0 45 -29.5 68.5t-83.5 23.5q-66 0 -133 -33v-277h-171v548h-201v152h633v-144h-262v-136q73 29 155 29z" />
    <glyph glyph-name="uni0403" unicode="&#x403;" horiz-adv-x="541" 
d="M290 908h168l-102 -135h-129zM71 700h450v-158h-278v-542h-172v700z" />
    <glyph glyph-name="uni0404" unicode="&#x404;" horiz-adv-x="724" 
d="M37 350q0 159 100.5 261t257.5 102q174 0 296 -125l-97 -110q-78 87 -187 87q-71 0 -122.5 -40t-69.5 -107h311v-133h-312q17 -70 69.5 -110t127.5 -40q115 0 198 92l98 -110q-122 -130 -307 -130q-161 0 -262 101t-101 262z" />
    <glyph glyph-name="uni0405" unicode="&#x405;" horiz-adv-x="629" 
d="M29 85l74 124q102 -71 214 -71q53 0 81.5 16t28.5 45q0 28 -31.5 47.5t-110.5 41.5q-117 31 -172 83.5t-55 136.5q0 90 68.5 145.5t188.5 55.5q151 0 267 -86l-75 -120q-36 28 -87 45t-99 17q-43 0 -68 -15t-25 -40q0 -26 28 -44.5t105 -40.5q123 -34 181 -88t58 -137
q0 -94 -76.5 -151.5t-202.5 -57.5q-168 0 -292 94z" />
    <glyph glyph-name="uni0406" unicode="&#x406;" horiz-adv-x="314" 
d="M243 0h-172v700h172v-700z" />
    <glyph glyph-name="uni0407" unicode="&#x407;" horiz-adv-x="314" 
d="M71 700h172v-700h-172v700zM-34 842q0 37 23 60t60 23t60 -23t23 -60q0 -36 -23 -59t-60 -23t-60 23t-23 59zM181 842q0 37 23 60t60 23t60 -23t23 -60q0 -36 -23 -59t-60 -23t-60 23t-23 59z" />
    <glyph glyph-name="uni0408" unicode="&#x408;" horiz-adv-x="496" 
d="M63 167q48 -24 99 -24t74 32.5t23 99.5v425h172v-435q0 -277 -251 -277q-91 0 -176 44z" />
    <glyph glyph-name="uni0409" unicode="&#x409;" horiz-adv-x="1096" 
d="M693 482h111q123 0 195 -65t72 -176q0 -112 -71 -176.5t-196 -64.5h-283v541h-184l-17 -254q-10 -137 -73 -206.5t-195 -88.5l-40 158q77 16 105 49.5t34 116.5l27 384h515v-218zM690 145h94q117 0 117 98t-117 98h-94v-196z" />
    <glyph glyph-name="uni040A" unicode="&#x40a;" horiz-adv-x="1072" 
d="M243 700v-265h254v265h172v-218h111q123 0 195 -65t72 -176q0 -112 -71 -176.5t-196 -64.5h-283v277h-254v-277h-172v700h172zM666 341v-196h94q117 0 117 98t-117 98h-94z" />
    <glyph glyph-name="uni040B" unicode="&#x40b;" horiz-adv-x="842" 
d="M538 436q120 0 187 -65t67 -182v-189h-172v164q0 63 -26 92.5t-82 29.5q-61 0 -116 -26v-260h-171v548h-202v152h615v-149h-243v-140q68 25 143 25z" />
    <glyph glyph-name="uni040C" unicode="&#x40c;" horiz-adv-x="681" 
d="M243 700v-270h55l165 270h200l-218 -343l226 -357h-202l-171 277h-55v-277h-172v700h172zM346 908h168l-102 -135h-129z" />
    <glyph glyph-name="uni040D" unicode="&#x40d;" horiz-adv-x="758" 
d="M71 700h168v-421l303 421h145v-700h-168v420l-303 -420h-145v700zM223 908h168l63 -135h-129z" />
    <glyph glyph-name="uni040E" unicode="&#x40e;" horiz-adv-x="693" 
d="M203 700l153 -329l77 184l62 145h188l-263 -566q-37 -78 -88.5 -112t-133.5 -34q-62 0 -116 18l34 149q36 -12 66 -12q60 0 84 49l-253 508h190zM188 896l104 19q8 -55 58 -55q49 0 57 55l104 -19q-17 -129 -161 -129t-162 129z" />
    <glyph glyph-name="uni040F" unicode="&#x40f;" horiz-adv-x="745" 
d="M502 159v541h173v-700h-224v-157h-156v157h-224v700h172v-541h259z" />
    <glyph glyph-name="uni0410" unicode="&#x410;" horiz-adv-x="750" 
d="M284 700h184l268 -700h-177l-42 114h-283l-41 -114h-180zM271 238h210l-104 287z" />
    <glyph glyph-name="uni0411" unicode="&#x411;" horiz-adv-x="645" 
d="M71 700h492v-143h-325v-116h129q115 0 182.5 -59.5t67.5 -160.5q0 -102 -67.5 -161.5t-182.5 -59.5h-296v700zM238 133h106q50 0 78.5 23t28.5 65t-28.5 65.5t-78.5 23.5h-106v-177z" />
    <glyph glyph-name="uni0412" unicode="&#x412;" horiz-adv-x="656" 
d="M71 0v700h319q95 0 153 -51t58 -134q0 -96 -82 -152q48 -26 76 -71t28 -100q0 -86 -60.5 -139t-158.5 -53h-333zM235 292v-165h125q46 0 72 22t26 61q0 38 -26 60t-72 22h-125zM235 573v-158h115q42 0 67 22q24 21 24 57t-24.5 57.5t-66.5 21.5h-115z" />
    <glyph glyph-name="uni0413" unicode="&#x413;" horiz-adv-x="541" 
d="M71 700h450v-158h-278v-542h-172v700z" />
    <glyph glyph-name="uni0414" unicode="&#x414;" horiz-adv-x="835" 
d="M700 700v-541h110v-316h-157v157h-475v-157h-157v316h85q28 27 44 74.5t22 138.5l22 328h506zM529 545h-175l-12 -188q-10 -130 -49 -205h236v393z" />
    <glyph glyph-name="uni0415" unicode="&#x415;" horiz-adv-x="599" 
d="M71 0v700h476v-137h-308v-142h282v-135h-282v-147h320v-139h-488z" />
    <glyph glyph-name="uni0416" unicode="&#x416;" horiz-adv-x="1023" 
d="M10 0l215 357l-207 343h197l157 -270h55v270h169v-270h55l157 270h197l-207 -343l215 -357h-198l-162 277h-57v-277h-169v277h-57l-162 -277h-198z" />
    <glyph glyph-name="uni0417" unicode="&#x417;" horiz-adv-x="620" 
d="M111 205q85 -65 189 -65q121 0 121 75q0 34 -25.5 52.5t-71.5 18.5h-138v139h125q42 0 64.5 18.5t22.5 51.5q0 32 -27 50t-78 18q-91 0 -174 -61l-77 116q118 91 266 91q122 0 189 -51.5t67 -137.5q0 -98 -82 -160q106 -59 106 -169q0 -91 -70.5 -145.5t-205.5 -54.5
q-155 0 -280 94z" />
    <glyph glyph-name="uni0418" unicode="&#x418;" horiz-adv-x="758" 
d="M239 700v-421l303 421h145v-700h-168v420l-303 -420h-145v700h168z" />
    <glyph glyph-name="uni0419" unicode="&#x419;" horiz-adv-x="758" 
d="M239 700v-421l303 421h145v-700h-168v420l-303 -420h-145v700h168zM328 915q8 -55 58 -55q49 0 57 55l104 -19q-17 -129 -161 -129t-162 129z" />
    <glyph glyph-name="uni041A" unicode="&#x41a;" horiz-adv-x="681" 
d="M71 0v700h172v-270h55l165 270h200l-218 -343l226 -357h-202l-171 277h-55v-277h-172z" />
    <glyph glyph-name="uni041B" unicode="&#x41b;" horiz-adv-x="771" 
d="M153 316l28 384h520v-700h-173v541h-189l-17 -254q-9 -138 -73 -207t-196 -88l-41 155q81 20 108.5 53t32.5 116z" />
    <glyph glyph-name="uni041C" unicode="&#x41c;" horiz-adv-x="884" 
d="M223 700l218 -297l219 297h153v-700h-171v431l-162 -226h-77l-162 226v-431h-170v700h152z" />
    <glyph glyph-name="uni041D" unicode="&#x41d;" horiz-adv-x="745" 
d="M71 0v700h172v-265h259v265h173v-700h-173v277h-259v-277h-172z" />
    <glyph glyph-name="uni041E" unicode="&#x41e;" horiz-adv-x="821" 
d="M143 610q106 103 267 103q163 0 268 -102.5t105 -260.5t-105 -260.5t-268 -102.5q-161 0 -267 103t-106 260t106 260zM213 350q0 -91 55.5 -148.5t141.5 -57.5q87 0 142.5 57.5t55.5 148.5t-55.5 148.5t-142.5 57.5q-86 0 -141.5 -57.5t-55.5 -148.5z" />
    <glyph glyph-name="uni041F" unicode="&#x41f;" horiz-adv-x="745" 
d="M675 700v-700h-173v541h-259v-541h-172v700h604z" />
    <glyph glyph-name="uni0420" unicode="&#x420;" horiz-adv-x="641" 
d="M71 700h279q126 0 198.5 -67t72.5 -184q0 -115 -72.5 -183t-198.5 -68h-107v-198h-172v700zM332 340q55 0 85.5 28.5t30.5 78.5q0 51 -30.5 79t-85.5 28h-92v-214h92z" />
    <glyph glyph-name="uni0421" unicode="&#x421;" horiz-adv-x="721" 
d="M136 610q98 103 258 103q173 0 296 -139l-105 -110q-73 92 -180 92q-86 0 -139 -57.5t-53 -148.5q0 -92 53.5 -149t141.5 -57q115 0 192 97l105 -110q-112 -144 -308 -144q-162 0 -261 102t-99 261q0 156 99 260z" />
    <glyph glyph-name="uni0422" unicode="&#x422;" horiz-adv-x="625" 
d="M23 542v158h579v-158h-204v-542h-172v542h-203z" />
    <glyph glyph-name="uni0423" unicode="&#x423;" horiz-adv-x="693" 
d="M13 700h190l153 -329l77 184l62 145h188l-263 -566q-37 -78 -88.5 -112t-133.5 -34q-62 0 -116 18l34 149q36 -12 66 -12q60 0 84 49z" />
    <glyph glyph-name="uni0424" unicode="&#x424;" horiz-adv-x="879" 
d="M841 350q0 -133 -88 -219.5t-231 -97.5v-99h-165v99q-143 11 -231.5 97.5t-88.5 219.5t88.5 219.5t231.5 97.5v97h165v-97q143 -11 231 -97.5t88 -219.5zM203 350q0 -70 42.5 -114.5t114.5 -52.5v334q-72 -8 -114.5 -52.5t-42.5 -114.5zM519 517v-334q72 8 114.5 52.5
t42.5 114.5t-42.5 114.5t-114.5 52.5z" />
    <glyph glyph-name="uni0425" unicode="&#x425;" horiz-adv-x="695" 
d="M244 361l-217 339h195l70 -111l59 -99l58 99l67 111h194l-216 -340l230 -360h-196l-70 113l-70 118l-70 -118l-70 -113h-197z" />
    <glyph glyph-name="uni0426" unicode="&#x426;" horiz-adv-x="809" 
d="M675 700v-541h110v-316h-158v157h-556v700h172v-542h259v542h173z" />
    <glyph glyph-name="uni0427" unicode="&#x427;" horiz-adv-x="694" 
d="M41 472v228h173v-205q0 -66 28.5 -97t87.5 -31q62 0 121 25v308h172v-700h-172v233q-71 -24 -141 -24q-127 0 -198 69t-71 194z" />
    <glyph glyph-name="uni0428" unicode="&#x428;" horiz-adv-x="1153" 
d="M910 159v541h172v-700h-1011v700h172v-541h249v541h169v-541h249z" />
    <glyph glyph-name="uni0429" unicode="&#x429;" horiz-adv-x="1217" 
d="M1082 700v-541h111v-316h-158v157h-964v700h172v-542h249v542h169v-542h249v542h172z" />
    <glyph glyph-name="uni042A" unicode="&#x42a;" horiz-adv-x="784" 
d="M375 700v-218h116q124 0 196 -65t72 -176q0 -112 -71.5 -176.5t-196.5 -64.5h-288v544h-180v156h352zM373 341v-196h99q116 0 116 98t-116 98h-99z" />
    <glyph glyph-name="uni042B" unicode="&#x42b;" horiz-adv-x="965" 
d="M243 700v-218h116q124 0 195.5 -65t71.5 -176q0 -112 -71 -176.5t-196 -64.5h-288v700h172zM722 0v700h172v-700h-172zM240 145h100q116 0 116 98t-116 98h-100v-196z" />
    <glyph glyph-name="uni042C" unicode="&#x42c;" horiz-adv-x="651" 
d="M71 700h172v-218h116q124 0 195.5 -65t71.5 -176q0 -112 -71 -176.5t-196 -64.5h-288v700zM340 145q116 0 116 98t-116 98h-100v-196h100z" />
    <glyph glyph-name="uni042D" unicode="&#x42d;" horiz-adv-x="724" 
d="M115 227q83 -92 199 -92q74 0 126.5 40.5t69.5 109.5h-312v133h311q-18 67 -69.5 107t-122.5 40q-109 0 -187 -87l-97 110q122 125 296 125q157 0 257.5 -102t100.5 -261q0 -161 -101 -262t-262 -101q-183 0 -307 130z" />
    <glyph glyph-name="uni042E" unicode="&#x42e;" horiz-adv-x="1089" 
d="M71 700h172v-265h89q26 124 123.5 201t231.5 77q158 0 261 -102.5t103 -260.5t-103 -260.5t-261 -102.5q-138 0 -236 80t-122 210h-86v-277h-172v700zM543 202q54 -58 139 -58t139 57.5t54 148.5t-54 148.5t-139 57.5t-139.5 -57.5t-54.5 -148.5t55 -148z" />
    <glyph glyph-name="uni042F" unicode="&#x42f;" horiz-adv-x="680" 
d="M175 254q-61 29 -94.5 83.5t-33.5 125.5q0 107 73.5 172t193.5 65h295v-700h-171v226h-94l-125 -226h-194zM219 457q0 -48 29.5 -74.5t83.5 -26.5h109v203h-109q-55 0 -84 -26.5t-29 -75.5z" />
    <glyph glyph-name="uni0430" unicode="&#x430;" horiz-adv-x="588" 
d="M94 281q60 46 165 46q60 0 121 -16v13q0 41 -26.5 60t-84.5 19q-71 0 -162 -39l-39 113q110 50 223 50q115 0 177 -54t62 -152v-321h-141l-3 63q-70 -70 -176 -70q-80 0 -128.5 44.5t-48.5 116.5q0 81 61 127zM190 162q0 -56 70 -56q50 0 84 28.5t38 71.5q-59 17 -102 17
q-90 0 -90 -61z" />
    <glyph glyph-name="uni0431" unicode="&#x431;" horiz-adv-x="644" 
d="M366 513q109 0 176 -72t67 -188q0 -118 -79 -192t-203 -74q-139 0 -215 89t-76 257q0 202 74 296t249 126q133 24 189 49l50 -131q-72 -39 -210 -62q-103 -17 -146 -55t-52 -117q66 74 176 74zM324 127q56 0 91 35.5t35 93.5q0 57 -35 93t-91 36t-91.5 -36t-35.5 -93
q0 -58 35.5 -93.5t91.5 -35.5z" />
    <glyph glyph-name="uni0432" unicode="&#x432;" horiz-adv-x="566" 
d="M456 269q37 -14 59 -48.5t22 -76.5q0 -65 -49 -104.5t-128 -39.5h-296v516h287q76 0 121.5 -36t45.5 -96q0 -75 -62 -115zM373 362q0 51 -60 51h-96v-102h96q60 0 60 51zM217 105h105q62 0 62 53q0 54 -62 54h-105v-107z" />
    <glyph glyph-name="uni0433" unicode="&#x433;" horiz-adv-x="458" 
d="M64 516h376v-147h-213v-369h-163v516z" />
    <glyph glyph-name="uni0434" unicode="&#x434;" horiz-adv-x="700" 
d="M590 516v-369h89v-292h-148v145h-360v-145h-152v292h67q36 39 43 129l19 240h442zM433 380h-138l-9 -119q-6 -72 -28 -119h175v238z" />
    <glyph glyph-name="uni0435" unicode="&#x435;" horiz-adv-x="610" 
d="M111 453q76 76 198 76q137 0 204.5 -84t67.5 -184q0 -30 -5 -62h-385q12 -41 50.5 -64.5t95.5 -23.5q85 0 155 51l63 -102q-92 -73 -230 -73q-132 0 -211.5 74.5t-79.5 195.5q0 120 77 196zM189 303h242q-10 46 -41.5 73.5t-79.5 27.5q-47 0 -79.5 -27.5t-41.5 -73.5z
" />
    <glyph glyph-name="uni0436" unicode="&#x436;" horiz-adv-x="871" 
d="M9 0l162 267l-152 249h185l104 -182h49v182h157v-182h49l104 182h185l-152 -249l162 -267h-188l-114 197h-46v-197h-157v197h-46l-114 -197h-188z" />
    <glyph glyph-name="uni0437" unicode="&#x437;" horiz-adv-x="511" 
d="M399 270q39 -16 61 -48t22 -72q0 -75 -62.5 -118t-171.5 -43q-140 0 -230 74l65 102q71 -50 153 -50q88 0 88 46q0 42 -72 42h-102v117h92q65 0 65 41q0 42 -75 42q-74 0 -141 -46l-63 101q99 69 225 69q101 0 155 -40.5t54 -103.5q0 -70 -63 -113z" />
    <glyph glyph-name="uni0438" unicode="&#x438;" horiz-adv-x="647" 
d="M223 516v-285l223 285h137v-516h-159v285l-223 -285h-137v516h159z" />
    <glyph glyph-name="uni0439" unicode="&#x439;" horiz-adv-x="647" 
d="M64 516h159v-285l223 285h137v-516h-159v285l-223 -285h-137v516zM259 746q9 -70 65 -70q55 0 64 70l97 -19q-16 -140 -161 -140q-144 0 -162 140z" />
    <glyph glyph-name="uni043A" unicode="&#x43a;" horiz-adv-x="592" 
d="M64 0v516h163v-182h48l111 182h187l-162 -249l172 -267h-190l-121 197h-45v-197h-163z" />
    <glyph glyph-name="uni043B" unicode="&#x43b;" horiz-adv-x="643" 
d="M122 255l22 261h437v-516h-162v370h-126l-12 -142q-9 -111 -62 -163.5t-173 -72.5l-35 143q62 14 84 36.5t27 83.5z" />
    <glyph glyph-name="uni043C" unicode="&#x43c;" horiz-adv-x="746" 
d="M373 299l164 217h145v-516h-160v282l-115 -151h-68l-115 151v-282h-160v516h146z" />
    <glyph glyph-name="uni043D" unicode="&#x43d;" horiz-adv-x="639" 
d="M412 339v177h163v-516h-163v191h-185v-191h-163v516h163v-177h185z" />
    <glyph glyph-name="uni043E" unicode="&#x43e;" horiz-adv-x="643" 
d="M114 454q79 75 208 75q128 0 207.5 -75t79.5 -196t-79.5 -196t-207.5 -75q-129 0 -208.5 75t-79.5 196t80 196zM230 163q35 -36 92 -36q56 0 91 36t35 95q0 58 -35 94.5t-91 36.5t-91.5 -36.5t-35.5 -94.5q0 -59 35 -95z" />
    <glyph glyph-name="uni043F" unicode="&#x43f;" horiz-adv-x="639" 
d="M575 516v-516h-163v370h-185v-370h-163v516h511z" />
    <glyph glyph-name="uni0440" unicode="&#x440;" horiz-adv-x="671" 
d="M213 516l2 -75q67 86 180 86q106 0 174 -75t68 -194t-68 -194.5t-174 -75.5q-104 0 -168 67v-285h-163v746h149zM260 164q35 -37 90 -37q56 0 91 36.5t35 94.5t-35 94.5t-91 36.5q-55 0 -90.5 -36.5t-35.5 -94.5t36 -94z" />
    <glyph glyph-name="uni0441" unicode="&#x441;" horiz-adv-x="555" 
d="M112 453q77 76 198 76q139 0 218 -90l-89 -101q-51 51 -119 51q-55 0 -90 -36.5t-35 -94.5t34.5 -94.5t91.5 -36.5q80 0 125 61l94 -96q-84 -105 -231 -105q-121 0 -198 76t-77 195t78 195z" />
    <glyph glyph-name="uni0442" unicode="&#x442;" horiz-adv-x="537" 
d="M21 516h495v-147h-165v-369h-163v369h-167v147z" />
    <glyph glyph-name="uni0443" unicode="&#x443;" horiz-adv-x="600" 
d="M189 516l84 -230l37 -109l31 109l74 230h173l-217 -600q-56 -151 -213 -151q-53 0 -104 17l30 135q32 -9 57 -9q69 0 97 68l-226 540h177z" />
    <glyph glyph-name="uni0444" unicode="&#x444;" horiz-adv-x="770" 
d="M735 258q0 -114 -73.5 -187t-196.5 -83v-218h-160v218q-123 10 -197 83t-74 187q0 115 74 188t197 83v211h160v-211q123 -10 196.5 -83t73.5 -188zM459 390v-263q55 7 87 42.5t32 88.5q0 54 -32 89.5t-87 42.5zM192 258q0 -53 32 -88.5t86 -42.5v263q-54 -7 -86 -42.5
t-32 -89.5z" />
    <glyph glyph-name="uni0445" unicode="&#x445;" horiz-adv-x="560" 
d="M182 261l-163 255h172l55 -87l34 -58l34 58l54 87h173l-162 -255l171 -261h-175l-55 86l-40 66l-40 -66l-56 -86h-174z" />
    <glyph glyph-name="uni0446" unicode="&#x446;" horiz-adv-x="690" 
d="M575 516v-369h93v-292h-147v145h-457v516h163v-371h185v371h163z" />
    <glyph glyph-name="uni0447" unicode="&#x447;" horiz-adv-x="594" 
d="M37 359v157h163v-136q0 -49 21 -72t66 -23q41 0 82 16v215h163v-516h-163v156q-56 -16 -107 -16q-109 0 -167 56t-58 163z" />
    <glyph glyph-name="uni0448" unicode="&#x448;" horiz-adv-x="969" 
d="M743 145v371h162v-516h-841v516h162v-371h179v371h159v-371h179z" />
    <glyph glyph-name="uni0449" unicode="&#x449;" horiz-adv-x="1020" 
d="M905 516v-369h93v-292h-148v145h-786v516h162v-371h179v371h159v-371h179v371h162z" />
    <glyph glyph-name="uni044A" unicode="&#x44a;" horiz-adv-x="662" 
d="M324 380h102q102 0 158.5 -50t56.5 -140q0 -91 -56 -140.5t-159 -49.5h-265v369h-140v147h303v-136zM322 122h85q75 0 75 69t-75 69h-85v-138z" />
    <glyph glyph-name="uni044B" unicode="&#x44b;" horiz-adv-x="857" 
d="M227 516v-136h103q102 0 158.5 -50t56.5 -140q0 -91 -56 -140.5t-159 -49.5h-266v516h163zM630 0v516h163v-516h-163zM225 122h81q80 0 80 69t-80 69h-81v-138z" />
    <glyph glyph-name="uni044C" unicode="&#x44c;" horiz-adv-x="566" 
d="M227 516v-136h103q102 0 158.5 -50t56.5 -140q0 -91 -56 -140.5t-159 -49.5h-266v516h163zM225 260v-138h81q80 0 80 69t-80 69h-81z" />
    <glyph glyph-name="uni044D" unicode="&#x44d;" horiz-adv-x="556" 
d="M101 174q49 -57 131 -57q50 0 84 23t47 65h-202v108h201q-14 40 -47.5 63t-81.5 23q-71 0 -124 -48l-78 95q92 83 216 83q123 0 199 -75.5t76 -195.5q0 -118 -77 -194.5t-196 -76.5q-146 0 -233 97z" />
    <glyph glyph-name="uni044E" unicode="&#x44e;" horiz-adv-x="890" 
d="M64 516h163v-180h80q23 89 95 141t175 52q125 0 201.5 -75t76.5 -196t-76.5 -196t-201.5 -75q-106 0 -178.5 54t-92.5 147h-79v-188h-163v516zM479 164q35 -37 91 -37t91.5 36.5t35.5 94.5t-35.5 94.5t-91.5 36.5t-91 -36.5t-35 -94.5t35 -94z" />
    <glyph glyph-name="uni044F" unicode="&#x44f;" horiz-adv-x="587" 
d="M259 516h264v-516h-163v153h-73l-85 -153h-180l108 181q-89 48 -89 153q0 84 58.5 133t159.5 49zM363 394h-87q-36 0 -55.5 -17t-19.5 -48q0 -30 19.5 -47t55.5 -17h87v129z" />
    <glyph glyph-name="uni0450" unicode="&#x450;" horiz-adv-x="610" 
d="M34 257q0 120 76.5 196t198.5 76q137 0 204.5 -84t67.5 -184q0 -30 -5 -62h-385q12 -41 50.5 -64.5t95.5 -23.5q85 0 155 51l63 -102q-92 -73 -230 -73q-132 0 -211.5 74.5t-79.5 195.5zM318 740l64 -146h-125l-103 146h164zM431 303q-10 46 -41.5 73.5t-79.5 27.5
q-47 0 -79.5 -27.5t-41.5 -73.5h242z" />
    <glyph glyph-name="uni0451" unicode="&#x451;" horiz-adv-x="610" 
d="M34 257q0 120 76.5 196t198.5 76q137 0 204.5 -84t67.5 -184q0 -30 -5 -62h-385q12 -41 50.5 -64.5t95.5 -23.5q85 0 155 51l63 -102q-92 -73 -230 -73q-132 0 -211.5 74.5t-79.5 195.5zM123 657q0 35 23 57.5t59 22.5q35 0 58 -22.5t23 -57.5q0 -36 -23 -58.5t-58 -22.5
q-36 0 -59 22.5t-23 58.5zM357 715q23 22 59 22q35 0 58 -22.5t23 -57.5q0 -36 -23 -58.5t-58 -22.5q-36 0 -59 22.5t-23 58.5q0 35 23 58zM189 303h242q-10 46 -41.5 73.5t-79.5 27.5q-47 0 -79.5 -27.5t-41.5 -73.5z" />
    <glyph glyph-name="uni0452" unicode="&#x452;" horiz-adv-x="652" 
d="M403 519q86 0 138 -56.5t52 -145.5v-373q0 -185 -189 -185q-57 0 -108 18l30 126q29 -8 51 -8q28 0 40.5 15.5t12.5 51.5v312q0 101 -86 101q-48 0 -74.5 -29.5t-26.5 -80.5v-265h-163v563h-90v98h90v79h163v-79h141v-96h-141v-117q65 71 160 71z" />
    <glyph glyph-name="uni0453" unicode="&#x453;" horiz-adv-x="458" 
d="M239 740h164l-103 -146h-125zM64 516h376v-147h-213v-369h-163v516z" />
    <glyph glyph-name="uni0454" unicode="&#x454;" horiz-adv-x="556" 
d="M34 258q0 120 76 195.5t199 75.5q124 0 216 -83l-78 -95q-53 48 -124 48q-48 0 -81.5 -23t-47.5 -63h201v-108h-202q13 -42 47 -65t84 -23q82 0 131 57l85 -90q-87 -97 -233 -97q-119 0 -196 76.5t-77 194.5z" />
    <glyph glyph-name="uni0455" unicode="&#x455;" horiz-adv-x="506" 
d="M26 59l58 111q92 -54 172 -54q68 0 68 37q0 31 -86 51q-98 23 -143 63t-45 105q0 70 52.5 111.5t148.5 41.5q118 0 218 -62l-58 -107q-29 20 -72 33t-79 13q-59 0 -59 -32q0 -17 18.5 -28t69.5 -23q190 -43 190 -165q0 -75 -60 -119.5t-161 -44.5q-125 0 -232 69z" />
    <glyph glyph-name="uni0456" unicode="&#x456;" horiz-adv-x="291" 
d="M64 516h163v-516h-163v516zM73 739q27 26 73 26q44 0 71 -26t27 -69t-27 -69.5t-71 -26.5q-46 0 -73 26t-27 70q0 43 27 69z" />
    <glyph glyph-name="uni0457" unicode="&#x457;" horiz-adv-x="291" 
d="M64 516h163v-516h-163v516zM-32 657q0 35 22 57.5t56 22.5t56.5 -22.5t22.5 -57.5t-22 -58q-23 -23 -57 -23t-56 23t-22 58zM168 657q0 35 22 57.5t56 22.5t56.5 -22.5t22.5 -57.5t-22 -58q-23 -23 -57 -23t-56 23t-22 58z" />
    <glyph glyph-name="uni0458" unicode="&#x458;" horiz-adv-x="289" 
d="M-47 -94q30 -8 53 -8q31 0 43.5 15.5t12.5 51.5v551h163v-572q0 -185 -191 -185q-58 0 -111 18zM72 739q27 26 72 26q44 0 71 -26t27 -69t-27 -69.5t-71 -26.5q-45 0 -72.5 26.5t-27.5 69.5t28 69z" />
    <glyph glyph-name="uni0459" unicode="&#x459;" horiz-adv-x="912" 
d="M580 380h102q98 0 154 -50.5t56 -139.5q0 -90 -55.5 -140t-154.5 -50h-264v370h-125l-12 -142q-9 -111 -62.5 -164t-172.5 -72l-35 143q60 13 82.5 35.5t27.5 79.5l23 266h436v-136zM577 122h81q36 0 55.5 18t19.5 51t-19.5 51t-55.5 18h-81v-138z" />
    <glyph glyph-name="uni045A" unicode="&#x45a;" horiz-adv-x="905" 
d="M573 380h101q99 0 154.5 -50.5t55.5 -139.5q0 -91 -55 -140.5t-155 -49.5h-263v191h-184v-191h-163v516h163v-177h184v177h162v-136zM570 122h83q35 0 54 18t19 51t-19 51t-54 18h-83v-138z" />
    <glyph glyph-name="uni045B" unicode="&#x45b;" horiz-adv-x="652" 
d="M403 519q86 0 138 -56t52 -145v-318h-163v275q0 100 -86 100q-48 0 -74.5 -29.5t-26.5 -80.5v-265h-163v563h-90v98h90v79h163v-79h141v-96h-141v-117q65 71 160 71z" />
    <glyph glyph-name="uni045C" unicode="&#x45c;" horiz-adv-x="592" 
d="M227 516v-182h48l111 182h187l-162 -249l172 -267h-190l-121 197h-45v-197h-163v516h163zM294 740h164l-103 -146h-125z" />
    <glyph glyph-name="uni045D" unicode="&#x45d;" horiz-adv-x="647" 
d="M64 516h159v-285l223 285h137v-516h-159v285l-223 -285h-137v516zM168 740h164l64 -146h-125z" />
    <glyph glyph-name="uni045E" unicode="&#x45e;" horiz-adv-x="600" 
d="M189 516l84 -230l37 -109l31 109l74 230h173l-217 -600q-56 -151 -213 -151q-53 0 -104 17l30 135q32 -9 57 -9q69 0 97 68l-226 540h177zM241 746q9 -70 65 -70q55 0 64 70l97 -19q-16 -140 -161 -140q-144 0 -162 140z" />
    <glyph glyph-name="uni045F" unicode="&#x45f;" horiz-adv-x="639" 
d="M412 145v371h163v-516h-181v-145h-149v145h-181v516h163v-371h185z" />
    <glyph glyph-name="uni0490" unicode="&#x490;" horiz-adv-x="541" 
d="M361 700v150h160v-308h-278v-542h-172v700h290z" />
    <glyph glyph-name="uni0491" unicode="&#x491;" horiz-adv-x="462" 
d="M291 516v147h153v-294h-217v-369h-163v516h227z" />
    <glyph glyph-name="uni04D4" unicode="&#x4d4;" horiz-adv-x="991" 
d="M428 700h511v-135h-276v-143h250v-132h-250v-153h288v-137h-449v127h-222l-72 -127h-198zM343 247h159v285z" />
    <glyph glyph-name="uni04D5" unicode="&#x4d5;" horiz-adv-x="938" 
d="M93 281q60 46 165 46q59 0 120 -16v13q0 44 -27 62.5t-83 18.5q-71 0 -161 -41l-40 114q108 51 214 51q124 0 185 -79q71 79 188 79q129 0 192.5 -84t63.5 -183q0 -30 -5 -63h-377q13 -41 49.5 -64.5t88.5 -23.5q86 0 156 52l62 -103q-86 -73 -211 -73q-145 0 -219 96
q-76 -96 -223 -96q-94 0 -146 45.5t-52 121.5q0 81 60 127zM259 106q51 0 85.5 28.5t36.5 71.5q-60 17 -102 17q-89 0 -89 -62q0 -55 69 -55zM525 303h235q-10 47 -40.5 74t-75.5 27q-46 0 -77.5 -27t-41.5 -74z" />
    <glyph glyph-name="Wgrave" unicode="&#x1e80;" horiz-adv-x="1101" 
d="M17 700h178l75 -257l62 -225l138 456h161l140 -457l62 226l74 257h177l-212 -700h-183l-82 255l-56 182l-55 -182l-82 -255h-182zM556 908l63 -135h-129l-102 135h168z" />
    <glyph glyph-name="wgrave" unicode="&#x1e81;" horiz-adv-x="896" 
d="M186 516l43 -154l48 -177l105 312h134l107 -316l90 335h168l-170 -516h-158l-104 307l-104 -307h-158l-172 516h171zM457 740l64 -146h-125l-103 146h164z" />
    <glyph glyph-name="Wacute" unicode="&#x1e82;" horiz-adv-x="1101" 
d="M17 700h178l75 -257l62 -225l138 456h161l140 -457l62 226l74 257h177l-212 -700h-183l-82 255l-56 182l-55 -182l-82 -255h-182zM483 773l63 135h168l-102 -135h-129z" />
    <glyph glyph-name="wacute" unicode="&#x1e83;" horiz-adv-x="896" 
d="M186 516l43 -154l48 -177l105 312h134l107 -316l90 335h168l-170 -516h-158l-104 307l-104 -307h-158l-172 516h171zM377 594l64 146h164l-103 -146h-125z" />
    <glyph glyph-name="Wdieresis" unicode="&#x1e84;" horiz-adv-x="1101" 
d="M17 700h178l75 -257l62 -225l138 456h161l140 -457l62 226l74 257h177l-212 -700h-183l-82 255l-56 182l-55 -182l-82 -255h-182zM598 902q23 23 60 23t60 -23t23 -60q0 -36 -23 -59t-60 -23t-60 23t-23 59q0 37 23 60zM360 842q0 37 23 60t60 23t60 -23t23 -60
q0 -36 -23 -59t-60 -23t-60 23t-23 59z" />
    <glyph glyph-name="wdieresis" unicode="&#x1e85;" horiz-adv-x="896" 
d="M15 516h171l43 -154l48 -177l105 312h134l107 -316l90 335h168l-170 -516h-158l-104 307l-104 -307h-158zM285 715q23 22 59 22q35 0 58 -22.5t23 -57.5q0 -36 -23 -58.5t-58 -22.5q-36 0 -59 22.5t-23 58.5q0 35 23 58zM473 657q0 35 23 57.5t59 22.5q35 0 58 -22.5
t23 -57.5q0 -36 -23 -58.5t-58 -22.5q-36 0 -59 22.5t-23 58.5z" />
    <glyph glyph-name="Germandbls" unicode="&#x1e9e;" horiz-adv-x="725" 
d="M65 412q0 139 67.5 213.5t202.5 74.5h302v-117l-129 -164q82 -14 131.5 -72t49.5 -141q0 -100 -63 -158.5t-174 -58.5q-96 0 -171 39l51 131q48 -26 95 -26q46 0 72 24t26 64q0 54 -37 71t-75 17q-25 0 -54 -6l-30 87l135 172h-102q-125 0 -125 -143v-419h-172v412z" />
    <glyph glyph-name="Ygrave" unicode="&#x1ef2;" horiz-adv-x="698" 
d="M207 700l79 -145l64 -125l67 125l80 145h190l-252 -441v-259h-172v259l-252 441h196zM358 908l63 -135h-129l-102 135h168z" />
    <glyph glyph-name="ygrave" unicode="&#x1ef3;" horiz-adv-x="600" 
d="M12 516h177l84 -230l37 -109l31 109l74 230h173l-217 -600q-56 -151 -213 -151q-53 0 -104 17l30 135q32 -9 57 -9q69 0 97 68zM313 740l64 -146h-125l-103 146h164z" />
    <glyph glyph-name="uni2009" unicode="&#x2009;" horiz-adv-x="181" 
 />
    <glyph glyph-name="uni200B" unicode="&#x200b;" 
 />
    <glyph glyph-name="endash" unicode="&#x2013;" horiz-adv-x="545" 
d="M510 338v-135h-475v135h475z" />
    <glyph glyph-name="emdash" unicode="&#x2014;" horiz-adv-x="680" 
d="M645 338v-135h-610v135h610z" />
    <glyph glyph-name="quoteleft" unicode="&#x2018;" horiz-adv-x="261" 
d="M141 651q34 -2 56.5 -25t22.5 -57q0 -37 -24 -60.5t-61 -23.5q-43 0 -67.5 31.5t-24.5 85.5q0 56 28.5 111t78.5 96l47 -42q-49 -56 -56 -116z" />
    <glyph glyph-name="quoteright" unicode="&#x2019;" horiz-adv-x="261" 
d="M125 803q43 0 68 -31.5t25 -85.5q0 -56 -28.5 -111t-79.5 -96l-47 42q50 56 57 116q-34 2 -56.5 25t-22.5 57q0 37 23.5 60.5t60.5 23.5z" />
    <glyph glyph-name="quotesinglbase" unicode="&#x201a;" horiz-adv-x="261" 
d="M125 164q44 0 68.5 -31t24.5 -86q0 -56 -28.5 -111t-79.5 -96l-47 42q50 56 57 116q-34 2 -56.5 25.5t-22.5 57.5q0 36 23.5 59.5t60.5 23.5z" />
    <glyph glyph-name="quotedblleft" unicode="&#x201c;" horiz-adv-x="474" 
d="M141 651q34 -2 56.5 -25t22.5 -57q0 -37 -24 -60.5t-61 -23.5q-43 0 -67.5 31.5t-24.5 85.5q0 56 28.5 111t78.5 96l47 -42q-49 -56 -56 -116zM355 651q34 -2 56 -25t22 -57q0 -37 -23.5 -60.5t-60.5 -23.5q-43 0 -67.5 31.5t-24.5 85.5q0 56 28.5 111t78.5 96l47 -42
q-49 -56 -56 -116z" />
    <glyph glyph-name="quotedblright" unicode="&#x201d;" horiz-adv-x="473" 
d="M125 803q43 0 68 -31.5t25 -85.5q0 -56 -28.5 -111t-79.5 -96l-47 42q50 56 57 116q-34 2 -56.5 25t-22.5 57q0 37 23.5 60.5t60.5 23.5zM338 803q43 0 67.5 -31.5t24.5 -85.5q0 -56 -28.5 -111t-78.5 -96l-47 42q49 56 56 116q-34 2 -56.5 25t-22.5 57q0 37 24 60.5
t61 23.5z" />
    <glyph glyph-name="quotedblbase" unicode="&#x201e;" horiz-adv-x="474" 
d="M125 164q44 0 68.5 -31t24.5 -86q0 -56 -28.5 -111t-79.5 -96l-47 42q50 56 57 116q-34 2 -56.5 25.5t-22.5 57.5q0 36 23.5 59.5t60.5 23.5zM339 164q43 0 67.5 -31t24.5 -86q0 -56 -28.5 -111t-78.5 -96l-47 42q50 56 57 116q-34 2 -56.5 25.5t-22.5 57.5
q0 36 23.5 59.5t60.5 23.5z" />
    <glyph glyph-name="dagger" unicode="&#x2020;" horiz-adv-x="558" 
d="M343 392h169v-119h-169v-503h-128v503h-169v119h169v229h128v-229z" />
    <glyph glyph-name="daggerdbl" unicode="&#x2021;" horiz-adv-x="558" 
d="M512 412v-117h-169v-173h169v-117h-169v-235h-128v235h-169v117h169v173h-169v117h169v209h128v-209h169z" />
    <glyph glyph-name="bullet" unicode="&#x2022;" horiz-adv-x="389" 
d="M196 151q-63 0 -105 39t-42 102q0 62 42 101t105 39q62 0 104 -39t42 -101q0 -63 -41.5 -102t-104.5 -39z" />
    <glyph glyph-name="ellipsis" unicode="&#x2026;" horiz-adv-x="749" 
d="M134 -10q-40 0 -66.5 24.5t-26.5 64.5q0 39 26.5 64t66.5 25t66.5 -25t26.5 -64q0 -40 -26.5 -64.5t-66.5 -24.5zM375 -10q-40 0 -66.5 24.5t-26.5 64.5q0 39 26.5 64t66.5 25t66.5 -25t26.5 -64q0 -40 -26.5 -64.5t-66.5 -24.5zM615 -10q-40 0 -66.5 24.5t-26.5 64.5
q0 39 26.5 64t66.5 25t66.5 -25t26.5 -64q0 -40 -26.5 -64.5t-66.5 -24.5z" />
    <glyph glyph-name="perthousand" unicode="&#x2030;" horiz-adv-x="1191" 
d="M689 660l-482 -679l-84 59l483 679zM195 378q-77 0 -124.5 46t-47.5 119t48 119t124 46t123.5 -46t47.5 -119t-47.5 -119t-123.5 -46zM195 476q28 0 46 19t18 48t-18 47.5t-46 18.5t-46.5 -18.5t-18.5 -47.5t18.5 -48t46.5 -19zM619 -8q-76 0 -124 46t-48 119t47.5 119
t124.5 46q76 0 123.5 -46t47.5 -119t-47.5 -119t-123.5 -46zM1009 -8q-76 0 -123.5 45.5t-47.5 117.5t47.5 118t123.5 46q75 0 122.5 -46t47.5 -118t-47.5 -117.5t-122.5 -45.5zM619 91q28 0 46 18.5t18 47.5t-18 48t-46 19t-46.5 -19t-18.5 -48t18.5 -47.5t46.5 -18.5z
M1009 88q28 0 46.5 19t18.5 48t-18.5 48.5t-46.5 19.5q-29 0 -47.5 -19.5t-18.5 -48.5t18.5 -48t47.5 -19z" />
    <glyph glyph-name="minute" unicode="&#x2032;" horiz-adv-x="256" 
d="M165 450h-132l52 310h142z" />
    <glyph glyph-name="second" unicode="&#x2033;" horiz-adv-x="445" 
d="M157 450h-124l49 310h134zM348 450h-125l59 310h135z" />
    <glyph glyph-name="guilsinglleft" unicode="&#x2039;" horiz-adv-x="447" 
d="M287 567l100 -88l-164 -198l164 -201l-100 -87l-239 288z" />
    <glyph glyph-name="guilsinglright" unicode="&#x203a;" horiz-adv-x="447" 
d="M60 481l100 87l240 -288l-240 -286l-100 88l165 198z" />
    <glyph glyph-name="uni203D" unicode="&#x203d;" horiz-adv-x="546" 
d="M270 713q108 0 171.5 -55.5t63.5 -141.5q0 -55 -25 -97.5t-86 -86.5q-34 -24 -46 -43.5t-12 -54.5v-32h-140l-6 217v107h129v-101q39 35 39 80q0 79 -106 79q-92 0 -158 -78l-80 94q102 113 256 113zM266 166q40 0 66.5 -24.5t26.5 -63.5t-26.5 -63.5t-66.5 -24.5
q-41 0 -67 24.5t-26 63.5t26 63.5t67 24.5z" />
    <glyph glyph-name="fraction" unicode="&#x2044;" horiz-adv-x="205" 
d="M394 702l-502 -751l-81 56l502 751z" />
    <glyph glyph-name="uni2070" unicode="&#x2070;" horiz-adv-x="360" 
d="M180 466q-71 0 -112.5 46.5t-41.5 128.5t41.5 128.5t112.5 46.5q72 0 113 -46.5t41 -128.5t-41 -128.5t-113 -46.5zM180 552q57 0 57 89t-57 89t-57 -89t57 -89z" />
    <glyph glyph-name="uni2074" unicode="&#x2074;" horiz-adv-x="318" 
d="M264 606h35v-80h-35v-54h-89v54h-164v73l162 211h91v-204zM179 603v91l-69 -91h69z" />
    <glyph glyph-name="uni2075" unicode="&#x2075;" horiz-adv-x="297" 
d="M158 688q51 0 84 -28.5t33 -79.5q0 -53 -37 -83.5t-96 -30.5q-74 0 -125 40l43 74q38 -27 72 -27q18 0 30.5 8.5t12.5 22.5q0 34 -48 34q-26 0 -55 -8l-34 28l12 172h203v-82h-128l-2 -43q18 3 35 3z" />
    <glyph glyph-name="uni2076" unicode="&#x2076;" horiz-adv-x="319" 
d="M183 698q51 0 82 -31.5t31 -80.5q0 -53 -35 -86.5t-93 -33.5q-66 0 -104 44t-38 124q0 87 40 134.5t111 47.5q54 0 102 -28l-33 -63q-29 15 -60 15q-62 0 -73 -66q27 24 70 24zM164 542q18 0 30.5 12t12.5 30q0 19 -12.5 31t-30.5 12q-20 0 -31.5 -11.5t-11.5 -31.5
q0 -19 11.5 -30.5t31.5 -11.5z" />
    <glyph glyph-name="uni2077" unicode="&#x2077;" horiz-adv-x="282" 
d="M19 725v85h241v-64l-88 -274h-102l81 253h-132z" />
    <glyph glyph-name="uni2078" unicode="&#x2078;" horiz-adv-x="326" 
d="M255 649q47 -29 47 -82q0 -46 -37.5 -73.5t-101.5 -27.5t-101.5 27.5t-37.5 73.5q0 52 47 82q-36 30 -36 72q0 43 35 69t93 26t93 -26t35 -69t-36 -72zM163 746q-16 0 -26 -9t-10 -23q0 -15 10 -24t26 -9t26 9t10 24q0 14 -10 23t-26 9zM163 536q20 0 32 11t12 28
q0 18 -12 29t-32 11t-32 -11t-12 -29q0 -17 12.5 -28t31.5 -11z" />
    <glyph glyph-name="uni2079" unicode="&#x2079;" horiz-adv-x="319" 
d="M151 816q66 0 104 -44t38 -124q0 -87 -40 -134.5t-111 -47.5q-54 0 -102 28l33 63q29 -15 60 -15q62 0 73 66q-27 -24 -70 -24q-51 0 -82 31.5t-31 80.5q0 53 35 86.5t93 33.5zM155 655q20 0 31.5 11.5t11.5 31.5q0 19 -11.5 30.5t-31.5 11.5q-18 0 -30.5 -12t-12.5 -30
q0 -19 12.5 -31t30.5 -12z" />
    <glyph glyph-name="uni2080" unicode="&#x2080;" horiz-adv-x="360" 
d="M180 -116q-71 0 -112.5 46.5t-41.5 128.5t41.5 128.5t112.5 46.5q72 0 113 -46.5t41 -128.5t-41 -128.5t-113 -46.5zM180 -30q57 0 57 89t-57 89t-57 -89t57 -89z" />
    <glyph glyph-name="uni2081" unicode="&#x2081;" horiz-adv-x="228" 
d="M116 228h81v-338h-96v207h-86v79h24q55 0 77 52z" />
    <glyph glyph-name="uni2082" unicode="&#x2082;" horiz-adv-x="302" 
d="M276 -110h-251v63l103 111q36 40 36 57q0 28 -33 28q-34 0 -67 -33l-51 63q58 55 131 55q55 0 88.5 -28.5t33.5 -75.5q0 -30 -13.5 -53.5t-53.5 -67.5l-30 -34h107v-85z" />
    <glyph glyph-name="uni2083" unicode="&#x2083;" horiz-adv-x="296" 
d="M256 169l-69 -72q40 -8 64 -35.5t24 -65.5q0 -50 -37.5 -81t-98.5 -31q-73 0 -123 40l43 73q35 -26 72 -26q45 0 45 33q0 22 -20.5 30t-56.5 0l-21 46l59 64h-100v84h219v-59z" />
    <glyph glyph-name="uni2084" unicode="&#x2084;" horiz-adv-x="318" 
d="M264 24h35v-80h-35v-54h-89v54h-164v73l162 211h91v-204zM179 21v91l-69 -91h69z" />
    <glyph glyph-name="uni2085" unicode="&#x2085;" horiz-adv-x="297" 
d="M158 106q51 0 84 -28.5t33 -79.5q0 -53 -37 -83.5t-96 -30.5q-74 0 -125 40l43 74q38 -27 72 -27q18 0 30.5 8.5t12.5 22.5q0 34 -48 34q-26 0 -55 -8l-34 28l12 172h203v-82h-128l-2 -43q18 3 35 3z" />
    <glyph glyph-name="uni2086" unicode="&#x2086;" horiz-adv-x="319" 
d="M183 116q51 0 82 -31.5t31 -80.5q0 -53 -35 -86.5t-93 -33.5q-66 0 -104 44t-38 124q0 87 40 134.5t111 47.5q54 0 102 -28l-33 -63q-29 15 -60 15q-62 0 -73 -66q27 24 70 24zM164 -40q18 0 30.5 12t12.5 30q0 19 -12.5 31t-30.5 12q-20 0 -31.5 -11.5t-11.5 -31.5
q0 -19 11.5 -30.5t31.5 -11.5z" />
    <glyph glyph-name="uni2087" unicode="&#x2087;" horiz-adv-x="282" 
d="M19 143v85h241v-64l-88 -274h-102l81 253h-132z" />
    <glyph glyph-name="uni2088" unicode="&#x2088;" horiz-adv-x="326" 
d="M255 67q47 -29 47 -82q0 -46 -37.5 -73.5t-101.5 -27.5t-101.5 27.5t-37.5 73.5q0 52 47 82q-36 30 -36 72q0 43 35 69t93 26t93 -26t35 -69t-36 -72zM163 164q-16 0 -26 -9t-10 -23q0 -15 10 -24t26 -9t26 9t10 24q0 14 -10 23t-26 9zM163 -46q20 0 32 11t12 28
q0 18 -12 29t-32 11t-32 -11t-12 -29q0 -17 12.5 -28t31.5 -11z" />
    <glyph glyph-name="uni2089" unicode="&#x2089;" horiz-adv-x="319" 
d="M151 234q66 0 104 -44t38 -124q0 -87 -39.5 -134.5t-111.5 -47.5q-55 0 -101 28l32 63q29 -15 60 -15q62 0 73 66q-27 -24 -70 -24q-51 0 -82 31.5t-31 80.5q0 53 35.5 86.5t92.5 33.5zM155 73q20 0 31.5 11.5t11.5 31.5q0 19 -11.5 30.5t-31.5 11.5q-18 0 -30.5 -12
t-12.5 -30q0 -19 12.5 -31t30.5 -12z" />
    <glyph glyph-name="Euro" unicode="&#x20ac;" horiz-adv-x="791" 
d="M672 228l103 -99q-119 -142 -301 -142q-131 0 -220 63.5t-122 172.5h-115v103h98q-1 8 -1 23q0 17 1 26h-98v103h116q34 108 121.5 171.5t213.5 63.5q173 0 300 -136l-99 -102q-86 93 -192 93q-117 0 -172 -100h226v-93h-252q-1 -8 -1 -25q0 -16 1 -24h252v-93h-226
q55 -101 176 -101q111 0 191 96z" />
    <glyph glyph-name="uni20B4" unicode="&#x20b4;" horiz-adv-x="633" 
d="M545 472h58v-97h-573v97h360q11 15 11 39q0 70 -89 70q-68 0 -151 -54l-69 107q98 78 233 78q102 0 167 -50.5t65 -128.5q0 -33 -12 -61zM97 230h-67v96h573v-96h-346q-12 -16 -12 -41q0 -69 97 -69q78 0 169 58l64 -111q-48 -35 -115 -56.5t-135 -21.5q-110 0 -176 45.5
t-66 126.5q0 36 14 69z" />
    <glyph glyph-name="uni20BA" unicode="&#x20ba;" horiz-adv-x="713" 
d="M555 274l131 -53q-27 -112 -91 -166.5t-186 -54.5h-263v218l-90 -34l-33 93l129 49v52l-97 -37l-34 93l125 48v218h172v-153l160 61l33 -94l-199 -75v-53l168 64l33 -94l-195 -73v-134h79q72 0 104.5 28.5t53.5 96.5z" />
    <glyph glyph-name="uni20BD" unicode="&#x20bd;" horiz-adv-x="672" 
d="M387 247h-89v-45h139v-98h-139v-104h-172v104h-102v98h102v45h-100v120h100v333h270q114 0 185 -63t71 -166q0 -102 -72 -163t-193 -61zM381 554h-86v-187h86q50 0 78.5 25t28.5 68t-29 68.5t-78 25.5z" />
    <glyph glyph-name="uni2103" unicode="&#x2103;" horiz-adv-x="1085" 
d="M500 610q98 103 257 103q173 0 296 -139l-104 -110q-73 92 -181 92q-85 0 -138 -57.5t-53 -148.5q0 -92 53.5 -149t140.5 -57q115 0 192 97l106 -110q-114 -144 -309 -144q-161 0 -260 102t-99 261q0 156 99 260zM33 572q0 64 44 106.5t113 42.5t113 -42.5t44 -106.5
t-44 -106q-44 -43 -113 -43t-113 42.5t-44 106.5zM121 572q0 -30 19 -49t50 -19t50 19t19 49t-19 49t-50 19t-50 -19t-19 -49z" />
    <glyph glyph-name="uni2109" unicode="&#x2109;" horiz-adv-x="936" 
d="M445 700h463v-144h-292v-162h264v-140h-263v-254h-172v700zM33 572q0 64 44 107q44 42 113 42t113 -42.5t44 -106.5t-44 -106.5t-113 -42.5t-113 42.5t-44 106.5zM121 572q0 -30 19 -49t50 -19t50 19t19 49t-19 49t-50 19t-50 -19t-19 -49z" />
    <glyph glyph-name="uni2113" unicode="&#x2113;" horiz-adv-x="505" 
d="M335 109q40 0 84 17l34 -107q-67 -31 -140 -31q-93 0 -143.5 52.5t-51.5 157.5l-54 -21l-42 112l96 38v222q0 93 50 146t134 53q77 0 126.5 -51.5t49.5 -148.5q0 -199 -228 -297v-47q0 -95 85 -95zM298 628q-48 0 -48 -74v-171q97 54 97 163q0 82 -49 82z" />
    <glyph glyph-name="uni2116" unicode="&#x2116;" horiz-adv-x="1111" 
d="M71 700h139l312 -415v415h165v-700h-140l-311 416v-416h-165v700zM744 541q0 71 49.5 118.5t125.5 47.5q78 0 126.5 -47t48.5 -119t-48.5 -119t-126.5 -47q-76 0 -125.5 48t-49.5 118zM765 230v105h308v-105h-308zM871 492q19 -19 48 -19t48.5 18.5t19.5 49.5t-19 50
q-20 18 -49 18t-48.5 -18.5t-19.5 -49.5t20 -49z" />
    <glyph glyph-name="uni2117" unicode="&#x2117;" horiz-adv-x="816" 
d="M408 720q161 0 265.5 -105t104.5 -265t-104.5 -264t-265.5 -104t-266 104t-105 264t104.5 265t266.5 105zM408 84q113 0 186.5 75.5t73.5 190.5q0 117 -73 191.5t-187 74.5t-187.5 -75t-73.5 -191t73.5 -191t187.5 -75zM286 538h148q69 0 107 -37t38 -99t-38 -99
t-107 -37h-52v-113h-96v385zM381 349h43q27 0 42 14.5t15 38.5q0 25 -15 39.5t-42 14.5h-43v-107z" />
    <glyph glyph-name="trademark" unicode="&#x2122;" horiz-adv-x="586" 
d="M91 628h-71v72h221v-72h-70v-191h-80v191zM412 599l75 101h70v-263h-81v129l-47 -66h-36l-47 66v-129h-80v263h71z" />
    <glyph glyph-name="uni2126" unicode="&#x2126;" horiz-adv-x="850" 
d="M703 136h107v-136h-338v128q72 29 110 85t38 131q0 96 -54.5 154.5t-140.5 58.5t-140.5 -58.5t-54.5 -154.5q0 -75 38.5 -131t109.5 -85v-128h-338v136h108q-91 88 -91 227q0 151 103.5 250.5t264.5 99.5q162 0 265.5 -99t103.5 -251q0 -139 -91 -227z" />
    <glyph glyph-name="estimated" unicode="&#x212e;" horiz-adv-x="772" 
d="M734 327h-562v-202q80 -91 220 -91q80 0 152.5 41t122.5 123l38 -26q-120 -184 -313 -184q-160 0 -257.5 103.5t-97.5 259.5q0 153 98.5 257t256.5 104q157 0 253 -106.5t89 -278.5zM392 666q-136 0 -220 -99v-198h432v210q-81 87 -212 87z" />
    <glyph glyph-name="uni2150" unicode="&#x2150;" horiz-adv-x="715" 
d="M39 7l502 751l81 -56l-502 -751zM197 362h-96v207h-86v79h24q55 0 77 52h81v-338zM452 253v85h241v-64l-88 -274h-102l81 253h-132z" />
    <glyph glyph-name="uni2151" unicode="&#x2151;" horiz-adv-x="752" 
d="M39 7l502 751l81 -56l-502 -751zM197 362h-96v207h-86v79h24q55 0 77 52h81v-338zM584 344q66 0 104 -44t38 -124q0 -87 -39.5 -134.5t-111.5 -47.5q-55 0 -101 28l32 63q28 -15 60 -15q62 0 73 66q-27 -24 -70 -24q-51 0 -82 31.5t-31 80.5q0 53 35.5 86.5t92.5 33.5z
M588 183q20 0 31.5 11.5t11.5 31.5q0 19 -11.5 30.5t-31.5 11.5q-18 0 -30.5 -12t-12.5 -30q0 -19 12.5 -31t30.5 -12z" />
    <glyph glyph-name="onethird" unicode="&#x2153;" horiz-adv-x="729" 
d="M39 7l502 751l81 -56l-502 -751zM197 362h-96v207h-86v79h24q55 0 77 52h81v-338zM689 279l-69 -72q40 -8 64 -35.5t24 -65.5q0 -50 -37.5 -81t-98.5 -31q-73 0 -123 40l43 73q35 -26 72 -26q45 0 45 33q0 22 -20.5 30t-56.5 0l-21 46l59 64h-100v84h219v-59z" />
    <glyph glyph-name="twothirds" unicode="&#x2154;" horiz-adv-x="803" 
d="M113 7l502 751l81 -56l-502 -751zM25 362v63l103 111q36 40 36 57q0 28 -33 28q-34 0 -67 -33l-51 63q58 55 131 55q55 0 88.5 -28.5t33.5 -75.5q0 -30 -13.5 -53.5t-53.5 -67.5l-30 -34h107v-85h-251zM763 279l-69 -72q40 -8 64 -35.5t24 -65.5q0 -50 -37.5 -81
t-98.5 -31q-73 0 -123 40l43 73q35 -26 72 -26q45 0 45 33q0 22 -20.5 30t-56.5 0l-21 46l59 64h-100v84h219v-59z" />
    <glyph glyph-name="uni2155" unicode="&#x2155;" horiz-adv-x="730" 
d="M39 7l502 751l81 -56l-502 -751zM197 362h-96v207h-86v79h24q55 0 77 52h81v-338zM591 216q51 0 84 -28.5t33 -79.5q0 -53 -37 -83.5t-96 -30.5q-74 0 -125 40l43 74q38 -27 72 -27q18 0 30.5 8.5t12.5 22.5q0 34 -48 34q-26 0 -55 -8l-34 28l12 172h203v-82h-128l-2 -43
q18 3 35 3z" />
    <glyph glyph-name="uni2156" unicode="&#x2156;" horiz-adv-x="804" 
d="M113 7l502 751l81 -56l-502 -751zM25 362v63l103 111q36 40 36 57q0 28 -33 28q-34 0 -67 -33l-51 63q58 55 131 55q55 0 88.5 -28.5t33.5 -75.5q0 -30 -13.5 -53.5t-53.5 -67.5l-30 -34h107v-85h-251zM665 216q51 0 84 -28.5t33 -79.5q0 -53 -37 -83.5t-96 -30.5
q-74 0 -125 40l43 74q38 -27 72 -27q18 0 30.5 8.5t12.5 22.5q0 34 -48 34q-26 0 -55 -8l-34 28l12 172h203v-82h-128l-2 -43q18 3 35 3z" />
    <glyph glyph-name="uni2157" unicode="&#x2157;" horiz-adv-x="798" 
d="M107 7l502 751l81 -56l-502 -751zM131 443q45 0 45 33q0 22 -20.5 30t-56.5 0l-21 46l59 64h-100v84h219v-59l-69 -72q40 -8 64 -35.5t24 -65.5q0 -50 -37.5 -81t-98.5 -31q-73 0 -123 40l43 73q35 -26 72 -26zM659 216q51 0 84 -28.5t33 -79.5q0 -53 -37 -83.5
t-96 -30.5q-74 0 -125 40l43 74q38 -27 72 -27q18 0 30.5 8.5t12.5 22.5q0 34 -48 34q-26 0 -55 -8l-34 28l12 172h203v-82h-128l-2 -43q18 3 35 3z" />
    <glyph glyph-name="uni2158" unicode="&#x2158;" horiz-adv-x="820" 
d="M129 7l502 751l81 -56l-502 -751zM264 362h-89v54h-164v73l162 211h91v-204h35v-80h-35v-54zM179 493v91l-69 -91h69zM681 216q51 0 84 -28.5t33 -79.5q0 -53 -37 -83.5t-96 -30.5q-74 0 -125 40l43 74q38 -27 72 -27q18 0 30.5 8.5t12.5 22.5q0 34 -48 34q-26 0 -55 -8
l-34 28l12 172h203v-82h-128l-2 -43q18 3 35 3z" />
    <glyph glyph-name="uni2159" unicode="&#x2159;" horiz-adv-x="752" 
d="M39 7l502 751l81 -56l-502 -751zM197 362h-96v207h-86v79h24q55 0 77 52h81v-338zM616 226q51 0 82 -31.5t31 -80.5q0 -53 -35 -86.5t-93 -33.5q-66 0 -104 44t-38 124q0 87 40 134.5t111 47.5q54 0 102 -28l-33 -63q-29 15 -60 15q-62 0 -73 -66q27 24 70 24zM597 70
q18 0 30.5 12t12.5 30q0 19 -12.5 31t-30.5 12q-20 0 -31.5 -11.5t-11.5 -31.5q0 -19 11.5 -30.5t31.5 -11.5z" />
    <glyph glyph-name="uni215A" unicode="&#x215a;" horiz-adv-x="821" 
d="M108 7l502 751l81 -56l-502 -751zM132 443q18 0 30.5 8.5t12.5 22.5q0 34 -48 34q-26 0 -55 -8l-34 28l12 172h203v-82h-128l-2 -43q18 3 35 3q51 0 84 -28.5t33 -79.5q0 -53 -37 -83.5t-96 -30.5q-74 0 -125 40l43 74q38 -27 72 -27zM685 226q51 0 82 -31.5t31 -80.5
q0 -53 -35 -86.5t-93 -33.5q-66 0 -104 44t-38 124q0 87 40 134.5t111 47.5q54 0 102 -28l-33 -63q-28 15 -60 15q-62 0 -73 -66q27 24 70 24zM666 70q18 0 30.5 12t12.5 30q0 19 -12.5 31t-30.5 12q-20 0 -31.5 -11.5t-11.5 -31.5q0 -19 11.5 -30.5t31.5 -11.5z" />
    <glyph glyph-name="oneeighth" unicode="&#x215b;" horiz-adv-x="759" 
d="M39 7l502 751l81 -56l-502 -751zM197 362h-96v207h-86v79h24q55 0 77 52h81v-338zM688 177q47 -29 47 -82q0 -46 -37.5 -73.5t-101.5 -27.5t-101.5 27.5t-37.5 73.5q0 52 47 82q-36 30 -36 72q0 43 35 69t93 26t93 -26t35 -69t-36 -72zM596 274q-16 0 -26 -9t-10 -23
q0 -15 10 -24t26 -9t26 9t10 24q0 14 -10 23t-26 9zM596 64q20 0 32 11t12 28q0 18 -12 29t-32 11t-32 -11t-12 -29q0 -17 12.5 -28t31.5 -11z" />
    <glyph glyph-name="threeeighths" unicode="&#x215c;" horiz-adv-x="827" 
d="M107 7l502 751l81 -56l-502 -751zM131 443q45 0 45 33q0 22 -20.5 30t-56.5 0l-21 46l59 64h-100v84h219v-59l-69 -72q40 -8 64 -35.5t24 -65.5q0 -50 -37.5 -81t-98.5 -31q-73 0 -123 40l43 73q35 -26 72 -26zM756 177q47 -29 47 -82q0 -46 -37.5 -73.5t-101.5 -27.5
t-101.5 27.5t-37.5 73.5q0 52 47 82q-36 30 -36 72q0 43 35 69t93 26t93 -26t35 -69t-36 -72zM664 274q-16 0 -26 -9t-10 -23q0 -15 10 -24t26 -9t26 9t10 24q0 14 -10 23t-26 9zM664 64q20 0 32 11t12 28q0 18 -12 29t-32 11t-32 -11t-12 -29q0 -17 12.5 -28t31.5 -11z" />
    <glyph glyph-name="fiveeighths" unicode="&#x215d;" horiz-adv-x="828" 
d="M108 7l502 751l81 -56l-502 -751zM132 443q18 0 30.5 8.5t12.5 22.5q0 34 -48 34q-26 0 -55 -8l-34 28l12 172h203v-82h-128l-2 -43q18 3 35 3q51 0 84 -28.5t33 -79.5q0 -53 -37 -83.5t-96 -30.5q-74 0 -125 40l43 74q38 -27 72 -27zM757 177q47 -29 47 -82
q0 -46 -37.5 -73.5t-101.5 -27.5t-101.5 27.5t-37.5 73.5q0 52 47 82q-36 30 -36 72q0 43 35 69t93 26t93 -26t35 -69t-36 -72zM665 274q-16 0 -26 -9t-10 -23q0 -15 10 -24t26 -9t26 9t10 24q0 14 -10 23t-26 9zM665 64q20 0 32 11t12 28q0 18 -12 29t-32 11t-32 -11
t-12 -29q0 -17 12.5 -28t31.5 -11z" />
    <glyph glyph-name="seveneighths" unicode="&#x215e;" horiz-adv-x="813" 
d="M93 7l502 751l81 -56l-502 -751zM260 636l-88 -274h-102l81 253h-132v85h241v-64zM742 177q47 -29 47 -82q0 -46 -37.5 -73.5t-101.5 -27.5t-101.5 27.5t-37.5 73.5q0 52 47 82q-36 30 -36 72q0 43 35 69t93 26t93 -26t35 -69t-36 -72zM650 274q-16 0 -26 -9t-10 -23
q0 -15 10 -24t26 -9t26 9t10 24q0 14 -10 23t-26 9zM650 64q20 0 32 11t12 28q0 18 -12 29t-32 11t-32 -11t-12 -29q0 -17 12.5 -28t31.5 -11z" />
    <glyph glyph-name="arrowleft" unicode="&#x2190;" horiz-adv-x="796" 
d="M304 401h456v-144h-456l146 -146l-100 -100l-318 318l318 318l100 -100z" />
    <glyph glyph-name="arrowup" unicode="&#x2191;" horiz-adv-x="710" 
d="M355 711l318 -318l-100 -100l-146 146v-456h-144v456l-146 -146l-100 100z" />
    <glyph glyph-name="arrowright" unicode="&#x2192;" horiz-adv-x="796" 
d="M345 547l100 100l318 -318l-318 -318l-100 100l146 146h-456v144h456z" />
    <glyph glyph-name="arrowdown" unicode="&#x2193;" horiz-adv-x="710" 
d="M427 212l146 146l100 -100l-318 -318l-318 318l100 100l146 -146v456h144v-456z" />
    <glyph glyph-name="arrowboth" unicode="&#x2194;" horiz-adv-x="1129" 
d="M679 547l100 100l318 -318l-318 -318l-100 100l146 146h-521l146 -146l-100 -100l-318 318l318 318l100 -100l-146 -146h521z" />
    <glyph glyph-name="arrowupdn" unicode="&#x2195;" horiz-adv-x="710" 
d="M427 541v-521l146 145l100 -99l-318 -318l-318 318l100 99l146 -145v521l-146 -146l-100 100l318 318l318 -318l-100 -100z" />
    <glyph glyph-name="uni2196" unicode="&#x2196;" horiz-adv-x="653" 
d="M289 455l322 -322l-102 -102l-322 322v-206h-141v449h449v-141h-206z" />
    <glyph glyph-name="uni2197" unicode="&#x2197;" horiz-adv-x="652" 
d="M158 455v141h449v-449h-141v207l-323 -323l-102 101l324 323h-207z" />
    <glyph glyph-name="uni2198" unicode="&#x2198;" horiz-adv-x="653" 
d="M466 318v206h141v-450h-449v141l206 1l-322 322l102 102z" />
    <glyph glyph-name="uni2199" unicode="&#x2199;" horiz-adv-x="652" 
d="M509 652l102 -102l-322 -322l206 -1v-141h-450v450h142v-206z" />
    <glyph glyph-name="uni21A9" unicode="&#x21a9;" horiz-adv-x="1165" 
d="M701 872h59q168 0 276.5 -104t108.5 -266q0 -163 -108.5 -267t-276.5 -104h-454l144 -144l-100 -100l-318 318l318 318l100 -100l-148 -148h458q105 0 168.5 62t63.5 165q0 102 -63.5 164t-168.5 62h-59v144z" />
    <glyph glyph-name="uni21AA" unicode="&#x21aa;" horiz-adv-x="1165" 
d="M715 423l100 100l318 -318l-318 -318l-100 100l143 144h-453q-168 0 -276.5 104t-108.5 267q0 162 108.5 266t276.5 104h59v-144h-59q-106 0 -169 -62t-63 -164q0 -103 63 -165t169 -62h457z" />
    <glyph glyph-name="uni21B0" unicode="&#x21b0;" horiz-adv-x="896" 
d="M450 775l-146 -146h521v-583h-149v439h-372l146 -146l-100 -100l-318 318l318 318z" />
    <glyph glyph-name="uni21B1" unicode="&#x21b1;" horiz-adv-x="896" 
d="M446 775l100 100l318 -318l-318 -318l-100 100l146 146h-372v-439h-149v583h521z" />
    <glyph glyph-name="uni21B3" unicode="&#x21b3;" horiz-adv-x="896" 
d="M446 483l100 100l318 -318l-318 -318l-100 100l146 146h-521v583h149v-439h372z" />
    <glyph glyph-name="uni21B4" unicode="&#x21b4;" horiz-adv-x="937" 
d="M654 259l146 146l100 -100l-318 -318l-318 318l100 100l146 -146v372h-440v149h584v-521z" />
    <glyph glyph-name="carriagereturn" unicode="&#x21b5;" horiz-adv-x="896" 
d="M676 337v439h149v-583h-521l146 -146l-100 -100l-318 318l318 318l100 -100l-146 -146h372z" />
    <glyph glyph-name="uni21BA" unicode="&#x21ba;" horiz-adv-x="925" 
d="M468 652h6q179 0 296.5 -115.5t117.5 -293.5t-117.5 -293.5t-296.5 -115.5t-296.5 115.5t-117.5 293.5h141q0 -119 77.5 -198t195.5 -79t195.5 79t77.5 198t-77.5 198t-195.5 79h-14l116 -116l-87 -85l-264 263l264 263l87 -85z" />
    <glyph glyph-name="uni21BB" unicode="&#x21bb;" horiz-adv-x="925" 
d="M725 243h140q0 -178 -117 -293.5t-297 -115.5q-179 0 -296.5 115.5t-117.5 293.5t117.5 293.5t296.5 115.5h6l-107 108l86 85l265 -263l-265 -263l-86 85l115 116h-14q-117 0 -195 -79t-78 -198t78 -198t195 -79q118 0 196 79t78 198z" />
    <glyph glyph-name="uni21E4" unicode="&#x21e4;" horiz-adv-x="1120" 
d="M228 -7h-157v658h157v-658zM529 394h556v-144h-556l145 -146l-100 -100l-317 318l317 318l100 -100z" />
    <glyph glyph-name="uni21E5" unicode="&#x21e5;" horiz-adv-x="1120" 
d="M892 -7v658h157v-658h-157zM591 394l-146 146l100 100l318 -318l-318 -318l-100 100l146 146h-556v144h556z" />
    <glyph glyph-name="uni21E7" unicode="&#x21e7;" horiz-adv-x="919" 
d="M652 -18h-386v310h-229l422 486l423 -486h-230v-310zM390 399v-295h138v295h96l-165 189l-164 -189h95z" />
    <glyph glyph-name="uni21EA" unicode="&#x21ea;" horiz-adv-x="919" 
d="M652 157h-386v135h-229l422 486l423 -486h-230v-135zM390 399v-148h138v148h96l-165 189l-164 -189h95zM652 -139h-386v245h386v-245zM388 12v-57h143v57h-143z" />
    <glyph glyph-name="partialdiff" unicode="&#x2202;" horiz-adv-x="655" 
d="M208 690l56 120q125 -37 206.5 -109.5t114.5 -157t33 -184.5q0 -171 -89.5 -271t-235.5 -100q-115 0 -187 67.5t-72 174.5q0 121 81.5 204t206.5 83q76 0 124 -26q-24 65 -80.5 112t-157.5 87zM306 127q63 0 104.5 44.5t41.5 102.5q0 49 -29.5 79.5t-82.5 30.5
q-61 0 -102 -42.5t-41 -104.5q0 -51 29 -80.5t80 -29.5z" />
    <glyph glyph-name="emptyset" unicode="&#x2205;" horiz-adv-x="775" 
d="M713 623l-70 -83q88 -93 88 -225q0 -139 -97.5 -233.5t-245.5 -94.5q-93 0 -172 41l-73 -87l-81 66l71 84q-88 93 -88 224q0 140 97.5 234t245.5 94q96 0 175 -42l72 86zM388 525q-88 0 -148 -59t-60 -151q0 -77 42 -131l266 317q-45 24 -100 24zM388 104q88 0 148 59.5
t60 151.5q0 72 -39 127l-267 -315q44 -23 98 -23z" />
    <glyph glyph-name="uni2206" unicode="&#x2206;" horiz-adv-x="753" 
d="M286 700h184l270 -700h-727zM523 127l-147 411l-147 -411h294z" />
    <glyph glyph-name="product" unicode="&#x220f;" horiz-adv-x="762" 
d="M734 700v-147h-94v-663h-165v663h-188v-663h-164v663h-95v147h706z" />
    <glyph glyph-name="summation" unicode="&#x2211;" horiz-adv-x="554" 
d="M416 300l-186 -269h304v-141h-501v113l204 294l-198 290v113h476v-141h-276z" />
    <glyph glyph-name="minus" unicode="&#x2212;" horiz-adv-x="516" 
d="M472 234h-428v140h428v-140z" />
    <glyph glyph-name="uni2215" unicode="&#x2215;" horiz-adv-x="205" 
d="M394 702l-502 -751l-81 56l502 751z" />
    <glyph glyph-name="uni2219" unicode="&#x2219;" horiz-adv-x="331" 
d="M166 175q-54 0 -90 34t-36 87q0 54 36 87.5t90 33.5t90.5 -33.5t36.5 -87.5q0 -53 -36.5 -87t-90.5 -34z" />
    <glyph glyph-name="radical" unicode="&#x221a;" horiz-adv-x="696" 
d="M420 293l184 607h161l-294 -900h-175l-145 393h-128v123h251l67 -223l40 -131z" />
    <glyph glyph-name="infinity" unicode="&#x221e;" horiz-adv-x="848" 
d="M628 493q85 0 140 -54t55 -137q0 -84 -54.5 -137.5t-140.5 -53.5q-111 0 -197 100q-86 -100 -198 -100q-86 0 -140.5 53.5t-54.5 137.5q0 83 55 137t140 54q112 0 198 -100q86 100 197 100zM246 221q61 0 110 70l8 11l-8 11q-49 70 -110 70q-35 0 -58 -23t-23 -58t23 -58
t58 -23zM615 221q36 0 59 23t23 58t-23 58t-59 23q-61 0 -109 -70l-8 -11l8 -11q48 -70 109 -70z" />
    <glyph glyph-name="integral" unicode="&#x222b;" horiz-adv-x="409" 
d="M96 -241q-68 0 -132 27l43 118q26 -10 52 -10q58 0 58 67v617q0 84 48.5 131.5t134.5 47.5q69 0 132 -27l-43 -118q-24 10 -51 10q-58 0 -58 -67v-617q0 -84 -49 -131.5t-135 -47.5z" />
    <glyph glyph-name="approxequal" unicode="&#x2248;" horiz-adv-x="636" 
d="M179 321l-134 22q11 85 54 129.5t113 44.5q50 0 115 -32q51 -26 78 -26q42 0 61 52l125 -31q-38 -155 -162 -155q-54 0 -119 32q-48 22 -77 22q-48 0 -54 -58zM179 92l-134 22q11 85 54 130t113 45q50 0 115 -33q51 -26 78 -26q42 0 61 53l125 -31q-37 -156 -162 -156
q-54 0 -119 32q-47 23 -77 23q-48 0 -54 -59z" />
    <glyph glyph-name="notequal" unicode="&#x2260;" horiz-adv-x="516" 
d="M472 473v-132h-137l-28 -76h165v-132h-211l-39 -106l-118 44l24 62h-84v132h137l29 76h-166v132h212l40 106l116 -43l-24 -63h84z" />
    <glyph glyph-name="lessequal" unicode="&#x2264;" horiz-adv-x="529" 
d="M491 363v-152l-458 165v105l458 159v-151l-147 -42l-73 -20zM33 31v131h459v-131h-459z" />
    <glyph glyph-name="greaterequal" unicode="&#x2265;" horiz-adv-x="529" 
d="M39 640l457 -159v-105l-457 -165v152l219 64l-73 20l-146 42v151zM38 31v131h459v-131h-459z" />
    <glyph glyph-name="uni2303" unicode="&#x2303;" horiz-adv-x="776" 
d="M388 355l-248 -248l-100 100l348 348l348 -348l-100 -100z" />
    <glyph glyph-name="uni2305" unicode="&#x2305;" horiz-adv-x="776" 
d="M713 547h-317l340 -340l-100 -100l-248 248l-248 -248l-100 100l340 340h-317v128h650v-128z" />
    <glyph glyph-name="uni2318" unicode="&#x2318;" horiz-adv-x="881" 
d="M229 -40q-78 0 -128.5 50.5t-50.5 129.5q0 75 50.5 124.5t128.5 49.5h47v74h-47q-78 0 -128.5 49.5t-50.5 124.5q0 78 50.5 128.5t128.5 50.5q75 0 124.5 -50.5t49.5 -128.5v-47h75v47q0 78 49 128.5t123 50.5q79 0 130 -50.5t51 -128.5q0 -75 -51 -124.5t-130 -49.5h-45
v-74h45q79 0 130 -49.5t51 -124.5q0 -79 -51 -129.5t-130 -50.5q-74 0 -123 51t-49 129v47h-75v-47q0 -78 -49.5 -129t-124.5 -51zM230 514h48v48q0 21 -13.5 34.5t-34.5 13.5t-35 -13.5t-14 -34.5t14 -34.5t35 -13.5zM603 562v-49h47q22 0 36 14t14 35q0 20 -14 34t-36 14
q-20 0 -33.5 -14t-13.5 -34zM399 392v-82h83v82h-83zM225 92q21 0 34.5 13.5t13.5 34.5v48h-48q-21 0 -35 -13.5t-14 -34.5t14 -34.5t35 -13.5zM650 92q22 0 36 13.5t14 34.5t-14 34.5t-36 13.5h-47v-48q0 -21 13.5 -34.5t33.5 -13.5z" />
    <glyph glyph-name="uni2325" unicode="&#x2325;" horiz-adv-x="892" 
d="M852 0h-308l-282 573h-222v127h308l282 -573h222v-127zM852 573h-283v127h283v-127z" />
    <glyph glyph-name="uni2326" unicode="&#x2326;" horiz-adv-x="1108" 
d="M71 707h667l337 -357l-337 -357h-667v714zM196 113h475l226 237l-226 237h-475v-474zM591 530l74 -72l-108 -108l109 -109l-74 -71l-107 108l-108 -108l-74 71l109 109l-108 108l74 72l107 -107z" />
    <glyph glyph-name="uni2327" unicode="&#x2327;" horiz-adv-x="881" 
d="M71 -7v714h739v-714h-739zM196 113h488v474h-488v-474zM436 272l-107 -107l-75 71l109 109l-108 108l75 72l106 -106l106 106l75 -72l-108 -108l109 -109l-75 -71z" />
    <glyph glyph-name="uni232B" unicode="&#x232b;" horiz-adv-x="1108" 
d="M32 350l338 357h667v-714h-667zM436 113h475v474h-475l-225 -237zM623 277l-107 -107l-75 71l109 109l-108 108l75 72l106 -106l106 106l75 -72l-108 -108l109 -109l-75 -71z" />
    <glyph glyph-name="uni2387" unicode="&#x2387;" horiz-adv-x="892" 
d="M348 0h-308v127h222l282 573h308v-127h-222zM848 0h-284v127h284v-127z" />
    <glyph glyph-name="uni238B" unicode="&#x238b;" horiz-adv-x="941" 
d="M465 520v131q184 0 307 -116.5t123 -291.5t-117 -292t-293 -117q-178 0 -297.5 117t-119.5 292h131q0 -123 82.5 -200t203.5 -77q115 0 192 79t77 198q0 122 -80 199.5t-209 77.5zM450 186l-259 259v-134h-123v340h341v-122h-130l257 -257z" />
    <glyph glyph-name="uni23CE" unicode="&#x23ce;" horiz-adv-x="1122" 
d="M677 609v144h374v-558h-749l148 -148l-100 -100l-318 318l318 318l100 -100l-144 -144h596v270h-225z" />
    <glyph glyph-name="uni23CF" unicode="&#x23cf;" horiz-adv-x="924" 
d="M882 287h-844l422 486zM460 583l-165 -189h329zM845 -96h-771v290h771v-290zM196 100v-102h528v102h-528z" />
    <glyph glyph-name="uni2423" unicode="&#x2423;" horiz-adv-x="443" 
d="M429 -111h-416v178h106v-77h204v77h106v-178z" />
    <glyph glyph-name="uni2460" unicode="&#x2460;" horiz-adv-x="924" 
d="M462 750q183 0 300 -115.5t117 -289.5q0 -175 -117 -290.5t-300 -115.5t-300 115.5t-117 290.5q0 174 117 289.5t300 115.5zM462 36q139 0 225.5 87.5t86.5 221.5t-86.5 221t-225.5 87t-225 -87t-86 -221t86 -221.5t225 -87.5zM345 467h23q56 0 78 51h81v-338h-96v207
h-86v80z" />
    <glyph glyph-name="uni2461" unicode="&#x2461;" horiz-adv-x="924" 
d="M462 -61q-183 0 -300 115.5t-117 290.5q0 174 117 289.5t300 115.5t300 -115.5t117 -289.5q0 -175 -117 -290.5t-300 -115.5zM462 36q139 0 225.5 87.5t86.5 221.5t-86.5 221t-225.5 87t-225 -87t-86 -221t86 -221.5t225 -87.5zM590 180h-251v64l103 110q36 41 36 58
q0 27 -33 27q-35 0 -67 -33l-51 64q58 54 131 54q55 0 88.5 -28.5t33.5 -75.5q0 -29 -13.5 -52.5t-53.5 -68.5l-30 -34h107v-85z" />
    <glyph glyph-name="uni2462" unicode="&#x2462;" horiz-adv-x="924" 
d="M462 750q183 0 300 -115.5t117 -289.5q0 -175 -117 -290.5t-300 -115.5t-300 115.5t-117 290.5q0 174 117 289.5t300 115.5zM462 36q139 0 225.5 87.5t86.5 221.5t-86.5 221t-225.5 87t-225 -87t-86 -221t86 -221.5t225 -87.5zM574 459l-70 -72q40 -8 64.5 -35.5
t24.5 -65.5q0 -50 -38 -81t-99 -31q-71 0 -123 40l43 74q34 -27 73 -27q44 0 44 33q0 22 -20.5 30t-56.5 1l-21 46l59 64h-100v83h220v-59z" />
    <glyph glyph-name="uni2463" unicode="&#x2463;" horiz-adv-x="924" 
d="M462 750q183 0 300 -115.5t117 -289.5q0 -175 -117 -290.5t-300 -115.5t-300 115.5t-117 290.5q0 174 117 289.5t300 115.5zM462 36q139 0 225.5 87.5t86.5 221.5t-86.5 221t-225.5 87t-225 -87t-86 -221t86 -221.5t225 -87.5zM455 518h91v-204h34v-80h-34v-54h-89v54
h-164v73zM461 312v91l-68 -91h68z" />
    <glyph glyph-name="uni2464" unicode="&#x2464;" horiz-adv-x="924" 
d="M462 752q183 0 300 -115.5t117 -290.5t-117 -290.5t-300 -115.5t-300 115.5t-117 290.5t117 290.5t300 115.5zM462 38q139 0 225.5 87t86.5 221t-86.5 221t-225.5 87t-225 -87t-86 -221t86 -221t225 -87zM470 396q51 0 84 -28.5t33 -79.5q0 -53 -37 -83.5t-96 -30.5
q-74 0 -125 40l43 74q35 -26 72 -26q19 0 30.5 8t11.5 23q0 33 -48 33q-28 0 -55 -7l-34 27l12 172h203v-82h-127l-2 -42q22 2 35 2z" />
    <glyph glyph-name="uni2465" unicode="&#x2465;" horiz-adv-x="924" 
d="M462 750q183 0 300 -115.5t117 -289.5q0 -175 -117 -290.5t-300 -115.5t-300 115.5t-117 290.5q0 174 117 289.5t300 115.5zM462 36q139 0 225.5 87.5t86.5 221.5t-86.5 221t-225.5 87t-225 -87t-86 -221t86 -221.5t225 -87.5zM478 406q51 0 82 -31.5t31 -80.5
q0 -53 -35.5 -86.5t-92.5 -33.5q-66 0 -104 44t-38 124q0 87 39.5 134.5t111.5 47.5q55 0 101 -28l-32 -63q-29 15 -61 15q-61 0 -72 -66q26 24 70 24zM459 250q18 0 30.5 12t12.5 30q0 19 -12.5 31t-30.5 12q-20 0 -31.5 -11.5t-11.5 -31.5q0 -19 11.5 -30.5t31.5 -11.5z
" />
    <glyph glyph-name="uni2466" unicode="&#x2466;" horiz-adv-x="924" 
d="M462 750q183 0 300 -115.5t117 -289.5q0 -175 -117 -290.5t-300 -115.5t-300 115.5t-117 290.5q0 174 117 289.5t300 115.5zM462 36q139 0 225.5 87.5t86.5 221.5t-86.5 221t-225.5 87t-225 -87t-86 -221t86 -221.5t225 -87.5zM470 433h-131v85h241v-64l-88 -274h-102z
" />
    <glyph glyph-name="uni2467" unicode="&#x2467;" horiz-adv-x="924" 
d="M462 750q183 0 300 -115.5t117 -289.5q0 -175 -117 -290.5t-300 -115.5t-300 115.5t-117 290.5q0 174 117 289.5t300 115.5zM462 36q139 0 225.5 87.5t86.5 221.5t-86.5 221t-225.5 87t-225 -87t-86 -221t86 -221.5t225 -87.5zM554 356q47 -30 47 -82q0 -46 -37.5 -73.5
t-101.5 -27.5q-65 0 -102 27.5t-37 73.5q0 53 46 82q-35 29 -35 72t34.5 69t93.5 26q58 0 93 -26t35 -69q0 -42 -36 -72zM462 453q-16 0 -26.5 -9t-10.5 -23q0 -15 10 -24t27 -9q16 0 26 9t10 24q0 14 -10 23t-26 9zM462 243q19 0 31.5 11t12.5 28q0 18 -12 29t-32 11
t-32.5 -11t-12.5 -29q0 -17 12.5 -28t32.5 -11z" />
    <glyph glyph-name="uni2468" unicode="&#x2468;" horiz-adv-x="924" 
d="M462 750q183 0 300 -115.5t117 -289.5q0 -175 -117 -290.5t-300 -115.5t-300 115.5t-117 290.5q0 174 117 289.5t300 115.5zM462 36q139 0 225.5 87.5t86.5 221.5t-86.5 221t-225.5 87t-225 -87t-86 -221t86 -221.5t225 -87.5zM457 523q66 0 103.5 -44t37.5 -124
q0 -87 -39.5 -134.5t-110.5 -47.5q-56 0 -102 28l32 63q28 -15 61 -15q62 0 73 67q-26 -25 -71 -25q-51 0 -82 31.5t-31 80.5q0 53 35.5 86.5t93.5 33.5zM460 362q20 0 32 11.5t12 31.5q0 19 -12 30.5t-32 11.5q-18 0 -30.5 -12t-12.5 -30q0 -19 12.5 -31t30.5 -12z" />
    <glyph glyph-name="uni2469" unicode="&#x2469;" horiz-adv-x="924" 
d="M462 750q183 0 300 -115.5t117 -289.5q0 -175 -117 -290.5t-300 -115.5t-300 115.5t-117 290.5q0 174 117 289.5t300 115.5zM462 36q139 0 225.5 87.5t86.5 221.5t-86.5 221t-225.5 87t-225 -87t-86 -221t86 -221.5t225 -87.5zM571 523q72 0 113.5 -46.5t41.5 -128.5
t-41.5 -128.5t-113.5 -46.5q-71 0 -112.5 46.5t-41.5 128.5t41.5 128.5t112.5 46.5zM208 465h24q55 0 77 52h81v-338h-96v207h-86v79zM571 259q57 0 57 89t-57 89q-56 0 -56 -89t56 -89z" />
    <glyph glyph-name="uni24EA" unicode="&#x24ea;" horiz-adv-x="924" 
d="M462 -61q-183 0 -300 115.5t-117 290.5q0 174 117 289.5t300 115.5t300 -115.5t117 -289.5q0 -175 -117 -290.5t-300 -115.5zM462 36q139 0 225.5 87.5t86.5 221.5t-86.5 221t-225.5 87t-225 -87t-86 -221t86 -221.5t225 -87.5zM462 170q-72 0 -113 46.5t-41 128.5
q0 81 41 128t113 47t113 -47t41 -128q0 -82 -41 -128.5t-113 -46.5zM462 255q57 0 57 90q0 89 -57 89t-57 -89q0 -90 57 -90z" />
    <glyph glyph-name="uni24FF" unicode="&#x24ff;" horiz-adv-x="919" 
d="M459 -61q-182 0 -298 115.5t-116 290.5q0 174 116.5 289.5t297.5 115.5q182 0 298.5 -115.5t116.5 -289.5q0 -175 -116.5 -290.5t-298.5 -115.5zM459 170q72 0 113.5 46.5t41.5 128.5q0 81 -41.5 128t-113.5 47q-71 0 -112.5 -47t-41.5 -128q0 -82 41.5 -128.5
t112.5 -46.5zM459 255q-56 0 -56 90q0 89 56 89q57 0 57 -89q0 -90 -57 -90z" />
    <glyph glyph-name="filledbox" unicode="&#x25a0;" horiz-adv-x="784" 
d="M714 26h-643v643h643v-643z" />
    <glyph glyph-name="uni25A1" unicode="&#x25a1;" horiz-adv-x="784" 
d="M714 26h-643v643h643v-643zM198 547v-399h388v399h-388z" />
    <glyph glyph-name="triagup" unicode="&#x25b2;" horiz-adv-x="860" 
d="M846 8h-833l417 751z" />
    <glyph glyph-name="uni25B3" unicode="&#x25b3;" horiz-adv-x="860" 
d="M846 8h-833l417 751zM430 484l-192 -345h383z" />
    <glyph glyph-name="uni25B6" unicode="&#x25b6;" horiz-adv-x="854" 
d="M71 -37v834l751 -417z" />
    <glyph glyph-name="uni25BB" unicode="&#x25bb;" horiz-adv-x="854" 
d="M71 -37v834l751 -417zM546 380l-345 192v-383z" />
    <glyph glyph-name="triagdn" unicode="&#x25bc;" horiz-adv-x="860" 
d="M13 717h834l-417 -751z" />
    <glyph glyph-name="uni25BD" unicode="&#x25bd;" horiz-adv-x="860" 
d="M13 717h833l-416 -751zM430 241l191 345h-383z" />
    <glyph glyph-name="triaglf" unicode="&#x25c4;" horiz-adv-x="854" 
d="M32 380l752 417v-834z" />
    <glyph glyph-name="uni25C5" unicode="&#x25c5;" horiz-adv-x="854" 
d="M784 797v-834l-752 417zM308 380l345 -191v383z" />
    <glyph glyph-name="uni25C6" unicode="&#x25c6;" horiz-adv-x="931" 
d="M898 338l-433 -433l-433 433l433 432z" />
    <glyph glyph-name="uni25C7" unicode="&#x25c7;" horiz-adv-x="931" 
d="M898 338l-433 -433l-433 433l433 432zM208 338l257 -258l258 258l-258 257z" />
    <glyph glyph-name="lozenge" unicode="&#x25ca;" horiz-adv-x="599" 
d="M232 642h135l201 -321l-201 -321h-135l-201 321zM183 321l117 -188l116 188l-116 188z" />
    <glyph glyph-name="circle" unicode="&#x25cb;" horiz-adv-x="837" 
d="M418 -13q-165 0 -269 105t-104 259q0 152 104 257t269 105t269.5 -105t104.5 -257q0 -154 -104 -259t-270 -105zM418 113q107 0 173.5 68.5t66.5 169.5q0 99 -66.5 168t-173.5 69q-106 0 -172.5 -69t-66.5 -168q0 -101 66.5 -169.5t172.5 -68.5z" />
    <glyph glyph-name="uni25CF" unicode="&#x25cf;" horiz-adv-x="837" 
d="M418 -13q-165 0 -269 105t-104 258t104 258t269 105t269.5 -105t104.5 -258t-104 -258t-270 -105z" />
    <glyph glyph-name="uni261C" unicode="&#x261c;" horiz-adv-x="1081" 
d="M754 576v43h256v-569h-256v38q-39 -38 -109 -38h-311q-39 0 -61 22.5t-22 54.5q0 23 11 39q-45 20 -45 62q0 27 16 41q-42 19 -42 64q0 13 4 22h-80q-35 0 -58 23.5t-23 56.5t23 57.5t58 24.5h191q-15 18 -15 51v51h354q66 0 109 -43zM498 108h142q51 0 83 30.5t32 83.5
v224q0 48 -33.5 81.5t-81.5 33.5h-283q0 -49 50 -49h157q0 -58 16.5 -84t63.5 -37l-16 -56q-105 24 -119 121h-386q-23 0 -23 -21t23 -21h303q32 0 56 -21.5t24 -54.5t-23 -53q23 -19 23 -51q0 -33 -22 -52q22 -18 22 -47q0 -14 -8 -27zM820 111h125v447h-125v-447zM277 313
h147q8 0 14.5 6.5t6.5 15.5q0 8 -6.5 14t-14.5 6h-147q-8 0 -14.5 -6t-6.5 -14q0 -9 6.5 -15.5t14.5 -6.5zM301 212h123q9 0 15 6t6 16q0 8 -6 14t-15 6h-123q-8 0 -13.5 -6t-5.5 -14q0 -22 19 -22zM336 111h88q8 0 14.5 6.5t6.5 14.5t-6.5 14.5t-14.5 6.5h-88
q-7 0 -13.5 -6.5t-6.5 -14.5t6.5 -14.5t13.5 -6.5z" />
    <glyph glyph-name="uni261D" unicode="&#x261d;" horiz-adv-x="710" 
d="M639 604v-311q0 -70 -38 -109h38v-257h-568v257h42q-42 44 -42 109v354h50q33 0 52 -16v192q0 35 24 57.5t57 22.5t56.5 -22.5t23.5 -57.5v-80q9 4 23 4q43 0 63 -42q16 16 41 16q43 0 63 -45q17 10 38 10q33 0 55 -21.5t22 -60.5zM177 374v156q0 51 -49 51v-283
q0 -48 33.5 -81.5t81.5 -33.5h224q54 0 84 31.5t30 83.5v142q-13 -8 -27 -8q-29 0 -47 23q-19 -23 -51 -23t-51 23q-21 -23 -53 -23q-34 0 -55.5 23.5t-21.5 56.5v303q0 23 -21 23q-20 0 -20 -23v-387q97 -14 120 -118l-55 -16q-12 47 -38 63.5t-84 16.5zM335 661v-148
q0 -8 5.5 -14t13.5 -6q10 0 16 6t6 14v148q0 9 -6 15t-16 6q-8 0 -13.5 -6.5t-5.5 -14.5zM436 636v-123q0 -8 5.5 -14t13.5 -6q10 0 16 6t6 14v123q0 20 -22 20q-8 0 -13.5 -5.5t-5.5 -14.5zM537 601v-87q0 -8 6 -14.5t14 -6.5q9 0 15 6.5t6 14.5v87q0 8 -6 14.5t-15 6.5
q-8 0 -14 -6.5t-6 -14.5zM132 -8h446v126h-446v-126z" />
    <glyph glyph-name="uni261E" unicode="&#x261e;" horiz-adv-x="1081" 
d="M775 517h191q35 0 58 -24.5t23 -57.5t-23 -56.5t-58 -23.5h-80q4 -9 4 -22q0 -45 -42 -64q16 -14 16 -41q0 -42 -45 -62q11 -16 11 -39q0 -32 -22 -54.5t-61 -22.5h-311q-70 0 -109 38v-38h-256v569h256v-43q43 43 109 43h354v-51q0 -33 -15 -51zM655 414h303q23 0 23 21
t-23 21h-386q-14 -97 -119 -121l-16 56q47 11 63.5 37t16.5 84h157q50 0 50 49h-283q-48 0 -81.5 -33.5t-33.5 -81.5v-224q0 -53 32 -83.5t83 -30.5h142q-8 13 -8 27q0 29 23 47q-23 19 -23 52q0 32 23 51q-23 20 -23 53t24 54.5t56 21.5zM136 111h125v447h-125v-447z
M657 313h147q8 0 14.5 6.5t6.5 15.5q0 8 -6.5 14t-14.5 6h-147q-8 0 -14.5 -6t-6.5 -14q0 -9 6.5 -15.5t14.5 -6.5zM657 212h123q19 0 19 22q0 8 -5.5 14t-13.5 6h-123q-9 0 -15 -6t-6 -14q0 -10 6 -16t15 -6zM657 111h88q7 0 13.5 6.5t6.5 14.5t-6.5 14.5t-13.5 6.5h-88
q-8 0 -14.5 -6.5t-6.5 -14.5t6.5 -14.5t14.5 -6.5z" />
    <glyph glyph-name="uni261F" unicode="&#x261f;" horiz-adv-x="710" 
d="M71 681h568v-256h-38q38 -39 38 -109v-311q0 -39 -22 -61t-55 -22q-22 0 -38 11q-19 -45 -63 -45q-24 0 -41 15q-20 -41 -63 -41q-14 0 -23 4v-80q0 -35 -23.5 -58t-56.5 -23t-57 23t-24 58v192q-19 -16 -52 -16h-50v354q0 66 43 109h-43v256zM578 616h-446v-125h446v125
zM275 -207v304q0 32 21.5 55.5t55.5 23.5q32 0 53 -22q19 22 51 22t51 -23q18 23 47 23q14 0 27 -8v143q0 51 -30 83t-84 32h-224q-48 0 -81.5 -33.5t-33.5 -81.5v-284q22 0 35.5 12.5t13.5 38.5v157q58 0 84 16.5t38 63.5l55 -16q-23 -105 -120 -119v-387q0 -23 20 -23
q21 0 21 23zM376 -52v147q0 9 -6 15t-16 6q-8 0 -13.5 -6.5t-5.5 -14.5v-147q0 -21 19 -21q10 0 16 6t6 15zM477 -28v123q0 9 -6 15t-16 6q-8 0 -13.5 -6t-5.5 -15v-123q0 -8 5.5 -14t13.5 -6q10 0 16 6t6 14zM578 7v88q0 8 -6 14.5t-15 6.5q-8 0 -14 -6.5t-6 -14.5v-88
q0 -7 6 -13.5t14 -6.5q9 0 15 6.5t6 13.5z" />
    <glyph glyph-name="uni2661" unicode="&#x2661;" horiz-adv-x="913" 
d="M626 710q103 0 170 -59t67 -153q0 -67 -29 -126t-113.5 -153t-263.5 -264q-180 171 -264 265t-113.5 152.5t-29.5 125.5q0 94 67 153t170 59q99 0 170 -68q69 68 169 68zM457 146q153 142 204 213.5t51 122.5q0 41 -28 65.5t-73 24.5q-86 0 -154 -89q-69 89 -155 89
q-45 0 -72.5 -24.5t-27.5 -65.5q0 -51 51.5 -122.5t203.5 -213.5z" />
    <glyph glyph-name="heart" unicode="&#x2665;" horiz-adv-x="913" 
d="M639 710q102 0 163 -57.5t61 -155.5q0 -96 -83.5 -208.5t-322.5 -335.5q-240 224 -323.5 336.5t-83.5 207.5q0 98 61 155.5t163 57.5q107 0 183 -70q74 70 182 70z" />
    <glyph glyph-name="uni26A0" unicode="&#x26a0;" horiz-adv-x="908" 
d="M895 6h-882l441 759zM395 369l8 -151h102l8 151l4 150h-127zM454 46q31 0 52 19.5t21 49.5q0 31 -21 50.5t-52 19.5q-32 0 -53 -19.5t-21 -50.5q0 -30 21 -49.5t53 -19.5z" />
    <glyph glyph-name="uni2713" unicode="&#x2713;" horiz-adv-x="906" 
d="M893 605l-556 -601l-297 296l89 91l207 -205l466 507z" />
    <glyph glyph-name="uni2717" unicode="&#x2717;" horiz-adv-x="719" 
d="M619 698l88 -91l-258 -257l258 -258l-88 -91l-260 259l-260 -259l-88 91l258 258l-258 257l88 91l260 -259z" />
    <glyph glyph-name="uni2776" unicode="&#x2776;" horiz-adv-x="919" 
d="M459 -64q-183 0 -298.5 118t-115.5 288t115 288t299 118q186 0 300.5 -117.5t114.5 -288.5q0 -111 -50 -203t-146 -147.5t-219 -55.5zM428 385v-207h96v338h-81q-22 -51 -78 -51h-23v-80h86z" />
    <glyph glyph-name="uni2777" unicode="&#x2777;" horiz-adv-x="919" 
d="M459 -61q-178 0 -296 115.5t-118 290.5t117.5 290t296.5 115q180 0 297.5 -114.5t117.5 -290.5t-117.5 -291t-297.5 -115zM339 244v-64h251v85h-107l30 34q39 44 53 70t14 54q0 45 -33.5 73t-88.5 28q-73 0 -131 -54l51 -64q32 33 67 33q33 0 33 -27q0 -17 -36 -58z" />
    <glyph glyph-name="uni2778" unicode="&#x2778;" horiz-adv-x="919" 
d="M459 -61q-178 0 -296 115.5t-118 290.5t117.5 290t296.5 115q180 0 297.5 -114.5t117.5 -290.5t-117.5 -291t-297.5 -115zM456 174q61 0 99 31t38 81q0 37 -23.5 64.5t-62.5 37.5l67 71v59h-220v-83h97l-56 -64l21 -46q77 16 77 -31q0 -33 -44 -33q-39 0 -73 27l-43 -74
q52 -40 123 -40z" />
    <glyph glyph-name="uni2779" unicode="&#x2779;" horiz-adv-x="919" 
d="M459 -61q-183 0 -298.5 118t-115.5 288t114.5 287.5t299.5 117.5q124 0 219.5 -55.5t145.5 -147t50 -202.5q0 -171 -114.5 -288.5t-300.5 -117.5zM457 234v-54h89v54h34v80h-34v204h-91l-162 -211v-73h164zM460 311h-67l67 87v-87z" />
    <glyph glyph-name="uni277A" unicode="&#x277a;" horiz-adv-x="919" 
d="M459 -60q-179 0 -296.5 117t-117.5 289q0 174 116.5 290t297.5 116q182 0 298.5 -116t116.5 -290t-116.5 -290t-298.5 -116zM454 174q60 0 96.5 31t36.5 83q0 50 -32.5 79t-84.5 29q-20 0 -36 -3l3 43h127v82h-203l-12 -172l34 -27q27 7 55 7q48 0 48 -33q0 -31 -42 -31
q-35 0 -72 26l-43 -74q51 -40 125 -40z" />
    <glyph glyph-name="uni277B" unicode="&#x277b;" horiz-adv-x="919" 
d="M459 -61q-183 0 -298.5 118t-115.5 288t114.5 287.5t299.5 117.5q124 0 219.5 -55.5t145.5 -147t50 -202.5q0 -171 -114.5 -288.5t-300.5 -117.5zM463 174q57 0 92.5 33.5t35.5 86.5q0 49 -31 80.5t-82 31.5q-45 0 -71 -25q11 67 73 67q32 0 61 -15l32 63q-46 28 -101 28
q-72 0 -111.5 -47.5t-39.5 -134.5q0 -80 38 -124t104 -44zM459 250q-20 0 -31.5 11.5t-11.5 30.5q0 20 11.5 31.5t31.5 11.5q18 0 30.5 -12t12.5 -31q0 -18 -12.5 -30t-30.5 -12z" />
    <glyph glyph-name="uni277C" unicode="&#x277c;" horiz-adv-x="919" 
d="M459 -61q-183 0 -298.5 118t-115.5 288t114.5 287.5t299.5 117.5q124 0 219.5 -55.5t145.5 -147t50 -202.5q0 -171 -114.5 -288.5t-300.5 -117.5zM470 433l-80 -253h102l88 274v64h-241v-85h131z" />
    <glyph glyph-name="uni277D" unicode="&#x277d;" horiz-adv-x="919" 
d="M459 -61q-183 0 -298.5 118t-115.5 288t114.5 287.5t299.5 117.5q124 0 219.5 -55.5t145.5 -147t50 -202.5q0 -171 -114.5 -288.5t-300.5 -117.5zM459 173q65 0 102.5 27.5t37.5 73.5q0 53 -47 82q36 30 36 72q0 43 -35 69t-94 26q-58 0 -93 -26t-35 -69q0 -42 36 -72
q-47 -29 -47 -82q0 -46 37.5 -73.5t101.5 -27.5zM459 388q-16 0 -26 9t-10 24q0 14 10 23t26 9t26.5 -9t10.5 -23q0 -15 -10 -24t-27 -9zM459 243q-19 0 -31.5 11t-12.5 28q0 18 12 29t32 11t32.5 -11t12.5 -29q0 -17 -12.5 -28t-32.5 -11z" />
    <glyph glyph-name="uni277E" unicode="&#x277e;" horiz-adv-x="919" 
d="M459 -61q-183 0 -298.5 118t-115.5 288t114.5 287.5t299.5 117.5q124 0 219.5 -55.5t145.5 -147t50 -202.5q0 -171 -114.5 -288.5t-300.5 -117.5zM446 173q71 0 111 47.5t40 134.5q0 80 -38 124t-104 44q-58 0 -93 -33.5t-35 -86.5q0 -50 30.5 -81t82.5 -31q45 0 71 25
q-11 -67 -74 -67q-33 0 -60 15l-33 -63q48 -28 102 -28zM459 362q-19 0 -31 12t-12 31t12 30.5t31 11.5t31 -11.5t12 -30.5t-12 -31t-31 -12z" />
    <glyph glyph-name="uni277F" unicode="&#x277f;" horiz-adv-x="919" 
d="M459 -61q-183 0 -298.5 118t-115.5 288t114.5 287.5t299.5 117.5q124 0 219.5 -55.5t145.5 -147t50 -202.5q0 -171 -114.5 -288.5t-300.5 -117.5zM571 173q70 0 112 47t42 128q0 82 -41.5 128.5t-112.5 46.5q-72 0 -113 -46t-41 -129q0 -82 41 -128.5t113 -46.5zM287 387
v-207h96v338h-81q-22 -51 -78 -51h-23v-80h86zM571 259q-56 0 -56 89q0 90 56 90t56 -90q0 -89 -56 -89z" />
    <glyph glyph-name="uni27F5" unicode="&#x27f5;" horiz-adv-x="1196" 
d="M304 394h856v-144h-856l146 -146l-100 -100l-318 318l318 318l100 -100z" />
    <glyph glyph-name="uni27F6" unicode="&#x27f6;" horiz-adv-x="1196" 
d="M745 540l100 100l318 -318l-318 -318l-100 100l146 146h-856v144h856z" />
    <glyph glyph-name="uni2B06" unicode="&#x2b06;" horiz-adv-x="919" 
d="M652 -18h-386v310h-229l422 486l423 -486h-230v-310z" />
    <glyph glyph-name="uniF8FF" unicode="&#xf8ff;" horiz-adv-x="605" 
d="M565 -93h-525v185h106v-92h313v92h106v-185z" />
    <glyph glyph-name="J_acutecomb" horiz-adv-x="496" 
d="M63 167q48 -24 99 -24t74 32.5t23 99.5v425h172v-435q0 -277 -251 -277q-91 0 -176 44zM340 908h168l-102 -135h-129z" />
    <glyph glyph-name="Adieresis.ss01" horiz-adv-x="750" 
d="M284 700h184l268 -700h-177l-42 114h-283l-41 -114h-180zM271 238h210l-104 287zM494 742q0 36 23.5 59t60.5 23t60 -23t23 -59t-23 -59t-60 -23t-60.5 23t-23.5 59zM114 801q23 23 60 23t60.5 -23t23.5 -59t-23 -59q-24 -23 -61 -23t-60 23t-23 59t23 59z" />
    <glyph glyph-name="Aring.ss01" horiz-adv-x="750" 
d="M272 669q-32 34 -32 83q0 55 39 90.5t98 35.5t97.5 -35.5t38.5 -90.5q0 -49 -33 -84l256 -668h-177l-42 114h-283l-41 -114h-180zM271 238h210l-104 287zM345 720q13 -13 32 -13t31.5 12.5t12.5 32.5t-12 33q-13 12 -32 12t-32 -12.5t-13 -32.5t13 -32z" />
    <glyph glyph-name="Ccedilla.ss01" horiz-adv-x="721" 
d="M37 350q0 156 98.5 259.5t258.5 103.5q173 0 296 -139l-105 -110q-73 92 -180 92q-86 0 -139 -57.5t-53 -148.5q0 -92 53.5 -149t141.5 -57q115 0 192 97l105 -110q-92 -118 -243 -139l-1 -153h-145l29 151q-140 17 -224 116t-84 244z" />
    <glyph glyph-name="G.ss01" horiz-adv-x="793" 
d="M142 610q104 103 265 103q167 0 284 -108l-90 -114q-74 71 -187 71q-92 0 -149 -59.5t-57 -154.5t55 -152.5t146 -57.5q71 0 119 36t61 98h-219v130h385q1 -22 1 -42q0 -163 -88.5 -268t-265.5 -105q-161 0 -263 101.5t-102 261.5q0 157 105 260z" />
    <glyph glyph-name="Gbreve.ss01" horiz-adv-x="793" 
d="M37 350q0 157 104.5 260t265.5 103q167 0 284 -108l-90 -114q-74 71 -187 71q-92 0 -149 -59.5t-57 -154.5t55 -152.5t146 -57.5q71 0 119 36t61 98h-219v130h385q1 -22 1 -42q0 -163 -88.5 -268t-265.5 -105q-161 0 -263 101.5t-102 261.5zM349 915q8 -55 58 -55
q49 0 57 55l104 -19q-17 -129 -161 -129t-162 129z" />
    <glyph glyph-name="Gcircumflex.ss01" horiz-adv-x="793" 
d="M142 610q104 103 265 103q167 0 284 -108l-90 -114q-74 71 -187 71q-92 0 -149 -59.5t-57 -154.5t55 -152.5t146 -57.5q71 0 119 36t61 98h-219v130h385q1 -22 1 -42q0 -163 -88.5 -268t-265.5 -105q-161 0 -263 101.5t-102 261.5q0 157 105 260zM342 908h129l118 -135
h-139l-44 55l-44 -55h-139z" />
    <glyph glyph-name="uni0122.ss01" horiz-adv-x="793" 
d="M37 350q0 157 104.5 260t265.5 103q167 0 284 -108l-90 -114q-74 71 -187 71q-92 0 -149 -59.5t-57 -154.5t55 -152.5t146 -57.5q71 0 119 36t61 98h-219v130h385q1 -22 1 -42q0 -163 -88.5 -268t-265.5 -105q-161 0 -263 101.5t-102 261.5zM363 -69q19 22 54 22
q39 0 61.5 -25t22.5 -65q0 -84 -89 -157l-45 38q32 35 43 68q-31 1 -49 20.5t-18 45.5q0 32 20 53z" />
    <glyph glyph-name="Gdotaccent.ss01" horiz-adv-x="793" 
d="M37 350q0 157 104.5 260t265.5 103q167 0 284 -108l-90 -114q-74 71 -187 71q-92 0 -149 -59.5t-57 -154.5t55 -152.5t146 -57.5q71 0 119 36t61 98h-219v130h385q1 -22 1 -42q0 -163 -88.5 -268t-265.5 -105q-161 0 -263 101.5t-102 261.5zM315 849q0 40 25 64t66 24
t66.5 -24t25.5 -64t-25 -64q-26 -25 -67 -25t-66 24.5t-25 64.5z" />
    <glyph glyph-name="K.ss01" horiz-adv-x="685" 
d="M243 700v-287l220 287h203l-263 -342l272 -358h-205l-227 296v-296h-172v700h172z" />
    <glyph glyph-name="uni0136.ss01" horiz-adv-x="685" 
d="M243 700v-287l220 287h203l-263 -342l272 -358h-205l-227 296v-296h-172v700h172zM274 -122q0 32 19.5 53.5t54.5 21.5q39 0 61.5 -25t22.5 -65q0 -84 -89 -157l-45 38q32 35 43 68q-31 1 -49 20.5t-18 45.5z" />
    <glyph glyph-name="Odieresis.ss01" horiz-adv-x="821" 
d="M37 350q0 157 106 260t267 103q163 0 268 -102.5t105 -260.5t-105 -260.5t-268 -102.5q-161 0 -267 103t-106 260zM213 350q0 -91 55.5 -148.5t141.5 -57.5q87 0 142.5 57.5t55.5 148.5t-55.5 148.5t-142.5 57.5q-86 0 -141.5 -57.5t-55.5 -148.5zM48 742q0 36 23 59
t60 23t60.5 -23t23.5 -59t-23 -59q-24 -23 -61 -23t-60 23t-23 59zM629 801q23 23 60 23t60 -23t23 -59t-23 -59t-60 -23t-60.5 23t-23.5 59t24 59z" />
    <glyph glyph-name="Q.ss01" horiz-adv-x="821" 
d="M37 350q0 157 106 260t267 103q163 0 268 -102.5t105 -260.5q0 -139 -83 -236.5t-217 -120.5l13 -182h-172l13 182q-134 23 -217 121t-83 236zM269 202q55 -58 141 -58q87 0 142.5 57.5t55.5 148.5t-55.5 148.5t-142.5 57.5q-86 0 -141.5 -57.5t-55.5 -148.5t56 -148z
" />
    <glyph glyph-name="R.ss01" horiz-adv-x="674" 
d="M71 700h290q121 0 193 -63.5t72 -167.5q0 -87 -50.5 -146.5t-140.5 -77.5l214 -245h-205l-202 248v-248h-171v700zM242 355h99q55 0 85.5 26t30.5 76t-30.5 76t-85.5 26h-99v-204z" />
    <glyph glyph-name="Racute.ss01" horiz-adv-x="674" 
d="M71 700h290q121 0 193 -63.5t72 -167.5q0 -87 -50.5 -146.5t-140.5 -77.5l214 -245h-205l-202 248v-248h-171v700zM242 355h99q55 0 85.5 26t30.5 76t-30.5 76t-85.5 26h-99v-204zM265 773l63 135h168l-102 -135h-129z" />
    <glyph glyph-name="Rcaron.ss01" horiz-adv-x="674" 
d="M361 700q121 0 193 -63.5t72 -167.5q0 -87 -50.5 -146.5t-140.5 -77.5l214 -245h-205l-202 248v-248h-171v700h290zM242 355h99q55 0 85.5 26t30.5 76t-30.5 76t-85.5 26h-99v-204zM150 908h139l44 -55l44 55h139l-118 -135h-129z" />
    <glyph glyph-name="uni0156.ss01" horiz-adv-x="674" 
d="M361 700q121 0 193 -63.5t72 -167.5q0 -87 -50.5 -146.5t-140.5 -77.5l214 -245h-205l-202 248v-248h-171v700h290zM341 355q55 0 85.5 26t30.5 76t-30.5 76t-85.5 26h-99v-204h99zM289 -69q19 22 54 22q39 0 61.5 -25t22.5 -65q0 -84 -89 -157l-45 38q33 37 43 68
q-31 1 -49 20.5t-18 45.5q0 32 20 53z" />
    <glyph glyph-name="Scedilla.ss01" horiz-adv-x="629" 
d="M103 209q102 -71 214 -71q53 0 81.5 16t28.5 45q0 28 -31.5 47.5t-110.5 41.5q-117 31 -172 83.5t-55 136.5q0 90 68.5 145.5t188.5 55.5q151 0 267 -86l-75 -120q-36 28 -87 45t-99 17q-43 0 -68 -15t-25 -40q0 -26 28 -44.5t105 -40.5q123 -34 181 -88t58 -137
q0 -81 -59 -136t-159 -69l-1 -156h-145l30 155q-137 14 -237 91z" />
    <glyph glyph-name="uni0162.ss01" horiz-adv-x="625" 
d="M23 542v158h579v-158h-204v-542h-24l-1 -161h-145l31 161h-33v542h-203z" />
    <glyph glyph-name="Udieresis.ss01" horiz-adv-x="730" 
d="M65 276v424h172v-410q0 -145 128 -145q62 0 95 37t33 108v410h172v-424q0 -135 -80.5 -211.5t-219.5 -76.5q-140 0 -220 76.5t-80 211.5zM68 828q0 36 23.5 58.5t61.5 22.5q37 0 60.5 -22.5t23.5 -58.5q0 -37 -23 -59q-23 -23 -61 -23t-61.5 22.5t-23.5 59.5zM492 828
q0 36 23.5 58.5t61.5 22.5q37 0 60.5 -22.5t23.5 -58.5q0 -37 -23 -59q-23 -23 -61 -23t-61.5 22.5t-23.5 59.5z" />
    <glyph glyph-name="i.loclTRK" horiz-adv-x="291" 
d="M64 516h163v-516h-163v516zM78 727q25 24 68 24q42 0 67.5 -24.5t25.5 -65.5t-25.5 -65.5t-67.5 -24.5q-43 0 -68.5 24.5t-25.5 65.5t26 66z" />
    <glyph glyph-name="j_acutecomb" horiz-adv-x="289" 
d="M-47 -94q30 -8 53 -8q31 0 43.5 15.5t12.5 51.5v551h163v-572q0 -185 -191 -185q-58 0 -111 18zM127 740h159l-85 -146h-126z" />
    <glyph glyph-name="germandbls.calt" horiz-adv-x="725" 
d="M65 412q0 139 67.5 213.5t202.5 74.5h302v-117l-129 -164q82 -14 131.5 -72t49.5 -141q0 -100 -63 -158.5t-174 -58.5q-96 0 -171 39l51 131q48 -26 95 -26q46 0 72 24t26 64q0 54 -37 71t-75 17q-25 0 -54 -6l-30 87l135 172h-102q-125 0 -125 -143v-419h-172v412z" />
    <glyph glyph-name="a.ss01" horiz-adv-x="671" 
d="M34 258q0 118 68 193.5t174 75.5q114 0 180 -85l2 74h149v-516h-149l-2 73q-67 -85 -180 -85q-106 0 -174 76t-68 194zM195 258q0 -58 35 -94q35 -37 91 -37t91 36.5t35 94.5q0 57 -35.5 94t-90.5 37q-56 0 -91 -36.5t-35 -94.5z" />
    <glyph glyph-name="aacute.ss01" horiz-adv-x="671" 
d="M34 258q0 118 68 193.5t174 75.5q114 0 180 -85l2 74h149v-516h-149l-2 73q-67 -85 -180 -85q-106 0 -174 76t-68 194zM195 258q0 -58 35 -94q35 -37 91 -37t91 36.5t35 94.5q0 57 -35.5 94t-90.5 37q-56 0 -91 -36.5t-35 -94.5zM324 740h164l-103 -146h-125z" />
    <glyph glyph-name="abreve.ss01" horiz-adv-x="671" 
d="M34 258q0 118 68 193.5t174 75.5q114 0 180 -85l2 74h149v-516h-149l-2 73q-67 -85 -180 -85q-106 0 -174 76t-68 194zM195 258q0 -58 35 -94q35 -37 91 -37t91 36.5t35 94.5q0 57 -35.5 94t-90.5 37q-56 0 -91 -36.5t-35 -94.5zM268 746q9 -70 65 -70q55 0 64 70l97 -19
q-16 -140 -161 -140q-144 0 -162 140z" />
    <glyph glyph-name="acircumflex.ss01" horiz-adv-x="671" 
d="M34 258q0 118 68 193.5t174 75.5q114 0 180 -85l2 74h149v-516h-149l-2 73q-67 -85 -180 -85q-106 0 -174 76t-68 194zM230 164q35 -37 91 -37t91 36.5t35 94.5q0 57 -35.5 94t-90.5 37q-56 0 -91 -36.5t-35 -94.5t35 -94zM149 594l121 146h125l120 -146h-139l-44 61
l-44 -61h-139z" />
    <glyph glyph-name="adieresis.ss01" horiz-adv-x="671" 
d="M34 258q0 118 68 193.5t174 75.5q114 0 180 -85l2 74h149v-516h-149l-2 73q-67 -85 -180 -85q-106 0 -174 76t-68 194zM195 258q0 -58 35 -94q35 -37 91 -37t91 36.5t35 94.5q0 57 -35.5 94t-90.5 37q-56 0 -91 -36.5t-35 -94.5zM356 657q0 35 23 57.5t59 22.5
q35 0 58 -22.5t23 -57.5q0 -36 -23 -58.5t-58 -22.5q-36 0 -59 22.5t-23 58.5zM145 657q0 35 23 57.5t59 22.5q35 0 58 -22.5t23 -57.5q0 -36 -23 -58.5t-58 -22.5q-36 0 -59 22.5t-23 58.5z" />
    <glyph glyph-name="agrave.ss01" horiz-adv-x="671" 
d="M34 258q0 118 68 193.5t174 75.5q114 0 180 -85l2 74h149v-516h-149l-2 73q-67 -85 -180 -85q-106 0 -174 76t-68 194zM230 164q35 -37 91 -37t91 36.5t35 94.5q0 57 -35.5 94t-90.5 37q-56 0 -91 -36.5t-35 -94.5t35 -94zM341 740l64 -146h-125l-103 146h164z" />
    <glyph glyph-name="amacron.ss01" horiz-adv-x="671" 
d="M34 258q0 118 68 193.5t174 75.5q114 0 180 -85l2 74h149v-516h-149l-2 73q-67 -85 -180 -85q-106 0 -174 76t-68 194zM230 164q35 -37 91 -37t91 36.5t35 94.5q0 57 -35.5 94t-90.5 37q-56 0 -91 -36.5t-35 -94.5t35 -94zM483 696v-100h-301v100h301z" />
    <glyph glyph-name="aogonek.ss01" horiz-adv-x="671" 
d="M102 452q68 75 174 75q114 0 180 -85l2 74h149v-515l1 -1q-80 -47 -80 -97q0 -35 34 -35q20 0 43 15l43 -74q-50 -40 -115 -40q-57 0 -90 29t-33 79q0 71 71 123h-23l-2 73q-67 -85 -180 -85q-106 0 -174 76t-68 194t68 194zM230 164q35 -37 91 -37t91 36.5t35 94.5
q0 57 -35.5 94t-90.5 37q-56 0 -91 -36.5t-35 -94.5t35 -94z" />
    <glyph glyph-name="aring.ss01" horiz-adv-x="671" 
d="M102 452q68 75 174 75q114 0 180 -85l2 74h149v-516h-149l-2 73q-67 -85 -180 -85q-106 0 -174 76t-68 194t68 194zM235 790q38 36 97 36t98 -36t39 -91t-39 -90q-39 -36 -98 -36t-97.5 35.5t-38.5 90.5t39 91zM195 258q0 -58 35 -94q35 -37 91 -37t91 36.5t35 94.5
q0 57 -35.5 94t-90.5 37q-56 0 -91 -36.5t-35 -94.5zM301 668q12 -13 31 -13q20 0 32.5 12.5t12.5 31.5q0 20 -12.5 32.5t-32.5 12.5q-19 0 -31.5 -12.5t-12.5 -32.5q0 -19 13 -31z" />
    <glyph glyph-name="atilde.ss01" horiz-adv-x="671" 
d="M102 452q68 75 174 75q114 0 180 -85l2 74h149v-516h-149l-2 73q-67 -85 -180 -85q-106 0 -174 76t-68 194t68 194zM195 258q0 -58 35 -94q35 -37 91 -37t91 36.5t35 94.5q0 57 -35.5 94t-90.5 37q-56 0 -91 -36.5t-35 -94.5zM265 729q26 0 69 -25q34 -20 53 -20
q28 0 50 40l68 -48q-38 -95 -107 -95q-25 0 -69 25q-34 20 -52 20q-28 0 -50 -40l-69 47q39 96 107 96z" />
    <glyph glyph-name="ae.ss01" horiz-adv-x="1007" 
d="M34 258q0 119 66.5 194t171.5 75q101 0 166 -71l2 60h122l1 -61q60 74 174 74q123 0 182.5 -83t59.5 -179q0 -33 -6 -68h-377q13 -41 49.5 -64.5t89.5 -23.5q85 0 156 52l61 -103q-81 -73 -204 -73q-124 0 -186 76l-2 -63h-123l-2 57q-63 -69 -163 -69q-104 0 -171 75.5
t-67 194.5zM196 258q0 -58 33.5 -94.5t86.5 -36.5q54 0 88 36.5t34 94.5t-34 94t-88 36q-53 0 -86.5 -36t-33.5 -94zM593 303h236q-10 46 -40.5 73.5t-76.5 27.5t-77.5 -27t-41.5 -74z" />
    <glyph glyph-name="aeacute.ss01" horiz-adv-x="1007" 
d="M34 258q0 119 66.5 194t171.5 75q101 0 166 -71l2 60h122l1 -61q60 74 174 74q123 0 182.5 -83t59.5 -179q0 -33 -6 -68h-377q13 -41 49.5 -64.5t89.5 -23.5q85 0 156 52l61 -103q-81 -73 -204 -73q-124 0 -186 76l-2 -63h-123l-2 57q-63 -69 -163 -69q-104 0 -171 75.5
t-67 194.5zM230 164q33 -37 86 -37q54 0 88 36.5t34 94.5t-34 94t-88 36q-53 0 -86.5 -36t-33.5 -94t34 -94zM430 594l64 146h164l-103 -146h-125zM829 303q-10 46 -40.5 73.5t-76.5 27.5t-77.5 -27t-41.5 -74h236z" />
    <glyph glyph-name="ccedilla.ss01" horiz-adv-x="555" 
d="M34 258q0 119 77.5 195t198.5 76q139 0 218 -90l-89 -101q-51 51 -119 51q-55 0 -90 -36.5t-35 -94.5t34.5 -94.5t91.5 -36.5q80 0 125 61l94 -96q-69 -87 -183 -102l-1 -148h-140l29 151q-95 20 -153 91.5t-58 173.5z" />
    <glyph glyph-name="f.ss01" horiz-adv-x="439" 
d="M27 386v130h91v62q0 85 49 132t136 47q74 0 136 -31l-43 -112q-26 13 -57 13q-58 0 -58 -68v-45h142v-128h-142v-386h-163v386h-91z" />
    <glyph glyph-name="g.ss01" horiz-adv-x="666" 
d="M102 453q67 74 173 74q110 0 176 -79l2 68h149v-490q0 -123 -82 -195.5t-221 -72.5q-131 0 -239 65l57 119q84 -49 175 -49q75 0 116.5 37t41.5 103v43q-67 -77 -175 -77q-106 0 -173.5 74t-67.5 190t68 190zM196 260q0 -58 35 -94q34 -36 89 -36t90 36.5t35 93.5
q0 58 -34.5 94t-90.5 36t-90 -36t-34 -94z" />
    <glyph glyph-name="gbreve.ss01" horiz-adv-x="666" 
d="M102 453q67 74 173 74q110 0 176 -79l2 68h149v-490q0 -123 -82 -195.5t-221 -72.5q-131 0 -239 65l57 119q84 -49 175 -49q75 0 116.5 37t41.5 103v43q-67 -77 -175 -77q-106 0 -173.5 74t-67.5 190t68 190zM196 260q0 -58 35 -94q34 -36 89 -36t90 36.5t35 93.5
q0 58 -34.5 94t-90.5 36t-90 -36t-34 -94zM152 727l97 19q9 -70 65 -70q55 0 64 70l97 -19q-16 -140 -161 -140q-144 0 -162 140z" />
    <glyph glyph-name="gcircumflex.ss01" horiz-adv-x="666" 
d="M102 453q67 74 173 74q110 0 176 -79l2 68h149v-490q0 -123 -82 -195.5t-221 -72.5q-131 0 -239 65l57 119q84 -49 175 -49q75 0 116.5 37t41.5 103v43q-67 -77 -175 -77q-106 0 -173.5 74t-67.5 190t68 190zM196 260q0 -58 35 -94q34 -36 89 -36t90 36.5t35 93.5
q0 58 -34.5 94t-90.5 36t-90 -36t-34 -94zM251 740h125l120 -146h-139l-44 61l-44 -61h-139z" />
    <glyph glyph-name="uni0123.ss01" horiz-adv-x="666" 
d="M34 263q0 116 67.5 190t173.5 74q110 0 176 -79l2 68h149v-490q0 -123 -82 -195.5t-221 -72.5q-131 0 -239 65l57 119q84 -49 175 -49q75 0 116.5 37t41.5 103v43q-67 -77 -175 -77q-106 0 -173.5 74t-67.5 190zM196 260q0 -58 35 -94q34 -36 89 -36t90 36.5t35 93.5
q0 58 -34.5 94t-90.5 36t-90 -36t-34 -94zM234 658q0 84 89 157l45 -38q-32 -35 -43 -68q31 -1 49 -20.5t18 -45.5q0 -32 -19.5 -53.5t-54.5 -21.5q-39 0 -61.5 25t-22.5 65z" />
    <glyph glyph-name="gdotaccent.ss01" horiz-adv-x="666" 
d="M102 453q67 74 173 74q110 0 176 -79l2 68h149v-490q0 -123 -82 -195.5t-221 -72.5q-131 0 -239 65l57 119q84 -49 175 -49q75 0 116.5 37t41.5 103v43q-67 -77 -175 -77q-106 0 -173.5 74t-67.5 190t68 190zM231 166q34 -36 89 -36t90 36.5t35 93.5q0 58 -34.5 94
t-90.5 36t-90 -36t-34 -94t35 -94zM220 661q0 41 25.5 65.5t68.5 24.5q42 0 67.5 -24.5t25.5 -65.5t-25.5 -65.5t-67.5 -24.5q-43 0 -68.5 24.5t-25.5 65.5z" />
    <glyph glyph-name="k.ss01" horiz-adv-x="597" 
d="M227 740v-434l164 210h187l-198 -252l208 -264h-190l-171 216v-216h-163v740h163z" />
    <glyph glyph-name="uni0137.ss01" horiz-adv-x="597" 
d="M64 740h163v-434l164 210h187l-198 -252l208 -264h-190l-171 216v-216h-163v740zM247 -69q19 22 54 22q39 0 61.5 -25t22.5 -65q0 -84 -89 -157l-45 38q32 35 43 68q-31 1 -49 20.5t-18 45.5q0 32 20 53z" />
    <glyph glyph-name="kgreenlandic.ss01" horiz-adv-x="597" 
d="M227 516v-210l164 210h187l-198 -252l208 -264h-190l-171 216v-216h-163v516h163z" />
    <glyph glyph-name="scedilla.ss01" horiz-adv-x="506" 
d="M26 59l58 111q92 -54 172 -54q68 0 68 37q0 31 -86 51q-98 23 -143 63t-45 105q0 70 52.5 111.5t148.5 41.5q118 0 218 -62l-58 -107q-29 20 -72 33t-79 13q-59 0 -59 -32q0 -17 18.5 -28t69.5 -23q190 -43 190 -165q0 -64 -44.5 -106.5t-121.5 -53.5l-1 -152h-140
l29 152q-93 12 -175 65z" />
    <glyph glyph-name="uni0163.ss01" horiz-adv-x="439" 
d="M23 516h85l3 124h157v-124h128v-129h-128v-182q0 -67 58 -67q28 0 62 14l35 -134q-41 -18 -92 -25l-1 -151h-140l30 159q-115 36 -115 188v198h-82v129z" />
    <glyph glyph-name="u.ss01" horiz-adv-x="624" 
d="M57 516h163v-275q0 -105 91 -105q92 0 92 105v275h163v-283q0 -115 -67 -178t-188 -63q-119 0 -186.5 63.5t-67.5 177.5v283z" />
    <glyph glyph-name="uacute.ss01" horiz-adv-x="624" 
d="M220 516v-275q0 -105 91 -105q92 0 92 105v275h163v-283q0 -115 -67 -178t-188 -63q-119 0 -186.5 63.5t-67.5 177.5v283h163zM242 594l64 146h164l-103 -146h-125z" />
    <glyph glyph-name="ubreve.ss01" horiz-adv-x="624" 
d="M57 516h163v-275q0 -105 91 -105q92 0 92 105v275h163v-283q0 -115 -67 -178t-188 -63q-119 0 -186.5 63.5t-67.5 177.5v283zM152 727l97 19q9 -70 65 -70q55 0 64 70l97 -19q-16 -140 -161 -140q-144 0 -162 140z" />
    <glyph glyph-name="ucircumflex.ss01" horiz-adv-x="624" 
d="M220 516v-275q0 -105 91 -105q92 0 92 105v275h163v-283q0 -115 -67 -178t-188 -63q-119 0 -186.5 63.5t-67.5 177.5v283h163zM131 594l121 146h125l120 -146h-139l-44 61l-44 -61h-139z" />
    <glyph glyph-name="udieresis.ss01" horiz-adv-x="624" 
d="M57 233v283h163v-275q0 -105 91 -105q92 0 92 105v275h163v-283q0 -115 -67 -178t-188 -63q-119 0 -186.5 63.5t-67.5 177.5zM150 715q23 22 59 22q35 0 58 -22.5t23 -57.5q0 -36 -23 -58.5t-58 -22.5q-36 0 -59 22.5t-23 58.5q0 35 23 58zM338 657q0 35 23 57.5t59 22.5
q35 0 58 -22.5t23 -57.5q0 -36 -23 -58.5t-58 -22.5q-36 0 -59 22.5t-23 58.5z" />
    <glyph glyph-name="ugrave.ss01" horiz-adv-x="624" 
d="M220 516v-275q0 -105 91 -105q92 0 92 105v275h163v-283q0 -115 -67 -178t-188 -63q-119 0 -186.5 63.5t-67.5 177.5v283h163zM322 740l64 -146h-125l-103 146h164z" />
    <glyph glyph-name="uhungarumlaut.ss01" horiz-adv-x="624" 
d="M220 516v-275q0 -105 91 -105q92 0 92 105v275h163v-283q0 -115 -67 -178t-188 -63q-119 0 -186.5 63.5t-67.5 177.5v283h163zM405 740h148l-98 -146h-121zM153 594l53 146h148l-81 -146h-120z" />
    <glyph glyph-name="umacron.ss01" horiz-adv-x="624" 
d="M57 516h163v-275q0 -105 91 -105q92 0 92 105v275h163v-283q0 -115 -67 -178t-188 -63q-119 0 -186.5 63.5t-67.5 177.5v283zM163 696h301v-100h-301v100z" />
    <glyph glyph-name="uogonek.ss01" horiz-adv-x="624" 
d="M403 241v275h163v-283q0 -81 -34.5 -137.5t-109.5 -99.5q-70 -39 -70 -93q0 -35 33 -35q20 0 44 15l43 -74q-52 -40 -116 -40q-57 0 -90 29t-33 79q0 64 57 116q-111 7 -172 69.5t-61 170.5v283h163v-275q0 -105 91 -105q92 0 92 105z" />
    <glyph glyph-name="uring.ss01" horiz-adv-x="624" 
d="M57 516h163v-275q0 -105 91 -105q92 0 92 105v275h163v-283q0 -115 -67 -178t-188 -63q-119 0 -186.5 63.5t-67.5 177.5v283zM177 699q0 55 38.5 91t97.5 36t98 -36t39 -91t-39 -90q-39 -36 -98 -36t-97.5 35.5t-38.5 90.5zM282 668q12 -13 31 -13q20 0 32.5 12.5
t12.5 31.5q0 20 -12.5 32.5t-32.5 12.5q-19 0 -31.5 -12.5t-12.5 -32.5q0 -19 13 -31z" />
    <glyph glyph-name="utilde.ss01" horiz-adv-x="624" 
d="M220 516v-275q0 -105 91 -105q92 0 92 105v275h163v-283q0 -115 -67 -178t-188 -63q-119 0 -186.5 63.5t-67.5 177.5v283h163zM140 633q39 96 107 96q26 0 69 -25q34 -20 53 -20q28 0 50 40l68 -48q-38 -95 -107 -95q-25 0 -69 25q-34 20 -52 20q-28 0 -50 -40z" />
    <glyph glyph-name="y.ss01" horiz-adv-x="634" 
d="M58 -178l57 119q81 -48 163 -48q68 0 105 37t37 103v41q-69 -75 -168 -75q-89 0 -141 56t-52 146v315h163v-272q0 -101 86 -101q48 0 74.5 29.5t26.5 80.5v263h163v-490q0 -123 -77 -195.5t-210 -72.5q-120 0 -227 64z" />
    <glyph glyph-name="yacute.ss01" horiz-adv-x="634" 
d="M115 -59q81 -48 163 -48q68 0 105 37t37 103v41q-69 -75 -168 -75q-89 0 -141 56t-52 146v315h163v-272q0 -101 86 -101q48 0 74.5 29.5t26.5 80.5v263h163v-490q0 -123 -77 -195.5t-210 -72.5q-120 0 -227 64zM244 594l64 146h164l-103 -146h-125z" />
    <glyph glyph-name="ycircumflex.ss01" horiz-adv-x="634" 
d="M115 -59q81 -48 163 -48q68 0 105 37t37 103v41q-69 -75 -168 -75q-89 0 -141 56t-52 146v315h163v-272q0 -101 86 -101q48 0 74.5 29.5t26.5 80.5v263h163v-490q0 -123 -77 -195.5t-210 -72.5q-120 0 -227 64zM254 740h125l120 -146h-139l-44 61l-44 -61h-139z" />
    <glyph glyph-name="ydieresis.ss01" horiz-adv-x="634" 
d="M115 -59q81 -48 163 -48q68 0 105 37t37 103v41q-69 -75 -168 -75q-89 0 -141 56t-52 146v315h163v-272q0 -101 86 -101q48 0 74.5 29.5t26.5 80.5v263h163v-490q0 -123 -77 -195.5t-210 -72.5q-120 0 -227 64zM129 657q0 35 23 57.5t59 22.5q35 0 58 -22.5t23 -57.5
q0 -36 -23 -58.5t-58 -22.5q-36 0 -59 22.5t-23 58.5zM340 657q0 35 23 57.5t59 22.5q35 0 58 -22.5t23 -57.5q0 -36 -23 -58.5t-58 -22.5q-36 0 -59 22.5t-23 58.5z" />
    <glyph glyph-name="ygrave.ss01" horiz-adv-x="634" 
d="M115 -59q81 -48 163 -48q68 0 105 37t37 103v41q-69 -75 -168 -75q-89 0 -141 56t-52 146v315h163v-272q0 -101 86 -101q48 0 74.5 29.5t26.5 80.5v263h163v-490q0 -123 -77 -195.5t-210 -72.5q-120 0 -227 64zM160 740h164l64 -146h-125z" />
    <glyph glyph-name="f_t_y.dlig" horiz-adv-x="1377" 
d="M1119 286l73 230h173l-217 -600q-54 -151 -212 -151q-54 0 -105 17l30 135q32 -9 57 -9q69 0 97 68l-171 412h-204v-183q0 -67 56 -67q27 0 61 14l36 -134q-60 -27 -129 -27q-92 0 -139.5 50.5t-47.5 147.5v197h-196v-386h-163v386h-91v130h91v62q0 85 48.5 132t135.5 47
q74 0 135 -31l-43 -112q-26 13 -56 13q-57 0 -57 -68v-45h198l3 126h158v-124h326l84 -230l37 -110z" />
    <glyph glyph-name="f_t_yacute.dlig" horiz-adv-x="1377" 
d="M1119 286l73 230h173l-217 -600q-54 -151 -212 -151q-54 0 -105 17l30 135q32 -9 57 -9q69 0 97 68l-171 412h-204v-183q0 -67 56 -67q27 0 61 14l36 -134q-60 -27 -129 -27q-92 0 -139.5 50.5t-47.5 147.5v197h-196v-386h-163v386h-91v130h91v62q0 85 48.5 132t135.5 47
q74 0 135 -31l-43 -112q-26 13 -56 13q-57 0 -57 -68v-45h198l3 126h158v-124h326l84 -230l37 -110zM1072 740h164l-103 -146h-125z" />
    <glyph glyph-name="f_t_ycircumflex.dlig" horiz-adv-x="1377" 
d="M1119 286l73 230h173l-217 -600q-54 -151 -212 -151q-54 0 -105 17l30 135q32 -9 57 -9q69 0 97 68l-171 412h-204v-183q0 -67 56 -67q27 0 61 14l36 -134q-60 -27 -129 -27q-92 0 -139.5 50.5t-47.5 147.5v197h-196v-386h-163v386h-91v130h91v62q0 85 48.5 132t135.5 47
q74 0 135 -31l-43 -112q-26 13 -56 13q-57 0 -57 -68v-45h198l3 126h158v-124h326l84 -230l37 -110zM1124 594l-44 61l-44 -61h-139l121 146h125l120 -146h-139z" />
    <glyph glyph-name="f_t_ydieresis.dlig" horiz-adv-x="1377" 
d="M1119 286l73 230h173l-217 -600q-54 -151 -212 -151q-54 0 -105 17l30 135q32 -9 57 -9q69 0 97 68l-171 412h-204v-183q0 -67 56 -67q27 0 61 14l36 -134q-60 -27 -129 -27q-92 0 -139.5 50.5t-47.5 147.5v197h-196v-386h-163v386h-91v130h91v62q0 85 48.5 132t135.5 47
q74 0 135 -31l-43 -112q-26 13 -56 13q-57 0 -57 -68v-45h198l3 126h158v-124h326l84 -230l37 -110zM1124 594l-44 61l-44 -61h-139l121 146h125l120 -146h-139z" />
    <glyph glyph-name="f_t_ygrave.dlig" horiz-adv-x="1377" 
d="M1119 286l73 230h173l-217 -600q-54 -151 -212 -151q-54 0 -105 17l30 135q32 -9 57 -9q69 0 97 68l-171 412h-204v-183q0 -67 56 -67q27 0 61 14l36 -134q-60 -27 -129 -27q-92 0 -139.5 50.5t-47.5 147.5v197h-196v-386h-163v386h-91v130h91v62q0 85 48.5 132t135.5 47
q74 0 135 -31l-43 -112q-26 13 -56 13q-57 0 -57 -68v-45h198l3 126h158v-124h326l84 -230l37 -110zM1089 740l64 -146h-125l-103 146h164z" />
    <glyph glyph-name="f_t_y.ss01.dlig" horiz-adv-x="1426" 
d="M1201 253v263h163v-490q0 -123 -76.5 -195.5t-208.5 -72.5q-120 0 -222 62l54 121q79 -48 161 -48q66 0 103 37t37 103v41q-69 -75 -168 -75q-88 0 -139.5 56t-51.5 146v187h-213v-183q0 -67 52 -67q26 0 57 14l36 -134q-59 -27 -125 -27q-90 0 -136.5 50.5t-46.5 147.5
v197h-196v-386h-163v386h-91v130h91v62q0 85 48.5 132t135.5 47q74 0 135 -31l-43 -112q-26 13 -56 13q-57 0 -57 -68v-45h198l3 126h158v-124h376v-272q0 -101 85 -101q47 0 73.5 29.5t26.5 80.5z" />
    <glyph glyph-name="f_t_yacute.ss01.dlig" horiz-adv-x="1426" 
d="M1201 253v263h163v-490q0 -123 -76.5 -195.5t-208.5 -72.5q-120 0 -222 62l54 121q79 -48 161 -48q66 0 103 37t37 103v41q-69 -75 -168 -75q-88 0 -139.5 56t-51.5 146v187h-213v-183q0 -67 52 -67q26 0 57 14l36 -134q-59 -27 -125 -27q-90 0 -136.5 50.5t-46.5 147.5
v197h-196v-386h-163v386h-91v130h91v62q0 85 48.5 132t135.5 47q74 0 135 -31l-43 -112q-26 13 -56 13q-57 0 -57 -68v-45h198l3 126h158v-124h376v-272q0 -101 85 -101q47 0 73.5 29.5t26.5 80.5zM1101 740h164l-103 -146h-125z" />
    <glyph glyph-name="f_t_ycircumflex.ss01.dlig" horiz-adv-x="1426" 
d="M1201 253v263h163v-490q0 -123 -76.5 -195.5t-208.5 -72.5q-120 0 -222 62l54 121q79 -48 161 -48q66 0 103 37t37 103v41q-69 -75 -168 -75q-88 0 -139.5 56t-51.5 146v187h-213v-183q0 -67 52 -67q26 0 57 14l36 -134q-59 -27 -125 -27q-90 0 -136.5 50.5t-46.5 147.5
v197h-196v-386h-163v386h-91v130h91v62q0 85 48.5 132t135.5 47q74 0 135 -31l-43 -112q-26 13 -56 13q-57 0 -57 -68v-45h198l3 126h158v-124h376v-272q0 -101 85 -101q47 0 73.5 29.5t26.5 80.5zM1153 594l-44 61l-44 -61h-139l121 146h125l120 -146h-139z" />
    <glyph glyph-name="f_t_ydieresis.ss01.dlig" horiz-adv-x="1426" 
d="M1201 253v263h163v-490q0 -123 -76.5 -195.5t-208.5 -72.5q-120 0 -222 62l54 121q79 -48 161 -48q66 0 103 37t37 103v41q-69 -75 -168 -75q-88 0 -139.5 56t-51.5 146v187h-213v-183q0 -67 52 -67q26 0 57 14l36 -134q-59 -27 -125 -27q-90 0 -136.5 50.5t-46.5 147.5
v197h-196v-386h-163v386h-91v130h91v62q0 85 48.5 132t135.5 47q74 0 135 -31l-43 -112q-26 13 -56 13q-57 0 -57 -68v-45h198l3 126h158v-124h376v-272q0 -101 85 -101q47 0 73.5 29.5t26.5 80.5zM1004 576q-36 0 -59 22.5t-23 58.5q0 35 23 57.5t59 22.5q35 0 58 -22.5
t23 -57.5q0 -36 -23 -58.5t-58 -22.5zM1215 576q-36 0 -59 22.5t-23 58.5q0 35 23 57.5t59 22.5q35 0 58 -22.5t23 -57.5q0 -36 -23 -58.5t-58 -22.5z" />
    <glyph glyph-name="f_t_ygrave.ss01.dlig" horiz-adv-x="1426" 
d="M1201 253v263h163v-490q0 -123 -76.5 -195.5t-208.5 -72.5q-120 0 -222 62l54 121q79 -48 161 -48q66 0 103 37t37 103v41q-69 -75 -168 -75q-88 0 -139.5 56t-51.5 146v187h-213v-183q0 -67 52 -67q26 0 57 14l36 -134q-59 -27 -125 -27q-90 0 -136.5 50.5t-46.5 147.5
v197h-196v-386h-163v386h-91v130h91v62q0 85 48.5 132t135.5 47q74 0 135 -31l-43 -112q-26 13 -56 13q-57 0 -57 -68v-45h198l3 126h158v-124h376v-272q0 -101 85 -101q47 0 73.5 29.5t26.5 80.5zM1117 740l64 -146h-125l-103 146h164z" />
    <glyph glyph-name="t_y.ss01.dlig" horiz-adv-x="1055" 
d="M830 253v263h163v-490q0 -123 -76.5 -195.5t-209.5 -72.5q-119 0 -221 62l54 121q79 -48 160 -48q67 0 104 37t37 103v42q-67 -76 -168 -76q-88 0 -140 56t-52 146v188h-213v-184q0 -67 52 -67q25 0 58 14l35 -134q-57 -27 -125 -27q-90 0 -136.5 50.5t-46.5 147.5v198
h-82v129h85l3 124h157v-124h376v-272q0 -101 85 -101q48 0 74.5 29.5t26.5 80.5z" />
    <glyph glyph-name="t_yacute.ss01.dlig" horiz-adv-x="1055" 
d="M729 740h164l-103 -146h-125zM830 253v263h163v-490q0 -123 -76.5 -195.5t-209.5 -72.5q-119 0 -221 62l54 121q79 -48 160 -48q67 0 104 37t37 103v42q-67 -76 -168 -76q-88 0 -140 56t-52 146v188h-213v-184q0 -67 52 -67q25 0 58 14l35 -134q-57 -27 -125 -27
q-90 0 -136.5 50.5t-46.5 147.5v198h-82v129h85l3 124h157v-124h376v-272q0 -101 85 -101q48 0 74.5 29.5t26.5 80.5z" />
    <glyph glyph-name="t_ycircumflex.ss01.dlig" horiz-adv-x="1055" 
d="M781 594l-44 61l-44 -61h-139l121 146h125l120 -146h-139zM830 253v263h163v-490q0 -123 -76.5 -195.5t-209.5 -72.5q-119 0 -221 62l54 121q79 -48 160 -48q67 0 104 37t37 103v42q-67 -76 -168 -76q-88 0 -140 56t-52 146v188h-213v-184q0 -67 52 -67q25 0 58 14
l35 -134q-57 -27 -125 -27q-90 0 -136.5 50.5t-46.5 147.5v198h-82v129h85l3 124h157v-124h376v-272q0 -101 85 -101q48 0 74.5 29.5t26.5 80.5z" />
    <glyph glyph-name="t_ydieresis.ss01.dlig" horiz-adv-x="1055" 
d="M632 576q-36 0 -59 22.5t-23 58.5q0 35 23 57.5t59 22.5q35 0 58 -22.5t23 -57.5q0 -36 -23 -58.5t-58 -22.5zM843 576q-36 0 -59 22.5t-23 58.5q0 35 23 57.5t59 22.5q35 0 58 -22.5t23 -57.5q0 -36 -23 -58.5t-58 -22.5zM830 253v263h163v-490q0 -123 -76.5 -195.5
t-209.5 -72.5q-119 0 -221 62l54 121q79 -48 160 -48q67 0 104 37t37 103v42q-67 -76 -168 -76q-88 0 -140 56t-52 146v188h-213v-184q0 -67 52 -67q25 0 58 14l35 -134q-57 -27 -125 -27q-90 0 -136.5 50.5t-46.5 147.5v198h-82v129h85l3 124h157v-124h376v-272
q0 -101 85 -101q48 0 74.5 29.5t26.5 80.5z" />
    <glyph glyph-name="t_ygrave.ss01.dlig" horiz-adv-x="1055" 
d="M746 740l64 -146h-125l-103 146h164zM830 253v263h163v-490q0 -123 -76.5 -195.5t-209.5 -72.5q-119 0 -221 62l54 121q79 -48 160 -48q67 0 104 37t37 103v42q-67 -76 -168 -76q-88 0 -140 56t-52 146v188h-213v-184q0 -67 52 -67q25 0 58 14l35 -134q-57 -27 -125 -27
q-90 0 -136.5 50.5t-46.5 147.5v198h-82v129h85l3 124h157v-124h376v-272q0 -101 85 -101q48 0 74.5 29.5t26.5 80.5z" />
    <glyph glyph-name="t_y.dlig" horiz-adv-x="1005" 
d="M747 286l73 230h174l-217 -600q-56 -151 -213 -151q-53 0 -104 17l30 135q32 -9 57 -9q69 0 96 70l-171 411h-204v-184q0 -67 57 -67q27 0 61 14l35 -134q-60 -27 -128 -27q-93 0 -140.5 50.5t-47.5 147.5v198h-82v129h85l3 124h157v-124h326l85 -230l36 -109z" />
    <glyph glyph-name="t_yacute.dlig" horiz-adv-x="1005" 
d="M702 740h164l-103 -146h-125zM747 286l73 230h174l-217 -600q-56 -151 -213 -151q-53 0 -104 17l30 135q32 -9 57 -9q69 0 96 70l-171 411h-204v-184q0 -67 57 -67q27 0 61 14l35 -134q-60 -27 -128 -27q-93 0 -140.5 50.5t-47.5 147.5v198h-82v129h85l3 124h157v-124
h326l85 -230l36 -109z" />
    <glyph glyph-name="t_ycircumflex.dlig" horiz-adv-x="1005" 
d="M754 594l-44 61l-44 -61h-139l121 146h125l120 -146h-139zM747 286l73 230h174l-217 -600q-56 -151 -213 -151q-53 0 -104 17l30 135q32 -9 57 -9q69 0 96 70l-171 411h-204v-184q0 -67 57 -67q27 0 61 14l35 -134q-60 -27 -128 -27q-93 0 -140.5 50.5t-47.5 147.5v198
h-82v129h85l3 124h157v-124h326l85 -230l36 -109z" />
    <glyph glyph-name="t_ydieresis.dlig" horiz-adv-x="1005" 
d="M605 576q-36 0 -59 22.5t-23 58.5q0 35 23 57.5t59 22.5q35 0 58 -22.5t23 -57.5q0 -36 -23 -58.5t-58 -22.5zM816 576q-36 0 -59 22.5t-23 58.5q0 35 23 57.5t59 22.5q35 0 58 -22.5t23 -57.5q0 -36 -23 -58.5t-58 -22.5zM747 286l73 230h174l-217 -600
q-56 -151 -213 -151q-53 0 -104 17l30 135q32 -9 57 -9q69 0 96 70l-171 411h-204v-184q0 -67 57 -67q27 0 61 14l35 -134q-60 -27 -128 -27q-93 0 -140.5 50.5t-47.5 147.5v198h-82v129h85l3 124h157v-124h326l85 -230l36 -109z" />
    <glyph glyph-name="t_ygrave.dlig" horiz-adv-x="1005" 
d="M718 740l64 -146h-125l-103 146h164zM747 286l73 230h174l-217 -600q-56 -151 -213 -151q-53 0 -104 17l30 135q32 -9 57 -9q69 0 96 70l-171 411h-204v-184q0 -67 57 -67q27 0 61 14l35 -134q-60 -27 -128 -27q-93 0 -140.5 50.5t-47.5 147.5v198h-82v129h85l3 124h157
v-124h326l85 -230l36 -109z" />
    <glyph glyph-name="f_f.ss01.liga" horiz-adv-x="804" 
d="M646 559v-45h143v-128h-143v-386h-163v386h-202v-386h-163v386h-91v130h91v62q0 85 48.5 132t134.5 47q73 0 134 -31l-43 -112q-25 13 -55 13q-56 0 -56 -68v-45h202v64q0 85 48.5 132t136.5 47q74 0 136 -31l-43 -112q-27 13 -57 13q-58 0 -58 -68z" />
    <glyph glyph-name="f_f_i.ss01.liga" horiz-adv-x="1070" 
d="M1007 516v-516h-163v386h-198v-386h-163v386h-202v-386h-163v386h-91v130h91v62q0 85 48.5 132t134.5 47q73 0 134 -31l-43 -112q-25 13 -55 13q-56 0 -56 -68v-43h202v26q0 106 58.5 162.5t174.5 56.5q133 0 238 -64l-53 -112q-80 45 -152 45q-103 0 -103 -99v-15h361z
" />
    <glyph glyph-name="f_f_j.ss01.liga" horiz-adv-x="1070" 
d="M1007 516v-572q0 -185 -191 -185q-56 0 -111 18l30 129q32 -8 54 -8q30 0 42.5 15.5t12.5 51.5v421h-198v-386h-163v386h-202v-386h-163v386h-91v130h91v62q0 85 48.5 132t134.5 47q74 0 134 -31l-43 -112q-23 13 -55 13q-56 0 -56 -68v-43h202v26q0 105 58 162t175 57
q133 0 238 -64l-53 -112q-78 45 -152 45q-103 0 -103 -99v-15h361z" />
    </font>
</defs>
</svg>
