<?xml version="1.0" standalone="no"?>
<!DOCTYPE svg PUBLIC "-//W3C//DTD SVG 1.1//EN" "http://www.w3.org/Graphics/SVG/1.1/DTD/svg11.dtd" >
<svg xmlns="http://www.w3.org/2000/svg" xmlns:xlink="http://www.w3.org/1999/xlink" version="1.1">
<metadata>
Created by FontForge 20170731 at Thu Oct  1 08:31:38 2020
 By Aleksey,,,
Copyright (c) 2020 by Spacetype Ltd. All rights reserved.
</metadata>
<defs>
<font id="Gogh-Regular" horiz-adv-x="0" >
  <font-face 
    font-family="Gogh-Regular"
    font-weight="400"
    font-stretch="normal"
    units-per-em="1000"
    panose-1="0 0 5 0 0 0 0 0 0 0"
    ascent="695"
    descent="-305"
    x-height="508"
    cap-height="700"
    bbox="-500 -342 1300 972"
    underline-thickness="50"
    underline-position="-150"
    unicode-range="U+000D-FB02"
  />
<missing-glyph horiz-adv-x="813" 
d="M714 740v-780h-614v780h614zM628 40v620h-442v-620h442zM407 589q70 0 113 -35.5t43 -96.5q0 -40 -20 -69.5t-57 -60.5q-27 -23 -36 -39.5t-9 -44.5v-18h-78v27q0 42 15.5 67.5t55.5 57.5q48 38 48 74q0 27 -21 45.5t-59 18.5q-61 0 -107 -67l-55 46q63 95 167 95z
M367 170q14 13 35 13t35.5 -13.5t14.5 -34.5t-14 -34q-15 -14 -36 -14t-35.5 13.5t-14.5 34.5t15 35z" />
    <glyph glyph-name="fi" unicode="fi" horiz-adv-x="671" 
d="M581 508v-508h-81v435h-272v-435h-81v435h-111v73h111v45q0 93 51 143t142 50q108 0 201 -64l-37 -63q-78 53 -156 53q-58 0 -89 -31t-31 -90v-43h353z" />
    <glyph glyph-name="fl" unicode="fl" horiz-adv-x="672" 
d="M365 764q113 0 217 -48v-716h-81v665q-52 23 -134 23q-75 0 -107 -31.5t-32 -104.5v-44h167v-73h-167v-435h-81v435h-111v73h111v50q0 101 55.5 153.5t162.5 52.5z" />
    <glyph glyph-name="f_f" unicode="ff" horiz-adv-x="768" 
d="M586 579v-71h172v-73h-172v-435h-81v435h-277v-435h-81v435h-111v73h111v74q0 77 38.5 120t108.5 43q58 0 112 -29l-27 -65q-37 20 -75 20q-76 0 -76 -92v-71h277v74q0 77 39 120t110 43q58 0 113 -29l-27 -65q-39 20 -76 20q-78 0 -78 -92z" />
    <glyph glyph-name="f_f_i" unicode="ffi" horiz-adv-x="1029" 
d="M939 508v-508h-81v435h-272v-435h-81v435h-277v-435h-81v435h-111v73h111v74q0 77 38.5 120t108.5 43q58 0 112 -29l-27 -65q-37 20 -75 20q-76 0 -76 -92v-71h277v45q0 93 51 143t142 50q108 0 201 -64l-36 -63q-80 53 -157 53q-58 0 -89 -31.5t-31 -89.5v-43h353z" />
    <glyph glyph-name="f_f_j.liga" unicode="ffj" horiz-adv-x="1029" 
d="M939 508v-587q0 -77 -36.5 -117.5t-105.5 -40.5q-43 0 -91 16l19 72q35 -11 64 -11q37 0 53 21.5t16 71.5v502h-272v-435h-81v435h-277v-435h-81v435h-111v73h111v74q0 77 38.5 120t108.5 43q59 0 112 -29l-27 -65q-34 20 -75 20q-76 0 -76 -92v-71h277v45
q0 92 50.5 142.5t142.5 50.5q109 0 201 -64l-36 -63q-80 53 -157 53q-58 0 -89 -31.5t-31 -89.5v-43h353z" />
    <glyph glyph-name="f_f_l" unicode="ffl" horiz-adv-x="1031" 
d="M724 764q115 0 217 -45v-719h-81v667q-54 21 -134 21q-76 0 -108 -31t-32 -105v-44h168v-73h-168v-435h-81v435h-277v-435h-81v435h-111v73h111v73q0 77 38.5 120t108.5 43q59 0 112 -29l-27 -65q-34 20 -75 20q-76 0 -76 -92v-70h277v50q0 101 55.5 153.5t163.5 52.5z
" />
    <glyph glyph-name="f_f_uni013C.liga" unicode="ff&#x13c;" horiz-adv-x="1031" 
d="M586 552v-44h168v-73h-168v-435h-81v435h-277v-435h-81v435h-111v73h111v73q0 77 38.5 120t108.5 43q59 0 112 -29l-27 -65q-34 20 -75 20q-76 0 -76 -92v-70h277v50q0 101 55.5 153.5t163.5 52.5q115 0 217 -45v-719h-81v667q-54 21 -134 21q-76 0 -108 -31t-32 -105z
M897 -52q27 0 42.5 -18.5t15.5 -50.5q0 -68 -65 -131l-28 27q30 34 38 71q-23 0 -38 14t-15 35q0 23 14 38t36 15z" />
    <glyph glyph-name="f_f_t.liga" unicode="fft" horiz-adv-x="1132" 
d="M1087 89l26 -70q-55 -26 -111 -26q-72 0 -112.5 44t-40.5 120v278h-263v-435h-81v435h-277v-435h-81v435h-111v73h111v74q0 77 39 120t110 43q58 0 113 -29l-27 -65q-39 20 -76 20q-78 0 -78 -92v-71h277v74q0 77 39 120t110 43q58 0 113 -29l-27 -65q-39 20 -76 20
q-78 0 -78 -92v-71h263v121h81v-121h158v-73h-158v-274q0 -92 80 -92q36 0 77 20z" />
    <glyph glyph-name="f_f_tcaron.liga" unicode="ff&#x165;" horiz-adv-x="1132" 
d="M1010 69q36 0 77 20l26 -70q-55 -26 -111 -26q-72 0 -112.5 44t-40.5 120v278h-263v-435h-81v435h-277v-435h-81v435h-111v73h111v74q0 77 39 120t110 43q58 0 113 -29l-27 -65q-39 20 -76 20q-78 0 -78 -92v-71h277v74q0 77 39 120t110 43q58 0 113 -29l-27 -65
q-39 20 -76 20q-78 0 -78 -92v-71h263v121h81v-121h158v-73h-158v-274q0 -92 80 -92zM1072 740h82l-52 -167h-64z" />
    <glyph glyph-name="f_f_uni0163.liga" unicode="ff&#x163;" horiz-adv-x="1132" 
d="M1022 -6l-10 -46q49 4 79.5 -20.5t30.5 -69.5q0 -46 -35 -73t-89 -27q-63 0 -110 38l29 44q34 -26 77 -26q30 0 46.5 12t16.5 33q0 30 -29.5 38.5t-64.5 -1.5l-16 15l20 85q-56 10 -87 52.5t-31 108.5v278h-263v-435h-81v435h-277v-435h-81v435h-111v73h111v74
q0 77 39 120t110 43q58 0 113 -29l-27 -65q-39 20 -76 20q-78 0 -78 -92v-71h277v74q0 77 39 120t110 43q58 0 113 -29l-27 -65q-39 20 -76 20q-78 0 -78 -92v-71h263v121h81v-121h158v-73h-158v-274q0 -92 80 -92q36 0 77 20l26 -70q-47 -22 -91 -25z" />
    <glyph glyph-name="f_f_uni021B.liga" unicode="ff&#x21b;" horiz-adv-x="1132" 
d="M1087 89l26 -70q-55 -26 -111 -26q-72 0 -112.5 44t-40.5 120v278h-263v-435h-81v435h-277v-435h-81v435h-111v73h111v74q0 77 39 120t110 43q58 0 113 -29l-27 -65q-39 20 -76 20q-78 0 -78 -92v-71h277v74q0 77 39 120t110 43q58 0 113 -29l-27 -65q-39 20 -76 20
q-78 0 -78 -92v-71h263v121h81v-121h158v-73h-158v-274q0 -92 80 -92q36 0 77 20zM990 -52q27 0 42.5 -18.5t15.5 -50.5q0 -68 -65 -131l-28 27q30 34 38 71q-23 0 -38 14t-15 35q0 23 14 38t36 15z" />
    <glyph glyph-name="f_j.liga" unicode="fj" horiz-adv-x="671" 
d="M581 508v-587q0 -76 -36 -117t-106 -41q-43 0 -91 16l19 72q33 -11 64 -11q38 0 53.5 22t15.5 71v502h-272v-435h-81v435h-111v73h111v45q0 93 51 143t142 50q109 0 201 -64l-37 -63q-80 53 -156 53q-58 0 -89 -31.5t-31 -89.5v-43h353z" />
    <glyph glyph-name="f_uni013C.liga" unicode="f&#x13c;" horiz-adv-x="672" 
d="M228 552v-44h167v-73h-167v-435h-81v435h-111v73h111v50q0 101 55.5 153.5t162.5 52.5q113 0 217 -48v-716h-81v665q-52 23 -134 23q-75 0 -107 -31.5t-32 -104.5zM538 -52q27 0 42.5 -18.5t15.5 -50.5q0 -68 -65 -131l-28 27q30 34 38 71q-23 0 -38 14t-15 35
q0 23 14 38t36 15z" />
    <glyph glyph-name="f_t.liga" unicode="ft" horiz-adv-x="774" 
d="M729 89l26 -70q-55 -26 -111 -26q-72 0 -112.5 44t-40.5 120v278h-263v-435h-81v435h-111v73h111v74q0 77 39 120t110 43q58 0 113 -29l-27 -65q-39 20 -76 20q-78 0 -78 -92v-71h263v121h81v-121h157v-73h-157v-274q0 -92 80 -92q36 0 77 20z" />
    <glyph glyph-name="f_tcaron.liga" unicode="f&#x165;" horiz-adv-x="774" 
d="M652 69q36 0 77 20l26 -70q-55 -26 -111 -26q-72 0 -112.5 44t-40.5 120v278h-263v-435h-81v435h-111v73h111v74q0 77 39 120t110 43q58 0 113 -29l-27 -65q-39 20 -76 20q-78 0 -78 -92v-71h263v121h81v-121h157v-73h-157v-274q0 -92 80 -92zM714 740h82l-52 -167h-64z
" />
    <glyph glyph-name="f_uni0163.liga" unicode="f&#x163;" horiz-adv-x="774" 
d="M664 -6l-10 -46q49 4 79.5 -20.5t30.5 -69.5q0 -46 -35 -73t-89 -27q-63 0 -110 38l29 44q34 -26 77 -26q30 0 46.5 12t16.5 33q0 30 -29.5 38.5t-64.5 -1.5l-16 15l20 85q-56 10 -87 52.5t-31 108.5v278h-263v-435h-81v435h-111v73h111v74q0 77 39 120t110 43
q58 0 113 -29l-27 -65q-39 20 -76 20q-78 0 -78 -92v-71h263v121h81v-121h157v-73h-157v-274q0 -92 80 -92q36 0 77 20l26 -70q-47 -22 -91 -25z" />
    <glyph glyph-name="f_uni021B.liga" unicode="f&#x21b;" horiz-adv-x="774" 
d="M729 89l26 -70q-55 -26 -111 -26q-72 0 -112.5 44t-40.5 120v278h-263v-435h-81v435h-111v73h111v74q0 77 39 120t110 43q58 0 113 -29l-27 -65q-39 20 -76 20q-78 0 -78 -92v-71h263v121h81v-121h157v-73h-157v-274q0 -92 80 -92q36 0 77 20zM632 -52q27 0 42.5 -18.5
t15.5 -50.5q0 -68 -65 -131l-28 27q30 34 38 71q-23 0 -38 14t-15 35q0 23 14 38t36 15z" />
    <glyph glyph-name=".notdef" horiz-adv-x="813" 
d="M714 740v-780h-614v780h614zM628 40v620h-442v-620h442zM407 589q70 0 113 -35.5t43 -96.5q0 -40 -20 -69.5t-57 -60.5q-27 -23 -36 -39.5t-9 -44.5v-18h-78v27q0 42 15.5 67.5t55.5 57.5q48 38 48 74q0 27 -21 45.5t-59 18.5q-61 0 -107 -67l-55 46q63 95 167 95z
M367 170q14 13 35 13t35.5 -13.5t14.5 -34.5t-14 -34q-15 -14 -36 -14t-35.5 13.5t-14.5 34.5t15 35z" />
    <glyph glyph-name="uni0000" horiz-adv-x="600" 
 />
    <glyph glyph-name="uni0000" horiz-adv-x="600" 
 />
    <glyph glyph-name="uni000D" horiz-adv-x="333" 
 />
    <glyph glyph-name="uni000D.1" unicode="&#xd;" horiz-adv-x="248" 
 />
    <glyph glyph-name="space" unicode=" " horiz-adv-x="248" 
 />
    <glyph glyph-name="exclam" unicode="!" horiz-adv-x="260" 
d="M88 700h84l-2 -254l-6 -284h-68l-6 284zM71 47q0 25 17.5 41.5t41.5 16.5t41.5 -16.5t17.5 -41.5t-17 -41t-42 -16t-42 16t-17 41z" />
    <glyph glyph-name="quotedbl" unicode="&#x22;" horiz-adv-x="324" 
d="M119 757l-4 -240h-64l-4 240h72zM205 757h71l-3 -240h-64z" />
    <glyph glyph-name="numbersign" unicode="#" horiz-adv-x="697" 
d="M13 163v74h133l64 235h-109v74h129l42 154h82l-41 -154h183l42 154h83l-42 -154h105v-74h-125l-64 -235h107v-74h-127l-44 -163h-83l45 163h-185l-44 -163h-82l44 163h-113zM414 235l65 239h-188l-65 -239h188z" />
    <glyph glyph-name="dollar" unicode="$" horiz-adv-x="597" 
d="M86 155q87 -74 191 -81v251q-111 34 -161 82t-50 120q0 76 57.5 125t150.5 54v88h69v-90q112 -16 195 -93l-45 -65q-63 61 -152 77v-232q112 -36 164.5 -85.5t52.5 -121.5q0 -76 -59 -127.5t-156 -61.5v-92h-69v91q-136 9 -231 94zM341 305v-230q63 7 97 34.5t34 72.5
q0 39 -31 68.5t-100 54.5zM150 530q0 -38 28.5 -65t98.5 -53v214q-59 -3 -93 -29t-34 -67z" />
    <glyph glyph-name="percent" unicode="%" horiz-adv-x="783" 
d="M436 150q0 68 44.5 112t113.5 44t112.5 -44t43.5 -112t-43 -111q-44 -44 -113 -44t-113.5 43.5t-44.5 111.5zM71 662q44 43 113 43q68 0 112 -43.5t44 -111.5t-44 -112t-112 -44q-69 0 -113.5 44t-44.5 112t45 112zM117 19l495 696l47 -33l-494 -697zM497 150
q0 -42 27 -69.5t70 -27.5q42 0 69 27.5t27 69.5q0 43 -26.5 70.5t-69.5 27.5t-70 -27.5t-27 -70.5zM87 550q0 -43 27 -70.5t70 -27.5q42 0 68.5 27.5t26.5 70.5q0 42 -26.5 69.5t-68.5 27.5q-43 0 -70 -27.5t-27 -69.5z" />
    <glyph glyph-name="ampersand" unicode="&#x26;" horiz-adv-x="678" 
d="M51 176q0 59 38.5 108t107.5 82l-11 11q-43 43 -62.5 80.5t-19.5 83.5q0 73 53 119t139 46q84 0 137.5 -44.5t53.5 -116.5q0 -115 -159 -197l165 -162q46 65 68 163l74 -19q-26 -116 -85 -199l92 -91l-57 -59l-89 88q-89 -78 -215 -78q-103 0 -166.5 51t-63.5 134z
M176 100q41 -31 109 -31q92 0 156 55l-193 191q-113 -54 -113 -132q0 -52 41 -83zM251 424l26 -25q66 36 96.5 69.5t30.5 71.5q0 41 -30 67q-31 25 -79 25t-78 -25t-30 -65q0 -54 64 -118z" />
    <glyph glyph-name="quotesingle" unicode="'" horiz-adv-x="167" 
d="M116 517h-65l-4 240h73z" />
    <glyph glyph-name="parenleft" unicode="(" horiz-adv-x="330" 
d="M40 295q0 263 203 466l51 -50q-171 -186 -171 -416t171 -416l-51 -50q-203 203 -203 466z" />
    <glyph glyph-name="parenright" unicode=")" horiz-adv-x="330" 
d="M35 -121q172 187 172 416t-172 416l52 50q202 -202 202 -466t-202 -466z" />
    <glyph glyph-name="asterisk" unicode="*" horiz-adv-x="360" 
d="M210 450h-60l3 97l-84 -52l-30 53l87 47l-87 45l30 53l84 -52l-3 99h60l-3 -98l84 51l31 -53l-88 -45l88 -47l-31 -53l-84 52z" />
    <glyph glyph-name="plus" unicode="+" horiz-adv-x="522" 
d="M223 343v172h74v-172h172v-73h-172v-177h-74v177h-170v73h170z" />
    <glyph glyph-name="comma" unicode="," horiz-adv-x="242" 
d="M77 90q17 16 42 16q29 0 46 -22.5t17 -60.5q0 -107 -84 -182l-32 31q50 57 54 119h-1q-25 0 -42 16.5t-17 41.5q0 24 17 41z" />
    <glyph glyph-name="hyphen" unicode="-" horiz-adv-x="449" 
d="M401 306v-70h-353v70h353z" />
    <glyph glyph-name="period" unicode="." horiz-adv-x="236" 
d="M59 47q0 25 17.5 41.5t41.5 16.5t41.5 -16.5t17.5 -41.5t-17 -41t-42 -16t-42 16t-17 41z" />
    <glyph glyph-name="slash" unicode="/" horiz-adv-x="450" 
d="M104 -47h-71l313 787h71z" />
    <glyph glyph-name="zero" unicode="0" horiz-adv-x="668" 
d="M129 616q74 96 205 96t205.5 -96.5t74.5 -265.5q0 -168 -75 -265t-205 -97q-131 0 -205.5 96.5t-74.5 265.5t75 266zM137 350q0 -131 53 -206.5t144 -75.5q92 0 144.5 75.5t52.5 206.5t-52.5 206.5t-144.5 75.5q-91 0 -144 -75.5t-53 -206.5z" />
    <glyph glyph-name="one" unicode="1" horiz-adv-x="401" 
d="M145 628q46 22 87 72h70v-700h-83v584q-75 -52 -187 -52v74q66 0 113 22z" />
    <glyph glyph-name="two" unicode="2" horiz-adv-x="585" 
d="M43 68l260 238q122 112 122 202q0 54 -39 89t-100 35q-100 0 -171 -108l-62 50q87 138 233 138q97 0 159.5 -56.5t62.5 -145.5q0 -69 -35 -129.5t-115 -132.5l-185 -168h356v-80h-486v68z" />
    <glyph glyph-name="three" unicode="3" horiz-adv-x="558" 
d="M34 108l57 52q72 -94 175 -94q69 0 111.5 40.5t42.5 104.5q0 82 -55.5 111.5t-113.5 29.5q-29 0 -62 -6l-26 47l204 228h-299v79h407v-67l-188 -210q92 -2 154 -62.5t62 -151.5q0 -97 -66 -159t-169 -62q-148 0 -234 120z" />
    <glyph glyph-name="four" unicode="4" horiz-adv-x="623" 
d="M31 151v77l386 472h76v-470h92v-79h-92v-151h-82v151h-380zM133 228h279v341z" />
    <glyph glyph-name="five" unicode="5" horiz-adv-x="562" 
d="M37 108l58 52q70 -94 175 -94q71 0 114 42t43 110q0 69 -47.5 110.5t-125.5 41.5q-64 0 -137 -25l-42 30l26 325h373v-79h-301l-15 -189q58 16 106 16q108 0 176.5 -64t68.5 -166t-65.5 -166t-170.5 -64q-149 0 -236 120z" />
    <glyph glyph-name="six" unicode="6" horiz-adv-x="607" 
d="M127 610q73 100 206 100q114 0 197 -76l-47 -60q-63 58 -148 58q-91 0 -144 -69t-54 -194q31 48 81 74t109 26q100 0 166.5 -69t66.5 -172q0 -106 -69 -173t-179 -67q-121 0 -189.5 87.5t-68.5 252.5q0 182 73 282zM148 228q0 -73 45 -117q45 -45 119 -45t120 44.5
t46 117.5t-46 118t-120 45t-119 -45t-45 -118z" />
    <glyph glyph-name="seven" unicode="7" horiz-adv-x="496" 
d="M26 621v79h446v-67l-271 -633h-90l266 621h-351z" />
    <glyph glyph-name="eight" unicode="8" horiz-adv-x="613" 
d="M83 299q30 45 86 71q-96 52 -96 153q0 83 65.5 136t168.5 53t168 -53t65 -136q0 -101 -96 -153q56 -26 86.5 -71.5t30.5 -103.5q0 -93 -70 -150t-184 -57q-115 0 -185 57t-70 150q0 58 31 104zM183 102q47 -37 124 -37t124.5 36.5t47.5 95.5q0 60 -47.5 96t-124.5 36
t-124.5 -36t-47.5 -96q0 -59 48 -95zM197 435q42 -32 110 -32q67 0 109 32t42 84t-41 84q-42 32 -110 32t-110 -32t-42 -84t42 -84z" />
    <glyph glyph-name="nine" unicode="9" horiz-adv-x="606" 
d="M47 469q0 107 68.5 174.5t176.5 67.5q125 0 192.5 -86.5t67.5 -253.5q0 -183 -72.5 -282.5t-206.5 -99.5q-112 0 -199 70l42 65q68 -55 156 -55q92 0 143 66.5t53 188.5q-31 -46 -80.5 -71.5t-107.5 -25.5q-100 0 -166.5 69t-66.5 173zM129 469q0 -73 46 -118
q46 -46 120 -46t119.5 45.5t45.5 118.5t-45.5 118t-119.5 45t-120 -45t-46 -118z" />
    <glyph glyph-name="colon" unicode=":" horiz-adv-x="256" 
d="M69 47q0 25 17.5 41.5t41.5 16.5t41.5 -16.5t17.5 -41.5t-17 -41t-42 -16t-42 16t-17 41zM69 337q0 25 17.5 41.5t41.5 16.5t41.5 -16.5t17.5 -41.5t-17 -41t-42 -16t-42 16t-17 41z" />
    <glyph glyph-name="semicolon" unicode=";" horiz-adv-x="259" 
d="M69 49q0 24 16.5 40.5t41.5 16.5q29 0 46 -22.5t17 -60.5q0 -109 -84 -182l-31 31q49 57 54 119h-2q-25 0 -41.5 16.5t-16.5 41.5zM68 337q0 25 17.5 41.5t41.5 16.5t41.5 -16.5t17.5 -41.5t-17 -41t-42 -16t-42 16t-17 41z" />
    <glyph glyph-name="less" unicode="&#x3c;" horiz-adv-x="497" 
d="M454 519v-82l-301 -138l301 -138v-81l-416 195v48z" />
    <glyph glyph-name="equal" unicode="=" horiz-adv-x="507" 
d="M454 428v-70h-401v70h401zM53 177v70h401v-70h-401z" />
    <glyph glyph-name="greater" unicode="&#x3e;" horiz-adv-x="497" 
d="M344 300l-301 138v81l416 -195v-48l-416 -196v82z" />
    <glyph glyph-name="question" unicode="?" horiz-adv-x="497" 
d="M245 711q98 0 157 -51t59 -133q0 -55 -28 -99t-86 -92q-36 -30 -50.5 -55t-14.5 -65v-54h-79v58q0 55 21 91t74 80q46 37 62.5 65.5t16.5 63.5q0 52 -35.5 84t-99.5 32q-102 0 -166 -104l-59 46q81 133 228 133zM183 47q0 25 17.5 41.5t41.5 16.5t41.5 -16.5t17.5 -41.5
t-17 -41t-42 -16t-42 16t-17 41z" />
    <glyph glyph-name="at" unicode="@" horiz-adv-x="1015" 
d="M183 565q129 128 324 128q203 0 329 -121t126 -306q0 -121 -51.5 -175t-117.5 -54q-49 0 -85.5 23t-53.5 62q-56 -94 -162 -94q-86 0 -142.5 58t-56.5 149t56 149t143 58q93 0 149 -74v63h75v-199q0 -125 79 -125q42 0 66.5 40.5t24.5 119.5q0 155 -104.5 254.5
t-274.5 99.5q-166 0 -272 -108.5t-106 -277.5t106 -277.5t272 -108.5q156 0 254 96l46 -59q-119 -108 -300 -108q-196 0 -324.5 127.5t-128.5 329.5t129 330zM409 138q37 -38 93 -38t91.5 38.5t35.5 97.5t-35.5 96.5t-91.5 37.5t-93 -37.5t-37 -97.5q0 -59 37 -97z" />
    <glyph glyph-name="A" unicode="A" horiz-adv-x="703" 
d="M303 700h99l281 -700h-88l-59 150h-368l-60 -150h-87zM198 226h309l-154 386z" />
    <glyph glyph-name="B" unicode="B" horiz-adv-x="659" 
d="M100 0v700h280q90 0 146.5 -52t56.5 -135q0 -99 -80 -150q48 -23 75.5 -68.5t27.5 -102.5q0 -86 -59.5 -139t-156.5 -53h-290zM183 320v-242h200q66 0 102.5 32t36.5 89q0 56 -35.5 88.5t-96.5 32.5h-207zM183 622v-228h199q53 0 86 32q32 31 32 82t-34 82.5t-90 31.5
h-193z" />
    <glyph glyph-name="C" unicode="C" horiz-adv-x="733" 
d="M150 610q95 102 246 102q180 0 291 -149l-61 -52q-39 57 -100 88.5t-130 31.5q-114 0 -185.5 -79t-71.5 -202t72 -202t188 -79q74 0 137.5 33t105.5 93l61 -50q-114 -157 -304 -157q-153 0 -249 102t-96 260q0 157 96 260z" />
    <glyph glyph-name="D" unicode="D" horiz-adv-x="746" 
d="M100 0v700h240q161 0 256.5 -95t95.5 -255t-95.5 -255t-256.5 -95h-240zM184 620v-540h151q128 0 200 71.5t72 198.5t-72 198.5t-200 71.5h-151z" />
    <glyph glyph-name="E" unicode="E" horiz-adv-x="598" 
d="M100 0v700h432v-78h-348v-228h322v-76h-322v-239h361v-79h-445z" />
    <glyph glyph-name="F" unicode="F" horiz-adv-x="550" 
d="M100 700h414v-80h-330v-241h307v-79h-307v-300h-84v700z" />
    <glyph glyph-name="G" unicode="G" horiz-adv-x="761" 
d="M151 610q97 102 252 102q161 0 270 -114l-54 -57q-39 42 -96.5 66t-119.5 24q-117 0 -190.5 -78.5t-73.5 -202.5q0 -126 73 -203.5t196 -77.5q129 0 215 69v157h-246v79h326v-272q-54 -55 -132 -84.5t-162 -29.5q-161 0 -258 100t-97 262q0 158 97 260z" />
    <glyph glyph-name="H" unicode="H" horiz-adv-x="756" 
d="M100 700h84v-302h389v302h83v-700h-83v317h-389v-317h-84v700z" />
    <glyph glyph-name="I" unicode="I" horiz-adv-x="283" 
d="M184 0h-84v700h84v-700z" />
    <glyph glyph-name="J" unicode="J" horiz-adv-x="469" 
d="M12 23l33 71q58 -26 118 -26q131 0 131 173v459h83v-466q0 -120 -55 -183t-159 -63q-71 0 -151 35z" />
    <glyph glyph-name="K" unicode="K" horiz-adv-x="643" 
d="M100 0v700h84v-307h90l241 307h105l-271 -344l281 -356h-105l-249 315h-92v-315h-84z" />
    <glyph glyph-name="L" unicode="L" horiz-adv-x="562" 
d="M184 700v-620h338v-80h-422v700h84z" />
    <glyph glyph-name="M" unicode="M" horiz-adv-x="888" 
d="M100 700h74l270 -354l270 354h74v-700h-83v558l-239 -311h-44l-238 310v-557h-84v700z" />
    <glyph glyph-name="N" unicode="N" horiz-adv-x="770" 
d="M100 0v700h75l413 -553v553h83v-700h-76l-412 552v-552h-83z" />
    <glyph glyph-name="O" unicode="O" horiz-adv-x="820" 
d="M154 611q100 101 256 101q155 0 255.5 -102t100.5 -260t-100.5 -260t-255.5 -102q-156 0 -256 101.5t-100 260.5t100 261zM215 148q76 -79 195 -79t195 78.5t76 202.5t-76 202.5t-195 78.5t-195 -79t-76 -202q0 -124 76 -202z" />
    <glyph glyph-name="P" unicode="P" horiz-adv-x="614" 
d="M100 700h247q113 0 178.5 -62.5t65.5 -169.5t-66 -169.5t-178 -62.5h-163v-236h-84v700zM342 315q78 0 121.5 40.5t43.5 112.5q0 73 -43 113t-122 40h-159v-306h159z" />
    <glyph glyph-name="Q" unicode="Q" horiz-adv-x="820" 
d="M54 350q0 159 100 260.5t256 101.5q155 0 255.5 -102t100.5 -260q0 -87 -33 -160.5t-92 -122.5l84 -121l-62 -44l-84 125q-76 -39 -169 -39q-156 0 -256 101.5t-100 260.5zM215 148q76 -79 195 -79q65 0 124 27l-123 180l59 42l123 -182q88 80 88 214q0 124 -76 202.5
t-195 78.5t-195 -79t-76 -202q0 -124 76 -202z" />
    <glyph glyph-name="R" unicode="R" horiz-adv-x="668" 
d="M374 700q105 0 170 -62t65 -158q0 -77 -43 -133.5t-117 -76.5l178 -270h-95l-170 260h-178v-260h-84v700h274zM182 621v-285h190q72 0 113 38q40 38 40 104t-40.5 104.5t-112.5 38.5h-190z" />
    <glyph glyph-name="S" unicode="S" horiz-adv-x="598" 
d="M87 155q97 -82 219 -82q78 0 122.5 29t44.5 80q0 46 -43.5 79t-143.5 62q-115 34 -167 82.5t-52 121.5q0 80 64 130t167 50q138 0 243 -96l-47 -65q-83 81 -198 81q-66 0 -105.5 -26.5t-39.5 -70.5t39.5 -74.5t140.5 -61.5q118 -35 173 -85.5t55 -124.5
q0 -84 -71.5 -137.5t-183.5 -53.5q-152 0 -261 97z" />
    <glyph glyph-name="T" unicode="T" horiz-adv-x="592" 
d="M28 620v80h536v-80h-226v-620h-84v620h-226z" />
    <glyph glyph-name="U" unicode="U" horiz-adv-x="737" 
d="M91 700h84v-425q0 -98 51 -152t142 -54t142.5 54t51.5 152v425h83v-429q0 -130 -76 -206.5t-201 -76.5q-124 0 -200.5 77t-76.5 206v429z" />
    <glyph glyph-name="V" unicode="V" horiz-adv-x="687" 
d="M21 700h90l132 -343l102 -259l101 259l131 343h89l-272 -700h-99z" />
    <glyph glyph-name="W" unicode="W" horiz-adv-x="1053" 
d="M114 700l183 -597l187 563h86l188 -563l99 321l83 276h87l-218 -700h-99l-182 541l-182 -541h-100l-220 700h88z" />
    <glyph glyph-name="X" unicode="X" horiz-adv-x="640" 
d="M269 363l-235 337h100l104 -146l84 -123l83 123l103 146h100l-234 -339l252 -361h-101l-106 149l-98 144l-99 -144l-107 -149h-101z" />
    <glyph glyph-name="Y" unicode="Y" horiz-adv-x="655" 
d="M20 700h97l211 -343l211 343h96l-265 -431v-269h-84v269z" />
    <glyph glyph-name="Z" unicode="Z" horiz-adv-x="593" 
d="M160 80h390v-80h-498v68l376 553h-365v79h473v-67z" />
    <glyph glyph-name="bracketleft" unicode="[" horiz-adv-x="352" 
d="M311 731v-69h-151v-734h151v-69h-228v872h228z" />
    <glyph glyph-name="backslash" unicode="\" horiz-adv-x="450" 
d="M104 740l313 -787h-71l-313 787h71z" />
    <glyph glyph-name="bracketright" unicode="]" horiz-adv-x="352" 
d="M192 -72v734h-150v69h227v-872h-227v69h150z" />
    <glyph glyph-name="asciicircum" unicode="^" horiz-adv-x="494" 
d="M41 438l172 285h68l172 -285h-84l-123 207l-123 -207h-82z" />
    <glyph glyph-name="underscore" unicode="_" horiz-adv-x="677" 
d="M623 -105v-60h-575v60h575z" />
    <glyph glyph-name="grave" unicode="`" horiz-adv-x="362" 
d="M197 740l65 -147h-74l-88 147h97z" />
    <glyph glyph-name="a" unicode="a" horiz-adv-x="583" 
d="M106 273q57 46 152 46q82 0 163 -30v37q0 59 -35 87t-109 28q-78 0 -167 -43l-24 67q102 51 197 51q105 0 161.5 -49t56.5 -140v-327h-78l-1 80q-30 -40 -81 -63.5t-110 -23.5q-82 0 -132 43t-50 114q0 77 57 123zM130 154q0 -42 30.5 -66t85.5 -24q77 0 126.5 43.5
t49.5 107.5v6q-89 29 -155 29q-65 0 -101 -25.5t-36 -70.5z" />
    <glyph glyph-name="b" unicode="b" horiz-adv-x="669" 
d="M172 740v-314q70 94 196 94q111 0 182 -74.5t71 -191.5t-71 -191.5t-182 -74.5q-128 0 -198 96v-84h-79v740h81zM222 117q51 -53 133 -53q81 0 133 53t52 137t-51.5 137t-133.5 53t-133.5 -53t-51.5 -137t52 -137z" />
    <glyph glyph-name="c" unicode="c" horiz-adv-x="554" 
d="M122 445q72 75 185 75q133 0 208 -95l-50 -51q-61 70 -157 70q-79 0 -128.5 -53t-49.5 -137q0 -85 49 -137.5t130 -52.5q104 0 163 78l54 -50q-33 -49 -91.5 -76.5t-127.5 -27.5q-113 0 -185.5 75t-72.5 191t73 191z" />
    <glyph glyph-name="d" unicode="d" horiz-adv-x="670" 
d="M49 254q0 117 71 191.5t181 74.5q127 0 197 -95v315h81v-740h-80v84q-70 -96 -198 -96q-110 0 -181 74.5t-71 191.5zM130 254q0 -84 51.5 -137t133.5 -53q81 0 132.5 53t51.5 137t-51.5 137t-132.5 53q-82 0 -133.5 -53t-51.5 -137z" />
    <glyph glyph-name="e" unicode="e" horiz-adv-x="598" 
d="M121 445q71 75 183 75q123 0 188.5 -80.5t65.5 -176.5q0 -24 -4 -49h-425q10 -67 60 -109.5t122 -42.5q101 0 171 75l49 -53q-81 -96 -221 -96q-117 0 -189 74t-72 192q0 116 72 191zM129 284h350q-8 72 -55.5 117t-119.5 45q-70 0 -118.5 -45t-56.5 -117z" />
    <glyph glyph-name="f" unicode="f" horiz-adv-x="410" 
d="M36 435v73h111v74q0 77 39 120t110 43q58 0 113 -29l-27 -65q-39 20 -76 20q-78 0 -78 -92v-71h172v-73h-172v-435h-81v435h-111z" />
    <glyph glyph-name="g" unicode="g" horiz-adv-x="638" 
d="M43 -167q0 71 59 109q-44 29 -44 82q0 65 71 109q-51 59 -51 148q0 101 65.5 164t171.5 63h291v-71h-128q73 -59 73 -159q0 -98 -66 -160.5t-170 -62.5q-78 0 -135 34q-43 -20 -43 -54q0 -33 43.5 -47.5t161.5 -21.5q136 -7 195 -39t59 -99q0 -73 -68.5 -114t-192.5 -41
q-139 0 -215.5 42t-76.5 118zM201 171q44 -43 114 -43t113.5 42.5t43.5 110.5t-43.5 111t-113.5 43t-114 -43t-44 -111t44 -110zM331 -253q185 0 185 77q0 34 -40 49t-138 19q-101 3 -166 20q-23 -12 -36.5 -32.5t-13.5 -39.5q0 -93 209 -93z" />
    <glyph glyph-name="h" unicode="h" horiz-adv-x="639" 
d="M91 740h81v-313q64 88 178 88q93 0 149.5 -58t56.5 -154v-303h-81v290q0 71 -36 110t-103 39q-76 0 -120 -46.5t-44 -125.5v-267h-81v740z" />
    <glyph glyph-name="i" unicode="i" horiz-adv-x="262" 
d="M91 508h81v-508h-81v508zM86 696q17 17 45 17q27 0 44.5 -17.5t17.5 -45.5t-17.5 -45.5t-44.5 -17.5q-28 0 -45.5 17.5t-17.5 45.5t18 46z" />
    <glyph glyph-name="j" unicode="j" horiz-adv-x="262" 
d="M-61 -221l18 72q36 -11 65 -11q37 0 53 21.5t16 71.5v575h81v-587q0 -77 -36.5 -117.5t-105.5 -40.5q-43 0 -91 16zM86 696q17 17 45 17q27 0 44.5 -17.5t17.5 -45.5t-17.5 -45.5t-44.5 -17.5q-28 0 -45.5 17.5t-17.5 45.5t18 46z" />
    <glyph glyph-name="k" unicode="k" horiz-adv-x="540" 
d="M91 0v740h81v-440h78l168 208h98l-199 -247l211 -261h-100l-181 226h-75v-226h-81z" />
    <glyph glyph-name="l" unicode="l" horiz-adv-x="262" 
d="M172 0h-81v740h81v-740z" />
    <glyph glyph-name="m" unicode="m" horiz-adv-x="979" 
d="M170 508v-81q63 88 167 88q118 0 164 -102q66 102 191 102q94 0 149.5 -57.5t55.5 -154.5v-303h-81v291q0 69 -35 108.5t-97 39.5q-66 0 -108 -47t-42 -121v-271h-81v291q0 69 -35 108.5t-96 39.5q-66 0 -108 -47t-42 -121v-271h-81v508h79z" />
    <glyph glyph-name="n" unicode="n" horiz-adv-x="639" 
d="M170 508v-84q67 91 180 91q94 0 150 -58.5t56 -154.5v-302h-81v288q0 72 -36 111.5t-103 39.5q-76 0 -120 -47t-44 -127v-265h-81v508h79z" />
    <glyph glyph-name="o" unicode="o" horiz-adv-x="631" 
d="M124 446q74 74 191 74q118 0 192.5 -74.5t74.5 -191.5t-74.5 -191.5t-192.5 -74.5q-117 0 -191.5 74.5t-74.5 191.5t75 192zM130 254q0 -84 52 -137t133 -53q82 0 134 53t52 137t-52 137t-134 53q-81 0 -133 -53t-52 -137z" />
    <glyph glyph-name="p" unicode="p" horiz-adv-x="669" 
d="M91 508h79v-85q73 97 198 97q110 0 181.5 -74.5t71.5 -191.5t-71.5 -191.5t-181.5 -74.5q-126 0 -196 94v-312h-81v738zM222 118q52 -54 133 -54t133 53t52 137t-52 137t-133 53t-133 -53t-52 -137q0 -83 52 -136z" />
    <glyph glyph-name="q" unicode="q" horiz-adv-x="670" 
d="M49 254q0 117 71 191.5t181 74.5q128 0 198 -97v85h80v-738h-81v313q-71 -95 -197 -95q-110 0 -181 74.5t-71 191.5zM130 254q0 -84 51.5 -137t133.5 -53q80 0 132 53.5t52 136.5q0 84 -51.5 137t-132.5 53q-82 0 -133.5 -53t-51.5 -137z" />
    <glyph glyph-name="r" unicode="r" horiz-adv-x="417" 
d="M91 0v508h79v-87q55 94 162 94q42 0 78 -14l-21 -80q-36 12 -73 12q-72 0 -108 -52.5t-36 -144.5v-236h-81z" />
    <glyph glyph-name="s" unicode="s" horiz-adv-x="480" 
d="M76 129q83 -61 171 -61q54 0 85 18.5t31 50.5q0 29 -28.5 49.5t-95.5 37.5q-95 24 -137.5 61t-42.5 94q0 63 48 100t131 37q114 0 197 -72l-40 -61q-64 58 -158 58q-46 0 -72 -16.5t-26 -45.5q0 -30 27 -48.5t97 -35.5q94 -24 137.5 -62t43.5 -94q0 -67 -54 -107
t-143 -40q-119 0 -208 73z" />
    <glyph glyph-name="t" unicode="t" horiz-adv-x="409" 
d="M126 508v121h81v-121h158v-71h-158v-276q0 -92 80 -92q36 0 77 20l26 -70q-55 -26 -111 -26q-72 0 -112.5 44t-40.5 120v280h-99v71h99z" />
    <glyph glyph-name="u" unicode="u" horiz-adv-x="639" 
d="M83 508h81v-288q0 -72 36 -111.5t103 -39.5q76 0 120.5 47t44.5 127v265h81v-508h-80v84q-67 -91 -180 -91q-94 0 -150 58.5t-56 155.5v301z" />
    <glyph glyph-name="v" unicode="v" horiz-adv-x="562" 
d="M19 508h87l175 -415l176 415h86l-216 -508h-92z" />
    <glyph glyph-name="w" unicode="w" horiz-adv-x="856" 
d="M24 508h86l137 -405l142 383h78l141 -384l139 406h85l-176 -508h-92l-136 372l-137 -372h-91z" />
    <glyph glyph-name="x" unicode="x" horiz-adv-x="512" 
d="M13 0l192 258l-182 250h96l137 -188l136 188h96l-181 -250l192 -258h-98l-145 197l-146 -197h-97z" />
    <glyph glyph-name="y" unicode="y" horiz-adv-x="561" 
d="M107 508l188 -426l161 426h86l-234 -610q-51 -133 -169 -133q-47 0 -88 18l22 70q26 -11 61 -11q37 0 59 18t41 65l21 53l-236 530h88z" />
    <glyph glyph-name="z" unicode="z" horiz-adv-x="490" 
d="M151 71h300v-71h-404v59l290 378h-279v71h382v-58z" />
    <glyph glyph-name="braceleft" unicode="{" horiz-adv-x="377" 
d="M23 331q40 0 58.5 20.5t18.5 67.5v157q0 73 37 114t109 41h104v-69h-95q-78 0 -78 -86v-171q0 -80 -57 -110q57 -30 57 -110v-171q0 -86 78 -86h95v-69h-104q-72 0 -109 41t-37 114v157q0 46 -19 67t-58 21v72z" />
    <glyph glyph-name="bar" unicode="|" horiz-adv-x="225" 
d="M150 -141h-75v881h75v-881z" />
    <glyph glyph-name="braceright" unicode="}" horiz-adv-x="377" 
d="M27 -72h95q78 0 78 86v171q0 80 57 110q-57 30 -57 110v171q0 86 -78 86h-95v69h104q72 0 109 -41t37 -114v-157q0 -47 18.5 -67.5t58.5 -20.5v-72q-39 0 -58 -21t-19 -67v-157q0 -73 -37 -114t-109 -41h-104v69z" />
    <glyph glyph-name="asciitilde" unicode="~" horiz-adv-x="588" 
d="M58 243q7 73 44.5 115t97.5 42q68 0 112 -52q34 -39 70 -39q58 0 67 91l77 -9q-7 -74 -44.5 -116t-97.5 -42q-66 0 -112 53q-34 39 -70 39q-58 0 -67 -92z" />
    <glyph glyph-name="uni00A0" unicode="&#xa0;" horiz-adv-x="248" 
 />
    <glyph glyph-name="exclamdown" unicode="&#xa1;" horiz-adv-x="260" 
d="M88 -163l2 254l6 284h68l6 -284l2 -254h-84zM71 490q0 25 17 41t42 16t42 -16t17 -41t-17.5 -41.5t-41.5 -16.5t-41.5 16.5t-17.5 41.5z" />
    <glyph glyph-name="cent" unicode="&#xa2;" horiz-adv-x="554" 
d="M49 254q0 106 61 178.5t160 85.5v89h69v-89q111 -11 176 -93l-50 -52q-50 58 -129 69v-376q84 9 136 75l54 -49q-63 -91 -187 -102v-92h-69v92q-98 13 -159.5 85.5t-61.5 178.5zM169 129q38 -51 104 -62v374q-65 -11 -104 -62t-39 -125t39 -125z" />
    <glyph glyph-name="sterling" unicode="&#xa3;" horiz-adv-x="558" 
d="M35 304v68h106q-3 7 -11 24.5t-11.5 27.5t-9 25.5t-7.5 31.5t-2 33q0 87 57 141.5t153 54.5q63 0 115.5 -26.5t83.5 -77.5l-58 -49q-49 75 -137 75q-63 0 -96 -32.5t-33 -84.5q0 -28 5.5 -49.5t19.5 -52.5t18 -41h219v-68h-201q3 -20 3 -44q0 -88 -66 -180h337v-80h-445
v62q54 64 72.5 108.5t18.5 93.5q0 22 -3 40h-128z" />
    <glyph glyph-name="currency" unicode="&#xa4;" horiz-adv-x="614" 
d="M122 138q-43 59 -43 136q0 78 42 136l-70 70l50 49l70 -70q58 42 136 42q79 0 137 -41l72 72l49 -50l-71 -71q42 -58 42 -137t-42 -138l69 -69l-49 -49l-70 70q-58 -41 -137 -41q-76 0 -136 41l-72 -72l-50 49zM192 158q45 -46 115 -46q71 0 116 45t45 117t-45 117
t-116 45q-70 0 -115 -45q-45 -46 -45 -117t45 -116z" />
    <glyph glyph-name="yen" unicode="&#xa5;" horiz-adv-x="655" 
d="M20 700h98l131 -207l79 -122l79 122l131 207h97l-235 -367h144v-70h-174v-70h174v-67h-174v-126h-84v126h-174v67h174v70h-174v70h143z" />
    <glyph glyph-name="brokenbar" unicode="&#xa6;" horiz-adv-x="221" 
d="M148 205v-346h-75v346h75zM148 740v-343h-75v343h75z" />
    <glyph glyph-name="section" unicode="&#xa7;" horiz-adv-x="519" 
d="M52 -15l37 61q84 -62 172 -62q54 0 87 21t33 57q0 33 -30.5 55.5t-97.5 39.5q-194 49 -194 168q0 79 83 124q-68 44 -68 117q0 64 50 105t130 41q112 0 199 -72l-39 -59q-72 59 -157 59q-48 0 -76 -20t-28 -54t29.5 -56.5t93.5 -38.5q99 -25 144.5 -64.5t45.5 -100.5
q0 -82 -86 -123q79 -46 79 -121q0 -67 -54.5 -108.5t-141.5 -41.5q-115 0 -211 73zM169 267q33 -25 107 -44l32 -9q82 31 82 89q0 35 -32 59t-105 42q-27 7 -42 13q-75 -29 -75 -89q0 -37 33 -61z" />
    <glyph glyph-name="dieresis" unicode="&#xa8;" horiz-adv-x="484" 
d="M292 684q15 15 38 15t38.5 -15.5t15.5 -39.5t-15 -39q-16 -16 -39 -16t-38.5 15.5t-15.5 39.5t16 40zM115 684q15 15 39 15q23 0 38 -15.5t15 -39.5t-15 -39.5t-38 -15.5q-24 0 -39 15.5t-15 39.5t15 40z" />
    <glyph glyph-name="copyright" unicode="&#xa9;" horiz-adv-x="813" 
d="M154 608q100 101 253 101t253 -102t100 -257t-100 -257t-253 -102t-253 101.5t-100 257.5t100 258zM121 350q0 -128 80.5 -211t205.5 -83q124 0 205 83t81 211t-81 211t-205 83q-125 0 -205.5 -83t-80.5 -211zM216 349q0 86 54.5 142t138.5 56q101 0 159 -81l-45 -37
q-43 60 -114 60q-59 0 -95.5 -39.5t-36.5 -101.5q0 -61 36.5 -100t95.5 -39q76 0 118 60l46 -35q-60 -84 -164 -84q-85 0 -139 56t-54 143z" />
    <glyph glyph-name="ordfeminine" unicode="&#xaa;" horiz-adv-x="349" 
d="M57 551q38 30 101 30q45 0 95 -17v11q0 73 -86 73q-54 0 -107 -25l-16 54q62 29 125 29q71 0 109 -34t38 -97v-205h-61v43q-46 -49 -121 -49q-52 0 -83.5 29.5t-31.5 78.5q0 48 38 79zM84 472q0 -25 18 -39.5t50 -14.5q42 0 71 27.5t30 66.5q-47 16 -86 16
q-40 0 -61.5 -15.5t-21.5 -40.5z" />
    <glyph glyph-name="guillemotleft" unicode="&#xab;" horiz-adv-x="637" 
d="M268 535l55 -48l-172 -206l172 -209l-55 -47l-214 256zM513 535l56 -48l-172 -205l172 -210l-56 -47l-213 256z" />
    <glyph glyph-name="logicalnot" unicode="&#xac;" horiz-adv-x="509" 
d="M53 300v73h387v-217h-74v144h-313z" />
    <glyph glyph-name="uni00AD" unicode="&#xad;" horiz-adv-x="449" 
d="M401 306v-70h-353v70h353z" />
    <glyph glyph-name="registered" unicode="&#xae;" horiz-adv-x="545" 
d="M43 475q0 97 65 161t164 64q101 0 165.5 -63t64.5 -162q0 -100 -64.5 -163t-165.5 -63q-99 0 -164 64t-65 162zM101 475q0 -74 49 -123q48 -49 122 -49t123 49t49 123q0 75 -48 123t-124 48q-75 0 -123 -47.5t-48 -123.5zM198 576h81q33 0 54.5 -20t21.5 -51
q0 -44 -40 -62l48 -71h-51l-41 64h-30v-64h-43v204zM240 475h36q16 0 25.5 8.5t9.5 22.5q0 13 -9.5 21t-25.5 8h-36v-60z" />
    <glyph glyph-name="macron" unicode="&#xaf;" horiz-adv-x="475" 
d="M375 612h-275v61h275v-61z" />
    <glyph glyph-name="degree" unicode="&#xb0;" horiz-adv-x="374" 
d="M80 679q43 42 107 42t106.5 -42.5t42.5 -106.5t-42 -106q-43 -43 -107 -43t-107 42.5t-43 106.5t43 107zM93 572q0 -41 26.5 -67.5t67.5 -26.5q40 0 66.5 26.5t26.5 67.5t-26.5 67.5t-66.5 26.5q-41 0 -67.5 -26.5t-26.5 -67.5z" />
    <glyph glyph-name="plusminus" unicode="&#xb1;" horiz-adv-x="522" 
d="M224 466v139h74v-139h171v-73h-171v-137h-74v137h-171v73h171zM53 148h416v-70h-416v70z" />
    <glyph glyph-name="twosuperior" unicode="&#xb2;" horiz-adv-x="275" 
d="M129 816q49 0 79 -27.5t30 -73.5q0 -29 -11.5 -51t-49.5 -67l-61 -68h137v-57h-231v41l108 123q45 50 45 77q0 21 -13.5 33.5t-37.5 12.5q-44 0 -75 -40l-37 40q51 57 117 57z" />
    <glyph glyph-name="threesuperior" unicode="&#xb3;" horiz-adv-x="278" 
d="M20 511l33 48q34 -34 78 -34q28 0 44.5 15t16.5 40q0 33 -20 44t-42 11q-15 0 -33 -4l-15 29l69 93h-113v57h198v-33l-79 -97q44 -5 70 -32.5t26 -70.5q0 -50 -32.5 -80.5t-84.5 -30.5q-71 0 -116 45z" />
    <glyph glyph-name="acute" unicode="&#xb4;" horiz-adv-x="362" 
d="M174 593h-74l65 147h97z" />
    <glyph glyph-name="uni00B5" unicode="&#xb5;" horiz-adv-x="647" 
d="M91 -230v738h81v-271q0 -82 38.5 -125t110.5 -43q70 0 112 46t42 122v271h81v-508h-79v78q-56 -82 -158 -82q-97 0 -150 65v-291h-78z" />
    <glyph glyph-name="paragraph" unicode="&#xb6;" horiz-adv-x="657" 
d="M94 643q63 57 157 57h371v-69h-84v-741h-74v741h-130v-741h-75v397h-8q-92 0 -156.5 58.5t-64.5 147.5q0 93 64 150z" />
    <glyph glyph-name="periodcentered" unicode="&#xb7;" horiz-adv-x="236" 
d="M59 282q0 25 17.5 41.5t41.5 16.5t41.5 -16.5t17.5 -41.5t-17 -41t-42 -16t-42 16t-17 41z" />
    <glyph glyph-name="cedilla" unicode="&#xb8;" horiz-adv-x="434" 
d="M100 -204l29 44q34 -26 77 -26q30 0 46.5 12t16.5 33q0 30 -21.5 36t-36.5 6q-17 0 -36 -5l-16 15l25 108l55 -2l-15 -69q7 1 13 1q40 0 68.5 -23t28.5 -68q0 -46 -35 -73t-89 -27q-63 0 -110 38z" />
    <glyph glyph-name="onesuperior" unicode="&#xb9;" horiz-adv-x="210" 
d="M112 810h53v-338h-60v261q-36 -21 -90 -21v51q64 0 97 47z" />
    <glyph glyph-name="ordmasculine" unicode="&#xba;" horiz-adv-x="386" 
d="M20 535q0 74 48.5 122.5t124.5 48.5t124.5 -48t48.5 -123t-48 -123q-49 -48 -125 -48t-124.5 48.5t-48.5 122.5zM86 535q0 -48 30 -78q30 -31 77 -31t76.5 30.5t29.5 78.5t-29.5 78.5t-76.5 30.5t-77 -30.5t-30 -78.5z" />
    <glyph glyph-name="guillemotright" unicode="&#xbb;" horiz-adv-x="637" 
d="M68 487l55 48l213 -254l-213 -256l-55 47l172 209zM314 487l55 48l213 -254l-213 -256l-55 47l171 210z" />
    <glyph glyph-name="onequarter" unicode="&#xbc;" horiz-adv-x="734" 
d="M536 742l55 -38l-494 -738l-55 37zM437 121l173 217h57v-212h42v-55h-42v-71h-59v71h-171v50zM15 602v51q64 0 97 47h53v-338h-60v261q-36 -21 -90 -21zM509 125h100v124z" />
    <glyph glyph-name="onehalf" unicode="&#xbd;" horiz-adv-x="698" 
d="M42 3l494 739l55 -38l-494 -738zM435 287q51 57 117 57q49 0 79 -27.5t30 -73.5q0 -29 -11.5 -51t-49.5 -67l-61 -68h137v-57h-231v41l108 123q45 50 45 77q0 21 -13.5 33.5t-37.5 12.5q-44 0 -75 -40zM112 700h53v-338h-60v261q-36 -21 -90 -21v51q64 0 97 47z" />
    <glyph glyph-name="threequarters" unicode="&#xbe;" horiz-adv-x="802" 
d="M110 3l494 739l55 -38l-494 -738zM505 121l173 217h57v-212h42v-55h-42v-71h-59v71h-171v50zM20 401l33 48q34 -34 78 -34q28 0 44.5 15t16.5 40q0 33 -20 44t-42 11q-15 0 -33 -4l-15 29l69 93h-113v57h198v-33l-79 -97q44 -5 70 -32.5t26 -70.5q0 -50 -32.5 -80.5
t-84.5 -30.5q-71 0 -116 45zM677 125v124l-100 -124h100z" />
    <glyph glyph-name="questiondown" unicode="&#xbf;" horiz-adv-x="497" 
d="M64 109q28 44 86 92q37 30 51 55t14 65v54h79v-58q0 -55 -21 -91.5t-74 -79.5q-46 -37 -62.5 -65.5t-16.5 -63.5q0 -52 35.5 -84t99.5 -32q101 0 167 104l59 -46q-83 -133 -229 -133q-98 0 -157 51t-59 133q0 55 28 99zM213 531q17 16 42 16t42 -16t17 -41t-17.5 -41.5
t-41.5 -16.5t-41.5 16.5t-17.5 41.5t17 41z" />
    <glyph glyph-name="Agrave" unicode="&#xc0;" horiz-adv-x="703" 
d="M303 700h99l281 -700h-88l-59 150h-368l-60 -150h-87zM198 226h309l-154 386zM230 899h97l65 -127h-73z" />
    <glyph glyph-name="Aacute" unicode="&#xc1;" horiz-adv-x="703" 
d="M303 700h99l281 -700h-88l-59 150h-368l-60 -150h-87zM198 226h309l-154 386zM379 899h97l-89 -127h-73z" />
    <glyph glyph-name="Acircumflex" unicode="&#xc2;" horiz-adv-x="703" 
d="M21 0l282 700h99l281 -700h-88l-59 150h-368l-60 -150h-87zM507 226l-154 386l-155 -386h309zM321 899h63l126 -127h-86l-71 74l-71 -74h-86z" />
    <glyph glyph-name="Atilde" unicode="&#xc3;" horiz-adv-x="703" 
d="M303 700h99l281 -700h-88l-59 150h-368l-60 -150h-87zM198 226h309l-154 386zM195 802q34 78 94 78q29 0 67 -24t56 -24q30 0 51 44l48 -28q-33 -78 -94 -78q-29 0 -67 24t-56 24q-30 0 -51 -44z" />
    <glyph glyph-name="Adieresis" unicode="&#xc4;" horiz-adv-x="703" 
d="M21 0l282 700h99l281 -700h-88l-59 150h-368l-60 -150h-87zM507 226l-154 386l-155 -386h309zM224 864q15 16 39 16t39.5 -16t15.5 -41q0 -24 -15 -40q-16 -16 -40 -16t-39 16t-15 40q0 25 15 41zM388 823q0 25 15.5 41t39.5 16t39 -16t15 -41q0 -24 -15 -40t-39 -16
t-39.5 16t-15.5 40z" />
    <glyph glyph-name="Aring" unicode="&#xc5;" horiz-adv-x="703" 
d="M303 700h99l281 -700h-88l-59 150h-368l-60 -150h-87zM198 226h309l-154 386zM269 939q34 33 84 33t84.5 -33t34.5 -82q0 -48 -34 -81q-35 -33 -85 -33t-84.5 33t-34.5 81q0 49 35 82zM311 815q17 -17 42 -17q26 0 43 16.5t17 42.5t-17 43t-43 17t-42.5 -17t-16.5 -43
q0 -25 17 -42z" />
    <glyph glyph-name="AE" unicode="&#xc6;" horiz-adv-x="941" 
d="M434 700h442v-78h-319v-224h293v-76h-293v-244h331v-78h-412v159h-273l-94 -159h-94zM246 233h230v384z" />
    <glyph glyph-name="Ccedilla" unicode="&#xc7;" horiz-adv-x="733" 
d="M150 610q95 102 246 102q180 0 291 -149l-61 -52q-39 57 -100 88.5t-130 31.5q-114 0 -185.5 -79t-71.5 -202t72 -202t188 -79q74 0 137.5 33t105.5 93l61 -50q-107 -145 -277 -156l-9 -41q7 1 13 1q40 0 69.5 -23.5t29.5 -67.5q0 -46 -35.5 -73t-90.5 -27q-63 0 -112 38
l29 45q34 -26 79 -26q30 0 47 12t17 33q0 41 -52 41q-19 0 -44 -5l-16 15l18 78q-141 10 -228 110.5t-87 250.5q0 157 96 260z" />
    <glyph glyph-name="Egrave" unicode="&#xc8;" horiz-adv-x="598" 
d="M100 700h432v-78h-348v-228h322v-76h-322v-239h361v-79h-445v700zM203 899h97l65 -127h-73z" />
    <glyph glyph-name="Eacute" unicode="&#xc9;" horiz-adv-x="598" 
d="M100 700h432v-78h-348v-228h322v-76h-322v-239h361v-79h-445v700zM286 772l65 127h97l-89 -127h-73z" />
    <glyph glyph-name="Ecircumflex" unicode="&#xca;" horiz-adv-x="598" 
d="M100 0v700h432v-78h-348v-228h322v-76h-322v-239h361v-79h-445zM169 772l125 127h63l126 -127h-86l-71 74l-71 -74h-86z" />
    <glyph glyph-name="Edieresis" unicode="&#xcb;" horiz-adv-x="598" 
d="M532 700v-78h-348v-228h322v-76h-322v-239h361v-79h-445v700h432zM197 864q15 16 39 16t39.5 -16t15.5 -41q0 -24 -15 -40q-16 -16 -40 -16t-39 16t-15 40q0 25 15 41zM361 823q0 25 15.5 41t39.5 16t39 -16t15 -41q0 -24 -15 -40t-39 -16t-39.5 16t-15.5 40z" />
    <glyph glyph-name="Igrave" unicode="&#xcc;" horiz-adv-x="283" 
d="M116 899l65 -127h-73l-89 127h97zM184 0h-84v700h84v-700z" />
    <glyph glyph-name="Iacute" unicode="&#xcd;" horiz-adv-x="283" 
d="M176 772h-73l65 127h97zM184 0h-84v700h84v-700z" />
    <glyph glyph-name="Icircumflex" unicode="&#xce;" horiz-adv-x="283" 
d="M184 700v-700h-84v700h84zM-15 772l125 127h63l126 -127h-86l-71 74l-71 -74h-86z" />
    <glyph glyph-name="Idieresis" unicode="&#xcf;" horiz-adv-x="283" 
d="M100 700h84v-700h-84v700zM176 823q0 25 15.5 41t39.5 16t39 -16t15 -41q0 -24 -15 -40t-39 -16t-39.5 16t-15.5 40zM-3 823q0 25 15 41t39 16t39.5 -16t15.5 -41q0 -24 -15 -40q-16 -16 -40 -16t-39 16t-15 40z" />
    <glyph glyph-name="Eth" unicode="&#xd0;" horiz-adv-x="769" 
d="M15 392h109v308h240q161 0 256.5 -95t95.5 -255t-95.5 -255t-256.5 -95h-240v322h-109v70zM207 80h152q128 0 200 71.5t72 198.5t-72 198.5t-200 71.5h-152v-229h171v-67h-171v-244z" />
    <glyph glyph-name="Ntilde" unicode="&#xd1;" horiz-adv-x="770" 
d="M175 700l413 -553v553h83v-700h-76l-412 552v-552h-83v700h75zM325 880q29 0 67 -24t56 -24q30 0 51 44l48 -28q-33 -78 -94 -78q-29 0 -67 24t-56 24q-30 0 -51 -44l-48 28q34 78 94 78z" />
    <glyph glyph-name="Ograve" unicode="&#xd2;" horiz-adv-x="820" 
d="M154 611q100 101 256 101q155 0 255.5 -102t100.5 -260t-100.5 -260t-255.5 -102q-156 0 -256 101.5t-100 260.5t100 261zM139 350q0 -124 76 -202q76 -79 195 -79t195 78.5t76 202.5t-76 202.5t-195 78.5t-195 -79t-76 -202zM287 899h97l65 -127h-73z" />
    <glyph glyph-name="Oacute" unicode="&#xd3;" horiz-adv-x="820" 
d="M154 611q100 101 256 101q155 0 255.5 -102t100.5 -260t-100.5 -260t-255.5 -102q-156 0 -256 101.5t-100 260.5t100 261zM139 350q0 -124 76 -202q76 -79 195 -79t195 78.5t76 202.5t-76 202.5t-195 78.5t-195 -79t-76 -202zM371 772l65 127h97l-89 -127h-73z" />
    <glyph glyph-name="Ocircumflex" unicode="&#xd4;" horiz-adv-x="820" 
d="M154 611q100 101 256 101q155 0 255.5 -102t100.5 -260t-100.5 -260t-255.5 -102q-156 0 -256 101.5t-100 260.5t100 261zM215 148q76 -79 195 -79t195 78.5t76 202.5t-76 202.5t-195 78.5t-195 -79t-76 -202q0 -124 76 -202zM253 772l125 127h63l126 -127h-86l-71 74
l-71 -74h-86z" />
    <glyph glyph-name="Otilde" unicode="&#xd5;" horiz-adv-x="820" 
d="M154 611q100 101 256 101q155 0 255.5 -102t100.5 -260t-100.5 -260t-255.5 -102q-156 0 -256 101.5t-100 260.5t100 261zM215 148q76 -79 195 -79t195 78.5t76 202.5t-76 202.5t-195 78.5t-195 -79t-76 -202q0 -124 76 -202zM346 880q30 0 68 -24t55 -24q30 0 51 44
l48 -28q-33 -78 -94 -78q-30 0 -68 24t-55 24q-30 0 -51 -44l-48 28q34 78 94 78z" />
    <glyph glyph-name="Odieresis" unicode="&#xd6;" horiz-adv-x="820" 
d="M54 350q0 159 100 260.5t256 101.5q155 0 255.5 -102t100.5 -260t-100.5 -260t-255.5 -102q-156 0 -256 101.5t-100 260.5zM215 148q76 -79 195 -79t195 78.5t76 202.5t-76 202.5t-195 78.5t-195 -79t-76 -202q0 -124 76 -202zM281 864q15 16 39 16t39.5 -16t15.5 -41
q0 -24 -15 -40q-16 -16 -40 -16t-39 16t-15 40q0 25 15 41zM461 864q15 16 39 16t39 -16t15 -41q0 -24 -15 -40t-39 -16t-39.5 16t-15.5 40q0 25 16 41z" />
    <glyph glyph-name="multiply" unicode="&#xd7;" horiz-adv-x="453" 
d="M351 482l51 -50l-125 -125l125 -125l-51 -51l-125 125l-124 -125l-51 51l125 125l-125 124l51 51l125 -124z" />
    <glyph glyph-name="Oslash" unicode="&#xd8;" horiz-adv-x="820" 
d="M54 350q0 159 100 260.5t256 101.5q79 0 150 -30l64 110l62 -36l-63 -109q68 -49 105.5 -125.5t37.5 -171.5q0 -158 -100.5 -260t-255.5 -102q-80 0 -151 30l-63 -109l-62 35l63 109q-68 49 -105.5 125.5t-37.5 171.5zM410 69q119 0 195 78.5t76 202.5q0 147 -103 226
l-278 -486q50 -21 110 -21zM241 124l279 486q-50 21 -110 21q-119 0 -195 -79t-76 -202q0 -146 102 -226z" />
    <glyph glyph-name="Ugrave" unicode="&#xd9;" horiz-adv-x="737" 
d="M91 271v429h84v-425q0 -98 51 -152t142 -54t142.5 54t51.5 152v425h83v-429q0 -130 -76 -206.5t-201 -76.5q-124 0 -200.5 77t-76.5 206zM342 899l65 -127h-73l-89 127h97z" />
    <glyph glyph-name="Uacute" unicode="&#xda;" horiz-adv-x="737" 
d="M91 271v429h84v-425q0 -98 51 -152t142 -54t142.5 54t51.5 152v425h83v-429q0 -130 -76 -206.5t-201 -76.5q-124 0 -200.5 77t-76.5 206zM329 772l65 127h97l-89 -127h-73z" />
    <glyph glyph-name="Ucircumflex" unicode="&#xdb;" horiz-adv-x="737" 
d="M175 700v-425q0 -98 51 -152t142 -54t142.5 54t51.5 152v425h83v-429q0 -130 -76 -206.5t-201 -76.5q-124 0 -200.5 77t-76.5 206v429h84zM336 899h63l126 -127h-86l-71 74l-71 -74h-86z" />
    <glyph glyph-name="Udieresis" unicode="&#xdc;" horiz-adv-x="737" 
d="M91 271v429h84v-425q0 -98 51 -152t142 -54t142.5 54t51.5 152v425h83v-429q0 -130 -76 -206.5t-201 -76.5q-124 0 -200.5 77t-76.5 206zM403 823q0 25 15.5 41t39.5 16t39 -16t15 -41q0 -24 -15 -40t-39 -16t-39.5 16t-15.5 40zM224 823q0 25 15 41t39 16t39.5 -16
t15.5 -41q0 -24 -15 -40q-16 -16 -40 -16t-39 16t-15 40z" />
    <glyph glyph-name="Yacute" unicode="&#xdd;" horiz-adv-x="655" 
d="M20 700h97l211 -343l211 343h96l-265 -431v-269h-84v269zM355 899h97l-89 -127h-73z" />
    <glyph glyph-name="Thorn" unicode="&#xde;" horiz-adv-x="614" 
d="M100 700h84v-114h163q115 0 179.5 -63.5t64.5 -168.5t-64.5 -168.5t-179.5 -63.5h-163v-122h-84v700zM183 201h159q79 0 122 40.5t43 112.5t-43 112.5t-122 40.5h-159v-306z" />
    <glyph glyph-name="germandbls" unicode="&#xdf;" horiz-adv-x="656" 
d="M411 -9q-90 0 -147 46l35 62q49 -32 109 -32q52 0 84.5 27t32.5 69q0 33 -18 58.5t-65 60.5t-64.5 59.5t-17.5 54.5q0 43 40 93q38 49 38 90q0 44 -33 71t-86 27q-70 0 -110 -44.5t-40 -123.5v-509h-78v509q0 110 62 176.5t166 66.5q89 0 144.5 -45.5t55.5 -119.5
q0 -61 -49 -126q-29 -39 -29 -59q0 -17 13 -32.5t48 -41.5q56 -40 80 -78.5t24 -86.5q0 -77 -54 -124.5t-141 -47.5z" />
    <glyph glyph-name="agrave" unicode="&#xe0;" horiz-adv-x="583" 
d="M49 150q0 77 57 123t152 46q82 0 163 -30v37q0 59 -35 87t-109 28q-78 0 -167 -43l-24 67q102 51 197 51q105 0 161.5 -49t56.5 -140v-327h-78l-1 80q-30 -40 -81 -63.5t-110 -23.5q-82 0 -132 43t-50 114zM130 154q0 -42 30.5 -66t85.5 -24q77 0 126.5 43.5t49.5 107.5
v6q-89 29 -155 29q-65 0 -101 -25.5t-36 -70.5zM262 740l65 -147h-74l-88 147h97z" />
    <glyph glyph-name="aacute" unicode="&#xe1;" horiz-adv-x="583" 
d="M49 150q0 77 57 123t152 46q82 0 163 -30v37q0 59 -35 87t-109 28q-78 0 -167 -43l-24 67q102 51 197 51q105 0 161.5 -49t56.5 -140v-327h-78l-1 80q-30 -40 -81 -63.5t-110 -23.5q-82 0 -132 43t-50 114zM130 154q0 -42 30.5 -66t85.5 -24q77 0 126.5 43.5t49.5 107.5
v6q-89 29 -155 29q-65 0 -101 -25.5t-36 -70.5zM238 593l65 147h97l-88 -147h-74z" />
    <glyph glyph-name="acircumflex" unicode="&#xe2;" horiz-adv-x="583" 
d="M49 150q0 77 57 123t152 46q82 0 163 -30v37q0 59 -35 87t-109 28q-78 0 -167 -43l-24 67q102 51 197 51q105 0 161.5 -49t56.5 -140v-327h-78l-1 80q-30 -40 -81 -63.5t-110 -23.5q-82 0 -132 43t-50 114zM161 88q30 -24 85 -24q77 0 126.5 43.5t49.5 107.5v6
q-89 29 -155 29q-65 0 -101 -25.5t-36 -70.5q0 -42 31 -66zM251 740h63l126 -147h-86l-71 89l-71 -89h-86z" />
    <glyph glyph-name="atilde" unicode="&#xe3;" horiz-adv-x="583" 
d="M106 273q57 46 152 46q82 0 163 -30v37q0 59 -35 87t-109 28q-78 0 -167 -43l-24 67q102 51 197 51q105 0 161.5 -49t56.5 -140v-327h-78l-1 80q-30 -40 -81 -63.5t-110 -23.5q-82 0 -132 43t-50 114q0 77 57 123zM161 88q30 -24 85 -24q77 0 126.5 43.5t49.5 107.5v6
q-89 29 -155 29q-65 0 -101 -25.5t-36 -70.5q0 -42 31 -66zM127 625q33 78 93 78q26 0 70 -28q34 -20 50 -20q28 0 49 43l48 -27q-33 -78 -93 -78q-25 0 -70 27q-33 21 -50 21q-28 0 -49 -44z" />
    <glyph glyph-name="adieresis" unicode="&#xe4;" horiz-adv-x="583" 
d="M49 150q0 77 57 123t152 46q82 0 163 -30v37q0 59 -35 87t-109 28q-78 0 -167 -43l-24 67q102 51 197 51q105 0 161.5 -49t56.5 -140v-327h-78l-1 80q-30 -40 -81 -63.5t-110 -23.5q-82 0 -132 43t-50 114zM161 88q30 -24 85 -24q77 0 126.5 43.5t49.5 107.5v6
q-89 29 -155 29q-65 0 -101 -25.5t-36 -70.5q0 -42 31 -66zM332 684q15 15 38 15t38.5 -15.5t15.5 -39.5t-15 -39q-16 -16 -39 -16t-38.5 15.5t-15.5 39.5t16 40zM140 644q0 24 15 39.5t39 15.5q23 0 38 -15.5t15 -39.5t-15 -39.5t-38 -15.5q-24 0 -39 15.5t-15 39.5z" />
    <glyph glyph-name="aring" unicode="&#xe5;" horiz-adv-x="583" 
d="M49 150q0 77 57 123t152 46q82 0 163 -30v37q0 59 -35 87t-109 28q-78 0 -167 -43l-24 67q102 51 197 51q105 0 161.5 -49t56.5 -140v-327h-78l-1 80q-30 -40 -81 -63.5t-110 -23.5q-82 0 -132 43t-50 114zM130 154q0 -42 30.5 -66t85.5 -24q77 0 126.5 43.5t49.5 107.5
v6q-89 29 -155 29q-65 0 -101 -25.5t-36 -70.5zM198 766q34 33 84 33t84.5 -33t34.5 -81q0 -49 -34 -82q-35 -33 -85 -33t-84.5 33t-34.5 82q0 48 35 81zM240 642q16 -17 42 -17t43 17t17 43q0 25 -17 42t-43 17t-42.5 -17t-16.5 -42q0 -26 17 -43z" />
    <glyph glyph-name="ae" unicode="&#xe6;" horiz-adv-x="955" 
d="M106 273q57 46 152 46q78 0 160 -32v39q0 63 -35.5 91t-106.5 28q-80 0 -166 -47l-24 67q100 55 191 55q148 0 195 -99q69 99 196 99q120 0 183.5 -81t63.5 -175q0 -24 -4 -50h-414q11 -68 59 -110t117 -42q99 0 166 75l49 -53q-76 -96 -213 -96q-70 0 -125.5 30.5
t-88.5 85.5q-32 -56 -92 -86t-134 -30q-84 0 -135 44.5t-51 116.5q0 77 57 124zM130 151q0 -42 30 -65.5t84 -23.5q75 0 125.5 43t50.5 108v6q-83 31 -153 31q-64 0 -100.5 -26.5t-36.5 -72.5zM836 284q-8 72 -54 117t-116 45q-68 0 -115 -45t-55 -117h340z" />
    <glyph glyph-name="ccedilla" unicode="&#xe7;" horiz-adv-x="554" 
d="M122 445q72 75 185 75q133 0 208 -95l-50 -51q-61 70 -157 70q-79 0 -128.5 -53t-49.5 -137q0 -85 49 -137.5t130 -52.5q104 0 163 78l54 -50q-63 -92 -193 -103l-9 -41q7 1 13 1q40 0 68.5 -23t28.5 -68q0 -46 -35 -73t-89 -27q-63 0 -110 38l29 44q34 -26 77 -26
q30 0 46.5 12t16.5 33q0 30 -21.5 36t-36.5 6q-17 0 -36 -5l-16 15l18 79q-101 10 -164.5 83t-63.5 181q0 116 73 191z" />
    <glyph glyph-name="egrave" unicode="&#xe8;" horiz-adv-x="598" 
d="M121 445q71 75 183 75q123 0 188.5 -80.5t65.5 -176.5q0 -24 -4 -49h-425q10 -67 60 -109.5t122 -42.5q101 0 171 75l49 -53q-81 -96 -221 -96q-117 0 -189 74t-72 192q0 116 72 191zM129 284h350q-8 72 -55.5 117t-119.5 45q-70 0 -118.5 -45t-56.5 -117zM284 740
l65 -147h-74l-88 147h97z" />
    <glyph glyph-name="eacute" unicode="&#xe9;" horiz-adv-x="598" 
d="M121 445q71 75 183 75q123 0 188.5 -80.5t65.5 -176.5q0 -24 -4 -49h-425q10 -67 60 -109.5t122 -42.5q101 0 171 75l49 -53q-81 -96 -221 -96q-117 0 -189 74t-72 192q0 116 72 191zM129 284h350q-8 72 -55.5 117t-119.5 45q-70 0 -118.5 -45t-56.5 -117zM326 740h97
l-88 -147h-74z" />
    <glyph glyph-name="ecircumflex" unicode="&#xea;" horiz-adv-x="598" 
d="M121 445q71 75 183 75q123 0 188.5 -80.5t65.5 -176.5q0 -24 -4 -49h-425q10 -67 60 -109.5t122 -42.5q101 0 171 75l49 -53q-81 -96 -221 -96q-117 0 -189 74t-72 192q0 116 72 191zM129 284h350q-8 72 -55.5 117t-119.5 45q-70 0 -118.5 -45t-56.5 -117zM273 740h63
l126 -147h-86l-71 89l-71 -89h-86z" />
    <glyph glyph-name="edieresis" unicode="&#xeb;" horiz-adv-x="598" 
d="M121 445q71 75 183 75q123 0 188.5 -80.5t65.5 -176.5q0 -24 -4 -49h-425q10 -67 60 -109.5t122 -42.5q101 0 171 75l49 -53q-81 -96 -221 -96q-117 0 -189 74t-72 192q0 116 72 191zM129 284h350q-8 72 -55.5 117t-119.5 45q-70 0 -118.5 -45t-56.5 -117zM339 644
q0 24 15.5 39.5t38.5 15.5t38.5 -15.5t15.5 -39.5t-15 -39q-16 -16 -39 -16t-38.5 15.5t-15.5 39.5zM178 684q15 15 39 15q23 0 38 -15.5t15 -39.5t-15 -39.5t-38 -15.5q-24 0 -39 15.5t-15 39.5t15 40z" />
    <glyph glyph-name="igrave" unicode="&#xec;" horiz-adv-x="262" 
d="M119 740l57 -147h-74l-80 147h97zM172 0h-81v508h81v-508z" />
    <glyph glyph-name="iacute" unicode="&#xed;" horiz-adv-x="262" 
d="M160 593h-74l57 147h97zM172 0h-81v508h81v-508z" />
    <glyph glyph-name="icircumflex" unicode="&#xee;" horiz-adv-x="262" 
d="M172 508v-508h-81v508h81zM-7 593l106 147h63l107 -147h-82l-56 86l-56 -86h-82z" />
    <glyph glyph-name="idieresis" unicode="&#xef;" horiz-adv-x="262" 
d="M91 508h81v-508h-81v508zM177 684q15 15 38 15q24 0 38.5 -15.5t14.5 -39.5t-14.5 -39.5t-38.5 -15.5q-23 0 -38 15.5t-15 39.5t15 40zM-6 644q0 24 15 39.5t38 15.5t38 -15.5t15 -39.5t-15 -39q-15 -16 -38 -16t-38 15.5t-15 39.5z" />
    <glyph glyph-name="eth" unicode="&#xf0;" horiz-adv-x="631" 
d="M437 729l-81 -57q107 -86 166.5 -193.5t59.5 -217.5q0 -121 -74 -197t-193 -76q-117 0 -191.5 73.5t-74.5 188.5q0 114 71 187.5t181 73.5q86 0 147 -46q-62 93 -156 163l-116 -82l-35 50l97 68q-45 28 -89 48l38 66q61 -29 117 -68l98 69zM315 64q83 0 134.5 52
t51.5 134t-52 133.5t-134 51.5t-133.5 -51.5t-51.5 -133.5t51.5 -134t133.5 -52z" />
    <glyph glyph-name="ntilde" unicode="&#xf1;" horiz-adv-x="639" 
d="M170 508v-84q67 91 180 91q94 0 150 -58.5t56 -154.5v-302h-81v288q0 72 -36 111.5t-103 39.5q-76 0 -120 -47t-44 -127v-265h-81v508h79zM172 625q33 78 93 78q26 0 70 -28q34 -20 50 -20q27 0 49 43l48 -27q-33 -78 -93 -78q-25 0 -70 27q-33 21 -50 21q-28 0 -49 -44z
" />
    <glyph glyph-name="ograve" unicode="&#xf2;" horiz-adv-x="631" 
d="M124 446q74 74 191 74q118 0 192.5 -74.5t74.5 -191.5t-74.5 -191.5t-192.5 -74.5q-117 0 -191.5 74.5t-74.5 191.5t75 192zM130 254q0 -84 52 -137t133 -53q82 0 134 53t52 137t-52 137t-134 53q-81 0 -133 -53t-52 -137zM197 740h97l65 -147h-74z" />
    <glyph glyph-name="oacute" unicode="&#xf3;" horiz-adv-x="631" 
d="M124 446q74 74 191 74q118 0 192.5 -74.5t74.5 -191.5t-74.5 -191.5t-192.5 -74.5q-117 0 -191.5 74.5t-74.5 191.5t75 192zM130 254q0 -84 52 -137t133 -53q82 0 134 53t52 137t-52 137t-134 53q-81 0 -133 -53t-52 -137zM271 593l65 147h97l-88 -147h-74z" />
    <glyph glyph-name="ocircumflex" unicode="&#xf4;" horiz-adv-x="631" 
d="M124 446q74 74 191 74q118 0 192.5 -74.5t74.5 -191.5t-74.5 -191.5t-192.5 -74.5q-117 0 -191.5 74.5t-74.5 191.5t75 192zM182 117q52 -53 133 -53q82 0 134 53t52 137t-52 137t-134 53q-81 0 -133 -53t-52 -137t52 -137zM159 593l125 147h63l126 -147h-86l-71 89
l-71 -89h-86z" />
    <glyph glyph-name="otilde" unicode="&#xf5;" horiz-adv-x="631" 
d="M124 446q74 74 191 74q118 0 192.5 -74.5t74.5 -191.5t-74.5 -191.5t-192.5 -74.5q-117 0 -191.5 74.5t-74.5 191.5t75 192zM182 117q52 -53 133 -53q82 0 134 53t52 137t-52 137t-134 53q-81 0 -133 -53t-52 -137t52 -137zM253 703q26 0 70 -28q34 -20 50 -20
q27 0 49 43l48 -27q-33 -78 -93 -78q-25 0 -70 27q-33 21 -50 21q-28 0 -49 -44l-48 28q33 78 93 78z" />
    <glyph glyph-name="odieresis" unicode="&#xf6;" horiz-adv-x="631" 
d="M49 254q0 117 74.5 191.5t191.5 74.5q118 0 192.5 -74.5t74.5 -191.5t-74.5 -191.5t-192.5 -74.5q-117 0 -191.5 74.5t-74.5 191.5zM182 117q52 -53 133 -53q82 0 134 53t52 137t-52 137t-134 53q-81 0 -133 -53t-52 -137t52 -137zM365 684q15 15 38 15t38.5 -15.5
t15.5 -39.5t-15 -39q-16 -16 -39 -16t-38.5 15.5t-15.5 39.5t16 40zM173 644q0 24 15 39.5t39 15.5q23 0 38 -15.5t15 -39.5t-15 -39.5t-38 -15.5q-24 0 -39 15.5t-15 39.5z" />
    <glyph glyph-name="divide" unicode="&#xf7;" horiz-adv-x="507" 
d="M253 401q-23 0 -39 15t-16 38t16 38t39 15t39 -15t16 -38t-16 -38t-39 -15zM454 269h-401v71h401v-71zM253 101q-23 0 -39 15t-16 38t16 38t39 15t39 -15t16 -38t-16 -38t-39 -15z" />
    <glyph glyph-name="oslash" unicode="&#xf8;" horiz-adv-x="631" 
d="M49 254q0 117 74.5 191.5t191.5 74.5q61 0 111 -21l50 81l57 -35l-49 -79q98 -76 98 -212q0 -117 -74.5 -191.5t-192.5 -74.5q-61 0 -112 21l-49 -80l-57 34l49 80q-97 75 -97 211zM244 76q33 -12 71 -12q82 0 134 53t52 137q0 91 -61 146zM190 109l196 323
q-33 12 -71 12q-81 0 -133 -53t-52 -137q0 -93 60 -145z" />
    <glyph glyph-name="ugrave" unicode="&#xf9;" horiz-adv-x="639" 
d="M83 508h81v-288q0 -72 36 -111.5t103 -39.5q76 0 120.5 47t44.5 127v265h81v-508h-80v84q-67 -91 -180 -91q-94 0 -150 58.5t-56 155.5v301zM295 740l65 -147h-74l-88 147h97z" />
    <glyph glyph-name="uacute" unicode="&#xfa;" horiz-adv-x="639" 
d="M164 508v-288q0 -72 36 -111.5t103 -39.5q76 0 120.5 47t44.5 127v265h81v-508h-80v84q-67 -91 -180 -91q-94 0 -150 58.5t-56 155.5v301h81zM337 740h97l-88 -147h-74z" />
    <glyph glyph-name="ucircumflex" unicode="&#xfb;" horiz-adv-x="639" 
d="M164 508v-288q0 -72 36 -111.5t103 -39.5q76 0 120.5 47t44.5 127v265h81v-508h-80v84q-67 -91 -180 -91q-94 0 -150 58.5t-56 155.5v301h81zM284 740h63l126 -147h-86l-71 89l-71 -89h-86z" />
    <glyph glyph-name="udieresis" unicode="&#xfc;" horiz-adv-x="639" 
d="M164 508v-288q0 -72 36 -111.5t103 -39.5q76 0 120.5 47t44.5 127v265h81v-508h-80v84q-67 -91 -180 -91q-94 0 -150 58.5t-56 155.5v301h81zM350 644q0 24 15.5 39.5t38.5 15.5t38.5 -15.5t15.5 -39.5t-15 -39q-16 -16 -39 -16t-38.5 15.5t-15.5 39.5zM174 644
q0 24 15 39.5t39 15.5q23 0 38 -15.5t15 -39.5t-15 -39.5t-38 -15.5q-24 0 -39 15.5t-15 39.5z" />
    <glyph glyph-name="yacute" unicode="&#xfd;" horiz-adv-x="561" 
d="M19 508h88l188 -426l161 426h86l-234 -610q-51 -133 -169 -133q-47 0 -88 18l22 70q26 -11 61 -11q37 0 59 18t41 65l21 53zM308 740h97l-88 -147h-74z" />
    <glyph glyph-name="thorn" unicode="&#xfe;" horiz-adv-x="669" 
d="M91 740h81v-315q72 95 196 95q110 0 181.5 -74.5t71.5 -191.5t-71.5 -191.5t-181.5 -74.5q-126 0 -196 94v-312h-81v970zM222 118q52 -54 133 -54t133 53t52 137t-52 137t-133 53t-133 -53t-52 -137q0 -83 52 -136z" />
    <glyph glyph-name="ydieresis" unicode="&#xff;" horiz-adv-x="561" 
d="M107 508l188 -426l161 426h86l-234 -610q-51 -133 -169 -133q-47 0 -88 18l22 70q26 -11 61 -11q37 0 59 18t41 65l21 53l-236 530h88zM337 684q15 15 38 15t38.5 -15.5t15.5 -39.5t-15 -39q-16 -16 -39 -16t-38.5 15.5t-15.5 39.5t16 40zM160 684q15 15 39 15
q23 0 38 -15.5t15 -39.5t-15 -39.5t-38 -15.5q-24 0 -39 15.5t-15 39.5t15 40z" />
    <glyph glyph-name="Amacron" unicode="&#x100;" horiz-adv-x="703" 
d="M303 700h99l281 -700h-88l-59 150h-368l-60 -150h-87zM198 226h309l-154 386zM211 786v63h283v-63h-283z" />
    <glyph glyph-name="amacron" unicode="&#x101;" horiz-adv-x="583" 
d="M106 273q57 46 152 46q82 0 163 -30v37q0 59 -35 87t-109 28q-78 0 -167 -43l-24 67q102 51 197 51q105 0 161.5 -49t56.5 -140v-327h-78l-1 80q-30 -40 -81 -63.5t-110 -23.5q-82 0 -132 43t-50 114q0 77 57 123zM161 88q30 -24 85 -24q77 0 126.5 43.5t49.5 107.5v6
q-89 29 -155 29q-65 0 -101 -25.5t-36 -70.5q0 -42 31 -66zM420 673v-61h-275v61h275z" />
    <glyph glyph-name="Abreve" unicode="&#x102;" horiz-adv-x="703" 
d="M21 0l282 700h99l281 -700h-88l-59 150h-368l-60 -150h-87zM507 226l-154 386l-155 -386h309zM206 891l66 12q7 -76 81 -76q72 0 81 76l65 -12q-15 -124 -146 -124q-132 0 -147 124z" />
    <glyph glyph-name="abreve" unicode="&#x103;" horiz-adv-x="583" 
d="M106 273q57 46 152 46q82 0 163 -30v37q0 59 -35 87t-109 28q-78 0 -167 -43l-24 67q102 51 197 51q105 0 161.5 -49t56.5 -140v-327h-78l-1 80q-30 -40 -81 -63.5t-110 -23.5q-82 0 -132 43t-50 114q0 77 57 123zM130 154q0 -42 30.5 -66t85.5 -24q77 0 126.5 43.5
t49.5 107.5v6q-89 29 -155 29q-65 0 -101 -25.5t-36 -70.5zM135 731l62 12q5 -50 25 -72.5t60 -22.5t60.5 22.5t24.5 72.5l63 -12q-8 -73 -44 -107q-36 -35 -104 -35t-103.5 34.5t-43.5 107.5z" />
    <glyph glyph-name="Aogonek" unicode="&#x104;" horiz-adv-x="703" 
d="M699 -124l30 -48q-45 -39 -93 -39q-43 0 -69 25.5t-26 66.5q0 66 64 119h-10l-59 150h-368l-60 -150h-87l282 700h99l281 -700h-1q-75 -49 -75 -104q0 -41 40 -41q24 0 52 21zM507 226l-154 386l-155 -386h309z" />
    <glyph glyph-name="aogonek" unicode="&#x105;" horiz-adv-x="583" 
d="M106 273q57 46 152 46q82 0 163 -30v37q0 59 -35 87t-109 28q-78 0 -167 -43l-24 67q102 51 197 51q105 0 161.5 -49t56.5 -140v-327q-75 -50 -75 -106q0 -40 40 -40q22 0 51 20l30 -47q-46 -38 -93 -38q-43 0 -68 25t-25 66q0 66 66 120h-4l-1 80q-30 -40 -81 -63.5
t-110 -23.5q-82 0 -132 43t-50 114q0 77 57 123zM161 88q30 -24 85 -24q77 0 126.5 43.5t49.5 107.5v6q-89 29 -155 29q-65 0 -101 -25.5t-36 -70.5q0 -42 31 -66z" />
    <glyph glyph-name="Cacute" unicode="&#x106;" horiz-adv-x="733" 
d="M150 610q95 102 246 102q180 0 291 -149l-61 -52q-39 57 -100 88.5t-130 31.5q-114 0 -185.5 -79t-71.5 -202t72 -202t188 -79q74 0 137.5 33t105.5 93l61 -50q-114 -157 -304 -157q-153 0 -249 102t-96 260q0 157 96 260zM357 772l65 127h97l-89 -127h-73z" />
    <glyph glyph-name="cacute" unicode="&#x107;" horiz-adv-x="554" 
d="M122 445q72 75 185 75q133 0 208 -95l-50 -51q-61 70 -157 70q-79 0 -128.5 -53t-49.5 -137q0 -85 49 -137.5t130 -52.5q104 0 163 78l54 -50q-33 -49 -91.5 -76.5t-127.5 -27.5q-113 0 -185.5 75t-72.5 191t73 191zM325 740h97l-88 -147h-74z" />
    <glyph glyph-name="Ccircumflex" unicode="&#x108;" horiz-adv-x="733" 
d="M150 610q95 102 246 102q180 0 291 -149l-61 -52q-39 57 -100 88.5t-130 31.5q-114 0 -185.5 -79t-71.5 -202t72 -202t188 -79q74 0 137.5 33t105.5 93l61 -50q-114 -157 -304 -157q-153 0 -249 102t-96 260q0 157 96 260zM364 899h63l126 -127h-86l-71 74l-71 -74h-86z
" />
    <glyph glyph-name="ccircumflex" unicode="&#x109;" horiz-adv-x="554" 
d="M49 254q0 116 72.5 191t185.5 75q133 0 208 -95l-50 -51q-61 70 -157 70q-79 0 -128.5 -53t-49.5 -137q0 -85 49 -137.5t130 -52.5q104 0 163 78l54 -50q-33 -49 -91.5 -76.5t-127.5 -27.5q-113 0 -185.5 75t-72.5 191zM147 593l125 147h63l126 -147h-86l-71 89l-71 -89
h-86z" />
    <glyph glyph-name="Cdotaccent" unicode="&#x10a;" horiz-adv-x="733" 
d="M54 350q0 157 95.5 259.5t246.5 102.5q180 0 291 -149l-61 -52q-39 57 -100 88.5t-130 31.5q-114 0 -185.5 -79t-71.5 -202t72 -202t188 -79q74 0 137.5 33t105.5 93l61 -50q-114 -157 -304 -157q-153 0 -249 102t-96 260zM334 830q0 28 17.5 45t44.5 17t44.5 -17
t17.5 -45t-17 -45q-18 -18 -45 -18t-44.5 17.5t-17.5 45.5z" />
    <glyph glyph-name="cdotaccent" unicode="&#x10b;" horiz-adv-x="554" 
d="M49 254q0 116 72.5 191t185.5 75q133 0 208 -95l-50 -51q-61 70 -157 70q-79 0 -128.5 -53t-49.5 -137q0 -85 49 -137.5t130 -52.5q104 0 163 78l54 -50q-33 -49 -91.5 -76.5t-127.5 -27.5q-113 0 -185.5 75t-72.5 191zM243 646q0 27 17 44t44 17q26 0 43 -17t17 -44
t-17 -44t-43 -17q-27 0 -44 17t-17 44z" />
    <glyph glyph-name="Ccaron" unicode="&#x10c;" horiz-adv-x="733" 
d="M150 610q95 102 246 102q180 0 291 -149l-61 -52q-39 57 -100 88.5t-130 31.5q-114 0 -185.5 -79t-71.5 -202t72 -202t188 -79q74 0 137.5 33t105.5 93l61 -50q-114 -157 -304 -157q-153 0 -249 102t-96 260q0 157 96 260zM325 899l71 -74l71 74h86l-126 -127h-63
l-125 127h86z" />
    <glyph glyph-name="ccaron" unicode="&#x10d;" horiz-adv-x="554" 
d="M49 254q0 116 72.5 191t185.5 75q133 0 208 -95l-50 -51q-61 70 -157 70q-79 0 -128.5 -53t-49.5 -137q0 -85 49 -137.5t130 -52.5q104 0 163 78l54 -50q-33 -49 -91.5 -76.5t-127.5 -27.5q-113 0 -185.5 75t-72.5 191zM147 740h86l71 -89l71 89h86l-126 -147h-63z" />
    <glyph glyph-name="Dcaron" unicode="&#x10e;" horiz-adv-x="746" 
d="M100 700h240q161 0 256.5 -95t95.5 -255t-95.5 -255t-256.5 -95h-240v700zM184 620v-540h151q128 0 200 71.5t72 198.5t-72 198.5t-200 71.5h-151zM182 899h86l71 -74l71 74h86l-126 -127h-63z" />
    <glyph glyph-name="dcaron" unicode="&#x10f;" horiz-adv-x="700" 
d="M49 254q0 117 71 191.5t181 74.5q127 0 197 -95v315h81v-740h-80v84q-70 -96 -198 -96q-110 0 -181 74.5t-71 191.5zM182 117q51 -53 133 -53q81 0 132.5 53t51.5 137t-51.5 137t-132.5 53q-82 0 -133.5 -53t-51.5 -137t52 -137zM636 534l34 206h86l-56 -206h-64z" />
    <glyph glyph-name="Dcroat" unicode="&#x110;" horiz-adv-x="769" 
d="M15 392h109v308h240q161 0 256.5 -95t95.5 -255t-95.5 -255t-256.5 -95h-240v322h-109v70zM207 80h152q128 0 200 71.5t72 198.5t-72 198.5t-200 71.5h-152v-229h171v-67h-171v-244z" />
    <glyph glyph-name="dcroat" unicode="&#x111;" horiz-adv-x="703" 
d="M579 649h92v-62h-92v-587h-80v84q-70 -96 -198 -96q-110 0 -181 74t-71 190t71 190t181 74q127 0 197 -94v165h-169v62h169v91h81v-91zM315 64q80 0 132 53t52 135t-51.5 135t-132.5 53q-82 0 -133.5 -52.5t-51.5 -135.5t51.5 -135.5t133.5 -52.5z" />
    <glyph glyph-name="Emacron" unicode="&#x112;" horiz-adv-x="598" 
d="M100 700h432v-78h-348v-228h322v-76h-322v-239h361v-79h-445v700zM467 849v-63h-283v63h283z" />
    <glyph glyph-name="emacron" unicode="&#x113;" horiz-adv-x="598" 
d="M121 445q71 75 183 75q123 0 188.5 -80.5t65.5 -176.5q0 -24 -4 -49h-425q10 -67 60 -109.5t122 -42.5q101 0 171 75l49 -53q-81 -96 -221 -96q-117 0 -189 74t-72 192q0 116 72 191zM129 284h350q-8 72 -55.5 117t-119.5 45q-70 0 -118.5 -45t-56.5 -117zM168 673h275
v-61h-275v61z" />
    <glyph glyph-name="Ebreve" unicode="&#x114;" horiz-adv-x="598" 
d="M100 0v700h432v-78h-348v-228h322v-76h-322v-239h361v-79h-445zM245 903q7 -76 81 -76q72 0 81 76l65 -12q-15 -124 -146 -124q-132 0 -147 124z" />
    <glyph glyph-name="ebreve" unicode="&#x115;" horiz-adv-x="598" 
d="M49 254q0 116 71.5 191t183.5 75q123 0 188.5 -80.5t65.5 -176.5q0 -24 -4 -49h-425q10 -67 60 -109.5t122 -42.5q101 0 171 75l49 -53q-81 -96 -221 -96q-117 0 -189 74t-72 192zM129 284h350q-8 72 -55.5 117t-119.5 45q-70 0 -118.5 -45t-56.5 -117zM157 731l62 12
q5 -50 25 -72.5t60 -22.5t60.5 22.5t24.5 72.5l63 -12q-8 -73 -44 -107q-36 -35 -104 -35t-103.5 34.5t-43.5 107.5z" />
    <glyph glyph-name="Edotaccent" unicode="&#x116;" horiz-adv-x="598" 
d="M100 0v700h432v-78h-348v-228h322v-76h-322v-239h361v-79h-445zM282 875q17 17 44 17t44.5 -17t17.5 -45t-17 -45q-18 -18 -45 -18t-44.5 17.5t-17.5 45.5t18 45z" />
    <glyph glyph-name="edotaccent" unicode="&#x117;" horiz-adv-x="598" 
d="M121 445q71 75 183 75q123 0 188.5 -80.5t65.5 -176.5q0 -24 -4 -49h-425q10 -67 60 -109.5t122 -42.5q101 0 171 75l49 -53q-81 -96 -221 -96q-117 0 -189 74t-72 192q0 116 72 191zM129 284h350q-8 72 -55.5 117t-119.5 45q-70 0 -118.5 -45t-56.5 -117zM244 646
q0 27 17 44t44 17q26 0 43 -17t17 -44t-17 -44t-43 -17q-27 0 -44 17t-17 44z" />
    <glyph glyph-name="Eogonek" unicode="&#x118;" horiz-adv-x="598" 
d="M532 700v-78h-348v-228h322v-76h-322v-239h361v-79q-75 -49 -75 -104q0 -41 40 -41q24 0 52 21l30 -48q-45 -39 -93 -39q-43 0 -69 25.5t-26 66.5q0 66 64 119h-368v700h432z" />
    <glyph glyph-name="eogonek" unicode="&#x119;" horiz-adv-x="606" 
d="M48 254q0 116 72 191t183 75q123 0 188.5 -81t65.5 -178q0 -23 -3 -47h-426q10 -67 60.5 -109.5t121.5 -42.5q101 0 171 75l49 -53q-29 -35 -94 -75q-83 -51 -83 -108q0 -20 11 -32t30 -12q24 0 51 20l30 -47q-45 -38 -91 -38q-43 0 -69 25.5t-26 66.5q0 55 47 105
q-8 -1 -25 -1q-117 0 -190 74t-73 192zM128 284h351q-8 72 -56 117t-120 45q-70 0 -118.5 -45t-56.5 -117z" />
    <glyph glyph-name="Ecaron" unicode="&#x11a;" horiz-adv-x="598" 
d="M100 0v700h432v-78h-348v-228h322v-76h-322v-239h361v-79h-445zM255 899l71 -74l71 74h86l-126 -127h-63l-125 127h86z" />
    <glyph glyph-name="ecaron" unicode="&#x11b;" horiz-adv-x="598" 
d="M121 445q71 75 183 75q123 0 188.5 -80.5t65.5 -176.5q0 -24 -4 -49h-425q10 -67 60 -109.5t122 -42.5q101 0 171 75l49 -53q-81 -96 -221 -96q-117 0 -189 74t-72 192q0 116 72 191zM129 284h350q-8 72 -55.5 117t-119.5 45q-70 0 -118.5 -45t-56.5 -117zM234 740
l71 -89l71 89h86l-126 -147h-63l-125 147h86z" />
    <glyph glyph-name="Gcircumflex" unicode="&#x11c;" horiz-adv-x="761" 
d="M151 610q97 102 252 102q161 0 270 -114l-54 -57q-39 42 -96.5 66t-119.5 24q-117 0 -190.5 -78.5t-73.5 -202.5q0 -126 73 -203.5t196 -77.5q129 0 215 69v157h-246v79h326v-272q-54 -55 -132 -84.5t-162 -29.5q-161 0 -258 100t-97 262q0 158 97 260zM371 899h63
l126 -127h-86l-71 74l-71 -74h-86z" />
    <glyph glyph-name="gcircumflex" unicode="&#x11d;" horiz-adv-x="638" 
d="M43 -167q0 71 59 109q-44 29 -44 82q0 65 71 109q-51 59 -51 148q0 101 65.5 164t171.5 63h291v-71h-128q73 -59 73 -159q0 -98 -66 -160.5t-170 -62.5q-78 0 -135 34q-43 -20 -43 -54q0 -33 43.5 -47.5t161.5 -21.5q136 -7 195 -39t59 -99q0 -73 -68.5 -114t-192.5 -41
q-139 0 -215.5 42t-76.5 118zM157 281q0 -68 44 -110q44 -43 114 -43t113.5 42.5t43.5 110.5t-43.5 111t-113.5 43t-114 -43t-44 -111zM331 -253q185 0 185 77q0 34 -40 49t-138 19q-101 3 -166 20q-23 -12 -36.5 -32.5t-13.5 -39.5q0 -93 209 -93zM164 593l125 147h63
l126 -147h-86l-71 89l-71 -89h-86z" />
    <glyph glyph-name="Gbreve" unicode="&#x11e;" horiz-adv-x="761" 
d="M151 610q97 102 252 102q161 0 270 -114l-54 -57q-39 42 -96.5 66t-119.5 24q-117 0 -190.5 -78.5t-73.5 -202.5q0 -126 73 -203.5t196 -77.5q129 0 215 69v157h-246v79h326v-272q-54 -55 -132 -84.5t-162 -29.5q-161 0 -258 100t-97 262q0 158 97 260zM322 903
q7 -76 81 -76q72 0 81 76l65 -12q-15 -124 -146 -124q-132 0 -147 124z" />
    <glyph glyph-name="gbreve" unicode="&#x11f;" horiz-adv-x="638" 
d="M102 -58q-44 29 -44 82q0 65 71 109q-51 59 -51 148q0 101 65.5 164t171.5 63h291v-71h-128q73 -59 73 -159q0 -98 -66 -160.5t-170 -62.5q-78 0 -135 34q-43 -20 -43 -54q0 -33 43.5 -47.5t161.5 -21.5q136 -7 195 -39t59 -99q0 -73 -68.5 -114t-192.5 -41
q-139 0 -215.5 42t-76.5 118q0 71 59 109zM201 171q44 -43 114 -43t113.5 42.5t43.5 110.5t-43.5 111t-113.5 43t-114 -43t-44 -111t44 -110zM331 -253q185 0 185 77q0 34 -40 49t-138 19q-101 3 -166 20q-23 -12 -36.5 -32.5t-13.5 -39.5q0 -93 209 -93zM173 731l62 12
q5 -50 25 -72.5t60 -22.5t60.5 22.5t24.5 72.5l63 -12q-8 -73 -44 -107q-36 -35 -104 -35t-103.5 34.5t-43.5 107.5z" />
    <glyph glyph-name="Gdotaccent" unicode="&#x120;" horiz-adv-x="761" 
d="M54 350q0 158 97 260t252 102q161 0 270 -114l-54 -57q-39 42 -96.5 66t-119.5 24q-117 0 -190.5 -78.5t-73.5 -202.5q0 -126 73 -203.5t196 -77.5q129 0 215 69v157h-246v79h326v-272q-54 -55 -132 -84.5t-162 -29.5q-161 0 -258 100t-97 262zM341 830q0 28 17.5 45
t44.5 17t44.5 -17t17.5 -45t-17 -45q-18 -18 -45 -18t-44.5 17.5t-17.5 45.5z" />
    <glyph glyph-name="gdotaccent" unicode="&#x121;" horiz-adv-x="638" 
d="M102 -58q-44 29 -44 82q0 65 71 109q-51 59 -51 148q0 101 65.5 164t171.5 63h291v-71h-128q73 -59 73 -159q0 -98 -66 -160.5t-170 -62.5q-78 0 -135 34q-43 -20 -43 -54q0 -33 43.5 -47.5t161.5 -21.5q136 -7 195 -39t59 -99q0 -73 -68.5 -114t-192.5 -41
q-139 0 -215.5 42t-76.5 118q0 71 59 109zM201 171q44 -43 114 -43t113.5 42.5t43.5 110.5t-43.5 111t-113.5 43t-114 -43t-44 -111t44 -110zM331 -253q185 0 185 77q0 34 -40 49t-138 19q-101 3 -166 20q-23 -12 -36.5 -32.5t-13.5 -39.5q0 -93 209 -93zM260 646
q0 27 17 44t44 17q26 0 43 -17t17 -44t-17 -44t-43 -17q-27 0 -44 17t-17 44z" />
    <glyph glyph-name="uni0122" unicode="&#x122;" horiz-adv-x="761" 
d="M151 610q97 102 252 102q161 0 270 -114l-54 -57q-39 42 -96.5 66t-119.5 24q-117 0 -190.5 -78.5t-73.5 -202.5q0 -126 73 -203.5t196 -77.5q129 0 215 69v157h-246v79h326v-272q-54 -55 -132 -84.5t-162 -29.5q-161 0 -258 100t-97 262q0 158 97 260zM372 -67
q14 15 36 15q27 0 42.5 -18.5t15.5 -50.5q0 -68 -65 -131l-28 27q30 34 38 71q-23 0 -38 14t-15 35q0 23 14 38z" />
    <glyph glyph-name="uni0123" unicode="&#x123;" horiz-adv-x="638" 
d="M102 -58q-44 29 -44 82q0 65 71 109q-51 59 -51 148q0 101 65.5 164t171.5 63h291v-71h-128q73 -59 73 -159q0 -98 -66 -160.5t-170 -62.5q-78 0 -135 34q-43 -20 -43 -54q0 -33 43.5 -47.5t161.5 -21.5q136 -7 195 -39t59 -99q0 -73 -68.5 -114t-192.5 -41
q-139 0 -215.5 42t-76.5 118q0 71 59 109zM201 171q44 -43 114 -43t113.5 42.5t43.5 110.5t-43.5 111t-113.5 43t-114 -43t-44 -111t44 -110zM331 -253q185 0 185 77q0 34 -40 49t-138 19q-101 3 -166 20q-23 -12 -36.5 -32.5t-13.5 -39.5q0 -93 209 -93zM264 642
q0 68 65 131l28 -27q-30 -34 -38 -71q23 0 38 -14t15 -35q0 -23 -14 -38t-36 -15q-27 0 -42.5 18.5t-15.5 50.5z" />
    <glyph glyph-name="Hcircumflex" unicode="&#x124;" horiz-adv-x="756" 
d="M100 700h84v-302h389v302h83v-700h-83v317h-389v-317h-84v700zM347 899h63l126 -127h-86l-71 74l-71 -74h-86z" />
    <glyph glyph-name="hcircumflex" unicode="&#x125;" horiz-adv-x="639" 
d="M91 740h81v-313q64 88 178 88q93 0 149.5 -58t56.5 -154v-303h-81v290q0 71 -36 110t-103 39q-76 0 -120 -46.5t-44 -125.5v-267h-81v740zM-26 812l125 127h63l126 -127h-86l-71 74l-71 -74h-86z" />
    <glyph glyph-name="Hbar" unicode="&#x126;" horiz-adv-x="769" 
d="M663 592h82v-70h-82v-522h-84v319h-389v-319h-84v522h-82v70h82v108h84v-108h389v108h84v-108zM190 523v-129h389v129h-389z" />
    <glyph glyph-name="hbar" unicode="&#x127;" horiz-adv-x="646" 
d="M357 515q93 0 149.5 -58t56.5 -154v-303h-81v290q0 71 -36 110t-103 39q-76 0 -120.5 -46.5t-44.5 -125.5v-267h-81v587h-92v62h92v91h81v-91h172v-62h-172v-161q63 89 179 89z" />
    <glyph glyph-name="Itilde" unicode="&#x128;" horiz-adv-x="283" 
d="M184 700v-700h-84v700h84zM78 880q30 0 68 -24t55 -24q30 0 51 44l48 -28q-33 -78 -94 -78q-30 0 -68 24t-55 24q-30 0 -51 -44l-48 28q34 78 94 78z" />
    <glyph glyph-name="itilde" unicode="&#x129;" horiz-adv-x="262" 
d="M172 508v-508h-81v508h81zM73 696q26 0 60 -24t50 -24q28 0 45 44l48 -27q-32 -78 -88 -78q-27 0 -61 24t-50 24q-27 0 -44 -44l-48 28q30 77 88 77z" />
    <glyph glyph-name="Imacron" unicode="&#x12a;" horiz-adv-x="283" 
d="M271 786h-260v63h260v-63zM184 0h-84v700h84v-700z" />
    <glyph glyph-name="imacron" unicode="&#x12b;" horiz-adv-x="262" 
d="M251 612h-239v61h239v-61zM172 0h-81v508h81v-508z" />
    <glyph glyph-name="Ibreve" unicode="&#x12c;" horiz-adv-x="283" 
d="M184 700v-700h-84v700h84zM61 903q7 -76 81 -76q72 0 81 76l65 -12q-15 -124 -146 -124q-132 0 -147 124z" />
    <glyph glyph-name="ibreve" unicode="&#x12d;" horiz-adv-x="262" 
d="M91 508h81v-508h-81v508zM55 743q4 -50 22 -72.5t53 -22.5t53 22.5t22 72.5l63 -12q-7 -73 -40.5 -107.5t-97.5 -34.5q-63 0 -96.5 34.5t-40.5 107.5z" />
    <glyph glyph-name="Iogonek" unicode="&#x12e;" horiz-adv-x="283" 
d="M42 -119q0 66 64 119h-6v700h84v-700h-1q-75 -49 -75 -104q0 -41 40 -41q24 0 52 21l30 -48q-45 -39 -93 -39q-43 0 -69 25.5t-26 66.5z" />
    <glyph glyph-name="iogonek" unicode="&#x12f;" horiz-adv-x="262" 
d="M42 -120q0 68 60 120h-11v508h81v-508q-65 -49 -65 -106q0 -40 39 -40q23 0 50 20l29 -47q-44 -38 -91 -38q-42 0 -67 25t-25 66zM68 650q0 28 17.5 45.5t45.5 17.5q27 0 44.5 -17.5t17.5 -45.5t-17.5 -45.5t-44.5 -17.5q-28 0 -45.5 17.5t-17.5 45.5z" />
    <glyph glyph-name="Idotaccent" unicode="&#x130;" horiz-adv-x="283" 
d="M100 700h84v-700h-84v700zM98 875q17 17 44 17t44.5 -17t17.5 -45t-17 -45q-18 -18 -45 -18t-44.5 17.5t-17.5 45.5t18 45z" />
    <glyph glyph-name="dotlessi" unicode="&#x131;" horiz-adv-x="262" 
d="M172 0h-81v508h81v-508z" />
    <glyph glyph-name="IJ" unicode="&#x132;" horiz-adv-x="752" 
d="M328 94q58 -26 118 -26q131 0 131 173v459h83v-466q0 -120 -55 -183t-159 -63q-71 0 -151 35zM184 700v-700h-84v700h84z" />
    <glyph glyph-name="ij" unicode="&#x133;" horiz-adv-x="524" 
d="M201 -221l18 72q36 -11 65 -11q37 0 53 21.5t16 71.5v575h81v-587q0 -77 -36.5 -117.5t-105.5 -40.5q-43 0 -91 16zM91 0v508h81v-508h-81zM86 696q17 17 45 17q27 0 44.5 -17.5t17.5 -45.5t-17.5 -45.5t-44.5 -17.5q-28 0 -45.5 17.5t-17.5 45.5t18 46zM330 650
q0 28 17.5 45.5t45.5 17.5q27 0 44.5 -17.5t17.5 -45.5t-17.5 -45.5t-44.5 -17.5q-28 0 -45.5 17.5t-17.5 45.5z" />
    <glyph glyph-name="Jcircumflex" unicode="&#x134;" horiz-adv-x="469" 
d="M45 94q58 -26 118 -26q131 0 131 173v459h83v-466q0 -120 -55 -183t-159 -63q-71 0 -151 35zM304 899h63l126 -127h-86l-71 74l-71 -74h-86z" />
    <glyph glyph-name="jcircumflex" unicode="&#x135;" horiz-adv-x="262" 
d="M-61 -221l18 72q36 -11 65 -11q37 0 53 21.5t16 71.5v575h81v-587q0 -77 -36.5 -117.5t-105.5 -40.5q-43 0 -91 16zM-7 593l106 147h63l107 -147h-82l-56 86l-56 -86h-82z" />
    <glyph glyph-name="uni0136" unicode="&#x136;" horiz-adv-x="643" 
d="M184 700v-307h90l241 307h105l-271 -344l281 -356h-105l-249 315h-92v-315h-84v700h84zM295 -67q14 15 36 15q27 0 42.5 -18.5t15.5 -50.5q0 -68 -65 -131l-28 27q30 34 38 71q-23 0 -38 14t-15 35q0 23 14 38z" />
    <glyph glyph-name="uni0137" unicode="&#x137;" horiz-adv-x="540" 
d="M172 740v-440h78l168 208h98l-199 -247l211 -261h-100l-181 226h-75v-226h-81v740h81zM233 -105q0 23 14 38t36 15q27 0 42.5 -18.5t15.5 -50.5q0 -68 -65 -131l-28 27q30 34 38 71q-23 0 -38 14t-15 35z" />
    <glyph glyph-name="kgreenlandic" unicode="&#x138;" horiz-adv-x="540" 
d="M91 0v508h81v-208h78l168 208h98l-199 -247l211 -261h-100l-181 226h-75v-226h-81z" />
    <glyph glyph-name="Lacute" unicode="&#x139;" horiz-adv-x="562" 
d="M168 899h97l-89 -127h-73zM184 700v-620h338v-80h-422v700h84z" />
    <glyph glyph-name="lacute" unicode="&#x13a;" horiz-adv-x="262" 
d="M165 812h-73l65 127h97zM172 0h-81v740h81v-740z" />
    <glyph glyph-name="uni013B" unicode="&#x13b;" horiz-adv-x="562" 
d="M100 0v700h84v-620h338v-80h-422zM280 -67q14 15 36 15q27 0 42.5 -18.5t15.5 -50.5q0 -68 -65 -131l-28 27q30 34 38 71q-23 0 -38 14t-15 35q0 23 14 38z" />
    <glyph glyph-name="uni013C" unicode="&#x13c;" horiz-adv-x="262" 
d="M172 740v-740h-81v740h81zM77 -105q0 23 14 38t36 15q27 0 42.5 -18.5t15.5 -50.5q0 -68 -65 -131l-28 27q30 34 38 71q-23 0 -38 14t-15 35z" />
    <glyph glyph-name="Lcaron" unicode="&#x13d;" horiz-adv-x="562" 
d="M184 700v-620h338v-80h-422v700h84zM383 494l31 206h90l-53 -206h-68z" />
    <glyph glyph-name="lcaron" unicode="&#x13e;" horiz-adv-x="292" 
d="M91 0v740h81v-740h-81zM229 534l34 206h86l-56 -206h-64z" />
    <glyph glyph-name="Ldot" unicode="&#x13f;" horiz-adv-x="562" 
d="M100 700h84v-620h338v-80h-422v700zM354 425q17 16 41 16t41.5 -16.5t17.5 -41.5t-17 -41t-42 -16t-42 16t-17 41t18 42z" />
    <glyph glyph-name="ldot" unicode="&#x140;" horiz-adv-x="412" 
d="M91 0v740h81v-740h-81zM266 361q17 16 41 16t41.5 -16.5t17.5 -41.5t-17 -41t-42 -16t-42 16t-17 41t18 42z" />
    <glyph glyph-name="Lslash" unicode="&#x141;" horiz-adv-x="576" 
d="M114 359v341h84v-304l220 95v-77l-220 -95v-239h338v-80h-422v282l-105 -45v77z" />
    <glyph glyph-name="lslash" unicode="&#x142;" horiz-adv-x="288" 
d="M2 338l101 50v352h81v-312l102 50v-76l-102 -50v-352h-81v312l-101 -50v76z" />
    <glyph glyph-name="Nacute" unicode="&#x143;" horiz-adv-x="770" 
d="M100 0v700h75l413 -553v553h83v-700h-76l-412 552v-552h-83zM415 899h97l-89 -127h-73z" />
    <glyph glyph-name="nacute" unicode="&#x144;" horiz-adv-x="639" 
d="M91 0v508h79v-84q67 91 180 91q94 0 150 -58.5t56 -154.5v-302h-81v288q0 72 -36 111.5t-103 39.5q-76 0 -120 -47t-44 -127v-265h-81zM349 740h97l-88 -147h-74z" />
    <glyph glyph-name="uni0145" unicode="&#x145;" horiz-adv-x="770" 
d="M100 700h75l413 -553v553h83v-700h-76l-412 552v-552h-83v700zM333 -105q0 23 14 38t36 15q27 0 42.5 -18.5t15.5 -50.5q0 -68 -65 -131l-28 27q30 34 38 71q-23 0 -38 14t-15 35z" />
    <glyph glyph-name="uni0146" unicode="&#x146;" horiz-adv-x="639" 
d="M91 508h79v-84q67 91 180 91q94 0 150 -58.5t56 -154.5v-302h-81v288q0 72 -36 111.5t-103 39.5q-76 0 -120 -47t-44 -127v-265h-81v508zM270 -105q0 23 14 38t36 15q27 0 42.5 -18.5t15.5 -50.5q0 -68 -65 -131l-28 27q30 34 38 71q-23 0 -38 14t-15 35z" />
    <glyph glyph-name="Ncaron" unicode="&#x147;" horiz-adv-x="770" 
d="M175 700l413 -553v553h83v-700h-76l-412 552v-552h-83v700h75zM232 899h86l71 -74l71 74h86l-126 -127h-63z" />
    <glyph glyph-name="ncaron" unicode="&#x148;" horiz-adv-x="639" 
d="M91 0v508h79v-84q67 91 180 91q94 0 150 -58.5t56 -154.5v-302h-81v288q0 72 -36 111.5t-103 39.5q-76 0 -120 -47t-44 -127v-265h-81zM171 740h86l71 -89l71 89h86l-126 -147h-63z" />
    <glyph glyph-name="napostrophe" unicode="&#x149;" horiz-adv-x="717" 
d="M168 1v508h80v-83q66 90 180 90q94 0 150 -58.5t56 -155.5v-301h-81v288q0 72 -36 111.5t-103 39.5q-76 0 -120.5 -47t-44.5 -127v-265h-81zM22 722q15 16 39 16q30 0 47 -20.5t17 -55.5q0 -75 -71 -143l-31 29q33 38 41 78q-24 0 -40.5 15.5t-16.5 38.5q0 26 15 42z" />
    <glyph glyph-name="Eng" unicode="&#x14a;" horiz-adv-x="770" 
d="M588 144v556h83v-779q0 -77 -36.5 -117.5t-105.5 -40.5q-45 0 -90 16l18 72q33 -11 64 -11q37 0 53 21.5t16 71.5v74l-407 547v-554h-83v700h75z" />
    <glyph glyph-name="eng" unicode="&#x14b;" horiz-adv-x="639" 
d="M170 508v-85q65 92 180 92q94 0 150 -58.5t56 -154.5v-381q0 -77 -36.5 -117.5t-104.5 -40.5q-43 0 -91 16l18 71q39 -12 64 -12q37 0 53 22t16 72v356q0 72 -36 111.5t-103 39.5q-76 0 -120 -47t-44 -127v-265h-81v508h79z" />
    <glyph glyph-name="Omacron" unicode="&#x14c;" horiz-adv-x="820" 
d="M154 611q100 101 256 101q155 0 255.5 -102t100.5 -260t-100.5 -260t-255.5 -102q-156 0 -256 101.5t-100 260.5t100 261zM139 350q0 -124 76 -202q76 -79 195 -79t195 78.5t76 202.5t-76 202.5t-195 78.5t-195 -79t-76 -202zM268 786v63h283v-63h-283z" />
    <glyph glyph-name="omacron" unicode="&#x14d;" horiz-adv-x="631" 
d="M124 446q74 74 191 74q118 0 192.5 -74.5t74.5 -191.5t-74.5 -191.5t-192.5 -74.5q-117 0 -191.5 74.5t-74.5 191.5t75 192zM130 254q0 -84 52 -137t133 -53q82 0 134 53t52 137t-52 137t-134 53q-81 0 -133 -53t-52 -137zM178 612v61h275v-61h-275z" />
    <glyph glyph-name="Obreve" unicode="&#x14e;" horiz-adv-x="820" 
d="M154 611q100 101 256 101q155 0 255.5 -102t100.5 -260t-100.5 -260t-255.5 -102q-156 0 -256 101.5t-100 260.5t100 261zM215 148q76 -79 195 -79t195 78.5t76 202.5t-76 202.5t-195 78.5t-195 -79t-76 -202q0 -124 76 -202zM263 891l66 12q7 -76 81 -76q72 0 81 76
l65 -12q-15 -124 -146 -124q-132 0 -147 124z" />
    <glyph glyph-name="obreve" unicode="&#x14f;" horiz-adv-x="631" 
d="M49 254q0 117 74.5 191.5t191.5 74.5q118 0 192.5 -74.5t74.5 -191.5t-74.5 -191.5t-192.5 -74.5q-117 0 -191.5 74.5t-74.5 191.5zM130 254q0 -84 52 -137t133 -53q82 0 134 53t52 137t-52 137t-134 53q-81 0 -133 -53t-52 -137zM168 731l62 12q5 -50 25 -72.5t60 -22.5
t60.5 22.5t24.5 72.5l63 -12q-8 -73 -44 -107q-36 -35 -104 -35t-103.5 34.5t-43.5 107.5z" />
    <glyph glyph-name="Ohungarumlaut" unicode="&#x150;" horiz-adv-x="820" 
d="M154 611q100 101 256 101q155 0 255.5 -102t100.5 -260t-100.5 -260t-255.5 -102q-156 0 -256 101.5t-100 260.5t100 261zM215 148q76 -79 195 -79t195 78.5t76 202.5t-76 202.5t-195 78.5t-195 -79t-76 -202q0 -124 76 -202zM436 772l70 127h89l-88 -127h-71zM293 772
l60 127h88l-80 -127h-68z" />
    <glyph glyph-name="ohungarumlaut" unicode="&#x151;" horiz-adv-x="631" 
d="M124 446q74 74 191 74q118 0 192.5 -74.5t74.5 -191.5t-74.5 -191.5t-192.5 -74.5q-117 0 -191.5 74.5t-74.5 191.5t75 192zM130 254q0 -84 52 -137t133 -53q82 0 134 53t52 137t-52 137t-134 53q-81 0 -133 -53t-52 -137zM413 740h88l-88 -147h-71zM259 740h88l-80 -147
h-68z" />
    <glyph glyph-name="OE" unicode="&#x152;" horiz-adv-x="997" 
d="M154 614q100 98 269 98q56 0 116 -12h393v-78h-311v-226h288v-76h-288v-241h324v-79h-406q-58 -12 -112 -12q-172 0 -272.5 97.5t-100.5 264.5q0 166 100 264zM218 141q78 -75 219 -75q52 0 102 10v546q-45 11 -103 11q-140 0 -218.5 -74.5t-78.5 -208.5t79 -209z" />
    <glyph glyph-name="oe" unicode="&#x153;" horiz-adv-x="1017" 
d="M49 254q0 117 71 191.5t183 74.5q73 0 130 -33t90 -92q32 58 87.5 91.5t124.5 33.5q117 0 179 -81t62 -177q0 -23 -3 -48h-412q10 -69 58.5 -110.5t116.5 -41.5q98 0 165 75l49 -53q-76 -96 -209 -96q-74 0 -130.5 32.5t-88.5 91.5q-33 -58 -90 -91t-129 -33
q-112 0 -183 74.5t-71 191.5zM180 117q50 -53 129 -53t129 53t50 137t-50 137t-129 53t-129 -53t-50 -137t50 -137zM561 284h337q-8 72 -54 117t-115 45q-67 0 -113.5 -45t-54.5 -117z" />
    <glyph glyph-name="Racute" unicode="&#x154;" horiz-adv-x="668" 
d="M100 700h274q105 0 170 -62t65 -158q0 -77 -43 -133.5t-117 -76.5l178 -270h-95l-170 260h-178v-260h-84v700zM372 336q72 0 113 38q40 38 40 104t-40.5 104.5t-112.5 38.5h-190v-285h190zM285 772l65 127h97l-89 -127h-73z" />
    <glyph glyph-name="racute" unicode="&#x155;" horiz-adv-x="417" 
d="M91 0v508h79v-87q55 94 162 94q42 0 78 -14l-21 -80q-36 12 -73 12q-72 0 -108 -52.5t-36 -144.5v-236h-81zM269 740h97l-88 -147h-74z" />
    <glyph glyph-name="uni0156" unicode="&#x156;" horiz-adv-x="668" 
d="M100 700h274q105 0 170 -62t65 -158q0 -77 -43 -133.5t-117 -76.5l178 -270h-95l-170 260h-178v-260h-84v700zM372 336q72 0 113 38q40 38 40 104t-40.5 104.5t-112.5 38.5h-190v-285h190zM294 -105q0 23 14 38t36 15q27 0 42.5 -18.5t15.5 -50.5q0 -68 -65 -131l-28 27
q30 34 38 71q-23 0 -38 14t-15 35z" />
    <glyph glyph-name="uni0157" unicode="&#x157;" horiz-adv-x="417" 
d="M91 0v508h79v-87q55 94 162 94q42 0 78 -14l-21 -80q-36 12 -73 12q-72 0 -108 -52.5t-36 -144.5v-236h-81zM77 -105q0 23 14 38t36 15q27 0 42.5 -18.5t15.5 -50.5q0 -68 -65 -131l-28 27q30 34 38 71q-23 0 -38 14t-15 35z" />
    <glyph glyph-name="Rcaron" unicode="&#x158;" horiz-adv-x="668" 
d="M374 700q105 0 170 -62t65 -158q0 -77 -43 -133.5t-117 -76.5l178 -270h-95l-170 260h-178v-260h-84v700h274zM372 336q72 0 113 38q40 38 40 104t-40.5 104.5t-112.5 38.5h-190v-285h190zM168 899h86l71 -74l71 74h86l-126 -127h-63z" />
    <glyph glyph-name="rcaron" unicode="&#x159;" horiz-adv-x="417" 
d="M91 508h79v-87q55 94 162 94q42 0 78 -14l-21 -80q-36 12 -73 12q-72 0 -108 -52.5t-36 -144.5v-236h-81v508zM177 740l71 -89l71 89h86l-126 -147h-63l-125 147h86z" />
    <glyph glyph-name="Sacute" unicode="&#x15a;" horiz-adv-x="598" 
d="M43 90l44 65q97 -82 219 -82q78 0 122.5 29t44.5 80q0 46 -43.5 79t-143.5 62q-115 34 -167 82.5t-52 121.5q0 80 64 130t167 50q138 0 243 -96l-47 -65q-83 81 -198 81q-66 0 -105.5 -26.5t-39.5 -70.5t39.5 -74.5t140.5 -61.5q118 -35 173 -85.5t55 -124.5
q0 -84 -71.5 -137.5t-183.5 -53.5q-152 0 -261 97zM260 772l65 127h97l-89 -127h-73z" />
    <glyph glyph-name="sacute" unicode="&#x15b;" horiz-adv-x="480" 
d="M39 65l37 64q83 -61 171 -61q54 0 85 18.5t31 50.5q0 29 -28.5 49.5t-95.5 37.5q-95 24 -137.5 61t-42.5 94q0 63 48 100t131 37q114 0 197 -72l-40 -61q-64 58 -158 58q-46 0 -72 -16.5t-26 -45.5q0 -30 27 -48.5t97 -35.5q94 -24 137.5 -62t43.5 -94q0 -67 -54 -107
t-143 -40q-119 0 -208 73zM199 593l65 147h97l-88 -147h-74z" />
    <glyph glyph-name="Scircumflex" unicode="&#x15c;" horiz-adv-x="598" 
d="M43 90l44 65q97 -82 219 -82q78 0 122.5 29t44.5 80q0 46 -43.5 79t-143.5 62q-115 34 -167 82.5t-52 121.5q0 80 64 130t167 50q138 0 243 -96l-47 -65q-83 81 -198 81q-66 0 -105.5 -26.5t-39.5 -70.5t39.5 -74.5t140.5 -61.5q118 -35 173 -85.5t55 -124.5
q0 -84 -71.5 -137.5t-183.5 -53.5q-152 0 -261 97zM267 899h63l126 -127h-86l-71 74l-71 -74h-86z" />
    <glyph glyph-name="scircumflex" unicode="&#x15d;" horiz-adv-x="480" 
d="M39 65l37 64q83 -61 171 -61q54 0 85 18.5t31 50.5q0 29 -28.5 49.5t-95.5 37.5q-95 24 -137.5 61t-42.5 94q0 63 48 100t131 37q114 0 197 -72l-40 -61q-64 58 -158 58q-46 0 -72 -16.5t-26 -45.5q0 -30 27 -48.5t97 -35.5q94 -24 137.5 -62t43.5 -94q0 -67 -54 -107
t-143 -40q-119 0 -208 73zM86 593l125 147h63l126 -147h-86l-71 89l-71 -89h-86z" />
    <glyph glyph-name="Scedilla" unicode="&#x15e;" horiz-adv-x="598" 
d="M87 155q97 -82 219 -82q78 0 122.5 29t44.5 80q0 46 -43.5 79t-143.5 62q-115 34 -167 82.5t-52 121.5q0 80 64 130t167 50q138 0 243 -96l-47 -65q-83 81 -198 81q-66 0 -105.5 -26.5t-39.5 -70.5t39.5 -74.5t140.5 -61.5q118 -35 173 -85.5t55 -124.5
q0 -79 -63.5 -131.5t-165.5 -58.5l-10 -46q7 1 13 1q40 0 69.5 -23.5t29.5 -67.5q0 -46 -35.5 -73t-90.5 -27q-63 0 -112 38l29 45q34 -26 79 -26q30 0 47 12t17 33q0 41 -52 41q-19 0 -44 -5l-16 15l19 83q-131 9 -230 96z" />
    <glyph glyph-name="scedilla" unicode="&#x15f;" horiz-adv-x="480" 
d="M39 65l37 64q83 -61 171 -61q54 0 85 18.5t31 50.5q0 29 -28.5 49.5t-95.5 37.5q-95 24 -137.5 61t-42.5 94q0 63 48 100t131 37q114 0 197 -72l-40 -61q-64 58 -158 58q-46 0 -72 -16.5t-26 -45.5q0 -30 27 -48.5t97 -35.5q94 -24 137.5 -62t43.5 -94q0 -61 -45.5 -100
t-122.5 -46l-10 -45q7 1 13 1q40 0 68.5 -23t28.5 -68q0 -46 -35 -73t-89 -27q-63 0 -110 38l29 44q34 -26 77 -26q30 0 46.5 12t16.5 33q0 30 -21.5 36t-36.5 6q-17 0 -36 -5l-16 15l19 82q-101 7 -181 72z" />
    <glyph glyph-name="Scaron" unicode="&#x160;" horiz-adv-x="598" 
d="M43 90l44 65q97 -82 219 -82q78 0 122.5 29t44.5 80q0 46 -43.5 79t-143.5 62q-115 34 -167 82.5t-52 121.5q0 80 64 130t167 50q138 0 243 -96l-47 -65q-83 81 -198 81q-66 0 -105.5 -26.5t-39.5 -70.5t39.5 -74.5t140.5 -61.5q118 -35 173 -85.5t55 -124.5
q0 -84 -71.5 -137.5t-183.5 -53.5q-152 0 -261 97zM142 899h86l71 -74l71 74h86l-126 -127h-63z" />
    <glyph glyph-name="scaron" unicode="&#x161;" horiz-adv-x="480" 
d="M39 65l37 64q83 -61 171 -61q54 0 85 18.5t31 50.5q0 29 -28.5 49.5t-95.5 37.5q-95 24 -137.5 61t-42.5 94q0 63 48 100t131 37q114 0 197 -72l-40 -61q-64 58 -158 58q-46 0 -72 -16.5t-26 -45.5q0 -30 27 -48.5t97 -35.5q94 -24 137.5 -62t43.5 -94q0 -67 -54 -107
t-143 -40q-119 0 -208 73zM86 740h86l71 -89l71 89h86l-126 -147h-63z" />
    <glyph glyph-name="uni0162" unicode="&#x162;" horiz-adv-x="592" 
d="M28 620v80h536v-80h-226v-620h-13l-11 -52q7 1 13 1q40 0 69.5 -23.5t29.5 -67.5q0 -46 -35.5 -73t-90.5 -27q-63 0 -112 38l29 45q34 -26 79 -26q30 0 47 12t17 33q0 41 -52 41q-19 0 -44 -5l-16 15l20 89h-14v620h-226z" />
    <glyph glyph-name="uni0163" unicode="&#x163;" horiz-adv-x="409" 
d="M27 437v71h99v121h81v-121h158v-71h-158v-276q0 -92 80 -92q36 0 77 20l26 -70q-47 -22 -91 -25l-10 -46q7 1 13 1q40 0 68.5 -23t28.5 -68q0 -46 -35 -73t-89 -27q-63 0 -110 38l29 44q34 -26 77 -26q30 0 46.5 12t16.5 33q0 30 -21.5 36t-36.5 6q-17 0 -36 -5l-16 15
l20 85q-56 10 -87 52.5t-31 108.5v280h-99z" />
    <glyph glyph-name="Tcaron" unicode="&#x164;" horiz-adv-x="592" 
d="M28 620v80h536v-80h-226v-620h-84v620h-226zM139 899h86l71 -74l71 74h86l-126 -127h-63z" />
    <glyph glyph-name="tcaron" unicode="&#x165;" horiz-adv-x="409" 
d="M126 508v121h81v-121h158v-71h-158v-276q0 -92 80 -92q36 0 77 20l26 -70q-55 -26 -111 -26q-72 0 -112.5 44t-40.5 120v280h-99v71h99zM315 573l34 167h82l-52 -167h-64z" />
    <glyph glyph-name="Tbar" unicode="&#x166;" horiz-adv-x="592" 
d="M564 700v-80h-226v-227h148v-70h-148v-323h-84v323h-148v70h148v227h-226v80h536z" />
    <glyph glyph-name="tbar" unicode="&#x167;" horiz-adv-x="409" 
d="M365 86l25 -67q-53 -26 -111 -26q-71 0 -112 43.5t-41 120.5v81h-92v64h92v135h-99v71h99v121h81v-121h158v-71h-158v-135h148v-64h-148v-79q0 -92 80 -92q32 0 78 19z" />
    <glyph glyph-name="Utilde" unicode="&#x168;" horiz-adv-x="737" 
d="M91 271v429h84v-425q0 -98 51 -152t142 -54t142.5 54t51.5 152v425h83v-429q0 -130 -76 -206.5t-201 -76.5q-124 0 -200.5 77t-76.5 206zM211 802q34 78 94 78q29 0 67 -24t56 -24q30 0 51 44l48 -28q-33 -78 -94 -78q-29 0 -67 24t-56 24q-30 0 -51 -44z" />
    <glyph glyph-name="utilde" unicode="&#x169;" horiz-adv-x="639" 
d="M83 207v301h81v-288q0 -72 36 -111.5t103 -39.5q76 0 120.5 47t44.5 127v265h81v-508h-80v84q-67 -91 -180 -91q-94 0 -150 58.5t-56 155.5zM161 625q33 78 93 78q26 0 70 -28q34 -20 50 -20q28 0 49 43l48 -27q-33 -78 -93 -78q-25 0 -70 27q-33 21 -50 21
q-28 0 -49 -44z" />
    <glyph glyph-name="Umacron" unicode="&#x16a;" horiz-adv-x="737" 
d="M91 271v429h84v-425q0 -98 51 -152t142 -54t142.5 54t51.5 152v425h83v-429q0 -130 -76 -206.5t-201 -76.5q-124 0 -200.5 77t-76.5 206zM510 849v-63h-283v63h283z" />
    <glyph glyph-name="umacron" unicode="&#x16b;" horiz-adv-x="639" 
d="M83 508h81v-288q0 -72 36 -111.5t103 -39.5q76 0 120.5 47t44.5 127v265h81v-508h-80v84q-67 -91 -180 -91q-94 0 -150 58.5t-56 155.5v301zM179 673h275v-61h-275v61z" />
    <glyph glyph-name="Ubreve" unicode="&#x16c;" horiz-adv-x="737" 
d="M175 700v-425q0 -98 51 -152t142 -54t142.5 54t51.5 152v425h83v-429q0 -130 -76 -206.5t-201 -76.5q-124 0 -200.5 77t-76.5 206v429h84zM288 903q7 -76 81 -76q72 0 81 76l65 -12q-15 -124 -146 -124q-132 0 -147 124z" />
    <glyph glyph-name="ubreve" unicode="&#x16d;" horiz-adv-x="639" 
d="M83 207v301h81v-288q0 -72 36 -111.5t103 -39.5q76 0 120.5 47t44.5 127v265h81v-508h-80v84q-67 -91 -180 -91q-94 0 -150 58.5t-56 155.5zM169 731l62 12q5 -50 25 -72.5t60 -22.5t60.5 22.5t24.5 72.5l63 -12q-8 -73 -44 -107q-36 -35 -104 -35t-103.5 34.5
t-43.5 107.5z" />
    <glyph glyph-name="Uring" unicode="&#x16e;" horiz-adv-x="737" 
d="M175 700v-425q0 -98 51 -152t142 -54t142.5 54t51.5 152v425h83v-429q0 -130 -76 -206.5t-201 -76.5q-124 0 -200.5 77t-76.5 206v429h84zM249 857q0 49 34.5 82t84.5 33t84.5 -33t34.5 -82q0 -48 -34 -81q-35 -33 -85 -33t-84.5 33t-34.5 81zM309 857q0 -25 17 -42
q16 -17 42 -17t43 16.5t17 42.5t-17 43t-43 17t-42.5 -17t-16.5 -43z" />
    <glyph glyph-name="uring" unicode="&#x16f;" horiz-adv-x="639" 
d="M83 508h81v-288q0 -72 36 -111.5t103 -39.5q76 0 120.5 47t44.5 127v265h81v-508h-80v84q-67 -91 -180 -91q-94 0 -150 58.5t-56 155.5v301zM197 685q0 48 34.5 81t84.5 33t84.5 -33t34.5 -81q0 -49 -34 -82q-35 -33 -85 -33t-84.5 33t-34.5 82zM274 642q16 -17 42 -17
t43 17t17 43q0 25 -17 42t-43 17t-42.5 -17t-16.5 -42q0 -26 17 -43z" />
    <glyph glyph-name="Uhungarumlaut" unicode="&#x170;" horiz-adv-x="737" 
d="M91 271v429h84v-425q0 -98 51 -152t142 -54t142.5 54t51.5 152v425h83v-429q0 -130 -76 -206.5t-201 -76.5q-124 0 -200.5 77t-76.5 206zM464 899h89l-88 -127h-71zM311 899h88l-80 -127h-68z" />
    <glyph glyph-name="uhungarumlaut" unicode="&#x171;" horiz-adv-x="639" 
d="M83 508h81v-288q0 -72 36 -111.5t103 -39.5q76 0 120.5 47t44.5 127v265h81v-508h-80v84q-67 -91 -180 -91q-94 0 -150 58.5t-56 155.5v301zM343 593l71 147h88l-88 -147h-71zM260 740h88l-80 -147h-68z" />
    <glyph glyph-name="Uogonek" unicode="&#x172;" horiz-adv-x="737" 
d="M562 275v425h83v-429q0 -92 -42 -157.5t-115 -100.5q-98 -46 -98 -119q0 -40 39 -40q23 0 52 20l29 -47q-44 -38 -92 -38q-43 0 -68 25t-25 66q0 60 50 108h-6q-125 0 -201.5 77t-76.5 206v429h84v-425q0 -98 51 -152t142 -54q94 0 144 54t50 152z" />
    <glyph glyph-name="uogonek" unicode="&#x173;" horiz-adv-x="639" 
d="M83 508h81v-288q0 -72 36 -111.5t103 -39.5q76 0 120.5 47t44.5 127v265h81v-508q-75 -50 -75 -106q0 -40 40 -40q22 0 51 20l30 -47q-46 -38 -93 -38q-43 0 -68 25t-25 66q0 66 66 120h-6v84q-67 -91 -180 -91q-94 0 -150 58.5t-56 155.5v301z" />
    <glyph glyph-name="Wcircumflex" unicode="&#x174;" horiz-adv-x="1053" 
d="M114 700l183 -597l187 563h86l188 -563l99 321l83 276h87l-218 -700h-99l-182 541l-182 -541h-100l-220 700h88zM371 772l125 127h63l126 -127h-86l-71 74l-71 -74h-86z" />
    <glyph glyph-name="wcircumflex" unicode="&#x175;" horiz-adv-x="856" 
d="M110 508l137 -405l142 383h78l141 -384l139 406h85l-176 -508h-92l-136 372l-137 -372h-91l-176 508h86zM271 593l125 147h63l126 -147h-86l-71 89l-71 -89h-86z" />
    <glyph glyph-name="Ycircumflex" unicode="&#x176;" horiz-adv-x="655" 
d="M117 700l211 -343l211 343h96l-265 -431v-269h-84v269l-266 431h97zM297 899h63l126 -127h-86l-71 74l-71 -74h-86z" />
    <glyph glyph-name="ycircumflex" unicode="&#x177;" horiz-adv-x="561" 
d="M107 508l188 -426l161 426h86l-234 -610q-51 -133 -169 -133q-47 0 -88 18l22 70q26 -11 61 -11q37 0 59 18t41 65l21 53l-236 530h88zM255 740h63l126 -147h-86l-71 89l-71 -89h-86z" />
    <glyph glyph-name="Ydieresis" unicode="&#x178;" horiz-adv-x="655" 
d="M117 700l211 -343l211 343h96l-265 -431v-269h-84v269l-266 431h97zM380 864q15 16 39 16t39 -16t15 -41q0 -24 -15 -40t-39 -16t-39.5 16t-15.5 40q0 25 16 41zM185 823q0 25 15 41t39 16t39.5 -16t15.5 -41q0 -24 -15 -40q-16 -16 -40 -16t-39 16t-15 40z" />
    <glyph glyph-name="Zacute" unicode="&#x179;" horiz-adv-x="593" 
d="M326 899h97l-89 -127h-73zM160 80h390v-80h-498v68l376 553h-365v79h473v-67z" />
    <glyph glyph-name="zacute" unicode="&#x17a;" horiz-adv-x="490" 
d="M266 740h97l-88 -147h-74zM151 71h300v-71h-404v59l290 378h-279v71h382v-58z" />
    <glyph glyph-name="Zdotaccent" unicode="&#x17b;" horiz-adv-x="593" 
d="M52 0v68l376 553h-365v79h473v-67l-376 -553h390v-80h-498zM238 830q0 28 17.5 45t44.5 17t44.5 -17t17.5 -45t-17 -45q-18 -18 -45 -18t-44.5 17.5t-17.5 45.5z" />
    <glyph glyph-name="zdotaccent" unicode="&#x17c;" horiz-adv-x="490" 
d="M47 59l290 378h-279v71h382v-58l-289 -379h300v-71h-404v59zM201 690q17 17 44 17q26 0 43 -17t17 -44t-17 -44t-43 -17q-27 0 -44 17t-17 44t17 44z" />
    <glyph glyph-name="Zcaron" unicode="&#x17d;" horiz-adv-x="593" 
d="M428 621h-365v79h473v-67l-376 -553h390v-80h-498v68zM143 899h86l71 -74l71 74h86l-126 -127h-63z" />
    <glyph glyph-name="zcaron" unicode="&#x17e;" horiz-adv-x="490" 
d="M337 437h-279v71h382v-58l-289 -379h300v-71h-404v59zM88 740h86l71 -89l71 89h86l-126 -147h-63z" />
    <glyph glyph-name="longs" unicode="&#x17f;" horiz-adv-x="400" 
d="M36 508h111v74q0 80 37.5 121.5t106.5 41.5q53 0 108 -26l-27 -65q-39 17 -71 17q-73 0 -73 -92v-579h-81v435h-111v73z" />
    <glyph glyph-name="florin" unicode="&#x192;" horiz-adv-x="429" 
d="M357 669q-79 0 -90 -88l-10 -73h147v-71h-156l-68 -507q-21 -165 -162 -165q-57 0 -106 27l30 67q32 -20 67 -20q79 0 90 88l68 510h-125v71h135l9 70q10 81 52 123t111 42q59 0 106 -27l-31 -66q-31 19 -67 19z" />
    <glyph glyph-name="AEacute" unicode="&#x1fc;" horiz-adv-x="941" 
d="M434 700h442v-78h-319v-224h293v-76h-293v-244h331v-78h-412v159h-273l-94 -159h-94zM246 233h230v384zM562 899h97l-89 -127h-73z" />
    <glyph glyph-name="aeacute" unicode="&#x1fd;" horiz-adv-x="955" 
d="M106 273q57 46 152 46q78 0 160 -32v39q0 63 -35.5 91t-106.5 28q-80 0 -166 -47l-24 67q100 55 191 55q148 0 195 -99q69 99 196 99q120 0 183.5 -81t63.5 -175q0 -24 -4 -50h-414q11 -68 59 -110t117 -42q99 0 166 75l49 -53q-76 -96 -213 -96q-70 0 -125.5 30.5
t-88.5 85.5q-32 -56 -92 -86t-134 -30q-84 0 -135 44.5t-51 116.5q0 77 57 124zM160 86q30 -24 84 -24q75 0 125.5 43t50.5 108v6q-83 31 -153 31q-64 0 -100.5 -26.5t-36.5 -72.5q0 -42 30 -65zM496 284h340q-8 72 -54 117t-116 45q-68 0 -115 -45t-55 -117zM497 740h97
l-88 -147h-74z" />
    <glyph glyph-name="Oslashacute" unicode="&#x1fe;" horiz-adv-x="820" 
d="M154 611q100 101 256 101q79 0 150 -30l64 110l62 -36l-63 -109q68 -49 105.5 -125.5t37.5 -171.5q0 -158 -100.5 -260t-255.5 -102q-80 0 -151 30l-63 -109l-62 35l63 109q-68 49 -105.5 125.5t-37.5 171.5q0 159 100 261zM410 69q119 0 195 78.5t76 202.5
q0 147 -103 226l-278 -486q50 -21 110 -21zM139 350q0 -146 102 -226l279 486q-50 21 -110 21q-119 0 -195 -79t-76 -202zM371 772l65 127h97l-89 -127h-73z" />
    <glyph glyph-name="oslashacute" unicode="&#x1ff;" horiz-adv-x="631" 
d="M49 254q0 117 74.5 191.5t191.5 74.5q61 0 111 -21l50 81l57 -35l-49 -79q98 -76 98 -212q0 -117 -74.5 -191.5t-192.5 -74.5q-61 0 -112 21l-49 -80l-57 34l49 80q-97 75 -97 211zM315 64q82 0 134 53t52 137q0 91 -61 146l-196 -324q33 -12 71 -12zM190 109l196 323
q-33 12 -71 12q-81 0 -133 -53t-52 -137q0 -93 60 -145zM336 740h97l-88 -147h-74z" />
    <glyph glyph-name="uni0218" unicode="&#x218;" horiz-adv-x="598" 
d="M43 90l44 65q97 -82 219 -82q78 0 122.5 29t44.5 80q0 46 -43.5 79t-143.5 62q-115 34 -167 82.5t-52 121.5q0 80 64 130t167 50q138 0 243 -96l-47 -65q-83 81 -198 81q-66 0 -105.5 -26.5t-39.5 -70.5t39.5 -74.5t140.5 -61.5q118 -35 173 -85.5t55 -124.5
q0 -84 -71.5 -137.5t-183.5 -53.5q-152 0 -261 97zM248 -105q0 23 14 38t36 15q27 0 42.5 -18.5t15.5 -50.5q0 -68 -65 -131l-28 27q30 34 38 71q-23 0 -38 14t-15 35z" />
    <glyph glyph-name="uni0219" unicode="&#x219;" horiz-adv-x="480" 
d="M39 65l37 64q83 -61 171 -61q54 0 85 18.5t31 50.5q0 29 -28.5 49.5t-95.5 37.5q-95 24 -137.5 61t-42.5 94q0 63 48 100t131 37q114 0 197 -72l-40 -61q-64 58 -158 58q-46 0 -72 -16.5t-26 -45.5q0 -30 27 -48.5t97 -35.5q94 -24 137.5 -62t43.5 -94q0 -67 -54 -107
t-143 -40q-119 0 -208 73zM208 -67q14 15 36 15q27 0 42.5 -18.5t15.5 -50.5q0 -68 -65 -131l-28 27q30 34 38 71q-23 0 -38 14t-15 35q0 23 14 38z" />
    <glyph glyph-name="uni021A" unicode="&#x21a;" horiz-adv-x="592" 
d="M28 620v80h536v-80h-226v-620h-84v620h-226zM243 -105q0 23 14 38t36 15q27 0 42.5 -18.5t15.5 -50.5q0 -68 -65 -131l-28 27q30 34 38 71q-23 0 -38 14t-15 35z" />
    <glyph glyph-name="uni021B" unicode="&#x21b;" horiz-adv-x="409" 
d="M27 508h99v121h81v-121h158v-71h-158v-276q0 -92 80 -92q36 0 77 20l26 -70q-55 -26 -111 -26q-72 0 -112.5 44t-40.5 120v280h-99v71zM217 -105q0 23 14 38t36 15q27 0 42.5 -18.5t15.5 -50.5q0 -68 -65 -131l-28 27q30 34 38 71q-23 0 -38 14t-15 35z" />
    <glyph glyph-name="uni0237" unicode="&#x237;" horiz-adv-x="262" 
d="M-43 -149q36 -11 65 -11q37 0 53 21.5t16 71.5v575h81v-587q0 -77 -36.5 -117.5t-105.5 -40.5q-43 0 -91 16z" />
    <glyph glyph-name="circumflex" unicode="&#x2c6;" horiz-adv-x="514" 
d="M100 593l125 147h63l126 -147h-86l-71 89l-71 -89h-86z" />
    <glyph glyph-name="caron" unicode="&#x2c7;" horiz-adv-x="514" 
d="M100 740h86l71 -88l71 88h86l-126 -147h-63z" />
    <glyph glyph-name="breve" unicode="&#x2d8;" horiz-adv-x="495" 
d="M100 731l62 12q5 -50 25 -72.5t60 -22.5t60.5 22.5t24.5 72.5l63 -12q-8 -73 -44 -107q-36 -35 -104 -35t-103.5 34.5t-43.5 107.5z" />
    <glyph glyph-name="dotaccent" unicode="&#x2d9;" horiz-adv-x="321" 
d="M117 690q17 17 44 17q26 0 43 -17t17 -44t-17 -44t-43 -17q-27 0 -44 17t-17 44t17 44z" />
    <glyph glyph-name="ring" unicode="&#x2da;" horiz-adv-x="438" 
d="M100 685q0 48 34.5 81t84.5 33t84.5 -33t34.5 -81q0 -49 -34 -82q-35 -33 -85 -33t-84.5 33t-34.5 82zM160 685q0 -26 17 -43q16 -17 42 -17t43 17t17 43q0 25 -17 42t-43 17t-42.5 -17t-16.5 -42z" />
    <glyph glyph-name="ogonek" unicode="&#x2db;" horiz-adv-x="386" 
d="M193 -211q-43 0 -68 25t-25 66q0 85 103 145l37 -25q-75 -50 -75 -106q0 -40 40 -40q22 0 51 20l30 -47q-46 -38 -93 -38z" />
    <glyph glyph-name="tilde" unicode="&#x2dc;" horiz-adv-x="510" 
d="M193 703q26 0 70 -28q34 -20 50 -20q27 0 49 43l48 -27q-33 -78 -93 -78q-25 0 -70 27q-33 21 -50 21q-28 0 -49 -44l-48 28q33 78 93 78z" />
    <glyph glyph-name="hungarumlaut" unicode="&#x2dd;" horiz-adv-x="502" 
d="M314 740h88l-88 -147h-71zM160 740h88l-80 -147h-68z" />
    <glyph glyph-name="gravecomb" unicode="&#x300;" 
d="M-165 740l65 -147h-74l-88 147h97z" />
    <glyph glyph-name="acutecomb" unicode="&#x301;" 
d="M-188 593h-74l65 147h97z" />
    <glyph glyph-name="uni0302" unicode="&#x302;" 
d="M-414 593l125 147h63l126 -147h-86l-71 89l-71 -89h-86z" />
    <glyph glyph-name="tildecomb" unicode="&#x303;" 
d="M-317 703q26 0 70 -28q34 -20 50 -20q27 0 49 43l48 -27q-33 -78 -93 -78q-25 0 -70 27q-33 21 -50 21q-28 0 -49 -44l-48 28q33 78 93 78z" />
    <glyph glyph-name="uni0304" unicode="&#x304;" 
d="M-100 612h-275v61h275v-61z" />
    <glyph glyph-name="uni0306" unicode="&#x306;" 
d="M-395 731l62 12q5 -50 25 -72.5t60 -22.5t60.5 22.5t24.5 72.5l63 -12q-8 -73 -44 -107q-36 -35 -104 -35t-103.5 34.5t-43.5 107.5z" />
    <glyph glyph-name="uni0307" unicode="&#x307;" 
d="M-204 690q17 17 44 17q26 0 43 -17t17 -44t-17 -44t-43 -17q-27 0 -44 17t-17 44t17 44z" />
    <glyph glyph-name="uni0308" unicode="&#x308;" 
d="M-193 684q16 15 39 15t38.5 -15.5t15.5 -39.5t-16 -39q-15 -16 -38 -16t-38.5 15.5t-15.5 39.5t15 40zM-369 684q15 15 39 15q23 0 38 -15.5t15 -39.5t-15 -39.5t-38 -15.5q-24 0 -39 15.5t-15 39.5t15 40z" />
    <glyph glyph-name="uni030A" unicode="&#x30a;" 
d="M-338 685q0 48 34.5 81t84.5 33t84.5 -33t34.5 -81q0 -49 -35 -82q-34 -33 -84 -33t-84.5 33t-34.5 82zM-278 685q0 -26 16 -43q17 -17 43 -17t43 17t17 43q0 25 -17 42t-43 17t-42.5 -17t-16.5 -42z" />
    <glyph glyph-name="uni030B" unicode="&#x30b;" 
d="M-188 740h88l-88 -147h-71zM-342 740h88l-80 -147h-68z" />
    <glyph glyph-name="uni030C" unicode="&#x30c;" 
d="M-414 740h86l71 -88l71 88h86l-126 -147h-63z" />
    <glyph glyph-name="uni0312" unicode="&#x312;" 
d="M-144 773l29 -27q-30 -34 -38 -71q23 0 38 -14t15 -35q0 -23 -14 -38t-36 -15q-27 0 -42.5 18.5t-15.5 50.5q0 67 64 131z" />
    <glyph glyph-name="uni0326" unicode="&#x326;" 
d="M-208 -105q0 23 14 38t36 15q27 0 42.5 -18.5t15.5 -50.5q0 -68 -65 -131l-28 27q30 34 38 71q-23 0 -38 14t-15 35z" />
    <glyph glyph-name="uni0327" unicode="&#x327;" 
d="M-334 -204l29 44q34 -26 77 -26q30 0 46.5 12t16.5 33q0 30 -21.5 36t-36.5 6q-17 0 -36 -5l-16 15l25 108l55 -2l-15 -69q7 1 13 1q40 0 68.5 -23t28.5 -68q0 -46 -35 -73t-89 -27q-63 0 -110 38z" />
    <glyph glyph-name="uni0328" unicode="&#x328;" 
d="M-183 25l37 -25q-75 -50 -75 -106q0 -40 40 -40q22 0 51 20l30 -47q-46 -38 -93 -38q-43 0 -68 25t-25 66q0 85 103 145z" />
    <glyph glyph-name="uni03BC" unicode="&#x3bc;" horiz-adv-x="647" 
d="M475 237v271h81v-508h-79v78q-56 -82 -158 -82q-97 0 -150 65v-291h-78v738h81v-271q0 -82 38.5 -125t110.5 -43q70 0 112 46t42 122z" />
    <glyph glyph-name="pi" unicode="&#x3c0;" horiz-adv-x="628" 
d="M585 75l16 -74q-33 -11 -65 -11q-54 0 -89.5 33t-35.5 103v304h-217v-430h-81v430h-82v78h544v-78h-83v-292q0 -70 56 -70q16 0 37 7z" />
    <glyph glyph-name="uni0400" unicode="&#x400;" horiz-adv-x="598" 
d="M100 700h432v-78h-348v-228h322v-76h-322v-239h361v-79h-445v700zM203 899h97l65 -127h-73z" />
    <glyph glyph-name="uni0401" unicode="&#x401;" horiz-adv-x="598" 
d="M532 700v-78h-348v-228h322v-76h-322v-239h361v-79h-445v700h432zM197 864q15 16 39 16t39.5 -16t15.5 -41q0 -24 -15 -40q-16 -16 -40 -16t-39 16t-15 40q0 25 15 41zM361 823q0 25 15.5 41t39.5 16t39 -16t15 -41q0 -24 -15 -40t-39 -16t-39.5 16t-15.5 40z" />
    <glyph glyph-name="uni0402" unicode="&#x402;" horiz-adv-x="821" 
d="M517 449q118 0 186.5 -62.5t68.5 -167.5q0 -100 -61 -163.5t-157 -63.5q-70 0 -145 36l31 73q58 -29 112 -29q62 0 98 39t36 105q0 72 -46 112t-130 40q-91 0 -176 -44v-324h-84v620h-222v80h575v-80h-269v-212q93 41 183 41z" />
    <glyph glyph-name="uni0403" unicode="&#x403;" horiz-adv-x="536" 
d="M330 899h97l-89 -127h-73zM100 700h412v-80h-328v-620h-84v700z" />
    <glyph glyph-name="uni0404" unicode="&#x404;" horiz-adv-x="732" 
d="M150 610q96 102 245 102q177 0 288 -139l-59 -55q-85 113 -227 113q-103 0 -173.5 -66t-83.5 -172h399v-78h-400q11 -111 82.5 -178.5t179.5 -67.5q70 0 132.5 31t106.5 88l59 -54q-120 -146 -298 -146q-153 0 -250 101.5t-97 260.5q0 158 96 260z" />
    <glyph glyph-name="uni0405" unicode="&#x405;" horiz-adv-x="598" 
d="M87 155q97 -82 219 -82q78 0 122.5 29t44.5 80q0 46 -43.5 79t-143.5 62q-115 34 -167 82.5t-52 121.5q0 80 64 130t167 50q138 0 243 -96l-47 -65q-83 81 -198 81q-66 0 -105.5 -26.5t-39.5 -70.5t39.5 -74.5t140.5 -61.5q118 -35 173 -85.5t55 -124.5
q0 -84 -71.5 -137.5t-183.5 -53.5q-152 0 -261 97z" />
    <glyph glyph-name="uni0406" unicode="&#x406;" horiz-adv-x="283" 
d="M184 0h-84v700h84v-700z" />
    <glyph glyph-name="uni0407" unicode="&#x407;" horiz-adv-x="283" 
d="M100 700h84v-700h-84v700zM176 823q0 25 15.5 41t39.5 16t39 -16t15 -41q0 -24 -15 -40t-39 -16t-39.5 16t-15.5 40zM-3 823q0 25 15 41t39 16t39.5 -16t15.5 -41q0 -24 -15 -40q-16 -16 -40 -16t-39 16t-15 40z" />
    <glyph glyph-name="uni0408" unicode="&#x408;" horiz-adv-x="469" 
d="M12 23l33 71q58 -26 118 -26q131 0 131 173v459h83v-466q0 -120 -55 -183t-159 -63q-71 0 -151 35z" />
    <glyph glyph-name="uni0409" unicode="&#x409;" horiz-adv-x="1088" 
d="M645 444h170q111 0 176 -60t65 -162q0 -103 -65 -162.5t-176 -59.5h-253v620h-290l-24 -346q-10 -134 -59 -197.5t-156 -81.5l-21 77q83 16 114 58t38 150l30 420h451v-256zM645 79h165q78 0 120 36.5t42 106.5q0 69 -42 106t-120 37h-165v-286z" />
    <glyph glyph-name="uni040A" unicode="&#x40a;" horiz-adv-x="1091" 
d="M184 700v-298h379v298h83v-266h173q110 0 175 -58.5t65 -158.5t-65 -158.5t-175 -58.5h-256v321h-379v-321h-84v700h84zM813 79q79 0 120.5 36t41.5 102t-41.5 102t-120.5 36h-167v-276h167z" />
    <glyph glyph-name="uni040B" unicode="&#x40b;" horiz-adv-x="834" 
d="M511 454q121 0 186.5 -68.5t65.5 -195.5v-190h-83v183q0 190 -171 190q-94 0 -175 -40v-333h-84v620h-222v80h573v-80h-267v-203q88 37 177 37z" />
    <glyph glyph-name="uni040C" unicode="&#x40c;" horiz-adv-x="643" 
d="M100 700h84v-307h90l241 307h105l-271 -344l281 -356h-105l-249 315h-92v-315h-84v700zM295 772l65 127h97l-89 -127h-73z" />
    <glyph glyph-name="uni040D" unicode="&#x40d;" horiz-adv-x="770" 
d="M184 700v-558l410 558h77v-700h-84v558l-411 -558h-76v700h84zM363 899l65 -127h-73l-89 127h97z" />
    <glyph glyph-name="uni040E" unicode="&#x40e;" horiz-adv-x="669" 
d="M115 700l236 -443l209 443h92l-285 -594q-29 -63 -68 -90.5t-98 -27.5q-57 0 -102 21l24 76q37 -16 72 -16q34 0 57.5 17t42.5 58l10 20l-284 536h94zM257 903q7 -76 81 -76q72 0 81 76l65 -12q-15 -124 -146 -124q-132 0 -147 124z" />
    <glyph glyph-name="uni040F" unicode="&#x40f;" horiz-adv-x="756" 
d="M573 80v620h83v-700h-237v-163h-81v163h-238v700h84v-620h389z" />
    <glyph glyph-name="uni0410" unicode="&#x410;" horiz-adv-x="703" 
d="M303 700h99l281 -700h-88l-59 150h-368l-60 -150h-87zM198 226h309l-154 386z" />
    <glyph glyph-name="uni0411" unicode="&#x411;" horiz-adv-x="639" 
d="M100 700h448v-79h-364v-189h170q111 0 175.5 -58t64.5 -158t-64.5 -158t-175.5 -58h-254v700zM184 79h165q77 0 119.5 36t42.5 101t-42.5 101.5t-119.5 36.5h-165v-275z" />
    <glyph glyph-name="uni0412" unicode="&#x412;" horiz-adv-x="659" 
d="M100 0v700h280q90 0 146.5 -52t56.5 -135q0 -99 -80 -150q48 -23 75.5 -68.5t27.5 -102.5q0 -86 -59.5 -139t-156.5 -53h-290zM183 320v-242h200q66 0 102.5 32t36.5 89q0 56 -35.5 88.5t-96.5 32.5h-207zM183 622v-228h199q53 0 86 32q32 31 32 82t-34 82.5t-90 31.5
h-193z" />
    <glyph glyph-name="uni0413" unicode="&#x413;" horiz-adv-x="536" 
d="M100 700h412v-80h-328v-620h-84v700z" />
    <glyph glyph-name="uni0414" unicode="&#x414;" horiz-adv-x="787" 
d="M649 700v-620h109v-243h-80v163h-572v-163h-81v243h80q33 28 49.5 70t22.5 122l31 428h441zM286 621l-25 -356q-9 -123 -55 -187h359v543h-279z" />
    <glyph glyph-name="uni0415" unicode="&#x415;" horiz-adv-x="598" 
d="M100 0v700h432v-78h-348v-228h322v-76h-322v-239h361v-79h-445z" />
    <glyph glyph-name="uni0416" unicode="&#x416;" horiz-adv-x="978" 
d="M282 357l-259 343h103l230 -307h92v307h82v-307h92l230 307h103l-259 -343l269 -357h-103l-238 315h-94v-315h-82v315h-94l-238 -315h-103z" />
    <glyph glyph-name="uni0417" unicode="&#x417;" horiz-adv-x="611" 
d="M100 149q85 -76 206 -76q81 0 125 32.5t44 91.5q0 55 -38.5 88t-103.5 33h-147v78h142q56 0 90 32.5t34 85.5t-39.5 83t-109.5 30q-106 0 -193 -76l-48 61q101 95 241 95q108 0 170 -50t62 -136q0 -105 -84 -159q50 -23 79 -69.5t29 -103.5q0 -90 -67.5 -143t-183.5 -53
q-152 0 -256 95z" />
    <glyph glyph-name="uni0418" unicode="&#x418;" horiz-adv-x="770" 
d="M184 700v-558l410 558h77v-700h-84v558l-411 -558h-76v700h84z" />
    <glyph glyph-name="uni0419" unicode="&#x419;" horiz-adv-x="770" 
d="M100 700h84v-558l410 558h77v-700h-84v558l-411 -558h-76v700zM242 891l66 12q7 -76 81 -76q72 0 81 76l65 -12q-15 -124 -146 -124q-132 0 -147 124z" />
    <glyph glyph-name="uni041A" unicode="&#x41a;" horiz-adv-x="643" 
d="M100 0v700h84v-307h90l241 307h105l-271 -344l281 -356h-105l-249 315h-92v-315h-84z" />
    <glyph glyph-name="uni041B" unicode="&#x41b;" horiz-adv-x="758" 
d="M167 280l30 420h461v-700h-84v620h-299l-24 -346q-10 -135 -60.5 -198t-157.5 -81l-21 73q87 21 117.5 62t37.5 150z" />
    <glyph glyph-name="uni041C" unicode="&#x41c;" horiz-adv-x="888" 
d="M100 700h74l270 -354l270 354h74v-700h-83v558l-239 -311h-44l-238 310v-557h-84v700z" />
    <glyph glyph-name="uni041D" unicode="&#x41d;" horiz-adv-x="756" 
d="M100 700h84v-302h389v302h83v-700h-83v317h-389v-317h-84v700z" />
    <glyph glyph-name="uni041E" unicode="&#x41e;" horiz-adv-x="820" 
d="M154 611q100 101 256 101q155 0 255.5 -102t100.5 -260t-100.5 -260t-255.5 -102q-156 0 -256 101.5t-100 260.5t100 261zM215 148q76 -79 195 -79t195 78.5t76 202.5t-76 202.5t-195 78.5t-195 -79t-76 -202q0 -124 76 -202z" />
    <glyph glyph-name="uni041F" unicode="&#x41f;" horiz-adv-x="756" 
d="M656 700v-700h-83v620h-389v-620h-84v700h556z" />
    <glyph glyph-name="uni0420" unicode="&#x420;" horiz-adv-x="614" 
d="M100 700h247q113 0 178.5 -62.5t65.5 -169.5t-66 -169.5t-178 -62.5h-163v-236h-84v700zM342 315q78 0 121.5 40.5t43.5 112.5q0 73 -43 113t-122 40h-159v-306h159z" />
    <glyph glyph-name="uni0421" unicode="&#x421;" horiz-adv-x="733" 
d="M150 610q95 102 246 102q180 0 291 -149l-61 -52q-39 57 -100 88.5t-130 31.5q-114 0 -185.5 -79t-71.5 -202t72 -202t188 -79q74 0 137.5 33t105.5 93l61 -50q-114 -157 -304 -157q-153 0 -249 102t-96 260q0 157 96 260z" />
    <glyph glyph-name="uni0422" unicode="&#x422;" horiz-adv-x="592" 
d="M28 620v80h536v-80h-226v-620h-84v620h-226z" />
    <glyph glyph-name="uni0423" unicode="&#x423;" horiz-adv-x="669" 
d="M115 700l236 -443l209 443h92l-285 -594q-29 -63 -68 -90.5t-98 -27.5q-57 0 -102 21l24 76q37 -16 72 -16q34 0 57.5 17t42.5 58l10 20l-284 536h94z" />
    <glyph glyph-name="uni0424" unicode="&#x424;" horiz-adv-x="828" 
d="M775 350q0 -134 -88.5 -216t-230.5 -88v-103h-84v103q-142 6 -230 88t-88 216t88 216t230 88v102h84v-102q142 -6 230.5 -88t88.5 -216zM139 350q0 -99 64 -158t170 -64v444q-106 -5 -170 -64t-64 -158zM455 572v-444q106 5 170.5 64t64.5 158t-64.5 158t-170.5 64z" />
    <glyph glyph-name="uni0425" unicode="&#x425;" horiz-adv-x="640" 
d="M269 363l-235 337h100l104 -146l84 -123l83 123l103 146h100l-234 -339l252 -361h-101l-106 149l-98 144l-99 -144l-107 -149h-101z" />
    <glyph glyph-name="uni0426" unicode="&#x426;" horiz-adv-x="794" 
d="M656 700v-620h110v-243h-81v163h-585v700h84v-620h389v620h83z" />
    <glyph glyph-name="uni0427" unicode="&#x427;" horiz-adv-x="685" 
d="M59 700h84v-203q0 -194 177 -194q97 0 182 41v356h84v-700h-84v261q-94 -39 -184 -39q-124 0 -191.5 69.5t-67.5 197.5v211z" />
    <glyph glyph-name="uni0428" unicode="&#x428;" horiz-adv-x="1189" 
d="M1006 80v620h83v-700h-989v700h84v-620h369v620h83v-620h370z" />
    <glyph glyph-name="uni0429" unicode="&#x429;" horiz-adv-x="1227" 
d="M1089 700v-620h109v-243h-81v163h-1017v700h84v-620h369v620h83v-620h370v620h83z" />
    <glyph glyph-name="uni042A" unicode="&#x42a;" horiz-adv-x="766" 
d="M316 700v-256h177q110 0 175 -60t65 -162q0 -103 -65 -162.5t-175 -59.5h-261v620h-209v80h293zM315 365v-286h172q80 0 121 37t41 106q0 68 -41.5 105.5t-120.5 37.5h-172z" />
    <glyph glyph-name="uni042B" unicode="&#x42b;" horiz-adv-x="916" 
d="M100 700h84v-256h176q111 0 176 -60t65 -162q0 -103 -65 -162.5t-176 -59.5h-260v700zM183 365v-286h172q79 0 120.5 37t41.5 106q0 68 -41.5 105.5t-120.5 37.5h-172zM733 700h84v-700h-84v700z" />
    <glyph glyph-name="uni042C" unicode="&#x42c;" horiz-adv-x="633" 
d="M184 700v-256h176q111 0 176 -60t65 -162q0 -103 -65 -162.5t-176 -59.5h-260v700h84zM183 365v-286h172q79 0 120.5 37t41.5 106q0 68 -41.5 105.5t-120.5 37.5h-172z" />
    <glyph glyph-name="uni042D" unicode="&#x42d;" horiz-adv-x="732" 
d="M92 188q44 -57 106.5 -88t132.5 -31q108 0 179.5 67.5t82.5 178.5h-400v78h399q-13 106 -83.5 172t-173.5 66q-142 0 -227 -113l-59 55q111 139 288 139q149 0 245 -102t96 -260q0 -159 -97 -260.5t-250 -101.5q-178 0 -298 146z" />
    <glyph glyph-name="uni042E" unicode="&#x42e;" horiz-adv-x="1082" 
d="M100 700h84v-303h145q16 141 112 228t237 87q153 0 252 -102t99 -260t-99 -260t-252 -102q-145 0 -242 91.5t-108 237.5h-144v-317h-84v700zM486 148q74 -79 191 -79t191.5 78.5t74.5 202.5t-74.5 202.5t-191.5 78.5t-191.5 -79t-74.5 -202q0 -124 75 -202z" />
    <glyph glyph-name="uni042F" unicode="&#x42f;" horiz-adv-x="670" 
d="M43 0l176 270q-73 20 -115.5 76.5t-42.5 133.5q0 97 65.5 158.5t168.5 61.5h275v-700h-84v260h-178l-167 -260h-98zM144 478q0 -66 41 -104t113 -38h190v285h-190q-72 0 -113 -38t-41 -105z" />
    <glyph glyph-name="uni0430" unicode="&#x430;" horiz-adv-x="583" 
d="M106 273q57 46 152 46q82 0 163 -30v37q0 59 -35 87t-109 28q-78 0 -167 -43l-24 67q102 51 197 51q105 0 161.5 -49t56.5 -140v-327h-78l-1 80q-30 -40 -81 -63.5t-110 -23.5q-82 0 -132 43t-50 114q0 77 57 123zM130 154q0 -42 30.5 -66t85.5 -24q77 0 126.5 43.5
t49.5 107.5v6q-89 29 -155 29q-65 0 -101 -25.5t-36 -70.5z" />
    <glyph glyph-name="uni0431" unicode="&#x431;" horiz-adv-x="630" 
d="M329 515q112 0 182 -73.5t70 -189.5t-74.5 -190t-190.5 -74q-121 0 -192.5 80.5t-71.5 226.5q0 226 66 323.5t228 125.5q143 25 191 50l27 -70q-32 -18 -71 -28.5t-131 -26.5q-119 -20 -168 -75.5t-58 -171.5q67 93 193 93zM316 64q82 0 133 52.5t51 135.5t-51 135.5
t-133 52.5q-81 0 -132 -52.5t-51 -135.5t51 -135.5t132 -52.5z" />
    <glyph glyph-name="uni0432" unicode="&#x432;" horiz-adv-x="561" 
d="M433 263q38 -15 59.5 -47.5t21.5 -74.5q0 -63 -48 -102t-125 -39h-250v508h243q74 0 118.5 -36t44.5 -96q0 -76 -64 -113zM417 367q0 35 -22.5 55t-62.5 20h-161v-151h161q40 0 62.5 20.5t22.5 55.5zM171 66h168q46 0 70.5 21.5t24.5 59.5t-25 59t-70 21h-168v-161z" />
    <glyph glyph-name="uni0433" unicode="&#x433;" horiz-adv-x="448" 
d="M91 508h335v-75h-254v-433h-81v508z" />
    <glyph glyph-name="uni0434" unicode="&#x434;" horiz-adv-x="670" 
d="M547 508v-433h97v-225h-77v150h-467v-150h-77v225h66q26 24 39 59.5t17 98.5l22 275h380zM467 433h-225l-16 -207q-8 -99 -42 -152h283v359z" />
    <glyph glyph-name="uni0435" unicode="&#x435;" horiz-adv-x="598" 
d="M121 445q71 75 183 75q123 0 188.5 -80.5t65.5 -176.5q0 -24 -4 -49h-425q10 -67 60 -109.5t122 -42.5q101 0 171 75l49 -53q-81 -96 -221 -96q-117 0 -189 74t-72 192q0 116 72 191zM129 284h350q-8 72 -55.5 117t-119.5 45q-70 0 -118.5 -45t-56.5 -117z" />
    <glyph glyph-name="uni0436" unicode="&#x436;" horiz-adv-x="802" 
d="M12 0l203 262l-192 246h98l161 -208h78v208h81v-208h78l161 208h98l-191 -246l203 -262h-100l-174 226h-75v-226h-81v226h-75l-174 -226h-99z" />
    <glyph glyph-name="uni0437" unicode="&#x437;" horiz-adv-x="493" 
d="M363 266q40 -17 61.5 -50t21.5 -74q0 -68 -56 -109t-150 -41q-121 0 -210 75l43 60q75 -59 165 -59q59 0 93 21.5t34 59.5q0 34 -28.5 54.5t-76.5 20.5h-113v73h110q40 0 64.5 19.5t24.5 52.5q0 73 -111 73q-77 0 -153 -53l-41 59q90 69 200 69q90 0 138 -38.5t48 -100.5
q0 -71 -64 -112z" />
    <glyph glyph-name="uni0438" unicode="&#x438;" horiz-adv-x="650" 
d="M171 508v-384l313 384h75v-508h-80v385l-314 -385h-74v508h80z" />
    <glyph glyph-name="uni0439" unicode="&#x439;" horiz-adv-x="650" 
d="M171 508v-384l313 384h75v-508h-80v385l-314 -385h-74v508h80zM178 731l62 12q5 -50 25 -72.5t60 -22.5t60.5 22.5t24.5 72.5l63 -12q-8 -73 -44 -107q-36 -35 -104 -35t-103.5 34.5t-43.5 107.5z" />
    <glyph glyph-name="uni043A" unicode="&#x43a;" horiz-adv-x="540" 
d="M91 0v508h81v-208h78l168 208h98l-199 -247l211 -261h-100l-181 226h-75v-226h-81z" />
    <glyph glyph-name="uni043B" unicode="&#x43b;" horiz-adv-x="626" 
d="M134 219l23 289h379v-508h-81v433h-223l-17 -221q-8 -105 -48 -153t-136 -67l-20 71q68 18 92 47.5t31 108.5z" />
    <glyph glyph-name="uni043C" unicode="&#x43c;" horiz-adv-x="732" 
d="M366 244l201 264h74v-508h-80v384l-174 -230h-41l-175 230v-384h-80v508h74z" />
    <glyph glyph-name="uni043D" unicode="&#x43d;" horiz-adv-x="642" 
d="M470 301v207h81v-508h-81v225h-298v-225h-81v508h81v-207h298z" />
    <glyph glyph-name="uni043E" unicode="&#x43e;" horiz-adv-x="631" 
d="M124 446q74 74 191 74q118 0 192.5 -74.5t74.5 -191.5t-74.5 -191.5t-192.5 -74.5q-117 0 -191.5 74.5t-74.5 191.5t75 192zM130 254q0 -84 52 -137t133 -53q82 0 134 53t52 137t-52 137t-134 53q-81 0 -133 -53t-52 -137z" />
    <glyph glyph-name="uni043F" unicode="&#x43f;" horiz-adv-x="642" 
d="M551 508v-508h-81v433h-298v-433h-81v508h460z" />
    <glyph glyph-name="uni0440" unicode="&#x440;" horiz-adv-x="669" 
d="M91 508h79v-85q73 97 198 97q110 0 181.5 -74.5t71.5 -191.5t-71.5 -191.5t-181.5 -74.5q-126 0 -196 94v-312h-81v738zM222 118q52 -54 133 -54t133 53t52 137t-52 137t-133 53t-133 -53t-52 -137q0 -83 52 -136z" />
    <glyph glyph-name="uni0441" unicode="&#x441;" horiz-adv-x="554" 
d="M122 445q72 75 185 75q133 0 208 -95l-50 -51q-61 70 -157 70q-79 0 -128.5 -53t-49.5 -137q0 -85 49 -137.5t130 -52.5q104 0 163 78l54 -50q-33 -49 -91.5 -76.5t-127.5 -27.5q-113 0 -185.5 75t-72.5 191t73 191z" />
    <glyph glyph-name="uni0442" unicode="&#x442;" horiz-adv-x="500" 
d="M25 508h450v-75h-184v-433h-81v433h-185v75z" />
    <glyph glyph-name="uni0443" unicode="&#x443;" horiz-adv-x="561" 
d="M107 508l188 -426l161 426h86l-234 -610q-51 -133 -169 -133q-47 0 -88 18l22 70q26 -11 61 -11q37 0 59 18t41 65l21 53l-236 530h88z" />
    <glyph glyph-name="uni0444" unicode="&#x444;" horiz-adv-x="704" 
d="M655 254q0 -113 -72 -186t-190 -79v-219h-81v218q-118 6 -190.5 79.5t-72.5 186.5t72.5 186.5t190.5 79.5v220h81v-221q118 -6 190 -79t72 -186zM130 254q0 -80 50 -132t133 -57v378q-83 -5 -133 -57t-50 -132zM391 443v-378q83 5 133 57t50 132t-50 132t-133 57z" />
    <glyph glyph-name="uni0445" unicode="&#x445;" horiz-adv-x="512" 
d="M13 0l192 258l-182 250h96l137 -188l136 188h96l-181 -250l192 -258h-98l-145 197l-146 -197h-97z" />
    <glyph glyph-name="uni0446" unicode="&#x446;" horiz-adv-x="674" 
d="M551 508v-433h97v-225h-77v150h-480v508h81v-433h298v433h81z" />
    <glyph glyph-name="uni0447" unicode="&#x447;" horiz-adv-x="571" 
d="M134 508v-140q0 -140 131 -140q65 0 135 31v249h81v-508h-81v178q-71 -27 -141 -27q-99 0 -152.5 54.5t-53.5 155.5v147h81z" />
    <glyph glyph-name="uni0448" unicode="&#x448;" horiz-adv-x="993" 
d="M821 75v433h81v-508h-811v508h81v-433h285v433h79v-433h285z" />
    <glyph glyph-name="uni0449" unicode="&#x449;" horiz-adv-x="1024" 
d="M902 508v-433h96v-225h-76v150h-831v508h81v-433h285v433h79v-433h285v433h81z" />
    <glyph glyph-name="uni044A" unicode="&#x44a;" horiz-adv-x="630" 
d="M268 348h142q91 0 142 -46.5t51 -127.5t-51 -127.5t-142 -46.5h-223v433h-166v75h247v-160zM268 74h141q54 0 83.5 26.5t29.5 74.5q0 47 -29.5 73.5t-83.5 26.5h-141v-201z" />
    <glyph glyph-name="uni044B" unicode="&#x44b;" horiz-adv-x="796" 
d="M91 508h81v-160h142q91 0 142 -46.5t51 -127.5t-51 -127.5t-142 -46.5h-223v508zM171 275v-201h142q54 0 83.5 26.5t29.5 74.5q0 47 -29.5 73.5t-83.5 26.5h-142zM625 508h81v-508h-81v508z" />
    <glyph glyph-name="uni044C" unicode="&#x44c;" horiz-adv-x="534" 
d="M172 508v-160h142q91 0 142 -46.5t51 -127.5t-51 -127.5t-142 -46.5h-223v508h81zM171 275v-201h142q54 0 83.5 26.5t29.5 74.5q0 47 -29.5 73.5t-83.5 26.5h-142z" />
    <glyph glyph-name="uni044D" unicode="&#x44d;" horiz-adv-x="556" 
d="M84 137q59 -73 161 -73q72 0 120 42t59 113h-269v74h268q-11 68 -59 109.5t-118 41.5q-95 0 -155 -65l-49 56q74 85 206 85q114 0 186.5 -74.5t72.5 -191.5t-73 -191.5t-188 -74.5q-66 0 -123 26t-92 70z" />
    <glyph glyph-name="uni044E" unicode="&#x44e;" horiz-adv-x="875" 
d="M91 508h81v-212h127q14 100 85.5 162t176.5 62q117 0 191 -74.5t74 -191.5t-74 -191.5t-191 -74.5q-108 0 -180 64.5t-83 168.5h-126v-221h-81v508zM376 254q0 -84 51.5 -137t132.5 -53q82 0 133.5 53t51.5 137t-51.5 137t-133.5 53q-81 0 -132.5 -53t-51.5 -137z" />
    <glyph glyph-name="uni044F" unicode="&#x44f;" horiz-adv-x="559" 
d="M240 508h229v-508h-81v179h-139l-118 -179h-92l125 190q-52 17 -81 57t-29 97q0 75 50.5 119.5t135.5 44.5zM135 343q0 -45 29 -70t82 -25h143v190h-143q-52 0 -81.5 -25.5t-29.5 -69.5z" />
    <glyph glyph-name="uni0450" unicode="&#x450;" horiz-adv-x="598" 
d="M121 445q71 75 183 75q123 0 188.5 -80.5t65.5 -176.5q0 -24 -4 -49h-425q10 -67 60 -109.5t122 -42.5q101 0 171 75l49 -53q-81 -96 -221 -96q-117 0 -189 74t-72 192q0 116 72 191zM129 284h350q-8 72 -55.5 117t-119.5 45q-70 0 -118.5 -45t-56.5 -117zM284 740
l65 -147h-74l-88 147h97z" />
    <glyph glyph-name="uni0451" unicode="&#x451;" horiz-adv-x="598" 
d="M121 445q71 75 183 75q123 0 188.5 -80.5t65.5 -176.5q0 -24 -4 -49h-425q10 -67 60 -109.5t122 -42.5q101 0 171 75l49 -53q-81 -96 -221 -96q-117 0 -189 74t-72 192q0 116 72 191zM129 284h350q-8 72 -55.5 117t-119.5 45q-70 0 -118.5 -45t-56.5 -117zM339 644
q0 24 15.5 39.5t38.5 15.5t38.5 -15.5t15.5 -39.5t-15 -39q-16 -16 -39 -16t-38.5 15.5t-15.5 39.5zM178 684q15 15 39 15q23 0 38 -15.5t15 -39.5t-15 -39.5t-38 -15.5q-24 0 -39 15.5t-15 39.5t15 40z" />
    <glyph glyph-name="uni0452" unicode="&#x452;" horiz-adv-x="646" 
d="M357 515q94 0 150 -58.5t56 -154.5v-381q0 -77 -36.5 -117.5t-104.5 -40.5q-43 0 -91 16l18 71q39 -12 64 -12q37 0 53 22t16 72v356q0 72 -36 111.5t-103 39.5q-76 0 -120.5 -46.5t-44.5 -125.5v-267h-81v587h-92v62h92v91h81v-91h172v-62h-172v-158q66 86 179 86z" />
    <glyph glyph-name="uni0453" unicode="&#x453;" horiz-adv-x="448" 
d="M272 740h97l-88 -147h-74zM91 508h335v-75h-254v-433h-81v508z" />
    <glyph glyph-name="uni0454" unicode="&#x454;" horiz-adv-x="556" 
d="M122 446q72 74 186 74q132 0 206 -85l-49 -56q-60 65 -155 65q-70 0 -118 -41.5t-59 -109.5h268v-74h-269q11 -71 59 -113t120 -42q102 0 161 73l53 -53q-35 -44 -92 -70t-123 -26q-115 0 -188 74.5t-73 191.5t73 192z" />
    <glyph glyph-name="uni0455" unicode="&#x455;" horiz-adv-x="480" 
d="M76 129q83 -61 171 -61q54 0 85 18.5t31 50.5q0 29 -28.5 49.5t-95.5 37.5q-95 24 -137.5 61t-42.5 94q0 63 48 100t131 37q114 0 197 -72l-40 -61q-64 58 -158 58q-46 0 -72 -16.5t-26 -45.5q0 -30 27 -48.5t97 -35.5q94 -24 137.5 -62t43.5 -94q0 -67 -54 -107
t-143 -40q-119 0 -208 73z" />
    <glyph glyph-name="uni0456" unicode="&#x456;" horiz-adv-x="262" 
d="M91 508h81v-508h-81v508zM86 696q17 17 45 17q27 0 44.5 -17.5t17.5 -45.5t-17.5 -45.5t-44.5 -17.5q-28 0 -45.5 17.5t-17.5 45.5t18 46z" />
    <glyph glyph-name="uni0457" unicode="&#x457;" horiz-adv-x="262" 
d="M91 508h81v-508h-81v508zM177 684q15 15 38 15q24 0 38.5 -15.5t14.5 -39.5t-14.5 -39.5t-38.5 -15.5q-23 0 -38 15.5t-15 39.5t15 40zM-6 644q0 24 15 39.5t38 15.5t38 -15.5t15 -39.5t-15 -39q-15 -16 -38 -16t-38 15.5t-15 39.5z" />
    <glyph glyph-name="uni0458" unicode="&#x458;" horiz-adv-x="262" 
d="M-61 -221l18 72q36 -11 65 -11q37 0 53 21.5t16 71.5v575h81v-587q0 -77 -36.5 -117.5t-105.5 -40.5q-43 0 -91 16zM86 696q17 17 45 17q27 0 44.5 -17.5t17.5 -45.5t-17.5 -45.5t-44.5 -17.5q-28 0 -45.5 17.5t-17.5 45.5t18 46z" />
    <glyph glyph-name="uni0459" unicode="&#x459;" horiz-adv-x="884" 
d="M531 348h140q87 0 136.5 -47t49.5 -127q0 -82 -49 -128t-137 -46h-221v433h-218l-17 -221q-8 -105 -48 -153t-136 -67l-20 71q68 18 92 47.5t31 108.5l23 289h374v-160zM530 74h140q51 0 78.5 26t27.5 75q0 46 -28 73t-78 27h-140v-201z" />
    <glyph glyph-name="uni045A" unicode="&#x45a;" horiz-adv-x="893" 
d="M540 334h139q87 0 137 -45t50 -122t-50 -122t-137 -45h-220v229h-287v-229h-81v508h81v-204h287v204h81v-174zM539 74h140q50 0 78 25t28 69q0 43 -28 68t-78 25h-140v-187z" />
    <glyph glyph-name="uni045B" unicode="&#x45b;" horiz-adv-x="646" 
d="M357 515q93 0 149.5 -58t56.5 -154v-303h-81v290q0 71 -36 110t-103 39q-76 0 -120.5 -46.5t-44.5 -125.5v-267h-81v587h-92v62h92v91h81v-91h172v-62h-172v-161q63 89 179 89z" />
    <glyph glyph-name="uni045C" unicode="&#x45c;" horiz-adv-x="540" 
d="M172 508v-208h78l168 208h98l-199 -247l211 -261h-100l-181 226h-75v-226h-81v508h81zM306 740h97l-88 -147h-74z" />
    <glyph glyph-name="uni045D" unicode="&#x45d;" horiz-adv-x="650" 
d="M171 508v-384l313 384h75v-508h-80v385l-314 -385h-74v508h80zM304 740l65 -147h-74l-88 147h97z" />
    <glyph glyph-name="uni045E" unicode="&#x45e;" horiz-adv-x="561" 
d="M19 508h88l188 -426l161 426h86l-234 -610q-51 -133 -169 -133q-47 0 -88 18l22 70q26 -11 61 -11q37 0 59 18t41 65l21 53zM201 743q5 -50 25 -72.5t60 -22.5t60.5 22.5t24.5 72.5l63 -12q-8 -73 -44 -107q-36 -35 -104 -35t-103.5 34.5t-43.5 107.5z" />
    <glyph glyph-name="uni045F" unicode="&#x45f;" horiz-adv-x="642" 
d="M470 75v433h81v-508h-191v-150h-78v150h-191v508h81v-433h298z" />
    <glyph glyph-name="uni0490" unicode="&#x490;" horiz-adv-x="536" 
d="M429 700v155h83v-235h-328v-620h-84v700h329z" />
    <glyph glyph-name="uni0491" unicode="&#x491;" horiz-adv-x="448" 
d="M346 508v159h80v-234h-254v-433h-81v508h255z" />
    <glyph glyph-name="uni04D4" unicode="&#x4d4;" horiz-adv-x="941" 
d="M434 700h442v-78h-319v-224h293v-76h-293v-244h331v-78h-412v159h-273l-94 -159h-94zM246 233h230v384z" />
    <glyph glyph-name="uni04D5" unicode="&#x4d5;" horiz-adv-x="955" 
d="M106 273q57 46 152 46q78 0 160 -32v39q0 63 -35.5 91t-106.5 28q-80 0 -166 -47l-24 67q100 55 191 55q148 0 195 -99q69 99 196 99q120 0 183.5 -81t63.5 -175q0 -24 -4 -50h-414q11 -68 59 -110t117 -42q99 0 166 75l49 -53q-76 -96 -213 -96q-70 0 -125.5 30.5
t-88.5 85.5q-32 -56 -92 -86t-134 -30q-84 0 -135 44.5t-51 116.5q0 77 57 124zM130 151q0 -42 30 -65.5t84 -23.5q75 0 125.5 43t50.5 108v6q-83 31 -153 31q-64 0 -100.5 -26.5t-36.5 -72.5zM836 284q-8 72 -54 117t-116 45q-68 0 -115 -45t-55 -117h340z" />
    <glyph glyph-name="Wgrave" unicode="&#x1e80;" horiz-adv-x="1053" 
d="M114 700l183 -597l187 563h86l188 -563l99 321l83 276h87l-218 -700h-99l-182 541l-182 -541h-100l-220 700h88zM501 899l65 -127h-73l-89 127h97z" />
    <glyph glyph-name="wgrave" unicode="&#x1e81;" horiz-adv-x="856" 
d="M110 508l137 -405l142 383h78l141 -384l139 406h85l-176 -508h-92l-136 372l-137 -372h-91l-176 508h86zM407 740l65 -147h-74l-88 147h97z" />
    <glyph glyph-name="Wacute" unicode="&#x1e82;" horiz-adv-x="1053" 
d="M114 700l183 -597l187 563h86l188 -563l99 321l83 276h87l-218 -700h-99l-182 541l-182 -541h-100l-220 700h88zM553 899h97l-89 -127h-73z" />
    <glyph glyph-name="wacute" unicode="&#x1e83;" horiz-adv-x="856" 
d="M110 508l137 -405l142 383h78l141 -384l139 406h85l-176 -508h-92l-136 372l-137 -372h-91l-176 508h86zM384 593l65 147h97l-88 -147h-74z" />
    <glyph glyph-name="Wdieresis" unicode="&#x1e84;" horiz-adv-x="1053" 
d="M114 700l183 -597l187 563h86l188 -563l99 321l83 276h87l-218 -700h-99l-182 541l-182 -541h-100l-220 700h88zM399 864q15 16 39 16t39.5 -16t15.5 -41q0 -24 -15 -40q-16 -16 -40 -16t-39 16t-15 40q0 25 15 41zM579 864q15 16 39 16t39 -16t15 -41q0 -24 -15 -40
t-39 -16t-39.5 16t-15.5 40q0 25 16 41z" />
    <glyph glyph-name="wdieresis" unicode="&#x1e85;" horiz-adv-x="856" 
d="M24 508h86l137 -405l142 383h78l141 -384l139 406h85l-176 -508h-92l-136 372l-137 -372h-91zM462 644q0 24 15.5 39.5t38.5 15.5t38.5 -15.5t15.5 -39.5t-15 -39q-16 -16 -39 -16t-38.5 15.5t-15.5 39.5zM286 644q0 24 15 39.5t39 15.5q23 0 38 -15.5t15 -39.5
t-15 -39.5t-38 -15.5q-24 0 -39 15.5t-15 39.5z" />
    <glyph glyph-name="Germandbls" unicode="&#x1e9e;" horiz-adv-x="709" 
d="M91 0v435q0 125 62.5 195t187.5 70h261v-64l-162 -213q100 -8 158 -66.5t58 -151.5q0 -96 -63 -155t-167 -59q-102 0 -173 46l37 67q56 -35 128 -35q71 0 112 38t41 101q0 79 -53 111t-121 32q-20 0 -43 -3l-24 53l169 222h-161q-80 0 -121.5 -47.5t-41.5 -136.5v-439
h-84z" />
    <glyph glyph-name="Ygrave" unicode="&#x1ef2;" horiz-adv-x="655" 
d="M117 700l211 -343l211 343h96l-265 -431v-269h-84v269l-266 431h97zM303 899l65 -127h-73l-89 127h97z" />
    <glyph glyph-name="ygrave" unicode="&#x1ef3;" horiz-adv-x="561" 
d="M107 508l188 -426l161 426h86l-234 -610q-51 -133 -169 -133q-47 0 -88 18l22 70q26 -11 61 -11q37 0 59 18t41 65l21 53l-236 530h88zM169 740h97l65 -147h-74z" />
    <glyph glyph-name="uni2009" unicode="&#x2009;" horiz-adv-x="194" 
 />
    <glyph glyph-name="uni200B" unicode="&#x200b;" 
 />
    <glyph glyph-name="endash" unicode="&#x2013;" horiz-adv-x="540" 
d="M493 306v-70h-445v70h445z" />
    <glyph glyph-name="emdash" unicode="&#x2014;" horiz-adv-x="672" 
d="M623 306v-70h-575v70h575z" />
    <glyph glyph-name="quoteleft" unicode="&#x2018;" horiz-adv-x="234" 
d="M119 635q23 0 38.5 -15.5t15.5 -38.5t-15.5 -38t-38.5 -15q-27 0 -43 21t-16 56q0 99 78 169l30 -28q-47 -54 -51 -111h2z" />
    <glyph glyph-name="quoteright" unicode="&#x2019;" horiz-adv-x="234" 
d="M115 768q27 0 42.5 -21t15.5 -56q0 -100 -78 -169l-29 28q46 55 50 111h-1q-23 0 -39 15.5t-16 38.5t15.5 38t39.5 15z" />
    <glyph glyph-name="quotesinglbase" unicode="&#x201a;" horiz-adv-x="234" 
d="M115 107q27 0 42.5 -21t15.5 -56q0 -101 -78 -170l-29 29q45 53 50 110h-1q-23 0 -39 16t-16 39t15.5 38t39.5 15z" />
    <glyph glyph-name="quotedblleft" unicode="&#x201c;" horiz-adv-x="407" 
d="M119 635q23 0 38.5 -15.5t15.5 -38.5t-15.5 -38t-38.5 -15q-27 0 -43 21t-16 56q0 99 78 169l30 -28q-47 -54 -51 -111h2zM292 635q23 0 38.5 -15.5t15.5 -38.5t-15.5 -38t-38.5 -15q-27 0 -43 21t-16 56q0 99 78 169l30 -28q-47 -54 -51 -111h2z" />
    <glyph glyph-name="quotedblright" unicode="&#x201d;" horiz-adv-x="407" 
d="M115 768q27 0 42.5 -21t15.5 -56q0 -100 -78 -169l-29 28q46 55 50 111h-1q-23 0 -39 15.5t-16 38.5t15.5 38t39.5 15zM288 768q27 0 42.5 -21t15.5 -56q0 -100 -78 -169l-29 28q46 55 50 111h-1q-23 0 -39 15.5t-16 38.5t15.5 38t39.5 15z" />
    <glyph glyph-name="quotedblbase" unicode="&#x201e;" horiz-adv-x="407" 
d="M115 107q27 0 42.5 -21t15.5 -56q0 -101 -78 -170l-29 29q45 53 50 110h-1q-23 0 -39 16t-16 39t15.5 38t39.5 15zM288 107q27 0 42.5 -21t15.5 -56q0 -101 -78 -170l-29 29q45 53 50 110h-1q-23 0 -39 16t-16 39t15.5 38t39.5 15z" />
    <glyph glyph-name="dagger" unicode="&#x2020;" horiz-adv-x="532" 
d="M304 373h171v-70h-171v-533h-76v533h-171v70h171v248h76v-248z" />
    <glyph glyph-name="daggerdbl" unicode="&#x2021;" horiz-adv-x="532" 
d="M475 392v-70h-171v-219h171v-70h-171v-263h-76v263h-171v70h171v219h-171v70h171v229h76v-229h171z" />
    <glyph glyph-name="bullet" unicode="&#x2022;" horiz-adv-x="339" 
d="M169 188q-42 0 -71 27.5t-29 70.5t29 70.5t71 27.5q43 0 72 -27.5t29 -70.5t-29 -70.5t-72 -27.5z" />
    <glyph glyph-name="ellipsis" unicode="&#x2026;" horiz-adv-x="636" 
d="M118 -10q-25 0 -42 16t-17 41t17.5 41.5t41.5 16.5t41.5 -16.5t17.5 -41.5t-17 -41t-42 -16zM318 -10q-25 0 -42 16t-17 41t17.5 41.5t41.5 16.5t41.5 -16.5t17.5 -41.5t-17 -41t-42 -16zM518 -10q-25 0 -42 16t-17 41t17.5 41.5t41.5 16.5t41.5 -16.5t17.5 -41.5
t-17 -41t-42 -16z" />
    <glyph glyph-name="perthousand" unicode="&#x2030;" horiz-adv-x="1150" 
d="M659 682l-494 -697l-48 34l495 696zM184 394q-69 0 -113.5 44t-44.5 112t44.5 111.5t113.5 43.5q68 0 112 -43.5t44 -111.5t-44 -112t-112 -44zM184 452q42 0 68.5 27.5t26.5 70.5q0 42 -26.5 69.5t-68.5 27.5q-43 0 -70 -27.5t-27 -69.5q0 -43 27 -70.5t70 -27.5z
M594 -5q-69 0 -113.5 43.5t-44.5 111.5t44.5 112t113.5 44t112.5 -44t43.5 -112t-43.5 -111.5t-112.5 -43.5zM980 -5q-68 0 -112 43t-44 110t44 110.5t112 43.5t111 -43t43 -111q0 -67 -43.5 -110t-110.5 -43zM594 53q42 0 69 27.5t27 69.5q0 43 -26.5 70.5t-69.5 27.5
t-70 -27.5t-27 -70.5q0 -42 27 -69.5t70 -27.5zM980 49q43 0 70 28t27 71q0 44 -27 72t-70 28t-70.5 -28t-27.5 -72q0 -43 27.5 -71t70.5 -28z" />
    <glyph glyph-name="minute" unicode="&#x2032;" horiz-adv-x="209" 
d="M107 450h-66l58 310h73z" />
    <glyph glyph-name="second" unicode="&#x2033;" horiz-adv-x="369" 
d="M105 450h-64l54 310h71zM265 450h-65l61 310h71z" />
    <glyph glyph-name="guilsinglleft" unicode="&#x2039;" horiz-adv-x="391" 
d="M268 535l55 -48l-172 -206l172 -209l-55 -47l-214 256z" />
    <glyph glyph-name="guilsinglright" unicode="&#x203a;" horiz-adv-x="391" 
d="M68 489l55 47l213 -256l-213 -254l-55 48l172 206z" />
    <glyph glyph-name="uni203D" unicode="&#x203d;" horiz-adv-x="497" 
d="M249 711q95 0 153.5 -50.5t58.5 -133.5q0 -53 -26 -95.5t-91 -95.5q-38 -30 -51 -55t-13 -67v-52h-79l-4 284v100h76v-100l-1 -81q14 14 29 24q81 55 81 132q0 55 -37.5 86.5t-102.5 31.5q-52 0 -96.5 -27t-73.5 -77l-55 43q78 133 232 133zM240 105q25 0 42 -16.5
t17 -41.5q0 -24 -17 -40.5t-42 -16.5t-42 16.5t-17 40.5q0 25 17 41.5t42 16.5z" />
    <glyph glyph-name="fraction" unicode="&#x2044;" horiz-adv-x="213" 
d="M381 704l-494 -738l-55 37l494 739z" />
    <glyph glyph-name="uni2070" unicode="&#x2070;" horiz-adv-x="352" 
d="M176 466q-65 0 -102.5 47t-37.5 128t37.5 128t102.5 47t102.5 -47t37.5 -128t-37.5 -128t-102.5 -47zM176 523q38 0 58 30.5t20 87.5t-20 87.5t-58 30.5t-58 -30.5t-20 -87.5t20 -87.5t58 -30.5z" />
    <glyph glyph-name="uni2074" unicode="&#x2074;" horiz-adv-x="311" 
d="M244 598h42v-55h-42v-71h-59v71h-171v50l173 217h57v-212zM186 721l-100 -124h100v124z" />
    <glyph glyph-name="uni2075" unicode="&#x2075;" horiz-adv-x="284" 
d="M137 685q53 0 85.5 -29t32.5 -79t-33 -80.5t-86 -30.5q-67 0 -114 45l33 48q35 -34 77 -34q27 0 44 15t17 39q0 25 -17 40t-48 15q-36 0 -66 -10l-22 20l13 166h180v-57h-132l-5 -72q19 4 41 4z" />
    <glyph glyph-name="uni2076" unicode="&#x2076;" horiz-adv-x="320" 
d="M172 699q52 0 83.5 -33t31.5 -84q0 -52 -33 -84t-87 -32q-59 0 -95 41.5t-36 123.5q0 90 36 137.5t101 47.5q52 0 97 -32l-29 -42q-27 20 -63 20q-75 0 -83 -97q28 34 77 34zM166 519q27 0 44.5 17t17.5 46t-17.5 46.5t-44.5 17.5q-29 0 -46 -17.5t-17 -46.5
q0 -28 17.5 -45.5t45.5 -17.5z" />
    <glyph glyph-name="uni2077" unicode="&#x2077;" horiz-adv-x="264" 
d="M21 754v56h215v-42l-100 -296h-64l94 282h-145z" />
    <glyph glyph-name="uni2078" unicode="&#x2078;" horiz-adv-x="318" 
d="M236 651q50 -27 50 -83q0 -46 -34.5 -74t-92.5 -28q-57 0 -91.5 28t-34.5 74q0 56 50 83q-39 29 -39 73q0 41 31.5 67t83.5 26t84 -26t32 -67q0 -44 -39 -73zM159 765q-25 0 -39.5 -12.5t-14.5 -32.5q0 -21 14.5 -33.5t39.5 -12.5t40 12.5t15 33.5q0 20 -15 32.5
t-40 12.5zM159 518q30 0 48 15t18 39q0 23 -18 38t-48 15q-29 0 -47 -15t-18 -38q0 -24 18 -39t47 -15z" />
    <glyph glyph-name="uni2079" unicode="&#x2079;" horiz-adv-x="320" 
d="M153 816q59 0 95 -41.5t36 -123.5q0 -90 -36 -137.5t-101 -47.5q-52 0 -97 32l29 42q27 -20 63 -20q75 0 83 97q-28 -34 -77 -34q-52 0 -83.5 33t-31.5 84q0 52 33 84t87 32zM154 636q29 0 46 17.5t17 46.5q0 28 -17.5 45.5t-45.5 17.5q-27 0 -44.5 -17t-17.5 -46
t17.5 -46.5t44.5 -17.5z" />
    <glyph glyph-name="uni2080" unicode="&#x2080;" horiz-adv-x="352" 
d="M176 -116q-65 0 -102.5 47t-37.5 128t37.5 128t102.5 47t102.5 -47t37.5 -128t-37.5 -128t-102.5 -47zM176 -59q38 0 58 30.5t20 87.5t-20 87.5t-58 30.5t-58 -30.5t-20 -87.5t20 -87.5t58 -30.5z" />
    <glyph glyph-name="uni2081" unicode="&#x2081;" horiz-adv-x="210" 
d="M112 228h53v-338h-60v261q-36 -21 -90 -21v51q64 0 97 47z" />
    <glyph glyph-name="uni2082" unicode="&#x2082;" horiz-adv-x="275" 
d="M253 -110h-231v41l108 123q45 50 45 77q0 21 -13.5 33.5t-37.5 12.5q-44 0 -75 -40l-37 40q51 57 117 57q49 0 79 -27.5t30 -73.5q0 -29 -11.5 -51t-49.5 -67l-61 -68h137v-57z" />
    <glyph glyph-name="uni2083" unicode="&#x2083;" horiz-adv-x="278" 
d="M236 195l-79 -97q44 -5 70 -32.5t26 -70.5q0 -50 -32.5 -80.5t-84.5 -30.5q-71 0 -116 45l33 48q34 -34 78 -34q28 0 44.5 15t16.5 40q0 33 -25.5 47t-69.5 4l-15 29l69 93h-113v57h198v-33z" />
    <glyph glyph-name="uni2084" unicode="&#x2084;" horiz-adv-x="311" 
d="M244 16h42v-55h-42v-71h-59v71h-171v50l173 217h57v-212zM186 139l-100 -124h100v124z" />
    <glyph glyph-name="uni2085" unicode="&#x2085;" horiz-adv-x="284" 
d="M137 103q53 0 85.5 -29t32.5 -79t-33 -80.5t-86 -30.5q-67 0 -114 45l33 48q35 -34 77 -34q27 0 44 15t17 39q0 25 -17 40t-48 15q-36 0 -66 -10l-22 20l13 166h180v-57h-132l-5 -72q19 4 41 4z" />
    <glyph glyph-name="uni2086" unicode="&#x2086;" horiz-adv-x="320" 
d="M172 117q52 0 83.5 -33t31.5 -84q0 -52 -33 -84t-87 -32q-59 0 -95 41.5t-36 123.5q0 90 36 137.5t101 47.5q52 0 97 -32l-29 -42q-27 20 -63 20q-75 0 -83 -97q28 34 77 34zM166 -63q27 0 44.5 17t17.5 46t-17.5 46.5t-44.5 17.5q-29 0 -46 -17.5t-17 -46.5
q0 -28 17.5 -45.5t45.5 -17.5z" />
    <glyph glyph-name="uni2087" unicode="&#x2087;" horiz-adv-x="264" 
d="M21 172v56h215v-42l-100 -296h-64l94 282h-145z" />
    <glyph glyph-name="uni2088" unicode="&#x2088;" horiz-adv-x="318" 
d="M236 69q50 -27 50 -83q0 -46 -34.5 -74t-92.5 -28q-57 0 -91.5 28t-34.5 74q0 56 50 83q-39 29 -39 73q0 41 31.5 67t83.5 26t84 -26t32 -67q0 -44 -39 -73zM159 183q-25 0 -39.5 -12.5t-14.5 -32.5q0 -21 14.5 -33.5t39.5 -12.5t40 12.5t15 33.5q0 20 -15 32.5t-40 12.5
zM159 -64q30 0 48 15t18 39q0 23 -18 38t-48 15q-29 0 -47 -15t-18 -38q0 -24 18 -39t47 -15z" />
    <glyph glyph-name="uni2089" unicode="&#x2089;" horiz-adv-x="320" 
d="M153 234q59 0 95 -41.5t36 -123.5q0 -90 -36.5 -137.5t-101.5 -47.5q-51 0 -96 32l29 42q27 -20 63 -20q75 0 83 97q-28 -34 -77 -34q-52 0 -83.5 33t-31.5 84q0 52 33 84t87 32zM154 54q29 0 46 17.5t17 46.5q0 28 -17.5 45.5t-45.5 17.5q-27 0 -44.5 -17t-17.5 -46
t17.5 -46.5t44.5 -17.5z" />
    <glyph glyph-name="Euro" unicode="&#x20ac;" horiz-adv-x="797" 
d="M706 191l61 -48q-55 -75 -132 -115t-164 -40q-129 0 -217 69.5t-116 187.5h-110v65h100q-2 26 -2 40q0 16 2 44h-100v64h111q29 117 116 185.5t215 68.5q86 0 160.5 -38.5t126.5 -110.5l-59 -48q-39 55 -102.5 86.5t-127.5 31.5q-89 0 -151.5 -47t-88.5 -128h271v-64
h-285q-2 -28 -2 -44q0 -14 2 -40h285v-65h-272q25 -83 89 -131t155 -48q68 0 131 33t104 92z" />
    <glyph glyph-name="uni20B4" unicode="&#x20b4;" horiz-adv-x="580" 
d="M479 454h59v-65h-496v65h353q24 32 24 72q0 50 -31.5 79t-91.5 29q-85 0 -154 -72l-47 57q86 91 208 91q90 0 144.5 -50.5t54.5 -123.5q0 -45 -23 -82zM102 246h-60v65h496v-65h-350q-23 -29 -23 -72q0 -48 35.5 -77t93.5 -29q96 0 183 82l40 -63q-100 -94 -223 -94
q-98 0 -155 45t-57 122q0 49 20 86z" />
    <glyph glyph-name="uni20BA" unicode="&#x20ba;" horiz-adv-x="671" 
d="M557 240l73 -21q-21 -110 -83 -164.5t-182 -54.5h-195v242l-120 -45l-22 61l144 54v86l-123 -46l-22 61l143 54v233h84v-201l184 69l22 -61l-208 -78v-87l187 71l21 -61l-206 -78v-194h111q91 0 133 38.5t59 121.5z" />
    <glyph glyph-name="uni20BD" unicode="&#x20bd;" horiz-adv-x="630" 
d="M352 270h-130v-77h166v-67h-166v-126h-84v126h-111v67h111v77h-109v70h109v360h226q110 0 176 -59.5t66 -158.5q0 -98 -68 -155t-186 -57zM357 621h-137v-281h137q78 0 122 37t44 103t-44.5 103.5t-121.5 37.5z" />
    <glyph glyph-name="uni2103" unicode="&#x2103;" horiz-adv-x="1081" 
d="M497 610q96 102 247 102q178 0 291 -149l-61 -52q-39 57 -100 88.5t-130 31.5q-114 0 -186 -79t-72 -202t72.5 -202t188.5 -79q73 0 136.5 33t106.5 93l61 -50q-114 -157 -304 -157q-153 0 -249.5 102t-96.5 260q0 157 96 260zM80 679q43 42 107 42t106.5 -42.5
t42.5 -106.5t-42 -106q-43 -43 -107 -43t-107 42.5t-43 106.5t43 107zM120 505q26 -27 67 -27q40 0 66.5 26.5t26.5 67.5t-26.5 67.5t-66.5 26.5q-41 0 -67.5 -26.5t-26.5 -67.5t27 -67z" />
    <glyph glyph-name="uni2109" unicode="&#x2109;" horiz-adv-x="894" 
d="M443 700h415v-80h-331v-241h308v-79h-308v-300h-84v700zM80 679q43 42 107 42t106.5 -42.5t42.5 -106.5t-42.5 -106.5t-106.5 -42.5t-107 42.5t-43 106.5t43 107zM120 505q26 -27 67 -27q40 0 66.5 26.5t26.5 67.5t-26.5 67.5t-66.5 26.5q-41 0 -67.5 -26.5t-26.5 -67.5
t27 -67z" />
    <glyph glyph-name="uni2113" unicode="&#x2113;" horiz-adv-x="468" 
d="M301 64q45 0 94 32l23 -65q-53 -41 -127 -41q-79 0 -123 49.5t-44 137.5v52l-71 -28l-24 65l95 39v255q0 89 40.5 137t112.5 48q65 0 108 -48.5t43 -140.5q0 -207 -219 -294l-8 -3v-76q0 -119 100 -119zM275 671q-74 0 -74 -112v-223q150 61 150 217q0 59 -21 88.5
t-55 29.5z" />
    <glyph glyph-name="uni2116" unicode="&#x2116;" horiz-adv-x="1110" 
d="M100 700h75l413 -556v556h83v-700h-76l-412 554v-554h-83v700zM752 541q0 71 48 118.5t120 47.5q73 0 120.5 -47t47.5 -119t-47.5 -119t-120.5 -47q-72 0 -120 48t-48 118zM849 468q28 -27 71 -27t72 27t29 73t-29 73t-72 27t-71.5 -27t-28.5 -73t29 -73zM772 267v63h297
v-63h-297z" />
    <glyph glyph-name="uni2117" unicode="&#x2117;" horiz-adv-x="813" 
d="M407 709q153 0 253 -102t100 -257t-100 -257t-253 -102t-253 101.5t-100 257.5t100 257.5t253 101.5zM407 56q124 0 205 83t81 211t-81 211t-205 83q-125 0 -205.5 -83t-80.5 -211t80.5 -211t205.5 -83zM300 538h128q64 0 101 -35t37 -92q0 -56 -37 -91t-101 -35h-71
v-132h-57v385zM356 338h68q39 0 60.5 19.5t21.5 53.5t-21.5 54t-60.5 20h-68v-147z" />
    <glyph glyph-name="trademark" unicode="&#x2122;" horiz-adv-x="576" 
d="M105 654h-78v46h207v-46h-78v-217h-51v217zM406 570l90 130h44v-263h-51v170l-70 -103h-28l-69 102v-169h-50v263h44z" />
    <glyph glyph-name="uni2126" unicode="&#x2126;" horiz-adv-x="848" 
d="M649 74h149v-74h-307v65q204 85 204 286q0 127 -78 203t-193 76t-192.5 -76t-77.5 -203q0 -201 203 -286v-65h-307v74h149q-60 46 -95 119.5t-35 161.5q0 154 99.5 254.5t255.5 100.5t255.5 -100.5t99.5 -254.5q0 -88 -35 -161.5t-95 -119.5z" />
    <glyph glyph-name="estimated" unicode="&#x212e;" horiz-adv-x="804" 
d="M751 327h-562v-202q80 -91 220 -91q80 0 152.5 41t122.5 123l38 -26q-120 -184 -313 -184q-160 0 -257.5 103.5t-97.5 259.5q0 153 98.5 257t256.5 104q157 0 253 -106.5t89 -278.5zM409 666q-136 0 -220 -99v-198h432v210q-81 87 -212 87z" />
    <glyph glyph-name="uni2150" unicode="&#x2150;" horiz-adv-x="687" 
d="M42 3l494 739l55 -38l-494 -738zM165 362h-60v261q-36 -21 -90 -21v51q64 0 97 47h53v-338zM444 282v56h215v-42l-100 -296h-64l94 282h-145z" />
    <glyph glyph-name="uni2151" unicode="&#x2151;" horiz-adv-x="743" 
d="M42 3l494 739l55 -38l-494 -738zM165 362h-60v261q-36 -21 -90 -21v51q64 0 97 47h53v-338zM576 344q59 0 95 -41.5t36 -123.5q0 -90 -36.5 -137.5t-101.5 -47.5q-51 0 -96 32l29 42q27 -20 63 -20q75 0 83 97q-28 -34 -77 -34q-52 0 -83.5 33t-31.5 84q0 52 33 84t87 32
zM577 164q29 0 46 17.5t17 46.5q0 28 -17.5 45.5t-45.5 17.5q-27 0 -44.5 -17t-17.5 -46t17.5 -46.5t44.5 -17.5z" />
    <glyph glyph-name="onethird" unicode="&#x2153;" horiz-adv-x="701" 
d="M42 3l494 739l55 -38l-494 -738zM165 362h-60v261q-36 -21 -90 -21v51q64 0 97 47h53v-338zM659 305l-79 -97q44 -5 70 -32.5t26 -70.5q0 -50 -32.5 -80.5t-84.5 -30.5q-71 0 -116 45l33 48q34 -34 78 -34q28 0 44.5 15t16.5 40q0 33 -25.5 47t-69.5 4l-15 29l69 93h-113
v57h198v-33z" />
    <glyph glyph-name="twothirds" unicode="&#x2154;" horiz-adv-x="766" 
d="M107 3l494 739l55 -38l-494 -738zM22 362v41l108 123q45 50 45 77q0 21 -13.5 33.5t-37.5 12.5q-44 0 -75 -40l-37 40q51 57 117 57q49 0 79 -27.5t30 -73.5q0 -29 -11.5 -51t-49.5 -67l-61 -68h137v-57h-231zM724 305l-79 -97q44 -5 70 -32.5t26 -70.5
q0 -50 -32.5 -80.5t-84.5 -30.5q-71 0 -116 45l33 48q34 -34 78 -34q28 0 44.5 15t16.5 40q0 33 -25.5 47t-69.5 4l-15 29l69 93h-113v57h198v-33z" />
    <glyph glyph-name="uni2155" unicode="&#x2155;" horiz-adv-x="707" 
d="M42 3l494 739l55 -38l-494 -738zM165 362h-60v261q-36 -21 -90 -21v51q64 0 97 47h53v-338zM560 213q53 0 85.5 -29t32.5 -79t-33 -80.5t-86 -30.5q-67 0 -114 45l33 48q35 -34 77 -34q27 0 44 15t17 39q0 25 -17 40t-48 15q-36 0 -66 -10l-22 20l13 166h180v-57h-132
l-5 -72q19 4 41 4z" />
    <glyph glyph-name="uni2156" unicode="&#x2156;" horiz-adv-x="772" 
d="M107 3l494 739l55 -38l-494 -738zM22 362v41l108 123q45 50 45 77q0 21 -13.5 33.5t-37.5 12.5q-44 0 -75 -40l-37 40q51 57 117 57q49 0 79 -27.5t30 -73.5q0 -29 -11.5 -51t-49.5 -67l-61 -68h137v-57h-231zM625 213q53 0 85.5 -29t32.5 -79t-33 -80.5t-86 -30.5
q-67 0 -114 45l33 48q35 -34 77 -34q27 0 44 15t17 39q0 25 -17 40t-48 15q-36 0 -66 -10l-22 20l13 166h180v-57h-132l-5 -72q19 4 41 4z" />
    <glyph glyph-name="uni2157" unicode="&#x2157;" horiz-adv-x="775" 
d="M110 3l494 739l55 -38l-494 -738zM131 415q28 0 44.5 15t16.5 40q0 33 -25.5 47t-69.5 4l-15 29l69 93h-113v57h198v-33l-79 -97q44 -5 70 -32.5t26 -70.5q0 -50 -32.5 -80.5t-84.5 -30.5q-71 0 -116 45l33 48q34 -34 78 -34zM628 213q53 0 85.5 -29t32.5 -79t-33 -80.5
t-86 -30.5q-67 0 -114 45l33 48q35 -34 77 -34q27 0 44 15t17 39q0 25 -17 40t-48 15q-36 0 -66 -10l-22 20l13 166h180v-57h-132l-5 -72q19 4 41 4z" />
    <glyph glyph-name="uni2158" unicode="&#x2158;" horiz-adv-x="808" 
d="M143 3l494 739l55 -38l-494 -738zM244 362h-59v71h-171v50l173 217h57v-212h42v-55h-42v-71zM86 487h100v124zM661 213q53 0 85.5 -29t32.5 -79t-33 -80.5t-86 -30.5q-67 0 -114 45l33 48q35 -34 77 -34q27 0 44 15t17 39q0 25 -17 40t-48 15q-36 0 -66 -10l-22 20
l13 166h180v-57h-132l-5 -72q19 4 41 4z" />
    <glyph glyph-name="uni2159" unicode="&#x2159;" horiz-adv-x="743" 
d="M42 3l494 739l55 -38l-494 -738zM165 362h-60v261q-36 -21 -90 -21v51q64 0 97 47h53v-338zM595 227q52 0 83.5 -33t31.5 -84q0 -52 -33 -84t-87 -32q-59 0 -95 41.5t-36 123.5q0 90 36 137.5t101 47.5q52 0 97 -32l-29 -42q-27 20 -63 20q-75 0 -83 -97q28 34 77 34z
M589 47q27 0 44.5 17t17.5 46t-17.5 46.5t-44.5 17.5q-29 0 -46 -17.5t-17 -46.5q0 -28 17 -45.5t46 -17.5z" />
    <glyph glyph-name="uni215A" unicode="&#x215a;" horiz-adv-x="817" 
d="M116 3l494 739l55 -38l-494 -738zM132 415q27 0 44 15t17 39q0 25 -17 40t-48 15q-36 0 -66 -10l-22 20l13 166h180v-57h-132l-5 -72q19 4 41 4q53 0 85.5 -29t32.5 -79t-33 -80.5t-86 -30.5q-67 0 -114 45l33 48q35 -34 77 -34zM669 227q52 0 83.5 -33t31.5 -84
q0 -52 -33 -84t-87 -32q-59 0 -95 41.5t-36 123.5q0 90 36 137.5t101 47.5q52 0 97 -32l-29 -42q-27 20 -63 20q-75 0 -83 -97q28 34 77 34zM663 47q27 0 44.5 17t17.5 46t-17.5 46.5t-44.5 17.5q-29 0 -46 -17.5t-17 -46.5q0 -28 17 -45.5t46 -17.5z" />
    <glyph glyph-name="oneeighth" unicode="&#x215b;" horiz-adv-x="741" 
d="M42 3l494 739l55 -38l-494 -738zM165 362h-60v261q-36 -21 -90 -21v51q64 0 97 47h53v-338zM659 179q50 -27 50 -83q0 -46 -34.5 -74t-92.5 -28q-57 0 -91.5 28t-34.5 74q0 56 50 83q-39 28 -39 73q0 41 31.5 67t83.5 26t84 -26t32 -67q0 -45 -39 -73zM582 293
q-25 0 -39.5 -12.5t-14.5 -32.5q0 -21 14.5 -33.5t39.5 -12.5t40 12.5t15 33.5q0 20 -15 32.5t-40 12.5zM582 46q30 0 48 15t18 39q0 23 -18 38t-48 15q-29 0 -47 -15t-18 -38q0 -24 18 -39t47 -15z" />
    <glyph glyph-name="threeeighths" unicode="&#x215c;" horiz-adv-x="809" 
d="M110 3l494 739l55 -38l-494 -738zM131 415q28 0 44.5 15t16.5 40q0 33 -25.5 47t-69.5 4l-15 29l69 93h-113v57h198v-33l-79 -97q44 -5 70 -32.5t26 -70.5q0 -50 -32.5 -80.5t-84.5 -30.5q-71 0 -116 45l33 48q34 -34 78 -34zM727 179q50 -27 50 -83q0 -46 -34.5 -74
t-92.5 -28q-57 0 -91.5 28t-34.5 74q0 56 50 83q-39 28 -39 73q0 41 31.5 67t83.5 26t84 -26t32 -67q0 -45 -39 -73zM650 293q-25 0 -39.5 -12.5t-14.5 -32.5q0 -21 14.5 -33.5t39.5 -12.5t40 12.5t15 33.5q0 20 -15 32.5t-40 12.5zM650 46q30 0 48 15t18 39q0 23 -18 38
t-48 15q-29 0 -47 -15t-18 -38q0 -24 18 -39t47 -15z" />
    <glyph glyph-name="fiveeighths" unicode="&#x215d;" horiz-adv-x="815" 
d="M116 3l494 739l55 -38l-494 -738zM132 415q27 0 44 15t17 39q0 25 -17 40t-48 15q-36 0 -66 -10l-22 20l13 166h180v-57h-132l-5 -72q19 4 41 4q53 0 85.5 -29t32.5 -79t-33 -80.5t-86 -30.5q-67 0 -114 45l33 48q35 -34 77 -34zM733 179q50 -27 50 -83q0 -46 -34.5 -74
t-92.5 -28q-57 0 -91.5 28t-34.5 74q0 56 50 83q-39 28 -39 73q0 41 31.5 67t83.5 26t84 -26t32 -67q0 -45 -39 -73zM656 293q-25 0 -39.5 -12.5t-14.5 -32.5q0 -21 14.5 -33.5t39.5 -12.5t40 12.5t15 33.5q0 20 -15 32.5t-40 12.5zM656 46q30 0 48 15t18 39q0 23 -18 38
t-48 15q-29 0 -47 -15t-18 -38q0 -24 18 -39t47 -15z" />
    <glyph glyph-name="seveneighths" unicode="&#x215e;" horiz-adv-x="795" 
d="M96 3l494 739l55 -38l-494 -738zM236 658l-100 -296h-64l94 282h-145v56h215v-42zM713 179q50 -27 50 -83q0 -46 -34.5 -74t-92.5 -28q-57 0 -91.5 28t-34.5 74q0 56 50 83q-39 28 -39 73q0 41 31.5 67t83.5 26t84 -26t32 -67q0 -45 -39 -73zM636 293q-25 0 -39.5 -12.5
t-14.5 -32.5q0 -21 14.5 -33.5t39.5 -12.5t40 12.5t15 33.5q0 20 -15 32.5t-40 12.5zM636 46q30 0 48 15t18 39q0 23 -18 38t-48 15q-29 0 -47 -15t-18 -38q0 -24 18 -39t47 -15z" />
    <glyph glyph-name="arrowleft" unicode="&#x2190;" horiz-adv-x="786" 
d="M205 364h532v-76h-532l200 -200l-56 -56l-294 294l294 294l56 -56z" />
    <glyph glyph-name="arrowup" unicode="&#x2191;" horiz-adv-x="690" 
d="M345 679l294 -294l-56 -56l-200 200v-532h-76v532l-200 -200l-56 56z" />
    <glyph glyph-name="arrowright" unicode="&#x2192;" horiz-adv-x="786" 
d="M381 564l56 56l294 -294l-294 -294l-56 56l200 200h-532v76h532z" />
    <glyph glyph-name="arrowdown" unicode="&#x2193;" horiz-adv-x="690" 
d="M383 122l200 200l56 -56l-294 -294l-294 294l56 56l200 -200v532h76v-532z" />
    <glyph glyph-name="arrowboth" unicode="&#x2194;" horiz-adv-x="1081" 
d="M676 564l56 56l294 -294l-294 -294l-56 56l201 200h-672l200 -200l-56 -56l-294 294l294 294l56 -56l-200 -200h672z" />
    <glyph glyph-name="arrowupdn" unicode="&#x2195;" horiz-adv-x="690" 
d="M383 617v-673l200 201l56 -56l-294 -294l-294 294l56 56l200 -201v673l-200 -200l-56 56l294 294l294 -294l-56 -56z" />
    <glyph glyph-name="uni2196" unicode="&#x2196;" horiz-adv-x="636" 
d="M197 493l377 -377l-54 -53l-376 376v-284h-79v416h416v-78h-284z" />
    <glyph glyph-name="uni2197" unicode="&#x2197;" horiz-adv-x="636" 
d="M155 493v78h416v-416h-78v285l-377 -377l-53 53l377 377h-285z" />
    <glyph glyph-name="uni2198" unicode="&#x2198;" horiz-adv-x="636" 
d="M493 233v285h78v-416h-416v79h284l-376 376l53 54z" />
    <glyph glyph-name="uni2199" unicode="&#x2199;" horiz-adv-x="636" 
d="M520 615l54 -53l-377 -377h284v-78h-416v416h79v-284z" />
    <glyph glyph-name="uni21A9" unicode="&#x21a9;" horiz-adv-x="1105" 
d="M690 832h47q152 0 248.5 -93t96.5 -239q0 -147 -96.5 -240.5t-248.5 -93.5h-531l199 -199l-56 -56l-294 294l294 294l56 -56l-202 -202h534q119 0 192 71.5t73 187.5q0 115 -73.5 186t-191.5 71h-47v75z" />
    <glyph glyph-name="uni21AA" unicode="&#x21aa;" horiz-adv-x="1105" 
d="M700 443l55 56l294 -294l-294 -294l-55 56l199 199h-531q-152 0 -248.5 93.5t-96.5 240.5q0 146 96.5 239t248.5 93h47v-75h-47q-119 0 -192 -71t-73 -186q0 -116 73 -187.5t192 -71.5h534z" />
    <glyph glyph-name="uni21B0" unicode="&#x21b0;" horiz-adv-x="873" 
d="M405 794l-200 -200h568v-531h-78v455h-490l200 -200l-56 -56l-294 294l294 294z" />
    <glyph glyph-name="uni21B1" unicode="&#x21b1;" horiz-adv-x="873" 
d="M468 794l56 56l294 -294l-294 -294l-56 56l201 200h-491v-455h-78v531h569z" />
    <glyph glyph-name="uni21B3" unicode="&#x21b3;" horiz-adv-x="873" 
d="M468 504l56 56l294 -294l-294 -294l-56 56l201 200h-569v531h78v-455h491z" />
    <glyph glyph-name="uni21B4" unicode="&#x21b4;" horiz-adv-x="924" 
d="M617 196l200 200l56 -55l-294 -294l-294 294l56 55l200 -200v491h-455v78h531v-569z" />
    <glyph glyph-name="carriagereturn" unicode="&#x21b5;" horiz-adv-x="873" 
d="M695 304v455h78v-531h-568l200 -200l-56 -56l-294 294l294 294l56 -56l-200 -200h490z" />
    <glyph glyph-name="uni21BA" unicode="&#x21ba;" horiz-adv-x="871" 
d="M394 611h45q164 0 271 -106t107 -269q0 -162 -107 -268t-271 -106q-165 0 -272 106t-107 268h74q0 -131 87.5 -218.5t217.5 -87.5t217 87.5t87 218.5t-87 218.5t-217 87.5h-52l145 -144l-51 -50l-227 225l226 226l52 -50z" />
    <glyph glyph-name="uni21BB" unicode="&#x21bb;" horiz-adv-x="871" 
d="M736 236h75q0 -162 -107 -268t-272 -106t-271.5 106t-106.5 268q0 163 106.5 269t271.5 106h44l-137 138l51 50l226 -226l-226 -225l-52 50l145 144h-51q-130 0 -217 -87.5t-87 -218.5t87 -218.5t217 -87.5t217 87.5t87 218.5z" />
    <glyph glyph-name="uni21E4" unicode="&#x21e4;" horiz-adv-x="1034" 
d="M175 21h-75v608h75v-608zM352 363h633v-76h-633l201 -200l-56 -56l-294 294l294 294l56 -56z" />
    <glyph glyph-name="uni21E5" unicode="&#x21e5;" horiz-adv-x="1034" 
d="M859 21v608h75v-608h-75zM681 363l-200 200l56 56l294 -294l-294 -294l-56 56l200 200h-632v76h632z" />
    <glyph glyph-name="uni21E7" unicode="&#x21e7;" horiz-adv-x="843" 
d="M589 8h-335v310h-203l370 421l371 -421h-203v-310zM333 394v-310h177v310h112l-201 228l-200 -228h112z" />
    <glyph glyph-name="uni21EA" unicode="&#x21ea;" horiz-adv-x="843" 
d="M589 163h-335v155h-203l370 421l371 -421h-203v-155zM333 394v-166h177v166h112l-201 228l-200 -228h112zM589 -88h-335v196h335v-196zM333 43v-66h177v66h-177z" />
    <glyph glyph-name="partialdiff" unicode="&#x2202;" horiz-adv-x="641" 
d="M243 722l30 60q85 -32 148.5 -81t99 -108t52.5 -120.5t17 -128.5q0 -165 -88 -260.5t-218 -95.5q-106 0 -170.5 64t-64.5 168q0 121 81 206.5t201 85.5q115 0 171 -74q-17 93 -77.5 162.5t-181.5 121.5zM290 64q90 0 152.5 66.5t62.5 155.5q0 64 -44.5 107t-121.5 43
q-86 0 -147 -60.5t-61 -153.5q0 -73 44 -115.5t115 -42.5z" />
    <glyph glyph-name="emptyset" unicode="&#x2205;" horiz-adv-x="774" 
d="M688 620l-64 -75q91 -93 91 -230q0 -139 -93.5 -232.5t-233.5 -93.5q-104 0 -184 53l-64 -77l-53 44l64 76q-91 94 -91 230q0 139 93.5 233t234.5 94q103 0 185 -55l64 76zM388 570q-108 0 -179.5 -72t-71.5 -183q0 -103 64 -175l327 390q-62 40 -140 40zM388 60
q108 0 179 72t71 183q0 101 -62 173l-327 -388q60 -40 139 -40z" />
    <glyph glyph-name="uni2206" unicode="&#x2206;" horiz-adv-x="703" 
d="M303 700h99l281 -700h-662zM566 75l-213 536l-216 -536h429z" />
    <glyph glyph-name="product" unicode="&#x220f;" horiz-adv-x="700" 
d="M665 700v-74h-91v-736h-80v736h-289v-736h-80v736h-91v74h631z" />
    <glyph glyph-name="summation" unicode="&#x2211;" horiz-adv-x="523" 
d="M362 300l-222 -336h356v-74h-455v63l227 345l-224 339v63h435v-74h-333z" />
    <glyph glyph-name="minus" unicode="&#x2212;" horiz-adv-x="509" 
d="M455 270h-402v73h402v-73z" />
    <glyph glyph-name="uni2215" unicode="&#x2215;" horiz-adv-x="213" 
d="M381 704l-494 -738l-55 37l494 739z" />
    <glyph glyph-name="uni2219" unicode="&#x2219;" horiz-adv-x="288" 
d="M144 193q-36 0 -60.5 23t-24.5 59t24.5 59.5t60.5 23.5q35 0 60 -23.5t25 -59.5t-25 -59t-60 -23z" />
    <glyph glyph-name="radical" unicode="&#x221a;" horiz-adv-x="683" 
d="M438 233l214 667h78l-294 -900h-93l-170 447h-145v61h200l160 -427z" />
    <glyph glyph-name="infinity" unicode="&#x221e;" horiz-adv-x="837" 
d="M625 478q77 0 126 -49.5t49 -126.5t-49 -126.5t-126 -49.5q-119 0 -199 116q-82 -116 -200 -116q-77 0 -126 49.5t-49 126.5t49 126.5t126 49.5q119 0 200 -116q81 116 199 116zM228 191q81 0 145 93l12 18l-12 18q-63 93 -145 93q-47 0 -76.5 -31t-29.5 -80t29.5 -80
t76.5 -31zM622 191q48 0 77.5 30.5t29.5 80.5t-29.5 80.5t-77.5 30.5q-82 0 -143 -93l-12 -18l12 -18q61 -93 143 -93z" />
    <glyph glyph-name="integral" unicode="&#x222b;" horiz-adv-x="378" 
d="M81 -237q-52 0 -109 26l27 65q40 -17 73 -17q74 0 74 92v653q0 76 39 119.5t107 43.5q54 0 109 -26l-27 -65q-40 17 -73 17q-74 0 -74 -92v-653q0 -76 -39 -119.5t-107 -43.5z" />
    <glyph glyph-name="approxequal" unicode="&#x2248;" horiz-adv-x="589" 
d="M135 327l-77 10q7 67 43 103t96 36q50 0 109 -42q51 -37 83 -37q56 0 76 75l67 -26q-38 -120 -138 -120q-58 0 -116 45q-44 35 -76 35q-59 0 -67 -79zM135 142l-77 10q7 67 43 103t96 36q51 0 109 -43q53 -37 83 -37q56 0 76 76l67 -27q-38 -119 -138 -119q-57 0 -116 44
q-44 35 -76 35q-60 0 -67 -78z" />
    <glyph glyph-name="notequal" unicode="&#x2260;" horiz-adv-x="507" 
d="M454 428v-70h-141l-43 -111h184v-70h-212l-40 -106l-66 26l31 80h-114v70h141l43 111h-184v70h211l41 107l66 -25l-31 -82h114z" />
    <glyph glyph-name="lessequal" unicode="&#x2264;" horiz-adv-x="499" 
d="M452 318v-77l-413 152v48l413 147v-77l-198 -69l-81 -26zM38 76v70h418v-70h-418z" />
    <glyph glyph-name="greaterequal" unicode="&#x2265;" horiz-adv-x="499" 
d="M47 588l412 -147v-48l-412 -152v77l280 98l-82 26l-198 69v77zM43 76v70h418v-70h-418z" />
    <glyph glyph-name="uni2303" unicode="&#x2303;" horiz-adv-x="734" 
d="M367 444l-271 -272l-56 56l327 327l327 -327l-55 -56z" />
    <glyph glyph-name="uni2305" unicode="&#x2305;" horiz-adv-x="740" 
d="M676 549h-300l321 -321l-55 -56l-272 272l-271 -272l-56 56l321 321h-299v75h611v-75z" />
    <glyph glyph-name="uni2318" unicode="&#x2318;" horiz-adv-x="834" 
d="M206 -16q-68 0 -112 44t-44 112q0 65 44.5 109t111.5 44h75v116h-75q-67 0 -111.5 44t-44.5 109q0 68 44 112t112 44q65 0 109 -44.5t44 -111.5v-75h116v75q0 67 43.5 111.5t108.5 44.5q68 0 112.5 -44t44.5 -112q0 -66 -44.5 -109.5t-112.5 -43.5h-74v-116h74
q68 0 112.5 -43.5t44.5 -109.5q0 -68 -44.5 -112t-112.5 -44q-65 0 -108.5 44.5t-43.5 111.5v75h-116v-75q0 -67 -44 -111.5t-109 -44.5zM206 487h75v75q0 32 -21.5 53.5t-53.5 21.5t-53.5 -21.5t-21.5 -53.5t21.5 -53.5t53.5 -21.5zM553 562v-75h74q32 0 54 21.5t22 53.5
t-22 53.5t-54 21.5t-53 -21.5t-21 -53.5zM359 409v-116h116v116h-116zM206 65q32 0 53.5 21.5t21.5 53.5v75h-75q-32 0 -53.5 -21.5t-21.5 -53.5t21.5 -53.5t53.5 -21.5zM627 65q32 0 54 21.5t22 53.5t-22 53.5t-54 21.5h-74v-75q0 -32 21 -53.5t53 -21.5z" />
    <glyph glyph-name="uni2325" unicode="&#x2325;" horiz-adv-x="863" 
d="M823 0h-265l-306 629h-212v71h261l306 -629h216v-71zM823 629h-263v71h263v-71z" />
    <glyph glyph-name="uni2326" unicode="&#x2326;" horiz-adv-x="1146" 
d="M100 700h653l337 -350l-337 -350h-653v700zM171 69h545l272 281l-272 281h-545v-562zM632 519l48 -47l-122 -122l123 -122l-48 -47l-122 122l-123 -122l-48 47l123 123l-122 122l48 46l122 -121z" />
    <glyph glyph-name="uni2327" unicode="&#x2327;" horiz-adv-x="917" 
d="M100 0v700h717v-700h-717zM171 69h575v562h-575v-562zM453 302l-123 -123l-48 47l123 123l-121 121l48 47l121 -121l121 121l48 -46l-122 -122l123 -123l-48 -47z" />
    <glyph glyph-name="uni232B" unicode="&#x232b;" horiz-adv-x="1146" 
d="M55 350l338 350h653v-700h-653zM429 69h546v562h-546l-271 -281zM635 303l-122 -122l-48 47l123 123l-122 121l48 47l121 -121l121 121l48 -46l-122 -122l124 -123l-48 -47z" />
    <glyph glyph-name="uni2387" unicode="&#x2387;" horiz-adv-x="863" 
d="M304 0h-264v71h216l306 629h261v-71h-212zM823 0h-263v71h263v-71z" />
    <glyph glyph-name="uni238B" unicode="&#x238b;" horiz-adv-x="883" 
d="M427 539v72q168 0 279.5 -107t111.5 -267q0 -161 -107 -267.5t-268 -106.5q-163 0 -271 106.5t-108 267.5h72q0 -131 88 -218.5t219 -87.5q129 0 214.5 87.5t85.5 218.5t-90 216.5t-226 85.5zM410 217l-274 275v-186h-72v305h306v-72h-181l272 -271z" />
    <glyph glyph-name="uni23CE" unicode="&#x23ce;" horiz-adv-x="1132" 
d="M709 627v75h323v-472h-829l202 -202l-56 -56l-294 294l294 294l56 -56l-199 -199h748v322h-245z" />
    <glyph glyph-name="uni23CF" unicode="&#x23cf;" horiz-adv-x="851" 
d="M811 297h-771l386 433zM426 613l-215 -241h430zM780 -53h-709v252h709v-252zM151 134v-122h550v122h-550z" />
    <glyph glyph-name="uni2423" unicode="&#x2423;" horiz-adv-x="396" 
d="M379 -84h-362v146h63v-88h236v88h63v-146z" />
    <glyph glyph-name="uni2460" unicode="&#x2460;" horiz-adv-x="922" 
d="M461 740q176 0 286.5 -111.5t110.5 -282.5t-110.5 -283t-286.5 -112q-175 0 -286 112t-111 283t110.5 282.5t286.5 111.5zM461 17q145 0 235.5 93t90.5 236t-90.5 236t-235.5 93t-235.5 -93t-90.5 -236t90.5 -236t235.5 -93zM362 420v51q63 0 96 47h53v-338h-60v260
q-36 -20 -89 -20z" />
    <glyph glyph-name="uni2461" unicode="&#x2461;" horiz-adv-x="922" 
d="M461 -49q-175 0 -286 112t-111 283t110.5 282.5t286.5 111.5t286.5 -111.5t110.5 -282.5t-110.5 -283t-286.5 -112zM461 17q145 0 235.5 93t90.5 236t-90.5 236t-235.5 93t-235.5 -93t-90.5 -236t90.5 -236t235.5 -93zM579 180h-231v41l108 123q27 30 36.5 45.5t9.5 31.5
q0 21 -14 33.5t-37 12.5q-45 0 -76 -40l-37 40q53 57 117 57q49 0 79 -27.5t30 -73.5q0 -29 -11.5 -51t-49.5 -67l-60 -68h136v-57z" />
    <glyph glyph-name="uni2462" unicode="&#x2462;" horiz-adv-x="922" 
d="M461 740q176 0 286.5 -111.5t110.5 -282.5t-110.5 -283t-286.5 -112q-175 0 -286 112t-111 283t110.5 282.5t286.5 111.5zM461 17q145 0 235.5 93t90.5 236t-90.5 236t-235.5 93t-235.5 -93t-90.5 -236t90.5 -236t235.5 -93zM561 485l-80 -98q44 -5 70.5 -33t26.5 -70
q0 -49 -32.5 -79.5t-84.5 -30.5q-71 0 -116 45l33 47q33 -33 78 -33q28 0 44.5 15t16.5 40q0 33 -25.5 47t-69.5 4l-15 29l70 93h-114v57h198v-33z" />
    <glyph glyph-name="uni2463" unicode="&#x2463;" horiz-adv-x="922" 
d="M461 740q176 0 286.5 -111.5t110.5 -282.5t-110.5 -283t-286.5 -112q-175 0 -286 112t-111 283t110.5 282.5t286.5 111.5zM461 17q145 0 235.5 93t90.5 236t-90.5 236t-235.5 93t-235.5 -93t-90.5 -236t90.5 -236t235.5 -93zM471 518h56v-212h43v-55h-43v-71h-59v71h-171
v50zM469 429l-100 -124h100v124z" />
    <glyph glyph-name="uni2464" unicode="&#x2464;" horiz-adv-x="922" 
d="M461 741q175 0 286 -112t111 -282q0 -171 -110.5 -283t-286.5 -112q-175 0 -286 112t-111 283q0 170 111 282t286 112zM461 18q145 0 235.5 93t90.5 236q0 142 -90.5 235t-235.5 93t-235.5 -93t-90.5 -235q0 -143 90.5 -236t235.5 -93zM454 393q53 0 85.5 -29t32.5 -80
q0 -49 -33 -79.5t-86 -30.5q-67 0 -114 45l33 48q35 -34 77 -34q27 0 44 15t17 39q0 25 -17 40t-48 15t-66 -10l-22 20l13 166h180v-58h-132l-5 -71q19 4 41 4z" />
    <glyph glyph-name="uni2465" unicode="&#x2465;" horiz-adv-x="922" 
d="M461 740q176 0 286.5 -111.5t110.5 -282.5t-110.5 -283t-286.5 -112q-175 0 -286 112t-111 283t110.5 282.5t286.5 111.5zM461 17q145 0 235.5 93t90.5 236t-90.5 236t-235.5 93t-235.5 -93t-90.5 -236t90.5 -236t235.5 -93zM468 407q52 0 83.5 -33t31.5 -84
q0 -52 -33 -84t-87 -32q-59 0 -95 41.5t-36 123.5q0 89 36.5 137t101.5 48q51 0 96 -32l-29 -42q-29 20 -63 20q-74 0 -83 -97q28 34 77 34zM462 226q27 0 44.5 17.5t17.5 46.5t-17.5 46.5t-44.5 17.5q-29 0 -46 -17.5t-17 -46.5t17.5 -46.5t45.5 -17.5z" />
    <glyph glyph-name="uni2466" unicode="&#x2466;" horiz-adv-x="922" 
d="M461 740q176 0 286.5 -111.5t110.5 -282.5t-110.5 -283t-286.5 -112q-175 0 -286 112t-111 283t110.5 282.5t286.5 111.5zM461 17q145 0 235.5 93t90.5 236t-90.5 236t-235.5 93t-235.5 -93t-90.5 -236t90.5 -236t235.5 -93zM497 462h-145v56h215v-42l-100 -296h-64z" />
    <glyph glyph-name="uni2467" unicode="&#x2467;" horiz-adv-x="922" 
d="M461 740q176 0 286.5 -111.5t110.5 -282.5t-110.5 -283t-286.5 -112q-175 0 -286 112t-111 283t110.5 282.5t286.5 111.5zM461 17q145 0 235.5 93t90.5 236t-90.5 236t-235.5 93t-235.5 -93t-90.5 -236t90.5 -236t235.5 -93zM538 358q50 -27 50 -83q0 -46 -34.5 -74
t-92.5 -28q-57 0 -91.5 28t-34.5 74q0 56 49 83q-39 28 -39 73q0 41 32 67t84 26t84 -26t32 -67q0 -45 -39 -73zM461 472q-25 0 -40 -12.5t-15 -32.5q0 -21 15 -33.5t40 -12.5t40 12.5t15 33.5q0 20 -15 32.5t-40 12.5zM461 225q30 0 48 15t18 39q0 23 -18 38t-48 15
q-29 0 -47 -15t-18 -38q0 -24 18 -39t47 -15z" />
    <glyph glyph-name="uni2468" unicode="&#x2468;" horiz-adv-x="922" 
d="M461 740q176 0 286.5 -111.5t110.5 -282.5t-110.5 -283t-286.5 -112q-175 0 -286 112t-111 283t110.5 282.5t286.5 111.5zM461 17q145 0 235.5 93t90.5 236t-90.5 236t-235.5 93t-235.5 -93t-90.5 -236t90.5 -236t235.5 -93zM456 523q59 0 95 -41.5t36 -123.5
q0 -90 -36 -137.5t-101 -47.5q-50 0 -97 32l29 42q27 -20 63 -20q75 0 83 97q-28 -34 -77 -34q-52 0 -83.5 33t-31.5 84q0 52 33 84t87 32zM458 343q28 0 45 17.5t17 46.5q0 28 -17 45.5t-45 17.5t-45.5 -17t-17.5 -46t18 -46.5t45 -17.5z" />
    <glyph glyph-name="uni2469" unicode="&#x2469;" horiz-adv-x="922" 
d="M461 740q176 0 286.5 -111.5t110.5 -282.5t-110.5 -283t-286.5 -112q-175 0 -286 112t-111 283t110.5 282.5t286.5 111.5zM461 17q145 0 235.5 93t90.5 236t-90.5 236t-235.5 93t-235.5 -93t-90.5 -236t90.5 -236t235.5 -93zM566 523q65 0 102.5 -47t37.5 -128
t-37.5 -128t-102.5 -47t-102.5 47t-37.5 128t37.5 128t102.5 47zM227 419v51q64 0 97 47h53v-338h-60v261q-36 -21 -90 -21zM566 230q38 0 58 30.5t20 87.5t-20 87.5t-58 30.5t-58 -30.5t-20 -87.5t20 -87.5t58 -30.5z" />
    <glyph glyph-name="uni24EA" unicode="&#x24ea;" horiz-adv-x="922" 
d="M461 -49q-175 0 -286 112t-111 283t110.5 282.5t286.5 111.5t286.5 -111.5t110.5 -282.5t-110.5 -283t-286.5 -112zM461 17q145 0 235.5 93t90.5 236t-90.5 236t-235.5 93t-235.5 -93t-90.5 -236t90.5 -236t235.5 -93zM461 171q-65 0 -102.5 47t-37.5 128t37.5 128
t102.5 47t102.5 -47t37.5 -128t-37.5 -128t-102.5 -47zM461 228q38 0 58 30.5t20 87.5q0 117 -78 117q-37 0 -57 -30t-20 -87t20 -87.5t57 -30.5z" />
    <glyph glyph-name="uni24FF" unicode="&#x24ff;" horiz-adv-x="916" 
d="M458 -49q-175 0 -284.5 112t-109.5 283q0 170 110 282t284 112t283.5 -112.5t109.5 -281.5q0 -170 -109.5 -282.5t-283.5 -112.5zM458 171q64 0 101.5 47t37.5 128t-37.5 128t-101.5 47q-65 0 -102.5 -47t-37.5 -128t37.5 -128t102.5 -47zM458 228q-38 0 -58 30.5
t-20 87.5q0 117 78 117q37 0 57 -30.5t20 -86.5q0 -57 -20 -87.5t-57 -30.5z" />
    <glyph glyph-name="filledbox" unicode="&#x25a0;" horiz-adv-x="842" 
d="M743 26h-643v643h643v-643z" />
    <glyph glyph-name="uni25A1" unicode="&#x25a1;" horiz-adv-x="842" 
d="M743 26h-643v643h643v-643zM171 600v-505h500v505h-500z" />
    <glyph glyph-name="triagup" unicode="&#x25b2;" horiz-adv-x="854" 
d="M834 13h-813l406 732z" />
    <glyph glyph-name="uni25B3" unicode="&#x25b3;" horiz-adv-x="854" 
d="M834 13h-813l406 732zM427 589l-278 -501h556z" />
    <glyph glyph-name="uni25B6" unicode="&#x25b6;" horiz-adv-x="887" 
d="M100 -36v813l732 -407z" />
    <glyph glyph-name="uni25BB" unicode="&#x25bb;" horiz-adv-x="887" 
d="M100 -36v813l732 -407zM676 370l-501 278v-556z" />
    <glyph glyph-name="triagdn" unicode="&#x25bc;" horiz-adv-x="854" 
d="M21 712h813l-407 -732z" />
    <glyph glyph-name="uni25BD" unicode="&#x25bd;" horiz-adv-x="854" 
d="M21 712h813l-407 -732zM427 136l278 501h-556z" />
    <glyph glyph-name="triaglf" unicode="&#x25c4;" horiz-adv-x="887" 
d="M55 370l733 407v-813z" />
    <glyph glyph-name="uni25C5" unicode="&#x25c5;" horiz-adv-x="887" 
d="M788 777v-813l-733 406zM211 370l501 -278v556z" />
    <glyph glyph-name="uni25C6" unicode="&#x25c6;" horiz-adv-x="973" 
d="M918 338l-431 -431l-432 431l432 431z" />
    <glyph glyph-name="uni25C7" unicode="&#x25c7;" horiz-adv-x="973" 
d="M918 338l-431 -431l-432 431l432 430zM153 338l334 -333l333 333l-333 333z" />
    <glyph glyph-name="lozenge" unicode="&#x25ca;" horiz-adv-x="571" 
d="M247 639h77l198 -318l-198 -318h-77l-198 318zM137 321l148 -239l148 239l-148 239z" />
    <glyph glyph-name="circle" unicode="&#x25cb;" horiz-adv-x="856" 
d="M428 -12q-158 0 -261 103t-103 260q0 156 103 258.5t261 102.5t261 -102.5t103 -258.5q0 -157 -103 -260t-261 -103zM428 59q125 0 206.5 83t81.5 209q0 124 -81.5 207t-206.5 83t-206.5 -83t-81.5 -207q0 -126 81.5 -209t206.5 -83z" />
    <glyph glyph-name="uni25CF" unicode="&#x25cf;" horiz-adv-x="856" 
d="M428 -12q-158 0 -261 103t-103 259t103 259t261 103t261 -103t103 -259t-103 -259t-261 -103z" />
    <glyph glyph-name="uni261C" unicode="&#x261c;" horiz-adv-x="1106" 
d="M770 557v57h236v-558h-236v51q-42 -51 -128 -51h-296q-37 0 -58 21t-21 52q0 25 12 38q-21 8 -33.5 26t-12.5 38q0 23 15 40q-43 18 -43 64q0 17 9 30h-86q-35 0 -57 20.5t-22 51.5q0 32 22 52.5t57 20.5h195q-20 17 -20 57v47h339q86 0 128 -57zM494 99h150
q55 0 90.5 32.5t35.5 90.5v225q0 57 -36 90.5t-90 33.5h-296v-10q0 -23 13.5 -37t39.5 -14h157q0 -58 17.5 -87.5t65.5 -43.5l-13 -40q-99 27 -109 129h-391q-15 0 -24 -8.5t-9 -22.5q0 -13 9 -21t24 -8h303q31 0 52.5 -21t21.5 -51q0 -35 -24 -53q24 -19 24 -51
q0 -33 -25 -52q25 -19 25 -49q0 -18 -11 -32zM815 99h146v472h-146v-472zM251 335q0 -12 9 -21t22 -9h149q13 0 22 9t9 22q0 12 -9 20.5t-22 8.5h-149q-13 0 -22 -8.5t-9 -21.5zM279 233q0 -14 8 -22.5t22 -8.5h122q14 0 22.5 8.5t8.5 21.5q0 12 -9 21t-22 9h-122
q-14 0 -22 -8.5t-8 -20.5zM343 99h88q13 0 22 9t9 21t-9 21t-22 9h-88q-13 0 -21.5 -9t-8.5 -21t8.5 -21t21.5 -9z" />
    <glyph glyph-name="uni261D" unicode="&#x261d;" horiz-adv-x="757" 
d="M658 601v-297q0 -84 -51 -127h51v-236h-558v236h56q-56 42 -56 127v340h47q37 0 56 -20v195q0 34 21 56.5t52 22.5q32 0 52.5 -22.5t20.5 -56.5v-85q14 8 30 8q46 0 64 -43q17 15 40 15q44 0 64 -46q15 11 37 11q32 0 53 -21t21 -57zM267 177h224q59 0 91.5 35.5
t32.5 90.5v150q-14 -11 -33 -11q-29 0 -48 25q-19 -25 -53 -25q-31 0 -51 24q-17 -24 -52 -24q-30 0 -51 21.5t-21 52.5v303q0 14 -8.5 23.5t-21.5 9.5t-21.5 -9.5t-8.5 -23.5v-391q102 -10 129 -110l-40 -12q-15 48 -44.5 65.5t-87.5 17.5v157q0 25 -14 38.5t-37 13.5h-9
v-295q0 -54 33.5 -90t90.5 -36zM378 696q-12 0 -20.5 -9t-8.5 -22v-149q0 -13 8.5 -22t20.5 -9q13 0 22 9t9 22v149q0 13 -9 22t-22 9zM452 638v-122q0 -13 9 -22t20 -9q14 0 22.5 8.5t8.5 22.5v122q0 13 -8.5 21.5t-22.5 8.5q-12 0 -20.5 -8.5t-8.5 -21.5zM555 603v-87
q0 -13 8.5 -22t20.5 -9q13 0 22 9t9 22v87q0 13 -9 22t-22 9q-12 0 -20.5 -9t-8.5 -22zM143 -14h472v145h-472v-145z" />
    <glyph glyph-name="uni261E" unicode="&#x261e;" horiz-adv-x="1106" 
d="M783 510h195q35 0 57 -20.5t22 -52.5q0 -31 -22 -51.5t-57 -20.5h-86q9 -13 9 -30q0 -46 -43 -64q15 -17 15 -40q0 -20 -12.5 -38t-33.5 -26q12 -15 12 -38q0 -31 -21 -52t-58 -21h-297q-85 0 -127 51v-51h-236v558h236v-57q42 57 127 57h340v-47q0 -40 -20 -57zM145 99
h146v472h-146v-472zM675 408h303q15 0 24 8t9 21q0 14 -9 22.5t-24 8.5h-391q-10 -102 -110 -129l-12 40q48 14 65.5 43.5t17.5 87.5h157q26 0 39 14t13 37v10h-295q-54 0 -90 -33.5t-36 -90.5v-225q0 -58 35.5 -90.5t90.5 -32.5h150q-11 14 -11 32q0 30 25 49
q-25 19 -25 52q0 32 24 51q-24 18 -24 53q0 30 21.5 51t52.5 21zM675 305h149q13 0 22 9t9 21q0 13 -9 21.5t-22 8.5h-149q-13 0 -22 -8.5t-9 -20.5q0 -13 9 -22t22 -9zM675 202h122q13 0 21.5 8.5t8.5 22.5q0 12 -8.5 20.5t-21.5 8.5h-122q-13 0 -22 -9t-9 -21
q0 -13 8.5 -21.5t22.5 -8.5zM675 99h88q13 0 21.5 9t8.5 21t-8.5 21t-21.5 9h-88q-13 0 -22 -9t-9 -21t9 -21t22 -9z" />
    <glyph glyph-name="uni261F" unicode="&#x261f;" horiz-adv-x="757" 
d="M100 673h558v-237h-50q50 -43 50 -127v-297q0 -36 -21 -57t-53 -21q-22 0 -37 12q-8 -21 -26 -34t-38 -13q-23 0 -40 15q-18 -43 -64 -43q-17 0 -30 9v-86q0 -34 -20.5 -56.5t-52.5 -22.5q-31 0 -52 22.5t-21 56.5v195q-19 -20 -56 -20h-47v340q0 85 56 127h-56v237z
M143 482h472v145h-472v-145zM615 160v150q0 55 -32.5 90.5t-91.5 35.5h-224q-57 0 -90.5 -36t-33.5 -90v-295h9q23 0 37 13.5t14 38.5v157q58 0 87.5 17.5t44.5 65.5l40 -12q-27 -100 -129 -110v-391q0 -14 8.5 -23.5t21.5 -9.5t21.5 9.5t8.5 23.5v303q0 31 21 52.5t51 21.5
q35 0 52 -24q20 24 51 24q34 0 53 -25q19 25 48 25q19 0 33 -11zM409 -52v149q0 14 -9 22.5t-22 8.5q-12 0 -20.5 -8.5t-8.5 -22.5v-149q0 -13 8.5 -22t20.5 -9q13 0 22 9t9 22zM512 -25v122q0 31 -31 31q-11 0 -20 -8.5t-9 -22.5v-122q0 -13 8.5 -21.5t20.5 -8.5
q14 0 22.5 8.5t8.5 21.5zM615 10v87q0 13 -9 22t-22 9q-12 0 -20.5 -8.5t-8.5 -22.5v-87q0 -13 8.5 -22t20.5 -9q13 0 22 9t9 22z" />
    <glyph glyph-name="uni2661" unicode="&#x2661;" horiz-adv-x="864" 
d="M604 688q92 0 151 -53t59 -135q0 -62 -27 -115.5t-104.5 -139t-250.5 -250.5q-173 165 -251 251.5t-104.5 139t-26.5 114.5q0 82 59 135t151 53q97 0 172 -76q75 76 172 76zM432 101q187 175 244.5 252.5t57.5 140.5q0 53 -34.5 86t-93.5 33q-97 0 -174 -103
q-77 103 -174 103q-59 0 -93.5 -33t-34.5 -86q0 -63 58 -141t244 -252z" />
    <glyph glyph-name="heart" unicode="&#x2665;" horiz-adv-x="864" 
d="M610 688q92 0 148 -51.5t56 -137.5t-79.5 -192t-302.5 -313q-223 207 -302.5 313t-79.5 192t56 137.5t148 51.5q103 0 178 -76q75 76 178 76z" />
    <glyph glyph-name="uni26A0" unicode="&#x26a0;" horiz-adv-x="923" 
d="M903 6h-882l441 759zM423 375l5 -167h67l6 167l3 169h-84zM462 45q24 0 41.5 16t17.5 40q0 25 -17 41t-42 16t-42 -16t-17 -41q0 -24 17 -40t42 -16z" />
    <glyph glyph-name="uni2713" unicode="&#x2713;" horiz-adv-x="876" 
d="M856 616l-549 -583l-267 265l50 51l216 -215l498 532z" />
    <glyph glyph-name="uni2717" unicode="&#x2717;" horiz-adv-x="685" 
d="M622 679l49 -51l-278 -277l278 -278l-49 -51l-279 279l-280 -279l-49 51l278 278l-278 277l49 51l280 -279z" />
    <glyph glyph-name="uni2776" unicode="&#x2776;" horiz-adv-x="916" 
d="M458 -49q-175 0 -284.5 112t-109.5 283q0 170 110 282t284 112t283.5 -112t109.5 -282q0 -171 -109.5 -283t-283.5 -112zM442 441v-261h60v338h-54q-33 -47 -96 -47v-51q52 0 90 21z" />
    <glyph glyph-name="uni2777" unicode="&#x2777;" horiz-adv-x="916" 
d="M458 -49q-173 0 -283.5 111t-110.5 284q0 172 111 283t283 111t282.5 -111t110.5 -283q0 -173 -110.5 -284t-282.5 -111zM348 221v-41h231v57h-136l60 68q37 43 49 68t12 53q0 44 -30 71t-79 27q-64 0 -117 -57l37 -40q31 40 76 40q23 0 37 -12.5t14 -33.5
q0 -16 -9.5 -31.5t-36.5 -45.5z" />
    <glyph glyph-name="uni2778" unicode="&#x2778;" horiz-adv-x="916" 
d="M458 -49q-173 0 -283.5 111t-110.5 284q0 172 111 283t283 111t282.5 -111t110.5 -283q0 -173 -110.5 -284t-282.5 -111zM461 174q52 0 84.5 30.5t32.5 79.5q0 42 -26.5 70.5t-70.5 32.5l80 98v33h-198v-57h115l-71 -93l15 -29q43 10 69 -4t26 -47q0 -25 -16.5 -40
t-44.5 -15q-45 0 -78 33l-33 -47q45 -45 116 -45z" />
    <glyph glyph-name="uni2779" unicode="&#x2779;" horiz-adv-x="916" 
d="M458 -49q-175 0 -284.5 112t-109.5 283q0 170 110 282t284 112t283.5 -112t109.5 -282q0 -171 -109.5 -283t-283.5 -112zM468 250v-70h59v70h43v56h-43v212h-56l-174 -217v-51h171zM469 305h-99l99 123v-123z" />
    <glyph glyph-name="uni277A" unicode="&#x277a;" horiz-adv-x="916" 
d="M458 -48q-175 0 -284.5 112t-109.5 283q0 170 110 282t284 112t283.5 -112t109.5 -282q0 -171 -109.5 -283t-283.5 -112zM453 174q53 0 86 30.5t33 79.5q0 51 -32.5 80t-85.5 29q-22 0 -41 -5l5 73h132v57h-180l-13 -166l20 -20q38 10 68 10q31 0 48 -15t17 -40
q0 -24 -17 -39t-44 -15q-42 0 -77 34l-33 -48q47 -45 114 -45z" />
    <glyph glyph-name="uni277B" unicode="&#x277b;" horiz-adv-x="916" 
d="M458 -49q-175 0 -284.5 112t-109.5 283q0 170 110 282t284 112t283.5 -112t109.5 -282q0 -171 -109.5 -283t-283.5 -112zM463 174q54 0 87 32t33 84q0 51 -31.5 84t-83.5 33q-49 0 -76 -35q8 98 82 98q34 0 63 -20l29 42q-45 32 -96 32q-65 0 -101.5 -48t-36.5 -137
q0 -82 35.5 -123.5t95.5 -41.5zM462 226q-28 0 -45.5 17.5t-17.5 46.5t17 46.5t46 17.5q27 0 44.5 -17.5t17.5 -46.5t-17.5 -46.5t-44.5 -17.5z" />
    <glyph glyph-name="uni277C" unicode="&#x277c;" horiz-adv-x="916" 
d="M458 -49q-175 0 -284.5 112t-109.5 283q0 170 110 282t284 112t283.5 -112t109.5 -282q0 -171 -109.5 -283t-283.5 -112zM498 462l-95 -282h64l100 296v42h-215v-56h146z" />
    <glyph glyph-name="uni277D" unicode="&#x277d;" horiz-adv-x="916" 
d="M458 -49q-175 0 -284.5 112t-109.5 283q0 170 110 282t284 112t283.5 -112.5t109.5 -281.5q0 -170 -109.5 -282.5t-283.5 -112.5zM458 173q57 0 91.5 28t34.5 74q0 58 -51 83q41 27 41 73q0 41 -32 67t-84 26t-84 -26t-32 -67q0 -46 40 -73q-51 -26 -51 -83
q0 -46 34.5 -74t92.5 -28zM458 381q-25 0 -40 12.5t-15 33.5q0 20 15 32.5t40 12.5t40 -12.5t15 -32.5q0 -21 -15 -33.5t-40 -12.5zM458 225q-30 0 -48 15t-18 39q0 23 18 38t48 15q29 0 47 -15t18 -38q0 -24 -18 -39t-47 -15z" />
    <glyph glyph-name="uni277E" unicode="&#x277e;" horiz-adv-x="916" 
d="M458 -49q-175 0 -284.5 112t-109.5 283q0 170 110 282t284 112t283.5 -112t109.5 -282q0 -171 -109.5 -283t-283.5 -112zM448 173q65 0 101 47.5t36 137.5q0 82 -36 123.5t-95 41.5q-54 0 -87 -32t-33 -84q0 -51 31.5 -84t83.5 -33q49 0 76 35q-8 -98 -82 -98
q-36 0 -63 20l-29 -42q45 -32 97 -32zM455 343q-27 0 -44.5 17.5t-17.5 46.5t17.5 46t44.5 17q29 0 46 -17t17 -46t-17 -46.5t-46 -17.5z" />
    <glyph glyph-name="uni277F" unicode="&#x277f;" horiz-adv-x="916" 
d="M458 -49q-175 0 -284.5 112t-109.5 283q0 170 110 282t284 112t283.5 -112t109.5 -282q0 -171 -109.5 -283t-283.5 -112zM566 173q63 0 101 46.5t38 128.5q0 83 -38 129t-101 46q-64 0 -102 -46t-38 -129t38.5 -129t101.5 -46zM307 441v-261h60v338h-53q-33 -47 -96 -47
v-51q53 0 89 21zM566 230q-38 0 -58 31t-20 87t20 87t58 31q37 0 57 -31.5t20 -86.5t-20 -86.5t-57 -31.5z" />
    <glyph glyph-name="uni27F5" unicode="&#x27f5;" horiz-adv-x="1186" 
d="M205 363h932v-76h-932l200 -200l-56 -56l-294 294l294 294l56 -56z" />
    <glyph glyph-name="uni27F6" unicode="&#x27f6;" horiz-adv-x="1186" 
d="M781 563l56 56l294 -294l-294 -294l-56 56l200 200h-932v76h932z" />
    <glyph glyph-name="uni2B06" unicode="&#x2b06;" horiz-adv-x="843" 
d="M589 8h-335v310h-203l370 421l371 -421h-203v-310z" />
    <glyph glyph-name="uniF8FF" unicode="&#xf8ff;" horiz-adv-x="605" 
d="M565 -93h-525v185h106v-92h313v92h106v-185z" />
    <glyph glyph-name="J_acutecomb" horiz-adv-x="469" 
d="M45 94q58 -26 118 -26q131 0 131 173v459h83v-466q0 -120 -55 -183t-159 -63q-71 0 -151 35zM362 899h97l-89 -127h-73z" />
    <glyph glyph-name="Adieresis.ss01" horiz-adv-x="703" 
d="M303 700h99l281 -700h-88l-59 150h-368l-60 -150h-87zM198 226h309l-154 386zM465 712q0 24 15.5 40t40.5 16t40.5 -16t15.5 -40t-15 -40q-16 -16 -41 -16t-40.5 16t-15.5 40zM128 712q0 24 15.5 40t40.5 16q24 0 39.5 -16t15.5 -40t-15.5 -40t-39.5 -16q-25 0 -40.5 16
t-15.5 40z" />
    <glyph glyph-name="Aring.ss01" horiz-adv-x="703" 
d="M21 0l268 665q-56 33 -56 97q0 49 35 81.5t85 32.5t84.5 -32.5t34.5 -81.5q0 -66 -56 -97l267 -665h-88l-59 150h-368l-60 -150h-87zM507 226l-154 386l-155 -386h309zM293 762q0 -26 17 -43t43 -17q25 0 42 17t17 43t-17 43t-42 17q-26 0 -43 -17t-17 -43z" />
    <glyph glyph-name="Ccedilla.ss01" horiz-adv-x="733" 
d="M150 610q95 102 246 102q180 0 291 -149l-61 -52q-39 57 -100 88.5t-130 31.5q-114 0 -185.5 -79t-71.5 -202t72 -202t188 -79q74 0 137.5 33t105.5 93l61 -50q-103 -141 -270 -156l-7 -141h-81l23 141q-140 11 -227 111.5t-87 249.5q0 157 96 260z" />
    <glyph glyph-name="G.ss01" horiz-adv-x="796" 
d="M154 610q99 102 253 102q165 0 276 -114l-52 -59q-41 43 -100.5 67.5t-123.5 24.5q-118 0 -193 -78.5t-75 -202.5q0 -126 73 -203.5t191 -77.5q108 0 177.5 63.5t75.5 167.5h-291v79h377v-16q0 -172 -87 -273.5t-250 -101.5q-156 0 -253.5 100.5t-97.5 261.5
q0 158 100 260z" />
    <glyph glyph-name="Gbreve.ss01" horiz-adv-x="796" 
d="M154 610q99 102 253 102q165 0 276 -114l-52 -59q-41 43 -100.5 67.5t-123.5 24.5q-118 0 -193 -78.5t-75 -202.5q0 -126 73 -203.5t191 -77.5q108 0 177.5 63.5t75.5 167.5h-291v79h377v-19q0 -169 -87 -270.5t-250 -101.5q-156 0 -253.5 100.5t-97.5 261.5
q0 158 100 260zM261 891l66 12q7 -76 81 -76q72 0 81 76l65 -12q-15 -124 -146 -124q-132 0 -147 124z" />
    <glyph glyph-name="Gcircumflex.ss01" horiz-adv-x="796" 
d="M154 610q99 102 253 102q165 0 276 -114l-52 -59q-41 43 -100.5 67.5t-123.5 24.5q-118 0 -193 -78.5t-75 -202.5q0 -126 73 -203.5t191 -77.5q108 0 177.5 63.5t75.5 167.5h-291v79h377v-19q0 -169 -87 -270.5t-250 -101.5q-156 0 -253.5 100.5t-97.5 261.5
q0 158 100 260zM376 899h63l126 -127h-86l-71 74l-71 -74h-86z" />
    <glyph glyph-name="uni0122.ss01" horiz-adv-x="796" 
d="M54 350q0 158 99.5 260t253.5 102q165 0 276 -114l-52 -59q-41 43 -100.5 67.5t-123.5 24.5q-118 0 -193 -78.5t-75 -202.5q0 -126 73 -203.5t191 -77.5q108 0 177.5 63.5t75.5 167.5h-291v79h377v-19q0 -169 -87 -270.5t-250 -101.5q-156 0 -253.5 100.5t-97.5 261.5z
M372 -67q14 15 36 15q27 0 42.5 -18.5t15.5 -50.5q0 -68 -65 -131l-28 27q30 34 38 71q-23 0 -38 14t-15 35q0 23 14 38z" />
    <glyph glyph-name="Gdotaccent.ss01" horiz-adv-x="796" 
d="M54 350q0 158 99.5 260t253.5 102q165 0 276 -114l-52 -59q-41 43 -100.5 67.5t-123.5 24.5q-118 0 -193 -78.5t-75 -202.5q0 -126 73 -203.5t191 -77.5q108 0 177.5 63.5t75.5 167.5h-291v79h377v-19q0 -169 -87 -270.5t-250 -101.5q-156 0 -253.5 100.5t-97.5 261.5z
M345 830q0 28 17.5 45t44.5 17t44.5 -17t17.5 -45t-17 -45q-18 -18 -45 -18t-44.5 17.5t-17.5 45.5z" />
    <glyph glyph-name="K.ss01" horiz-adv-x="657" 
d="M242 375l287 325h103l-305 -346l317 -354h-105l-297 332v43zM184 700v-700h-84v700h84z" />
    <glyph glyph-name="uni0136.ss01" horiz-adv-x="657" 
d="M529 700h103l-305 -346l317 -354h-105l-297 332v43zM184 700v-700h-84v700h84zM281 -105q0 23 14 38t36 15q27 0 42.5 -18.5t15.5 -50.5q0 -68 -65 -131l-28 27q30 34 38 71q-23 0 -38 14t-15 35z" />
    <glyph glyph-name="Odieresis.ss01" horiz-adv-x="820" 
d="M154 611q100 101 256 101q155 0 255.5 -102t100.5 -260t-100.5 -260t-255.5 -102q-156 0 -256 101.5t-100 260.5t100 261zM139 350q0 -124 76 -202q76 -79 195 -79t195 78.5t76 202.5t-76 202.5t-195 78.5t-195 -79t-76 -202zM651 752q15 16 40 16t40.5 -16t15.5 -40
t-15 -40q-16 -16 -41 -16t-40.5 16t-15.5 40t16 40zM89 752q15 16 40 16q24 0 39.5 -16t15.5 -40t-15.5 -40t-39.5 -16q-25 0 -40.5 16t-15.5 40t16 40z" />
    <glyph glyph-name="Q.ss01" horiz-adv-x="820" 
d="M154 611q100 101 256 101q155 0 255.5 -102t100.5 -260q0 -149 -89 -248.5t-231 -111.5l8 -192h-89l8 192q-141 12 -230 111.5t-89 248.5q0 159 100 261zM215 148q76 -79 195 -79t195 78.5t76 202.5t-76 202.5t-195 78.5t-195 -79t-76 -202q0 -124 76 -202z" />
    <glyph glyph-name="R.ss01" horiz-adv-x="663" 
d="M100 700h272q106 0 169.5 -60t63.5 -155q0 -93 -61 -153t-164 -62l241 -270h-103l-261 294v48h106q75 0 116.5 37t41.5 102q0 66 -41.5 103t-116.5 37h-179v-621h-84v700z" />
    <glyph glyph-name="Racute.ss01" horiz-adv-x="663" 
d="M372 700q106 0 169.5 -60t63.5 -155q0 -93 -61 -153t-164 -62l241 -270h-103l-261 294v48h106q75 0 116.5 37t41.5 102q0 66 -41.5 103t-116.5 37h-179v-621h-84v700h272zM291 772l65 127h97l-89 -127h-73z" />
    <glyph glyph-name="Rcaron.ss01" horiz-adv-x="663" 
d="M100 700h272q106 0 169.5 -60t63.5 -155q0 -93 -61 -153t-164 -62l241 -270h-103l-261 294v48h106q75 0 116.5 37t41.5 102q0 66 -41.5 103t-116.5 37h-179v-621h-84v700zM259 899l71 -74l71 74h86l-126 -127h-63l-125 127h86z" />
    <glyph glyph-name="uni0156.ss01" horiz-adv-x="663" 
d="M100 0v700h272q106 0 169.5 -60t63.5 -155q0 -93 -61 -153t-164 -62l241 -270h-103l-261 294v48h106q75 0 116.5 37t41.5 102q0 66 -41.5 103t-116.5 37h-179v-621h-84zM302 -67q14 15 36 15q27 0 42.5 -18.5t15.5 -50.5q0 -68 -65 -131l-28 27q30 34 38 71q-23 0 -38 14
t-15 35q0 23 14 38z" />
    <glyph glyph-name="Scedilla.ss01" horiz-adv-x="598" 
d="M43 90l44 65q97 -82 219 -82q78 0 122.5 29t44.5 80q0 46 -43.5 79t-143.5 62q-115 34 -167 82.5t-52 121.5q0 80 64 130t167 50q138 0 243 -96l-47 -65q-83 81 -198 81q-66 0 -105.5 -26.5t-39.5 -70.5t39.5 -74.5t140.5 -61.5q118 -35 173 -85.5t55 -124.5
q0 -78 -61.5 -130t-161.5 -60l-7 -146h-81l24 146q-133 11 -229 96z" />
    <glyph glyph-name="uni0162.ss01" horiz-adv-x="592" 
d="M28 620v80h536v-80h-226v-620h-7l-8 -152h-81l25 152h-13v620h-226z" />
    <glyph glyph-name="Udieresis.ss01" horiz-adv-x="737" 
d="M175 700v-425q0 -98 51 -152t142 -54t142.5 54t51.5 152v425h83v-429q0 -130 -76 -206.5t-201 -76.5q-124 0 -200.5 77t-76.5 206v429h84zM96 847q15 15 39 15t39.5 -15.5t15.5 -39.5q0 -25 -15 -40q-16 -16 -40 -16t-39 15.5t-15 40.5q0 24 15 40zM548 807q0 24 15 39.5
t39 15.5t39 -15.5t15 -39.5q0 -25 -15 -40q-15 -16 -39 -16t-39 15.5t-15 40.5z" />
    <glyph glyph-name="i.loclTRK" horiz-adv-x="262" 
d="M91 508h81v-508h-81v508zM87 690q17 17 44 17q26 0 43 -17t17 -44t-17 -44t-43 -17q-27 0 -44 17t-17 44t17 44z" />
    <glyph glyph-name="j_acutecomb" horiz-adv-x="262" 
d="M-43 -149q36 -11 65 -11q37 0 53 21.5t16 71.5v575h81v-587q0 -77 -36.5 -117.5t-105.5 -40.5q-43 0 -91 16zM143 740h97l-80 -147h-74z" />
    <glyph glyph-name="germandbls.calt" horiz-adv-x="709" 
d="M91 0v435q0 125 62.5 195t187.5 70h261v-64l-162 -213q100 -8 158 -66.5t58 -151.5q0 -96 -63 -155t-167 -59q-102 0 -173 46l37 67q56 -35 128 -35q71 0 112 38t41 101q0 79 -53 111t-121 32q-20 0 -43 -3l-24 53l169 222h-161q-80 0 -121.5 -47.5t-41.5 -136.5v-439
h-84z" />
    <glyph glyph-name="a.ss01" horiz-adv-x="669" 
d="M49 254q0 117 71 191.5t181 74.5q128 0 198 -96v84h80v-508h-80v84q-70 -96 -198 -96q-110 0 -181 74.5t-71 191.5zM130 254q0 -83 51.5 -136.5t133.5 -53.5q80 0 132 53.5t52 136.5t-51.5 136.5t-132.5 53.5q-82 0 -133.5 -53t-51.5 -137z" />
    <glyph glyph-name="aacute.ss01" horiz-adv-x="669" 
d="M49 254q0 117 71 191.5t181 74.5q128 0 198 -96v84h80v-508h-80v84q-70 -96 -198 -96q-110 0 -181 74.5t-71 191.5zM182 118q51 -54 133 -54q80 0 132 53.5t52 136.5t-51.5 136.5t-132.5 53.5q-82 0 -133.5 -53t-51.5 -137q0 -83 52 -136zM351 740h97l-88 -147h-74z" />
    <glyph glyph-name="abreve.ss01" horiz-adv-x="669" 
d="M49 254q0 117 71 191.5t181 74.5q128 0 198 -96v84h80v-508h-80v84q-70 -96 -198 -96q-110 0 -181 74.5t-71 191.5zM182 118q51 -54 133 -54q80 0 132 53.5t52 136.5t-51.5 136.5t-132.5 53.5q-82 0 -133.5 -53t-51.5 -137q0 -83 52 -136zM183 731l62 12q5 -50 25 -72.5
t60 -22.5t60.5 22.5t24.5 72.5l63 -12q-8 -73 -44 -107q-36 -35 -104 -35t-103.5 34.5t-43.5 107.5z" />
    <glyph glyph-name="acircumflex.ss01" horiz-adv-x="669" 
d="M49 254q0 117 71 191.5t181 74.5q128 0 198 -96v84h80v-508h-80v84q-70 -96 -198 -96q-110 0 -181 74.5t-71 191.5zM182 118q51 -54 133 -54q80 0 132 53.5t52 136.5t-51.5 136.5t-132.5 53.5q-82 0 -133.5 -53t-51.5 -137q0 -83 52 -136zM174 593l125 147h63l126 -147
h-86l-71 89l-71 -89h-86z" />
    <glyph glyph-name="adieresis.ss01" horiz-adv-x="669" 
d="M49 254q0 117 71 191.5t181 74.5q128 0 198 -96v84h80v-508h-80v84q-70 -96 -198 -96q-110 0 -181 74.5t-71 191.5zM182 118q51 -54 133 -54q80 0 132 53.5t52 136.5t-51.5 136.5t-132.5 53.5q-82 0 -133.5 -53t-51.5 -137q0 -83 52 -136zM364 644q0 24 15.5 39.5
t38.5 15.5t38.5 -15.5t15.5 -39.5t-15 -39q-16 -16 -39 -16t-38.5 15.5t-15.5 39.5zM188 644q0 24 15 39.5t39 15.5q23 0 38 -15.5t15 -39.5t-15 -39.5t-38 -15.5q-24 0 -39 15.5t-15 39.5z" />
    <glyph glyph-name="agrave.ss01" horiz-adv-x="669" 
d="M49 254q0 117 71 191.5t181 74.5q128 0 198 -96v84h80v-508h-80v84q-70 -96 -198 -96q-110 0 -181 74.5t-71 191.5zM182 118q51 -54 133 -54q80 0 132 53.5t52 136.5t-51.5 136.5t-132.5 53.5q-82 0 -133.5 -53t-51.5 -137q0 -83 52 -136zM212 740h97l65 -147h-74z" />
    <glyph glyph-name="amacron.ss01" horiz-adv-x="669" 
d="M49 254q0 117 71 191.5t181 74.5q128 0 198 -96v84h80v-508h-80v84q-70 -96 -198 -96q-110 0 -181 74.5t-71 191.5zM182 118q51 -54 133 -54q80 0 132 53.5t52 136.5t-51.5 136.5t-132.5 53.5q-82 0 -133.5 -53t-51.5 -137q0 -83 52 -136zM193 612v61h275v-61h-275z" />
    <glyph glyph-name="aogonek.ss01" horiz-adv-x="669" 
d="M120 446q71 74 181 74q128 0 198 -96v84h80v-508q-75 -50 -75 -106q0 -40 40 -40q22 0 51 20l30 -47q-46 -38 -93 -38q-43 0 -68 25t-25 66q0 66 66 120h-6v84q-70 -96 -198 -96q-110 0 -181 74.5t-71 191.5t71 192zM130 254q0 -83 51.5 -136.5t133.5 -53.5
q80 0 132 53.5t52 136.5t-51.5 136.5t-132.5 53.5q-82 0 -133.5 -53t-51.5 -137z" />
    <glyph glyph-name="aring.ss01" horiz-adv-x="669" 
d="M120 446q71 74 181 74q128 0 198 -96v84h80v-508h-80v84q-70 -96 -198 -96q-110 0 -181 74.5t-71 191.5t71 192zM182 118q51 -54 133 -54q80 0 132 53.5t52 136.5t-51.5 136.5t-132.5 53.5q-82 0 -133.5 -53t-51.5 -137q0 -83 52 -136zM246 766q34 33 84 33t84.5 -33
t34.5 -81q0 -49 -34 -82q-35 -33 -85 -33t-84.5 33t-34.5 82q0 48 35 81zM288 642q16 -17 42 -17t43 17t17 43q0 25 -17 42t-43 17t-42.5 -17t-16.5 -42q0 -26 17 -43z" />
    <glyph glyph-name="atilde.ss01" horiz-adv-x="669" 
d="M49 254q0 117 71 191.5t181 74.5q128 0 198 -96v84h80v-508h-80v84q-70 -96 -198 -96q-110 0 -181 74.5t-71 191.5zM182 118q51 -54 133 -54q80 0 132 53.5t52 136.5t-51.5 136.5t-132.5 53.5q-82 0 -133.5 -53t-51.5 -137q0 -83 52 -136zM175 625q33 78 93 78
q26 0 70 -28q34 -20 50 -20q28 0 49 43l48 -27q-33 -78 -93 -78q-25 0 -70 27q-33 21 -50 21q-28 0 -49 -44z" />
    <glyph glyph-name="ae.ss01" horiz-adv-x="1024" 
d="M49 254q0 117 69 191.5t177 74.5q122 0 191 -94v82h79v-83q63 95 186 95q115 0 174 -80t59 -173q0 -26 -4 -53h-415q11 -68 59 -110t118 -42q99 0 166 75l49 -53q-72 -96 -203 -96q-126 0 -189 93v-81h-79v82q-69 -94 -191 -94q-108 0 -177 74.5t-69 191.5zM130 254
q0 -83 50 -136t128 -53t128 53t50 136t-50 136t-128 53q-79 0 -128.5 -52.5t-49.5 -136.5zM565 284h340q-7 71 -53.5 116.5t-116.5 45.5q-68 0 -115 -45t-55 -117z" />
    <glyph glyph-name="aeacute.ss01" horiz-adv-x="1024" 
d="M118 446q69 74 177 74q122 0 191 -94v82h79v-83q63 95 186 95q115 0 174 -80t59 -173q0 -26 -4 -53h-415q11 -68 59 -110t118 -42q99 0 166 75l49 -53q-72 -96 -203 -96q-126 0 -189 93v-81h-79v82q-69 -94 -191 -94q-108 0 -177 74.5t-69 191.5t69 192zM130 254
q0 -83 50 -136t128 -53t128 53t50 136t-50 136t-128 53q-79 0 -128.5 -52.5t-49.5 -136.5zM905 284q-7 71 -53.5 116.5t-116.5 45.5q-68 0 -115 -45t-55 -117h340zM490 593l65 147h97l-88 -147h-74z" />
    <glyph glyph-name="ccedilla.ss01" horiz-adv-x="554" 
d="M49 254q0 116 72.5 191t185.5 75q133 0 208 -95l-50 -51q-61 70 -157 70q-79 0 -128.5 -53t-49.5 -137q0 -85 49 -137.5t130 -52.5q104 0 163 78l54 -50q-64 -93 -195 -103l-8 -141h-76l23 142q-99 13 -160 85.5t-61 178.5z" />
    <glyph glyph-name="f.ss01" horiz-adv-x="410" 
d="M36 435v73h111v74q0 77 39 120t110 43q58 0 113 -29l-27 -65q-39 20 -76 20q-78 0 -78 -92v-71h172v-73h-172v-435h-81v435h-111z" />
    <glyph glyph-name="g.ss01" horiz-adv-x="668" 
d="M120 446q71 74 181 74q127 0 197 -96v84h80v-507q0 -110 -71.5 -175.5t-191.5 -65.5q-136 0 -238 81l41 63q86 -68 193 -68q86 0 136 45.5t50 122.5v83q-71 -95 -196 -95q-110 0 -181 74.5t-71 189.5q0 116 71 190zM130 256q0 -83 51.5 -135.5t132.5 -52.5q80 0 132 53
t52 135t-52 135t-132 53q-81 0 -132.5 -52.5t-51.5 -135.5z" />
    <glyph glyph-name="gbreve.ss01" horiz-adv-x="668" 
d="M120 446q71 74 181 74q127 0 197 -96v84h80v-507q0 -110 -71.5 -175.5t-191.5 -65.5q-136 0 -238 81l41 63q86 -68 193 -68q86 0 136 45.5t50 122.5v83q-71 -95 -196 -95q-110 0 -181 74.5t-71 189.5q0 116 71 190zM182 121q51 -53 132 -53q80 0 132 53t52 135t-52 135
t-132 53q-81 0 -132.5 -52.5t-51.5 -135.5t52 -135zM168 731l62 12q5 -50 25 -72.5t60 -22.5t60.5 22.5t24.5 72.5l63 -12q-8 -73 -44 -107q-36 -35 -104 -35t-103.5 34.5t-43.5 107.5z" />
    <glyph glyph-name="gcircumflex.ss01" horiz-adv-x="668" 
d="M120 446q71 74 181 74q127 0 197 -96v84h80v-507q0 -110 -71.5 -175.5t-191.5 -65.5q-136 0 -238 81l41 63q86 -68 193 -68q86 0 136 45.5t50 122.5v83q-71 -95 -196 -95q-110 0 -181 74.5t-71 189.5q0 116 71 190zM130 256q0 -83 51.5 -135.5t132.5 -52.5q80 0 132 53
t52 135t-52 135t-132 53q-81 0 -132.5 -52.5t-51.5 -135.5zM159 593l125 147h63l126 -147h-86l-71 89l-71 -89h-86z" />
    <glyph glyph-name="uni0123.ss01" horiz-adv-x="668" 
d="M120 446q71 74 181 74q127 0 197 -96v84h80v-507q0 -110 -71.5 -175.5t-191.5 -65.5q-136 0 -238 81l41 63q86 -68 193 -68q86 0 136 45.5t50 122.5v83q-71 -95 -196 -95q-110 0 -181 74.5t-71 189.5q0 116 71 190zM130 256q0 -83 51.5 -135.5t132.5 -52.5q80 0 132 53
t52 135t-52 135t-132 53q-81 0 -132.5 -52.5t-51.5 -135.5zM259 642q0 68 65 131l28 -27q-30 -34 -38 -71q23 0 38 -14t15 -35q0 -23 -14 -38t-36 -15q-27 0 -42.5 18.5t-15.5 50.5z" />
    <glyph glyph-name="gdotaccent.ss01" horiz-adv-x="668" 
d="M49 256q0 116 71 190t181 74q127 0 197 -96v84h80v-507q0 -110 -71.5 -175.5t-191.5 -65.5q-136 0 -238 81l41 63q86 -68 193 -68q86 0 136 45.5t50 122.5v83q-71 -95 -196 -95q-110 0 -181 74.5t-71 189.5zM130 256q0 -83 51.5 -135.5t132.5 -52.5q80 0 132 53t52 135
t-52 135t-132 53q-81 0 -132.5 -52.5t-51.5 -135.5zM255 646q0 27 17 44t44 17q26 0 43 -17t17 -44t-17 -44t-43 -17q-27 0 -44 17t-17 44z" />
    <glyph glyph-name="k.ss01" horiz-adv-x="547" 
d="M91 740h81v-740h-81v740zM226 240v41l197 227h100l-213 -246l225 -262h-102z" />
    <glyph glyph-name="uni0137.ss01" horiz-adv-x="547" 
d="M172 740v-740h-81v740h81zM423 508h100l-213 -246l225 -262h-102l-207 240v41zM229 -105q0 23 14 38t36 15q27 0 42.5 -18.5t15.5 -50.5q0 -68 -65 -131l-28 27q30 34 38 71q-23 0 -38 14t-15 35z" />
    <glyph glyph-name="kgreenlandic.ss01" horiz-adv-x="547" 
d="M226 281l197 227h100l-213 -246l225 -262h-102l-207 240v41zM172 508v-508h-81v508h81z" />
    <glyph glyph-name="scedilla.ss01" horiz-adv-x="480" 
d="M39 65l37 64q83 -61 171 -61q54 0 85 18.5t31 50.5q0 29 -28.5 49.5t-95.5 37.5q-95 24 -137.5 61t-42.5 94q0 63 48 100t131 37q114 0 197 -72l-40 -61q-64 58 -158 58q-46 0 -72 -16.5t-26 -45.5q0 -30 27 -48.5t97 -35.5q94 -24 137.5 -62t43.5 -94
q0 -61 -46.5 -100.5t-124.5 -45.5l-8 -145h-76l23 146q-98 9 -173 71z" />
    <glyph glyph-name="uni0163.ss01" horiz-adv-x="409" 
d="M27 508h99v121h81v-121h158v-71h-158v-276q0 -92 80 -92q36 0 77 20l26 -70q-45 -22 -94 -25l-8 -146h-76l24 150q-52 12 -81 53.5t-29 105.5v280h-99v71z" />
    <glyph glyph-name="u.ss01" horiz-adv-x="627" 
d="M83 508h81v-277q0 -162 150 -162q149 0 149 162v277h81v-285q0 -107 -62 -168.5t-168 -61.5q-107 0 -169 61.5t-62 168.5v285z" />
    <glyph glyph-name="uacute.ss01" horiz-adv-x="627" 
d="M83 508h81v-277q0 -162 150 -162q149 0 149 162v277h81v-285q0 -107 -62 -168.5t-168 -61.5q-107 0 -169 61.5t-62 168.5v285zM335 740h97l-88 -147h-74z" />
    <glyph glyph-name="ubreve.ss01" horiz-adv-x="627" 
d="M164 508v-277q0 -162 150 -162q149 0 149 162v277h81v-285q0 -107 -62 -168.5t-168 -61.5q-107 0 -169 61.5t-62 168.5v285h81zM167 731l62 12q5 -50 25 -72.5t60 -22.5t60.5 22.5t24.5 72.5l63 -12q-8 -73 -44 -107q-36 -35 -104 -35t-103.5 34.5t-43.5 107.5z" />
    <glyph glyph-name="ucircumflex.ss01" horiz-adv-x="627" 
d="M164 508v-277q0 -162 150 -162q149 0 149 162v277h81v-285q0 -107 -62 -168.5t-168 -61.5q-107 0 -169 61.5t-62 168.5v285h81zM158 593l125 147h63l126 -147h-86l-71 89l-71 -89h-86z" />
    <glyph glyph-name="udieresis.ss01" horiz-adv-x="627" 
d="M83 508h81v-277q0 -162 150 -162q149 0 149 162v277h81v-285q0 -107 -62 -168.5t-168 -61.5q-107 0 -169 61.5t-62 168.5v285zM348 644q0 24 15.5 39.5t38.5 15.5t38.5 -15.5t15.5 -39.5t-15 -39q-16 -16 -39 -16t-38.5 15.5t-15.5 39.5zM187 684q15 15 39 15
q23 0 38 -15.5t15 -39.5t-15 -39.5t-38 -15.5q-24 0 -39 15.5t-15 39.5t15 40z" />
    <glyph glyph-name="ugrave.ss01" horiz-adv-x="627" 
d="M83 223v285h81v-277q0 -162 150 -162q149 0 149 162v277h81v-285q0 -107 -62 -168.5t-168 -61.5q-107 0 -169 61.5t-62 168.5zM294 740l65 -147h-74l-88 147h97z" />
    <glyph glyph-name="uhungarumlaut.ss01" horiz-adv-x="627" 
d="M83 508h81v-277q0 -162 150 -162q149 0 149 162v277h81v-285q0 -107 -62 -168.5t-168 -61.5q-107 0 -169 61.5t-62 168.5v285zM412 740h88l-88 -147h-71zM258 740h88l-80 -147h-68z" />
    <glyph glyph-name="umacron.ss01" horiz-adv-x="627" 
d="M83 223v285h81v-277q0 -162 150 -162q149 0 149 162v277h81v-285q0 -107 -62 -168.5t-168 -61.5q-107 0 -169 61.5t-62 168.5zM177 673h275v-61h-275v61z" />
    <glyph glyph-name="uogonek.ss01" horiz-adv-x="627" 
d="M463 231v277h81v-285q0 -152 -133 -220q-88 -44 -88 -108q0 -41 40 -41q22 0 52 20l29 -47q-47 -38 -93 -38q-43 0 -68 25t-25 66q0 62 56 112q-109 2 -170 63t-61 168v285h81v-277q0 -162 150 -162q149 0 149 162z" />
    <glyph glyph-name="uring.ss01" horiz-adv-x="627" 
d="M83 508h81v-277q0 -162 150 -162q149 0 149 162v277h81v-285q0 -107 -62 -168.5t-168 -61.5q-107 0 -169 61.5t-62 168.5v285zM230 766q34 33 84 33t84.5 -33t34.5 -81q0 -49 -34 -82q-35 -33 -85 -33t-84.5 33t-34.5 82q0 48 35 81zM272 642q16 -17 42 -17t43 17t17 43
q0 25 -17 42t-43 17t-42.5 -17t-16.5 -42q0 -26 17 -43z" />
    <glyph glyph-name="utilde.ss01" horiz-adv-x="627" 
d="M83 223v285h81v-277q0 -162 150 -162q149 0 149 162v277h81v-285q0 -107 -62 -168.5t-168 -61.5q-107 0 -169 61.5t-62 168.5zM252 703q26 0 70 -28q34 -20 50 -20q28 0 49 43l48 -27q-33 -78 -93 -78q-25 0 -70 27q-33 21 -50 21q-28 0 -49 -44l-48 28q33 78 93 78z" />
    <glyph glyph-name="y.ss01" horiz-adv-x="639" 
d="M83 207v301h81v-288q0 -72 36 -111.5t103 -39.5q76 0 120.5 47t44.5 127v265h81v-507q0 -109 -66 -175t-173 -66q-120 0 -218 80l40 62q83 -66 174 -66q74 0 118 46t44 122v79q-66 -90 -179 -90q-94 0 -150 58.5t-56 155.5z" />
    <glyph glyph-name="yacute.ss01" horiz-adv-x="639" 
d="M83 207v301h81v-288q0 -72 36 -111.5t103 -39.5q76 0 120.5 47t44.5 127v265h81v-507q0 -109 -66 -175t-173 -66q-120 0 -218 80l40 62q83 -66 174 -66q74 0 118 46t44 122v79q-66 -90 -179 -90q-94 0 -150 58.5t-56 155.5zM272 593l65 147h97l-88 -147h-74z" />
    <glyph glyph-name="ycircumflex.ss01" horiz-adv-x="639" 
d="M83 207v301h81v-288q0 -72 36 -111.5t103 -39.5q76 0 120.5 47t44.5 127v265h81v-507q0 -109 -66 -175t-173 -66q-120 0 -218 80l40 62q83 -66 174 -66q74 0 118 46t44 122v79q-66 -90 -179 -90q-94 0 -150 58.5t-56 155.5zM284 740h63l126 -147h-86l-71 89l-71 -89h-86z
" />
    <glyph glyph-name="ydieresis.ss01" horiz-adv-x="639" 
d="M83 207v301h81v-288q0 -72 36 -111.5t103 -39.5q76 0 120.5 47t44.5 127v265h81v-507q0 -109 -66 -175t-173 -66q-120 0 -218 80l40 62q83 -66 174 -66q74 0 118 46t44 122v79q-66 -90 -179 -90q-94 0 -150 58.5t-56 155.5zM366 684q15 15 38 15t38.5 -15.5t15.5 -39.5
t-15 -39q-16 -16 -39 -16t-38.5 15.5t-15.5 39.5t16 40zM174 644q0 24 15 39.5t39 15.5q23 0 38 -15.5t15 -39.5t-15 -39.5t-38 -15.5q-24 0 -39 15.5t-15 39.5z" />
    <glyph glyph-name="ygrave.ss01" horiz-adv-x="639" 
d="M83 207v301h81v-288q0 -72 36 -111.5t103 -39.5q76 0 120.5 47t44.5 127v265h81v-507q0 -109 -66 -175t-173 -66q-120 0 -218 80l40 62q83 -66 174 -66q74 0 118 46t44 122v79q-66 -90 -179 -90q-94 0 -150 58.5t-56 155.5zM295 740l65 -147h-74l-88 147h97z" />
    <glyph glyph-name="f_t_y.dlig" horiz-adv-x="1308" 
d="M1095 221l108 287h87l-235 -610q-50 -133 -169 -133q-46 0 -88 18l22 70q28 -11 62 -11q37 0 59 18t40 65l21 54l-203 456h-227v-274q0 -92 80 -92q36 0 77 20l26 -70q-55 -26 -111 -26q-72 0 -112.5 44t-40.5 120v278h-263v-435h-81v435h-111v73h111v74q0 77 39 120
t110 43q58 0 113 -29l-27 -65q-39 20 -76 20q-78 0 -78 -92v-71h263v121h81v-121h282l127 -286l61 -140z" />
    <glyph glyph-name="f_t_yacute.dlig" horiz-adv-x="1308" 
d="M1095 221l108 287h87l-235 -610q-50 -133 -169 -133q-46 0 -88 18l22 70q28 -11 62 -11q37 0 59 18t40 65l21 54l-203 456h-227v-274q0 -92 80 -92q36 0 77 20l26 -70q-55 -26 -111 -26q-72 0 -112.5 44t-40.5 120v278h-263v-435h-81v435h-111v73h111v74q0 77 39 120
t110 43q58 0 113 -29l-27 -65q-39 20 -76 20q-78 0 -78 -92v-71h263v121h81v-121h282l127 -286l61 -140zM1051 740h97l-88 -147h-74z" />
    <glyph glyph-name="f_t_ycircumflex.dlig" horiz-adv-x="1308" 
d="M1095 221l108 287h87l-235 -610q-50 -133 -169 -133q-46 0 -88 18l22 70q28 -11 62 -11q37 0 59 18t40 65l21 54l-203 456h-227v-274q0 -92 80 -92q36 0 77 20l26 -70q-55 -26 -111 -26q-72 0 -112.5 44t-40.5 120v278h-263v-435h-81v435h-111v73h111v74q0 77 39 120
t110 43q58 0 113 -29l-27 -65q-39 20 -76 20q-78 0 -78 -92v-71h263v121h81v-121h282l127 -286l61 -140zM1102 593l-71 89l-71 -89h-86l125 147h63l126 -147h-86z" />
    <glyph glyph-name="f_t_ydieresis.dlig" horiz-adv-x="1308" 
d="M1095 221l108 287h87l-235 -610q-50 -133 -169 -133q-46 0 -88 18l22 70q28 -11 62 -11q37 0 59 18t40 65l21 54l-203 456h-227v-274q0 -92 80 -92q36 0 77 20l26 -70q-55 -26 -111 -26q-72 0 -112.5 44t-40.5 120v278h-263v-435h-81v435h-111v73h111v74q0 77 39 120
t110 43q58 0 113 -29l-27 -65q-39 20 -76 20q-78 0 -78 -92v-71h263v121h81v-121h282l127 -286l61 -140zM1102 593l-71 89l-71 -89h-86l125 147h63l126 -147h-86z" />
    <glyph glyph-name="f_t_ygrave.dlig" horiz-adv-x="1308" 
d="M1095 221l108 287h87l-235 -610q-50 -133 -169 -133q-46 0 -88 18l22 70q28 -11 62 -11q37 0 59 18t40 65l21 54l-203 456h-227v-274q0 -92 80 -92q36 0 77 20l26 -70q-55 -26 -111 -26q-72 0 -112.5 44t-40.5 120v278h-263v-435h-81v435h-111v73h111v74q0 77 39 120
t110 43q58 0 113 -29l-27 -65q-39 20 -76 20q-78 0 -78 -92v-71h263v121h81v-121h282l127 -286l61 -140zM1010 740l65 -147h-74l-88 147h97z" />
    <glyph glyph-name="f_t_y.ss01.dlig" horiz-adv-x="1391" 
d="M1219 243v265h81v-507q0 -109 -64.5 -175t-169.5 -66q-117 0 -210 77l37 65q78 -66 169 -66q72 0 115 45.5t43 122.5v80q-64 -91 -177 -91q-93 0 -148.5 58.5t-55.5 155.5v228h-267v-274q0 -92 75 -92q33 0 72 20l26 -70q-52 -26 -106 -26q-69 0 -108.5 44t-39.5 120v278
h-263v-435h-81v435h-111v73h111v74q0 77 39 120t110 43q58 0 113 -29l-27 -65q-39 20 -76 20q-78 0 -78 -92v-71h263v121h81v-121h348v-288q0 -72 35.5 -111.5t101.5 -39.5q75 0 118.5 47t43.5 127z" />
    <glyph glyph-name="f_t_yacute.ss01.dlig" horiz-adv-x="1391" 
d="M1219 243v265h81v-507q0 -109 -64.5 -175t-169.5 -66q-117 0 -210 77l37 65q78 -66 169 -66q72 0 115 45.5t43 122.5v80q-64 -91 -177 -91q-93 0 -148.5 58.5t-55.5 155.5v228h-267v-274q0 -92 75 -92q33 0 72 20l26 -70q-52 -26 -106 -26q-69 0 -108.5 44t-39.5 120v278
h-263v-435h-81v435h-111v73h111v74q0 77 39 120t110 43q58 0 113 -29l-27 -65q-39 20 -76 20q-78 0 -78 -92v-71h263v121h81v-121h348v-288q0 -72 35.5 -111.5t101.5 -39.5q75 0 118.5 47t43.5 127zM1091 740h97l-88 -147h-74z" />
    <glyph glyph-name="f_t_ycircumflex.ss01.dlig" horiz-adv-x="1391" 
d="M1219 243v265h81v-507q0 -109 -64.5 -175t-169.5 -66q-117 0 -210 77l37 65q78 -66 169 -66q72 0 115 45.5t43 122.5v80q-64 -91 -177 -91q-93 0 -148.5 58.5t-55.5 155.5v228h-267v-274q0 -92 75 -92q33 0 72 20l26 -70q-52 -26 -106 -26q-69 0 -108.5 44t-39.5 120v278
h-263v-435h-81v435h-111v73h111v74q0 77 39 120t110 43q58 0 113 -29l-27 -65q-39 20 -76 20q-78 0 -78 -92v-71h263v121h81v-121h348v-288q0 -72 35.5 -111.5t101.5 -39.5q75 0 118.5 47t43.5 127zM1141 593l-71 89l-71 -89h-86l125 147h63l126 -147h-86z" />
    <glyph glyph-name="f_t_ydieresis.ss01.dlig" horiz-adv-x="1391" 
d="M1219 243v265h81v-507q0 -109 -64.5 -175t-169.5 -66q-117 0 -210 77l37 65q78 -66 169 -66q72 0 115 45.5t43 122.5v80q-64 -91 -177 -91q-93 0 -148.5 58.5t-55.5 155.5v228h-267v-274q0 -92 75 -92q33 0 72 20l26 -70q-52 -26 -106 -26q-69 0 -108.5 44t-39.5 120v278
h-263v-435h-81v435h-111v73h111v74q0 77 39 120t110 43q58 0 113 -29l-27 -65q-39 20 -76 20q-78 0 -78 -92v-71h263v121h81v-121h348v-288q0 -72 35.5 -111.5t101.5 -39.5q75 0 118.5 47t43.5 127zM982 589q-24 0 -39 15.5t-15 39.5t15 39.5t39 15.5q23 0 38 -15.5
t15 -39.5t-15 -39.5t-38 -15.5zM1158 589q-23 0 -38.5 15.5t-15.5 39.5t15.5 39.5t38.5 15.5t38.5 -15.5t15.5 -39.5t-15.5 -39.5t-38.5 -15.5z" />
    <glyph glyph-name="f_t_ygrave.ss01.dlig" horiz-adv-x="1391" 
d="M1219 243v265h81v-507q0 -109 -64.5 -175t-169.5 -66q-117 0 -210 77l37 65q78 -66 169 -66q72 0 115 45.5t43 122.5v80q-64 -91 -177 -91q-93 0 -148.5 58.5t-55.5 155.5v228h-267v-274q0 -92 75 -92q33 0 72 20l26 -70q-52 -26 -106 -26q-69 0 -108.5 44t-39.5 120v278
h-263v-435h-81v435h-111v73h111v74q0 77 39 120t110 43q58 0 113 -29l-27 -65q-39 20 -76 20q-78 0 -78 -92v-71h263v121h81v-121h348v-288q0 -72 35.5 -111.5t101.5 -39.5q75 0 118.5 47t43.5 127zM1049 740l65 -147h-74l-88 147h97z" />
    <glyph glyph-name="t_y.ss01.dlig" horiz-adv-x="1026" 
d="M854 243v265h81v-507q0 -109 -64.5 -175t-169.5 -66q-117 0 -210 77l37 65q78 -66 169 -66q72 0 115 45.5t43 122.5v80q-64 -91 -177 -91q-92 0 -148 58.5t-56 155.5v230h-267v-276q0 -92 75 -92q33 0 72 20l26 -70q-52 -26 -106 -26q-69 0 -108.5 44t-39.5 120v280h-99
v71h99v121h81v-121h348v-288q0 -72 35.5 -111.5t101.5 -39.5q75 0 118.5 47t43.5 127z" />
    <glyph glyph-name="t_yacute.ss01.dlig" horiz-adv-x="1026" 
d="M726 740h97l-88 -147h-74zM854 243v265h81v-507q0 -109 -64.5 -175t-169.5 -66q-117 0 -210 77l37 65q78 -66 169 -66q72 0 115 45.5t43 122.5v80q-64 -91 -177 -91q-92 0 -148 58.5t-56 155.5v230h-267v-276q0 -92 75 -92q33 0 72 20l26 -70q-52 -26 -106 -26
q-69 0 -108.5 44t-39.5 120v280h-99v71h99v121h81v-121h348v-288q0 -72 35.5 -111.5t101.5 -39.5q75 0 118.5 47t43.5 127z" />
    <glyph glyph-name="t_ycircumflex.ss01.dlig" horiz-adv-x="1026" 
d="M777 593l-71 89l-71 -89h-86l125 147h63l126 -147h-86zM854 243v265h81v-507q0 -109 -64.5 -175t-169.5 -66q-117 0 -210 77l37 65q78 -66 169 -66q72 0 115 45.5t43 122.5v80q-64 -91 -177 -91q-92 0 -148 58.5t-56 155.5v230h-267v-276q0 -92 75 -92q33 0 72 20l26 -70
q-52 -26 -106 -26q-69 0 -108.5 44t-39.5 120v280h-99v71h99v121h81v-121h348v-288q0 -72 35.5 -111.5t101.5 -39.5q75 0 118.5 47t43.5 127z" />
    <glyph glyph-name="t_ydieresis.ss01.dlig" horiz-adv-x="1026" 
d="M617 589q-24 0 -39 15.5t-15 39.5t15 39.5t39 15.5q23 0 38 -15.5t15 -39.5t-15 -39.5t-38 -15.5zM793 589q-23 0 -38.5 15.5t-15.5 39.5t15.5 39.5t38.5 15.5t38.5 -15.5t15.5 -39.5t-15.5 -39.5t-38.5 -15.5zM854 243v265h81v-507q0 -109 -64.5 -175t-169.5 -66
q-117 0 -210 77l37 65q78 -66 169 -66q72 0 115 45.5t43 122.5v80q-64 -91 -177 -91q-92 0 -148 58.5t-56 155.5v230h-267v-276q0 -92 75 -92q33 0 72 20l26 -70q-52 -26 -106 -26q-69 0 -108.5 44t-39.5 120v280h-99v71h99v121h81v-121h348v-288q0 -72 35.5 -111.5
t101.5 -39.5q75 0 118.5 47t43.5 127z" />
    <glyph glyph-name="t_ygrave.ss01.dlig" horiz-adv-x="1026" 
d="M684 740l65 -147h-74l-88 147h97zM854 243v265h81v-507q0 -109 -64.5 -175t-169.5 -66q-117 0 -210 77l37 65q78 -66 169 -66q72 0 115 45.5t43 122.5v80q-64 -91 -177 -91q-92 0 -148 58.5t-56 155.5v230h-267v-276q0 -92 75 -92q33 0 72 20l26 -70q-52 -26 -106 -26
q-69 0 -108.5 44t-39.5 120v280h-99v71h99v121h81v-121h348v-288q0 -72 35.5 -111.5t101.5 -39.5q75 0 118.5 47t43.5 127z" />
    <glyph glyph-name="t_y.dlig" horiz-adv-x="943" 
d="M730 221l108 287h87l-235 -610q-50 -133 -168 -133q-47 0 -89 18l22 70q27 -11 62 -11q37 0 59 18t40 65l21 54l-204 458h-226v-276q0 -92 80 -92q36 0 77 20l26 -70q-55 -26 -111 -26q-72 0 -112.5 44t-40.5 120v280h-99v71h99v121h81v-121h283l126 -286l61 -140z" />
    <glyph glyph-name="t_yacute.dlig" horiz-adv-x="943" 
d="M690 740h97l-88 -147h-74zM730 221l108 287h87l-235 -610q-50 -133 -168 -133q-47 0 -89 18l22 70q27 -11 62 -11q37 0 59 18t40 65l21 54l-204 458h-226v-276q0 -92 80 -92q36 0 77 20l26 -70q-55 -26 -111 -26q-72 0 -112.5 44t-40.5 120v280h-99v71h99v121h81v-121
h283l126 -286l61 -140z" />
    <glyph glyph-name="t_ycircumflex.dlig" horiz-adv-x="943" 
d="M740 593l-71 89l-71 -89h-86l125 147h63l126 -147h-86zM730 221l108 287h87l-235 -610q-50 -133 -168 -133q-47 0 -89 18l22 70q27 -11 62 -11q37 0 59 18t40 65l21 54l-204 458h-226v-276q0 -92 80 -92q36 0 77 20l26 -70q-55 -26 -111 -26q-72 0 -112.5 44t-40.5 120
v280h-99v71h99v121h81v-121h283l126 -286l61 -140z" />
    </font>
</defs>
</svg>
