<?xml version="1.0" standalone="no"?>
<!DOCTYPE svg PUBLIC "-//W3C//DTD SVG 1.1//EN" "http://www.w3.org/Graphics/SVG/1.1/DTD/svg11.dtd" >
<svg xmlns="http://www.w3.org/2000/svg" xmlns:xlink="http://www.w3.org/1999/xlink" version="1.1">
<metadata>
Created by FontForge 20170731 at Tue Jul 14 08:18:08 2020
 By Aleksey,,,
Copyright (c) 2020 by Kastelov. All rights reserved.
</metadata>
<defs>
<font id="Kinetika-Book" horiz-adv-x="590" >
  <font-face 
    font-family="Kinetika-Book"
    font-weight="400"
    font-stretch="normal"
    units-per-em="1000"
    panose-1="0 0 3 0 0 0 0 0 0 0"
    ascent="768"
    descent="-232"
    x-height="474"
    cap-height="669"
    bbox="-377 -230 1095 901"
    underline-thickness="50"
    underline-position="-150"
    unicode-range="U+000D-2767"
  />
<missing-glyph horiz-adv-x="104" 
 />
    <glyph glyph-name=".notdef" horiz-adv-x="104" 
 />
    <glyph glyph-name=".null" horiz-adv-x="0" 
 />
    <glyph glyph-name="uni000D" horiz-adv-x="333" 
 />
    <glyph glyph-name="uni000D.1" unicode="&#xd;" horiz-adv-x="154" 
 />
    <glyph glyph-name="space" unicode=" " horiz-adv-x="225" 
 />
    <glyph glyph-name="exclam" unicode="!" horiz-adv-x="248" 
d="M160 703l-8 -556h-57l-7 556h72zM93 62q13 13 32 13q18 0 31 -12.5t13 -31.5q0 -18 -13 -30.5t-31 -12.5q-19 0 -32 12.5t-13 30.5t13 31z" />
    <glyph glyph-name="quotedbl" unicode="&#x22;" horiz-adv-x="335" 
d="M82 701h66l-42 -259h-50zM226 701h66l-43 -259h-49z" />
    <glyph glyph-name="numbersign" unicode="#" horiz-adv-x="668" 
d="M43 232h118l45 209h-136l10 46h136l40 182h52l-39 -182h197l39 182h53l-38 -182h116l-10 -46h-116l-44 -209h134l-9 -47h-135l-39 -185h-56l40 185h-196l-39 -185h-56l40 185h-118zM215 232h196l45 209h-196z" />
    <glyph glyph-name="dollar" unicode="$" horiz-adv-x="582" 
d="M67 113q107 -73 231 -73q89 0 140.5 37.5t51.5 98.5q0 81 -104 115q-26 8 -106 24q-40 8 -67.5 15.5t-60 21.5t-52 32t-33 47t-13.5 65q0 81 59 129t159 54v127h57v-127q105 -7 197 -61l-21 -47q-89 58 -205 58q-93 0 -140.5 -35.5t-47.5 -93.5q0 -27 12.5 -48.5t28 -34
t45 -23.5t47.5 -15t51 -11q107 -23 143 -37q108 -45 108 -149q0 -82 -58 -133t-160 -59v-120h-57v119q-130 6 -229 77z" />
    <glyph glyph-name="percent" unicode="%" horiz-adv-x="760" 
d="M35 520q0 67 46 113.5t113 46.5q68 0 114 -46t46 -114t-46 -114q-47 -47 -114 -47t-113 46.5t-46 114.5zM408 149q0 67 46 113.5t114 46.5q67 0 113 -46.5t46 -113.5t-46 -113.5t-113 -46.5q-68 0 -114 46.5t-46 113.5zM80 520q0 -52 32.5 -85.5t81.5 -33.5
q50 0 82.5 33.5t32.5 85.5q0 51 -33 85t-82 34t-81.5 -34t-32.5 -85zM486 64q32 -34 82 -34q49 0 81.5 33.5t32.5 85.5q0 51 -32.5 85t-81.5 34t-82 -34t-33 -85q0 -52 33 -85zM80 0l533 669h55l-532 -669h-56z" />
    <glyph glyph-name="ampersand" unicode="&#x26;" horiz-adv-x="665" 
d="M43 163q0 125 157 190q-29 27 -46.5 47t-34.5 53.5t-17 67.5q0 65 51 112t135 47q83 0 129 -47t46 -110q0 -54 -42.5 -94.5t-130.5 -88.5l204 -189q56 59 78 135h54q-21 -90 -93 -170l125 -116h-72l-88 80q-100 -91 -237 -91q-103 0 -160.5 51t-57.5 123zM147 72
q45 -35 116 -35q107 0 196 79l-219 200q-138 -57 -138 -152q0 -57 45 -92zM158 520q0 -40 24 -72t68 -72q87 45 122 78t35 68q0 48 -33.5 79t-86.5 31q-56 0 -92.5 -31.5t-36.5 -80.5z" />
    <glyph glyph-name="quotesingle" unicode="'" horiz-adv-x="192" 
d="M106 442h-50l26 259h66z" />
    <glyph glyph-name="parenleft" unicode="(" horiz-adv-x="270" 
d="M89 528q42 121 113 204h59q-154 -201 -154 -450q0 -238 154 -453h-59q-69 83 -112.5 206t-43.5 246q0 125 43 247z" />
    <glyph glyph-name="parenright" unicode=")" horiz-adv-x="269" 
d="M8 -171q154 215 154 453q0 249 -154 450h59q71 -83 113.5 -204.5t42.5 -246.5q0 -122 -44 -245t-112 -207h-59z" />
    <glyph glyph-name="asterisk" unicode="*" horiz-adv-x="445" 
d="M49 638l27 47h4l126 -87l-12 150l1 5h55l2 -5l-12 -150l126 87h3l27 -47l-3 -5l-136 -65l136 -62l4 -4l-28 -48h-4l-125 86l12 -150l-2 -6h-55l-1 6l12 150l-124 -86h-6l-27 48l4 4l135 62l-137 65z" />
    <glyph glyph-name="plus" unicode="+" horiz-adv-x="493" 
d="M35 298v50h184v186h54v-186h185v-50h-185v-186h-54v186h-184z" />
    <glyph glyph-name="comma" unicode="," horiz-adv-x="191" 
d="M100 -14q-4 -1 -10 -1q-20 0 -32.5 13t-12.5 30q0 20 14 33.5t35 13.5q22 0 36 -15t14 -42q0 -34 -25 -89.5t-58 -96.5l-20 12q46 77 59 142z" />
    <glyph glyph-name="hyphen" unicode="-" horiz-adv-x="470" 
d="M405 246h-340v54h340v-54z" />
    <glyph glyph-name="period" unicode="." horiz-adv-x="210" 
d="M59 32q0 19 13.5 32t32.5 13t32 -13t13 -32t-13 -32t-32 -13t-32.5 13t-13.5 32z" />
    <glyph glyph-name="slash" unicode="/" horiz-adv-x="471" 
d="M86 -109h-62l363 844h62z" />
    <glyph glyph-name="zero" unicode="0" horiz-adv-x="629" 
d="M126 584q73 96 189 96q115 0 188.5 -96t73.5 -250q0 -153 -73 -249q-74 -96 -189 -96t-189 95.5t-74 249.5t74 250zM113 334q0 -129 57 -209q57 -81 145 -81t144.5 80.5t56.5 209.5t-56.5 209.5t-144.5 80.5t-145 -80.5t-57 -209.5z" />
    <glyph glyph-name="one" unicode="1" horiz-adv-x="361" 
d="M20 612l197 57h42v-669h-60v610l-179 -52v54z" />
    <glyph glyph-name="two" unicode="2" horiz-adv-x="545" 
d="M46 -1v48l228 211q4 4 36 32t44 41t33.5 39.5t30 51.5t8.5 52q0 66 -45 109.5t-114 43.5t-114.5 -47.5t-50.5 -122.5l-56 8q6 97 68 156t155 59q96 0 156.5 -58.5t60.5 -144.5q0 -25 -5.5 -48.5t-20 -47.5t-24 -40t-33.5 -40l-33 -33q-8 -8 -37 -33.5t-31 -27.5
l-174 -155h373v-53h-455z" />
    <glyph glyph-name="three" unicode="3" horiz-adv-x="558" 
d="M87 197q11 -70 63.5 -113t123.5 -43q75 0 126.5 49.5t51.5 123.5q0 71 -48 119t-124 48q-66 0 -126 -42l-28 37l277 240h-329v52h404v-49l-233 -204q28 7 51 7q95 0 156 -59.5t61 -149.5q0 -96 -68.5 -160t-171.5 -64q-93 0 -160 53t-82 142z" />
    <glyph glyph-name="four" unicode="4" horiz-adv-x="574" 
d="M376 669h72v-441h92v-52h-92v-176h-59v176h-368v48zM92 228h297v382z" />
    <glyph glyph-name="five" unicode="5" horiz-adv-x="562" 
d="M94 195q12 -71 64.5 -112.5t122.5 -41.5q75 0 127 49.5t52 124.5q0 74 -49 120.5t-128 46.5q-93 0 -167 -77l-48 26l42 338h370v-52h-321l-33 -250q74 63 167 63q98 0 162.5 -61.5t64.5 -156.5t-67.5 -159t-171.5 -64q-93 0 -160 52.5t-83 139.5z" />
    <glyph glyph-name="six" unicode="6" horiz-adv-x="556" 
d="M38 221q0 96 81 205l184 243h70l-196 -256q49 31 115 31q97 0 164.5 -64.5t67.5 -160.5q0 -99 -70 -164.5t-173 -65.5q-104 0 -173.5 66.5t-69.5 165.5zM151 92q52 -53 129 -53t130 51t53 128t-54 128t-131 51t-128.5 -50t-51.5 -126q0 -77 53 -129z" />
    <glyph glyph-name="seven" unicode="7" horiz-adv-x="474" 
d="M27 616v53h429v-53l-326 -616h-70l331 616h-364z" />
    <glyph glyph-name="eight" unicode="8" horiz-adv-x="618" 
d="M50 180q0 62 40.5 108t109.5 63q-57 17 -91 57.5t-34 93.5q0 77 66.5 127.5t167.5 50.5t168 -51t67 -127q0 -52 -33.5 -92.5t-90.5 -57.5q68 -18 108.5 -63.5t40.5 -106.5q0 -85 -72.5 -139t-187.5 -54q-114 0 -186.5 53.5t-72.5 137.5zM113 183q0 -63 55 -103.5
t141 -40.5q85 0 140.5 40.5t55.5 105.5q0 62 -55 101t-140 39q-86 0 -141.5 -39.5t-55.5 -102.5zM181 407q48 -37 121 -37q79 0 131.5 37.5t52.5 93.5q0 57 -50.5 93.5t-126.5 36.5t-126.5 -37.5t-50.5 -94.5q0 -55 49 -92z" />
    <glyph glyph-name="nine" unicode="9" horiz-adv-x="556" 
d="M102 615q69 65 172 65q104 0 173.5 -67.5t69.5 -165.5q0 -43 -16.5 -87.5t-32 -68.5t-39.5 -56l-178 -235h-69l190 251q-46 -26 -108 -26q-98 0 -165 64.5t-67 160.5q0 99 70 165zM145 323q54 -51 131 -51t129 50t52 126q0 77 -52.5 129t-129.5 52t-130.5 -51t-53.5 -128
q0 -76 54 -127z" />
    <glyph glyph-name="colon" unicode=":" horiz-adv-x="217" 
d="M77 438q13 13 33 13q18 0 31 -13t13 -32t-13 -32t-31 -13q-20 0 -33.5 13t-13.5 32t14 32zM77 64q13 13 33 13q18 0 31 -13t13 -32t-13 -32t-31 -13q-20 0 -33.5 13t-13.5 32t14 32z" />
    <glyph glyph-name="semicolon" unicode=";" horiz-adv-x="232" 
d="M123 -14q-4 -1 -10 -1q-20 0 -33 13t-13 30q0 19 14.5 33t34.5 14q22 0 36.5 -15t14.5 -42q0 -34 -25.5 -89.5t-58.5 -96.5l-19 12q46 81 59 142zM65 409q0 19 14 33t34 14t33.5 -13.5t13.5 -33.5q0 -19 -14 -33t-33 -14q-20 0 -34 14t-14 33z" />
    <glyph glyph-name="less" unicode="&#x3c;" horiz-adv-x="455" 
d="M395 518v-60l-304 -142l304 -144v-61l-365 178v53z" />
    <glyph glyph-name="equal" unicode="=" horiz-adv-x="506" 
d="M436 458v-56h-366v56h366zM70 192v55h366v-55h-366z" />
    <glyph glyph-name="greater" unicode="&#x3e;" horiz-adv-x="455" 
d="M425 342v-53l-365 -178v61l304 144l-304 142v60z" />
    <glyph glyph-name="question" unicode="?" horiz-adv-x="509" 
d="M117 680q59 31 129 31q96 0 160 -52t64 -139q0 -39 -15 -71t-38 -51t-49.5 -40t-49.5 -39t-38 -46.5t-15 -63.5v-63h-59v65q0 48 21 84.5t51 59.5t59.5 44.5t50.5 51.5t21 69q0 65 -48.5 101.5t-117.5 36.5q-116 0 -171 -97l-47 29q32 59 92 90zM206 60q13 12 31 12
q17 0 29.5 -12.5t12.5 -29.5q0 -18 -12.5 -30t-29.5 -12q-18 0 -31 12t-13 30q0 17 13 30z" />
    <glyph glyph-name="at" unicode="@" horiz-adv-x="825" 
d="M149 500q104 104 269 104q159 0 260.5 -94.5t101.5 -233.5q0 -97 -50.5 -158.5t-121.5 -61.5q-39 0 -65 20.5t-33 54.5q-49 -76 -136 -76q-65 0 -107 47t-42 120q0 81 51 138t124 57q83 0 122 -74l5 65h46l-17 -237v-6q0 -27 16.5 -46.5t44.5 -19.5q47 0 82 49.5
t35 123.5q0 121 -89.5 204.5t-226.5 83.5q-145 0 -236 -94t-91 -231q0 -138 90.5 -229t232.5 -91q69 0 138.5 23.5t117.5 61.5l20 -35q-51 -42 -128.5 -67.5t-153.5 -25.5q-158 0 -261 103t-103 262t105 263zM306 135q31 -36 80 -36q48 0 83.5 37t43.5 92l2 15v5
q0 53 -31 88t-79 35q-55 0 -93 -43t-38 -104q0 -54 32 -89z" />
    <glyph glyph-name="A" unicode="A" horiz-adv-x="661" 
d="M642 0h-65l-76 186h-342l-76 -186h-65l283 669h62zM482 239l-149 371l-154 -371h303z" />
    <glyph glyph-name="B" unicode="B" horiz-adv-x="683" 
d="M509 355q57 -13 91.5 -59.5t34.5 -108.5q0 -81 -58 -134t-153 -53h-331v669h330q81 0 130.5 -49.5t49.5 -122.5q0 -47 -25 -85.5t-69 -56.5zM416 618h-263v-247h259q56 0 94 34.5t38 86.5q0 54 -36 90t-92 36zM153 51h266q69 0 112 39.5t43 99.5q0 56 -38 93.5t-93 37.5
h-290v-270z" />
    <glyph glyph-name="C" unicode="C" horiz-adv-x="724" 
d="M383 -11q-144 0 -240.5 98.5t-96.5 246.5t96 247t241 99q107 0 190 -56.5t120 -152.5l-54 -25q-31 81 -100.5 130t-156.5 49q-116 0 -196 -84.5t-80 -206.5t80.5 -206t196.5 -84q85 0 153.5 47.5t100.5 125.5l55 -24q-37 -93 -120 -148.5t-189 -55.5z" />
    <glyph glyph-name="D" unicode="D" horiz-adv-x="708" 
d="M340 0h-247v669h233q153 0 243 -93t90 -242q0 -148 -86 -241t-233 -93zM153 614v-559h186q118 0 188.5 78.5t70.5 201.5q0 124 -72 201.5t-194 77.5h-179z" />
    <glyph glyph-name="E" unicode="E" horiz-adv-x="611" 
d="M153 312v-259h411v-53h-471v669h460v-53h-400v-251h386v-53h-386z" />
    <glyph glyph-name="F" unicode="F" horiz-adv-x="572" 
d="M93 669h448v-54h-388v-253h361v-53h-361v-309h-60v669z" />
    <glyph glyph-name="G" unicode="G" horiz-adv-x="755" 
d="M681 506l-48 -34q-32 69 -99 111t-144 42q-125 0 -203.5 -82.5t-78.5 -207.5q0 -127 80 -209.5t202 -82.5q115 0 188.5 73.5t73.5 183.5h-279v53h341v-37q0 -143 -91.5 -235.5t-234.5 -92.5q-148 0 -244.5 97.5t-96.5 249.5q0 149 96 247.5t245 98.5q94 0 173.5 -47.5
t119.5 -127.5z" />
    <glyph glyph-name="H" unicode="H" horiz-adv-x="733" 
d="M579 358v311h60v-669h-60v302h-425v-302h-61v669h61v-311h425z" />
    <glyph glyph-name="I" unicode="I" horiz-adv-x="247" 
d="M93 0v669h61v-669h-61z" />
    <glyph glyph-name="J" unicode="J" horiz-adv-x="481" 
d="M151 -11q-65 0 -127 20l-1 54q67 -19 121 -19q94 0 142.5 49.5t48.5 128.5v447h60v-457q0 -102 -64 -162.5t-180 -60.5z" />
    <glyph glyph-name="K" unicode="K" horiz-adv-x="615" 
d="M214 334l396 -334h-83l-373 314v-314h-61v669h61v-320l362 320h79z" />
    <glyph glyph-name="L" unicode="L" horiz-adv-x="551" 
d="M528 0h-435v669h61v-615h374v-54z" />
    <glyph glyph-name="M" unicode="M" horiz-adv-x="883" 
d="M441 213l291 456h57v-669h-59v565l-268 -420h-42l-268 420v-565h-59v669h57z" />
    <glyph glyph-name="N" unicode="N" horiz-adv-x="738" 
d="M586 95v574h58v-669h-55l-437 573v-573h-59v669h58z" />
    <glyph glyph-name="O" unicode="O" horiz-adv-x="766" 
d="M624 87q-96 -98 -241 -98t-241 98.5t-96 246.5t96 247t241 99q144 0 240 -99t96 -247q0 -149 -95 -247zM187 128q80 -84 196 -84t196.5 84t80.5 206t-80.5 206.5t-196.5 84.5t-196.5 -84.5t-80.5 -206.5t81 -206z" />
    <glyph glyph-name="P" unicode="P" horiz-adv-x="647" 
d="M383 669q103 0 167 -62t64 -160q0 -99 -65 -161.5t-172 -62.5h-224v-223h-60v669h290zM153 276h219q82 0 131.5 48t49.5 122t-48.5 122t-127.5 48h-224v-340z" />
    <glyph glyph-name="Q" unicode="Q" horiz-adv-x="769" 
d="M632 -101q47 0 98 15v-54q-53 -16 -110 -16q-90 0 -153.5 41t-99.5 104q-139 6 -230 103.5t-91 241.5q0 148 96 247t241 99q144 0 240 -99t96 -247q0 -134 -79 -228.5t-204 -112.5q67 -94 196 -94zM187 541q-81 -85 -81 -207t80.5 -206t196.5 -84t196.5 84t80.5 206
t-80.5 206.5t-196.5 84.5t-196 -84z" />
    <glyph glyph-name="R" unicode="R" horiz-adv-x="657" 
d="M609 0h-73l-185 241h-198v-241h-60v669h290q99 0 162 -60t63 -153q0 -87 -53 -143t-139 -67zM375 616h-222v-322h212q82 0 132.5 43t50.5 116q0 71 -48 117t-125 46z" />
    <glyph glyph-name="S" unicode="S" horiz-adv-x="623" 
d="M318 -10q-166 0 -284 88l26 50q106 -85 263 -85q89 0 144.5 37t55.5 103q0 28 -13 49t-31 33.5t-50.5 22.5t-56.5 14t-64 10q-38 5 -65 10.5t-64.5 19t-61 31.5t-41 49.5t-17.5 71.5q0 89 68.5 137.5t187.5 48.5q127 0 243 -57l-24 -48q-109 53 -218 53q-96 0 -146 -35
t-50 -96q0 -34 17 -58t49.5 -38t63 -21.5t74.5 -13.5q34 -5 52 -8t50 -10.5t50.5 -15t42 -21.5t36 -30.5t21.5 -41t9 -54.5q0 -98 -74.5 -146.5t-192.5 -48.5z" />
    <glyph glyph-name="T" unicode="T" horiz-adv-x="560" 
d="M250 0v616h-228v53h516v-53h-228v-616h-60z" />
    <glyph glyph-name="U" unicode="U" horiz-adv-x="707" 
d="M548 62q-76 -73 -195 -73t-194 73.5t-75 188.5v418h60v-415q0 -91 59 -149.5t150 -58.5t150.5 58.5t59.5 149.5v415h60v-418q0 -116 -75 -189z" />
    <glyph glyph-name="V" unicode="V" horiz-adv-x="656" 
d="M328 68l242 601h66l-275 -669h-66l-276 669h66z" />
    <glyph glyph-name="W" unicode="W" horiz-adv-x="946" 
d="M685 82l172 587h63l-205 -669h-62l-180 579l-181 -579h-62l-205 669h63l174 -587l184 587h52z" />
    <glyph glyph-name="X" unicode="X" horiz-adv-x="601" 
d="M337 339l253 -339h-72l-218 294l-221 -294h-70l254 341l-242 328h71l209 -285l211 285h71z" />
    <glyph glyph-name="Y" unicode="Y" horiz-adv-x="629" 
d="M314 297l223 372h69l-262 -432v-237h-60v237l-259 432h69z" />
    <glyph glyph-name="Z" unicode="Z" horiz-adv-x="569" 
d="M533 619l-431 -566h442v-53h-516v49l433 567h-421v53h493v-50z" />
    <glyph glyph-name="bracketleft" unicode="[" horiz-adv-x="333" 
d="M94 732h221v-53h-163v-793h163v-53h-221v899z" />
    <glyph glyph-name="backslash" unicode="\" horiz-adv-x="471" 
d="M83 735l363 -844h-61l-363 844h61z" />
    <glyph glyph-name="bracketright" unicode="]" horiz-adv-x="333" 
d="M18 679v53h221v-899h-221v53h164v793h-164z" />
    <glyph glyph-name="asciicircum" unicode="^" horiz-adv-x="517" 
d="M227 669h62l185 -285h-63l-152 236l-153 -236h-64z" />
    <glyph glyph-name="underscore" unicode="_" horiz-adv-x="540" 
d="M540 -111h-540v51h540v-51z" />
    <glyph glyph-name="grave" unicode="`" horiz-adv-x="227" 
d="M127 672l48 -134h-58l-66 134h76z" />
    <glyph glyph-name="a" unicode="a" horiz-adv-x="611" 
d="M473 373v101h57v-474h-57v102q-31 -52 -81.5 -82.5t-114.5 -30.5q-100 0 -167 70.5t-67 176.5t67 177t168 71q63 0 114 -30t81 -81zM156 98q52 -55 131 -55t132 56.5t53 139.5q0 81 -53 136t-131 55q-79 0 -132 -55.5t-53 -138.5t53 -138z" />
    <glyph glyph-name="b" unicode="b" horiz-adv-x="608" 
d="M334 483q98 0 164.5 -70.5t66.5 -176.5q0 -105 -66 -176t-163 -71q-61 0 -112 28t-83 78v-95h-60v702h60v-324q31 49 81.5 77t111.5 28zM326 43q76 0 127.5 55.5t51.5 137.5t-52 137.5t-128 55.5q-80 0 -133.5 -55t-53.5 -137q0 -83 54 -138.5t134 -55.5z" />
    <glyph glyph-name="c" unicode="c" horiz-adv-x="553" 
d="M289 -11q-105 0 -175.5 70t-70.5 177t71 177.5t178 70.5q80 0 141.5 -40.5t86.5 -109.5l-55 -18q-20 51 -67 82.5t-106 31.5q-82 0 -136 -55t-54 -139t54 -138.5t136 -54.5q57 0 105.5 32t69.5 83l53 -23q-27 -65 -89.5 -105.5t-141.5 -40.5z" />
    <glyph glyph-name="d" unicode="d" horiz-adv-x="608" 
d="M467 379v323h60v-702h-59v98q-31 -51 -82 -80t-113 -29q-98 0 -164 71t-66 176q0 106 66.5 176.5t165.5 70.5q61 0 111 -27.5t81 -76.5zM283 43q80 0 133.5 55.5t53.5 138.5q0 82 -53.5 137t-133.5 55q-77 0 -128.5 -55.5t-51.5 -137.5t51.5 -137.5t128.5 -55.5z" />
    <glyph glyph-name="e" unicode="e" horiz-adv-x="572" 
d="M529 246q0 -18 -2 -34h-425q7 -75 59.5 -124t129.5 -49q55 0 99.5 26t68.5 70l48 -23q-27 -56 -86 -89.5t-132 -33.5q-106 0 -176 70t-70 177t70.5 177t177.5 70q104 0 171 -67t67 -170zM290 435q-75 0 -128.5 -50t-59.5 -125h369q-5 75 -56 125t-125 50z" />
    <glyph glyph-name="f" unicode="f" horiz-adv-x="386" 
d="M298 655q-63 0 -97 -35t-34 -99v-47h203v-51h-203v-423h-59v423h-87v51h87v53q0 84 48 133t133 49q58 0 100 -18v-53q-38 17 -91 17z" />
    <glyph glyph-name="g" unicode="g" horiz-adv-x="611" 
d="M473 376v98h58v-445q0 -118 -66 -180t-189 -62q-106 0 -190 49v59q84 -56 187 -56q96 0 148 49.5t52 140.5v77q-30 -52 -81 -81.5t-115 -29.5q-100 0 -166.5 69.5t-66.5 173.5q0 105 67 175t167 70q63 0 113.5 -28.5t81.5 -78.5zM287 48q80 0 132 54.5t52 137.5
q0 82 -52 136t-131 54t-131.5 -55t-52.5 -138q0 -82 52 -135.5t131 -53.5z" />
    <glyph glyph-name="h" unicode="h" horiz-adv-x="591" 
d="M320 483q86 0 142.5 -57.5t56.5 -143.5v-282h-60v267q0 69 -42.5 114.5t-107.5 45.5q-72 0 -120 -55.5t-48 -138.5v-233h-60v703h60v-320q29 50 77 75t102 25z" />
    <glyph glyph-name="i" unicode="i" horiz-adv-x="223" 
d="M145 570q-14 -14 -34 -14t-33.5 14t-13.5 34q0 19 13.5 32t33.5 13t33.5 -13t13.5 -32q0 -20 -13 -34zM141 0h-60v474h60v-474z" />
    <glyph glyph-name="j" unicode="j" horiz-adv-x="236" 
d="M159 570q-14 -14 -34 -14t-33.5 14t-13.5 34q0 19 13.5 32t33.5 13t33.5 -13t13.5 -32q0 -20 -13 -34zM-2 -214q-43 0 -79 12v53q38 -10 69 -10q56 0 81.5 28.5t25.5 89.5v515h59v-536q0 -71 -42 -111.5t-114 -40.5z" />
    <glyph glyph-name="k" unicode="k" horiz-adv-x="504" 
d="M201 238l293 -238h-82l-272 220v-220h-59v701h59v-451l268 224h76z" />
    <glyph glyph-name="l" unicode="l" horiz-adv-x="222" 
d="M141 701v-701h-60v701h60z" />
    <glyph glyph-name="m" unicode="m" horiz-adv-x="916" 
d="M657 483q83 0 135 -53t52 -137v-293h-59v284q0 65 -38.5 105t-99.5 40q-67 0 -110.5 -46.5t-43.5 -125.5v-257h-60v274q0 70 -36 112.5t-100 42.5q-67 0 -111.5 -48t-44.5 -125v-256h-60v474h58v-88q26 45 71.5 71t98.5 26q56 0 101 -28.5t64 -77.5q26 48 75.5 77
t107.5 29z" />
    <glyph glyph-name="n" unicode="n" 
d="M321 483q85 0 141 -57.5t56 -143.5v-282h-59v269q0 69 -43 114.5t-107 45.5q-72 0 -120 -55.5t-48 -138.5v-235h-60v474h58v-98q29 54 77.5 80.5t104.5 26.5z" />
    <glyph glyph-name="o" unicode="o" horiz-adv-x="583" 
d="M469 60q-71 -71 -178 -71t-178 70.5t-71 176.5t71 177t178 71t178 -71t71 -177t-71 -176zM292 43q80 0 134.5 55.5t54.5 137.5q0 83 -54.5 138.5t-134.5 55.5q-81 0 -135.5 -55.5t-54.5 -138.5q0 -82 54.5 -137.5t135.5 -55.5z" />
    <glyph glyph-name="p" unicode="p" horiz-adv-x="609" 
d="M140 474v-97q31 50 82 78t112 28q99 0 165.5 -70.5t66.5 -176.5t-66.5 -176.5t-164.5 -70.5q-63 0 -113 28.5t-81 77.5v-296h-60v675h59zM138 237q0 -83 54 -139t133 -56q77 0 129 55.5t52 138.5q0 82 -52.5 137.5t-129.5 55.5q-79 0 -132.5 -55t-53.5 -137z" />
    <glyph glyph-name="q" unicode="q" horiz-adv-x="607" 
d="M43 236q0 106 66 176.5t165 70.5q61 0 111.5 -28t81.5 -77v96h60v-675h-60v297q-31 -50 -81.5 -78.5t-111.5 -28.5q-98 0 -164.5 70.5t-66.5 176.5zM103 236q0 -83 52 -138q52 -56 130 -56t131.5 56t53.5 139q0 82 -53.5 137t-133.5 55q-77 0 -128.5 -55.5t-51.5 -137.5z
" />
    <glyph glyph-name="r" unicode="r" horiz-adv-x="380" 
d="M299 484q31 0 64 -9l-1 -57q-33 10 -70 10q-66 0 -109 -45.5t-43 -121.5v-261h-59v474h58v-82q23 44 65 68t95 24z" />
    <glyph glyph-name="s" unicode="s" horiz-adv-x="496" 
d="M252 -10q-124 0 -218 63l24 47q89 -59 199 -59q63 0 104 22.5t41 64.5q0 16 -4.5 28t-18 21t-23 14t-34.5 10.5t-36 7.5t-44 7t-53.5 9.5t-49.5 14.5t-45 23t-28 34.5t-12 50.5q0 64 53 100.5t145 36.5q98 0 185 -40l-17 -48q-85 38 -170 38q-66 0 -102.5 -22.5
t-36.5 -62.5q0 -18 8.5 -31.5t19 -21.5t33.5 -14.5t37 -9t45 -7.5q50 -8 80.5 -15t62.5 -21.5t47 -39t15 -59.5q0 -69 -58 -105t-149 -36z" />
    <glyph glyph-name="t" unicode="t" horiz-adv-x="367" 
d="M267 43q45 0 94 19v-51q-52 -22 -105 -22q-71 0 -108 40t-37 110v284h-89v51h89v184h58v-184h173v-51h-173v-276q0 -52 22 -78t76 -26z" />
    <glyph glyph-name="u" unicode="u" 
d="M450 229v245h60v-474h-58v97q-29 -54 -78.5 -80.5t-105.5 -26.5q-87 0 -141.5 58t-54.5 150v276h59v-270q0 -69 43 -114.5t108 -45.5q70 0 119 53t49 132z" />
    <glyph glyph-name="v" unicode="v" horiz-adv-x="528" 
d="M263 72h2l180 402h66l-217 -474h-60l-216 474h65z" />
    <glyph glyph-name="w" unicode="w" horiz-adv-x="782" 
d="M555 71l144 403h65l-181 -474h-57l-134 407l-136 -407h-57l-181 474h65l145 -405l136 405h56z" />
    <glyph glyph-name="x" unicode="x" horiz-adv-x="502" 
d="M288 238l199 -238h-70l-166 200l-168 -200h-69l200 240l-193 234h69l162 -198l163 198h68z" />
    <glyph glyph-name="y" unicode="y" horiz-adv-x="541" 
d="M279 32l180 442h63l-216 -520q-11 -27 -17 -39.5t-24.5 -41.5t-36.5 -44.5t-48.5 -29t-66.5 -13.5q-47 0 -92 17v55q43 -18 86 -18q84 0 130 101l12 26l-232 507h64z" />
    <glyph glyph-name="z" unicode="z" horiz-adv-x="466" 
d="M438 0h-411v41l322 381h-303v52h380v-41l-320 -382h332v-51z" />
    <glyph glyph-name="braceleft" unicode="{" horiz-adv-x="338" 
d="M68 307q14 3 29.5 12.5t21.5 29.5t6 54q0 9 -2 37l-8 108q-1 7 -1 23q0 68 34 116.5t115 48.5q33 0 55 -7v-48q-20 4 -42 4q-106 0 -106 -121q0 -18 1 -28l8 -99q2 -26 2 -41q0 -53 -16.5 -78.5t-55.5 -36.5q39 -11 55.5 -36.5t16.5 -79.5q0 -15 -2 -41l-8 -99
q-1 -9 -1 -28q0 -119 106 -119q27 0 42 3v-48q-22 -7 -55 -7q-47 0 -79.5 18t-47 47.5t-18.5 54.5t-4 44q0 12 1 24l8 108q2 28 2 37q0 34 -6 54t-21.5 29.5t-29.5 12.5t-43 5v42q29 2 43 5z" />
    <glyph glyph-name="bar" unicode="|" horiz-adv-x="243" 
d="M149 -213h-55v1043h55v-1043z" />
    <glyph glyph-name="braceright" unicode="}" horiz-adv-x="338" 
d="M20 681v48q24 7 55 7q47 0 79.5 -18t47 -47.5t19 -54.5t4.5 -46q0 -11 -1 -22l-8 -108q-2 -28 -2 -38q0 -33 6 -53t21 -29.5t29 -12.5t42 -5v-42q-28 -2 -42 -5t-29 -12.5t-21 -29.5t-6 -53q0 -10 2 -38l8 -108q1 -7 1 -23q0 -30 -7 -57t-22.5 -52.5t-46.5 -40.5t-74 -15
q-31 0 -55 7v48q15 -3 42 -3q107 0 107 119q0 14 -1 28l-8 99q-2 30 -2 44q0 52 16.5 77.5t55.5 35.5q-39 10 -55.5 35t-16.5 77q0 14 2 44l8 99q1 9 1 25q0 124 -107 124q-22 0 -42 -4z" />
    <glyph glyph-name="asciitilde" unicode="~" horiz-adv-x="602" 
d="M116 361q38 34 87 34q28 0 56.5 -14t48 -31.5t45 -31.5t49.5 -14q32 0 52 20.5t27 54.5h57q-9 -61 -46 -96t-87 -35q-36 0 -72.5 23t-69 45.5t-60.5 22.5q-61 0 -76 -75h-58q9 63 47 97z" />
    <glyph glyph-name="exclamdown" unicode="&#xa1;" horiz-adv-x="219" 
d="M80 343h58l8 -556h-72zM79 489q13 12 32 12q17 0 30 -12.5t13 -30.5t-13 -31t-30 -13q-19 0 -32 13t-13 31t13 31z" />
    <glyph glyph-name="cent" unicode="&#xa2;" horiz-adv-x="560" 
d="M294 137q58 0 106 32t69 83l53 -23q-24 -60 -80 -99.5t-128 -45.5v-102h-48v102q-96 9 -158.5 77.5t-62.5 168.5q0 99 62 168t159 79v97h48v-97q74 -5 130 -45t78 -104l-55 -18q-20 51 -67 82.5t-106 31.5q-82 0 -135.5 -55t-53.5 -139t54 -138.5t135 -54.5z" />
    <glyph glyph-name="sterling" unicode="&#xa3;" horiz-adv-x="553" 
d="M48 311v43h67q-1 4 -5.5 15t-6.5 15.5t-5.5 14.5t-5.5 16t-4.5 16t-3.5 17.5t-2 17.5t-1 20q0 84 57.5 139t152.5 55q91 0 153 -56.5t67 -158.5l-54 -6q-7 79 -49.5 124t-114.5 45q-71 0 -112 -41.5t-41 -104.5q0 -9 1 -19t2 -16.5t4 -17t4 -15t5.5 -16.5t5.5 -14
t7 -15.5t6 -14.5h243v-43h-227q12 -41 12 -82q0 -107 -70 -177h371v-52h-450l-5 47q96 63 96 179q0 39 -13 85h-84z" />
    <glyph glyph-name="currency" unicode="&#xa4;" horiz-adv-x="599" 
d="M102 549l8 -2l69 -77q49 44 121 44q71 0 120 -44l70 77l8 2l39 -39l-2 -7l-88 -63q31 -45 31 -103q0 -60 -33 -106l90 -64l2 -8l-39 -39l-8 2l-72 80q-49 -43 -118 -43t-119 42l-71 -79l-8 -2l-40 39l2 8l89 64q-33 46 -33 106q0 57 32 103l-88 63l-2 7zM206 242
q38 -38 94 -38t93.5 37.5t37.5 94.5t-37.5 95t-93.5 38t-94 -38t-38 -95t38 -94z" />
    <glyph glyph-name="yen" unicode="&#xa5;" horiz-adv-x="613" 
d="M520 669h65l-227 -382h160v-43h-183v-68h183v-42h-183v-134h-59v134h-182v42h182v68h-182v43h159l-225 382h65l213 -373z" />
    <glyph glyph-name="brokenbar" unicode="&#xa6;" horiz-adv-x="243" 
d="M149 830v-417h-55v417h55zM94 -213v416h55v-416h-55z" />
    <glyph glyph-name="section" unicode="&#xa7;" horiz-adv-x="512" 
d="M48 -101l25 40q74 -71 178 -71q64 0 104 31.5t40 79.5q0 35 -25.5 59.5t-63.5 36.5t-82 26.5t-82 29.5t-63.5 46.5t-25.5 75.5q0 51 30 87t83 49q-102 39 -102 130q0 72 54.5 116t142.5 44q58 0 111.5 -19.5t85.5 -53.5l-26 -40q-72 67 -173 67q-64 0 -102 -30t-38 -80
q0 -37 25.5 -62t63.5 -35.5t82 -24t82 -27.5t63.5 -45.5t25.5 -77.5q0 -49 -28 -87.5t-83 -49.5q100 -41 100 -129q0 -72 -55.5 -117.5t-144.5 -45.5q-60 0 -114.5 21t-87.5 56zM117 223q9 -18 19 -28.5t35.5 -22t38.5 -15.5t48 -14t46 -13q48 9 75.5 41t27.5 74
q0 16 -5 29.5t-11.5 23.5t-20 19t-23.5 14.5t-29.5 12t-31.5 10t-35 9.5t-34 9q-53 -7 -81.5 -37t-28.5 -73q0 -22 10 -39z" />
    <glyph glyph-name="dieresis" unicode="&#xa8;" horiz-adv-x="374" 
d="M111 545q-20 0 -34.5 14t-14.5 35q0 19 14.5 33t34.5 14q21 0 35 -13.5t14 -33.5q0 -21 -14 -35t-35 -14zM298 559q-15 -14 -35 -14t-34 14t-14 35q0 20 14 33.5t34 13.5t34.5 -14t14.5 -33q0 -21 -14 -35z" />
    <glyph glyph-name="copyright" unicode="&#xa9;" horiz-adv-x="790" 
d="M48 337q0 148 99.5 247t248.5 99t248 -99t99 -247q0 -149 -99 -248t-248 -99t-248.5 99t-99.5 248zM88 337q0 -131 89 -219q88 -88 219 -88t218.5 88t87.5 219t-87.5 219t-218.5 88t-219.5 -88t-88.5 -219zM263 467q53 53 133 53q56 0 102 -29.5t68 -78.5l-41 -19
q-16 39 -51.5 62t-78.5 23q-60 0 -99.5 -41t-39.5 -103t40 -103t99 -41q44 0 80 23t52 62l40 -21q-21 -48 -67.5 -77t-103.5 -29q-80 0 -133 52.5t-53 133.5q0 80 53 133z" />
    <glyph glyph-name="ordfeminine" unicode="&#xaa;" horiz-adv-x="371" 
d="M74 557q28 21 77 21h117v7q0 14 -2 24t-9.5 26.5t-28.5 26t-53 9.5q-60 0 -106 -20l-2 36q52 19 111 19q130 0 130 -117v-170h-40v42q-39 -48 -116 -48q-48 0 -77.5 24t-29.5 62q0 36 29 58zM107 461q20 -15 56 -15q48 0 76.5 24t28.5 69v11h-110q-72 0 -72 -50
q0 -25 21 -39z" />
    <glyph glyph-name="guillemotleft" unicode="&#xab;" horiz-adv-x="487" 
d="M42 251l155 222h69l-155 -223l147 -223h-70zM379 473h69l-155 -223l147 -223h-69l-146 224z" />
    <glyph glyph-name="logicalnot" unicode="&#xac;" horiz-adv-x="608" 
d="M479 326h-422v53h478v-232h-56v179z" />
    <glyph glyph-name="uni00AD" unicode="&#xad;" horiz-adv-x="498" 
d="M432 246h-367v54h367v-54z" />
    <glyph glyph-name="registered" unicode="&#xae;" horiz-adv-x="790" 
d="M148 584q99 99 248 99t248 -99t99 -247q0 -149 -99 -248t-248 -99t-248.5 99t-99.5 248q0 148 100 247zM177 118q88 -88 219 -88t218.5 88t87.5 219t-87.5 219t-218.5 88t-219.5 -88t-88.5 -219t89 -219zM267 516h149q55 0 91 -32t36 -81q0 -44 -26.5 -74.5t-70.5 -37.5
l105 -131h-52l-99 128h-88v-128h-45v356zM312 479v-154h104q36 0 59 22t23 55t-23.5 55t-60.5 22h-102z" />
    <glyph glyph-name="macron" unicode="&#xaf;" horiz-adv-x="408" 
d="M338 575h-267v46h267v-46z" />
    <glyph glyph-name="degree" unicode="&#xb0;" horiz-adv-x="362" 
d="M44 543q0 59 39 98t98 39t97.5 -39t38.5 -98t-38 -97q-39 -39 -98 -39t-98 39t-39 97zM86 543q0 -41 28 -69q27 -28 67 -28t67.5 28t27.5 69q0 43 -27 71t-68 28t-68 -28t-27 -71z" />
    <glyph glyph-name="plusminus" unicode="&#xb1;" horiz-adv-x="558" 
d="M68 356v55h182v183h58v-183h182v-55h-182v-181h-58v181h-182zM68 123h422v-56h-422v56z" />
    <glyph glyph-name="twosuperior" unicode="&#xb2;" horiz-adv-x="341" 
d="M73 776q39 34 97 34t94.5 -31.5t36.5 -79.5q0 -14 -3 -27t-11.5 -25.5t-14 -21t-19 -21t-18 -16.5t-21 -16.5t-17.5 -13.5l-97 -77h211v-38h-277v33l134 111q3 2 25.5 19.5t31.5 26.5t19.5 27t10.5 37q0 32 -24 53t-62 21q-40 0 -66 -25.5t-29 -67.5l-44 6q4 58 43 92z
" />
    <glyph glyph-name="threesuperior" unicode="&#xb3;" horiz-adv-x="342" 
d="M62 553q6 -34 35.5 -56.5t70.5 -22.5q42 0 71 25t29 62q0 36 -27 60t-70 24q-36 0 -72 -22l-18 25l156 119h-190v37h246v-36l-130 -99q14 2 24 2q54 0 90 -31.5t36 -79.5q0 -52 -41.5 -87t-103.5 -35q-57 0 -97.5 28.5t-47.5 75.5z" />
    <glyph glyph-name="acute" unicode="&#xb4;" horiz-adv-x="228" 
d="M111 538h-59l48 134h77z" />
    <glyph glyph-name="paragraph" unicode="&#xb6;" horiz-adv-x="551" 
d="M79 622q51 47 127 47h306v-53h-81v-783h-51v783h-110v-783h-55v505q-81 1 -134 48.5t-53 116.5q0 71 51 119z" />
    <glyph glyph-name="periodcentered" unicode="&#xb7;" horiz-adv-x="212" 
d="M75 312q13 13 32 13q18 0 31 -12.5t13 -31.5t-13 -31.5t-31 -12.5q-19 0 -32 12.5t-13 31.5q0 18 13 31z" />
    <glyph glyph-name="cedilla" unicode="&#xb8;" horiz-adv-x="319" 
d="M147 -50h11q48 0 77 -22t29 -58q0 -41 -32.5 -67.5t-89.5 -26.5q-48 0 -89 15l2 40q36 -14 81 -14q79 0 79 55q0 47 -71 47h-47l-5 8l27 85l44 -5z" />
    <glyph glyph-name="onesuperior" unicode="&#xb9;" horiz-adv-x="324" 
d="M151 481v274l-115 -48v41l127 56h32v-323h113v-38h-276v38h119z" />
    <glyph glyph-name="ordmasculine" unicode="&#xba;" horiz-adv-x="371" 
d="M84 665q40 41 102 41q61 0 101.5 -41t40.5 -103t-40 -103q-41 -41 -102 -41t-102 41t-41 103t41 103zM83 562q0 -46 30 -76q29 -31 73 -31t73 30.5t29 76.5t-29.5 77t-72.5 31q-44 0 -73.5 -31t-29.5 -77z" />
    <glyph glyph-name="guillemotright" unicode="&#xbb;" horiz-adv-x="487" 
d="M290 473l154 -222l-145 -224h-70l147 223l-155 223h69zM107 473l154 -222l-145 -224h-69l147 223l-156 223h69z" />
    <glyph glyph-name="onequarter" unicode="&#xbc;" horiz-adv-x="772" 
d="M428 124l193 237h61v-235h54v-33h-54v-92h-42v92h-212v31zM654 669h49l-496 -669h-51zM41 353h120v274l-115 -48v41l126 56h33v-323h112v-38h-276v38zM480 126h160v204z" />
    <glyph glyph-name="onehalf" unicode="&#xbd;" horiz-adv-x="777" 
d="M461 242q4 58 43 92t96 34q59 0 95.5 -31t36.5 -80q0 -12 -3.5 -24t-7.5 -21.5t-12.5 -21t-14 -18t-17 -16.5t-16.5 -14t-18 -14t-15 -12l-96 -76h210v-39h-277v34l134 110q4 3 21 16t24.5 20.5t19.5 20t17 25.5t5 28q0 33 -23.5 53.5t-62.5 20.5q-40 0 -66 -25.5
t-30 -67.5zM627 669h49l-497 -669h-51zM42 315v38h120v274l-115 -48v41l126 56h33v-323h112v-38h-276z" />
    <glyph glyph-name="threequarters" unicode="&#xbe;" horiz-adv-x="760" 
d="M418 124l192 237h62v-235h54v-33h-54v-92h-42v92h-212v31zM31 414l40 11q5 -34 35 -56.5t70 -22.5q42 0 71.5 25t29.5 62q0 36 -27.5 60t-69.5 24q-36 0 -73 -22l-18 25l157 119h-191v37h246v-36l-130 -99q14 2 24 2q54 0 90.5 -31.5t36.5 -79.5q0 -52 -42 -87t-104 -35
q-57 0 -97 28t-48 76zM627 669h50l-497 -669h-51zM630 126v203l-159 -203h159z" />
    <glyph glyph-name="questiondown" unicode="&#xbf;" horiz-adv-x="502" 
d="M50 48q15 32 38 51t49.5 40t49.5 39t38 46.5t15 63.5v63h58v-65q0 -48 -21 -84.5t-50.5 -59.5t-59 -44t-50.5 -51t-21 -69q0 -66 49 -103t118 -37q50 0 96 24t73 74l47 -29q-31 -59 -90 -89.5t-129 -30.5q-97 0 -161 52t-64 138q0 39 15 71zM239 497q12 12 30 12
t30.5 -12t12.5 -30q0 -17 -13 -29.5t-30 -12.5t-30 12.5t-13 29.5q0 18 13 30z" />
    <glyph glyph-name="Agrave" unicode="&#xc0;" horiz-adv-x="661" 
d="M311 864l50 -139h-62l-67 139h79zM642 0h-65l-76 186h-342l-76 -186h-65l283 669h62zM482 239l-149 371l-154 -371h303z" />
    <glyph glyph-name="Aacute" unicode="&#xc1;" horiz-adv-x="661" 
d="M354 863h78l-67 -138h-61zM642 0h-65l-76 186h-342l-76 -186h-65l283 669h62zM482 239l-149 371l-154 -371h303z" />
    <glyph glyph-name="Acircumflex" unicode="&#xc2;" horiz-adv-x="661" 
d="M416 730l-85 92l-87 -92h-66l127 137h50l127 -137h-66zM642 0h-65l-76 186h-342l-76 -186h-65l283 669h62zM482 239l-149 371l-154 -371h303z" />
    <glyph glyph-name="Atilde" unicode="&#xc3;" horiz-adv-x="661" 
d="M253 815q-28 0 -44.5 -18.5t-18.5 -48.5h-48q1 50 28.5 80.5t75.5 30.5q32 0 59 -17t50.5 -34t47.5 -17q28 0 46.5 19t20.5 48h49q-2 -48 -31.5 -79.5t-75.5 -31.5q-37 0 -83.5 34t-75.5 34zM642 0h-65l-76 186h-342l-76 -186h-65l283 669h62zM482 239l-149 371
l-154 -371h303z" />
    <glyph glyph-name="Adieresis" unicode="&#xc4;" horiz-adv-x="661" 
d="M287 770q-15 -15 -37 -15t-36.5 15t-14.5 37q0 21 14.5 35.5t36.5 14.5t37 -15t15 -35q0 -22 -15 -37zM411 755q-21 0 -36 15t-15 37q0 20 15 35t36 15q22 0 37 -14.5t15 -35.5q0 -22 -15 -37t-37 -15zM642 0h-65l-76 186h-342l-76 -186h-65l283 669h62zM482 239
l-149 371l-154 -371h303z" />
    <glyph glyph-name="Aring" unicode="&#xc5;" horiz-adv-x="661" 
d="M331 707q-44 0 -73 28t-29 69t29 69t73 28q43 0 72.5 -28t29.5 -69t-29.5 -69t-72.5 -28zM376 848q-19 18 -45 18t-44 -18t-18 -45q0 -25 18 -42.5t44 -17.5t44.5 17.5t18.5 42.5q0 27 -18 45zM642 0h-65l-76 186h-342l-76 -186h-65l283 669h62zM482 239l-149 371
l-154 -371h303z" />
    <glyph glyph-name="AE" unicode="&#xc6;" horiz-adv-x="949" 
d="M407 669h486v-53h-393v-253h373v-50h-373v-260h404v-53h-461v189h-272l-117 -189h-64zM202 240h241v389z" />
    <glyph glyph-name="Ccedilla" unicode="&#xc7;" horiz-adv-x="724" 
d="M383 44q85 0 153.5 47.5t100.5 125.5l55 -24q-36 -91 -117 -146.5t-185 -57.5l-12 -42h12q48 0 76.5 -21.5t28.5 -58.5q0 -41 -32 -67t-90 -26q-47 0 -89 14l2 41q37 -14 82 -14q79 0 79 55q0 46 -71 46h-48l-4 8l20 67q-130 14 -214 109.5t-84 233.5q0 148 96 247
t241 99q107 0 190 -56.5t120 -152.5l-54 -25q-31 81 -100.5 130t-156.5 49q-116 0 -196 -84.5t-80 -206.5t80.5 -206t196.5 -84z" />
    <glyph glyph-name="Egrave" unicode="&#xc8;" horiz-adv-x="611" 
d="M310 864l51 -139h-62l-67 139h78zM153 312v-259h411v-53h-471v669h460v-53h-400v-251h386v-53h-386z" />
    <glyph glyph-name="Eacute" unicode="&#xc9;" horiz-adv-x="611" 
d="M354 863h78l-67 -138h-61zM153 312v-259h411v-53h-471v669h460v-53h-400v-251h386v-53h-386z" />
    <glyph glyph-name="Ecircumflex" unicode="&#xca;" horiz-adv-x="611" 
d="M416 730l-86 92l-86 -92h-66l127 137h50l127 -137h-66zM153 312v-259h411v-53h-471v669h460v-53h-400v-251h386v-53h-386z" />
    <glyph glyph-name="Edieresis" unicode="&#xcb;" horiz-adv-x="611" 
d="M287 770q-15 -15 -37 -15t-37 15t-15 37q0 20 15 35t37 15t36.5 -14.5t14.5 -35.5q0 -22 -14 -37zM448 770q-15 -15 -37 -15t-36.5 15t-14.5 37q0 21 15 35.5t36 14.5q22 0 37 -15t15 -35q0 -22 -15 -37zM153 312v-259h411v-53h-471v669h460v-53h-400v-251h386v-53h-386z
" />
    <glyph glyph-name="Igrave" unicode="&#xcc;" horiz-adv-x="249" 
d="M105 864l50 -139h-62l-67 139h79zM94 0v669h61v-669h-61z" />
    <glyph glyph-name="Iacute" unicode="&#xcd;" horiz-adv-x="248" 
d="M158 725h-61l50 138h78zM93 0v669h61v-669h-61z" />
    <glyph glyph-name="Icircumflex" unicode="&#xce;" horiz-adv-x="249" 
d="M38 730h-66l127 137h50l127 -137h-66l-85 92zM94 0v669h60v-669h-60z" />
    <glyph glyph-name="Idieresis" unicode="&#xcf;" horiz-adv-x="249" 
d="M81 770q-15 -15 -37 -15t-36.5 15t-14.5 37q0 21 14.5 35.5t36.5 14.5t37 -15t15 -35q0 -22 -15 -37zM205 755q-21 0 -36 15t-15 37q0 20 15 35t36 15q22 0 37 -14.5t15 -35.5q0 -22 -15 -37t-37 -15zM94 0v669h61v-669h-61z" />
    <glyph glyph-name="Eth" unicode="&#xd0;" horiz-adv-x="718" 
d="M104 669h233q153 0 243 -93t90 -242q0 -148 -86 -241t-233 -93h-247v311h-74v46h74v312zM164 55h185q118 0 189 78.5t71 201.5q0 124 -72 201.5t-194 77.5h-179v-257h200v-46h-200v-256z" />
    <glyph glyph-name="Ntilde" unicode="&#xd1;" horiz-adv-x="738" 
d="M365 780q-46 34 -74 34t-45 -18.5t-18 -47.5h-49q1 49 28 79.5t75 30.5q33 0 60 -17t50.5 -34t47.5 -17q28 0 47 19t20 48h49q-2 -48 -31.5 -79.5t-75.5 -31.5q-38 0 -84 34zM586 95v574h58v-669h-55l-437 573v-573h-59v669h58z" />
    <glyph glyph-name="Ograve" unicode="&#xd2;" horiz-adv-x="766" 
d="M363 861l51 -139h-62l-67 139h78zM624 87q-96 -98 -241 -98t-241 98.5t-96 246.5t96 247t241 99q144 0 240 -99t96 -247q0 -149 -95 -247zM187 128q80 -84 196 -84t196.5 84t80.5 206t-80.5 206.5t-196.5 84.5t-196.5 -84.5t-80.5 -206.5t81 -206z" />
    <glyph glyph-name="Oacute" unicode="&#xd3;" horiz-adv-x="766" 
d="M418 722h-61l50 138h77zM624 87q-96 -98 -241 -98t-241 98.5t-96 246.5t96 247t241 99q144 0 240 -99t96 -247q0 -149 -95 -247zM187 128q80 -84 196 -84t196.5 84t80.5 206t-80.5 206.5t-196.5 84.5t-196.5 -84.5t-80.5 -206.5t81 -206z" />
    <glyph glyph-name="Ocircumflex" unicode="&#xd4;" horiz-adv-x="766" 
d="M297 728h-66l127 137h50l127 -137h-66l-86 92zM624 87q-96 -98 -241 -98t-241 98.5t-96 246.5t96 247t241 99q144 0 240 -99t96 -247q0 -149 -95 -247zM187 128q80 -84 196 -84t196.5 84t80.5 206t-80.5 206.5t-196.5 84.5t-196.5 -84.5t-80.5 -206.5t81 -206z" />
    <glyph glyph-name="Otilde" unicode="&#xd5;" horiz-adv-x="766" 
d="M465 745q-38 0 -84.5 34t-74.5 34t-45 -18.5t-18 -48.5h-49q2 50 29 80.5t74 30.5q42 0 86.5 -34.5t71.5 -34.5q28 0 47 19.5t20 48.5h50q-3 -48 -32 -79.5t-75 -31.5zM624 87q-96 -98 -241 -98t-241 98.5t-96 246.5t96 247t241 99q144 0 240 -99t96 -247
q0 -149 -95 -247zM187 128q80 -84 196 -84t196.5 84t80.5 206t-80.5 206.5t-196.5 84.5t-196.5 -84.5t-80.5 -206.5t81 -206z" />
    <glyph glyph-name="Odieresis" unicode="&#xd6;" horiz-adv-x="766" 
d="M303 753q-22 0 -37 14.5t-15 36.5q0 21 15 36t37 15q21 0 36 -15.5t15 -35.5q0 -22 -15 -36.5t-36 -14.5zM501 768q-15 -15 -37 -15t-37 14.5t-15 36.5q0 20 15 35.5t37 15.5q21 0 36 -15t15 -36q0 -22 -14 -36zM624 87q-96 -98 -241 -98t-241 98.5t-96 246.5t96 247
t241 99q144 0 240 -99t96 -247q0 -149 -95 -247zM187 128q80 -84 196 -84t196.5 84t80.5 206t-80.5 206.5t-196.5 84.5t-196.5 -84.5t-80.5 -206.5t81 -206z" />
    <glyph glyph-name="multiply" unicode="&#xd7;" horiz-adv-x="485" 
d="M280 317l149 -143l-37 -37l-149 143l-149 -143l-38 37l148 143l-147 141l37 37l148 -142l149 143l37 -37z" />
    <glyph glyph-name="Oslash" unicode="&#xd8;" horiz-adv-x="764" 
d="M672 707l-74 -103q57 -48 88.5 -118t31.5 -152q0 -148 -96 -246.5t-240 -98.5q-103 0 -184 53l-72 -101l-32 24l72 100q-56 47 -88 117t-32 152q0 148 96 247t240 99q103 0 184 -53l74 103zM103 334q0 -140 96 -225l337 473q-70 46 -154 46q-119 0 -199 -84.5t-80 -209.5
zM382 41q120 0 200 83.5t80 209.5q0 139 -97 226l-336 -474q67 -45 153 -45z" />
    <glyph glyph-name="Ugrave" unicode="&#xd9;" horiz-adv-x="707" 
d="M334 864l50 -139h-61l-67 139h78zM548 62q-76 -73 -195 -73t-194 73.5t-75 188.5v418h60v-415q0 -91 59 -149.5t150 -58.5t150.5 58.5t59.5 149.5v415h60v-418q0 -116 -75 -189z" />
    <glyph glyph-name="Uacute" unicode="&#xda;" horiz-adv-x="707" 
d="M389 725h-62l50 138h79zM548 62q-76 -73 -195 -73t-194 73.5t-75 188.5v418h60v-415q0 -91 59 -149.5t150 -58.5t150.5 58.5t59.5 149.5v415h60v-418q0 -116 -75 -189z" />
    <glyph glyph-name="Ucircumflex" unicode="&#xdb;" horiz-adv-x="707" 
d="M267 730h-66l128 137h50l127 -137h-67l-85 92zM548 62q-76 -73 -195 -73t-194 73.5t-75 188.5v418h60v-415q0 -91 59 -149.5t150 -58.5t150.5 58.5t59.5 149.5v415h60v-418q0 -116 -75 -189z" />
    <glyph glyph-name="Udieresis" unicode="&#xdc;" horiz-adv-x="707" 
d="M310 770q-15 -15 -37 -15t-36.5 15t-14.5 37q0 21 15 35.5t36 14.5q22 0 37 -15t15 -35q0 -22 -15 -37zM472 770q-15 -15 -37 -15t-37 15t-15 37q0 20 15 35t37 15q21 0 36 -14.5t15 -35.5q0 -22 -14 -37zM548 62q-76 -73 -195 -73t-194 73.5t-75 188.5v418h60v-415
q0 -91 59 -149.5t150 -58.5t150.5 58.5t59.5 149.5v415h60v-418q0 -116 -75 -189z" />
    <glyph glyph-name="Yacute" unicode="&#xdd;" horiz-adv-x="629" 
d="M339 863h79l-67 -138h-62zM314 297l223 372h69l-262 -432v-237h-60v237l-259 432h69z" />
    <glyph glyph-name="Thorn" unicode="&#xde;" horiz-adv-x="655" 
d="M153 568h228q104 0 168 -62.5t64 -160.5q0 -99 -65 -161.5t-173 -62.5h-222v-121h-60v669h60v-101zM153 174h218q81 0 131 48.5t50 122.5t-48.5 122t-127.5 48h-223v-341z" />
    <glyph glyph-name="germandbls" unicode="&#xdf;" horiz-adv-x="616" 
d="M453 354q55 -19 88 -65t33 -106q0 -84 -62 -139t-156 -55q-78 0 -144 29v55q64 -30 141 -30q72 0 117.5 40.5t45.5 103.5q0 60 -44 99t-113 39h-110v48h107q60 0 98.5 38t38.5 95q0 63 -47 103.5t-118 40.5q-83 0 -136 -59t-53 -159v-590h-58v594q0 122 69.5 194
t178.5 72q98 0 160 -53t62 -137q0 -52 -26.5 -94.5t-71.5 -63.5z" />
    <glyph glyph-name="agrave" unicode="&#xe0;" horiz-adv-x="611" 
d="M276 671l48 -135h-59l-66 135h77zM473 373v101h57v-474h-57v102q-31 -52 -81.5 -82.5t-114.5 -30.5q-100 0 -167 70.5t-67 176.5t67 177t168 71q63 0 114 -30t81 -81zM156 98q52 -55 131 -55t132 56.5t53 139.5q0 81 -53 136t-131 55q-79 0 -132 -55.5t-53 -138.5
t53 -138z" />
    <glyph glyph-name="aacute" unicode="&#xe1;" horiz-adv-x="611" 
d="M313 671h77l-66 -135h-59zM473 373v101h57v-474h-57v102q-31 -52 -81.5 -82.5t-114.5 -30.5q-100 0 -167 70.5t-67 176.5t67 177t168 71q63 0 114 -30t81 -81zM156 98q52 -55 131 -55t132 56.5t53 139.5q0 81 -53 136t-131 55q-79 0 -132 -55.5t-53 -138.5t53 -138z" />
    <glyph glyph-name="acircumflex" unicode="&#xe2;" horiz-adv-x="611" 
d="M378 535l-81 92l-85 -92h-58l118 132h48l118 -132h-60zM473 373v101h57v-474h-57v102q-31 -52 -81.5 -82.5t-114.5 -30.5q-100 0 -167 70.5t-67 176.5t67 177t168 71q63 0 114 -30t81 -81zM156 98q52 -55 131 -55t132 56.5t53 139.5q0 81 -53 136t-131 55
q-79 0 -132 -55.5t-53 -138.5t53 -138z" />
    <glyph glyph-name="atilde" unicode="&#xe3;" horiz-adv-x="611" 
d="M227 618q-23 0 -37.5 -16t-15.5 -44h-47q2 51 28.5 77t67.5 26q39 0 79 -30.5t65 -30.5q26 0 42 16t17 44h47q-4 -52 -30.5 -78t-68.5 -26q-36 0 -77.5 31t-69.5 31zM473 373v101h57v-474h-57v102q-31 -52 -81.5 -82.5t-114.5 -30.5q-100 0 -167 70.5t-67 176.5t67 177
t168 71q63 0 114 -30t81 -81zM156 98q52 -55 131 -55t132 56.5t53 139.5q0 81 -53 136t-131 55q-79 0 -132 -55.5t-53 -138.5t53 -138z" />
    <glyph glyph-name="adieresis" unicode="&#xe4;" horiz-adv-x="611" 
d="M219 544q-20 0 -34 14t-14 34t14 34t34 14q22 0 36 -14t14 -34t-14 -34t-36 -14zM372 544q-20 0 -34 14t-14 34t14 34t34 14q21 0 35 -14t14 -34t-14 -34t-35 -14zM473 373v101h57v-474h-57v102q-31 -52 -81.5 -82.5t-114.5 -30.5q-100 0 -167 70.5t-67 176.5t67 177
t168 71q63 0 114 -30t81 -81zM156 98q52 -55 131 -55t132 56.5t53 139.5q0 81 -53 136t-131 55q-79 0 -132 -55.5t-53 -138.5t53 -138z" />
    <glyph glyph-name="aring" unicode="&#xe5;" horiz-adv-x="611" 
d="M366 556q-29 -28 -71 -28t-70.5 27.5t-28.5 66.5q0 40 28.5 67.5t70.5 27.5t70.5 -27.5t28.5 -67.5q0 -39 -28 -66zM340 666q-19 18 -45 18t-44.5 -18t-18.5 -44q0 -25 18.5 -43t44.5 -18t44.5 18t18.5 43q0 26 -18 44zM473 373v101h57v-474h-57v102q-31 -52 -81.5 -82.5
t-114.5 -30.5q-100 0 -167 70.5t-67 176.5t67 177t168 71q63 0 114 -30t81 -81zM156 98q52 -55 131 -55t132 56.5t53 139.5q0 81 -53 136t-131 55q-79 0 -132 -55.5t-53 -138.5t53 -138z" />
    <glyph glyph-name="ae" unicode="&#xe6;" horiz-adv-x="900" 
d="M857 260q0 -21 -2 -39h-394q2 -78 52 -130t121 -52q50 0 91.5 26t64.5 69l47 -21q-28 -57 -82 -90t-121 -33q-66 0 -120.5 34.5t-82.5 95.5q-24 -58 -81 -94.5t-134 -36.5q-81 0 -130 39t-49 105q0 62 46.5 98t130.5 36h184v12q0 78 -38 116.5t-121 38.5q-86 0 -164 -32
v50q77 32 170 32q153 0 192 -118q31 55 83.5 86.5t115.5 31.5q94 0 157.5 -64.5t63.5 -159.5zM635 435q-68 0 -116.5 -48t-56.5 -120h340q-4 73 -51 120.5t-116 47.5zM221 37q79 0 128 49.5t49 126.5v7h-178q-126 0 -126 -85q0 -45 35 -71.5t92 -26.5z" />
    <glyph glyph-name="ccedilla" unicode="&#xe7;" horiz-adv-x="553" 
d="M292 43q57 0 105.5 32t69.5 83l53 -23q-25 -61 -83.5 -101.5t-133.5 -44.5l-12 -43h10q49 0 77.5 -22t28.5 -59q0 -41 -32 -67t-89 -26q-49 0 -90 15l2 40q37 -14 82 -14q79 0 79 55q0 46 -71 46h-48l-5 8l22 69q-94 11 -154 79t-60 166q0 107 71 177.5t178 70.5
q80 0 141.5 -40.5t86.5 -109.5l-55 -18q-20 51 -67 82.5t-106 31.5q-82 0 -136 -55t-54 -139t54 -138.5t136 -54.5z" />
    <glyph glyph-name="egrave" unicode="&#xe8;" horiz-adv-x="572" 
d="M270 671l48 -134h-58l-66 134h76zM529 246q0 -18 -2 -34h-425q7 -75 59.5 -124t129.5 -49q55 0 99.5 26t68.5 70l48 -23q-27 -56 -86 -89.5t-132 -33.5q-106 0 -176 70t-70 177t70.5 177t177.5 70q104 0 171 -67t67 -170zM290 435q-75 0 -128.5 -50t-59.5 -125h369
q-5 75 -56 125t-125 50z" />
    <glyph glyph-name="eacute" unicode="&#xe9;" horiz-adv-x="572" 
d="M307 671h76l-66 -134h-58zM529 246q0 -18 -2 -34h-425q7 -75 59.5 -124t129.5 -49q55 0 99.5 26t68.5 70l48 -23q-27 -56 -86 -89.5t-132 -33.5q-106 0 -176 70t-70 177t70.5 177t177.5 70q104 0 171 -67t67 -170zM290 435q-75 0 -128.5 -50t-59.5 -125h369
q-5 75 -56 125t-125 50z" />
    <glyph glyph-name="ecircumflex" unicode="&#xea;" horiz-adv-x="572" 
d="M372 535l-81 93l-84 -93h-59l118 132h48l118 -132h-60zM529 246q0 -18 -2 -34h-425q7 -75 59.5 -124t129.5 -49q55 0 99.5 26t68.5 70l48 -23q-27 -56 -86 -89.5t-132 -33.5q-106 0 -176 70t-70 177t70.5 177t177.5 70q104 0 171 -67t67 -170zM290 435q-75 0 -128.5 -50
t-59.5 -125h369q-5 75 -56 125t-125 50z" />
    <glyph glyph-name="edieresis" unicode="&#xeb;" horiz-adv-x="572" 
d="M249 558q-14 -14 -35 -14t-35 14t-14 35q0 20 14 34t35 14t35 -14t14 -34q0 -21 -14 -35zM401 558q-15 -14 -35 -14t-34 14t-14 35q0 20 14 34t34 14t34.5 -14t14.5 -34q0 -21 -14 -35zM529 246q0 -18 -2 -34h-425q7 -75 59.5 -124t129.5 -49q55 0 99.5 26t68.5 70
l48 -23q-27 -56 -86 -89.5t-132 -33.5q-106 0 -176 70t-70 177t70.5 177t177.5 70q104 0 171 -67t67 -170zM290 435q-75 0 -128.5 -50t-59.5 -125h369q-5 75 -56 125t-125 50z" />
    <glyph glyph-name="igrave" unicode="&#xec;" horiz-adv-x="222" 
d="M91 671l48 -135h-58l-66 135h76zM141 0h-60v474h60v-474z" />
    <glyph glyph-name="iacute" unicode="&#xed;" horiz-adv-x="222" 
d="M138 536h-58l48 135h76zM141 0h-60v474h60v-474z" />
    <glyph glyph-name="icircumflex" unicode="&#xee;" horiz-adv-x="223" 
d="M28 535h-59l118 132h48l118 -132h-60l-81 92zM141 0h-60v474h60v-474z" />
    <glyph glyph-name="idieresis" unicode="&#xef;" horiz-adv-x="222" 
d="M34 544q-20 0 -34 14t-14 34t14 34t34 14q22 0 35.5 -14t13.5 -34t-13.5 -34t-35.5 -14zM187 544q-21 0 -34.5 14t-13.5 34t13.5 34t34.5 14q20 0 34 -14t14 -34t-14 -34t-34 -14zM141 0h-60v474h60v-474z" />
    <glyph glyph-name="eth" unicode="&#xf0;" horiz-adv-x="597" 
d="M470 711l-92 -71q162 -120 162 -377q0 -123 -71.5 -199t-181.5 -76q-106 0 -175 68t-69 172q0 103 68 170.5t170 67.5q62 0 112 -26t81 -71q-25 153 -141 235l-133 -103l-19 24l124 97q-71 40 -166 55l21 47q109 -15 191 -66l100 78zM288 43q82 0 137 56.5t55 139.5
q0 76 -55 127.5t-136 51.5q-79 0 -132 -54t-53 -134t52.5 -133.5t131.5 -53.5z" />
    <glyph glyph-name="ntilde" unicode="&#xf1;" 
d="M236 618q-23 0 -37.5 -16t-15.5 -44h-47q1 51 27.5 77t68.5 26q40 0 79.5 -30.5t63.5 -30.5q26 0 42 16t17 44h47q-4 -52 -30 -78t-68 -26q-36 0 -77.5 31t-69.5 31zM321 483q85 0 141 -57.5t56 -143.5v-282h-59v269q0 69 -43 114.5t-107 45.5q-72 0 -120 -55.5
t-48 -138.5v-235h-60v474h58v-98q29 54 77.5 80.5t104.5 26.5z" />
    <glyph glyph-name="ograve" unicode="&#xf2;" horiz-adv-x="583" 
d="M271 671l48 -135h-59l-66 135h77zM469 60q-71 -71 -178 -71t-178 70.5t-71 176.5t71 177t178 71t178 -71t71 -177t-71 -176zM292 43q80 0 134.5 55.5t54.5 137.5q0 83 -54.5 138.5t-134.5 55.5q-81 0 -135.5 -55.5t-54.5 -138.5q0 -82 54.5 -137.5t135.5 -55.5z" />
    <glyph glyph-name="oacute" unicode="&#xf3;" horiz-adv-x="583" 
d="M318 536h-58l48 135h76zM469 60q-71 -71 -178 -71t-178 70.5t-71 176.5t71 177t178 71t178 -71t71 -177t-71 -176zM292 43q80 0 134.5 55.5t54.5 137.5q0 83 -54.5 138.5t-134.5 55.5q-81 0 -135.5 -55.5t-54.5 -138.5q0 -82 54.5 -137.5t135.5 -55.5z" />
    <glyph glyph-name="ocircumflex" unicode="&#xf4;" horiz-adv-x="583" 
d="M208 535h-59l117 132h49l118 -132h-60l-82 92zM469 60q-71 -71 -178 -71t-178 70.5t-71 176.5t71 177t178 71t178 -71t71 -177t-71 -176zM292 43q80 0 134.5 55.5t54.5 137.5q0 83 -54.5 138.5t-134.5 55.5q-81 0 -135.5 -55.5t-54.5 -138.5q0 -82 54.5 -137.5
t135.5 -55.5z" />
    <glyph glyph-name="otilde" unicode="&#xf5;" horiz-adv-x="583" 
d="M369 556q-36 0 -77.5 31t-69.5 31q-23 0 -37.5 -16t-15.5 -44h-47q1 51 27.5 77t68.5 26q31 0 56 -15.5t45.5 -30.5t42.5 -15q26 0 41.5 16t17.5 44h46q-4 -52 -30 -78t-68 -26zM469 60q-71 -71 -178 -71t-178 70.5t-71 176.5t71 177t178 71t178 -71t71 -177t-71 -176z
M292 43q80 0 134.5 55.5t54.5 137.5q0 83 -54.5 138.5t-134.5 55.5q-81 0 -135.5 -55.5t-54.5 -138.5q0 -82 54.5 -137.5t135.5 -55.5z" />
    <glyph glyph-name="odieresis" unicode="&#xf6;" horiz-adv-x="583" 
d="M214 544q-20 0 -34 14t-14 34t14 34t34 14q22 0 35.5 -14t13.5 -34t-13.5 -34t-35.5 -14zM367 544q-21 0 -34.5 14t-13.5 34t13.5 34t34.5 14q20 0 34 -14t14 -34t-14 -34t-34 -14zM469 60q-71 -71 -178 -71t-178 70.5t-71 176.5t71 177t178 71t178 -71t71 -177t-71 -176
zM292 43q80 0 134.5 55.5t54.5 137.5q0 83 -54.5 138.5t-134.5 55.5q-81 0 -135.5 -55.5t-54.5 -138.5q0 -82 54.5 -137.5t135.5 -55.5z" />
    <glyph glyph-name="divide" unicode="&#xf7;" horiz-adv-x="498" 
d="M249 432q-20 0 -33.5 13.5t-13.5 33.5q0 19 13.5 32.5t33.5 13.5t33.5 -13.5t13.5 -32.5q0 -20 -13.5 -33.5t-33.5 -13.5zM434 296h-371v54h371v-54zM249 124q-20 0 -33.5 13.5t-13.5 33.5q0 19 13.5 32.5t33.5 13.5q19 0 33 -13.5t14 -32.5q0 -20 -13.5 -33.5
t-33.5 -13.5z" />
    <glyph glyph-name="oslash" unicode="&#xf8;" horiz-adv-x="584" 
d="M496 515l-53 -79q46 -34 72 -86t26 -114q0 -106 -71 -176.5t-178 -70.5q-65 0 -119 28l-53 -79l-30 19l53 78q-101 72 -101 201q0 106 71.5 177t178.5 71q68 0 121 -29l53 78zM98 236q0 -100 75 -157l211 331q-42 22 -92 22q-83 0 -138.5 -56t-55.5 -140zM292 40
q83 0 138 56t55 140q0 99 -72 155l-211 -330q40 -21 90 -21z" />
    <glyph glyph-name="ugrave" unicode="&#xf9;" 
d="M271 671l48 -135h-59l-66 135h77zM450 229v245h60v-474h-59v95q-29 -52 -78.5 -78.5t-104.5 -26.5q-87 0 -141.5 58t-54.5 150v276h59v-270q0 -69 43 -114.5t108 -45.5q70 0 119 53t49 132z" />
    <glyph glyph-name="uacute" unicode="&#xfa;" 
d="M308 671h76l-66 -135h-58zM450 229v245h60v-474h-59v95q-29 -52 -78.5 -78.5t-104.5 -26.5q-87 0 -141.5 58t-54.5 150v276h59v-270q0 -69 43 -114.5t108 -45.5q70 0 119 53t49 132z" />
    <glyph glyph-name="ucircumflex" unicode="&#xfb;" 
d="M373 535l-81 92l-84 -92h-59l118 132h48l118 -132h-60zM450 229v245h60v-474h-59v95q-29 -52 -78.5 -78.5t-104.5 -26.5q-87 0 -141.5 58t-54.5 150v276h59v-270q0 -69 43 -114.5t108 -45.5q70 0 119 53t49 132z" />
    <glyph glyph-name="udieresis" unicode="&#xfc;" 
d="M214 544q-20 0 -34 14t-14 34t14 34t34 14q21 0 35.5 -14t14.5 -34t-14.5 -34t-35.5 -14zM367 544q-21 0 -35 14t-14 34t14 34t35 14q20 0 34 -14t14 -34t-14 -34t-34 -14zM450 229v245h60v-474h-59v95q-29 -52 -78.5 -78.5t-104.5 -26.5q-87 0 -141.5 58t-54.5 150v276
h59v-270q0 -69 43 -114.5t108 -45.5q70 0 119 53t49 132z" />
    <glyph glyph-name="yacute" unicode="&#xfd;" horiz-adv-x="541" 
d="M287 671h76l-66 -135h-58zM279 32l180 442h63l-216 -520q-11 -27 -17 -39.5t-24.5 -41.5t-36.5 -44.5t-48.5 -29t-66.5 -13.5q-47 0 -92 17v55q43 -18 86 -18q84 0 130 101l12 26l-232 507h64z" />
    <glyph glyph-name="thorn" unicode="&#xfe;" horiz-adv-x="609" 
d="M334 483q99 0 165.5 -70.5t66.5 -176.5t-66.5 -176.5t-164.5 -70.5q-63 0 -113 28.5t-81 77.5v-296h-60v904h60v-305h-1v-21q31 50 82 78t112 28zM325 42q77 0 129 55.5t52 138.5q0 82 -52.5 137.5t-129.5 55.5q-79 0 -132.5 -55t-53.5 -137q0 -83 54 -139t133 -56z" />
    <glyph glyph-name="ydieresis" unicode="&#xff;" horiz-adv-x="541" 
d="M193 544q-20 0 -34 14t-14 34t14 34t34 14q21 0 35 -14t14 -34t-14 -34t-35 -14zM346 544q-21 0 -34.5 14t-13.5 34t13.5 34t34.5 14q20 0 34 -14t14 -34t-14 -34t-34 -14zM279 32l180 442h63l-216 -520q-11 -27 -17 -39.5t-24.5 -41.5t-36.5 -44.5t-48.5 -29
t-66.5 -13.5q-47 0 -92 17v55q43 -18 86 -18q84 0 130 101l12 26l-232 507h64z" />
    <glyph glyph-name="Amacron" unicode="&#x100;" horiz-adv-x="661" 
d="M178 826h305v-48h-305v48zM642 0h-65l-76 186h-342l-76 -186h-65l283 669h62zM482 239l-149 371l-154 -371h303z" />
    <glyph glyph-name="amacron" unicode="&#x101;" horiz-adv-x="611" 
d="M162 620h267v-46h-267v46zM473 373v101h57v-474h-57v102q-31 -52 -81.5 -82.5t-114.5 -30.5q-100 0 -167 70.5t-67 176.5t67 177t168 71q63 0 114 -30t81 -81zM156 98q52 -55 131 -55t132 56.5t53 139.5q0 81 -53 136t-131 55q-79 0 -132 -55.5t-53 -138.5t53 -138z" />
    <glyph glyph-name="Abreve" unicode="&#x102;" horiz-adv-x="661" 
d="M437 765q-40 -38 -105 -38t-105.5 37.5t-41.5 99.5h52q2 -42 28 -68t67 -26q40 0 66 26.5t27 67.5h53q-1 -62 -41 -99zM642 0h-65l-76 186h-342l-76 -186h-65l283 669h62zM482 239l-149 371l-154 -371h303z" />
    <glyph glyph-name="abreve" unicode="&#x103;" horiz-adv-x="611" 
d="M296 534q-64 0 -102.5 36.5t-39.5 97.5h50q1 -42 26.5 -68t65.5 -26t65.5 26t26.5 68h50q-1 -61 -40 -97.5t-102 -36.5zM473 373v101h57v-474h-57v102q-31 -52 -81.5 -82.5t-114.5 -30.5q-100 0 -167 70.5t-67 176.5t67 177t168 71q63 0 114 -30t81 -81zM156 98
q52 -55 131 -55t132 56.5t53 139.5q0 81 -53 136t-131 55q-79 0 -132 -55.5t-53 -138.5t53 -138z" />
    <glyph glyph-name="Aogonek" unicode="&#x104;" horiz-adv-x="661" 
d="M570 -175q27 0 65 19l4 -44q-40 -21 -75 -21q-42 0 -66 23.5t-24 60.5q0 33 25.5 72t76.5 69l-75 182h-342l-76 -186h-65l283 669h62l279 -669q-56 -21 -87 -57t-31 -70q0 -21 12 -34.5t34 -13.5zM482 239l-149 371l-154 -371h303z" />
    <glyph glyph-name="aogonek" unicode="&#x105;" horiz-adv-x="611" 
d="M530 474v-474q-56 -21 -87 -57t-31 -70q0 -21 12 -34.5t34 -13.5q25 0 65 19l4 -44q-40 -21 -75 -21q-42 0 -66.5 23.5t-24.5 60.5q0 35 28 75.5t84 70.5v93q-31 -52 -81.5 -82.5t-114.5 -30.5q-100 0 -167 70.5t-67 176.5t67 177t168 71q63 0 114 -30t81 -81v101h57z
M156 98q52 -55 131 -55t132 56.5t53 139.5q0 81 -53 136t-131 55q-79 0 -132 -55.5t-53 -138.5t53 -138z" />
    <glyph glyph-name="Cacute" unicode="&#x106;" horiz-adv-x="724" 
d="M417 725h-61l50 138h78zM383 -11q-144 0 -240.5 98.5t-96.5 246.5t96 247t241 99q107 0 190 -56.5t120 -152.5l-54 -25q-31 81 -100.5 130t-156.5 49q-116 0 -196 -84.5t-80 -206.5t80.5 -206t196.5 -84q85 0 153.5 47.5t100.5 125.5l55 -24q-37 -93 -120 -148.5
t-189 -55.5z" />
    <glyph glyph-name="cacute" unicode="&#x107;" horiz-adv-x="553" 
d="M319 536h-59l48 135h77zM289 -11q-105 0 -175.5 70t-70.5 177t71 177.5t178 70.5q80 0 141.5 -40.5t86.5 -109.5l-55 -18q-20 51 -67 82.5t-106 31.5q-82 0 -136 -55t-54 -139t54 -138.5t136 -54.5q57 0 105.5 32t69.5 83l53 -23q-27 -65 -89.5 -105.5t-141.5 -40.5z" />
    <glyph glyph-name="Ccircumflex" unicode="&#x108;" horiz-adv-x="724" 
d="M296 730h-66l127 137h50l127 -137h-66l-86 92zM383 -11q-144 0 -240.5 98.5t-96.5 246.5t96 247t241 99q107 0 190 -56.5t120 -152.5l-54 -25q-31 81 -100.5 130t-156.5 49q-116 0 -196 -84.5t-80 -206.5t80.5 -206t196.5 -84q85 0 153.5 47.5t100.5 125.5l55 -24
q-37 -93 -120 -148.5t-189 -55.5z" />
    <glyph glyph-name="ccircumflex" unicode="&#x109;" horiz-adv-x="553" 
d="M208 535h-59l118 132h48l119 -132h-61l-81 92zM289 -11q-105 0 -175.5 70t-70.5 177t71 177.5t178 70.5q80 0 141.5 -40.5t86.5 -109.5l-55 -18q-20 51 -67 82.5t-106 31.5q-82 0 -136 -55t-54 -139t54 -138.5t136 -54.5q57 0 105.5 32t69.5 83l53 -23
q-27 -65 -89.5 -105.5t-141.5 -40.5z" />
    <glyph glyph-name="Cdotaccent" unicode="&#x10a;" horiz-adv-x="724" 
d="M382 758q-20 0 -33.5 14t-13.5 33t13.5 33t33.5 14q21 0 34.5 -13.5t13.5 -33.5t-13.5 -33.5t-34.5 -13.5zM383 -11q-144 0 -240.5 98.5t-96.5 246.5t96 247t241 99q107 0 190 -56.5t120 -152.5l-54 -25q-31 81 -100.5 130t-156.5 49q-116 0 -196 -84.5t-80 -206.5
t80.5 -206t196.5 -84q85 0 153.5 47.5t100.5 125.5l55 -24q-37 -93 -120 -148.5t-189 -55.5z" />
    <glyph glyph-name="cdotaccent" unicode="&#x10b;" horiz-adv-x="553" 
d="M292 556q-21 0 -34.5 14t-13.5 34q0 19 13.5 32t34.5 13q19 0 32.5 -13t13.5 -32q0 -20 -13.5 -34t-32.5 -14zM289 -11q-105 0 -175.5 70t-70.5 177t71 177.5t178 70.5q80 0 141.5 -40.5t86.5 -109.5l-55 -18q-20 51 -67 82.5t-106 31.5q-82 0 -136 -55t-54 -139
t54 -138.5t136 -54.5q57 0 105.5 32t69.5 83l53 -23q-27 -65 -89.5 -105.5t-141.5 -40.5z" />
    <glyph glyph-name="Ccaron" unicode="&#x10c;" horiz-adv-x="724" 
d="M359 728l-127 138h66l86 -92l86 92h66l-127 -138h-50zM383 -11q-144 0 -240.5 98.5t-96.5 246.5t96 247t241 99q107 0 190 -56.5t120 -152.5l-54 -25q-31 81 -100.5 130t-156.5 49q-116 0 -196 -84.5t-80 -206.5t80.5 -206t196.5 -84q85 0 153.5 47.5t100.5 125.5l55 -24
q-37 -93 -120 -148.5t-189 -55.5z" />
    <glyph glyph-name="ccaron" unicode="&#x10d;" horiz-adv-x="553" 
d="M267 534l-118 133h58l85 -92l81 92h60l-118 -133h-48zM289 -11q-105 0 -175.5 70t-70.5 177t71 177.5t178 70.5q80 0 141.5 -40.5t86.5 -109.5l-55 -18q-20 51 -67 82.5t-106 31.5q-82 0 -136 -55t-54 -139t54 -138.5t136 -54.5q57 0 105.5 32t69.5 83l53 -23
q-27 -65 -89.5 -105.5t-141.5 -40.5z" />
    <glyph glyph-name="Dcaron" unicode="&#x10e;" horiz-adv-x="708" 
d="M310 728l-127 138h66l86 -92l86 92h66l-127 -138h-50zM340 0h-247v669h233q153 0 243 -93t90 -242q0 -148 -86 -241t-233 -93zM153 614v-559h186q118 0 188.5 78.5t70.5 201.5q0 124 -72 201.5t-194 77.5h-179z" />
    <glyph glyph-name="dcaron" unicode="&#x10f;" horiz-adv-x="613" 
d="M586 538l19 174h61l-30 -174h-50zM467 379v323h60v-702h-59v98q-31 -51 -82 -80t-113 -29q-98 0 -164 71t-66 176q0 106 66.5 176.5t165.5 70.5q61 0 111 -27.5t81 -76.5zM283 43q80 0 133.5 55.5t53.5 138.5q0 82 -53.5 137t-133.5 55q-77 0 -128.5 -55.5t-51.5 -137.5
t51.5 -137.5t128.5 -55.5z" />
    <glyph glyph-name="Dcroat" unicode="&#x110;" horiz-adv-x="718" 
d="M104 669h233q153 0 243 -93t90 -242q0 -148 -86 -241t-233 -93h-247v311h-74v46h74v312zM164 55h185q118 0 189 78.5t71 201.5q0 124 -72 201.5t-194 77.5h-179v-257h200v-46h-200v-256z" />
    <glyph glyph-name="dcroat" unicode="&#x111;" horiz-adv-x="607" 
d="M527 602h70v-37h-70v-565h-59v98q-31 -51 -82 -80t-113 -29q-98 0 -164 71t-66 176q0 106 66.5 176.5t165.5 70.5q61 0 111 -27.5t81 -76.5v186h-189v37h189v100h60v-100zM283 43q80 0 133.5 55.5t53.5 138.5q0 82 -53.5 137t-133.5 55q-77 0 -128.5 -55.5t-51.5 -137.5
t51.5 -137.5t128.5 -55.5z" />
    <glyph glyph-name="Emacron" unicode="&#x112;" horiz-adv-x="611" 
d="M177 826h306v-48h-306v48zM153 312v-259h411v-53h-471v669h460v-53h-400v-251h386v-53h-386z" />
    <glyph glyph-name="emacron" unicode="&#x113;" horiz-adv-x="572" 
d="M156 620h267v-45h-267v45zM529 246q0 -18 -2 -34h-425q7 -75 59.5 -124t129.5 -49q55 0 99.5 26t68.5 70l48 -23q-27 -56 -86 -89.5t-132 -33.5q-106 0 -176 70t-70 177t70.5 177t177.5 70q104 0 171 -67t67 -170zM290 435q-75 0 -128.5 -50t-59.5 -125h369
q-5 75 -56 125t-125 50z" />
    <glyph glyph-name="Ebreve" unicode="&#x114;" horiz-adv-x="611" 
d="M437 765q-41 -38 -106 -38t-105.5 37.5t-40.5 99.5h51q2 -42 28 -68t67 -26q40 0 66 26.5t28 67.5h52q0 -62 -40 -99zM153 312v-259h411v-53h-471v669h460v-53h-400v-251h386v-53h-386z" />
    <glyph glyph-name="ebreve" unicode="&#x115;" horiz-adv-x="572" 
d="M393 572q-40 -37 -103 -37t-102.5 36.5t-39.5 96.5h50q1 -42 26 -68t66 -26q40 0 65 26t26 68h51q0 -60 -39 -96zM529 246q0 -18 -2 -34h-425q7 -75 59.5 -124t129.5 -49q55 0 99.5 26t68.5 70l48 -23q-27 -56 -86 -89.5t-132 -33.5q-106 0 -176 70t-70 177t70.5 177
t177.5 70q104 0 171 -67t67 -170zM290 435q-75 0 -128.5 -50t-59.5 -125h369q-5 75 -56 125t-125 50z" />
    <glyph glyph-name="Edotaccent" unicode="&#x116;" horiz-adv-x="611" 
d="M330 758q-20 0 -33 13.5t-13 33.5t13 33.5t33 13.5q21 0 34.5 -13.5t13.5 -33.5t-13.5 -33.5t-34.5 -13.5zM153 312v-259h411v-53h-471v669h460v-53h-400v-251h386v-53h-386z" />
    <glyph glyph-name="edotaccent" unicode="&#x117;" horiz-adv-x="572" 
d="M324 571q-14 -14 -34 -14t-33.5 13.5t-13.5 33.5q0 19 13.5 32.5t33.5 13.5t33.5 -13.5t13.5 -32.5q0 -20 -13 -33zM529 246q0 -18 -2 -34h-425q7 -75 59.5 -124t129.5 -49q55 0 99.5 26t68.5 70l48 -23q-27 -56 -86 -89.5t-132 -33.5q-106 0 -176 70t-70 177t70.5 177
t177.5 70q104 0 171 -67t67 -170zM290 435q-75 0 -128.5 -50t-59.5 -125h369q-5 75 -56 125t-125 50z" />
    <glyph glyph-name="Eogonek" unicode="&#x118;" horiz-adv-x="611" 
d="M564 53v-53q-56 -21 -87 -57t-31 -70q0 -21 12 -34.5t34 -13.5q27 0 65 19l4 -44q-40 -21 -75 -21q-42 0 -66.5 23.5t-24.5 60.5q0 32 24 70t72 67h-398v669h460v-53h-400v-251h386v-53h-386v-259h411z" />
    <glyph glyph-name="eogonek" unicode="&#x119;" horiz-adv-x="572" 
d="M529 246q0 -18 -2 -34h-425q7 -75 59.5 -124t129.5 -49q55 0 99.5 26t68.5 70l48 -23q-41 -84 -143 -113q-50 -23 -76.5 -56.5t-26.5 -64.5q0 -21 11.5 -35t33.5 -14q25 0 65 20l4 -44q-38 -22 -75 -22q-42 0 -66 23.5t-24 60.5q0 67 73 122q-104 2 -172 72t-68 175
q0 107 70.5 177t177.5 70q104 0 171 -67t67 -170zM290 435q-75 0 -128.5 -50t-59.5 -125h369q-5 75 -56 125t-125 50z" />
    <glyph glyph-name="Ecaron" unicode="&#x11a;" horiz-adv-x="611" 
d="M484 866l-127 -138h-50l-127 138h66l86 -92l86 92h66zM153 312v-259h411v-53h-471v669h460v-53h-400v-251h386v-53h-386z" />
    <glyph glyph-name="ecaron" unicode="&#x11b;" horiz-adv-x="572" 
d="M432 667l-119 -132h-48l-118 132h59l84 -92l82 92h60zM529 246q0 -18 -2 -34h-425q7 -75 59.5 -124t129.5 -49q55 0 99.5 26t68.5 70l48 -23q-27 -56 -86 -89.5t-132 -33.5q-106 0 -176 70t-70 177t70.5 177t177.5 70q104 0 171 -67t67 -170zM290 435q-75 0 -128.5 -50
t-59.5 -125h369q-5 75 -56 125t-125 50z" />
    <glyph glyph-name="Gcircumflex" unicode="&#x11c;" horiz-adv-x="755" 
d="M301 729h-66l127 138h50l128 -138h-67l-85 92zM681 506l-48 -34q-32 69 -99 111t-144 42q-125 0 -203.5 -82.5t-78.5 -207.5q0 -127 80 -209.5t202 -82.5q115 0 188.5 73.5t73.5 183.5h-279v53h341v-37q0 -143 -91.5 -235.5t-234.5 -92.5q-148 0 -244.5 97.5t-96.5 249.5
q0 149 96 247.5t245 98.5q94 0 173.5 -47.5t119.5 -127.5z" />
    <glyph glyph-name="gcircumflex" unicode="&#x11d;" horiz-adv-x="611" 
d="M376 534l-81 92l-85 -92h-58l118 132h48l118 -132h-60zM473 376v98h58v-445q0 -118 -66 -180t-189 -62q-106 0 -190 49v59q84 -56 187 -56q96 0 148 49.5t52 140.5v77q-30 -52 -81 -81.5t-115 -29.5q-100 0 -166.5 69.5t-66.5 173.5q0 105 67 175t167 70
q63 0 113.5 -28.5t81.5 -78.5zM287 48q80 0 132 54.5t52 137.5q0 82 -52 136t-131 54t-131.5 -55t-52.5 -138q0 -82 52 -135.5t131 -53.5z" />
    <glyph glyph-name="Gbreve" unicode="&#x11e;" horiz-adv-x="755" 
d="M494 764q-41 -38 -106 -38t-105.5 37.5t-40.5 99.5h52q1 -41 27 -67t67 -26t67 26t27 67h53q-1 -62 -41 -99zM681 506l-48 -34q-32 69 -99 111t-144 42q-125 0 -203.5 -82.5t-78.5 -207.5q0 -127 80 -209.5t202 -82.5q115 0 188.5 73.5t73.5 183.5h-279v53h341v-37
q0 -143 -91.5 -235.5t-234.5 -92.5q-148 0 -244.5 97.5t-96.5 249.5q0 149 96 247.5t245 98.5q94 0 173.5 -47.5t119.5 -127.5z" />
    <glyph glyph-name="gbreve" unicode="&#x11f;" horiz-adv-x="611" 
d="M396 570q-39 -36 -102 -36t-102 36t-40 97h50q1 -42 26.5 -68t65.5 -26t65.5 26t26.5 68h50q-1 -61 -40 -97zM473 376v98h58v-445q0 -118 -66 -180t-189 -62q-106 0 -190 49v59q84 -56 187 -56q96 0 148 49.5t52 140.5v77q-30 -52 -81 -81.5t-115 -29.5
q-100 0 -166.5 69.5t-66.5 173.5q0 105 67 175t167 70q63 0 113.5 -28.5t81.5 -78.5zM287 48q80 0 132 54.5t52 137.5q0 82 -52 136t-131 54t-131.5 -55t-52.5 -138q0 -82 52 -135.5t131 -53.5z" />
    <glyph glyph-name="Gdotaccent" unicode="&#x120;" horiz-adv-x="755" 
d="M422 771q-14 -14 -34 -14t-33.5 14t-13.5 34q0 19 13.5 32.5t33.5 13.5t33.5 -13.5t13.5 -32.5q0 -20 -13 -34zM681 506l-48 -34q-32 69 -99 111t-144 42q-125 0 -203.5 -82.5t-78.5 -207.5q0 -127 80 -209.5t202 -82.5q115 0 188.5 73.5t73.5 183.5h-279v53h341v-37
q0 -143 -91.5 -235.5t-234.5 -92.5q-148 0 -244.5 97.5t-96.5 249.5q0 149 96 247.5t245 98.5q94 0 173.5 -47.5t119.5 -127.5z" />
    <glyph glyph-name="gdotaccent" unicode="&#x121;" horiz-adv-x="611" 
d="M328 570q-14 -14 -34 -14t-34 13.5t-14 33.5q0 19 14 32.5t34 13.5t33.5 -13.5t13.5 -32.5q0 -20 -13 -33zM473 376v98h58v-445q0 -118 -66 -180t-189 -62q-106 0 -190 49v59q84 -56 187 -56q96 0 148 49.5t52 140.5v77q-30 -52 -81 -81.5t-115 -29.5q-100 0 -166.5 69.5
t-66.5 173.5q0 105 67 175t167 70q63 0 113.5 -28.5t81.5 -78.5zM287 48q80 0 132 54.5t52 137.5q0 82 -52 136t-131 54t-131.5 -55t-52.5 -138q0 -82 52 -135.5t131 -53.5z" />
    <glyph glyph-name="uni0122" unicode="&#x122;" horiz-adv-x="755" 
d="M681 506l-48 -34q-32 69 -99 111t-144 42q-125 0 -203.5 -82.5t-78.5 -207.5q0 -127 80 -209.5t202 -82.5q115 0 188.5 73.5t73.5 183.5h-279v53h341v-37q0 -143 -91.5 -235.5t-234.5 -92.5q-148 0 -244.5 97.5t-96.5 249.5q0 149 96 247.5t245 98.5q94 0 173.5 -47.5
t119.5 -127.5zM369 -211h-56l37 159h64z" />
    <glyph glyph-name="uni0123" unicode="&#x123;" horiz-adv-x="611" 
d="M298 675h54l-35 -146h-64zM473 376v98h58v-445q0 -118 -66 -180t-189 -62q-106 0 -190 49v59q84 -56 187 -56q96 0 148 49.5t52 140.5v77q-30 -52 -81 -81.5t-115 -29.5q-100 0 -166.5 69.5t-66.5 173.5q0 105 67 175t167 70q63 0 113.5 -28.5t81.5 -78.5zM287 48
q80 0 132 54.5t52 137.5q0 82 -52 136t-131 54t-131.5 -55t-52.5 -138q0 -82 52 -135.5t131 -53.5z" />
    <glyph glyph-name="Hcircumflex" unicode="&#x124;" horiz-adv-x="733" 
d="M451 730l-85 92l-87 -92h-66l128 137h50l127 -137h-67zM579 358v311h60v-669h-60v302h-425v-302h-61v669h61v-311h425z" />
    <glyph glyph-name="hcircumflex" unicode="&#x125;" horiz-adv-x="592" 
d="M264 730h-66l-86 91l-87 -91h-66l127 136h50zM321 483q86 0 142 -57t56 -144v-282h-59v267q0 69 -43 114.5t-108 45.5q-71 0 -119.5 -55.5t-48.5 -138.5v-233h-60v698h60v-315q30 50 78 75t102 25z" />
    <glyph glyph-name="Hbar" unicode="&#x126;" horiz-adv-x="693" 
d="M620 535h37v-41h-37v-494h-61v302h-425v-302h-60v494h-37v41h37v134h60v-134h425v134h61v-134zM134 358h425v136h-425v-136z" />
    <glyph glyph-name="hbar" unicode="&#x127;" horiz-adv-x="592" 
d="M321 483q86 0 142 -57t56 -144v-282h-59v267q0 69 -43 114.5t-108 45.5q-71 0 -119.5 -55.5t-48.5 -138.5v-233h-60v565h-98v37h98v101h60v-101h161v-37h-161v-182q30 50 78 75t102 25z" />
    <glyph glyph-name="Itilde" unicode="&#x128;" horiz-adv-x="249" 
d="M206 747q-38 0 -84 34t-75 34q-28 0 -44.5 -18.5t-18.5 -48.5h-48q1 50 28 80.5t75 30.5q41 0 86 -34t72 -34q28 0 47.5 19t20.5 48h48q-2 -48 -31.5 -79.5t-75.5 -31.5zM94 0v669h61v-669h-61z" />
    <glyph glyph-name="itilde" unicode="&#x129;" horiz-adv-x="223" 
d="M189 556q-36 0 -77 31t-69 31q-23 0 -38 -16t-16 -44h-47q2 51 28.5 77t67.5 26q40 0 80 -30.5t64 -30.5q55 0 60 60h46q-4 -52 -30.5 -78t-68.5 -26zM141 0h-60v474h60v-474z" />
    <glyph glyph-name="Imacron" unicode="&#x12a;" horiz-adv-x="249" 
d="M277 778h-305v48h305v-48zM95 0v669h60v-669h-60z" />
    <glyph glyph-name="imacron" unicode="&#x12b;" horiz-adv-x="223" 
d="M244 574h-266v46h266v-46zM141 0h-60v474h60v-474z" />
    <glyph glyph-name="Ibreve" unicode="&#x12c;" horiz-adv-x="249" 
d="M231 765q-40 -38 -105 -38t-105.5 37.5t-41.5 99.5h53q1 -41 27 -67.5t67 -26.5q40 0 66 26.5t27 67.5h53q-1 -62 -41 -99zM94 0v669h61v-669h-61z" />
    <glyph glyph-name="ibreve" unicode="&#x12d;" horiz-adv-x="223" 
d="M111 534q-63 0 -102 36.5t-40 97.5h50q1 -42 26.5 -68t65.5 -26t65.5 26t26.5 68h50q0 -61 -39 -97.5t-103 -36.5zM141 0h-60v474h60v-474z" />
    <glyph glyph-name="Iogonek" unicode="&#x12e;" horiz-adv-x="251" 
d="M157 669v-669q-57 -21 -87.5 -57t-30.5 -70q0 -21 12 -34.5t34 -13.5q26 0 64 19l4 -44q-38 -21 -74 -21q-42 0 -66.5 23.5t-24.5 60.5q0 34 27.5 74.5t81.5 70.5v661h60z" />
    <glyph glyph-name="iogonek" unicode="&#x12f;" horiz-adv-x="224" 
d="M80 636q13 13 33 13t33.5 -13t13.5 -32q0 -20 -13.5 -34t-33.5 -14t-33.5 14t-13.5 34q0 19 14 32zM83 7v467h60v-474q-56 -21 -87 -57t-31 -70q0 -21 12 -34.5t34 -13.5q25 0 65 19l4 -44q-40 -21 -76 -21q-42 0 -65.5 23.5t-23.5 60.5q0 34 27 74t81 70z" />
    <glyph glyph-name="Idotaccent" unicode="&#x130;" horiz-adv-x="249" 
d="M159 772q-14 -14 -34 -14t-34 13.5t-14 33.5t14 33.5t34 13.5t33.5 -13.5t13.5 -33.5t-13 -33zM94 0v669h60v-669h-60z" />
    <glyph glyph-name="dotlessi" unicode="&#x131;" horiz-adv-x="222" 
d="M141 0h-60v474h60v-474z" />
    <glyph glyph-name="IJ" unicode="&#x132;" horiz-adv-x="710" 
d="M154 0h-61v669h61v-669zM566 222v447h60v-457q0 -102 -64.5 -162.5t-180.5 -60.5q-65 0 -127 20v54q65 -19 120 -19q94 0 143 49.5t49 128.5z" />
    <glyph glyph-name="ij" unicode="&#x133;" horiz-adv-x="466" 
d="M78 636q13 13 33 13t33.5 -13t13.5 -32q0 -20 -13.5 -34t-33.5 -14t-33.5 14t-13.5 34q0 19 14 32zM322 629q13 13 33 13t33.5 -13t13.5 -33t-13.5 -33.5t-33.5 -13.5t-33.5 13.5t-13.5 33.5q0 19 14 33zM141 0h-60v474h60v-474zM326 -41v515h59v-536q0 -71 -42 -111.5
t-114 -40.5q-43 0 -79 12v53q36 -10 68 -10q56 0 82 28.5t26 89.5z" />
    <glyph glyph-name="Jcircumflex" unicode="&#x134;" horiz-adv-x="482" 
d="M280 730h-66l127 137h50l127 -137h-66l-86 92zM151 -11q-65 0 -127 20l-1 54q67 -19 121 -19q94 0 142.5 49.5t48.5 128.5v447h60v-457q0 -102 -64 -162.5t-180 -60.5z" />
    <glyph glyph-name="jcircumflex" unicode="&#x135;" horiz-adv-x="236" 
d="M42 535h-59l118 132h48l118 -132h-60l-81 92zM-2 -214q-43 0 -79 12v53q38 -10 69 -10q56 0 81.5 28.5t25.5 89.5v515h59v-536q0 -71 -42 -111.5t-114 -40.5z" />
    <glyph glyph-name="uni0136" unicode="&#x136;" horiz-adv-x="615" 
d="M595 669l-381 -335l396 -334h-83l-373 314v-314h-61v669h61v-320l362 320h79zM331 -213h-56l36 160h65z" />
    <glyph glyph-name="uni0137" unicode="&#x137;" horiz-adv-x="504" 
d="M484 474l-283 -236l293 -238h-82l-272 220v-220h-59v701h59v-451l268 224h76zM255 -220h-52l45 158h62z" />
    <glyph glyph-name="kgreenlandic" unicode="&#x138;" horiz-adv-x="513" 
d="M207 232l297 -232h-83l-279 214v-214h-61v474h61v-229l276 229h75z" />
    <glyph glyph-name="Lacute" unicode="&#x139;" horiz-adv-x="551" 
d="M156 725h-61l50 138h78zM528 0h-435v669h61v-615h374v-54z" />
    <glyph glyph-name="lacute" unicode="&#x13a;" horiz-adv-x="224" 
d="M144 732h-60l49 138h76zM141 701v-701h-60v701h60z" />
    <glyph glyph-name="uni013B" unicode="&#x13b;" horiz-adv-x="551" 
d="M528 0h-435v669h61v-615h374v-54zM310 -211h-56l36 159h65z" />
    <glyph glyph-name="uni013C" unicode="&#x13c;" horiz-adv-x="222" 
d="M133 701v-701h-60v701h60zM87 -215h-52l45 159h62z" />
    <glyph glyph-name="Lcaron" unicode="&#x13d;" horiz-adv-x="554" 
d="M393 538h-51l19 174h61zM528 0h-435v669h61v-615h374v-54z" />
    <glyph glyph-name="lcaron" unicode="&#x13e;" horiz-adv-x="227" 
d="M250 539h-50l18 174h62zM141 701v-701h-60v701h60z" />
    <glyph glyph-name="Ldot" unicode="&#x13f;" horiz-adv-x="553" 
d="M528 0h-435v669h61v-615h374v-54zM394 326q-19 0 -32 13t-13 31t13 31t32 13q18 0 31 -13t13 -31t-13 -31t-31 -13z" />
    <glyph glyph-name="ldot" unicode="&#x140;" horiz-adv-x="267" 
d="M141 701v-701h-60v701h60zM244 303q-19 0 -32 12.5t-13 30.5q0 19 13 32t32 13q18 0 31 -13t13 -32q0 -18 -13 -30.5t-31 -12.5z" />
    <glyph glyph-name="Lslash" unicode="&#x141;" horiz-adv-x="556" 
d="M159 291v-237h375v-54h-435v251l-62 -41v58l62 41v360h60v-319l119 79v-59z" />
    <glyph glyph-name="lslash" unicode="&#x142;" horiz-adv-x="278" 
d="M166 395l73 66v-66l-73 -65v-330h-60v276l-68 -61v64l68 62v360h60v-306z" />
    <glyph glyph-name="Nacute" unicode="&#x143;" horiz-adv-x="738" 
d="M391 862h78l-66 -138h-62zM586 95v574h58v-669h-55l-437 573v-573h-59v669h58z" />
    <glyph glyph-name="nacute" unicode="&#x144;" 
d="M322 671h76l-66 -135h-58zM321 483q85 0 141 -57.5t56 -143.5v-282h-59v269q0 69 -43 114.5t-107 45.5q-72 0 -120 -55.5t-48 -138.5v-235h-60v474h58v-98q29 54 77.5 80.5t104.5 26.5z" />
    <glyph glyph-name="uni0145" unicode="&#x145;" horiz-adv-x="738" 
d="M586 95v574h58v-669h-55l-437 573v-573h-59v669h58zM379 -211h-55l36 159h65z" />
    <glyph glyph-name="uni0146" unicode="&#x146;" 
d="M321 483q85 0 141 -57.5t56 -143.5v-282h-59v269q0 69 -43 114.5t-107 45.5q-72 0 -120 -55.5t-48 -138.5v-235h-60v474h58v-98q29 54 77.5 80.5t104.5 26.5zM274 -221h-52l45 158h62z" />
    <glyph glyph-name="Ncaron" unicode="&#x147;" horiz-adv-x="738" 
d="M522 865l-127 -138h-50l-128 138h66l87 -92l85 92h67zM586 95v574h58v-669h-55l-437 573v-573h-59v669h58z" />
    <glyph glyph-name="ncaron" unicode="&#x148;" 
d="M447 667l-119 -133h-48l-118 133h59l84 -92l82 92h60zM321 483q85 0 141 -57.5t56 -143.5v-282h-59v269q0 69 -43 114.5t-107 45.5q-72 0 -120 -55.5t-48 -138.5v-235h-60v474h58v-98q29 54 77.5 80.5t104.5 26.5z" />
    <glyph glyph-name="Eng" unicode="&#x14a;" horiz-adv-x="738" 
d="M586 95v574h58v-658q0 -105 -58 -165t-173 -60q-63 0 -123 20l-1 58q61 -18 120 -18q167 0 176 160l-433 567v-573h-59v669h58z" />
    <glyph glyph-name="eng" unicode="&#x14b;" 
d="M321 483q85 0 141 -57.5t56 -143.5v-311q0 -86 -48.5 -135.5t-136.5 -49.5q-43 0 -97 16v53q47 -14 84 -14q139 0 139 145v283q0 69 -43 114.5t-107 45.5q-72 0 -120 -55.5t-48 -138.5v-235h-60v474h58v-98q29 54 77.5 80.5t104.5 26.5z" />
    <glyph glyph-name="Omacron" unicode="&#x14c;" horiz-adv-x="766" 
d="M535 775h-305v49h305v-49zM624 87q-96 -98 -241 -98t-241 98.5t-96 246.5t96 247t241 99q144 0 240 -99t96 -247q0 -149 -95 -247zM187 128q80 -84 196 -84t196.5 84t80.5 206t-80.5 206.5t-196.5 84.5t-196.5 -84.5t-80.5 -206.5t81 -206z" />
    <glyph glyph-name="omacron" unicode="&#x14d;" horiz-adv-x="583" 
d="M424 574h-267v46h267v-46zM469 60q-71 -71 -178 -71t-178 70.5t-71 176.5t71 177t178 71t178 -71t71 -177t-71 -176zM292 43q80 0 134.5 55.5t54.5 137.5q0 83 -54.5 138.5t-134.5 55.5q-81 0 -135.5 -55.5t-54.5 -138.5q0 -82 54.5 -137.5t135.5 -55.5z" />
    <glyph glyph-name="Obreve" unicode="&#x14e;" horiz-adv-x="766" 
d="M383 725q-65 0 -105 37t-41 100h53q1 -41 27 -67.5t66 -26.5q41 0 67 26.5t27 67.5h53q0 -62 -40.5 -99.5t-106.5 -37.5zM624 87q-96 -98 -241 -98t-241 98.5t-96 246.5t96 247t241 99q144 0 240 -99t96 -247q0 -149 -95 -247zM187 128q80 -84 196 -84t196.5 84t80.5 206
t-80.5 206.5t-196.5 84.5t-196.5 -84.5t-80.5 -206.5t81 -206z" />
    <glyph glyph-name="obreve" unicode="&#x14f;" horiz-adv-x="583" 
d="M291 534q-64 0 -103 36.5t-39 97.5h50q1 -42 26 -68t66 -26q40 0 65 26t26 68h51q-1 -61 -40 -97.5t-102 -36.5zM469 60q-71 -71 -178 -71t-178 70.5t-71 176.5t71 177t178 71t178 -71t71 -177t-71 -176zM292 43q80 0 134.5 55.5t54.5 137.5q0 83 -54.5 138.5
t-134.5 55.5q-81 0 -135.5 -55.5t-54.5 -138.5q0 -82 54.5 -137.5t135.5 -55.5z" />
    <glyph glyph-name="Ohungarumlaut" unicode="&#x150;" horiz-adv-x="766" 
d="M326 724h-53l43 140h75zM476 724h-55l50 140h74zM624 87q-96 -98 -241 -98t-241 98.5t-96 246.5t96 247t241 99q144 0 240 -99t96 -247q0 -149 -95 -247zM187 128q80 -84 196 -84t196.5 84t80.5 206t-80.5 206.5t-196.5 84.5t-196.5 -84.5t-80.5 -206.5t81 -206z" />
    <glyph glyph-name="ohungarumlaut" unicode="&#x151;" horiz-adv-x="583" 
d="M244 536h-52l38 135h73zM380 536h-54l53 135h73zM469 60q-71 -71 -178 -71t-178 70.5t-71 176.5t71 177t178 71t178 -71t71 -177t-71 -176zM292 43q80 0 134.5 55.5t54.5 137.5q0 83 -54.5 138.5t-134.5 55.5q-81 0 -135.5 -55.5t-54.5 -138.5q0 -82 54.5 -137.5
t135.5 -55.5z" />
    <glyph glyph-name="OE" unicode="&#x152;" horiz-adv-x="1115" 
d="M669 313v-260h401v-53h-458v156q-37 -78 -104.5 -122.5t-154.5 -44.5q-132 0 -218.5 97.5t-86.5 247.5t86.5 248t218.5 98q87 0 154.5 -44.5t104.5 -122.5v156h446v-53h-389v-253h368v-50h-368zM359 43q107 0 178.5 84t71.5 207q0 124 -71.5 208t-178.5 84
q-108 0 -180 -84t-72 -208q0 -123 72 -207t180 -84z" />
    <glyph glyph-name="oe" unicode="&#x153;" horiz-adv-x="939" 
d="M896 251q0 -22 -2 -40h-393q5 -74 54.5 -122.5t120.5 -48.5q48 0 88.5 26t63.5 70l48 -22q-27 -56 -81.5 -90t-122.5 -34q-66 0 -120.5 34.5t-82.5 96.5q-27 -61 -80 -96.5t-119 -35.5q-97 0 -162 70.5t-65 176.5t65.5 177t161.5 71q67 0 119.5 -36t79.5 -98
q28 62 82.5 98t121.5 36q96 0 159.5 -67.5t63.5 -165.5zM672 435q-70 0 -118.5 -50.5t-53.5 -127.5h339q-2 77 -49 127.5t-118 50.5zM272 42q74 0 123 54.5t49 139.5q0 84 -48.5 139.5t-123.5 55.5q-74 0 -122.5 -55.5t-48.5 -139.5t48.5 -139t122.5 -55z" />
    <glyph glyph-name="Racute" unicode="&#x154;" horiz-adv-x="657" 
d="M337 863h78l-67 -138h-61zM609 0h-73l-185 241h-198v-241h-60v669h290q99 0 162 -60t63 -153q0 -87 -53 -143t-139 -67zM375 616h-222v-322h212q82 0 132.5 43t50.5 116q0 71 -48 117t-125 46z" />
    <glyph glyph-name="racute" unicode="&#x155;" horiz-adv-x="380" 
d="M237 672h77l-66 -135h-59zM299 484q31 0 64 -9l-1 -57q-33 10 -70 10q-66 0 -109 -45.5t-43 -121.5v-261h-59v474h58v-82q23 44 65 68t95 24z" />
    <glyph glyph-name="uni0156" unicode="&#x156;" horiz-adv-x="657" 
d="M416 246l193 -246h-73l-185 241h-198v-241h-60v669h290q99 0 162 -60t63 -153q0 -87 -53 -143t-139 -67zM375 616h-222v-322h212q82 0 132.5 43t50.5 116q0 71 -48 117t-125 46zM326 -213h-55l36 160h64z" />
    <glyph glyph-name="uni0157" unicode="&#x157;" horiz-adv-x="380" 
d="M299 484q31 0 64 -9l-1 -57q-33 10 -70 10q-66 0 -109 -45.5t-43 -121.5v-261h-59v474h58v-82q23 44 65 68t95 24zM86 -219h-52l46 159h60z" />
    <glyph glyph-name="Rcaron" unicode="&#x158;" horiz-adv-x="657" 
d="M467 866l-127 -138h-50l-127 138h66l86 -92l86 92h66zM609 0h-73l-185 241h-198v-241h-60v669h290q99 0 162 -60t63 -153q0 -87 -53 -143t-139 -67zM375 616h-222v-322h212q82 0 132.5 43t50.5 116q0 71 -48 117t-125 46z" />
    <glyph glyph-name="rcaron" unicode="&#x159;" horiz-adv-x="381" 
d="M363 668l-119 -133h-48l-118 133h59l84 -92l82 92h60zM300 484q31 0 64 -9l-1 -57q-35 10 -70 10q-67 0 -110 -45.5t-43 -121.5v-261h-58v474h57v-83q50 93 161 93z" />
    <glyph glyph-name="Sacute" unicode="&#x15a;" horiz-adv-x="623" 
d="M356 724h-61l50 138h78zM318 -10q-166 0 -284 88l26 50q106 -85 263 -85q89 0 144.5 37t55.5 103q0 28 -13 49t-31 33.5t-50.5 22.5t-56.5 14t-64 10q-38 5 -65 10.5t-64.5 19t-61 31.5t-41 49.5t-17.5 71.5q0 89 68.5 137.5t187.5 48.5q127 0 243 -57l-24 -48
q-109 53 -218 53q-96 0 -146 -35t-50 -96q0 -34 17 -58t49.5 -38t63 -21.5t74.5 -13.5q34 -5 52 -8t50 -10.5t50.5 -15t42 -21.5t36 -30.5t21.5 -41t9 -54.5q0 -98 -74.5 -146.5t-192.5 -48.5z" />
    <glyph glyph-name="sacute" unicode="&#x15b;" horiz-adv-x="496" 
d="M287 537h-58l48 134h76zM252 -10q-124 0 -218 63l24 47q89 -59 199 -59q63 0 104 22.5t41 64.5q0 22 -11 37.5t-33.5 24.5t-45 13.5t-57.5 10.5q-9 1 -14 2q-33 5 -51.5 9t-48 14t-45.5 22.5t-29 35t-13 51.5q0 64 53 100.5t145 36.5q98 0 185 -40l-17 -48
q-85 38 -170 38q-66 0 -102.5 -22.5t-36.5 -62.5q0 -18 9 -32t19.5 -21.5t34 -14.5t37 -9t43.5 -7q39 -6 63.5 -11t54.5 -15t47 -23.5t28.5 -35t11.5 -50.5q0 -69 -58 -105t-149 -36z" />
    <glyph glyph-name="Scircumflex" unicode="&#x15c;" horiz-adv-x="623" 
d="M235 729h-66l127 138h50l128 -138h-67l-85 92zM318 -10q-166 0 -284 88l26 50q106 -85 263 -85q89 0 144.5 37t55.5 103q0 28 -13 49t-31 33.5t-50.5 22.5t-56.5 14t-64 10q-38 5 -65 10.5t-64.5 19t-61 31.5t-41 49.5t-17.5 71.5q0 89 68.5 137.5t187.5 48.5
q127 0 243 -57l-24 -48q-109 53 -218 53q-96 0 -146 -35t-50 -96q0 -34 17 -58t49.5 -38t63 -21.5t74.5 -13.5q34 -5 52 -8t50 -10.5t50.5 -15t42 -21.5t36 -30.5t21.5 -41t9 -54.5q0 -98 -74.5 -146.5t-192.5 -48.5z" />
    <glyph glyph-name="scircumflex" unicode="&#x15d;" horiz-adv-x="496" 
d="M177 536h-59l118 132h48l118 -132h-60l-81 92zM252 -10q-124 0 -218 63l24 47q89 -59 199 -59q63 0 104 22.5t41 64.5q0 22 -11 37.5t-33.5 24.5t-45 13.5t-57.5 10.5q-9 1 -14 2q-33 5 -51.5 9t-48 14t-45.5 22.5t-29 35t-13 51.5q0 64 53 100.5t145 36.5q98 0 185 -40
l-17 -48q-85 38 -170 38q-66 0 -102.5 -22.5t-36.5 -62.5q0 -18 9 -32t19.5 -21.5t34 -14.5t37 -9t43.5 -7q39 -6 63.5 -11t54.5 -15t47 -23.5t28.5 -35t11.5 -50.5q0 -69 -58 -105t-149 -36z" />
    <glyph glyph-name="Scedilla" unicode="&#x15e;" horiz-adv-x="623" 
d="M585 185q0 -97 -73.5 -145.5t-190.5 -49.5l-13 -46h11q49 0 77.5 -22t28.5 -58q0 -41 -32.5 -67.5t-89.5 -26.5q-45 0 -90 15l2 41q40 -15 82 -15q79 0 79 55q0 46 -71 46h-48l-5 9l23 71q-141 11 -241 86l26 50q106 -85 263 -85q89 0 144.5 37t55.5 103q0 28 -13 49
t-31 33.5t-50.5 22.5t-56.5 14t-64 10q-38 5 -65 10.5t-64.5 19t-61 31.5t-41 49.5t-17.5 71.5q0 89 68.5 137.5t187.5 48.5q127 0 243 -57l-24 -48q-109 53 -218 53q-96 0 -146 -35t-50 -96q0 -34 17 -58t49.5 -38t63 -21.5t74.5 -13.5q34 -5 52 -8t50 -10.5t50.5 -15
t42 -21.5t36 -30.5t21.5 -41t9 -54.5z" />
    <glyph glyph-name="scedilla" unicode="&#x15f;" horiz-adv-x="496" 
d="M252 -10h-6l-12 -43h11q48 0 77 -22.5t29 -58.5q0 -41 -32 -67t-89 -26q-52 0 -90 14l2 41q37 -14 82 -14q37 0 58 14t21 40q0 47 -71 47h-48l-5 8l22 70q-94 11 -167 60l24 47q89 -59 199 -59q63 0 104 22.5t41 64.5q0 22 -11 37.5t-33.5 24.5t-45 13.5t-57.5 10.5
q-9 1 -14 2q-33 5 -51.5 9t-48 14t-45.5 22.5t-29 35t-13 51.5q0 64 53 100.5t145 36.5q98 0 185 -40l-17 -48q-85 38 -170 38q-66 0 -102.5 -22.5t-36.5 -62.5q0 -18 9 -32t19.5 -21.5t34 -14.5t37 -9t43.5 -7q39 -6 63.5 -11t54.5 -15t47 -23.5t28.5 -35t11.5 -50.5
q0 -69 -58 -105t-149 -36z" />
    <glyph glyph-name="Scaron" unicode="&#x160;" horiz-adv-x="623" 
d="M298 727l-127 138h66l87 -92l85 92h66l-127 -138h-50zM318 -10q-166 0 -284 88l26 50q106 -85 263 -85q89 0 144.5 37t55.5 103q0 28 -13 49t-31 33.5t-50.5 22.5t-56.5 14t-64 10q-38 5 -65 10.5t-64.5 19t-61 31.5t-41 49.5t-17.5 71.5q0 89 68.5 137.5t187.5 48.5
q127 0 243 -57l-24 -48q-109 53 -218 53q-96 0 -146 -35t-50 -96q0 -34 17 -58t49.5 -38t63 -21.5t74.5 -13.5q34 -5 52 -8t50 -10.5t50.5 -15t42 -21.5t36 -30.5t21.5 -41t9 -54.5q0 -98 -74.5 -146.5t-192.5 -48.5z" />
    <glyph glyph-name="scaron" unicode="&#x161;" horiz-adv-x="496" 
d="M235 535l-118 133h59l84 -92l82 92h60l-119 -133h-48zM252 -10q-124 0 -218 63l24 47q89 -59 199 -59q63 0 104 22.5t41 64.5q0 22 -11 37.5t-33.5 24.5t-45 13.5t-57.5 10.5q-9 1 -14 2q-33 5 -51.5 9t-48 14t-45.5 22.5t-29 35t-13 51.5q0 64 53 100.5t145 36.5
q98 0 185 -40l-17 -48q-85 38 -170 38q-66 0 -102.5 -22.5t-36.5 -62.5q0 -18 9 -32t19.5 -21.5t34 -14.5t37 -9t43.5 -7q39 -6 63.5 -11t54.5 -15t47 -23.5t28.5 -35t11.5 -50.5q0 -69 -58 -105t-149 -36z" />
    <glyph glyph-name="Tcaron" unicode="&#x164;" horiz-adv-x="560" 
d="M257 728l-127 138h66l87 -92l85 92h66l-127 -138h-50zM250 0v616h-228v53h516v-53h-228v-616h-60z" />
    <glyph glyph-name="tcaron" unicode="&#x165;" horiz-adv-x="374" 
d="M277 713h61l-29 -174h-51zM267 43q45 0 94 19v-51q-52 -22 -105 -22q-71 0 -108 40t-37 110v284h-89v51h89v184h58v-184h173v-51h-173v-276q0 -52 22 -78t76 -26z" />
    <glyph glyph-name="Tbar" unicode="&#x166;" horiz-adv-x="578" 
d="M547 669v-53h-228v-287h146v-49h-146v-280h-60v280h-145v49h145v287h-228v53h516z" />
    <glyph glyph-name="tbar" unicode="&#x167;" horiz-adv-x="367" 
d="M267 43q45 0 94 19v-51q-52 -22 -105 -22q-71 0 -108 40t-37 110v113h-89v35h89v136h-89v51h89v184h58v-184h173v-51h-173v-136h173v-35h-173v-105q0 -52 22 -78t76 -26z" />
    <glyph glyph-name="Utilde" unicode="&#x168;" horiz-adv-x="707" 
d="M436 747q-38 0 -84.5 34t-74.5 34t-45 -18t-19 -49h-48q1 50 28.5 80.5t74.5 30.5q33 0 60 -17t50.5 -34t47.5 -17q28 0 47 19t21 48h48q-2 -48 -31.5 -79.5t-74.5 -31.5zM548 62q-76 -73 -195 -73t-194 73.5t-75 188.5v418h60v-415q0 -91 59 -149.5t150 -58.5
t150.5 58.5t59.5 149.5v415h60v-418q0 -116 -75 -189z" />
    <glyph glyph-name="utilde" unicode="&#x169;" 
d="M222 618q-23 0 -37.5 -16t-15.5 -44h-47q1 51 27.5 77t68.5 26q40 0 79.5 -30.5t63.5 -30.5q26 0 42 16t17 44h47q-4 -52 -30 -78t-68 -26q-36 0 -77.5 31t-69.5 31zM450 229v245h60v-474h-59v95q-29 -52 -78.5 -78.5t-104.5 -26.5q-87 0 -141.5 58t-54.5 150v276h59
v-270q0 -69 43 -114.5t108 -45.5q70 0 119 53t49 132z" />
    <glyph glyph-name="Umacron" unicode="&#x16a;" horiz-adv-x="707" 
d="M506 778h-305v48h305v-48zM548 62q-76 -73 -195 -73t-194 73.5t-75 188.5v418h60v-415q0 -91 59 -149.5t150 -58.5t150.5 58.5t59.5 149.5v415h60v-418q0 -116 -75 -189z" />
    <glyph glyph-name="umacron" unicode="&#x16b;" 
d="M157 620h267v-46h-267v46zM450 229v245h60v-474h-59v95q-29 -52 -78.5 -78.5t-104.5 -26.5q-87 0 -141.5 58t-54.5 150v276h59v-270q0 -69 43 -114.5t108 -45.5q70 0 119 53t49 132z" />
    <glyph glyph-name="Ubreve" unicode="&#x16c;" horiz-adv-x="707" 
d="M354 727q-65 0 -105 37.5t-41 99.5h53q1 -41 27 -67.5t66 -26.5q41 0 67 26.5t27 67.5h53q0 -62 -40.5 -99.5t-106.5 -37.5zM548 62q-76 -73 -195 -73t-194 73.5t-75 188.5v418h60v-415q0 -91 59 -149.5t150 -58.5t150.5 58.5t59.5 149.5v415h60v-418q0 -116 -75 -189z
" />
    <glyph glyph-name="ubreve" unicode="&#x16d;" 
d="M291 534q-64 0 -103 36.5t-39 97.5h49q2 -42 27 -68t66 -26q40 0 65 26t26 68h50q0 -61 -39 -97.5t-102 -36.5zM450 229v245h60v-474h-59v95q-29 -52 -78.5 -78.5t-104.5 -26.5q-87 0 -141.5 58t-54.5 150v276h59v-270q0 -69 43 -114.5t108 -45.5q70 0 119 53t49 132z
" />
    <glyph glyph-name="Uring" unicode="&#x16e;" horiz-adv-x="707" 
d="M427 735q-30 -28 -73 -28t-72.5 28t-29.5 69t29.5 69t72.5 28t72.5 -28t29.5 -69t-29 -69zM310 761q18 -18 44 -18t44 17.5t18 42.5q0 27 -18 45t-44 18t-44 -18t-18 -45q0 -25 18 -42zM548 62q-76 -73 -195 -73t-194 73.5t-75 188.5v418h60v-415q0 -91 59 -149.5
t150 -58.5t150.5 58.5t59.5 149.5v415h60v-418q0 -116 -75 -189z" />
    <glyph glyph-name="uring" unicode="&#x16f;" 
d="M361 556q-29 -28 -71 -28t-70.5 27.5t-28.5 66.5q0 40 28.5 67.5t70.5 27.5t70.5 -27.5t28.5 -67.5q0 -39 -28 -66zM334 666q-18 18 -44 18t-44.5 -18t-18.5 -44q0 -25 18.5 -43t44.5 -18t44 17.5t18 43.5t-18 44zM450 229v245h60v-474h-59v95q-29 -52 -78.5 -78.5
t-104.5 -26.5q-87 0 -141.5 58t-54.5 150v276h59v-270q0 -69 43 -114.5t108 -45.5q70 0 119 53t49 132z" />
    <glyph glyph-name="Uhungarumlaut" unicode="&#x170;" horiz-adv-x="707" 
d="M297 726h-54l44 140h75zM446 726h-54l49 140h75zM548 62q-76 -73 -195 -73t-194 73.5t-75 188.5v418h60v-415q0 -91 59 -149.5t150 -58.5t150.5 58.5t59.5 149.5v415h60v-418q0 -116 -75 -189z" />
    <glyph glyph-name="uhungarumlaut" unicode="&#x171;" 
d="M230 671h73l-59 -135h-52zM379 671h73l-72 -135h-54zM450 229v245h60v-474h-59v95q-29 -52 -78.5 -78.5t-104.5 -26.5q-87 0 -141.5 58t-54.5 150v276h59v-270q0 -69 43 -114.5t108 -45.5q70 0 119 53t49 132z" />
    <glyph glyph-name="Uogonek" unicode="&#x172;" horiz-adv-x="707" 
d="M563 254v415h60v-418q0 -92 -49 -158.5t-132 -91.5q-52 -21 -80.5 -56.5t-28.5 -66.5q0 -21 12 -34.5t34 -13.5q27 0 65 19l3 -44q-38 -21 -74 -21q-42 0 -66.5 23.5t-24.5 60.5q0 64 73 121h-2q-119 0 -194 73.5t-75 188.5v418h60v-415q0 -91 59 -149.5t150 -58.5
t150.5 58.5t59.5 149.5z" />
    <glyph glyph-name="uogonek" unicode="&#x173;" 
d="M450 229v245h60v-474h-1q-56 -21 -87 -57t-31 -70q0 -21 12 -34.5t34 -13.5q25 0 65 19l4 -44q-40 -21 -76 -21q-42 0 -66 23.5t-24 60.5q0 35 27.5 75.5t83.5 70.5v86q-29 -52 -78.5 -78.5t-104.5 -26.5q-87 0 -141.5 58t-54.5 150v276h59v-270q0 -69 43 -114.5
t108 -45.5q70 0 119 53t49 132z" />
    <glyph glyph-name="Wcircumflex" unicode="&#x174;" horiz-adv-x="946" 
d="M558 730l-85 92l-87 -92h-66l127 137h50l127 -137h-66zM685 82l172 587h63l-205 -669h-62l-180 579l-181 -579h-62l-205 669h63l174 -587l184 587h52z" />
    <glyph glyph-name="wcircumflex" unicode="&#x175;" horiz-adv-x="782" 
d="M473 535l-81 92l-84 -92h-59l118 132h48l118 -132h-60zM555 71l144 403h65l-181 -474h-57l-134 407l-136 -407h-57l-181 474h65l145 -405l136 405h56z" />
    <glyph glyph-name="Ycircumflex" unicode="&#x176;" horiz-adv-x="629" 
d="M401 730l-85 92l-87 -92h-66l128 137h50l127 -137h-67zM314 297l223 372h69l-262 -432v-237h-60v237l-259 432h69z" />
    <glyph glyph-name="ycircumflex" unicode="&#x177;" horiz-adv-x="541" 
d="M352 535l-82 92l-84 -92h-58l117 132h49l118 -132h-60zM279 32l180 442h63l-216 -520q-11 -27 -17 -39.5t-24.5 -41.5t-36.5 -44.5t-48.5 -29t-66.5 -13.5q-47 0 -92 17v55q43 -18 86 -18q84 0 130 101l12 26l-232 507h64z" />
    <glyph glyph-name="Ydieresis" unicode="&#x178;" horiz-adv-x="629" 
d="M272 770q-15 -15 -37 -15t-36.5 15t-14.5 37q0 21 15 35.5t36 14.5q22 0 37 -15t15 -35q0 -22 -15 -37zM434 770q-15 -15 -37 -15t-37 15t-15 37q0 20 15 35t37 15q21 0 36 -14.5t15 -35.5q0 -22 -14 -37zM314 297l223 372h69l-262 -432v-237h-60v237l-259 432h69z" />
    <glyph glyph-name="Zacute" unicode="&#x179;" horiz-adv-x="569" 
d="M309 864h78l-67 -138h-61zM533 619l-431 -566h442v-53h-516v49l433 567h-421v53h493v-50z" />
    <glyph glyph-name="zacute" unicode="&#x17a;" horiz-adv-x="466" 
d="M264 536h-58l48 135h76zM438 0h-411v41l322 381h-303v52h380v-41l-320 -382h332v-51z" />
    <glyph glyph-name="Zdotaccent" unicode="&#x17b;" horiz-adv-x="569" 
d="M320 773q-14 -14 -34 -14t-33.5 13.5t-13.5 33.5t13.5 33.5t33.5 13.5t33.5 -13.5t13.5 -33.5t-13 -33zM533 619l-431 -566h442v-53h-516v49l433 567h-421v53h493v-50z" />
    <glyph glyph-name="zdotaccent" unicode="&#x17c;" horiz-adv-x="466" 
d="M271 570q-14 -14 -34 -14t-33.5 14t-13.5 34q0 19 13.5 32t33.5 13t33.5 -13t13.5 -32q0 -20 -13 -34zM438 0h-411v41l322 381h-303v52h380v-41l-320 -382h332v-51z" />
    <glyph glyph-name="Zcaron" unicode="&#x17d;" horiz-adv-x="569" 
d="M439 866l-127 -137h-50l-127 137h66l87 -92l85 92h66zM533 619l-431 -566h442v-53h-516v49l433 567h-421v53h493v-50z" />
    <glyph glyph-name="zcaron" unicode="&#x17e;" horiz-adv-x="466" 
d="M213 534l-119 133h59l84 -92l82 92h60l-118 -133h-48zM438 0h-411v41l322 381h-303v52h380v-41l-320 -382h332v-51z" />
    <glyph glyph-name="Aringacute" unicode="&#x1fa;" horiz-adv-x="661" 
d="M331 707q-43 0 -72.5 28t-29.5 69t29.5 69t72.5 28q34 0 60 -18t36 -46l114 61l26 -52l-134 -51q-4 -37 -32.5 -62.5t-69.5 -25.5zM331 866q-26 0 -44 -18t-18 -45q0 -25 18 -42.5t44 -17.5q27 0 45 17t18 43q0 27 -18 45t-45 18zM642 0h-65l-76 186h-342l-76 -186h-65
l283 669h62zM482 239l-149 371l-154 -371h303z" />
    <glyph glyph-name="aringacute" unicode="&#x1fb;" horiz-adv-x="611" 
d="M295 529q-42 0 -70.5 27t-28.5 66q0 40 28.5 67.5t70.5 27.5q32 0 57 -17t36 -44l101 56l25 -49l-120 -48q-3 -37 -31 -61.5t-68 -24.5zM340 667q-19 18 -45 18t-44.5 -18.5t-18.5 -44.5q0 -25 18.5 -43t44.5 -18t44.5 18t18.5 43q0 26 -18 45zM473 373v101h57v-474h-57
v102q-31 -52 -81.5 -82.5t-114.5 -30.5q-100 0 -167 70.5t-67 176.5t67 177t168 71q63 0 114 -30t81 -81zM156 98q52 -55 131 -55t132 56.5t53 139.5q0 81 -53 136t-131 55q-79 0 -132 -55.5t-53 -138.5t53 -138z" />
    <glyph glyph-name="AEacute" unicode="&#x1fc;" horiz-adv-x="949" 
d="M637 863h78l-67 -138h-61zM500 313v-260h404v-53h-461v189h-272l-117 -189h-64l417 669h486v-53h-393v-253h373v-50h-373zM443 629l-241 -389h241v389z" />
    <glyph glyph-name="aeacute" unicode="&#x1fd;" horiz-adv-x="900" 
d="M460 672h77l-66 -134h-59zM857 260q0 -21 -2 -39h-394q2 -78 52 -130t121 -52q50 0 91.5 26t64.5 69l47 -21q-28 -57 -82 -90t-121 -33q-66 0 -120.5 34.5t-82.5 95.5q-24 -58 -81 -94.5t-134 -36.5q-81 0 -130 39t-49 105q0 62 46.5 98t130.5 36h184v12q0 78 -38 116.5
t-121 38.5q-86 0 -164 -32v50q77 32 170 32q153 0 192 -118q31 55 83.5 86.5t115.5 31.5q94 0 157.5 -64.5t63.5 -159.5zM635 435q-68 0 -116.5 -48t-56.5 -120h340q-4 73 -51 120.5t-116 47.5zM221 37q79 0 128 49.5t49 126.5v7h-178q-126 0 -126 -85q0 -45 35 -71.5
t92 -26.5z" />
    <glyph glyph-name="Oslashacute" unicode="&#x1fe;" horiz-adv-x="764" 
d="M396 863h78l-67 -138h-61zM672 707l-74 -103q57 -48 88.5 -118t31.5 -152q0 -148 -96 -246.5t-240 -98.5q-103 0 -184 53l-72 -101l-32 24l72 100q-56 47 -88 117t-32 152q0 148 96 247t240 99q103 0 184 -53l74 103zM103 334q0 -140 96 -225l337 473q-70 46 -154 46
q-119 0 -199 -84.5t-80 -209.5zM382 41q120 0 200 83.5t80 209.5q0 139 -97 226l-336 -474q67 -45 153 -45z" />
    <glyph glyph-name="oslashacute" unicode="&#x1ff;" horiz-adv-x="584" 
d="M291 672h77l-66 -134h-59zM496 515l-53 -79q46 -34 72 -86t26 -114q0 -106 -71 -176.5t-178 -70.5q-65 0 -119 28l-53 -79l-30 19l53 78q-101 72 -101 201q0 106 71.5 177t178.5 71q68 0 121 -29l53 78zM98 236q0 -100 75 -157l211 331q-42 22 -92 22q-83 0 -138.5 -56
t-55.5 -140zM292 40q83 0 138 56t55 140q0 99 -72 155l-211 -330q40 -21 90 -21z" />
    <glyph glyph-name="uni0218" unicode="&#x218;" horiz-adv-x="623" 
d="M318 -10q-166 0 -284 88l26 50q106 -85 263 -85q89 0 144.5 37t55.5 103q0 28 -13 49t-31 33.5t-50.5 22.5t-56.5 14t-64 10q-38 5 -65 10.5t-64.5 19t-61 31.5t-41 49.5t-17.5 71.5q0 89 68.5 137.5t187.5 48.5q127 0 243 -57l-24 -48q-109 53 -218 53q-96 0 -146 -35
t-50 -96q0 -34 17 -58t49.5 -38t63 -21.5t74.5 -13.5q34 -5 52 -8t50 -10.5t50.5 -15t42 -21.5t36 -30.5t21.5 -41t9 -54.5q0 -98 -74.5 -146.5t-192.5 -48.5zM304 -213h-56l36 160h65z" />
    <glyph glyph-name="uni0219" unicode="&#x219;" horiz-adv-x="496" 
d="M252 -10q-124 0 -218 63l24 47q89 -59 199 -59q63 0 104 22.5t41 64.5q0 22 -11 37.5t-33.5 24.5t-45 13.5t-57.5 10.5q-9 1 -14 2q-33 5 -51.5 9t-48 14t-45.5 22.5t-29 35t-13 51.5q0 64 53 100.5t145 36.5q98 0 185 -40l-17 -48q-85 38 -170 38q-66 0 -102.5 -22.5
t-36.5 -62.5q0 -18 9 -32t19.5 -21.5t34 -14.5t37 -9t43.5 -7q39 -6 63.5 -11t54.5 -15t47 -23.5t28.5 -35t11.5 -50.5q0 -69 -58 -105t-149 -36zM234 -220h-52l45 159h62z" />
    <glyph glyph-name="uni021A" unicode="&#x21a;" horiz-adv-x="560" 
d="M250 0v616h-228v53h516v-53h-228v-616h-60zM264 -219h-55l36 160h64z" />
    <glyph glyph-name="uni021B" unicode="&#x21b;" horiz-adv-x="367" 
d="M267 43q45 0 94 19v-51q-52 -22 -105 -22q-71 0 -108 40t-37 110v284h-89v51h89v184h58v-184h173v-51h-173v-276q0 -52 22 -78t76 -26zM197 -217h-52l45 158h62z" />
    <glyph glyph-name="uni0237" unicode="&#x237;" horiz-adv-x="235" 
d="M-2 -214q-43 0 -79 12v53q38 -10 69 -10q56 0 81.5 28.5t25.5 89.5v515h59v-536q0 -71 -42 -111.5t-114 -40.5z" />
    <glyph glyph-name="circumflex" unicode="&#x2c6;" horiz-adv-x="383" 
d="M108 537h-59l118 132h48l119 -132h-60l-82 92z" />
    <glyph glyph-name="caron" unicode="&#x2c7;" horiz-adv-x="383" 
d="M167 536l-118 132h59l84 -92l82 92h60l-119 -132h-48z" />
    <glyph glyph-name="breve" unicode="&#x2d8;" horiz-adv-x="398" 
d="M301 573q-39 -37 -102 -37t-102 36.5t-40 96.5h50q1 -43 26 -69t66 -26t66 26t26 69h50q-1 -60 -40 -96z" />
    <glyph glyph-name="dotaccent" unicode="&#x2d9;" horiz-adv-x="221" 
d="M110 557q-20 0 -33.5 13.5t-13.5 33.5t13.5 33t33.5 13q21 0 34.5 -13t13.5 -33t-13.5 -33.5t-34.5 -13.5z" />
    <glyph glyph-name="ring" unicode="&#x2da;" horiz-adv-x="313" 
d="M228 557q-29 -27 -71 -27t-70.5 27t-28.5 66q0 40 28.5 67.5t70.5 27.5t70.5 -27.5t28.5 -67.5q0 -39 -28 -66zM113 580q18 -18 44 -18t44.5 18t18.5 43q0 26 -18.5 44.5t-44.5 18.5t-44.5 -18.5t-18.5 -44.5q0 -25 19 -43z" />
    <glyph glyph-name="ogonek" unicode="&#x2db;" horiz-adv-x="278" 
d="M146 -220q-42 0 -66 23.5t-24 60.5q0 39 32 82.5t97 72.5l39 -18q-56 -21 -87 -57t-31 -70q0 -21 12 -34.5t34 -13.5q26 0 64 20l5 -44q-39 -22 -75 -22z" />
    <glyph glyph-name="tilde" unicode="&#x2dc;" horiz-adv-x="462" 
d="M306 563q-36 0 -77.5 30.5t-69.5 30.5q-23 0 -38 -15.5t-15 -44.5h-47q1 52 28 78t68 26q39 0 79 -31t65 -31q26 0 41.5 16t16.5 44h47q-4 -52 -30 -77.5t-68 -25.5z" />
    <glyph glyph-name="hungarumlaut" unicode="&#x2dd;" horiz-adv-x="366" 
d="M107 538h-52l37 134h74zM243 538h-53l52 134h73z" />
    <glyph glyph-name="gravecomb" unicode="&#x300;" horiz-adv-x="0" 
d="M-48 672l48 -134h-58l-66 134h76z" />
    <glyph glyph-name="acutecomb" unicode="&#x301;" horiz-adv-x="0" 
d="M-66 538h-59l48 134h77z" />
    <glyph glyph-name="uni0302" unicode="&#x302;" horiz-adv-x="0" 
d="M-226 537h-59l118 132h48l119 -132h-60l-82 92z" />
    <glyph glyph-name="tildecomb" unicode="&#x303;" horiz-adv-x="0" 
d="M-98 563q-36 0 -77.5 30.5t-69.5 30.5q-23 0 -38 -15.5t-15 -44.5h-47q1 52 28 78t68 26q39 0 79 -31t65 -31q26 0 41.5 16t16.5 44h47q-4 -52 -30 -77.5t-68 -25.5z" />
    <glyph glyph-name="uni0304" unicode="&#x304;" horiz-adv-x="0" 
d="M0 575h-267v46h267v-46z" />
    <glyph glyph-name="uni0306" unicode="&#x306;" horiz-adv-x="0" 
d="M-142 536q-63 0 -102 36.5t-40 96.5h50q1 -43 26 -69t66 -26t66 26t26 69h50q0 -61 -39 -97t-103 -36z" />
    <glyph glyph-name="uni0307" unicode="&#x307;" horiz-adv-x="0" 
d="M-14 571q-13 -14 -33 -14t-34 13.5t-14 33.5q0 19 14 32.5t34 13.5t33.5 -13t13.5 -33t-14 -33z" />
    <glyph glyph-name="uni0308" unicode="&#x308;" horiz-adv-x="0" 
d="M-201 545q-20 0 -34.5 14t-14.5 35q0 19 14.5 33t34.5 14q21 0 35 -13.5t14 -33.5q0 -21 -14 -35t-35 -14zM-15 559q-14 -14 -34 -14t-34 14t-14 35q0 20 14 33.5t34 13.5t34.5 -14t14.5 -33q0 -21 -15 -35z" />
    <glyph glyph-name="uni030A" unicode="&#x30a;" horiz-adv-x="0" 
d="M-29 557q-28 -27 -70 -27t-70.5 27t-28.5 66q0 40 28.5 67.5t70.5 27.5t70.5 -27.5t28.5 -67.5q0 -39 -29 -66zM-144 580q19 -18 45 -18t44.5 18t18.5 43q0 26 -18.5 44.5t-44.5 18.5t-44.5 -18.5t-18.5 -44.5q0 -25 18 -43z" />
    <glyph glyph-name="uni030B" unicode="&#x30b;" horiz-adv-x="0" 
d="M-208 538h-53l38 134h73zM-72 538h-54l53 134h73z" />
    <glyph glyph-name="uni030C" unicode="&#x30c;" horiz-adv-x="0" 
d="M-167 536l-118 132h59l84 -92l82 92h60l-119 -132h-48z" />
    <glyph glyph-name="uni0326" unicode="&#x326;" horiz-adv-x="0" 
d="M-55 -221h-52l45 158h62z" />
    <glyph glyph-name="uni0394" unicode="&#x394;" horiz-adv-x="683" 
d="M657 0h-633v52l292 617h52l289 -617v-52zM342 611l-258 -559h514z" />
    <glyph glyph-name="uni03A9" unicode="&#x3a9;" horiz-adv-x="758" 
d="M704 359q0 -95 -52.5 -179.5t-151.5 -127.5h198v-52h-286v48q117 48 175 125.5t58 175.5q0 113 -76.5 194.5t-189.5 81.5t-190 -81.5t-77 -195.5q0 -96 57.5 -173.5t176.5 -126.5v-48h-287v52h199q-99 42 -152 127t-53 180q0 133 93.5 228t232.5 95q138 0 231.5 -95
t93.5 -228z" />
    <glyph glyph-name="uni03BC" unicode="&#x3bc;" horiz-adv-x="626" 
d="M554 47q24 0 54 10v-53q-31 -14 -69 -14q-36 0 -58.5 21.5t-22.5 58.5v22q-23 -46 -67 -74t-101 -28q-104 0 -149 87v-278h-60v675h60v-254q0 -84 42 -129t107 -45t113.5 48.5t48.5 134.5v245h61v-381q0 -46 41 -46z" />
    <glyph glyph-name="pi" unicode="&#x3c0;" horiz-adv-x="617" 
d="M532 48q23 0 52 10v-53q-29 -15 -68 -15q-38 0 -62.5 22.5t-24.5 68.5v336h-264v-618h-60v618h-85v57h555v-57h-85v-323q0 -46 42 -46z" />
    <glyph glyph-name="uni0401" unicode="&#x401;" horiz-adv-x="611" 
d="M287 770q-15 -15 -37 -15t-37 15t-15 37q0 20 15 35t37 15t36.5 -14.5t14.5 -35.5q0 -22 -14 -37zM448 770q-15 -15 -37 -15t-36.5 15t-14.5 37q0 21 15 35.5t36 14.5q22 0 37 -15t15 -35q0 -22 -15 -37zM153 312v-259h411v-53h-471v669h460v-53h-400v-251h386v-53h-386z
" />
    <glyph glyph-name="uni0402" unicode="&#x402;" horiz-adv-x="765" 
d="M463 406q126 0 195 -73.5t69 -194.5q0 -125 -71.5 -203t-185.5 -78q-59 0 -108 17v54q48 -17 104 -17q86 0 143.5 63.5t57.5 162.5q0 96 -53.5 155t-153.5 59q-73 0 -150 -29v-322h-60v616h-228v53h516v-53h-228v-237q78 27 153 27z" />
    <glyph glyph-name="uni0403" unicode="&#x403;" horiz-adv-x="549" 
d="M349 725h-62l50 138h79zM154 0h-61v669h434v-53h-373v-616z" />
    <glyph glyph-name="uni0404" unicode="&#x404;" horiz-adv-x="657" 
d="M611 108l19 -52q-106 -67 -242 -67q-152 0 -246.5 97t-94.5 251q0 150 93 246.5t239 96.5q136 0 246 -77l-26 -46q-42 31 -101.5 50t-118.5 19q-114 0 -189 -74t-83 -190h399v-53h-399q8 -118 85 -192.5t196 -74.5q122 0 223 66z" />
    <glyph glyph-name="uni0405" unicode="&#x405;" horiz-adv-x="623" 
d="M318 -10q-166 0 -284 88l26 50q106 -85 263 -85q89 0 144.5 37t55.5 103q0 28 -13 49t-31 33.5t-50.5 22.5t-56.5 14t-64 10q-38 5 -65 10.5t-64.5 19t-61 31.5t-41 49.5t-17.5 71.5q0 89 68.5 137.5t187.5 48.5q127 0 243 -57l-24 -48q-109 53 -218 53q-96 0 -146 -35
t-50 -96q0 -34 17 -58t49.5 -38t63 -21.5t74.5 -13.5q34 -5 52 -8t50 -10.5t50.5 -15t42 -21.5t36 -30.5t21.5 -41t9 -54.5q0 -98 -74.5 -146.5t-192.5 -48.5z" />
    <glyph glyph-name="uni0406" unicode="&#x406;" horiz-adv-x="247" 
d="M93 0v669h61v-669h-61z" />
    <glyph glyph-name="uni0407" unicode="&#x407;" horiz-adv-x="249" 
d="M81 770q-15 -15 -37 -15t-36.5 15t-14.5 37q0 21 14.5 35.5t36.5 14.5t37 -15t15 -35q0 -22 -15 -37zM205 755q-21 0 -36 15t-15 37q0 20 15 35t36 15q22 0 37 -14.5t15 -35.5q0 -22 -15 -37t-37 -15zM94 0v669h61v-669h-61z" />
    <glyph glyph-name="uni0408" unicode="&#x408;" horiz-adv-x="481" 
d="M151 -11q-65 0 -127 20l-1 54q67 -19 121 -19q94 0 142.5 49.5t48.5 128.5v447h60v-457q0 -102 -64 -162.5t-180 -60.5z" />
    <glyph glyph-name="uni0409" unicode="&#x409;" horiz-adv-x="1110" 
d="M622 410h255q88 0 144.5 -58t56.5 -147q0 -90 -57.5 -147.5t-147.5 -57.5h-311v616h-318v-114q0 -100 -1.5 -157t-11.5 -138t-30 -128q-20 -46 -50.5 -67.5t-80.5 -21.5q-28 0 -58 6v56q23 -6 50 -6q64 0 89 72q15 43 23 120t9 133t1 157v141h438v-259zM622 51h242
q68 0 111 43.5t43 110.5t-42.5 110.5t-109.5 43.5h-244v-308z" />
    <glyph glyph-name="uni040A" unicode="&#x40a;" horiz-adv-x="1127" 
d="M639 410h255q89 0 145 -57.5t56 -147.5t-57.5 -147.5t-147.5 -57.5h-311v302h-425v-302h-61v669h61v-311h425v311h60v-259zM639 51h242q69 0 112 43.5t43 110.5t-42.5 110.5t-110.5 43.5h-244v-308z" />
    <glyph glyph-name="uni040B" unicode="&#x40b;" horiz-adv-x="766" 
d="M501 406q107 0 161.5 -53.5t54.5 -150.5v-202h-64v190q0 73 -39.5 115.5t-122.5 42.5q-87 0 -181 -38v-310h-60v616h-228v53h516v-53h-228v-247q99 37 191 37z" />
    <glyph glyph-name="uni040C" unicode="&#x40c;" horiz-adv-x="615" 
d="M367 863h78l-67 -138h-61zM214 334l396 -334h-83l-373 314v-314h-61v669h61v-320l362 320h79z" />
    <glyph glyph-name="uni040E" unicode="&#x40e;" horiz-adv-x="609" 
d="M412 765q-38 -36 -103 -36t-102.5 36t-38.5 99h51q1 -97 90 -97t92 97h51q-2 -63 -40 -99zM326 169l210 500h63l-224 -519q-10 -22 -17 -36t-25.5 -40t-39 -42t-54 -29t-72.5 -13q-46 0 -104 18v53q49 -20 102 -20q80 0 128 73l-277 555h64z" />
    <glyph glyph-name="uni040F" unicode="&#x40f;" horiz-adv-x="697" 
d="M544 669h60v-669h-226v-140h-59v140h-226v669h61v-616h390v616z" />
    <glyph glyph-name="uni0410" unicode="&#x410;" horiz-adv-x="661" 
d="M642 0h-65l-76 186h-342l-76 -186h-65l283 669h62zM482 239l-149 371l-154 -371h303z" />
    <glyph glyph-name="uni0411" unicode="&#x411;" horiz-adv-x="664" 
d="M153 397h279q86 0 141.5 -56.5t55.5 -142.5q0 -85 -58 -141.5t-145 -56.5h-333v669h474v-53h-414v-219zM153 52h263q67 0 110 41.5t43 105.5q0 63 -41 104.5t-104 41.5h-271v-293z" />
    <glyph glyph-name="uni0412" unicode="&#x412;" horiz-adv-x="683" 
d="M509 355q57 -13 91.5 -59.5t34.5 -108.5q0 -81 -58 -134t-153 -53h-331v669h330q81 0 130.5 -49.5t49.5 -122.5q0 -47 -25 -85.5t-69 -56.5zM416 618h-263v-247h259q56 0 94 34.5t38 86.5q0 54 -36 90t-92 36zM153 51h266q69 0 112 39.5t43 99.5q0 56 -38 93.5t-93 37.5
h-290v-270z" />
    <glyph glyph-name="uni0413" unicode="&#x413;" horiz-adv-x="549" 
d="M154 0h-61v669h434v-53h-373v-616z" />
    <glyph glyph-name="uni0414" unicode="&#x414;" horiz-adv-x="735" 
d="M607 669v-616h102v-186h-59v133h-580v-133h-58v186h86q62 72 62 304v312h447zM218 616v-271q0 -202 -52 -292h383v563h-331z" />
    <glyph glyph-name="uni0415" unicode="&#x415;" horiz-adv-x="611" 
d="M153 312v-259h411v-53h-471v669h460v-53h-400v-251h386v-53h-386z" />
    <glyph glyph-name="uni0416" unicode="&#x416;" horiz-adv-x="885" 
d="M525 333l355 -333h-77l-333 314v-314h-55v314l-333 -314h-77l355 332l-340 337h72l323 -321v321h55v-321l323 321h72z" />
    <glyph glyph-name="uni0417" unicode="&#x417;" horiz-adv-x="616" 
d="M444 355q57 -18 90.5 -62t33.5 -101q0 -91 -76.5 -147t-201.5 -56q-149 0 -263 69l24 50q108 -66 241 -66q96 0 155.5 42t59.5 108q0 59 -44 94.5t-103 35.5h-189v51h181q57 0 95.5 33.5t38.5 85.5q0 62 -53 99.5t-138 37.5q-114 0 -224 -64l-23 48q108 69 251 69
q111 0 179 -49.5t68 -129.5q0 -50 -26.5 -90t-75.5 -58z" />
    <glyph glyph-name="uni0418" unicode="&#x418;" horiz-adv-x="739" 
d="M152 94l437 575h56v-669h-58v576l-439 -576h-55v669h59v-575z" />
    <glyph glyph-name="uni0419" unicode="&#x419;" horiz-adv-x="739" 
d="M476 762q-41 -38 -106 -38t-105.5 37.5t-40.5 99.5h52q2 -41 28 -67.5t66 -26.5q41 0 67 26.5t27 67.5h53q-1 -62 -41 -99zM152 94l437 575h56v-669h-58v576l-439 -576h-55v669h59v-575z" />
    <glyph glyph-name="uni041A" unicode="&#x41a;" horiz-adv-x="615" 
d="M214 334l396 -334h-83l-373 314v-314h-61v669h61v-320l362 320h79z" />
    <glyph glyph-name="uni041B" unicode="&#x41b;" horiz-adv-x="715" 
d="M70 -10q-28 0 -58 6v56q23 -6 50 -6q64 0 89 72q15 43 23 120t9 133t1 157v141h438v-669h-60v616h-318v-114q0 -100 -1.5 -157t-11.5 -138t-30 -128q-20 -46 -50.5 -67.5t-80.5 -21.5z" />
    <glyph glyph-name="uni041C" unicode="&#x41c;" horiz-adv-x="883" 
d="M441 213l291 456h57v-669h-59v565l-268 -420h-42l-268 420v-565h-59v669h57z" />
    <glyph glyph-name="uni041D" unicode="&#x41d;" horiz-adv-x="733" 
d="M579 358v311h60v-669h-60v302h-425v-302h-61v669h61v-311h425z" />
    <glyph glyph-name="uni041E" unicode="&#x41e;" horiz-adv-x="766" 
d="M624 87q-96 -98 -241 -98t-241 98.5t-96 246.5t96 247t241 99q144 0 240 -99t96 -247q0 -149 -95 -247zM187 128q80 -84 196 -84t196.5 84t80.5 206t-80.5 206.5t-196.5 84.5t-196.5 -84.5t-80.5 -206.5t81 -206z" />
    <glyph glyph-name="uni041F" unicode="&#x41f;" horiz-adv-x="700" 
d="M154 0h-61v669h513v-669h-60v616h-392v-616z" />
    <glyph glyph-name="uni0420" unicode="&#x420;" horiz-adv-x="647" 
d="M383 669q103 0 167 -62t64 -160q0 -99 -65 -161.5t-172 -62.5h-224v-223h-60v669h290zM153 276h219q82 0 131.5 48t49.5 122t-48.5 122t-127.5 48h-224v-340z" />
    <glyph glyph-name="uni0421" unicode="&#x421;" horiz-adv-x="724" 
d="M383 -11q-144 0 -240.5 98.5t-96.5 246.5t96 247t241 99q107 0 190 -56.5t120 -152.5l-54 -25q-31 81 -100.5 130t-156.5 49q-116 0 -196 -84.5t-80 -206.5t80.5 -206t196.5 -84q85 0 153.5 47.5t100.5 125.5l55 -24q-37 -93 -120 -148.5t-189 -55.5z" />
    <glyph glyph-name="uni0422" unicode="&#x422;" horiz-adv-x="560" 
d="M250 0v616h-228v53h516v-53h-228v-616h-60z" />
    <glyph glyph-name="uni0423" unicode="&#x423;" horiz-adv-x="609" 
d="M326 169l210 500h63l-224 -519q-10 -22 -17 -36t-25.5 -40t-39 -42t-54 -29t-72.5 -13q-46 0 -104 18v53q49 -20 102 -20q80 0 128 73l-277 555h64z" />
    <glyph glyph-name="uni0424" unicode="&#x424;" horiz-adv-x="921" 
d="M643 603q103 0 166 -74t63 -194q0 -119 -62.5 -194t-166.5 -75q-76 0 -154 40v-143h-57v143q-78 -40 -154 -40q-104 0 -166.5 75t-62.5 194t63 193.5t166 74.5q80 0 154 -45v148h57v-148q72 45 154 45zM108 335q0 -96 51 -158t132 -62q75 0 142 42v350q-75 47 -140 47
q-87 0 -136 -63t-49 -156zM631 115q80 0 131.5 62t51.5 158q0 93 -49.5 156t-135.5 63q-66 0 -141 -46v-351q68 -42 143 -42z" />
    <glyph glyph-name="uni0425" unicode="&#x425;" horiz-adv-x="601" 
d="M337 339l253 -339h-72l-218 294l-221 -294h-70l254 341l-242 328h71l209 -285l211 285h71z" />
    <glyph glyph-name="uni0426" unicode="&#x426;" horiz-adv-x="717" 
d="M589 669v-616h104v-193h-59v140h-541v669h61v-616h375v616h60z" />
    <glyph glyph-name="uni0427" unicode="&#x427;" horiz-adv-x="662" 
d="M509 350v319h60v-669h-60v294q-116 -41 -221 -41q-117 0 -179 58.5t-62 154.5v203h61v-194q0 -73 47 -120t144 -47q108 0 210 42z" />
    <glyph glyph-name="uni0428" unicode="&#x428;" horiz-adv-x="1061" 
d="M908 53v616h60v-669h-875v669h61v-616h347v616h60v-616h347z" />
    <glyph glyph-name="uni0429" unicode="&#x429;" horiz-adv-x="1096" 
d="M968 669v-616h104v-193h-59v140h-920v669h61v-616h347v616h60v-616h347v616h60z" />
    <glyph glyph-name="uni042A" unicode="&#x42a;" horiz-adv-x="776" 
d="M288 410h256q88 0 144.5 -58t56.5 -147q0 -90 -57.5 -147.5t-147.5 -57.5h-312v616h-207v53h267v-259zM288 51h243q68 0 111 43.5t43 110.5t-42.5 110.5t-109.5 43.5h-245v-308z" />
    <glyph glyph-name="uni042B" unicode="&#x42b;" horiz-adv-x="888" 
d="M153 410h256q89 0 145 -57.5t56 -147.5t-57 -147.5t-148 -57.5h-312v669h60v-259zM734 0v669h60v-669h-60zM153 51h243q68 0 111 43.5t43 110.5t-42.5 110.5t-109.5 43.5h-245v-308z" />
    <glyph glyph-name="uni042C" unicode="&#x42c;" horiz-adv-x="642" 
d="M153 410h256q89 0 145 -57.5t56 -147.5t-57 -147.5t-148 -57.5h-312v669h60v-259zM153 51h243q68 0 111 43.5t43 110.5t-42.5 110.5t-109.5 43.5h-245v-308z" />
    <glyph glyph-name="uni042D" unicode="&#x42d;" horiz-adv-x="657" 
d="M279 680q146 0 238.5 -96.5t92.5 -246.5q0 -154 -94.5 -251t-246.5 -97q-134 0 -242 67l20 52q99 -66 222 -66q119 0 196.5 74.5t85.5 192.5h-400v53h400q-8 116 -83 190t-189 74q-124 0 -221 -69l-25 46q108 77 246 77z" />
    <glyph glyph-name="uni042E" unicode="&#x42e;" horiz-adv-x="991" 
d="M608 680q144 0 240 -99t96 -247t-96 -246.5t-240 -98.5q-137 0 -231 89t-104 227h-119v-305h-61v669h61v-308h119q9 138 103.5 228.5t231.5 90.5zM412 128q80 -84 196 -84t196.5 84t80.5 206t-80.5 206.5t-196.5 84.5t-196.5 -84.5t-80.5 -206.5t81 -206z" />
    <glyph glyph-name="uni042F" unicode="&#x42f;" horiz-adv-x="657" 
d="M563 669v-669h-59v243h-160l-228 -243h-73l230 243q-100 2 -163 59.5t-63 152.5q0 93 65.5 153.5t168.5 60.5h282zM292 291h212v325h-217q-80 0 -130 -46t-50 -117q0 -75 51 -118.5t134 -43.5z" />
    <glyph glyph-name="uni0430" unicode="&#x430;" horiz-adv-x="611" 
d="M473 373v101h57v-474h-57v102q-31 -52 -81.5 -82.5t-114.5 -30.5q-100 0 -167 70.5t-67 176.5t67 177t168 71q63 0 114 -30t81 -81zM156 98q52 -55 131 -55t132 56.5t53 139.5q0 81 -53 136t-131 55q-79 0 -132 -55.5t-53 -138.5t53 -138z" />
    <glyph glyph-name="uni0431" unicode="&#x431;" horiz-adv-x="598" 
d="M320 472q102 0 168.5 -67.5t66.5 -169.5q0 -106 -69.5 -176t-174.5 -70q-106 0 -175.5 71.5t-69.5 181.5v203q0 181 196 212q1 0 42 6t65 10.5t63.5 14.5t68.5 22l8 -55q-18 -8 -38 -14.5t-34.5 -10.5t-37.5 -8.5t-33 -6t-35 -5t-30 -4.5q-97 -14 -136.5 -54t-39.5 -108
v-80q28 49 80 78.5t115 29.5zM309 42q80 0 133 55.5t53 137.5q0 79 -52.5 132t-130.5 53q-79 0 -131.5 -53t-52.5 -132q0 -83 51.5 -138t129.5 -55z" />
    <glyph glyph-name="uni0432" unicode="&#x432;" horiz-adv-x="575" 
d="M441 248q38 -12 60 -43t22 -71q0 -59 -41 -96.5t-111 -37.5h-290v474h293q55 0 92 -36t37 -89q0 -66 -62 -101zM363 424h-221v-157h217q37 0 60.5 23t23.5 57q0 33 -22 55t-58 22zM142 49h219q50 0 75.5 24.5t25.5 63.5q0 36 -24 60t-64 24h-232v-172z" />
    <glyph glyph-name="uni0433" unicode="&#x433;" horiz-adv-x="441" 
d="M141 0h-60v474h344v-55h-284v-419z" />
    <glyph glyph-name="uni0434" unicode="&#x434;" horiz-adv-x="619" 
d="M511 474v-421h89v-180h-58v127h-473v-127h-58v180h73q35 47 47.5 111t12.5 224v86h367zM204 420v-77q0 -126 -12.5 -188.5t-39.5 -101.5h298v367h-246z" />
    <glyph glyph-name="uni0435" unicode="&#x435;" horiz-adv-x="572" 
d="M529 246q0 -18 -2 -34h-425q7 -75 59.5 -124t129.5 -49q55 0 99.5 26t68.5 70l48 -23q-27 -56 -86 -89.5t-132 -33.5q-106 0 -176 70t-70 177t70.5 177t177.5 70q104 0 171 -67t67 -170zM290 435q-75 0 -128.5 -50t-59.5 -125h369q-5 75 -56 125t-125 50z" />
    <glyph glyph-name="uni0436" unicode="&#x436;" horiz-adv-x="752" 
d="M464 234l277 -234h-80l-257 217v-217h-56v216l-256 -216h-82l279 232l-269 242h75l253 -230v230h56v-231l253 231h75z" />
    <glyph glyph-name="uni0437" unicode="&#x437;" horiz-adv-x="491" 
d="M348 252q49 -12 75.5 -43.5t26.5 -74.5q0 -63 -57.5 -104t-170.5 -41q-105 0 -189 33v51q83 -34 189 -34q78 0 121.5 25.5t43.5 72.5q0 83 -129 83h-139v47h122q58 0 90.5 21t32.5 60q0 40 -36 63t-107 23q-97 0 -181 -34l1 48q77 36 190 36q97 0 145.5 -36t48.5 -92
q0 -74 -77 -104z" />
    <glyph glyph-name="uni0438" unicode="&#x438;" horiz-adv-x="610" 
d="M136 0h-55v474h57v-392l336 392h55v-474h-57v390z" />
    <glyph glyph-name="uni0439" unicode="&#x439;" horiz-adv-x="610" 
d="M409 569q-38 -37 -103 -37t-102.5 36.5t-38.5 98.5h51q1 -49 25 -73t65 -24q42 0 66 24t25 73h52q-2 -62 -40 -98zM136 0h-55v474h57v-392l336 392h55v-474h-57v390z" />
    <glyph glyph-name="uni043A" unicode="&#x43a;" horiz-adv-x="513" 
d="M207 232l297 -232h-83l-279 214v-214h-61v474h61v-229l276 229h75z" />
    <glyph glyph-name="uni043B" unicode="&#x43b;" horiz-adv-x="585" 
d="M56 -10q-25 0 -43 6v54q21 -6 36 -6q44 0 64 32q26 40 26 209v36v153h365v-474h-61v419h-246v-155q0 -171 -32 -221q-35 -53 -109 -53z" />
    <glyph glyph-name="uni043C" unicode="&#x43c;" horiz-adv-x="746" 
d="M138 0h-57v474h53l239 -337l239 337h52v-474h-56v380l-222 -311h-27l-221 311v-380z" />
    <glyph glyph-name="uni043D" unicode="&#x43d;" horiz-adv-x="598" 
d="M456 265v209h62v-474h-62v212h-315v-212h-60v474h60v-209h315z" />
    <glyph glyph-name="uni043E" unicode="&#x43e;" horiz-adv-x="583" 
d="M469 60q-71 -71 -178 -71t-178 70.5t-71 176.5t71 177t178 71t178 -71t71 -177t-71 -176zM292 43q80 0 134.5 55.5t54.5 137.5q0 83 -54.5 138.5t-134.5 55.5q-81 0 -135.5 -55.5t-54.5 -138.5q0 -82 54.5 -137.5t135.5 -55.5z" />
    <glyph glyph-name="uni043F" unicode="&#x43f;" horiz-adv-x="595" 
d="M141 0h-60v474h433v-474h-61v418h-312v-418z" />
    <glyph glyph-name="uni0440" unicode="&#x440;" horiz-adv-x="609" 
d="M334 483q99 0 165.5 -70.5t66.5 -176.5t-66.5 -176.5t-164.5 -70.5q-63 0 -113 28.5t-81 77.5v-296h-60v675h59v-97q31 50 82 78t112 28zM325 42q77 0 129 55.5t52 138.5q0 82 -52.5 137.5t-129.5 55.5q-79 0 -132.5 -55t-53.5 -137q0 -83 54 -139t133 -56z" />
    <glyph glyph-name="uni0441" unicode="&#x441;" horiz-adv-x="553" 
d="M289 -11q-105 0 -175.5 70t-70.5 177t71 177.5t178 70.5q80 0 141.5 -40.5t86.5 -109.5l-55 -18q-20 51 -67 82.5t-106 31.5q-82 0 -136 -55t-54 -139t54 -138.5t136 -54.5q57 0 105.5 32t69.5 83l53 -23q-27 -65 -89.5 -105.5t-141.5 -40.5z" />
    <glyph glyph-name="uni0442" unicode="&#x442;" horiz-adv-x="465" 
d="M17 474h431v-55h-185v-419h-61v419h-185v55z" />
    <glyph glyph-name="uni0443" unicode="&#x443;" horiz-adv-x="541" 
d="M279 32l180 442h63l-216 -520q-11 -27 -17 -39.5t-24.5 -41.5t-36.5 -44.5t-48.5 -29t-66.5 -13.5q-47 0 -92 17v55q43 -18 86 -18q84 0 130 101l12 26l-232 507h64z" />
    <glyph glyph-name="uni0444" unicode="&#x444;" horiz-adv-x="815" 
d="M560 475q93 0 151.5 -67.5t58.5 -173.5q0 -104 -57 -173.5t-153 -69.5q-58 0 -123 31v-223h-58v224q-64 -32 -126 -32q-95 0 -152 69.5t-57 173.5q0 105 59 173t152 68q61 0 124 -31v258h58v-257q64 30 123 30zM103 233q0 -81 42 -136t117 -55q55 0 118 33v314
q-62 33 -117 33q-72 0 -116 -52.5t-44 -136.5zM554 42q71 0 114 52.5t43 136.5q0 82 -43 136.5t-118 54.5q-53 0 -114 -32v-316q60 -32 118 -32z" />
    <glyph glyph-name="uni0445" unicode="&#x445;" horiz-adv-x="502" 
d="M288 238l199 -238h-70l-166 200l-168 -200h-69l200 240l-193 234h69l162 -198l163 198h68z" />
    <glyph glyph-name="uni0446" unicode="&#x446;" horiz-adv-x="612" 
d="M502 474v-421h92v-180h-57v127h-456v474h61v-421h299v421h61z" />
    <glyph glyph-name="uni0447" unicode="&#x447;" horiz-adv-x="554" 
d="M413 238v236h61v-474h-61v186q-100 -31 -178 -31q-194 0 -194 182v137h60v-130q0 -65 32 -100t113 -35q85 0 167 29z" />
    <glyph glyph-name="uni0448" unicode="&#x448;" horiz-adv-x="923" 
d="M843 0h-762v474h61v-421h289v421h62v-421h289v421h61v-474z" />
    <glyph glyph-name="uni0449" unicode="&#x449;" horiz-adv-x="952" 
d="M843 474v-421h92v-180h-57v127h-797v474h61v-421h289v421h61v-421h290v421h61z" />
    <glyph glyph-name="uni044A" unicode="&#x44a;" horiz-adv-x="654" 
d="M238 325h219q72 0 119 -45.5t47 -114.5q0 -71 -47 -118t-120 -47h-275v419h-164v55h221v-149zM238 50h211q50 0 83 33t33 82t-33 81t-83 32h-211v-228z" />
    <glyph glyph-name="uni044B" unicode="&#x44b;" horiz-adv-x="736" 
d="M139 325h219q71 0 118.5 -45.5t47.5 -114.5q0 -71 -47.5 -118t-120.5 -47h-275v474h58v-149zM596 0v474h59v-474h-59zM139 50h210q50 0 83.5 33t33.5 82t-33 81t-83 32h-211v-228z" />
    <glyph glyph-name="uni044C" unicode="&#x44c;" horiz-adv-x="555" 
d="M139 325h219q71 0 118.5 -45.5t47.5 -114.5q0 -71 -47.5 -118t-120.5 -47h-275v474h58v-149zM139 50h210q50 0 83.5 33t33.5 82t-33 81t-83 32h-211v-228z" />
    <glyph glyph-name="uni044D" unicode="&#x44d;" horiz-adv-x="514" 
d="M217 484q113 0 183.5 -69.5t70.5 -178.5q0 -110 -71 -179t-186 -69q-104 0 -184 47l17 48q77 -43 164 -43q86 0 140 46.5t62 124.5h-271v51h271q-8 77 -61 123.5t-136 46.5q-91 0 -167 -42l-20 48q82 46 188 46z" />
    <glyph glyph-name="uni044E" unicode="&#x44e;" horiz-adv-x="777" 
d="M485 484q107 0 178 -71t71 -177t-71 -176.5t-178 -70.5q-99 0 -168.5 62.5t-78.5 158.5h-96v-210h-61v474h61v-211h96q10 96 78.5 158.5t168.5 62.5zM351 99q54 -56 135 -56t135 55.5t54 137.5q0 83 -54 138.5t-135 55.5t-135.5 -55.5t-54.5 -138.5q0 -82 55 -137z" />
    <glyph glyph-name="uni044F" unicode="&#x44f;" horiz-adv-x="553" 
d="M472 477v-477h-59v157h-130l-178 -157h-75l179 157q-73 4 -117 47t-44 112q0 71 49.5 116t132.5 45h242zM228 207h185v218h-179q-58 0 -91.5 -30t-33.5 -79q0 -51 32.5 -80t86.5 -29z" />
    <glyph glyph-name="uni0451" unicode="&#x451;" horiz-adv-x="572" 
d="M249 558q-14 -14 -35 -14t-35 14t-14 35q0 20 14 34t35 14t35 -14t14 -34q0 -21 -14 -35zM401 558q-15 -14 -35 -14t-34 14t-14 35q0 20 14 34t34 14t34.5 -14t14.5 -34q0 -21 -14 -35zM529 246q0 -18 -2 -34h-425q7 -75 59.5 -124t129.5 -49q55 0 99.5 26t68.5 70
l48 -23q-27 -56 -86 -89.5t-132 -33.5q-106 0 -176 70t-70 177t70.5 177t177.5 70q104 0 171 -67t67 -170zM290 435q-75 0 -128.5 -50t-59.5 -125h369q-5 75 -56 125t-125 50z" />
    <glyph glyph-name="uni0452" unicode="&#x452;" horiz-adv-x="592" 
d="M321 483q86 0 142.5 -57.5t56.5 -143.5v-322q0 -79 -48.5 -126.5t-133.5 -47.5q-41 0 -95 14v54q52 -13 86 -13q62 0 96.5 36.5t34.5 96.5v293q0 69 -42.5 114.5t-107.5 45.5q-72 0 -120.5 -55.5t-48.5 -138.5v-233h-59v567h-61v36h61v100h59v-100h199v-36h-199v-186
q29 51 77 76.5t103 25.5z" />
    <glyph glyph-name="uni0453" unicode="&#x453;" horiz-adv-x="441" 
d="M280 536h-58l48 135h76zM141 0h-60v474h344v-55h-284v-419z" />
    <glyph glyph-name="uni0454" unicode="&#x454;" horiz-adv-x="514" 
d="M304 40q86 0 163 43l17 -48q-80 -47 -184 -47q-115 0 -186 69t-71 179q0 109 71 178.5t184 69.5q105 0 187 -46l-20 -48q-76 42 -166 42q-84 0 -137 -46.5t-61 -123.5h271v-51h-271q8 -78 62 -124.5t141 -46.5z" />
    <glyph glyph-name="uni0455" unicode="&#x455;" horiz-adv-x="496" 
d="M252 -10q-124 0 -218 63l24 47q89 -59 199 -59q63 0 104 22.5t41 64.5q0 22 -11 37.5t-33.5 24.5t-45 13.5t-57.5 10.5q-9 1 -14 2q-33 5 -51.5 9t-48 14t-45.5 22.5t-29 35t-13 51.5q0 64 53 100.5t145 36.5q98 0 185 -40l-17 -48q-85 38 -170 38q-66 0 -102.5 -22.5
t-36.5 -62.5q0 -18 9 -32t19.5 -21.5t34 -14.5t37 -9t43.5 -7q39 -6 63.5 -11t54.5 -15t47 -23.5t28.5 -35t11.5 -50.5q0 -69 -58 -105t-149 -36z" />
    <glyph glyph-name="uni0456" unicode="&#x456;" horiz-adv-x="223" 
d="M145 570q-14 -14 -34 -14t-33.5 14t-13.5 34q0 19 13.5 32t33.5 13t33.5 -13t13.5 -32q0 -20 -13 -34zM141 0h-60v474h60v-474z" />
    <glyph glyph-name="uni0457" unicode="&#x457;" horiz-adv-x="222" 
d="M34 544q-20 0 -34 14t-14 34t14 34t34 14q22 0 35.5 -14t13.5 -34t-13.5 -34t-35.5 -14zM187 544q-21 0 -34.5 14t-13.5 34t13.5 34t34.5 14q20 0 34 -14t14 -34t-14 -34t-34 -14zM141 0h-60v474h60v-474z" />
    <glyph glyph-name="uni0458" unicode="&#x458;" horiz-adv-x="236" 
d="M159 570q-14 -14 -34 -14t-33.5 14t-13.5 34q0 19 13.5 32t33.5 13t33.5 -13t13.5 -32q0 -20 -13 -34zM-2 -214q-43 0 -79 12v53q38 -10 69 -10q56 0 81.5 28.5t25.5 89.5v515h59v-536q0 -71 -42 -111.5t-114 -40.5z" />
    <glyph glyph-name="uni0459" unicode="&#x459;" horiz-adv-x="920" 
d="M504 325h218q71 0 118.5 -45.5t47.5 -114.5q0 -71 -47.5 -118t-119.5 -47h-278v419h-246v-155q0 -171 -32 -221q-35 -53 -109 -53q-25 0 -43 6v54q21 -6 36 -6q44 0 64 32q26 40 26 209v36v153h365v-149zM504 50h209q50 0 83.5 33t33.5 82t-33 81t-83 32h-210v-228z" />
    <glyph glyph-name="uni045A" unicode="&#x45a;" horiz-adv-x="931" 
d="M518 325h216q72 0 119 -45.5t47 -114.5q0 -71 -47.5 -118t-120.5 -47h-276v212h-315v-212h-60v474h60v-209h315v209h62v-149zM518 50h208q50 0 83.5 33t33.5 82t-33 81t-83 32h-209v-228z" />
    <glyph glyph-name="uni045B" unicode="&#x45b;" horiz-adv-x="592" 
d="M321 483q86 0 142 -57t56 -144v-282h-59v267q0 69 -43 114.5t-108 45.5q-71 0 -119.5 -55.5t-48.5 -138.5v-233h-60v565h-98v37h98v101h60v-101h161v-37h-161v-182q30 50 78 75t102 25z" />
    <glyph glyph-name="uni045C" unicode="&#x45c;" horiz-adv-x="513" 
d="M292 671h77l-66 -135h-59zM207 232l297 -232h-83l-279 214v-214h-61v474h61v-229l276 229h75z" />
    <glyph glyph-name="uni045E" unicode="&#x45e;" horiz-adv-x="541" 
d="M378 569q-38 -37 -103 -37t-102.5 36.5t-38.5 98.5h51q1 -49 25 -73t65 -24q89 0 92 97h50q-1 -62 -39 -98zM279 32l180 442h63l-216 -520q-11 -27 -17 -39.5t-24.5 -41.5t-36.5 -44.5t-48.5 -29t-66.5 -13.5q-47 0 -92 17v55q43 -18 86 -18q84 0 130 101l12 26l-232 507
h64z" />
    <glyph glyph-name="uni045F" unicode="&#x45f;" horiz-adv-x="585" 
d="M443 474h62v-474h-183v-127h-57v127h-184v474h61v-421h301v421z" />
    <glyph glyph-name="uni0490" unicode="&#x490;" horiz-adv-x="550" 
d="M468 669v126h60v-179h-374v-616h-61v669h375z" />
    <glyph glyph-name="uni0491" unicode="&#x491;" horiz-adv-x="441" 
d="M367 474v119h58v-174h-284v-419h-60v474h286z" />
    <glyph glyph-name="Wgrave" unicode="&#x1e80;" horiz-adv-x="946" 
d="M452 864l51 -139h-62l-67 139h78zM685 82l172 587h63l-205 -669h-62l-180 579l-181 -579h-62l-205 669h63l174 -587l184 587h52z" />
    <glyph glyph-name="wgrave" unicode="&#x1e81;" horiz-adv-x="782" 
d="M371 671l48 -135h-58l-66 135h76zM555 71l144 403h65l-181 -474h-57l-134 407l-136 -407h-57l-181 474h65l145 -405l136 405h56z" />
    <glyph glyph-name="Wacute" unicode="&#x1e82;" horiz-adv-x="946" 
d="M496 863h78l-67 -138h-61zM685 82l172 587h63l-205 -669h-62l-180 579l-181 -579h-62l-205 669h63l174 -587l184 587h52z" />
    <glyph glyph-name="wacute" unicode="&#x1e83;" horiz-adv-x="782" 
d="M408 671h77l-66 -135h-59zM555 71l144 403h65l-181 -474h-57l-134 407l-136 -407h-57l-181 474h65l145 -405l136 405h56z" />
    <glyph glyph-name="Wdieresis" unicode="&#x1e84;" horiz-adv-x="946" 
d="M429 770q-15 -15 -37 -15t-37 15t-15 37q0 21 15 35.5t37 14.5t36.5 -14.5t14.5 -35.5q0 -22 -14 -37zM590 770q-15 -15 -37 -15t-36.5 15t-14.5 37q0 21 15 35.5t36 14.5q22 0 37 -15t15 -35q0 -22 -15 -37zM685 82l172 587h63l-205 -669h-62l-180 579l-181 -579h-62
l-205 669h63l174 -587l184 587h52z" />
    <glyph glyph-name="wdieresis" unicode="&#x1e85;" horiz-adv-x="782" 
d="M350 558q-14 -14 -35 -14t-34.5 14t-13.5 34t13.5 34t34.5 14t35 -14t14 -34t-14 -34zM468 544q-21 0 -35 14t-14 34t14 34t35 14q20 0 34 -14t14 -34t-14 -34t-34 -14zM555 71l144 403h65l-181 -474h-57l-134 407l-136 -407h-57l-181 474h65l145 -405l136 405h56z" />
    <glyph glyph-name="Germandbls" unicode="&#x1e9e;" horiz-adv-x="681" 
d="M410 -12q-72 0 -138 26v60q70 -30 139 -30q88 0 138.5 36t50.5 91q0 34 -22 61t-54 45.5t-63.5 38t-53.5 49t-22 67.5q0 54 43 94.5t119 52.5q-69 46 -161 46q-109 0 -170.5 -58t-61.5 -167v-400h-61v411q0 121 75.5 195t214.5 74q141 0 233 -86l-23 -47
q-69 -8 -110 -38.5t-41 -71.5q0 -28 22.5 -51t54 -41t63.5 -38.5t54.5 -55t22.5 -79.5q0 -84 -68 -134t-181 -50z" />
    <glyph glyph-name="Ygrave" unicode="&#x1ef2;" horiz-adv-x="629" 
d="M296 864l50 -139h-61l-67 139h78zM314 297l223 372h69l-262 -432v-237h-60v237l-259 432h69z" />
    <glyph glyph-name="ygrave" unicode="&#x1ef3;" horiz-adv-x="541" 
d="M250 671l48 -135h-59l-66 135h77zM279 32l180 442h63l-216 -520q-11 -27 -17 -39.5t-24.5 -41.5t-36.5 -44.5t-48.5 -29t-66.5 -13.5q-47 0 -92 17v55q43 -18 86 -18q84 0 130 101l12 26l-232 507h64z" />
    <glyph glyph-name="uni2009" unicode="&#x2009;" horiz-adv-x="96" 
 />
    <glyph glyph-name="endash" unicode="&#x2013;" horiz-adv-x="606" 
d="M541 246h-476v54h476v-54z" />
    <glyph glyph-name="emdash" unicode="&#x2014;" horiz-adv-x="924" 
d="M858 246h-793v54h793v-54z" />
    <glyph glyph-name="quoteleft" unicode="&#x2018;" horiz-adv-x="216" 
d="M133 702h54l-80 -241h-68z" />
    <glyph glyph-name="quoteright" unicode="&#x2019;" horiz-adv-x="213" 
d="M96 461h-54l81 241h67z" />
    <glyph glyph-name="quotesinglbase" unicode="&#x201a;" horiz-adv-x="187" 
d="M51 -167h-53l79 240h68z" />
    <glyph glyph-name="quotedblleft" unicode="&#x201c;" horiz-adv-x="370" 
d="M133 702h54l-80 -241h-68zM287 702h54l-80 -241h-67z" />
    <glyph glyph-name="quotedblright" unicode="&#x201d;" horiz-adv-x="368" 
d="M96 461h-54l81 240h67zM251 461h-55l81 240h67z" />
    <glyph glyph-name="quotedblbase" unicode="&#x201e;" horiz-adv-x="342" 
d="M51 -167h-53l79 240h68zM205 -167h-54l81 240h67z" />
    <glyph glyph-name="dagger" unicode="&#x2020;" horiz-adv-x="494" 
d="M275 515h190v-53h-190v-372h-56v372h-189v53h189v212h56v-212z" />
    <glyph glyph-name="daggerdbl" unicode="&#x2021;" horiz-adv-x="526" 
d="M480 511v-53h-189v-183h189v-53h-189v-229h-56v229h-190v53h190v183h-190v53h190v207h56v-207h189z" />
    <glyph glyph-name="bullet" unicode="&#x2022;" horiz-adv-x="350" 
d="M175 231q-39 0 -66.5 27t-27.5 67q0 39 27.5 65.5t66.5 26.5q40 0 67 -26.5t27 -65.5q0 -40 -27 -67t-67 -27z" />
    <glyph glyph-name="ellipsis" unicode="&#x2026;" horiz-adv-x="551" 
d="M104 -13q-19 0 -32 13t-13 31t13 31t32 13q18 0 31 -12.5t13 -31.5q0 -18 -13 -31t-31 -13zM276 -13q-19 0 -32 13t-13 31t13 31t32 13q18 0 31 -12.5t13 -31.5q0 -18 -13 -31t-31 -13zM447 -13q-19 0 -32 13t-13 31t13 31t32 13t31.5 -12.5t12.5 -31.5q0 -18 -12.5 -31
t-31.5 -13z" />
    <glyph glyph-name="perthousand" unicode="&#x2030;" horiz-adv-x="1117" 
d="M194 359q-67 0 -113 46.5t-46 114.5q0 67 46 113.5t113 46.5q68 0 114 -46t46 -114t-46.5 -114.5t-113.5 -46.5zM136 0h-56l533 669h55zM194 401q50 0 82.5 33.5t32.5 85.5q0 51 -33 85t-82 34t-81.5 -34t-32.5 -85q0 -52 32.5 -85.5t81.5 -33.5zM568 -11
q-68 0 -114 46.5t-46 113.5t46 113.5t114 46.5q67 0 113 -46.5t46 -113.5t-46 -113.5t-113 -46.5zM928 -11q-68 0 -114 46.5t-46 113.5t46 113.5t114 46.5q67 0 113 -46.5t46 -113.5t-46 -113.5t-113 -46.5zM568 30q49 0 81.5 33.5t32.5 85.5q0 51 -32.5 85t-81.5 34
t-82 -34t-33 -85q0 -52 32.5 -85.5t82.5 -33.5zM928 30q49 0 81.5 33.5t32.5 85.5q0 51 -32.5 85t-81.5 34t-82 -34t-33 -85q0 -52 32.5 -85.5t82.5 -33.5z" />
    <glyph glyph-name="guilsinglleft" unicode="&#x2039;" horiz-adv-x="305" 
d="M259 27h-70l-147 223l156 223h69l-156 -223z" />
    <glyph glyph-name="guilsinglright" unicode="&#x203a;" horiz-adv-x="305" 
d="M262 250l-146 -223h-70l148 223l-156 223h69z" />
    <glyph glyph-name="fraction" unicode="&#x2044;" horiz-adv-x="128" 
d="M-158 0h-51l498 669h50z" />
    <glyph glyph-name="uni2070" unicode="&#x2070;" horiz-adv-x="406" 
d="M203 438q-73 0 -121.5 52.5t-48.5 132.5q0 79 48.5 132t121.5 53t121 -52.5t48 -132.5t-48 -132.5t-121 -52.5zM203 474q54 0 91 43t37 106t-37 105.5t-91 42.5q-55 0 -92 -42.5t-37 -105.5t37 -106t92 -43z" />
    <glyph glyph-name="uni2074" unicode="&#x2074;" horiz-adv-x="351" 
d="M274 568h54v-34h-54v-91h-42v91h-212v31l192 238h62v-235zM232 770l-159 -202h159v202z" />
    <glyph glyph-name="uni2075" unicode="&#x2075;" horiz-adv-x="331" 
d="M173 681q56 0 93 -34t37 -86q0 -53 -39 -88t-99 -35q-53 0 -92 28t-48 76l40 9q7 -34 35 -55t64 -21q40 0 67 24.5t27 63.5q0 37 -25.5 61t-64.5 24q-51 0 -91 -43l-35 19l25 180h214v-36h-180l-16 -117q40 30 88 30z" />
    <glyph glyph-name="uni2076" unicode="&#x2076;" horiz-adv-x="327" 
d="M172 684q55 0 93 -35t38 -86q0 -54 -40 -89.5t-98 -35.5q-59 0 -99 36.5t-40 89.5t47 113l100 127h50l-108 -134q26 14 57 14zM164 472q40 0 68.5 26t28.5 64t-28 63.5t-70 25.5q-40 0 -67.5 -25t-27.5 -62q0 -39 27.5 -65.5t68.5 -26.5z" />
    <glyph glyph-name="uni2077" unicode="&#x2077;" horiz-adv-x="285" 
d="M22 766v38h243v-36l-174 -325h-50l176 323h-195z" />
    <glyph glyph-name="uni2078" unicode="&#x2078;" horiz-adv-x="350" 
d="M239 633q36 -10 57 -34t21 -57q0 -45 -39.5 -74.5t-102.5 -29.5t-103 29t-40 75q0 32 21 56.5t58 34.5q-29 10 -46.5 31t-17.5 48q0 43 36.5 70.5t91.5 27.5t91.5 -27.5t36.5 -70.5q0 -27 -17.5 -48t-46.5 -31zM87 710q0 -28 24.5 -47t62.5 -19t64 19.5t26 47.5
t-25.5 47.5t-63.5 19.5t-63 -19.5t-25 -48.5zM175 470q42 0 70.5 21.5t28.5 53.5q0 30 -28 50.5t-70 20.5t-71 -20.5t-29 -51.5q0 -32 28 -53t71 -21z" />
    <glyph glyph-name="uni2079" unicode="&#x2079;" horiz-adv-x="323" 
d="M160 810q59 0 98.5 -36.5t39.5 -90.5q0 -25 -10 -50t-17.5 -36t-25.5 -34l-93 -120h-50l102 132q-22 -11 -52 -11q-54 0 -91 34.5t-37 85.5q0 54 39 90t97 36zM66 685q0 -38 27 -63.5t68 -25.5q40 0 66.5 25t26.5 63t-26.5 64t-66.5 26q-41 0 -68 -25.5t-27 -63.5z" />
    <glyph glyph-name="uni2080" unicode="&#x2080;" horiz-adv-x="406" 
d="M203 -161q-73 0 -121.5 53t-48.5 133q0 79 48.5 132t121.5 53t121 -53t48 -132q0 -80 -48 -133t-121 -53zM203 -124q54 0 91 42.5t37 106.5q0 63 -37 105.5t-91 42.5q-55 0 -92 -42.5t-37 -105.5q0 -64 37 -106.5t92 -42.5z" />
    <glyph glyph-name="uni2081" unicode="&#x2081;" horiz-adv-x="324" 
d="M195 206v-323h113v-38h-276v38h119v274l-115 -48v41l127 56h32z" />
    <glyph glyph-name="uni2082" unicode="&#x2082;" horiz-adv-x="341" 
d="M197 -40l-97 -77h211v-38h-277v33l134 111q5 4 21 16.5t24.5 19.5t20 19.5t16.5 25.5t5 28q0 32 -24 53t-62 21q-40 0 -66 -25.5t-29 -66.5l-44 5q4 58 43 92t97 34q59 0 95 -31t36 -79q0 -14 -3 -27t-11 -25.5t-14 -21.5t-19 -20.5t-19 -16.5t-20.5 -16.5t-17.5 -13.5z
" />
    <glyph glyph-name="uni2083" unicode="&#x2083;" horiz-adv-x="342" 
d="M187 73q54 0 90 -31.5t36 -80.5q0 -52 -41.5 -87t-103.5 -35q-57 0 -97.5 28.5t-47.5 76.5l39 11q6 -35 35.5 -57t70.5 -22q42 0 71 25t29 62q0 35 -27 59t-70 24q-38 0 -72 -21l-18 25l156 118h-190v38h246v-37l-130 -98q14 2 24 2z" />
    <glyph glyph-name="uni2084" unicode="&#x2084;" horiz-adv-x="351" 
d="M274 -31h54v-33h-54v-91h-42v91h-212v31l192 237h62v-235zM232 172l-159 -203h159v203z" />
    <glyph glyph-name="uni2085" unicode="&#x2085;" horiz-adv-x="331" 
d="M173 82q56 0 93 -33.5t37 -85.5q0 -54 -39 -89t-99 -35q-53 0 -92 28.5t-48 76.5l40 9q7 -35 35 -56t64 -21q40 0 67 25t27 63q0 37 -25.5 61.5t-64.5 24.5q-51 0 -91 -44l-35 19l25 181h214v-37h-180l-16 -117q38 30 88 30z" />
    <glyph glyph-name="uni2086" unicode="&#x2086;" horiz-adv-x="327" 
d="M172 85q55 0 93 -35t38 -86q0 -54 -40 -89.5t-98 -35.5q-59 0 -99 36.5t-40 89.5q0 56 47 114l100 127h50l-107 -134q23 13 56 13zM164 -126q40 0 68.5 26t28.5 64t-28 63.5t-70 25.5q-40 0 -67.5 -25t-27.5 -63t28 -64.5t68 -26.5z" />
    <glyph glyph-name="uni2087" unicode="&#x2087;" horiz-adv-x="285" 
d="M22 168v38h243v-37l-174 -324h-50l177 323h-196z" />
    <glyph glyph-name="uni2088" unicode="&#x2088;" horiz-adv-x="350" 
d="M239 35q36 -10 57 -34t21 -57q0 -45 -39.5 -75t-102.5 -30t-103 29.5t-40 75.5q0 32 21 56.5t58 34.5q-29 10 -46.5 31t-17.5 48q0 42 36.5 69.5t91.5 27.5t91.5 -27.5t36.5 -69.5q0 -27 -17.5 -48t-46.5 -31zM87 112q0 -28 24.5 -47t62.5 -19t64 19t26 48q0 28 -26 47
t-63 19t-62.5 -19t-25.5 -48zM175 -128q42 0 70.5 21.5t28.5 53.5q0 30 -28 50.5t-70 20.5t-71 -20.5t-29 -51.5q0 -32 28 -53t71 -21z" />
    <glyph glyph-name="uni2089" unicode="&#x2089;" horiz-adv-x="323" 
d="M160 211q59 0 98.5 -36.5t39.5 -90.5q0 -24 -10 -49t-18 -37t-25 -34l-93 -119h-50l101 130q-23 -10 -51 -10q-54 0 -91 34.5t-37 86.5q0 54 39 89.5t97 35.5zM66 87q0 -38 27 -63.5t68 -25.5q40 0 66.5 25t26.5 62q0 39 -26.5 65t-66.5 26q-41 0 -68 -25.5t-27 -63.5z
" />
    <glyph glyph-name="Euro" unicode="&#x20ac;" horiz-adv-x="654" 
d="M420 39q48 0 101.5 13.5t88.5 34.5v-51q-34 -21 -89 -34.5t-106 -13.5q-125 0 -209 73.5t-105 195.5h-69v43h64q-1 11 -1 33q0 24 1 35h-64v42h69q21 124 105 197.5t207 73.5q119 0 192 -51v-52q-35 26 -87 38.5t-98 12.5q-102 0 -172 -59.5t-90 -159.5h348v-42h-354
q-2 -22 -2 -35q0 -22 1 -33h355v-43h-349q21 -100 90.5 -159t172.5 -59z" />
    <glyph glyph-name="uni20B4" unicode="&#x20b4;" horiz-adv-x="682" 
d="M422 340l-145 -40q-41 -12 -65 -26h426v-40h-466q-13 -26 -13 -60q0 -62 50.5 -97.5t141.5 -35.5q114 0 229 44l1 -50q-120 -46 -233 -46q-129 0 -188.5 51t-59.5 130q0 33 12 64h-71v40h98q40 42 139 70l142 40q22 6 33 10h-412v40h471q18 26 18 65q0 61 -50.5 96
t-134.5 35q-99 0 -199 -38l-3 50q102 38 203 38q111 0 176.5 -47.5t65.5 -131.5q0 -37 -16 -67h66v-40h-99q-41 -33 -117 -54z" />
    <glyph glyph-name="uni20BD" unicode="&#x20bd;" horiz-adv-x="648" 
d="M398 258h-199v-76h237v-39h-237v-143h-60v143h-99v39h99v76h-99v43h99v368h261q94 0 155 -58t61 -147q0 -90 -61.5 -148t-156.5 -58zM391 618h-192v-317h190q73 0 120.5 45t47.5 114q0 68 -47 113t-119 45z" />
    <glyph glyph-name="uni20BF" unicode="&#x20bf;" horiz-adv-x="682" 
d="M636 187q0 -81 -58 -134t-152 -53v-114h-53v114h-82v-114h-52v114h-145v669h144v116h52v-116h82v116h52v-116q81 0 130.5 -49.5t49.5 -122.5q0 -47 -25 -85.5t-69 -56.5q56 -14 91 -60t35 -108zM417 618h-263v-247h258q56 0 94.5 34.5t38.5 86.5q0 54 -36 90t-92 36z
M154 51h266q69 0 112 39.5t43 99.5q0 56 -38 93.5t-94 37.5h-289v-270z" />
    <glyph glyph-name="uni2116" unicode="&#x2116;" horiz-adv-x="1104" 
d="M896 342q-70 0 -117.5 47.5t-47.5 118.5t47.5 119t117.5 48q71 0 118.5 -48t47.5 -119t-47.5 -118.5t-118.5 -47.5zM152 669l435 -574v574h58v-669h-55l-438 574v-574h-58v669h58zM897 633q-52 0 -87 -35.5t-35 -89.5q0 -53 35 -88.5t87 -35.5q51 0 85.5 35.5t34.5 88.5
q0 54 -34.5 89.5t-85.5 35.5zM1048 237h-301v41h301v-41z" />
    <glyph glyph-name="trademark" unicode="&#x2122;" horiz-adv-x="721" 
d="M131 631h-100v38h241v-38h-100v-261h-41v261zM479 469l125 200h40v-299h-38v230l-116 -184h-22l-117 184v-230h-38v299h40z" />
    <glyph glyph-name="estimated" unicode="&#x212e;" horiz-adv-x="874" 
d="M444 -14q-169 0 -282.5 99t-113.5 248q0 148 114.5 248t281.5 100q165 0 281.5 -98.5t116.5 -254.5v-23h-627v-208q36 -29 101.5 -49t127.5 -20q86 0 166 30t132 84l30 -28q-62 -61 -149.5 -94.5t-178.5 -33.5zM215 570v-220h460v220q-90 70 -231 70q-134 0 -229 -70z
" />
    <glyph glyph-name="arrowleft" unicode="&#x2190;" horiz-adv-x="601" 
d="M148 359h415v-55h-416l158 -158q9 -9 9 -22q0 -11 -8 -20.5t-21 -9.5q-12 0 -21 9l-227 229l228 228q9 9 23 9q11 0 19 -9t8 -20q0 -14 -9 -22z" />
    <glyph glyph-name="arrowup" unicode="&#x2191;" horiz-adv-x="529" 
d="M264 540l228 -226q10 -10 10 -21q0 -13 -9.5 -21.5t-20.5 -8.5q-12 0 -21 9l-160 159v-417h-54v415l-159 -158q-9 -9 -21 -9t-21 8t-9 20q0 13 9 22z" />
    <glyph glyph-name="arrowright" unicode="&#x2192;" horiz-adv-x="601" 
d="M336 560l228 -228l-226 -229q-9 -9 -21 -9q-13 0 -21.5 9.5t-8.5 20.5q0 13 9 22l158 158h-416v55h415l-158 159q-9 9 -9 20q0 12 8 21.5t20 9.5q13 0 22 -9z" />
    <glyph glyph-name="arrowdown" unicode="&#x2193;" horiz-adv-x="529" 
d="M472 233q11 0 20.5 -8.5t9.5 -21.5q0 -11 -10 -21l-228 -226l-228 227q-9 9 -9 22q0 12 9 20.5t21 8.5h2q10 0 19 -9l159 -158v415h54v-417l160 159q9 9 21 9z" />
    <glyph glyph-name="arrowboth" unicode="&#x2194;" horiz-adv-x="924" 
d="M659 560l228 -228l-226 -229q-9 -9 -21 -9q-13 0 -21.5 9.5t-8.5 20.5q0 13 9 22l158 158h-630l158 -158q9 -9 9 -22q0 -11 -8 -20.5t-21 -9.5q-12 0 -21 9l-227 229l228 228q9 9 23 9q11 0 19 -9t8 -20q0 -14 -9 -22l-158 -159h628l-158 159q-8 8 -8 19q0 13 7.5 22.5
t19.5 9.5q13 0 22 -9z" />
    <glyph glyph-name="arrowupdn" unicode="&#x2195;" horiz-adv-x="546" 
d="M482 64q10 0 19.5 -8.5t9.5 -21.5q0 -12 -9 -21l-229 -227l-228 228q-9 9 -9 22q0 12 9 20.5t21 8.5q13 0 22 -9l158 -158v624l-159 -159q-9 -9 -22 -9q-12 0 -21 8.5t-9 20.5q0 13 9 22l229 228l228 -227q9 -9 9 -21q0 -13 -9.5 -21.5t-19.5 -8.5q-12 0 -22 10l-159 157
v-626l160 159q9 9 22 9z" />
    <glyph glyph-name="uni2196" unicode="&#x2196;" horiz-adv-x="589" 
d="M163 464l401 -401l-38 -39l-400 401v-224q0 -12 -10 -22q-8 -8 -21 -8t-20 8q-8 8 -8 21v322h322q13 0 21 -8t8 -20q0 -14 -8 -22t-21 -8h-226z" />
    <glyph glyph-name="uni2197" unicode="&#x2197;" 
d="M199 496h322v-322q0 -14 -8 -21q-9 -9 -20 -9q-14 0 -21 9q-10 7 -10 21v225l-400 -401l-39 39l402 400h-225q-11 0 -21 10q-10 8 -10 21q0 12 9 19q11 9 21 9z" />
    <glyph glyph-name="uni2198" unicode="&#x2198;" horiz-adv-x="589" 
d="M512 344q9 -10 9 -22v-322h-322q-12 0 -21 9q-9 8 -9 20q0 13 9 20q10 10 21 10h226l-403 401l39 38l401 -401v225q0 13 9 22q10 8 22 8q11 0 19 -8z" />
    <glyph glyph-name="uni2199" unicode="&#x2199;" horiz-adv-x="589" 
d="M411 49q9 -7 9 -20t-9 -20q-9 -9 -21 -9h-322v322q0 13 9 22q8 8 20 8q13 0 21 -8q9 -9 9 -22v-225l401 401l38 -38l-401 -401h225q11 0 21 -10z" />
    <glyph glyph-name="partialdiff" unicode="&#x2202;" horiz-adv-x="610" 
d="M141 624l24 55q112 -3 192 -31.5t123 -78t61.5 -106t18.5 -125.5q0 -156 -83.5 -252.5t-215.5 -96.5q-104 0 -167.5 58.5t-63.5 150.5q0 99 71 162t180 63q123 0 219 -74q-1 80 -28 134.5t-78 84t-111 42t-142 14.5zM263 43q100 0 163.5 74t72.5 172q-91 82 -207 82
q-89 0 -144 -47.5t-55 -123.5q0 -69 47 -113t123 -44z" />
    <glyph glyph-name="product" unicode="&#x220f;" horiz-adv-x="737" 
d="M197 -167h-60v781h-107v55h676v-55h-106v-781h-60v781h-343v-781z" />
    <glyph glyph-name="summation" unicode="&#x2211;" horiz-adv-x="577" 
d="M545 -167h-509v51l236 366l-236 368v51h509v-55h-441l234 -364l-234 -363h441v-54z" />
    <glyph glyph-name="minus" unicode="&#x2212;" horiz-adv-x="530" 
d="M462 296h-394v54h394v-54z" />
    <glyph glyph-name="radical" unicode="&#x221a;" horiz-adv-x="672" 
d="M506 669h178v-55h-138l-290 -781h-49l-202 562h60l166 -479z" />
    <glyph glyph-name="infinity" unicode="&#x221e;" horiz-adv-x="798" 
d="M594 458q64 0 108.5 -46.5t44.5 -111.5q0 -63 -44 -109.5t-109 -46.5q-20 0 -41 6.5t-34 12t-35 23.5t-28 23.5t-30.5 30.5t-26.5 27q-3 -3 -18 -18.5t-19.5 -20.5t-18 -18t-20.5 -18t-20.5 -15t-23 -14t-22.5 -9.5t-26 -7.5t-27 -2q-65 0 -109.5 46t-44.5 110
q0 65 45 111.5t110 46.5q18 0 34 -3t32.5 -12l27.5 -15t28 -21.5t23.5 -22t25.5 -26t23 -23.5q4 4 27 28t30.5 30.5t28 23.5t34 23t34 12t41.5 6zM204 192q15 0 30.5 5t26.5 10t28 19.5t24 21t27 26.5l26 26q-4 4 -20 21t-20.5 21.5t-18.5 17.5t-20 17t-18 13t-21 11.5
t-20.5 5.5t-22.5 3q-46 0 -76.5 -32.5t-30.5 -77.5q0 -44 30.5 -76t75.5 -32zM594 192q45 0 75.5 32t30.5 76q0 45 -30.5 77.5t-75.5 32.5q-13 0 -25.5 -2.5t-25 -9.5t-21.5 -12.5t-23 -18.5t-20.5 -19.5t-23 -23.5t-23.5 -24q5 -5 18 -18.5t18 -18t16.5 -16t17.5 -16
t16.5 -12.5t18 -11.5t17.5 -8t20 -6t20 -1.5z" />
    <glyph glyph-name="integral" unicode="&#x222b;" horiz-adv-x="506" 
d="M83 -174q-44 0 -94 22l1 54q49 -22 88 -22q97 0 115 136l68 513q12 93 56 137t110 44q41 0 90 -16l-1 -53q-42 16 -82 16q-100 0 -118 -136l-67 -513q-24 -182 -166 -182z" />
    <glyph glyph-name="approxequal" unicode="&#x2248;" horiz-adv-x="547" 
d="M363 350q-41 0 -94.5 36t-80.5 36q-50 0 -66 -65h-52q9 57 43 85t76 28q39 0 90.5 -35.5t80.5 -35.5q48 0 72 64h52q-32 -113 -121 -113zM365 197q-41 0 -95 35.5t-81 35.5q-50 0 -66 -64h-51q9 57 42.5 85t75.5 28q39 0 90 -36t81 -36q49 0 73 65h50q-29 -113 -119 -113
z" />
    <glyph glyph-name="notequal" unicode="&#x2260;" horiz-adv-x="506" 
d="M462 453v-53h-139l-85 -154h224v-52h-253l-67 -120h-45l67 120h-120v52h149l85 154h-234v53h263l66 118h45l-66 -118h110z" />
    <glyph glyph-name="lessequal" unicode="&#x2264;" horiz-adv-x="516" 
d="M438 241v-58l-372 171v54l372 172v-60l-316 -138zM438 118v-53h-373v53h373z" />
    <glyph glyph-name="greaterequal" unicode="&#x2265;" horiz-adv-x="516" 
d="M450 354l-373 -171v58l316 141l-316 138v60l373 -172v-54zM451 65h-374v53h374v-53z" />
    <glyph glyph-name="lozenge" unicode="&#x25ca;" horiz-adv-x="616" 
d="M333 0h-50l-254 335l254 334h50l255 -335zM97 335l211 -279l211 278l-211 279z" />
    <glyph glyph-name="uni2619" unicode="&#x2619;" horiz-adv-x="883" 
d="M663 382q88 -1 136.5 -47t48.5 -104q0 -46 -27.5 -71.5t-65.5 -25.5q-22 0 -38.5 11t-16.5 28q0 27 37 28q-1 -16 8 -23t20 -7q19 0 34.5 12.5t19.5 32.5q-97 17 -170 145q-106 -4 -242 -80q3 1 10 1q30 0 51.5 -21.5t21.5 -50.5q0 -37 -39.5 -63t-121.5 -26
q-117 0 -207.5 56t-90.5 123q0 20 11 33t26 13q27 0 42 -35q-30 -12 -30 -41q0 -19 13.5 -33t33.5 -14q35 0 53 41q7 15 16 43.5t17 49.5t20.5 43t33.5 34t49 12q33 0 57 -23.5t24 -57.5q0 -53 -62 -101q2 -3 6 -7q6 4 9 5q77 54 153 84t134 35q-5 9 -20 37.5t-25 45.5
t-27.5 42.5t-32.5 40t-35 25.5t-41 11q-33 0 -33 -17q0 -4 8 -13t8 -18q0 -11 -8.5 -18t-20.5 -7q-16 0 -25 12t-9 29q0 22 17.5 40.5t52.5 18.5q20 0 39.5 -7t34 -15t32 -27t27 -30.5t25 -38t21 -36.5t20.5 -39.5t18 -34.5zM675 360q27 -45 66.5 -81.5t79.5 -44.5
q0 45 -38.5 83t-107.5 43z" />
    <glyph glyph-name="uni2764" unicode="&#x2764;" horiz-adv-x="512" 
d="M256 127q-29 42 -71 82.5t-71.5 63.5t-51.5 54.5t-22 65.5q0 46 27.5 74t71.5 28q47 0 77 -37.5t33 -102.5h13q5 67 35.5 103.5t76.5 36.5q44 0 71 -27.5t27 -74.5q0 -28 -13.5 -52.5t-37 -47t-49.5 -44t-59 -54.5t-57 -68z" />
    <glyph glyph-name="uni2766" unicode="&#x2766;" horiz-adv-x="593" 
d="M448 444q-49 0 -106 23q-4 -36 -30 -115q32 39 76 39q34 0 56.5 -23.5t22.5 -53.5q0 -28 -22 -54t-48.5 -43t-48.5 -38.5t-22 -40.5q0 -14 9.5 -22.5t22.5 -8.5q20 0 33.5 14.5t9.5 40.5q16 8 30 8t21.5 -7.5t7.5 -18.5q0 -23 -27 -44t-70 -21q-85 0 -166.5 76.5
t-81.5 150.5q0 37 22.5 60t56.5 23q36 0 57.5 -28t20.5 -84l10 -1q1 9 5 25q4 33 19 88t17 87q-118 61 -179 61q-34 0 -54 -15t-20 -38q0 -17 14 -27.5t38 -10.5q-6 -33 -33 -33q-21 0 -38 17t-17 44q0 38 30.5 64t86.5 26q-10 15 -10 32q0 26 22 43t52 17q62 0 95 -46.5
t33 -114.5q56 -29 102 -29q32 0 52.5 11.5t20.5 27.5q0 5 -13 12t-13 20q0 12 9 21t23 9q15 0 26.5 -12t11.5 -30q0 -34 -31.5 -57.5t-82.5 -23.5zM216 636q-20 0 -32.5 -10.5t-12.5 -27.5q0 -29 32 -42q50 -13 119 -50q-5 53 -32.5 91.5t-73.5 38.5z" />
    <glyph glyph-name="uni2767" unicode="&#x2767;" horiz-adv-x="884" 
d="M816 346q15 0 25.5 -13t10.5 -33q0 -67 -90.5 -123t-207.5 -56q-82 0 -121.5 26t-39.5 63q0 29 21.5 50.5t52.5 21.5q6 0 10 -1q-138 76 -243 80q-32 -57 -75.5 -96.5t-93.5 -48.5q4 -20 19 -32.5t35 -12.5q11 0 20 6.5t8 23.5q20 -1 28.5 -9.5t8.5 -18.5
q0 -17 -16.5 -28t-39.5 -11q-38 0 -65 25.5t-27 71.5q0 59 48 104.5t137 46.5q3 5 15.5 31t17.5 35t18.5 32.5t21.5 34t22 29.5t26 27.5t27.5 19.5t32.5 15t35 4q36 0 53.5 -18.5t17.5 -40.5q0 -17 -9.5 -29t-25.5 -12q-12 0 -20.5 7t-8.5 18q0 9 8 18t8 13q0 17 -32 17
q-21 0 -41.5 -11t-35.5 -25.5t-32.5 -40t-27 -42.5t-25 -45.5t-20.5 -37.5q132 -11 284 -117l13 -7q4 4 6 7q-63 48 -63 101q0 34 24 57.5t57 23.5q28 0 49 -12t34 -34t21 -42.5t17 -50t15 -43.5q18 -41 53 -41q21 0 34 14t13 33q0 29 -29 41q15 35 42 35zM63 234
q40 8 79.5 44.5t66.5 81.5q-69 -5 -107.5 -43t-38.5 -83z" />
    <glyph glyph-name="NULL.1" horiz-adv-x="0" 
 />
    <glyph glyph-name="J_acutecomb" horiz-adv-x="482" 
d="M401 725h-61l50 138h78zM151 -11q-65 0 -127 20l-1 54q67 -19 121 -19q94 0 142.5 49.5t48.5 128.5v447h60v-457q0 -102 -64 -162.5t-180 -60.5z" />
    <glyph glyph-name="Iacute_J.loclNLD" horiz-adv-x="712" 
d="M160 725h-61l50 138h78zM613 863h78l-67 -138h-61zM154 0h-61v669h61v-669zM566 222v447h60v-457q0 -102 -64 -162.5t-180 -60.5q-67 0 -127 20l-1 54q65 -19 121 -19q93 0 142 50t49 128z" />
    <glyph glyph-name="G.ss01" horiz-adv-x="750" 
d="M395 -12q-158 0 -253 97.5t-95 247.5q0 151 93.5 249.5t242.5 98.5q184 0 283 -126l-46 -38q-82 108 -236 108q-123 0 -199.5 -83t-76.5 -210q0 -126 79 -207.5t208 -81.5q52 0 101 13t77.5 27.5t66.5 37.5v177h-277v53h335v-258q-72 -51 -141.5 -78t-161.5 -27z" />
    <glyph glyph-name="Gbreve.ss01" horiz-adv-x="750" 
d="M494 765q-41 -38 -106 -38t-105 37.5t-41 99.5h53q1 -41 27 -67.5t66 -26.5q41 0 67 26.5t27 67.5h53q-1 -62 -41 -99zM395 -12q-158 0 -253 97.5t-95 247.5q0 151 93.5 249.5t242.5 98.5q184 0 283 -126l-46 -38q-82 108 -236 108q-123 0 -199.5 -83t-76.5 -210
q0 -126 79 -207.5t208 -81.5q52 0 101 13t77.5 27.5t66.5 37.5v177h-277v53h335v-258q-72 -51 -141.5 -78t-161.5 -27z" />
    <glyph glyph-name="Gcircumflex.ss01" horiz-adv-x="750" 
d="M302 730h-66l127 137h50l127 -137h-66l-86 91zM395 -12q-158 0 -253 97.5t-95 247.5q0 151 93.5 249.5t242.5 98.5q184 0 283 -126l-46 -38q-82 108 -236 108q-123 0 -199.5 -83t-76.5 -210q0 -126 79 -207.5t208 -81.5q52 0 101 13t77.5 27.5t66.5 37.5v177h-277v53h335
v-258q-72 -51 -141.5 -78t-161.5 -27z" />
    <glyph glyph-name="uni0122.ss01" horiz-adv-x="750" 
d="M395 -12q-158 0 -253 97.5t-95 247.5q0 151 93.5 249.5t242.5 98.5q184 0 283 -126l-46 -38q-82 108 -236 108q-123 0 -199.5 -83t-76.5 -210q0 -126 79 -207.5t208 -81.5q52 0 101 13t77.5 27.5t66.5 37.5v177h-277v53h335v-258q-72 -51 -141.5 -78t-161.5 -27z
M388 -211h-56l37 159h65z" />
    <glyph glyph-name="Gdotaccent.ss01" horiz-adv-x="750" 
d="M422 772q-14 -14 -34 -14t-33.5 13.5t-13.5 33.5t13.5 33t33.5 13t34 -13.5t14 -32.5q0 -20 -14 -33zM395 -12q-158 0 -253 97.5t-95 247.5q0 151 93.5 249.5t242.5 98.5q184 0 283 -126l-46 -38q-82 108 -236 108q-123 0 -199.5 -83t-76.5 -210q0 -126 79 -207.5
t208 -81.5q52 0 101 13t77.5 27.5t66.5 37.5v177h-277v53h335v-258q-72 -51 -141.5 -78t-161.5 -27z" />
    <glyph glyph-name="E.ss07" 
d="M60 669h471v-53h-471v53zM60 365h471v-53h-471v53zM60 0v53h471v-53h-471z" />
    <glyph glyph-name="Eacute.ss07" 
d="M334 725h-61l50 138h78zM60 669h471v-53h-471v53zM60 365h471v-53h-471v53zM60 0v53h471v-53h-471z" />
    <glyph glyph-name="Ebreve.ss07" 
d="M406 765q-41 -38 -106 -38t-105 37.5t-41 99.5h52q2 -41 28 -67.5t66 -26.5q41 0 67 26.5t27 67.5h53q-1 -62 -41 -99zM60 669h471v-53h-471v53zM60 365h471v-53h-471v53zM60 0v53h471v-53h-471z" />
    <glyph glyph-name="Ecaron.ss07" 
d="M276 728l-127 138h66l87 -92l85 92h67l-128 -138h-50zM60 669h471v-53h-471v53zM60 365h471v-53h-471v53zM60 0v53h471v-53h-471z" />
    <glyph glyph-name="Ecircumflex.ss07" 
d="M213 730h-66l127 137h50l127 -137h-66l-85 92zM60 669h471v-53h-471v53zM60 365h471v-53h-471v53zM60 0v53h471v-53h-471z" />
    <glyph glyph-name="Edieresis.ss07" 
d="M256 770q-15 -15 -37 -15t-36.5 15t-14.5 37q0 21 15 35.5t36 14.5q22 0 37 -15t15 -35q0 -22 -15 -37zM417 770q-15 -15 -37 -15t-37 15t-15 37q0 20 15 35t37 15t37 -14.5t15 -35.5q0 -22 -15 -37zM60 669h471v-53h-471v53zM60 365h471v-53h-471v53zM60 0v53h471v-53
h-471z" />
    <glyph glyph-name="Edotaccent.ss07" 
d="M300 758q-21 0 -34.5 13.5t-13.5 33.5t13.5 33.5t34.5 13.5q20 0 34 -13.5t14 -33.5t-14 -33.5t-34 -13.5zM60 669h471v-53h-471v53zM60 365h471v-53h-471v53zM60 0v53h471v-53h-471z" />
    <glyph glyph-name="Egrave.ss07" 
d="M279 864l51 -139h-62l-67 139h78zM60 669h471v-53h-471v53zM60 365h471v-53h-471v53zM60 0v53h471v-53h-471z" />
    <glyph glyph-name="Emacron.ss07" 
d="M452 778h-305v48h305v-48zM60 669h471v-53h-471v53zM60 365h471v-53h-471v53zM60 0v53h471v-53h-471z" />
    <glyph glyph-name="Eogonek.ss07" 
d="M60 616v53h471v-53h-471zM531 312h-471v53h471v-53zM458 0h-398v53h471v-53q-57 -21 -87.5 -57t-30.5 -70q0 -21 12 -34.5t34 -13.5q26 0 64 19l4 -44q-38 -21 -75 -21q-42 0 -66 23.5t-24 60.5q0 32 24 70t72 67z" />
    <glyph glyph-name="Q.ss08" horiz-adv-x="766" 
d="M719 334q0 -129 -73.5 -222t-192.5 -116l211 -151l-42 -48l-255 192q-139 6 -230 103.5t-91 241.5q0 148 96 247t241 99q144 0 240 -99t96 -247zM187 541q-81 -85 -81 -207t80.5 -206t196.5 -84t196.5 84t80.5 206t-80.5 206.5t-196.5 84.5t-196 -84z" />
    <glyph glyph-name="Y.ss12" 
d="M296 246l225 423h63l-354 -669h-65l101 188l-265 481h64z" />
    <glyph glyph-name="Yacute.ss12" 
d="M320 863h77l-66 -138h-61zM296 246l225 423h63l-354 -669h-65l101 188l-265 481h64z" />
    <glyph glyph-name="Ycircumflex.ss12" 
d="M382 730l-86 92l-87 -92h-66l127 137h51l127 -137h-66zM296 246l225 423h63l-354 -669h-65l101 188l-265 481h64z" />
    <glyph glyph-name="Ydieresis.ss12" 
d="M253 770q-15 -15 -37 -15t-37 15t-15 37q0 21 15 35.5t37 14.5t36.5 -14.5t14.5 -35.5q0 -22 -14 -37zM414 770q-15 -15 -37 -15t-37 15t-15 37q0 20 15 35t37 15q21 0 36 -14.5t15 -35.5q0 -22 -14 -37zM296 246l225 423h63l-354 -669h-65l101 188l-265 481h64z" />
    <glyph glyph-name="Ygrave.ss12" 
d="M276 864l50 -139h-61l-67 139h78zM296 246l225 423h63l-354 -669h-65l101 188l-265 481h64z" />
    <glyph glyph-name="Y.ss13" horiz-adv-x="609" 
d="M326 169l210 500h63l-224 -519q-10 -22 -17 -36t-25.5 -40t-39 -42t-54 -29t-72.5 -13q-46 0 -104 18v53q49 -20 102 -20q80 0 128 73l-277 555h64z" />
    <glyph glyph-name="Yacute.ss13" horiz-adv-x="609" 
d="M342 859h78l-66 -139h-62zM326 169l210 500h63l-224 -519q-10 -22 -17 -36t-25.5 -40t-39 -42t-54 -29t-72.5 -13q-46 0 -104 18v53q49 -20 102 -20q80 0 128 73l-277 555h64z" />
    <glyph glyph-name="Ycircumflex.ss13" horiz-adv-x="609" 
d="M405 726l-86 91l-87 -91h-66l127 137h50l128 -137h-66zM326 169l210 500h63l-224 -519q-10 -22 -17 -36t-25.5 -40t-39 -42t-54 -29t-72.5 -13q-46 0 -104 18v53q49 -20 102 -20q80 0 128 73l-277 555h64z" />
    <glyph glyph-name="Ydieresis.ss13" horiz-adv-x="609" 
d="M275 766q-15 -15 -37 -15t-37 14.5t-15 36.5q0 20 15 35.5t37 15.5t37 -15t15 -36q0 -22 -15 -36zM400 751q-22 0 -37 14.5t-15 36.5q0 20 15 35.5t37 15.5q21 0 36 -15.5t15 -35.5q0 -22 -15 -36.5t-36 -14.5zM326 169l210 500h63l-224 -519q-10 -22 -17 -36t-25.5 -40
t-39 -42t-54 -29t-72.5 -13q-46 0 -104 18v53q49 -20 102 -20q80 0 128 73l-277 555h64z" />
    <glyph glyph-name="Ygrave.ss13" horiz-adv-x="609" 
d="M299 859l50 -139h-62l-66 139h78zM326 169l210 500h63l-224 -519q-10 -22 -17 -36t-25.5 -40t-39 -42t-54 -29t-72.5 -13q-46 0 -104 18v53q49 -20 102 -20q80 0 128 73l-277 555h64z" />
    <glyph glyph-name="A.ss14" horiz-adv-x="654" 
d="M84 0h-66l275 669h67l274 -669h-66l-240 609z" />
    <glyph glyph-name="Aacute.ss14" horiz-adv-x="654" 
d="M362 725h-62l50 138h78zM84 0h-66l275 669h67l274 -669h-66l-240 609z" />
    <glyph glyph-name="Abreve.ss14" horiz-adv-x="654" 
d="M327 727q-65 0 -105 37.5t-41 99.5h52q2 -41 28 -67.5t66 -26.5q41 0 67 26.5t27 67.5h53q0 -62 -40.5 -99.5t-106.5 -37.5zM84 0h-66l275 669h67l274 -669h-66l-240 609z" />
    <glyph glyph-name="Acircumflex.ss14" horiz-adv-x="654" 
d="M240 730h-66l127 137h50l128 -137h-67l-85 92zM84 0h-66l275 669h67l274 -669h-66l-240 609z" />
    <glyph glyph-name="Adieresis.ss14" horiz-adv-x="654" 
d="M283 770q-15 -15 -37 -15t-37 15t-15 37q0 20 15 35t37 15t37 -14.5t15 -35.5q0 -22 -15 -37zM408 755q-22 0 -37 15t-15 37q0 20 15 35t37 15q21 0 36 -15t15 -35q0 -22 -15 -37t-36 -15zM84 0h-66l275 669h67l274 -669h-66l-240 609z" />
    <glyph glyph-name="Agrave.ss14" horiz-adv-x="654" 
d="M307 864l50 -139h-62l-66 139h78zM84 0h-66l275 669h67l274 -669h-66l-240 609z" />
    <glyph glyph-name="Amacron.ss14" horiz-adv-x="654" 
d="M479 778h-305v48h305v-48zM84 0h-66l275 669h67l274 -669h-66l-240 609z" />
    <glyph glyph-name="Aogonek.ss14" horiz-adv-x="654" 
d="M563 -175q25 0 65 19l3 -44q-40 -21 -74 -21q-43 0 -67 23.5t-24 60.5q0 33 25.5 72t75.5 68l-239 606l-244 -609h-66l275 669h67l274 -669q-56 -21 -86.5 -57t-30.5 -70q0 -21 11.5 -34.5t34.5 -13.5z" />
    <glyph glyph-name="Aring.ss14" horiz-adv-x="654" 
d="M399 735q-29 -28 -72 -28t-73 28t-30 69t30 69t73 28t72 -28t29 -69t-29 -69zM283 761q18 -18 44 -18t44 17.5t18 42.5q0 27 -18 45t-44 18t-44.5 -18t-18.5 -45q0 -25 19 -42zM84 0h-66l275 669h67l274 -669h-66l-240 609z" />
    <glyph glyph-name="Atilde.ss14" horiz-adv-x="654" 
d="M408 747q-38 0 -84 34t-74 34t-45 -18.5t-19 -48.5h-48q1 50 28 80.5t75 30.5q33 0 60 -17t51 -34t48 -17q27 0 46 19t20 48h49q-2 -48 -31.5 -79.5t-75.5 -31.5zM84 0h-66l275 669h67l274 -669h-66l-240 609z" />
    <glyph glyph-name="i.loclTRK" horiz-adv-x="223" 
d="M145 570q-14 -14 -34 -14t-33.5 14t-13.5 34q0 19 13.5 32t33.5 13t33.5 -13t13.5 -32q0 -20 -13 -34zM141 0h-60v474h60v-474z" />
    <glyph glyph-name="j_acutecomb" horiz-adv-x="236" 
d="M152 536h-58l48 135h76zM-2 -214q-43 0 -79 12v53q38 -10 69 -10q56 0 81.5 28.5t25.5 89.5v515h59v-536q0 -71 -42 -111.5t-114 -40.5z" />
    <glyph glyph-name="germandbls.calt" horiz-adv-x="681" 
d="M410 -12q-72 0 -138 26v60q70 -30 139 -30q88 0 138.5 36t50.5 91q0 34 -22 61t-54 45.5t-63.5 38t-53.5 49t-22 67.5q0 54 43 94.5t119 52.5q-69 46 -161 46q-109 0 -170.5 -58t-61.5 -167v-400h-61v411q0 121 75.5 195t214.5 74q141 0 233 -86l-23 -47
q-69 -8 -110 -38.5t-41 -71.5q0 -28 22.5 -51t54 -41t63.5 -38.5t54.5 -55t22.5 -79.5q0 -84 -68 -134t-181 -50z" />
    <glyph glyph-name="iacute_j.loclNLD" horiz-adv-x="472" 
d="M134 671h76l-66 -135h-58zM376 671h77l-66 -135h-59zM147 0h-60v474h60v-474zM331 -41v515h59v-536q0 -71 -42 -111.5t-114 -40.5q-43 0 -79 12v53q38 -10 69 -10q56 0 81.5 28.5t25.5 89.5z" />
    <glyph glyph-name="j.short" horiz-adv-x="236" 
d="M126 549q-21 0 -34.5 13.5t-13.5 33.5t13.5 33t34.5 13q20 0 33 -13t13 -33t-13 -33.5t-33 -13.5zM-81 -202v53q38 -10 69 -10q56 0 81.5 28.5t25.5 89.5v515h59v-536q0 -71 -42 -111.5t-114 -40.5q-43 0 -79 12z" />
    <glyph glyph-name="a.ss02" horiz-adv-x="556" 
d="M264 484q221 0 221 -202v-282h-56v89q-30 -49 -86.5 -74.5t-122.5 -25.5q-84 0 -134 40t-50 106q0 63 46 101.5t129 38.5h217v6q0 73 -37.5 112.5t-127.5 39.5q-99 0 -184 -32v52q84 31 185 31zM234 39q83 0 138.5 44.5t55.5 130.5v15h-217q-57 0 -86.5 -25t-29.5 -67
q0 -46 37 -72t102 -26z" />
    <glyph glyph-name="aacute.ss02" horiz-adv-x="556" 
d="M291 671h76l-66 -135h-58zM264 484q221 0 221 -202v-282h-56v89q-30 -49 -86.5 -74.5t-122.5 -25.5q-84 0 -134 40t-50 106q0 63 46 101.5t129 38.5h217v6q0 73 -37.5 112.5t-127.5 39.5q-99 0 -184 -32v52q84 31 185 31zM234 39q83 0 138.5 44.5t55.5 130.5v15h-217
q-57 0 -86.5 -25t-29.5 -67q0 -46 37 -72t102 -26z" />
    <glyph glyph-name="abreve.ss02" horiz-adv-x="556" 
d="M274 534q-64 0 -103 36.5t-40 97.5h50q2 -42 27 -68t66 -26q40 0 65 26t26 68h50q0 -61 -39 -97.5t-102 -36.5zM264 484q221 0 221 -202v-282h-56v89q-30 -49 -86.5 -74.5t-122.5 -25.5q-84 0 -134 40t-50 106q0 63 46 101.5t129 38.5h217v6q0 73 -37.5 112.5
t-127.5 39.5q-99 0 -184 -32v52q84 31 185 31zM234 39q83 0 138.5 44.5t55.5 130.5v15h-217q-57 0 -86.5 -25t-29.5 -67q0 -46 37 -72t102 -26z" />
    <glyph glyph-name="acircumflex.ss02" horiz-adv-x="556" 
d="M356 535l-82 92l-84 -92h-59l119 132h48l118 -132h-60zM264 484q221 0 221 -202v-282h-56v89q-30 -49 -86.5 -74.5t-122.5 -25.5q-84 0 -134 40t-50 106q0 63 46 101.5t129 38.5h217v6q0 73 -37.5 112.5t-127.5 39.5q-99 0 -184 -32v52q84 31 185 31zM234 39
q83 0 138.5 44.5t55.5 130.5v15h-217q-57 0 -86.5 -25t-29.5 -67q0 -46 37 -72t102 -26z" />
    <glyph glyph-name="adieresis.ss02" horiz-adv-x="556" 
d="M197 544q-20 0 -34 14t-14 34t14 34t34 14q21 0 35 -14t14 -34t-14 -34t-35 -14zM350 544q-21 0 -35 14t-14 34t14 34t35 14q20 0 34 -14t14 -34t-14 -34t-34 -14zM264 484q221 0 221 -202v-282h-56v89q-30 -49 -86.5 -74.5t-122.5 -25.5q-84 0 -134 40t-50 106
q0 63 46 101.5t129 38.5h217v6q0 73 -37.5 112.5t-127.5 39.5q-99 0 -184 -32v52q84 31 185 31zM234 39q83 0 138.5 44.5t55.5 130.5v15h-217q-57 0 -86.5 -25t-29.5 -67q0 -46 37 -72t102 -26z" />
    <glyph glyph-name="agrave.ss02" horiz-adv-x="556" 
d="M254 671l48 -135h-59l-66 135h77zM264 484q221 0 221 -202v-282h-56v89q-30 -49 -86.5 -74.5t-122.5 -25.5q-84 0 -134 40t-50 106q0 63 46 101.5t129 38.5h217v6q0 73 -37.5 112.5t-127.5 39.5q-99 0 -184 -32v52q84 31 185 31zM234 39q83 0 138.5 44.5t55.5 130.5v15
h-217q-57 0 -86.5 -25t-29.5 -67q0 -46 37 -72t102 -26z" />
    <glyph glyph-name="amacron.ss02" horiz-adv-x="556" 
d="M140 620h267v-46h-267v46zM264 484q221 0 221 -202v-282h-56v89q-30 -49 -86.5 -74.5t-122.5 -25.5q-84 0 -134 40t-50 106q0 63 46 101.5t129 38.5h217v6q0 73 -37.5 112.5t-127.5 39.5q-99 0 -184 -32v52q84 31 185 31zM234 39q83 0 138.5 44.5t55.5 130.5v15h-217
q-57 0 -86.5 -25t-29.5 -67q0 -46 37 -72t102 -26z" />
    <glyph glyph-name="aogonek.ss02" horiz-adv-x="556" 
d="M485 282v-282h-2l2 -1q-56 -21 -87 -57t-31 -69q0 -21 12 -35t34 -14q26 0 64 20l4 -44q-38 -21 -74 -21q-42 0 -66.5 23.5t-24.5 59.5q0 35 28.5 76t84.5 71v80q-30 -49 -86.5 -74.5t-122.5 -25.5q-84 0 -134 40t-50 106q0 63 46 101.5t129 38.5h217v6q0 73 -37.5 112.5
t-127.5 39.5q-99 0 -184 -32v52q84 31 185 31q221 0 221 -202zM234 39q83 0 138.5 44.5t55.5 130.5v15h-217q-57 0 -86.5 -25t-29.5 -67q0 -46 37 -72t102 -26z" />
    <glyph glyph-name="aring.ss02" horiz-adv-x="556" 
d="M343 556q-28 -28 -70 -28t-71 27.5t-29 66.5q0 40 28.5 67.5t71.5 27.5q42 0 70 -27.5t28 -67.5q0 -39 -28 -66zM318 666q-19 18 -45 18t-44.5 -18t-18.5 -44q0 -25 18.5 -43t44.5 -18t44.5 18t18.5 43t-18 44zM264 484q221 0 221 -202v-282h-56v89q-30 -49 -86.5 -74.5
t-122.5 -25.5q-84 0 -134 40t-50 106q0 63 46 101.5t129 38.5h217v6q0 73 -37.5 112.5t-127.5 39.5q-99 0 -184 -32v52q84 31 185 31zM234 39q83 0 138.5 44.5t55.5 130.5v15h-217q-57 0 -86.5 -25t-29.5 -67q0 -46 37 -72t102 -26z" />
    <glyph glyph-name="atilde.ss02" horiz-adv-x="556" 
d="M205 618q-23 0 -38 -16t-16 -44h-47q2 52 29 77.5t68 25.5q40 0 79.5 -30.5t63.5 -30.5q55 0 60 60h46q-4 -52 -30.5 -78t-68.5 -26q-36 0 -77 31t-69 31zM264 484q221 0 221 -202v-282h-56v89q-30 -49 -86.5 -74.5t-122.5 -25.5q-84 0 -134 40t-50 106q0 63 46 101.5
t129 38.5h217v6q0 73 -37.5 112.5t-127.5 39.5q-99 0 -184 -32v52q84 31 185 31zM234 39q83 0 138.5 44.5t55.5 130.5v15h-217q-57 0 -86.5 -25t-29.5 -67q0 -46 37 -72t102 -26z" />
    <glyph glyph-name="g.ss04" horiz-adv-x="593" 
d="M196 74h205q80 0 129.5 -35t49.5 -94q0 -76 -75 -117t-218 -41q-131 0 -199 39.5t-68 106.5q0 40 25 68.5t70 41.5q-48 25 -48 71q0 54 62 75q-67 47 -67 125q0 76 64 122.5t172 46.5q62 0 109 -15q38 -1 75 20.5t58 52.5l35 -38q-38 -58 -104 -67q63 -45 63 -122
q0 -76 -63.5 -122.5t-172.5 -46.5q-69 0 -126 21q-48 -10 -48 -45q0 -21 20 -34t52 -13zM427 404q-48 33 -129 33t-129 -33t-48 -89q0 -57 48 -90.5t129 -33.5t129 33.5t48 90.5q0 56 -48 89zM273 -164h31q104 0 158 27.5t54 79.5q0 40 -33.5 62t-98.5 22h-175
q-65 -5 -96 -30t-31 -63q0 -45 49 -71.5t142 -26.5z" />
    <glyph glyph-name="gbreve.ss04" horiz-adv-x="593" 
d="M401 571q-40 -37 -103 -37t-102.5 36.5t-39.5 96.5h50q1 -42 26 -68t66 -26q40 0 65 26t26 68h51q0 -60 -39 -96zM196 74h205q80 0 129.5 -35t49.5 -94q0 -76 -75 -117t-218 -41q-131 0 -199 39.5t-68 106.5q0 40 25 68.5t70 41.5q-48 25 -48 71q0 54 62 75
q-67 47 -67 125q0 76 64 122.5t172 46.5q62 0 109 -15q38 -1 75 20.5t58 52.5l35 -38q-38 -58 -104 -67q63 -45 63 -122q0 -76 -63.5 -122.5t-172.5 -46.5q-69 0 -126 21q-48 -10 -48 -45q0 -21 20 -34t52 -13zM427 404q-48 33 -129 33t-129 -33t-48 -89q0 -57 48 -90.5
t129 -33.5t129 33.5t48 90.5q0 56 -48 89zM273 -164h31q104 0 158 27.5t54 79.5q0 40 -33.5 62t-98.5 22h-175q-65 -5 -96 -30t-31 -63q0 -45 49 -71.5t142 -26.5z" />
    <glyph glyph-name="gcircumflex.ss04" horiz-adv-x="593" 
d="M380 535l-81 92l-84 -92h-59l118 131h48l118 -131h-60zM196 74h205q80 0 129.5 -35t49.5 -94q0 -76 -75 -117t-218 -41q-131 0 -199 39.5t-68 106.5q0 40 25 68.5t70 41.5q-48 25 -48 71q0 54 62 75q-67 47 -67 125q0 76 64 122.5t172 46.5q62 0 109 -15q38 -1 75 20.5
t58 52.5l35 -38q-38 -58 -104 -67q63 -45 63 -122q0 -76 -63.5 -122.5t-172.5 -46.5q-69 0 -126 21q-48 -10 -48 -45q0 -21 20 -34t52 -13zM427 404q-48 33 -129 33t-129 -33t-48 -89q0 -57 48 -90.5t129 -33.5t129 33.5t48 90.5q0 56 -48 89zM273 -164h31q104 0 158 27.5
t54 79.5q0 40 -33.5 62t-98.5 22h-175q-65 -5 -96 -30t-31 -63q0 -45 49 -71.5t142 -26.5z" />
    <glyph glyph-name="uni0123.ss04" horiz-adv-x="593" 
d="M307 675h54l-36 -141h-64zM196 74h205q80 0 129.5 -35t49.5 -94q0 -76 -75 -117t-218 -41q-131 0 -199 39.5t-68 106.5q0 40 25 68.5t70 41.5q-48 25 -48 71q0 54 62 75q-67 47 -67 125q0 76 64 122.5t172 46.5q62 0 109 -15q38 -1 75 20.5t58 52.5l35 -38
q-38 -58 -104 -67q63 -45 63 -122q0 -76 -63.5 -122.5t-172.5 -46.5q-69 0 -126 21q-48 -10 -48 -45q0 -21 20 -34t52 -13zM427 404q-48 33 -129 33t-129 -33t-48 -89q0 -57 48 -90.5t129 -33.5t129 33.5t48 90.5q0 56 -48 89zM273 -164h31q104 0 158 27.5t54 79.5
q0 40 -33.5 62t-98.5 22h-175q-65 -5 -96 -30t-31 -63q0 -45 49 -71.5t142 -26.5z" />
    <glyph glyph-name="gdotaccent.ss04" horiz-adv-x="593" 
d="M332 570q-14 -14 -34 -14t-33.5 13.5t-13.5 33.5t13.5 33t33.5 13t33.5 -13t13.5 -33t-13 -33zM196 74h205q80 0 129.5 -35t49.5 -94q0 -76 -75 -117t-218 -41q-131 0 -199 39.5t-68 106.5q0 40 25 68.5t70 41.5q-48 25 -48 71q0 54 62 75q-67 47 -67 125q0 76 64 122.5
t172 46.5q62 0 109 -15q38 -1 75 20.5t58 52.5l35 -38q-38 -58 -104 -67q63 -45 63 -122q0 -76 -63.5 -122.5t-172.5 -46.5q-69 0 -126 21q-48 -10 -48 -45q0 -21 20 -34t52 -13zM427 404q-48 33 -129 33t-129 -33t-48 -89q0 -57 48 -90.5t129 -33.5t129 33.5t48 90.5
q0 56 -48 89zM273 -164h31q104 0 158 27.5t54 79.5q0 40 -33.5 62t-98.5 22h-175q-65 -5 -96 -30t-31 -63q0 -45 49 -71.5t142 -26.5z" />
    <glyph glyph-name="germandbls.ss06" 
d="M139 -158h-58v575q0 132 65.5 208.5t178.5 76.5q85 0 138 -43t53 -110q0 -43 -24 -78t-52 -52.5t-52 -36t-24 -32.5q0 -16 30.5 -33.5t67 -34t67 -52.5t30.5 -85q0 -70 -56 -113.5t-141 -43.5q-77 0 -136 26v56q61 -28 137 -28q63 0 100 30t37 77q0 31 -19.5 54.5
t-48 37.5t-56.5 27.5t-47.5 32.5t-19.5 44q0 26 23.5 50t51 40.5t51 45t23.5 63.5q0 49 -37.5 77.5t-95.5 28.5q-86 0 -136 -62.5t-50 -175.5v-570z" />
    <glyph glyph-name="a.ss09" horiz-adv-x="635" 
d="M579 42q27 0 52 13v-50q-28 -16 -63 -16q-47 0 -72 28.5t-25 74.5v9q-30 -52 -81 -82t-115 -30q-100 0 -166 71.5t-66 178.5q0 105 67 174.5t168 69.5q62 0 112 -29t80 -78v98h57v-363q0 -69 52 -69zM286 43q78 0 131 56.5t53 139.5q0 81 -53 136t-131 55
q-79 0 -131 -54.5t-52 -137.5t52 -139t131 -56z" />
    <glyph glyph-name="aacute.ss09" horiz-adv-x="635" 
d="M311 671h77l-66 -135h-59zM579 42q27 0 52 13v-50q-28 -16 -63 -16q-47 0 -72 28.5t-25 74.5v9q-30 -52 -81 -82t-115 -30q-100 0 -166 71.5t-66 178.5q0 105 67 174.5t168 69.5q62 0 112 -29t80 -78v98h57v-363q0 -69 52 -69zM286 43q78 0 131 56.5t53 139.5
q0 81 -53 136t-131 55q-79 0 -131 -54.5t-52 -137.5t52 -139t131 -56z" />
    <glyph glyph-name="abreve.ss09" horiz-adv-x="635" 
d="M294 534q-63 0 -102 36.5t-40 97.5h50q1 -42 26.5 -68t65.5 -26t65.5 26t26.5 68h50q0 -61 -39 -97.5t-103 -36.5zM579 42q27 0 52 13v-50q-28 -16 -63 -16q-47 0 -72 28.5t-25 74.5v9q-30 -52 -81 -82t-115 -30q-100 0 -166 71.5t-66 178.5q0 105 67 174.5t168 69.5
q62 0 112 -29t80 -78v98h57v-363q0 -69 52 -69zM286 43q78 0 131 56.5t53 139.5q0 81 -53 136t-131 55q-79 0 -131 -54.5t-52 -137.5t52 -139t131 -56z" />
    <glyph glyph-name="acircumflex.ss09" horiz-adv-x="635" 
d="M377 535l-82 92l-84 -92h-59l118 132h48l119 -132h-60zM579 42q27 0 52 13v-50q-28 -16 -63 -16q-47 0 -72 28.5t-25 74.5v9q-30 -52 -81 -82t-115 -30q-100 0 -166 71.5t-66 178.5q0 105 67 174.5t168 69.5q62 0 112 -29t80 -78v98h57v-363q0 -69 52 -69zM286 43
q78 0 131 56.5t53 139.5q0 81 -53 136t-131 55q-79 0 -131 -54.5t-52 -137.5t52 -139t131 -56z" />
    <glyph glyph-name="adieresis.ss09" horiz-adv-x="635" 
d="M253 558q-14 -14 -35 -14t-34.5 14t-13.5 34t13.5 34t34.5 14t35 -14t14 -34t-14 -34zM371 544q-21 0 -35 14t-14 34t14 34t35 14q20 0 34 -14t14 -34t-14 -34t-34 -14zM579 42q27 0 52 13v-50q-28 -16 -63 -16q-47 0 -72 28.5t-25 74.5v9q-30 -52 -81 -82t-115 -30
q-100 0 -166 71.5t-66 178.5q0 105 67 174.5t168 69.5q62 0 112 -29t80 -78v98h57v-363q0 -69 52 -69zM286 43q78 0 131 56.5t53 139.5q0 81 -53 136t-131 55q-79 0 -131 -54.5t-52 -137.5t52 -139t131 -56z" />
    <glyph glyph-name="agrave.ss09" horiz-adv-x="635" 
d="M275 671l47 -135h-58l-66 135h77zM579 42q27 0 52 13v-50q-28 -16 -63 -16q-47 0 -72 28.5t-25 74.5v9q-30 -52 -81 -82t-115 -30q-100 0 -166 71.5t-66 178.5q0 105 67 174.5t168 69.5q62 0 112 -29t80 -78v98h57v-363q0 -69 52 -69zM286 43q78 0 131 56.5t53 139.5
q0 81 -53 136t-131 55q-79 0 -131 -54.5t-52 -137.5t52 -139t131 -56z" />
    <glyph glyph-name="amacron.ss09" horiz-adv-x="635" 
d="M161 620h267v-46h-267v46zM579 42q27 0 52 13v-50q-28 -16 -63 -16q-47 0 -72 28.5t-25 74.5v9q-30 -52 -81 -82t-115 -30q-100 0 -166 71.5t-66 178.5q0 105 67 174.5t168 69.5q62 0 112 -29t80 -78v98h57v-363q0 -69 52 -69zM286 43q78 0 131 56.5t53 139.5
q0 81 -53 136t-131 55q-79 0 -131 -54.5t-52 -137.5t52 -139t131 -56z" />
    <glyph glyph-name="aogonek.ss09" horiz-adv-x="635" 
d="M608 -5q-52 -21 -80 -56t-28 -66q0 -21 11.5 -35t33.5 -14q29 0 65 20l4 -44q-38 -22 -75 -22q-42 0 -66 24t-24 60q0 31 21.5 67t64.5 65q-64 18 -64 98v9q-30 -52 -81 -82t-115 -30q-100 0 -166 71.5t-66 178.5q0 105 67 174.5t168 69.5q62 0 112 -29t80 -78v98h57
v-363q0 -69 52 -69q27 0 52 13v-50q-7 -4 -23 -10zM286 43q78 0 131 56.5t53 139.5q0 81 -53 136t-131 55q-79 0 -131 -54.5t-52 -137.5t52 -139t131 -56z" />
    <glyph glyph-name="aring.ss09" horiz-adv-x="635" 
d="M364 556q-29 -28 -71 -28t-70.5 27.5t-28.5 66.5q0 40 28.5 67.5t70.5 27.5t70.5 -27.5t28.5 -67.5q0 -39 -28 -66zM338 666q-19 18 -45 18t-44.5 -18.5t-18.5 -43.5t18.5 -43t44.5 -18t44.5 18t18.5 43q0 26 -18 44zM579 42q27 0 52 13v-50q-28 -16 -63 -16
q-47 0 -72 28.5t-25 74.5v9q-30 -52 -81 -82t-115 -30q-100 0 -166 71.5t-66 178.5q0 105 67 174.5t168 69.5q62 0 112 -29t80 -78v98h57v-363q0 -69 52 -69zM286 43q78 0 131 56.5t53 139.5q0 81 -53 136t-131 55q-79 0 -131 -54.5t-52 -137.5t52 -139t131 -56z" />
    <glyph glyph-name="atilde.ss09" horiz-adv-x="635" 
d="M226 618q-23 0 -38 -16t-16 -44h-47q2 51 28.5 77t67.5 26q40 0 80 -30.5t64 -30.5q55 0 60 60h46q-4 -52 -30.5 -78t-68.5 -26q-36 0 -77 31t-69 31zM579 42q27 0 52 13v-50q-28 -16 -63 -16q-47 0 -72 28.5t-25 74.5v9q-30 -52 -81 -82t-115 -30q-100 0 -166 71.5
t-66 178.5q0 105 67 174.5t168 69.5q62 0 112 -29t80 -78v98h57v-363q0 -69 52 -69zM286 43q78 0 131 56.5t53 139.5q0 81 -53 136t-131 55q-79 0 -131 -54.5t-52 -137.5t52 -139t131 -56z" />
    <glyph glyph-name="u.ss09" horiz-adv-x="620" 
d="M563 43q27 0 53 13v-51q-28 -16 -64 -16q-47 0 -72.5 28.5t-25.5 74.5v3q-29 -53 -78.5 -79.5t-105.5 -26.5q-87 0 -142.5 58.5t-55.5 150.5v276h60v-270q0 -69 43.5 -115t108.5 -46q70 0 118 53t48 132v246h61v-363q0 -68 52 -68z" />
    <glyph glyph-name="uacute.ss09" horiz-adv-x="620" 
d="M309 671h76l-66 -135h-58zM563 43q27 0 53 13v-51q-28 -16 -64 -16q-47 0 -72.5 28.5t-25.5 74.5v3q-29 -53 -78.5 -79.5t-105.5 -26.5q-87 0 -142.5 58.5t-55.5 150.5v276h60v-270q0 -69 43.5 -115t108.5 -46q70 0 118 53t48 132v246h61v-363q0 -68 52 -68z" />
    <glyph glyph-name="ubreve.ss09" horiz-adv-x="620" 
d="M292 534q-64 0 -103 36.5t-40 97.5h50q2 -42 27 -68t66 -26q40 0 65 26t26 68h50q0 -61 -39 -97.5t-102 -36.5zM563 43q27 0 53 13v-51q-28 -16 -64 -16q-47 0 -72.5 28.5t-25.5 74.5v3q-29 -53 -78.5 -79.5t-105.5 -26.5q-87 0 -142.5 58.5t-55.5 150.5v276h60v-270
q0 -69 43.5 -115t108.5 -46q70 0 118 53t48 132v246h61v-363q0 -68 52 -68z" />
    <glyph glyph-name="ucircumflex.ss09" horiz-adv-x="620" 
d="M374 535l-82 92l-84 -92h-59l119 132h48l118 -132h-60zM563 43q27 0 53 13v-51q-28 -16 -64 -16q-47 0 -72.5 28.5t-25.5 74.5v3q-29 -53 -78.5 -79.5t-105.5 -26.5q-87 0 -142.5 58.5t-55.5 150.5v276h60v-270q0 -69 43.5 -115t108.5 -46q70 0 118 53t48 132v246h61
v-363q0 -68 52 -68z" />
    <glyph glyph-name="udieresis.ss09" horiz-adv-x="620" 
d="M215 544q-20 0 -34 14t-14 34t14 34t34 14q21 0 35 -14t14 -34t-14 -34t-35 -14zM368 544q-21 0 -35 14t-14 34t14 34t35 14q20 0 34 -14t14 -34t-14 -34t-34 -14zM563 43q27 0 53 13v-51q-28 -16 -64 -16q-47 0 -72.5 28.5t-25.5 74.5v3q-29 -53 -78.5 -79.5
t-105.5 -26.5q-87 0 -142.5 58.5t-55.5 150.5v276h60v-270q0 -69 43.5 -115t108.5 -46q70 0 118 53t48 132v246h61v-363q0 -68 52 -68z" />
    <glyph glyph-name="ugrave.ss09" horiz-adv-x="620" 
d="M272 671l48 -135h-59l-66 135h77zM563 43q27 0 53 13v-51q-28 -16 -64 -16q-47 0 -72.5 28.5t-25.5 74.5v3q-29 -53 -78.5 -79.5t-105.5 -26.5q-87 0 -142.5 58.5t-55.5 150.5v276h60v-270q0 -69 43.5 -115t108.5 -46q70 0 118 53t48 132v246h61v-363q0 -68 52 -68z" />
    <glyph glyph-name="uhungarumlaut.ss09" horiz-adv-x="620" 
d="M231 671h73l-59 -135h-52zM380 671h73l-72 -135h-54zM563 43q27 0 53 13v-51q-28 -16 -64 -16q-47 0 -72.5 28.5t-25.5 74.5v3q-29 -53 -78.5 -79.5t-105.5 -26.5q-87 0 -142.5 58.5t-55.5 150.5v276h60v-270q0 -69 43.5 -115t108.5 -46q70 0 118 53t48 132v246h61v-363
q0 -68 52 -68z" />
    <glyph glyph-name="umacron.ss09" horiz-adv-x="620" 
d="M158 620h267v-46h-267v46zM563 43q27 0 53 13v-51q-28 -16 -64 -16q-47 0 -72.5 28.5t-25.5 74.5v3q-29 -53 -78.5 -79.5t-105.5 -26.5q-87 0 -142.5 58.5t-55.5 150.5v276h60v-270q0 -69 43.5 -115t108.5 -46q70 0 118 53t48 132v246h61v-363q0 -68 52 -68z" />
    <glyph glyph-name="uogonek.ss09" horiz-adv-x="620" 
d="M592 -5q-51 -22 -78 -56t-27 -65q0 -22 11.5 -36t33.5 -14q27 0 65 21l4 -44q-38 -22 -75 -22q-42 0 -66 23.5t-24 60.5q0 30 21 65.5t63 64.5q-32 9 -49 35.5t-17 63.5v3q-29 -53 -78.5 -79.5t-105.5 -26.5q-87 0 -142.5 58.5t-55.5 150.5v276h60v-270q0 -69 43.5 -115
t108.5 -46q70 0 118 53t48 132v246h61v-363q0 -68 52 -68q27 0 53 13v-51q-4 -2 -11.5 -5z" />
    <glyph glyph-name="uring.ss09" horiz-adv-x="620" 
d="M361 556q-28 -28 -70 -28t-71 27.5t-29 66.5q0 40 28.5 67.5t71.5 27.5q42 0 70 -27.5t28 -67.5q0 -39 -28 -66zM291 684q-26 0 -44.5 -18t-18.5 -44q0 -25 18.5 -43t44.5 -18t44 18t18 43q0 26 -18.5 44t-43.5 18zM563 43q27 0 53 13v-51q-28 -16 -64 -16
q-47 0 -72.5 28.5t-25.5 74.5v3q-29 -53 -78.5 -79.5t-105.5 -26.5q-87 0 -142.5 58.5t-55.5 150.5v276h60v-270q0 -69 43.5 -115t108.5 -46q70 0 118 53t48 132v246h61v-363q0 -68 52 -68z" />
    <glyph glyph-name="utilde.ss09" horiz-adv-x="620" 
d="M223 618q-23 0 -38 -16t-16 -44h-47q2 52 29 77.5t68 25.5q40 0 79.5 -30.5t63.5 -30.5q26 0 42 16t17 44h47q-4 -52 -30.5 -78t-68.5 -26q-36 0 -77 31t-69 31zM563 43q27 0 53 13v-51q-28 -16 -64 -16q-47 0 -72.5 28.5t-25.5 74.5v3q-29 -53 -78.5 -79.5t-105.5 -26.5
q-87 0 -142.5 58.5t-55.5 150.5v276h60v-270q0 -69 43.5 -115t108.5 -46q70 0 118 53t48 132v246h61v-363q0 -68 52 -68z" />
    <glyph glyph-name="y.ss15" horiz-adv-x="544" 
d="M275 55l189 419h63l-311 -678h-64l92 194l-228 484h62z" />
    <glyph glyph-name="yacute.ss15" horiz-adv-x="544" 
d="M288 671h76l-66 -135h-58zM275 55l189 419h63l-311 -678h-64l92 194l-228 484h62z" />
    <glyph glyph-name="ycircumflex.ss15" horiz-adv-x="544" 
d="M353 535l-82 92l-84 -92h-59l119 132h48l118 -132h-60zM275 55l189 419h63l-311 -678h-64l92 194l-228 484h62z" />
    <glyph glyph-name="ydieresis.ss15" horiz-adv-x="544" 
d="M194 544q-20 0 -34 14t-14 34t14 34t34 14q22 0 35.5 -14t13.5 -34t-13.5 -34t-35.5 -14zM382 558q-15 -14 -35 -14t-34.5 14t-14.5 34t14.5 34t34.5 14t34.5 -14t14.5 -34t-14 -34zM275 55l189 419h63l-311 -678h-64l92 194l-228 484h62z" />
    <glyph glyph-name="ygrave.ss15" horiz-adv-x="544" 
d="M251 671l48 -135h-59l-66 135h77zM275 55l189 419h63l-311 -678h-64l92 194l-228 484h62z" />
    <glyph glyph-name="IJ.loclNLD" horiz-adv-x="712" 
d="M93 0v669h61v-669h-61zM382 -11q-65 0 -127 20v54q65 -19 121 -19q93 0 142 50t49 128v447h60v-457q0 -102 -64 -162.5t-181 -60.5z" />
    <glyph glyph-name="ij.loclNLD" horiz-adv-x="465" 
d="M111 556q-20 0 -33.5 14t-13.5 34q0 19 13.5 32t33.5 13t33.5 -13t13.5 -32q0 -20 -13.5 -34t-33.5 -14zM355 556q-20 0 -33.5 14t-13.5 34q0 19 13.5 32t33.5 13q19 0 32.5 -13t13.5 -32q0 -20 -13.5 -34t-32.5 -14zM141 0h-60v474h60v-474zM149 -202v53q38 -10 69 -10
q56 0 81.5 28.5t25.5 89.5v515h59v-536q0 -71 -42 -111.5t-114 -40.5q-43 0 -79 12z" />
    <glyph glyph-name="uni0414.loclBGR" horiz-adv-x="731" 
d="M405 669l241 -616h68v-186h-58v133h-581v-133h-58v186h68l250 616h70zM580 53l-209 560l-222 -560h431z" />
    <glyph glyph-name="uni041B.loclBGR" horiz-adv-x="654" 
d="M84 0h-66l275 669h67l274 -669h-66l-240 609z" />
    <glyph glyph-name="uni0423.loclBGR" 
d="M296 246l225 423h63l-354 -669h-65l101 188l-265 481h64z" />
    <glyph glyph-name="uni0424.loclBGR" horiz-adv-x="975" 
d="M662 646q124 0 192.5 -83t68.5 -229q0 -149 -67.5 -233t-191.5 -84q-77 0 -147 29v-134h-57v134q-70 -29 -148 -29q-124 0 -192 84t-68 233q0 145 69 228.5t193 83.5q75 0 146 -29v131h57v-130q67 28 145 28zM111 335q0 -128 56 -198.5t158 -70.5q78 0 136 30v470
q-67 30 -140 30q-100 0 -155 -69t-55 -192zM652 66q102 0 157.5 70.5t55.5 198.5q0 123 -55 192t-155 69q-74 0 -139 -29v-471q60 -30 136 -30z" />
    <glyph glyph-name="uni0430.loclBGR" horiz-adv-x="611" 
d="M473 373v101h57v-474h-57v102q-31 -52 -81.5 -82.5t-114.5 -30.5q-100 0 -167 70.5t-67 176.5t67 177t168 71q63 0 114 -30t81 -81zM156 98q52 -55 131 -55t132 56.5t53 139.5q0 81 -53 136t-131 55q-79 0 -132 -55.5t-53 -138.5t53 -138z" />
    <glyph glyph-name="uni0432.loclBGR" horiz-adv-x="600" 
d="M427 370q61 -15 96 -60.5t35 -111.5q0 -95 -68 -152t-172 -57q-113 0 -181.5 63t-68.5 174v249q0 111 67 176t174 65q98 0 160.5 -53t62.5 -136q0 -55 -29 -97t-76 -60zM310 664q-82 0 -132.5 -52t-50.5 -135v-89h196q68 0 109.5 35t41.5 96q0 66 -46 105.5t-118 39.5z
M318 39q78 0 129 43.5t51 116.5q0 66 -44.5 104t-117.5 38h-209v-112q0 -86 51.5 -138t139.5 -52z" />
    <glyph glyph-name="uni0433.loclBGR" horiz-adv-x="490" 
d="M233 -11q-93 0 -144 34t-51 99q0 49 30.5 82t83.5 44l140 28q25 5 41 11t31.5 22.5t15.5 41.5q0 81 -140 81q-95 0 -176 -28l-6 52q93 28 188 28q96 0 147 -34.5t51 -97.5q0 -97 -133 -121l-138 -26q-34 -7 -52.5 -28.5t-18.5 -50.5q0 -85 131 -85q105 0 205 43l5 -52
q-106 -43 -210 -43z" />
    <glyph glyph-name="uni0434.loclBGR" horiz-adv-x="611" 
d="M473 376v98h58v-445q0 -118 -66 -180t-189 -62q-106 0 -190 49v59q84 -56 187 -56q96 0 148 49.5t52 140.5v77q-30 -52 -81 -81.5t-115 -29.5q-100 0 -166.5 69.5t-66.5 173.5q0 105 67 175t167 70q63 0 113.5 -28.5t81.5 -78.5zM287 48q80 0 132 54.5t52 137.5
q0 82 -52 136t-131 54t-131.5 -55t-52.5 -138q0 -82 52 -135.5t131 -53.5z" />
    <glyph glyph-name="uni0436.loclBGR" horiz-adv-x="752" 
d="M464 234l277 -234h-80l-257 217v-217h-56v216l-256 -216h-82l279 232l-269 242h75l253 -230v230h56v-231l253 231h75z" />
    <glyph glyph-name="uni0437.loclBGR" horiz-adv-x="511" 
d="M345 150q60 -16 94.5 -58.5t34.5 -105.5q0 -90 -68 -144.5t-178 -54.5q-120 0 -202 47v54q36 -20 94 -34t108 -14q83 0 135 40t52 106q0 62 -45.5 97t-123.5 35h-144v50h138q66 0 109 36.5t43 94.5q0 59 -44.5 95.5t-119.5 36.5q-92 0 -185 -49v52q83 50 190 50
q100 0 159 -49.5t59 -127.5q0 -54 -28.5 -95.5t-77.5 -61.5z" />
    <glyph glyph-name="uni0438.loclBGR" 
d="M450 229v245h60v-474h-58v97q-29 -54 -78.5 -80.5t-105.5 -26.5q-87 0 -141.5 58t-54.5 150v276h59v-270q0 -69 43 -114.5t108 -45.5q70 0 119 53t49 132z" />
    <glyph glyph-name="uni0439.loclBGR" 
d="M291 532q-65 0 -103 36.5t-39 98.5h51q1 -49 25.5 -73t65.5 -24t65.5 24t25.5 73h51q-2 -62 -40 -98.5t-102 -36.5zM450 229v245h60v-474h-58v97q-29 -54 -78.5 -80.5t-105.5 -26.5q-87 0 -141.5 58t-54.5 150v276h59v-270q0 -69 43 -114.5t108 -45.5q70 0 119 53t49 132
z" />
    <glyph glyph-name="uni043A.loclBGR" horiz-adv-x="504" 
d="M201 238l293 -238h-82l-272 220v-220h-59v701h59v-451l268 224h76z" />
    <glyph glyph-name="uni043B.loclBGR" horiz-adv-x="539" 
d="M86 0h-68l217 474h70l216 -474h-69l-182 410z" />
    <glyph glyph-name="uni043F.loclBGR" 
d="M321 483q85 0 141 -57.5t56 -143.5v-282h-59v269q0 69 -43 114.5t-107 45.5q-72 0 -120 -55.5t-48 -138.5v-235h-60v474h58v-98q29 54 77.5 80.5t104.5 26.5z" />
    <glyph glyph-name="uni0442.loclBGR" horiz-adv-x="916" 
d="M657 483q83 0 135 -53t52 -137v-293h-59v284q0 65 -38.5 105t-99.5 40q-67 0 -110.5 -46.5t-43.5 -125.5v-257h-60v274q0 70 -36 112.5t-100 42.5q-67 0 -111.5 -48t-44.5 -125v-256h-60v474h58v-88q26 45 71.5 71t98.5 26q56 0 101 -28.5t64 -77.5q26 48 75.5 77
t107.5 29z" />
    <glyph glyph-name="uni0446.loclBGR" horiz-adv-x="629" 
d="M581 43h46v-170h-58v116h-13q-45 0 -71 28.5t-27 82.5q-28 -55 -79 -83t-108 -28q-88 0 -143.5 58.5t-55.5 150.5v276h60v-270q0 -69 43 -115t108 -46q69 0 118 51t49 127v253h61v-345q0 -86 70 -86z" />
    <glyph glyph-name="uni0448.loclBGR" horiz-adv-x="960" 
d="M901 43q26 0 55 13v-51q-28 -16 -66 -16q-40 0 -65 26.5t-28 78.5q-26 -49 -75.5 -77t-106.5 -28q-60 0 -105.5 33t-63.5 88q-24 -56 -74 -88.5t-109 -32.5q-84 0 -137.5 58t-53.5 151v276h60v-270q0 -71 39.5 -116t102.5 -45q67 0 112 49t45 123v259h61v-283
q0 -65 38 -106.5t99 -41.5q67 0 114 49t47 123v259h61v-355q0 -76 50 -76z" />
    <glyph glyph-name="uni0449.loclBGR" horiz-adv-x="970" 
d="M921 43h46v-170h-58v116h-13q-45 0 -71 28.5t-27 82.5q-25 -52 -74.5 -81.5t-107.5 -29.5q-60 0 -106.5 33t-63.5 87q-24 -56 -74 -88t-109 -32q-84 0 -137.5 58t-53.5 151v276h60v-270q0 -71 39.5 -116t102.5 -45q66 0 111.5 49t45.5 123v259h61v-283q0 -65 38 -106.5
t98 -41.5q67 0 114.5 49.5t47.5 122.5v259h61v-345q0 -86 70 -86z" />
    <glyph glyph-name="uni044C.loclBGR" horiz-adv-x="576" 
d="M310 416q96 0 159.5 -61t63.5 -152q0 -93 -67 -153.5t-165 -60.5q-101 0 -166 62t-65 158v265h58v-150q27 43 75 67.5t107 24.5zM302 39q74 0 123.5 46.5t49.5 116.5t-50 117t-124 47t-123.5 -46.5t-49.5 -115.5q0 -70 50 -117.5t124 -47.5z" />
    <glyph glyph-name="uni044A.loclBGR" horiz-adv-x="658" 
d="M391 416q96 0 160 -61t64 -152q0 -93 -67 -153.5t-166 -60.5q-100 0 -165.5 62.5t-65.5 157.5v210h-136v55h194v-150q27 43 75 67.5t107 24.5zM383 39q74 0 123.5 46.5t49.5 116.5t-49.5 117t-124.5 47q-74 0 -123.5 -46.5t-49.5 -115.5q0 -70 50 -117.5t124 -47.5z" />
    <glyph glyph-name="uni044E.loclBGR" horiz-adv-x="772" 
d="M480 484q107 0 178 -71t71 -177t-71 -176.5t-178 -70.5q-100 0 -169.5 63t-77.5 160h-92v-212h-60v701h60v-436h93q10 95 79 157t167 62zM346 99q54 -56 135 -56t135 55.5t54 137.5q0 83 -54 138.5t-135 55.5t-135.5 -55.5t-54.5 -138.5q0 -82 55 -137z" />
    <glyph glyph-name="uni0431.loclSRB" horiz-adv-x="579" 
d="M307 461q107 -14 168 -74t61 -156q0 -107 -69.5 -174.5t-177.5 -67.5t-177 66.5t-69 168.5q0 75 38.5 132t103.5 82q-57 13 -88 47.5t-31 83.5q0 59 42.5 96.5t112.5 37.5q18 0 64.5 -5t70.5 -5q64 0 140 25l5 -55q-64 -22 -130 -22q-26 0 -72.5 5t-62.5 5
q-50 0 -78.5 -23.5t-28.5 -62.5q0 -17 6 -31t13 -23.5t22.5 -17.5t25 -12t30.5 -8.5t28 -5.5t29 -3.5t24 -2.5zM288 42q80 0 133 52.5t53 131.5t-53 130t-133 51t-132 -51t-52 -130q0 -80 52 -132t132 -52z" />
    <glyph glyph-name="uni0430.loclBGR.ss09" horiz-adv-x="635" 
d="M575 42q27 0 52 13v-50q-28 -16 -59 -16q-45 0 -69.5 29t-24.5 74v14q-30 -54 -81.5 -85.5t-117.5 -31.5q-100 0 -166 71.5t-66 178.5q0 105 67 174.5t168 69.5q62 0 112 -29t80 -78v98h57v-363q0 -69 48 -69zM286 43q78 0 131 56.5t53 139.5q0 81 -53 136t-131 55
q-79 0 -131 -54.5t-52 -137.5t52 -139t131 -56z" />
    <glyph glyph-name="uni0438.loclBGR.ss09" horiz-adv-x="620" 
d="M559 43q27 0 53 13v-51q-28 -16 -60 -16q-45 0 -70 28.5t-25 74.5v8q-29 -56 -79.5 -83.5t-107.5 -27.5q-87 0 -142.5 58.5t-55.5 150.5v276h60v-270q0 -69 43.5 -115t108.5 -46q70 0 118 53t48 132v246h61v-363q0 -68 48 -68z" />
    <glyph glyph-name="uni0439.loclBGR.ss09" horiz-adv-x="620" 
d="M291 534q-64 0 -103 36t-40 97h51q1 -42 26 -68t66 -26q40 0 65 26t26 68h51q-1 -60 -40 -96.5t-102 -36.5zM563 43q27 0 53 13v-51q-28 -16 -64 -16q-45 0 -70 28.5t-25 74.5v8q-29 -56 -79.5 -83.5t-107.5 -27.5q-87 0 -142.5 58.5t-55.5 150.5v276h60v-270
q0 -69 43.5 -115t108.5 -46q70 0 118 53t48 132v246h61v-363q0 -68 52 -68z" />
    <glyph glyph-name="zero.zero" horiz-adv-x="626" 
d="M314 680q113 0 186.5 -96t73.5 -250q0 -153 -73.5 -249t-186.5 -96q-115 0 -188.5 96t-73.5 249q0 154 73.5 250t188.5 96zM108 334q0 -134 62 -217l270 456q-54 57 -126 57q-89 0 -147.5 -82.5t-58.5 -213.5zM314 39q89 0 146.5 82t57.5 213q0 129 -55 209l-269 -454
q52 -50 120 -50z" />
    <glyph glyph-name="zero.lf" horiz-adv-x="629" 
d="M315 -11q-115 0 -189 95.5t-74 249.5t73.5 250t189.5 96q115 0 188.5 -96t73.5 -250q0 -153 -73.5 -249t-188.5 -96zM315 44q88 0 144.5 80.5t56.5 209.5t-56.5 209.5t-144.5 80.5t-145 -80.5t-57 -209.5t57 -209.5t145 -80.5z" />
    <glyph glyph-name="one.lf" horiz-adv-x="361" 
d="M20 612l197 57h42v-669h-60v610l-179 -52v54z" />
    <glyph glyph-name="two.lf" horiz-adv-x="545" 
d="M302 207l-174 -155h373v-53h-455v48l228 211q4 4 36 32t44 41t33.5 39.5t30 51.5t8.5 52q0 66 -45 109.5t-114 43.5t-114.5 -47.5t-50.5 -122.5l-56 8q6 97 68 156t155 59q96 0 156.5 -58.5t60.5 -144.5q0 -25 -5.5 -48.5t-20 -47.5t-24 -40t-34 -40.5l-32.5 -32.5
t-37 -33.5t-31 -27.5z" />
    <glyph glyph-name="three.lf" horiz-adv-x="558" 
d="M296 422q95 0 156 -59.5t61 -149.5q0 -96 -68.5 -160t-171.5 -64q-93 0 -160 53t-82 142l56 13q11 -70 63.5 -113t123.5 -43q75 0 126.5 49.5t51.5 123.5q0 71 -48 119t-124 48q-66 0 -126 -42l-28 37l277 240h-329v52h404v-49l-233 -204q28 7 51 7z" />
    <glyph glyph-name="four.lf" horiz-adv-x="574" 
d="M448 228h92v-52h-92v-176h-59v176h-368v48l355 445h72v-441zM389 610l-297 -382h297v382z" />
    <glyph glyph-name="five.lf" horiz-adv-x="562" 
d="M293 430q98 0 162.5 -61.5t64.5 -156.5t-67.5 -159t-171.5 -64q-93 0 -160 52.5t-83 139.5l56 14q12 -71 64.5 -112.5t122.5 -41.5q75 0 127 49.5t52 124.5q0 74 -49 120.5t-128 46.5q-93 0 -167 -77l-48 26l42 338h370v-52h-321l-33 -250q74 63 167 63z" />
    <glyph glyph-name="six.lf" horiz-adv-x="556" 
d="M292 444q97 0 164.5 -64.5t67.5 -160.5q0 -99 -70 -164.5t-173 -65.5q-104 0 -173.5 66.5t-69.5 165.5q0 96 81 205l184 243h70l-196 -256q49 31 115 31zM280 39q77 0 130 51t53 128t-54 128t-131 51t-128.5 -50t-51.5 -126q0 -77 52.5 -129.5t129.5 -52.5z" />
    <glyph glyph-name="seven.lf" horiz-adv-x="474" 
d="M27 616v53h429v-53l-326 -616h-70l331 616h-364z" />
    <glyph glyph-name="eight.lf" horiz-adv-x="618" 
d="M420 352q68 -18 108.5 -63.5t40.5 -106.5q0 -85 -72.5 -139t-187.5 -54q-114 0 -186.5 53.5t-72.5 137.5q0 62 40.5 108t109.5 63q-57 17 -91 57.5t-34 93.5q0 77 66.5 127.5t167.5 50.5t168 -51t67 -127q0 -52 -33.5 -92.5t-90.5 -57.5zM132 499q0 -55 48.5 -92
t121.5 -37q79 0 131.5 37.5t52.5 93.5q0 57 -50.5 93.5t-126.5 36.5t-126.5 -37.5t-50.5 -94.5zM309 39q85 0 140.5 40.5t55.5 105.5q0 62 -55 101t-140 39q-86 0 -141.5 -39.5t-55.5 -102.5t55 -103.5t141 -40.5z" />
    <glyph glyph-name="nine.lf" horiz-adv-x="556" 
d="M274 680q104 0 173.5 -67.5t69.5 -165.5q0 -43 -16.5 -87.5t-32 -68.5t-39.5 -56l-178 -235h-69l190 251q-46 -26 -108 -26q-98 0 -165 64.5t-67 160.5q0 99 69.5 164.5t172.5 65.5zM91 450q0 -76 54 -127t131 -51t129 50t52 126q0 77 -52.5 129t-129.5 52t-130.5 -51
t-53.5 -128z" />
    <glyph glyph-name="zero.osf" horiz-adv-x="605" 
d="M302 -11q-108 0 -180 80.5t-72 200.5q0 121 72.5 202t179.5 81q108 0 180.5 -81t72.5 -202q0 -120 -72.5 -200.5t-180.5 -80.5zM302 42q82 0 137.5 65.5t55.5 162.5t-55 162.5t-138 65.5q-81 0 -136.5 -65.5t-55.5 -162.5t55.5 -162.5t136.5 -65.5z" />
    <glyph glyph-name="one.osf" horiz-adv-x="351" 
d="M28 480l186 61h45v-541h-60v477l-171 -54v57z" />
    <glyph glyph-name="two.osf" horiz-adv-x="503" 
d="M287 174l-157 -122h330v-52h-414v48l207 167q2 1 26.5 20.5t31.5 26t26.5 25t26.5 31t14.5 31.5t7.5 37q0 49 -38 82.5t-97 33.5q-60 0 -100.5 -38t-45.5 -98l-57 7q6 81 63.5 130.5t142.5 49.5q84 0 138 -48t54 -117q0 -19 -5 -37.5t-12 -33t-20.5 -31.5t-22.5 -28
t-26.5 -26t-25.5 -21.5t-26 -20.5t-21 -16z" />
    <glyph glyph-name="three.osf" horiz-adv-x="530" 
d="M284 300q88 0 145 -56.5t57 -140.5q0 -92 -64 -153t-161 -61q-88 0 -151.5 50.5t-76.5 135.5l55 13q11 -66 59.5 -106t114.5 -40q68 0 116 46.5t48 115.5q0 64 -44.5 108.5t-114.5 44.5q-62 0 -117 -38l-28 37l256 234h-305v51h381v-49l-215 -198q21 6 45 6z" />
    <glyph glyph-name="four.osf" horiz-adv-x="554" 
d="M435 120h86v-49h-86v-170h-58v170h-346v42l336 429h68v-422zM377 479l-276 -359h276v359z" />
    <glyph glyph-name="five.osf" horiz-adv-x="532" 
d="M277 307q92 0 152.5 -58.5t60.5 -147.5q0 -90 -64 -151t-161 -61q-86 0 -150 50t-78 133l55 14q12 -65 60.5 -104.5t112.5 -39.5q69 0 117 47t48 117q0 67 -46 111t-118 44q-83 0 -154 -74l-48 26l41 328h348v-51h-301l-29 -241q66 58 154 58z" />
    <glyph glyph-name="six.osf" horiz-adv-x="544" 
d="M292 424q93 0 158 -62t65 -153q0 -94 -67.5 -156.5t-166.5 -62.5q-101 0 -168.5 63.5t-67.5 157.5t79 196l176 231h70l-188 -243q49 29 110 29zM279 39q73 0 124 48t51 121q0 72 -51 120t-125 48t-124 -47.5t-50 -117.5q0 -73 50.5 -122.5t124.5 -49.5z" />
    <glyph glyph-name="seven.osf" horiz-adv-x="462" 
d="M34 487v54h401v-51l-294 -600h-68l299 597h-338z" />
    <glyph glyph-name="eight.osf" horiz-adv-x="568" 
d="M384 335q62 -16 99 -60.5t37 -102.5q0 -80 -66 -132t-169 -52t-169.5 51.5t-66.5 131.5q0 58 37 102t100 61q-52 16 -83.5 54.5t-31.5 88.5q0 73 61.5 121.5t151.5 48.5q91 0 152.5 -48.5t61.5 -121.5q0 -49 -31 -87t-83 -55zM129 474q0 -52 43.5 -87t108.5 -35
q68 0 113.5 35.5t45.5 88.5t-45 88t-110 35q-66 0 -111 -36t-45 -89zM285 37q74 0 123 39t49 99q0 58 -49 95t-123 37q-75 0 -124.5 -37.5t-49.5 -96.5t49 -97.5t125 -38.5z" />
    <glyph glyph-name="nine.osf" horiz-adv-x="544" 
d="M265 552q101 0 168 -63.5t67 -156.5q0 -96 -86 -205l-174 -226h-72l188 242q-46 -23 -102 -23q-94 0 -159.5 61.5t-65.5 152.5q0 93 68 155.5t168 62.5zM89 334q0 -72 52 -119.5t127 -47.5q73 0 122.5 47t49.5 118t-50.5 120t-123.5 49t-125 -48t-52 -119z" />
    <glyph glyph-name="one.osf.salt" horiz-adv-x="338" 
d="M30 487v54h216v-541h-60v487h-156z" />
    <glyph glyph-name="zero.osf.zero" horiz-adv-x="602" 
d="M301 553q107 0 179.5 -81.5t72.5 -201.5t-72.5 -200.5t-179.5 -80.5t-179 80.5t-72 200.5t72.5 201.5t178.5 81.5zM105 270q0 -108 66 -176l231 377q-45 31 -101 31q-83 0 -139.5 -66.5t-56.5 -165.5zM301 38q84 0 140.5 67t56.5 165q0 108 -67 177l-231 -377
q44 -32 101 -32z" />
    <glyph glyph-name="zero.tf" horiz-adv-x="580" 
d="M291 -11q-115 0 -185 95t-70 250t70 250.5t185 95.5q114 0 184 -95.5t70 -250.5t-70 -250t-184 -95zM291 44q86 0 139.5 80t53.5 210t-53.5 210t-139.5 80q-87 0 -140.5 -80t-53.5 -210t54 -210t140 -80z" />
    <glyph glyph-name="one.tf" horiz-adv-x="580" 
d="M336 669v-617h193v-53h-452v53h199v558l-192 -52v54l210 57h42z" />
    <glyph glyph-name="two.tf" horiz-adv-x="580" 
d="M318 207l-173 -155h373v-53h-455v48l229 211q4 3 30 26.5t35.5 32.5t30.5 32.5t29.5 39.5t17 39t8.5 46q0 66 -44.5 109.5t-113.5 43.5q-70 0 -115.5 -47.5t-50.5 -122.5l-56 8q5 97 68 156t156 59q95 0 155.5 -58.5t60.5 -144.5q0 -25 -5.5 -48.5t-20 -47.5t-24 -39.5
t-34 -40l-33 -33t-37 -34t-31.5 -27.5z" />
    <glyph glyph-name="three.tf" horiz-adv-x="580" 
d="M310 422q94 0 155 -59.5t61 -149.5q0 -96 -68.5 -160t-171.5 -64q-92 0 -159.5 53t-82.5 142l56 13q11 -70 63.5 -113t123.5 -43q75 0 127 49.5t52 123.5q0 71 -48.5 119t-123.5 48q-68 0 -127 -42l-28 37l277 240h-329v52h404v-49l-233 -204q28 7 52 7z" />
    <glyph glyph-name="four.tf" horiz-adv-x="580" 
d="M458 228h92v-52h-92v-176h-59v176h-369v48l356 445h72v-441zM399 609l-297 -381h297v381z" />
    <glyph glyph-name="five.tf" horiz-adv-x="580" 
d="M302 430q98 0 162 -61.5t64 -156.5t-67.5 -159t-171.5 -64q-92 0 -159.5 52.5t-83.5 139.5l56 14q12 -70 65 -112t123 -42q74 0 126 49.5t52 124.5q0 74 -49 120.5t-128 46.5q-93 0 -166 -77l-48 26l42 338h370v-52h-321l-34 -251q74 64 168 64z" />
    <glyph glyph-name="six.tf" horiz-adv-x="580" 
d="M302 444q97 0 164.5 -64.5t67.5 -160.5q0 -99 -70 -164.5t-173 -65.5q-105 0 -174.5 66.5t-69.5 165.5q0 97 82 205l184 243h70l-197 -256q51 31 116 31zM289 39q77 0 130.5 51t53.5 128t-54 128t-131 51q-78 0 -129.5 -50t-51.5 -126q0 -77 52.5 -129.5t129.5 -52.5z
" />
    <glyph glyph-name="seven.tf" horiz-adv-x="580" 
d="M75 616v53h429v-53l-325 -616h-71l332 616h-365z" />
    <glyph glyph-name="eight.tf" horiz-adv-x="580" 
d="M400 352q68 -17 108.5 -63t40.5 -107q0 -85 -72 -139t-187 -54q-114 0 -186.5 53.5t-72.5 137.5q0 61 40.5 107.5t109.5 63.5q-57 18 -91.5 58t-34.5 93q0 76 66.5 127t167.5 51t168 -50.5t67 -127.5q0 -52 -33.5 -92.5t-90.5 -57.5zM113 499q0 -55 49 -92t122 -37
q77 0 129.5 37.5t52.5 93.5q0 57 -50 93.5t-126 36.5t-126.5 -37.5t-50.5 -94.5zM290 39q85 0 140.5 40.5t55.5 105.5q0 62 -55 101t-140 39q-86 0 -141.5 -39.5t-55.5 -102.5t55 -103.5t141 -40.5z" />
    <glyph glyph-name="nine.tf" horiz-adv-x="580" 
d="M289 680q105 0 174.5 -67.5t69.5 -165.5q0 -44 -17 -89t-31 -66t-41 -57l-177 -235h-71l191 251q-48 -26 -108 -26q-98 0 -165 64.5t-67 160.5q0 99 69 164.5t173 65.5zM107 450q0 -77 53.5 -127.5t131.5 -50.5q77 0 128.5 50t51.5 126q0 77 -52.5 129t-129.5 52
t-130 -51t-53 -128z" />
    <glyph glyph-name="zero.tf.zero" horiz-adv-x="580" 
d="M291 680q113 0 182.5 -95.5t69.5 -250.5t-69.5 -250t-182.5 -95t-183 95.5t-70 249.5q0 155 70 250.5t183 95.5zM291 630q-88 0 -143 -82t-55 -214t56 -215l267 452q-51 59 -125 59zM291 39q88 0 142 81.5t54 213.5q0 124 -49 206l-266 -449q49 -52 119 -52z" />
    <glyph glyph-name="zero.tosf" horiz-adv-x="556" 
d="M278 -11q-107 0 -176 80t-69 201t69 202t176 81t176 -81t69 -202t-69 -201t-176 -80zM278 42q81 0 133 65t52 163t-52 163t-133 65q-80 0 -132 -65t-52 -163t52 -163t132 -65z" />
    <glyph glyph-name="one.tosf" horiz-adv-x="556" 
d="M335 541v-489h173v-52h-413v52h180v426l-175 -56v57l190 62h45z" />
    <glyph glyph-name="two.tosf" horiz-adv-x="556" 
d="M312 174l-156 -122h328v-52h-413v48l207 167q3 3 26.5 21t32 25.5t27 25.5t26 30.5t15 31.5t7.5 37q0 49 -38.5 82.5t-97.5 33.5q-60 0 -100.5 -38t-45.5 -98l-57 7q6 81 63.5 130.5t142.5 49.5q84 0 138 -48t54 -117q0 -21 -5.5 -41t-17.5 -39.5t-22 -33t-30 -31.5
t-28.5 -25.5t-31 -24.5t-24.5 -19z" />
    <glyph glyph-name="three.tosf" horiz-adv-x="556" 
d="M299 300q87 0 144.5 -56.5t57.5 -140.5q0 -92 -64.5 -153t-161.5 -61q-87 0 -150.5 50.5t-76.5 135.5l55 13q11 -66 59.5 -106t113.5 -40q69 0 117 46.5t48 115.5q0 64 -44.5 108.5t-115.5 44.5q-63 0 -116 -38l-28 37l256 234h-306v51h381v-49l-214 -198q21 6 45 6z" />
    <glyph glyph-name="four.tosf" horiz-adv-x="556" 
d="M437 120h86v-49h-86v-170h-58v170h-346v42l336 429h68v-422zM379 479l-276 -359h276v359z" />
    <glyph glyph-name="five.tosf" horiz-adv-x="556" 
d="M290 307q92 0 152 -58.5t60 -147.5q0 -90 -63.5 -151t-160.5 -61q-86 0 -150 50t-79 133l55 14q13 -66 61.5 -105t112.5 -39q69 0 116.5 46.5t47.5 117.5q0 67 -45.5 111t-117.5 44q-84 0 -154 -74l-48 26l41 328h348v-51h-301l-29 -241q66 58 154 58z" />
    <glyph glyph-name="six.tosf" horiz-adv-x="556" 
d="M291 424q93 0 158 -62t65 -153q0 -94 -67.5 -156.5t-166.5 -62.5q-101 0 -169 63.5t-68 157.5q0 92 79 196l177 231h69l-187 -243q47 29 110 29zM278 39q73 0 124.5 48.5t51.5 120.5t-52 120t-126 48q-73 0 -123 -47.5t-50 -117.5q0 -73 50.5 -122.5t124.5 -49.5z" />
    <glyph glyph-name="seven.tosf" horiz-adv-x="556" 
d="M76 487v54h402v-51l-294 -600h-68l299 597h-339z" />
    <glyph glyph-name="eight.tosf" horiz-adv-x="556" 
d="M378 335q62 -16 99 -60.5t37 -102.5q0 -80 -66.5 -132t-169.5 -52t-169.5 51.5t-66.5 131.5q0 58 37.5 102t100.5 61q-52 17 -83.5 55.5t-31.5 87.5q0 73 61 121.5t152 48.5t152 -48.5t61 -121.5q0 -49 -31 -87t-82 -55zM122 474q0 -52 44 -87t109 -35q67 0 112.5 35.5
t45.5 88.5t-44.5 88t-110.5 35t-111 -36t-45 -89zM278 37q74 0 123.5 39t49.5 99q0 58 -49 95t-124 37t-124 -37.5t-49 -96.5t49 -97.5t124 -38.5z" />
    <glyph glyph-name="nine.tosf" horiz-adv-x="556" 
d="M278 552q101 0 168.5 -63.5t67.5 -156.5q0 -92 -87 -205l-174 -226h-72l188 242q-46 -23 -102 -23q-94 0 -159.5 61.5t-65.5 152.5q0 93 68 155.5t168 62.5zM102 334q0 -72 52 -119.5t127 -47.5q73 0 122.5 47t49.5 118t-50.5 120t-123.5 49t-125 -48t-52 -119z" />
    <glyph glyph-name="zero.tosf.zero" horiz-adv-x="556" 
d="M278 553q106 0 176.5 -81.5t70.5 -201.5t-70 -200.5t-177 -80.5t-177 80.5t-70 200.5t70.5 201.5t176.5 81.5zM86 270q0 -107 63 -175l229 376q-45 31 -100 31q-83 0 -137.5 -66t-54.5 -166zM278 38q83 0 138 67t55 165q0 108 -64 175l-230 -375q46 -32 101 -32z" />
    <glyph glyph-name="zero.dnom" horiz-adv-x="406" 
d="M203 -4q-73 0 -121.5 53t-48.5 133q0 79 48.5 132t121.5 53t121 -52.5t48 -132.5t-48 -133t-121 -53zM203 34q54 0 91 42.5t37 105.5t-37 105.5t-91 42.5q-55 0 -92 -42.5t-37 -105.5t37 -105.5t92 -42.5z" />
    <glyph glyph-name="one.dnom" horiz-adv-x="324" 
d="M195 362v-323h113v-38h-276v38h119v275l-115 -49v42l127 55h32z" />
    <glyph glyph-name="two.dnom" horiz-adv-x="341" 
d="M197 116l-95 -76h209v-39h-277v34l134 110q4 3 21 16t24.5 20.5t19.5 20t17 25.5t5 28q0 33 -23.5 53.5t-62.5 20.5q-40 0 -66 -25.5t-29 -67.5l-44 6q4 58 43 92t97 34q59 0 95 -31t36 -80q0 -16 -6 -32.5t-12 -27.5t-21 -26t-21 -20t-24.5 -19.5t-19.5 -15.5z" />
    <glyph glyph-name="three.dnom" horiz-adv-x="342" 
d="M187 230q54 0 90.5 -32t36.5 -80q0 -53 -41.5 -87.5t-104.5 -34.5q-56 0 -96.5 28.5t-47.5 75.5l39 12q6 -35 35.5 -57t69.5 -22q43 0 72 24.5t29 62.5q0 35 -27.5 59t-69.5 24q-34 0 -73 -21l-18 25l157 118h-191v37h246v-36l-128 -98q14 2 22 2z" />
    <glyph glyph-name="four.dnom" horiz-adv-x="350" 
d="M274 126h53v-33h-53v-92h-43v92h-212v31l193 237h62v-235zM231 329l-159 -203h159v203z" />
    <glyph glyph-name="five.dnom" horiz-adv-x="331" 
d="M173 238q57 0 93.5 -33.5t36.5 -85.5q0 -53 -39 -88t-99 -35q-53 0 -92 28t-48 76l40 10q7 -35 35 -56t64 -21q40 0 67 25t27 63q0 37 -25.5 61.5t-64.5 24.5q-50 0 -91 -43l-35 18l25 180h214v-36h-180l-17 -117q40 29 89 29z" />
    <glyph glyph-name="six.dnom" horiz-adv-x="327" 
d="M172 242q55 0 93 -35t38 -86q0 -54 -40 -89.5t-98 -35.5q-59 0 -99 36.5t-40 89.5t47 113l100 127h50l-107 -133q25 13 56 13zM164 31q40 0 68.5 25.5t28.5 63.5t-28 64t-70 26q-40 0 -67.5 -25.5t-27.5 -62.5q0 -38 28 -64.5t68 -26.5z" />
    <glyph glyph-name="seven.dnom" horiz-adv-x="285" 
d="M22 324v38h243v-36l-174 -325h-50l176 323h-195z" />
    <glyph glyph-name="eight.dnom" horiz-adv-x="350" 
d="M239 191q36 -9 57 -33t21 -57q0 -46 -39.5 -75.5t-102.5 -29.5t-103 29t-40 75q0 32 21 56.5t58 34.5q-30 11 -47 32t-17 48q0 42 36.5 69.5t91.5 27.5t91.5 -27.5t36.5 -69.5q0 -27 -17 -48t-47 -32zM87 268q0 -28 24.5 -47t62.5 -19t64 19.5t26 47.5q0 29 -25.5 48
t-63.5 19t-63 -19t-25 -49zM175 28q42 0 70.5 22t28.5 54q0 30 -28 50.5t-70 20.5t-71 -21t-29 -52t28.5 -52.5t70.5 -21.5z" />
    <glyph glyph-name="nine.dnom" horiz-adv-x="323" 
d="M160 368q59 0 98.5 -36.5t39.5 -90.5q0 -24 -10 -49t-18 -37t-25 -34l-93 -120h-50l102 131q-24 -10 -52 -10q-54 0 -91 34.5t-37 86.5q0 54 39 89.5t97 35.5zM66 243q0 -38 27.5 -63.5t67.5 -25.5t66.5 25t26.5 63t-26.5 64t-66.5 26q-41 0 -68 -25.5t-27 -63.5z" />
    <glyph glyph-name="zero.numr" horiz-adv-x="406" 
d="M203 310q-73 0 -121.5 52.5t-48.5 132.5q0 79 48.5 132t121.5 53t121 -52.5t48 -132.5t-48 -132.5t-121 -52.5zM203 346q54 0 91 43t37 106t-37 105.5t-91 42.5q-55 0 -92 -42.5t-37 -105.5t37 -106t92 -43z" />
    <glyph glyph-name="one.numr" horiz-adv-x="324" 
d="M195 676v-323h113v-38h-276v38h119v274l-115 -48v41l127 56h32z" />
    <glyph glyph-name="two.numr" horiz-adv-x="341" 
d="M197 430l-97 -77h211v-38h-277v33l134 111q3 2 25.5 19.5t31.5 26.5t19.5 27t10.5 37q0 32 -24 53t-62 21q-40 0 -66 -25.5t-29 -67.5l-44 6q4 58 43 92t97 34t94.5 -31.5t36.5 -79.5q0 -14 -3 -27t-11.5 -25.5t-14 -21t-19 -21t-18 -16.5t-21 -16.5t-17.5 -13.5z" />
    <glyph glyph-name="three.numr" horiz-adv-x="342" 
d="M187 543q54 0 90 -31.5t36 -79.5q0 -52 -41.5 -87t-103.5 -35q-57 0 -97.5 28.5t-47.5 75.5l39 11q6 -34 35.5 -56.5t70.5 -22.5q42 0 71 25t29 62q0 36 -27 60t-70 24q-36 0 -72 -22l-18 25l156 119h-190v37h246v-36l-130 -99q14 2 24 2z" />
    <glyph glyph-name="four.numr" horiz-adv-x="351" 
d="M274 440h54v-34h-54v-91h-42v91h-212v31l192 238h62v-235zM232 642l-159 -202h159v202z" />
    <glyph glyph-name="five.numr" horiz-adv-x="331" 
d="M173 553q56 0 93 -34t37 -86q0 -53 -39 -88t-99 -35q-53 0 -92 28t-48 76l40 9q7 -34 35 -55t64 -21q40 0 67 24.5t27 63.5q0 37 -25.5 61t-64.5 24q-51 0 -91 -43l-35 19l25 180h214v-36h-180l-16 -117q40 30 88 30z" />
    <glyph glyph-name="six.numr" horiz-adv-x="327" 
d="M172 556q55 0 93 -35t38 -86q0 -54 -40 -89.5t-98 -35.5q-59 0 -99 36.5t-40 89.5q0 55 47 113l100 127h50l-108 -134q26 14 57 14zM164 344q40 0 68.5 26t28.5 64t-28 63.5t-70 25.5q-40 0 -67.5 -25t-27.5 -62q0 -39 27.5 -65.5t68.5 -26.5z" />
    <glyph glyph-name="seven.numr" horiz-adv-x="285" 
d="M22 638v38h243v-36l-174 -325h-50l176 323h-195z" />
    <glyph glyph-name="eight.numr" horiz-adv-x="350" 
d="M239 505q36 -10 57 -34t21 -57q0 -45 -39.5 -74.5t-102.5 -29.5t-103 29t-40 75q0 32 21 56.5t58 34.5q-29 10 -46.5 31t-17.5 48q0 43 36.5 70.5t91.5 27.5t91.5 -27.5t36.5 -70.5q0 -27 -17.5 -48t-46.5 -31zM87 582q0 -28 24.5 -47t62.5 -19t64 19.5t26 47.5
t-25.5 47.5t-63.5 19.5t-63 -19.5t-25 -48.5zM175 342q42 0 70.5 21.5t28.5 53.5q0 30 -28 50.5t-70 20.5t-71 -20.5t-29 -51.5q0 -32 28 -53t71 -21z" />
    <glyph glyph-name="nine.numr" horiz-adv-x="323" 
d="M160 682q59 0 98.5 -36.5t39.5 -90.5q0 -25 -10 -50t-17.5 -36t-25.5 -34l-93 -120h-50l102 132q-22 -11 -52 -11q-54 0 -91 34.5t-37 85.5q0 54 39 90t97 36zM66 557q0 -38 27 -63.5t68 -25.5q40 0 66.5 25t26.5 63t-26.5 64t-66.5 26q-41 0 -68 -25.5t-27 -63.5z" />
    <glyph glyph-name="colon.case" horiz-adv-x="226" 
d="M114 440q-20 0 -33.5 13t-13.5 32t13.5 32.5t33.5 13.5q19 0 32 -13.5t13 -32.5t-13 -32t-32 -13zM114 112q-20 0 -33.5 13.5t-13.5 32.5t13.5 32t33.5 13q19 0 32 -13t13 -32t-13 -32.5t-32 -13.5z" />
    <glyph glyph-name="semicolon.case" horiz-adv-x="210" 
d="M105 440q-20 0 -33.5 13t-13.5 32t13.5 32.5t33.5 13.5q19 0 32 -13.5t13 -32.5t-13 -32t-32 -13zM104 204q22 0 36.5 -15.5t14.5 -41.5q0 -35 -25.5 -90t-58.5 -96l-19 12q47 82 59 141q-1 0 -4 -0.5t-5 -0.5q-21 0 -34 13t-13 31q0 19 14.5 33t34.5 14z" />
    <glyph glyph-name="exclamdown.case" horiz-adv-x="251" 
d="M127 681q18 0 30.5 -12.5t12.5 -31.5t-12.5 -31.5t-30.5 -12.5q-19 0 -32 13t-13 31q0 19 13 31.5t32 12.5zM90 -33l7 555h57l8 -555h-72z" />
    <glyph glyph-name="questiondown.case" horiz-adv-x="508" 
d="M271 681q18 0 30.5 -12.5t12.5 -29.5t-12.5 -29.5t-30.5 -12.5q-17 0 -29.5 12t-12.5 30q0 17 12.5 29.5t29.5 12.5zM243 523h58v-65q0 -48 -21 -84.5t-50.5 -59.5t-59 -44.5t-50.5 -51.5t-21 -69q0 -66 48.5 -102.5t117.5 -36.5q50 0 96 24t74 74l47 -29
q-31 -59 -90 -89.5t-129 -30.5q-97 0 -161 51.5t-64 137.5q0 40 15 72t38 51.5t49.5 40t49.5 38.5t38 46.5t15 63.5v63z" />
    <glyph glyph-name="periodcentered.case" horiz-adv-x="220" 
d="M110 256q-19 0 -32 13t-13 31t13 31t32 13q18 0 31 -12.5t13 -31.5q0 -18 -13 -31t-31 -13z" />
    <glyph glyph-name="questiondown.ss11.case" horiz-adv-x="513" 
d="M271 681q18 0 30.5 -12.5t12.5 -29.5t-12.5 -29.5t-30.5 -12.5q-17 0 -29.5 12t-12.5 30q0 17 12.5 29.5t29.5 12.5zM243 523h58v-65q0 -47 -21 -83.5t-50.5 -60.5t-59 -46.5t-50.5 -53.5t-21 -70q0 -63 45.5 -98t112.5 -35q29 0 55 7.5t52 24.5t44 51.5t22 81.5l55 -7
q-5 -108 -74 -159t-158 -51q-92 0 -153.5 50t-61.5 135q0 46 21 83t51 61.5t60.5 48t51.5 55.5t21 70v61z" />
    <glyph glyph-name="period.osf" horiz-adv-x="208" 
d="M104 -12q-19 0 -32 12.5t-13 30.5t13 31t32 13q18 0 30.5 -12.5t12.5 -31.5q0 -18 -12.5 -30.5t-30.5 -12.5z" />
    <glyph glyph-name="comma.osf" horiz-adv-x="196" 
d="M100 73q21 0 35 -15t14 -40q0 -34 -24.5 -88t-56.5 -93l-19 12q44 76 57 138q-4 -1 -10 -1q-19 0 -31.5 12.5t-12.5 28.5q0 19 14 32.5t34 13.5z" />
    <glyph glyph-name="colon.osf" horiz-adv-x="216" 
d="M109 361q-19 0 -32 12.5t-13 31.5q0 18 13 30.5t32 12.5q18 0 30.5 -12.5t12.5 -30.5q0 -19 -12.5 -31.5t-30.5 -12.5zM109 -12q-19 0 -32 12.5t-13 30.5t13 31t32 13q18 0 30.5 -12.5t12.5 -31.5q0 -18 -12.5 -30.5t-30.5 -12.5z" />
    <glyph glyph-name="semicolon.osf" horiz-adv-x="225" 
d="M111 362q-19 0 -32.5 13.5t-13.5 32.5t13.5 32.5t32.5 13.5t32.5 -13.5t13.5 -32.5t-13.5 -32.5t-32.5 -13.5zM114 72q21 0 35 -14.5t14 -40.5q0 -33 -24.5 -87t-56.5 -94l-19 13q44 73 57 137q-2 0 -5 -0.5t-4 -0.5q-19 0 -31.5 12.5t-12.5 29.5q0 19 13.5 32t33.5 13z
" />
    <glyph glyph-name="numbersign.osf" horiz-adv-x="653" 
d="M622 400l-10 -45h-115l-37 -165h127l-9 -46h-128l-32 -144h-58l33 144h-190l-32 -144h-58l34 144h-118l11 46h117l39 165h-130l11 45h129l33 141h53l-32 -141h192l33 141h53l-31 -141h115zM213 190h191l38 165h-192z" />
    <glyph glyph-name="comma.ss03" horiz-adv-x="180" 
d="M76 -188h-51l38 212h64z" />
    <glyph glyph-name="semicolon.ss03" horiz-adv-x="258" 
d="M135 365q-20 0 -33.5 13.5t-13.5 33.5q0 19 13.5 32.5t33.5 13.5t33.5 -13.5t13.5 -32.5q0 -20 -14 -33.5t-33 -13.5zM114 -188h-52l41 212h64z" />
    <glyph glyph-name="semicolon.case.ss03" horiz-adv-x="228" 
d="M109 441q-19 0 -32.5 13t-13.5 32q0 20 13.5 33t32.5 13t32 -13.5t13 -32.5t-13 -32t-32 -13zM80 -75h-52l41 212h65z" />
    <glyph glyph-name="question.ss11" horiz-adv-x="513" 
d="M270 146h-58v65q0 47 21 83.5t50.5 60t59 46t50.5 54t21 70.5q0 62 -45.5 97.5t-111.5 35.5q-29 0 -55.5 -7.5t-53 -25t-44 -51.5t-22.5 -82l-54 8q2 57 24 99.5t57 66t72.5 34.5t78.5 11q92 0 153.5 -50.5t61.5 -135.5q0 -46 -21 -83t-51.5 -62t-60.5 -48.5t-51 -55
t-21 -69.5v-61zM242 -12q-18 0 -31 12t-13 30q0 17 13 29.5t31 12.5q17 0 29.5 -12.5t12.5 -29.5q0 -18 -12.5 -30t-29.5 -12z" />
    <glyph glyph-name="questiondown.ss11" horiz-adv-x="507" 
d="M269 509q18 0 30.5 -12t12.5 -30q0 -17 -13 -29.5t-30 -12.5t-30 12.5t-13 29.5q0 18 12.5 30t30.5 12zM240 351h58v-65q0 -47 -21 -83.5t-50.5 -60t-59 -46t-50.5 -54t-21 -70.5q0 -63 45.5 -98t112.5 -35q64 0 114.5 38t59.5 128l54 -8q-2 -56 -24 -99t-57 -66t-73 -34
t-78 -11q-92 0 -153.5 50.5t-61.5 134.5q0 39 15 72t38 54t49.5 43.5t49.5 41.5t38 47t15 60v61z" />
    <glyph glyph-name="parenleft.case" horiz-adv-x="279" 
d="M263 -141h-59q-68 84 -111.5 206.5t-43.5 245.5q0 125 42 246.5t113 204.5h59q-154 -201 -154 -451q0 -235 154 -452z" />
    <glyph glyph-name="parenright.case" horiz-adv-x="279" 
d="M75 -141h-59q154 215 154 452q0 250 -154 451h59q71 -83 113.5 -204.5t42.5 -246.5q0 -123 -44 -245.5t-112 -206.5z" />
    <glyph glyph-name="braceleft.case" horiz-adv-x="341" 
d="M277 716q-106 0 -106 -121q0 -18 1 -27l8 -100q2 -24 2 -43q0 -52 -17 -77.5t-56 -35.5q40 -10 56.5 -35t16.5 -78q0 -19 -2 -43l-8 -100q-1 -9 -1 -27q0 -120 106 -120q21 0 43 3v-48q-24 -7 -55 -7q-47 0 -79.5 18t-47 47.5t-20 60t-2.5 62.5l8 108q2 28 2 38
q0 34 -6 54t-21.5 29.5t-29.5 12t-43 4.5v43q28 1 43 4t30 12.5t21 29.5t6 54q0 9 -2 37l-8 108q-1 7 -1 23q0 30 7 57t22.5 52.5t46.5 40.5t74 15q29 0 55 -6v-48q-23 3 -43 3z" />
    <glyph glyph-name="braceright.case" horiz-adv-x="342" 
d="M225 579l-8 -108q-1 -13 -1 -35q0 -34 6 -55t21 -30.5t29.5 -12.5t42.5 -4v-43q-29 -2 -43 -4.5t-29.5 -12.5t-21 -30.5t-5.5 -55.5q0 -22 1 -35l8 -108q1 -7 1 -23q0 -68 -34 -116.5t-115 -48.5q-31 0 -55 7v48q23 -3 42 -3q106 0 106 120q0 18 -1 27l-8 100
q-2 24 -2 43q0 53 16.5 78t56.5 35q-39 10 -56 35.5t-17 77.5q0 19 2 43l8 100q1 9 1 27q0 121 -106 121q-20 0 -42 -3v48q25 6 55 6q47 0 79.5 -18t47 -47.5t19.5 -60t2 -62.5z" />
    <glyph glyph-name="bracketleft.case" horiz-adv-x="335" 
d="M316 -137h-222v899h222v-53h-164v-793h164v-53z" />
    <glyph glyph-name="bracketright.case" horiz-adv-x="335" 
d="M241 762v-899h-222v53h164v793h-164v53h222z" />
    <glyph glyph-name="hyphen.case" horiz-adv-x="475" 
d="M407 288h-339v53h339v-53z" />
    <glyph glyph-name="endash.case" horiz-adv-x="611" 
d="M544 288h-476v53h476v-53z" />
    <glyph glyph-name="emdash.case" horiz-adv-x="929" 
d="M861 288h-793v53h793v-53z" />
    <glyph glyph-name="guillemotleft.case" horiz-adv-x="508" 
d="M263 98h-69l-146 224l154 221h69l-155 -222zM445 98h-69l-145 224l154 221h69l-155 -222z" />
    <glyph glyph-name="guillemotright.case" horiz-adv-x="508" 
d="M277 322l-145 -224h-69l147 223l-156 222h69zM460 322l-145 -224h-69l146 223l-155 222h69z" />
    <glyph glyph-name="guilsinglleft.case" horiz-adv-x="327" 
d="M263 96h-69l-147 223l156 223h69l-156 -224z" />
    <glyph glyph-name="guilsinglright.case" horiz-adv-x="328" 
d="M280 319l-146 -223h-70l148 222l-157 224h70z" />
    <glyph glyph-name="quotesingle.ss05" horiz-adv-x="218" 
d="M119 733q24 0 44 -19t20 -52q0 -44 -35 -89t-82 -78l-15 20q66 53 66 94q0 12 -8.5 19t-19 10.5t-19 13.5t-8.5 26q0 25 17.5 40t39.5 15z" />
    <glyph glyph-name="quotesinglbase.ss10" horiz-adv-x="213" 
d="M104 82q24 0 43.5 -19t19.5 -51q0 -45 -34.5 -90t-81.5 -78l-15 19q66 55 66 95q0 12 -9 19t-19 10t-19 13.5t-9 27.5q0 25 18 39.5t40 14.5z" />
    <glyph glyph-name="quotedblbase.ss10" horiz-adv-x="375" 
d="M104 82q24 0 43.5 -19t19.5 -51q0 -45 -34.5 -90t-81.5 -78l-15 19q66 55 66 95q0 12 -9 19t-19 10t-19 13.5t-9 27.5q0 25 18 39.5t40 14.5zM266 82q25 0 44.5 -19t19.5 -51q0 -45 -35 -90t-82 -78l-15 19q65 55 65 95q0 12 -8.5 19t-18.5 10t-18.5 13.5t-8.5 27.5
q0 25 17.5 39.5t39.5 14.5z" />
    <glyph glyph-name="quotedblleft.ss10" horiz-adv-x="381" 
d="M107 499q-24 0 -44 18.5t-20 51.5q0 45 35 90t81 77l15 -19q-65 -53 -65 -95q0 -11 8.5 -18t19 -10.5t19 -13.5t8.5 -27q0 -25 -17.5 -39.5t-39.5 -14.5zM269 499q-24 0 -44 18.5t-20 51.5q0 45 35 90t82 77l16 -19q-67 -54 -67 -95q0 -11 8.5 -18t19.5 -10.5t19.5 -13.5
t8.5 -27q0 -25 -18 -39.5t-40 -14.5z" />
    <glyph glyph-name="quotedblright.ss10" horiz-adv-x="381" 
d="M119 733q24 0 44 -19t20 -52q0 -44 -35 -89t-82 -78l-15 20q66 53 66 94q0 12 -8.5 19t-19 10.5t-19 13.5t-8.5 26q0 25 17.5 40t39.5 15zM280 733q25 0 45 -19t20 -52q0 -44 -35 -89t-82 -78l-15 20q65 53 65 94q0 12 -8.5 19t-19 10.5t-19 13.5t-8.5 26q0 25 17.5 40
t39.5 15z" />
    <glyph glyph-name="quoteleft.ss10" horiz-adv-x="218" 
d="M107 499q-24 0 -44 18.5t-20 51.5q0 45 35 90t81 77l15 -19q-65 -53 -65 -95q0 -11 8.5 -18t19 -10.5t19 -13.5t8.5 -27q0 -25 -17.5 -39.5t-39.5 -14.5z" />
    <glyph glyph-name="quoteright.ss10" horiz-adv-x="218" 
d="M119 733q24 0 44 -19t20 -52q0 -44 -35 -89t-82 -78l-15 20q66 53 66 94q0 12 -8.5 19t-19 10.5t-19 13.5t-8.5 26q0 25 17.5 40t39.5 15z" />
    <glyph glyph-name="uni20BF.osf" horiz-adv-x="568" 
d="M419 288q47 -11 76.5 -48.5t29.5 -86.5q0 -67 -49.5 -110t-129.5 -43v-114h-43v114h-71v-114h-44v114h-122v541h122v123h43v-123h71v123h44v-123q68 0 110 -40t42 -100q0 -37 -21.5 -68t-57.5 -45zM338 496h-219v-195h215q47 0 79 27.5t32 67.5q0 43 -30 71.5t-77 28.5z
M119 45h221q57 0 93.5 31.5t36.5 78.5q0 44 -32 73.5t-78 29.5h-241v-213z" />
    <glyph glyph-name="cent.osf" horiz-adv-x="550" 
d="M289 77q58 0 106.5 32t69.5 83l54 -23q-25 -60 -81 -99.5t-128 -45.5v-102h-48v102q-96 9 -158.5 77t-62.5 168t62 169t159 80v101h48v-101q73 -4 129.5 -45t79.5 -106l-55 -18q-21 51 -68 82.5t-107 31.5q-80 0 -134 -55.5t-54 -137.5q0 -83 54.5 -138t133.5 -55z" />
    <glyph glyph-name="dollar.osf" horiz-adv-x="531" 
d="M497 148q0 -66 -52.5 -108.5t-143.5 -49.5v-99h-57v99q-114 5 -206 63l24 47q95 -60 208 -60q79 0 124.5 28t45.5 76q0 12 -3.5 22.5t-8 18.5t-14 15t-17.5 12t-21.5 10t-22.5 8t-25.5 6.5t-24.5 5t-26 4.5l-24 4q-36 7 -60 12.5t-54 17.5t-47.5 26.5t-30 39t-12.5 55.5
q0 65 52.5 105t142.5 46v103h57v-103q90 -6 177 -52l-23 -45q-78 47 -183 47q-83 0 -125 -26.5t-42 -71.5q0 -17 6.5 -31t20 -24t26 -17t33.5 -12.5t33 -8t32 -6.5q8 -1 11 -2q107 -20 143 -35q87 -37 87 -120z" />
    <glyph glyph-name="Euro.osf" horiz-adv-x="591" 
d="M377 40q99 0 166 38v-51q-64 -38 -172 -38q-109 0 -183.5 57.5t-95.5 154.5h-62v41h56q-1 9 -1 29q0 17 1 26h-56v40h61q20 99 94.5 157.5t183.5 58.5q105 0 169 -41v-50q-63 40 -160 40q-88 0 -148 -44.5t-79 -120.5h300v-40h-307q-1 -9 -1 -27q0 -19 1 -28h307v-41
h-299q20 -74 79.5 -117.5t145.5 -43.5z" />
    <glyph glyph-name="uni20BD.osf" horiz-adv-x="578" 
d="M360 206h-173v-58h205v-38h-205v-110h-61v110h-86v38h86v58h-86v42h86v293h235q80 0 132.5 -47t52.5 -120t-52.5 -120.5t-133.5 -47.5zM351 491h-164v-243h162q60 0 99 34.5t39 87.5q0 52 -39 86.5t-97 34.5z" />
    <glyph glyph-name="sterling.osf" horiz-adv-x="521" 
d="M195 187q0 -79 -60 -136h339v-51h-421l-5 46q90 50 90 139q0 30 -12 64h-78v42h60q-29 60 -29 99q0 68 53.5 115.5t140.5 47.5q85 0 141 -45.5t61 -131.5l-54 -5q-5 62 -43 96.5t-103 34.5q-64 0 -101 -35t-37 -84q0 -28 29 -92h229v-42h-211q11 -30 11 -62z" />
    <glyph glyph-name="yen.osf" horiz-adv-x="560" 
d="M465 541h66l-199 -309h138v-39h-161v-53h161v-40h-161v-100h-60v100h-160v40h160v53h-160v39h137l-197 309h66l185 -296z" />
    <glyph glyph-name="uni20BF.tf" horiz-adv-x="580" 
d="M450 355q56 -14 91 -60t35 -108q0 -81 -58 -134t-152 -53v-114h-52v114h-82v-114h-53v114h-145v669h144v116h52v-116h82v116h53v-116q80 0 129.5 -49.5t49.5 -122.5q0 -47 -25 -85.5t-69 -56.5zM357 618h-263v-247h258q56 0 94.5 34.5t38.5 86.5q0 54 -36 90t-92 36z
M94 51h266q69 0 112 39.5t43 99.5q0 56 -37.5 93.5t-93.5 37.5h-290v-270z" />
    <glyph glyph-name="cent.tf" horiz-adv-x="580" 
d="M303 84q58 0 106 32t69 84l53 -24q-24 -59 -80 -98.5t-128 -45.5v-102h-48v102q-96 9 -158.5 77t-62.5 168q0 99 62 167.5t159 79.5v98h48v-98q73 -4 129 -44t79 -104l-55 -19q-20 51 -67 82.5t-106 31.5q-82 0 -136 -55t-54 -139t54.5 -138.5t135.5 -54.5z" />
    <glyph glyph-name="dollar.tf" horiz-adv-x="580" 
d="M542 182q0 -82 -58 -133t-160 -59v-120h-57v120q-129 5 -228 76l23 47q107 -73 231 -73q89 0 140.5 37.5t51.5 98.5q0 81 -104 115q-26 8 -106 24q-39 8 -67 15.5t-60.5 21.5t-52 32t-33 47t-13.5 65q0 81 59 129t159 54v127h57v-127q105 -7 198 -61l-22 -47
q-89 58 -205 58q-93 0 -140.5 -35.5t-47.5 -93.5q0 -27 12.5 -48.5t28 -34t45 -23.5t47.5 -15t51 -11q108 -22 144 -38q107 -44 107 -148z" />
    </font>
</defs>
</svg>
