<?xml version="1.0" standalone="no"?>
<!DOCTYPE svg PUBLIC "-//W3C//DTD SVG 1.1//EN" "http://www.w3.org/Graphics/SVG/1.1/DTD/svg11.dtd" >
<svg xmlns="http://www.w3.org/2000/svg" xmlns:xlink="http://www.w3.org/1999/xlink" version="1.1">
<metadata>
Created by FontForge 20170731 at Tue Jul 14 08:18:47 2020
 By Aleksey,,,
Copyright (c) 2020 by Kastelov. All rights reserved.
</metadata>
<defs>
<font id="Kinetika-Heavy" horiz-adv-x="624" >
  <font-face 
    font-family="Kinetika-Heavy"
    font-weight="400"
    font-stretch="normal"
    units-per-em="1000"
    panose-1="0 0 9 0 0 0 0 0 0 0"
    ascent="781"
    descent="-219"
    x-height="522"
    cap-height="669"
    bbox="-521 -262 1215 970"
    underline-thickness="50"
    underline-position="-150"
    unicode-range="U+000D-2767"
  />
<missing-glyph horiz-adv-x="104" 
 />
    <glyph glyph-name=".notdef" horiz-adv-x="104" 
 />
    <glyph glyph-name=".null" horiz-adv-x="0" 
 />
    <glyph glyph-name="uni000D" horiz-adv-x="333" 
 />
    <glyph glyph-name="uni000D.1" unicode="&#xd;" horiz-adv-x="68" 
 />
    <glyph glyph-name="space" unicode=" " horiz-adv-x="212" 
 />
    <glyph glyph-name="exclam" unicode="!" horiz-adv-x="327" 
d="M282 709l-19 -465h-200l-17 465h236zM85 178q32 32 78 32t78.5 -32.5t32.5 -78.5t-32 -78q-33 -32 -79 -32t-78.5 32t-32.5 78t33 79z" />
    <glyph glyph-name="quotedbl" unicode="&#x22;" horiz-adv-x="538" 
d="M295 701h219l-52 -285h-167v285zM50 701h219l-52 -285h-167v285z" />
    <glyph glyph-name="numbersign" unicode="#" horiz-adv-x="718" 
d="M54 275h80l25 123h-93l25 142h96l25 129h173l-23 -129h74l23 129h173l-21 -129h79l-25 -142h-78l-20 -123h93l-24 -145h-93l-21 -130h-184l24 130h-74l-24 -130h-184l26 130h-78zM314 275h74l22 123h-74z" />
    <glyph glyph-name="dollar" unicode="$" horiz-adv-x="629" 
d="M103 242q109 -81 224 -81q71 0 71 37q0 13 -8 22t-26 14.5t-33.5 9t-42.5 7.5q-37 6 -63.5 12.5t-61.5 21.5t-57 36t-37.5 56t-15.5 81q0 81 46 135t129 75v138h198v-133q105 -19 160 -62l-69 -157q-33 23 -89.5 40t-106.5 17q-69 0 -69 -36q0 -14 13 -23.5t28 -13.5
t41 -8q35 -6 50 -9t49.5 -12.5t51.5 -18t42.5 -25t38 -36t22.5 -48t10 -63.5q0 -79 -45.5 -134.5t-126.5 -79.5v-134h-198v126q-125 20 -204 92z" />
    <glyph glyph-name="percent" unicode="%" horiz-adv-x="822" 
d="M78 0l502 669h153l-501 -669h-154zM74 632q47 48 120 48q74 0 121.5 -48t47.5 -122q0 -75 -47.5 -123.5t-121.5 -48.5q-73 0 -120.5 48.5t-47.5 123.5q0 74 48 122zM507 282q47 48 120 48q74 0 121.5 -48t47.5 -122q0 -75 -47 -123q-48 -48 -122 -48t-121 48t-47 123
q0 74 48 122zM580 161q0 -28 13 -44q13 -17 35 -17t34.5 16.5t12.5 44.5q0 27 -12.5 43t-34.5 16t-35 -16t-13 -43zM147 510q0 -27 13 -43q13 -17 35 -17t34.5 16.5t12.5 43.5t-12.5 43.5t-34.5 16.5t-35 -16.5t-13 -43.5z" />
    <glyph glyph-name="ampersand" unicode="&#x26;" horiz-adv-x="734" 
d="M31 180q0 115 120 175q-67 69 -67 143q0 76 61 129.5t168 53.5q102 0 162.5 -50t60.5 -134q0 -60 -31.5 -100.5t-91.5 -78.5l74 -72q33 36 38 92h160q0 -110 -84 -202l143 -137h-214l-42 39q-82 -50 -204 -50q-131 0 -192 55t-61 137zM240 145q18 -14 50 -14q37 0 77 21
l-98 91q-47 -23 -47 -59q0 -25 18 -39zM300 426q62 33 62 68q0 21 -14.5 34.5t-38.5 13.5q-26 0 -40 -14.5t-14 -33.5q0 -24 45 -68z" />
    <glyph glyph-name="quotesingle" unicode="'" horiz-adv-x="293" 
d="M217 416h-167v285h219z" />
    <glyph glyph-name="parenleft" unicode="(" horiz-adv-x="377" 
d="M37 364q5 45 18.5 111.5t45 135.5t76.5 121h191q-137 -215 -137 -446q0 -232 137 -452h-191q-44 52 -75.5 122t-45 136.5t-19 113.5t-5.5 81q0 32 5 77z" />
    <glyph glyph-name="parenright" unicode=")" horiz-adv-x="377" 
d="M9 -166q137 222 137 452q0 231 -137 446h191q45 -52 76.5 -121t45 -135.5t18.5 -111.5t5 -77q0 -34 -5.5 -81t-19 -113.5t-45 -136.5t-75.5 -122h-191z" />
    <glyph glyph-name="asterisk" unicode="*" horiz-adv-x="470" 
d="M303 344h-136l-2 6l26 118l-88 -81l-8 -1l-67 116l5 7l115 35l-114 35l-6 7l67 118l10 -2l86 -81l-26 116l2 9h136l3 -9l-27 -116l87 81l8 2l69 -118l-6 -6l-114 -36l114 -35l5 -7l-68 -116l-8 1l-87 81l27 -118z" />
    <glyph glyph-name="plus" unicode="+" horiz-adv-x="522" 
d="M175 405v146h171v-146h143v-163h-143v-147h-171v147h-142v163h142z" />
    <glyph glyph-name="comma" unicode="," horiz-adv-x="303" 
d="M30 90q0 49 34 82.5t84 33.5q52 0 87.5 -35.5t35.5 -88.5q0 -122 -201 -290l-39 42q77 90 107 153q-47 0 -77.5 31t-30.5 72z" />
    <glyph glyph-name="hyphen" unicode="-" horiz-adv-x="439" 
d="M389 208h-339v168h339v-168z" />
    <glyph glyph-name="period" unicode="." horiz-adv-x="294" 
d="M30 103q0 49 34 83t83 34t83 -34t34 -83t-34 -82q-34 -34 -83 -34t-83 33.5t-34 82.5z" />
    <glyph glyph-name="slash" unicode="/" horiz-adv-x="589" 
d="M240 -109h-222l332 850h221z" />
    <glyph glyph-name="zero" unicode="0" horiz-adv-x="682" 
d="M122 584q84 96 219 96q136 0 220.5 -96.5t84.5 -249.5t-84.5 -249t-220.5 -96q-135 0 -219.5 96t-84.5 249t85 250zM242 335q0 -75 27 -118q26 -43 72 -43t73 43t27 118q0 74 -27 117t-73 43t-72.5 -43t-26.5 -117z" />
    <glyph glyph-name="one" unicode="1" horiz-adv-x="418" 
d="M24 635l194 34h132v-669h-205v478l-121 -16v173z" />
    <glyph glyph-name="two" unicode="2" horiz-adv-x="598" 
d="M108 615q74 65 191 65q110 0 180.5 -60.5t70.5 -156.5q0 -72 -38 -125t-108 -111l-66 -55h216v-173h-508v150l233 205q28 24 39 35t21 28.5t10 35.5q0 26 -17 40.5t-42 14.5q-29 0 -49 -22.5t-20 -60.5l-187 19q0 105 74 171z" />
    <glyph glyph-name="three" unicode="3" horiz-adv-x="614" 
d="M20 194l182 40q6 -36 29.5 -56.5t60.5 -20.5q35 0 58.5 22t23.5 55q0 31 -23 51.5t-58 20.5q-31 0 -63 -20l-73 109l142 108h-237v166h481v-152l-131 -99q74 -10 120 -60.5t46 -131.5q0 -106 -78.5 -172t-209.5 -66q-113 0 -185 52.5t-85 153.5z" />
    <glyph glyph-name="four" unicode="4" horiz-adv-x="654" 
d="M276 669h261v-397h81v-156h-81v-116h-199v116h-316v134zM207 272h131v221z" />
    <glyph glyph-name="five" unicode="5" horiz-adv-x="619" 
d="M26 180l184 43q22 -67 88 -67q35 0 58.5 22.5t23.5 57.5q0 34 -23.5 56t-61.5 22q-51 0 -76 -46l-161 76l53 325h437v-166h-289l-14 -73q43 24 105 24q107 0 170 -62.5t63 -163.5q0 -108 -76.5 -174t-205.5 -66q-110 0 -184 48.5t-91 143.5z" />
    <glyph glyph-name="six" unicode="6" horiz-adv-x="626" 
d="M50 365q23 55 78 123l146 181h242l-173 -212q15 3 35 3q96 0 160 -62.5t64 -156.5q0 -112 -81 -182t-206 -70q-126 0 -207.5 70.5t-81.5 185.5q0 65 24 120zM255 178q23 -23 58 -23q34 0 57.5 23t23.5 57t-23 56.5t-57 22.5q-35 0 -58.5 -22.5t-23.5 -56.5q0 -35 23 -57z
" />
    <glyph glyph-name="seven" unicode="7" horiz-adv-x="534" 
d="M29 496v173h478v-148l-225 -521h-227l226 496h-252z" />
    <glyph glyph-name="eight" unicode="8" horiz-adv-x="658" 
d="M62 295q27 43 79 65q-75 45 -75 128t73 137.5t188 54.5q116 0 189.5 -54.5t73.5 -138.5q0 -82 -72 -126q51 -23 78.5 -66.5t27.5 -93.5q0 -93 -80.5 -152.5t-214.5 -59.5q-135 0 -215 59.5t-80 153.5q0 50 28 93zM272 166q22 -20 57 -20t58 20t23 50q0 31 -23 50.5
t-58 19.5t-57.5 -19.5t-22.5 -50.5q0 -30 23 -50zM278 422q20 -18 52 -18q30 0 50 17.5t20 44.5t-20 45t-51 18t-51 -18t-20 -45t20 -44z" />
    <glyph glyph-name="nine" unicode="9" 
d="M22 431q0 107 81 178t207 71q127 0 208 -72t81 -185q0 -16 -2 -32t-4.5 -28.5t-9.5 -29t-10.5 -26t-15 -28t-16 -26t-20 -29t-20 -27.5t-24 -31t-24.5 -32l-103 -134h-241l165 214q-8 -1 -22 -1q-100 0 -165 61.5t-65 156.5zM249 377q23 -23 57 -23q35 0 58 22.5t23 57.5
t-22.5 57.5t-57.5 22.5t-58 -23t-23 -57t23 -57z" />
    <glyph glyph-name="colon" unicode=":" horiz-adv-x="314" 
d="M74 186q34 34 84 34q49 0 82.5 -34t33.5 -83t-33.5 -82.5t-82.5 -33.5q-50 0 -84 33.5t-34 82.5t34 83zM74 495q34 34 84 34q49 0 82.5 -34t33.5 -83t-33.5 -82.5t-82.5 -33.5q-50 0 -84 33.5t-34 82.5t34 83z" />
    <glyph glyph-name="semicolon" unicode=";" horiz-adv-x="321" 
d="M76 173q34 33 84 33q52 0 87.5 -35.5t35.5 -88.5q0 -122 -201 -290l-39 42q77 90 107 153q-47 0 -77.5 31t-30.5 72q0 49 34 83zM73 495q34 34 84 34q49 0 83 -34t34 -83t-34 -82.5t-83 -33.5q-50 0 -84 33.5t-34 82.5t34 83z" />
    <glyph glyph-name="less" unicode="&#x3c;" horiz-adv-x="475" 
d="M422 567v-193l-202 -57l202 -61v-194l-393 170v170z" />
    <glyph glyph-name="equal" unicode="=" horiz-adv-x="532" 
d="M471 534v-180h-410v180h410zM61 116v180h410v-180h-410z" />
    <glyph glyph-name="greater" unicode="&#x3e;" horiz-adv-x="475" 
d="M446 402v-170l-392 -170v194l201 61l-201 57v193z" />
    <glyph glyph-name="question" unicode="?" horiz-adv-x="578" 
d="M114 680q66 37 168 37q120 0 193.5 -56.5t73.5 -147.5q0 -41 -18.5 -75t-44.5 -55.5t-52.5 -40t-45 -37.5t-18.5 -38v-23h-198v35q0 45 26 81t56.5 54.5t56.5 41t26 42.5q0 19 -19 33t-49 14q-60 0 -95 -59l-156 97q30 60 96 97zM196 172q31 30 77 30t76 -30.5t30 -76.5
t-30 -76t-76 -30q-47 0 -77.5 30t-30.5 76t31 77z" />
    <glyph glyph-name="at" unicode="@" horiz-adv-x="841" 
d="M146 525q116 112 295 112q170 0 278.5 -100.5t108.5 -250.5q0 -109 -62 -172.5t-152 -63.5q-87 0 -122 64q-43 -60 -114 -60q-63 0 -103.5 46t-40.5 121q0 84 50.5 139.5t115.5 55.5q52 0 88 -39l2 27h124l-12 -183v-4q0 -22 11 -33t27 -11q25 0 41.5 27.5t16.5 74.5
q0 102 -73.5 172t-183.5 70q-120 0 -200 -81.5t-80 -203.5q0 -112 72.5 -189t207.5 -77q91 0 184 48l48 -101q-38 -30 -105 -48.5t-138 -18.5q-174 0 -287 109.5t-113 282.5q0 175 116 287zM377 185q14 -16 37 -16q27 0 45.5 21t18.5 52q0 24 -14.5 40t-37.5 16
q-27 0 -45.5 -21t-18.5 -51q0 -25 15 -41z" />
    <glyph glyph-name="A" unicode="A" horiz-adv-x="698" 
d="M222 669h256l219 -669h-219l-24 93h-209l-25 -93h-222zM413 265l-63 233l-61 -233h124z" />
    <glyph glyph-name="B" unicode="B" horiz-adv-x="681" 
d="M56 669h358q104 0 158 -50t54 -129q0 -93 -77 -128q104 -35 104 -156q0 -98 -64.5 -152t-194.5 -54h-338v669zM261 272v-108h125q28 0 44 15.5t16 39.5q0 23 -16 38t-41 15h-128zM261 506v-102h109q26 0 42.5 13t16.5 37t-15.5 38t-39.5 14h-113z" />
    <glyph glyph-name="C" unicode="C" horiz-adv-x="709" 
d="M128 583q99 98 253 98q107 0 191.5 -51t122.5 -136l-180 -92q-18 41 -55 64.5t-83 23.5q-64 0 -106 -44t-42 -112q0 -67 42.5 -111.5t106.5 -44.5q48 0 85.5 25.5t54.5 67.5l184 -84q-36 -91 -123 -145t-199 -54q-152 0 -252 98t-100 248t100 249z" />
    <glyph glyph-name="D" unicode="D" horiz-adv-x="713" 
d="M56 669h281q164 0 254.5 -91t90.5 -245q0 -153 -88.5 -243t-249.5 -90h-288v669zM364 190q47 0 78 41t31 107q0 63 -31 102t-79 39h-100v-289h101z" />
    <glyph glyph-name="E" unicode="E" horiz-adv-x="610" 
d="M56 0v669h502v-178h-300v-73h292v-167h-292v-73h311v-178h-513z" />
    <glyph glyph-name="F" unicode="F" horiz-adv-x="576" 
d="M56 669h485v-177h-278v-83h251v-177h-251v-232h-207v669z" />
    <glyph glyph-name="G" unicode="G" horiz-adv-x="757" 
d="M28 335q0 152 101.5 249t260.5 97q183 0 288 -119l-156 -133q-45 62 -131 62q-71 0 -112.5 -45t-41.5 -111q0 -68 43 -113t111 -45q51 0 87 24.5t36 54.5h-135v148h351v-78q0 -154 -96.5 -246t-245.5 -92q-158 0 -259 96.5t-101 250.5z" />
    <glyph glyph-name="H" unicode="H" horiz-adv-x="738" 
d="M56 669h211v-257h203v257h212v-669h-212v220h-203v-220h-211v669z" />
    <glyph glyph-name="I" unicode="I" horiz-adv-x="321" 
d="M56 0v669h209v-669h-209z" />
    <glyph glyph-name="J" unicode="J" horiz-adv-x="502" 
d="M143 182q61 0 80 26.5t19 71.5v389h209v-427q0 -124 -72 -188.5t-197 -64.5q-87 0 -164 24v184q66 -15 125 -15z" />
    <glyph glyph-name="K" unicode="K" horiz-adv-x="689" 
d="M56 669h209v-273l181 273h244l-236 -344l236 -325h-256l-169 247v-247h-209v669z" />
    <glyph glyph-name="L" unicode="L" horiz-adv-x="564" 
d="M548 0h-492v669h209v-488h283v-181z" />
    <glyph glyph-name="M" unicode="M" horiz-adv-x="900" 
d="M56 669h201l193 -323l194 323h200v-669h-200v321l-126 -199h-136l-126 200v-322h-200v669z" />
    <glyph glyph-name="N" unicode="N" horiz-adv-x="743" 
d="M250 669l240 -350v350h197v-669h-191l-243 345v-345h-197v669h194z" />
    <glyph glyph-name="O" unicode="O" horiz-adv-x="763" 
d="M128 583q100 98 253 98q154 0 254 -98.5t100 -248.5q0 -149 -100 -247.5t-254 -98.5q-153 0 -253 98t-100 248t100 249zM229 334q0 -66 44 -111q43 -45 108 -45t109 45t44 111t-44 111t-109 45t-108.5 -45t-43.5 -111z" />
    <glyph glyph-name="P" unicode="P" horiz-adv-x="665" 
d="M388 669q113 0 185.5 -71t72.5 -184q0 -117 -74 -187t-198 -70h-111v-157h-207v669h332zM356 334q35 0 58 22t23 56q0 35 -22.5 57.5t-56.5 22.5h-95v-158h93z" />
    <glyph glyph-name="Q" unicode="Q" horiz-adv-x="778" 
d="M128 583q100 98 253 98q154 0 254 -98.5t100 -248.5q0 -91 -40 -166t-110 -122q56 -43 129 -43q36 0 68 10v-178q-59 -12 -113 -12q-97 0 -178.5 48.5t-130.5 117.5q-145 7 -238.5 104t-93.5 241q0 150 100 249zM229 334q0 -66 43.5 -111t108.5 -45t109 45t44 111
t-44 111t-109 45t-108 -45q-44 -45 -44 -111z" />
    <glyph glyph-name="R" unicode="R" horiz-adv-x="683" 
d="M408 669q103 0 170.5 -68t67.5 -171q0 -70 -29.5 -125t-81.5 -85l127 -220h-246l-93 180h-60v-180h-207v669h352zM263 346h101q32 0 52.5 21t20.5 52q0 32 -20.5 52.5t-51.5 20.5h-102v-146z" />
    <glyph glyph-name="S" unicode="S" horiz-adv-x="666" 
d="M101 248q105 -80 250 -80q69 0 69 37q0 14 -13 23t-29.5 12.5t-47.5 8.5q-3 0 -4.5 0.5t-4.5 1t-5 0.5q-35 6 -58.5 11t-58.5 15.5t-58 25t-45.5 36t-34 53t-11.5 70.5q0 107 81 162.5t218 55.5q159 0 275 -71l-83 -157q-37 22 -94 38.5t-113 16.5q-71 0 -71 -33
q0 -25 45 -36q8 -2 41 -8q118 -21 165 -41q120 -53 121 -171q0 -108 -80.5 -168.5t-227.5 -60.5q-89 0 -170.5 27t-138.5 71z" />
    <glyph glyph-name="T" unicode="T" horiz-adv-x="620" 
d="M16 669h588v-177h-190v-492h-208v492h-190v177z" />
    <glyph glyph-name="U" unicode="U" horiz-adv-x="707" 
d="M258 669v-381q0 -42 25 -70t70 -28t71 28.5t26 69.5v381h208v-397q0 -126 -85 -204q-86 -79 -220 -79t-219 78t-85 205v397h209z" />
    <glyph glyph-name="V" unicode="V" horiz-adv-x="709" 
d="M0 669h241l114 -418l115 418h240l-229 -669h-254z" />
    <glyph glyph-name="W" unicode="W" horiz-adv-x="998" 
d="M7 669h216l77 -413l105 413h189l106 -407l76 407h217l-178 -669h-221l-95 377l-97 -377h-221z" />
    <glyph glyph-name="X" unicode="X" horiz-adv-x="694" 
d="M216 338l-212 331h246l98 -172l105 172h244l-220 -334l214 -335h-247l-95 171l-109 -171h-243z" />
    <glyph glyph-name="Y" unicode="Y" horiz-adv-x="679" 
d="M-6 669h241l103 -258l109 258h242l-247 -481v-188h-208v188z" />
    <glyph glyph-name="Z" unicode="Z" horiz-adv-x="643" 
d="M597 498l-283 -321h294v-177h-570v163l291 329h-286v177h554v-171z" />
    <glyph glyph-name="bracketleft" unicode="[" horiz-adv-x="435" 
d="M58 732h345v-178h-145v-543h145v-178h-345v899z" />
    <glyph glyph-name="backslash" unicode="\" horiz-adv-x="589" 
d="M239 741l331 -850h-221l-331 850h221z" />
    <glyph glyph-name="bracketright" unicode="]" horiz-adv-x="435" 
d="M32 554v178h346v-899h-346v178h146v543h-146z" />
    <glyph glyph-name="asciicircum" unicode="^" horiz-adv-x="569" 
d="M178 669h213l151 -279h-193l-64 139l-63 -139h-196z" />
    <glyph glyph-name="underscore" unicode="_" horiz-adv-x="575" 
d="M575 -179h-575v143h575v-143z" />
    <glyph glyph-name="grave" unicode="`" horiz-adv-x="313" 
d="M242 765l46 -175h-191l-75 175h220z" />
    <glyph glyph-name="a" unicode="a" horiz-adv-x="650" 
d="M97 458q71 76 181 76q85 0 141 -56v44h183v-522h-183v43q-57 -55 -144 -55q-109 0 -179 77t-70 197q0 119 71 196zM248 189q28 -29 71 -29q42 0 70.5 29.5t28.5 72.5q0 42 -28 71t-70 29q-44 0 -72 -28.5t-28 -72.5t28 -72z" />
    <glyph glyph-name="b" unicode="b" horiz-adv-x="655" 
d="M242 708v-227q59 51 139 51q106 0 177 -78.5t71 -194.5t-70.5 -193.5t-175.5 -77.5q-85 0 -145 54v-42h-190v708h194zM267 189q29 -30 71 -30q40 0 68 29t28 71t-28.5 71.5t-69.5 29.5t-69.5 -29.5t-28.5 -71.5q0 -41 29 -70z" />
    <glyph glyph-name="c" unicode="c" horiz-adv-x="599" 
d="M106 459q80 75 212 75q105 0 178 -51t91 -144l-181 -48q-6 31 -31 51t-59 20q-42 0 -69 -28.5t-27 -73.5q0 -44 27.5 -72t70.5 -28q32 0 57.5 19.5t33.5 49.5l172 -71q-24 -75 -94.5 -122.5t-174.5 -47.5q-129 0 -207.5 74.5t-78.5 196.5q0 124 80 200z" />
    <glyph glyph-name="d" unicode="d" horiz-adv-x="655" 
d="M98 454q72 78 180 78q78 0 136 -50v226h193v-708h-189v42q-60 -54 -146 -54q-105 0 -175.5 78t-70.5 194t72 194zM248 188q28 -29 70 -29q43 0 71.5 28.5t28.5 71.5t-28.5 72t-70.5 29q-43 0 -71 -28.5t-28 -72.5q0 -43 28 -71z" />
    <glyph glyph-name="e" unicode="e" horiz-adv-x="613" 
d="M26 259q0 123 78.5 199t207.5 76q124 0 200 -71t76 -186q0 -33 -3 -58h-376q7 -38 35 -59.5t66 -21.5q68 0 95 51l159 -60q-24 -65 -91 -103t-160 -38q-130 0 -208.5 75t-78.5 196zM213 318h190q-8 32 -33 52q-25 19 -60 19t-61 -19t-36 -52z" />
    <glyph glyph-name="f" unicode="f" horiz-adv-x="465" 
d="M119 522v40q0 86 58 137t157 51q82 0 134 -20v-165q-41 12 -89 12q-30 0 -45 -9.5t-15 -37.5v-8h129v-168h-129v-354h-200v354h-98v168h98z" />
    <glyph glyph-name="g" unicode="g" horiz-adv-x="652" 
d="M98 459q70 74 175 74q84 0 145 -50v39h187v-472q0 -125 -83 -198t-228 -73q-111 0 -222 48v167q107 -51 205 -51q64 0 102 28.5t38 82.5v11q-58 -49 -145 -49q-106 0 -175.5 72t-69.5 184t71 187zM222 266q0 -41 28 -68q27 -27 68 -27t69 27.5t28 67.5q0 41 -27 68.5
t-68 27.5q-43 0 -70.5 -27.5t-27.5 -68.5z" />
    <glyph glyph-name="h" unicode="h" horiz-adv-x="616" 
d="M48 709h199v-213q53 37 125 37q90 0 145.5 -55t55.5 -144v-334h-199v293q0 32 -16.5 50t-43.5 18q-29 0 -48 -22t-19 -57v-282h-199v709z" />
    <glyph glyph-name="i" unicode="i" horiz-adv-x="296" 
d="M48 0v522h200v-522h-200zM34 676q0 48 33 81t81 33t81 -33t33 -81q0 -47 -33 -80t-81 -33t-81 33t-33 80z" />
    <glyph glyph-name="j" unicode="j" horiz-adv-x="308" 
d="M-96 -199v169q47 -14 93 -14q64 0 64 70v496h199v-547q0 -89 -59 -142.5t-163 -53.5q-72 0 -134 22zM46 676q0 48 33.5 81t81.5 33t80.5 -33t32.5 -81q0 -47 -32 -80q-33 -33 -81 -33t-81.5 33t-33.5 80z" />
    <glyph glyph-name="k" unicode="k" horiz-adv-x="594" 
d="M48 701h198v-359l125 180h229l-174 -250l171 -272h-234l-117 197v-197h-198v701z" />
    <glyph glyph-name="l" unicode="l" horiz-adv-x="298" 
d="M250 701v-701h-202v701h202z" />
    <glyph glyph-name="m" unicode="m" horiz-adv-x="942" 
d="M48 522h190v-42q56 53 143 53q92 0 142 -61q66 61 164 61q94 0 152.5 -55t58.5 -144v-334h-199v293q0 32 -16 50t-43 18q-29 0 -48 -22t-19 -57v-282h-199v293q0 32 -16.5 50t-43.5 18q-29 0 -48 -22t-19 -57v-282h-199v522z" />
    <glyph glyph-name="n" unicode="n" horiz-adv-x="616" 
d="M238 522v-40q55 51 134 51q90 0 145.5 -55t55.5 -144v-334h-199v293q0 32 -16.5 50t-43.5 18q-29 0 -48 -22t-19 -57v-282h-199v522h190z" />
    <glyph glyph-name="o" unicode="o" horiz-adv-x="627" 
d="M106 456q80 78 208 78q127 0 207.5 -78t80.5 -197t-81.5 -195t-206.5 -76q-126 0 -207.5 76.5t-81.5 194.5t81 197zM243 188q29 -29 71 -29q43 0 71.5 29t28.5 73q0 43 -28 72t-71 29t-72 -29t-29 -72q0 -44 29 -73z" />
    <glyph glyph-name="p" unicode="p" horiz-adv-x="655" 
d="M238 522v-46q60 54 145 54q105 0 175.5 -77.5t70.5 -194.5t-71 -193.5t-177 -76.5q-81 0 -139 48v-237h-194v723h190zM237 258q0 -43 29 -72q28 -30 70 -30t70.5 29.5t28.5 72.5t-28 72t-70 29q-43 0 -71.5 -29t-28.5 -72z" />
    <glyph glyph-name="q" unicode="q" horiz-adv-x="655" 
d="M26 258q0 115 70 193.5t176 78.5q86 0 146 -54v46h189v-723h-194v238q-58 -49 -139 -49q-105 0 -176.5 77t-71.5 193zM220 258q0 -43 29 -72q28 -30 70 -30t70.5 29.5t28.5 72.5t-28.5 72t-71.5 29q-42 0 -70 -29t-28 -72z" />
    <glyph glyph-name="r" unicode="r" horiz-adv-x="445" 
d="M238 522v-47q44 59 124 59q31 0 62 -12l-2 -195q-36 14 -71 14q-106 0 -106 -108v-233h-197v522h190z" />
    <glyph glyph-name="s" unicode="s" horiz-adv-x="562" 
d="M15 63l69 143q37 -26 94.5 -46.5t104.5 -20.5q55 0 55 25q0 4 -2 7.5t-7 6t-10.5 4.5t-16 4t-19.5 4l-24 4q-15 2 -28 4q-96 18 -139 55t-43 108q0 81 63 127t179 46q123 0 227 -44l-50 -147q-103 47 -186 47q-42 0 -42 -20q0 -4 2 -7.5t7.5 -6.5t11 -5t15.5 -4.5t18 -4
t21.5 -4t23.5 -4.5q104 -21 150.5 -55.5t46.5 -110.5q0 -82 -68 -130.5t-186 -48.5q-160 0 -267 74z" />
    <glyph glyph-name="t" unicode="t" horiz-adv-x="451" 
d="M98 522v136h199v-136h114v-168h-114v-136q0 -57 53 -57q39 0 78 16v-162q-68 -27 -140 -27q-190 0 -190 179v187h-75v168h75z" />
    <glyph glyph-name="u" unicode="u" horiz-adv-x="615" 
d="M42 522h200v-294q0 -32 16 -50t43 -18q29 0 48 21.5t19 56.5v284h199v-522h-189v44q-57 -56 -144 -56q-89 0 -140.5 59.5t-51.5 170.5v304z" />
    <glyph glyph-name="v" unicode="v" horiz-adv-x="604" 
d="M221 522l80 -304h5l77 304h221l-194 -522h-218l-191 522h220z" />
    <glyph glyph-name="w" unicode="w" horiz-adv-x="861" 
d="M0 522h214l56 -269l76 269h168l78 -261l54 261h214l-152 -523h-195l-81 279l-81 -279h-197z" />
    <glyph glyph-name="x" unicode="x" horiz-adv-x="589" 
d="M161 259l-159 263h223l68 -140l79 140h216l-162 -263l164 -259h-223l-74 135l-76 -135h-216z" />
    <glyph glyph-name="y" unicode="y" horiz-adv-x="617" 
d="M197 523l116 -332l100 332h202l-158 -468q-18 -53 -33.5 -88.5t-40.5 -74.5t-55 -61.5t-74 -37.5t-100 -15q-66 0 -136 28v171q58 -29 115 -29q63 0 87 24l-226 551h203z" />
    <glyph glyph-name="z" unicode="z" horiz-adv-x="551" 
d="M519 0h-486v138l215 219h-202v165h462v-132l-217 -224h228v-166z" />
    <glyph glyph-name="braceleft" unicode="{" horiz-adv-x="427" 
d="M18 208v150q61 0 81 15t20 50q0 6 -1 13l-8 86q-2 22 -2 31q0 96 54.5 142.5t135.5 46.5q26 0 91 -7v-167q-15 3 -27 3q-33 0 -51.5 -18.5t-18.5 -49.5q0 -6 1 -13l8 -77q1 -8 1 -22q0 -82 -66 -108q66 -26 66 -107q0 -14 -1 -22l-8 -77q-1 -5 -1 -14q0 -35 20 -51.5
t50 -16.5q5 0 14.5 1.5t12.5 1.5v-167q-65 -7 -91 -7q-81 0 -135.5 47t-54.5 142q0 9 2 31l8 86q1 7 1 13q0 35 -20 50t-81 15z" />
    <glyph glyph-name="bar" unicode="|" horiz-adv-x="293" 
d="M234 -221h-176v1051h176v-1051z" />
    <glyph glyph-name="braceright" unicode="}" horiz-adv-x="427" 
d="M38 568v167q65 7 91 7q81 0 135.5 -47t54.5 -143q0 -20 -1 -30l-8 -86v-6q-1 -6 -1 -9q0 -37 22.5 -50t77.5 -13v-150q-59 0 -79.5 -14.5t-20.5 -49.5q0 -7 1 -14l8 -86q1 -10 1 -29q0 -96 -54.5 -143.5t-135.5 -47.5q-26 0 -91 7v167q2 0 12.5 -1.5t15.5 -1.5
q33 0 51 18.5t18 49.5q0 7 -1 14l-8 77q-1 8 -1 22q0 81 66 107q-66 26 -66 108q0 14 1 22l8 77q1 5 1 14q0 34 -19.5 50.5t-49.5 16.5q-13 0 -28 -3z" />
    <glyph glyph-name="asciitilde" unicode="~" horiz-adv-x="651" 
d="M98 381q56 62 131 62q33 0 61 -12t43 -26t33 -26t33 -12q22 0 34.5 15.5t16.5 55.5h168q-4 -114 -57 -182t-138 -68q-32 0 -59.5 12t-43.5 26.5t-35 26.5t-36 12q-21 0 -30 -15t-11 -58h-169q3 126 59 189z" />
    <glyph glyph-name="exclamdown" unicode="&#xa1;" horiz-adv-x="319" 
d="M42 -221l17 465h200l19 -465h-236zM81 467q32 32 78 32t78.5 -32t32.5 -78t-32.5 -78.5t-78.5 -32.5t-78.5 32.5t-32.5 78.5t33 78z" />
    <glyph glyph-name="cent" unicode="&#xa2;" horiz-adv-x="621" 
d="M93 521q58 71 158 91v115h133v-112q84 -13 140.5 -62.5t71.5 -128.5l-181 -48q-6 31 -31 51t-59 20q-42 0 -69 -28.5t-27 -73.5q0 -44 27.5 -72t69.5 -28q33 0 58.5 19.5t33.5 49.5l172 -72q-19 -62 -72.5 -106t-133.5 -58v-125h-133v126q-100 20 -158.5 90.5
t-58.5 174.5q0 105 59 177z" />
    <glyph glyph-name="sterling" unicode="&#xa3;" horiz-adv-x="637" 
d="M36 151q55 19 72 40.5t18 67.5h-82v132h49q-12 38 -12 75q0 95 72.5 155t188.5 60q32 0 62.5 -4t68 -19t65 -39.5t46.5 -69t19 -104.5l-181 -11q0 76 -72 76q-31 0 -51 -19.5t-20 -48.5q0 -22 12 -51h202v-132h-175q-3 -53 -23 -89h295v-170h-525z" />
    <glyph glyph-name="currency" unicode="&#xa4;" horiz-adv-x="606" 
d="M35 485l119 115l8 -7l49 -72q43 20 93 20q48 0 91 -19l48 71l8 7l119 -115l-6 -11l-68 -49q19 -43 19 -89q0 -52 -23 -95l72 -51l6 -12l-119 -115l-8 7l-53 78q-42 -16 -86 -16q-46 0 -88 17l-54 -79l-8 -7l-119 115l6 12l75 53q-22 44 -22 93q0 44 18 87l-71 51z
M254 279q18 -21 49 -21t49.5 21t18.5 56t-18.5 56.5t-49.5 21.5t-49.5 -21.5t-18.5 -56.5t19 -56z" />
    <glyph glyph-name="yen" unicode="&#xa5;" horiz-adv-x="676" 
d="M242 669l96 -274l96 274h221l-169 -349h80v-103h-125v-36h125v-104h-125v-77h-207v77h-124v104h124v36h-124v103h79l-168 349h221z" />
    <glyph glyph-name="brokenbar" unicode="&#xa6;" horiz-adv-x="293" 
d="M234 830v-420h-176v420h176zM58 -221v419h176v-419h-176z" />
    <glyph glyph-name="section" unicode="&#xa7;" horiz-adv-x="580" 
d="M34 -91l64 132q38 -30 91.5 -50.5t104.5 -20.5q64 0 64 32q0 18 -32.5 30.5t-78.5 23.5t-92.5 27t-79 50.5t-32.5 85.5q0 46 25 80.5t70 51.5q-84 44 -84 136q0 89 66.5 141t173.5 52q66 0 130.5 -19t97.5 -48l-72 -128q-29 20 -78 35.5t-90 15.5q-55 0 -55 -29
q0 -18 33 -30t79.5 -22.5t93 -26t79.5 -51t33 -87.5q0 -45 -25 -81t-75 -49q89 -43 89 -138q0 -90 -69.5 -145t-177.5 -55q-73 0 -144 24.5t-109 62.5zM225 240q8 -12 27.5 -20.5t35 -13t45.5 -11.5q36 21 36 51q0 15 -8.5 26t-29.5 19t-35.5 12t-47.5 12q-31 -20 -31 -49
q0 -15 8 -26z" />
    <glyph glyph-name="dieresis" unicode="&#xa8;" horiz-adv-x="504" 
d="M60 741q30 30 74 30t74.5 -30t30.5 -73q0 -44 -30.5 -75t-74.5 -31q-43 0 -73.5 31t-30.5 75q0 43 30 73zM296 741q30 30 74 30t74 -30t30 -73q0 -44 -30.5 -75t-73.5 -31q-44 0 -74.5 31t-30.5 75q0 43 31 73z" />
    <glyph glyph-name="copyright" unicode="&#xa9;" horiz-adv-x="758" 
d="M132 585q98 98 248 98q149 0 247 -98t98 -248t-98 -248.5t-247 -98.5q-150 0 -248 98.5t-98 248.5t98 248zM134 337q0 -108 70 -179t177 -71q106 0 175 71t69 179t-69.5 178.5t-175.5 70.5q-107 0 -176.5 -70.5t-69.5 -178.5zM248 468q54 51 141 51q49 0 95.5 -27.5
t70.5 -69.5l-118 -60q-14 34 -55 34q-26 0 -42.5 -17.5t-16.5 -44.5t17 -44.5t43 -17.5q19 0 35 9.5t23 24.5l113 -61q-21 -43 -66 -69.5t-101 -26.5q-85 0 -139 51t-54 134t54 134z" />
    <glyph glyph-name="ordfeminine" unicode="&#xaa;" horiz-adv-x="355" 
d="M57 568q27 22 78 22h75q0 12 -1.5 18t-13.5 12t-36 6q-48 0 -105 -21l-8 79q54 22 123 22q49 0 80.5 -12t43 -33.5t14.5 -35t3 -32.5v-168h-99v18q-35 -23 -78 -23q-46 0 -74.5 24.5t-28.5 63.5q0 38 27 60zM134 514q0 -24 32 -24q19 0 31.5 11t12.5 28v10h-45
q-31 0 -31 -25z" />
    <glyph glyph-name="guillemotleft" unicode="&#xab;" horiz-adv-x="651" 
d="M25 252l108 221h217l-108 -221l100 -225h-218zM302 252l108 221h217l-109 -221l101 -225h-218z" />
    <glyph glyph-name="logicalnot" unicode="&#xac;" horiz-adv-x="618" 
d="M390 228h-342v169h513v-275h-171v106z" />
    <glyph glyph-name="uni00AD" unicode="&#xad;" horiz-adv-x="463" 
d="M413 208h-363v168h363v-168z" />
    <glyph glyph-name="registered" unicode="&#xae;" horiz-adv-x="758" 
d="M132 585q98 98 248 98q149 0 247 -98t98 -248t-98 -248.5t-247 -98.5q-150 0 -248 98.5t-98 248.5t98 248zM204 158q70 -71 177 -71q106 0 175 71t69 179t-69.5 178.5t-175.5 70.5q-107 0 -176.5 -70.5t-69.5 -178.5t70 -179zM227 159v353h179q62 0 101 -36.5t39 -93.5
q0 -77 -59 -110l66 -113h-135l-45 91h-22v-91h-124zM351 417v-71h34q16 0 27 10t11 26q0 15 -10 25t-26 10h-36z" />
    <glyph glyph-name="macron" unicode="&#xaf;" horiz-adv-x="466" 
d="M421 608h-375v132h375v-132z" />
    <glyph glyph-name="degree" unicode="&#xb0;" horiz-adv-x="371" 
d="M72 637q45 43 114 43t114 -43t45 -108t-45 -108t-114 -43t-114.5 43t-45.5 108t46 108zM138 529q0 -22 13.5 -36t34.5 -14q20 0 33.5 14t13.5 36t-13.5 36t-33.5 14q-21 0 -34.5 -14t-13.5 -36z" />
    <glyph glyph-name="plusminus" unicode="&#xb1;" horiz-adv-x="555" 
d="M50 337v174h134v130h187v-130h135v-174h-135v-130h-187v130h-134zM50 176h456v-174h-456v174z" />
    <glyph glyph-name="twosuperior" unicode="&#xb2;" horiz-adv-x="366" 
d="M69 772q45 37 113 37q71 0 112 -35t41 -91q0 -65 -66 -110l-54 -37h123v-93h-310v77l138 99q2 1 10.5 7.5t11 8.5t9 7t8.5 8t5.5 8t4.5 10t1 10q0 15 -10 24.5t-27 9.5q-21 0 -33.5 -15.5t-14.5 -37.5l-110 15q2 61 48 98z" />
    <glyph glyph-name="threesuperior" unicode="&#xb3;" horiz-adv-x="375" 
d="M15 542l99 32q5 -20 22.5 -32.5t41.5 -12.5t39.5 12.5t15.5 31.5t-15.5 30t-39.5 11q-22 0 -48 -12l-38 56l94 52h-151v94h297v-90l-77 -45q42 -6 70 -33t28 -70q0 -57 -48 -92.5t-127 -35.5q-68 0 -112 27.5t-51 76.5z" />
    <glyph glyph-name="acute" unicode="&#xb4;" horiz-adv-x="313" 
d="M216 590h-191l46 175h219z" />
    <glyph glyph-name="paragraph" unicode="&#xb6;" horiz-adv-x="813" 
d="M96 599q72 70 180 70h498v-177h-88v-659h-152v659h-80v-659h-185v346q-105 2 -175.5 72.5t-70.5 173.5q0 104 73 174z" />
    <glyph glyph-name="periodcentered" unicode="&#xb7;" horiz-adv-x="289" 
d="M34 315q0 47 32 78.5t79 31.5t79 -32t32 -78q0 -47 -32 -79t-79 -32t-79 32t-32 79z" />
    <glyph glyph-name="cedilla" unicode="&#xb8;" horiz-adv-x="321" 
d="M112 -124q40 0 40 25q0 23 -36 23h-50l-8 11l35 99l129 1l-18 -58q41 -5 65 -30t24 -62q0 -49 -42 -81.5t-107 -32.5q-61 0 -111 16v103q52 -14 79 -14z" />
    <glyph glyph-name="onesuperior" unicode="&#xb9;" horiz-adv-x="365" 
d="M136 539v147l-104 -26v104l141 40h77v-265h100v-96h-321v96h107z" />
    <glyph glyph-name="ordmasculine" unicode="&#xba;" horiz-adv-x="354" 
d="M69 666q42 40 108 40q65 0 107.5 -40.5t42.5 -102.5q0 -63 -42.5 -104t-107.5 -41q-66 0 -108.5 41t-42.5 104t43 103zM125 563q0 -23 15 -38q15 -16 37 -16t37 15.5t15 38.5t-15 38t-37 15q-23 0 -37.5 -15t-14.5 -38z" />
    <glyph glyph-name="guillemotright" unicode="&#xbb;" horiz-adv-x="651" 
d="M24 473h218l108 -221l-100 -225h-218l101 225zM301 473h217l108 -221l-99 -225h-218l101 225z" />
    <glyph glyph-name="onequarter" unicode="&#xbc;" horiz-adv-x="901" 
d="M645 669h141l-476 -669h-147zM525 129l136 221h169v-208h45v-83h-45v-64h-112v64h-193v70zM142 411v147l-104 -26v104l141 40h78v-265h100v-96h-322v96h107zM644 142h74v126z" />
    <glyph glyph-name="onehalf" unicode="&#xbd;" horiz-adv-x="890" 
d="M634 669h141l-476 -669h-147zM536 226q2 60 47.5 97.5t113.5 37.5q71 0 112 -35.5t41 -91.5q0 -65 -66 -110l-53 -36h122v-93h-310v77l138 98q18 13 26.5 20t16 18t7.5 22q0 15 -10.5 24.5t-26.5 9.5q-40 0 -48 -53zM140 411v147l-104 -26v104l141 40h77v-265h100v-96
h-321v96h107z" />
    <glyph glyph-name="threequarters" unicode="&#xbe;" horiz-adv-x="876" 
d="M136 0l482 669h141l-476 -669h-147zM635 350h170v-208h45v-83h-45v-64h-112v64h-194v70zM25 414l99 32q4 -20 22 -32.5t41 -12.5q24 0 39.5 12.5t15.5 31.5t-15.5 30t-39.5 11q-21 0 -47 -12l-38 56l94 52h-151v94h297v-90l-77 -45q42 -6 69.5 -32.5t27.5 -70.5
q0 -57 -48 -92.5t-127 -35.5q-68 0 -111.5 27.5t-50.5 76.5zM618 142h75v128z" />
    <glyph glyph-name="questiondown" unicode="&#xbf;" horiz-adv-x="576" 
d="M47 58q18 34 44.5 55.5t52.5 40t44.5 37.5t18.5 38v23h198v-35q0 -45 -26 -81t-56.5 -54.5t-56.5 -41t-26 -42.5q0 -19 19 -33t49 -14q58 0 95 59l155 -97q-29 -60 -95 -97t-168 -37q-120 0 -193.5 56.5t-73.5 147.5q0 41 19 75zM228 477q30 30 76 30q47 0 77.5 -30
t30.5 -76t-31 -76.5t-77 -30.5t-76 30.5t-30 76.5t30 76z" />
    <glyph glyph-name="Agrave" unicode="&#xc0;" horiz-adv-x="698" 
d="M222 669h256l219 -669h-219l-24 93h-209l-25 -93h-222zM165 922h227l59 -196h-208zM413 265l-63 233l-61 -233h124z" />
    <glyph glyph-name="Aacute" unicode="&#xc1;" horiz-adv-x="698" 
d="M-2 0l224 669h256l219 -669h-219l-24 93h-209l-25 -93h-222zM302 922h228l-79 -196h-208zM413 265l-63 233l-61 -233h124z" />
    <glyph glyph-name="Acircumflex" unicode="&#xc2;" horiz-adv-x="698" 
d="M-2 0l224 669h256l219 -669h-219l-24 93h-209l-25 -93h-222zM102 726l141 205h210l141 -205h-195l-51 88l-52 -88h-194zM413 265l-63 233l-61 -233h124z" />
    <glyph glyph-name="Atilde" unicode="&#xc3;" horiz-adv-x="698" 
d="M222 669h256l219 -669h-219l-24 93h-209l-25 -93h-222zM114 771q0 67 35 110.5t108 43.5q31 0 56 -9t38 -20.5t28.5 -20.5t30.5 -9q22 0 35 14.5t13 35.5v3h141q1 -8 1 -23q0 -69 -36.5 -115t-106.5 -46q-38 0 -67 15.5t-49.5 31t-38.5 15.5q-21 0 -33 -15t-12 -36v-4
h-141q-2 20 -2 29zM413 265l-63 233l-61 -233h124z" />
    <glyph glyph-name="Adieresis" unicode="&#xc4;" horiz-adv-x="698" 
d="M222 669h256l219 -669h-219l-24 93h-209l-25 -93h-222zM146 916q32 31 79 31q46 0 77.5 -31.5t31.5 -77.5q0 -47 -31.5 -79.5t-77.5 -32.5q-47 0 -79 32.5t-32 79.5q0 46 32 78zM362 838q0 46 32 77.5t78 31.5t78 -31.5t32 -77.5q0 -47 -32 -79q-32 -33 -78 -33t-78 32.5
t-32 79.5zM413 265l-63 233l-61 -233h124z" />
    <glyph glyph-name="Aring" unicode="&#xc5;" horiz-adv-x="698" 
d="M222 669h256l219 -669h-219l-24 93h-209l-25 -93h-222zM200 839q0 56 42.5 93.5t106.5 37.5t106 -37.5t42 -93.5q0 -57 -42 -94q-42 -38 -106 -38t-106.5 37.5t-42.5 94.5zM413 265l-63 233l-61 -233h124zM313 802q14 -14 36 -14t36.5 14t14.5 35q0 22 -14 37
q-15 14 -37 14t-36.5 -14.5t-14.5 -36.5q0 -21 15 -35z" />
    <glyph glyph-name="AE" unicode="&#xc6;" horiz-adv-x="982" 
d="M318 669h613v-177h-293v-77h277v-161h-277v-77h304v-177h-496v107h-202l-50 -107h-211zM321 270h125v266z" />
    <glyph glyph-name="Ccedilla" unicode="&#xc7;" horiz-adv-x="709" 
d="M128 583q99 98 253 98q107 0 191.5 -51t122.5 -136l-180 -92q-18 41 -55 64.5t-83 23.5q-64 0 -106 -44t-42 -112q0 -67 42.5 -111.5t106.5 -44.5q48 0 85.5 25.5t54.5 67.5l184 -84q-31 -79 -101 -130t-162 -65l-9 -29q41 -5 64.5 -30.5t23.5 -62.5q0 -49 -41.5 -81
t-106.5 -32t-112 16v103q48 -14 80 -14q40 0 40 24q0 11 -10.5 17.5t-25.5 6.5h-51l-7 11l25 73q-125 23 -203 116t-78 224q0 150 100 249z" />
    <glyph glyph-name="Egrave" unicode="&#xc8;" horiz-adv-x="610" 
d="M558 669v-178h-300v-73h292v-167h-292v-73h311v-178h-513v669h502zM348 922l59 -196h-208l-78 196h227z" />
    <glyph glyph-name="Eacute" unicode="&#xc9;" horiz-adv-x="610" 
d="M56 669h502v-178h-300v-73h292v-167h-292v-73h311v-178h-513v669zM258 922h228l-79 -196h-208z" />
    <glyph glyph-name="Ecircumflex" unicode="&#xca;" horiz-adv-x="610" 
d="M56 0v669h502v-178h-300v-73h292v-167h-292v-73h311v-178h-513zM199 931h210l141 -205h-195l-51 88l-52 -88h-194z" />
    <glyph glyph-name="Edieresis" unicode="&#xcb;" horiz-adv-x="610" 
d="M56 669h502v-178h-300v-73h292v-167h-292v-73h311v-178h-513v669zM102 916q32 31 79 31q46 0 77.5 -31.5t31.5 -77.5q0 -47 -31.5 -79.5t-77.5 -32.5q-47 0 -79 32.5t-32 79.5q0 46 32 78zM318 838q0 46 32 77.5t78 31.5t78 -31.5t32 -77.5q0 -47 -32 -79
q-32 -33 -78 -33t-78 32.5t-32 79.5z" />
    <glyph glyph-name="Igrave" unicode="&#xcc;" horiz-adv-x="321" 
d="M206 922l59 -196h-208l-79 196h228zM56 0v669h209v-669h-209z" />
    <glyph glyph-name="Iacute" unicode="&#xcd;" horiz-adv-x="321" 
d="M265 726h-208l59 196h227zM56 0v669h209v-669h-209z" />
    <glyph glyph-name="Icircumflex" unicode="&#xce;" horiz-adv-x="321" 
d="M56 669h209v-669h-209v669zM57 931h209l141 -205h-194l-51 88l-52 -88h-195z" />
    <glyph glyph-name="Idieresis" unicode="&#xcf;" horiz-adv-x="321" 
d="M265 669v-669h-209v669h209zM-72 838q0 46 32 77.5t78 31.5t78 -31.5t32 -77.5q0 -47 -32 -79q-32 -33 -78 -33t-78 32.5t-32 79.5zM208 916q32 31 78 31t77.5 -31.5t31.5 -77.5q0 -47 -31 -79q-32 -33 -78 -33t-78 32.5t-32 79.5q0 46 32 78z" />
    <glyph glyph-name="Eth" unicode="&#xd0;" horiz-adv-x="742" 
d="M15 271v130h71v268h280q165 0 255.5 -91t90.5 -245q0 -153 -88.5 -243t-249.5 -90h-288v271h-71zM293 190h101q47 0 77.5 41t30.5 107q0 63 -30.5 102t-78.5 39h-100v-78h109v-130h-109v-81z" />
    <glyph glyph-name="Ntilde" unicode="&#xd1;" horiz-adv-x="743" 
d="M250 669l240 -350v350h197v-669h-191l-243 345v-345h-197v669h194zM134 770q0 67 35 110.5t108 43.5q40 0 68 -14.5t47.5 -29t37.5 -14.5q22 0 35 14t13 35v3h141q1 -8 1 -23q0 -69 -36.5 -115t-106.5 -46q-38 0 -67 15.5t-49.5 31t-38.5 15.5q-21 0 -33 -14.5t-12 -36.5
v-4h-141q-2 20 -2 29z" />
    <glyph glyph-name="Ograve" unicode="&#xd2;" horiz-adv-x="763" 
d="M128 583q100 98 253 98q154 0 254 -98.5t100 -248.5q0 -149 -100 -247.5t-254 -98.5q-153 0 -253 98t-100 248t100 249zM229 334q0 -66 44 -111q43 -45 108 -45t109 45t44 111t-44 111t-109 45t-108.5 -45t-43.5 -111zM198 920h227l59 -197h-208z" />
    <glyph glyph-name="Oacute" unicode="&#xd3;" horiz-adv-x="763" 
d="M128 583q100 98 253 98q154 0 254 -98.5t100 -248.5q0 -149 -100 -247.5t-254 -98.5q-153 0 -253 98t-100 248t100 249zM273 223q43 -45 108 -45t109 45t44 111t-44 111t-109 45t-108.5 -45t-43.5 -111t44 -111zM276 723l59 197h227l-78 -197h-208z" />
    <glyph glyph-name="Ocircumflex" unicode="&#xd4;" horiz-adv-x="763" 
d="M128 583q100 98 253 98q154 0 254 -98.5t100 -248.5q0 -149 -100 -247.5t-254 -98.5q-153 0 -253 98t-100 248t100 249zM229 334q0 -66 44 -111q43 -45 108 -45t109 45t44 111t-44 111t-109 45t-108.5 -45t-43.5 -111zM134 724l142 205h210l140 -205h-194l-51 88l-52 -88
h-195z" />
    <glyph glyph-name="Otilde" unicode="&#xd5;" horiz-adv-x="763" 
d="M28 334q0 150 100 248.5t253 98.5q154 0 254 -98.5t100 -248.5q0 -149 -100 -247.5t-254 -98.5q-153 0 -253 98t-100 248zM229 334q0 -66 44 -111q43 -45 108 -45t109 45t44 111t-44 111t-109 45t-108.5 -45t-43.5 -111zM182 879q35 43 108 43q40 0 68 -14.5t47.5 -29
t37.5 -14.5q22 0 34.5 14.5t12.5 35.5v3h142q1 -8 1 -24q0 -68 -36.5 -114t-106.5 -46q-38 0 -67 15.5t-49.5 30.5t-38.5 15q-21 0 -33 -14.5t-12 -36.5v-4h-141q-2 20 -2 30q0 67 35 110z" />
    <glyph glyph-name="Odieresis" unicode="&#xd6;" horiz-adv-x="763" 
d="M28 334q0 150 100 248.5t253 98.5q154 0 254 -98.5t100 -248.5q0 -149 -100 -247.5t-254 -98.5q-153 0 -253 98t-100 248zM229 334q0 -66 44 -111q43 -45 108 -45t109 45t44 111t-44 111t-109 45t-108.5 -45t-43.5 -111zM147 835q0 46 32 78t79 32q46 0 77.5 -32
t31.5 -78q0 -47 -31 -79q-32 -32 -78 -32t-78.5 32t-32.5 79zM427 914q31 31 78 31q46 0 77.5 -32t31.5 -78q0 -47 -31 -79q-32 -32 -78 -32t-78 32t-32 79t32 79z" />
    <glyph glyph-name="multiply" unicode="&#xd7;" horiz-adv-x="544" 
d="M390 326l122 -120l-118 -120l-122 122l-120 -122l-118 119l120 121l-120 120l118 116l119 -118l119 120l119 -118z" />
    <glyph glyph-name="Oslash" unicode="&#xd8;" horiz-adv-x="758" 
d="M690 683l-68 -94q108 -98 108 -255q0 -149 -99.5 -247t-251.5 -98q-88 0 -163 36l-72 -99l-82 65l68 93q-102 99 -102 250q0 150 99.5 248t251.5 98q87 0 162 -36l70 97zM379 498q-69 0 -115 -47.5t-46 -116.5q0 -53 29 -95l184 251q-26 8 -52 8zM379 171q69 0 115 47
t46 116q0 55 -32 100l-183 -254q25 -9 54 -9z" />
    <glyph glyph-name="Ugrave" unicode="&#xd9;" horiz-adv-x="707" 
d="M49 669h209v-381q0 -42 25 -70t70 -28t71 28.5t26 69.5v381h208v-397q0 -126 -85 -204q-86 -79 -220 -79t-219 78t-85 205v397zM397 922l59 -196h-208l-78 196h227z" />
    <glyph glyph-name="Uacute" unicode="&#xda;" horiz-adv-x="707" 
d="M49 669h209v-381q0 -42 25 -70t70 -28t71 28.5t26 69.5v381h208v-397q0 -126 -85 -204q-86 -79 -220 -79t-219 78t-85 205v397zM248 726l59 196h227l-78 -196h-208z" />
    <glyph glyph-name="Ucircumflex" unicode="&#xdb;" horiz-adv-x="707" 
d="M49 669h209v-381q0 -42 25 -70t70 -28t71 28.5t26 69.5v381h208v-397q0 -126 -85 -204q-86 -79 -220 -79t-219 78t-85 205v397zM106 726l142 205h210l140 -205h-194l-51 88l-52 -88h-195z" />
    <glyph glyph-name="Udieresis" unicode="&#xdc;" horiz-adv-x="707" 
d="M49 272v397h209v-381q0 -42 25 -70t70 -28t71 28.5t26 69.5v381h208v-397q0 -126 -85 -204q-86 -79 -220 -79t-219 78t-85 205zM119 838q0 46 32 77.5t79 31.5q46 0 77.5 -31.5t31.5 -77.5q0 -47 -31.5 -79.5t-77.5 -32.5q-47 0 -79 32.5t-32 79.5zM367 838q0 46 32 77.5
t78 31.5t77.5 -31.5t31.5 -77.5q0 -47 -31 -79q-32 -33 -78 -33t-78 32.5t-32 79.5z" />
    <glyph glyph-name="Yacute" unicode="&#xdd;" horiz-adv-x="679" 
d="M235 669l103 -258l109 258h242l-247 -481v-188h-208v188l-240 481h241zM236 726l59 196h227l-78 -196h-208z" />
    <glyph glyph-name="Thorn" unicode="&#xde;" horiz-adv-x="663" 
d="M263 593h116q113 0 185.5 -71t72.5 -184q0 -117 -74 -187t-197 -70h-103v-81h-207v669h207v-76zM263 258h83q35 0 58 22.5t23 56.5t-22 56.5t-56 22.5h-86v-158z" />
    <glyph glyph-name="germandbls" unicode="&#xdf;" horiz-adv-x="665" 
d="M536 368q48 -23 75 -66.5t27 -102.5q0 -92 -63 -151.5t-160 -59.5q-70 0 -115 15v170q33 -11 74 -11q34 0 52 16.5t18 42.5t-18.5 41.5t-46.5 15.5h-79v141h48q34 0 54.5 18t20.5 47t-21 45.5t-55 16.5q-45 0 -73 -29.5t-28 -86.5v-607h-199v615q0 135 81 208t217 73
q122 0 195.5 -56t73.5 -147q0 -99 -78 -148z" />
    <glyph glyph-name="agrave" unicode="&#xe0;" horiz-adv-x="650" 
d="M26 262q0 119 71 195.5t181 76.5q85 0 141 -56v44h183v-522h-183v43q-57 -55 -144 -55q-109 0 -179 77t-70 197zM385 766l46 -175h-191l-74 175h219zM248 189q28 -29 71 -29q42 0 70.5 29.5t28.5 72.5q0 42 -28 71t-70 29q-44 0 -72 -28.5t-28 -72.5t28 -72z" />
    <glyph glyph-name="aacute" unicode="&#xe1;" horiz-adv-x="650" 
d="M26 262q0 119 71 195.5t181 76.5q85 0 141 -56v44h183v-522h-183v43q-57 -55 -144 -55q-109 0 -179 77t-70 197zM290 765h220l-75 -175h-191zM220 261q0 -44 28 -72.5t71 -28.5q42 0 70.5 29.5t28.5 72.5q0 42 -28 71t-70 29q-44 0 -72 -28.5t-28 -72.5z" />
    <glyph glyph-name="acircumflex" unicode="&#xe2;" horiz-adv-x="650" 
d="M97 458q71 76 181 76q85 0 141 -56v44h183v-522h-183v43q-57 -55 -144 -55q-109 0 -179 77t-70 197q0 119 71 196zM118 588l125 180h184l124 -180h-171l-45 78l-45 -78h-172zM248 189q28 -29 71 -29q42 0 70.5 29.5t28.5 72.5q0 42 -28 71t-70 29q-44 0 -72 -28.5
t-28 -72.5t28 -72z" />
    <glyph glyph-name="atilde" unicode="&#xe3;" horiz-adv-x="650" 
d="M26 262q0 119 71 195.5t181 76.5q85 0 141 -56v44h183v-522h-183v43q-57 -55 -144 -55q-109 0 -179 77t-70 197zM119 618q0 67 35.5 110.5t109.5 43.5q38 0 61.5 -14.5t38 -29t31.5 -14.5q35 0 35 45v7h142q1 -8 1 -24q0 -68 -36.5 -114t-108.5 -46q-37 0 -61.5 15.5
t-41.5 31t-34 15.5q-18 0 -23.5 -11.5t-5.5 -35.5v-8h-141q-2 20 -2 29zM248 189q28 -29 71 -29q42 0 70.5 29.5t28.5 72.5q0 42 -28 71t-70 29q-44 0 -72 -28.5t-28 -72.5t28 -72z" />
    <glyph glyph-name="adieresis" unicode="&#xe4;" horiz-adv-x="650" 
d="M26 262q0 119 71 195.5t181 76.5q85 0 141 -56v44h183v-522h-183v43q-57 -55 -144 -55q-109 0 -179 77t-70 197zM115 669q0 43 30.5 73t73.5 30q44 0 74.5 -30t30.5 -73q0 -44 -30.5 -75t-74.5 -31q-43 0 -73.5 31t-30.5 75zM381 742q30 30 73 30q44 0 74 -30t30 -73
q0 -44 -30 -75t-74 -31q-43 0 -73.5 31t-30.5 75q0 43 31 73zM220 261q0 -44 28 -72.5t71 -28.5q42 0 70.5 29.5t28.5 72.5q0 42 -28 71t-70 29q-44 0 -72 -28.5t-28 -72.5z" />
    <glyph glyph-name="aring" unicode="&#xe5;" horiz-adv-x="650" 
d="M26 262q0 119 71 195.5t181 76.5q85 0 141 -56v44h183v-522h-183v43q-57 -55 -144 -55q-109 0 -179 77t-70 197zM190 707q0 55 41 91.5t103 36.5q63 0 103.5 -36t40.5 -92q0 -55 -40.5 -91.5t-103.5 -36.5q-62 0 -103 36.5t-41 91.5zM220 261q0 -44 28 -72.5t71 -28.5
q42 0 70.5 29.5t28.5 72.5q0 42 -28 71t-70 29q-44 0 -72 -28.5t-28 -72.5zM299 671q14 -14 35 -14q22 0 36.5 14t14.5 35t-14.5 35t-36.5 14q-21 0 -35.5 -14t-14.5 -35t15 -35z" />
    <glyph glyph-name="ae" unicode="&#xe6;" horiz-adv-x="930" 
d="M904 281q0 -29 -3 -59h-357q6 -39 29.5 -62t64.5 -23q61 0 86 51l157 -59q-24 -67 -87.5 -104t-155.5 -37q-126 0 -194 75q-73 -75 -206 -75q-101 0 -158 47.5t-57 125.5q0 73 54 114t155 41h118q-2 32 -25 50t-91 18q-88 0 -168 -31v142q83 39 200 39q129 0 191 -66
q72 66 184 66q115 0 189 -71t74 -182zM635 389q-33 0 -56 -19t-32 -52h175q-7 32 -30 51.5t-57 19.5zM263 127q37 0 60.5 22t26.5 64h-87q-31 0 -46 -12.5t-15 -29.5q0 -44 61 -44z" />
    <glyph glyph-name="ccedilla" unicode="&#xe7;" horiz-adv-x="599" 
d="M26 259q0 124 80 199.5t212 75.5q105 0 178 -51t91 -144l-181 -48q-6 31 -31 51t-59 20q-42 0 -69 -28.5t-27 -73.5q0 -44 27.5 -72t70.5 -28q32 0 57.5 19.5t33.5 49.5l172 -71q-20 -64 -76 -109t-138 -57l-11 -35q41 -4 65 -28.5t24 -60.5q0 -46 -42 -77t-107 -31
q-67 0 -111 15v98q51 -12 79 -12q40 0 40 22q0 24 -36 24h-50l-8 10l29 78q-99 20 -156 90.5t-57 173.5z" />
    <glyph glyph-name="egrave" unicode="&#xe8;" horiz-adv-x="613" 
d="M105 458q78 76 207 76q124 0 200 -71t76 -186q0 -33 -3 -58h-376q7 -38 35 -59.5t66 -21.5q68 0 95 51l159 -60q-24 -65 -91 -103t-160 -38q-130 0 -208.5 75t-78.5 196q0 123 79 199zM363 766l47 -174h-192l-74 174h219zM213 318h190q-8 32 -33 52q-25 19 -60 19
t-61 -19t-36 -52z" />
    <glyph glyph-name="eacute" unicode="&#xe9;" horiz-adv-x="613" 
d="M26 259q0 123 78.5 199t207.5 76q124 0 200 -71t76 -186q0 -33 -3 -58h-376q7 -38 35 -59.5t66 -21.5q68 0 95 51l159 -60q-24 -65 -91 -103t-160 -38q-130 0 -208.5 75t-78.5 196zM269 766h219l-74 -175h-192zM213 318h190q-8 32 -33 52q-25 19 -60 19t-61 -19t-36 -52z
" />
    <glyph glyph-name="ecircumflex" unicode="&#xea;" horiz-adv-x="613" 
d="M26 259q0 123 78.5 199t207.5 76q124 0 200 -71t76 -186q0 -33 -3 -58h-376q7 -38 35 -59.5t66 -21.5q68 0 95 51l159 -60q-24 -65 -91 -103t-160 -38q-130 0 -208.5 75t-78.5 196zM97 589l125 180h184l124 -180h-172l-44 77l-46 -77h-171zM403 318q-8 32 -33 52
q-25 19 -60 19t-61 -19t-36 -52h190z" />
    <glyph glyph-name="edieresis" unicode="&#xeb;" horiz-adv-x="613" 
d="M105 458q78 76 207 76q124 0 200 -71t76 -186q0 -33 -3 -58h-376q7 -38 35 -59.5t66 -21.5q68 0 95 51l159 -60q-24 -65 -91 -103t-160 -38q-130 0 -208.5 75t-78.5 196q0 123 79 199zM328 670q0 43 30.5 73t74.5 30q43 0 73.5 -30t30.5 -73q0 -45 -30 -75
q-30 -31 -74 -31t-74.5 30.5t-30.5 75.5zM94 670q0 43 30 73t74 30q43 0 73.5 -30t30.5 -73q0 -45 -30 -75q-30 -31 -74 -31t-74 30.5t-30 75.5zM213 318h190q-8 32 -33 52q-25 19 -60 19t-61 -19t-36 -52z" />
    <glyph glyph-name="igrave" unicode="&#xec;" horiz-adv-x="296" 
d="M196 766l46 -175h-191l-74 175h219zM248 0h-200v522h200v-522z" />
    <glyph glyph-name="iacute" unicode="&#xed;" horiz-adv-x="296" 
d="M246 590h-191l47 175h219zM248 0h-200v522h200v-522z" />
    <glyph glyph-name="icircumflex" unicode="&#xee;" horiz-adv-x="296" 
d="M48 522h200v-522h-200v522zM54 768h184l124 -180h-171l-45 78l-45 -78h-171z" />
    <glyph glyph-name="idieresis" unicode="&#xef;" horiz-adv-x="296" 
d="M248 522v-522h-200v522h200zM192 742q30 30 74 30q43 0 73.5 -30t30.5 -73q0 -44 -30.5 -75t-73.5 -31q-44 0 -74.5 31t-30.5 75q0 43 31 73zM-44 742q31 30 74 30q44 0 74.5 -30t30.5 -73q0 -44 -30.5 -75t-74.5 -31q-43 0 -73.5 31t-30.5 75q0 43 30 73z" />
    <glyph glyph-name="eth" unicode="&#xf0;" horiz-adv-x="647" 
d="M501 737l-70 -49q186 -121 186 -371q0 -146 -83.5 -237.5t-217.5 -91.5q-129 0 -209.5 73.5t-80.5 190.5q0 110 71 179t185 69q70 0 119 -32q-29 61 -131 106l-89 -63l-37 52l53 37q-45 14 -95 22l52 156q120 -14 215 -56l95 67zM322 163q42 0 69.5 27.5t27.5 68.5
t-27.5 68.5t-69.5 27.5t-70 -27.5t-28 -68.5t28 -68.5t70 -27.5z" />
    <glyph glyph-name="ntilde" unicode="&#xf1;" horiz-adv-x="616" 
d="M48 522h190v-40q55 51 134 51q90 0 145.5 -55t55.5 -144v-334h-199v293q0 32 -16.5 50t-43.5 18q-29 0 -48 -22t-19 -57v-282h-199v522zM78 617q0 68 35 111.5t109 43.5q38 0 61.5 -14.5t38.5 -29t32 -14.5q35 0 35 49v3h141q1 -8 1 -24q0 -68 -36.5 -114t-108.5 -46
q-36 0 -60.5 15.5t-41.5 31t-34 15.5q-18 0 -24 -11.5t-6 -35.5v-8h-141q-1 9 -1 28z" />
    <glyph glyph-name="ograve" unicode="&#xf2;" horiz-adv-x="627" 
d="M106 456q80 78 208 78q127 0 207.5 -78t80.5 -197t-81.5 -195t-206.5 -76q-126 0 -207.5 76.5t-81.5 194.5t81 197zM142 766h220l46 -175h-191zM214 261q0 -44 29 -73t71 -29q43 0 71.5 29t28.5 73q0 43 -28 72t-71 29t-72 -29t-29 -72z" />
    <glyph glyph-name="oacute" unicode="&#xf3;" horiz-adv-x="627" 
d="M106 456q80 78 208 78q127 0 207.5 -78t80.5 -197t-81.5 -195t-206.5 -76q-126 0 -207.5 76.5t-81.5 194.5t81 197zM267 765h219l-74 -175h-191zM214 261q0 -44 29 -73t71 -29q43 0 71.5 29t28.5 73q0 43 -28 72t-71 29t-72 -29t-29 -72z" />
    <glyph glyph-name="ocircumflex" unicode="&#xf4;" horiz-adv-x="627" 
d="M106 456q80 78 208 78q127 0 207.5 -78t80.5 -197t-81.5 -195t-206.5 -76q-126 0 -207.5 76.5t-81.5 194.5t81 197zM220 768h184l124 -180h-171l-45 78l-46 -78h-171zM243 188q29 -29 71 -29q43 0 71.5 29t28.5 73q0 43 -28 72t-71 29t-72 -29t-29 -72q0 -44 29 -73z" />
    <glyph glyph-name="otilde" unicode="&#xf5;" horiz-adv-x="627" 
d="M25 259q0 118 80.5 196.5t208.5 78.5q127 0 207.5 -78t80.5 -197t-81.5 -195t-206.5 -76q-126 0 -207.5 76.5t-81.5 194.5zM131 729q35 43 110 43q38 0 61.5 -14.5t38 -29t31.5 -14.5q35 0 35 45v7h142q1 -8 1 -23q0 -69 -37 -115t-108 -46q-37 0 -61.5 15.5t-41.5 31
t-34 15.5q-18 0 -24 -12.5t-6 -42.5h-140q-2 20 -2 30q0 67 35 110zM214 261q0 -44 29 -73t71 -29q43 0 71.5 29t28.5 73q0 43 -28 72t-71 29t-72 -29t-29 -72z" />
    <glyph glyph-name="odieresis" unicode="&#xf6;" horiz-adv-x="627" 
d="M106 456q80 78 208 78q127 0 207.5 -78t80.5 -197t-81.5 -195t-206.5 -76q-126 0 -207.5 76.5t-81.5 194.5t81 197zM357 742q30 30 74 30t74 -30t30 -73q0 -44 -30 -75t-74 -31t-74.5 31t-30.5 75q0 43 31 73zM123 742q30 30 73 30q44 0 74.5 -30t30.5 -73
q0 -44 -30.5 -75t-74.5 -31q-43 0 -73.5 31t-30.5 75q0 43 31 73zM214 261q0 -44 29 -73t71 -29q43 0 71.5 29t28.5 73q0 43 -28 72t-71 29t-72 -29t-29 -72z" />
    <glyph glyph-name="divide" unicode="&#xf7;" horiz-adv-x="514" 
d="M256 433q-43 0 -71.5 29t-28.5 71t28.5 70t71.5 28t71.5 -28t28.5 -70t-28.5 -71t-71.5 -29zM486 239h-458v168h458v-168zM256 14q-43 0 -71.5 29t-28.5 71t28.5 70.5t71.5 28.5t71.5 -28.5t28.5 -70.5t-28.5 -71t-71.5 -29z" />
    <glyph glyph-name="oslash" unicode="&#xf8;" horiz-adv-x="632" 
d="M580 550l-64 -85q91 -80 91 -207q0 -117 -82 -193.5t-209 -76.5q-77 0 -138 29l-66 -86l-64 43l64 86q-87 76 -87 198q0 120 82 198t209 78q71 0 133 -27l66 86zM317 374q-50 0 -83 -32.5t-33 -81.5q0 -36 18 -61l129 171q-13 4 -31 4zM317 148q49 0 82.5 32t33.5 80
q0 40 -23 69l-132 -175q18 -6 39 -6z" />
    <glyph glyph-name="ugrave" unicode="&#xf9;" horiz-adv-x="615" 
d="M242 522v-294q0 -32 16 -50t43 -18q29 0 48 21.5t19 56.5v284h199v-522h-189v44q-57 -56 -144 -56q-89 0 -140.5 59.5t-51.5 170.5v304h200zM353 766l46 -175h-191l-74 175h219z" />
    <glyph glyph-name="uacute" unicode="&#xfa;" horiz-adv-x="615" 
d="M242 522v-294q0 -32 16 -50t43 -18q29 0 48 21.5t19 56.5v284h199v-522h-189v44q-57 -56 -144 -56q-89 0 -140.5 59.5t-51.5 170.5v304h200zM212 590l46 175h220l-75 -175h-191z" />
    <glyph glyph-name="ucircumflex" unicode="&#xfb;" horiz-adv-x="615" 
d="M42 522h200v-294q0 -32 16 -50t43 -18q29 0 48 21.5t19 56.5v284h199v-522h-189v44q-57 -56 -144 -56q-89 0 -140.5 59.5t-51.5 170.5v304zM211 768h184l124 -180h-171l-45 78l-45 -78h-172z" />
    <glyph glyph-name="udieresis" unicode="&#xfc;" horiz-adv-x="615" 
d="M42 218v304h200v-294q0 -32 16 -50t43 -18q29 0 48 21.5t19 56.5v284h199v-522h-189v44q-57 -56 -144 -56q-89 0 -140.5 59.5t-51.5 170.5zM83 669q0 43 30.5 73t73.5 30q44 0 74.5 -30t30.5 -73q0 -44 -30.5 -75t-74.5 -31q-43 0 -73.5 31t-30.5 75zM318 669
q0 43 30.5 73t73.5 30q44 0 74 -30t30 -73q0 -44 -30 -75t-74 -31q-43 0 -73.5 31t-30.5 75z" />
    <glyph glyph-name="yacute" unicode="&#xfd;" horiz-adv-x="617" 
d="M-6 523h203l116 -332l100 332h202l-158 -468q-18 -53 -33.5 -88.5t-40.5 -74.5t-55 -61.5t-74 -37.5t-100 -15q-66 0 -136 28v171q58 -29 115 -29q63 0 87 24zM257 766h219l-74 -175h-192z" />
    <glyph glyph-name="thorn" unicode="&#xfe;" horiz-adv-x="655" 
d="M383 530q105 0 175.5 -77.5t70.5 -194.5t-71 -193.5t-177 -76.5q-81 0 -139 48v-237h-194v910h194v-229q61 50 141 50zM336 156q42 0 70.5 29.5t28.5 72.5t-28 72t-70 29q-43 0 -71.5 -29t-28.5 -72t28.5 -72.5t70.5 -29.5z" />
    <glyph glyph-name="ydieresis" unicode="&#xff;" horiz-adv-x="617" 
d="M-6 523h203l116 -332l100 332h202l-158 -468q-18 -53 -33.5 -88.5t-40.5 -74.5t-55 -61.5t-74 -37.5t-100 -15q-66 0 -136 28v171q58 -29 115 -29q63 0 87 24zM347 743q30 30 74 30q43 0 73.5 -30t30.5 -73q0 -45 -30 -75q-30 -31 -74 -31t-74.5 30.5t-30.5 75.5
q0 43 31 73zM82 670q0 43 30 73t74 30q43 0 73.5 -30t30.5 -73q0 -45 -30 -75q-30 -31 -74 -31t-74 30.5t-30 75.5z" />
    <glyph glyph-name="Amacron" unicode="&#x100;" horiz-adv-x="698" 
d="M-2 0l224 669h256l219 -669h-219l-24 93h-209l-25 -93h-222zM146 894h406v-146h-406v146zM289 265h124l-63 233z" />
    <glyph glyph-name="amacron" unicode="&#x101;" horiz-adv-x="650" 
d="M26 262q0 119 71 195.5t181 76.5q85 0 141 -56v44h183v-522h-183v43q-57 -55 -144 -55q-109 0 -179 77t-70 197zM150 609v132h375v-132h-375zM248 189q28 -29 71 -29q42 0 70.5 29.5t28.5 72.5q0 42 -28 71t-70 29q-44 0 -72 -28.5t-28 -72.5t28 -72z" />
    <glyph glyph-name="Abreve" unicode="&#x102;" horiz-adv-x="698" 
d="M222 669h256l219 -669h-219l-24 93h-209l-25 -93h-222zM275 929v-3q0 -30 20 -50.5t52 -20.5t52 20.5t20 50.5v3h163q-2 -97 -65.5 -149.5t-169.5 -52.5q-105 0 -169 52.5t-66 149.5h163zM413 265l-63 233l-61 -233h124z" />
    <glyph glyph-name="abreve" unicode="&#x103;" horiz-adv-x="650" 
d="M97 458q71 76 181 76q85 0 141 -56v44h183v-522h-183v43q-57 -55 -144 -55q-109 0 -179 77t-70 197q0 119 71 196zM122 766h148q0 -33 17 -53.5t47 -20.5t47.5 20.5t17.5 53.5h147q-2 -87 -59 -134q-58 -47 -153 -47t-152 47t-60 134zM248 189q28 -29 71 -29
q42 0 70.5 29.5t28.5 72.5q0 42 -28 71t-70 29q-44 0 -72 -28.5t-28 -72.5t28 -72z" />
    <glyph glyph-name="Aogonek" unicode="&#x104;" horiz-adv-x="698" 
d="M602 -64q0 -26 32 -26q18 0 62 11v-127q-45 -22 -106 -22q-66 0 -103 31.5t-37 82.5q0 28 19 60t58 54h-49l-24 93h-209l-25 -93h-222l224 669h256l219 -669q-48 -16 -71.5 -30t-23.5 -34zM289 265h124l-63 233z" />
    <glyph glyph-name="aogonek" unicode="&#x105;" horiz-adv-x="650" 
d="M26 262q0 119 71 195.5t181 76.5q85 0 141 -56v44h183v-522q-49 -16 -72.5 -30t-23.5 -34q0 -26 33 -26q18 0 62 11v-127q-45 -22 -107 -22q-66 0 -103 31.5t-37 82.5q0 28 19.5 60t58.5 54h-13v43q-57 -55 -144 -55q-109 0 -179 77t-70 197zM248 189q28 -29 71 -29
q42 0 70.5 29.5t28.5 72.5q0 42 -28 71t-70 29q-44 0 -72 -28.5t-28 -72.5t28 -72z" />
    <glyph glyph-name="Cacute" unicode="&#x106;" horiz-adv-x="709" 
d="M128 583q99 98 253 98q107 0 191.5 -51t122.5 -136l-180 -92q-18 41 -55 64.5t-83 23.5q-64 0 -106 -44t-42 -112q0 -67 42.5 -111.5t106.5 -44.5q48 0 85.5 25.5t54.5 67.5l184 -84q-36 -91 -123 -145t-199 -54q-152 0 -252 98t-100 248t100 249zM329 922h227l-78 -196
h-208z" />
    <glyph glyph-name="cacute" unicode="&#x107;" horiz-adv-x="599" 
d="M106 459q80 75 212 75q105 0 178 -51t91 -144l-181 -48q-6 31 -31 51t-59 20q-42 0 -69 -28.5t-27 -73.5q0 -44 27.5 -72t70.5 -28q32 0 57.5 19.5t33.5 49.5l172 -71q-24 -75 -94.5 -122.5t-174.5 -47.5q-129 0 -207.5 74.5t-78.5 196.5q0 124 80 200zM271 765h219
l-74 -175h-191z" />
    <glyph glyph-name="Ccircumflex" unicode="&#x108;" horiz-adv-x="709" 
d="M128 583q99 98 253 98q107 0 191.5 -51t122.5 -136l-180 -92q-18 41 -55 64.5t-83 23.5q-64 0 -106 -44t-42 -112q0 -67 42.5 -111.5t106.5 -44.5q48 0 85.5 25.5t54.5 67.5l184 -84q-36 -91 -123 -145t-199 -54q-152 0 -252 98t-100 248t100 249zM270 931h209l141 -205
h-194l-52 88l-52 -88h-194z" />
    <glyph glyph-name="ccircumflex" unicode="&#x109;" horiz-adv-x="599" 
d="M106 459q80 75 212 75q105 0 178 -51t91 -144l-181 -48q-6 31 -31 51t-59 20q-42 0 -69 -28.5t-27 -73.5q0 -44 27.5 -72t70.5 -28q32 0 57.5 19.5t33.5 49.5l172 -71q-24 -75 -94.5 -122.5t-174.5 -47.5q-129 0 -207.5 74.5t-78.5 196.5q0 124 80 200zM224 768h184
l124 -180h-171l-45 78l-46 -78h-171z" />
    <glyph glyph-name="Cdotaccent" unicode="&#x10a;" horiz-adv-x="709" 
d="M28 334q0 150 99.5 248.5t253.5 98.5q107 0 191.5 -51t122.5 -136l-180 -92q-18 41 -55 64.5t-83 23.5q-64 0 -106 -44t-42 -112q0 -67 42.5 -111.5t106.5 -44.5q48 0 85.5 25.5t54.5 67.5l184 -84q-36 -91 -123 -145t-199 -54q-152 0 -252 98t-100 248zM300 901
q31 31 75 31q45 0 76 -31t31 -75t-31 -74t-76 -30q-44 0 -75 30t-31 74t31 75z" />
    <glyph glyph-name="cdotaccent" unicode="&#x10b;" horiz-adv-x="599" 
d="M26 259q0 124 80 199.5t212 75.5q105 0 178 -51t91 -144l-181 -48q-6 31 -31 51t-59 20q-42 0 -69 -28.5t-27 -73.5q0 -44 27.5 -72t70.5 -28q32 0 57.5 19.5t33.5 49.5l172 -71q-24 -75 -94.5 -122.5t-174.5 -47.5q-129 0 -207.5 74.5t-78.5 196.5zM243 743q31 30 75 30
t74.5 -30.5t30.5 -74.5t-30 -74q-31 -31 -75 -31t-75.5 30.5t-31.5 74.5t32 75z" />
    <glyph glyph-name="Ccaron" unicode="&#x10c;" horiz-adv-x="709" 
d="M128 583q99 98 253 98q107 0 191.5 -51t122.5 -136l-180 -92q-18 41 -55 64.5t-83 23.5q-64 0 -106 -44t-42 -112q0 -67 42.5 -111.5t106.5 -44.5q48 0 85.5 25.5t54.5 67.5l184 -84q-36 -91 -123 -145t-199 -54q-152 0 -252 98t-100 248t100 249zM323 931l52 -88l51 88
h195l-141 -205h-210l-141 205h194z" />
    <glyph glyph-name="ccaron" unicode="&#x10d;" horiz-adv-x="599" 
d="M106 459q80 75 212 75q105 0 178 -51t91 -144l-181 -48q-6 31 -31 51t-59 20q-42 0 -69 -28.5t-27 -73.5q0 -44 27.5 -72t70.5 -28q32 0 57.5 19.5t33.5 49.5l172 -71q-24 -75 -94.5 -122.5t-174.5 -47.5q-129 0 -207.5 74.5t-78.5 196.5q0 124 80 200zM101 766h171
l46 -77l44 77h172l-124 -180h-184z" />
    <glyph glyph-name="Dcaron" unicode="&#x10e;" horiz-adv-x="713" 
d="M56 669h281q164 0 254.5 -91t90.5 -245q0 -153 -88.5 -243t-249.5 -90h-288v669zM282 931l52 -88l51 88h194l-141 -205h-209l-142 205h195zM263 479v-289h101q47 0 78 41t31 107q0 63 -31 102t-79 39h-100z" />
    <glyph glyph-name="dcaron" unicode="&#x10f;" horiz-adv-x="682" 
d="M26 260q0 116 72 194t180 78q78 0 136 -50v226h193v-708h-189v42q-60 -54 -146 -54q-105 0 -175.5 78t-70.5 194zM642 558l25 203h195l-46 -203h-174zM248 188q28 -29 70 -29q43 0 71.5 28.5t28.5 71.5t-28.5 72t-70.5 29q-43 0 -71 -28.5t-28 -72.5q0 -43 28 -71z" />
    <glyph glyph-name="Dcroat" unicode="&#x110;" horiz-adv-x="742" 
d="M15 271v130h71v268h280q165 0 255.5 -91t90.5 -245q0 -153 -88.5 -243t-249.5 -90h-288v271h-71zM293 190h101q47 0 77.5 41t30.5 107q0 63 -30.5 102t-78.5 39h-100v-78h109v-130h-109v-81z" />
    <glyph glyph-name="dcroat" unicode="&#x111;" horiz-adv-x="655" 
d="M98 454q72 78 180 78q78 0 136 -50v74h-103v90h103v62h193v-62h62v-90h-62v-556h-189v42q-60 -54 -146 -54q-105 0 -175.5 78t-70.5 194t72 194zM220 259q0 -43 28 -71.5t70 -28.5q43 0 71.5 28.5t28.5 71.5t-28.5 72t-70.5 29q-43 0 -71 -28.5t-28 -72.5z" />
    <glyph glyph-name="Emacron" unicode="&#x112;" horiz-adv-x="610" 
d="M56 0v669h502v-178h-300v-73h292v-167h-292v-73h311v-178h-513zM508 894v-146h-406v146h406z" />
    <glyph glyph-name="emacron" unicode="&#x113;" horiz-adv-x="613" 
d="M26 259q0 123 78.5 199t207.5 76q124 0 200 -71t76 -186q0 -33 -3 -58h-376q7 -38 35 -59.5t66 -21.5q68 0 95 51l159 -60q-24 -65 -91 -103t-160 -38q-130 0 -208.5 75t-78.5 196zM128 742h375v-132h-375v132zM213 318h190q-8 32 -33 52q-25 19 -60 19t-61 -19t-36 -52z
" />
    <glyph glyph-name="Ebreve" unicode="&#x114;" horiz-adv-x="610" 
d="M558 669v-178h-300v-73h292v-167h-292v-73h311v-178h-513v669h502zM231 929v-3q0 -30 20 -50.5t52 -20.5t52 20.5t20 50.5v3h163q-2 -97 -65.5 -149.5t-169.5 -52.5q-105 0 -169 52.5t-66 149.5h163z" />
    <glyph glyph-name="ebreve" unicode="&#x115;" horiz-adv-x="613" 
d="M26 259q0 123 78.5 199t207.5 76q124 0 200 -71t76 -186q0 -33 -3 -58h-376q7 -38 35 -59.5t66 -21.5q68 0 95 51l159 -60q-24 -65 -91 -103t-160 -38q-130 0 -208.5 75t-78.5 196zM101 767h147q0 -34 17.5 -54t47.5 -20t47.5 20t17.5 54h147q-2 -87 -59 -134
q-58 -47 -153 -47t-152.5 47t-59.5 134zM213 318h190q-8 32 -33 52q-25 19 -60 19t-61 -19t-36 -52z" />
    <glyph glyph-name="Edotaccent" unicode="&#x116;" horiz-adv-x="610" 
d="M56 669h502v-178h-300v-73h292v-167h-292v-73h311v-178h-513v669zM230 901q31 31 75 31q45 0 75.5 -31t30.5 -75t-30.5 -74t-75.5 -30q-44 0 -75 30t-31 74t31 75z" />
    <glyph glyph-name="edotaccent" unicode="&#x117;" horiz-adv-x="613" 
d="M105 458q78 76 207 76q124 0 200 -71t76 -186q0 -33 -3 -58h-376q7 -38 35 -59.5t66 -21.5q68 0 95 51l159 -60q-24 -65 -91 -103t-160 -38q-130 0 -208.5 75t-78.5 196q0 123 79 199zM240 743q31 30 75 30t75 -30t31 -74t-31 -74q-31 -31 -75 -31t-75 30.5t-31 74.5
t31 74zM403 318q-8 32 -33 52q-25 19 -60 19t-61 -19t-36 -52h190z" />
    <glyph glyph-name="Eogonek" unicode="&#x118;" horiz-adv-x="610" 
d="M558 669v-178h-300v-73h292v-167h-292v-73h311v-178q-48 -16 -71.5 -30t-23.5 -34q0 -26 32 -26q18 0 62 11v-127q-45 -22 -106 -22q-66 0 -103 31.5t-37 82.5q0 28 19 60t58 54h-343v669h502z" />
    <glyph glyph-name="eogonek" unicode="&#x119;" horiz-adv-x="613" 
d="M105 458q78 76 207 76q124 0 200 -71t76 -186q0 -33 -3 -58h-376q7 -38 35 -59.5t66 -21.5q68 0 95 51l159 -60q-36 -95 -150 -127q-37 -14 -55 -26.5t-18 -30.5q0 -27 33 -27q13 0 61 12v-128q-46 -21 -106 -21q-66 0 -103 31.5t-37 82.5q0 56 56 99q-101 19 -160 90
t-59 175q0 123 79 199zM213 318h190q-8 32 -33 52q-25 19 -60 19t-61 -19t-36 -52z" />
    <glyph glyph-name="Ecaron" unicode="&#x11a;" horiz-adv-x="610" 
d="M56 669h502v-178h-300v-73h292v-167h-292v-73h311v-178h-513v669zM58 931h195l52 -88l51 88h194l-140 -205h-210z" />
    <glyph glyph-name="ecaron" unicode="&#x11b;" horiz-adv-x="613" 
d="M26 259q0 123 78.5 199t207.5 76q124 0 200 -71t76 -186q0 -33 -3 -58h-376q7 -38 35 -59.5t66 -21.5q68 0 95 51l159 -60q-24 -65 -91 -103t-160 -38q-130 0 -208.5 75t-78.5 196zM98 767h172l45 -77l45 77h171l-124 -180h-184zM403 318q-8 32 -33 52q-25 19 -60 19
t-61 -19t-36 -52h190z" />
    <glyph glyph-name="Gcircumflex" unicode="&#x11c;" horiz-adv-x="757" 
d="M28 335q0 152 101.5 249t260.5 97q183 0 288 -119l-156 -133q-45 62 -131 62q-71 0 -112.5 -45t-41.5 -111q0 -68 43 -113t111 -45q51 0 87 24.5t36 54.5h-135v148h351v-78q0 -154 -96.5 -246t-245.5 -92q-158 0 -259 96.5t-101 250.5zM143 726l142 204h209l141 -204
h-194l-51 88l-52 -88h-195z" />
    <glyph glyph-name="gcircumflex" unicode="&#x11d;" horiz-adv-x="652" 
d="M98 459q70 74 175 74q84 0 145 -50v39h187v-472q0 -125 -83 -198t-228 -73q-111 0 -222 48v167q107 -51 205 -51q64 0 102 28.5t38 82.5v11q-58 -49 -145 -49q-106 0 -175.5 72t-69.5 184t71 187zM250 767h184l124 -180h-172l-44 78l-46 -78h-171zM250 198q27 -27 68 -27
t69 27.5t28 67.5q0 41 -27 68.5t-68 27.5q-43 0 -70.5 -27.5t-27.5 -68.5t28 -68z" />
    <glyph glyph-name="Gbreve" unicode="&#x11e;" horiz-adv-x="757" 
d="M28 335q0 152 101.5 249t260.5 97q183 0 288 -119l-156 -133q-45 62 -131 62q-71 0 -112.5 -45t-41.5 -111q0 -68 43 -113t111 -45q51 0 87 24.5t36 54.5h-135v148h351v-78q0 -154 -96.5 -246t-245.5 -92q-158 0 -259 96.5t-101 250.5zM154 928h163v-3q0 -30 20 -50.5
t52 -20.5t52 20.5t20 50.5v3h163q-2 -97 -66 -149.5t-169 -52.5q-106 0 -169.5 52.5t-65.5 149.5z" />
    <glyph glyph-name="gbreve" unicode="&#x11f;" horiz-adv-x="652" 
d="M98 459q70 74 175 74q84 0 145 -50v39h187v-472q0 -125 -83 -198t-228 -73q-111 0 -222 48v167q107 -51 205 -51q64 0 102 28.5t38 82.5v11q-58 -49 -145 -49q-106 0 -175.5 72t-69.5 184t71 187zM129 766h147q0 -34 17.5 -54.5t47.5 -20.5t47.5 20.5t17.5 54.5h147
q-2 -88 -59 -135q-58 -47 -153 -47t-152.5 47t-59.5 135zM250 198q27 -27 68 -27t69 27.5t28 67.5q0 41 -27 68.5t-68 27.5q-43 0 -70.5 -27.5t-27.5 -68.5t28 -68z" />
    <glyph glyph-name="Gdotaccent" unicode="&#x120;" horiz-adv-x="757" 
d="M28 335q0 152 101.5 249t260.5 97q183 0 288 -119l-156 -133q-45 62 -131 62q-71 0 -112.5 -45t-41.5 -111q0 -68 43 -113t111 -45q51 0 87 24.5t36 54.5h-135v148h351v-78q0 -154 -96.5 -246t-245.5 -92q-158 0 -259 96.5t-101 250.5zM285 826q0 44 30.5 74.5t74.5 30.5
q45 0 76 -30.5t31 -74.5q0 -45 -31 -75t-76 -30q-44 0 -74.5 30t-30.5 75z" />
    <glyph glyph-name="gdotaccent" unicode="&#x121;" horiz-adv-x="652" 
d="M27 272q0 112 70.5 186.5t175.5 74.5q84 0 145 -50v39h187v-472q0 -125 -83 -198t-228 -73q-111 0 -222 48v167q107 -51 205 -51q64 0 102 28.5t38 82.5v11q-58 -49 -145 -49q-106 0 -175.5 72t-69.5 184zM237 667q0 44 31 74.5t75 30.5t75 -30.5t31 -74.5t-31 -74
q-31 -31 -75 -31t-75 30.5t-31 74.5zM250 198q27 -27 68 -27t69 27.5t28 67.5q0 41 -27 68.5t-68 27.5q-43 0 -70.5 -27.5t-27.5 -68.5t28 -68z" />
    <glyph glyph-name="uni0122" unicode="&#x122;" horiz-adv-x="757" 
d="M130 584q101 97 260 97q183 0 288 -119l-156 -133q-45 62 -131 62q-71 0 -112.5 -45t-41.5 -111q0 -68 43 -113t111 -45q51 0 87 24.5t36 54.5h-135v148h351v-78q0 -154 -96.5 -246t-245.5 -92q-158 0 -259 96.5t-101 250.5q0 152 102 249zM239 -238l32 195h214l-49 -195
h-197z" />
    <glyph glyph-name="uni0123" unicode="&#x123;" horiz-adv-x="652" 
d="M27 272q0 112 70.5 186.5t175.5 74.5q84 0 145 -50v39h187v-472q0 -125 -83 -198t-228 -73q-111 0 -222 48v167q107 -51 205 -51q64 0 102 28.5t38 82.5v11q-58 -49 -145 -49q-106 0 -175.5 72t-69.5 184zM278 761h180l-32 -187h-204zM222 266q0 -41 28 -68
q27 -27 68 -27t69 27.5t28 67.5q0 41 -27 68.5t-68 27.5q-43 0 -70.5 -27.5t-27.5 -68.5z" />
    <glyph glyph-name="Hcircumflex" unicode="&#x124;" horiz-adv-x="738" 
d="M56 669h211v-257h203v257h212v-669h-212v220h-203v-220h-211v669zM122 726l141 205h210l141 -205h-195l-51 88l-52 -88h-194z" />
    <glyph glyph-name="hcircumflex" unicode="&#x125;" horiz-adv-x="616" 
d="M48 686h199v-190q53 37 125 37q90 0 145.5 -55t55.5 -144v-334h-199v293q0 32 -16.5 50t-43.5 18q-29 0 -48 -22t-19 -57v-282h-199v686zM-99 727l141 204h210l141 -204h-195l-51 88l-52 -88h-194z" />
    <glyph glyph-name="Hbar" unicode="&#x126;" horiz-adv-x="794" 
d="M18 479v116h66v74h211v-74h203v74h212v-74h66v-116h-66v-479h-212v220h-203v-220h-211v479h-66zM295 412h203v67h-203v-67z" />
    <glyph glyph-name="hbar" unicode="&#x127;" horiz-adv-x="616" 
d="M48 650v59h199v-59h99v-90h-99v-64q53 37 125 37q90 0 145.5 -55t55.5 -144v-334h-199v293q0 32 -16.5 50t-43.5 18q-29 0 -48 -22t-19 -57v-282h-199v560h-59v90h59z" />
    <glyph glyph-name="Itilde" unicode="&#x128;" horiz-adv-x="321" 
d="M265 669v-669h-209v669h209zM-72 772q0 67 34.5 110t107.5 43q32 0 57 -9t38 -20.5t28.5 -20.5t30.5 -9q22 0 34.5 14.5t12.5 35.5v3h142q1 -8 1 -23q0 -69 -37 -115t-107 -46q-38 0 -67 15.5t-49 31t-38 15.5q-21 0 -33.5 -15.5t-12.5 -39.5h-140q-2 20 -2 30z" />
    <glyph glyph-name="itilde" unicode="&#x129;" horiz-adv-x="296" 
d="M48 522h200v-522h-200v522zM-70 618q0 67 35.5 110.5t109.5 43.5q38 0 61.5 -14.5t38 -29t31.5 -14.5q36 0 36 49v3h141q1 -8 1 -24q0 -68 -36.5 -114t-108.5 -46q-37 0 -61.5 15.5t-41.5 31t-34 15.5t-23 -11.5t-6 -35.5v-8h-141q-2 20 -2 29z" />
    <glyph glyph-name="Imacron" unicode="&#x12a;" horiz-adv-x="321" 
d="M366 748h-406v146h406v-146zM56 0v669h209v-669h-209z" />
    <glyph glyph-name="imacron" unicode="&#x12b;" horiz-adv-x="296" 
d="M336 609h-375v132h375v-132zM248 0h-200v522h200v-522z" />
    <glyph glyph-name="Ibreve" unicode="&#x12c;" horiz-adv-x="321" 
d="M56 669h209v-669h-209v669zM89 929v-3q0 -30 20 -50.5t52 -20.5t52 20.5t20 50.5v3h163q-2 -97 -66 -149.5t-169 -52.5q-106 0 -169.5 52.5t-65.5 149.5h163z" />
    <glyph glyph-name="ibreve" unicode="&#x12d;" horiz-adv-x="296" 
d="M48 0v522h200v-522h-200zM-66 766h147q0 -33 17.5 -53.5t47.5 -20.5t47 20.5t17 53.5h148q-3 -87 -60 -134t-152 -47t-152.5 47t-59.5 134z" />
    <glyph glyph-name="Iogonek" unicode="&#x12e;" horiz-adv-x="321" 
d="M37 -54q19 32 58 54h-39v669h209v-669q-48 -16 -71.5 -30t-23.5 -34q0 -26 32 -26q18 0 62 11v-127q-45 -22 -106 -22q-66 0 -103 31.5t-37 82.5q0 28 19 60z" />
    <glyph glyph-name="iogonek" unicode="&#x12f;" horiz-adv-x="296" 
d="M21 -54q19 32 58 54h-31v522h200v-522h1q-48 -16 -71.5 -30t-23.5 -34q0 -26 32 -26q18 0 62 11v-127q-45 -22 -106 -22q-66 0 -103 31.5t-37 82.5q0 28 19 60zM67 757q33 33 81 33t81 -33t33 -81q0 -47 -33 -80t-81 -33t-81 33t-33 80q0 48 33 81z" />
    <glyph glyph-name="Idotaccent" unicode="&#x130;" horiz-adv-x="321" 
d="M265 669v-669h-209v669h209zM88 901q30 31 74 31q45 0 76 -31t31 -75t-31 -74t-76 -30q-44 0 -74.5 30t-30.5 74t31 75z" />
    <glyph glyph-name="dotlessi" unicode="&#x131;" horiz-adv-x="296" 
d="M248 0h-200v522h200v-522z" />
    <glyph glyph-name="IJ" unicode="&#x132;" horiz-adv-x="814" 
d="M330 197q66 -15 125 -15q61 0 80 26.5t19 71.5v389h209v-427q0 -124 -72 -188.5t-197 -64.5q-87 0 -164 24v184zM56 0v669h209v-669h-209z" />
    <glyph glyph-name="ij" unicode="&#x133;" horiz-adv-x="607" 
d="M302 -44q21 0 33.5 5.5t17.5 18t6 21.5t1 25v496h199v-552q0 -85 -56.5 -138t-146.5 -53q-61 0 -121 22v169q30 -14 67 -14zM48 522h200v-522h-200v522zM34 676q0 48 33 81t81 33t81 -33t33 -81q0 -47 -33 -80t-81 -33t-81 33t-33 80zM346 676q0 48 33.5 81t80.5 33
t80.5 -33t33.5 -81t-33 -80q-33 -33 -81 -33t-81 32.5t-33 80.5z" />
    <glyph glyph-name="Jcircumflex" unicode="&#x134;" horiz-adv-x="502" 
d="M143 182q61 0 80 26.5t19 71.5v389h209v-427q0 -124 -72 -188.5t-197 -64.5q-87 0 -164 24v184q66 -15 125 -15zM105 726l141 205h210l141 -205h-195l-51 88l-52 -88h-194z" />
    <glyph glyph-name="jcircumflex" unicode="&#x135;" horiz-adv-x="308" 
d="M-3 -44q64 0 64 70v496h199v-547q0 -89 -59 -142.5t-163 -53.5q-72 0 -134 22v169q47 -14 93 -14zM67 768h184l124 -180h-171l-45 78l-45 -78h-172z" />
    <glyph glyph-name="uni0136" unicode="&#x136;" horiz-adv-x="689" 
d="M56 669h209v-273l181 273h244l-236 -344l236 -325h-256l-169 247v-247h-209v669zM246 -45h214l-49 -195h-197z" />
    <glyph glyph-name="uni0137" unicode="&#x137;" horiz-adv-x="594" 
d="M246 701v-359l125 180h229l-174 -250l171 -272h-234l-117 197v-197h-198v701h198zM148 -238l46 190h198l-65 -190h-179z" />
    <glyph glyph-name="kgreenlandic" unicode="&#x138;" horiz-adv-x="594" 
d="M48 522h199v-191l126 191h227l-175 -263l173 -259h-233l-115 179l-3 1v-180h-199v522z" />
    <glyph glyph-name="Lacute" unicode="&#x139;" horiz-adv-x="564" 
d="M266 726h-208l59 196h227zM548 0h-492v669h209v-488h283v-181z" />
    <glyph glyph-name="lacute" unicode="&#x13a;" horiz-adv-x="298" 
d="M241 760h-187l53 197h204zM250 701v-701h-202v701h202z" />
    <glyph glyph-name="uni013B" unicode="&#x13b;" horiz-adv-x="564" 
d="M548 0h-492v669h209v-488h283v-181zM374 -238h-197l32 195h213z" />
    <glyph glyph-name="uni013C" unicode="&#x13c;" horiz-adv-x="298" 
d="M250 701v-701h-202v701h202zM179 -235h-179l46 189h198z" />
    <glyph glyph-name="Lcaron" unicode="&#x13d;" horiz-adv-x="581" 
d="M534 560h-174l25 202h195zM548 0h-492v669h209v-488h283v-181z" />
    <glyph glyph-name="lcaron" unicode="&#x13e;" horiz-adv-x="325" 
d="M453 560h-174l25 202h195zM250 701v-701h-202v701h202z" />
    <glyph glyph-name="Ldot" unicode="&#x13f;" horiz-adv-x="574" 
d="M56 669h209v-488h283v-181h-492v669zM321 407q0 46 32 78t79 32t79 -32t32 -78q0 -47 -32 -79q-33 -32 -79 -32t-78.5 32t-32.5 79z" />
    <glyph glyph-name="ldot" unicode="&#x140;" horiz-adv-x="499" 
d="M250 701v-701h-202v701h202zM319 424q32 31 79 31t79.5 -31.5t32.5 -77.5q0 -47 -32 -79q-33 -33 -80 -33t-79 32.5t-32 79.5q0 46 32 78z" />
    <glyph glyph-name="Lslash" unicode="&#x141;" horiz-adv-x="587" 
d="M79 404v265h209v-149l75 41v-176l-75 -41v-163h283v-181h-492v229l-57 -31v175z" />
    <glyph glyph-name="lslash" unicode="&#x142;" horiz-adv-x="400" 
d="M30 344l64 43v314h202v-179l76 51v-191l-76 -51v-331h-202v194l-64 -43v193z" />
    <glyph glyph-name="Nacute" unicode="&#x143;" horiz-adv-x="743" 
d="M250 669l240 -350v350h197v-669h-191l-243 345v-345h-197v669h194zM322 922h228l-79 -197h-208z" />
    <glyph glyph-name="nacute" unicode="&#x144;" horiz-adv-x="616" 
d="M238 522v-40q55 51 134 51q90 0 145.5 -55t55.5 -144v-334h-199v293q0 32 -16.5 50t-43.5 18q-29 0 -48 -22t-19 -57v-282h-199v522h190zM249 765h219l-74 -175h-192z" />
    <glyph glyph-name="uni0145" unicode="&#x145;" horiz-adv-x="743" 
d="M250 669l240 -350v350h197v-669h-191l-243 345v-345h-197v669h194zM235 -238l32 195h214l-49 -195h-197z" />
    <glyph glyph-name="uni0146" unicode="&#x146;" horiz-adv-x="616" 
d="M238 522v-40q55 51 134 51q90 0 145.5 -55t55.5 -144v-334h-199v293q0 32 -16.5 50t-43.5 18q-29 0 -48 -22t-19 -57v-282h-199v522h190zM195 -48h199l-65 -190h-179z" />
    <glyph glyph-name="Ncaron" unicode="&#x147;" horiz-adv-x="743" 
d="M250 669l240 -350v350h197v-669h-191l-243 345v-345h-197v669h194zM317 930l52 -88l51 88h194l-140 -204h-210l-142 204h195z" />
    <glyph glyph-name="ncaron" unicode="&#x148;" horiz-adv-x="616" 
d="M48 522h190v-40q55 51 134 51q90 0 145.5 -55t55.5 -144v-334h-199v293q0 32 -16.5 50t-43.5 18q-29 0 -48 -22t-19 -57v-282h-199v522zM250 766l45 -77l45 77h171l-124 -180h-184l-125 180h172z" />
    <glyph glyph-name="Eng" unicode="&#x14a;" horiz-adv-x="743" 
d="M250 669l240 -350v350h197v-675q0 -106 -68 -160.5t-193 -54.5q-77 0 -161 20v163q66 -12 125 -12q53 0 72.5 17.5t21.5 49.5l-231 328v-345h-197v669h194z" />
    <glyph glyph-name="eng" unicode="&#x14b;" horiz-adv-x="616" 
d="M238 522v-40q55 51 134 51q90 0 145.5 -55t55.5 -144v-364q0 -85 -56.5 -138t-146.5 -53q-63 0 -121 22v169q30 -14 66 -14q21 0 34 5.5t18 18t6 21.5t1 25v267q0 32 -16.5 50t-43.5 18q-29 0 -48 -22t-19 -57v-282h-199v522h190z" />
    <glyph glyph-name="Omacron" unicode="&#x14c;" horiz-adv-x="763" 
d="M128 583q100 98 253 98q154 0 254 -98.5t100 -248.5q0 -149 -100 -247.5t-254 -98.5q-153 0 -253 98t-100 248t100 249zM273 223q43 -45 108 -45t109 45t44 111t-44 111t-109 45t-108.5 -45t-43.5 -111t44 -111zM179 892h406v-146h-406v146z" />
    <glyph glyph-name="omacron" unicode="&#x14d;" horiz-adv-x="627" 
d="M106 456q80 78 208 78q127 0 207.5 -78t80.5 -197t-81.5 -195t-206.5 -76q-126 0 -207.5 76.5t-81.5 194.5t81 197zM126 741h376v-132h-376v132zM243 188q29 -29 71 -29q43 0 71.5 29t28.5 73q0 43 -28 72t-71 29t-72 -29t-29 -72q0 -44 29 -73z" />
    <glyph glyph-name="Obreve" unicode="&#x14e;" horiz-adv-x="763" 
d="M28 334q0 150 100 248.5t253 98.5q154 0 254 -98.5t100 -248.5q0 -149 -100 -247.5t-254 -98.5q-153 0 -253 98t-100 248zM229 334q0 -66 44 -111q43 -45 108 -45t109 45t44 111t-44 111t-109 45t-108.5 -45t-43.5 -111zM308 926v-3q0 -30 20 -50t52 -20t52 20t20 50v3
h163q-2 -97 -65 -149q-64 -52 -170 -52t-169.5 52t-65.5 149h163z" />
    <glyph glyph-name="obreve" unicode="&#x14f;" horiz-adv-x="627" 
d="M106 456q80 78 208 78q127 0 207.5 -78t80.5 -197t-81.5 -195t-206.5 -76q-126 0 -207.5 76.5t-81.5 194.5t81 197zM246 766q0 -33 17.5 -53.5t47.5 -20.5t47.5 20.5t17.5 53.5h147q-2 -87 -59 -134q-58 -47 -153 -47t-152.5 47t-59.5 134h147zM243 188q29 -29 71 -29
q43 0 71.5 29t28.5 73q0 43 -28 72t-71 29t-72 -29t-29 -72q0 -44 29 -73z" />
    <glyph glyph-name="Ohungarumlaut" unicode="&#x150;" horiz-adv-x="763" 
d="M128 583q100 98 253 98q154 0 254 -98.5t100 -248.5q0 -149 -100 -247.5t-254 -98.5q-153 0 -253 98t-100 248t100 249zM229 334q0 -66 44 -111q43 -45 108 -45t109 45t44 111t-44 111t-109 45t-108.5 -45t-43.5 -111zM398 723l63 198h213l-74 -198h-202zM154 723l44 198
h216l-61 -198h-199z" />
    <glyph glyph-name="ohungarumlaut" unicode="&#x151;" horiz-adv-x="627" 
d="M106 456q80 78 208 78q127 0 207.5 -78t80.5 -197t-81.5 -195t-206.5 -76q-126 0 -207.5 76.5t-81.5 194.5t81 197zM382 765h206l-66 -175h-195zM134 765h208l-52 -175h-192zM214 261q0 -44 29 -73t71 -29q43 0 71.5 29t28.5 73q0 43 -28 72t-71 29t-72 -29t-29 -72z" />
    <glyph glyph-name="OE" unicode="&#x152;" horiz-adv-x="1055" 
d="M726 254v-77h289v-177h-484v47q-73 -58 -181 -58q-138 0 -229.5 98.5t-91.5 246.5q0 149 91.5 247.5t229.5 98.5q109 0 181 -59v48h473v-177h-278v-76h264v-162h-264zM379 175q60 0 102.5 40.5t49.5 101.5v37q-7 60 -49.5 100t-103.5 40q-65 0 -108.5 -46.5t-43.5 -112.5
q0 -67 44 -113.5t109 -46.5z" />
    <glyph glyph-name="oe" unicode="&#x153;" horiz-adv-x="960" 
d="M934 280q0 -38 -3 -58h-356q5 -39 28 -61t63 -22q61 0 87 50l157 -60q-26 -67 -88.5 -104t-154.5 -37q-123 0 -190 70q-71 -70 -182 -70q-115 0 -192 77.5t-77 192.5q0 118 77.5 197t193.5 79q111 0 182 -72q73 72 191 72q117 0 190.5 -71t73.5 -183zM664 387
q-66 0 -86 -69h171q-7 32 -29 50.5t-56 18.5zM306 154q42 0 69 30t27 76q0 47 -27 77.5t-69 30.5t-69 -30.5t-27 -77.5q0 -46 27 -76t69 -30z" />
    <glyph glyph-name="Racute" unicode="&#x154;" horiz-adv-x="683" 
d="M56 0v669h352q103 0 170.5 -68t67.5 -171q0 -70 -29.5 -125t-81.5 -85l127 -220h-246l-93 180h-60v-180h-207zM229 726l59 196h227l-78 -196h-208zM263 492v-146h101q32 0 52.5 21t20.5 52q0 32 -20.5 52.5t-51.5 20.5h-102z" />
    <glyph glyph-name="racute" unicode="&#x155;" horiz-adv-x="445" 
d="M48 0v522h190v-47q44 59 124 59q31 0 62 -12l-2 -195q-36 14 -71 14q-106 0 -106 -108v-233h-197zM183 766h219l-74 -175h-191z" />
    <glyph glyph-name="uni0156" unicode="&#x156;" horiz-adv-x="683" 
d="M56 669h352q103 0 170.5 -68t67.5 -171q0 -70 -29.5 -125t-81.5 -85l127 -220h-246l-93 180h-60v-180h-207v669zM232 -42h214l-49 -195h-197zM263 346h101q32 0 52.5 21t20.5 52q0 32 -20.5 52.5t-51.5 20.5h-102v-146z" />
    <glyph glyph-name="uni0157" unicode="&#x157;" horiz-adv-x="445" 
d="M238 522v-47q44 59 124 59q31 0 62 -12l-2 -195q-36 14 -71 14q-106 0 -106 -108v-233h-197v522h190zM2 -240l46 190h198l-64 -190h-180z" />
    <glyph glyph-name="Rcaron" unicode="&#x158;" horiz-adv-x="683" 
d="M408 669q103 0 170.5 -68t67.5 -171q0 -70 -29.5 -125t-81.5 -85l127 -220h-246l-93 180h-60v-180h-207v669h352zM282 931l52 -88l52 88h194l-141 -205h-209l-142 205h194zM263 346h101q32 0 52.5 21t20.5 52q0 32 -20.5 52.5t-51.5 20.5h-102v-146z" />
    <glyph glyph-name="rcaron" unicode="&#x159;" horiz-adv-x="445" 
d="M238 522v-47q44 59 124 59q31 0 62 -12l-2 -195q-36 14 -71 14q-106 0 -106 -108v-233h-197v522h190zM184 767l46 -77l44 77h172l-124 -180h-184l-125 180h171z" />
    <glyph glyph-name="Sacute" unicode="&#x15a;" horiz-adv-x="666" 
d="M101 248q105 -80 250 -80q69 0 69 37q0 14 -13 23t-29.5 12.5t-47.5 8.5q-3 0 -4.5 0.5t-4.5 1t-5 0.5q-35 6 -58.5 11t-58.5 15.5t-58 25t-45.5 36t-34 53t-11.5 70.5q0 107 81 162.5t218 55.5q159 0 275 -71l-83 -157q-37 22 -94 38.5t-113 16.5q-71 0 -71 -33
q0 -25 45 -36q8 -2 41 -8q118 -21 165 -41q120 -53 121 -171q0 -108 -80.5 -168.5t-227.5 -60.5q-89 0 -170.5 27t-138.5 71zM303 922h227l-78 -197h-208z" />
    <glyph glyph-name="sacute" unicode="&#x15b;" horiz-adv-x="562" 
d="M84 206q37 -26 94.5 -46.5t104.5 -20.5q55 0 55 25q0 11 -15.5 16.5t-58.5 12.5q-7 1 -11 1.5t-10 1.5l-12 2q-94 17 -138 54t-44 109q0 81 63 127t179 46q123 0 227 -44l-50 -147q-103 47 -186 47q-42 0 -42 -20q0 -4 2 -7.5t7.5 -6.5t11 -5t15.5 -4.5t18 -4t21.5 -4
t23.5 -4.5q104 -22 150.5 -56t46.5 -110q0 -82 -68 -130.5t-186 -48.5q-160 0 -267 74zM198 594l46 174h219l-74 -174h-191z" />
    <glyph glyph-name="Scircumflex" unicode="&#x15c;" horiz-adv-x="666" 
d="M101 248q105 -80 250 -80q69 0 69 37q0 14 -13 23t-29.5 12.5t-47.5 8.5q-3 0 -4.5 0.5t-4.5 1t-5 0.5q-35 6 -58.5 11t-58.5 15.5t-58 25t-45.5 36t-34 53t-11.5 70.5q0 107 81 162.5t218 55.5q159 0 275 -71l-83 -157q-37 22 -94 38.5t-113 16.5q-71 0 -71 -33
q0 -25 45 -36q8 -2 41 -8q118 -21 165 -41q120 -53 121 -171q0 -108 -80.5 -168.5t-227.5 -60.5q-89 0 -170.5 27t-138.5 71zM244 930h210l140 -204h-194l-51 88l-52 -88h-195z" />
    <glyph glyph-name="scircumflex" unicode="&#x15d;" horiz-adv-x="562" 
d="M15 63l69 143q37 -26 94.5 -46.5t104.5 -20.5q55 0 55 25q0 11 -15.5 16.5t-58.5 12.5q-7 1 -11 1.5t-10 1.5l-12 2q-94 17 -138 54t-44 109q0 81 63 127t179 46q123 0 227 -44l-50 -147q-103 47 -186 47q-42 0 -42 -20q0 -4 2 -7.5t7.5 -6.5t11 -5t15.5 -4.5t18 -4
t21.5 -4t23.5 -4.5q104 -22 150.5 -56t46.5 -110q0 -82 -68 -130.5t-186 -48.5q-160 0 -267 74zM72 591l125 180h184l124 -180h-171l-45 78l-46 -78h-171z" />
    <glyph glyph-name="Scedilla" unicode="&#x15e;" horiz-adv-x="666" 
d="M18 87l83 161q105 -80 250 -80q69 0 69 37q0 14 -13 23t-29.5 12.5t-47.5 8.5q-3 0 -4.5 0.5t-4.5 1t-5 0.5q-35 6 -58.5 11t-58.5 15.5t-58 25t-45.5 36t-34 53t-11.5 70.5q0 107 81 162.5t218 55.5q159 0 275 -71l-83 -157q-37 22 -94 38.5t-113 16.5q-71 0 -71 -33
q0 -25 45 -36q8 -2 41 -8q118 -21 165 -41q120 -53 121 -171q0 -96 -63.5 -154.5t-180.5 -71.5l-10 -32q42 -5 65.5 -30.5t23.5 -62.5q0 -49 -41.5 -81t-107.5 -32q-64 0 -111 16v103q50 -15 79 -15q40 0 40 25q0 23 -36 23h-51l-7 12l27 75q-144 18 -244 94z" />
    <glyph glyph-name="scedilla" unicode="&#x15f;" horiz-adv-x="562" 
d="M15 63l69 143q37 -26 94.5 -46.5t104.5 -20.5q55 0 55 25q0 11 -15.5 16.5t-58.5 12.5q-7 1 -11 1.5t-10 1.5l-12 2q-94 17 -138 54t-44 109q0 81 63 127t179 46q123 0 227 -44l-50 -147q-103 47 -186 47q-42 0 -42 -20q0 -4 2 -7.5t7.5 -6.5t11 -5t15.5 -4.5t18 -4
t21.5 -4t23.5 -4.5q104 -22 150.5 -56t46.5 -110q0 -70 -51 -116.5t-141 -58.5l-10 -33q41 -5 64.5 -30.5t23.5 -62.5q0 -49 -41.5 -81t-106.5 -32t-112 16v103q52 -15 80 -15q40 0 40 25q0 23 -36 23h-51l-7 12l26 75q-121 16 -199 70z" />
    <glyph glyph-name="Scaron" unicode="&#x160;" horiz-adv-x="666" 
d="M101 248q105 -80 250 -80q69 0 69 37q0 14 -13 23t-29.5 12.5t-47.5 8.5q-3 0 -4.5 0.5t-4.5 1t-5 0.5q-35 6 -58.5 11t-58.5 15.5t-58 25t-45.5 36t-34 53t-11.5 70.5q0 107 81 162.5t218 55.5q159 0 275 -71l-83 -157q-37 22 -94 38.5t-113 16.5q-71 0 -71 -33
q0 -25 45 -36q8 -2 41 -8q118 -21 165 -41q120 -53 121 -171q0 -108 -80.5 -168.5t-227.5 -60.5q-89 0 -170.5 27t-138.5 71zM298 930l52 -88l51 88h194l-141 -204h-209l-142 204h195z" />
    <glyph glyph-name="scaron" unicode="&#x161;" horiz-adv-x="562" 
d="M15 63l69 143q37 -26 94.5 -46.5t104.5 -20.5q55 0 55 25q0 11 -15.5 16.5t-58.5 12.5q-7 1 -11 1.5t-10 1.5l-12 2q-94 17 -138 54t-44 109q0 81 63 127t179 46q123 0 227 -44l-50 -147q-103 47 -186 47q-42 0 -42 -20q0 -4 2 -7.5t7.5 -6.5t11 -5t15.5 -4.5t18 -4
t21.5 -4t23.5 -4.5q104 -22 150.5 -56t46.5 -110q0 -82 -68 -130.5t-186 -48.5q-160 0 -267 74zM74 770h171l45 -78l45 78h171l-124 -180h-184z" />
    <glyph glyph-name="Tcaron" unicode="&#x164;" horiz-adv-x="620" 
d="M16 669h588v-177h-190v-492h-208v492h-190v177zM65 931h194l52 -88l51 88h195l-141 -205h-210z" />
    <glyph glyph-name="tcaron" unicode="&#x165;" horiz-adv-x="462" 
d="M23 522h75v136h199v-136h114v-168h-114v-136q0 -57 53 -57q39 0 78 16v-162q-68 -27 -140 -27q-190 0 -190 179v187h-75v168zM335 563l25 203h195l-46 -203h-174z" />
    <glyph glyph-name="Tbar" unicode="&#x166;" horiz-adv-x="635" 
d="M23 669h588v-177h-189v-107h135v-146h-135v-239h-209v239h-131v146h131v107h-190v177z" />
    <glyph glyph-name="tbar" unicode="&#x167;" horiz-adv-x="451" 
d="M23 228v79h75v47h-75v168h75v136h199v-136h114v-168h-114v-47h114v-79h-114v-10q0 -57 53 -57q39 0 78 16v-162q-68 -27 -140 -27q-190 0 -190 179v61h-75z" />
    <glyph glyph-name="Utilde" unicode="&#x168;" horiz-adv-x="707" 
d="M49 272v397h209v-381q0 -42 25 -70t70 -28t71 28.5t26 69.5v381h208v-397q0 -126 -85 -204q-86 -79 -220 -79t-219 78t-85 205zM154 882q35 43 108 43q31 0 56 -9t38 -20.5t28.5 -20.5t30.5 -9q22 0 34.5 14.5t12.5 35.5v3h142q1 -8 1 -23q0 -69 -36.5 -115t-106.5 -46
q-38 0 -67 15.5t-49.5 31t-38.5 15.5q-21 0 -33 -15t-12 -36v-4h-141q-2 20 -2 30q0 67 35 110z" />
    <glyph glyph-name="utilde" unicode="&#x169;" horiz-adv-x="615" 
d="M42 522h200v-294q0 -32 16 -50t43 -18q29 0 48 21.5t19 56.5v284h199v-522h-189v44q-57 -56 -144 -56q-89 0 -140.5 59.5t-51.5 170.5v304zM123 729q35 43 109 43q38 0 61.5 -14.5t38 -29t31.5 -14.5q35 0 35 45v7h142q1 -8 1 -24q0 -68 -36.5 -114t-108.5 -46
q-37 0 -61.5 15.5t-41.5 31t-34 15.5q-18 0 -23.5 -11.5t-5.5 -35.5v-8h-141q-2 20 -2 29q0 67 36 111z" />
    <glyph glyph-name="Umacron" unicode="&#x16a;" horiz-adv-x="707" 
d="M49 669h209v-381q0 -42 25 -70t70 -28t71 28.5t26 69.5v381h208v-397q0 -126 -85 -204q-86 -79 -220 -79t-219 78t-85 205v397zM151 748v146h406v-146h-406z" />
    <glyph glyph-name="umacron" unicode="&#x16b;" horiz-adv-x="615" 
d="M242 522v-294q0 -32 16 -50t43 -18q29 0 48 21.5t19 56.5v284h199v-522h-189v44q-57 -56 -144 -56q-89 0 -140.5 59.5t-51.5 170.5v304h200zM118 741h375v-132h-375v132z" />
    <glyph glyph-name="Ubreve" unicode="&#x16c;" horiz-adv-x="707" 
d="M49 669h209v-381q0 -42 25 -70t70 -28t71 28.5t26 69.5v381h208v-397q0 -126 -85 -204q-86 -79 -220 -79t-219 78t-85 205v397zM117 929h163v-3q0 -30 20 -50.5t52 -20.5t52 20.5t20 50.5v3h163q-2 -97 -65 -149q-64 -53 -170 -53t-169.5 52.5t-65.5 149.5z" />
    <glyph glyph-name="ubreve" unicode="&#x16d;" horiz-adv-x="615" 
d="M42 522h200v-294q0 -32 16 -50t43 -18q29 0 48 21.5t19 56.5v284h199v-522h-189v44q-57 -56 -144 -56q-89 0 -140.5 59.5t-51.5 170.5v304zM238 766q0 -33 17 -53.5t47 -20.5t47.5 20.5t17.5 53.5h147q-2 -87 -59 -134q-58 -47 -153 -47t-152 47t-60 134h148z" />
    <glyph glyph-name="Uring" unicode="&#x16e;" horiz-adv-x="707" 
d="M49 669h209v-381q0 -42 25 -70t70 -28t71 28.5t26 69.5v381h208v-397q0 -126 -85 -204q-86 -79 -220 -79t-219 78t-85 205v397zM205 839q0 56 42.5 93.5t106.5 37.5t106 -37.5t42 -93.5q0 -57 -42 -94q-42 -38 -106 -38t-106.5 37.5t-42.5 94.5zM317 802q15 -14 37 -14
t36.5 14t14.5 35q0 22 -14.5 36.5t-36.5 14.5t-37 -14.5t-15 -36.5q0 -21 15 -35z" />
    <glyph glyph-name="uring" unicode="&#x16f;" horiz-adv-x="615" 
d="M42 522h200v-294q0 -32 16 -50t43 -18q29 0 48 21.5t19 56.5v284h199v-522h-189v44q-57 -56 -144 -56q-89 0 -140.5 59.5t-51.5 170.5v304zM199 799q41 36 103 36q63 0 103.5 -36t40.5 -92q0 -55 -40.5 -91.5t-103.5 -36.5q-62 0 -103 36.5t-41 91.5t41 92zM252 706
q0 -21 14.5 -35t35.5 -14q22 0 36.5 14t14.5 35t-14.5 35t-36.5 14q-21 0 -35.5 -14t-14.5 -35z" />
    <glyph glyph-name="Uhungarumlaut" unicode="&#x170;" horiz-adv-x="707" 
d="M258 669v-381q0 -42 25 -70t70 -28t71 28.5t26 69.5v381h208v-397q0 -126 -85 -204q-86 -79 -220 -79t-219 78t-85 205v397h209zM433 923h213l-74 -197h-202zM126 726l44 197h216l-61 -197h-199z" />
    <glyph glyph-name="uhungarumlaut" unicode="&#x171;" horiz-adv-x="615" 
d="M242 522v-294q0 -32 16 -50t43 -18q29 0 48 21.5t19 56.5v284h199v-522h-189v44q-57 -56 -144 -56q-89 0 -140.5 59.5t-51.5 170.5v304h200zM318 590l56 175h205l-66 -175h-195zM126 765h208l-53 -175h-191z" />
    <glyph glyph-name="Uogonek" unicode="&#x172;" horiz-adv-x="707" 
d="M49 272v397h209v-381q0 -42 25 -70t70 -28t71 28.5t26 69.5v381h208v-397q0 -97 -52 -167t-140 -99q-49 -16 -72.5 -30t-23.5 -34q0 -27 33 -27q7 0 62 11v-127q-46 -21 -107 -21q-66 0 -103 31.5t-37 82.5q0 60 63 104q-105 20 -168.5 94t-63.5 182z" />
    <glyph glyph-name="uogonek" unicode="&#x173;" horiz-adv-x="615" 
d="M42 522h200v-294q0 -32 16 -50t43 -18q29 0 48 21.5t19 56.5v284h199v-522h-1q-48 -16 -71.5 -30t-23.5 -34q0 -26 33 -26q18 0 62 11v-127q-45 -22 -107 -22q-66 0 -103 31.5t-37 82.5q0 28 19.5 60t58.5 54h-19v44q-57 -56 -144 -56q-89 0 -140.5 59.5t-51.5 170.5v304
z" />
    <glyph glyph-name="Wcircumflex" unicode="&#x174;" horiz-adv-x="998" 
d="M223 669l77 -413l105 413h189l106 -407l76 407h217l-178 -669h-221l-95 377l-97 -377h-221l-174 669h216zM250 726l142 205h210l140 -205h-194l-51 88l-52 -88h-195z" />
    <glyph glyph-name="wcircumflex" unicode="&#x175;" horiz-adv-x="861" 
d="M0 522h214l56 -269l76 269h168l78 -261l54 261h214l-152 -523h-195l-81 279l-81 -279h-197zM212 588l125 180h184l124 -180h-171l-45 78l-46 -78h-171z" />
    <glyph glyph-name="Ycircumflex" unicode="&#x176;" horiz-adv-x="679" 
d="M235 669l103 -258l109 258h242l-247 -481v-188h-208v188l-240 481h241zM236 931h210l140 -205h-194l-51 88l-52 -88h-195z" />
    <glyph glyph-name="ycircumflex" unicode="&#x177;" horiz-adv-x="617" 
d="M197 523l116 -332l100 332h202l-158 -468q-18 -53 -33.5 -88.5t-40.5 -74.5t-55 -61.5t-74 -37.5t-100 -15q-66 0 -136 28v171q58 -29 115 -29q63 0 87 24l-226 551h203zM210 769h184l124 -180h-172l-44 77l-46 -77h-171z" />
    <glyph glyph-name="Ydieresis" unicode="&#x178;" horiz-adv-x="679" 
d="M-6 669h241l103 -258l109 258h242l-247 -481v-188h-208v188zM107 838q0 46 32 77.5t79 31.5q46 0 77.5 -31.5t31.5 -77.5q0 -47 -31.5 -79.5t-77.5 -32.5q-47 0 -79 32.5t-32 79.5zM355 838q0 46 32 77.5t78 31.5t77.5 -31.5t31.5 -77.5q0 -47 -31 -79q-32 -33 -78 -33
t-78 32.5t-32 79.5z" />
    <glyph glyph-name="Zacute" unicode="&#x179;" horiz-adv-x="643" 
d="M274 923h227l-79 -197h-208zM597 498l-283 -321h294v-177h-570v163l291 329h-286v177h554v-171z" />
    <glyph glyph-name="zacute" unicode="&#x17a;" horiz-adv-x="551" 
d="M377 591h-191l46 175h219zM519 0h-486v138l215 219h-202v165h462v-132l-217 -224h228v-166z" />
    <glyph glyph-name="Zdotaccent" unicode="&#x17b;" horiz-adv-x="643" 
d="M38 163l291 329h-286v177h554v-171l-283 -321h294v-177h-570v163zM214 827q0 44 31 75t75 31q45 0 76 -31t31 -75t-31 -74.5t-76 -30.5q-44 0 -75 30.5t-31 74.5z" />
    <glyph glyph-name="zdotaccent" unicode="&#x17c;" horiz-adv-x="551" 
d="M33 0v138l215 219h-202v165h462v-132l-217 -224h228v-166h-486zM172 669q0 44 31 74t75 30t75 -30t31 -74t-31 -74q-31 -31 -75 -31t-75 30.5t-31 74.5z" />
    <glyph glyph-name="Zcaron" unicode="&#x17d;" horiz-adv-x="643" 
d="M38 0v163l291 329h-286v177h554v-171l-283 -321h294v-177h-570zM74 932h194l52 -88l51 88h195l-141 -205h-210z" />
    <glyph glyph-name="zcaron" unicode="&#x17e;" horiz-adv-x="551" 
d="M248 357h-202v165h462v-132l-217 -224h228v-166h-486v138zM62 767h171l45 -77l45 77h171l-124 -180h-184z" />
    <glyph glyph-name="Aringacute" unicode="&#x1fa;" horiz-adv-x="698" 
d="M222 669h256l219 -669h-219l-24 93h-209l-25 -93h-222zM200 839q0 56 42.5 93.5t106.5 37.5q46 0 82.5 -20.5t53.5 -55.5l95 63l55 -100l-150 -73q-17 -35 -53 -56t-83 -21q-64 0 -106.5 37.5t-42.5 94.5zM413 265l-63 233l-61 -233h124zM298 837q0 -21 14.5 -35
t36.5 -14t36.5 14t14.5 35q0 22 -14 37q-15 14 -37 14t-36.5 -14.5t-14.5 -36.5z" />
    <glyph glyph-name="aringacute" unicode="&#x1fb;" horiz-adv-x="650" 
d="M97 458q71 76 181 76q85 0 141 -56v44h183v-522h-183v43q-57 -55 -144 -55q-109 0 -179 77t-70 197q0 119 71 196zM190 706q0 56 41 92t104 36q81 0 122 -57l78 66l53 -112l-111 -48q-8 -46 -47.5 -75.5t-94.5 -29.5q-63 0 -104 36.5t-41 91.5zM220 261q0 -44 28 -72.5
t71 -28.5q42 0 70.5 29.5t28.5 72.5q0 42 -28 71t-70 29q-44 0 -72 -28.5t-28 -72.5zM284 705q0 -21 14.5 -35t36.5 -14q21 0 35.5 14t14.5 35t-14.5 35t-35.5 14q-22 0 -36.5 -14t-14.5 -35z" />
    <glyph glyph-name="AEacute" unicode="&#x1fc;" horiz-adv-x="982" 
d="M-17 0l335 669h613v-177h-293v-77h277v-161h-277v-77h304v-177h-496v107h-202l-50 -107h-211zM541 922h227l-78 -196h-208zM321 270h125v266z" />
    <glyph glyph-name="aeacute" unicode="&#x1fd;" horiz-adv-x="930" 
d="M77 275q54 41 155 41h118q-2 32 -25 50t-91 18q-88 0 -168 -31v142q83 39 200 39q129 0 191 -66q72 66 184 66q115 0 189 -71t74 -182q0 -29 -3 -59h-357q6 -39 29.5 -62t64.5 -23q61 0 86 51l157 -59q-24 -67 -87.5 -104t-155.5 -37q-126 0 -194 75q-73 -75 -206 -75
q-101 0 -158 47.5t-57 125.5q0 73 54 114zM362 590l46 175h219l-74 -175h-191zM202 171q0 -44 61 -44q37 0 60.5 22t26.5 64h-87q-31 0 -46 -12.5t-15 -29.5zM722 318q-7 32 -30 51.5t-57 19.5q-33 0 -56 -19t-32 -52h175z" />
    <glyph glyph-name="Oslashacute" unicode="&#x1fe;" horiz-adv-x="758" 
d="M28 334q0 150 99.5 248t251.5 98q87 0 162 -36l70 97l79 -58l-68 -94q108 -98 108 -255q0 -149 -99.5 -247t-251.5 -98q-88 0 -163 36l-72 -99l-82 65l68 93q-102 99 -102 250zM324 922h227l-78 -196h-208zM379 171q69 0 115 47t46 116q0 55 -32 100l-183 -254
q25 -9 54 -9zM218 334q0 -53 29 -95l184 251q-26 8 -52 8q-69 0 -115 -47.5t-46 -116.5z" />
    <glyph glyph-name="oslashacute" unicode="&#x1ff;" horiz-adv-x="632" 
d="M25 258q0 120 82 198t209 78q71 0 133 -27l66 86l65 -43l-64 -85q91 -80 91 -207q0 -117 -82 -193.5t-209 -76.5q-77 0 -138 29l-66 -86l-64 43l64 86q-87 76 -87 198zM255 765h219l-74 -175h-191zM317 148q49 0 82.5 32t33.5 80q0 40 -23 69l-132 -175q18 -6 39 -6z
M201 260q0 -36 18 -61l129 171q-13 4 -31 4q-50 0 -83 -32.5t-33 -81.5z" />
    <glyph glyph-name="uni0218" unicode="&#x218;" horiz-adv-x="666" 
d="M101 248q105 -80 250 -80q69 0 69 37q0 14 -13 23t-29.5 12.5t-47.5 8.5q-3 0 -4.5 0.5t-4.5 1t-5 0.5q-35 6 -58.5 11t-58.5 15.5t-58 25t-45.5 36t-34 53t-11.5 70.5q0 107 81 162.5t218 55.5q159 0 275 -71l-83 -157q-37 22 -94 38.5t-113 16.5q-71 0 -71 -33
q0 -25 45 -36q8 -2 41 -8q118 -21 165 -41q120 -53 121 -171q0 -108 -80.5 -168.5t-227.5 -60.5q-89 0 -170.5 27t-138.5 71zM194 -240l32 195h213l-49 -195h-196z" />
    <glyph glyph-name="uni0219" unicode="&#x219;" horiz-adv-x="562" 
d="M84 206q37 -26 94.5 -46.5t104.5 -20.5q55 0 55 25q0 11 -15.5 16.5t-58.5 12.5q-7 1 -11 1.5t-10 1.5l-12 2q-94 17 -138 54t-44 109q0 81 63 127t179 46q123 0 227 -44l-50 -147q-103 47 -186 47q-42 0 -42 -20q0 -4 2 -7.5t7.5 -6.5t11 -5t15.5 -4.5t18 -4t21.5 -4
t23.5 -4.5q104 -22 150.5 -56t46.5 -110q0 -82 -68 -130.5t-186 -48.5q-160 0 -267 74zM174 -46h198l-65 -189h-179z" />
    <glyph glyph-name="uni021A" unicode="&#x21a;" horiz-adv-x="620" 
d="M16 492v177h588v-177h-190v-492h-208v492h-190zM165 -234l32 196h213l-48 -196h-197z" />
    <glyph glyph-name="uni021B" unicode="&#x21b;" horiz-adv-x="451" 
d="M23 522h75v136h199v-136h114v-168h-114v-136q0 -57 53 -57q39 0 78 16v-162q-68 -27 -140 -27q-190 0 -190 179v187h-75v168zM160 -46h198l-64 -185h-180z" />
    <glyph glyph-name="uni0237" unicode="&#x237;" horiz-adv-x="308" 
d="M-3 -44q64 0 64 70v496h199v-547q0 -89 -59 -142.5t-163 -53.5q-72 0 -134 22v169q47 -14 93 -14z" />
    <glyph glyph-name="circumflex" unicode="&#x2c6;" horiz-adv-x="474" 
d="M146 766h184l124 -180h-172l-44 77l-46 -77h-171z" />
    <glyph glyph-name="caron" unicode="&#x2c7;" horiz-adv-x="474" 
d="M21 766h171l46 -78l44 78h172l-124 -180h-184z" />
    <glyph glyph-name="breve" unicode="&#x2d8;" horiz-adv-x="480" 
d="M28 766h147q0 -33 17.5 -53.5t47.5 -20.5t47.5 20.5t17.5 53.5h147q-2 -87 -59 -134q-58 -47 -153 -47t-152.5 47t-59.5 134z" />
    <glyph glyph-name="dotaccent" unicode="&#x2d9;" horiz-adv-x="287" 
d="M38 670q0 44 31 74t75 30t75 -30t31 -74q0 -45 -30 -75q-31 -30 -76 -30t-75.5 30t-30.5 75z" />
    <glyph glyph-name="ring" unicode="&#x2da;" horiz-adv-x="346" 
d="M70 798q41 36 104 36q62 0 103 -36.5t41 -91.5t-41 -91.5t-103 -36.5q-63 0 -104 36.5t-41 91.5q0 56 41 92zM123 705q0 -21 14.5 -35t36.5 -14q21 0 35.5 14t14.5 35t-14.5 35t-35.5 14q-22 0 -36.5 -14t-14.5 -35z" />
    <glyph glyph-name="ogonek" unicode="&#x2db;" horiz-adv-x="312" 
d="M170 -222q-65 0 -102.5 32t-37.5 83q0 30 22 64t67 55l159 -6q-48 -15 -72 -29t-24 -35q0 -26 33 -26q18 0 62 11v-127q-45 -22 -107 -22z" />
    <glyph glyph-name="tilde" unicode="&#x2dc;" horiz-adv-x="514" 
d="M31 638q0 67 35.5 110.5t109.5 43.5q38 0 61.5 -14.5t38 -29t31.5 -14.5q35 0 35 45v7h142q1 -8 1 -24q0 -68 -36.5 -114t-108.5 -46q-37 0 -61.5 15.5t-41.5 31t-34 15.5q-18 0 -23.5 -11.5t-5.5 -35.5v-8h-141q-2 20 -2 29z" />
    <glyph glyph-name="hungarumlaut" unicode="&#x2dd;" horiz-adv-x="541" 
d="M313 765h205l-66 -175h-194zM65 765h208l-53 -175h-191z" />
    <glyph glyph-name="gravecomb" unicode="&#x300;" horiz-adv-x="0" 
d="M-46 765l46 -175h-191l-75 175h220z" />
    <glyph glyph-name="acutecomb" unicode="&#x301;" horiz-adv-x="0" 
d="M-74 590h-191l46 175h219z" />
    <glyph glyph-name="uni0302" unicode="&#x302;" horiz-adv-x="0" 
d="M-308 766h184l124 -180h-171l-45 77l-46 -77h-171z" />
    <glyph glyph-name="tildecomb" unicode="&#x303;" horiz-adv-x="0" 
d="M-453 637q0 68 35 111.5t110 43.5q30 0 51.5 -9t31 -20t22 -20t26.5 -9q35 0 35 45v7h142q1 -7 1 -22q0 -69 -36.5 -115.5t-108.5 -46.5q-37 0 -61.5 15.5t-41.5 31t-34 15.5q-18 0 -24 -11.5t-6 -35.5v-8h-141q-1 9 -1 28z" />
    <glyph glyph-name="uni0304" unicode="&#x304;" horiz-adv-x="0" 
d="M0 608h-375v132h375v-132z" />
    <glyph glyph-name="uni0306" unicode="&#x306;" horiz-adv-x="0" 
d="M-424 766h147q0 -33 17.5 -53.5t47.5 -20.5t47.5 20.5t17.5 53.5h147q-2 -87 -60 -134q-57 -47 -152 -47t-152.5 47t-59.5 134z" />
    <glyph glyph-name="uni0307" unicode="&#x307;" horiz-adv-x="0" 
d="M-189 744q31 30 76 30q44 0 74.5 -30t30.5 -74q0 -45 -30.5 -75t-74.5 -30q-45 0 -76 30t-31 75q0 44 31 74z" />
    <glyph glyph-name="uni0308" unicode="&#x308;" horiz-adv-x="0" 
d="M-414 741q30 30 74 30t74.5 -30t30.5 -73q0 -44 -30.5 -75t-74.5 -31q-43 0 -73.5 31t-30.5 75q0 43 30 73zM-179 741q31 30 75 30t74 -30t30 -73q0 -44 -30.5 -75t-73.5 -31q-44 0 -74.5 31t-30.5 75q0 43 30 73z" />
    <glyph glyph-name="uni030A" unicode="&#x30a;" horiz-adv-x="0" 
d="M-248 798q41 36 104 36q62 0 103 -36.5t41 -91.5t-41 -91.5t-103 -36.5q-63 0 -104 36.5t-41 91.5q0 56 41 92zM-195 705q0 -21 14.5 -35t36.5 -14q21 0 35.5 14t14.5 35t-14.5 35t-35.5 14q-22 0 -36.5 -14t-14.5 -35z" />
    <glyph glyph-name="uni030B" unicode="&#x30b;" horiz-adv-x="0" 
d="M-206 765h206l-67 -175h-194zM-454 765h208l-53 -175h-191z" />
    <glyph glyph-name="uni030C" unicode="&#x30c;" horiz-adv-x="0" 
d="M-433 766h171l46 -78l45 78h171l-124 -180h-184z" />
    <glyph glyph-name="uni0326" unicode="&#x326;" horiz-adv-x="0" 
d="M-65 -262h-179l46 189h198z" />
    <glyph glyph-name="uni0394" unicode="&#x394;" horiz-adv-x="705" 
d="M690 0h-675v154l255 515h164l256 -515v-154zM352 475l-134 -305h270z" />
    <glyph glyph-name="uni03A9" unicode="&#x3a9;" horiz-adv-x="739" 
d="M584 174h121v-173h-314v169q98 76 98 180q0 60 -33.5 98.5t-85.5 38.5q-51 0 -85.5 -39t-34.5 -100q0 -53 22 -95t74 -83v-169h-312v173h118q-47 35 -74.5 93.5t-27.5 125.5q0 126 90 207.5t230 81.5q139 0 229 -81.5t90 -207.5q0 -66 -28.5 -125t-76.5 -94z" />
    <glyph glyph-name="uni03BC" unicode="&#x3bc;" horiz-adv-x="674" 
d="M607 176q24 0 39 6v-174q-28 -20 -103 -20q-87 0 -123 61q-38 -61 -106 -61q-42 0 -67 21v-210h-199v723h199v-281q0 -32 16 -50t43 -18q30 0 49 21.5t19 56.5v271h199v-304q0 -42 34 -42z" />
    <glyph glyph-name="pi" unicode="&#x3c0;" horiz-adv-x="710" 
d="M627 176q25 0 43 6v-174q-31 -20 -107 -20q-173 0 -173 171v176h-84v-536h-200v536h-78v187h639v-187h-77v-117q0 -42 37 -42z" />
    <glyph glyph-name="uni0401" unicode="&#x401;" horiz-adv-x="610" 
d="M56 669h502v-178h-300v-73h292v-167h-292v-73h311v-178h-513v669zM102 916q32 31 79 31q46 0 77.5 -31.5t31.5 -77.5q0 -47 -31.5 -79.5t-77.5 -32.5q-47 0 -79 32.5t-32 79.5q0 46 32 78zM318 838q0 46 32 77.5t78 31.5t78 -31.5t32 -77.5q0 -47 -32 -79
q-32 -33 -78 -33t-78 32.5t-32 79.5z" />
    <glyph glyph-name="uni0402" unicode="&#x402;" horiz-adv-x="816" 
d="M16 492v177h588v-177h-190v-103q43 5 75 5q138 0 221.5 -79.5t83.5 -222.5q0 -137 -80 -225t-216 -88q-74 0 -113 15v176q51 -11 85 -11q52 0 83.5 35.5t31.5 94.5q0 55 -32.5 87.5t-86.5 32.5q-19 0 -52 -5v-204h-208v492h-190z" />
    <glyph glyph-name="uni0403" unicode="&#x403;" horiz-adv-x="515" 
d="M381 726h-208l59 196h227zM265 0h-209v669h444v-177h-235v-492z" />
    <glyph glyph-name="uni0404" unicode="&#x404;" horiz-adv-x="656" 
d="M128 586q98 94 260 94q67 0 136 -20t118 -57l-78 -157q-33 21 -83.5 35.5t-90.5 14.5q-53 0 -92 -24.5t-57 -67.5h248v-138h-249q18 -44 57.5 -69.5t92.5 -25.5q42 0 99.5 15t92.5 39l62 -163q-51 -35 -123 -54t-138 -19q-157 0 -255.5 97.5t-98.5 253.5q0 151 99 246z
" />
    <glyph glyph-name="uni0405" unicode="&#x405;" horiz-adv-x="666" 
d="M101 248q105 -80 250 -80q69 0 69 37q0 14 -13 23t-29.5 12.5t-47.5 8.5q-3 0 -4.5 0.5t-4.5 1t-5 0.5q-35 6 -58.5 11t-58.5 15.5t-58 25t-45.5 36t-34 53t-11.5 70.5q0 107 81 162.5t218 55.5q159 0 275 -71l-83 -157q-37 22 -94 38.5t-113 16.5q-71 0 -71 -33
q0 -25 45 -36q8 -2 41 -8q118 -21 165 -41q120 -53 121 -171q0 -108 -80.5 -168.5t-227.5 -60.5q-89 0 -170.5 27t-138.5 71z" />
    <glyph glyph-name="uni0406" unicode="&#x406;" horiz-adv-x="321" 
d="M56 0v669h209v-669h-209z" />
    <glyph glyph-name="uni0407" unicode="&#x407;" horiz-adv-x="321" 
d="M265 669v-669h-209v669h209zM-72 838q0 46 32 77.5t78 31.5t78 -31.5t32 -77.5q0 -47 -32 -79q-32 -33 -78 -33t-78 32.5t-32 79.5zM208 916q32 31 78 31t77.5 -31.5t31.5 -77.5q0 -47 -31 -79q-32 -33 -78 -33t-78 32.5t-32 79.5q0 46 32 78z" />
    <glyph glyph-name="uni0408" unicode="&#x408;" horiz-adv-x="502" 
d="M143 182q61 0 80 26.5t19 71.5v389h209v-427q0 -124 -72 -188.5t-197 -64.5q-87 0 -164 24v184q66 -15 125 -15z" />
    <glyph glyph-name="uni0409" unicode="&#x409;" horiz-adv-x="1099" 
d="M702 494h147q102 0 166.5 -68t64.5 -176q0 -111 -66.5 -180.5t-172.5 -69.5h-348v492h-131v-101q0 -57 -1.5 -91.5t-8.5 -88t-24.5 -94t-46.5 -67.5q-63 -61 -186 -61q-7 0 -79 6v191q20 -4 38 -4q48 0 73 43q16 28 21.5 88t5.5 222v134h548v-175zM702 166h91q35 0 58 24
t23 60q0 34 -23.5 56.5t-58.5 22.5h-90v-163z" />
    <glyph glyph-name="uni040A" unicode="&#x40a;" horiz-adv-x="1078" 
d="M267 669v-257h203v257h212v-175h145q102 0 166.5 -68t64.5 -176q0 -111 -66.5 -180.5t-172.5 -69.5h-349v220h-203v-220h-211v669h211zM771 166q35 0 58.5 24t23.5 60q0 34 -23.5 56.5t-59.5 22.5h-88v-163h89z" />
    <glyph glyph-name="uni040B" unicode="&#x40b;" horiz-adv-x="795" 
d="M604 669v-177h-190v-93q71 11 107 11q119 0 180 -53t61 -154v-203h-218v154q0 11 -1.5 18.5t-7 19t-20 17.5t-38.5 6q-23 0 -63 -7v-208h-208v492h-190v177h588z" />
    <glyph glyph-name="uni040C" unicode="&#x40c;" horiz-adv-x="689" 
d="M56 669h209v-273l181 273h244l-236 -344l236 -325h-256l-169 247v-247h-209v669zM264 726l59 196h227l-78 -196h-208z" />
    <glyph glyph-name="uni040E" unicode="&#x40e;" horiz-adv-x="680" 
d="M249 669l115 -309l99 309h219l-188 -465q-20 -48 -40 -81t-54 -66t-86.5 -50t-122.5 -17q-72 0 -138 22v167q80 -20 125 -20q44 0 70 16l-224 494h225zM143 926h147q1 -88 65 -88t65 88h147q-5 -89 -62 -140t-150 -51t-150 51t-62 140z" />
    <glyph glyph-name="uni040F" unicode="&#x40f;" horiz-adv-x="711" 
d="M446 669h209v-669h-197v-130h-204v130h-198v669h209v-492h181v492z" />
    <glyph glyph-name="uni0410" unicode="&#x410;" horiz-adv-x="698" 
d="M222 669h256l219 -669h-219l-24 93h-209l-25 -93h-222zM413 265l-63 233l-61 -233h124z" />
    <glyph glyph-name="uni0411" unicode="&#x411;" horiz-adv-x="674" 
d="M263 433h149q108 0 171 -58.5t63 -155.5q0 -99 -64.5 -159t-170.5 -60h-355v669h531v-177h-324v-59zM263 161h111q28 0 46 16.5t18 42.5q0 25 -17.5 41.5t-44.5 16.5h-113v-117z" />
    <glyph glyph-name="uni0412" unicode="&#x412;" horiz-adv-x="681" 
d="M56 669h358q104 0 158 -50t54 -129q0 -93 -77 -128q104 -35 104 -156q0 -98 -64.5 -152t-194.5 -54h-338v669zM261 272v-108h125q28 0 44 15.5t16 39.5q0 23 -16 38t-41 15h-128zM261 506v-102h109q26 0 42.5 13t16.5 37t-15.5 38t-39.5 14h-113z" />
    <glyph glyph-name="uni0413" unicode="&#x413;" horiz-adv-x="515" 
d="M265 0h-209v669h444v-177h-235v-492z" />
    <glyph glyph-name="uni0414" unicode="&#x414;" horiz-adv-x="826" 
d="M697 669v-492h107v-306h-203v129h-383v-129h-204v306h88q30 40 42 107t12 193v192h541zM360 492v-86q0 -153 -32 -229h160v315h-128z" />
    <glyph glyph-name="uni0415" unicode="&#x415;" horiz-adv-x="610" 
d="M56 0v669h502v-178h-300v-73h292v-167h-292v-73h311v-178h-513z" />
    <glyph glyph-name="uni0416" unicode="&#x416;" horiz-adv-x="1052" 
d="M809 669h244l-235 -344l235 -325h-256l-171 253v-253h-200v253l-171 -253h-256l235 325l-235 344h244l183 -278v278h200v-278z" />
    <glyph glyph-name="uni0417" unicode="&#x417;" horiz-adv-x="649" 
d="M528 367q43 -22 68 -63t25 -92q0 -98 -87.5 -160.5t-223.5 -62.5q-81 0 -162.5 22t-137.5 66l80 161q99 -67 227 -67q95 0 95 51q0 21 -17 33t-44 12h-193v138h173q32 0 49.5 12t17.5 32q0 47 -81 47q-44 0 -105.5 -15t-113.5 -40l-68 159q55 37 138.5 59t158.5 22
q122 0 200 -51.5t78 -131.5q0 -42 -20.5 -76.5t-56.5 -54.5z" />
    <glyph glyph-name="uni0418" unicode="&#x418;" horiz-adv-x="734" 
d="M256 669v-345l224 345h198v-669h-200v350l-229 -350h-193v669h200z" />
    <glyph glyph-name="uni0419" unicode="&#x419;" horiz-adv-x="734" 
d="M56 0v669h200v-345l224 345h198v-669h-200v350l-229 -350h-193zM295 926v-3q0 -31 20 -51t52 -20t52 20t20 51v3h163q-2 -97 -65.5 -149.5t-169.5 -52.5q-105 0 -169 52.5t-66 149.5h163z" />
    <glyph glyph-name="uni041A" unicode="&#x41a;" horiz-adv-x="689" 
d="M56 669h209v-273l181 273h244l-236 -344l236 -325h-256l-169 247v-247h-209v669z" />
    <glyph glyph-name="uni041B" unicode="&#x41b;" horiz-adv-x="758" 
d="M95 -11q-7 0 -79 6v191q20 -4 38 -4q48 0 73 43q16 28 21.5 88t5.5 222v134h548v-669h-209v492h-131v-101q0 -57 -1.5 -91.5t-8.5 -88t-24.5 -94t-46.5 -67.5q-63 -61 -186 -61z" />
    <glyph glyph-name="uni041C" unicode="&#x41c;" horiz-adv-x="900" 
d="M56 669h201l193 -323l194 323h200v-669h-200v321l-126 -199h-136l-126 200v-322h-200v669z" />
    <glyph glyph-name="uni041D" unicode="&#x41d;" horiz-adv-x="738" 
d="M56 669h211v-257h203v257h212v-669h-212v220h-203v-220h-211v669z" />
    <glyph glyph-name="uni041E" unicode="&#x41e;" horiz-adv-x="763" 
d="M128 583q100 98 253 98q154 0 254 -98.5t100 -248.5q0 -149 -100 -247.5t-254 -98.5q-153 0 -253 98t-100 248t100 249zM229 334q0 -66 44 -111q43 -45 108 -45t109 45t44 111t-44 111t-109 45t-108.5 -45t-43.5 -111z" />
    <glyph glyph-name="uni041F" unicode="&#x41f;" horiz-adv-x="715" 
d="M267 0h-211v669h603v-669h-211v492h-181v-492z" />
    <glyph glyph-name="uni0420" unicode="&#x420;" horiz-adv-x="665" 
d="M388 669q113 0 185.5 -71t72.5 -184q0 -117 -74 -187t-198 -70h-111v-157h-207v669h332zM356 334q35 0 58 22t23 56q0 35 -22.5 57.5t-56.5 22.5h-95v-158h93z" />
    <glyph glyph-name="uni0421" unicode="&#x421;" horiz-adv-x="709" 
d="M128 583q99 98 253 98q107 0 191.5 -51t122.5 -136l-180 -92q-18 41 -55 64.5t-83 23.5q-64 0 -106 -44t-42 -112q0 -67 42.5 -111.5t106.5 -44.5q48 0 85.5 25.5t54.5 67.5l184 -84q-36 -91 -123 -145t-199 -54q-152 0 -252 98t-100 248t100 249z" />
    <glyph glyph-name="uni0422" unicode="&#x422;" horiz-adv-x="620" 
d="M16 669h588v-177h-190v-492h-208v492h-190v177z" />
    <glyph glyph-name="uni0423" unicode="&#x423;" horiz-adv-x="680" 
d="M249 669l115 -309l99 309h219l-188 -465q-20 -48 -40 -81t-54 -66t-86.5 -50t-122.5 -17q-72 0 -138 22v167q80 -20 125 -20q44 0 70 16l-224 494h225z" />
    <glyph glyph-name="uni0424" unicode="&#x424;" horiz-adv-x="921" 
d="M652 599q109 0 176.5 -74t67.5 -191q0 -116 -68 -189.5t-177 -73.5q-35 0 -93 14v-122h-195v122q-58 -14 -93 -14q-109 0 -177 73.5t-68 189.5q0 117 68 190.5t177 73.5q35 0 93 -14v122h195v-121q56 14 94 14zM605 225q41 0 64.5 29.5t23.5 79.5q0 51 -23.5 80.5
t-64.5 29.5q-22 0 -49 -7v-206q26 -6 49 -6zM228 334q0 -50 25.5 -79t68.5 -29q20 0 43 5v206q-33 6 -48 6q-41 0 -65 -29.5t-24 -79.5z" />
    <glyph glyph-name="uni0425" unicode="&#x425;" horiz-adv-x="694" 
d="M216 338l-212 331h246l98 -172l105 172h244l-220 -334l214 -335h-247l-95 171l-109 -171h-243z" />
    <glyph glyph-name="uni0426" unicode="&#x426;" horiz-adv-x="770" 
d="M639 669v-485h107v-314h-203v130h-487v669h209v-485h165v485h209z" />
    <glyph glyph-name="uni0427" unicode="&#x427;" horiz-adv-x="700" 
d="M434 407v262h210v-669h-210v226q-67 -20 -136 -20q-122 0 -192.5 69t-70.5 191v203h209v-160q0 -18 0.5 -29t6 -29.5t16 -29.5t31.5 -19.5t51 -8.5q43 0 85 14z" />
    <glyph glyph-name="uni0428" unicode="&#x428;" horiz-adv-x="1042" 
d="M777 184v485h209v-669h-930v669h209v-485h151v485h210v-485h151z" />
    <glyph glyph-name="uni0429" unicode="&#x429;" horiz-adv-x="1117" 
d="M986 669v-485h108v-314h-204v130h-834v669h209v-485h151v485h210v-485h151v485h209z" />
    <glyph glyph-name="uni042A" unicode="&#x42a;" horiz-adv-x="773" 
d="M373 494h149q102 0 167 -68t65 -176q0 -111 -66.5 -180.5t-173.5 -69.5h-347v485h-149v184h355v-175zM373 166h93q35 0 58.5 24t23.5 60q0 34 -23.5 56.5t-58.5 22.5h-93v-163z" />
    <glyph glyph-name="uni042B" unicode="&#x42b;" horiz-adv-x="974" 
d="M56 0v669h206v-175h149q102 0 166.5 -68t64.5 -176q0 -111 -66.5 -180.5t-172.5 -69.5h-347zM918 669v-669h-209v669h209zM262 166h93q35 0 58.5 24t23.5 60q0 34 -23.5 56.5t-59.5 22.5h-92v-163z" />
    <glyph glyph-name="uni042C" unicode="&#x42c;" horiz-adv-x="662" 
d="M262 494h149q102 0 166.5 -68t64.5 -176q0 -111 -66.5 -180.5t-172.5 -69.5h-347v669h206v-175zM262 166h93q35 0 58.5 24t23.5 60q0 34 -23.5 56.5t-59.5 22.5h-92v-163z" />
    <glyph glyph-name="uni042D" unicode="&#x42d;" horiz-adv-x="656" 
d="M74 225q35 -24 92.5 -39t99.5 -15q53 0 92.5 25.5t57.5 69.5h-249v138h248q-18 43 -57 67.5t-92 24.5q-40 0 -90.5 -14.5t-83.5 -35.5l-78 157q49 37 118 57t136 20q162 0 260.5 -94.5t98.5 -245.5q0 -156 -98.5 -253.5t-255.5 -97.5q-66 0 -138 19t-123 54z" />
    <glyph glyph-name="uni042E" unicode="&#x42e;" horiz-adv-x="1076" 
d="M265 669v-245h87q28 116 121 186.5t221 70.5q153 0 253.5 -98.5t100.5 -248.5q0 -149 -100.5 -247.5t-253.5 -98.5q-126 0 -218.5 69.5t-122.5 182.5h-88v-240h-209v669h209zM586 223q43 -45 108 -45t109 45t44 111t-44 111t-109 45t-108.5 -45t-43.5 -111t44 -111z" />
    <glyph glyph-name="uni042F" unicode="&#x42f;" horiz-adv-x="694" 
d="M638 669v-669h-204v189h-36l-140 -189h-245l164 208q-61 27 -97 84t-36 132q0 107 69.5 176t176.5 69h348zM434 495h-104q-34 0 -57 -22t-23 -56q0 -35 23.5 -57.5t59.5 -22.5h101v158z" />
    <glyph glyph-name="uni0430" unicode="&#x430;" horiz-adv-x="650" 
d="M97 458q71 76 181 76q85 0 141 -56v44h183v-522h-183v43q-57 -55 -144 -55q-109 0 -179 77t-70 197q0 119 71 196zM248 189q28 -29 71 -29q42 0 70.5 29.5t28.5 72.5q0 42 -28 71t-70 29q-44 0 -72 -28.5t-28 -72.5t28 -72z" />
    <glyph glyph-name="uni0431" unicode="&#x431;" horiz-adv-x="643" 
d="M367 499q111 0 180.5 -70t69.5 -179q0 -117 -79 -189.5t-205 -72.5q-133 0 -214 80t-81 220v166q0 132 61.5 196t206.5 74q157 10 241 52l37 -170q-55 -41 -204 -48q-95 -4 -126 -28t-31 -85q54 54 144 54zM331 152q41 0 68 27t27 68t-26.5 68t-67.5 27t-68.5 -27
t-27.5 -68t27 -68t68 -27z" />
    <glyph glyph-name="uni0432" unicode="&#x432;" horiz-adv-x="598" 
d="M487 281q40 -16 63.5 -48t23.5 -74q0 -71 -49.5 -115t-125.5 -44h-351v522h343q68 0 111.5 -38t43.5 -97q0 -67 -59 -106zM312 394h-67v-76h65q19 0 31.5 10.5t12.5 27.5t-11.5 27.5t-30.5 10.5zM245 128h82q19 0 31 12t12 29t-12 28t-30 11h-83v-80z" />
    <glyph glyph-name="uni0433" unicode="&#x433;" horiz-adv-x="478" 
d="M250 0h-202v522h413v-180h-211v-342z" />
    <glyph glyph-name="uni0434" unicode="&#x434;" horiz-adv-x="740" 
d="M624 522v-354h92v-291h-194v123h-313v-123h-195v291h88q32 79 32 222v132h490zM329 354v-51q0 -80 -21 -135h116v186h-95z" />
    <glyph glyph-name="uni0435" unicode="&#x435;" horiz-adv-x="613" 
d="M26 259q0 123 78.5 199t207.5 76q124 0 200 -71t76 -186q0 -33 -3 -58h-376q7 -38 35 -59.5t66 -21.5q68 0 95 51l159 -60q-24 -65 -91 -103t-160 -38q-130 0 -208.5 75t-78.5 196zM213 318h190q-8 32 -33 52q-25 19 -60 19t-61 -19t-36 -52z" />
    <glyph glyph-name="uni0436" unicode="&#x436;" horiz-adv-x="908" 
d="M685 522h228l-187 -261l186 -261h-232l-127 188l-1 1v-189h-196v189l-1 -1l-127 -188h-232l187 262l-188 260h228l133 -191v191h196v-189z" />
    <glyph glyph-name="uni0437" unicode="&#x437;" horiz-adv-x="563" 
d="M456 293q85 -35 85 -123q0 -83 -75 -132.5t-206 -49.5q-141 0 -230 34l-1 149q32 -13 103 -23.5t123 -10.5q72 0 72 33q0 28 -45 28h-173v125h146q51 0 51 30q0 31 -59 31q-107 0 -211 -30l3 141q92 40 237 40q108 0 171 -39t63 -103q0 -65 -54 -100z" />
    <glyph glyph-name="uni0438" unicode="&#x438;" horiz-adv-x="633" 
d="M48 522h186v-243l175 243h176v-522h-187v240l-171 -240h-179v522z" />
    <glyph glyph-name="uni0439" unicode="&#x439;" horiz-adv-x="633" 
d="M48 522h186v-243l175 243h176v-522h-187v240l-171 -240h-179v522zM110 760h148q0 -88 64 -88t65 88h147q-5 -88 -62 -139t-150 -51t-149.5 50.5t-62.5 139.5z" />
    <glyph glyph-name="uni043A" unicode="&#x43a;" horiz-adv-x="594" 
d="M48 522h199v-191l126 191h227l-175 -263l173 -259h-233l-115 179l-3 1v-180h-199v522z" />
    <glyph glyph-name="uni043B" unicode="&#x43b;" horiz-adv-x="661" 
d="M99 -10q-58 0 -83 10v170q32 -4 42 -4q43 0 61 28q19 27 19 152v176h475v-522h-202v346h-85v-74v-8q0 -34 -1 -58t-12 -66.5t-32 -71.5q-57 -78 -182 -78z" />
    <glyph glyph-name="uni043C" unicode="&#x43c;" horiz-adv-x="778" 
d="M238 0h-190v522h181l160 -216l161 216h180v-522h-190v247l-110 -145h-83l-109 145v-247z" />
    <glyph glyph-name="uni043D" unicode="&#x43d;" horiz-adv-x="617" 
d="M367 335v187h202v-522h-202v167h-117v-167h-202v522h202v-187h117z" />
    <glyph glyph-name="uni043E" unicode="&#x43e;" horiz-adv-x="627" 
d="M106 456q80 78 208 78q127 0 207.5 -78t80.5 -197t-81.5 -195t-206.5 -76q-126 0 -207.5 76.5t-81.5 194.5t81 197zM243 188q29 -29 71 -29q43 0 71.5 29t28.5 73q0 43 -28 72t-71 29t-72 -29t-29 -72q0 -44 29 -73z" />
    <glyph glyph-name="uni043F" unicode="&#x43f;" horiz-adv-x="609" 
d="M248 0h-200v522h513v-522h-200v342h-113v-342z" />
    <glyph glyph-name="uni0440" unicode="&#x440;" horiz-adv-x="655" 
d="M383 530q105 0 175.5 -77.5t70.5 -194.5t-71 -193.5t-177 -76.5q-81 0 -139 48v-237h-194v723h190v-46q60 54 145 54zM336 156q42 0 70.5 29.5t28.5 72.5t-28 72t-70 29q-43 0 -71.5 -29t-28.5 -72t28.5 -72.5t70.5 -29.5z" />
    <glyph glyph-name="uni0441" unicode="&#x441;" horiz-adv-x="599" 
d="M106 459q80 75 212 75q105 0 178 -51t91 -144l-181 -48q-6 31 -31 51t-59 20q-42 0 -69 -28.5t-27 -73.5q0 -44 27.5 -72t70.5 -28q32 0 57.5 19.5t33.5 49.5l172 -71q-24 -75 -94.5 -122.5t-174.5 -47.5q-129 0 -207.5 74.5t-78.5 196.5q0 124 80 200z" />
    <glyph glyph-name="uni0442" unicode="&#x442;" horiz-adv-x="542" 
d="M18 522h506v-180h-152v-342h-202v342h-152v180z" />
    <glyph glyph-name="uni0443" unicode="&#x443;" horiz-adv-x="617" 
d="M197 523l116 -332l100 332h202l-158 -468q-18 -53 -33.5 -88.5t-40.5 -74.5t-55 -61.5t-74 -37.5t-100 -15q-66 0 -136 28v171q58 -29 115 -29q63 0 87 24l-226 551h203z" />
    <glyph glyph-name="uni0444" unicode="&#x444;" horiz-adv-x="902" 
d="M618 528q114 0 185.5 -73.5t71.5 -193.5q0 -119 -70 -192t-180 -73q-39 0 -78 11v-208h-193v208q-39 -11 -77 -11q-111 0 -181 73t-70 192t71.5 193t185.5 74q35 0 71 -9v186h193v-186q36 9 71 9zM210 259q0 -46 26 -75.5t65 -29.5q25 0 56 12v190q-27 8 -49 8
q-44 0 -71 -29t-27 -76zM601 154q39 0 64.5 29.5t25.5 75.5q0 47 -27 76t-70 29q-22 0 -49 -8v-190q31 -12 56 -12z" />
    <glyph glyph-name="uni0445" unicode="&#x445;" horiz-adv-x="589" 
d="M426 259l164 -259h-223l-74 135l-76 -135h-216l160 259l-159 263h223l68 -140l79 140h216z" />
    <glyph glyph-name="uni0446" unicode="&#x446;" horiz-adv-x="668" 
d="M552 522v-354h92v-291h-194v123h-402v522h202v-354h100v354h202z" />
    <glyph glyph-name="uni0447" unicode="&#x447;" horiz-adv-x="609" 
d="M359 330v192h202v-522h-202v168q-61 -14 -109 -14q-111 0 -166.5 59t-55.5 159v150h200v-125v-17t3.5 -18.5t10 -20.5t20.5 -12.5t35 -6.5q24 0 62 8z" />
    <glyph glyph-name="uni0448" unicode="&#x448;" horiz-adv-x="902" 
d="M854 0h-806v522h202v-354h100v354h202v-354h101v354h201v-522z" />
    <glyph glyph-name="uni0449" unicode="&#x449;" horiz-adv-x="970" 
d="M854 522v-354h92v-291h-194v123h-704v522h202v-354h100v354h202v-354h101v354h201z" />
    <glyph glyph-name="uni044A" unicode="&#x44a;" horiz-adv-x="688" 
d="M338 406h133q86 0 143.5 -57.5t57.5 -142.5q0 -91 -57 -148.5t-149 -57.5h-317v342h-131v180h320v-116zM338 148h88q24 0 40.5 17t16.5 42t-16.5 42t-42.5 17h-86v-118z" />
    <glyph glyph-name="uni044B" unicode="&#x44b;" horiz-adv-x="870" 
d="M48 0v522h189v-116h133q86 0 143.5 -57.5t57.5 -142.5q0 -91 -57 -148.5t-149 -57.5h-317zM822 522v-522h-200v522h200zM237 148h88q25 0 41 17t16 42t-17 42t-42 17h-86v-118z" />
    <glyph glyph-name="uni044C" unicode="&#x44c;" horiz-adv-x="587" 
d="M237 406h133q86 0 143.5 -57.5t57.5 -142.5q0 -91 -57 -148.5t-149 -57.5h-317v522h189v-116zM237 148h88q25 0 41 17t16 42t-17 42t-42 17h-86v-118z" />
    <glyph glyph-name="uni044D" unicode="&#x44d;" horiz-adv-x="554" 
d="M238 535q131 0 211.5 -74.5t80.5 -199.5t-82.5 -199t-221.5 -74q-127 0 -205 43l29 145q87 -34 164 -34q101 0 126 61h-213v116h212q-25 60 -121 60q-52 0 -153 -30l-43 141q105 45 216 45z" />
    <glyph glyph-name="uni044E" unicode="&#x44e;" horiz-adv-x="916" 
d="M248 522v-187h76q24 89 98.5 144t179.5 55q128 0 208.5 -78t80.5 -197t-81.5 -195t-207.5 -76q-99 0 -172 48.5t-101 130.5h-81v-167h-200v522h200zM502 261q0 -44 29.5 -73t71.5 -29q43 0 71 29t28 73q0 43 -28 72t-70 29q-43 0 -72.5 -29t-29.5 -72z" />
    <glyph glyph-name="uni044F" unicode="&#x44f;" horiz-adv-x="621" 
d="M573 526v-526h-197v122h-37l-91 -122h-236l130 148q-100 53 -100 170q0 93 61.5 150.5t161.5 57.5h308zM376 378h-78q-28 0 -46 -17t-18 -44t18 -43.5t46 -16.5h78v121z" />
    <glyph glyph-name="uni0451" unicode="&#x451;" horiz-adv-x="613" 
d="M105 458q78 76 207 76q124 0 200 -71t76 -186q0 -33 -3 -58h-376q7 -38 35 -59.5t66 -21.5q68 0 95 51l159 -60q-24 -65 -91 -103t-160 -38q-130 0 -208.5 75t-78.5 196q0 123 79 199zM328 670q0 43 30.5 73t74.5 30q43 0 73.5 -30t30.5 -73q0 -45 -30 -75
q-30 -31 -74 -31t-74.5 30.5t-30.5 75.5zM94 670q0 43 30 73t74 30q43 0 73.5 -30t30.5 -73q0 -45 -30 -75q-30 -31 -74 -31t-74 30.5t-30 75.5zM213 318h190q-8 32 -33 52q-25 19 -60 19t-61 -19t-36 -52z" />
    <glyph glyph-name="uni0452" unicode="&#x452;" horiz-adv-x="616" 
d="M48 650v59h199v-59h99v-91h-99v-63q53 37 125 37q90 0 145.5 -55t55.5 -144v-359q0 -89 -59.5 -142.5t-162.5 -53.5q-72 0 -134 22v169q47 -14 93 -14q64 0 64 70v267q0 32 -16.5 50t-43.5 18q-29 0 -48 -22t-19 -57v-282h-199v559h-59v91h59z" />
    <glyph glyph-name="uni0453" unicode="&#x453;" horiz-adv-x="478" 
d="M345 590h-191l46 175h219zM250 0h-202v522h413v-180h-211v-342z" />
    <glyph glyph-name="uni0454" unicode="&#x454;" horiz-adv-x="548" 
d="M505 176l29 -145q-78 -43 -204 -43q-140 0 -222 74t-82 199t80 199.5t212 74.5q110 0 215 -45l-43 -141q-101 30 -152 30q-96 0 -122 -60h212v-116h-213q25 -61 127 -61q76 0 163 34z" />
    <glyph glyph-name="uni0455" unicode="&#x455;" horiz-adv-x="562" 
d="M15 63l69 143q37 -26 94.5 -46.5t104.5 -20.5q55 0 55 25q0 11 -15.5 16.5t-58.5 12.5q-7 1 -11 1.5t-10 1.5l-12 2q-94 17 -138 54t-44 109q0 81 63 127t179 46q123 0 227 -44l-50 -147q-103 47 -186 47q-42 0 -42 -20q0 -4 2 -7.5t7.5 -6.5t11 -5t15.5 -4.5t18 -4
t21.5 -4t23.5 -4.5q104 -22 150.5 -56t46.5 -110q0 -82 -68 -130.5t-186 -48.5q-160 0 -267 74z" />
    <glyph glyph-name="uni0456" unicode="&#x456;" horiz-adv-x="296" 
d="M48 0v522h200v-522h-200zM34 676q0 48 33 81t81 33t81 -33t33 -81q0 -47 -33 -80t-81 -33t-81 33t-33 80z" />
    <glyph glyph-name="uni0457" unicode="&#x457;" horiz-adv-x="296" 
d="M248 522v-522h-200v522h200zM192 742q30 30 74 30q43 0 73.5 -30t30.5 -73q0 -44 -30.5 -75t-73.5 -31q-44 0 -74.5 31t-30.5 75q0 43 31 73zM-44 742q31 30 74 30q44 0 74.5 -30t30.5 -73q0 -44 -30.5 -75t-74.5 -31q-43 0 -73.5 31t-30.5 75q0 43 30 73z" />
    <glyph glyph-name="uni0458" unicode="&#x458;" horiz-adv-x="308" 
d="M-96 -199v169q47 -14 93 -14q64 0 64 70v496h199v-547q0 -89 -59 -142.5t-163 -53.5q-72 0 -134 22zM46 676q0 48 33.5 81t81.5 33t80.5 -33t32.5 -81q0 -47 -32 -80q-33 -33 -81 -33t-81.5 33t-33.5 80z" />
    <glyph glyph-name="uni0459" unicode="&#x459;" horiz-adv-x="957" 
d="M613 406h127q85 0 143 -57.5t58 -142.5q0 -91 -57.5 -148.5t-149.5 -57.5h-323v346h-85v-74v-8q0 -34 -1 -58t-12 -66.5t-32 -71.5q-57 -78 -182 -78q-58 0 -83 10v170q32 -4 42 -4q43 0 61 28q19 27 19 152v176h475v-116zM613 148h81q25 0 41.5 17t16.5 42t-17 42
t-42 17h-80v-118z" />
    <glyph glyph-name="uni045A" unicode="&#x45a;" horiz-adv-x="913" 
d="M569 406h127q85 0 143 -57.5t58 -142.5q0 -91 -57.5 -148.5t-149.5 -57.5h-323v167h-117v-167h-202v522h202v-187h117v187h202v-116zM569 148h81q25 0 41.5 17t16.5 42t-17 42t-42 17h-80v-118z" />
    <glyph glyph-name="uni045B" unicode="&#x45b;" horiz-adv-x="616" 
d="M48 650v59h199v-59h99v-90h-99v-64q53 37 125 37q90 0 145.5 -55t55.5 -144v-334h-199v293q0 32 -16.5 50t-43.5 18q-29 0 -48 -22t-19 -57v-282h-199v560h-59v90h59z" />
    <glyph glyph-name="uni045C" unicode="&#x45c;" horiz-adv-x="594" 
d="M48 0v522h199v-191l126 191h227l-175 -263l173 -259h-233l-115 179l-3 1v-180h-199zM264 765h219l-74 -175h-191z" />
    <glyph glyph-name="uni045E" unicode="&#x45e;" horiz-adv-x="617" 
d="M-6 523h203l116 -332l100 332h202l-158 -468q-18 -53 -33.5 -88.5t-40.5 -74.5t-55 -61.5t-74 -37.5t-100 -15q-66 0 -136 28v171q58 -29 115 -29q63 0 87 24zM98 760h147q1 -88 65 -88t64 88h148q-6 -89 -62 -139q-57 -51 -150 -51t-150 51t-62 139z" />
    <glyph glyph-name="uni045F" unicode="&#x45f;" horiz-adv-x="613" 
d="M363 522h202v-522h-162v-123h-193v123h-162v522h202v-354h113v354z" />
    <glyph glyph-name="uni0490" unicode="&#x490;" horiz-adv-x="520" 
d="M303 669v134h202v-311h-240v-492h-209v669h247z" />
    <glyph glyph-name="uni0491" unicode="&#x491;" horiz-adv-x="478" 
d="M269 522v118h192v-298h-211v-342h-202v522h221z" />
    <glyph glyph-name="Wgrave" unicode="&#x1e80;" horiz-adv-x="998" 
d="M223 669l77 -413l105 413h189l106 -407l76 407h217l-178 -669h-221l-95 377l-97 -377h-221l-174 669h216zM541 922l59 -196h-208l-78 196h227z" />
    <glyph glyph-name="wgrave" unicode="&#x1e81;" horiz-adv-x="861" 
d="M214 522l56 -269l76 269h168l78 -261l54 261h214l-152 -523h-195l-81 279l-81 -279h-197l-154 523h214zM259 766h219l47 -175h-191z" />
    <glyph glyph-name="Wacute" unicode="&#x1e82;" horiz-adv-x="998" 
d="M223 669l77 -413l105 413h189l106 -407l76 407h217l-178 -669h-221l-95 377l-97 -377h-221l-174 669h216zM392 726l59 196h227l-78 -196h-208z" />
    <glyph glyph-name="wacute" unicode="&#x1e83;" horiz-adv-x="861" 
d="M0 522h214l56 -269l76 269h168l78 -261l54 261h214l-152 -523h-195l-81 279l-81 -279h-197zM338 590l46 175h219l-74 -175h-191z" />
    <glyph glyph-name="Wdieresis" unicode="&#x1e84;" horiz-adv-x="998" 
d="M7 669h216l77 -413l105 413h189l106 -407l76 407h217l-178 -669h-221l-95 377l-97 -377h-221zM263 838q0 46 32 77.5t79 31.5q46 0 77.5 -31.5t31.5 -77.5q0 -47 -31.5 -79.5t-77.5 -32.5q-47 0 -79 32.5t-32 79.5zM511 838q0 46 32 77.5t78 31.5t77.5 -31.5t31.5 -77.5
q0 -47 -31 -79q-32 -33 -78 -33t-78 32.5t-32 79.5z" />
    <glyph glyph-name="wdieresis" unicode="&#x1e85;" horiz-adv-x="861" 
d="M214 522l56 -269l76 269h168l78 -261l54 261h214l-152 -523h-195l-81 279l-81 -279h-197l-154 523h214zM209 669q0 43 30 73t74 30t74.5 -30t30.5 -73q0 -44 -30 -75q-31 -31 -75 -31t-74 31t-30 75zM474 742q30 30 74 30q43 0 73.5 -30t30.5 -73q0 -44 -30.5 -75
t-73.5 -31q-44 0 -74.5 31t-30.5 75q0 43 31 73z" />
    <glyph glyph-name="Germandbls" unicode="&#x1e9e;" horiz-adv-x="687" 
d="M460 -11q-85 0 -141 28v167q48 -23 87 -23q31 0 46 13t15 32q0 20 -18.5 38.5t-40.5 31.5t-40.5 39.5t-18.5 59.5q0 77 90 112q-32 8 -61 8q-114 0 -114 -114v-381h-208v413q0 126 80 196.5t231 70.5q72 0 135.5 -16.5t145.5 -51.5l-70 -174q-23 -1 -41.5 -15t-18.5 -36
q0 -17 16 -33t39 -31.5t46.5 -34.5t39.5 -50t16 -70q0 -78 -57 -128.5t-158 -50.5z" />
    <glyph glyph-name="Ygrave" unicode="&#x1ef2;" horiz-adv-x="679" 
d="M235 669l103 -258l109 258h242l-247 -481v-188h-208v188l-240 481h241zM385 922l59 -196h-208l-78 196h227z" />
    <glyph glyph-name="ygrave" unicode="&#x1ef3;" horiz-adv-x="617" 
d="M197 523l116 -332l100 332h202l-158 -468q-18 -53 -33.5 -88.5t-40.5 -74.5t-55 -61.5t-74 -37.5t-100 -15q-66 0 -136 28v171q58 -29 115 -29q63 0 87 24l-226 551h203zM351 766l47 -174h-192l-74 174h219z" />
    <glyph glyph-name="uni2009" unicode="&#x2009;" horiz-adv-x="96" 
 />
    <glyph glyph-name="endash" unicode="&#x2013;" horiz-adv-x="642" 
d="M592 208h-542v168h542v-168z" />
    <glyph glyph-name="emdash" unicode="&#x2014;" horiz-adv-x="1014" 
d="M964 208h-914v168h914v-168z" />
    <glyph glyph-name="quoteleft" unicode="&#x2018;" horiz-adv-x="321" 
d="M141 702h158l-62 -295h-220z" />
    <glyph glyph-name="quoteright" unicode="&#x2019;" horiz-adv-x="315" 
d="M186 408h-158l62 294h220z" />
    <glyph glyph-name="quotesinglbase" unicode="&#x201a;" horiz-adv-x="315" 
d="M158 -157h-159l63 295h220z" />
    <glyph glyph-name="quotedblleft" unicode="&#x201c;" horiz-adv-x="589" 
d="M141 702h158l-62 -295h-220zM409 702h158l-62 -295h-220z" />
    <glyph glyph-name="quotedblright" unicode="&#x201d;" horiz-adv-x="583" 
d="M186 408h-158l62 294h220zM454 408h-158l62 294h220z" />
    <glyph glyph-name="quotedblbase" unicode="&#x201e;" horiz-adv-x="583" 
d="M158 -157h-159l63 295h220zM426 -157h-159l63 295h220z" />
    <glyph glyph-name="dagger" unicode="&#x2020;" horiz-adv-x="571" 
d="M372 586h170v-168h-170v-316h-173v316h-170v168h170v154h173v-154z" />
    <glyph glyph-name="daggerdbl" unicode="&#x2021;" horiz-adv-x="596" 
d="M554 576v-169h-169v-101h169v-168h-169v-176h-173v176h-170v168h170v101h-170v169h170v148h173v-148h169z" />
    <glyph glyph-name="bullet" unicode="&#x2022;" horiz-adv-x="458" 
d="M230 148q-75 0 -127.5 52t-52.5 128q0 75 52.5 127t127.5 52t126.5 -52t51.5 -127q0 -76 -51.5 -128t-126.5 -52z" />
    <glyph glyph-name="ellipsis" unicode="&#x2026;" horiz-adv-x="808" 
d="M141 -13q-47 0 -79 32t-32 79t32 78.5t79 31.5t79 -32t32 -78t-32 -78.5t-79 -32.5zM404 -13q-46 0 -78.5 32.5t-32.5 78.5t32 78t79 32t79 -32t32 -78t-32.5 -78.5t-78.5 -32.5zM667 -13q-47 0 -79 32.5t-32 78.5t32 78t79 32t79 -31.5t32 -78.5t-32 -79t-79 -32z" />
    <glyph glyph-name="perthousand" unicode="&#x2030;" horiz-adv-x="1195" 
d="M194 338q-73 0 -120.5 48.5t-47.5 123.5q0 74 47.5 122t120.5 48q74 0 121.5 -48t47.5 -122q0 -75 -47.5 -123.5t-121.5 -48.5zM232 0h-154l502 669h153zM195 450q22 0 34.5 16.5t12.5 43.5t-12.5 43.5t-34.5 16.5t-35 -16.5t-13 -43.5t13 -43.5t35 -16.5zM627 -11
q-74 0 -121 48t-47 123q0 74 47.5 122t120.5 48q74 0 121.5 -48t47.5 -122q0 -75 -47.5 -123t-121.5 -48zM1003 -11q-74 0 -121 48t-47 123q0 74 47.5 122t120.5 48q74 0 121.5 -48t47.5 -122q0 -75 -47.5 -123t-121.5 -48zM628 100q22 0 34.5 16.5t12.5 44.5q0 27 -12.5 43
t-34.5 16t-35 -16t-13 -43q0 -28 13 -44.5t35 -16.5zM1004 100q22 0 34.5 16.5t12.5 44.5q0 27 -12.5 43t-34.5 16t-35 -16t-13 -43q0 -28 13 -44.5t35 -16.5z" />
    <glyph glyph-name="guilsinglleft" unicode="&#x2039;" horiz-adv-x="380" 
d="M349 27h-219l-106 223l114 223h219l-116 -223z" />
    <glyph glyph-name="guilsinglright" unicode="&#x203a;" horiz-adv-x="380" 
d="M356 250l-106 -223h-219l108 223l-116 223h219z" />
    <glyph glyph-name="fraction" unicode="&#x2044;" horiz-adv-x="192" 
d="M-68 0h-147l481 669h142z" />
    <glyph glyph-name="uni2070" unicode="&#x2070;" horiz-adv-x="422" 
d="M210 438q-79 0 -133.5 53t-54.5 131q0 79 54.5 132.5t133.5 53.5q80 0 134.5 -53.5t54.5 -132.5t-54.5 -131.5t-134.5 -52.5zM210 543q34 0 56.5 23t22.5 57t-22.5 56.5t-56.5 22.5q-33 0 -55 -22.5t-22 -56.5t22 -57t55 -23z" />
    <glyph glyph-name="uni2074" unicode="&#x2074;" horiz-adv-x="385" 
d="M321 590h45v-83h-45v-64h-112v64h-194v70l136 221h170v-208zM209 718l-75 -128h75v128z" />
    <glyph glyph-name="uni2075" unicode="&#x2075;" horiz-adv-x="358" 
d="M201 681q63 0 100.5 -32.5t37.5 -83.5q0 -55 -44 -91t-117 -36q-63 0 -107 27t-57 79l102 24q4 -16 20.5 -28t36.5 -12q22 0 37 12t15 30t-15 29t-36 11q-37 0 -51 -24l-92 44l32 174h256v-91h-172l-10 -44q27 12 64 12z" />
    <glyph glyph-name="uni2076" unicode="&#x2076;" horiz-adv-x="360" 
d="M218 691q55 0 91.5 -33.5t36.5 -83.5q0 -61 -45.5 -98.5t-116.5 -37.5t-117.5 38t-46.5 100q0 63 58 130l85 98h131l-100 -115q14 2 24 2zM182 528q22 0 36.5 12t14.5 30t-14.5 30.5t-36.5 12.5q-21 0 -35 -12.5t-14 -30.5t14 -30t35 -12z" />
    <glyph glyph-name="uni2077" unicode="&#x2077;" horiz-adv-x="315" 
d="M19 707v97h279v-82l-136 -279h-128l137 264h-152z" />
    <glyph glyph-name="uni2078" unicode="&#x2078;" horiz-adv-x="375" 
d="M291 638q63 -27 63 -88q0 -49 -46 -80.5t-120 -31.5q-75 0 -120.5 32t-45.5 82q0 59 62 86q-45 24 -45 68t42 73.5t105 29.5q65 0 106.5 -29t41.5 -74q0 -44 -43 -68zM188 728q-20 0 -33.5 -10t-13.5 -24q0 -15 13.5 -25t32.5 -10q20 0 33.5 10t13.5 25q0 14 -13.5 24
t-32.5 10zM187 519q22 0 37 11.5t15 27.5q0 17 -14.5 28.5t-36.5 11.5t-37.5 -11.5t-15.5 -28.5q0 -16 15 -27.5t37 -11.5z" />
    <glyph glyph-name="uni2079" unicode="&#x2079;" horiz-adv-x="356" 
d="M174 809q72 0 118 -39t46 -100q0 -10 -1 -18.5t-4 -18.5t-5 -16t-8.5 -17t-9.5 -15.5t-12 -17.5t-12 -16.5t-15.5 -19t-15.5 -19.5l-54 -69h-135l91 115q-5 -1 -15 -1q-56 0 -92 33t-36 84q0 58 45 96.5t115 38.5zM126 676q0 -18 13.5 -30t35.5 -12t36 12t14 30
q0 19 -14 30.5t-36 11.5t-35.5 -11.5t-13.5 -30.5z" />
    <glyph glyph-name="uni2080" unicode="&#x2080;" horiz-adv-x="422" 
d="M210 -161q-79 0 -133.5 53t-54.5 132t54.5 132.5t133.5 53.5q80 0 134.5 -53.5t54.5 -132.5t-54.5 -132t-134.5 -53zM210 -55q34 0 56.5 23t22.5 57t-22.5 56.5t-56.5 22.5q-33 0 -55 -22.5t-22 -56.5t22 -57t55 -23z" />
    <glyph glyph-name="uni2081" unicode="&#x2081;" horiz-adv-x="365" 
d="M250 206v-265h100v-96h-321v96h107v147l-104 -26v104l141 40h77z" />
    <glyph glyph-name="uni2082" unicode="&#x2082;" horiz-adv-x="366" 
d="M269 -26l-53 -36h122v-93h-310v77l138 99q3 2 12.5 9t12.5 9t9.5 8t8.5 10t4.5 10t2.5 13q0 15 -10 24.5t-27 9.5q-21 0 -33.5 -15.5t-14.5 -37.5l-110 14q2 61 47 98t114 37q71 0 112 -34.5t41 -90.5q0 -66 -66 -111z" />
    <glyph glyph-name="uni2083" unicode="&#x2083;" horiz-adv-x="375" 
d="M332 115l-76 -45q42 -6 69.5 -32.5t27.5 -69.5q0 -57 -48 -92.5t-127 -35.5q-68 0 -112 27t-51 76l99 33q5 -20 22.5 -33t41.5 -13q23 0 39 12.5t16 31.5t-15.5 30.5t-39.5 11.5q-22 0 -48 -12l-38 56l94 52h-151v94h297v-91z" />
    <glyph glyph-name="uni2084" unicode="&#x2084;" horiz-adv-x="385" 
d="M321 -9h45v-82h-45v-64h-112v64h-194v69l136 221h170v-208zM209 120l-75 -129h75v129z" />
    <glyph glyph-name="uni2085" unicode="&#x2085;" horiz-adv-x="358" 
d="M202 82q62 0 99.5 -32t37.5 -83q0 -55 -44 -91.5t-117 -36.5q-63 0 -107 27t-57 80l102 24q4 -16 20.5 -28t36.5 -12q22 0 37 11.5t15 29.5t-15 29t-36 11q-38 0 -51 -23l-92 43l32 175h256v-92h-172l-10 -44q27 12 65 12z" />
    <glyph glyph-name="uni2086" unicode="&#x2086;" horiz-adv-x="360" 
d="M218 93q55 0 91.5 -34t36.5 -84q0 -60 -46 -98t-116 -38q-71 0 -117.5 38.5t-46.5 100.5q0 63 58 130l85 98h131l-100 -115q14 2 24 2zM182 -70q22 0 36.5 12t14.5 30t-14.5 30t-36.5 12q-21 0 -35 -12t-14 -30t14 -30t35 -12z" />
    <glyph glyph-name="uni2087" unicode="&#x2087;" horiz-adv-x="315" 
d="M19 109v97h279v-83l-136 -278h-128l137 264h-152z" />
    <glyph glyph-name="uni2088" unicode="&#x2088;" horiz-adv-x="375" 
d="M291 39q30 -12 46.5 -35.5t16.5 -51.5q0 -49 -46 -81t-120 -32q-75 0 -120.5 32.5t-45.5 82.5q0 60 62 85q-45 24 -45 69q0 44 42 73t105 29q65 0 106.5 -29t41.5 -73t-43 -69zM188 130q-20 0 -33.5 -10.5t-13.5 -24.5q0 -15 13.5 -24.5t32.5 -9.5q20 0 33.5 9.5
t13.5 24.5q0 14 -13.5 24.5t-32.5 10.5zM187 -79q22 0 37 11.5t15 27.5q0 17 -14.5 28t-36.5 11t-37.5 -11.5t-15.5 -27.5t15 -27.5t37 -11.5z" />
    <glyph glyph-name="uni2089" unicode="&#x2089;" horiz-adv-x="356" 
d="M174 210q72 0 118 -39t46 -100q0 -15 -3.5 -29t-6.5 -23.5t-14 -26t-15.5 -22.5t-21.5 -27.5t-22 -28.5l-54 -69h-135l90 114q-5 -1 -14 -1q-56 0 -92 33.5t-36 84.5q0 58 44.5 96t115.5 38zM126 78q0 -18 13.5 -30t35.5 -12t36 12t14 30t-14 30t-36 12t-35.5 -12
t-13.5 -30z" />
    <glyph glyph-name="Euro" unicode="&#x20ac;" horiz-adv-x="691" 
d="M477 153q95 0 173 30v-161q-31 -15 -88 -25.5t-112 -10.5q-134 0 -225.5 67.5t-120.5 180.5h-77v75h66q-1 8 -1 23t1 22h-66v76h77q29 115 120 183.5t218 68.5q57 0 110 -13.5t84 -35.5v-163q-33 21 -81.5 33.5t-90.5 12.5q-110 0 -161 -86h242v-76h-267q-1 -8 -1 -24
q0 -14 1 -21h267v-75h-242q50 -81 174 -81z" />
    <glyph glyph-name="uni20B4" unicode="&#x20b4;" horiz-adv-x="682" 
d="M650 447v-82h-123q-27 -23 -69 -45h192v-82h-340q-16 -17 -16 -36t19 -29.5t51 -10.5q48 0 116.5 8.5t105.5 19.5l10 -160q-107 -41 -236 -41q-263 0 -263 188q0 34 9 61h-79v82h134q24 22 67 45h-201v82h368q7 12 7 27q0 43 -78 43q-86 0 -176 -30l-14 155
q103 38 196 38q265 0 265 -186q0 -24 -6 -47h61z" />
    <glyph glyph-name="uni20BD" unicode="&#x20bd;" horiz-adv-x="712" 
d="M451 223h-131v-47h178v-104h-178v-72h-207v72h-72v104h72v47h-72v123h72v323h341q100 0 164.5 -63t64.5 -160q0 -99 -63.5 -161t-168.5 -62zM404 502h-84v-156h82q35 0 57.5 22t22.5 56t-22 56t-56 22z" />
    <glyph glyph-name="uni20BF" unicode="&#x20bf;" horiz-adv-x="687" 
d="M61 669h116v116h117v-116h60v116h116v-120q79 -12 120 -59.5t41 -115.5q0 -93 -77 -128q48 -16 76 -56t28 -100q0 -83 -46.5 -134.5t-139.5 -66.5v-119h-117v114h-60v-114h-117v114h-117v669zM266 272v-108h124q28 0 44.5 15.5t16.5 39.5q0 23 -16 38t-41 15h-128z
M374 404q27 0 43.5 12.5t16.5 37.5q0 24 -15.5 38t-39.5 14h-113v-102h108z" />
    <glyph glyph-name="uni2116" unicode="&#x2116;" horiz-adv-x="1225" 
d="M255 669l240 -350v350h197v-669h-191l-243 345v-345h-197v669h194zM838 614q58 57 148 57t149 -58t59 -147q0 -87 -59 -144t-149 -57t-148.5 57t-58.5 145q0 89 59 147zM1168 218v-113h-364v113h364zM924 404q25 -26 62 -26q38 0 63 26t25 64t-25 64t-63 26
q-37 0 -62.5 -26t-25.5 -64t26 -64z" />
    <glyph glyph-name="trademark" unicode="&#x2122;" horiz-adv-x="740" 
d="M110 571h-82v98h268v-98h-84v-201h-102v201zM507 535l75 134h102v-299h-94v130l-48 -75h-68l-48 78v-133h-98v299h107z" />
    <glyph glyph-name="estimated" unicode="&#x212e;" horiz-adv-x="857" 
d="M434 -14q-170 0 -283.5 99t-113.5 248q0 148 115 248t282 100q165 0 281 -98.5t116 -254.5v-23h-627v-208q36 -29 101.5 -49t128.5 -20q86 0 165.5 30t131.5 84l30 -28q-61 -61 -148.5 -94.5t-178.5 -33.5zM204 570v-220h460v220q-90 70 -230 70q-135 0 -230 -70z" />
    <glyph glyph-name="arrowleft" unicode="&#x2190;" horiz-adv-x="783" 
d="M421 408h323v-184h-323l37 -37q32 -32 32 -77q0 -44 -32 -76.5t-78 -32.5t-78 32l-283 283l284 283q32 32 81 32q45 0 76 -33.5t31 -77.5q0 -42 -33 -75z" />
    <glyph glyph-name="arrowup" unicode="&#x2191;" horiz-adv-x="675" 
d="M338 684l283 -283q32 -32 32 -78t-32.5 -77.5t-77.5 -31.5t-77 32l-36 36v-323h-184v324l-37 -37q-34 -34 -75 -34q-44 0 -78 31.5t-34 76.5q0 48 32 80z" />
    <glyph glyph-name="arrowright" unicode="&#x2192;" horiz-adv-x="783" 
d="M480 599l284 -283l-283 -283q-32 -32 -78 -32t-77.5 32.5t-31.5 76.5q0 45 32 77l37 37h-324v184h324l-37 37q-34 34 -34 75q0 44 31 77.5t76 33.5q49 0 81 -32z" />
    <glyph glyph-name="arrowdown" unicode="&#x2193;" horiz-adv-x="675" 
d="M543 416q45 0 77.5 -31.5t32.5 -78.5q0 -45 -32 -77l-283 -283l-284 284q-32 32 -32 79q0 45 34 77t78 32q41 0 75 -34l37 -37v323h184v-322l36 36q32 32 77 32z" />
    <glyph glyph-name="arrowboth" unicode="&#x2194;" horiz-adv-x="1234" 
d="M931 599l284 -283l-283 -283q-32 -32 -78 -32t-77.5 32.5t-31.5 76.5q0 45 32 77l37 37h-393l37 -37q32 -32 32 -77q0 -44 -32 -76.5t-78 -32.5t-78 32l-283 283l284 283q32 32 81 32q45 0 76 -33.5t31 -77.5q0 -42 -33 -75l-37 -37h393l-37 37q-34 34 -34 75
q0 44 31.5 77.5t76.5 33.5q48 0 80 -32z" />
    <glyph glyph-name="arrowupdn" unicode="&#x2195;" horiz-adv-x="681" 
d="M546 218q45 0 77.5 -31.5t32.5 -78.5q0 -45 -32 -77l-283 -283l-283 284q-32 32 -32 80q0 45 33.5 76.5t77.5 31.5q41 0 75 -34l37 -37v260l-38 -38q-33 -33 -75 -33q-44 0 -77.5 31t-33.5 76q0 49 32 81l283 284l283 -284q32 -32 32 -77q0 -46 -32.5 -78t-76.5 -32
q-45 0 -77 32l-37 37v-260l38 38q32 32 76 32z" />
    <glyph glyph-name="uni2196" unicode="&#x2196;" horiz-adv-x="708" 
d="M408 410l280 -279l-130 -129l-280 279v-53q0 -46 -29 -78q-30 -32 -78 -32q-47 0 -79 32q-33 33 -33 78v402h400q44 0 78 -32q32 -32 32 -77t-32 -79q-32 -32 -77 -32h-52z" />
    <glyph glyph-name="uni2197" unicode="&#x2197;" horiz-adv-x="706" 
d="M246 629h402v-400q0 -46 -32 -78t-77 -32q-46 0 -78 32q-32 30 -32 77v52l-279 -280l-130 130l279 280h-53q-46 0 -77 29q-32 30 -32 78q0 47 32 79q31 33 77 33z" />
    <glyph glyph-name="uni2198" unicode="&#x2198;" horiz-adv-x="706" 
d="M617 478q32 -30 32 -77v-400h-402q-45 0 -77 33q-32 32 -32 79t32 77q29 29 77 29h53l-279 280l129 131l280 -281v53q0 46 32 76q32 32 78 32q45 0 77 -32z" />
    <glyph glyph-name="uni2199" unicode="&#x2199;" horiz-adv-x="706" 
d="M536 190q32 -30 32 -77t-32 -79q-33 -33 -78 -33h-401v400q0 47 32 77q32 32 77 32q46 0 78 -32q32 -30 32 -76v-52l279 280l130 -131l-279 -280h52q49 0 78 -29z" />
    <glyph glyph-name="partialdiff" unicode="&#x2202;" horiz-adv-x="638" 
d="M81 522l80 172q103 2 182.5 -18.5t127.5 -54.5t78.5 -82.5t42 -97.5t11.5 -105q0 -158 -87 -252.5t-230 -94.5q-117 0 -188 61.5t-71 159.5q0 103 77.5 169.5t197.5 66.5q45 0 92 -10q-21 47 -94 67.5t-219 18.5zM294 162q40 0 69 31.5t38 79.5q-35 8 -66 8
q-49 0 -73.5 -18.5t-24.5 -47.5q0 -24 16 -38.5t41 -14.5z" />
    <glyph glyph-name="product" unicode="&#x220f;" horiz-adv-x="762" 
d="M330 -167h-208v651h-91v185h699v-185h-91v-651h-207v651h-102v-651z" />
    <glyph glyph-name="summation" unicode="&#x2211;" horiz-adv-x="630" 
d="M591 -167h-545v173l163 244l-163 244v175h545v-185h-306l153 -234l-153 -232h306v-185z" />
    <glyph glyph-name="minus" unicode="&#x2212;" horiz-adv-x="533" 
d="M478 239h-424v168h424v-168z" />
    <glyph glyph-name="radical" unicode="&#x221a;" horiz-adv-x="690" 
d="M454 669h224v-185h-90l-212 -651h-181l-199 562h202l87 -295z" />
    <glyph glyph-name="infinity" unicode="&#x221e;" horiz-adv-x="777" 
d="M560 477q76 0 130 -54t54 -131q0 -76 -54 -129.5t-130 -53.5q-21 0 -41 5t-32.5 9.5t-31 18.5t-23.5 18.5t-24 23.5l-20 20q-49 -52 -73 -67q-43 -28 -99 -28q-76 0 -129.5 53.5t-53.5 129.5q0 77 53.5 131t129.5 54q22 0 42 -5t33 -10t30.5 -19t23 -18.5t23.5 -23
t20 -20.5q3 3 18 18.5t20.5 20t19.5 17t24 17t25 11.5t31 9.5t34 2.5zM216 234q8 0 15.5 2t12.5 4.5t13 9t12 10.5t14.5 15t16.5 17q-6 6 -17 18t-15 16t-12 11t-13 9t-12 4t-15 2q-24 0 -41 -17.5t-17 -42.5q0 -24 17 -41t41 -17zM560 234q25 0 42 17t17 41q0 25 -17 42.5
t-42 17.5q-6 0 -11 -1t-9 -2.5t-9.5 -5t-9 -6t-9.5 -9t-9.5 -10t-12 -13t-13.5 -14.5l13.5 -13.5l12.5 -12.5t10 -9.5t10 -8.5t8.5 -5.5t9 -4.5t8.5 -2t11 -1z" />
    <glyph glyph-name="integral" unicode="&#x222b;" horiz-adv-x="571" 
d="M133 -181q-66 0 -128 19l3 174q43 -14 82 -14q42 0 61 22.5t23 65.5l40 396q23 228 224 228q63 0 128 -19l-3 -173q-45 13 -82 13q-39 0 -59 -21t-25 -66l-40 -398q-23 -227 -224 -227z" />
    <glyph glyph-name="approxequal" unicode="&#x2248;" horiz-adv-x="583" 
d="M375 346q-35 0 -62.5 15.5t-48 31t-38.5 15.5t-25.5 -12t-9.5 -46h-145q3 100 51 150t112 50q37 0 64.5 -15t46.5 -30t35 -15q19 0 29.5 12.5t13.5 43.5h144q-3 -91 -48.5 -145.5t-118.5 -54.5zM375 114q-35 0 -62.5 15t-48 30.5t-38.5 15.5t-25.5 -12t-9.5 -46h-145
q3 101 51 150.5t112 49.5q37 0 64.5 -15t46.5 -30t35 -15q19 0 29.5 12.5t13.5 43.5h144q-3 -91 -48.5 -145t-118.5 -54z" />
    <glyph glyph-name="notequal" unicode="&#x2260;" horiz-adv-x="532" 
d="M470 507v-163h-138l-23 -54h161v-164h-231l-46 -109h-98l46 109h-80v164h150l23 54h-173v163h242l47 112h98l-47 -112h69z" />
    <glyph glyph-name="lessequal" unicode="&#x2264;" horiz-adv-x="545" 
d="M487 369v-184l-438 140v177l438 137v-184l-264 -41zM487 166v-166h-440v166h440z" />
    <glyph glyph-name="greaterequal" unicode="&#x2265;" horiz-adv-x="545" 
d="M496 325l-438 -140v184l264 45l-264 41v184l438 -137v-177zM498 0h-440v166h440v-166z" />
    <glyph glyph-name="lozenge" unicode="&#x25ca;" horiz-adv-x="690" 
d="M446 0h-203l-218 335l218 334h203l219 -335zM250 335l95 -166l95 165l-95 167z" />
    <glyph glyph-name="uni2619" unicode="&#x2619;" horiz-adv-x="970" 
d="M744 410q86 -11 142 -65t56 -128q0 -67 -43.5 -102t-100.5 -35q-59 0 -95.5 30.5t-36.5 72.5q0 25 13 40.5t33 15.5q24 0 46 -25q-8 -17 -8 -36q0 -26 17.5 -42t39.5 -16q25 0 46 16.5t27 49.5q-57 7 -107 60t-75 120q-105 -6 -222 -55h10q37 0 63 -28t26 -65
q0 -48 -46.5 -82.5t-142.5 -34.5q-142 0 -251.5 72t-109.5 158q0 28 13 45.5t31 17.5q33 0 50 -45q-36 -18 -36 -55q0 -23 16.5 -41.5t41.5 -18.5q40 0 63 52q7 16 15.5 44t15 52t18 51t25.5 46.5t36 32t49 12.5q45 0 72 -29.5t27 -73.5q0 -72 -73 -134q1 -2 3.5 -5t2.5 -4
q150 122 286 133q-61 177 -113 183h-4q-22 0 -22 -20q0 -8 9 -23t9 -27q0 -17 -11.5 -28t-31.5 -11q-22 0 -36.5 13t-14.5 38q0 36 32 61.5t80 25.5q37 0 63 -14t43.5 -44t28 -57.5t24.5 -73.5q5 -16 7 -24zM760 361q39 -114 123 -148v1q0 55 -33.5 94.5t-89.5 52.5z" />
    <glyph glyph-name="uni2764" unicode="&#x2764;" horiz-adv-x="746" 
d="M373 54q-44 44 -100 86.5t-95 69.5t-75 56.5t-54.5 64t-18.5 76.5q0 72 47 119.5t113 47.5q64 0 111 -49.5t65 -145.5h13q20 95 67.5 145t108.5 50q66 0 113 -47.5t47 -119.5q0 -42 -18.5 -76.5t-54.5 -64t-75.5 -56.5t-94.5 -69.5t-99 -86.5z" />
    <glyph glyph-name="uni2766" unicode="&#x2766;" horiz-adv-x="600" 
d="M452 477q-43 0 -90 18q-3 -33 -13 -75q35 24 75 24q44 0 73 -28.5t29 -72.5q0 -30 -18.5 -56.5t-45 -46.5t-53 -38t-45 -38t-18.5 -40q0 -17 12 -27.5t30 -10.5q22 0 37 16t14 48q21 7 37 7q42 0 42 -35q0 -30 -35.5 -57t-96.5 -27q-73 0 -153.5 38t-138 106.5
t-57.5 143.5q0 50 31.5 83t79.5 33q52 0 85 -36t33 -92q0 -12 -1 -19l13 -1q3 26 10 44q37 116 37 162v11q-1 0 -18 9.5t-22 12l-21 10.5t-25 11t-23 7.5t-26 6.5t-23 2q-37 0 -37 -22q0 -24 36 -24q-5 -29 -22.5 -42t-38.5 -13q-24 0 -44 15.5t-20 44.5t23 49.5t67 25.5
q-9 14 -9 29q0 29 28.5 52t73.5 23q66 0 101 -51t38 -123q55 -25 86 -25q20 0 29.5 8t9.5 17q0 8 -11 13.5t-22.5 15t-11.5 27.5q0 22 15.5 36t41.5 14q30 0 50 -20t20 -50q0 -40 -33.5 -66.5t-84.5 -26.5zM220 599v-1q30 -8 99 -42q-10 46 -34 76.5t-61 30.5q-39 0 -39 -29
q0 -28 35 -35z" />
    <glyph glyph-name="uni2767" unicode="&#x2767;" horiz-adv-x="969" 
d="M900 394q18 0 31 -17.5t13 -45.5q0 -86 -109.5 -158t-251.5 -72q-96 0 -142.5 34.5t-46.5 82.5q0 37 25.5 65t62.5 28q7 0 11 -1q-116 50 -222 56q-25 -67 -75 -119.5t-107 -60.5q6 -33 27 -49.5t46 -16.5q22 0 39.5 16t17.5 42q0 19 -8 36q22 25 46 25q19 0 32 -16
t13 -40q0 -42 -36 -72.5t-96 -30.5q-57 0 -100.5 35t-43.5 102q0 74 56.5 128t142.5 65q2 7 9.5 32.5t10 33t10 29t11.5 29t12.5 24t15.5 23t18 17t22 14.5t25.5 7.5t30.5 3.5q48 0 80.5 -25.5t32.5 -61.5q0 -25 -15 -38t-36 -13q-20 0 -31.5 11t-11.5 28q0 12 8.5 27
t8.5 23q0 20 -21 20q-18 0 -36 -17t-33.5 -49t-25 -56.5t-22.5 -60.5q136 -11 286 -133l6 9q-74 63 -74 134q0 44 27.5 73.5t72.5 29.5q27 0 49 -12.5t36 -32t25.5 -46.5t18 -51t15 -52t15.5 -44q23 -52 63 -52q25 0 41.5 18.5t16.5 41.5q0 37 -36 55q17 45 50 45zM86 213
q83 33 123 148q-56 -13 -89.5 -52.5t-33.5 -94.5v-1z" />
    <glyph glyph-name="NULL.1" horiz-adv-x="0" 
 />
    <glyph glyph-name="J_acutecomb" horiz-adv-x="502" 
d="M143 182q61 0 80 26.5t19 71.5v389h209v-427q0 -124 -72 -188.5t-197 -64.5q-87 0 -164 24v184q66 -15 125 -15zM306 922h227l-79 -196h-208z" />
    <glyph glyph-name="Iacute_J.loclNLD" horiz-adv-x="813" 
d="M329 197q66 -15 125 -15q61 0 80 26.5t19 71.5v389h209v-427q0 -124 -72 -188.5t-197 -64.5q-87 0 -164 24v184zM56 669h209v-669h-209v669zM554 726l60 196h227l-79 -196h-208zM119 922h227l-78 -196h-208z" />
    <glyph glyph-name="G.ss01" horiz-adv-x="753" 
d="M130 585q102 96 259 96q182 0 289 -117l-156 -133q-48 60 -132 60q-71 0 -112 -45.5t-41 -113.5t42.5 -111.5t120.5 -43.5q64 0 117 36v45h-139v146h338v-283q-51 -59 -139.5 -96t-188.5 -37q-161 0 -260.5 97t-99.5 249q0 154 102 251z" />
    <glyph glyph-name="Gbreve.ss01" horiz-adv-x="753" 
d="M28 334q0 154 102 250.5t259 96.5q182 0 289 -117l-156 -133q-48 60 -132 60q-71 0 -112 -45.5t-41 -113.5t42.5 -111.5t120.5 -43.5q64 0 117 36v45h-139v146h338v-283q-51 -59 -139.5 -96t-188.5 -37q-161 0 -260.5 97t-99.5 249zM153 929h163v-3q0 -30 20 -50.5
t52 -20.5t52 20.5t20 50.5v3h163q-2 -97 -65 -149q-64 -53 -170 -53t-169.5 52.5t-65.5 149.5z" />
    <glyph glyph-name="Gcircumflex.ss01" horiz-adv-x="753" 
d="M130 585q102 96 259 96q182 0 289 -117l-156 -133q-48 60 -132 60q-71 0 -112 -45.5t-41 -113.5t42.5 -111.5t120.5 -43.5q64 0 117 36v45h-139v146h338v-283q-51 -59 -139.5 -96t-188.5 -37q-161 0 -260.5 97t-99.5 249q0 154 102 251zM142 726l142 205h210l140 -205
h-194l-51 88l-52 -88h-195z" />
    <glyph glyph-name="uni0122.ss01" horiz-adv-x="753" 
d="M130 585q102 96 259 96q182 0 289 -117l-156 -133q-48 60 -132 60q-71 0 -112 -45.5t-41 -113.5t42.5 -111.5t120.5 -43.5q64 0 117 36v45h-139v146h338v-283q-51 -59 -139.5 -96t-188.5 -37q-161 0 -260.5 97t-99.5 249q0 154 102 251zM269 -43h213l-48 -195h-197z" />
    <glyph glyph-name="Gdotaccent.ss01" horiz-adv-x="753" 
d="M28 334q0 154 102 250.5t259 96.5q182 0 289 -117l-156 -133q-48 60 -132 60q-71 0 -112 -45.5t-41 -113.5t42.5 -111.5t120.5 -43.5q64 0 117 36v45h-139v146h338v-283q-51 -59 -139.5 -96t-188.5 -37q-161 0 -260.5 97t-99.5 249zM315 901q31 31 75 31t75 -31t31 -75
t-31 -74t-75 -30t-75 30t-31 74t31 75z" />
    <glyph glyph-name="E.ss07" horiz-adv-x="614" 
d="M50 669h513v-178h-513v178zM50 0v178h513v-178h-513zM563 418v-167h-513v167h513z" />
    <glyph glyph-name="Eacute.ss07" horiz-adv-x="614" 
d="M50 178h513v-178h-513v178zM50 669h513v-178h-513v178zM50 418h513v-167h-513v167zM261 922h227l-78 -196h-208z" />
    <glyph glyph-name="Ebreve.ss07" horiz-adv-x="614" 
d="M563 669v-178h-513v178h513zM50 178h513v-178h-513v178zM50 418h513v-167h-513v167zM70 929h164v-3q0 -30 19.5 -50.5t52.5 -20.5q32 0 52 21t20 53h163q-2 -97 -66 -149.5t-169 -52.5q-106 0 -169.5 52.5t-66.5 149.5z" />
    <glyph glyph-name="Ecaron.ss07" horiz-adv-x="614" 
d="M50 491v178h513v-178h-513zM50 178h513v-178h-513v178zM50 418h513v-167h-513v167zM61 931h194l52 -88l51 88h195l-141 -205h-210z" />
    <glyph glyph-name="Ecircumflex.ss07" horiz-adv-x="614" 
d="M50 491v178h513v-178h-513zM50 178h513v-178h-513v178zM50 251v167h513v-167h-513zM60 726l142 205h209l141 -205h-194l-52 88l-52 -88h-194z" />
    <glyph glyph-name="Edieresis.ss07" horiz-adv-x="614" 
d="M50 178h513v-178h-513v178zM563 669v-178h-513v178h513zM563 418v-167h-513v167h513zM73 838q0 46 32 77.5t78 31.5t78 -31.5t32 -77.5q0 -47 -32 -79q-32 -33 -78 -33t-78 32.5t-32 79.5zM353 916q31 31 77 31t78 -31.5t32 -77.5q0 -47 -32 -79q-32 -33 -78 -33
t-77.5 32.5t-31.5 79.5q0 46 32 78z" />
    <glyph glyph-name="Edotaccent.ss07" horiz-adv-x="614" 
d="M50 669h513v-178h-513v178zM50 178h513v-178h-513v178zM50 418h513v-167h-513v167zM201 826q0 44 31 75t75 31q45 0 76 -31t31 -75t-31 -74t-76 -30q-44 0 -75 30t-31 74z" />
    <glyph glyph-name="Egrave.ss07" horiz-adv-x="614" 
d="M50 178h513v-178h-513v178zM50 669h513v-178h-513v178zM50 418h513v-167h-513v167zM123 922h227l60 -196h-208z" />
    <glyph glyph-name="Emacron.ss07" horiz-adv-x="614" 
d="M50 178h513v-178h-513v178zM50 669h513v-178h-513v178zM50 418h513v-167h-513v167zM105 894h405v-146h-405v146z" />
    <glyph glyph-name="Eogonek.ss07" horiz-adv-x="612" 
d="M50 178h513v-178q-48 -16 -71.5 -30t-23.5 -34q0 -26 33 -26q17 0 61 11v-127q-44 -22 -106 -22q-66 0 -103 31.5t-37 82.5q0 28 19.5 60t58.5 54h-344v178zM563 669v-178h-513v178h513zM50 418h513v-167h-513v167z" />
    <glyph glyph-name="Q.ss08" horiz-adv-x="764" 
d="M128 583q100 98 253 98q154 0 254 -98.5t100 -248.5q0 -88 -36.5 -160.5t-101.5 -118.5l138 -107l-149 -153l-236 194q-141 11 -231.5 107t-90.5 238q0 150 100 249zM273 223q43 -45 108 -45t109 45t44 111t-44 111t-109 45t-108.5 -45t-43.5 -111t44 -111z" />
    <glyph glyph-name="Y.ss12" horiz-adv-x="670" 
d="M-2 669h214l130 -284l126 284h208l-302 -669h-219l88 179z" />
    <glyph glyph-name="Yacute.ss12" horiz-adv-x="670" 
d="M212 669l130 -284l126 284h208l-302 -669h-219l88 179l-245 490h214zM236 726l59 196h227l-78 -196h-208z" />
    <glyph glyph-name="Ycircumflex.ss12" horiz-adv-x="670" 
d="M212 669l130 -284l126 284h208l-302 -669h-219l88 179l-245 490h214zM94 726l142 205h210l140 -205h-194l-51 88l-52 -88h-195z" />
    <glyph glyph-name="Ydieresis.ss12" horiz-adv-x="670" 
d="M-2 669h214l130 -284l126 284h208l-302 -669h-219l88 179zM107 838q0 46 32 77.5t79 31.5q46 0 77.5 -31.5t31.5 -77.5q0 -47 -31.5 -79.5t-77.5 -32.5q-47 0 -79 32.5t-32 79.5zM387 916q32 31 78 31t77.5 -31.5t31.5 -77.5q0 -47 -31 -79q-32 -33 -78 -33t-78 32.5
t-32 79.5q0 46 32 78z" />
    <glyph glyph-name="Ygrave.ss12" horiz-adv-x="670" 
d="M212 669l130 -284l126 284h208l-302 -669h-219l88 179l-245 490h214zM158 922h227l59 -196h-208z" />
    <glyph glyph-name="Y.ss13" horiz-adv-x="680" 
d="M249 669l115 -309l99 309h219l-188 -465q-20 -48 -40 -81t-54 -66t-86.5 -50t-122.5 -17q-72 0 -138 22v167q80 -20 125 -20q44 0 70 16l-224 494h225z" />
    <glyph glyph-name="Yacute.ss13" horiz-adv-x="680" 
d="M249 669l115 -309l99 309h219l-188 -465q-20 -48 -40 -81t-54 -66t-86.5 -50t-122.5 -17q-72 0 -138 22v167q80 -20 125 -20q44 0 70 16l-224 494h225zM309 913h227l-78 -197h-208z" />
    <glyph glyph-name="Ycircumflex.ss13" horiz-adv-x="680" 
d="M249 669l115 -309l99 309h219l-188 -465q-20 -48 -40 -81t-54 -66t-86.5 -50t-122.5 -17q-72 0 -138 22v167q80 -20 125 -20q44 0 70 16l-224 494h225zM108 717l142 205h209l141 -205h-194l-52 88l-52 -88h-194z" />
    <glyph glyph-name="Ydieresis.ss13" horiz-adv-x="680" 
d="M249 669l115 -309l99 309h219l-188 -465q-20 -48 -40 -81t-54 -66t-86.5 -50t-122.5 -17q-72 0 -138 22v167q80 -20 125 -20q44 0 70 16l-224 494h225zM121 828q0 46 32 78t78 32q47 0 78.5 -32t31.5 -78q0 -47 -32 -79t-78 -32t-78 32.5t-32 78.5zM369 828q0 46 31.5 78
t77.5 32t78 -32t32 -78q0 -47 -32 -79t-78 -32t-77.5 32t-31.5 79z" />
    <glyph glyph-name="Ygrave.ss13" horiz-adv-x="680" 
d="M249 669l115 -309l99 309h219l-188 -465q-20 -48 -40 -81t-54 -66t-86.5 -50t-122.5 -17q-72 0 -138 22v167q80 -20 125 -20q44 0 70 16l-224 494h225zM171 913h227l60 -197h-208z" />
    <glyph glyph-name="A.ss14" horiz-adv-x="692" 
d="M218 669h256l216 -669h-222l-122 476l-122 -476h-225z" />
    <glyph glyph-name="Aacute.ss14" horiz-adv-x="692" 
d="M-1 0l219 669h256l216 -669h-222l-122 476l-122 -476h-225zM300 922h227l-78 -196h-208z" />
    <glyph glyph-name="Abreve.ss14" horiz-adv-x="692" 
d="M218 669h256l216 -669h-222l-122 476l-122 -476h-225zM273 929v-3q0 -30 20 -50.5t52 -20.5t52 20.5t20 50.5v3h163q-2 -97 -66 -149.5t-169 -52.5q-106 0 -169.5 52.5t-65.5 149.5h163z" />
    <glyph glyph-name="Acircumflex.ss14" horiz-adv-x="692" 
d="M218 669h256l216 -669h-222l-122 476l-122 -476h-225zM241 931h209l141 -205h-194l-51 88l-52 -88h-195z" />
    <glyph glyph-name="Adieresis.ss14" horiz-adv-x="692" 
d="M-1 0l219 669h256l216 -669h-222l-122 476l-122 -476h-225zM112 838q0 46 32 77.5t78 31.5t78 -31.5t32 -77.5q0 -47 -32 -79q-32 -33 -78 -33t-78 32.5t-32 79.5zM392 916q32 31 78 31t77.5 -31.5t31.5 -77.5q0 -47 -31 -79q-32 -33 -78 -33t-78 32.5t-32 79.5
q0 46 32 78z" />
    <glyph glyph-name="Agrave.ss14" horiz-adv-x="692" 
d="M218 669h256l216 -669h-222l-122 476l-122 -476h-225zM390 922l59 -196h-208l-79 196h228z" />
    <glyph glyph-name="Amacron.ss14" horiz-adv-x="692" 
d="M-1 0l219 669h256l216 -669h-222l-122 476l-122 -476h-225zM144 748v146h406v-146h-406z" />
    <glyph glyph-name="Aogonek.ss14" horiz-adv-x="692" 
d="M595 -64q0 -26 33 -26q18 0 62 11v-127q-45 -22 -107 -22q-66 0 -103 31.5t-37 82.5q0 28 19.5 60t58.5 54h-53l-122 476l-122 -476h-225l219 669h256l216 -669q-48 -16 -71.5 -30t-23.5 -34z" />
    <glyph glyph-name="Aring.ss14" horiz-adv-x="692" 
d="M218 669h256l216 -669h-222l-122 476l-122 -476h-225zM240 933q42 37 106 37t106 -37.5t42 -93.5q0 -57 -42 -94q-42 -38 -106 -38t-106 37.5t-42 94.5q0 56 42 94zM295 837q0 -21 15 -35q14 -14 36 -14t37 14t15 35q0 22 -15 36.5t-37 14.5t-36.5 -14.5t-14.5 -36.5z
" />
    <glyph glyph-name="Atilde.ss14" horiz-adv-x="692" 
d="M218 669h256l216 -669h-222l-122 476l-122 -476h-225zM147 882q34 43 107 43q32 0 57 -9t38 -20.5t28.5 -20.5t30.5 -9q22 0 34.5 14.5t12.5 35.5v3h142q1 -8 1 -23q0 -69 -37 -115t-107 -46q-38 0 -67 15.5t-49 31t-38 15.5q-21 0 -33.5 -15.5t-12.5 -39.5h-140
q-2 20 -2 30q0 67 35 110z" />
    <glyph glyph-name="i.loclTRK" horiz-adv-x="296" 
d="M48 0v522h200v-522h-200zM42 668q0 44 31 74.5t75 30.5t75 -30.5t31 -74.5t-31 -74q-31 -31 -75 -31t-75 30.5t-31 74.5z" />
    <glyph glyph-name="j_acutecomb" horiz-adv-x="308" 
d="M-3 -44q64 0 64 70v496h199v-547q0 -89 -59 -142.5t-163 -53.5q-72 0 -134 22v169q47 -14 93 -14zM114 765h220l-75 -175h-191z" />
    <glyph glyph-name="germandbls.calt" horiz-adv-x="687" 
d="M460 -11q-85 0 -141 28v167q48 -23 87 -23q31 0 46 13t15 32q0 20 -18.5 38.5t-40.5 31.5t-40.5 39.5t-18.5 59.5q0 77 90 112q-32 8 -61 8q-114 0 -114 -114v-381h-208v413q0 126 80 196.5t231 70.5q72 0 135.5 -16.5t145.5 -51.5l-70 -174q-23 -1 -41.5 -15t-18.5 -36
q0 -17 16 -33t39 -31.5t46.5 -34.5t39.5 -50t16 -70q0 -78 -57 -128.5t-158 -50.5z" />
    <glyph glyph-name="iacute_j.loclNLD" horiz-adv-x="604" 
d="M200 -30q47 -14 93 -14q64 0 64 70v496h199v-547q0 -89 -59 -142.5t-163 -53.5q-72 0 -134 22v169zM48 522h200v-522h-200v522zM357 590l46 175h219l-74 -175h-191zM55 590l47 175h219l-75 -175h-191z" />
    <glyph glyph-name="j.short" horiz-adv-x="308" 
d="M161 563q-48 0 -81.5 32.5t-33.5 80.5t33.5 81t81.5 33q47 0 80 -33t33 -81t-33 -80.5t-80 -32.5zM-64 -199v169q30 -14 66 -14q21 0 34 5.5t18 18t6 21.5t1 25v496h199v-552q0 -85 -56.5 -138t-146.5 -53q-61 0 -121 22z" />
    <glyph glyph-name="a.ss02" horiz-adv-x="602" 
d="M22 156q0 166 236 166h112q-1 17 -6 27.5t-28 19.5t-64 9q-79 0 -196 -32v152q126 36 217 36q140 0 201.5 -52t61.5 -159v-323h-178v40q-60 -52 -160 -52q-95 0 -145.5 47t-50.5 121zM208 172q0 -44 67 -44q45 0 70 19.5t25 51.5v18h-98q-31 0 -47.5 -12.5t-16.5 -32.5z
" />
    <glyph glyph-name="aacute.ss02" horiz-adv-x="602" 
d="M258 322h112q-1 17 -6 27.5t-28 19.5t-64 9q-79 0 -196 -32v152q126 36 217 36q140 0 201.5 -52t61.5 -159v-323h-178v40q-60 -52 -160 -52q-95 0 -145.5 47t-50.5 121q0 166 236 166zM266 765h220l-75 -175h-191zM208 172q0 -44 67 -44q45 0 70 19.5t25 51.5v18h-98
q-31 0 -47.5 -12.5t-16.5 -32.5z" />
    <glyph glyph-name="abreve.ss02" horiz-adv-x="602" 
d="M22 156q0 166 236 166h112q-1 17 -6 27.5t-28 19.5t-64 9q-79 0 -196 -32v152q126 36 217 36q140 0 201.5 -52t61.5 -159v-323h-178v40q-60 -52 -160 -52q-95 0 -145.5 47t-50.5 121zM246 766q0 -33 17 -53.5t47 -20.5t47.5 20.5t17.5 53.5h147q-2 -87 -59 -134
q-58 -47 -153 -47t-152 47t-60 134h148zM275 128q45 0 70 19.5t25 51.5v18h-98q-31 0 -47.5 -12.5t-16.5 -32.5q0 -44 67 -44z" />
    <glyph glyph-name="acircumflex.ss02" horiz-adv-x="602" 
d="M258 322h112q-1 17 -6 27.5t-28 19.5t-64 9q-79 0 -196 -32v152q126 36 217 36q140 0 201.5 -52t61.5 -159v-323h-178v40q-60 -52 -160 -52q-95 0 -145.5 47t-50.5 121q0 166 236 166zM94 588l125 180h184l124 -180h-171l-45 78l-45 -78h-172zM208 172q0 -44 67 -44
q45 0 70 19.5t25 51.5v18h-98q-31 0 -47.5 -12.5t-16.5 -32.5z" />
    <glyph glyph-name="adieresis.ss02" horiz-adv-x="602" 
d="M22 156q0 166 236 166h112q-1 17 -6 27.5t-28 19.5t-64 9q-79 0 -196 -32v152q126 36 217 36q140 0 201.5 -52t61.5 -159v-323h-178v40q-60 -52 -160 -52q-95 0 -145.5 47t-50.5 121zM91 669q0 43 30.5 73t73.5 30q44 0 74.5 -30t30.5 -73q0 -44 -30.5 -75t-74.5 -31
q-43 0 -73.5 31t-30.5 75zM326 669q0 43 30.5 73t73.5 30q44 0 74 -30t30 -73q0 -44 -30 -75t-74 -31q-43 0 -73.5 31t-30.5 75zM208 172q0 -44 67 -44q45 0 70 19.5t25 51.5v18h-98q-31 0 -47.5 -12.5t-16.5 -32.5z" />
    <glyph glyph-name="agrave.ss02" horiz-adv-x="602" 
d="M258 322h112q-1 17 -6 27.5t-28 19.5t-64 9q-79 0 -196 -32v152q126 36 217 36q140 0 201.5 -52t61.5 -159v-323h-178v40q-60 -52 -160 -52q-95 0 -145.5 47t-50.5 121q0 166 236 166zM361 766l46 -175h-191l-74 175h219zM275 128q45 0 70 19.5t25 51.5v18h-98
q-31 0 -47.5 -12.5t-16.5 -32.5q0 -44 67 -44z" />
    <glyph glyph-name="amacron.ss02" horiz-adv-x="602" 
d="M22 156q0 166 236 166h112q-1 17 -6 27.5t-28 19.5t-64 9q-79 0 -196 -32v152q126 36 217 36q140 0 201.5 -52t61.5 -159v-323h-178v40q-60 -52 -160 -52q-95 0 -145.5 47t-50.5 121zM126 609v132h375v-132h-375zM275 128q45 0 70 19.5t25 51.5v18h-98q-31 0 -47.5 -12.5
t-16.5 -32.5q0 -44 67 -44z" />
    <glyph glyph-name="aogonek.ss02" horiz-adv-x="602" 
d="M258 322h112q-1 17 -6 27.5t-28 19.5t-64 9q-79 0 -196 -32v152q126 36 217 36q140 0 201.5 -52t61.5 -159v-323h1q-48 -16 -71.5 -30t-23.5 -34q0 -26 32 -26q18 0 62 11v-127q-45 -22 -106 -22q-66 0 -103 31.5t-37 82.5q0 28 19 60t58 54h-9v40q-60 -52 -160 -52
q-95 0 -145.5 47t-50.5 121q0 166 236 166zM208 172q0 -44 67 -44q45 0 70 19.5t25 51.5v18h-98q-31 0 -47.5 -12.5t-16.5 -32.5z" />
    <glyph glyph-name="aring.ss02" horiz-adv-x="602" 
d="M22 156q0 166 236 166h112q-1 17 -6 27.5t-28 19.5t-64 9q-79 0 -196 -32v152q126 36 217 36q140 0 201.5 -52t61.5 -159v-323h-178v40q-60 -52 -160 -52q-95 0 -145.5 47t-50.5 121zM166 707q0 55 41 91.5t103 36.5q63 0 103.5 -36t40.5 -92q0 -55 -40.5 -91.5
t-103.5 -36.5q-62 0 -103 36.5t-41 91.5zM208 172q0 -44 67 -44q45 0 70 19.5t25 51.5v18h-98q-31 0 -47.5 -12.5t-16.5 -32.5zM260 706q0 -21 14.5 -35t35.5 -14q22 0 36.5 14t14.5 35t-14.5 35t-36.5 14q-21 0 -35.5 -14t-14.5 -35z" />
    <glyph glyph-name="atilde.ss02" horiz-adv-x="602" 
d="M258 322h112q-1 17 -6 27.5t-28 19.5t-64 9q-79 0 -196 -32v152q126 36 217 36q140 0 201.5 -52t61.5 -159v-323h-178v40q-60 -52 -160 -52q-95 0 -145.5 47t-50.5 121q0 166 236 166zM95 618q0 67 35.5 110.5t109.5 43.5q38 0 61.5 -14.5t38 -29t31.5 -14.5q35 0 35 45
v7h142q1 -8 1 -24q0 -68 -36.5 -114t-108.5 -46q-37 0 -61.5 15.5t-41.5 31t-34 15.5q-18 0 -23.5 -11.5t-5.5 -35.5v-8h-141q-2 20 -2 29zM275 128q45 0 70 19.5t25 51.5v18h-98q-31 0 -47.5 -12.5t-16.5 -32.5q0 -44 67 -44z" />
    <glyph glyph-name="g.ss04" horiz-adv-x="672" 
d="M2 -60q0 80 86 104q-31 31 -31 74q0 67 62 98q-76 50 -76 134q0 82 72.5 133.5t206.5 51.5q62 0 117 -13q51 8 130 92l110 -116q-42 -64 -97 -71q20 -35 20 -77q0 -81 -73.5 -132t-206.5 -51q-39 0 -67 4q-17 -7 -17 -22q0 -26 50 -26h136q109 0 166.5 -43t57.5 -117
q0 -85 -86.5 -134.5t-253.5 -49.5q-153 0 -229.5 43.5t-76.5 117.5zM207 -42q0 -20 21 -32t58 -12h76q38 0 59 12t21 32q0 44 -74 44h-91q-33 0 -51.5 -11.5t-18.5 -32.5zM244 351q0 -28 22 -44q21 -17 56 -17t57 16.5t22 44.5t-21.5 44.5t-57.5 16.5q-35 0 -56.5 -16.5
t-21.5 -44.5z" />
    <glyph glyph-name="gbreve.ss04" horiz-adv-x="672" 
d="M88 44q-31 31 -31 74q0 67 62 98q-76 50 -76 134q0 82 72.5 133.5t206.5 51.5q62 0 117 -13q51 8 130 92l110 -116q-42 -64 -97 -71q20 -35 20 -77q0 -81 -73.5 -132t-206.5 -51q-39 0 -67 4q-17 -7 -17 -22q0 -26 50 -26h136q109 0 166.5 -43t57.5 -117
q0 -85 -86.5 -134.5t-253.5 -49.5q-153 0 -229.5 43.5t-76.5 117.5q0 80 86 104zM255 768q0 -34 17.5 -54t47.5 -20t47.5 20t17.5 54h147q-2 -87 -59 -134q-58 -48 -153 -48t-152.5 47.5t-59.5 134.5h147zM207 -42q0 -20 21 -32t58 -12h76q38 0 59 12t21 32q0 44 -74 44h-91
q-33 0 -51.5 -11.5t-18.5 -32.5zM266 307q21 -17 56 -17t57 16.5t22 44.5t-21.5 44.5t-57.5 16.5q-35 0 -56.5 -16.5t-21.5 -44.5t22 -44z" />
    <glyph glyph-name="gcircumflex.ss04" horiz-adv-x="672" 
d="M2 -60q0 80 86 104q-31 31 -31 74q0 67 62 98q-76 50 -76 134q0 82 72.5 133.5t206.5 51.5q62 0 117 -13q51 8 130 92l110 -116q-42 -64 -97 -71q20 -35 20 -77q0 -81 -73.5 -132t-206.5 -51q-39 0 -67 4q-17 -7 -17 -22q0 -26 50 -26h136q109 0 166.5 -43t57.5 -117
q0 -85 -86.5 -134.5t-253.5 -49.5q-153 0 -229.5 43.5t-76.5 117.5zM104 590l125 180h184l124 -180h-171l-45 77l-46 -77h-171zM228 -74q21 -12 58 -12h76q38 0 59 12t21 32q0 44 -74 44h-91q-33 0 -51.5 -11.5t-18.5 -32.5q0 -20 21 -32zM266 307q21 -17 56 -17t57 16.5
t22 44.5t-21.5 44.5t-57.5 16.5q-35 0 -56.5 -16.5t-21.5 -44.5t22 -44z" />
    <glyph glyph-name="uni0123.ss04" horiz-adv-x="672" 
d="M88 44q-31 31 -31 74q0 67 62 98q-76 50 -76 134q0 82 72.5 133.5t206.5 51.5q62 0 117 -13q51 8 130 92l110 -116q-42 -64 -97 -71q20 -35 20 -77q0 -81 -73.5 -132t-206.5 -51q-39 0 -67 4q-17 -7 -17 -22q0 -26 50 -26h136q109 0 166.5 -43t57.5 -117
q0 -85 -86.5 -134.5t-253.5 -49.5q-153 0 -229.5 43.5t-76.5 117.5q0 80 86 104zM229 574l56 187h179l-32 -187h-203zM207 -42q0 -20 21 -32t58 -12h76q38 0 59 12t21 32q0 44 -74 44h-91q-33 0 -51.5 -11.5t-18.5 -32.5zM244 351q0 -28 22 -44q21 -17 56 -17t57 16.5
t22 44.5t-21.5 44.5t-57.5 16.5q-35 0 -56.5 -16.5t-21.5 -44.5z" />
    <glyph glyph-name="gdotaccent.ss04" horiz-adv-x="672" 
d="M88 44q-31 31 -31 74q0 67 62 98q-76 50 -76 134q0 82 72.5 133.5t206.5 51.5q62 0 117 -13q51 8 130 92l110 -116q-42 -64 -97 -71q20 -35 20 -77q0 -81 -73.5 -132t-206.5 -51q-39 0 -67 4q-17 -7 -17 -22q0 -26 50 -26h136q109 0 166.5 -43t57.5 -117
q0 -85 -86.5 -134.5t-253.5 -49.5q-153 0 -229.5 43.5t-76.5 117.5q0 80 86 104zM216 670q0 44 31 74t75 30t75 -30t31 -74q0 -45 -30 -75q-31 -30 -76 -30t-75.5 30t-30.5 75zM207 -42q0 -20 21 -32t58 -12h76q38 0 59 12t21 32q0 44 -74 44h-91q-33 0 -51.5 -11.5
t-18.5 -32.5zM266 307q21 -17 56 -17t57 16.5t22 44.5t-21.5 44.5t-57.5 16.5q-35 0 -56.5 -16.5t-21.5 -44.5t22 -44z" />
    <glyph glyph-name="germandbls.ss06" horiz-adv-x="650" 
d="M246 -177h-199v615q0 135 77 208t208 73q110 0 178 -48t68 -122q0 -34 -16 -63t-35 -45t-35 -33t-16 -29t15.5 -25.5t38 -29t44.5 -35t37.5 -51.5t15.5 -71q0 -78 -55 -128t-142 -50q-78 0 -132 28v165q46 -22 84 -22q51 0 51 33q0 18 -19.5 37t-42.5 33t-42.5 37.5
t-19.5 49.5q0 27 21 49.5t42 44.5t21 48q0 25 -17 39.5t-45 14.5q-38 0 -61.5 -29t-23.5 -77v-617z" />
    <glyph glyph-name="a.ss09" horiz-adv-x="698" 
d="M97 458q70 76 180 76q84 0 141 -54v42h183v-314q0 -54 40 -54q28 0 59 13v-158q-56 -21 -114 -21q-109 0 -143 79q-64 -79 -172 -79q-107 0 -176 77t-69 197q0 119 71 196zM220 261q0 -44 28 -72.5t71 -28.5q42 0 70.5 29.5t28.5 72.5q0 42 -28 71t-70 29
q-44 0 -72 -28.5t-28 -72.5z" />
    <glyph glyph-name="aacute.ss09" horiz-adv-x="698" 
d="M97 458q70 76 180 76q84 0 141 -54v42h183v-314q0 -54 40 -54q28 0 59 13v-158q-56 -21 -114 -21q-109 0 -143 79q-64 -79 -172 -79q-107 0 -176 77t-69 197q0 119 71 196zM289 765h219l-74 -175h-192zM248 189q28 -29 71 -29q42 0 70.5 29.5t28.5 72.5q0 42 -28 71
t-70 29q-44 0 -72 -28.5t-28 -72.5t28 -72z" />
    <glyph glyph-name="abreve.ss09" horiz-adv-x="698" 
d="M26 262q0 119 70.5 195.5t180.5 76.5q84 0 141 -54v42h183v-314q0 -54 40 -54q28 0 59 13v-158q-56 -21 -114 -21q-109 0 -143 79q-64 -79 -172 -79q-107 0 -176 77t-69 197zM121 766h147q0 -33 17.5 -53.5t47.5 -20.5t47.5 20.5t17.5 53.5h147q-2 -87 -59 -134
q-58 -47 -153 -47t-152.5 47t-59.5 134zM220 261q0 -44 28 -72.5t71 -28.5q42 0 70.5 29.5t28.5 72.5q0 42 -28 71t-70 29q-44 0 -72 -28.5t-28 -72.5z" />
    <glyph glyph-name="acircumflex.ss09" horiz-adv-x="698" 
d="M97 458q70 76 180 76q84 0 141 -54v42h183v-314q0 -54 40 -54q28 0 59 13v-158q-56 -21 -114 -21q-109 0 -143 79q-64 -79 -172 -79q-107 0 -176 77t-69 197q0 119 71 196zM117 588l125 180h184l124 -180h-172l-44 78l-46 -78h-171zM220 261q0 -44 28 -72.5t71 -28.5
q42 0 70.5 29.5t28.5 72.5q0 42 -28 71t-70 29q-44 0 -72 -28.5t-28 -72.5z" />
    <glyph glyph-name="adieresis.ss09" horiz-adv-x="698" 
d="M26 262q0 119 70.5 195.5t180.5 76.5q84 0 141 -54v42h183v-314q0 -54 40 -54q28 0 59 13v-158q-56 -21 -114 -21q-109 0 -143 79q-64 -79 -172 -79q-107 0 -176 77t-69 197zM348 669q0 43 30.5 73t74.5 30q43 0 73.5 -30t30.5 -73q0 -44 -30.5 -75t-73.5 -31
q-44 0 -74.5 31t-30.5 75zM114 669q0 43 30 73t74 30q43 0 73.5 -30t30.5 -73q0 -44 -30.5 -75t-73.5 -31q-44 0 -74 31t-30 75zM248 189q28 -29 71 -29q42 0 70.5 29.5t28.5 72.5q0 42 -28 71t-70 29q-44 0 -72 -28.5t-28 -72.5t28 -72z" />
    <glyph glyph-name="agrave.ss09" horiz-adv-x="698" 
d="M26 262q0 119 70.5 195.5t180.5 76.5q84 0 141 -54v42h183v-314q0 -54 40 -54q28 0 59 13v-158q-56 -21 -114 -21q-109 0 -143 79q-64 -79 -172 -79q-107 0 -176 77t-69 197zM383 766l47 -175h-192l-74 175h219zM220 261q0 -44 28 -72.5t71 -28.5q42 0 70.5 29.5
t28.5 72.5q0 42 -28 71t-70 29q-44 0 -72 -28.5t-28 -72.5z" />
    <glyph glyph-name="amacron.ss09" horiz-adv-x="698" 
d="M26 262q0 119 70.5 195.5t180.5 76.5q84 0 141 -54v42h183v-314q0 -54 40 -54q28 0 59 13v-158q-56 -21 -114 -21q-109 0 -143 79q-64 -79 -172 -79q-107 0 -176 77t-69 197zM148 741h375v-132h-375v132zM220 261q0 -44 28 -72.5t71 -28.5q42 0 70.5 29.5t28.5 72.5
q0 42 -28 71t-70 29q-44 0 -72 -28.5t-28 -72.5z" />
    <glyph glyph-name="aogonek.ss09" horiz-adv-x="698" 
d="M97 458q70 76 180 76q84 0 141 -54v42h183v-314q0 -54 40 -54q28 0 59 13v-158q-6 -2 -31 -10q-41 -14 -62 -27.5t-21 -33.5q0 -26 32 -26q18 0 62 11v-127q-45 -22 -106 -22q-66 0 -103 31.5t-37 83.5q0 27 19 59t57 54q-48 20 -67 65q-64 -79 -172 -79q-107 0 -176 77
t-69 197q0 119 71 196zM220 261q0 -44 28 -72.5t71 -28.5q42 0 70.5 29.5t28.5 72.5q0 42 -28 71t-70 29q-44 0 -72 -28.5t-28 -72.5z" />
    <glyph glyph-name="aring.ss09" horiz-adv-x="698" 
d="M26 262q0 119 70.5 195.5t180.5 76.5q84 0 141 -54v42h183v-314q0 -54 40 -54q28 0 59 13v-158q-56 -21 -114 -21q-109 0 -143 79q-64 -79 -172 -79q-107 0 -176 77t-69 197zM188 707q0 55 41.5 91.5t103.5 36.5t103 -36.5t41 -91.5t-41 -91q-41 -37 -103 -37
t-103.5 36.5t-41.5 91.5zM220 261q0 -44 28 -72.5t71 -28.5q42 0 70.5 29.5t28.5 72.5q0 42 -28 71t-70 29q-44 0 -72 -28.5t-28 -72.5zM282 706q0 -21 14.5 -35t36.5 -14t36 14t14 35t-14 35t-36 14t-36.5 -14t-14.5 -35z" />
    <glyph glyph-name="atilde.ss09" horiz-adv-x="698" 
d="M97 458q70 76 180 76q84 0 141 -54v42h183v-314q0 -54 40 -54q28 0 59 13v-158q-56 -21 -114 -21q-109 0 -143 79q-64 -79 -172 -79q-107 0 -176 77t-69 197q0 119 71 196zM118 617q0 68 35 111.5t109 43.5q38 0 61.5 -14.5t38.5 -29t32 -14.5q35 0 35 49v3h141
q1 -8 1 -24q0 -68 -36.5 -114t-108.5 -46q-36 0 -60.5 15.5t-41.5 31t-34 15.5q-18 0 -24 -11.5t-6 -35.5v-8h-141q-1 9 -1 28zM220 261q0 -44 28 -72.5t71 -28.5q42 0 70.5 29.5t28.5 72.5q0 42 -28 71t-70 29q-44 0 -72 -28.5t-28 -72.5z" />
    <glyph glyph-name="u.ss09" horiz-adv-x="666" 
d="M242 522v-281q0 -32 16 -50t43 -18q29 0 48 21.5t19 56.5v271h199v-309q0 -15 1.5 -24.5t11 -18.5t26.5 -9q29 0 60 13v-165q-57 -21 -116 -21q-110 0 -146 81q-57 -81 -161 -81q-92 0 -146.5 60t-54.5 170v304h200z" />
    <glyph glyph-name="uacute.ss09" horiz-adv-x="666" 
d="M42 218v304h200v-281q0 -32 16 -50t43 -18q29 0 48 21.5t19 56.5v271h199v-309q0 -15 1.5 -24.5t11 -18.5t26.5 -9q29 0 60 13v-165q-57 -21 -116 -21q-110 0 -146 81q-57 -81 -161 -81q-92 0 -146.5 60t-54.5 170zM212 590l46 175h220l-75 -175h-191z" />
    <glyph glyph-name="ubreve.ss09" horiz-adv-x="666" 
d="M242 522v-281q0 -32 16 -50t43 -18q29 0 48 21.5t19 56.5v271h199v-309q0 -15 1.5 -24.5t11 -18.5t26.5 -9q29 0 60 13v-165q-57 -21 -116 -21q-110 0 -146 81q-57 -81 -161 -81q-92 0 -146.5 60t-54.5 170v304h200zM238 766q0 -33 17 -53.5t47 -20.5t47.5 20.5
t17.5 53.5h147q-2 -87 -59 -134q-58 -47 -153 -47t-152 47t-60 134h148z" />
    <glyph glyph-name="ucircumflex.ss09" horiz-adv-x="666" 
d="M42 218v304h200v-281q0 -32 16 -50t43 -18q29 0 48 21.5t19 56.5v271h199v-309q0 -15 1.5 -24.5t11 -18.5t26.5 -9q29 0 60 13v-165q-57 -21 -116 -21q-110 0 -146 81q-57 -81 -161 -81q-92 0 -146.5 60t-54.5 170zM211 768h184l124 -180h-171l-45 78l-45 -78h-172z" />
    <glyph glyph-name="udieresis.ss09" horiz-adv-x="666" 
d="M42 522h200v-281q0 -32 16 -50t43 -18q29 0 48 21.5t19 56.5v271h199v-309q0 -15 1.5 -24.5t11 -18.5t26.5 -9q29 0 60 13v-165q-57 -21 -116 -21q-110 0 -146 81q-57 -81 -161 -81q-92 0 -146.5 60t-54.5 170v304zM83 669q0 43 30.5 73t73.5 30q44 0 74.5 -30t30.5 -73
q0 -44 -30.5 -75t-74.5 -31q-43 0 -73.5 31t-30.5 75zM349 742q30 30 73 30q44 0 74 -30t30 -73q0 -44 -30 -75t-74 -31q-43 0 -73.5 31t-30.5 75q0 43 31 73z" />
    <glyph glyph-name="ugrave.ss09" horiz-adv-x="666" 
d="M42 218v304h200v-281q0 -32 16 -50t43 -18q29 0 48 21.5t19 56.5v271h199v-309q0 -15 1.5 -24.5t11 -18.5t26.5 -9q29 0 60 13v-165q-57 -21 -116 -21q-110 0 -146 81q-57 -81 -161 -81q-92 0 -146.5 60t-54.5 170zM134 766h219l46 -175h-191z" />
    <glyph glyph-name="uhungarumlaut.ss09" horiz-adv-x="666" 
d="M42 218v304h200v-281q0 -32 16 -50t43 -18q29 0 48 21.5t19 56.5v271h199v-309q0 -15 1.5 -24.5t11 -18.5t26.5 -9q29 0 60 13v-165q-57 -21 -116 -21q-110 0 -146 81q-57 -81 -161 -81q-92 0 -146.5 60t-54.5 170zM318 590l56 175h205l-66 -175h-195zM126 765h208
l-53 -175h-191z" />
    <glyph glyph-name="umacron.ss09" horiz-adv-x="666" 
d="M42 218v304h200v-281q0 -32 16 -50t43 -18q29 0 48 21.5t19 56.5v271h199v-309q0 -15 1.5 -24.5t11 -18.5t26.5 -9q29 0 60 13v-165q-57 -21 -116 -21q-110 0 -146 81q-57 -81 -161 -81q-92 0 -146.5 60t-54.5 170zM118 609v132h375v-132h-375z" />
    <glyph glyph-name="uogonek.ss09" horiz-adv-x="666" 
d="M242 522v-281q0 -32 16 -50t43 -18q29 0 48 21.5t19 56.5v271h199v-309q0 -15 1.5 -24.5t11 -18.5t26.5 -9q29 0 60 13v-165q-4 -2 -28 -9q-36 -13 -54 -25.5t-18 -30.5q0 -26 32 -26q18 0 62 11v-127q-45 -22 -106 -22q-66 0 -103 31.5t-37 82.5q0 61 64 106
q-51 19 -74 69q-57 -81 -161 -81q-92 0 -146.5 60t-54.5 170v304h200z" />
    <glyph glyph-name="uring.ss09" horiz-adv-x="666" 
d="M242 522v-281q0 -32 16 -50t43 -18q29 0 48 21.5t19 56.5v271h199v-309q0 -15 1.5 -24.5t11 -18.5t26.5 -9q29 0 60 13v-165q-57 -21 -116 -21q-110 0 -146 81q-57 -81 -161 -81q-92 0 -146.5 60t-54.5 170v304h200zM199 799q41 36 103 36q63 0 103.5 -36t40.5 -92
q0 -55 -40.5 -91.5t-103.5 -36.5q-62 0 -103 36.5t-41 91.5t41 92zM252 706q0 -21 14.5 -35t35.5 -14q22 0 36.5 14t14.5 35t-14.5 35t-36.5 14q-21 0 -35.5 -14t-14.5 -35z" />
    <glyph glyph-name="utilde.ss09" horiz-adv-x="666" 
d="M42 522h200v-281q0 -32 16 -50t43 -18q29 0 48 21.5t19 56.5v271h199v-309q0 -15 1.5 -24.5t11 -18.5t26.5 -9q29 0 60 13v-165q-57 -21 -116 -21q-110 0 -146 81q-57 -81 -161 -81q-92 0 -146.5 60t-54.5 170v304zM87 618q0 67 35.5 110.5t109.5 43.5q38 0 61.5 -14.5
t38 -29t31.5 -14.5q35 0 35 45v7h142q1 -8 1 -24q0 -68 -36.5 -114t-108.5 -46q-37 0 -61.5 15.5t-41.5 31t-34 15.5q-18 0 -23.5 -11.5t-5.5 -35.5v-8h-141q-2 20 -2 29z" />
    <glyph glyph-name="y.ss15" horiz-adv-x="615" 
d="M-6 522h201l114 -299l109 299h200l-293 -735h-205l93 208z" />
    <glyph glyph-name="yacute.ss15" horiz-adv-x="615" 
d="M195 522l114 -299l109 299h200l-293 -735h-205l93 208l-219 527h201zM214 590l46 175h219l-74 -175h-191z" />
    <glyph glyph-name="ycircumflex.ss15" horiz-adv-x="615" 
d="M195 522l114 -299l109 299h200l-293 -735h-205l93 208l-219 527h201zM88 588l125 180h184l124 -180h-171l-45 78l-46 -78h-171z" />
    <glyph glyph-name="ydieresis.ss15" horiz-adv-x="615" 
d="M195 522l114 -299l109 299h200l-293 -735h-205l93 208l-219 527h201zM85 669q0 43 30 73t74 30t74.5 -30t30.5 -73q0 -44 -30 -75q-31 -31 -75 -31t-74 31t-30 75zM319 669q0 43 30.5 73t74.5 30q43 0 73.5 -30t30.5 -73q0 -44 -30.5 -75t-73.5 -31q-44 0 -74.5 31
t-30.5 75z" />
    <glyph glyph-name="ygrave.ss15" horiz-adv-x="615" 
d="M195 522l114 -299l109 299h200l-293 -735h-205l93 208l-219 527h201zM135 766h219l47 -175h-191z" />
    <glyph glyph-name="IJ.loclNLD" horiz-adv-x="813" 
d="M56 0v669h209v-669h-209zM493 -11q-87 0 -164 24v184q66 -15 125 -15q61 0 80 26.5t19 71.5v389h209v-427q0 -124 -72 -188.5t-197 -64.5z" />
    <glyph glyph-name="ij.loclNLD" horiz-adv-x="604" 
d="M148 563q-48 0 -81 33t-33 80q0 48 33 81t81 33t81 -33t33 -81q0 -47 -33 -80t-81 -33zM457 563q-48 0 -81.5 33t-33.5 80q0 48 33.5 81t81.5 33t80.5 -33t32.5 -81q0 -47 -32.5 -80t-80.5 -33zM248 0h-200v522h200v-522zM200 -199v169q47 -14 93 -14q64 0 64 70v496h199
v-547q0 -89 -59 -142.5t-163 -53.5q-72 0 -134 22z" />
    <glyph glyph-name="uni0414.loclBGR" horiz-adv-x="822" 
d="M548 669l168 -492h90v-306h-204v129h-382v-129h-204v306h91l168 492h273zM499 177l-88 321l-90 -321h178z" />
    <glyph glyph-name="uni041B.loclBGR" horiz-adv-x="692" 
d="M224 0h-225l219 669h256l216 -669h-222l-122 476z" />
    <glyph glyph-name="uni0423.loclBGR" horiz-adv-x="670" 
d="M342 385l126 284h208l-302 -669h-219l88 179l-245 490h214z" />
    <glyph glyph-name="uni0424.loclBGR" horiz-adv-x="977" 
d="M691 647q119 0 185.5 -81t66.5 -232q0 -150 -67 -230.5t-186 -80.5q-42 0 -104 14v-114h-194v115q-69 -15 -106 -15q-118 0 -185 81t-67 230q0 150 67 231t186 81q31 0 105 -15v115h194v-113q59 14 105 14zM237 334q0 -156 102 -156q24 0 54 5v301q-40 7 -59 7
q-97 0 -97 -157zM643 177q98 0 98 157t-98 157q-25 0 -59 -6v-302q32 -6 59 -6z" />
    <glyph glyph-name="uni0430.loclBGR" horiz-adv-x="650" 
d="M97 458q71 76 181 76q85 0 141 -56v44h183v-522h-183v43q-57 -55 -144 -55q-109 0 -179 77t-70 197q0 119 71 196zM248 189q28 -29 71 -29q42 0 70.5 29.5t28.5 72.5q0 42 -28 71t-70 29q-44 0 -72 -28.5t-28 -72.5t28 -72z" />
    <glyph glyph-name="uni0432.loclBGR" horiz-adv-x="625" 
d="M497 385q101 -45 101 -168q0 -103 -77.5 -165t-203.5 -62t-201 63.5t-75 181.5v235q0 125 76 193t199 68q116 0 185.5 -56.5t69.5 -144.5q0 -98 -74 -145zM316 571q-38 0 -62 -24t-24 -63v-54h80q42 0 62.5 20.5t20.5 51.5q0 33 -20.5 51t-56.5 18zM318 148
q42 0 65.5 20.5t23.5 54.5q0 33 -20.5 54t-57.5 21h-99v-53q0 -97 88 -97z" />
    <glyph glyph-name="uni0433.loclBGR" horiz-adv-x="546" 
d="M266 -12q-110 0 -173.5 39.5t-63.5 122.5q0 39 14.5 68.5t41 47.5t52 28.5t60.5 19.5l62 16q3 1 7.5 2t7 1.5t6 2t5.5 2t5 2t4.5 3l3 3t2 4t0.5 4.5q0 20 -49 20q-80 0 -184 -32l-30 153q123 37 234 37q120 0 181 -44.5t61 -128.5q0 -35 -12 -59.5t-39.5 -41.5t-55 -27
t-76.5 -23l-62 -17q-29 -8 -29 -25t34 -17q43 0 107 15.5t106 33.5l31 -160q-137 -50 -251 -50z" />
    <glyph glyph-name="uni0434.loclBGR" horiz-adv-x="652" 
d="M98 459q70 74 175 74q84 0 145 -50v39h187v-472q0 -125 -83 -198t-228 -73q-111 0 -222 48v167q107 -51 205 -51q64 0 102 28.5t38 82.5v11q-58 -49 -145 -49q-106 0 -175.5 72t-69.5 184t71 187zM222 266q0 -41 28 -68q27 -27 68 -27t69 27.5t28 67.5q0 41 -27 68.5
t-68 27.5q-43 0 -70.5 -27.5t-27.5 -68.5z" />
    <glyph glyph-name="uni0436.loclBGR" horiz-adv-x="908" 
d="M685 522h228l-187 -261l186 -261h-232l-127 188l-1 1v-189h-196v189l-1 -1l-127 -188h-232l187 262l-188 260h228l133 -191v191h196v-189z" />
    <glyph glyph-name="uni0437.loclBGR" horiz-adv-x="583" 
d="M474 193q84 -52 84 -164q0 -114 -77.5 -182t-215.5 -68q-118 0 -241 57v166q34 -16 107.5 -34t126.5 -18q52 0 79 19t27 51q0 29 -22 47.5t-60 18.5h-168v148h136q44 0 66 17t22 46t-23 47.5t-66 18.5q-40 0 -101.5 -13t-105.5 -31v167q113 49 232 49q117 0 187.5 -58
t70.5 -150q0 -84 -58 -134z" />
    <glyph glyph-name="uni0438.loclBGR" horiz-adv-x="615" 
d="M42 522h200v-294q0 -32 16 -50t43 -18q29 0 48 21.5t19 56.5v284h199v-522h-189v44q-57 -56 -144 -56q-89 0 -140.5 59.5t-51.5 170.5v304z" />
    <glyph glyph-name="uni0439.loclBGR" horiz-adv-x="615" 
d="M42 218v304h200v-294q0 -32 16 -50t43 -18q29 0 48 21.5t19 56.5v284h199v-522h-189v44q-57 -56 -144 -56q-89 0 -140.5 59.5t-51.5 170.5zM241 760q0 -88 64 -88t65 88h147q-5 -88 -62 -139t-150 -51t-149.5 50.5t-62.5 139.5h148z" />
    <glyph glyph-name="uni043A.loclBGR" horiz-adv-x="594" 
d="M48 701h198v-359l125 180h229l-174 -250l171 -272h-234l-117 197v-197h-198v701z" />
    <glyph glyph-name="uni043B.loclBGR" horiz-adv-x="618" 
d="M223 -1h-221l175 523h273l167 -523h-222l-82 347z" />
    <glyph glyph-name="uni043F.loclBGR" horiz-adv-x="616" 
d="M238 522v-40q55 51 134 51q90 0 145.5 -55t55.5 -144v-334h-199v293q0 32 -16.5 50t-43.5 18q-29 0 -48 -22t-19 -57v-282h-199v522h190z" />
    <glyph glyph-name="uni0442.loclBGR" horiz-adv-x="942" 
d="M48 522h190v-42q56 53 143 53q92 0 142 -61q66 61 164 61q94 0 152.5 -55t58.5 -144v-334h-199v293q0 32 -16 50t-43 18q-29 0 -48 -22t-19 -57v-282h-199v293q0 32 -16.5 50t-43.5 18q-29 0 -48 -22t-19 -57v-282h-199v522z" />
    <glyph glyph-name="uni0446.loclBGR" horiz-adv-x="688" 
d="M634 161h60v-284h-194v112q-35 5 -60 30t-30 59q-57 -90 -167 -90q-92 0 -146.5 60t-54.5 170v304h200v-294q0 -32 16 -50t43 -18q29 0 48 21.5t19 56.5v284h199v-292q0 -36 15.5 -52.5t51.5 -16.5z" />
    <glyph glyph-name="uni0448.loclBGR" horiz-adv-x="991" 
d="M932 161q29 0 60 13v-165q-58 -21 -117 -21q-109 0 -140 90q-56 -90 -169 -90q-109 0 -161 83q-56 -83 -162 -83q-92 0 -146.5 60t-54.5 170v304h200v-294q0 -32 16 -50t43 -18q29 0 48 21.5t19 56.5v284h199v-294q0 -32 16 -50t43 -18q30 0 49 21.5t19 56.5v284h199
v-309q0 -15 1.5 -24.5t10.5 -18.5t27 -9z" />
    <glyph glyph-name="uni0449.loclBGR" horiz-adv-x="1014" 
d="M960 161h60v-284h-194v112q-35 5 -60.5 29.5t-30.5 59.5q-57 -90 -166 -90q-112 0 -165 82q-55 -82 -161 -82q-92 0 -146.5 60t-54.5 170v304h200v-294q0 -32 16 -50t43 -18q29 0 48 21.5t19 56.5v284h199v-294q0 -32 16 -50t43 -18q30 0 49 21.5t19 56.5v284h199v-292
q0 -36 15.5 -52.5t51.5 -16.5z" />
    <glyph glyph-name="uni044C.loclBGR" horiz-adv-x="607" 
d="M356 450q99 0 164 -65t65 -159q0 -105 -78.5 -171.5t-194.5 -66.5q-118 0 -194.5 68.5t-76.5 174.5v291h191v-108q52 36 124 36zM313 147q37 0 62.5 24t25.5 60t-25.5 60t-62.5 24q-38 0 -63 -24t-25 -60t25 -60t63 -24z" />
    <glyph glyph-name="uni044A.loclBGR" horiz-adv-x="690" 
d="M439 450q99 0 164 -65t65 -159q0 -105 -78.5 -171.5t-194.5 -66.5q-118 0 -194.5 68.5t-76.5 174.5v111h-105v180h296v-109q51 37 124 37zM396 147q38 0 63 24t25 60t-25 60t-63 24t-63 -24t-25 -60t25 -60t63 -24z" />
    <glyph glyph-name="uni044E.loclBGR" horiz-adv-x="905" 
d="M244 701v-365h68q24 89 99 143.5t180 54.5q127 0 208 -78t81 -197t-81.5 -195t-207.5 -76q-99 0 -172 48.5t-102 129.5h-73v-166h-196v701h196zM491 261q0 -44 29.5 -73t71.5 -29q43 0 71 29t28 73q0 43 -28 72t-70 29q-43 0 -72.5 -29t-29.5 -72z" />
    <glyph glyph-name="uni0431.loclSRB" horiz-adv-x="622" 
d="M354 472q42 -8 69.5 -15t63.5 -24.5t57.5 -41t37 -63.5t15.5 -93q0 -120 -82.5 -183t-207.5 -63t-203 67.5t-78 173.5q0 124 95 179q-72 42 -72 135q0 74 58 120t151 46q23 0 65.5 -2t63.5 -2q88 0 166 32l27 -171q-54 -25 -129 -25q-31 0 -80 5t-62 5q-55 0 -55 -33
q0 -20 20 -28t68 -17q4 -1 6.5 -1.5t5.5 -0.5zM310 153q39 0 65 25.5t26 63.5q0 39 -26 64.5t-64 25.5q-39 0 -65 -25.5t-26 -64.5q0 -38 26 -63.5t64 -25.5z" />
    <glyph glyph-name="uni0430.loclBGR.ss09" horiz-adv-x="698" 
d="M97 458q70 76 180 76q84 0 141 -54v42h183v-314q0 -54 37 -54q21 0 52 13v-158q-56 -21 -104 -21q-106 0 -137 88q-63 -88 -178 -88q-107 0 -176 77t-69 197q0 119 71 196zM220 261q0 -44 28 -72.5t71 -28.5q42 0 70.5 29.5t28.5 72.5q0 42 -28 71t-70 29
q-44 0 -72 -28.5t-28 -72.5z" />
    <glyph glyph-name="uni0438.loclBGR.ss09" horiz-adv-x="666" 
d="M242 522v-281q0 -32 16 -50t43 -18q29 0 48 21.5t19 56.5v271h199v-309q0 -52 36 -52q21 0 52 13v-165q-57 -21 -105 -21q-52 0 -88.5 24t-50.5 67q-58 -91 -168 -91q-92 0 -146.5 60t-54.5 170v304h200z" />
    <glyph glyph-name="uni0439.loclBGR.ss09" horiz-adv-x="666" 
d="M42 218v304h200v-281q0 -32 16 -50t43 -18q29 0 48 21.5t19 56.5v271h199v-309q0 -15 1.5 -24.5t11 -18.5t26.5 -9q29 0 60 13v-165q-57 -21 -116 -21q-52 0 -88.5 24t-50.5 67q-58 -91 -168 -91q-92 0 -146.5 60t-54.5 170zM238 764q0 -34 17 -54t47 -20t47.5 20
t17.5 54h147q-2 -87 -59 -134q-58 -48 -153 -48t-152 47t-60 135h148z" />
    <glyph glyph-name="zero.zero" horiz-adv-x="665" 
d="M333 680q130 0 212.5 -96.5t82.5 -249.5q0 -152 -82.5 -248.5t-212.5 -96.5q-131 0 -213.5 96.5t-82.5 248.5q0 153 82.5 249.5t213.5 96.5zM333 522q-55 0 -88 -51.5t-33 -135.5q0 -61 17 -106l163 273q-26 20 -59 20zM333 146q54 0 87 52t33 137q0 60 -17 105
l-162 -274q26 -20 59 -20z" />
    <glyph glyph-name="zero.lf" horiz-adv-x="682" 
d="M341 -11q-135 0 -219.5 96t-84.5 249t84.5 249.5t219.5 96.5q136 0 220.5 -96.5t84.5 -249.5t-84.5 -249t-220.5 -96zM341 174q46 0 73 43t27 118q0 74 -27 117t-73 43t-72.5 -43t-26.5 -117q0 -75 26.5 -118t72.5 -43z" />
    <glyph glyph-name="one.lf" horiz-adv-x="418" 
d="M24 635l194 34h132v-669h-205v478l-121 -16v173z" />
    <glyph glyph-name="two.lf" horiz-adv-x="598" 
d="M404 227l-66 -55h216v-173h-508v150l233 205q28 24 39 35t21 28.5t10 35.5q0 26 -17 40.5t-42 14.5q-29 0 -49 -22.5t-20 -60.5l-187 19q0 105 74 170.5t191 65.5q110 0 180.5 -60.5t70.5 -156.5q0 -72 -38 -125t-108 -111z" />
    <glyph glyph-name="three.lf" horiz-adv-x="614" 
d="M543 517l-131 -99q74 -10 120 -60.5t46 -131.5q0 -106 -78.5 -172t-209.5 -66q-113 0 -185 52.5t-85 153.5l182 40q6 -36 29.5 -56.5t60.5 -20.5q35 0 58.5 22t23.5 55q0 31 -23 51.5t-58 20.5q-31 0 -63 -20l-73 109l142 108h-237v166h481v-152z" />
    <glyph glyph-name="four.lf" horiz-adv-x="654" 
d="M537 272h81v-156h-81v-116h-199v116h-316v134l254 419h261v-397zM338 493l-131 -221h131v221z" />
    <glyph glyph-name="five.lf" horiz-adv-x="619" 
d="M350 454q107 0 170 -62.5t63 -163.5q0 -108 -76.5 -174t-205.5 -66q-110 0 -184 48.5t-91 143.5l184 43q22 -67 88 -67q35 0 58.5 22.5t23.5 57.5q0 34 -23 56t-59 22q-56 0 -79 -46l-161 76l53 325h437v-166h-289l-14 -73q43 24 105 24z" />
    <glyph glyph-name="six.lf" horiz-adv-x="626" 
d="M378 460q96 0 160 -62.5t64 -156.5q0 -112 -81 -182t-206 -70q-126 0 -207.5 70.5t-81.5 185.5q0 65 23.5 120t78.5 123l146 181h242l-173 -212q15 3 35 3zM313 155q34 0 57.5 23t23.5 57t-23 56.5t-57 22.5q-35 0 -58.5 -22.5t-23.5 -56.5q0 -35 23 -57.5t58 -22.5z" />
    <glyph glyph-name="seven.lf" horiz-adv-x="534" 
d="M29 496v173h478v-148l-225 -521h-227l226 496h-252z" />
    <glyph glyph-name="eight.lf" horiz-adv-x="658" 
d="M518 361q51 -23 78.5 -66.5t27.5 -93.5q0 -93 -80.5 -152.5t-214.5 -59.5q-135 0 -215 59.5t-80 153.5q0 50 27.5 93t79.5 65q-75 45 -75 128t73 137.5t188 54.5q116 0 189.5 -54.5t73.5 -138.5q0 -82 -72 -126zM329 529q-31 0 -51 -18t-20 -45t20 -44.5t52 -17.5
q30 0 50 17.5t20 44.5t-20 45t-51 18zM329 146q35 0 58 20t23 50q0 31 -23 50.5t-58 19.5t-57.5 -19.5t-22.5 -50.5q0 -30 22.5 -50t57.5 -20z" />
    <glyph glyph-name="nine.lf" 
d="M310 680q127 0 208 -72t81 -185q0 -16 -2 -32t-4.5 -28.5t-9.5 -29t-10.5 -26t-15 -28t-16 -26t-20 -29t-20 -27.5t-24 -31t-24.5 -32l-103 -134h-241l165 214q-8 -1 -22 -1q-100 0 -165 61.5t-65 156.5q0 107 81 178t207 71zM226 434q0 -34 23 -57t57 -23q35 0 58 22.5
t23 57.5t-22.5 57.5t-57.5 22.5t-58 -23t-23 -57z" />
    <glyph glyph-name="zero.osf" horiz-adv-x="629" 
d="M314 -11q-120 0 -201.5 80.5t-81.5 200.5q0 121 81.5 202t201.5 81q121 0 202.5 -81t81.5 -202q0 -120 -81.5 -200.5t-202.5 -80.5zM314 149q43 0 71.5 34.5t28.5 86.5t-28.5 87t-71.5 35q-42 0 -71 -35t-29 -87t29 -86.5t71 -34.5z" />
    <glyph glyph-name="one.osf" horiz-adv-x="425" 
d="M25 476l213 59h133v-535h-184v340l-162 -39v175z" />
    <glyph glyph-name="two.osf" horiz-adv-x="552" 
d="M394 202l-74 -49h192v-153h-475v136l221 150q23 15 33 23t18 19t8 22q0 17 -13 28t-35 11t-39.5 -14t-17.5 -39l-174 19q-1 92 66 145.5t176 53.5q105 0 167 -51.5t62 -130.5q0 -95 -115 -170z" />
    <glyph glyph-name="three.osf" horiz-adv-x="578" 
d="M514 396l-135 -107q75 -8 122 -57t47 -125q0 -104 -74.5 -169t-199.5 -65q-108 0 -177.5 52t-82.5 151l169 37q5 -39 29.5 -62t62.5 -23q36 0 60 24.5t24 60.5q0 29 -24 51t-59 22q-26 0 -64 -24l-69 101l147 120h-235v152h459v-139z" />
    <glyph glyph-name="four.osf" horiz-adv-x="611" 
d="M507 166h75v-136h-75v-143h-177v143h-306v109l241 398h242v-371zM330 378l-122 -212h122v212z" />
    <glyph glyph-name="five.osf" horiz-adv-x="580" 
d="M326 322q103 0 163.5 -61t60.5 -154q0 -104 -73 -169t-195 -65q-104 0 -174.5 48.5t-87.5 140.5l166 42q11 -38 36 -58t57 -20q38 0 63.5 26t25.5 66q0 31 -25 55t-64 24q-24 0 -47 -13.5t-36 -37.5l-146 70l51 319h416v-152h-282l-15 -87q44 26 106 26z" />
    <glyph glyph-name="six.osf" horiz-adv-x="594" 
d="M358 438q92 0 155.5 -61.5t63.5 -150.5q0 -103 -77.5 -170t-195.5 -67q-117 0 -195 67.5t-78 173.5q0 68 25.5 120t70.5 108l146 178h210l-168 -203q22 5 43 5zM302 134q38 0 65 25.5t27 62.5q0 36 -27 61.5t-65 25.5q-39 0 -65 -25.5t-26 -61.5t26 -62t65 -26z" />
    <glyph glyph-name="seven.osf" horiz-adv-x="506" 
d="M26 370v165h459v-145l-243 -502h-211l241 482h-246z" />
    <glyph glyph-name="eight.osf" horiz-adv-x="598" 
d="M462 343q49 -22 76.5 -64t27.5 -90q0 -87 -74.5 -143.5t-193.5 -56.5t-193 56.5t-74 143.5q0 50 27.5 91t77.5 63q-75 43 -75 123q0 77 66.5 129t168.5 52q104 0 171.5 -52t67.5 -130q0 -81 -73 -122zM298 514q-28 0 -49.5 -20t-21.5 -48t19.5 -46t51.5 -18
q31 0 50.5 18.5t19.5 47.5q0 26 -21 46t-49 20zM298 126q33 0 56 22t23 52q0 31 -23 51.5t-56 20.5t-56.5 -21t-23.5 -52q0 -30 23 -51.5t57 -21.5z" />
    <glyph glyph-name="nine.osf" horiz-adv-x="599" 
d="M291 553q121 0 200.5 -70.5t79.5 -177.5q0 -47 -18.5 -94t-40.5 -78t-65 -87q-4 -4 -5.5 -6.5t-4.5 -6t-5 -6.5l-108 -139h-217l163 210q-22 -2 -30 -2q-96 0 -160.5 61t-64.5 155q0 103 78 172t198 69zM198 314q0 -38 26.5 -63.5t65.5 -25.5q37 0 63.5 25.5t26.5 63.5
t-26 63.5t-64 25.5q-37 0 -64.5 -25.5t-27.5 -63.5z" />
    <glyph glyph-name="one.osf.salt" horiz-adv-x="405" 
d="M21 370v165h330v-535h-184v370h-146z" />
    <glyph glyph-name="zero.osf.zero" horiz-adv-x="613" 
d="M306 553q117 0 196.5 -81.5t79.5 -201.5t-79.5 -200.5t-196.5 -80.5t-196 80.5t-79 200.5t79 201.5t196 81.5zM306 419q-52 0 -87.5 -43t-35.5 -106q0 -47 21 -84l150 222q-22 11 -48 11zM306 122q53 0 88.5 42.5t35.5 105.5q0 48 -22 86l-150 -223q22 -11 48 -11z" />
    <glyph glyph-name="zero.tf" 
d="M312 -11q-133 0 -210.5 95t-77.5 250t77.5 250.5t210.5 95.5q134 0 211.5 -95.5t77.5 -250.5t-77.5 -250t-211.5 -95zM312 174q40 0 62 42t22 119t-21.5 118.5t-62.5 41.5q-40 0 -61.5 -41.5t-21.5 -118.5t21.5 -119t61.5 -42z" />
    <glyph glyph-name="one.tf" 
d="M430 669v-490h154v-180h-507v180h149v300l-137 -17v173l218 34h123z" />
    <glyph glyph-name="two.tf" 
d="M418 227l-66 -55h215v-173h-508v150l234 205q26 23 37.5 34.5t21.5 29t10 35.5q0 26 -17 40.5t-42 14.5q-29 0 -49 -22.5t-20 -60.5l-187 19q1 105 75 170.5t191 65.5q110 0 180 -60.5t70 -156.5q0 -72 -37.5 -125t-107.5 -111z" />
    <glyph glyph-name="three.tf" 
d="M552 517l-131 -99q74 -10 119.5 -60.5t45.5 -131.5q0 -106 -78 -172t-209 -66q-113 0 -185 52.5t-85 153.5l182 40q5 -36 29 -56.5t61 -20.5q35 0 58.5 22t23.5 55q0 31 -23 51.5t-58 20.5q-30 0 -63 -20l-73 109l142 108h-237v166h481v-152z" />
    <glyph glyph-name="four.tf" 
d="M530 272h80v-156h-80v-116h-200v116h-316v134l255 419h261v-397zM330 491l-130 -219h130v219z" />
    <glyph glyph-name="five.tf" 
d="M351 454q108 0 171 -62.5t63 -163.5q0 -108 -76.5 -174t-206.5 -66q-110 0 -183.5 48.5t-91.5 143.5l185 43q21 -67 88 -67q35 0 58.5 22.5t23.5 57.5q0 34 -23 56t-60 22q-25 0 -46.5 -12.5t-31.5 -33.5l-162 76l54 325h437v-166h-289l-14 -73q45 24 104 24z" />
    <glyph glyph-name="six.tf" 
d="M377 460q97 0 161 -62.5t64 -156.5q0 -112 -81.5 -182t-206.5 -70q-126 0 -207.5 70.5t-81.5 185.5q0 66 23.5 120.5t78.5 122.5l147 181h241l-173 -212q15 3 35 3zM312 155q35 0 58 23t23 57t-23 56.5t-57 22.5q-35 0 -58.5 -22.5t-23.5 -56.5t23 -57t58 -23z" />
    <glyph glyph-name="seven.tf" 
d="M74 496v173h478v-148l-226 -521h-226l226 496h-252z" />
    <glyph glyph-name="eight.tf" 
d="M502 361q51 -23 78 -66.5t27 -93.5q0 -93 -80.5 -152.5t-214.5 -59.5q-135 0 -214.5 59.5t-79.5 153.5q0 50 27 93t79 65q-74 44 -74 128q0 83 72.5 137.5t187.5 54.5q116 0 190 -54.5t74 -138.5q0 -81 -72 -126zM312 529q-31 0 -50.5 -18t-19.5 -45t19.5 -44.5
t51.5 -17.5q31 0 50.5 17.5t19.5 44.5t-20 45t-51 18zM312 146q35 0 58 20t23 50q0 31 -23 50.5t-58 19.5t-57.5 -19.5t-22.5 -50.5q0 -30 23 -50t57 -20z" />
    <glyph glyph-name="nine.tf" 
d="M310 680q127 0 208.5 -72t81.5 -185q0 -16 -2 -32t-4.5 -28.5t-9.5 -29t-10.5 -26t-15 -28t-16 -26t-20 -29t-20 -27.5t-24 -31t-24.5 -32l-103 -134h-241l165 214q-8 -1 -22 -1q-100 0 -165 61.5t-65 156.5q0 107 80.5 178t206.5 71zM227 434q0 -34 23 -57t57 -23
q35 0 58 22.5t23 57.5q0 34 -23 57t-57 23q-35 0 -58 -23t-23 -57z" />
    <glyph glyph-name="zero.tf.zero" 
d="M313 680q130 0 208.5 -96t78.5 -250q0 -153 -78.5 -249t-208.5 -96t-209 96t-79 249q0 154 79 250t209 96zM313 522q-54 0 -83.5 -50.5t-29.5 -136.5q0 -60 13 -100l158 266q-24 21 -58 21zM313 146q53 0 82.5 51t29.5 138q0 59 -13 99l-157 -267q24 -21 58 -21z" />
    <glyph glyph-name="zero.tosf" horiz-adv-x="592" 
d="M295 -11q-119 0 -195 80t-76 201q0 122 76 202.5t195 80.5q120 0 196.5 -80.5t76.5 -202.5q0 -121 -76.5 -201t-196.5 -80zM295 149q41 0 65.5 33t24.5 88q0 56 -24.5 89t-65.5 33q-40 0 -64 -33.5t-24 -88.5t24 -88t64 -33z" />
    <glyph glyph-name="one.tosf" horiz-adv-x="592" 
d="M428 535v-382h137v-153h-475v153h154v186l-146 -38v175l196 59h134z" />
    <glyph glyph-name="two.tosf" horiz-adv-x="592" 
d="M414 202l-74 -49h191v-153h-475v136l221 150q23 15 33 23t18 19t8 22q0 17 -13 28t-35 11t-39.5 -14t-17.5 -39l-174 19q-1 92 66 145.5t176 53.5q105 0 167 -51.5t62 -130.5q0 -93 -114 -170z" />
    <glyph glyph-name="three.tosf" horiz-adv-x="592" 
d="M524 396l-134 -108q74 -8 121 -56.5t47 -124.5q0 -104 -74.5 -169t-198.5 -65q-108 0 -178 52t-82 151l169 37q5 -39 29.5 -62t62.5 -23q36 0 60 24.5t24 60.5q0 29 -24.5 51t-59.5 22q-26 0 -64 -24l-68 101l146 120h-234v152h458v-139z" />
    <glyph glyph-name="four.tosf" horiz-adv-x="592" 
d="M500 166h74v-136h-74v-143h-177v143h-306v109l241 398h242v-371zM323 379l-122 -213h122v213z" />
    <glyph glyph-name="five.tosf" horiz-adv-x="592" 
d="M330 322q103 0 164 -61t61 -154q0 -104 -73.5 -169t-195.5 -65q-103 0 -173.5 48.5t-87.5 140.5l166 42q11 -38 36 -58t57 -20q38 0 63.5 26t25.5 66q0 31 -25 55t-64 24q-24 0 -47.5 -13.5t-35.5 -37.5l-147 70l52 319h416v-152h-282l-15 -87q44 26 105 26z" />
    <glyph glyph-name="six.tosf" horiz-adv-x="592" 
d="M352 438q91 0 154.5 -61.5t63.5 -150.5q0 -103 -77.5 -170t-194.5 -67t-195 67.5t-78 173.5q0 67 25.5 120t70.5 108l145 178h211l-168 -203q22 5 43 5zM295 134q38 0 65.5 25.5t27.5 62.5q0 36 -27 61.5t-65 25.5q-39 0 -65 -25.5t-26 -61.5t26 -62t64 -26z" />
    <glyph glyph-name="seven.tosf" horiz-adv-x="592" 
d="M66 370v165h459v-145l-243 -502h-211l241 482h-246z" />
    <glyph glyph-name="eight.tosf" horiz-adv-x="592" 
d="M460 343q49 -22 76.5 -64t27.5 -90q0 -87 -74.5 -143.5t-193.5 -56.5q-120 0 -193.5 56.5t-73.5 143.5q0 50 27.5 91t76.5 63q-75 43 -75 123q0 77 67 129t169 52q104 0 171.5 -52t67.5 -130q0 -81 -73 -122zM296 514q-29 0 -50 -20t-21 -48t19.5 -46t51.5 -18
q31 0 50.5 18.5t19.5 47.5q0 26 -21 46t-49 20zM296 126q33 0 55.5 22t22.5 52q0 31 -22.5 51.5t-56.5 20.5q-33 0 -56 -21t-23 -52q0 -30 23 -51.5t57 -21.5z" />
    <glyph glyph-name="nine.tosf" horiz-adv-x="592" 
d="M294 553q121 0 200.5 -70.5t79.5 -177.5q0 -16 -2.5 -32t-4.5 -28t-9.5 -29t-10.5 -26t-14.5 -27.5t-15.5 -25t-19.5 -27.5t-19 -25.5t-22.5 -29t-22 -28.5l-108 -139h-216l162 210q-20 -2 -30 -2q-96 0 -160 61t-64 155q0 103 78 172t198 69zM201 314q0 -38 26.5 -63.5
t64.5 -25.5q37 0 63.5 25.5t26.5 63.5t-26 63.5t-64 25.5q-37 0 -64 -25.5t-27 -63.5z" />
    <glyph glyph-name="zero.tosf.zero" horiz-adv-x="592" 
d="M295 553q117 0 194 -81t77 -202q0 -120 -77 -200.5t-194 -80.5q-115 0 -192 80.5t-77 200.5q0 121 76.5 202t192.5 81zM295 419q-51 0 -84 -42.5t-33 -106.5q0 -46 18 -81l147 219q-22 11 -48 11zM295 122q53 0 86.5 42t33.5 106q0 47 -19 83l-148 -220q22 -11 47 -11z
" />
    <glyph glyph-name="zero.dnom" horiz-adv-x="422" 
d="M210 -10q-79 0 -133.5 53.5t-54.5 131.5q0 79 54.5 132.5t133.5 53.5q80 0 134.5 -53.5t54.5 -132.5t-54.5 -132t-134.5 -53zM210 96q34 0 56.5 23t22.5 57t-22.5 56.5t-56.5 22.5q-33 0 -55 -22.5t-22 -56.5t22 -57t55 -23z" />
    <glyph glyph-name="one.dnom" horiz-adv-x="365" 
d="M250 356v-265h100v-96h-321v96h107v147l-104 -26v104l141 40h77z" />
    <glyph glyph-name="two.dnom" horiz-adv-x="366" 
d="M269 125l-53 -36h122v-93h-310v77l138 98q19 13 26.5 19.5t15.5 17.5t8 23q0 15 -10.5 24.5t-26.5 9.5q-42 0 -48 -53l-110 14q2 61 47.5 98.5t113.5 37.5q71 0 112 -35.5t41 -91.5q0 -65 -66 -110z" />
    <glyph glyph-name="three.dnom" horiz-adv-x="375" 
d="M332 266l-77 -45q42 -6 70 -33t28 -70q0 -57 -48 -92.5t-127 -35.5q-68 0 -112 27.5t-51 76.5l99 32q5 -20 22.5 -32.5t41.5 -12.5t39.5 12.5t15.5 31.5t-15.5 30t-39.5 11q-22 0 -48 -12l-38 56l94 52h-151v94h297v-90z" />
    <glyph glyph-name="four.dnom" horiz-adv-x="385" 
d="M321 142h45v-83h-45v-64h-112v64h-194v70l136 221h170v-208zM209 270l-75 -128h75v128z" />
    <glyph glyph-name="five.dnom" horiz-adv-x="358" 
d="M201 233q63 0 100.5 -32.5t37.5 -83.5q0 -55 -44 -91t-117 -36q-63 0 -107 27t-57 79l102 24q4 -16 20.5 -28t36.5 -12q22 0 37 12t15 30t-15 29t-36 11q-37 0 -51 -24l-92 44l32 174h256v-91h-172l-10 -44q27 12 64 12z" />
    <glyph glyph-name="six.dnom" horiz-adv-x="360" 
d="M218 243q55 0 91.5 -33.5t36.5 -83.5q0 -61 -45.5 -98.5t-116.5 -37.5t-117.5 38t-46.5 100q0 63 58 130l85 98h131l-100 -115q14 2 24 2zM182 80q22 0 36.5 12t14.5 30t-14.5 30.5t-36.5 12.5q-21 0 -35 -12.5t-14 -30.5t14 -30t35 -12z" />
    <glyph glyph-name="seven.dnom" horiz-adv-x="315" 
d="M19 259v97h279v-82l-136 -279h-128l137 264h-152z" />
    <glyph glyph-name="eight.dnom" horiz-adv-x="375" 
d="M291 190q63 -27 63 -88q0 -49 -46 -80.5t-120 -31.5q-75 0 -120.5 32t-45.5 82q0 59 62 86q-45 24 -45 68t42 73.5t105 29.5q65 0 106.5 -29t41.5 -74q0 -44 -43 -68zM188 280q-20 0 -33.5 -10t-13.5 -24q0 -15 13.5 -25t32.5 -10q20 0 33.5 10t13.5 25q0 14 -13.5 24
t-32.5 10zM187 71q22 0 37 11.5t15 27.5q0 17 -14.5 28.5t-36.5 11.5t-37.5 -11.5t-15.5 -28.5q0 -16 15 -27.5t37 -11.5z" />
    <glyph glyph-name="nine.dnom" horiz-adv-x="356" 
d="M174 361q72 0 118 -39t46 -100q0 -10 -1 -18.5t-4 -18.5t-5 -16t-8.5 -17t-9.5 -15.5t-12 -17.5t-12 -16.5t-15.5 -19t-15.5 -19.5l-54 -69h-135l91 115q-5 -1 -15 -1q-56 0 -92 33t-36 84q0 58 45 96.5t115 38.5zM126 228q0 -18 13.5 -30t35.5 -12t36 12t14 30
q0 19 -14 30.5t-36 11.5t-35.5 -11.5t-13.5 -30.5z" />
    <glyph glyph-name="zero.numr" horiz-adv-x="422" 
d="M210 310q-79 0 -133.5 53t-54.5 131q0 79 54.5 132.5t133.5 53.5q80 0 134.5 -53.5t54.5 -132.5t-54.5 -131.5t-134.5 -52.5zM210 415q34 0 56.5 23t22.5 57t-22.5 56.5t-56.5 22.5q-33 0 -55 -22.5t-22 -56.5t22 -57t55 -23z" />
    <glyph glyph-name="one.numr" horiz-adv-x="365" 
d="M250 676v-265h100v-96h-321v96h107v147l-104 -26v104l141 40h77z" />
    <glyph glyph-name="two.numr" horiz-adv-x="366" 
d="M269 445l-54 -37h123v-93h-310v77l138 99q2 1 10.5 7.5t11 8.5t9 7t8.5 8t5.5 8t4.5 10t1 10q0 15 -10 24.5t-27 9.5q-21 0 -33.5 -15.5t-14.5 -37.5l-110 15q2 61 47.5 98t113.5 37q71 0 112 -35t41 -91q0 -65 -66 -110z" />
    <glyph glyph-name="three.numr" horiz-adv-x="375" 
d="M332 586l-77 -45q42 -6 70 -33t28 -70q0 -57 -48 -92.5t-127 -35.5q-68 0 -112 27.5t-51 76.5l99 32q5 -20 22.5 -32.5t41.5 -12.5t39.5 12.5t15.5 31.5t-15.5 30t-39.5 11q-22 0 -48 -12l-38 56l94 52h-151v94h297v-90z" />
    <glyph glyph-name="four.numr" horiz-adv-x="385" 
d="M321 462h45v-83h-45v-64h-112v64h-194v70l136 221h170v-208zM209 590l-75 -128h75v128z" />
    <glyph glyph-name="five.numr" horiz-adv-x="358" 
d="M201 553q63 0 100.5 -32.5t37.5 -83.5q0 -55 -44 -91t-117 -36q-63 0 -107 27t-57 79l102 24q4 -16 20.5 -28t36.5 -12q22 0 37 12t15 30t-15 29t-36 11q-37 0 -51 -24l-92 44l32 174h256v-91h-172l-10 -44q27 12 64 12z" />
    <glyph glyph-name="six.numr" horiz-adv-x="360" 
d="M218 563q55 0 91.5 -33.5t36.5 -83.5q0 -61 -45.5 -98.5t-116.5 -37.5t-117.5 38t-46.5 100q0 63 58 130l85 98h131l-100 -115q14 2 24 2zM182 400q22 0 36.5 12t14.5 30t-14.5 30.5t-36.5 12.5q-21 0 -35 -12.5t-14 -30.5t14 -30t35 -12z" />
    <glyph glyph-name="seven.numr" horiz-adv-x="315" 
d="M19 579v97h279v-82l-136 -279h-128l137 264h-152z" />
    <glyph glyph-name="eight.numr" horiz-adv-x="375" 
d="M291 510q63 -27 63 -88q0 -49 -46 -80.5t-120 -31.5q-75 0 -120.5 32t-45.5 82q0 59 62 86q-45 24 -45 68t42 73.5t105 29.5q65 0 106.5 -29t41.5 -74q0 -44 -43 -68zM188 600q-20 0 -33.5 -10t-13.5 -24q0 -15 13.5 -25t32.5 -10q20 0 33.5 10t13.5 25q0 14 -13.5 24
t-32.5 10zM187 391q22 0 37 11.5t15 27.5q0 17 -14.5 28.5t-36.5 11.5t-37.5 -11.5t-15.5 -28.5q0 -16 15 -27.5t37 -11.5z" />
    <glyph glyph-name="nine.numr" horiz-adv-x="356" 
d="M174 681q72 0 118 -39t46 -100q0 -10 -1 -18.5t-4 -18.5t-5 -16t-8.5 -17t-9.5 -15.5t-12 -17.5t-12 -16.5t-15.5 -19t-15.5 -19.5l-54 -69h-135l91 115q-5 -1 -15 -1q-56 0 -92 33t-36 84q0 58 45 96.5t115 38.5zM126 548q0 -18 13.5 -30t35.5 -12t36 12t14 30
q0 19 -14 30.5t-36 11.5t-35.5 -11.5t-13.5 -30.5z" />
    <glyph glyph-name="colon.case" horiz-adv-x="330" 
d="M166 368q-50 0 -84 33.5t-34 82.5t34 83t84 34q49 0 82.5 -34t33.5 -83t-33.5 -82.5t-82.5 -33.5zM166 51q-50 0 -84 33.5t-34 82.5t34 83t84 34q49 0 82.5 -34t33.5 -83t-33.5 -82.5t-82.5 -33.5z" />
    <glyph glyph-name="semicolon.case" horiz-adv-x="334" 
d="M166 368q-50 0 -84 33.5t-34 82.5t34 83t84 34q49 0 82.5 -34t33.5 -83t-33.5 -82.5t-82.5 -33.5zM165 288q52 0 87.5 -35.5t35.5 -88.5q0 -119 -201 -290l-39 42q75 88 107 153q-47 0 -77.5 31.5t-30.5 72.5q0 49 34 82t84 33z" />
    <glyph glyph-name="exclamdown.case" horiz-adv-x="337" 
d="M168 693q46 0 78 -32.5t32 -78.5q0 -45 -32 -77.5t-78 -32.5t-78.5 32.5t-32.5 77.5q0 46 32.5 78.5t78.5 32.5zM51 -27l17 465h200l19 -465h-236z" />
    <glyph glyph-name="questiondown.case" horiz-adv-x="578" 
d="M306 693q46 0 77 -30.5t31 -76.5q0 -45 -31 -76t-77 -31t-76.5 31t-30.5 76q0 46 30.5 76.5t76.5 30.5zM209 438h197v-36q0 -37 -17 -67t-41 -49.5t-48 -35.5t-41 -33t-17 -34q0 -18 18.5 -32t49.5 -14q59 0 95 59l155 -98q-30 -59 -96 -96t-167 -37q-121 0 -194 56
t-73 148q0 41 18.5 75t45 55.5t52.5 39.5t44.5 37t18.5 38v24z" />
    <glyph glyph-name="periodcentered.case" horiz-adv-x="296" 
d="M148 243q-46 0 -78.5 32.5t-32.5 78.5t32 78t79 32t79 -32t32 -78t-32.5 -78.5t-78.5 -32.5z" />
    <glyph glyph-name="questiondown.ss11.case" horiz-adv-x="584" 
d="M306 693q46 0 77 -30.5t31 -76.5q0 -45 -31 -76t-77 -31t-76.5 31t-30.5 76q0 46 30.5 76.5t76.5 30.5zM209 438h197v-36q0 -36 -17 -65.5t-41 -48.5t-47.5 -35t-40.5 -33.5t-17 -37.5q0 -22 16 -34t40 -12q29 0 50.5 21t23.5 58l188 -23q0 -111 -77 -169t-197 -58
q-119 0 -188 54.5t-69 138.5q0 43 18.5 78t45 57.5t52.5 41.5t44.5 39t18.5 40v24z" />
    <glyph glyph-name="period.osf" horiz-adv-x="266" 
d="M133 -12q-43 0 -73 29.5t-30 71.5q0 43 30 72t73 29t72 -29t29 -72q0 -42 -29 -71.5t-72 -29.5z" />
    <glyph glyph-name="comma.osf" horiz-adv-x="273" 
d="M133 181q46 0 76.5 -31t30.5 -77q0 -106 -174 -252l-35 36q68 79 94 133q-41 -1 -67.5 26.5t-26.5 63.5q0 43 29 72t73 29z" />
    <glyph glyph-name="colon.osf" horiz-adv-x="292" 
d="M147 298q-44 0 -73.5 29t-29.5 72t29.5 72t73.5 29q43 0 72 -29t29 -72t-29 -72t-72 -29zM147 -11q-44 0 -73.5 29t-29.5 72t29.5 72t73.5 29q43 0 72 -29t29 -72t-29 -72t-72 -29z" />
    <glyph glyph-name="semicolon.osf" horiz-adv-x="285" 
d="M143 298q-43 0 -72.5 29t-29.5 71q0 43 29.5 72.5t72.5 29.5t72.5 -29t29.5 -73q0 -42 -29.5 -71t-72.5 -29zM144 179q46 0 76.5 -31t30.5 -77q0 -103 -174 -252l-35 36q66 76 94 133q-41 0 -67.5 27t-26.5 63q0 43 29.5 72t72.5 29z" />
    <glyph glyph-name="numbersign.osf" horiz-adv-x="672" 
d="M647 442l-22 -124h-77l-16 -98h88l-22 -126h-87l-16 -94h-162l17 94h-90l-17 -94h-163l19 94h-77l25 126h78l20 98h-87l24 124h89l19 93h152l-17 -93h90l17 93h153l-16 -93h78zM284 220h90l18 98h-90z" />
    <glyph glyph-name="comma.ss03" horiz-adv-x="309" 
d="M194 -191h-183l43 297h209z" />
    <glyph glyph-name="semicolon.ss03" horiz-adv-x="323" 
d="M164 311q-50 0 -83.5 33.5t-33.5 83.5q0 49 33.5 82t83.5 33t83.5 -33t33.5 -82q0 -50 -33.5 -83.5t-83.5 -33.5zM186 -191h-183l59 297h209z" />
    <glyph glyph-name="semicolon.case.ss03" horiz-adv-x="338" 
d="M174 368q-49 0 -83 33.5t-34 82.5t34 83t83 34q50 0 83.5 -33.5t33.5 -83.5q0 -49 -34 -82.5t-83 -33.5zM190 -138h-183l59 297h209z" />
    <glyph glyph-name="question.ss11" horiz-adv-x="584" 
d="M375 244h-197v35q0 36 17 65.5t41 48.5t47.5 35t40.5 34t17 37q0 22 -16 34.5t-40 12.5q-29 0 -50.5 -21.5t-23.5 -58.5l-188 24q0 110 77 168.5t197 58.5q119 0 188 -54.5t69 -138.5q0 -43 -18.5 -78t-45 -58t-52.5 -42t-44.5 -39t-18.5 -40v-23zM278 -11q-46 0 -77 30
t-31 76t31 76.5t77 30.5t76.5 -30.5t30.5 -76.5t-30.5 -76t-76.5 -30z" />
    <glyph glyph-name="questiondown.ss11" horiz-adv-x="579" 
d="M304 507q47 0 77.5 -30t30.5 -76t-31 -76.5t-77 -30.5t-76 30.5t-30 76.5t30 76t76 30zM207 252h198v-35q0 -36 -17 -65.5t-41 -48.5t-47.5 -35t-40.5 -34t-17 -37q0 -22 16 -34.5t40 -12.5q29 0 50 21.5t23 58.5l188 -24q0 -110 -76.5 -168.5t-196.5 -58.5t-189 54.5
t-69 138.5q0 43 18.5 78t45 58t52.5 42t44.5 39t18.5 40v23z" />
    <glyph glyph-name="parenleft.case" horiz-adv-x="388" 
d="M371 -136h-191q-44 52 -75.5 121.5t-45 136t-19 113.5t-5.5 82q0 32 5 77t18.5 111t45 135.5t76.5 121.5h191q-137 -217 -137 -447t137 -451z" />
    <glyph glyph-name="parenright.case" horiz-adv-x="387" 
d="M207 -136h-191q137 219 137 451q0 230 -137 447h191q45 -52 76.5 -121.5t45 -135.5t18.5 -111t5 -77q0 -35 -5.5 -82t-19 -113.5t-45 -136t-75.5 -121.5z" />
    <glyph glyph-name="braceleft.case" horiz-adv-x="438" 
d="M369 602q-33 0 -53 -20t-16 -61l8 -77q1 -8 1 -23q0 -79 -66 -107q66 -26 66 -107q0 -14 -1 -22l-8 -77q0 -1 -0.5 -5.5t-0.5 -7.5q0 -34 20 -51.5t50 -17.5q7 0 27 4v-168q-65 -7 -90 -7q-82 0 -136.5 47t-54.5 142q0 9 2 31l8 87q4 46 -18 61.5t-81 15.5v151
q59 0 81 15t18 62l-8 87q-2 22 -2 31q0 95 54.5 142t136.5 47q34 0 90 -8v-167q-15 3 -27 3z" />
    <glyph glyph-name="braceright.case" horiz-adv-x="438" 
d="M321 554l-8 -87l-1 -5v-10q0 -37 23 -49.5t77 -12.5v-151q-59 0 -81 -15.5t-18 -61.5l8 -87q1 -10 1 -30q0 -96 -54.5 -143t-135.5 -47q-25 0 -90 7v168q18 -4 27 -4q33 0 53 20.5t16 61.5l-8 77q-1 8 -1 22q0 81 65 107q-65 28 -65 107q0 15 1 23l8 77q0 1 0.5 5.5
t0.5 7.5q0 34 -20 51t-50 17q-13 0 -27 -3v167q56 8 90 8q81 0 135.5 -47t54.5 -143q0 -20 -1 -30z" />
    <glyph glyph-name="bracketleft.case" horiz-adv-x="442" 
d="M407 -137h-345v899h345v-178h-145v-542h145v-179z" />
    <glyph glyph-name="bracketright.case" horiz-adv-x="442" 
d="M381 762v-899h-346v179h146v542h-146v178h346z" />
    <glyph glyph-name="hyphen.case" horiz-adv-x="446" 
d="M392 250h-338v168h338v-168z" />
    <glyph glyph-name="endash.case" horiz-adv-x="649" 
d="M595 250h-541v168h541v-168z" />
    <glyph glyph-name="emdash.case" horiz-adv-x="1021" 
d="M967 250h-913v168h913v-168z" />
    <glyph glyph-name="guillemotleft.case" horiz-adv-x="655" 
d="M344 97h-218l-100 225l108 220h218l-109 -220zM621 97h-219l-99 225l108 220h218l-109 -220z" />
    <glyph glyph-name="guillemotright.case" horiz-adv-x="655" 
d="M352 322l-99 -225h-219l101 225l-109 220h218zM629 322l-99 -225h-219l101 225l-109 220h218z" />
    <glyph glyph-name="guilsinglleft.case" horiz-adv-x="386" 
d="M351 97h-219l-106 223l115 222h218l-116 -222z" />
    <glyph glyph-name="guilsinglright.case" horiz-adv-x="386" 
d="M359 320l-105 -223h-220l108 223l-116 222h219z" />
    <glyph glyph-name="quotesingle.ss05" horiz-adv-x="298" 
d="M147 770q50 0 91.5 -38t41.5 -99q0 -36 -15 -72t-32.5 -60.5t-49.5 -54.5t-48 -41.5t-46 -33.5q-8 -6 -11 -8l-36 39q94 94 94 132q0 17 -16.5 28.5t-37 18.5t-37 28t-16.5 54q0 48 35 77.5t83 29.5z" />
    <glyph glyph-name="quotesinglbase.ss10" horiz-adv-x="312" 
d="M150 176q50 0 91 -38.5t41 -99.5q0 -44 -19 -85.5t-54 -76.5t-59.5 -55t-58.5 -45q-7 -5 -10 -7l-37 39q94 93 94 131q0 17 -16.5 28.5t-37 19t-37 28.5t-16.5 54q0 47 35.5 77t83.5 30z" />
    <glyph glyph-name="quotedblbase.ss10" horiz-adv-x="598" 
d="M150 176q50 0 91 -38.5t41 -99.5q0 -44 -19 -85.5t-54 -76.5t-59.5 -55t-58.5 -45q-7 -5 -10 -7l-37 39q94 93 94 131q0 17 -16.5 28.5t-37 19t-37 28.5t-16.5 54q0 47 35.5 77t83.5 30zM436 176q50 0 91.5 -38t41.5 -100q0 -36 -15 -71.5t-32.5 -60t-49.5 -54.5
t-48 -41.5t-46 -33.5q-3 -2 -4 -3t-3 -2.5t-4 -2.5l-37 39q95 94 95 131q0 17 -16.5 28.5t-37 19t-37 28.5t-16.5 54q0 47 35 77t83 30z" />
    <glyph glyph-name="quotedblleft.ss10" horiz-adv-x="586" 
d="M154 371q-50 0 -91.5 38t-41.5 100q0 19 4.5 38.5t10.5 36t18 34.5t20.5 30t25 29t25 25.5t28 23.5t25.5 19.5t24.5 18t19.5 14.5l37 -39q-94 -94 -94 -131q0 -17 16.5 -28.5t37 -19t37 -28.5t16.5 -54q0 -47 -35.5 -77t-82.5 -30zM441 371q-50 0 -91.5 38t-41.5 100
q0 44 19.5 86t52 75t60.5 56t58 44q8 5 12 8l36 -39q-94 -94 -94 -131q0 -17 16.5 -28.5t37 -19t37 -28.5t16.5 -54q0 -47 -35 -77t-83 -30z" />
    <glyph glyph-name="quotedblright.ss10" horiz-adv-x="585" 
d="M147 770q50 0 91.5 -38t41.5 -99q0 -36 -15 -72t-32.5 -60.5t-49.5 -54.5t-48 -41.5t-46 -33.5q-8 -6 -11 -8l-36 39q94 94 94 132q0 17 -16.5 28.5t-37 18.5t-37 28t-16.5 54q0 48 35 77.5t83 29.5zM434 770q50 0 91 -38t41 -99q0 -44 -19 -86t-54 -77t-59.5 -55
t-58.5 -45q-7 -5 -10 -7l-37 39q94 93 94 132q0 17 -16.5 28.5t-37 18.5t-37 28t-16.5 54q0 48 35.5 77.5t83.5 29.5z" />
    <glyph glyph-name="quoteleft.ss10" horiz-adv-x="299" 
d="M154 371q-50 0 -91.5 38t-41.5 100q0 19 4.5 38.5t10.5 36t18 34.5t20.5 30t25 29t25 25.5t28 23.5t25.5 19.5t24.5 18t19.5 14.5l37 -39q-94 -94 -94 -131q0 -17 16.5 -28.5t37 -19t37 -28.5t16.5 -54q0 -47 -35.5 -77t-82.5 -30z" />
    <glyph glyph-name="quoteright.ss10" horiz-adv-x="298" 
d="M147 770q50 0 91.5 -38t41.5 -99q0 -36 -15 -72t-32.5 -60.5t-49.5 -54.5t-48 -41.5t-46 -33.5q-8 -6 -11 -8l-36 39q94 94 94 132q0 17 -16.5 28.5t-37 18.5t-37 28t-16.5 54q0 48 35 77.5t83 29.5z" />
    <glyph glyph-name="uni20BF.osf" horiz-adv-x="572" 
d="M545 164q0 -65 -38.5 -106t-113.5 -53v-119h-101v114h-46v-114h-100v114h-96v536h96v128h99v-128h46v128h100v-131q64 -11 97.5 -49t33.5 -91q0 -74 -64 -103q40 -13 63.5 -45.5t23.5 -80.5zM362 364q0 17 -14 28t-34 11h-99v-78h95q22 0 37 10t15 29zM326 216h-111v-82
h108q24 0 39 11.5t15 29.5q0 17 -15 29t-36 12z" />
    <glyph glyph-name="cent.osf" horiz-adv-x="593" 
d="M309 161q35 0 64.5 21.5t37.5 53.5l164 -70q-19 -61 -72.5 -105.5t-132.5 -58.5v-125h-133v126q-100 19 -158.5 89.5t-58.5 174.5q0 105 58.5 176.5t158.5 91.5v128h133v-124q84 -13 140.5 -62.5t71.5 -128.5l-172 -46q-7 33 -36.5 54.5t-65.5 21.5q-45 0 -75.5 -31.5
t-30.5 -77.5t30.5 -77t76.5 -31z" />
    <glyph glyph-name="dollar.osf" horiz-adv-x="570" 
d="M540 175q0 -65 -42.5 -111t-118.5 -64v-109h-169v103q-117 18 -186 78l68 132q100 -66 203 -66q75 0 75 26q0 4 -1.5 7.5t-5.5 6t-8.5 5t-11.5 4.5t-13 3l-15 2.5t-16 2.5t-18 2.5t-18 2.5q-36 5 -57.5 9.5t-55 17t-52.5 29t-34 47.5t-15 71q0 64 42.5 108.5t118.5 61.5
v112h169v-110q87 -15 150 -56l-68 -128q-71 47 -171 47q-73 0 -73 -24q0 -5 2.5 -8.5t7.5 -6.5t10 -4.5t14 -3.5t14.5 -3t17 -2.5t16.5 -2.5q107 -18 146 -36q95 -41 95 -143z" />
    <glyph glyph-name="Euro.osf" horiz-adv-x="610" 
d="M424 138q81 0 148 23v-143q-69 -29 -176 -29q-119 0 -199 55t-105 148h-68v61h59q-1 7 -1 20v13h-58v61h67q25 94 105.5 150t193.5 56q104 0 170 -41v-143q-26 14 -68 24.5t-74 10.5q-100 0 -143 -57h204v-61h-227q-1 -5 -1 -16t1 -17h227v-61h-202q46 -54 147 -54z" />
    <glyph glyph-name="uni20BD.osf" horiz-adv-x="634" 
d="M407 174h-109v-34h149v-91h-149v-49h-184v49h-77v91h77v34h-77v108h77v253h296q86 0 141.5 -51t55.5 -130q0 -80 -54.5 -130t-145.5 -50zM366 388h-68v-106h65q28 0 47 15t19 37q0 24 -18 39t-45 15z" />
    <glyph glyph-name="sterling.osf" horiz-adv-x="566" 
d="M437 206h-158q-3 -34 -17 -59h261v-147h-465l-26 131q46 15 62 30.5t18 44.5h-73v115h43q-10 28 -10 57q0 78 64 126.5t167 48.5q30 0 56 -3t60 -15t57.5 -31.5t40.5 -56.5t17 -87l-157 -10q-1 54 -67 54q-29 0 -47 -13.5t-18 -35.5q0 -14 9 -34h183v-115z" />
    <glyph glyph-name="yen.osf" horiz-adv-x="630" 
d="M415 535h198l-157 -283h74v-74h-116l-8 -15v-26h124v-75h-124v-62h-184v62h-122v75h122v26l-8 15h-114v74h73l-156 283h197l100 -220z" />
    <glyph glyph-name="uni20BF.tf" 
d="M28 669h116v116h117v-116h60v116h117v-120q79 -12 119.5 -59.5t40.5 -115.5q0 -93 -77 -128q104 -35 104 -156q0 -83 -46.5 -134.5t-139.5 -66.5v-119h-117v114h-60v-114h-116v114h-118v669zM233 272v-108h125q28 0 44 15.5t16 39.5q0 23 -16 38t-41 15h-128zM342 404
q26 0 43 13q16 13 16 37t-15.5 38t-39.5 14h-113v-102h109z" />
    <glyph glyph-name="cent.tf" 
d="M93 481q58 71 158 91v115h133v-112q84 -13 140.5 -62.5t71.5 -128.5l-181 -48q-6 31 -31 51t-59 20q-42 0 -69 -28.5t-27 -73.5q0 -44 27.5 -72t69.5 -28q33 0 58.5 19.5t33.5 49.5l172 -72q-19 -62 -72.5 -106t-133.5 -58v-125h-133v126q-100 20 -158.5 90.5
t-58.5 174.5q0 105 59 177z" />
    <glyph glyph-name="dollar.tf" 
d="M597 218q0 -79 -45.5 -134.5t-126.5 -79.5v-134h-198v126q-125 20 -204 92l79 154q46 -34 106 -57.5t118 -23.5q72 0 72 37q0 13 -8 22t-26 14.5t-33.5 9t-43.5 7.5q-37 6 -63.5 12.5t-61.5 21.5t-57 36t-37.5 56t-15.5 81q0 81 46 135t129 74v139h198v-133
q105 -19 160 -62l-69 -157q-34 23 -89.5 40t-106.5 17q-69 0 -69 -36q0 -14 13 -23.5t28 -13.5t41 -8q35 -6 50 -9t49.5 -12.5t51.5 -18t42.5 -25t38 -36t22.5 -48t10 -63.5z" />
    <glyph glyph-name="Euro.tf" 
d="M446 153q94 0 172 30v-161q-30 -15 -87.5 -25.5t-112.5 -10.5q-134 0 -225 67.5t-120 180.5h-78v75h67q-1 8 -1 23t1 22h-67v76h78q29 115 120 183.5t217 68.5q57 0 110.5 -13.5t84.5 -35.5v-163q-33 21 -81.5 33.5t-90.5 12.5q-111 0 -161 -86h242v-76h-267
q-1 -8 -1 -24q0 -14 1 -21h267v-75h-242q50 -81 174 -81z" />
    <glyph glyph-name="uni20B4.tf" 
d="M622 448v-83h-123q-21 -18 -69 -45h192v-83h-338q-14 -17 -14 -35q0 -19 18.5 -29.5t49.5 -10.5q47 0 115.5 8t104.5 19l11 -159q-45 -17 -111.5 -29t-123.5 -12q-261 0 -261 188q0 33 9 60h-80v83h134q24 22 67 45h-201v83h365q7 10 7 26q0 43 -76 43q-85 0 -175 -29
l-15 154q103 38 197 38q263 0 263 -186q0 -25 -6 -46h60z" />
    <glyph glyph-name="uni20BD.tf" 
d="M395 223h-113v-47h170v-104h-170v-72h-200v72h-79v104h79v47h-79v123h79v323h316q100 0 164.5 -63t64.5 -160q0 -99 -63.5 -161t-168.5 -62zM348 502h-66v-156h64q35 0 57.5 22t22.5 56t-22 56t-56 22z" />
    <glyph glyph-name="sterling.tf" 
d="M486 259h-174q-3 -53 -23 -89h294v-170h-525l-28 151q54 19 71 40.5t18 67.5h-81v132h48q-12 38 -12 75q0 95 73 155t188 60q32 0 62.5 -4t68.5 -19t65 -39.5t46.5 -69t19.5 -104.5l-181 -11q-1 76 -73 76q-31 0 -50.5 -19.5t-19.5 -48.5q0 -22 12 -51h201v-132z" />
    <glyph glyph-name="yen.tf" 
d="M217 669l96 -275l95 275h222l-170 -349h81v-103h-126v-36h126v-104h-126v-77h-207v77h-123v104h123v36h-123v103h78l-168 349h222z" />
    </font>
</defs>
</svg>
