<svg width="156" height="30" viewBox="0 0 156 30" fill="none" xmlns="http://www.w3.org/2000/svg">
<g clip-path="url(#clip0)">
<path d="M34.8884 0H3.03116C2.48567 0 1.96251 0.216711 1.57679 0.60246C1.19106 0.988208 0.974365 1.5114 0.974365 2.05693V27.9473C0.974365 28.4928 1.19106 29.016 1.57679 29.4017C1.96251 29.7875 2.48567 30.0042 3.03116 30.0042H34.8884C35.4339 30.0042 35.957 29.7875 36.3427 29.4017C36.7285 29.016 36.9452 28.4928 36.9452 27.9473V2.05693C36.9452 1.5114 36.7285 0.988208 36.3427 0.60246C35.957 0.216711 35.4339 0 34.8884 0ZM32.9409 1.977C33.2005 1.977 33.4542 2.05398 33.67 2.19818C33.8858 2.34239 34.054 2.54736 34.1534 2.78717C34.2527 3.02698 34.2787 3.29086 34.228 3.54543C34.1774 3.80001 34.0524 4.03386 33.8689 4.2174C33.6853 4.40094 33.4515 4.52594 33.197 4.57658C32.9424 4.62722 32.6785 4.60123 32.4387 4.50189C32.1989 4.40256 31.994 4.23435 31.8498 4.01853C31.7056 3.8027 31.6286 3.54897 31.6286 3.2894C31.6286 2.94133 31.7669 2.60752 32.013 2.3614C32.2591 2.11527 32.5929 1.977 32.9409 1.977ZM28.2595 1.977C28.5191 1.977 28.7728 2.05398 28.9886 2.19818C29.2044 2.34239 29.3726 2.54736 29.4719 2.78717C29.5713 3.02698 29.5972 3.29086 29.5466 3.54543C29.496 3.80001 29.371 4.03386 29.1875 4.2174C29.0039 4.40094 28.7701 4.52594 28.5155 4.57658C28.261 4.62722 27.9971 4.60123 27.7573 4.50189C27.5175 4.40256 27.3126 4.23435 27.1684 4.01853C27.0242 3.8027 26.9472 3.54897 26.9472 3.2894C26.9472 3.11705 26.9811 2.94639 27.0471 2.78717C27.113 2.62794 27.2097 2.48326 27.3316 2.3614C27.4534 2.23953 27.5981 2.14286 27.7573 2.0769C27.9165 2.01095 28.0872 1.977 28.2595 1.977ZM23.5781 1.977C23.8376 1.977 24.0914 2.05398 24.3072 2.19818C24.523 2.34239 24.6912 2.54736 24.7905 2.78717C24.8898 3.02698 24.9158 3.29086 24.8652 3.54543C24.8146 3.80001 24.6896 4.03386 24.506 4.2174C24.3225 4.40094 24.0887 4.52594 23.8341 4.57658C23.5795 4.62722 23.3157 4.60123 23.0759 4.50189C22.8361 4.40256 22.6311 4.23435 22.4869 4.01853C22.3427 3.8027 22.2658 3.54897 22.2658 3.2894C22.2658 2.94133 22.404 2.60752 22.6501 2.3614C22.8963 2.11527 23.23 1.977 23.5781 1.977ZM34.3037 27.3416H3.59899V6.37269H34.3037V27.3289V27.3416Z" fill="#576472"/>
<path d="M13.1721 25.1121C13.3826 24.7613 13.7022 24.4891 14.082 24.3372C14.4618 24.1853 14.8809 24.162 15.2752 24.2708C15.4559 24.3336 15.6475 24.3593 15.8383 24.3465C16.0292 24.3336 16.2156 24.2825 16.3863 24.1962C16.557 24.1098 16.7086 23.99 16.8321 23.8439C16.9555 23.6977 17.0483 23.5282 17.1049 23.3454C17.2439 22.9768 17.2338 22.5686 17.0767 22.2073C16.9196 21.8461 16.628 21.5602 16.2636 21.4105C15.9062 21.2483 15.613 20.9718 15.4302 20.6244C15.2474 20.2771 15.1855 19.8788 15.2542 19.4924C15.3163 19.0889 15.5186 18.7202 15.8255 18.4509C16.1324 18.1817 16.5243 18.0292 16.9324 18.0201C17.3374 18.0134 17.7231 17.8461 18.0047 17.555C18.2863 17.264 18.4407 16.8729 18.434 16.468C18.4273 16.063 18.26 15.6773 17.969 15.3957C17.6779 15.114 17.2869 14.9596 16.882 14.9663C16.4721 14.9551 16.0782 14.805 15.7649 14.5405C15.4516 14.2761 15.2374 13.913 15.1574 13.5109C15.1117 13.2676 15.1117 13.018 15.1574 12.7747C15.2003 12.506 15.3066 12.2513 15.4675 12.0319C15.6284 11.8124 15.8394 11.6345 16.0828 11.5128C16.4309 11.3265 16.6932 11.0125 16.8148 10.6368C16.9364 10.2611 16.9077 9.85294 16.7347 9.49797C16.6709 9.31168 16.5709 9.13982 16.4405 8.99223C16.3101 8.84465 16.1519 8.72423 15.9749 8.63788C15.7979 8.55153 15.6056 8.50094 15.409 8.48901C15.2125 8.47708 15.0155 8.50404 14.8294 8.56835C14.4492 8.72056 14.0272 8.73249 13.639 8.602C13.3054 8.45186 13.0157 8.2187 12.7978 7.92477C12.6328 7.70477 12.5161 7.45245 12.4552 7.18427C12.3943 6.91609 12.3907 6.63809 12.4445 6.36841H5.43708C8.68842 8.11406 11.7841 11.6222 11.8598 16.2787C11.944 21.3263 9.27307 25.4023 5.34454 27.3373H13.2605C12.9962 27.0311 12.8436 26.6443 12.8275 26.2401C12.8115 25.836 12.933 25.4383 13.1721 25.1121Z" fill="#949CA5"/>
<path d="M23.0692 8.39168C23.3862 8.65228 23.6037 9.01425 23.6849 9.41655C23.7661 9.81884 23.7061 10.2368 23.515 10.6C23.3596 10.9791 23.0841 11.2968 22.7308 11.5042C22.3775 11.7116 21.9659 11.7974 21.5592 11.7484C21.3698 11.7117 21.1749 11.7137 20.9864 11.7545C20.7979 11.7953 20.6195 11.8739 20.4623 11.9856C20.305 12.0972 20.172 12.2397 20.0713 12.4042C19.9707 12.5688 19.9045 12.7521 19.8767 12.943C19.7938 13.3262 19.8627 13.7267 20.0691 14.0601C20.2754 14.3935 20.603 14.6339 20.9829 14.7307C21.3614 14.8356 21.694 15.0639 21.928 15.3794C22.1619 15.6949 22.2838 16.0795 22.2742 16.4722C22.2694 16.8702 22.1281 17.2544 21.8739 17.5607C21.6197 17.867 21.268 18.0767 20.8778 18.1547C20.4784 18.2233 20.1226 18.4478 19.8888 18.7787C19.6549 19.1096 19.562 19.5199 19.6306 19.9193C19.6993 20.3187 19.9237 20.6745 20.2546 20.9084C20.5855 21.1423 20.9958 21.2351 21.3951 21.1665C21.8017 21.1149 22.2137 21.2029 22.5637 21.4162C22.9137 21.6294 23.1809 21.9551 23.3215 22.3401C23.4027 22.5738 23.4398 22.8205 23.4309 23.0678C23.4315 23.3417 23.3665 23.6118 23.2414 23.8555C23.1162 24.0992 22.9346 24.3094 22.7116 24.4685C22.3926 24.7062 22.179 25.0589 22.1161 25.4518C22.0533 25.8446 22.1462 26.2464 22.3751 26.5717C22.5826 26.895 22.8731 27.1565 23.2164 27.3289H32.5792C29.6013 25.8524 26.8336 23.0762 26.1565 19.1264C25.1975 13.5277 27.8389 8.64827 32.2764 6.36841H22.7327C22.5188 6.68452 22.4344 7.07071 22.497 7.44722C22.5597 7.82373 22.7645 8.16183 23.0692 8.39168Z" fill="#89929B"/>
<path d="M25.7669 27.636H25.4919C25.5817 27.6624 25.6771 27.6624 25.7669 27.636Z" fill="#949CA5"/>
<path d="M43.9652 14.7771C43.9628 14.2066 44.0479 13.6392 44.2175 13.0945C44.3776 12.5788 44.6474 12.1038 45.0083 11.7022C45.3856 11.2853 45.8531 10.9601 46.3753 10.7515C47.0216 10.5094 47.7085 10.3938 48.3984 10.4108C48.9971 10.3974 49.5935 10.4885 50.1608 10.68C50.6105 10.833 51.0212 11.0828 51.3638 11.4119C51.5377 11.5852 51.6385 11.8185 51.6456 12.0639C51.6635 12.3059 51.6046 12.5473 51.4773 12.7538C51.3418 12.9603 51.1353 13.1099 50.8969 13.1744C50.5712 13.245 50.2309 13.1878 49.9463 13.0146C49.7333 12.9023 49.5126 12.8053 49.2859 12.7243C49.0012 12.6304 48.7024 12.5863 48.4026 12.5939C48.1117 12.5725 47.8197 12.6173 47.5487 12.7252C47.2776 12.833 47.0346 13.001 46.838 13.2165C46.4677 13.6965 46.2825 14.2938 46.3164 14.8991V16.3418C46.2825 16.9471 46.4677 17.5444 46.838 18.0244C47.0344 18.2401 47.2774 18.4083 47.5485 18.5161C47.8196 18.624 48.1117 18.6687 48.4026 18.6469C48.7201 18.651 49.0367 18.6142 49.3448 18.5376C49.5751 18.483 49.7972 18.3981 50.0052 18.2852C50.2435 18.1454 50.5228 18.0919 50.7959 18.1338C51.0243 18.1696 51.2335 18.2824 51.389 18.4535C51.5366 18.6218 51.6277 18.8322 51.6498 19.055C51.6687 19.3137 51.5874 19.5697 51.4226 19.7701C51.1126 20.1551 50.6885 20.4319 50.2113 20.5609C49.6249 20.7455 49.0131 20.8363 48.3984 20.8301C47.7082 20.8457 47.0214 20.7286 46.3753 20.4851C45.8478 20.2814 45.3743 19.959 44.9915 19.5429C44.6305 19.1413 44.3607 18.6664 44.2007 18.1506C44.031 17.606 43.9459 17.0385 43.9484 16.468V14.7855L43.9652 14.7771Z" fill="#576472"/>
<path d="M53.8875 7.9458C53.8902 7.81911 53.9215 7.69467 53.979 7.58178C54.0365 7.46888 54.1188 7.37044 54.2197 7.29381C54.4632 7.0912 54.774 6.98759 55.0904 7.00356C55.3981 6.98565 55.7004 7.08996 55.9316 7.29381C56.0269 7.37405 56.104 7.47373 56.1577 7.58617C56.2114 7.69861 56.2404 7.82122 56.2429 7.9458V19.892C56.2404 20.0165 56.2114 20.1391 56.1577 20.2516C56.104 20.364 56.0269 20.4637 55.9316 20.5439C55.7004 20.7478 55.3981 20.8521 55.0904 20.8342C54.774 20.8502 54.4632 20.7466 54.2197 20.5439C54.1188 20.4673 54.0365 20.3689 53.979 20.256C53.9215 20.1431 53.8902 20.0186 53.8875 19.892V7.9458Z" fill="#576472"/>
<path d="M59.4353 7.75656C59.4387 7.63059 59.4703 7.50698 59.5278 7.39486C59.5853 7.28274 59.6673 7.18497 59.7676 7.10878C60.0111 6.90617 60.3219 6.80256 60.6383 6.81854C60.9459 6.80108 61.2481 6.90533 61.4795 7.10878C61.5747 7.1882 61.6518 7.28712 61.7055 7.39888C61.7591 7.51063 61.7882 7.6326 61.7908 7.75656V8.23188C61.7882 8.35584 61.7591 8.47782 61.7055 8.58957C61.6518 8.70132 61.5747 8.80025 61.4795 8.87967C61.2474 9.08159 60.9453 9.18431 60.6383 9.1657C60.3225 9.18285 60.0117 9.08077 59.7676 8.87967C59.6673 8.80348 59.5853 8.70571 59.5278 8.59359C59.4703 8.48146 59.4387 8.35785 59.4353 8.23188V7.75656ZM59.4353 11.353C59.438 11.2263 59.4693 11.1019 59.5269 10.989C59.5844 10.8761 59.6667 10.7777 59.7676 10.701C60.0111 10.4984 60.3219 10.3948 60.6383 10.4108C60.946 10.3929 61.2483 10.4972 61.4795 10.701C61.5748 10.7813 61.6519 10.881 61.7056 10.9934C61.7592 11.1058 61.7883 11.2285 61.7908 11.353V19.892C61.7883 20.0166 61.7592 20.1392 61.7056 20.2516C61.6519 20.3641 61.5748 20.4638 61.4795 20.544C61.2483 20.7478 60.946 20.8522 60.6383 20.8342C60.3219 20.8502 60.0111 20.7466 59.7676 20.544C59.6667 20.4674 59.5844 20.3689 59.5269 20.256C59.4693 20.1431 59.438 20.0187 59.4353 19.892V11.353Z" fill="#576472"/>
<path d="M64.4869 14.7771C64.4845 14.2066 64.5696 13.6392 64.7393 13.0945C64.8994 12.5788 65.1691 12.1038 65.53 11.7022C65.9129 11.2861 66.3864 10.9637 66.9138 10.76C67.5602 10.5179 68.247 10.4022 68.937 10.4192C69.5356 10.4058 70.132 10.4969 70.6994 10.6885C71.1491 10.8414 71.5598 11.0912 71.9023 11.4204C72.0762 11.5936 72.1771 11.827 72.1841 12.0724C72.202 12.3143 72.1432 12.5557 72.0159 12.7622C71.8804 12.9687 71.6739 13.1184 71.4354 13.1828C71.1098 13.2534 70.7695 13.1962 70.4848 13.023C70.2719 12.9108 70.0512 12.8138 69.8245 12.7328C69.5397 12.6389 69.2409 12.5948 68.9412 12.6024C68.6503 12.5809 68.3583 12.6258 68.0872 12.7336C67.8162 12.8414 67.5732 13.0094 67.3765 13.2249C67.0062 13.7049 66.8211 14.3022 66.855 14.9075V16.3503C66.8211 16.9556 67.0062 17.5528 67.3765 18.0328C67.573 18.2485 67.816 18.4167 68.0871 18.5246C68.3582 18.6324 68.6502 18.6772 68.9412 18.6554C69.2586 18.6594 69.5753 18.6226 69.8834 18.546C70.1136 18.4913 70.3357 18.4065 70.5437 18.2936C70.7821 18.1538 71.0613 18.1003 71.3345 18.1422C71.5628 18.178 71.7721 18.2908 71.9275 18.4619C72.0751 18.6302 72.1663 18.8406 72.1883 19.0634C72.2085 19.3196 72.1303 19.5738 71.9696 19.7743C71.6622 20.1555 71.2429 20.4307 70.7709 20.5609C70.1845 20.7455 69.5727 20.8363 68.958 20.8301C68.268 20.847 67.5812 20.7314 66.9349 20.4894C66.4073 20.2858 65.9338 19.9633 65.551 19.5471C65.19 19.1456 64.9203 18.6706 64.7603 18.1548C64.5906 17.6102 64.5055 17.0427 64.5079 16.4722V14.7897L64.4869 14.7771Z" fill="#576472"/>
<path d="M74.5563 7.9458C74.559 7.81911 74.5903 7.69467 74.6479 7.58178C74.7054 7.46888 74.7877 7.37044 74.8886 7.29381C75.1321 7.0912 75.4429 6.98759 75.7593 7.00356C76.067 6.98565 76.3693 7.08996 76.6005 7.29381C76.6958 7.37405 76.7729 7.47373 76.8266 7.58617C76.8803 7.69861 76.9093 7.82122 76.9118 7.9458V14.2175H77.8329L80.7393 10.6884C80.9505 10.5066 81.2222 10.4106 81.5007 10.4192C81.657 10.4188 81.8118 10.4495 81.9562 10.5094C82.1006 10.5694 82.2317 10.6573 82.3419 10.7683C82.4486 10.8782 82.5285 11.0114 82.5752 11.1573C82.6219 11.3033 82.6342 11.4581 82.6111 11.6096C82.5844 11.8785 82.4602 12.1284 82.262 12.312L79.6752 15.1598L82.8634 19.1474C82.9435 19.2437 82.9997 19.3574 83.0275 19.4795C83.0553 19.6016 83.0538 19.7285 83.0233 19.8499C82.9863 20.0031 82.9193 20.1474 82.8262 20.2745C82.7331 20.4015 82.6156 20.5089 82.4807 20.5902C82.2402 20.7714 81.9377 20.85 81.6395 20.809C81.5137 20.7981 81.3913 20.7624 81.2794 20.7039C81.1674 20.6454 81.0682 20.5653 80.9875 20.4682L77.7951 16.2787H76.9118V19.8877C76.9093 20.0123 76.8803 20.1349 76.8266 20.2474C76.7729 20.3598 76.6958 20.4595 76.6005 20.5397C76.3693 20.7436 76.067 20.8479 75.7593 20.83C75.4429 20.846 75.1321 20.7423 74.8886 20.5397C74.7877 20.4631 74.7054 20.3647 74.6479 20.2518C74.5903 20.1389 74.559 20.0144 74.5563 19.8877V7.9458Z" fill="#576472"/>
<path d="M90.7794 10.6085V10.007C90.7794 8.75069 91.0836 7.86875 91.6921 7.36118C92.3006 6.85361 93.1923 6.60123 94.3672 6.60403C94.6496 6.60303 94.9313 6.6298 95.2084 6.68395C95.4568 6.73162 95.6964 6.81672 95.9193 6.93634C96.1117 7.03943 96.2796 7.18292 96.4114 7.35698C96.5305 7.51263 96.5941 7.70362 96.5922 7.8996C96.6059 8.15448 96.5234 8.4052 96.3609 8.60207C96.2718 8.69314 96.164 8.76366 96.0448 8.8087C95.9257 8.85375 95.7981 8.87223 95.6711 8.86286C95.465 8.86555 95.2596 8.83863 95.0612 8.78294C94.8361 8.72427 94.6039 8.69736 94.3714 8.70302C94.0206 8.66703 93.6695 8.76801 93.3914 8.98485C93.1756 9.25698 93.0745 9.60258 93.1096 9.94811V10.6295H94.6532C94.7652 10.6295 94.8761 10.6517 94.9794 10.6951C95.0827 10.7384 95.1763 10.8019 95.2547 10.8819C95.3415 10.9662 95.4095 11.0679 95.4545 11.1802C95.4994 11.2925 95.5202 11.413 95.5155 11.5339C95.5221 11.6607 95.5024 11.7875 95.4575 11.9062C95.4126 12.025 95.3435 12.1331 95.2547 12.2238C95.1763 12.3038 95.0827 12.3673 94.9794 12.4106C94.8761 12.454 94.7652 12.4763 94.6532 12.4762H93.1054V19.8878C93.1029 20.0124 93.0738 20.135 93.0202 20.2474C92.9665 20.3599 92.8894 20.4596 92.7941 20.5398C92.5719 20.7391 92.2805 20.8433 91.9823 20.8301C91.6617 20.8493 91.3458 20.7455 91.099 20.5398C91.0016 20.4609 90.9224 20.3617 90.8672 20.2491C90.812 20.1365 90.782 20.0132 90.7794 19.8878V12.4551H90.0769C89.9649 12.4552 89.854 12.4329 89.7508 12.3896C89.6475 12.3463 89.5539 12.2827 89.4755 12.2027C89.3866 12.1121 89.3176 12.0039 89.2727 11.8852C89.2278 11.7664 89.2081 11.6397 89.2147 11.5129C89.21 11.392 89.2308 11.2715 89.2757 11.1591C89.3206 11.0468 89.3887 10.9452 89.4755 10.8609C89.5539 10.7809 89.6475 10.7174 89.7508 10.674C89.854 10.6307 89.9649 10.6084 90.0769 10.6085H90.7794Z" fill="#576472"/>
<path d="M101.942 20.83C101.282 20.843 100.626 20.7302 100.008 20.4977C99.4854 20.3012 99.0138 19.9903 98.6273 19.5878C98.2408 19.1853 97.9493 18.7014 97.7742 18.1716C97.5827 17.6068 97.4874 17.0139 97.4924 16.4175V11.3699C97.4951 11.2432 97.5264 11.1187 97.5839 11.0058C97.6414 10.893 97.7237 10.7945 97.8247 10.7179C98.0682 10.5153 98.379 10.4117 98.6953 10.4276C99.003 10.4097 99.3054 10.514 99.5365 10.7179C99.6319 10.7981 99.7089 10.8978 99.7626 11.0102C99.8163 11.1227 99.8453 11.2453 99.8478 11.3699V16.5017C99.8226 16.7999 99.8634 17.1 99.9673 17.3806C100.071 17.6613 100.236 17.9155 100.449 18.1253C100.868 18.4792 101.403 18.6651 101.951 18.6469C102.496 18.6667 103.029 18.4805 103.444 18.1253C103.655 17.9139 103.817 17.6592 103.919 17.3788C104.022 17.0984 104.062 16.7991 104.037 16.5017V11.3699C104.04 11.2445 104.07 11.1213 104.125 11.0088C104.181 10.8962 104.26 10.797 104.357 10.7179C104.59 10.5175 104.891 10.4137 105.198 10.4276C105.504 10.419 105.803 10.5222 106.039 10.7179C106.142 10.7937 106.226 10.8917 106.285 11.0047C106.344 11.1176 106.376 11.2425 106.38 11.3699V16.4175C106.385 17.0139 106.289 17.6068 106.098 18.1716C105.923 18.6978 105.632 19.1784 105.248 19.5785C104.864 19.9787 104.396 20.2884 103.877 20.4851C103.26 20.7218 102.603 20.8388 101.942 20.83Z" fill="#576472"/>
<path d="M113.648 10.3898C114.305 10.3767 114.96 10.4777 115.583 10.6885C116.102 10.8647 116.578 11.1517 116.975 11.5297C117.353 11.9044 117.641 12.3605 117.816 12.8632C118.009 13.4174 118.105 14.0009 118.098 14.5878V19.8878C118.094 20.0152 118.062 20.1401 118.003 20.2531C117.944 20.366 117.86 20.4641 117.758 20.5398C117.522 20.7355 117.223 20.8387 116.916 20.8301C116.609 20.844 116.308 20.7402 116.075 20.5398C115.978 20.4608 115.899 20.3615 115.844 20.2489C115.788 20.1364 115.758 20.0132 115.755 19.8878V14.7392C115.78 14.4418 115.74 14.1424 115.638 13.8621C115.535 13.5817 115.373 13.3269 115.162 13.1156C114.748 12.7604 114.215 12.5742 113.669 12.594C113.121 12.5758 112.586 12.7617 112.168 13.1156C111.954 13.3253 111.79 13.5796 111.686 13.8603C111.582 14.1409 111.541 14.441 111.566 14.7392V19.8878C111.564 20.0124 111.535 20.135 111.481 20.2475C111.427 20.3599 111.35 20.4596 111.255 20.5398C111.024 20.7437 110.721 20.848 110.414 20.8301C110.097 20.8461 109.786 20.7424 109.543 20.5398C109.442 20.4632 109.36 20.3648 109.302 20.2519C109.245 20.139 109.213 20.0145 109.211 19.8878V14.8191C109.206 14.2228 109.301 13.6299 109.492 13.0651C109.668 12.5354 109.959 12.0516 110.346 11.6492C110.732 11.2467 111.204 10.9357 111.726 10.7389C112.339 10.5024 112.991 10.384 113.648 10.3898Z" fill="#576472"/>
<path d="M125.35 10.3898C126.007 10.3766 126.662 10.4776 127.284 10.6885C127.804 10.8647 128.279 11.1517 128.677 11.5298C129.055 11.9043 129.343 12.3604 129.518 12.8632C129.711 13.4173 129.807 14.0009 129.8 14.5878V19.8879C129.796 20.0152 129.763 20.1401 129.704 20.2531C129.645 20.366 129.561 20.4641 129.459 20.5399C129.222 20.7339 128.924 20.8368 128.618 20.8301C128.311 20.844 128.01 20.7402 127.776 20.5399C127.679 20.461 127.6 20.3618 127.545 20.2491C127.489 20.1365 127.459 20.0132 127.457 19.8879V14.7392C127.482 14.4418 127.442 14.1425 127.339 13.8621C127.237 13.5817 127.074 13.327 126.864 13.1156C126.449 12.7604 125.916 12.5742 125.371 12.594C124.823 12.5758 124.288 12.7617 123.869 13.1156C123.656 13.3254 123.491 13.5796 123.387 13.8603C123.283 14.1409 123.242 14.441 123.268 14.7392V19.8879C123.265 20.0124 123.236 20.135 123.182 20.2475C123.129 20.3599 123.052 20.4596 122.956 20.5399C122.725 20.7437 122.423 20.848 122.115 20.8301C121.799 20.8461 121.488 20.7425 121.244 20.5399C121.143 20.4632 121.061 20.3648 121.004 20.2519C120.946 20.139 120.915 20.0145 120.912 19.8879V14.8192C120.907 14.2228 121.002 13.6299 121.194 13.0651C121.369 12.5354 121.661 12.0517 122.047 11.6492C122.434 11.2467 122.905 10.9357 123.427 10.739C124.04 10.5024 124.693 10.384 125.35 10.3898Z" fill="#576472"/>
<path d="M140.904 14.4784C140.952 14.9496 140.823 15.4218 140.542 15.8034C140.378 15.9446 140.186 16.0509 139.979 16.116C139.773 16.181 139.555 16.2035 139.339 16.1819H134.59V16.6993C134.578 16.9836 134.624 17.2674 134.726 17.533C134.828 17.7986 134.984 18.0404 135.183 18.2431C135.411 18.4475 135.677 18.6042 135.966 18.704C136.255 18.8037 136.561 18.8443 136.866 18.8236C137.198 18.8253 137.53 18.8014 137.859 18.752C138.103 18.7211 138.342 18.6574 138.569 18.5628L139.112 18.2809C139.258 18.1959 139.423 18.1482 139.591 18.1421C139.706 18.1349 139.822 18.1526 139.929 18.1939C140.036 18.2353 140.134 18.2994 140.214 18.3819C140.366 18.5542 140.451 18.775 140.454 19.0044C140.442 19.2449 140.341 19.4725 140.172 19.6438C139.955 19.8808 139.697 20.0774 139.411 20.2243C139.052 20.4093 138.672 20.5505 138.279 20.6449C137.824 20.7602 137.356 20.8168 136.887 20.8132C136.252 20.8213 135.62 20.713 135.024 20.4935C134.493 20.3029 134.002 20.0179 133.573 19.6522C133.163 19.3015 132.832 18.8687 132.601 18.3819C132.374 17.8961 132.258 17.3659 132.26 16.8297V14.6971C132.261 14.1347 132.373 13.5779 132.589 13.0589C132.806 12.5398 133.123 12.0687 133.522 11.6727C133.919 11.2791 134.389 10.9663 134.906 10.7515C135.464 10.5197 136.064 10.4038 136.668 10.4108C137.335 10.3926 137.998 10.5189 138.611 10.7809C139.096 10.9948 139.53 11.3078 139.885 11.6998C140.241 12.0917 140.511 12.554 140.677 13.0566C140.828 13.5152 140.905 13.9953 140.904 14.4784ZM136.635 12.3541C136.369 12.3398 136.104 12.3823 135.857 12.4788C135.61 12.5753 135.386 12.7235 135.2 12.9136C134.83 13.3339 134.615 13.8683 134.59 14.4279H138.679V14.1376C138.69 13.891 138.644 13.6451 138.545 13.419C138.445 13.1929 138.296 12.9926 138.107 12.8337C137.69 12.5014 137.167 12.3311 136.635 12.3541Z" fill="#576472"/>
<path d="M143.566 7.9458C143.569 7.81911 143.6 7.69467 143.658 7.58178C143.715 7.46888 143.798 7.37044 143.899 7.29381C144.142 7.0912 144.453 6.98759 144.769 7.00356C145.077 6.98565 145.379 7.08996 145.61 7.29381C145.706 7.37405 145.783 7.47373 145.837 7.58617C145.89 7.69861 145.919 7.82122 145.922 7.9458V19.892C145.919 20.0165 145.89 20.1391 145.837 20.2516C145.783 20.364 145.706 20.4637 145.61 20.5439C145.379 20.7478 145.077 20.8521 144.769 20.8342C144.453 20.8502 144.142 20.7466 143.899 20.5439C143.798 20.4673 143.715 20.3689 143.658 20.256C143.6 20.1431 143.569 20.0186 143.566 19.892V7.9458Z" fill="#576472"/>
<path d="M148.618 19.3872C148.574 19.293 148.547 19.192 148.538 19.0885C148.524 18.9672 148.534 18.8443 148.567 18.7268C148.601 18.605 148.655 18.4898 148.727 18.3861C148.804 18.2764 148.913 18.1928 149.038 18.1463C149.193 18.0728 149.36 18.0313 149.531 18.0243C149.658 18.0224 149.784 18.0467 149.901 18.0958C150.007 18.1434 150.108 18.2042 150.199 18.2767L150.481 18.487C151.03 18.8169 151.669 18.9642 152.307 18.9077C152.671 18.9249 153.032 18.8262 153.337 18.6258C153.455 18.544 153.552 18.4352 153.62 18.3086C153.688 18.1819 153.725 18.0409 153.728 17.8972C153.731 17.7535 153.7 17.6112 153.637 17.4819C153.574 17.3527 153.481 17.2401 153.367 17.1536C153.088 16.9561 152.78 16.8028 152.454 16.6993C152.086 16.5731 151.693 16.4455 151.272 16.3165C150.858 16.1925 150.461 16.0173 150.09 15.7949C149.729 15.5826 149.418 15.2958 149.177 14.9537C148.916 14.5332 148.79 14.043 148.816 13.5487C148.801 13.1205 148.881 12.6944 149.05 12.3009C149.22 11.9074 149.474 11.5563 149.796 11.2731C150.556 10.6504 151.523 10.3352 152.504 10.3897C152.949 10.383 153.394 10.4267 153.829 10.5201C154.151 10.5892 154.464 10.6936 154.763 10.8314C154.977 10.9291 155.173 11.0613 155.343 11.2226C155.463 11.3346 155.561 11.4671 155.634 11.6138C155.73 11.8227 155.765 12.0546 155.735 12.2826C155.73 12.3954 155.7 12.5057 155.646 12.6049C155.592 12.7041 155.516 12.7896 155.423 12.8547C155.319 12.9339 155.199 12.99 155.071 13.019C154.944 13.048 154.811 13.0494 154.683 13.0229C154.465 12.9666 154.256 12.8817 154.061 12.7705C153.954 12.7173 153.784 12.6401 153.552 12.5392C153.214 12.4221 152.857 12.3707 152.5 12.3878C152.148 12.3627 151.8 12.4741 151.528 12.699C151.422 12.7964 151.337 12.9154 151.279 13.0481C151.222 13.1808 151.194 13.3242 151.196 13.4688C151.194 13.5903 151.225 13.7101 151.287 13.8148C151.348 13.9195 151.438 14.0051 151.545 14.0619C151.824 14.2229 152.12 14.3513 152.429 14.4447L153.581 14.8064C153.989 14.9313 154.377 15.114 154.734 15.3491C155.136 15.6093 155.463 15.972 155.679 16.3999C155.896 16.8279 155.995 17.3058 155.966 17.7846C155.984 18.2058 155.905 18.6255 155.735 19.0113C155.565 19.3971 155.309 19.7387 154.986 20.0097C154.22 20.6013 153.269 20.8997 152.302 20.851C151.896 20.8517 151.491 20.8151 151.091 20.7417C150.721 20.6748 150.359 20.5705 150.01 20.4304C149.712 20.3098 149.43 20.1545 149.169 19.9677C148.947 19.8146 148.759 19.6169 148.618 19.3872Z" fill="#576472"/>
</g>
<defs>
<clipPath id="clip0">
<rect width="155" height="30" fill="white" transform="translate(0.974365)"/>
</clipPath>
</defs>
</svg>
