<svg fill="none" height="145" viewBox="0 0 163 145" width="163" xmlns="http://www.w3.org/2000/svg"><g fill="#50af42"><path d="m54.5328 91.6987c-.3882.055-.7736.1247-1.0824.3644-.4288.3379-.564.9441-.4526 1.4752.0966.5337.3954 1.0002.7063 1.4492 1.0311 1.4669 2.2684 2.8047 3.6541 3.9471-.1252-.0998 3.592-6.0395 3.1954-7.1314-.5647-1.5973-4.8146-.2922-6.0208-.1045z"/><path d="m44.9851 102.139c-.303-.236-.6235-.485-1.0008-.539-.5362-.086-1.0742.241-1.3926.681-.3183.44-.4495.985-.5685 1.512-.3693 1.766-.5027 3.566-.391 5.368-.0147-.166 6.863-1.503 7.3934-2.548.7666-1.517-3.0789-3.73-4.0405-4.474z"/><path d="m33.6303 105.893c-.121-.33-.2595-.672-.4979-.889-.3312-.308-.8069-.314-1.1682-.11-.3613.203-.6486.561-.9036.929-.8499 1.225-1.5517 2.592-2.0811 4.066.0526-.132 5.1528 1.992 5.858 1.405 1.0288-.829-.8212-4.368-1.2072-5.401z"/><path d="m22.656 107.436c-.121-.33-.2595-.673-.4979-.89-.3312-.307-.8069-.313-1.1682-.11s-.6486.561-.9036.929c-.85 1.226-1.5518 2.593-2.0812 4.067.0527-.132 5.1528 1.991 5.8581 1.405 1.0436-.832-.8064-4.371-1.2072-5.401z"/><path d="m60.8825 91.5905s-8.8374 12.1645-16.8412 14.6385c-11.4246 3.538-24.6525 2.104-26.3138 1.808-1.6586-.282-4.3973 2.097-.2285 4.405 5.3569 2.95 16.1586 8.405 29.6028 5.451 12.0762-2.645 20.6836-8.551 20.6836-8.551z"/></g><g fill="#21bf73"><path d="m112.983 8.92854c-1.461-.62373-3.053-.96322-4.639-1.01299-.399-.00436-.828-.00337-1.182-.18422s-.633-.62038-.469-.98678c.11-.23439.346-.36896.585-.4887 1.74-.78963 3.753-.66406 5.65-.33375 3.082.52933 3.456 4.4578.055 3.00644z"/><path d="m121.867 11.7454c1.439.6735 2.76 1.6286 3.844 2.7951.267.2886.554.6042.917.7527.379.1458.883.0546 1.046-.3118.111-.2344.045-.5134-.03-.76-.561-1.8278-2.01-3.2344-3.498-4.43493-2.437-1.96262-5.627.37553-2.279 1.95893z"/><path d="m117.642 67.8285c-2.229 8.2425-4.602 16.7868-10.67 23.1061-2.41 2.5032-5.538 4.677-9.3155 5.0392-2.0309.1992-4.1113-.1286-6.1201-.653-5.1735-1.345-10.3053-4.3204-12.4161-8.7919-.9417-1.9884-1.2216-4.1272-1.2806-6.2294-.043-1.8449.0703-3.6721.3722-5.4721.4672-2.9171 1.3844-5.7166 2.2841-8.5282 2.672-8.2463 5.344-16.4926 8.5886-24.5362 1.8943-4.6759 4.434-10.8618 6.5815-17.0993.5214-1.5183 4.2752 2.4721 5.9679 2.181 1.485-.2535 3.066-.0649 4.598.1937 3.674.5904 7.355 1.4706 10.648 3.1711 3.194 1.6574 5.325 3.8744 7.052 6.7313 1.851 3.0334.592 5.2977-.249 8.4355-2.026 7.5015-4.043 14.9708-6.041 22.4522z"/></g><path d="m99.3789 36.2097c-.18-.6564-.1646-1.5014.4098-1.8809.4783-.3163 1.1173-.1716 1.6693.004 4.139 1.3791 7.675 4.1687 11.723 5.8092 2.148.8668 4.417 1.3901 6.671 1.9161 1.262.2921 3.135.489 4.702.9403-.231.838-.534 1.7042-.791 2.654-.513 1.8997-1.015 3.7818-1.528 5.6815-1.519.1524-3.047-.3366-4.481-.9038-5.889-2.3332-11.291-5.8721-15.763-10.3603-1.12-1.114-2.1996-2.3425-2.6121-3.8601z" fill="#1ca362"/><path d="m123.783 15.8999c-1.393-2.0292-4.093-3.0717-6.5-2.4982-1.336.3183-2.546 1.0734-3.533 2.0482-.78.7689-1.453 1.7022-1.674 2.7679-.146.7155-.086 1.4701.075 2.1912.444 1.9408 1.662 3.6801 3.329 4.7716 2.5 1.6299 7.122 2.1254 8.638-1.0887 1.058-2.2738 1.099-6.1089-.335-8.192z" fill="#1ca362"/><path d="m100.993 13.1501c2.023-2.6935 6.105-4.50411 9.742-3.95277 2.298.34949 4.437 1.84567 5.438 3.82327.713 1.402.721 3.2226.228 4.9807 3.558 2.066 5.973 3.9868 5.973 3.9868s11.273 8.1415 17.996 12.9724c.759-.6274 2.187-.6869 4.657.3513 1.176.4915 1.962 1.2831 2.495 2.1972 1.017 1.7297-2.607 11.1435-4.064 11.8054-2.757 1.2645-29.062-5.7637-35.611-8.3602-6.548-2.5965-13.2479-6.4518-13.206-11.6345.0189-3.4484 4.1313-13.2108 6.352-16.1696z" fill="#21bf73"/><path d="m145.991 44.9521c-.012.0175-11.427-3.9183-18.215-6.8236s-13.121-6.9342-13.121-6.9342l-.883.2823s4.972 3.4483 13.4 7.0368c8.425 3.5737 18.476 7.251 18.476 7.251z" fill="#fff"/><path d="m108.11 13.3934c-.412 1.1923.223 2.5013 1.431 2.9105 1.192.412 2.501-.223 2.91-1.4301.412-1.1923-.223-2.5012-1.43-2.9105-1.205-.3944-2.499.2379-2.911 1.4301z" fill="#163a5f"/><path d="m109.895 13.2693c-.191.5551.1 1.1455.655 1.336.555.1904 1.145-.1002 1.336-.6552.19-.5551-.1-1.1455-.655-1.336-.556-.1904-1.143.115-1.336.6552z" fill="#fff"/><path d="m118.606 16.99c-.412 1.1922.223 2.5012 1.43 2.9105 1.193.412 2.502-.2231 2.911-1.4301.412-1.1923-.223-2.5013-1.43-2.9105-1.205-.3945-2.499.2378-2.911 1.4301z" fill="#163a5f"/><path d="m120.391 16.8663c-.191.555.1 1.1455.655 1.3359.555.1905 1.145-.1001 1.336-.6552.19-.555-.1-1.1455-.656-1.3359-.537-.1783-1.142.1149-1.335.6552z" fill="#fff"/><path d="m143.39 38.1959c-.118.6184-.424 1.2098-.864 1.6568-.232.241-.605.4617-.871.2648-.247-.1848-.208-.5594-.111-.868.126-.4055.251-.811.392-1.2192.394-1.0359 1.724-1.2154 1.454.1656z" fill="#163a5f"/><path d="m146.655 39.3198c-.117.6184-.424 1.2097-.863 1.6568-.232.241-.606.4617-.871.2647-.248-.1848-.209-.5593-.111-.8679.125-.4055.251-.811.392-1.2192.391-1.0508 1.724-1.2155 1.453.1656z" fill="#163a5f"/><path d="m112.19 82.0671c-.012.5426 7.467 14.1373 9.932 20.3269 2.45 6.19 4.371 9.681 4.036 10.057-.336.375-8.38 4.603-8.38 4.603s-3.132-6.435-4.454-7.754c-3.448-3.448-8.255-.28-8.255-.28z" fill="#21bf73"/><path d="m126.142 112.45 8.121 1.45s-4.572 2.094-4.299 2.364c.274.255 2.4 3.878 2.02 3.934-.38.057-6.306-.317-6.306-.317l.422 3.009-8.337-5.837z" fill="#21bf73"/></svg>