<svg fill="none" height="40" viewBox="0 0 98 40" width="98" xmlns="http://www.w3.org/2000/svg" xmlns:xlink="http://www.w3.org/1999/xlink"><clipPath id="a"><path d="m0 0h98v40h-98z"/></clipPath><g clip-path="url(#a)" fill="#576472"><path d="m20.2766 39.1122c-8.2253-2.5045-14.20332-10.1109-14.20332-19.1122 0-9.0968 6.10552-16.76643 14.45572-19.206402.8552-.254219.6337-.79359419-.4108-.79359419-11.10357 0-20.11826104 8.97033619-20.11826104 19.99999619 0 11.0297 9.01469104 20 20.11826104 20 1.0445 0 1.1076-.6026.1584-.8878z"/><path d="m9.90085 24.6593c-.06309-.5393-.09531-1.0774-.09531-1.6167 0-8.7794 7.08686-15.87872 15.84926-15.87872 8.287 0 10.7545 3.70842 11.0713 3.45412.3477-.2528-3.0058-7.60638-12.7172-7.60638-8.7623 0-15.84789 7.09938-15.84789 15.87868 0 2.0284.37992 3.9626 1.07532 5.7368.2846.7613.72762.7613.66452.0322z"/><path d="m16.5439 13.2174c4.112-1.8064 9.3007-1.8697 14.3927-.0632 3.4165 1.2038 5.4101 2.9161 5.5685 2.8206.2846-.1264-1.9935-3.7084-6.0747-5.2619-4.9349-1.86971-10.2484-.88645-14.108 2.1561-.443.3484-.2846.5703.2215.3484z"/><path d="m98 20.6973c0 1.1407-.9491 2.0916-2.0875 2.0916-1.1398 0-2.0875-.9186-2.0875-2.0916 0-1.1406.9169-2.0916 2.0875-2.0916s2.0875.9187 2.0875 2.0916z"/><path d="m30.0515 32.3929.2523 2.7897h4.398l-1.4875-16.1961h-6.5472l-8.2884 16.1961h4.4919l1.3921-2.7897zm-.2215-3.138h-4.0181l3.4489-7.0039h.0309z"/><path d="m40.8067 28.114h.6645l3.132-4.2788h4.0797l-4.3335 5.4517 2.6581 5.8955h-4.3348l-1.7399-4.5962h-.6323l-.98 4.5962h-3.7012l3.4153-16.1962h3.7012z"/><path d="m54.4724 35.1821h3.7012l1.4861-7.0684c.8229-3.898-.6632-4.3729-4.4597-4.3729-2.6567 0-5.2195-.0322-5.9471 3.4852h3.7012c.2215-1.0142.8538-1.2348 1.772-1.2348 1.6123 0 1.5492.6644 1.3277 1.7109l-.3799 1.8065h-.1571c-.1275-1.2994-1.772-1.2671-2.8165-1.2671-2.6876 0-4.2704.8555-4.8396 3.5806-.6001 2.8838.7599 3.5187 3.3535 3.5187 1.2969 0 3.0367-.2542 3.6381-1.8064h.1262zm-1.0444-4.6903c1.2028 0 1.9935.0942 1.8029 1.0451-.2524 1.1729-.7585 1.3949-2.3091 1.3949-.5692 0-1.6123 0-1.3599-1.2361.2215-1.0465.9492-1.2039 1.8661-1.2039z"/><path d="m65.6706 23.8353-.3477 1.5845h.1584c.7276-1.3317 2.2137-1.711 3.4797-1.711 1.5814 0 3.1628.2852 2.9413 2.2181h.1584c.537-1.6168 2.1829-2.2181 3.6059-2.2181 2.6259 0 3.7334 1.0774 3.1629 3.7084l-1.6445 7.7652h-3.7012l1.3921-6.5613c.1893-1.1729.3799-2.0607-1.0444-2.0607-1.4553 0-1.9292.951-2.1829 2.1871l-1.3599 6.4349h-3.7012l1.4552-6.8788c.1907-1.0451.2538-1.7432-1.0431-1.7432-1.5183 0-1.9935.8245-2.2781 2.1871l-1.36 6.4349h-3.7012l2.4044-11.3471z"/><path d="m85.6947 35.1821h3.7012l1.5183-7.0684c.8229-3.898-.6645-4.3729-4.4597-4.3729-2.6581 0-5.2208-.0322-5.9471 3.4852h3.7012c.2201-1.0142.8538-1.2348 1.7707-1.2348 1.6136 0 1.5505.6644 1.329 1.7109l-.3799 1.8065h-.1584c-.1262-1.2994-1.7707-1.2671-2.8152-1.2671-2.6889 0-4.2704.8555-4.8396 3.5806-.6014 2.8838.7585 3.5187 3.3522 3.5187 1.2982 0 3.038-.2542 3.6381-1.8064h.1275zm-1.0122-4.6903c1.2015 0 1.9922.0942 1.8029 1.0451-.2524 1.1729-.7585 1.3949-2.309 1.3949-.5693 0-1.6137 0-1.36-1.2361.2215-1.0465.9492-1.2039 1.8661-1.2039z"/><path d="m94.7734 35.182h-3.7012l2.3722-11.3471h3.7333z"/></g></svg>