<svg fill="none" height="40" viewBox="0 0 178 40" width="178" xmlns="http://www.w3.org/2000/svg"><g clip-rule="evenodd" fill-rule="evenodd"><path d="m61.5171 27.6464c.7389-1.6557 2.2874-2.783 4.3289-2.783 2.0416 0 3.5549.951 4.1885 2.783zm13.3742 2.1139c0-5.0734-3.6958-9.1248-9.0804-9.1248-5.0683 0-9.1509 4.0865-9.1509 9.1602 0 5.0733 3.8015 9.16 9.2919 9.16 3.8024 0 6.5373-1.8361 8.0761-4.4681l-3.8245-2.2829c-.8113 1.5583-2.3687 2.5234-4.2165 2.5234-2.5342 0-4.1178-1.2686-4.6811-3.2063h13.5854zm98.1637 0c0-2.607-1.901-4.7209-4.505-4.7209-2.675 0-4.716 2.0082-4.716 4.7209 0 2.7128 2.041 4.7564 4.716 4.7564 2.604 0 4.505-2.1491 4.505-4.7564zm-13.937.0354c0-6.2356 4.575-9.1602 8.552-9.1602 2.288 0 4.083.8456 5.244 2.0785v-9.8293h4.822v25.7186h-4.822v-1.9726c-1.161 1.374-3.027 2.325-5.314 2.325-3.731 0-8.482-2.9595-8.482-9.16zm-3.543-11.4889c1.594 0 2.885-1.2926 2.885-2.8873s-1.291-2.8873-2.885-2.8873c-1.592 0-2.883 1.2926-2.883 2.8873s1.291 2.8873 2.883 2.8873zm-2.41 2.6812h4.821v17.6153h-4.821v-12.9295l-1.75-.0002zm-12.845 0h4.787v2.889c.879-1.832 2.463-2.889 4.857-2.889h1.935l-1.748 4.6856h-1.314c-2.569 0-3.695 1.3389-3.695 4.6152v8.3145h-4.822zm-27.125 4.7561c0-7.3282 5.525-13.2119 13.127-13.2119 3.803 0 7.001 1.3707 9.316 3.5549.942.8888 1.738 1.9125 2.369 3.0335l-4.294 2.607c-1.583-2.9243-4.012-4.4393-7.355-4.4393-4.681 0-8.307 3.8405-8.307 8.4558 0 4.721 3.555 8.4553 8.482 8.4553 3.731 0 6.371-2.1137 7.286-5.3903h-8.06v-4.6856h13.339v1.9728c0 6.9055-4.927 12.8594-12.565 12.8594-8.024 0-13.338-6.0947-13.338-13.2116zm-5.813 4.0162c0-2.607-1.9-4.7209-4.504-4.7209-2.675 0-4.7169 2.0082-4.7169 4.7209 0 2.7128 2.0419 4.7564 4.7169 4.7564 2.604 0 4.504-2.1491 4.504-4.7564zm-13.937.0354c0-6.2356 4.5752-9.1602 8.552-9.1602 2.288 0 4.083.8456 5.245 2.0785v-9.8293h4.821v25.7186h-4.821v-1.9726c-1.162 1.374-3.027 2.325-5.315 2.325-3.7305 0-8.482-2.9595-8.482-9.16zm-17.4266-8.8077h4.7869v1.9728c1.1261-1.4446 2.8509-2.3253 4.8569-2.3253 4.1528 0 6.6518 2.6776 6.6518 7.2223v10.7455h-4.8922v-10.1113c0-2.3605-1.091-3.7346-3.2377-3.7346-1.8303 0-3.3437 1.2684-3.3437 4.2277v9.6182h-4.822zm-39.369 13.3525 4.4701-3.5234c1.2668 2.1847 3.273 3.4528 5.5604 3.4528 2.4993 0 3.8368-1.6203 3.8368-3.3823 0-2.1137-2.5697-2.7828-5.3148-3.6288-3.4488-1.0568-7.2854-2.3954-7.2854-7.328 0-4.122 3.5903-7.3986 8.5525-7.3986 4.1884 0 6.5816 1.5855 8.6583 3.7348l-4.0478 3.065c-1.0556-1.5852-2.569-2.431-4.5754-2.431-2.2876 0-3.5191 1.2332-3.5191 2.8538 0 1.9728 2.4634 2.6426 5.2085 3.5583 3.4847 1.1272 7.4264 2.6776 7.4264 7.6102 0 4.0865-3.2382 8.0324-8.9046 8.0324-4.6455 0-7.7427-1.9726-10.0659-4.6152z" fill="#576472"/><path d="m10.3281 38.6034h10.2766v-10.287h-10.2766z" fill="#c8cfd6"/><path d="m.0517578 28.3166h10.2765422v-10.2873h-10.2765422z" fill="#c8cfd6"/><path d="m.0517578 38.6034h10.2765422v-10.287h-10.2765422z" fill="#576472"/><path d="m20.605 28.3166h10.2765v-10.2873h-10.2765z" fill="#89929b"/><path d="m10.3281 18.0297h10.2766v-10.28702h-10.2766z" fill="#89929b"/><path d="m10.3281 28.3163h10.2766v-10.287h-10.2766z" fill="#acb7c1"/><g fill="#576472"><path d="m20.605 18.0297h10.2765v-10.28702h-10.2765z"/><path d="m41.4973 1.52788v5.99709h-1.386v-5.99709h-2.1357v-1.199755h5.6645l-.0022 1.199755z"/><path d="m53.7421 7.52498h-1.3129l-1.5942-5.23612-1.594 5.23612h-1.3025l-2.0093-7.230546 1.4545.019878 1.3361 5.093338 1.5005-5.079519h1.3858l1.5005 5.079519 1.3128-5.079519h1.3858z"/><path d="m58.5391 7.52497h1.3857v-7.196845h-1.3857z"/><path d="m63.1353 7.52497v-7.196845h1.3859v5.976485h2.3964l.0121 1.22036z"/><path d="m69.8062 7.52497h1.3857v-7.196845h-1.3857z"/><path d="m77.4966 1.34027c-1.2296 0-1.9692 1.01163-1.9692 2.58666s.7396 2.58643 1.9692 2.58643c1.2399 0 1.9797-1.0114 1.9797-2.58643s-.75-2.58666-1.9797-2.58666zm-.0102 6.32072c-2.0425 0-3.3653-1.5023-3.3653-3.72412 0-2.232 1.3332-3.743999 3.3859-3.743999 2.0633 0 3.3652 1.501329 3.3652 3.723399 0 2.22133-1.3227 3.74472-3.3858 3.74472z"/></g></g></svg>