<svg fill="none" height="40" viewBox="0 0 71 40" width="71" xmlns="http://www.w3.org/2000/svg"><path d="m45.3869 6.56025 1.3677-6.56025h-40.16673l-6.58787 31.5409h33.584l-1.8492 8.4591h32.1701l7.0951-33.43975z" fill="#576472"/><g fill="#fff"><path d="m13.6892 27.5143c-.9104 0-1.7709-.1493-2.5799-.4493-.809-.2987-1.51533-.7402-2.11761-1.3234-.60228-.5831-1.07743-1.3002-1.42673-2.1524s-.52394-1.8306-.52394-2.9364c0-1.5113.20932-2.8888.62925-4.1311.41992-1.2422 1.00423-2.3069 1.75291-3.1951.74872-.887 1.64632-1.5744 2.69422-2.061 1.0466-.4866 2.1934-.73 3.4378-.73.8398 0 1.636.1468 2.3911.4416.7538.2948 1.4139.7222 1.9802 1.286.5664.5626 1.0171 1.2552 1.351 2.0765s.5008 1.7649.5008 2.8296c0 .1622-.0051.3527-.0154.5703-.0103.2188-.0257.4415-.0462.6694-.0206.2278-.0411.4518-.0604.6694-.0205.2175-.0449.4029-.0757.5548h-11.79271c-.01028.1429-.01798.2794-.02312.4107-.00514.1326-.0077.269-.0077.4106 0 .842.12199 1.559.36473 2.1525.2427.5934.5586 1.0775.949 1.4534.3891.3759.827.6462 1.3124.8136.4854.1673.976.251 1.4717.251 1.0826 0 1.9532-.188 2.6107-.5626s1.1584-.8818 1.5025-1.5216h2.7777c-.172.6295-.4559 1.2178-.8501 1.7649-.3942.5472-.8925 1.0222-1.4948 1.4225-.6023.4004-1.3009.7158-2.0945.9437-.7936.2278-1.6669.3424-2.6172.3424zm5.3268-9.9962c.0103-.0502.018-.1441.0232-.2819.0051-.1364.0077-.2716.0077-.4029 0-.5381-.0784-1.0479-.235-1.5294-.1567-.4814-.3917-.905-.7063-1.2706-.3134-.3656-.7038-.6539-1.1687-.8676-.4661-.2124-1.0068-.3193-1.6245-.3193-.6279 0-1.2148.112-1.7606.3347-.547.2227-1.0427.5407-1.4871.9514-.4456.4106-.8295.9024-1.1532 1.4752-.3236.5729-.5817 1.2101-.7743 1.9092h8.8788z"/><path d="m29.2255 27.5139c-.8193 0-1.5885-.1544-2.3077-.4647-.7191-.309-1.3484-.7531-1.889-1.3311-.5419-.578-.9696-1.2783-1.2829-2.0996-.3134-.8214-.47-1.7392-.47-2.7536 0-.9836.0989-1.9246.2953-2.8219.1965-.8973.4778-1.7289.8425-2.4948.3647-.766.8013-1.4586 1.3124-2.0765.5111-.6192 1.0774-1.1457 1.7003-1.5821.6228-.4364 1.2944-.7711 2.0187-1.0042.723-.233 1.4794-.3501 2.2692-.3501.5868 0 1.1454.0811 1.6771.2433.5316.1622 1.0119.3875 1.4421.6771.4302.2897.7988.6386 1.1083 1.0492.3082.4107.5342.86.6755 1.3466h.2427l2.0187-9.54046h2.6557l-4.8568 22.91456h-2.5195l.47-2.2361h-.2427c-.5972.7814-1.3459 1.3967-2.2461 1.8486-.9002.4493-1.8723.6758-2.9138.6758zm.8347-2.3584c.8502 0 1.6361-.1995 2.3604-.6011.723-.4004 1.3535-.9488 1.889-1.6427.5368-.6951.9567-1.5113 1.2598-2.4498.303-.9384.4559-1.9503.4559-3.0355 0-.7003-.0964-1.3285-.289-1.8872-.1926-.5575-.4661-1.0325-.8193-1.4225-.3544-.3901-.7846-.6926-1.2906-.905-.506-.2137-1.0774-.3193-1.7157-.3193-.8398 0-1.6193.1879-2.3372.5626-.7191.3759-1.3407.8972-1.8672 1.5666-.5265.6695-.9413 1.4689-1.2444 2.3958-.303.9269-.4558 1.9451-.4558 3.051 0 .69.0988 1.3233.2966 1.9013.1978.5781.4726 1.0724.827 1.4831.3545.4106.7795.7299 1.2752.959.4957.2292 1.0479.3437 1.6553.3437z"/><path d="m65.3574 10.8716h-5.924l-6.462 8.0201h-.3185l-3.4172-8.0201h-5.992l5.1367 11.6491-11.0889 13.1681h5.8443l7.117-8.4591h.4803l3.8448 8.4591h5.8803l-5.6864-12.585z"/></g></svg>