<svg fill="none" height="32" viewBox="0 0 180 32" width="180" xmlns="http://www.w3.org/2000/svg" xmlns:xlink="http://www.w3.org/1999/xlink"><clipPath id="a"><path d="m0 0h180v32h-180z"/></clipPath><g clip-path="url(#a)" fill="#576472"><path d="m33.1953 0h-.76v32h.76z"/><path d="m42.9283 21.5224c0 1.5778-.098 2.0462 2.9911 2.0462 2.8929 0 3.6774-1.9229 3.6774-3.2542 0-1.4052-.098-4.2157-5.0994-4.2157-1.6916 0-1.5691.2958-1.5691.4931zm0-6.9029c0 .6903-.2696.8135 1.6917.8135 3.5794 0 3.751-1.3312 3.751-2.3667 0-2.3667-1.9858-3.69797-4.1923-3.69797-1.3729 0-1.2749.3698-1.2749 1.65177v3.5994zm-1.7161-3.7966c0-1.67645-1.9368-1.45457-1.9368-1.89833 0-.32049.3187-.29584.5884-.29584.4413 0 .8826.09862 1.7407.09862.8825 0 1.7406-.09862 3.4813-.09862 3.8491 0 4.8052 2.09557 4.8052 3.72267 0 2.2434-2.0594 2.9584-2.0594 3.1063 0 .3205 3.4323.3945 3.4323 4.0431 0 1.4546-1.0542 4.6595-5.2955 4.6595-.7845 0-2.0839-.0986-2.8439-.0986-1.0052 0-2.0349.0986-3.0401.0986-.098 0-.5393-.0493-.5393-.2465 0-.2219.2697-.2959.6619-.4191.2452-.074 1.0052-.1726 1.0052-1.8737z"/><path d="m57.9079 19.3529c-1.3974.2958-4.0452.6656-4.0452 2.5886 0 1.2573.6374 1.7257 1.7897 1.7257.7845 0 2.28-.6163 2.28-1.775v-2.5393zm0-2.2188c0-1.1341-.8826-1.8983-2.2555-1.8983-1.0542 0-1.8878.0986-1.8878 1.3066 0 .3205.1226.6657.1226.8875 0 .2466-.0735.4191-.4903.4191-.3678 0-1.0297-.3205-1.0297-.7149.0245-1.0108 1.2503-2.5393 3.6529-2.49 1.3484 0 3.4569.3945 3.4569 2.2681v4.5362c0 .7396-.1962 2.0462.9316 2.0462.0981 0 .2942-.0493.3677-.0493.0981 0 .2942 0 .2942.148 0 .4684-.9561.5423-1.2748.5423-.8581 0-1.422-.3944-1.6917-1.1094-.9071.7889-2.1084 1.282-3.3342 1.282-1.422 0-2.3536-.5177-2.3536-2.0955 0-1.1587.3678-2.5393 5.4672-3.4022v-1.6764z"/><path d="m64.0615 28.4747c-.0245.074-.4167.074-.7109.074s-.8091.0246-.8091-.1479c0-.4931 1.9859-2.1202 1.9859-3.846 0-.5177-.2452-1.0107-.4413-1.4792l-2.8685-7.0754c-.1961-.4931-1.0297-.4931-1.0297-.8136 0-.2219.1226-.2712.4413-.2712.4658 0 .9317.0986 1.52.0986.7601 0 1.2749-.0986 1.6181-.0986.3188 0 .4659.0493.4659.2958 0 .4685-1.2504.0247-1.2504.8876 0 .3451.1961.6903.1471.493l-.049.0493 2.329 5.9661 1.6917-4.9553c.2697-.7889.2697-.9861.2697-1.134 0-1.1834-1.3975-.8629-1.3975-1.3313 0-.2219.2697-.2465.662-.2465.2697 0 .6129.0986 1.2258.0986.4903 0 .8826-.0986 1.1032-.0986.2697 0 .4168.0986.4168.2711 0 .4931-.7355-.0493-1.1768 1.282z"/><path d="m72.25 22.3853c0 1.5038 1.8142.8875 1.8142 1.4792 0 .2712-.1716.2958-.4903.2958-.2942 0-.9806-.0986-2.0103-.0986-1.0787 0-1.4955.0986-1.6917.0986-.1716 0-.2696-.0986-.2696-.2958 0-.3205 1.0787-.2712 1.0787-1.208v-12.376c0-1.30662-1.4955-.7396-1.4955-1.20801 0-.12327.098-.22188.1961-.24653 1.6916-.39446 2.1084-1.08475 2.6233-1.08475.1226 0 .2696.12327.2696.34515v14.29894z"/><path d="m82.2283 19.8953c0-2.2681-.9317-4.7334-3.5304-4.7334-2.1329 0-3.0155 1.8983-3.0155 3.7473 0 2.1448 1.0052 4.9553 3.5549 4.9553 1.8387 0 2.991-1.2573 2.991-3.9692zm-8.0659-.2219c0-2.6872 2.1084-5.0046 4.8542-5.0046 1.6671 0 4.7317.8136 4.7317 4.8814 0 2.6872-2.0349 4.7581-4.7072 4.7581-2.8439 0-4.8787-1.6765-4.8787-4.6349z"/><path d="m87.1561 22.2374c0 2.0462 1.9368.9861 1.9368 1.701 0 .1973-.0981.2466-.3432.2466-.2942 0-.8336-.0987-2.0594-.0987-1.471 0-1.8633.0987-2.0104.0987-.1716 0-.2452-.074-.2452-.1973 0-.4684 1.1033-.3698 1.1033-1.2819v-5.6703c0-1.3066-1.5691-.7396-1.5691-1.208 0-.1233.1717-.2219.2942-.2465 1.6917-.3945 2.1085-1.0848 2.6233-1.0848.1226 0 .2697.1233.2697.3452v1.6517h.049c.4658-.641 1.2504-1.8243 2.1575-1.8243.4658 0 1.4464.567 1.4464.9861 0 .3205-.5148.9862-.7845.9862-.4168 0-.6619-.4931-1.4465-.4931-.8826 0-1.4219 1.0108-1.4219 1.3066z"/><path d="m97.4284 18.3172c0 3.5008 2.2801 5.1033 5.2216 5.1033 4.095 0 5.051-2.7119 5.051-5.3005v-7.1248c0-2.24343-2.035-1.30661-2.035-2.14482 0-.09861.147-.22188.221-.22188.858 0 1.691.09861 2.549.09861.417 0 .809-.09861 1.202-.09861.098 0 .294.09861.294.24653 0 .61634-1.275.12327-1.275 2.14487v6.8043c0 1.0847.27 6.4838-6.08 6.4838-5.737 0-6.8402-3.2296-6.8402-6.6071v-7.396c0-1.28195-1.7652-.76423-1.7652-1.47917 0-.14792.3678-.22188.4903-.22188.5639 0 1.1033.09861 1.6917.09861.6865 0 1.3974-.09861 2.0839-.09861.0981 0 .6865-.04931.6865.22188 0 .61633-1.471 0-1.471 1.57777v7.9137z"/><path d="m113.045 22.3853c0 1.5038 1.913.8875 1.913 1.4792 0 .2712-.147.2958-.491.2958-.367 0-.809-.0986-2.083-.0986-1.153 0-1.594.0986-1.864.0986-.294 0-.392-.0493-.392-.2712 0-.4437 1.299 0 1.299-1.4299v-5.4237c0-1.3066-1.618-.7396-1.618-1.208 0-.1233.098-.2219.196-.2465 1.815-.3945 2.256-1.0848 2.746-1.0848.123 0 .27.1233.27.3452v1.4545c-.049.2712 1.054-1.6271 3.163-1.6271 2.917 0 3.554 2.4407 3.554 4.0924v3.6241c0 1.5038 1.692.8875 1.692 1.4792 0 .2712-.147.2958-.368.2958-.294 0-.833-.0986-1.887-.0986-.834 0-1.3.0986-1.569.0986-.295 0-.393-.0493-.393-.2712 0-.4437.932 0 .932-1.4299v-4.0924c0-1.0848-.785-2.7365-2.55-2.7365-1.839 0-2.599 1.3559-2.574 1.701v5.054z"/><path d="m124.789 11.3159c0 .2712-.638 1.1341-.907 1.1341-.27 0-.907-.8875-.907-1.1341 0-.2465.662-1.1587.907-1.1587.269 0 .907.8875.907 1.1587zm-1.692 5.7196c0-1.3066-1.201-.7396-1.201-1.208 0-.1233.098-.2219.196-.2465 1.397-.3945 1.839-1.0848 2.329-1.0848.123 0 .27.1233.27.3452v7.8644c0 1.1094 1.716.6409 1.716 1.208 0 .1725-.123.2465-.417.2465-.466 0-1.128-.0986-2.035-.0986-.711 0-1.275.0986-1.495.0986-.172 0-.294-.0246-.319-.2465 0-.5424.956.2958.956-1.7011z"/><path d="m131.555 22.3113 1.471-3.1557c.417-.8875.957-1.7996.957-2.7858 0-1.2326-1.349-.6163-1.349-1.1587 0-.2712.245-.2958.515-.2958.466 0 .883.0986 1.348.0986.368 0 .76-.0986 1.128-.0986.221 0 .589.0246.589.3205 0 .2958-.785.1479-1.079.8135l-3.334 7.1002c-.417.8875-.417 1.1587-.736 1.1587-.294 0-.368-.3698-.441-.5177l-3.285-7.5686c-.417-.9861-1.202-.6656-1.202-1.0601 0-.1479.025-.2712.466-.2712.417 0 .417.0986 1.863.0986.809 0 1.079-.0986 1.349-.0986.294 0 .49 0 .49.2466 0 .4437-1.25.1479-1.25.8135 0 .074.098.4191.368 1.0848z"/><path d="m142.073 17.9477c.294 0 .441-.0986.441-.4437 0-1.2327-1.226-2.3175-2.427-2.3175-1.348 0-2.304 1.5532-2.304 2.7612zm-4.29.5917c0 3.624 2.182 4.6841 3.505 4.6841 1.864 0 2.599-1.134 3.065-1.134.098 0 .098.0986.098.1479 0 .4931-1.888 2.0955-3.849 2.0955-3.261 0-4.413-3.057-4.413-4.4869 0-2.8105 1.545-5.1525 4.266-5.1525 2.672 0 3.874 2.6132 3.874 3.5008 0 .3944-.246.3698-.736.3698h-5.81z"/><path d="m147.883 22.2374c0 2.0462 1.937.9861 1.937 1.701 0 .1973-.098.2466-.343.2466-.294 0-.834-.0987-2.059-.0987-1.471 0-1.864.0987-2.011.0987-.171 0-.245-.074-.245-.1973 0-.4684 1.103-.3698 1.103-1.2819v-5.6703c0-1.3066-1.569-.7396-1.569-1.208 0-.1233.172-.2219.294-.2465 1.692-.3945 2.109-1.0848 2.624-1.0848.122 0 .269.1233.269.3452v1.6517h.049c.466-.641 1.251-1.8243 2.158-1.8243.466 0 1.446.567 1.446.9861 0 .3205-.515.9862-.784.9862-.417 0-.662-.4931-1.447-.4931-.882 0-1.422 1.0108-1.422 1.3066z"/><path d="m152.517 17.3067c0-1.7504 1.348-2.6379 2.942-2.6379.368 0 1.863.1726 2.133.4931.122.1726.098.9122.098 1.0847 0 .5917.098.8629-.245.8629-.221 0-.417-1.8983-2.403-1.8983-.858 0-1.52.4931-1.52 1.4052 0 .715.564 1.1834 2.869 2.0956 1.25.5177 1.814 1.208 1.814 2.6132 0 1.6518-1.324 3.0077-2.942 3.0077-1.52 0-1.912-.641-2.452-.641-.49 0-.49-.0246-.49-1.7503 0-.3698-.074-1.0848.27-1.0848.49 0 .245 2.8844 2.598 2.8844 1.079 0 1.937-.6656 1.937-1.7996 0-1.1588-1.103-1.5039-1.986-1.923-1.152-.5917-2.623-1.1587-2.623-2.7119z"/><path d="m162.422 11.3159c0 .2712-.638 1.1341-.907 1.1341-.27 0-.908-.8875-.908-1.1341 0-.2465.662-1.1587.908-1.1587.269 0 .907.8875.907 1.1587zm-1.692 5.7196c0-1.3066-1.201-.7396-1.201-1.208 0-.1233.098-.2219.196-.2465 1.397-.3945 1.839-1.0848 2.329-1.0848.123 0 .27.1233.27.3452v7.8644c0 1.1094 1.716.6409 1.716 1.208 0 .1725-.123.2465-.417.2465-.466 0-1.128-.0986-2.035-.0986-.686 0-1.275.0986-1.495.0986-.172 0-.319-.0246-.319-.2465 0-.5424.956.2958.956-1.7011z"/><path d="m165.462 15.8522c-1.03 0-1.177 0-1.177-.1479 0-.1726.539-.5424 1.667-1.7751.441-.5177.662-1.0107.834-1.0107.294 0 .294.4684.294 2.0462h2.402c.54 0 .785-.3698.858-.3698.099 0 .148.0986.148.1726 0 .0986-.074.1972-.123.2958l-.441.7889h-2.844v6.3852c.049.8875.662 1.3066 1.52 1.3066 1.152 0 1.471-.493 1.863-.493.098 0 .172.0246.172.1972 0 .3205-1.177 1.0847-2.697 1.0847-1.005 0-2.452-.2958-2.452-2.5392v-5.9415z"/><path d="m174.68 28.4747c-.025.074-.417.074-.711.074s-.809.0246-.809-.1479c0-.4931 1.986-2.1202 1.986-3.846 0-.5177-.245-1.0107-.442-1.4792l-2.868-7.0754c-.196-.4931-1.03-.4931-1.03-.8136 0-.2219.123-.2712.442-.2712.465 0 .931.0986 1.52.0986.76 0 1.274-.0986 1.618-.0986.318 0 .466.0493.466.2958 0 .4685-1.251.0247-1.251.8876 0 .3451.196.6903.147.493l-.049.0493 2.329 5.9661 1.667-4.9553c.27-.7889.27-.9861.27-1.134 0-1.1834-1.397-.8629-1.397-1.3313 0-.2219.269-.2465.662-.2465.269 0 .613.0986 1.225.0986.491 0 .883-.0986 1.104-.0986.269 0 .416.0986.416.2711 0 .4931-.735-.0493-1.176 1.282z"/><path d="m5.19749 18.0462v-6.5824h8.01691c.2697 0 .3677.0246.4658.1479l.711.7396c.1226.1233.1471.2219.1471.4931v3.8212c0 .2712-.0245.3698-.1471.4931l-.711.7396c-.1226.1233-.1961.1479-.4413.1479zm8.01691-14.44682c.2697 0 .3677.02466.4658.14792l.711.7396c.1226.12327.1471.22188.1471.49307v1.5285c0 .27119-.0245.3698-.1471.49307l-.711.7396c-.1226.12327-.2207.14792-.4658.14792h-8.01691v-3.47612l-1.76518-.81356zm12.7485 12.94302v-3.5748h-6.4723v3.5994h1.471v10.4777c0 .2712-.0245.3698-.1471.4931l-.711.7395c-.1226.1233-.2206.148-.4658.148h-6.6685c-.2697 0-.3677-.0247-.4658-.148l-.711-.7395c-.1226-.1233-.1471-.2219-.1471-.4931v-5.4237h1.5936c1.0787 0 1.7897 0 2.6233-.8629l1.3974-1.4299c.8336-.8629.8336-1.5778.8336-2.6379v-3.8952c0-1.0848 0-1.7751-.8336-2.6379l-.4903-.4931.4903-.49307c.8336-.86286.8336-1.57781.8336-2.6379v-1.60247c0-1.08474 0-1.77504-.8336-2.6379l-1.3974-1.429894c-.8581-.862866-1.5691-.862866-2.6478-.862866h-13.2144v3.59938h1.69164v14.44682h-1.69164v3.5994h8.11495v5.3991c0 1.1094 0 1.8243.83356 2.6872l1.39749 1.4299c.8335.8629 1.52.8629 2.5497.8629h6.791c1.0297 0 1.7162 0 2.5497-.8629l1.3975-1.4299c.8335-.8629.8335-1.5778.8335-2.6872v-9.6888l-1.7406-.8135z"/><path d="m11.6208 17.4792v-.9368h1.4955v-3.5747h-6.47232v3.5747h1.47099v.9368z"/></g></svg>