<svg fill="none" height="32" viewBox="0 0 97 32" width="97" xmlns="http://www.w3.org/2000/svg" xmlns:xlink="http://www.w3.org/1999/xlink"><clipPath id="a"><path d="m.974365 0h95.0588v32h-95.0588z"/></clipPath><g clip-path="url(#a)" fill="#576472"><path d="m12.928 8.02966c-6.60658 0-11.953635 5.34524-11.953635 11.94954s5.347055 11.9495 11.953635 11.9495c6.6066 0 11.9537-5.3452 11.9537-11.9495s-5.3471-11.94954-11.9537-11.94954zm0 17.93614c-3.30329 0-5.9887-2.6845-5.9887-5.9866 0-3.3022 2.68541-5.9867 5.9887-5.9867 3.3033 0 5.9887 2.6845 5.9887 5.9867 0 3.3021-2.6854 5.9866-5.9887 5.9866z"/><path d="m33.936 23.9941c0-.9503 1.1407-1.4017 1.8061-.7365 2.9944 3.0408 7.9374 8.2673 7.9612 8.291.0713.0713.1426.1901.4278.2851.1188.0475.3089.0475.5228.0475h5.3946c.9743 0 1.2595-1.1165.808-1.6867l-8.9356-9.1462-.4752-.4752c-1.0219-1.2116-.9031-1.6867.2614-2.922l7.0818-7.91094c.4516-.57015.1664-1.66295-.8317-1.66295h-4.8955c-.1902 0-.3328 0-.4753.04751-.2852.09503-.404.19005-.4753.28508-.0238.02376-3.945 4.2524-6.369 6.8419-.6654.7127-1.8536.2375-1.8536-.7365v-13.56494c0-.688939-.5704-.95026-1.0219-.95026h-3.9925c-.6892 0-1.0219.451373-1.0219.855234v30.075766c0 .6889.5704.8789 1.0457.8789h3.9925c.6178 0 1.0218-.4513 1.0218-.9027v-.3088-6.6043z"/><path d="m66.5412 30.7884-.4278-3.9911c-.0475-.5464-.5703-.9265-1.1169-.8314-.309.0475-.6179.0712-.9268.0712-3.1845 0-5.7749-2.4944-5.965-5.654 0-.0951 0-.2138 0-.3326v-4.8939c0-.6414.4753-1.164 1.117-1.164h5.347c.3803 0 .9506-.3326.9506-1.0216v-3.77724c0-.73645-.4753-1.11655-.903-1.11655h-5.3946c-.6179 0-1.117-.45137-1.1407-1.06904v-6.05791c0-.380104-.2852-.95026-1.0219-.95026h-3.9687c-.4991 0-.9744.308834-.9744.926503v19.456597c.1664 6.4617 5.4659 11.6169 11.9537 11.6169.5466 0 1.0694-.0475 1.5922-.1188.5704-.0713.9506-.5464.8793-1.0928z"/><path d="m95.344 25.7757c-3.3746 0-3.8974-1.2116-3.8974-5.7491 0-.0237 0-.0237 0-.0475v-10.9042c0-.3801-.2852-1.02153-1.0457-1.02153h-3.9924c-.4991 0-1.0457.40386-1.0457 1.02153v.49889c-1.7348-.99778-3.7548-1.56793-5.8936-1.56793-6.6066 0-11.9537 5.34524-11.9537 11.94954s5.3471 11.9495 11.9537 11.9495c2.9706 0 5.6797-1.0928 7.771-2.8745 1.117 1.7104 2.9231 2.8507 5.7511 2.8745.4753 0 3.0419.095 3.0419-1.1166v-4.2524c0-.3563-.2852-.7602-.6892-.7602zm-15.8511.1901c-3.3033 0-5.9887-2.6845-5.9887-5.9867 0-3.3021 2.6854-5.9866 5.9887-5.9866s5.9888 2.6845 5.9888 5.9866c-.0238 3.3022-2.7092 5.9867-5.9888 5.9867z"/></g></svg>