<svg fill="none" height="40" viewBox="0 0 133 40" width="133" xmlns="http://www.w3.org/2000/svg"><g clip-rule="evenodd" fill="#576472" fill-rule="evenodd"><path d="m82.507 31.2817c-7.7 5.6877-18.9 8.7179-28.56 8.7179-13.5334 0-25.6667-4.9883-34.9067-13.2866-.7-.6527-.0933-1.5385.7934-1.0257 9.94 5.7809 22.2133 9.2308 34.9066 9.2308 8.54 0 17.9667-1.7716 26.6467-5.4546 1.3066-.5128 2.38.8858 1.12 1.8182z"/><path d="m85.7275 27.5991c-.98-1.2588-6.5333-.6061-9.0067-.2797-.7466.0932-.8866-.5595-.1866-1.0257 4.4333-3.1235 11.6666-2.1911 12.5066-1.1655.84 1.0257-.2333 8.2984-4.3866 11.7483-.6534.5128-1.26.2331-.98-.4662.9333-2.331 3.0333-7.5059 2.0533-8.8112z"/><path d="m76.8607 4.38217v-3.03029c0-.466201.3267-.745923.7467-.745923h13.5333c.42 0 .7933.326342.7933.745923v2.56409c0 .41958-.3733.97902-1.0266 1.91142l-7 9.97661c2.6133-.0466 5.3666.3264 7.7 1.6317.5133.2798.6533.746.7 1.1655v3.2168c0 .4662-.4667.979-.98.6993-4.1534-2.1911-9.7067-2.4242-14.28.0466-.4667.2331-.98-.2331-.98-.6993v-3.0769c0-.4662 0-1.3053.5133-2.0513l8.12-11.60831h-7.0467c-.42 0-.7933-.32634-.7933-.74592z"/><path d="m27.533 23.1701h-4.1067c-.3733-.0466-.6999-.3263-.7466-.6993v-21.07216c0-.419576.3733-.745918.7933-.745918h3.8267c.42 0 .7.32634.7467.699298v2.75057h.0933c.98-2.65733 2.8933-3.916067 5.4133-3.916067 2.5667 0 4.2 1.258737 5.32 3.916067.98-2.65733 3.2667-3.916067 5.6933-3.916067 1.7267 0 3.5934.699299 4.76 2.330997 1.3067 1.77155 1.0267 4.33565 1.0267 6.62003v13.33325c0 .4196-.3733.7459-.7933.7459h-4.06c-.42-.0466-.7467-.3729-.7467-.7459v-11.1887c0-.8858.0933-3.12358-.0933-3.96274-.3267-1.3986-1.2134-1.81817-2.4267-1.81817-.98 0-2.0533.65268-2.4733 1.72494s-.3734 2.84377-.3734 4.05597v11.1887c0 .4196-.3733.7459-.7933.7459h-4.1067c-.42-.0466-.7466-.3729-.7466-.7459v-11.1887c0-2.33104.3733-5.82753-2.52-5.82753-2.94 0-2.8467 3.35663-2.8467 5.82753v11.1887c-.0467.373-.3733.6993-.84.6993z"/><path d="m103.6.186523c6.113 0 9.427 5.221427 9.427 11.888077 0 6.4335-3.64 11.5617-9.427 11.5617-5.9735 0-9.2401-5.2214-9.2401-11.7482-.0467-6.57339 3.2666-11.701577 9.2401-11.701577zm0 4.335647c-3.033 0-3.22 4.14918-3.22 6.71323 0 2.5641-.047 8.0653 3.173 8.0653 3.174 0 3.36-4.4289 3.36-7.1329 0-1.7715-.093-3.91603-.606-5.59435-.467-1.49183-1.4-2.05128-2.707-2.05128z"/><path d="m120.914 23.1701h-4.107c-.42-.0466-.746-.3729-.746-.7459v-21.1188c.046-.372961.373-.6993.793-.6993h3.827c.373 0 .653.279728.746.60607v3.21677h.094c1.166-2.89044 2.753-4.242417 5.6-4.242417 1.82 0 3.64.652673 4.806 2.470847 1.074 1.67832 1.074 4.52213 1.074 6.57341v13.28662c-.047.373-.374.6527-.794.6527h-4.106c-.374-.0466-.7-.3263-.747-.6527v-11.4684c0-2.33104.28-5.68767-2.567-5.68767-.98 0-1.913.65269-2.38 1.67832-.56 1.30536-.653 2.56409-.653 4.00935v11.3752c-.047.4196-.42.7459-.84.7459z"/><path d="m66.0796 13.1002c0 1.5851.0467 2.937-.7467 4.3823-.6533 1.1655-1.68 1.8648-2.8466 1.8648-1.5867 0-2.52-1.2122-2.52-2.9837 0-3.4965 3.1267-4.1492 6.1133-4.1492zm4.1533 10.0233c-.28.2331-.6533.2797-.98.0932-1.3533-1.1189-1.6333-1.6783-2.38-2.7506-2.24 2.2844-3.8733 2.9837-6.7666 2.9837-3.4534 0-6.16-2.1445-6.16-6.3869 0-3.3566 1.82-5.5944 4.3867-6.7133 2.2399-.97901 5.3666-1.16548 7.7466-1.4452v-.51282c0-.97902.0933-2.14451-.5133-2.98367-.5134-.74592-1.4467-1.07227-2.2867-1.07227-1.5866 0-2.9867.79255-3.3133 2.47087-.0934.37296-.3267.7459-.7.7459l-3.9667-.41957c-.3266-.09324-.7-.32634-.6066-.83915.9333-4.84847 5.2733-6.29369 9.1933-6.29369 2.0066 0 4.62.512816 6.2066 2.05127 2.0067 1.8648 1.82 4.38228 1.82 7.08623v6.3869c0 1.9114.7934 2.7506 1.54 3.8229.28.3729.3267.8391 0 1.0722-.8866.6993-2.38 2.0047-3.22 2.704z"/><path d="m12.18 13.1002c0 1.5851.0467 2.937-.7467 4.3823-.6533 1.1655-1.67998 1.8648-2.84664 1.8648-1.58667 0-2.52-1.2122-2.52-2.9837 0-3.4965 3.12667-4.1492 6.11334-4.1492zm4.1067 10.0233c-.28.2331-.6534.2797-.98.0932-1.3534-1.1189-1.6334-1.6783-2.38-2.7506-2.24 2.2844-3.87337 2.9837-6.7667 2.9837-3.45334 0-6.16-2.1445-6.16-6.3869 0-3.3566 1.82-5.5944 4.38666-6.7133 2.24-.97901 5.36667-1.16548 7.74664-1.4452v-.51282c0-.97902.0934-2.14451-.5133-2.98367-.5133-.74592-1.4467-1.07227-2.28667-1.07227-1.58667 0-2.98667.79255-3.31334 2.47087-.09333.37296-.32666.7459-.7.7459l-3.96666-.41957c-.32667-.09324-.699994-.32634-.606661-.83915.933331-4.84847 5.273331-6.29369 9.193331-6.29369 2.0067 0 4.62.512816 6.2067 2.05127 2.0066 1.8648 1.82 4.38228 1.82 7.08623v6.3869c0 1.9114.7933 2.7506 1.54 3.8229.28.3729.3266.8391 0 1.0722-.8867.6993-2.38 2.0047-3.22 2.704z"/></g></svg>