<svg fill="none" height="39" viewBox="0 0 37 39" width="37" xmlns="http://www.w3.org/2000/svg"><g fill="#21bf73"><path d="m36.6818 34.5864c-.2408 1.3157-.6921 2.706-1.7603 3.5283-.8726.6728-2.016.8522-3.1142.8821-1.339.0299-2.693-.1495-3.9718-.5382 1.5345-.7176 3.0089-1.5549 4.4081-2.5117-1.8806-.4635-3.7161-1.0914-5.4914-1.8688 1.4895-.5831 3.024-1.0316 4.5887-1.3605-1.8054-.6877-3.5807-1.4502-5.3409-2.2725 2.016-.6279 4.047-1.2408 6.063-1.8688 1.4744-.4485 3.3249-1.1661 4.3179.299.9628 1.4353.5867 4.1264.3009 5.7111z"/><path d="m6.58642.31824c1.31564.240716 2.70602.69206 3.52828 1.76023.6728.8726.8522 2.016.8821 3.11426.0299 1.33898-.1495 2.69301-.5382 3.97181-.71764-1.53456-1.55487-3.00894-2.5117-4.4081-.46346 1.88059-1.09138 3.71605-1.8688 5.49136-.58307-1.48946-1.03157-3.02403-1.36048-4.58868-.68772 1.80537-1.45021 3.58065-2.27248 5.34088-.62792-2.01599-1.24089-4.04704-1.868803-6.06303-.448513-1.47438-1.166133-3.32488.299009-4.317835 1.435244-.962863 4.126324-.5867447 5.711074-.300895z"/></g></svg>