<svg fill="none" height="24" viewBox="0 0 181 24" width="181" xmlns="http://www.w3.org/2000/svg" xmlns:xlink="http://www.w3.org/1999/xlink"><clipPath id="a"><path d="m.866638 0h180v24h-180z"/></clipPath><g clip-path="url(#a)" clip-rule="evenodd" fill="#576472" fill-rule="evenodd"><path d="m173.649 22.7694-8.279-10.2316h-.063v10.2316h-5.289v-22.220694h5.289v9.038924h.095l7.964-9.038924h6.737l-9.602 10.231594 10.169 11.9891z"/><path d="m158.642 19.8922c-.987 1.1385-2.204 2.0398-3.652 2.7039-1.448.6642-3.117.9962-5.006.9962-1.72 0-3.31-.2846-4.769-.8539-1.458-.5692-2.723-1.3756-3.793-2.4193-1.071-1.0436-1.91-2.2928-2.519-3.7475-.608-1.4548-.913-3.0571-.913-4.8071 0-1.79206.31-3.41547.929-4.87023s1.474-2.6934 2.566-3.71595c1.091-1.02255 2.371-1.8079 3.84-2.356067 1.469-.548172 3.054-.822253 4.754-.822253 1.574 0 3.122.279352 4.643.838065 1.522.558715 2.755 1.375685 3.699 2.450945l-3.651 3.66851c-.504-.69575-1.165-1.21229-1.984-1.54963-.818-.33733-1.658-.506-2.518-.506-.945 0-1.81.17394-2.597.52181-.787.34788-1.464.82752-2.031 1.43895-.566.61142-1.007 1.33352-1.322 2.16631-.315.8328-.472 1.74464-.472 2.73554 0 1.012.157 1.9397.472 2.783.315.8434.75 1.5655 1.306 2.1664.557.6008 1.223 1.0699 1.999 1.4073.777.3373 1.627.506 2.55.506 1.071 0 2.005-.2108 2.802-.6325.798-.4217 1.438-.9699 1.92-1.6445z"/><path d="m124.361 0c6.614 0 11.977 5.34235 11.977 11.9332 0 6.5908-5.363 11.9335-11.977 11.9335-6.615 0-11.978-5.3424-11.978-11.9332s5.363-11.9335 11.978-11.9335zm-3.553 4.7782v3.00203c-.881.14286-1.762.28606-2.643.4296v5.29667 5.2929c1.526.25 3.051.4996 4.577.7493 1.524.2503 3.051.501 4.577.7517v-6.786-6.7891c-1.526.24725-3.053.49381-4.577.74106l-.792.12809v-1.67821l6.897-.99106v5.45292 2.0398c-.496.2181-.844.7132-.844 1.2895 0 .7774.633 1.4086 1.415 1.4086.781 0 1.413-.6312 1.413-1.4086 0-.5763-.346-1.0714-.842-1.2895v-9.12595zm-1.541 4.58179v4.21391 4.2112c1.147.1432 2.295.2894 3.442.434 1.146.1442 2.294.2887 3.441.4353v-5.0741-5.07609c-1.146.14218-2.295.28503-3.441.42721-1.147.14286-2.295.28639-3.442.42857zm1.101 5.72811v.797c.78.0508 1.56.1006 2.34.1502.779.0501 1.56.0997 2.341.1501v-.9061c-.781-.0322-1.561-.0652-2.341-.0961-.78-.0312-1.56-.0642-2.34-.0951zm0-4.0966v.8047c.78-.0309 1.56-.062 2.34-.0926.779-.0302 1.56-.0598 2.341-.0906v-.9142c-.781.0488-1.561.0969-2.341.1453-.78.0487-1.56.0987-2.34.1474zm0 2.2358v.9658c.78.0114 1.56.0236 2.34.0351.779.0118 1.56.0244 2.341.0369v-1.0973c-.781.0104-1.561.0185-2.341.0292-.78.01-1.56.0207-2.34.0303z"/><path d="m106.01 22.7694-4.874-8.8192h-1.8485v8.8192h-5.3529v-22.220694h8.6024c1.084 0 2.141.109847 3.171.329544 1.03.2197 1.954.59108 2.772 1.11417s1.471 1.21356 1.959 2.07142c.489.85787.733 1.92495.733 3.20129 0 1.50649-.414 2.77237-1.242 3.79757-.829 1.0253-1.976 1.7576-3.442 2.197l5.895 9.5097zm-.235-15.33586c0-.52649-.113-.95294-.339-1.27937s-.516-.57914-.87-.75815c-.355-.179-.752-.3001-1.193-.36328s-.865-.09476-1.273-.09476h-2.9338v5.21222h2.6108c.452 0 .914-.0368 1.387-.1105.472-.07374.902-.20536 1.289-.3949.387-.18953.704-.46331.951-.82132.247-.35802.371-.82133.371-1.38994z"/><path d="m86.0884 22.7694-8.2793-10.2316h-.063v10.2316h-5.2887v-22.220694h5.2887v9.038924h.0945l7.9645-9.038924h6.7368l-9.6015 10.231594 10.1682 11.9891z"/><path d="m71.356 19.8922c-.9864 1.1385-2.2036 2.0398-3.6517 2.7039-1.4482.6642-3.1166.9962-5.0054.9962-1.721 0-3.3107-.2846-4.7693-.8539-1.4586-.5692-2.7231-1.3756-3.7934-2.4193-1.0704-1.0436-1.9098-2.2928-2.5185-3.7475-.6086-1.4548-.9129-3.0571-.9129-4.8071 0-1.79206.3096-3.41547.9287-4.87023s1.4743-2.6934 2.5656-3.71595c1.0914-1.02255 2.3716-1.8079 3.8407-2.356067 1.4691-.548172 3.0536-.822253 4.7535-.822253 1.574 0 3.1218.279352 4.6434.838065 1.5215.558715 2.7545 1.375685 3.6989 2.450945l-3.6517 3.66851c-.5037-.69575-1.1648-1.21229-1.9833-1.54963-.8185-.33733-1.6579-.506-2.5184-.506-.9444 0-1.8101.17394-2.5972.52181-.787.34788-1.4638.82752-2.0304 1.43895-.5667.61142-1.0074 1.33352-1.3222 2.16631-.3148.8328-.4722 1.74464-.4722 2.73554 0 1.012.1574 1.9397.4722 2.783.3148.8434.7503 1.5655 1.3064 2.1664.5562.6008 1.2225 1.0699 1.999 1.4073.7766.3373 1.6265.506 2.5499.506 1.0704 0 2.0043-.2108 2.8018-.6325s1.4376-.9699 1.9203-1.6445z"/><path d="m48.7774 14.3606c0 1.3364-.2276 2.5526-.6827 3.6488-.4552 1.0962-1.1061 2.0357-1.9529 2.8187s-1.8681 1.3938-3.0642 1.8322c-1.1961.4385-2.5244.6577-3.9851.6577-1.4818 0-2.8155-.2192-4.0009-.6577-1.1855-.4384-2.191-1.0492-3.0166-1.8322s-1.4607-1.7225-1.9052-2.8187c-.4446-1.0962-.6669-2.3124-.6669-3.6488v-13.811894h5.3981v13.373494c0 .6055.0794 1.1797.2382 1.7225.1588.5429.4022 1.0284.7303 1.4564s.7621.7673 1.3019 1.0179 1.1908.3758 1.9529.3758 1.413-.1252 1.9528-.3758.9791-.5899 1.3178-1.0179.5821-.9135.7303-1.4564c.1482-.5428.2223-1.117.2223-1.7225v-13.373494h5.4299z"/><path d="m21.188 22.7694.1266-15.72397h-.0949l-5.8242 15.72397h-3.7984l-5.66595-15.72397h-.09496l.12662 15.72397h-5.096172v-22.220694h7.691732l5.09613 14.248894h.1267l4.8746-14.248894h7.8183v22.220694z"/></g></svg>