<svg width="146" height="36" viewBox="0 0 146 36" fill="none" xmlns="http://www.w3.org/2000/svg">
<path d="M16.2936 17.5147C16.4841 17.5147 16.6728 17.4772 16.8488 17.4044C17.0248 17.3315 17.1847 17.2247 17.3193 17.09C17.454 16.9554 17.5608 16.7956 17.6336 16.6197C17.7064 16.4438 17.7438 16.2553 17.7436 16.065V0.850716C17.7436 0.238259 17.0062 -0.199049 16.4678 0.0924895L1.27467 8.3245C0.889393 8.53397 0.567703 8.84326 0.343405 9.21986C0.119107 9.59646 0.000483672 10.0265 0 10.4647L0 17.5599C0 18.2052 0.697846 17.63 1.25771 17.3091L8.77906 12.4716C8.90661 12.3985 9.05114 12.3602 9.19816 12.3605C9.34518 12.3609 9.48954 12.3997 9.61679 12.4733C9.74404 12.5469 9.8497 12.6526 9.92321 12.7798C9.99672 12.907 10.0355 13.0513 10.0356 13.1982V16.0672C10.0369 16.867 10.6862 17.5147 11.4867 17.5147H16.2936Z" fill="#949CA5"/>
<path d="M1.46133 18.4819C0.660338 18.4826 0.0113525 19.1315 0.0113525 19.9317V35.1482C0.0113525 35.7607 0.748784 36.1991 1.28715 35.9076L16.4814 27.6756C16.8666 27.4664 17.1883 27.1576 17.4128 26.7814C17.6372 26.4052 17.7562 25.9756 17.7572 25.5376V20.3024C17.7459 18.4571 16.9655 18.7204 16.4 19.0424L8.9759 23.5274C8.8484 23.6008 8.7038 23.6393 8.55665 23.6392C8.40949 23.6391 8.26497 23.6002 8.1376 23.5266C8.01024 23.4529 7.90453 23.3471 7.83111 23.2197C7.75768 23.0923 7.71913 22.9478 7.71932 22.8008V19.9317C7.71932 19.5472 7.56644 19.1785 7.2943 18.9066C7.02217 18.6347 6.65307 18.4819 6.26821 18.4819H1.46133Z" fill="#576472"/>
<path d="M35.2203 23.0687C35.1868 23.0358 35.1469 23.0102 35.1031 22.9935C35.0592 22.9768 35.0123 22.9694 34.9655 22.9717C34.9186 22.9741 34.8727 22.9861 34.8307 23.0071C34.7887 23.028 34.7515 23.0575 34.7215 23.0935C34.1388 23.7914 33.3317 24.2654 32.438 24.4348H32.4142C32.1396 24.4817 31.8615 24.5062 31.5829 24.5083H31.5173C31.4215 24.5083 31.3265 24.506 31.2323 24.5015C29.967 24.4405 28.9318 23.9659 28.1265 23.0777C28.0824 23.0291 28.0405 22.9805 27.9987 22.9308C27.2446 22.0328 26.8549 20.9371 26.8292 19.6436V19.3216C26.9136 18.2259 27.36 17.1893 28.0982 16.3746C28.9035 15.4864 29.9387 15.0118 31.204 14.9508C31.2982 14.9463 31.3932 14.944 31.489 14.944H31.5558C31.8344 14.946 32.1124 14.9706 32.3871 15.0174H32.4108C33.3045 15.1868 34.1117 15.6609 34.6944 16.3587C34.7193 16.387 34.743 16.4152 34.7668 16.4446C34.7966 16.4805 34.8335 16.5098 34.8752 16.5307C34.9169 16.5517 34.9625 16.5638 35.0091 16.5663C35.0557 16.5689 35.1023 16.5618 35.1461 16.5455C35.1898 16.5292 35.2297 16.5041 35.2633 16.4717L35.4035 16.3361L35.7575 15.9971L37.2007 14.6073L37.2154 14.5937C37.2791 14.5325 37.3164 14.4489 37.3193 14.3607C37.3223 14.2725 37.2907 14.1867 37.2313 14.1214C37.2188 14.1067 37.2053 14.092 37.1917 14.0784C37.0278 13.9003 36.8557 13.7299 36.6759 13.5677L36.659 13.553C36.3983 13.3272 36.1237 13.1182 35.8367 12.927L35.7734 12.8851C34.9572 12.3528 34.0502 11.9744 33.0974 11.7687C32.4999 11.6636 31.8944 11.6099 31.2877 11.6083C30.2667 11.6617 29.2627 11.8911 28.3199 12.2862C27.7965 12.5071 27.2976 12.782 26.8315 13.1066C26.5019 13.3351 26.1882 13.5858 25.8927 13.8569C24.2391 15.3757 23.4124 17.3404 23.4124 19.751C23.4124 22.1616 24.2041 24.1128 25.7875 25.6044C26.114 25.9128 26.4638 26.1958 26.8337 26.4507C27.6359 27.0055 28.5358 27.4039 29.486 27.6248H29.4996C30.1409 27.7697 30.7965 27.8417 31.454 27.8395C31.6112 27.8395 31.7661 27.8395 31.9211 27.8282C31.9731 27.8282 32.0252 27.8225 32.076 27.818L32.179 27.8101L32.2661 27.8022L32.4199 27.7864L32.5228 27.7739H32.5613L32.6348 27.7649L32.7366 27.7513L32.8282 27.7378L32.9413 27.722H33.0171L33.0612 27.7152H33.1324C34.0852 27.5095 34.9922 27.1311 35.8084 26.5988L35.8718 26.5569C36.1588 26.3657 36.4334 26.1567 36.694 25.9309L36.711 25.9162C36.8911 25.7544 37.0632 25.584 37.2268 25.4055C37.2767 25.3509 37.3033 25.2791 37.301 25.2052C37.2986 25.1313 37.2676 25.0613 37.2143 25.01L37.2041 25.0009L35.2203 23.0687ZM45.0015 19.1295V27.5027C45.0015 27.5927 44.9657 27.6789 44.9021 27.7425C44.8384 27.806 44.7521 27.8417 44.6622 27.8417H41.9477C41.8577 27.8417 41.7714 27.806 41.7078 27.7425C41.6441 27.6789 41.6084 27.5927 41.6084 27.5027V6.46339C41.6084 6.37348 41.6441 6.28725 41.7078 6.22368C41.7714 6.16011 41.8577 6.12439 41.9477 6.12439H44.6622C44.7521 6.12439 44.8384 6.16011 44.9021 6.22368C44.9657 6.28725 45.0015 6.37348 45.0015 6.46339V13.7055C46.603 11.8342 48.2226 11.6015 49.331 11.6015C51.1509 11.6015 52.7954 11.9755 54.0814 13.0772C55.2791 14.1033 56.4475 15.883 56.4475 17.9792V27.5027C56.4475 27.5927 56.4117 27.6789 56.3481 27.7425C56.2845 27.806 56.1982 27.8417 56.1082 27.8417H53.3937C53.3037 27.8417 53.2174 27.806 53.1538 27.7425C53.0901 27.6789 53.0544 27.5927 53.0544 27.5027V19.0086C53.0544 16.0435 51.4902 14.9316 49.0279 14.9316C47.8562 14.9316 46.9627 15.2321 46.1212 16.0435C45.3306 16.8062 45.0015 17.6368 45.0015 19.1295ZM88.7429 14.5858C88.7429 14.6757 88.7072 14.7619 88.6436 14.8255C88.5799 14.8891 88.4936 14.9248 88.4036 14.9248C86.8051 14.9572 85.5953 15.5011 84.7741 16.5565C83.9312 17.6473 83.5093 19.1099 83.5085 20.9443V27.8372H80.1154V11.9382C80.1154 11.8483 80.1512 11.7621 80.2148 11.6985C80.2784 11.6349 80.3648 11.5992 80.4547 11.5992H83.1692C83.2592 11.5992 83.3455 11.6349 83.4091 11.6985C83.4728 11.7621 83.5085 11.8483 83.5085 11.9382V13.701C84.79 11.9246 87.1493 11.6591 88.372 11.6094C88.4176 11.6076 88.4632 11.615 88.506 11.6312C88.5487 11.6474 88.5877 11.6721 88.6207 11.7037C88.6537 11.7354 88.6799 11.7734 88.6978 11.8154C88.7157 11.8575 88.7249 11.9027 88.7248 11.9484C88.726 12.5857 88.7373 13.9496 88.7429 14.5858ZM113.93 27.8429H111.215C111.17 27.8429 111.126 27.8339 111.084 27.8164C111.042 27.799 111.005 27.7734 110.973 27.7412C110.941 27.709 110.917 27.6708 110.9 27.6289C110.883 27.587 110.875 27.5422 110.876 27.4971V11.945C110.875 11.8999 110.883 11.8551 110.9 11.8132C110.917 11.7713 110.941 11.7331 110.973 11.7009C111.005 11.6687 111.042 11.6431 111.084 11.6256C111.126 11.6082 111.17 11.5992 111.215 11.5992H113.93C113.975 11.5992 114.02 11.6082 114.061 11.6256C114.103 11.6431 114.141 11.6687 114.172 11.7009C114.204 11.7331 114.229 11.7713 114.245 11.8132C114.262 11.8551 114.27 11.8999 114.269 11.945V27.4971C114.27 27.5422 114.262 27.587 114.245 27.6289C114.229 27.6708 114.204 27.709 114.172 27.7412C114.141 27.7734 114.103 27.799 114.061 27.8164C114.02 27.8339 113.975 27.8429 113.93 27.8429ZM72.3351 27.8451H75.7666V11.6286H72.524C72.5119 11.6274 72.4998 11.6274 72.4878 11.6286C72.465 11.6341 72.4432 11.6432 72.4233 11.6557C72.4138 11.6623 72.4051 11.6699 72.3973 11.6783C72.3894 11.6862 72.3826 11.6953 72.3747 11.7043C72.3679 11.7132 72.3625 11.7231 72.3588 11.7337C72.3588 11.745 72.3509 11.7563 72.3475 11.7676C72.3463 11.7796 72.3463 11.7917 72.3475 11.8037V13.6942C70.608 10.8444 66.4254 11.7156 66.0805 11.7608C65.1262 11.9674 64.218 12.3474 63.4011 12.8818L63.3377 12.9236C63.0507 13.1148 62.7761 13.3239 62.5155 13.5496L62.4985 13.5643C62.3181 13.7257 62.1459 13.8962 61.9828 14.075C60.9745 15.1613 60.3062 16.5183 60.06 17.9792C59.9448 18.5791 59.888 19.1887 59.8903 19.7996C59.8903 22.0189 60.5769 23.8743 61.95 25.3659C62.1139 25.544 62.286 25.7145 62.4657 25.8767L62.4827 25.8914C62.7433 26.1171 63.018 26.3262 63.3049 26.5174L63.3683 26.5592C64.1869 27.0925 65.0966 27.4709 66.0522 27.6756C66.3983 27.7208 70.625 28.6011 72.3486 25.6959L72.3351 27.8451ZM72.3441 19.5126V19.638C72.32 20.9322 71.9302 22.0279 71.1746 22.9251C71.1328 22.9749 71.0909 23.0235 71.0468 23.072C70.2415 23.9602 69.253 24.4845 67.993 24.541H67.5497C67.283 24.5265 67.0181 24.4887 66.758 24.428H66.7342C65.8405 24.2587 65.0334 23.7846 64.4507 23.0867C63.6333 22.127 63.2246 20.9853 63.2246 19.6617C63.2226 18.4433 63.6695 17.2668 64.4801 16.3565C65.0628 15.6586 65.8699 15.1846 66.7636 15.0152H66.7874C67.062 14.9683 67.34 14.9438 67.6187 14.9417H67.6843C67.7801 14.9417 67.8751 14.944 67.9693 14.9485C69.2346 15.0095 70.2698 15.4841 71.0751 16.3723C71.8133 17.187 72.2597 18.2236 72.3441 19.3193V19.5126ZM145.461 11.5992C145.551 11.5992 145.637 11.6349 145.701 11.6985C145.764 11.7621 145.8 11.8483 145.8 11.9382V26.6134C145.793 26.9219 145.775 27.2214 145.749 27.5174C145.749 27.5807 145.738 27.644 145.731 27.7061C145.699 28.0124 145.659 28.3084 145.607 28.5955C145.598 28.6418 145.59 28.6881 145.581 28.7333C145.567 28.8045 145.553 28.8757 145.539 28.9458L145.525 29.0034C145.512 29.0678 145.497 29.1322 145.481 29.1955C145.239 30.2806 144.772 31.303 144.11 32.1967C144.07 32.2499 144.029 32.3018 143.987 32.3538C143.908 32.4544 143.825 32.5516 143.738 32.6465C143.732 32.6523 143.726 32.6587 143.721 32.6657C143.679 32.712 143.636 32.7583 143.592 32.8035C143.548 32.8487 143.5 32.8985 143.452 32.9448C143.404 32.9911 143.355 33.0397 143.305 33.086C143.255 33.1324 143.208 33.1765 143.158 33.2194C143.108 33.2623 143.06 33.3075 143.009 33.3493C142.958 33.3911 142.908 33.4341 142.857 33.4748C142.755 33.5573 142.651 33.6364 142.545 33.7109C142.493 33.7482 142.44 33.7855 142.385 33.8239C142.346 33.8499 142.306 33.877 142.272 33.9019C141.911 34.135 141.53 34.3351 141.133 34.4997L141 34.5539C140.865 34.607 140.73 34.6556 140.592 34.6997L140.426 34.7517L140.36 34.7709L140.298 34.7889L140.169 34.824C140.094 34.8443 140.018 34.8624 139.942 34.8805L139.882 34.894C139.809 34.911 139.735 34.9268 139.656 34.9404C139.577 34.9539 139.508 34.9686 139.43 34.9811L139.317 34.998L139.124 35.0262C139.058 35.0353 138.991 35.0432 138.923 35.05L138.81 35.0613L138.679 35.0726C138.586 35.0805 138.491 35.0873 138.396 35.0918L138.273 35.0974C138.221 35.0974 138.169 35.0974 138.117 35.1031H137.852C136.061 35.1031 134.488 34.6677 133.134 33.7968C133.061 33.7505 132.99 33.703 132.921 33.6544C132.885 33.6296 132.849 33.6047 132.808 33.5776C132.767 33.5505 132.749 33.5369 132.721 33.5143C132.691 33.494 132.662 33.4714 132.634 33.4499L132.626 33.4431C132.56 33.3934 132.495 33.3414 132.431 33.2894C132.368 33.2375 132.308 33.1866 132.248 33.1324C132.213 33.1019 132.178 33.0702 132.144 33.0375C132.11 33.0047 132.051 32.9538 132.006 32.9098C131.938 32.8434 131.871 32.7756 131.806 32.7064C131.74 32.6386 131.676 32.5685 131.614 32.4962C131.551 32.4239 131.5 32.3651 131.445 32.2973C131.319 32.1415 131.199 31.9809 131.085 31.8159C131.03 31.7357 130.972 31.6555 130.926 31.573C130.879 31.4905 130.824 31.408 130.774 31.3233C130.726 31.2385 130.678 31.1526 130.632 31.0645C130.585 30.9764 130.546 30.8995 130.504 30.8148C130.502 30.8089 130.499 30.8032 130.496 30.7978C130.408 30.6139 130.326 30.4273 130.249 30.2385C130.239 30.2109 130.235 30.1811 130.237 30.1517C130.24 30.1222 130.25 30.0938 130.266 30.069C130.271 30.0614 130.276 30.0543 130.282 30.0475L130.302 30.0283C130.316 30.0166 130.332 30.0067 130.349 29.9989L133.008 28.8384C133.034 28.8268 133.063 28.8219 133.092 28.8243C133.12 28.8267 133.148 28.8362 133.172 28.852C133.181 28.8577 133.189 28.8642 133.197 28.8712C133.218 28.8896 133.234 28.9124 133.244 28.9378C133.27 29.0023 133.296 29.0655 133.325 29.1277C133.353 29.1898 133.38 29.252 133.408 29.3119C133.437 29.3718 133.459 29.417 133.485 29.4678L133.506 29.5074C133.532 29.5605 133.561 29.6113 133.589 29.6622C133.652 29.7752 133.718 29.8882 133.786 29.9876C133.816 30.0339 133.847 30.0791 133.878 30.1232C133.954 30.2306 134.032 30.3334 134.113 30.4317C134.152 30.4792 134.19 30.5232 134.226 30.5673C134.266 30.6102 134.305 30.6532 134.339 30.6939C134.422 30.7786 134.507 30.8588 134.595 30.9357C134.638 30.973 134.683 31.0102 134.728 31.0487C134.774 31.0871 134.819 31.121 134.866 31.1549C134.914 31.1888 134.96 31.2227 135.008 31.2543C135.055 31.286 135.121 31.33 135.184 31.3673C135.224 31.3922 135.263 31.4148 135.304 31.4374C135.406 31.4939 135.51 31.5463 135.616 31.5945C135.671 31.6182 135.704 31.634 135.75 31.6521L135.829 31.6837C135.991 31.7475 136.158 31.8015 136.327 31.8453C136.369 31.8577 136.414 31.8679 136.458 31.8792C136.711 31.938 136.968 31.9791 137.227 32.0024C137.292 32.008 137.359 32.0137 137.426 32.0171C137.493 32.0205 137.562 32.025 137.629 32.0261C137.697 32.0272 137.767 32.0261 137.838 32.0261C140.762 32.0261 142.268 30.1628 142.355 26.436V25.7196C140.631 28.6248 136.405 27.7446 136.058 27.6994C132.671 26.9637 130.14 24.138 129.782 20.6934C129.778 20.655 129.774 20.6174 129.772 20.5804C129.751 20.3018 129.74 20.0225 129.739 19.7431V11.9461C129.739 11.8562 129.775 11.77 129.839 11.7064C129.902 11.6428 129.989 11.6071 130.079 11.6071H132.793C132.883 11.6071 132.969 11.6428 133.033 11.7064C133.097 11.77 133.132 11.8562 133.132 11.9461V18.9159C133.121 19.0504 133.122 19.4481 133.132 19.8199C133.14 20.09 133.154 20.3454 133.173 20.4708C133.324 21.4211 133.737 22.3106 134.366 23.0393C135.188 24.0269 136.295 24.5207 137.689 24.5207C137.785 24.5207 137.88 24.5184 137.974 24.5139C139.24 24.4529 140.275 23.9783 141.08 23.0901C141.124 23.0415 141.166 22.9929 141.208 22.9432C141.962 22.0452 142.352 20.9496 142.378 19.6561V11.9382C142.378 11.8483 142.413 11.7621 142.477 11.6985C142.541 11.6349 142.627 11.5992 142.717 11.5992H145.461ZM122.318 11.6297V13.6987H126.377C126.425 13.6987 126.47 13.7176 126.504 13.7513C126.538 13.785 126.557 13.8307 126.558 13.8784V16.2424C126.557 16.2901 126.538 16.3358 126.504 16.3695C126.47 16.4031 126.425 16.422 126.377 16.422H122.318V27.6655C122.318 27.7131 122.299 27.7588 122.265 27.7925C122.231 27.8262 122.185 27.8451 122.138 27.8451H119.107C119.059 27.8451 119.013 27.8262 118.979 27.7926C118.945 27.7589 118.926 27.7132 118.926 27.6655V11.7201C118.926 9.9875 119.466 8.63151 120.546 7.65214C121.622 6.67809 122.863 6.1549 124.54 6.12552H127.293C127.352 6.12579 127.41 6.1416 127.462 6.17136C127.513 6.20112 127.556 6.24379 127.585 6.29513C127.615 6.34646 127.631 6.40467 127.631 6.46393C127.631 6.52319 127.615 6.58145 127.586 6.63289L126.125 9.16181C126.095 9.21321 126.052 9.25592 126.001 9.28567C125.949 9.31541 125.891 9.33115 125.832 9.33131H124.832C123.156 9.33052 122.318 10.0967 122.318 11.6297ZM102.894 11.9439V13.7033C101.155 10.8534 96.9723 11.7246 96.6273 11.7698C95.6749 11.9741 94.7679 12.351 93.9513 12.8818L93.888 12.9236C93.601 13.1148 93.3264 13.3239 93.0657 13.5496L93.0488 13.5643C92.8683 13.7257 92.6962 13.8962 92.533 14.075C91.5248 15.1613 90.8565 16.5183 90.6103 17.9792C90.495 18.5791 90.4382 19.1887 90.4406 19.7996C90.4406 22.0189 91.1271 23.8743 92.5002 25.3659C92.6641 25.544 92.8363 25.7145 93.016 25.8767L93.0329 25.8914C93.2936 26.1171 93.5682 26.3262 93.8552 26.5174L93.9185 26.5592C94.7351 27.0952 95.6433 27.4766 96.5979 27.6847C96.944 27.7299 101.171 28.6101 102.894 25.7049V26.4213C102.888 27.3085 102.755 28.1903 102.502 29.0407C102.482 29.1085 102.459 29.174 102.436 29.2395C102.437 29.2429 102.437 29.2463 102.436 29.2497C101.783 31.0863 100.429 32.0043 98.3759 32.0035H98.1678C98.0988 32.0035 98.0321 32.0035 97.9642 31.9945C97.8964 31.9854 97.8308 31.9854 97.7652 31.9798C97.5063 31.9565 97.2493 31.9154 96.9961 31.8566C96.952 31.8453 96.9078 31.8351 96.8649 31.8227C96.6959 31.7789 96.5297 31.7249 96.3672 31.6611L96.288 31.6295C96.2428 31.6114 96.1987 31.5922 96.1546 31.5719C96.1105 31.5515 96.0483 31.5233 95.9962 31.4961C95.9442 31.469 95.8922 31.443 95.8424 31.4148C95.7926 31.3865 95.7621 31.3696 95.7225 31.3447C95.6614 31.3097 95.6094 31.2724 95.5461 31.2317C95.4827 31.1911 95.4511 31.1673 95.4047 31.1323C95.3583 31.0973 95.312 31.0622 95.2667 31.0261C95.2215 30.9899 95.1762 30.9526 95.1333 30.9131C95.045 30.8362 94.9602 30.756 94.8776 30.6713C94.8381 30.6306 94.7985 30.5876 94.7589 30.5447C94.7182 30.5006 94.6797 30.4566 94.6458 30.4091C94.5643 30.3108 94.4863 30.208 94.4105 30.1006C94.38 30.0565 94.3483 30.0113 94.3189 29.965C94.251 29.861 94.1843 29.7526 94.1221 29.6396C94.0938 29.5887 94.0644 29.5379 94.0384 29.4848L94.0181 29.4452C93.992 29.3944 93.966 29.3424 93.9411 29.2893C93.9163 29.2362 93.8846 29.1684 93.8575 29.1051C93.8303 29.0418 93.8032 28.9797 93.7771 28.9152C93.7664 28.8898 93.7502 28.867 93.7296 28.8486C93.7218 28.8416 93.7135 28.8351 93.7048 28.8294C93.6803 28.8126 93.652 28.8024 93.6224 28.7999C93.5929 28.7973 93.5632 28.8024 93.5362 28.8147L90.9349 29.9447L90.9179 29.9526L90.8761 29.9707C90.8591 29.9785 90.8431 29.9883 90.8286 30L90.8093 30.0192C90.8034 30.026 90.798 30.0331 90.7935 30.0407C90.7774 30.0656 90.7675 30.0939 90.7645 30.1234C90.7616 30.1529 90.7657 30.1826 90.7765 30.2102C90.815 30.3063 90.8546 30.4012 90.8964 30.4938C90.9383 30.5865 90.9801 30.6792 91.0231 30.7696C91.0262 30.775 91.0288 30.7807 91.031 30.7865C91.0729 30.8713 91.1158 30.9549 91.1588 31.0362C91.2018 31.1176 91.2527 31.2103 91.3013 31.295C91.3511 31.3798 91.4009 31.4634 91.4529 31.5447C91.5049 31.6261 91.5581 31.7086 91.6124 31.7877C91.6666 31.8668 91.7255 31.9459 91.7809 32.0227C91.8363 32.0996 91.9064 32.1888 91.972 32.2691C92.0376 32.3493 92.0851 32.4035 92.1405 32.4679C92.2027 32.5397 92.2668 32.6098 92.3328 32.6781C92.3984 32.7459 92.4652 32.8148 92.533 32.8815C92.5783 32.9256 92.6246 32.9685 92.671 33.0092C92.7174 33.0499 92.74 33.0736 92.7751 33.1041C92.835 33.1584 92.8961 33.2104 92.9583 33.2612C93.0205 33.312 93.0872 33.3652 93.1528 33.4149L93.1607 33.4217C93.189 33.4431 93.2184 33.4657 93.2478 33.4861C93.2761 33.5087 93.3055 33.5301 93.3349 33.5493C93.3643 33.5686 93.4062 33.6013 93.4424 33.6262C93.5114 33.6748 93.5826 33.7222 93.655 33.7686C95.0122 34.6395 96.5852 35.0748 98.3737 35.0748H98.6383C98.6903 35.0748 98.7424 35.0748 98.7944 35.0692L98.9177 35.0635C99.0127 35.0635 99.1077 35.0522 99.2004 35.0443L99.3316 35.033L99.4447 35.0217C99.5126 35.0149 99.5793 35.007 99.6449 34.998L99.8383 34.9697L99.9514 34.9528C100.026 34.9404 100.101 34.9268 100.178 34.9121C100.255 34.8974 100.325 34.8827 100.398 34.8658L100.458 34.8522C100.535 34.8341 100.611 34.8161 100.684 34.7957L100.813 34.7607L100.875 34.7426L100.942 34.7234L101.107 34.6714C101.245 34.6274 101.381 34.5788 101.516 34.5257L101.649 34.4714C102.046 34.3068 102.427 34.1068 102.788 33.8737L102.901 33.7957C102.955 33.7595 103.014 33.7222 103.061 33.6827C103.167 33.6081 103.271 33.529 103.373 33.4465C103.424 33.4058 103.475 33.364 103.524 33.3211C103.574 33.2781 103.625 33.2352 103.674 33.1911C103.722 33.1471 103.772 33.103 103.821 33.0578C103.869 33.0126 103.919 32.964 103.968 32.9165C104.016 32.8691 104.062 32.8228 104.108 32.7753C104.154 32.7278 104.195 32.6838 104.237 32.6374C104.242 32.6305 104.248 32.6241 104.254 32.6182C104.341 32.5233 104.424 32.4261 104.503 32.3256C104.545 32.2736 104.585 32.2216 104.626 32.1685C105.288 31.2747 105.755 30.2523 105.997 29.1672C106.013 29.1039 106.027 29.0395 106.041 28.9751C106.041 28.9571 106.05 28.9378 106.053 28.9198C106.054 28.9126 106.054 28.9054 106.053 28.8983C106.067 28.835 106.079 28.7695 106.092 28.7051C106.101 28.6599 106.109 28.6135 106.118 28.5672C106.135 28.4745 106.151 28.3796 106.165 28.2847C106.196 28.087 106.221 27.8847 106.242 27.6779C106.249 27.6157 106.255 27.5525 106.26 27.4892C106.286 27.1977 106.304 26.8982 106.311 26.5852V11.9472C106.311 11.8573 106.275 11.7711 106.212 11.7075C106.148 11.644 106.062 11.6083 105.972 11.6083H103.228C103.14 11.6097 103.055 11.6456 102.993 11.7083C102.931 11.771 102.895 11.8555 102.894 11.9439ZM98.1441 24.5501C97.8654 24.548 97.5874 24.5235 97.3128 24.4766H97.289C96.3951 24.3058 95.5883 23.8301 95.0066 23.1308C94.1885 22.174 93.7797 21.0347 93.7805 19.7126C93.7686 18.4874 94.1923 17.2977 94.976 16.3554C95.5833 15.6427 96.4169 15.1596 97.3376 14.9869C97.6131 14.942 97.8922 14.9234 98.1712 14.9316H98.5252C99.1165 14.9546 99.6969 15.0978 100.231 15.3525C100.765 15.6072 101.241 15.9681 101.631 16.413C102.369 17.2277 102.816 18.2643 102.9 19.36V19.6821C102.876 20.9756 102.486 22.0712 101.731 22.9692C101.689 23.0189 101.647 23.0675 101.603 23.1161C100.797 24.0043 99.7622 24.4789 98.4969 24.5399L98.1441 24.5501Z" fill="#576472"/>
<path d="M113.932 6.12549H111.219C111.031 6.12549 110.88 6.27726 110.88 6.46449V9.17534C110.88 9.36257 111.031 9.51434 111.219 9.51434H113.932C114.12 9.51434 114.271 9.36257 114.271 9.17534V6.46449C114.271 6.27726 114.12 6.12549 113.932 6.12549Z" fill="#576472"/>
</svg>
