<svg fill="none" height="28" viewBox="0 0 138 28" width="138" xmlns="http://www.w3.org/2000/svg" xmlns:xlink="http://www.w3.org/1999/xlink"><clipPath id="a"><path d="m.866699 0h136.5v28h-136.5z"/></clipPath><g clip-path="url(#a)" fill="#576472"><path d="m4.1007 16.1979h-3.234001v5.88h3.234001z"/><path d="m13.0492 1.078c-1.7364-.924-2.9406-1.078-5.78319-1.078h-6.399311v13.384h6.371311c2.53452 0 4.42489-.154 6.09129-1.26 1.8203-1.204 2.7585-3.206 2.7585-5.516 0-2.506-1.1622-4.508-3.0386-5.53zm-5.06904 9.506h-3.8788v-7.714l3.65475-.028c3.33269-.042 4.99899 1.134 4.99899 3.794 0 2.856-2.0584 3.948-4.77494 3.948z"/><path d="m133.964 5.86617-3.081 8.73603c-.56 1.568-.84 2.464-1.358 3.976h-.056c-.406-1.302-.784-2.352-1.302-3.892l-2.983-8.83403h-3.585l6.204 16.21203c-.14.35-.28.714-.434 1.092-.519 1.26-1.751 2.086-3.109 2.086h-1.54v2.758h1.582c2.562 0 4.873-1.568 5.825-3.948 1.975-4.942 5.335-13.356 7.254-18.18603z"/><path d="m47.9444 18.9561c0 5.866-2.6886 9.044-8.1217 9.044-4.0468 0-6.4833-2.128-7.3515-5.334h3.2767c.5601 1.484 1.7363 2.814 4.1308 2.814 3.7108 0 5.027-2.31 5.027-6.706-.028 0-.028-.028-.056-.028-.7981 1.386-2.5905 2.618-5.4331 2.618-4.5649 0-7.4635-3.304-7.4635-7.938 0-4.816 3.1506-8.05 7.5055-8.05 2.8146 0 4.5089 1.204 5.4331 2.534-.028-.336-.028-.672-.028-1.022v-1.022h3.0807zm-12.6026-5.558c0 3.15 1.7643 5.404 4.789 5.404 2.7165 0 4.8169-1.918 4.8169-5.488 0-3.178-1.8483-5.306-4.8169-5.306-2.9687 0-4.789 2.114-4.789 5.39z"/><path d="m53.0553 14.7839c.126 2.842 1.9464 5.096 5.097 5.096 2.2265 0 3.3047-1.05 4.1309-2.436h3.1226c-.9242 2.926-3.4867 5.026-7.3795 5.026-4.999 0-8.1216-3.36-8.1216-8.428 0-5.06797 3.2346-8.63797 8.1216-8.63797 5.2791 0 7.7156 4.018 7.7156 8.37197v1.022zm9.4379-2.464c-.28-2.56197-1.8904-4.38197-4.5369-4.38197-2.5345 0-4.4809 1.666-4.789 4.38197z"/><path d="m70.741 5.86596v2.072c.5181-1.512 2.1004-2.478 3.9208-2.478.2661 0 .5321.014.7982.056v2.842c-.3641-.07-.7142-.098-1.0782-.098-2.9407 0-3.4868 2.15604-3.4868 5.40404v8.4h-3.1226v-13.30004c0-1.022 0-1.918-.028-2.898z"/><path d="m107.526 19.7541c-.84 1.386-2.408 2.716-5.153 2.716-3.7664 0-5.6148-2.31-5.6148-6.51v-10.09401h3.1086v8.91801c0 3.178 1.0502 5.096 3.5852 5.096 3.332 0 3.92-3.024 3.92-6.58v-7.43401h3.123v13.76201c0 .84 0 1.638.028 2.436h-2.997z"/><path d="m117.511 5.86601h3.024v2.408h-3.024v9.72999c0 1.54.77 2.002 1.974 2.002.252 0 .518-.028.77-.056v2.31c-.392.07-.798.112-1.204.126-2.871 0-4.691-.952-4.691-4.2v-9.91199h-2.451v-2.408h2.437v-4.382h3.165z"/><path d="m77.3642 0h5.4051c8.0937.056 11.9865 4.004 12.0145 11.088.028 6.034-3.0947 10.92-11.4824 10.99h-5.9372zm3.2767 19.32h1.8904c5.8672 0 8.9338-2.24 8.9338-8.246-.014-5.278-3.0526-8.302-8.6258-8.302-1.0782 0-2.1984.028-2.1984.028z"/><path d="m27.43 22.078c-.098-.644-.098-1.05-.154-2.226-1.2322 1.764-2.8706 2.534-5.4611 2.534-3.4027 0-5.8672-1.666-5.8672-4.69 0-3.486 3.3327-4.634 7.6596-5.222 1.0782-.154 2.2824-.28 3.3326-.364 0-3.20604-1.7783-4.17204-3.6407-4.17204s-3.2207 1.316-3.2207 3.01004h-3.0246c0-3.29004 2.5905-5.48804 6.3013-5.48804s6.5954 1.54 6.5954 7.47604v3.15c0 2.632.126 4.536.406 6.02h-2.9266zm-8.1216-4.424c0 1.512 1.2322 2.464 3.2066 2.464 2.8986 0 4.4529-1.764 4.4529-4.914-.014-.294 0-.574.028-.868-5.279.546-7.6875 1.064-7.6875 3.318z"/></g></svg>