<svg fill="none" height="20" viewBox="0 0 178 20" width="178" xmlns="http://www.w3.org/2000/svg"><path d="m29.5698.00000001h-5.4832l-7.9755 19.99999999h5.5929l1.4007-3.4146h7.2627l1.3209 3.4146h5.6228zm-4.9847 12.68289999 2.1783-6.39997h.0549l2.1534 6.39997zm-15.78102-12.68289999h-8.004092v19.99999999h5.438232v-6.8293h2.74878c4.5632 0 7.1241-1.9512 7.1241-6.63899.0049-4.5561-2.9811-6.53170999-7.30702-6.53170999zm-1.89844 9.26828999h-.66742v-4.87808l.66742.00003c2.03193 0 3.76226-.03902 3.76226 2.46342.005 2.41463-1.86382 2.41463-3.75731 2.41463zm105.37536 2.92681 5.481.0098v-4.40002h-5.481v-3.41464h7.475v-4.39023999h-12.956v19.99999999h12.956v-4.878h-7.475zm-47.881-6.82925h4.9391l.0296 14.63415h5.4033v-14.63415h4.9391v-5.36584999h-15.3111zm32.0865 2.43903h-7.6397v-7.80487999h-5.6024v19.99999999h5.6024v-7.8049h7.6397v7.8049h5.6025v-19.99999999h-5.6025zm35.6355-2.43903c2.562 0 4.64 2.07478 4.64 4.63415 0 2.5594-2.078 4.6341-4.64 4.6341s-4.639-2.0747-4.639-4.6341c.003-2.55825 2.078-4.63146 4.639-4.63415zm0-5.36584999c-5.529 0-10.011 4.47714999-10.011 9.99999999 0 5.5228 4.482 10 10.011 10s10.011-4.4772 10.011-10c0-5.52285-4.482-9.99999999-10.011-9.99999999zm28.237 11.19999999-8.514-11.19999999h-5.001v19.99999999h5.335l-.019-11.21951 8.136 11.21951h5.393v-19.99999999h-5.315zm-105.9997 0-8.5138-11.19999999h-5.0011v19.99999999h5.3345l-.0194-11.21951 8.137 11.21951h5.3924v-19.99999999h-5.3151zm114.8627-7.07204c-.004-.55151.106-1.0979.325-1.60411.424-.98678 1.21-1.77326 2.196-2.197271 1.023-.435439 2.179-.435439 3.201 0 .986.424011 1.773 1.210491 2.196 2.197271.435 1.02329.435 2.17977 0 3.20307-.421.97624-1.196 1.7561-2.17 2.1818-1.023.43543-2.178.43543-3.201 0-.986-.42402-1.772-1.21049-2.196-2.19728-.225-.49794-.344-1.03709-.351-1.58348zm.732 0c-.002.45386.09.90328.268 1.32043.343.8144.991 1.46233 1.805 1.80527.844.35477 1.795.35477 2.639 0 .814-.34247 1.462-.99055 1.804-1.80527.355-.84454.355-1.79631 0-2.64085-.342-.81472-.99-1.4628-1.804-1.80527-.844-.355358-1.795-.355358-2.639 0-.814.34293-1.462.99086-1.805 1.80527-.178.41715-.27.86657-.268 1.32042zm1.805-2.38295h1.819c.45-.03741.898.09303 1.258.36621.278.26933.426.64514.407 1.03158.026.34191-.089.67953-.319.93358-.218.20914-.499.33827-.799.36622l1.221 1.99611h-.891l-1.176-1.92906h-.634v1.92906h-.866v-4.71949zm.866 2.06316h1.031c.123-.0086.245-.03644.36-.08252.105-.04169.196-.11128.263-.20116.133-.22603.133-.5064 0-.73243-.067-.09007-.158-.1597-.263-.20116-.115-.04597-.237-.07213-.36-.07736h-1.031z" fill="#576472"/></svg>