<svg fill="none" height="40" viewBox="0 0 140 40" width="140" xmlns="http://www.w3.org/2000/svg"><g fill="#576472"><path d="m52.2342 17.7725c-2.562 0-4.158 1.9024-4.158 5.1967 0 3.0285 1.4 5.3576 4.116 5.3576 2.604 0 4.312-2.0983 4.312-5.4346 0-3.5321-1.904-5.1197-4.27-5.1197zm68.6698 8.8057c0 1.1261.546 2.0213 2.058 2.0213 1.785 0 3.689-1.2799 3.808-4.1895-.812-.1189-1.708-.2308-2.527-.2308-1.785-.007-3.339.4966-3.339 2.399z"/><path d="m0 0v40h140v-40zm40.733 31.7818h-7.343v-9.8549c0-3.0285-1.008-4.1895-2.989-4.1895-2.408 0-3.381 1.7066-3.381 4.1545v6.085h2.331v3.8049h-7.336v-9.8549c0-3.0285-1.008-4.1895-2.989-4.1895-2.408 0-3.381 1.7066-3.381 4.1545v6.085h3.339v3.8049h-10.675v-3.8049h2.331v-9.8968h-2.331v-3.8049h7.336v2.6368c1.05-1.8604 2.877-2.9865 5.32-2.9865 2.527 0 4.851 1.203 5.712 3.7629.973-2.3291 2.954-3.7629 5.712-3.7629 3.143 0 6.02 1.9024 6.02 6.05v8.0014h2.331v3.8049zm11.305.3847c-5.397 0-9.128-3.2943-9.128-8.8827 0-5.1198 3.108-9.3513 9.401-9.3513s9.359 4.2245 9.359 9.1135c0 5.5884-4.039 9.1205-9.632 9.1205zm28.245-.3847h-15.302l-.504-2.6368 9.632-11.0579h-5.474l-.777 2.7137-3.612-.3916.623-6.134h15.379l.392 2.6368-9.716 11.0649h5.67l.819-2.7137 3.962.3846zm9.996 0h-5.243v-6.2878h5.243zm0-11.2188h-5.243v-6.2878h5.243zm3.276 11.2188 7.574-26.697h4.935l-7.574 26.697zm10.178 0 7.567-26.697h4.935l-7.574 26.697zm26.88.3847c-2.331 0-3.612-1.3569-3.843-3.4902-1.008 1.7836-2.793 3.4902-5.628 3.4902-2.527 0-5.397-1.3569-5.397-5.0079 0-4.3085 4.158-5.3156 8.155-5.3156.961-.0066 1.922.0447 2.877.1539v-.5806c0-1.7835-.042-3.9167-2.877-3.9167-1.05 0-1.862.0769-2.681.5035l-.567 1.9724-3.997-.4266.686-4.0287c3.066-1.245 4.62-1.5877 7.497-1.5877 3.766 0 6.951 1.9374 6.951 5.9381v7.6027c0 1.0072.392 1.3569 1.204 1.3569.249-.0046.497-.0447.735-.1189l.042 2.6368c-.97.525-2.054.8059-3.157.8184z"/></g></svg>