<svg fill="none" height="50" viewBox="0 0 97 50" width="97" xmlns="http://www.w3.org/2000/svg" xmlns:xlink="http://www.w3.org/1999/xlink"><clipPath id="a"><path d="m0 0h96.5909v50h-96.5909z"/></clipPath><g clip-path="url(#a)" fill="#576472"><path d="m0 40.0984v-7.5706h3.64534v1.497h-2.02519v1.497h1.85465v1.4115h-1.85465v1.6253h2.1531v1.5398zm9.91278-3.7639c0 .5774-.06396 1.0907-.19187 1.5398-.1279.4705-.31976.8554-.57557 1.1976-.25582.3421-.57559.5774-.98062.7485-.38372.1711-.85272.2566-1.40698.2566h-2.13178v-7.5706h2.13178c.53295 0 1.00194.0856 1.40698.2567.40503.1711.7248.4277.98062.7699.25581.3421.44767.7271.57557 1.1976.12791.4918.19187 1.0265.19187 1.6039zm-1.70543 0c0-.7699-.12791-1.3473-.38372-1.7323-.25581-.3849-.5969-.5774-1.00194-.5774h-.42635v4.5766h.42635c.40504 0 .74613-.1925 1.00194-.5774.25581-.4064.38372-.9624.38372-1.6895zm2.55815 3.7639v-7.5706h3.6453v1.497h-2.0252v1.497h1.8547v1.4115h-1.8547v1.6253h2.1531v1.5398zm7.9302 0-1.7481-4.598h-.0213l.0427 4.598h-1.5136v-7.5706h1.876l1.7267 4.6835h.0213l-.0213-4.6835h1.4709v7.5706zm9.8488-5.1968c0 .4278-.0639.7913-.1918 1.0907s-.2985.556-.5117.7699c-.2131.1925-.4476.3422-.7248.4491-.2771.1069-.5329.1497-.81.1497h-.7462v2.7588h-1.6841v-7.5706h2.345c.2771 0 .5329.0428.8101.1069.2771.0856.5116.2139.7461.385.2132.1925.405.4277.5329.7271.1493.2994.2345.6843.2345 1.1334zm-1.5988.0214c0-.3421-.0853-.5988-.2345-.7485-.1705-.1497-.3624-.2138-.5969-.2138h-.5329v1.9675h.5329c.2345 0 .4264-.0856.5969-.2567.1492-.1711.2345-.4063.2345-.7485zm5.3721 5.1754-1.002-3.0154h-.4903v3.0154h-1.6414v-7.5706h2.4089c.7248 0 1.3004.1925 1.7054.5774.405.385.5969.941.5969 1.7109 0 .278-.0213.5346-.0853.7485-.0639.2139-.1492.4063-.2558.556s-.2132.278-.3411.385c-.1279.1069-.2558.1711-.3624.2138l1.2791 3.379zm-.0853-5.1968c0-.1924-.0213-.3421-.0853-.4704-.0426-.1284-.1279-.2139-.2131-.2994-.0853-.0642-.1706-.1284-.2772-.1497-.1066-.0214-.2131-.0428-.2984-.0428h-.533v1.9247h.5117c.2345 0 .4476-.0855.6395-.2352.1492-.1497.2558-.385.2558-.7272zm6.2035 5.1968-.3198-1.3901h-1.6841l-.3198 1.3901h-1.7054l1.8334-7.5706h2.1317l1.8334 7.5706zm-1.1299-5.9239h-.0426l-.6395 3.2293h1.279zm3.4322 5.9239v-7.5706h1.7267v7.5706zm5.9903 0-1.0019-3.0154h-.4903v3.0154h-1.6415v-7.5706h2.4089c.7248 0 1.3004.1925 1.7054.5774.4051.385.5969.941.5969 1.7109 0 .278-.0213.5346-.0852.7485-.064.2139-.1493.4063-.2559.556-.1065.1497-.2131.278-.341.385-.128.1069-.2559.1711-.3624.2138l1.279 3.379zm-.0853-5.1968c0-.1924-.0213-.3421-.0852-.4704-.0427-.1284-.1279-.2139-.2132-.2994-.0853-.0642-.1706-.1284-.2771-.1497-.1066-.0214-.2132-.0428-.2985-.0428h-.5329v1.9247h.5116c.2345 0 .4477-.0855.6395-.2352.1493-.1497.2558-.385.2558-.7272zm2.5582 5.1968v-7.5706h1.7267v7.5706zm2.8566 0v-7.5706h3.6453v1.497h-2.0252v1.497h1.8547v1.4115h-1.8547v1.6253h2.1531v1.5398zm9.9127-5.7742c-.1279-.1497-.2771-.2566-.4476-.3421-.1706-.0856-.3411-.1284-.533-.1284-.1918 0-.3624.0642-.5116.1925s-.2345.3208-.2345.5988c0 .2353.0853.4277.2345.556.1492.1284.3837.2781.6822.4278.1705.0855.3624.1924.5329.2994.1919.1283.3624.2566.5116.4277.1493.1711.2985.3849.3838.6202.0852.2352.1492.5132.1492.8554 0 .4063-.064.7699-.1919 1.0693-.1279.3208-.2984.5774-.5116.7699-.2132.1924-.469.3635-.7461.4705-.2772.1069-.5756.1497-.8954.1497-.4477 0-.874-.0856-1.2364-.2567s-.6822-.3635-.8954-.5988l.8741-1.2831c.1705.1711.3624.2994.5755.4063.2132.1069.4264.1497.6396.1497s.3837-.0641.5329-.2138c.1493-.1284.2132-.3208.2132-.5561 0-.2566-.0853-.4491-.2558-.5988-.1706-.1497-.4264-.2994-.7461-.4705-.2132-.1069-.4051-.2138-.5756-.3208-.1919-.1283-.3411-.2566-.469-.4277-.1492-.1711-.2558-.3635-.3198-.5988-.0852-.2352-.1066-.4918-.1066-.8126 0-.4277.064-.7913.2132-1.0907s.3198-.556.533-.7485c.2345-.1925.469-.3422.7461-.4277.2771-.0856.5542-.1283.8314-.1283.405 0 .7887.0641 1.1085.1924.3198.1284.5969.3208.8314.5561zm5.5853 5.6886c-.3411.1925-.7674.2994-1.2791.2994-.4476 0-.8314-.1069-1.1938-.2994-.3624-.1924-.6608-.4704-.9166-.834s-.4477-.7699-.5969-1.2618c-.1493-.4918-.2132-1.0265-.2132-1.6039 0-.5988.0639-1.1334.2132-1.6253.1492-.4919.3411-.9196.5969-1.2618.2558-.3421.5542-.6202.9166-.8126.3624-.1925.7675-.2994 1.1938-.2994.5117 0 .9167.0855 1.2578.278.3411.1924.6182.4063.8101.6843l-.9167 1.2404c-.1279-.1711-.2771-.2994-.4264-.4063-.1705-.107-.3624-.1497-.5969-.1497s-.4263.0641-.5969.1924c-.1705.1284-.2984.2781-.4263.4919-.1066.2139-.2132.4491-.2558.7485-.064.2994-.0853.5988-.0853.9196s.0213.6416.0853.9196c.0639.278.1492.5346.2558.7485.1279.2139.2558.3849.4263.5133.1706.1283.3624.171.5969.171s.4264-.0641.5969-.171c.1706-.107.2985-.2567.4051-.4064l.9593 1.1762c-.2132.2994-.469.5347-.8101.7485zm4.8605.0856v-3.1651h-1.7481v3.1651h-1.7054v-7.5706h1.7054v2.8657h1.7481v-2.8657h1.7054v7.5706zm8.2713-3.8067c0 .5988-.064 1.1549-.1919 1.6467-.1279.4919-.3198.9196-.5756 1.2618s-.5542.6202-.9166.8126c-.3625.1925-.7675.2994-1.2152.2994-.4476 0-.8527-.1069-1.2151-.2994-.3624-.1924-.6608-.4704-.9166-.8126-.2559-.3422-.4477-.7699-.5756-1.2618-.1279-.4918-.1919-1.0479-.1919-1.6467s.064-1.1334.1919-1.6253.3197-.8982.5756-1.2618c.2558-.3421.5542-.6202.9166-.8126.3624-.1925.7675-.278 1.2151-.278.4477 0 .8527.0855 1.2152.278.3624.1924.6608.4491.9166.8126.2558.3422.4477.7699.5756 1.2618.1279.4705.1919 1.0265.1919 1.6253zm-1.7481 0c0-.3208-.0213-.6416-.0853-.9196-.0426-.278-.1279-.5346-.2132-.7271-.1065-.2138-.2131-.3635-.3623-.4919-.1493-.1283-.2985-.171-.4904-.171-.1918 0-.3624.0641-.5116.171-.1492.107-.2558.2781-.3624.4919-.1066.2139-.1705.4491-.2132.7271-.0426.278-.0639.5774-.0639.9196s.0213.6416.0639.9196c.0427.278.1066.5347.2132.7485.1066.2139.2132.3636.3624.4919s.3198.1925.5116.1925c.1919 0 .3624-.0642.4904-.1925.1492-.1283.2558-.278.3623-.4919.0853-.2138.1706-.4491.2132-.7485.064-.278.0853-.5988.0853-.9196zm8.2073 0c0 .5988-.0639 1.1549-.1918 1.6467-.1279.4919-.3198.9196-.5756 1.2618s-.5543.6202-.9167.8126c-.3624.1925-.7674.2994-1.2151.2994-.4476 0-.8527-.1069-1.2151-.2994-.3624-.1924-.6608-.4704-.9166-.8126-.2559-.3422-.4477-.7699-.5756-1.2618-.1279-.4918-.1919-1.0479-.1919-1.6467s.064-1.1334.1919-1.6253.3197-.8982.5756-1.2618c.2558-.3421.5542-.6202.9166-.8126.3624-.1925.7675-.278 1.2151-.278.4477 0 .8527.0855 1.2151.278.3624.1924.6609.4491.9167.8126.2558.3422.4477.7699.5756 1.2618.1279.4705.1918 1.0265.1918 1.6253zm-1.748 0c0-.3208-.0213-.6416-.0853-.9196-.0426-.278-.1279-.5346-.2132-.7271-.1065-.2138-.2131-.3635-.3624-.4919-.1492-.1283-.2984-.171-.4903-.171-.1918 0-.3624.0641-.5116.171-.1492.107-.2558.2781-.3624.4919-.1066.2139-.1705.4491-.2132.7271-.0426.278-.0639.5774-.0639.9196s.0213.6416.0639.9196c.0427.278.1066.5347.2132.7485.1066.2139.2132.3636.3624.4919s.3198.1925.5116.1925c.1919 0 .3624-.0642.4903-.1925.1493-.1283.2559-.278.3624-.4919.0853-.2138.1706-.4491.2132-.7485.064-.278.0853-.5988.0853-.9196zm2.5581 3.8067v-7.5706h1.7268v5.988h2.0252v1.5826zm7.7384-5.7742c-.1279-.1497-.2771-.2566-.4477-.3421-.1705-.0856-.3411-.1284-.5329-.1284-.1919 0-.3624.0642-.5117.1925-.1492.1283-.2345.3208-.2345.5988 0 .2353.0853.4277.2345.556.1493.1284.3838.2781.6822.4278.1706.0855.3624.1924.533.2994.1918.1283.3624.2566.5116.4277s.2984.3849.3837.6202c.0853.2352.1492.5132.1492.8554 0 .4063-.0639.7699-.1918 1.0693-.1279.3208-.2985.5774-.5117.7699-.2131.1924-.4689.3635-.7461.4705-.2771.1069-.5756.1497-.8953.1497-.4477 0-.8741-.0856-1.2365-.2567s-.6821-.3635-.8953-.5988l.874-1.2831c.1706.1711.3624.2994.5756.4063s.4264.1497.6395.1497c.2132 0 .3838-.0641.533-.2138.1492-.1284.2132-.3208.2132-.5561 0-.2566-.0853-.4491-.2559-.5988-.1705-.1497-.4263-.2994-.7461-.4705-.2132-.1069-.405-.2138-.5756-.3208-.1918-.1283-.341-.2566-.4689-.4277-.1493-.1711-.2559-.3635-.3198-.5988-.0853-.2352-.1066-.4918-.1066-.8126 0-.4277.064-.7913.2132-1.0907s.3197-.556.5329-.7485c.2345-.1925.469-.3422.7461-.4277.2772-.0856.5543-.1283.8314-.1283.4051 0 .7888.0641 1.1086.1924.3197.1284.5969.3208.8314.5561z"/><path d="m6.80035 48.3747v-4.8546h.81008v4.8546zm2.47287-3.5073v.5561h.02132c.06395-.1925.17054-.3422.31976-.4705.14923-.1283.34109-.1925.5543-.1925.1918 0 .341.0428.469.1283.1065.0856.2131.1925.2771.3208.0639.1283.1066.278.1279.4491s.0426.3422.0426.5133v2.1813h-.7674v-2.1813c0-.0856 0-.1711-.0213-.2567 0-.0855-.0213-.171-.064-.2352-.0213-.0642-.0639-.1283-.1279-.1711-.0639-.0428-.12789-.0641-.21317-.0641-.17054 0-.31976.0855-.40503.2566-.10659.1711-.14923.3849-.14923.6629v2.0103h-.76744v-3.4859h.70349zm4.11438.7913c-.064-.0855-.1493-.1497-.2345-.2138-.0853-.0642-.2132-.0856-.3198-.0856s-.2132.0428-.2771.1283c-.0853.0856-.1066.1925-.1066.3208s.0426.2353.1279.2994c.0852.0642.2132.1283.3837.1925.1066.0428.1919.0855.2984.1283.1066.0428.1919.1283.2559.1925.0852.0855.1492.1711.1918.2994.0427.1069.064.2566.064.4063 0 .1925-.0213.3636-.0853.5133s-.1492.2566-.2558.3635c-.1066.0856-.2345.1711-.3624.2139-.1279.0427-.2771.0641-.4264.0641-.2131 0-.4263-.0427-.6182-.1283-.1918-.0855-.3411-.1925-.4903-.3422l.4264-.4918c.0852.0855.1705.1711.2771.2566.1066.0642.2345.1069.3837.1069.1279 0 .2345-.0427.2985-.1283.0639-.0855.1065-.1925.1065-.3422 0-.171-.0639-.278-.1705-.3635-.1066-.0642-.2558-.1497-.4263-.2139-.0853-.0214-.1706-.0641-.2559-.1069-.0852-.0428-.1705-.1069-.2345-.1925-.0639-.0855-.1279-.1711-.1705-.278s-.064-.2566-.064-.4063c0-.1711.0214-.3208.0853-.4491.064-.1283.1492-.2353.2345-.3422.1066-.0855.2132-.1711.3411-.2139.1279-.0427.2771-.0641.405-.0641.2132 0 .4051.0428.5756.1069.1706.0856.3198.1711.4264.2994zm3.6666.9624c0 .278-.0213.5132-.0639.7485-.0427.2352-.1279.4277-.2132.5988s-.2132.2994-.3624.3849c-.1492.0856-.2985.1497-.4903.1497-.1919 0-.3624-.0641-.4903-.1711-.1279-.1069-.2132-.2566-.2772-.4063h-.0213v2.0958h-.7674v-5.1326h.7674v.4919h.0213c.064-.1711.1493-.3208.2558-.4277.1279-.107.2985-.1711.5117-.1711.1918 0 .3411.0428.4903.1497.1492.0855.2558.2138.3411.3849.0852.1711.1705.3636.2131.5988.064.1925.0853.4278.0853.7058zm-.7674 0c0-.1711-.0213-.3208-.0427-.4705-.0213-.1497-.0639-.278-.1066-.385-.0426-.1069-.1065-.1924-.1705-.2566-.0639-.0641-.1492-.0855-.2558-.0855-.0853 0-.1706.0214-.2558.0855-.064.0642-.1279.1497-.1706.2566-.0426.107-.0852.2353-.1066.385-.0213.1497-.0426.2994-.0426.4705s.0213.3208.0426.4705c.0214.1497.064.278.1066.3849.0427.1069.1066.1925.1706.2566.0639.0642.1492.0856.2558.0856s.1919-.0214.2558-.0856c.064-.0641.1279-.1497.1705-.2566.0427-.1069.0853-.2352.1066-.3849.0214-.1497.0427-.3208.0427-.4705zm2.281-2.7588c0 .1283-.0427.2566-.1279.3422-.0853.0855-.1919.1283-.3198.1283s-.2345-.0428-.3198-.1283c-.0852-.0856-.1279-.2139-.1279-.3422s.0427-.2566.1279-.3422c.0853-.0855.1919-.1497.3198-.1497s.2345.0428.3198.1497c.0852.0856.1279.2139.1279.3422zm-.8314 4.5124v-3.4859h.7674v3.4859zm2.686-3.4217c.1279-.1283.2772-.1925.4477-.1925h.0639c.0214 0 .0427 0 .064.0214l-.0426.7913c-.0427-.0214-.1066-.0214-.1706-.0214-.1066 0-.1918.0214-.2558.0855-.0853.0642-.1492.1497-.1918.2353-.064.1069-.0853.2138-.128.3421-.0213.1284-.0426.2567-.0426.385v1.7536h-.7887v-3.4859h.7674v.663h.0213c.0213-.2353.1279-.4491.2558-.5774zm1.876-1.0907c0 .1283-.0426.2566-.1279.3422-.0853.0855-.1919.1283-.3198.1283s-.2345-.0428-.3198-.1283c-.0852-.0856-.1279-.2139-.1279-.3422s.0427-.2566.1279-.3422c.0853-.0855.1919-.1497.3198-.1497s.2345.0428.3198.1497c.0853.0856.1279.2139.1279.3422zm-.8314 4.5124v-3.4859h.7674v3.4859zm2.3663-3.5073v.5561h.0213c.0639-.1925.1705-.3422.3198-.4705.1492-.1283.341-.1925.5542-.1925.1919 0 .3411.0428.469.1283.1066.0856.2132.1925.2771.3208.064.1283.1066.278.1279.4491.0214.1711.0427.3422.0427.5133v2.1813h-.7675v-2.1813c0-.0856 0-.1711-.0213-.2567 0-.0855-.0213-.171-.0639-.2352-.0213-.0642-.064-.1283-.1279-.1711-.064-.0428-.1279-.0641-.2132-.0641-.1706 0-.3198.0855-.4051.2566-.1065.1711-.1492.3849-.1492.6629v2.0103h-.7674v-3.4859h.7035zm5.0949 3.4004c0 .2566-.0213.4919-.0853.7057-.0426.2139-.1279.385-.2558.556-.1279.1711-.2558.2781-.4263.3636-.1706.0855-.3837.1283-.6396.1283-.2344 0-.4689-.0428-.6821-.1497s-.4051-.2138-.533-.3635l.4264-.5561c.1066.107.2132.1925.3411.278.1279.0642.2771.107.4476.107.128 0 .2345-.0214.3198-.0856.0853-.0427.1492-.1283.2132-.2138.0639-.0856.0853-.1925.1066-.3208s.0426-.2567.0426-.385v-.4277h-.0213c-.0426.1497-.1492.278-.2771.385-.1279.1069-.2985.1711-.4903.1711-.1919 0-.3411-.0428-.4904-.1284-.1492-.0855-.2558-.2138-.341-.3849-.0853-.1711-.1706-.3636-.2132-.5774-.0427-.2139-.064-.4705-.064-.7271 0-.2781.0213-.5133.0853-.7485.0426-.2353.1279-.4278.2132-.5988.0853-.1711.2132-.2995.3411-.385.1492-.0855.2984-.1497.4903-.1497.2132 0 .3837.0642.5116.1711s.2132.2566.2558.4277h.0213v-.4919h.7462v3.4004zm-.7248-1.6467c0-.1711-.0213-.3208-.0426-.4705s-.064-.278-.1066-.385c-.0426-.1069-.1066-.1924-.1706-.2566-.0639-.0641-.1492-.0855-.2558-.0855s-.1918.0214-.2558.0855c-.0639.0642-.1279.1497-.1705.2566-.0427.107-.0853.2353-.1066.385s-.0426.2994-.0426.4705.0213.3208.0426.4705.0639.278.1066.3849c.0426.1069.1066.1925.1705.2566.064.0642.1492.0856.2558.0856.0853 0 .1706-.0214.2558-.0856.0853-.0641.128-.1497.1706-.2566s.0853-.2352.1066-.3849.0426-.3208.0426-.4705zm3.6027.1924c0 .1284.0213.2567.0427.385.0213.1283.0639.2352.1279.3208.0426.0855.1066.1497.1918.2138.0853.0428.1706.0856.2558.0856.1493 0 .2559-.0428.3411-.1283.0853-.0856.1492-.1925.1919-.3208l.5756.3208c-.1066.2352-.2345.4277-.4264.5774s-.4263.2138-.7035.2138c-.405 0-.7248-.1497-.9806-.4705-.2558-.3207-.3624-.7698-.3624-1.3686 0-.2781.0213-.5347.0853-.7699.0639-.2353.1492-.4278.2771-.5988.1279-.1711.2558-.2994.4264-.385.1705-.0855.341-.1283.5329-.1283.2132 0 .405.0428.5756.1283.1492.0856.2771.2139.3837.3636s.1705.3422.2132.556c.0426.2139.0639.4491.0639.7057v.2994zm1.0659-.556c0-.2566-.0426-.4705-.1279-.6416-.0853-.171-.2132-.2352-.3837-.2352-.1066 0-.1919.0214-.2558.0855-.064.0642-.1279.1284-.1706.2139-.0426.0855-.0852.1925-.1066.278-.0213.1069-.0426.1925-.0426.278h1.0872zm2.8566 1.5826c-.0426.1924-.1492.3421-.2771.4491-.1279.1069-.2985.1711-.533.1711-.1066 0-.1918-.0214-.2984-.0642s-.1919-.1069-.2772-.1711c-.0852-.0855-.1492-.1925-.2131-.3208-.064-.1283-.0853-.2994-.0853-.4919 0-.2566.0426-.4491.1279-.5988s.1919-.278.3411-.3635c.1492-.0856.2984-.1497.469-.1925.1705-.0428.3411-.0428.5116-.0428h.1919v-.1069c0-.2352-.0427-.4063-.1493-.5132-.0852-.107-.2131-.1497-.3624-.1497-.1279 0-.2558.0213-.3624.0855-.1066.0641-.1918.1497-.2771.2352l-.3624-.4918c.1279-.1497.2984-.2781.4903-.3636s.3837-.1283.5756-.1283c.2132 0 .405.0428.5329.1069.1493.0642.2772.1711.3624.2994.0853.1283.1493.2994.1919.4919s.0639.4063.0639.6416v2.0744h-.6395zm-.0213-1.1121h-.2345c-.0853 0-.1919 0-.2771.0214-.0853.0214-.1706.0428-.2345.0855-.064.0428-.1279.107-.1706.1925-.0426.0855-.0639.1711-.0639.2994 0 .1925.0426.3208.1279.4063.0852.0856.1705.1283.2771.1283s.1919-.0213.2558-.0855c.064-.0642.1279-.1283.1706-.2352.0426-.0856.0852-.1925.0852-.2994.0213-.107.0213-.2139.0213-.3208v-.1925zm3.1124 1.6681c-.1279.0641-.2985.0855-.469.0855-.2132 0-.4051-.0427-.5756-.1283-.1705-.0855-.2984-.2138-.405-.3849s-.1919-.3636-.2558-.5988c-.064-.2353-.0853-.4705-.0853-.7485s.0213-.5347.0853-.7485c.0639-.2353.1492-.4278.2558-.5988.1066-.1711.2558-.2994.405-.385.1705-.0855.3411-.1283.5543-.1283.1918 0 .3411.0214.4903.0855.1279.0642.2345.1284.3197.2139l-.341.5774c-.0427-.0641-.1066-.1069-.1706-.1283-.0639-.0428-.1492-.0641-.2345-.0641-.1918 0-.3411.1069-.4263.3207-.1066.2139-.1493.4919-.1493.8341s.0427.6202.1493.834c.1066.2139.2558.3208.4476.3208.0853 0 .1706-.0214.2559-.0641.0852-.0428.1279-.0856.1705-.1497l.3198.5988c-.0853.1283-.2132.1924-.3411.2566zm2.5794-.0214v-2.1813c0-.0856 0-.1711-.0213-.2567 0-.0855-.0213-.1711-.0639-.2352-.0214-.0642-.064-.1283-.1279-.1711-.064-.0428-.128-.0642-.2132-.0642-.1706 0-.3198.0856-.4051.2567-.1066.1711-.1492.3849-.1492.6629v2.0103h-.7674v-5.1968h.7674v2.2242h.0213c.064-.1711.1706-.3422.2985-.4705.1492-.1283.3197-.1925.5329-.1925.1919 0 .3411.0428.469.1283.1279.0856.2132.1925.2771.3208.064.1283.1066.278.128.4491.0213.1711.0426.3422.0426.5133v2.1813h-.7888zm4.562-2.716c-.0639-.0855-.1492-.1497-.2345-.2138-.0852-.0642-.2131-.0856-.3197-.0856s-.2132.0428-.2772.1283c-.0852.0856-.1065.1925-.1065.3208s.0426.2353.1279.2994c.0852.0642.2131.1283.3837.1925.1066.0428.1918.0855.2984.1283s.1919.1283.2558.1925c.0853.0855.1493.1711.1919.2994.0426.1069.064.2566.064.4063 0 .1925-.0214.3636-.0853.5133-.064.1497-.1492.2566-.2558.3635-.1066.0856-.2345.1711-.3624.2139-.1279.0427-.2772.0641-.4264.0641-.2132 0-.4263-.0427-.6182-.1283-.1919-.0855-.3411-.1925-.4903-.3422l.4263-.4918c.0853.0855.1706.1711.2772.2566.1066.0642.2345.1069.3837.1069.1279 0 .2345-.0427.2984-.1283.064-.0855.1066-.1925.1066-.3422 0-.171-.0639-.278-.1705-.3635-.1066-.0642-.2558-.1497-.4264-.2139-.0852-.0214-.1705-.0641-.2558-.1069-.0852-.0428-.1705-.1069-.2345-.1925-.0639-.0855-.1279-.1711-.1705-.278-.0427-.1069-.064-.2566-.064-.4063 0-.1711.0214-.3208.0853-.4491.064-.1283.1492-.2353.2345-.3422.1066-.0855.2132-.1711.3411-.2139.1279-.0427.2771-.0641.405-.0641.2132 0 .4051.0428.5756.1069.1705.0856.3198.1711.4264.2994zm1.94-.1925v1.7964c0 .1925.0213.3208.0852.4278.064.0855.1493.1283.2558.1283.0427 0 .0853 0 .1279-.0214.0427-.0214.0853-.0214.1066-.0428l.0214.5988c-.064.0214-.128.0428-.2132.0642-.0853.0214-.1919.0214-.2772.0214-.2984 0-.5116-.0856-.6395-.2567s-.1918-.4277-.1918-.7485v-1.9675h-.4264v-.5988h.4264v-.8982h.7248v.8982h.5969v.5988zm2.8992 2.9085v-.556h-.0213c-.064.1924-.1706.3421-.3198.4705-.1492.1283-.3411.1924-.5543.1924-.1918 0-.3411-.0427-.469-.1283-.1279-.0855-.2131-.1925-.2771-.3208-.0639-.1283-.1066-.278-.1279-.4491s-.0426-.3421-.0426-.5132v-2.1814h.7674v2.1814c0 .0855 0 .1711.0213.2566 0 .0855.0213.1711.064.2352.0213.0642.0639.1284.1279.1711.0639.0428.1279.0642.2132.0642.1705 0 .3197-.0856.405-.2566.1066-.1711.1492-.385.1492-.663v-2.0103h.7675v3.4859h-.7035zm3.3682 0v-.4919h-.0213c-.0427.1711-.1279.3208-.2558.4277-.128.1284-.2985.1711-.5117.1711-.1705 0-.3411-.0427-.469-.1497-.1492-.0855-.2558-.2352-.3624-.4063-.0852-.1711-.1705-.3636-.2131-.5988-.0427-.2352-.0853-.4705-.0853-.7485 0-.2566.0213-.5133.0639-.7271.0427-.2139.1279-.4064.2132-.5774.0853-.1711.2132-.2781.3411-.385.1492-.0855.2984-.1283.4903-.1283s.3624.0642.4903.1711.2132.2352.2772.4063h.0213v-2.1386h.7674v5.1754zm.0213-1.7536c0-.1711-.0213-.3208-.0426-.4705s-.064-.278-.1066-.385c-.0427-.1069-.1066-.1924-.1919-.2566-.0852-.0641-.1705-.0855-.2558-.0855-.1066 0-.1919.0214-.2558.0855-.064.0642-.1279.1497-.1706.2566-.0426.107-.0852.2353-.1065.385-.0214.1497-.0427.2994-.0427.4705s.0213.3208.0427.4705c.0213.1497.0639.278.1065.3849.0427.1069.1066.1925.1706.2566.0639.0642.1492.0856.2558.0856s.1919-.0214.2558-.0856c.064-.0641.1279-.1497.1706-.2566.0426-.1069.0852-.2352.1066-.3849.0426-.1497.0639-.2994.0639-.4705zm2.1744.1924c0 .1284.0213.2567.0427.385.0213.1283.0639.2352.1279.3208.0426.0855.1065.1497.1918.2138.0853.0428.1706.0856.2558.0856.1493 0 .2558-.0428.3411-.1283.0853-.0856.1492-.1925.1919-.3208l.5756.3208c-.1066.2352-.2345.4277-.4264.5774s-.4263.2138-.7035.2138c-.405 0-.7248-.1497-.9806-.4705-.2558-.3207-.3624-.7698-.3624-1.3686 0-.2781.0213-.5347.0853-.7699.0639-.2353.1492-.4278.2771-.5988.1279-.1711.2558-.2994.4264-.385.1705-.0855.341-.1283.5329-.1283.2132 0 .405.0428.5756.1283.1492.0856.2771.2139.3837.3636s.1705.3422.2132.556c.0426.2139.0639.4491.0639.7057v.2994zm1.0659-.556c0-.2566-.0426-.4705-.1279-.6416-.0853-.171-.2132-.2352-.3837-.2352-.1066 0-.1919.0214-.2558.0855-.064.0642-.1279.1284-.1706.2139-.0426.0855-.0852.1925-.1066.278-.0213.1069-.0426.1925-.0426.278h1.0872zm2.1744-1.3901v.5561h.0213c.064-.1925.1706-.3422.3198-.4705s.3411-.1925.5543-.1925c.1918 0 .3411.0428.469.1283.1066.0856.2131.1925.2771.3208.0639.1283.1066.278.1279.4491s.0426.3422.0426.5133v2.1813h-.7674v-2.1813c0-.0856 0-.1711-.0213-.2567-.0213-.0855-.0213-.171-.064-.2352-.0213-.0642-.0639-.1283-.1279-.1711-.0639-.0428-.1279-.0641-.2132-.0641-.1705 0-.3197.0855-.405.2566-.1066.1711-.1492.3849-.1492.6629v2.0103h-.8314v-3.4859h.7674zm3.4109.5988v1.7964c0 .1925.0213.3208.0852.4278.064.0855.1493.1283.2559.1283.0426 0 .0852 0 .1279-.0214.0426 0 .0852-.0214.1065-.0428l.0214.5988c-.064.0214-.1279.0428-.2132.0642s-.1919.0214-.2771.0214c-.2985 0-.5117-.0856-.6396-.2567s-.1918-.4277-.1918-.7485v-1.9675h-.4264v-.5988h.4264v-.8982h.7248v.8982h.5969v.5988zm3.1124 1.3473c0 .1284.0213.2567.0426.385s.064.2352.1279.3208c.064.0855.1066.1497.1919.2138.0852.0428.1705.0856.2558.0856.1492 0 .2558-.0428.3411-.1283.0852-.0856.1492-.1925.1918-.3208l.5756.3208c-.1066.2352-.2345.4277-.4263.5774-.1919.1497-.4264.2138-.7035.2138-.4051 0-.7248-.1497-.9807-.4705-.2558-.3207-.3624-.7698-.3624-1.3686 0-.2781.0214-.5347.0853-.7699.064-.2353.1492-.4278.2771-.5988.128-.1711.2559-.2994.4264-.385.1705-.0855.3411-.1283.5329-.1283.2132 0 .4051.0428.5756.1283.1493.0856.2772.2139.3837.3636.1066.1497.1706.3422.2132.556.0427.2139.064.4491.064.7057v.2994zm1.0659-.556c0-.2566-.0427-.4705-.1279-.6416-.0853-.171-.2132-.2352-.3838-.2352-.1066 0-.1918.0214-.2558.0855-.0639.0642-.1279.1284-.1705.2139-.0427.0855-.0853.1925-.1066.278-.0213.1069-.0427.1925-.0427.278h1.0873zm2.8352 2.1172h-.9166l-.9167-3.4859h.8101l.5969 2.6732h.0213l.5756-2.6732h.7887zm1.9399-1.5612c0 .1284.0214.2567.0427.385s.0639.2352.1279.3208c.0426.0855.1066.1497.1918.2138.0853.0428.1706.0856.2559.0856.1492 0 .2558-.0428.341-.1283.0853-.0856.1493-.1925.1919-.3208l.5756.3208c-.1066.2352-.2345.4277-.4264.5774-.1918.1497-.4263.2138-.7035.2138-.405 0-.7248-.1497-.9806-.4705-.2558-.3207-.3624-.7698-.3624-1.3686 0-.2781.0213-.5347.0853-.7699.0639-.2353.1492-.4278.2771-.5988.1279-.1711.2558-.2994.4264-.385.1705-.0855.3411-.1283.5329-.1283.2132 0 .4051.0428.5756.1283.1492.0856.2771.2139.3837.3636s.1706.3422.2132.556c.0426.2139.064.4491.064.7057v.2994zm1.0659-.556c0-.2566-.0426-.4705-.1279-.6416-.0852-.171-.2132-.2352-.3837-.2352-.1066 0-.1919.0214-.2558.0855-.064.0642-.1279.1284-.1706.2139-.0426.0855-.0852.1925-.1065.278-.0214.0856-.0427.1925-.0427.278h1.0872zm2.4516-1.3045c.1279-.1283.2771-.1925.4477-.1925h.0639c.0213 0 .0426 0 .064.0214l-.0427.7913c-.0426-.0214-.1066-.0214-.1705-.0214-.1066 0-.1919.0214-.2558.0855-.0853.0642-.1493.1497-.1919.2353-.0639.1069-.0853.2138-.1279.3421-.0213.1284-.0426.2567-.0426.385v1.7536h-.7888v-3.4859h.7674v.663h.0214c.0426-.2353.1279-.4491.2558-.5774zm2.6007 3.8922c-.0426.1711-.1065.3208-.1705.4705-.0639.1497-.1279.2566-.2345.3635-.0853.107-.1918.1711-.3198.2353-.1279.0641-.2771.0855-.4476.0855-.0853 0-.1706 0-.2558-.0214-.0853-.0213-.1493-.0213-.2132-.0427l.0852-.6844c.0427.0214.0853.0214.128.0428.0426.0214.1065.0214.1492.0214.1279 0 .2132-.0428.2771-.1069.064-.0642.1066-.1711.1492-.3208l.1066-.4277-1.0232-3.5715h.81l.5969 2.6305h.0214l.5542-2.6305h.7888zm4.6686-.4705v-.4919h-.0213c-.0426.1711-.1279.3208-.2558.4277-.1279.1284-.2984.1711-.5116.1711-.1706 0-.3411-.0427-.469-.1497-.1492-.0855-.2558-.2352-.3624-.4063s-.1705-.3636-.2132-.5988c-.0426-.2352-.0853-.4705-.0853-.7485 0-.2566.0214-.5133.064-.7271.0426-.2139.1279-.4064.2132-.5774.0852-.1711.2132-.2781.3411-.385.1492-.0855.2984-.1283.4903-.1283.1918 0 .3624.0642.4903.1711s.2132.2352.2771.4063h.0213v-2.1386h.7675v5.1754zm.0214-1.7536c0-.1711-.0214-.3208-.0427-.4705s-.0639-.278-.1066-.385c-.0426-.1069-.1066-.1924-.1918-.2566-.0853-.0641-.1706-.0855-.2558-.0855-.1066 0-.1919.0214-.2559.0855-.0639.0642-.1279.1497-.1705.2566-.0426.107-.0853.2353-.1066.385s-.0426.2994-.0426.4705.0213.3208.0426.4705.064.278.1066.3849.1066.1925.1705.2566c.064.0642.1493.0856.2559.0856s.1918-.0214.2558-.0856c.0639-.0641.1279-.1497.1705-.2566.0427-.1069.0853-.2352.1066-.3849s.064-.2994.064-.4705zm3.0484 1.219c-.0426.1924-.1492.3421-.2771.4491-.1279.1069-.2985.1711-.533.1711-.1066 0-.2132-.0214-.2984-.0642-.1066-.0428-.1919-.1069-.2771-.1711-.0853-.0855-.1493-.1925-.2132-.3208-.064-.1283-.0853-.2994-.0853-.4919 0-.2566.0426-.4491.1279-.5988s.1919-.278.3411-.3635c.1492-.0856.2984-.1497.469-.1925.1705-.0428.3411-.0428.5116-.0428h.1919v-.1069c0-.2352-.0427-.4063-.1493-.5132-.1065-.107-.2131-.1497-.3624-.1497-.1279 0-.2558.0213-.3624.0855-.1066.0641-.1918.1497-.2771.2352l-.3624-.4918c.1279-.1497.2985-.2781.4903-.3636.1919-.0855.3837-.1283.5756-.1283.2132 0 .405.0428.5329.1069.1493.0642.2772.1711.3624.2994.0853.1283.1493.2994.1919.4919s.064.4063.064.6416v2.0744h-.6396zm-.0213-1.1121h-.2345c-.0853 0-.1919 0-.2771.0214-.0853.0214-.1706.0428-.2345.0855-.064.0428-.1279.107-.1706.1925-.0426.0855-.0639.1711-.0639.2994 0 .1925.0426.3208.1279.4063.0852.0856.1705.1283.2771.1283s.1919-.0213.2558-.0855c.064-.0642.1279-.1283.1706-.2352.0426-.107.0852-.1925.0852-.2994.0214-.107.0214-.2139.0214-.3208v-.1925zm2.7713 2.1172c-.0426.1711-.1066.3208-.1705.4705-.064.1497-.1279.2566-.2345.3635-.0853.107-.1919.1711-.3198.2353-.1279.0641-.2771.0855-.4477.0855-.0853 0-.1705 0-.2558-.0214-.0853-.0213-.1492-.0213-.2132-.0427l.0853-.6844c.0426.0214.0853.0214.1279.0428s.1066.0214.1492.0214c.1279 0 .2132-.0428.2772-.1069.0639-.0642.1066-.1711.1492-.3208l.1066-.4277-1.0233-3.5715h.8101l.5969 2.6305h.0213l.5543-2.6305h.7887z"/><path d="m35.3449 7.10009c.1279.51325.1919 1.06929.1919 1.60393v9.62358c0 .7913-.1493 1.5612-.4051 2.3097-2.1531-.556-4.7752-1.2832-5.7345-1.8178-2.9631-1.6681-3.9224-5.2181-3.9224-5.2181l7.1414 1.8819v-.3849s-4.9457-1.7109-7.4825-3.101c-3.1337-1.6894-2.7927-5.83829-2.7927-5.83829l10.2752 4.66209v-.4277s-3.6027-1.77502-6.7151-3.9136c-3.5174-2.4166-2.8139-6.4799-2.8139-6.4799zm38.3507-.98375-10.2752 4.68346v-.4277s3.6027-1.77501 6.7151-3.91359c3.5175-2.39521 2.8353-6.45851 2.8353-6.45851l-13.7926 7.9769c1.3856.96236 2.3023 2.5663 2.3023 4.4055v5.2609c0 1.112-.2984 2.1599-.8314 3.0368 2.1957-.5561 5.0097-1.3473 5.9903-1.882 2.9632-1.6681 3.9225-5.2181 3.9225-5.2181l-7.1415 1.8819v-.3849s4.9457-1.7109 7.4826-3.101c3.1337-1.7108 2.7926-5.85966 2.7926-5.85966zm-14.0058 6.26606v5.2609c0 2.331-1.8973 4.2344-4.2209 4.2344h-3.8372v2.438c0 1.3045.3197 2.609.8953 3.7852l.064.1284h-.9806-4.221-.9806l.0427-.0856c.6182-1.1976.9379-2.5449.9379-3.8922v-3.1223l-.6395 1.1548h-7.8449-1.6202-.9806l.0426-.0855c.6182-1.1976.9167-2.5236.9167-3.8709v-9.62358c0-1.34731-.3198-2.67322-.9167-3.89222l-.0426-.08554h12.5349l-2.1318 3.84944h-5.2229v2.5877h5.7132c-.1492-.7699-.4051-1.53979-.7675-2.24552l-.0426-.08555h9.6996c2.0252 0 3.6027 1.60397 3.6027 3.55007zm-12.279.4277c0-.4277-.0427-.8554-.1066-1.2832l-1.9399 3.4859h-3.8372v3.4431h5.8623v-5.6458zm8.0581.5774c0-.3849-.3198-.7057-.7035-.7057h-3.1124v5.3678h3.1124c.3837 0 .7035-.3208.7035-.7057z"/></g></svg>