<svg fill="none" height="30" viewBox="0 0 95 30" width="95" xmlns="http://www.w3.org/2000/svg" xmlns:xlink="http://www.w3.org/1999/xlink"><clipPath id="a"><path d="m0 0h30v95h-30z" transform="matrix(0 1 -1 0 95 0)"/></clipPath><g clip-path="url(#a)" fill="#576472"><path d="m73.3174 24.8061c-.6223-.7247-1.0962-1.5658-1.3946-2.4751l-.0808-.2287-.0809-.2795-.0505-.1728-.0808-.3201-.0405-.1881c-.0404-.1779-.0758-.3659-.1061-.5539-.0061-.0683-.0162-.1362-.0303-.2033l-.0404-.3304c.008-.0726.008-.1459 0-.2185l-.0253-.2795 14.1482-3.4305c-.0831-.7367-.3007-1.4517-.6417-2.1091-.5246-1.1493-1.3778-2.1154-2.4507-2.7748-1.1883-.756-2.5234-1.24804-3.916-1.44336l-.2375-.03558c-.8396-.09332-1.6869-.09332-2.5265 0-2.2277.24234-4.3194 1.19714-5.9675 2.72404-1.6274 1.4893-2.7154 3.4812-3.0923 5.6615v.0864c-.0253.1423-.0455.2795-.0607.4371-.0151.1575 0 .1779-.0303.2795.0065.0778.0065.156 0 .2338.01.1353.01.2712 0 .4066v.6556c.0329 1.1768.2795 2.3377.7276 3.4253.799 1.8642 2.1194 3.4546 3.8005 4.5779s3.6505 1.7311 5.6687 1.7494c1.7069.0347 3.3969-.3453 4.9266-1.1079 1.513-.7515 2.8182-1.867 3.7998-3.2475l-.2425-.6149c-1.0005 1.921-7.9028 4.3096-11.9755-.2236zm6.4375-8.4415-8.4132 2.0329c0-.2542 0-.5083.0354-.7471v-.0763c-.0042-.0812-.0042-.1626 0-.2439l.0404-.3303c.0763-.5288.1946-1.0505.3537-1.5603.2854-.9458.7224-1.8384 1.2936-2.6427.521-.7412 1.1905-1.3644 1.9656-1.8296.7418-.446 1.5914-.6781 2.4557-.6708 1.206 0 2.0885.3388 2.6477 1.0164.2036.2362.3737.4995.5053.7827.5609 1.4382.5205 3.8319-.8842 4.269z"/><path d="m48.0685 25.0143c-1.0106 1.9414-7.9028 4.3249-11.9754-.2033-.6679-.7828-1.1669-1.6965-1.4654-2.6834-.3513-1.119-.5219-2.2875-.5053-3.4609-.0075-1.0956.1527-2.1857.475-3.2323.2854-.9458.7223-1.8384 1.2936-2.6427.5118-.7352 1.1689-1.3563 1.9302-1.8245.7419-.4458 1.5915-.6778 2.4557-.6708 1.206 0 2.0885.3388 2.6477 1.0164.5763.7327.8737 1.6482.8388 2.5817.0123.4849-.0595.9681-.2122 1.4281l4.295-1.0164c-1.5614-4.0657-6.7356-4.62985-7.6906-4.62985-8.1958-.13214-12.6929 7.62325-10.0452 13.94035.8 1.8653 2.121 3.457 3.8027 4.5819s3.6519 1.7348 5.6715 1.7556c1.7069.0347 3.397-.3454 4.9266-1.1079 1.5132-.7514 2.8184-1.8669 3.7998-3.2475z"/><path d="m66.7037 25.0145c-1.0106 1.9414-7.9028 4.3249-11.9754-.2033-.6609-.7776-1.1547-1.6843-1.4502-2.6631-.3513-1.119-.5219-2.2875-.5053-3.4609-.0076-1.0956.1526-2.1858.4749-3.2323.2838-.9455.719-1.8381 1.2885-2.6427.5107-.7417 1.1678-1.3697 1.9303-1.8448.7418-.446 1.5914-.6781 2.4557-.6709 1.2026 0 2.0851.3388 2.6477 1.0165.5817.7306.8846 1.6462.854 2.5817.0129.4853-.0607.9689-.2173 1.4281l4.2697-1.0164c-1.5513-4.0658-6.7254-4.6248-7.6703-4.6248-8.1959-.13214-12.693 7.6232-10.0452 13.9404.7947 1.87 2.113 3.4671 3.7943 4.5969 1.6813 1.1297 3.653 1.7433 5.6748 1.7659 1.7103.0364 3.404-.3437 4.9367-1.1079 1.513-.7515 2.8182-1.867 3.7998-3.2475z"/><path d="m91.7308 25.919v-25.91900014l-6.0635 1.48399014h-.0405v.57429c.2123 0 2.0465.50821 2.0465 1.77875v21.99047c0 2.7749-1.9505 3.1764-3.2693 3.2628v.4625h10.596v-.4625c-1.3138-.0864-3.2238-.493-3.2692-3.1713z"/><path d="m18.4382-.00000064-6.0029 1.47891064h-.0455v.44723c.2122 0 1.9959.63527 1.5159 1.77875-2.2789 5.072-9.67131 22.00071-10.06039 22.76301-1.27839 2.5411-3.092389 2.5411-3.84022247 2.6224l-.00000002.4625h9.39844249v-.4727s-3.56737.0407-3.56737-1.8346c0-1.1384 1.84431-5.6158 2.34455-6.8406l12.24329-3.0036c.0303.0763 3.3248 8.101 3.3248 9.7933 0 1.8296-2.9257 1.8855-3.0318 1.8855v.4625h12.2635v-.4625c-.8706.0149-1.7263-.2276-2.461-.6974-.7348-.4698-1.3163-1.1462-1.6723-1.9453-.3689-.7318-10.409-26.43740064-10.409-26.43740064zm1.5613 16.36460064-11.30339 2.7748c.06064-.1474 6.21009-14.64169 6.38189-15.0076.2577.60477 4.9165 12.2328 4.9165 12.2328z"/></g></svg>