<svg fill="none" height="40" viewBox="0 0 195 40" width="195" xmlns="http://www.w3.org/2000/svg" xmlns:xlink="http://www.w3.org/1999/xlink"><clipPath id="a"><path d="m0 0h195v40h-195z"/></clipPath><g clip-path="url(#a)" fill="#576472"><path d="m4.62 23.1396h-4.62v8.4h4.62z"/><path d="m17.4036 1.54c-2.4805-1.32-4.2009-1.54-8.26172-1.54h-9.14188v19.12h9.10187c3.62073 0 6.32133-.22 8.70183-1.8 2.6005-1.72 3.9408-4.58 3.9408-7.88 0-3.58-1.6604-6.44-4.3409-7.9zm-7.2415 13.58h-5.54115v-11.02l5.22107-.04c4.76098-.06 7.14148 1.62 7.14148 5.42 0 4.08-2.9406 5.64-6.8214 5.64z"/><path d="m190.139 8.38035-4.401 12.48005c-.8 2.24-1.2 3.52-1.94 5.6799h-.08c-.58-1.86-1.12-3.3599-1.86-5.5599l-4.261-12.62005h-5.121l8.861 23.16005c-.2.5-.4 1.0199-.62 1.5599-.74 1.8-2.5 2.9801-4.441 2.9801h-2.2v3.9399h2.26c3.661 0 6.962-2.24 8.322-5.64 2.821-7.0599 7.622-19.0799 10.362-25.97995z"/><path d="m67.2539 27.0802c0 8.38-3.8408 12.92-11.6024 12.92-5.7812 0-9.2619-3.04-10.5022-7.62h4.681c.8002 2.12 2.4805 4.02 5.9012 4.02 5.3011 0 7.1815-3.3 7.1815-9.58-.04 0-.04-.04-.08-.04-1.1403 1.98-3.7008 3.74-7.7616 3.74-6.5214 0-10.6622-4.72-10.6622-11.34 0-6.88 4.5009-11.50002 10.7222-11.50002 4.0208 0 6.4413 1.72 7.7616 3.62002-.04-.48-.04-.96-.04-1.46002v-1.46h4.4009zm-18.0037-7.94c0 4.5 2.5205 7.72 6.8414 7.72 3.8808 0 6.8814-2.74 6.8814-7.84 0-4.54-2.6406-7.58-6.8814-7.58-4.2409 0-6.8414 3.02-6.8414 7.7z"/><path d="m74.5551 21.1197c.1801 4.06 2.7806 7.28 7.2815 7.28 3.1807 0 4.721-1.5 5.9012-3.48h4.4609c-1.3202 4.18-4.981 7.18-10.5421 7.18-7.1415 0-11.6024-4.8-11.6024-12.04s4.6209-12.33997 11.6024-12.33997c7.5415 0 11.0222 5.73997 11.0222 11.95997v1.46zm13.4828-3.52c-.4001-3.66-2.7006-6.26-6.4813-6.26-3.6208 0-6.4014 2.38-6.8414 6.26z"/><path d="m99.8204 8.37981v2.95999c.7406-2.16 3.0006-3.54 5.6016-3.54.38 0 .76.02 1.14.08v4.06c-.52-.1-1.02-.14-1.54-.14-4.201 0-4.982 3.08-4.982 7.72v12h-4.4604v-19c0-1.46 0-2.73999-.04-4.13999z"/><path d="m152.371 28.2199c-1.2 1.98-3.441 3.88-7.362 3.88-5.381 0-8.021-3.3-8.021-9.3v-14.42002h4.441v12.74002c0 4.54 1.5 7.28 5.121 7.28 4.761 0 5.601-4.32 5.601-9.4v-10.62002h4.461v19.66002c0 1.2 0 2.34.04 3.48h-4.281z"/><path d="m166.634 8.38012h4.321v3.43998h-4.321v13.9c0 2.2 1.101 2.86 2.821 2.86.36 0 .74-.04 1.1-.08v3.3c-.56.1-1.14.16-1.72.18-4.101 0-6.701-1.36-6.701-6v-14.16h-3.501v-3.43998h3.481v-6.26h4.52z"/><path d="m109.282 0h7.722c11.562.08 17.123 5.72 17.163 15.84.04 8.62-4.421 15.6-16.403 15.7h-8.482zm4.681 27.6h2.701c8.381 0 12.762-3.2 12.762-11.78-.02-7.54-4.361-11.86-12.322-11.86-1.54 0-3.141.04-3.141.04z"/><path d="m37.9478 31.5398c-.14-.92-.14-1.5-.22-3.18-1.7604 2.52-4.1009 3.62-7.8016 3.62-4.861 0-8.3818-2.38-8.3818-6.7 0-4.98 4.761-6.62 10.9423-7.46 1.5403-.22 3.2606-.4 4.761-.52 0-4.58-2.5406-5.96-5.2011-5.96-2.6606 0-4.601 1.88-4.601 4.3h-4.3208c0-4.7 3.7007-7.84 9.0018-7.84s9.4219 2.2 9.4219 10.68v4.5c0 3.76.1801 6.48.5802 8.6h-4.1809zm-11.6024-6.32c0 2.16 1.7604 3.52 4.581 3.52 4.1408 0 6.3613-2.52 6.3613-7.02-.02-.42 0-.82.04-1.24-7.5416.78-10.9823 1.52-10.9823 4.74z"/></g></svg>