<svg fill="none" height="36" viewBox="0 0 146 36" width="146" xmlns="http://www.w3.org/2000/svg"><path d="m16.2936 17.5147c.1905 0 .3792-.0375.5552-.1103.176-.0729.3359-.1797.4705-.3144.1347-.1346.2415-.2944.3143-.4703s.1102-.3644.11-.5547v-15.214284c0-.612457-.7374-1.049765-1.2758-.7582265l-15.19313 8.2320105c-.385277.20947-.706967.51876-.931265.89536s-.34292133.80664-.343405 1.24484v7.0952c0 .6453.697846.0701 1.25771-.2508l7.52135-4.8375c.12755-.0731.27208-.1114.4191-.1111.14702.0004.29138.0392.41863.1128s.23291.1793.30642.3065.11229.2715.11239.4184v2.869c.0013.7998.6506 1.4475 1.4511 1.4475z" fill="#949ca5"/><g fill="#576472"><path d="m1.46133 18.4819c-.800992.0007-1.4499775.6496-1.4499775 1.4498v15.2165c0 .6125.7374315 1.0509 1.2757975.7594l15.19425-8.232c.3852-.2092.7069-.518.9314-.8942.2244-.3762.3434-.8058.3444-1.2438v-5.2352c-.0113-1.8453-.7917-1.582-1.3572-1.26l-7.4241 4.485c-.1275.0734-.2721.1119-.41925.1118-.14716-.0001-.29168-.039-.41905-.1126-.12736-.0737-.23307-.1795-.30649-.3069-.07343-.1274-.11198-.2719-.11179-.4189v-2.8691c0-.3845-.15288-.7532-.42502-1.0251-.27213-.2719-.64123-.4247-1.02609-.4247z"/><path d="m35.2203 23.0687c-.0335-.0329-.0734-.0585-.1172-.0752-.0439-.0167-.0908-.0241-.1376-.0218-.0469.0024-.0928.0144-.1348.0354-.042.0209-.0792.0504-.1092.0864-.5827.6979-1.3898 1.1719-2.2835 1.3413h-.0238c-.2746.0469-.5527.0714-.8313.0735h-.0656c-.0958 0-.1908-.0023-.285-.0068-1.2653-.061-2.3005-.5356-3.1058-1.4238-.0441-.0486-.086-.0972-.1278-.1469-.7541-.898-1.1438-1.9937-1.1695-3.2872v-.322c.0844-1.0957.5308-2.1323 1.269-2.947.8053-.8882 1.8405-1.3628 3.1058-1.4238.0942-.0045.1892-.0068.285-.0068h.0668c.2786.002.5566.0266.8313.0734h.0237c.8937.1694 1.7009.6435 2.2836 1.3413.0249.0283.0486.0565.0724.0859.0298.0359.0667.0652.1084.0861.0417.021.0873.0331.1339.0356.0466.0026.0932-.0045.137-.0208.0437-.0163.0836-.0414.1172-.0738l.1402-.1356.354-.339 1.4432-1.3898.0147-.0136c.0637-.0612.101-.1448.1039-.233.003-.0882-.0286-.174-.088-.2393-.0125-.0147-.026-.0294-.0396-.043-.1639-.1781-.336-.3485-.5158-.5107l-.0169-.0147c-.2607-.2258-.5353-.4348-.8223-.626l-.0633-.0419c-.8162-.5323-1.7232-.9107-2.676-1.1164-.5975-.1051-1.203-.1588-1.8097-.1604-1.021.0534-2.025.2828-2.9678.6779-.5234.2209-1.0223.4958-1.4884.8204-.3296.2285-.6433.4792-.9388.7503-1.6536 1.5188-2.4803 3.4835-2.4803 5.8941s.7917 4.3618 2.3751 5.8534c.3265.3084.6763.5914 1.0462.8463.8022.5548 1.7021.9532 2.6523 1.1741h.0136c.6413.1449 1.2969.2169 1.9544.2147.1572 0 .3121 0 .4671-.0113.052 0 .1041-.0057.1549-.0102l.103-.0079.0871-.0079.1538-.0158.1029-.0125h.0385l.0735-.009.1018-.0136.0916-.0135.1131-.0158h.0758l.0441-.0068h.0712c.9528-.2057 1.8598-.5841 2.676-1.1164l.0634-.0419c.287-.1912.5616-.4002.8222-.626l.017-.0147c.1801-.1618.3522-.3322.5158-.5107.0499-.0546.0765-.1264.0742-.2003-.0024-.0739-.0334-.1439-.0867-.1952l-.0102-.0091zm9.7812-3.9392v8.3732c0 .09-.0358.1762-.0994.2398-.0637.0635-.15.0992-.2399.0992h-2.7145c-.09 0-.1763-.0357-.2399-.0992-.0637-.0636-.0994-.1498-.0994-.2398v-21.03931c0-.08991.0357-.17614.0994-.23971.0636-.06357.1499-.09929.2399-.09929h2.7145c.0899 0 .1762.03572.2399.09929.0636.06357.0994.1498.0994.23971v7.24211c1.6015-1.8713 3.2211-2.104 4.3295-2.104 1.8199 0 3.4644.374 4.7504 1.4757 1.1977 1.0261 2.3661 2.8058 2.3661 4.902v9.5235c0 .09-.0358.1762-.0994.2398-.0636.0635-.1499.0992-.2399.0992h-2.7145c-.09 0-.1763-.0357-.2399-.0992-.0637-.0636-.0994-.1498-.0994-.2398v-8.4941c0-2.9651-1.5642-4.077-4.0265-4.077-1.1717 0-2.0652.3005-2.9067 1.1119-.7906.7627-1.1197 1.5933-1.1197 3.086zm43.7414-4.5437c0 .0899-.0357.1761-.0993.2397-.0637.0636-.15.0993-.24.0993-1.5985.0324-2.8083.5763-3.6295 1.6317-.8429 1.0908-1.2648 2.5534-1.2656 4.3878v6.8929h-3.3931v-15.899c0-.0899.0358-.1761.0994-.2397s.15-.0993.2399-.0993h2.7145c.09 0 .1763.0357.2399.0993.0637.0636.0994.1498.0994.2397v1.7628c1.2815-1.7764 3.6408-2.0419 4.8635-2.0916.0456-.0018.0912.0056.134.0218.0427.0162.0817.0409.1147.0725.033.0317.0592.0697.0771.1117.0179.0421.0271.0873.027.133.0012.6373.0125 2.0012.0181 2.6374zm25.1871 13.2571h-2.715c-.045 0-.089-.009-.131-.0265-.042-.0174-.079-.043-.111-.0752s-.056-.0704-.073-.1123-.025-.0867-.024-.1318v-15.5521c-.001-.0451.007-.0899.024-.1318s.041-.0801.073-.1123.069-.0578.111-.0753c.042-.0174.086-.0264.131-.0264h2.715c.045 0 .09.009.131.0264.042.0175.08.0431.111.0753.032.0322.057.0704.073.1123.017.0419.025.0867.024.1318v15.5521c.001.0451-.007.0899-.024.1318-.016.0419-.041.0801-.073.1123-.031.0322-.069.0578-.111.0752-.041.0175-.086.0265-.131.0265zm-41.5949.0022h3.4315v-16.2165h-3.2426c-.0121-.0012-.0242-.0012-.0362 0-.0228.0055-.0446.0146-.0645.0271-.0095.0066-.0182.0142-.026.0226-.0079.0079-.0147.017-.0226.026-.0068.0089-.0122.0188-.0159.0294 0 .0113-.0079.0226-.0113.0339-.0012.012-.0012.0241 0 .0361v1.8905c-1.7395-2.8498-5.9221-1.9786-6.267-1.9334-.9543.2066-1.8625.5866-2.6794 1.121l-.0634.0418c-.287.1912-.5616.4003-.8222.626l-.017.0147c-.1804.1614-.3526.3319-.5157.5107-1.0083 1.0863-1.6766 2.4433-1.9228 3.9042-.1152.5999-.172 1.2095-.1697 1.8204 0 2.2193.6866 4.0747 2.0597 5.5663.1639.1781.336.3486.5157.5108l.017.0147c.2606.2257.5353.4348.8222.626l.0634.0418c.8186.5333 1.7283.9117 2.6839 1.1164.3461.0452 4.5728.9255 6.2964-1.9797zm.009-8.3325v.1254c-.0241 1.2942-.4139 2.3899-1.1695 3.2871-.0418.0498-.0837.0984-.1278.1469-.8053.8882-1.7938 1.4125-3.0538 1.469h-.4433c-.2667-.0145-.5316-.0523-.7917-.113h-.0238c-.8937-.1693-1.7008-.6434-2.2835-1.3413-.8174-.9597-1.2261-2.1014-1.2261-3.425-.002-1.2184.4449-2.3949 1.2555-3.3052.5827-.6979 1.3898-1.1719 2.2835-1.3413h.0238c.2746-.0469.5526-.0714.8313-.0735h.0656c.0958 0 .1908.0023.285.0068 1.2653.061 2.3005.5356 3.1058 1.4238.7382.8147 1.1846 1.8513 1.269 2.947zm73.1169-7.9134c.09 0 .176.0357.24.0993.063.0636.099.1498.099.2397v14.6752c-.007.3085-.025.608-.051.904 0 .0633-.011.1266-.018.1887-.032.3063-.072.6023-.124.8894-.009.0463-.017.0926-.026.1378-.014.0712-.028.1424-.042.2125l-.014.0576c-.013.0644-.028.1288-.044.1921-.242 1.0851-.709 2.1075-1.371 3.0012-.04.0532-.081.1051-.123.1571-.079.1006-.162.1978-.249.2927-.006.0058-.012.0122-.017.0192-.042.0463-.085.0926-.129.1378s-.092.095-.14.1413-.097.0949-.147.1412c-.05.0464-.097.0905-.147.1334s-.098.0881-.149.1299-.101.0848-.152.1255c-.102.0825-.206.1616-.312.2361-.052.0373-.105.0746-.16.113-.039.026-.079.0531-.113.078-.361.2331-.742.4332-1.139.5978l-.133.0542c-.135.0531-.27.1017-.408.1458l-.166.052-.066.0192-.062.018-.129.0351c-.075.0203-.151.0384-.227.0565l-.06.0135c-.073.017-.147.0328-.226.0464-.079.0135-.148.0282-.226.0407l-.113.0169-.193.0282c-.066.0091-.133.017-.201.0238l-.113.0113-.131.0113c-.093.0079-.188.0147-.283.0192l-.123.0056c-.052 0-.104 0-.156.0057h-.265c-1.791 0-3.364-.4354-4.718-1.3063-.073-.0463-.144-.0938-.213-.1424-.036-.0248-.072-.0497-.113-.0768s-.059-.0407-.087-.0633c-.03-.0203-.059-.0429-.087-.0644l-.008-.0068c-.066-.0497-.131-.1017-.195-.1537-.063-.0519-.123-.1028-.183-.157-.035-.0305-.07-.0622-.104-.0949-.034-.0328-.093-.0837-.138-.1277-.068-.0664-.135-.1342-.2-.2034-.066-.0678-.13-.1379-.192-.2102-.063-.0723-.114-.1311-.169-.1989-.126-.1558-.246-.3164-.36-.4814-.055-.0802-.113-.1604-.159-.2429-.047-.0825-.102-.165-.152-.2497-.048-.0848-.096-.1707-.142-.2588-.047-.0881-.086-.165-.128-.2497-.002-.0059-.005-.0116-.008-.017-.088-.1839-.17-.3705-.247-.5593-.01-.0276-.014-.0574-.012-.0868.003-.0295.013-.0579.029-.0827.005-.0076.01-.0147.016-.0215l.02-.0192c.014-.0117.03-.0216.047-.0294l2.659-1.1605c.026-.0116.055-.0165.084-.0141.028.0024.056.0119.08.0277.009.0057.017.0122.025.0192.021.0184.037.0412.047.0666.026.0645.052.1277.081.1899.028.0621.055.1243.083.1842.029.0599.051.1051.077.1559l.021.0396c.026.0531.055.1039.083.1548.063.113.129.226.197.3254.03.0463.061.0915.092.1356.076.1074.154.2102.235.3085.039.0475.077.0915.113.1356.04.0429.079.0859.113.1266.083.0847.168.1649.256.2418.043.0373.088.0745.133.113.046.0384.091.0723.138.1062.048.0339.094.0678.142.0994.047.0317.113.0757.176.113.04.0249.079.0475.12.0701.102.0565.206.1089.312.1571.055.0237.088.0395.134.0576l.079.0316c.162.0638.329.1178.498.1616.042.0124.087.0226.131.0339.253.0588.51.0999.769.1232.065.0056.132.0113.199.0147s.136.0079.203.009c.068.0011.138 0 .209 0 2.924 0 4.43-1.8633 4.517-5.5901v-.7164c-1.724 2.9052-5.95 2.025-6.297 1.9798-3.387-.7357-5.918-3.5614-6.276-7.006-.004-.0384-.008-.076-.01-.113-.021-.2786-.032-.5579-.033-.8373v-7.797c0-.0899.036-.1761.1-.2397.063-.0636.15-.0993.24-.0993h2.714c.09 0 .176.0357.24.0993s.099.1498.099.2397v6.9698c-.011.1345-.01.5322 0 .904.008.2701.022.5255.041.6509.151.9503.564 1.8398 1.193 2.5685.822.9876 1.929 1.4814 3.323 1.4814.096 0 .191-.0023.285-.0068 1.266-.061 2.301-.5356 3.106-1.4238.044-.0486.086-.0972.128-.1469.754-.898 1.144-1.9936 1.17-3.2871v-7.7179c0-.0899.035-.1761.099-.2397s.15-.0993.24-.0993zm-23.143.0305v2.069h4.059c.048 0 .093.0189.127.0526s.053.0794.054.1271v2.364c-.001.0477-.02.0934-.054.1271-.034.0336-.079.0525-.127.0525h-4.059v11.2435c0 .0476-.019.0933-.053.127s-.08.0526-.127.0526h-3.031c-.048 0-.094-.0189-.128-.0525-.034-.0337-.053-.0794-.053-.1271v-15.9454c0-1.7326.54-3.08859 1.62-4.06796 1.076-.97405 2.317-1.49724 3.994-1.52662h2.753c.059.00027.117.01608.169.04584.051.02976.094.07243.123.12377.03.05133.046.10954.046.1688s-.016.11752-.045.16896l-1.461 2.52892c-.03.0514-.073.09411-.124.12386-.052.02974-.11.04548-.169.04564h-1c-1.676-.00079-2.514.76539-2.514 2.29839zm-19.424.3142v1.7594c-1.739-2.8499-5.9217-1.9787-6.2667-1.9335-.9524.2043-1.8594.5812-2.676 1.112l-.0633.0418c-.287.1912-.5616.4003-.8223.626l-.0169.0147c-.1805.1614-.3526.3319-.5158.5107-1.0082 1.0863-1.6765 2.4433-1.9227 3.9042-.1153.5999-.1721 1.2095-.1697 1.8204 0 2.2193.6865 4.0747 2.0596 5.5663.1639.1781.3361.3486.5158.5108l.0169.0147c.2607.2257.5353.4348.8223.626l.0633.0418c.8166.536 1.7248.9174 2.6794 1.1255.3461.0452 4.5731.9254 6.2961-1.9798v.7164c-.006.8872-.139 1.769-.392 2.6194-.02.0678-.043.1333-.066.1988.001.0034.001.0068 0 .0102-.653 1.8366-2.007 2.7546-4.0601 2.7538h-.2081c-.069 0-.1357 0-.2036-.009-.0678-.0091-.1334-.0091-.199-.0147-.2589-.0233-.5159-.0644-.7691-.1232-.0441-.0113-.0883-.0215-.1312-.0339-.169-.0438-.3352-.0978-.4977-.1616l-.0792-.0316c-.0452-.0181-.0893-.0373-.1334-.0576-.0441-.0204-.1063-.0486-.1584-.0758-.052-.0271-.104-.0531-.1538-.0813-.0498-.0283-.0803-.0452-.1199-.0701-.0611-.035-.1131-.0723-.1764-.113-.0634-.0406-.095-.0644-.1414-.0994s-.0927-.0701-.138-.1062c-.0452-.0362-.0905-.0735-.1334-.113-.0883-.0769-.1731-.1571-.2557-.2418-.0395-.0407-.0791-.0837-.1187-.1266-.0407-.0441-.0792-.0881-.1131-.1356-.0815-.0983-.1595-.2011-.2353-.3085-.0305-.0441-.0622-.0893-.0916-.1356-.0679-.104-.1346-.2124-.1968-.3254-.0283-.0509-.0577-.1017-.0837-.1548l-.0203-.0396c-.0261-.0508-.0521-.1028-.077-.1559-.0248-.0531-.0565-.1209-.0836-.1842-.0272-.0633-.0543-.1254-.0804-.1899-.0107-.0254-.0269-.0482-.0475-.0666-.0078-.007-.0161-.0135-.0248-.0192-.0245-.0168-.0528-.027-.0824-.0295-.0295-.0026-.0592.0025-.0862.0148l-2.6013 1.13-.017.0079-.0418.0181c-.017.0078-.033.0176-.0475.0293l-.0193.0192c-.0059.0068-.0113.0139-.0158.0215-.0161.0249-.026.0532-.029.0827-.0029.0295.0012.0592.012.0868.0385.0961.0781.191.1199.2836.0419.0927.0837.1854.1267.2758.0031.0054.0057.0111.0079.0169.0419.0848.0848.1684.1278.2497.043.0814.0939.1741.1425.2588.0498.0848.0996.1684.1516.2497.052.0814.1052.1639.1595.243.0542.0791.1131.1582.1685.235.0554.0769.1255.1661.1911.2464.0656.0802.1131.1344.1685.1988.0622.0718.1263.1419.1923.2102.0656.0678.1324.1367.2002.2034.0453.0441.0916.087.138.1277s.069.0644.1041.0949c.0599.0543.121.1063.1832.1571s.1289.104.1945.1537l.0079.0068c.0283.0214.0577.044.0871.0644.0283.0226.0577.044.0871.0632.0294.0193.0713.052.1075.0769.069.0486.1402.096.2126.1424 1.3572.8709 2.9302 1.3062 4.7187 1.3062h.2646c.052 0 .1041 0 .1561-.0056l.1233-.0057c.095 0 .19-.0113.2827-.0192l.1312-.0113.1131-.0113c.0679-.0068.1346-.0147.2002-.0237l.1934-.0283.1131-.0169c.0746-.0124.1496-.026.2266-.0407s.147-.0294.22-.0463l.06-.0136c.077-.0181.153-.0361.226-.0565l.129-.035.062-.0181.067-.0192.165-.052c.138-.044.274-.0926.409-.1457l.133-.0543c.397-.1646.778-.3646 1.139-.5977l.113-.078c.054-.0362.113-.0735.16-.113.106-.0746.21-.1537.312-.2362.051-.0407.102-.0825.151-.1254.05-.043.101-.0859.15-.13.048-.044.098-.0881.147-.1333.048-.0452.098-.0938.147-.1413.048-.0474.094-.0937.14-.1412s.087-.0915.129-.1379c.005-.0069.011-.0133.017-.0192.087-.0949.17-.1921.249-.2926.042-.052.082-.104.123-.1571.662-.8938 1.129-1.9162 1.371-3.0013.016-.0633.03-.1277.044-.1921 0-.018.009-.0373.012-.0553.001-.0072.001-.0144 0-.0215.014-.0633.026-.1288.039-.1932.009-.0452.017-.0916.026-.1379.017-.0927.033-.1876.047-.2825.031-.1977.056-.4.077-.6068.007-.0622.013-.1254.018-.1887.026-.2915.044-.591.051-.904v-14.638c0-.0899-.036-.1761-.099-.2397-.064-.0635-.15-.0992-.24-.0992h-2.744c-.088.0014-.173.0373-.235.1s-.098.1472-.099.2356zm-4.7499 12.6062c-.2787-.0021-.5567-.0266-.8313-.0735h-.0238c-.8939-.1708-1.7007-.6465-2.2824-1.3458-.8181-.9568-1.2269-2.0961-1.2261-3.4182-.0119-1.2252.4118-2.4149 1.1955-3.3572.6073-.7127 1.4409-1.1958 2.3616-1.3685.2755-.0449.5546-.0635.8336-.0553h.354c.5913.023 1.1717.1662 1.7058.4209.534.2547 1.01.6156 1.4 1.0605.738.8147 1.185 1.8513 1.269 2.947v.3221c-.024 1.2935-.414 2.3891-1.169 3.2871-.042.0497-.084.0983-.128.1469-.806.8882-1.8408 1.3628-3.1061 1.4238z"/><path d="m113.932 6.12549h-2.713c-.188 0-.339.15177-.339.339v2.71085c0 .18723.151.339.339.339h2.713c.188 0 .339-.15177.339-.339v-2.71085c0-.18723-.151-.339-.339-.339z"/></g></svg>