<svg fill="none" height="30" viewBox="0 0 156 30" width="156" xmlns="http://www.w3.org/2000/svg" xmlns:xlink="http://www.w3.org/1999/xlink"><clipPath id="a"><path d="m.974365 0h155v30h-155z"/></clipPath><g clip-path="url(#a)"><path d="m34.8884 0h-31.85724c-.54549 0-1.06865.216711-1.45437.60246-.38573.385748-.602425.90894-.602425 1.45447v25.89037c0 .5455.216695 1.0687.602425 1.4544.38572.3858.90888.6025 1.45437.6025h31.85724c.5455 0 1.0686-.2167 1.4543-.6025.3858-.3857.6025-.9089.6025-1.4544v-25.89037c0-.54553-.2167-1.068722-.6025-1.45447-.3857-.385749-.9088-.60246-1.4543-.60246zm-1.9475 1.977c.2596 0 .5133.07698.7291.22118.2158.14421.384.34918.4834.58899.0993.23981.1253.50369.0746.75826-.0506.25458-.1756.48843-.3591.67197-.1836.18354-.4174.30854-.6719.35918-.2546.05064-.5185.02465-.7583-.07469-.2398-.09933-.4447-.26754-.5889-.48336-.1442-.21583-.2212-.46956-.2212-.72913 0-.34807.1383-.68188.3844-.928.2461-.24613.5799-.3844.9279-.3844zm-4.6814 0c.2596 0 .5133.07698.7291.22118.2158.14421.384.34918.4833.58899.0994.23981.1253.50369.0747.75826-.0506.25458-.1756.48843-.3591.67197-.1836.18354-.4174.30854-.672.35918-.2545.05064-.5184.02465-.7582-.07469-.2398-.09933-.4447-.26754-.5889-.48336-.1442-.21583-.2212-.46956-.2212-.72913 0-.17235.0339-.34301.0999-.50223.0659-.15923.1626-.30391.2845-.42577.1218-.12187.2665-.21854.4257-.2845.1592-.06595.3299-.0999.5022-.0999zm-4.6814 0c.2595 0 .5133.07698.7291.22118.2158.14421.384.34918.4833.58899s.1253.50369.0747.75826c-.0506.25458-.1756.48843-.3592.67197-.1835.18354-.4173.30854-.6719.35918s-.5184.02465-.7582-.07469c-.2398-.09933-.4448-.26754-.589-.48336-.1442-.21583-.2211-.46956-.2211-.72913 0-.34807.1382-.68188.3843-.928.2462-.24613.5799-.3844.928-.3844zm10.7256 25.3646h-30.70471v-20.96891h30.70471v20.95621z" fill="#576472"/><path d="m13.1721 25.1121c.2105-.3508.5301-.623.9099-.7749s.7989-.1752 1.1932-.0664c.1807.0628.3723.0885.5631.0757.1909-.0129.3773-.064.548-.1503.1707-.0864.3223-.2062.4458-.3523.1234-.1462.2162-.3157.2728-.4985.139-.3686.1289-.7768-.0282-1.1381-.1571-.3612-.4487-.6471-.8131-.7968-.3574-.1622-.6506-.4387-.8334-.7861-.1828-.3473-.2447-.7456-.176-1.132.0621-.4035.2644-.7722.5713-1.0415.3069-.2692.6988-.4217 1.1069-.4308.405-.0067.7907-.174 1.0723-.4651.2816-.291.436-.6821.4293-1.087-.0067-.405-.174-.7907-.465-1.0723-.2911-.2817-.6821-.4361-1.087-.4294-.4099-.0112-.8038-.1613-1.1171-.4258-.3133-.2644-.5275-.6275-.6075-1.0296-.0457-.2433-.0457-.4929 0-.7362.0429-.2687.1492-.5234.3101-.7428.1609-.2195.3719-.3974.6153-.5191.3481-.1863.6104-.5003.732-.876s.0929-.78386-.0801-1.13883c-.0638-.18629-.1638-.35815-.2942-.50574-.1304-.14758-.2886-.268-.4656-.35435s-.3693-.13694-.5659-.14887c-.1965-.01193-.3935.01503-.5796.07934-.3802.15221-.8022.16414-1.1904.03365-.3336-.15014-.6233-.3833-.8412-.67723-.165-.22-.2817-.47232-.3426-.7405s-.0645-.54618-.0107-.81586h-7.00742c3.25134 1.74565 6.34702 5.25379 6.42272 9.91029.0842 5.0476-2.58673 9.1236-6.51526 11.0586h7.91596c-.2643-.3062-.4169-.693-.433-1.0972-.016-.4041.1055-.8018.3446-1.128z" fill="#949ca5"/><path d="m23.0692 8.39168c.317.2606.5345.62257.6157 1.02487.0812.40229.0212.82025-.1699 1.18345-.1554.3791-.4309.6968-.7842.9042s-.7649.2932-1.1716.2442c-.1894-.0367-.3843-.0347-.5728.0061s-.3669.1194-.5241.2311c-.1573.1116-.2903.2541-.391.4186-.1006.1646-.1668.3479-.1946.5388-.0829.3832-.014.7837.1924 1.1171.2063.3334.5339.5738.9138.6706.3785.1049.7111.3332.9451.6487.2339.3155.3558.7001.3462 1.0928-.0048.398-.1461.7822-.4003 1.0885s-.6059.516-.9961.594c-.3994.0686-.7552.2931-.989.624-.2339.3309-.3268.7412-.2582 1.1406.0687.3994.2931.7552.624.9891s.7412.3267 1.1405.2581c.4066-.0516.8186.0364 1.1686.2497.35.2132.6172.5389.7578.9239.0812.2337.1183.4804.1094.7277.0006.2739-.0644.544-.1895.7877-.1252.2437-.3068.4539-.5298.613-.319.2377-.5326.5904-.5955.9833-.0628.3928.0301.7946.259 1.1199.2075.3233.498.5848.8413.7572h9.3628c-2.9779-1.4765-5.7456-4.2527-6.4227-8.2025-.959-5.5987 1.6824-10.47813 6.1199-12.75799h-9.5437c-.2139.31611-.2983.7023-.2357 1.07881.0627.37651.2675.71461.5722.94446z" fill="#89929b"/><path d="m25.7669 27.636h-.275c.0898.0264.1852.0264.275 0z" fill="#949ca5"/><g fill="#576472"><path d="m43.9652 14.7771c-.0024-.5705.0827-1.1379.2523-1.6826.1601-.5157.4299-.9907.7908-1.3923.3773-.4169.8448-.7421 1.367-.9507.6463-.2421 1.3332-.3577 2.0231-.3407.5987-.0134 1.1951.0777 1.7624.2692.4497.153.8604.4028 1.203.7319.1739.1733.2747.4066.2818.652.0179.242-.041.4834-.1683.6899-.1355.2065-.342.3561-.5804.4206-.3257.0706-.666.0134-.9506-.1598-.213-.1123-.4337-.2093-.6604-.2903-.2847-.0939-.5835-.138-.8833-.1304-.2909-.0214-.5829.0234-.8539.1313-.2711.1078-.5141.2758-.7107.4913-.3703.48-.5555 1.0773-.5216 1.6826v1.4427c-.0339.6053.1513 1.2026.5216 1.6826.1964.2157.4394.3839.7105.4917.2711.1079.5632.1526.8541.1308.3175.0041.6341-.0327.9422-.1093.2303-.0546.4524-.1395.6604-.2524.2383-.1398.5176-.1933.7907-.1514.2284.0358.4376.1486.5931.3197.1476.1683.2387.3787.2608.6015.0189.2587-.0624.5147-.2272.7151-.31.385-.7341.6618-1.2113.7908-.5864.1846-1.1982.2754-1.8129.2692-.6902.0156-1.377-.1015-2.0231-.345-.5275-.2037-1.001-.5261-1.3838-.9422-.361-.4016-.6308-.8765-.7908-1.3923-.1697-.5446-.2548-1.1121-.2523-1.6826v-1.6825z"/><path d="m53.8875 7.9458c.0027-.12669.034-.25113.0915-.36402.0575-.1129.1398-.21134.2407-.28797.2435-.20261.5543-.30622.8707-.29025.3077-.01791.61.0864.8412.29025.0953.08024.1724.17992.2261.29236s.0827.23505.0852.35963v11.9462c-.0025.1245-.0315.2471-.0852.3596-.0537.1124-.1308.2121-.2261.2923-.2312.2039-.5335.3082-.8412.2903-.3164.016-.6272-.0876-.8707-.2903-.1009-.0766-.1832-.175-.2407-.2879s-.0888-.2374-.0915-.364z"/><path d="m59.4353 7.75656c.0034-.12597.035-.24958.0925-.3617s.1395-.20989.2398-.28608c.2435-.20261.5543-.30622.8707-.29024.3076-.01746.6098.08679.8412.29024.0952.07942.1723.17834.226.2901.0536.11175.0827.23372.0853.35768v.47532c-.0026.12396-.0317.24594-.0853.35769-.0537.11175-.1308.21068-.226.2901-.2321.20192-.5342.30464-.8412.28603-.3158.01715-.6266-.08493-.8707-.28603-.1003-.07619-.1823-.17396-.2398-.28608-.0575-.11213-.0891-.23574-.0925-.36171zm0 3.59644c.0027-.1267.034-.2511.0916-.364.0575-.1129.1398-.2113.2407-.288.2435-.2026.5543-.3062.8707-.2902.3077-.0179.61.0864.8412.2902.0953.0803.1724.18.2261.2924.0536.1124.0827.2351.0852.3596v8.539c-.0025.1246-.0316.2472-.0852.3596-.0537.1125-.1308.2122-.2261.2924-.2312.2038-.5335.3082-.8412.2902-.3164.016-.6272-.0876-.8707-.2902-.1009-.0766-.1832-.1751-.2407-.288-.0576-.1129-.0889-.2373-.0916-.364z"/><path d="m64.4869 14.7771c-.0024-.5705.0827-1.1379.2524-1.6826.1601-.5157.4298-.9907.7907-1.3923.3829-.4161.8564-.7385 1.3838-.9422.6464-.2421 1.3332-.3578 2.0232-.3408.5986-.0134 1.195.0777 1.7624.2693.4497.1529.8604.4027 1.2029.7319.1739.1732.2748.4066.2818.652.0179.2419-.0409.4833-.1682.6898-.1355.2065-.342.3562-.5805.4206-.3256.0706-.6659.0134-.9506-.1598-.2129-.1122-.4336-.2092-.6603-.2902-.2848-.0939-.5836-.138-.8833-.1304-.2909-.0215-.5829.0234-.854.1312-.271.1078-.514.2758-.7107.4913-.3703.48-.5554 1.0773-.5215 1.6826v1.4428c-.0339.6053.1512 1.2025.5215 1.6825.1965.2157.4395.3839.7106.4918.2711.1078.5631.1526.8541.1308.3174.004.6341-.0328.9422-.1094.2302-.0547.4523-.1395.6603-.2524.2384-.1398.5176-.1933.7908-.1514.2283.0358.4376.1486.593.3197.1476.1683.2388.3787.2608.6015.0202.2562-.058.5104-.2187.7109-.3074.3812-.7267.6564-1.1987.7866-.5864.1846-1.1982.2754-1.8129.2692-.69.0169-1.3768-.0987-2.0231-.3407-.5276-.2036-1.0011-.5261-1.3839-.9423-.361-.4015-.6307-.8765-.7907-1.3923-.1697-.5446-.2548-1.1121-.2524-1.6826v-1.6825z"/><path d="m74.5563 7.9458c.0027-.12669.034-.25113.0916-.36402.0575-.1129.1398-.21134.2407-.28797.2435-.20261.5543-.30622.8707-.29025.3077-.01791.61.0864.8412.29025.0953.08024.1724.17992.2261.29236s.0827.23505.0852.35963v6.2717h.9211l2.9064-3.5291c.2112-.1818.4829-.2778.7614-.2692.1563-.0004.3111.0303.4555.0902.1444.06.2755.1479.3857.2589.1067.1099.1866.2431.2333.389.0467.146.059.3008.0359.4523-.0267.2689-.1509.5188-.3491.7024l-2.5868 2.8478 3.1882 3.9876c.0801.0963.1363.21.1641.3321s.0263.249-.0042.3704c-.037.1532-.104.2975-.1971.4246-.0931.127-.2106.2344-.3455.3157-.2405.1812-.543.2598-.8412.2188-.1258-.0109-.2482-.0466-.3601-.1051-.112-.0585-.2112-.1386-.2919-.2357l-3.1924-4.1895h-.8833v3.609c-.0025.1246-.0315.2472-.0852.3597-.0537.1124-.1308.2121-.2261.2923-.2312.2039-.5335.3082-.8412.2903-.3164.016-.6272-.0877-.8707-.2903-.1009-.0766-.1832-.175-.2407-.2879-.0576-.1129-.0889-.2374-.0916-.3641z"/><path d="m90.7794 10.6085v-.6015c0-1.25631.3042-2.13825.9127-2.64582s1.5002-.75995 2.6751-.75715c.2824-.001.5641.02577.8412.07992.2484.04767.488.13277.7109.25239.1924.10309.3603.24658.4921.42064.1191.15565.1827.34664.1808.54262.0137.25488-.0688.5056-.2313.70247-.0891.09107-.1969.16159-.3161.20663-.1191.04505-.2467.06353-.3737.05416-.2061.00269-.4115-.02423-.6099-.07992-.2251-.05867-.4573-.08558-.6898-.07992-.3508-.03599-.7019.06499-.98.28183-.2158.27213-.3169.61773-.2818.96326v.68139h1.5436c.112 0 .2229.0222.3262.0656.1033.0433.1969.1068.2753.1868.0868.0843.1548.186.1998.2983.0449.1123.0657.2328.061.3537.0066.1268-.0131.2536-.058.3723-.0449.1188-.114.2269-.2028.3176-.0784.08-.172.1435-.2753.1868-.1033.0434-.2142.0657-.3262.0656h-1.5478v7.4116c-.0025.1246-.0316.2472-.0852.3596-.0537.1125-.1308.2122-.2261.2924-.2222.1993-.5136.3035-.8118.2903-.3206.0192-.6365-.0846-.8833-.2903-.0974-.0789-.1766-.1781-.2318-.2907s-.0852-.2359-.0878-.3613v-7.4327h-.7025c-.112.0001-.2229-.0222-.3261-.0655-.1033-.0433-.1969-.1069-.2753-.1869-.0889-.0906-.1579-.1988-.2028-.3175-.0449-.1188-.0646-.2455-.058-.3723-.0047-.1209.0161-.2414.061-.3538.0449-.1123.113-.2139.1998-.2982.0784-.08.172-.1435.2753-.1869.1032-.0433.2141-.0656.3261-.0655z"/><path d="m101.942 20.83c-.66.013-1.316-.0998-1.934-.3323-.5226-.1965-.9942-.5074-1.3807-.9099s-.678-.8864-.8531-1.4162c-.1915-.5648-.2868-1.1577-.2818-1.7541v-5.0476c.0027-.1267.034-.2512.0915-.3641.0575-.1128.1398-.2113.2408-.2879.2435-.2026.5543-.3062.8706-.2903.3077-.0179.6101.0864.8412.2903.0954.0802.1724.1799.2261.2923.0537.1125.0827.2351.0852.3597v5.1318c-.0252.2982.0156.5983.1195.8789.1037.2807.2687.5349.4817.7447.419.3539.954.5398 1.502.5216.545.0198 1.078-.1664 1.493-.5216.211-.2114.373-.4661.475-.7465.103-.2804.143-.5797.118-.8771v-5.1318c.003-.1254.033-.2486.088-.3611.056-.1126.135-.2118.232-.2909.233-.2004.534-.3042.841-.2903.306-.0086.605.0946.841.2903.103.0758.187.1738.246.2868.059.1129.091.2378.095.3652v5.0476c.005.5964-.091 1.1893-.282 1.7541-.175.5262-.466 1.0068-.85 1.4069-.384.4002-.852.7099-1.371.9066-.617.2367-1.274.3537-1.935.3449z"/><path d="m113.648 10.3898c.657-.0131 1.312.0879 1.935.2987.519.1762.995.4632 1.392.8412.378.3747.666.8308.841 1.3335.193.5542.289 1.1377.282 1.7246v5.3c-.004.1274-.036.2523-.095.3653-.059.1129-.143.211-.245.2867-.236.1957-.535.2989-.842.2903-.307.0139-.608-.0899-.841-.2903-.097-.079-.176-.1783-.231-.2909-.056-.1125-.086-.2357-.089-.3611v-5.1486c.025-.2974-.015-.5968-.117-.8771-.103-.2804-.265-.5352-.476-.7465-.414-.3552-.947-.5414-1.493-.5216-.548-.0182-1.083.1677-1.501.5216-.214.2097-.378.464-.482.7447-.104.2806-.145.5807-.12.8789v5.1486c-.002.1246-.031.2472-.085.3597-.054.1124-.131.2121-.226.2923-.231.2039-.534.3082-.841.2903-.317.016-.628-.0877-.871-.2903-.101-.0766-.183-.175-.241-.2879-.057-.1129-.089-.2374-.091-.3641v-5.0687c-.005-.5963.09-1.1892.281-1.754.176-.5297.467-1.0135.854-1.4159.386-.4025.858-.7135 1.38-.9103.613-.2365 1.265-.3549 1.922-.3491z"/><path d="m125.35 10.3898c.657-.0132 1.312.0878 1.934.2987.52.1762.995.4632 1.393.8413.378.3745.666.8306.841 1.3334.193.5541.289 1.1377.282 1.7246v5.3001c-.004.1273-.037.2522-.096.3652-.059.1129-.143.211-.245.2868-.237.194-.535.2969-.841.2902-.307.0139-.608-.0899-.842-.2902-.097-.0789-.176-.1781-.231-.2908-.056-.1126-.086-.2359-.088-.3612v-5.1487c.025-.2974-.015-.5967-.118-.8771-.102-.2804-.265-.5351-.475-.7465-.415-.3552-.948-.5414-1.493-.5216-.548-.0182-1.083.1677-1.502.5216-.213.2098-.378.464-.482.7447-.104.2806-.145.5807-.119.8789v5.1487c-.003.1245-.032.2471-.086.3596-.053.1124-.13.2121-.226.2924-.231.2038-.533.3081-.841.2902-.316.016-.627-.0876-.871-.2902-.101-.0767-.183-.1751-.24-.288-.058-.1129-.089-.2374-.092-.364v-5.0687c-.005-.5964.09-1.1893.282-1.7541.175-.5297.467-1.0134.853-1.4159.387-.4025.858-.7135 1.38-.9102.613-.2366 1.266-.355 1.923-.3492z"/><path d="m140.904 14.4784c.048.4712-.081.9434-.362 1.325-.164.1412-.356.2475-.563.3126-.206.065-.424.0875-.64.0659h-4.749v.5174c-.012.2843.034.5681.136.8337s.258.5074.457.7101c.228.2044.494.3611.783.4609.289.0997.595.1403.9.1196.332.0017.664-.0222.993-.0716.244-.0309.483-.0946.71-.1892l.543-.2819c.146-.085.311-.1327.479-.1388.115-.0072.231.0105.338.0518.107.0414.205.1055.285.188.152.1723.237.3931.24.6225-.012.2405-.113.4681-.282.6394-.217.237-.475.4336-.761.5805-.359.185-.739.3262-1.132.4206-.455.1153-.923.1719-1.392.1683-.635.0081-1.267-.1002-1.863-.3197-.531-.1906-1.022-.4756-1.451-.8413-.41-.3507-.741-.7835-.972-1.2703-.227-.4858-.343-1.016-.341-1.5522v-2.1326c.001-.5624.113-1.1192.329-1.6382.217-.5191.534-.9902.933-1.3862.397-.3936.867-.7064 1.384-.9212.558-.2318 1.158-.3477 1.762-.3407.667-.0182 1.33.1081 1.943.3701.485.2139.919.5269 1.274.9189.356.3919.626.8542.792 1.3568.151.4586.228.9387.227 1.4218zm-4.269-2.1243c-.266-.0143-.531.0282-.778.1247s-.471.2447-.657.4348c-.37.4203-.585.9547-.61 1.5143h4.089v-.2903c.011-.2466-.035-.4925-.134-.7186-.1-.2261-.249-.4264-.438-.5853-.417-.3323-.94-.5026-1.472-.4796z"/><path d="m143.566 7.9458c.003-.12669.034-.25113.092-.36402.057-.1129.14-.21134.241-.28797.243-.20261.554-.30622.87-.29025.308-.01791.61.0864.841.29025.096.08024.173.17992.227.29236.053.11244.082.23505.085.35963v11.9462c-.003.1245-.032.2471-.085.3596-.054.1124-.131.2121-.227.2923-.231.2039-.533.3082-.841.2903-.316.016-.627-.0876-.87-.2903-.101-.0766-.184-.175-.241-.2879-.058-.1129-.089-.2374-.092-.364z"/><path d="m148.618 19.3872c-.044-.0942-.071-.1952-.08-.2987-.014-.1213-.004-.2442.029-.3617.034-.1218.088-.237.16-.3407.077-.1097.186-.1933.311-.2398.155-.0735.322-.115.493-.122.127-.0019.253.0224.37.0715.106.0476.207.1084.298.1809l.282.2103c.549.3299 1.188.4772 1.826.4207.364.0172.725-.0815 1.03-.2819.118-.0818.215-.1906.283-.3172.068-.1267.105-.2677.108-.4114s-.028-.286-.091-.4153c-.063-.1292-.156-.2418-.27-.3283-.279-.1975-.587-.3508-.913-.4543-.368-.1262-.761-.2538-1.182-.3828-.414-.124-.811-.2992-1.182-.5216-.361-.2123-.672-.4991-.913-.8412-.261-.4205-.387-.9107-.361-1.405-.015-.4282.065-.8543.234-1.2478.17-.3935.424-.7446.746-1.0278.76-.6227 1.727-.9379 2.708-.8834.445-.0067.89.037 1.325.1304.322.0691.635.1735.934.3113.214.0977.41.2299.58.3912.12.112.218.2445.291.3912.096.2089.131.4408.101.6688-.005.1128-.035.2231-.089.3223s-.13.1847-.223.2498c-.104.0792-.224.1353-.352.1643-.127.029-.26.0304-.388.0039-.218-.0563-.427-.1412-.622-.2524-.107-.0532-.277-.1304-.509-.2313-.338-.1171-.695-.1685-1.052-.1514-.352-.0251-.7.0863-.972.3112-.106.0974-.191.2164-.249.3491-.057.1327-.085.2761-.083.4207-.002.1215.029.2413.091.346.061.1047.151.1903.258.2471.279.161.575.2894.884.3828l1.152.3617c.408.1249.796.3076 1.153.5427.402.2602.729.6229.945 1.0508.217.428.316.9059.287 1.3847.018.4212-.061.8409-.231 1.2267s-.426.7274-.749.9984c-.766.5916-1.717.89-2.684.8413-.406.0007-.811-.0359-1.211-.1093-.37-.0669-.732-.1712-1.081-.3113-.298-.1206-.58-.2759-.841-.4627-.222-.1531-.41-.3508-.551-.5805z"/></g></g></svg>