<svg width="180" height="32" viewBox="0 0 180 32" fill="none" xmlns="http://www.w3.org/2000/svg">
<g clip-path="url(#clip0)">
<path d="M33.1953 0H32.4353V32H33.1953V0Z" fill="#576472"/>
<path d="M42.9283 21.5224C42.9283 23.1002 42.8303 23.5686 45.9194 23.5686C48.8123 23.5686 49.5968 21.6457 49.5968 20.3144C49.5968 18.9092 49.4988 16.0987 44.4974 16.0987C42.8058 16.0987 42.9283 16.3945 42.9283 16.5918V21.5224ZM42.9283 14.6195C42.9283 15.3098 42.6587 15.433 44.62 15.433C48.1994 15.433 48.371 14.1018 48.371 13.0663C48.371 10.6996 46.3852 9.36833 44.1787 9.36833C42.8058 9.36833 42.9038 9.73813 42.9038 11.0201V14.6195H42.9283ZM41.2122 10.8229C41.2122 9.14645 39.2754 9.36833 39.2754 8.92457C39.2754 8.60408 39.5941 8.62873 39.8638 8.62873C40.3051 8.62873 40.7464 8.72735 41.6045 8.72735C42.487 8.72735 43.3451 8.62873 45.0858 8.62873C48.9349 8.62873 49.891 10.7243 49.891 12.3514C49.891 14.5948 47.8316 15.3098 47.8316 15.4577C47.8316 15.7782 51.2639 15.8522 51.2639 19.5008C51.2639 20.9554 50.2097 24.1603 45.9684 24.1603C45.1839 24.1603 43.8845 24.0617 43.1245 24.0617C42.1193 24.0617 41.0896 24.1603 40.0844 24.1603C39.9864 24.1603 39.5451 24.111 39.5451 23.9138C39.5451 23.6919 39.8148 23.6179 40.207 23.4947C40.4522 23.4207 41.2122 23.3221 41.2122 21.621V10.8229Z" fill="#576472"/>
<path d="M57.9079 19.3529C56.5105 19.6487 53.8627 20.0185 53.8627 21.9415C53.8627 23.1988 54.5001 23.6672 55.6524 23.6672C56.4369 23.6672 57.9324 23.0509 57.9324 21.8922V19.3529H57.9079ZM57.9079 17.1341C57.9079 16 57.0253 15.2358 55.6524 15.2358C54.5982 15.2358 53.7646 15.3344 53.7646 16.5424C53.7646 16.8629 53.8872 17.2081 53.8872 17.4299C53.8872 17.6765 53.8137 17.849 53.3969 17.849C53.0291 17.849 52.3672 17.5285 52.3672 17.1341C52.3917 16.1233 53.6175 14.5948 56.0201 14.6441C57.3685 14.6441 59.477 15.0386 59.477 16.9122V21.4484C59.477 22.188 59.2808 23.4946 60.4086 23.4946C60.5067 23.4946 60.7028 23.4453 60.7763 23.4453C60.8744 23.4453 61.0705 23.4453 61.0705 23.5933C61.0705 24.0617 60.1144 24.1356 59.7957 24.1356C58.9376 24.1356 58.3737 23.7412 58.104 23.0262C57.1969 23.8151 55.9956 24.3082 54.7698 24.3082C53.3478 24.3082 52.4162 23.7905 52.4162 22.2127C52.4162 21.054 52.784 19.6734 57.8834 18.8105V17.1341H57.9079Z" fill="#576472"/>
<path d="M64.0615 28.4747C64.037 28.5487 63.6448 28.5487 63.3506 28.5487C63.0564 28.5487 62.5415 28.5733 62.5415 28.4008C62.5415 27.9077 64.5274 26.2806 64.5274 24.5548C64.5274 24.0371 64.2822 23.5441 64.0861 23.0756L61.2176 16.0002C61.0215 15.5071 60.1879 15.5071 60.1879 15.1866C60.1879 14.9647 60.3105 14.9154 60.6292 14.9154C61.095 14.9154 61.5609 15.014 62.1492 15.014C62.9093 15.014 63.4241 14.9154 63.7673 14.9154C64.0861 14.9154 64.2332 14.9647 64.2332 15.2112C64.2332 15.6797 62.9828 15.2359 62.9828 16.0988C62.9828 16.4439 63.1789 16.7891 63.1299 16.5918L63.0809 16.6411L65.4099 22.6072L67.1016 17.6519C67.3713 16.863 67.3713 16.6658 67.3713 16.5179C67.3713 15.3345 65.9738 15.655 65.9738 15.1866C65.9738 14.9647 66.2435 14.9401 66.6358 14.9401C66.9055 14.9401 67.2487 15.0387 67.8616 15.0387C68.3519 15.0387 68.7442 14.9401 68.9648 14.9401C69.2345 14.9401 69.3816 15.0387 69.3816 15.2112C69.3816 15.7043 68.6461 15.1619 68.2048 16.4932L64.0615 28.4747Z" fill="#576472"/>
<path d="M72.25 22.3853C72.25 23.8891 74.0642 23.2728 74.0642 23.8645C74.0642 24.1357 73.8926 24.1603 73.5739 24.1603C73.2797 24.1603 72.5933 24.0617 71.5636 24.0617C70.4849 24.0617 70.0681 24.1603 69.8719 24.1603C69.7003 24.1603 69.6023 24.0617 69.6023 23.8645C69.6023 23.544 70.681 23.5933 70.681 22.6565V10.2805C70.681 8.97388 69.1855 9.5409 69.1855 9.07249C69.1855 8.94922 69.2835 8.85061 69.3816 8.82596C71.0732 8.4315 71.49 7.74121 72.0049 7.74121C72.1275 7.74121 72.2745 7.86448 72.2745 8.08636V22.3853H72.25Z" fill="#576472"/>
<path d="M82.2283 19.8953C82.2283 17.6272 81.2966 15.1619 78.6979 15.1619C76.565 15.1619 75.6824 17.0602 75.6824 18.9092C75.6824 21.054 76.6876 23.8645 79.2373 23.8645C81.076 23.8645 82.2283 22.6072 82.2283 19.8953ZM74.1624 19.6734C74.1624 16.9862 76.2708 14.6688 79.0166 14.6688C80.6837 14.6688 83.7483 15.4824 83.7483 19.5502C83.7483 22.2374 81.7134 24.3083 79.0411 24.3083C76.1972 24.3083 74.1624 22.6318 74.1624 19.6734Z" fill="#576472"/>
<path d="M87.1561 22.2374C87.1561 24.2836 89.0929 23.2235 89.0929 23.9384C89.0929 24.1357 88.9948 24.185 88.7497 24.185C88.4555 24.185 87.9161 24.0863 86.6903 24.0863C85.2193 24.0863 84.827 24.185 84.6799 24.185C84.5083 24.185 84.4347 24.111 84.4347 23.9877C84.4347 23.5193 85.538 23.6179 85.538 22.7058V17.0355C85.538 15.7289 83.9689 16.2959 83.9689 15.8275C83.9689 15.7042 84.1406 15.6056 84.2631 15.581C85.9548 15.1865 86.3716 14.4962 86.8864 14.4962C87.009 14.4962 87.1561 14.6195 87.1561 14.8414V16.4931H87.2051C87.6709 15.8521 88.4555 14.6688 89.3626 14.6688C89.8284 14.6688 90.809 15.2358 90.809 15.6549C90.809 15.9754 90.2942 16.6411 90.0245 16.6411C89.6077 16.6411 89.3626 16.148 88.578 16.148C87.6954 16.148 87.1561 17.1588 87.1561 17.4546V22.2374Z" fill="#576472"/>
<path d="M97.4284 18.3172C97.4284 21.818 99.7085 23.4205 102.65 23.4205C106.745 23.4205 107.701 20.7086 107.701 18.12V10.9952C107.701 8.75177 105.666 9.68859 105.666 8.85038C105.666 8.75177 105.813 8.6285 105.887 8.6285C106.745 8.6285 107.578 8.72711 108.436 8.72711C108.853 8.72711 109.245 8.6285 109.638 8.6285C109.736 8.6285 109.932 8.72711 109.932 8.87503C109.932 9.49137 108.657 8.9983 108.657 11.0199V17.8242C108.657 18.9089 108.927 24.308 102.577 24.308C96.84 24.308 95.7368 21.0784 95.7368 17.7009V10.3049C95.7368 9.02295 93.9716 9.54067 93.9716 8.82573C93.9716 8.67781 94.3394 8.60385 94.4619 8.60385C95.0258 8.60385 95.5652 8.70246 96.1536 8.70246C96.8401 8.70246 97.551 8.60385 98.2375 8.60385C98.3356 8.60385 98.924 8.55454 98.924 8.82573C98.924 9.44206 97.453 8.82573 97.453 10.4035V18.3172H97.4284Z" fill="#576472"/>
<path d="M113.045 22.3853C113.045 23.8891 114.958 23.2728 114.958 23.8645C114.958 24.1357 114.811 24.1603 114.467 24.1603C114.1 24.1603 113.658 24.0617 112.384 24.0617C111.231 24.0617 110.79 24.1603 110.52 24.1603C110.226 24.1603 110.128 24.111 110.128 23.8891C110.128 23.4454 111.427 23.8891 111.427 22.4592V17.0355C111.427 15.7289 109.809 16.2959 109.809 15.8275C109.809 15.7042 109.907 15.6056 110.005 15.581C111.82 15.1865 112.261 14.4962 112.751 14.4962C112.874 14.4962 113.021 14.6195 113.021 14.8414V16.2959C112.972 16.5671 114.075 14.6688 116.184 14.6688C119.101 14.6688 119.738 17.1095 119.738 18.7612V22.3853C119.738 23.8891 121.43 23.2728 121.43 23.8645C121.43 24.1357 121.283 24.1603 121.062 24.1603C120.768 24.1603 120.229 24.0617 119.175 24.0617C118.341 24.0617 117.875 24.1603 117.606 24.1603C117.311 24.1603 117.213 24.111 117.213 23.8891C117.213 23.4454 118.145 23.8891 118.145 22.4592V18.3668C118.145 17.282 117.36 15.6303 115.595 15.6303C113.756 15.6303 112.996 16.9862 113.021 17.3313V22.3853H113.045Z" fill="#576472"/>
<path d="M124.789 11.3159C124.789 11.5871 124.151 12.45 123.882 12.45C123.612 12.45 122.975 11.5625 122.975 11.3159C122.975 11.0694 123.637 10.1572 123.882 10.1572C124.151 10.1572 124.789 11.0447 124.789 11.3159ZM123.097 17.0355C123.097 15.7289 121.896 16.2959 121.896 15.8275C121.896 15.7042 121.994 15.6056 122.092 15.581C123.489 15.1865 123.931 14.4962 124.421 14.4962C124.544 14.4962 124.691 14.6195 124.691 14.8414V22.7058C124.691 23.8152 126.407 23.3467 126.407 23.9138C126.407 24.0863 126.284 24.1603 125.99 24.1603C125.524 24.1603 124.862 24.0617 123.955 24.0617C123.244 24.0617 122.68 24.1603 122.46 24.1603C122.288 24.1603 122.166 24.1357 122.141 23.9138C122.141 23.3714 123.097 24.2096 123.097 22.2127V17.0355Z" fill="#576472"/>
<path d="M131.555 22.3113L133.026 19.1556C133.443 18.2681 133.983 17.356 133.983 16.3698C133.983 15.1372 132.634 15.7535 132.634 15.2111C132.634 14.9399 132.879 14.9153 133.149 14.9153C133.615 14.9153 134.032 15.0139 134.497 15.0139C134.865 15.0139 135.257 14.9153 135.625 14.9153C135.846 14.9153 136.214 14.9399 136.214 15.2358C136.214 15.5316 135.429 15.3837 135.135 16.0493L131.801 23.1495C131.384 24.037 131.384 24.3082 131.065 24.3082C130.771 24.3082 130.697 23.9384 130.624 23.7905L127.339 16.2219C126.922 15.2358 126.137 15.5563 126.137 15.1618C126.137 15.0139 126.162 14.8906 126.603 14.8906C127.02 14.8906 127.02 14.9892 128.466 14.9892C129.275 14.9892 129.545 14.8906 129.815 14.8906C130.109 14.8906 130.305 14.8906 130.305 15.1372C130.305 15.5809 129.055 15.2851 129.055 15.9507C129.055 16.0247 129.153 16.3698 129.423 17.0355L131.555 22.3113Z" fill="#576472"/>
<path d="M142.073 17.9477C142.367 17.9477 142.514 17.8491 142.514 17.504C142.514 16.2713 141.288 15.1865 140.087 15.1865C138.739 15.1865 137.783 16.7397 137.783 17.9477H142.073ZM137.783 18.5394C137.783 22.1634 139.965 23.2235 141.288 23.2235C143.152 23.2235 143.887 22.0895 144.353 22.0895C144.451 22.0895 144.451 22.1881 144.451 22.2374C144.451 22.7305 142.563 24.3329 140.602 24.3329C137.341 24.3329 136.189 21.2759 136.189 19.846C136.189 17.0355 137.734 14.6935 140.455 14.6935C143.127 14.6935 144.329 17.3067 144.329 18.1943C144.329 18.5887 144.083 18.5641 143.593 18.5641H137.783V18.5394Z" fill="#576472"/>
<path d="M147.883 22.2374C147.883 24.2836 149.82 23.2235 149.82 23.9384C149.82 24.1357 149.722 24.185 149.477 24.185C149.183 24.185 148.643 24.0863 147.418 24.0863C145.947 24.0863 145.554 24.185 145.407 24.185C145.236 24.185 145.162 24.111 145.162 23.9877C145.162 23.5193 146.265 23.6179 146.265 22.7058V17.0355C146.265 15.7289 144.696 16.2959 144.696 15.8275C144.696 15.7042 144.868 15.6056 144.99 15.581C146.682 15.1865 147.099 14.4962 147.614 14.4962C147.736 14.4962 147.883 14.6195 147.883 14.8414V16.4931H147.932C148.398 15.8521 149.183 14.6688 150.09 14.6688C150.556 14.6688 151.536 15.2358 151.536 15.6549C151.536 15.9754 151.021 16.6411 150.752 16.6411C150.335 16.6411 150.09 16.148 149.305 16.148C148.423 16.148 147.883 17.1588 147.883 17.4546V22.2374Z" fill="#576472"/>
<path d="M152.517 17.3067C152.517 15.5563 153.865 14.6688 155.459 14.6688C155.827 14.6688 157.322 14.8414 157.592 15.1619C157.714 15.3345 157.69 16.0741 157.69 16.2466C157.69 16.8383 157.788 17.1095 157.445 17.1095C157.224 17.1095 157.028 15.2112 155.042 15.2112C154.184 15.2112 153.522 15.7043 153.522 16.6164C153.522 17.3314 154.086 17.7998 156.391 18.712C157.641 19.2297 158.205 19.92 158.205 21.3252C158.205 22.977 156.881 24.3329 155.263 24.3329C153.743 24.3329 153.351 23.6919 152.811 23.6919C152.321 23.6919 152.321 23.6673 152.321 21.9416C152.321 21.5718 152.247 20.8568 152.591 20.8568C153.081 20.8568 152.836 23.7412 155.189 23.7412C156.268 23.7412 157.126 23.0756 157.126 21.9416C157.126 20.7828 156.023 20.4377 155.14 20.0186C153.988 19.4269 152.517 18.8599 152.517 17.3067Z" fill="#576472"/>
<path d="M162.422 11.3159C162.422 11.5871 161.784 12.45 161.515 12.45C161.245 12.45 160.607 11.5625 160.607 11.3159C160.607 11.0694 161.269 10.1572 161.515 10.1572C161.784 10.1572 162.422 11.0447 162.422 11.3159ZM160.73 17.0355C160.73 15.7289 159.529 16.2959 159.529 15.8275C159.529 15.7042 159.627 15.6056 159.725 15.581C161.122 15.1865 161.564 14.4962 162.054 14.4962C162.177 14.4962 162.324 14.6195 162.324 14.8414V22.7058C162.324 23.8152 164.04 23.3467 164.04 23.9138C164.04 24.0863 163.917 24.1603 163.623 24.1603C163.157 24.1603 162.495 24.0617 161.588 24.0617C160.902 24.0617 160.313 24.1603 160.093 24.1603C159.921 24.1603 159.774 24.1357 159.774 23.9138C159.774 23.3714 160.73 24.2096 160.73 22.2127V17.0355Z" fill="#576472"/>
<path d="M165.462 15.8522C164.432 15.8522 164.285 15.8522 164.285 15.7043C164.285 15.5317 164.824 15.1619 165.952 13.9292C166.393 13.4115 166.614 12.9185 166.786 12.9185C167.08 12.9185 167.08 13.3869 167.08 14.9647H169.482C170.022 14.9647 170.267 14.5949 170.34 14.5949C170.439 14.5949 170.488 14.6935 170.488 14.7675C170.488 14.8661 170.414 14.9647 170.365 15.0633L169.924 15.8522H167.08V22.2374C167.129 23.1249 167.742 23.544 168.6 23.544C169.752 23.544 170.071 23.051 170.463 23.051C170.561 23.051 170.635 23.0756 170.635 23.2482C170.635 23.5687 169.458 24.3329 167.938 24.3329C166.933 24.3329 165.486 24.0371 165.486 21.7937V15.8522H165.462Z" fill="#576472"/>
<path d="M174.68 28.4747C174.655 28.5487 174.263 28.5487 173.969 28.5487C173.675 28.5487 173.16 28.5733 173.16 28.4008C173.16 27.9077 175.146 26.2806 175.146 24.5548C175.146 24.0371 174.901 23.5441 174.704 23.0756L171.836 16.0002C171.64 15.5071 170.806 15.5071 170.806 15.1866C170.806 14.9647 170.929 14.9154 171.248 14.9154C171.713 14.9154 172.179 15.014 172.768 15.014C173.528 15.014 174.042 14.9154 174.386 14.9154C174.704 14.9154 174.852 14.9647 174.852 15.2112C174.852 15.6797 173.601 15.2359 173.601 16.0988C173.601 16.4439 173.797 16.7891 173.748 16.5918L173.699 16.6411L176.028 22.6072L177.695 17.6519C177.965 16.863 177.965 16.6658 177.965 16.5179C177.965 15.3345 176.568 15.655 176.568 15.1866C176.568 14.9647 176.837 14.9401 177.23 14.9401C177.499 14.9401 177.843 15.0387 178.455 15.0387C178.946 15.0387 179.338 14.9401 179.559 14.9401C179.828 14.9401 179.975 15.0387 179.975 15.2112C179.975 15.7043 179.24 15.1619 178.799 16.4932L174.68 28.4747Z" fill="#576472"/>
<path d="M5.19749 18.0462V11.4638H13.2144C13.4841 11.4638 13.5821 11.4884 13.6802 11.6117L14.3912 12.3513C14.5138 12.4746 14.5383 12.5732 14.5383 12.8444V16.6656C14.5383 16.9368 14.5138 17.0354 14.3912 17.1587L13.6802 17.8983C13.5576 18.0216 13.4841 18.0462 13.2389 18.0462H5.19749ZM13.2144 3.59938C13.4841 3.59938 13.5821 3.62404 13.6802 3.7473L14.3912 4.4869C14.5138 4.61017 14.5383 4.70878 14.5383 4.97997V6.50847C14.5383 6.77966 14.5138 6.87827 14.3912 7.00154L13.6802 7.74114C13.5576 7.86441 13.4595 7.88906 13.2144 7.88906H5.19749V4.41294L3.43231 3.59938H13.2144ZM25.9629 16.5424V12.9676H19.4906V16.567H20.9616V27.0447C20.9616 27.3159 20.9371 27.4145 20.8145 27.5378L20.1035 28.2773C19.9809 28.4006 19.8829 28.4253 19.6377 28.4253H12.9692C12.6995 28.4253 12.6015 28.4006 12.5034 28.2773L11.7924 27.5378C11.6698 27.4145 11.6453 27.3159 11.6453 27.0447V21.621H13.2389C14.3176 21.621 15.0286 21.621 15.8622 20.7581L17.2596 19.3282C18.0932 18.4653 18.0932 17.7504 18.0932 16.6903V12.7951C18.0932 11.7103 18.0932 11.02 17.2596 10.1572L16.7693 9.6641L17.2596 9.17103C18.0932 8.30817 18.0932 7.59322 18.0932 6.53313V4.93066C18.0932 3.84592 18.0932 3.15562 17.2596 2.29276L15.8622 0.862866C15.0041 0 14.2931 0 13.2144 0H0V3.59938H1.69164V18.0462H0V21.6456H8.11495V27.0447C8.11495 28.1541 8.11495 28.869 8.94851 29.7319L10.346 31.1618C11.1795 32.0247 11.866 32.0247 12.8957 32.0247H19.6867C20.7164 32.0247 21.4029 32.0247 22.2364 31.1618L23.6339 29.7319C24.4674 28.869 24.4674 28.1541 24.4674 27.0447V17.3559L22.7268 16.5424H25.9629Z" fill="#576472"/>
<path d="M11.6208 17.4792V16.5424H13.1163V12.9677H6.64398V16.5424H8.11497V17.4792H11.6208Z" fill="#576472"/>
</g>
<defs>
<clipPath id="clip0">
<rect width="180" height="32" fill="white"/>
</clipPath>
</defs>
</svg>
