<svg width="97" height="50" viewBox="0 0 97 50" fill="none" xmlns="http://www.w3.org/2000/svg">
<g clip-path="url(#clip0)">
<path d="M0 40.0984V32.5278H3.64534V34.0248H1.62015V35.5218H3.4748V36.9333H1.62015V38.5586H3.77325V40.0984H0ZM9.91278 36.3345C9.91278 36.9119 9.84882 37.4252 9.72091 37.8743C9.59301 38.3448 9.40115 38.7297 9.14534 39.0719C8.88952 39.414 8.56975 39.6493 8.16472 39.8204C7.781 39.9915 7.312 40.077 6.75774 40.077H4.62596V32.5064H6.75774C7.29069 32.5064 7.75968 32.592 8.16472 32.7631C8.56975 32.9342 8.88952 33.1908 9.14534 33.533C9.40115 33.8751 9.59301 34.2601 9.72091 34.7306C9.84882 35.2224 9.91278 35.7571 9.91278 36.3345ZM8.20735 36.3345C8.20735 35.5646 8.07944 34.9872 7.82363 34.6022C7.56782 34.2173 7.22673 34.0248 6.82169 34.0248H6.39534V38.6014H6.82169C7.22673 38.6014 7.56782 38.4089 7.82363 38.024C8.07944 37.6176 8.20735 37.0616 8.20735 36.3345ZM10.7655 40.0984V32.5278H14.4108V34.0248H12.3856V35.5218H14.2403V36.9333H12.3856V38.5586H14.5387V40.0984H10.7655ZM18.6957 40.0984L16.9476 35.5004H16.9263L16.969 40.0984H15.4554V32.5278H17.3314L19.0581 37.2113H19.0794L19.0581 32.5278H20.529V40.0984H18.6957ZM28.5445 34.9016C28.5445 35.3294 28.4806 35.6929 28.3527 35.9923C28.2248 36.2917 28.0542 36.5483 27.841 36.7622C27.6279 36.9547 27.3934 37.1044 27.1162 37.2113C26.8391 37.3182 26.5833 37.361 26.3062 37.361H25.56V40.1198H23.8759V32.5492H26.2209C26.498 32.5492 26.7538 32.592 27.031 32.6561C27.3081 32.7417 27.5426 32.87 27.7771 33.0411C27.9903 33.2336 28.1821 33.4688 28.31 33.7682C28.4593 34.0676 28.5445 34.4525 28.5445 34.9016ZM26.9457 34.923C26.9457 34.5809 26.8604 34.3242 26.7112 34.1745C26.5407 34.0248 26.3488 33.9607 26.1143 33.9607H25.5814V35.9282H26.1143C26.3488 35.9282 26.5407 35.8426 26.7112 35.6715C26.8604 35.5004 26.9457 35.2652 26.9457 34.923ZM32.3178 40.0984L31.3158 37.083H30.8255V40.0984H29.1841V32.5278H31.593C32.3178 32.5278 32.8934 32.7203 33.2984 33.1052C33.7034 33.4902 33.8953 34.0462 33.8953 34.8161C33.8953 35.0941 33.874 35.3507 33.81 35.5646C33.7461 35.7785 33.6608 35.9709 33.5542 36.1206C33.4476 36.2703 33.341 36.3986 33.2131 36.5056C33.0852 36.6125 32.9573 36.6767 32.8507 36.7194L34.1298 40.0984H32.3178ZM32.2325 34.9016C32.2325 34.7092 32.2112 34.5595 32.1472 34.4312C32.1046 34.3028 32.0193 34.2173 31.9341 34.1318C31.8488 34.0676 31.7635 34.0034 31.6569 33.9821C31.5503 33.9607 31.4438 33.9393 31.3585 33.9393H30.8255V35.864H31.3372C31.5717 35.864 31.7848 35.7785 31.9767 35.6288C32.1259 35.4791 32.2325 35.2438 32.2325 34.9016ZM38.436 40.0984L38.1162 38.7083H36.4321L36.1123 40.0984H34.4069L36.2403 32.5278H38.372L40.2054 40.0984H38.436ZM37.3061 34.1745H37.2635L36.624 37.4038H37.903L37.3061 34.1745ZM40.7383 40.0984V32.5278H42.465V40.0984H40.7383ZM46.7286 40.0984L45.7267 37.083H45.2364V40.0984H43.5949V32.5278H46.0038C46.7286 32.5278 47.3042 32.7203 47.7092 33.1052C48.1143 33.4902 48.3061 34.0462 48.3061 34.8161C48.3061 35.0941 48.2848 35.3507 48.2209 35.5646C48.1569 35.7785 48.0716 35.9709 47.965 36.1206C47.8585 36.2703 47.7519 36.3986 47.624 36.5056C47.496 36.6125 47.3681 36.6767 47.2616 36.7194L48.5406 40.0984H46.7286ZM46.6433 34.9016C46.6433 34.7092 46.622 34.5595 46.5581 34.4312C46.5154 34.3028 46.4302 34.2173 46.3449 34.1318C46.2596 34.0676 46.1743 34.0034 46.0678 33.9821C45.9612 33.9607 45.8546 33.9393 45.7693 33.9393H45.2364V35.864H45.748C45.9825 35.864 46.1957 35.7785 46.3875 35.6288C46.5368 35.4791 46.6433 35.2438 46.6433 34.9016ZM49.2015 40.0984V32.5278H50.9282V40.0984H49.2015ZM52.0581 40.0984V32.5278H55.7034V34.0248H53.6782V35.5218H55.5329V36.9333H53.6782V38.5586H55.8313V40.0984H52.0581ZM61.9708 34.3242C61.8429 34.1745 61.6937 34.0676 61.5232 33.9821C61.3526 33.8965 61.1821 33.8537 60.9902 33.8537C60.7984 33.8537 60.6278 33.9179 60.4786 34.0462C60.3294 34.1745 60.2441 34.367 60.2441 34.645C60.2441 34.8803 60.3294 35.0727 60.4786 35.201C60.6278 35.3294 60.8623 35.4791 61.1608 35.6288C61.3313 35.7143 61.5232 35.8212 61.6937 35.9282C61.8856 36.0565 62.0561 36.1848 62.2053 36.3559C62.3546 36.527 62.5038 36.7408 62.5891 36.9761C62.6743 37.2113 62.7383 37.4893 62.7383 37.8315C62.7383 38.2378 62.6743 38.6014 62.5464 38.9008C62.4185 39.2216 62.248 39.4782 62.0348 39.6707C61.8216 39.8631 61.5658 40.0342 61.2887 40.1412C61.0115 40.2481 60.7131 40.2909 60.3933 40.2909C59.9456 40.2909 59.5193 40.2053 59.1569 40.0342C58.7945 39.8631 58.4747 39.6707 58.2615 39.4354L59.1356 38.1523C59.3061 38.3234 59.498 38.4517 59.7111 38.5586C59.9243 38.6655 60.1375 38.7083 60.3507 38.7083C60.5639 38.7083 60.7344 38.6442 60.8836 38.4945C61.0329 38.3661 61.0968 38.1737 61.0968 37.9384C61.0968 37.6818 61.0115 37.4893 60.841 37.3396C60.6704 37.1899 60.4146 37.0402 60.0949 36.8691C59.8817 36.7622 59.6898 36.6553 59.5193 36.5483C59.3274 36.42 59.1782 36.2917 59.0503 36.1206C58.9011 35.9495 58.7945 35.7571 58.7305 35.5218C58.6453 35.2866 58.6239 35.03 58.6239 34.7092C58.6239 34.2815 58.6879 33.9179 58.8371 33.6185C58.9863 33.3191 59.1569 33.0625 59.3701 32.87C59.6046 32.6775 59.8391 32.5278 60.1162 32.4423C60.3933 32.3567 60.6704 32.314 60.9476 32.314C61.3526 32.314 61.7363 32.3781 62.0561 32.5064C62.3759 32.6348 62.653 32.8272 62.8875 33.0625L61.9708 34.3242ZM67.5561 40.0128C67.215 40.2053 66.7887 40.3122 66.277 40.3122C65.8294 40.3122 65.4456 40.2053 65.0832 40.0128C64.7208 39.8204 64.4224 39.5424 64.1666 39.1788C63.9108 38.8152 63.7189 38.4089 63.5697 37.917C63.4204 37.4252 63.3565 36.8905 63.3565 36.3131C63.3565 35.7143 63.4204 35.1797 63.5697 34.6878C63.7189 34.1959 63.9108 33.7682 64.1666 33.426C64.4224 33.0839 64.7208 32.8058 65.0832 32.6134C65.4456 32.4209 65.8507 32.314 66.277 32.314C66.7887 32.314 67.1937 32.3995 67.5348 32.592C67.8759 32.7844 68.153 32.9983 68.3449 33.2763L67.4282 34.5167C67.3003 34.3456 67.1511 34.2173 67.0018 34.1104C66.8313 34.0034 66.6394 33.9607 66.4049 33.9607C66.1704 33.9607 65.9786 34.0248 65.808 34.1531C65.6375 34.2815 65.5096 34.4312 65.3817 34.645C65.2751 34.8589 65.1685 35.0941 65.1259 35.3935C65.0619 35.6929 65.0406 35.9923 65.0406 36.3131C65.0406 36.6339 65.0619 36.9547 65.1259 37.2327C65.1898 37.5107 65.2751 37.7673 65.3817 37.9812C65.5096 38.1951 65.6375 38.3661 65.808 38.4945C65.9786 38.6228 66.1704 38.6655 66.4049 38.6655C66.6394 38.6655 66.8313 38.6014 67.0018 38.4945C67.1724 38.3875 67.3003 38.2378 67.4069 38.0881L68.3662 39.2643C68.153 39.5637 67.8972 39.799 67.5561 40.0128ZM72.4166 40.0984V36.9333H70.6685V40.0984H68.9631V32.5278H70.6685V35.3935H72.4166V32.5278H74.122V40.0984H72.4166ZM80.6879 36.2917C80.6879 36.8905 80.6239 37.4466 80.496 37.9384C80.3681 38.4303 80.1762 38.858 79.9204 39.2002C79.6646 39.5424 79.3662 39.8204 79.0038 40.0128C78.6413 40.2053 78.2363 40.3122 77.7886 40.3122C77.341 40.3122 76.9359 40.2053 76.5735 40.0128C76.2111 39.8204 75.9127 39.5424 75.6569 39.2002C75.401 38.858 75.2092 38.4303 75.0813 37.9384C74.9534 37.4466 74.8894 36.8905 74.8894 36.2917C74.8894 35.6929 74.9534 35.1583 75.0813 34.6664C75.2092 34.1745 75.401 33.7682 75.6569 33.4046C75.9127 33.0625 76.2111 32.7844 76.5735 32.592C76.9359 32.3995 77.341 32.314 77.7886 32.314C78.2363 32.314 78.6413 32.3995 79.0038 32.592C79.3662 32.7844 79.6646 33.0411 79.9204 33.4046C80.1762 33.7468 80.3681 34.1745 80.496 34.6664C80.6239 35.1369 80.6879 35.6929 80.6879 36.2917ZM78.9398 36.2917C78.9398 35.9709 78.9185 35.6501 78.8545 35.3721C78.8119 35.0941 78.7266 34.8375 78.6413 34.645C78.5348 34.4312 78.4282 34.2815 78.279 34.1531C78.1297 34.0248 77.9805 33.9821 77.7886 33.9821C77.5968 33.9821 77.4262 34.0462 77.277 34.1531C77.1278 34.2601 77.0212 34.4312 76.9146 34.645C76.808 34.8589 76.7441 35.0941 76.7014 35.3721C76.6588 35.6501 76.6375 35.9495 76.6375 36.2917C76.6375 36.6339 76.6588 36.9333 76.7014 37.2113C76.7441 37.4893 76.808 37.746 76.9146 37.9598C77.0212 38.1737 77.1278 38.3234 77.277 38.4517C77.4262 38.58 77.5968 38.6442 77.7886 38.6442C77.9805 38.6442 78.151 38.58 78.279 38.4517C78.4282 38.3234 78.5348 38.1737 78.6413 37.9598C78.7266 37.746 78.8119 37.5107 78.8545 37.2113C78.9185 36.9333 78.9398 36.6125 78.9398 36.2917ZM87.1471 36.2917C87.1471 36.8905 87.0832 37.4466 86.9553 37.9384C86.8274 38.4303 86.6355 38.858 86.3797 39.2002C86.1239 39.5424 85.8254 39.8204 85.463 40.0128C85.1006 40.2053 84.6956 40.3122 84.2479 40.3122C83.8003 40.3122 83.3952 40.2053 83.0328 40.0128C82.6704 39.8204 82.372 39.5424 82.1162 39.2002C81.8603 38.858 81.6685 38.4303 81.5406 37.9384C81.4127 37.4466 81.3487 36.8905 81.3487 36.2917C81.3487 35.6929 81.4127 35.1583 81.5406 34.6664C81.6685 34.1745 81.8603 33.7682 82.1162 33.4046C82.372 33.0625 82.6704 32.7844 83.0328 32.592C83.3952 32.3995 83.8003 32.314 84.2479 32.314C84.6956 32.314 85.1006 32.3995 85.463 32.592C85.8254 32.7844 86.1239 33.0411 86.3797 33.4046C86.6355 33.7468 86.8274 34.1745 86.9553 34.6664C87.0832 35.1369 87.1471 35.6929 87.1471 36.2917ZM85.3991 36.2917C85.3991 35.9709 85.3778 35.6501 85.3138 35.3721C85.2712 35.0941 85.1859 34.8375 85.1006 34.645C84.9941 34.4312 84.8875 34.2815 84.7382 34.1531C84.589 34.0248 84.4398 33.9821 84.2479 33.9821C84.0561 33.9821 83.8855 34.0462 83.7363 34.1531C83.5871 34.2601 83.4805 34.4312 83.3739 34.645C83.2673 34.8589 83.2034 35.0941 83.1607 35.3721C83.1181 35.6501 83.0968 35.9495 83.0968 36.2917C83.0968 36.6339 83.1181 36.9333 83.1607 37.2113C83.2034 37.4893 83.2673 37.746 83.3739 37.9598C83.4805 38.1737 83.5871 38.3234 83.7363 38.4517C83.8855 38.58 84.0561 38.6442 84.2479 38.6442C84.4398 38.6442 84.6103 38.58 84.7382 38.4517C84.8875 38.3234 84.9941 38.1737 85.1006 37.9598C85.1859 37.746 85.2712 37.5107 85.3138 37.2113C85.3778 36.9333 85.3991 36.6125 85.3991 36.2917ZM87.9572 40.0984V32.5278H89.684V38.5158H91.7092V40.0984H87.9572ZM95.6956 34.3242C95.5677 34.1745 95.4185 34.0676 95.2479 33.9821C95.0774 33.8965 94.9068 33.8537 94.715 33.8537C94.5231 33.8537 94.3526 33.9179 94.2033 34.0462C94.0541 34.1745 93.9688 34.367 93.9688 34.645C93.9688 34.8803 94.0541 35.0727 94.2033 35.201C94.3526 35.3294 94.5871 35.4791 94.8855 35.6288C95.0561 35.7143 95.2479 35.8212 95.4185 35.9282C95.6103 36.0565 95.7809 36.1848 95.9301 36.3559C96.0793 36.527 96.2285 36.7408 96.3138 36.9761C96.3991 37.2113 96.463 37.4893 96.463 37.8315C96.463 38.2378 96.3991 38.6014 96.2712 38.9008C96.1433 39.2216 95.9727 39.4782 95.7595 39.6707C95.5464 39.8631 95.2906 40.0342 95.0134 40.1412C94.7363 40.2481 94.4378 40.2909 94.1181 40.2909C93.6704 40.2909 93.244 40.2053 92.8816 40.0342C92.5192 39.8631 92.1995 39.6707 91.9863 39.4354L92.8603 38.1523C93.0309 38.3234 93.2227 38.4517 93.4359 38.5586C93.6491 38.6655 93.8623 38.7083 94.0754 38.7083C94.2886 38.7083 94.4592 38.6442 94.6084 38.4945C94.7576 38.3661 94.8216 38.1737 94.8216 37.9384C94.8216 37.6818 94.7363 37.4893 94.5657 37.3396C94.3952 37.1899 94.1394 37.0402 93.8196 36.8691C93.6064 36.7622 93.4146 36.6553 93.244 36.5483C93.0522 36.42 92.903 36.2917 92.7751 36.1206C92.6258 35.9495 92.5192 35.7571 92.4553 35.5218C92.37 35.2866 92.3487 35.03 92.3487 34.7092C92.3487 34.2815 92.4127 33.9179 92.5619 33.6185C92.7111 33.3191 92.8816 33.0625 93.0948 32.87C93.3293 32.6775 93.5638 32.5278 93.8409 32.4423C94.1181 32.3567 94.3952 32.314 94.6723 32.314C95.0774 32.314 95.4611 32.3781 95.7809 32.5064C96.1006 32.6348 96.3778 32.8272 96.6123 33.0625L95.6956 34.3242Z" fill="#576472"/>
<path d="M6.80035 48.3747V43.5201H7.61043V48.3747H6.80035ZM9.27322 44.8674V45.4235H9.29454C9.35849 45.231 9.46508 45.0813 9.6143 44.953C9.76353 44.8247 9.95539 44.7605 10.1686 44.7605C10.3604 44.7605 10.5096 44.8033 10.6376 44.8888C10.7441 44.9744 10.8507 45.0813 10.9147 45.2096C10.9786 45.3379 11.0213 45.4876 11.0426 45.6587C11.0639 45.8298 11.0852 46.0009 11.0852 46.172V48.3533H10.3178V46.172C10.3178 46.0864 10.3178 46.0009 10.2965 45.9153C10.2965 45.8298 10.2752 45.7443 10.2325 45.6801C10.2112 45.6159 10.1686 45.5518 10.1046 45.509C10.0407 45.4662 9.97671 45.4449 9.89143 45.4449C9.72089 45.4449 9.57167 45.5304 9.4864 45.7015C9.37981 45.8726 9.33717 46.0864 9.33717 46.3644V48.3747H8.56973V44.8888H9.27322V44.8674ZM13.3876 45.6587C13.3236 45.5732 13.2383 45.509 13.1531 45.4449C13.0678 45.3807 12.9399 45.3593 12.8333 45.3593C12.7267 45.3593 12.6201 45.4021 12.5562 45.4876C12.4709 45.5732 12.4496 45.6801 12.4496 45.8084C12.4496 45.9367 12.4922 46.0437 12.5775 46.1078C12.6627 46.172 12.7907 46.2361 12.9612 46.3003C13.0678 46.3431 13.1531 46.3858 13.2596 46.4286C13.3662 46.4714 13.4515 46.5569 13.5155 46.6211C13.6007 46.7066 13.6647 46.7922 13.7073 46.9205C13.75 47.0274 13.7713 47.1771 13.7713 47.3268C13.7713 47.5193 13.75 47.6904 13.686 47.8401C13.622 47.9898 13.5368 48.0967 13.4302 48.2036C13.3236 48.2892 13.1957 48.3747 13.0678 48.4175C12.9399 48.4602 12.7907 48.4816 12.6414 48.4816C12.4283 48.4816 12.2151 48.4389 12.0232 48.3533C11.8314 48.2678 11.6821 48.1608 11.5329 48.0111L11.9593 47.5193C12.0445 47.6048 12.1298 47.6904 12.2364 47.7759C12.343 47.8401 12.4709 47.8828 12.6201 47.8828C12.748 47.8828 12.8546 47.8401 12.9186 47.7545C12.9825 47.669 13.0251 47.562 13.0251 47.4123C13.0251 47.2413 12.9612 47.1343 12.8546 47.0488C12.748 46.9846 12.5988 46.8991 12.4283 46.8349C12.343 46.8135 12.2577 46.7708 12.1724 46.728C12.0872 46.6852 12.0019 46.6211 11.9379 46.5355C11.874 46.45 11.81 46.3644 11.7674 46.2575C11.7248 46.1506 11.7034 46.0009 11.7034 45.8512C11.7034 45.6801 11.7248 45.5304 11.7887 45.4021C11.8527 45.2738 11.9379 45.1668 12.0232 45.0599C12.1298 44.9744 12.2364 44.8888 12.3643 44.846C12.4922 44.8033 12.6414 44.7819 12.7693 44.7819C12.9825 44.7819 13.1744 44.8247 13.3449 44.8888C13.5155 44.9744 13.6647 45.0599 13.7713 45.1882L13.3876 45.6587ZM17.0542 46.6211C17.0542 46.8991 17.0329 47.1343 16.9903 47.3696C16.9476 47.6048 16.8624 47.7973 16.7771 47.9684C16.6918 48.1395 16.5639 48.2678 16.4147 48.3533C16.2655 48.4389 16.1162 48.503 15.9244 48.503C15.7325 48.503 15.562 48.4389 15.4341 48.3319C15.3062 48.225 15.2209 48.0753 15.1569 47.9256H15.1356V50.0214H14.3682V44.8888H15.1356V45.3807H15.1569C15.2209 45.2096 15.3062 45.0599 15.4127 44.953C15.5406 44.846 15.7112 44.7819 15.9244 44.7819C16.1162 44.7819 16.2655 44.8247 16.4147 44.9316C16.5639 45.0171 16.6705 45.1454 16.7558 45.3165C16.841 45.4876 16.9263 45.6801 16.9689 45.9153C17.0329 46.1078 17.0542 46.3431 17.0542 46.6211ZM16.2868 46.6211C16.2868 46.45 16.2655 46.3003 16.2441 46.1506C16.2228 46.0009 16.1802 45.8726 16.1375 45.7656C16.0949 45.6587 16.031 45.5732 15.967 45.509C15.9031 45.4449 15.8178 45.4235 15.7112 45.4235C15.6259 45.4235 15.5406 45.4449 15.4554 45.509C15.3914 45.5732 15.3275 45.6587 15.2848 45.7656C15.2422 45.8726 15.1996 46.0009 15.1782 46.1506C15.1569 46.3003 15.1356 46.45 15.1356 46.6211C15.1356 46.7922 15.1569 46.9419 15.1782 47.0916C15.1996 47.2413 15.2422 47.3696 15.2848 47.4765C15.3275 47.5834 15.3914 47.669 15.4554 47.7331C15.5193 47.7973 15.6046 47.8187 15.7112 47.8187C15.8178 47.8187 15.9031 47.7973 15.967 47.7331C16.031 47.669 16.0949 47.5834 16.1375 47.4765C16.1802 47.3696 16.2228 47.2413 16.2441 47.0916C16.2655 46.9419 16.2868 46.7708 16.2868 46.6211ZM18.5678 43.8623C18.5678 43.9906 18.5251 44.1189 18.4399 44.2045C18.3546 44.29 18.248 44.3328 18.1201 44.3328C17.9922 44.3328 17.8856 44.29 17.8003 44.2045C17.7151 44.1189 17.6724 43.9906 17.6724 43.8623C17.6724 43.734 17.7151 43.6057 17.8003 43.5201C17.8856 43.4346 17.9922 43.3704 18.1201 43.3704C18.248 43.3704 18.3546 43.4132 18.4399 43.5201C18.5251 43.6057 18.5678 43.734 18.5678 43.8623ZM17.7364 48.3747V44.8888H18.5038V48.3747H17.7364ZM20.4224 44.953C20.5503 44.8247 20.6996 44.7605 20.8701 44.7605C20.8914 44.7605 20.9127 44.7605 20.934 44.7605C20.9554 44.7605 20.9767 44.7605 20.998 44.7819L20.9554 45.5732C20.9127 45.5518 20.8488 45.5518 20.7848 45.5518C20.6782 45.5518 20.593 45.5732 20.529 45.6373C20.4437 45.7015 20.3798 45.787 20.3372 45.8726C20.2732 45.9795 20.2519 46.0864 20.2092 46.2147C20.1879 46.3431 20.1666 46.4714 20.1666 46.5997V48.3533H19.3779V44.8674H20.1453V45.5304H20.1666C20.1879 45.2951 20.2945 45.0813 20.4224 44.953ZM22.2984 43.8623C22.2984 43.9906 22.2558 44.1189 22.1705 44.2045C22.0852 44.29 21.9786 44.3328 21.8507 44.3328C21.7228 44.3328 21.6162 44.29 21.5309 44.2045C21.4457 44.1189 21.403 43.9906 21.403 43.8623C21.403 43.734 21.4457 43.6057 21.5309 43.5201C21.6162 43.4346 21.7228 43.3704 21.8507 43.3704C21.9786 43.3704 22.0852 43.4132 22.1705 43.5201C22.2558 43.6057 22.2984 43.734 22.2984 43.8623ZM21.467 48.3747V44.8888H22.2344V48.3747H21.467ZM23.8333 44.8674V45.4235H23.8546C23.9185 45.231 24.0251 45.0813 24.1744 44.953C24.3236 44.8247 24.5154 44.7605 24.7286 44.7605C24.9205 44.7605 25.0697 44.8033 25.1976 44.8888C25.3042 44.9744 25.4108 45.0813 25.4747 45.2096C25.5387 45.3379 25.5813 45.4876 25.6026 45.6587C25.624 45.8298 25.6453 46.0009 25.6453 46.172V48.3533H24.8778V46.172C24.8778 46.0864 24.8778 46.0009 24.8565 45.9153C24.8565 45.8298 24.8352 45.7443 24.7926 45.6801C24.7713 45.6159 24.7286 45.5518 24.6647 45.509C24.6007 45.4662 24.5368 45.4449 24.4515 45.4449C24.2809 45.4449 24.1317 45.5304 24.0464 45.7015C23.9399 45.8726 23.8972 46.0864 23.8972 46.3644V48.3747H23.1298V44.8888H23.8333V44.8674ZM28.9282 48.2678C28.9282 48.5244 28.9069 48.7597 28.8429 48.9735C28.8003 49.1874 28.715 49.3585 28.5871 49.5295C28.4592 49.7006 28.3313 49.8076 28.1608 49.8931C27.9902 49.9786 27.7771 50.0214 27.5212 50.0214C27.2868 50.0214 27.0523 49.9786 26.8391 49.8717C26.6259 49.7648 26.434 49.6579 26.3061 49.5082L26.7325 48.9521C26.8391 49.0591 26.9457 49.1446 27.0736 49.2301C27.2015 49.2943 27.3507 49.3371 27.5212 49.3371C27.6492 49.3371 27.7557 49.3157 27.841 49.2515C27.9263 49.2088 27.9902 49.1232 28.0542 49.0377C28.1181 48.9521 28.1395 48.8452 28.1608 48.7169C28.1821 48.5886 28.2034 48.4602 28.2034 48.3319V47.9042H28.1821C28.1395 48.0539 28.0329 48.1822 27.905 48.2892C27.7771 48.3961 27.6065 48.4603 27.4147 48.4603C27.2228 48.4603 27.0736 48.4175 26.9243 48.3319C26.7751 48.2464 26.6685 48.1181 26.5833 47.947C26.498 47.7759 26.4127 47.5834 26.3701 47.3696C26.3274 47.1557 26.3061 46.8991 26.3061 46.6425C26.3061 46.3644 26.3274 46.1292 26.3914 45.894C26.434 45.6587 26.5193 45.4662 26.6046 45.2952C26.6899 45.1241 26.8178 44.9957 26.9457 44.9102C27.0949 44.8247 27.2441 44.7605 27.436 44.7605C27.6492 44.7605 27.8197 44.8247 27.9476 44.9316C28.0755 45.0385 28.1608 45.1882 28.2034 45.3593H28.2247V44.8674H28.9709V48.2678H28.9282ZM28.2034 46.6211C28.2034 46.45 28.1821 46.3003 28.1608 46.1506C28.1395 46.0009 28.0968 45.8726 28.0542 45.7656C28.0116 45.6587 27.9476 45.5732 27.8836 45.509C27.8197 45.4449 27.7344 45.4235 27.6278 45.4235C27.5212 45.4235 27.436 45.4449 27.372 45.509C27.3081 45.5732 27.2441 45.6587 27.2015 45.7656C27.1588 45.8726 27.1162 46.0009 27.0949 46.1506C27.0736 46.3003 27.0523 46.45 27.0523 46.6211C27.0523 46.7922 27.0736 46.9419 27.0949 47.0916C27.1162 47.2413 27.1588 47.3696 27.2015 47.4765C27.2441 47.5834 27.3081 47.669 27.372 47.7331C27.436 47.7973 27.5212 47.8187 27.6278 47.8187C27.7131 47.8187 27.7984 47.7973 27.8836 47.7331C27.9689 47.669 28.0116 47.5834 28.0542 47.4765C28.0968 47.3696 28.1395 47.2413 28.1608 47.0916C28.1821 46.9419 28.2034 46.7708 28.2034 46.6211ZM31.8061 46.8135C31.8061 46.9419 31.8274 47.0702 31.8488 47.1985C31.8701 47.3268 31.9127 47.4337 31.9767 47.5193C32.0193 47.6048 32.0833 47.669 32.1685 47.7331C32.2538 47.7759 32.3391 47.8187 32.4243 47.8187C32.5736 47.8187 32.6802 47.7759 32.7654 47.6904C32.8507 47.6048 32.9146 47.4979 32.9573 47.3696L33.5329 47.6904C33.4263 47.9256 33.2984 48.1181 33.1065 48.2678C32.9146 48.4175 32.6802 48.4816 32.403 48.4816C31.998 48.4816 31.6782 48.3319 31.4224 48.0111C31.1666 47.6904 31.06 47.2413 31.06 46.6425C31.06 46.3644 31.0813 46.1078 31.1453 45.8726C31.2092 45.6373 31.2945 45.4448 31.4224 45.2738C31.5503 45.1027 31.6782 44.9744 31.8488 44.8888C32.0193 44.8033 32.1898 44.7605 32.3817 44.7605C32.5949 44.7605 32.7867 44.8033 32.9573 44.8888C33.1065 44.9744 33.2344 45.1027 33.341 45.2524C33.4476 45.4021 33.5115 45.5946 33.5542 45.8084C33.5968 46.0223 33.6181 46.2575 33.6181 46.5141V46.8135H31.8061ZM32.872 46.2575C32.872 46.0009 32.8294 45.787 32.7441 45.6159C32.6588 45.4449 32.5309 45.3807 32.3604 45.3807C32.2538 45.3807 32.1685 45.4021 32.1046 45.4662C32.0406 45.5304 31.9767 45.5946 31.934 45.6801C31.8914 45.7656 31.8488 45.8726 31.8274 45.9581C31.8061 46.065 31.7848 46.1506 31.7848 46.2361H32.872V46.2575ZM35.7286 47.8401C35.686 48.0325 35.5794 48.1822 35.4515 48.2892C35.3236 48.3961 35.153 48.4603 34.9185 48.4603C34.8119 48.4603 34.7267 48.4389 34.6201 48.3961C34.5135 48.3533 34.4282 48.2892 34.3429 48.225C34.2577 48.1395 34.1937 48.0325 34.1298 47.9042C34.0658 47.7759 34.0445 47.6048 34.0445 47.4123C34.0445 47.1557 34.0871 46.9632 34.1724 46.8135C34.2577 46.6638 34.3643 46.5355 34.5135 46.45C34.6627 46.3644 34.8119 46.3003 34.9825 46.2575C35.153 46.2147 35.3236 46.2147 35.4941 46.2147H35.686V46.1078C35.686 45.8726 35.6433 45.7015 35.5367 45.5946C35.4515 45.4876 35.3236 45.4449 35.1743 45.4449C35.0464 45.4449 34.9185 45.4662 34.8119 45.5304C34.7053 45.5945 34.6201 45.6801 34.5348 45.7656L34.1724 45.2738C34.3003 45.1241 34.4708 44.9957 34.6627 44.9102C34.8546 44.8247 35.0464 44.7819 35.2383 44.7819C35.4515 44.7819 35.6433 44.8247 35.7712 44.8888C35.9205 44.953 36.0484 45.0599 36.1336 45.1882C36.2189 45.3165 36.2829 45.4876 36.3255 45.6801C36.3681 45.8726 36.3894 46.0864 36.3894 46.3217V48.3961H35.7499L35.7286 47.8401ZM35.7073 46.728H35.4728C35.3875 46.728 35.2809 46.728 35.1957 46.7494C35.1104 46.7708 35.0251 46.7922 34.9612 46.8349C34.8972 46.8777 34.8333 46.9419 34.7906 47.0274C34.748 47.1129 34.7267 47.1985 34.7267 47.3268C34.7267 47.5193 34.7693 47.6476 34.8546 47.7331C34.9398 47.8187 35.0251 47.8614 35.1317 47.8614C35.2383 47.8614 35.3236 47.8401 35.3875 47.7759C35.4515 47.7117 35.5154 47.6476 35.5581 47.5407C35.6007 47.4551 35.6433 47.3482 35.6433 47.2413C35.6646 47.1343 35.6646 47.0274 35.6646 46.9205V46.728H35.7073ZM38.8197 48.3961C38.6918 48.4602 38.5212 48.4816 38.3507 48.4816C38.1375 48.4816 37.9456 48.4389 37.7751 48.3533C37.6046 48.2678 37.4767 48.1395 37.3701 47.9684C37.2635 47.7973 37.1782 47.6048 37.1143 47.3696C37.0503 47.1343 37.029 46.8991 37.029 46.6211C37.029 46.3431 37.0503 46.0864 37.1143 45.8726C37.1782 45.6373 37.2635 45.4448 37.3701 45.2738C37.4767 45.1027 37.6259 44.9744 37.7751 44.8888C37.9456 44.8033 38.1162 44.7605 38.3294 44.7605C38.5212 44.7605 38.6705 44.7819 38.8197 44.846C38.9476 44.9102 39.0542 44.9744 39.1394 45.0599L38.7984 45.6373C38.7557 45.5732 38.6918 45.5304 38.6278 45.509C38.5639 45.4662 38.4786 45.4449 38.3933 45.4449C38.2015 45.4449 38.0522 45.5518 37.967 45.7656C37.8604 45.9795 37.8177 46.2575 37.8177 46.5997C37.8177 46.9419 37.8604 47.2199 37.967 47.4337C38.0736 47.6476 38.2228 47.7545 38.4146 47.7545C38.4999 47.7545 38.5852 47.7331 38.6705 47.6904C38.7557 47.6476 38.7984 47.6048 38.841 47.5407L39.1608 48.1395C39.0755 48.2678 38.9476 48.3319 38.8197 48.3961ZM41.3991 48.3747V46.1934C41.3991 46.1078 41.3991 46.0223 41.3778 45.9367C41.3778 45.8512 41.3565 45.7656 41.3139 45.7015C41.2925 45.6373 41.2499 45.5732 41.186 45.5304C41.122 45.4876 41.058 45.4662 40.9728 45.4662C40.8022 45.4662 40.653 45.5518 40.5677 45.7229C40.4611 45.894 40.4185 46.1078 40.4185 46.3858V48.3961H39.6511V43.1993H40.4185V45.4235H40.4398C40.5038 45.2524 40.6104 45.0813 40.7383 44.953C40.8875 44.8247 41.058 44.7605 41.2712 44.7605C41.4631 44.7605 41.6123 44.8033 41.7402 44.8888C41.8681 44.9744 41.9534 45.0813 42.0173 45.2096C42.0813 45.3379 42.1239 45.4876 42.1453 45.6587C42.1666 45.8298 42.1879 46.0009 42.1879 46.172V48.3533H41.3991V48.3747ZM45.9611 45.6587C45.8972 45.5732 45.8119 45.509 45.7266 45.4449C45.6414 45.3807 45.5135 45.3593 45.4069 45.3593C45.3003 45.3593 45.1937 45.4021 45.1297 45.4876C45.0445 45.5732 45.0232 45.6801 45.0232 45.8084C45.0232 45.9367 45.0658 46.0437 45.1511 46.1078C45.2363 46.172 45.3642 46.2361 45.5348 46.3003C45.6414 46.3431 45.7266 46.3858 45.8332 46.4286C45.9398 46.4714 46.0251 46.5569 46.089 46.6211C46.1743 46.7066 46.2383 46.7922 46.2809 46.9205C46.3235 47.0274 46.3449 47.1771 46.3449 47.3268C46.3449 47.5193 46.3235 47.6904 46.2596 47.8401C46.1956 47.9898 46.1104 48.0967 46.0038 48.2036C45.8972 48.2892 45.7693 48.3747 45.6414 48.4175C45.5135 48.4602 45.3642 48.4816 45.215 48.4816C45.0018 48.4816 44.7887 48.4389 44.5968 48.3533C44.4049 48.2678 44.2557 48.1608 44.1065 48.0111L44.5328 47.5193C44.6181 47.6048 44.7034 47.6904 44.81 47.7759C44.9166 47.8401 45.0445 47.8828 45.1937 47.8828C45.3216 47.8828 45.4282 47.8401 45.4921 47.7545C45.5561 47.669 45.5987 47.562 45.5987 47.4123C45.5987 47.2413 45.5348 47.1343 45.4282 47.0488C45.3216 46.9846 45.1724 46.8991 45.0018 46.8349C44.9166 46.8135 44.8313 46.7708 44.746 46.728C44.6608 46.6852 44.5755 46.6211 44.5115 46.5355C44.4476 46.45 44.3836 46.3644 44.341 46.2575C44.2983 46.1506 44.277 46.0009 44.277 45.8512C44.277 45.6801 44.2984 45.5304 44.3623 45.4021C44.4263 45.2738 44.5115 45.1668 44.5968 45.0599C44.7034 44.9744 44.81 44.8888 44.9379 44.846C45.0658 44.8033 45.215 44.7819 45.3429 44.7819C45.5561 44.7819 45.748 44.8247 45.9185 44.8888C46.089 44.9744 46.2383 45.0599 46.3449 45.1882L45.9611 45.6587ZM47.9011 45.4662V47.2626C47.9011 47.4551 47.9224 47.5834 47.9863 47.6904C48.0503 47.7759 48.1356 47.8187 48.2421 47.8187C48.2848 47.8187 48.3274 47.8187 48.37 47.7973C48.4127 47.7759 48.4553 47.7759 48.4766 47.7545L48.498 48.3533C48.434 48.3747 48.37 48.3961 48.2848 48.4175C48.1995 48.4389 48.0929 48.4389 48.0076 48.4389C47.7092 48.4389 47.496 48.3533 47.3681 48.1822C47.2402 48.0111 47.1763 47.7545 47.1763 47.4337V45.4662H46.7499V44.8674H47.1763V43.9692H47.9011V44.8674H48.498V45.4662H47.9011ZM50.8003 48.3747V47.8187H50.779C50.715 48.0111 50.6084 48.1608 50.4592 48.2892C50.31 48.4175 50.1181 48.4816 49.9049 48.4816C49.7131 48.4816 49.5638 48.4389 49.4359 48.3533C49.308 48.2678 49.2228 48.1608 49.1588 48.0325C49.0949 47.9042 49.0522 47.7545 49.0309 47.5834C49.0096 47.4123 48.9883 47.2413 48.9883 47.0702V44.8888H49.7557V47.0702C49.7557 47.1557 49.7557 47.2413 49.777 47.3268C49.777 47.4123 49.7983 47.4979 49.841 47.562C49.8623 47.6262 49.9049 47.6904 49.9689 47.7331C50.0328 47.7759 50.0968 47.7973 50.1821 47.7973C50.3526 47.7973 50.5018 47.7117 50.5871 47.5407C50.6937 47.3696 50.7363 47.1557 50.7363 46.8777V44.8674H51.5038V48.3533H50.8003V48.3747ZM54.1685 48.3747V47.8828H54.1472C54.1045 48.0539 54.0193 48.2036 53.8914 48.3105C53.7634 48.4389 53.5929 48.4816 53.3797 48.4816C53.2092 48.4816 53.0386 48.4389 52.9107 48.3319C52.7615 48.2464 52.6549 48.0967 52.5483 47.9256C52.4631 47.7545 52.3778 47.562 52.3352 47.3268C52.2925 47.0916 52.2499 46.8563 52.2499 46.5783C52.2499 46.3217 52.2712 46.065 52.3138 45.8512C52.3565 45.6373 52.4417 45.4448 52.527 45.2738C52.6123 45.1027 52.7402 44.9957 52.8681 44.8888C53.0173 44.8033 53.1665 44.7605 53.3584 44.7605C53.5503 44.7605 53.7208 44.8247 53.8487 44.9316C53.9766 45.0385 54.0619 45.1668 54.1259 45.3379H54.1472V43.1993H54.9146V48.3747H54.1685ZM54.1898 46.6211C54.1898 46.45 54.1685 46.3003 54.1472 46.1506C54.1259 46.0009 54.0832 45.8726 54.0406 45.7656C53.9979 45.6587 53.934 45.5732 53.8487 45.509C53.7635 45.4449 53.6782 45.4235 53.5929 45.4235C53.4863 45.4235 53.401 45.4449 53.3371 45.509C53.2731 45.5732 53.2092 45.6587 53.1665 45.7656C53.1239 45.8726 53.0813 46.0009 53.06 46.1506C53.0386 46.3003 53.0173 46.45 53.0173 46.6211C53.0173 46.7922 53.0386 46.9419 53.06 47.0916C53.0813 47.2413 53.1239 47.3696 53.1665 47.4765C53.2092 47.5834 53.2731 47.669 53.3371 47.7331C53.401 47.7973 53.4863 47.8187 53.5929 47.8187C53.6995 47.8187 53.7848 47.7973 53.8487 47.7331C53.9127 47.669 53.9766 47.5834 54.0193 47.4765C54.0619 47.3696 54.1045 47.2413 54.1259 47.0916C54.1685 46.9419 54.1898 46.7922 54.1898 46.6211ZM56.3642 46.8135C56.3642 46.9419 56.3855 47.0702 56.4069 47.1985C56.4282 47.3268 56.4708 47.4337 56.5348 47.5193C56.5774 47.6048 56.6413 47.669 56.7266 47.7331C56.8119 47.7759 56.8972 47.8187 56.9824 47.8187C57.1317 47.8187 57.2382 47.7759 57.3235 47.6904C57.4088 47.6048 57.4727 47.4979 57.5154 47.3696L58.091 47.6904C57.9844 47.9256 57.8565 48.1181 57.6646 48.2678C57.4727 48.4175 57.2383 48.4816 56.9611 48.4816C56.5561 48.4816 56.2363 48.3319 55.9805 48.0111C55.7247 47.6904 55.6181 47.2413 55.6181 46.6425C55.6181 46.3644 55.6394 46.1078 55.7034 45.8726C55.7673 45.6373 55.8526 45.4448 55.9805 45.2738C56.1084 45.1027 56.2363 44.9744 56.4069 44.8888C56.5774 44.8033 56.7479 44.7605 56.9398 44.7605C57.153 44.7605 57.3448 44.8033 57.5154 44.8888C57.6646 44.9744 57.7925 45.1027 57.8991 45.2524C58.0057 45.4021 58.0696 45.5946 58.1123 45.8084C58.1549 46.0223 58.1762 46.2575 58.1762 46.5141V46.8135H56.3642ZM57.4301 46.2575C57.4301 46.0009 57.3875 45.787 57.3022 45.6159C57.2169 45.4449 57.089 45.3807 56.9185 45.3807C56.8119 45.3807 56.7266 45.4021 56.6627 45.4662C56.5987 45.5304 56.5348 45.5946 56.4921 45.6801C56.4495 45.7656 56.4069 45.8726 56.3855 45.9581C56.3642 46.065 56.3429 46.1506 56.3429 46.2361H57.4301V46.2575ZM59.6045 44.8674V45.4235H59.6258C59.6898 45.231 59.7964 45.0813 59.9456 44.953C60.0948 44.8247 60.2867 44.7605 60.4999 44.7605C60.6917 44.7605 60.841 44.8033 60.9689 44.8888C61.0755 44.9744 61.182 45.0813 61.246 45.2096C61.3099 45.3379 61.3526 45.4876 61.3739 45.6587C61.3952 45.8298 61.4165 46.0009 61.4165 46.172V48.3533H60.6491V46.172C60.6491 46.0864 60.6491 46.0009 60.6278 45.9153C60.6065 45.8298 60.6065 45.7443 60.5638 45.6801C60.5425 45.6159 60.4999 45.5518 60.4359 45.509C60.372 45.4662 60.308 45.4449 60.2227 45.4449C60.0522 45.4449 59.903 45.5304 59.8177 45.7015C59.7111 45.8726 59.6685 46.0864 59.6685 46.3644V48.3747H58.8371V44.8888H59.6045V44.8674ZM63.0154 45.4662V47.2626C63.0154 47.4551 63.0367 47.5834 63.1006 47.6904C63.1646 47.7759 63.2499 47.8187 63.3565 47.8187C63.3991 47.8187 63.4417 47.8187 63.4844 47.7973C63.527 47.7973 63.5696 47.7759 63.5909 47.7545L63.6123 48.3533C63.5483 48.3747 63.4844 48.3961 63.3991 48.4175C63.3138 48.4389 63.2072 48.4389 63.122 48.4389C62.8235 48.4389 62.6103 48.3533 62.4824 48.1822C62.3545 48.0111 62.2906 47.7545 62.2906 47.4337V45.4662H61.8642V44.8674H62.2906V43.9692H63.0154V44.8674H63.6123V45.4662H63.0154ZM66.1278 46.8135C66.1278 46.9419 66.1491 47.0702 66.1704 47.1985C66.1917 47.3268 66.2344 47.4337 66.2983 47.5193C66.3623 47.6048 66.4049 47.669 66.4902 47.7331C66.5754 47.7759 66.6607 47.8187 66.746 47.8187C66.8952 47.8187 67.0018 47.7759 67.0871 47.6904C67.1723 47.6048 67.2363 47.4979 67.2789 47.3696L67.8545 47.6904C67.7479 47.9256 67.62 48.1181 67.4282 48.2678C67.2363 48.4175 67.0018 48.4816 66.7247 48.4816C66.3196 48.4816 65.9999 48.3319 65.744 48.0111C65.4882 47.6904 65.3816 47.2413 65.3816 46.6425C65.3816 46.3644 65.403 46.1078 65.4669 45.8726C65.5309 45.6373 65.6161 45.4448 65.744 45.2738C65.872 45.1027 65.9999 44.9744 66.1704 44.8888C66.3409 44.8033 66.5115 44.7605 66.7033 44.7605C66.9165 44.7605 67.1084 44.8033 67.2789 44.8888C67.4282 44.9744 67.5561 45.1027 67.6626 45.2524C67.7692 45.4021 67.8332 45.5946 67.8758 45.8084C67.9185 46.0223 67.9398 46.2575 67.9398 46.5141V46.8135H66.1278ZM67.1937 46.2575C67.1937 46.0009 67.151 45.787 67.0658 45.6159C66.9805 45.4449 66.8526 45.3807 66.682 45.3807C66.5754 45.3807 66.4902 45.4021 66.4262 45.4662C66.3623 45.5304 66.2983 45.5946 66.2557 45.6801C66.213 45.7656 66.1704 45.8726 66.1491 45.9581C66.1278 46.065 66.1064 46.1506 66.1064 46.2361H67.1937V46.2575ZM70.0289 48.3747H69.1123L68.1956 44.8888H69.0057L69.6026 47.562H69.6239L70.1995 44.8888H70.9882L70.0289 48.3747ZM71.9688 46.8135C71.9688 46.9419 71.9902 47.0702 72.0115 47.1985C72.0328 47.3268 72.0754 47.4337 72.1394 47.5193C72.182 47.6048 72.246 47.669 72.3312 47.7331C72.4165 47.7759 72.5018 47.8187 72.5871 47.8187C72.7363 47.8187 72.8429 47.7759 72.9281 47.6904C73.0134 47.6048 73.0774 47.4979 73.12 47.3696L73.6956 47.6904C73.589 47.9256 73.4611 48.1181 73.2692 48.2678C73.0774 48.4175 72.8429 48.4816 72.5657 48.4816C72.1607 48.4816 71.8409 48.3319 71.5851 48.0111C71.3293 47.6904 71.2227 47.2413 71.2227 46.6425C71.2227 46.3644 71.244 46.1078 71.308 45.8726C71.3719 45.6373 71.4572 45.4448 71.5851 45.2738C71.713 45.1027 71.8409 44.9744 72.0115 44.8888C72.182 44.8033 72.3526 44.7605 72.5444 44.7605C72.7576 44.7605 72.9495 44.8033 73.12 44.8888C73.2692 44.9744 73.3971 45.1027 73.5037 45.2524C73.6103 45.4021 73.6743 45.5946 73.7169 45.8084C73.7595 46.0223 73.7809 46.2575 73.7809 46.5141V46.8135H71.9688ZM73.0347 46.2575C73.0347 46.0009 72.9921 45.787 72.9068 45.6159C72.8216 45.4449 72.6936 45.3807 72.5231 45.3807C72.4165 45.3807 72.3312 45.4021 72.2673 45.4662C72.2033 45.5304 72.1394 45.5946 72.0967 45.6801C72.0541 45.7656 72.0115 45.8726 71.9902 45.9581C71.9688 46.0437 71.9475 46.1506 71.9475 46.2361H73.0347V46.2575ZM75.4863 44.953C75.6142 44.8247 75.7634 44.7605 75.934 44.7605C75.9553 44.7605 75.9766 44.7605 75.9979 44.7605C76.0192 44.7605 76.0405 44.7605 76.0619 44.7819L76.0192 45.5732C75.9766 45.5518 75.9126 45.5518 75.8487 45.5518C75.7421 45.5518 75.6568 45.5732 75.5929 45.6373C75.5076 45.7015 75.4436 45.787 75.401 45.8726C75.3371 45.9795 75.3157 46.0864 75.2731 46.2147C75.2518 46.3431 75.2305 46.4714 75.2305 46.5997V48.3533H74.4417V44.8674H75.2091V45.5304H75.2305C75.2731 45.2951 75.3584 45.0813 75.4863 44.953ZM78.087 48.8452C78.0444 49.0163 77.9805 49.166 77.9165 49.3157C77.8526 49.4654 77.7886 49.5723 77.682 49.6792C77.5967 49.7862 77.4902 49.8503 77.3622 49.9145C77.2343 49.9786 77.0851 50 76.9146 50C76.8293 50 76.744 50 76.6588 49.9786C76.5735 49.9573 76.5095 49.9573 76.4456 49.9359L76.5308 49.2515C76.5735 49.2729 76.6161 49.2729 76.6588 49.2943C76.7014 49.3157 76.7653 49.3157 76.808 49.3157C76.9359 49.3157 77.0212 49.2729 77.0851 49.2088C77.1491 49.1446 77.1917 49.0377 77.2343 48.888L77.3409 48.4603L76.3177 44.8888H77.1277L77.7246 47.5193H77.746L78.3002 44.8888H79.089L78.087 48.8452ZM82.7556 48.3747V47.8828H82.7343C82.6917 48.0539 82.6064 48.2036 82.4785 48.3105C82.3506 48.4389 82.1801 48.4816 81.9669 48.4816C81.7963 48.4816 81.6258 48.4389 81.4979 48.3319C81.3487 48.2464 81.2421 48.0967 81.1355 47.9256C81.0289 47.7545 80.965 47.562 80.9223 47.3268C80.8797 47.0916 80.837 46.8563 80.837 46.5783C80.837 46.3217 80.8584 46.065 80.901 45.8512C80.9436 45.6373 81.0289 45.4448 81.1142 45.2738C81.1994 45.1027 81.3274 44.9957 81.4553 44.8888C81.6045 44.8033 81.7537 44.7605 81.9456 44.7605C82.1374 44.7605 82.308 44.8247 82.4359 44.9316C82.5638 45.0385 82.6491 45.1668 82.713 45.3379H82.7343V43.1993H83.5018V48.3747H82.7556ZM82.777 46.6211C82.777 46.45 82.7556 46.3003 82.7343 46.1506C82.713 46.0009 82.6704 45.8726 82.6277 45.7656C82.5851 45.6587 82.5211 45.5732 82.4359 45.509C82.3506 45.4449 82.2653 45.4235 82.1801 45.4235C82.0735 45.4235 81.9882 45.4449 81.9242 45.509C81.8603 45.5732 81.7963 45.6587 81.7537 45.7656C81.7111 45.8726 81.6684 46.0009 81.6471 46.1506C81.6258 46.3003 81.6045 46.45 81.6045 46.6211C81.6045 46.7922 81.6258 46.9419 81.6471 47.0916C81.6684 47.2413 81.7111 47.3696 81.7537 47.4765C81.7963 47.5834 81.8603 47.669 81.9242 47.7331C81.9882 47.7973 82.0735 47.8187 82.1801 47.8187C82.2867 47.8187 82.3719 47.7973 82.4359 47.7331C82.4998 47.669 82.5638 47.5834 82.6064 47.4765C82.6491 47.3696 82.6917 47.2413 82.713 47.0916C82.7343 46.9419 82.777 46.7922 82.777 46.6211ZM85.8254 47.8401C85.7828 48.0325 85.6762 48.1822 85.5483 48.2892C85.4204 48.3961 85.2498 48.4603 85.0153 48.4603C84.9087 48.4603 84.8021 48.4389 84.7169 48.3961C84.6103 48.3533 84.525 48.2892 84.4398 48.225C84.3545 48.1395 84.2905 48.0325 84.2266 47.9042C84.1626 47.7759 84.1413 47.6048 84.1413 47.4123C84.1413 47.1557 84.1839 46.9632 84.2692 46.8135C84.3545 46.6638 84.4611 46.5355 84.6103 46.45C84.7595 46.3644 84.9087 46.3003 85.0793 46.2575C85.2498 46.2147 85.4204 46.2147 85.5909 46.2147H85.7828V46.1078C85.7828 45.8726 85.7401 45.7015 85.6335 45.5946C85.527 45.4876 85.4204 45.4449 85.2711 45.4449C85.1432 45.4449 85.0153 45.4662 84.9087 45.5304C84.8021 45.5945 84.7169 45.6801 84.6316 45.7656L84.2692 45.2738C84.3971 45.1241 84.5677 44.9957 84.7595 44.9102C84.9514 44.8247 85.1432 44.7819 85.3351 44.7819C85.5483 44.7819 85.7401 44.8247 85.868 44.8888C86.0173 44.953 86.1452 45.0599 86.2304 45.1882C86.3157 45.3165 86.3797 45.4876 86.4223 45.6801C86.4649 45.8726 86.4863 46.0864 86.4863 46.3217V48.3961H85.8467L85.8254 47.8401ZM85.8041 46.728H85.5696C85.4843 46.728 85.3777 46.728 85.2925 46.7494C85.2072 46.7708 85.1219 46.7922 85.058 46.8349C84.994 46.8777 84.9301 46.9419 84.8874 47.0274C84.8448 47.1129 84.8235 47.1985 84.8235 47.3268C84.8235 47.5193 84.8661 47.6476 84.9514 47.7331C85.0366 47.8187 85.1219 47.8614 85.2285 47.8614C85.3351 47.8614 85.4204 47.8401 85.4843 47.7759C85.5483 47.7117 85.6122 47.6476 85.6549 47.5407C85.6975 47.4337 85.7401 47.3482 85.7401 47.2413C85.7615 47.1343 85.7615 47.0274 85.7615 46.9205V46.728H85.8041ZM88.5754 48.8452C88.5328 49.0163 88.4688 49.166 88.4049 49.3157C88.3409 49.4654 88.277 49.5723 88.1704 49.6792C88.0851 49.7862 87.9785 49.8503 87.8506 49.9145C87.7227 49.9786 87.5735 50 87.4029 50C87.3176 50 87.2324 50 87.1471 49.9786C87.0618 49.9573 86.9979 49.9573 86.9339 49.9359L87.0192 49.2515C87.0618 49.2729 87.1045 49.2729 87.1471 49.2943C87.1897 49.3157 87.2537 49.3157 87.2963 49.3157C87.4242 49.3157 87.5095 49.2729 87.5735 49.2088C87.6374 49.1446 87.6801 49.0377 87.7227 48.888L87.8293 48.4603L86.806 44.8888H87.6161L88.213 47.5193H88.2343L88.7886 44.8888H89.5773L88.5754 48.8452Z" fill="#576472"/>
<path d="M35.3449 7.10009C35.4728 7.61334 35.5368 8.16938 35.5368 8.70402V18.3276C35.5368 19.1189 35.3875 19.8888 35.1317 20.6373C32.9786 20.0813 30.3565 19.3541 29.3972 18.8195C26.4341 17.1514 25.4748 13.6014 25.4748 13.6014L32.6162 15.4833V15.0984C32.6162 15.0984 27.6705 13.3875 25.1337 11.9974C22 10.308 22.341 6.15911 22.341 6.15911L32.6162 10.8212V10.3935C32.6162 10.3935 29.0135 8.61848 25.9011 6.4799C22.3837 4.0633 23.0872 0 23.0872 0L35.3449 7.10009ZM73.6956 6.11634L63.4204 10.7998V10.3721C63.4204 10.3721 67.0231 8.59709 70.1355 6.45851C73.653 4.0633 72.9708 0 72.9708 0L59.1782 7.9769C60.5638 8.93926 61.4805 10.5432 61.4805 12.3824V17.6433C61.4805 18.7553 61.1821 19.8032 60.6491 20.6801C62.8448 20.124 65.6588 19.3328 66.6394 18.7981C69.6026 17.13 70.5619 13.58 70.5619 13.58L63.4204 15.4619V15.077C63.4204 15.077 68.3661 13.3661 70.903 11.976C74.0367 10.2652 73.6956 6.11634 73.6956 6.11634ZM59.6898 12.3824V17.6433C59.6898 19.9743 57.7925 21.8777 55.4689 21.8777H51.6317V24.3157C51.6317 25.6202 51.9514 26.9247 52.527 28.1009L52.591 28.2293H51.6104H47.3894H46.4088L46.4515 28.1437C47.0697 26.9461 47.3894 25.5988 47.3894 24.2515V21.1292L46.7499 22.284H38.905H37.2848H36.3042L36.3468 22.1985C36.965 21.0009 37.2635 19.6749 37.2635 18.3276V8.70402C37.2635 7.35671 36.9437 6.0308 36.3468 4.8118L36.3042 4.72626H48.8391L46.7073 8.5757H41.4844V11.1634H47.1976C47.0484 10.3935 46.7925 9.62361 46.4301 8.91788L46.3875 8.83233H56.0871C58.1123 8.83233 59.6898 10.4363 59.6898 12.3824ZM47.4108 12.8101C47.4108 12.3824 47.3681 11.9547 47.3042 11.5269L45.3643 15.0128H41.5271V18.4559H47.3894V12.8101H47.4108ZM55.4689 13.3875C55.4689 13.0026 55.1491 12.6818 54.7654 12.6818H51.653V18.0496H54.7654C55.1491 18.0496 55.4689 17.7288 55.4689 17.3439V13.3875Z" fill="#576472"/>
</g>
<defs>
<clipPath id="clip0">
<rect width="96.5909" height="50" fill="white"/>
</clipPath>
</defs>
</svg>
