<svg fill="none" height="38" viewBox="0 0 77 38" width="77" xmlns="http://www.w3.org/2000/svg" xmlns:xlink="http://www.w3.org/1999/xlink"><clipPath id="a"><path d="m0 0h76.9744v38h-76.9744z"/></clipPath><g clip-path="url(#a)"><path d="m54.9789 11.3903h-.6892-.4853-.0583c-1.621 0-3.5381.0872-5.7852 0h-.3591c-.4854 0-1.5143-.0919-1.5288-.0919l-.7183-.063c-.9707-.0823-1.9705-.2081-3.0334-.3872l-.7862-.1356-.4271-.0629c-.2718-.0533-1.4172-.305-1.6744-.3679-.2573-.0629-.4466-.1065-.6747-.1646-.4076-.1017-.8202-.21783-1.2424-.33885l-.5824-.17427c-.3932-.11133-.7911-.24203-1.1988-.37758l-.728-.24688c-.3543-.12101-.7086-.25171-1.0726-.38726l8.0032-5.80891z" fill="#949ca5"/><g fill="#576472"><path d="m22.8642 36.0249c-1.2942 0-2.2358-.3872-2.8247-1.1617-.5888-.7746-.8897-1.996-.9027-3.6645v-2.4204c0-1.7039.3009-2.9383.9027-3.7032.6019-.7648 1.5628-1.1472 2.8829-1.1472.8323-.0462 1.6566.1835 2.3442.6535.2666.1781.4896.4137.6526.6893.163.2757.2618.5844.289.9033.0055.0269.02.0512.0412.0688.0211.0176.0477.0275.0753.028h2.0189c.0322 0 .0631-.0127.0858-.0354.0228-.0227.0356-.0535.0356-.0856-.0082-.9673-.3887-1.8945-1.0629-2.5898-.9513-1.065-2.4849-1.5975-4.601-1.5975-1.9608 0-3.4459.5712-4.4554 1.7137-1.0095 1.1424-1.5126 2.8463-1.5094 5.1118v2.8754c0 2.0977.5048 3.6774 1.5143 4.7391 1.0095 1.0618 2.4962 1.5942 4.4602 1.5975 2.3685 0 4.0008-.668 4.8971-2.0041.2676-.379.4785-.7948.626-1.2344.1145-.4444.1716-.9015.1699-1.3603 0-.0312-.0121-.0613-.0338-.0839-.0217-.0225-.0513-.0358-.0827-.0371h-2.0578c-.0275.0006-.0541.0105-.0753.0281-.0211.0176-.0357.0418-.0412.0687-.3154 1.6169-1.4026 2.6479-3.3488 2.6479z"/><path d="m63.0403 24.0295c.0309 0 .0606-.0122.0824-.034s.0341-.0514.0341-.0822v-1.8346c.0007-.0155-.0018-.0309-.0075-.0453-.0056-.0144-.0141-.0275-.0251-.0384-.0109-.0109-.0241-.0195-.0385-.0251s-.0299-.0081-.0454-.0074h-3.3973v-3.7516c0-.0308-.0123-.0604-.0341-.0821-.0219-.0218-.0515-.0341-.0824-.0341l-2.0675.6293c-.0309 0-.0606.0123-.0824.0341-.0219.0217-.0341.0513-.0341.0821v3.1223h-2.2568c-.0309 0-.0606.0122-.0824.034-.0219.0218-.0341.0514-.0341.0822v1.8346c0 .0308.0122.0604.0341.0822.0218.0218.0515.034.0824.034h2.2568v9.6815c0 1.3361.3009 2.3139.9027 2.9335s1.5709.9359 2.9072.9488h1.8928c.0309 0 .0605-.0122.0823-.034.0219-.0218.0342-.0513.0342-.0822v-1.8007c0-.0308-.0123-.0604-.0342-.0822-.0218-.0218-.0514-.034-.0823-.034h-1.689c-.2389.0262-.4807-.0039-.7058-.088s-.4272-.2197-.59-.3961c-.307-.511-.4446-1.1056-.3932-1.6991v-9.3475z"/><path d="m42.3262 26.1401c-.0105-.1986-.0447-.3952-.102-.5857-.2015-.6885-.5435-1.3279-1.0046-1.8782-1.0095-1.1425-2.4946-1.7137-4.4554-1.7137-2.1161 0-3.6513.5325-4.6058 1.5975-.6458.7006-.9938 1.6238-.9707 2.5753 0 .0321.0128.0628.0355.0855.0228.0227.0536.0355.0858.0355h2.019c.0283-.0008.0554-.0114.0766-.0299.0213-.0186.0354-.044.0399-.0718.0134-.3145.0992-.6217.2507-.8978.1515-.2762.3646-.5139.6229-.6948.6899-.469 1.5154-.6986 2.349-.6535 1.3202 0 2.2811.3824 2.8829 1.1473.2772.3638.4455.7985.4854 1.2537v.4841 1.7136c-.6018-.0774-1.2037-.1355-1.8055-.1742-.6018-.0388-1.0968-.0581-1.4851-.0581-2.1193 0-3.674.3969-4.6641 1.1908s-1.4851 2.0541-1.4851 3.7806c0 1.6136.4708 2.7899 1.4123 3.529.8299.6389 2.5723.9681 4.3292 1.0649.4633.0202.9274.004 1.3881-.0484 1.4806-.128 2.9397-.4386 4.3437-.9246.075-.0222.1411-.0673.1889-.129.0479-.0616.0752-.1367.0781-.2147v-9.7686c.0145-.2227.0048-.4308-.0097-.6148zm-8.0518 9.3572c-.2516-.0837-.4816-.2216-.6737-.404s-.3415-.4048-.4377-.6513c-.1382-.3865-.204-.7951-.1941-1.2053 0-1.0876.2863-1.8637.859-2.3284.5727-.4648 1.6081-.6971 3.1062-.6971.3251 0 2.2616.1646 2.9848.2469.036.0036.0694.0205.0937.0473.0242.0269.0375.0618.0373.0979v4.5503c0 .0317-.0098.0626-.028.0886-.0183.026-.044.0457-.0739.0566-1.8181.6853-3.8118.755-5.6736.1985z"/><path d="m76.7462 26.1402c-.0151-.1925-.0526-.3826-.1116-.5664-.2016-.6885-.5436-1.3279-1.0047-1.8782-1.0095-1.1425-2.4946-1.7137-4.4553-1.7137-2.1226 0-3.6579.5325-4.6059 1.5975-.6457.7006-.9937 1.6239-.9707 2.5753 0 .0321.0128.0628.0356.0855.0227.0227.0536.0355.0858.0355h2.019c.0282-.0008.0553-.0113.0766-.0299.0212-.0186.0353-.0439.0399-.0718.0134-.3145.0991-.6217.2506-.8978.1515-.2762.3646-.5139.623-.6948.6896-.4696 1.5152-.6993 2.349-.6535 1.3201 0 2.2811.3824 2.8829 1.1473.2793.3626.4478.798.4853 1.2537 0 .1598.0243.3244.0243.4841v1.7136c-.6018-.0774-1.2036-.1355-1.8055-.1742-.6018-.0387-1.1017-.0581-1.4899-.0581-2.1161 0-3.6692.3969-4.6593 1.1908s-1.4835 2.0541-1.4803 3.7807c0 1.6135.4708 2.7898 1.4124 3.5289.8299.639 2.5723.9681 4.3292 1.0649.4632.0202.9273.004 1.388-.0484 1.4807-.128 2.9397-.4386 4.3438-.9246.075-.0222.141-.0673.1889-.129.0479-.0616.0752-.1367.078-.2146v-9.7881c-.0048-.2226-.0145-.4308-.0291-.6147zm-8.0517 9.3571c-.2516-.0836-.4816-.2216-.6737-.404s-.3416-.4047-.4377-.6512c-.1382-.3866-.204-.7951-.1942-1.2054 0-1.0875.2864-1.8637.8591-2.3284s1.6081-.6971 3.1061-.6971c.3252 0 2.2617.1646 2.9848.2469.0357.0046.0685.0218.0925.0484.024.0267.0377.061.0386.0968v4.5504c-.0013.0313-.0116.0617-.0297.0874-.0181.0258-.0431.0458-.0722.0578-1.8182.6852-3.8118.755-5.6736.1984z"/><path d="m53.0084 24.2038c.0288-.0012.056-.0135.0758-.0343.0199-.0207.031-.0483.031-.077v-.0872-1.9314c0-.3873-2.6645.2081-2.912.2856-.5596.126-1.0853.3712-1.541.7188s-.8307.7893-1.0992 1.2949v-1.8346c0-.0166-.0033-.0329-.0096-.0482-.0064-.0153-.0157-.0291-.0274-.0408s-.0256-.021-.0409-.0273-.0318-.0096-.0483-.0096h-2.0045c-.0334 0-.0655.0133-.0892.0369s-.0369.0556-.0369.089v14.9386c-.0001.0338.0131.0663.0366.0907s.0556.0387.0895.04h2.0676c.0339-.0013.066-.0156.0895-.04s.0367-.0569.0367-.0907v-8.3697c-.0219-.9834.177-1.9593.5824-2.8561.2547-.5676.6611-1.0545 1.1747-1.4071.5137-.3526 1.1147-.5575 1.7373-.5921.4491-.0563.9014-.0838 1.3541-.0823z"/><path d="m53.8287 12.3052c-30.9645 9.4782-53.8287 0-53.8287 0l17.0353-12.3052c6.4647 4.72943 12.0849 7.66293 16.8994 9.47338.364.13554.7183.26624 1.0726.38726l.728.24686c.4077.1356.8057.2663 1.1988.3776l.5824.1743c.4223.121.8348.2372 1.2425.3388.2281.0581.4513.1162.6746.1646.2232.0484 1.9753.426 2.1258.455l.7862.1356c1.0629.1791 2.0724.3049 3.0334.3872l.7183.063s1.0434.0726 1.5288.0919h.3591c2.2471.0823 4.1642 0 5.7852 0z"/></g></g></svg>