<svg fill="none" height="36" viewBox="0 0 95 36" width="95" xmlns="http://www.w3.org/2000/svg"><path clip-rule="evenodd" d="m49.8109 12.3364c-.7947-.6741-2.1511-1.0108-4.0699-1.0108h-4.3279v13.4891h3.2361v-4.2277h1.4497c1.7594 0 3.0496-.3905 3.8707-1.1723.9248-.8759 1.3902-2.0422 1.3902-3.4982 0-1.5098-.5165-2.7034-1.5489-3.5801zm-3.7925 5.1984h-1.3692v-3.1569h1.2301c1.4963 0 2.2444.5293 2.2444 1.5879 0 1.045-.7023 1.5682-2.1053 1.5682zm10.879-6.21h-3.3744v13.4891h7.2858v-3.053h-3.9114zm10.5227 0-5.3008 13.4891h3.6331l.6947-1.961h4.6061l.6353 1.961h3.6738l-5.2632-13.4891zm-.0399 8.7974 1.3903-4.6106 1.3684 4.6106h-2.7594zm9.6678 4.6917h3.3752v-13.4891h-3.3752zm16.4791-10.9608c-.4264-.6235-.9738-1.1531-1.6091-1.5568-1.0188-.6477-2.409-.9707-4.1692-.9707h-4.4466v13.4883h5.2015c1.8797 0 3.388-.6195 4.5264-1.8601 1.1383-1.2399 1.7067-2.8855 1.7067-4.9352 0-1.6304-.4037-3.0189-1.2105-4.1655zm-5.4008 7.9071h-1.4489v-7.3816h1.4692c1.0323 0 1.8255.3261 2.3819.976s.8346 1.572.8346 2.7656c0 2.4266-1.0789 3.64-3.2368 3.64zm-74.1134-21.7602-10.93769 2.88922-3.0143073 11.09358 3.7699573 3.9038-3.83086 3.8394 2.83686 11.1421 10.89034 3.069 3.8316-3.8402 3.7699 3.9031 10.9377-2.8892 3.0136-11.0943-3.7692-3.9024 3.8308-3.8394-2.8368-11.14281-10.8918-3.068949-3.8302 3.839399zm-6.71209 5.02315 5.76169-1.52272 2.5196 2.60864-3.6745 3.68243zm12.64819 1.12081 2.5602-2.56542 5.7369 1.61675-4.682 4.69176zm-16.43619 6.92804 1.58723-5.84288 4.6053 4.76838-3.67371 3.6824-2.51882-2.6086zm22.21599-.9426 4.682-4.69326 1.4932 5.86946-2.5594 2.5662zm-11.6558-.0963 3.6745-3.68242 3.6143 3.74312-3.6737 3.6824zm-5.87519 5.8884 3.67369-3.6824 3.6166 3.7431-3.6752 3.6824zm11.65649.0963 3.6737-3.6824 3.6151 3.7431-3.6745 3.6824zm-16.41818 4.6766 2.56092-2.5669 3.61431 3.7438-4.68048 4.691zm10.54218 1.2118 3.6745-3.6824 3.615 3.7431-3.6737 3.6824zm11.6557.0971 3.6745-3.6824 2.5196 2.6078-1.5865 5.8429zm-18.53845 6.8022 4.68125-4.6933 3.6166 3.7431-2.561 2.5669-5.73685-1.6175zm12.66405-.9146 3.6737-3.6824 4.606 4.7691-5.7609 1.522z" fill="#576472" fill-rule="evenodd"/></svg>