<svg fill="none" height="38" viewBox="0 0 141 38" width="141" xmlns="http://www.w3.org/2000/svg"><g fill="#576472"><path d="m.906959 16.8411c0-1.22-.037797-2.1727-.09449-2.9368h3.952761c-.07559.8395-.09764 1.393-.09764 2.9368v2.2105h2.50394v-2.2105l-.07559-2.9368h4.02836c-.0756.9339-.0945 1.5061-.0945 2.9368v7.7226l.0945 2.9179h-4.02836l.07559-2.9179v-2.8803h-2.50394v2.8803l.09764 2.9179h-3.952761l.09449-2.8613z"/><path d="m18.5007 15.7564c-.3622.0189-.6867.1321-.8599.3239-.6677.6666-.9921 2.2513-.9921 4.6536 0 2.2137.3244 3.833.8976 4.4242.2111.2295.5733.3616.9355.3616 1.2598 0 1.8708-1.6225 1.8708-4.9964 0-2.5375-.5134-4.3487-1.3165-4.6726-.1512-.0566-.3433-.0943-.5134-.0943zm3.6472-.8395c1.3764 1.3332 2.063 3.2229 2.063 5.7196 0 4.3077-2.3307 7.1125-5.9024 7.1125-1.4708 0-2.7118-.5157-3.7259-1.5627-1.241-1.2578-1.8331-3.0532-1.8331-5.4744 0-4.2512 2.3118-7.1503 5.748-7.1503.0189 0 .0378 0 .0756.0189 1.6095.0409 2.6394.4402 3.5748 1.3364z"/><path d="m30.2675 19.8566c1.2409 0 1.7008-.5345 1.7008-1.9243 0-1.1823-.5355-1.7357-1.6819-1.7357-.1921 0-.3244 0-.611.0754v3.5846zm-4.3748-5.9491h5.7102c2.4441 0 4.2205 1.6193 4.2205 3.8707 0 1.2955-.3622 2.3268-1.0299 3.072-.9764 1.0502-1.9685 1.4118-3.8016 1.4118h-.5354c-.1733-.0188-.441-.0188-.7843-.0188v2.2891c0 .7452.0189 1.7734.0567 2.5941l.0189.3616h-3.8583l.0189-.3616c.0567-.783.0756-1.7357.0756-2.5941v-7.6723c0-.5911-.0189-1.2011-.0756-2.2891z"/><path d="m41.2313 19.149c.4976-1.1445.7276-1.5627 1.4142-2.5941.4-.6288.7811-1.1068 1.1086-1.4306.7843-.783 1.8709-1.2766 2.8662-1.2766.1543 0 .2866.0188.5543.0566v2.6884c-.7055.0377-1.1433.2107-1.7386.7075-.4409.3616-.6488.61-1.0897 1.3143l3.6661 8.8671h-4.0126l-2.0063-5.5498-.822 1.1634v1.4716c0 .915.0189 1.6948.0567 2.5752l.0189.3427h-3.9749l.0189-.3427c.0378-.7641.0756-1.7168.0756-2.5752v-7.7446c0-.6854-.0378-1.4307-.0756-2.5752l-.0189-.3427h4.0504l-.0189.3616c-.0566.8961-.0755 1.7356-.0755 2.5563v2.3268z"/><path d="m50.0755 27.4816.0189-.4779c.0377-1.2011.0566-1.7168.0566-2.4966v-7.666c0-1.2577-.0189-2.0973-.0755-2.9368h3.9748c-.0567.9936-.0977 1.9464-.0977 2.9368v7.666c0 .7043.0189 1.6382.0756 2.5532l.0189.4182h-3.9716z"/><path d="m63.5053 13.9043h2.8063l-.0189.3427c-.0378.783-.0756 1.7546-.0756 2.613v10.6216h-3.2094l-3.9339-8.867v5.9522c0 .7421.0189 1.6603.0756 2.5753l.0189.3427h-2.8094l.0189-.3427c.0377-.783.0755-1.7357.0755-2.5753v-7.7037c0-.7074-.0189-1.4118-.0755-2.6129l-.0189-.3428h4.107l3.1528 6.8862v-3.9305c0-.5722-.0189-1.2011-.0756-2.3268z"/><path d="m68.2234 23.2871c.9166 1.0124 1.3386 1.3552 2.1985 1.7545.5543.2484 1.1275.3836 1.6598.3836 1.1465 0 1.8709-.5534 1.8709-1.3929 0-.783-.4378-1.1446-2.1197-1.7357-1.4331-.4968-1.9276-.7609-2.5575-1.3332-.822-.8396-1.0866-1.5628-1.0866-2.8048 0-2.8205 2.1575-4.5939 5.6724-4.5939.9355 0 1.4898.0943 2.6363.3616l-.0378 3.4714c-.7465-.7641-1.0898-1.0125-1.7764-1.3144-.4032-.1918-.8032-.2861-1.1465-.2861-1.0519 0-1.7763.5534-1.7763 1.2986 0 .7421.4787 1.1446 1.9275 1.5628 1.4709.437 2.2551.8584 2.8662 1.5627.6677.7641.9732 1.6225.9732 2.8048 0 2.9368-2.1197 4.6316-5.6725 4.6316-1.3385 0-2.4063-.1509-3.8393-.5911z"/><path d="m1.90532 34.3929h-.45354v1.0785h.37165c.28976 0 .37795-.0345.47244-.1823.05984-.0975.08819-.1981.08819-.3679 0-.3333-.17953-.5283-.47874-.5283zm.64567 1.5408c-.16378.0754-.31496.1163-.70866.1163h-.39055v1.3018h-.714964v-3.5343h.932284c.60157 0 .78425.0597.98268.1729.33385.1824.51023.5094.51023.9151 0 .4685-.22362.8458-.61102 1.0282z"/><path d="m8.08168 36.7512c-.09134.2798-.4378.6666-1.20315.6666-.53859 0-.93859-.1635-1.13701-.4717-.11654-.1823-.15433-.327-.15433-.6666v-2.462h.72756v2.3237c0 .2201.0189.3459.05984.4213.08189.1572.24882.2453.48504.2453.31181 0 .51024-.1541.53858-.4119.00945-.0755.00945-.1289.00945-.3145v-2.2639h.72441v2.3803c.00315.3364 0 .4025-.05039.5534z"/><path d="m12.2486 35.8456c-.0882-.0251-.1417-.0314-.2771-.0314h-.4441v.9559h.4629c.1481 0 .2552-.0189.3308-.0818.107-.0817.1826-.2453.1826-.4151.0063-.198-.0976-.3804-.2551-.4276zm-.0189-1.3772c-.063-.0252-.1386-.0472-.296-.0472h-.4126v.8081h.4252c.1669 0 .2456-.0157.3055-.0471.0976-.0504.1826-.217.1826-.3616 0-.1447-.0787-.3019-.2047-.3522zm.1575 2.8739c-.1134.0063-.2583.0095-.4535.0095h-1.115v-3.5343h1.1968c.4315 0 .6552.066.8725.2547.1984.1729.2898.3773.2898.6289 0 .2389-.0819.4433-.2394.5911-.1008.0975-.1638.1321-.3276.1855.4378.1258.7024.4277.7024.8899 0 .4874-.3055.9433-.926.9747z"/><path d="m17.7226 37.3518h-1.8708v-3.5343h.7275v2.9463h1.2693z"/><path d="m20.9502 33.8175h-.7425v3.5343h.7425z"/><path d="m25.0769 37.4148c-.4882 0-.8661-.1572-1.1559-.4874-.2834-.3207-.4283-.7483-.4283-1.2672 0-.4433.0756-.7955.2393-1.1005.2772-.5125.7843-.8175 1.3575-.8175.3528 0 .7024.1132.8977.2798l-.3213.4843c-.1764-.1321-.3685-.1981-.5638-.1981-.2393 0-.4724.1163-.6015.305-.1386.2044-.1985.4999-.1985.9087 0 .4842.041.7546.1481.9465.1417.2609.3779.3961.6834.3961.2079 0 .3969-.0628.6047-.2295l.3276.4465c-.2866.2295-.589.3333-.989.3333z"/><path d="m32.5353 37.4304c-.4032 0-.8504-.1163-1.2095-.3207l.2646-.5534c.3307.1729.6173.2861.9732.2861.4094 0 .6205-.1666.6205-.4811 0-.2295-.1481-.371-.463-.4591l-.3937-.1069c-.3528-.0974-.5701-.2326-.6992-.4465-.0977-.1572-.1481-.3427-.1481-.5376 0-.6446.5197-1.0943 1.2693-1.0943.4315 0 .8725.1321 1.1811.3553l-.337.5094c-.3212-.1949-.5606-.2704-.8252-.2704-.2897 0-.4945.1698-.4945.4088 0 .1823.0977.2735.3906.3553l.4283.1163c.5796.1572.8977.5314.8977 1.0534.0094.7106-.5733 1.1854-1.4551 1.1854z"/><path d="m37.9179 37.4148c-.4882 0-.8661-.1572-1.1559-.4874-.2866-.3207-.4284-.7483-.4284-1.2672 0-.4433.0756-.7955.2394-1.1005.2772-.5125.7843-.8175 1.3575-.8175.3528 0 .7024.1132.8976.2798l-.3212.4843c-.1764-.1321-.3685-.1981-.5638-.1981-.2394 0-.4724.1163-.6016.305-.1386.2044-.1984.4999-.1984.9087 0 .4842.0409.7546.148.9465.1418.2609.378.3961.6835.3961.2079 0 .3968-.0628.6079-.2295l.3275.4465c-.2897.2295-.5889.3333-.9921.3333z"/><path d="m43.0644 33.8175v1.3741h-1.0205v-1.3741h-.7087v3.5343h.7087v-1.5785h1.0205v1.5785h.7212v-3.5343z"/><path d="m48.4723 34.7673c-.0567-.1793-.2457-.4497-.6205-.4497-.2394 0-.4504.1227-.5512.3113-.1228.2296-.1795.5408-.1795.9685 0 .61.1008.9936.3181 1.1445.1134.0818.2551.1227.422.1227.4945 0 .7024-.3742.7024-1.2767 0-.3616-.0315-.6225-.0913-.8206zm.1196 2.4777c-.2141.1164-.4126.1635-.7086.1635-.5355 0-.8819-.1478-1.1528-.4968-.2708-.3459-.4094-.7955-.4094-1.3143 0-.7641.2929-1.3741.8-1.654.211-.11.4693-.1729.7338-.1729.9418 0 1.5244.6855 1.5244 1.7954.0032.8018-.2708 1.3993-.7874 1.6791z"/><path d="m53.9116 34.7673c-.0567-.1793-.2457-.4497-.6205-.4497-.2394 0-.4504.1227-.5512.3113-.1228.2296-.1795.5408-.1795.9685 0 .61.1008.9936.315 1.1445.1134.0818.2551.1227.422.1227.4945 0 .7024-.3742.7024-1.2767.0063-.3616-.0252-.6225-.0882-.8206zm.1228 2.4777c-.2141.1164-.4126.1635-.7086.1635-.5355 0-.8819-.1478-1.1528-.4968-.2709-.3459-.4063-.7955-.4063-1.3143 0-.7641.2898-1.3741.8-1.654.2079-.11.4693-.1729.7339-.1729.9417 0 1.5244.6855 1.5244 1.7954 0 .8018-.274 1.3993-.7906 1.6791z"/><path d="m57.3635 33.8175v3.5343h1.8678l.1291-.5912h-1.2693v-2.9431z"/><path d="m62.7243 37.4304c-.4032 0-.8504-.1163-1.2095-.3207l.2646-.5534c.3307.1729.6173.2861.9732.2861.4094 0 .6205-.1666.6205-.4811 0-.2295-.1481-.371-.463-.4591l-.3906-.1069c-.3527-.0974-.5701-.2326-.6992-.4465-.0976-.1572-.148-.3427-.148-.5376 0-.6446.5197-1.0943 1.2693-1.0943.4315 0 .8724.1321 1.1811.3553l-.337.5094c-.3213-.1949-.5607-.2704-.8252-.2704-.2898 0-.4945.1698-.4945.4088 0 .1823.0976.2735.3905.3553l.4284.1163c.5795.1572.8976.5314.8976 1.0534.0032.7106-.5764 1.1854-1.4582 1.1854z"/><path d="m86.9636 13.4832c-.0095-.044-.0126-.0975-.0158-.1132 2.4788-.7232 14.1602-5.08127 15.4202-5.53406-2.5729 3.17896-4.3745 13.32896-4.1635 16.40096.0725.8742 1.43 1.3552 1.7953 1.481.0032.0283.0032.0786 0 .1101-.8063.4056-11.4614 4.2952-12.7212 4.6473-.5008-4.4807.5228-12.6686 1.3196-14.9703.1733-.7609-.4724-1.4149-1.6346-2.0218z"/><path d="m87.4833 32.7674c3.3197-.5566 12.3685-3.1098 12.9827-3.4085 0 .066-.009.1163-.009.1415-1.2855 1.1728-2.2304 2.0595-2.2146 2.7293.022 1.132.4818 5.1127.907 5.7605-.5637.0251-12.0724-.0063-12.5921-.0032-.0031-.0251 0-.0943 0-.1163.3748-.2484 1.2976-.8396 1.2913-1.72-.107-1.4967-.3307-2.8111-.3653-3.3833z"/><path d="m109.001 5.41469c1.393-.63831 13.808-5.027837 14.53-5.247942-.004.034588-.013.097474-.019.147784-1.194.852118-3.125 2.285948-3.663 3.600298-.75 1.54702-2.829 8.54327-2.977 10.60907.01 1.0282 2.139.6949 2.567.7704.003.0157.01.0314.029.0629-.778.6288-10.608 6.3767-15.059 8.3577.643-7.9427 3.09-16.52365 4.592-18.30021z"/><path d="m104.497 28.1451c1.556-.4434 14.325-6.1095 15.925-7.0686.003.0378.028.1415.041.2076-.995 1.1602-3.959 3.5248-3.959 5.4837-.038 2.962 1.231 8.1093 1.565 9.4425.482.8585 1.811 1.4087 2.239 1.6383.004.0283 0 .0974 0 .1257-1.754.0566-14.059-.0125-14.507-.0125-.33-.6383-1.527-9.2916-1.304-9.8167z"/><path d="m87.2817 30.4595c.0567.4999.1638 1.852.1889 2.3237-.9448.2484-10.9133 1.8363-15.0488 1.6539-.0157-.1698 0-.3333-.0189-.5377 2.1638-.3302 10.2488-1.8457 14.8788-3.4399z"/><path d="m136.904 7.94266s.39-4.27634 1.112-7.94266c-.662.811245-2.624 2.54064-4.712 4.44927l-5.471-3.949317.926 7.958377c-2.239 1.90237-4.325 3.55937-5.506 4.27947l6.193-.0189 1.335 6.8296 3.726-7.1629 6.23.1101z"/></g></svg>