<svg fill="none" height="24" viewBox="0 0 24 24" width="24" xmlns="http://www.w3.org/2000/svg" xmlns:xlink="http://www.w3.org/1999/xlink"><clipPath id="a"><path d="m0 0h24v24h-24z"/></clipPath><g clip-path="url(#a)"><path d="m5.31891 14.5035-.83541 3.1187-3.05339.0646c-.912516-1.6925-1.43011-3.629-1.43011-5.6868 0-1.9899.483938-3.86638 1.34175-5.51868h.00066l2.71837.49838 1.19081 2.70206c-.24923.72664-.38507 1.50664-.38507 2.31824.00009.8809.15965 1.7249.45239 2.5035z" fill="#fbbb00"/><path d="m23.7902 9.75824c.1378.72586.2097 1.47556.2097 2.24176 0 .8591-.0904 1.6971-.2624 2.5055-.5842 2.7508-2.1106 5.1527-4.2251 6.8525l-.0006-.0006-3.424-.1747-.4846-3.0251c1.4031-.8229 2.4996-2.1106 3.0772-3.6521h-6.4167v-4.74726h6.5103z" fill="#518ef8"/><path d="m19.5124 21.3574.0007.0006c-2.0565 1.653-4.6688 2.642-7.5125 2.642-4.56994 0-8.54311-2.5543-10.56994-6.3132l3.8888-3.1833c1.01339 2.7046 3.62241 4.6299 6.68114 4.6299 1.3147 0 2.5463-.3554 3.6032-.9758z" fill="#28b446"/><path d="m19.6596 2.76262-3.8875 3.18263c-1.0938-.68372-2.3868-1.07869-3.7721-1.07869-3.12787 0-5.78569 2.01361-6.74831 4.81519l-3.90924-3.20044h-.00065c1.99715-3.85054 6.02044-6.48131 10.6582-6.48131 2.9117 0 5.5814 1.03716 7.6596 2.76262z" fill="#f14336"/></g></svg>