<svg fill="none" height="40" viewBox="0 0 84 40" width="84" xmlns="http://www.w3.org/2000/svg"><path d="m64.792 14.4104c-7.7042 0-26.7053.0078-26.7053.0078v-14.3763413s20.2728-.0722847 28.5933-.0268784c21.0456 1.1991197 24.9621 37.5115197.2529 39.9850197-5.9605 0-28.8462-.1673-28.8462-.1673v-13.7113h26.8513c7.1186 0 7.1186-11.7032-.146-11.711z" fill="#576472"/><path d="m35.8401 39.8291v-13.7328h-35.84011907v13.7328z" fill="#949ca5"/><g fill="#576472"><path d="m37.2057 21.5938v-1.5775h-1.6627v1.5775z"/><path d="m4.19719 19.1644 2.49184-2.9987h1.71185v8.0826h-1.94171v-5.0433l-2.11426 2.5369h-.29603l-2.09299-2.5369v5.0433h-1.9411214v-8.0826h1.7159914z"/><path d="m12.1112 24.2483v-8.0826h-1.9416v8.0826z"/><path d="m18.48 16.1657 3.4485 8.0826h-2.0847l-.6382-1.5875h-3.497l-.5791 1.5875h-2.0628l3.1483-8.0826zm.1554 5.0749-1.2616-3.1403-1.1464 3.1403z"/><path d="m27.0421 19.1644 2.4913-2.9987h1.7118v8.0826h-1.9417v-5.0433l-2.1142 2.5369h-.2961l-2.0924-2.5369v5.0433h-1.9417v-8.0826h1.7166z"/><path d="m34.9556 24.2483v-8.0826h-1.9417v8.0826z"/><path d="m38.1026 16.1705h3.4285c1.3218 0 2.3683.3776 3.14 1.131.7712.754 1.157 1.7291 1.157 2.9246 0 1.2541-.3906 2.2387-1.1717 2.9539-.7806.7158-1.8951 1.0731-3.3422 1.0731h-3.2116zm1.9418 1.4829v5.1167h1.258c.816 0 1.44-.2336 1.8732-.702.4325-.4684.6488-1.0862.6488-1.8533 0-.7941-.2193-1.419-.6577-1.8761-.4379-.4571-1.0672-.6853-1.8868-.6853z"/><path d="m50.2794 16.1705 3.4485 8.0826h-2.0847l-.6382-1.5869h-3.4969l-.5791 1.5869h-2.0629l3.1489-8.0826zm.156 5.0749-1.2622-3.1403-1.1463 3.1403z"/><path d="m53.7557 16.1705h3.4284c1.3219 0 2.3684.3776 3.1395 1.131.7717.754 1.1576 1.7291 1.1576 2.9246 0 1.2541-.3912 2.2387-1.1718 2.9539-.7811.7158-1.8956 1.0731-3.3421 1.0731h-3.2116zm1.9417 1.4829v5.1167h1.2575c.816 0 1.4406-.2336 1.8731-.702.4326-.4684.6489-1.0862.6489-1.8533 0-.7941-.2193-1.419-.6577-1.8761-.4379-.4571-1.0666-.6853-1.8868-.6853z"/><path d="m67.7595 22.7701v1.483h-5.7424v-8.0826h5.6597v1.4829h-3.718v1.6914h3.5531v1.483h-3.5531v1.9423z"/></g><g fill="#fff"><path d="m5.8772 34.8766v1.7506c-.61159.5317-1.2539.7976-1.92635.7976-.86685 0-1.55762-.3961-2.0723-1.189-.51527-.7922-.77231-1.7697-.77231-2.9305 0-1.1615.27004-2.1467.81131-2.9569.54067-.8096 1.24976-1.2153 2.12726-1.2153.69844 0 1.28875.2348 1.77093.7044v1.7811c-.59149-.5431-1.15226-.8143-1.6823-.8143-.51882 0-.94367.2318-1.27281.6942-.33031.4624-.49459 1.0522-.49459 1.7685 0 .7206.1631 1.3151.48927 1.7841.32618.4684.74336.7026 1.25213.7026.25055 0 .49222-.0538.72563-.1619.23341-.1082.58145-.3466 1.04413-.7152z"/><path d="m9.44733 29.1331c.83787 0 1.51507.4159 2.03157 1.247.5164.8316.7746 1.7989.7746 2.9019 0 1.119-.2623 2.0887-.7859 2.9108-.5241.8215-1.1977 1.232-2.02027 1.232-.83081 0-1.50739-.4087-2.02916-1.2272-.52236-.8173-.78294-1.7894-.78294-2.9156 0-1.1072.25881-2.0751.77704-2.9049.51822-.8293 1.19657-1.244 2.03506-1.244zm0 6.6206c.46386 0 .83727-.2271 1.12097-.6823.2836-.4553.4248-1.0528.4248-1.7924 0-.7433-.1412-1.342-.4248-1.7954-.2837-.4529-.65711-.6793-1.12097-.6793-.46445 0-.83908.2264-1.12449.6793-.2854.4534-.42781 1.0521-.42781 1.7954 0 .7396.14241 1.3371.42781 1.7924.28541.4552.66004.6823 1.12449.6823z"/><path d="m16.7521 29.2586h1.2185v4.5766c0 1.1776-.2116 2.0702-.6347 2.6779-.423.6076-1.0269.9117-1.8128.9117-.7741 0-1.3757-.3077-1.8047-.9231-.4284-.6154-.6429-1.5008-.6429-2.6551v-4.588h1.2185v4.6364c0 .5616.1122 1.0121.3362 1.3508.2245.3388.517.5079.8787.5079.3764 0 .6777-.1727.9035-.5192.2263-.3465.3397-.8395.3397-1.4781z"/><path d="m23.9783 29.2587v8.0407h-1.017l-2.7016-5.1513v5.1513h-1.2184v-8.0407h1.118l2.5999 4.9154v-4.9154z"/><path d="m29.5162 29.2587v1.4829h-1.7768v6.5578h-1.2185v-6.5578h-1.7762v-1.4829z"/><path d="m31.6169 37.2994v-3.7055l-1.921-4.3352h1.4725l1.0578 2.5273 1.0778-2.5273h1.4731l-1.9417 4.2874v3.7533z"/></g></svg>