<svg fill="none" height="28" viewBox="0 0 173 28" width="173" xmlns="http://www.w3.org/2000/svg"><g fill="#576472"><path d="m14.6983 18.9867-1.8826-6.2304-4.12708 4.2642-1.59292-5.3777 10.8366-11.2053c-12.62259 0-17.039306 5.87511-15.83255 10.7789l2.38937 9.2155c1.25502 4.3351-3.25823 6.5857-4.48912 7.1069 2.38937.071 4.24777-.0474 5.91309-.5686 3.18584-.8765 5.28561-3.0323 8.78521-7.9835z"/><path d="m26.6692 7.56813c-1.2551-4.33525 3.2582-6.585798 4.4892-7.10698-2.3895-.07107-4.2478.04738-5.9132.56856-3.2099.87653-5.3097 3.03232-8.8092 7.98355l1.8824 6.23044 4.1271-4.2642 1.5929 5.3776-10.8366 11.1817c12.6226 0 17.0394-5.8751 15.8327-10.779z" opacity=".64"/><path d="m42.0192 8.72906v5.33024h7.8197v1.8715h-7.8197v6.183h-2.2205v-15.27994h11.0056v1.8952z"/><path d="m52.9283 7.92345c0-.75807.6275-1.37401 1.4481-1.37401s1.4481.59224 1.4481 1.32663c0 .78177-.6033 1.39767-1.4481 1.39767-.8206 0-1.4481-.59221-1.4481-1.35029zm.362 2.62965h2.1481v11.5844h-2.1481z"/><path d="m65.7439 10.4347v2.0373c-.1689-.0237-.3378-.0237-.4826-.0237-2.2929 0-3.7168 1.374-3.7168 3.9089v5.7804h-2.1481v-11.5844h2.0515v1.9426c.7723-1.3741 2.2205-2.0611 4.296-2.0611z"/><path d="m78.4873 17.0442h-9.5816c.2656 2.0373 1.9308 3.3876 4.2719 3.3876 1.3757 0 2.5342-.4501 3.403-1.3977l1.1827 1.3504c-1.0619 1.2318-2.7031 1.8714-4.658 1.8714-3.8134 0-6.3476-2.4637-6.3476-5.9224 0-3.4351 2.5101-5.8988 5.9131-5.8988 3.4031 0 5.8407 2.4164 5.8407 5.9699.0241.1658 0 .4263-.0242.6396zm-9.5816-1.5161h7.5784c-.2172-1.9426-1.7136-3.3166-3.7892-3.3166-2.0515 0-3.5478 1.3503-3.7892 3.3166z"/><path d="m95.5021 6.83386v15.30374h-3.5954v-6.2779h-7.072v6.2779h-3.6202v-15.30374h3.6202v6.04094h7.072v-6.04094z"/><path d="m110.756 10.3635-5.406 12.4846c-1.159 2.8428-2.8 3.6957-4.972 3.6957-1.2315 0-2.5587-.4028-3.3311-1.0661l1.2791-2.4163c.5313.4501 1.2792.7343 1.955.7343.966 0 1.496-.4263 1.955-1.4687l.048-.1185-5.1882-11.845h3.5952l3.331 7.9835 3.379-7.9835z"/><path d="m123.934 5.90991v16.22759h-3.331v-1.3503c-.869 1.0187-2.148 1.5399-3.741 1.5399-3.379 0-5.986-2.369-5.986-6.0647 0-3.6956 2.607-6.0646 5.986-6.0646 1.473 0 2.727.4501 3.596 1.4214v-5.70929zm-3.404 10.32879c0-2.0373-1.327-3.2692-3.04-3.2692-1.738 0-3.065 1.2319-3.065 3.2692 0 2.0374 1.327 3.2693 3.065 3.2693 1.689 0 3.04-1.2319 3.04-3.2693z"/><path d="m134.48 10.1976v3.1508c-.289-.0237-.506-.0473-.772-.0473-1.906 0-3.186 1.0187-3.186 3.2692v5.5434h-3.475v-11.7502h3.33v1.5636c.822-1.1372 2.245-1.7295 4.103-1.7295z"/><path d="m146.958 15.4095v6.7042h-3.258v-1.4688c-.652 1.0661-1.882 1.6346-3.644 1.6346-2.8 0-4.465-1.5398-4.465-3.5534 0-2.0847 1.496-3.5298 5.14-3.5298h2.752c0-1.4688-.893-2.3216-2.752-2.3216-1.279 0-2.582.4264-3.451 1.0897l-1.255-2.3927c1.304-.9239 3.258-1.4214 5.165-1.4214 3.669.0474 5.768 1.7057 5.768 5.2592zm-3.475 3.0086v-1.2082h-2.389c-1.618 0-2.149.5922-2.149 1.3741 0 .8527.725 1.4213 1.956 1.4213 1.182 0 2.196-.5211 2.582-1.5872z"/><path d="m162.26 15.3858v6.728h-3.476v-6.1831c0-1.8953-.893-2.7718-2.437-2.7718-1.666 0-2.872.995-2.872 3.1744v5.8041h-3.475v-11.7739h3.33v1.374c.941-.995 2.341-1.5635 3.958-1.5635 2.823.0237 4.972 1.6346 4.972 5.2118z"/><path d="m173 21.5689c-.724.4975-1.761.7344-2.824.7344-2.824 0-4.489-1.4214-4.489-4.2168v-4.8327h-1.859v-2.6297h1.859v-2.86641h3.5v2.86641h2.993v2.6297h-2.993v4.7853c0 .995.555 1.5636 1.496 1.5636.507 0 1.013-.1422 1.4-.4265z"/></g></svg>