<svg fill="none" height="28" viewBox="0 0 175 28" width="175" xmlns="http://www.w3.org/2000/svg"><path d="m46.9575 22.12v-13.46804h-3.647v1.48404c-1.1832-.79803-2.7283-1.65204-4.4962-1.72204-6.2779-.266-9.9667 4.22804-9.9667 9.53404 0 5.124 3.6749 9.422 9.8832 9.534 3.2155.056 6.1387-2.576 6.1387-2.576l2.4778 2.464 2.3942-2.492zm-7.9344 1.778c-3.9254.364-6.6816-2.758-6.6816-5.866 0-3.15 2.5752-6.538 6.793-5.978 1.7678.238 3.299 1.4 4.176 2.576v6.65c-.9187 1.26-2.5195 2.45-4.2874 2.618zm86.3319-1.778v-13.62204h-3.647v1.63804c-1.183-.79803-2.728-1.65204-4.496-1.72204-6.278-.266-9.967 4.22804-9.967 9.53404 0 5.124 3.675 9.422 9.883 9.534 3.216.056 6.139-2.576 6.139-2.576l2.478 2.464 2.394-2.492zm-7.934 1.778c-3.926.364-6.682-2.758-6.682-5.866 0-3.15 2.575-6.538 6.793-5.978 1.768.238 3.299 1.4 4.176 2.576v6.65c-.919 1.26-2.52 2.45-4.287 2.618zm-107.0592 3.57c6.0831 0 9.8832-4.41 9.8832-9.534 0-5.306-3.7027-9.80004-9.9667-9.53404-1.76782.07-3.32686.92401-4.49614 1.72204v-8.80604h-3.66096v20.80404s2.14368 5.348 8.2406 5.348zm-4.59356-6.188v-6.65c.87696-1.176 2.40816-2.338 4.176-2.576 4.21776-.56 6.79296 2.842 6.79296 5.978 0 3.108-2.7562 6.244-6.6816 5.866-1.76784-.168-3.36864-1.358-4.28736-2.618zm90.22946 6.188c6.0833 0 9.8833-4.41 9.8833-9.534 0-5.306-3.703-9.80004-9.9668-9.53404-1.7679.07-3.3269.92401-4.4962 1.72204v-8.80604h-3.647v20.80404s2.1436 5.348 8.2267 5.348zm-4.5936-6.188v-6.65c.8769-1.176 2.4082-2.338 4.176-2.576 4.2177-.56 6.7929 2.842 6.7929 5.978 0 3.108-2.7561 6.244-6.6816 5.866-1.7678-.168-3.3686-1.358-4.2873-2.618zm76.0729.84v-20.80404h-3.647v8.80604c-1.183-.79803-2.728-1.65204-4.496-1.72204-6.278-.266-9.967 4.22804-9.967 9.53404 0 5.124 3.786 9.534 9.883 9.534 6.083 0 8.227-5.348 8.227-5.348zm-7.935 1.778c-3.925.364-6.681-2.758-6.681-5.866 0-3.15 2.575-6.538 6.793-5.978 1.768.238 3.299 1.4 4.176 2.576v6.65c-.905 1.26-2.506 2.45-4.288 2.618zm-133.1304-22.58204v25.90004h-3.7166v-25.90004zm33.0182 26.18004c-5.039 0-9.4795-4.074-9.4934-9.534-.0139-5.502 4.4405-9.59004 9.4934-9.59004 3.0346 0 5.3314 1.31601 6.9183 3.02404 0 0-2.4778 2.338-2.7005 2.506-.4872-.602-2.1019-1.848-4.2178-1.848-3.1459 0-5.8464 2.576-5.8324 5.894.0139 3.29 2.7283 5.866 5.8324 5.852 2.1298-.014 3.6888-1.148 4.3709-1.974l2.5613 2.646c-1.5869 1.75-4.1203 3.024-6.9322 3.024zm79.1772-3.654c2.102 0 3.271-.91 4.245-1.792v-13.58004h3.675v13.58004l2.631 2.688-2.394 2.492-1.949-1.918s-2.505 2.226-6.222 2.226c-6.181 0-9.563-5.264-9.563-9.618v-9.45004h3.675v9.11404c.014 2.856 2.004 6.258 5.902 6.258zm-69.6698-22.55404h3.7167v25.92804h-3.7167zm12.6394 7.364h4.6353l-8.3798 9.52004 9.2289 9.03h-5.039l-8.8114-9.016zm89.8114-7.322c1.128 0 2.088.896 2.088 2.086 0 1.204-.946 2.1-2.088 2.1-1.141 0-2.102-.896-2.102-2.1.014-1.176.961-2.086 2.102-2.086zm0 3.878c.961 0 1.713-.77 1.713-1.792 0-.994-.752-1.778-1.713-1.778-.974 0-1.712.77-1.712 1.778 0 1.022.738 1.792 1.712 1.792zm-.807-3.01h.933c.584 0 .849.224.849.7 0 .448-.279.63-.641.672l.696 1.078h-.403l-.668-1.05h-.404v1.05h-.376v-2.45zm.376 1.092h.39c.334 0 .64-.014.64-.406 0-.322-.278-.378-.529-.378h-.501z" fill="#576472"/></svg>