<svg fill="none" height="50" viewBox="0 0 150 50" width="150" xmlns="http://www.w3.org/2000/svg"><g fill="#fff"><path d="m0 39.6123 1.51268-2.9043c1.59961.9419 3.09491 1.4129 4.48587 1.4129 1.18233 0 1.77349-.3227 1.77349-.9681 0-.5408-.74765-.9856-2.24294-1.3345-1.70393-.4012-2.94711-.9507-3.72953-1.6484s-1.173634-1.6135-1.173634-2.7474c0-1.221.452064-2.1891 1.356194-2.9043.92152-.7327 2.21686-1.099 3.88602-1.099 2.05168 0 3.94688.5408 5.68555 1.6223l-1.5126 2.7997c-.50427-.3489-1.1302-.6367-1.87785-.8635-.74764-.2268-1.43444-.3401-2.06037-.3401-1.02584 0-1.53876.2791-1.53876.8373 0 .2965.15648.5407.46945.7326.33036.1919.9389.3925 1.82565.6018 3.30358.7501 4.95528 2.1892 4.95528 4.3173 0 1.3083-.5216 2.3549-1.5648 3.1398-1.04322.7676-2.44288 1.1513-4.19898 1.1513-2.17339 0-4.1903-.6018-6.05072-1.8054z"/><path d="m12.631 31.03v-3.3753h2.2168l.0783-3.2445h4.0947v3.2445h3.3383v3.3753h-3.3383v4.7622c0 1.1687.5042 1.753 1.5126 1.753.4869 0 1.0259-.1221 1.617-.3663l.9129 3.5062c-1.0433.471-2.156.7065-3.3384.7065-1.6344 0-2.8688-.4361-3.7034-1.3083-.8346-.8896-1.2519-2.1805-1.2519-3.8725v-5.1808z"/><path d="m25.7402 33.8036c1.0432-.8024 2.4777-1.2036 4.3033-1.2036 1.0432 0 2.0952.1395 3.1558.4186v-.3401c0-.7152-.2348-1.2385-.7042-1.57-.4521-.3314-1.1823-.4971-2.1908-.4971-1.2345 0-2.6428.3401-4.2251 1.0204l-1.0171-2.9566c1.9126-.8722 3.8512-1.3083 5.816-1.3083 1.9995 0 3.5383.471 4.6163 1.4129 1.078.942 1.617 2.2677 1.617 3.9772v8.3991h-3.6774l-.0782-1.6484c-1.2171 1.221-2.7472 1.8315-4.5902 1.8315-1.391 0-2.5125-.3837-3.3645-1.1512-.8345-.785-1.2518-1.8055-1.2518-3.0614 0-1.4129.5303-2.5206 1.5909-3.323zm2.5037 3.1137c0 .9768.6086 1.4652 1.8257 1.4652.8693 0 1.5996-.2442 2.1908-.7326.5911-.5059.9215-1.1338.991-1.8839-1.0258-.2966-1.9126-.4448-2.6602-.4448-1.5648 0-2.3473.532-2.3473 1.5961z"/><path d="m38.7117 31.03v-3.3753h2.2168l.0783-3.2445h4.0946v3.2445h3.3384v3.3753h-3.3384v4.7622c0 1.1687.5043 1.753 1.5127 1.753.4868 0 1.0258-.1221 1.617-.3663l.9128 3.5062c-1.0432.471-2.156.7065-3.3383.7065-1.6344 0-2.8689-.4361-3.7034-1.3083-.8346-.8896-1.2519-2.1805-1.2519-3.8725v-5.1808z"/><path d="m51.0596 27.6547h4.2512v7.3002c0 1.7618.7476 2.6427 2.2429 2.6427.8346 0 1.4779-.2617 1.93-.785.4694-.5233.7042-1.2298.7042-2.1194v-7.0385h4.2511v13.5014h-3.886l-.0522-1.8316c-1.1823 1.3606-2.6602 2.0409-4.4337 2.0409-1.53 0-2.7471-.4884-3.6513-1.4653-.9041-.9768-1.3562-2.2502-1.3562-3.8201z"/><path d="m66.7299 39.6123 1.5126-2.9043c1.5996.9419 3.0949 1.4129 4.4859 1.4129 1.1823 0 1.7735-.3227 1.7735-.9681 0-.5408-.7477-.9856-2.243-1.3345-1.7039-.4012-2.9471-.9507-3.7295-1.6484s-1.1736-1.6135-1.1736-2.7474c0-1.221.4521-2.1891 1.3562-2.9043.9215-.7327 2.2168-1.099 3.886-1.099 2.0517 0 3.9469.5408 5.6856 1.6223l-1.5127 2.7997c-.5042-.3489-1.1302-.6367-1.8778-.8635s-1.4344-.3401-2.0604-.3401c-1.0258 0-1.5387.2791-1.5387.8373 0 .2965.1564.5407.4694.7326.3304.1919.9389.3925 1.8257.6018 3.3035.7501 4.9553 2.1892 4.9553 4.3173 0 1.3083-.5216 2.3549-1.5648 3.1398-1.0433.7676-2.4429 1.1513-4.199 1.1513-2.1734 0-4.1903-.6018-6.0507-1.8054z"/><path d="m79.7926 45.4995c0-1.1164.3912-2.0496 1.1736-2.7997-.5738-.5756-.8606-1.2995-.8606-2.1717 0-1.3257.6085-2.4072 1.8256-3.2445-.7998-.9943-1.1997-2.2066-1.1997-3.637 0-1.8316.5999-3.2881 1.7996-4.3696s2.8254-1.6223 4.8771-1.6223h8.0589v3.2445h-2.4516c.7129.8199 1.0693 1.8403 1.0693 3.0614 0 1.6746-.6085 3.0177-1.8256 4.0295-1.2171 1.0117-2.8341 1.5176-4.851 1.5176-1.0607 0-2.0169-.1483-2.8689-.4449-.3999.2443-.5999.5495-.5999.9158 0 .4187.2869.7152.8607.8897.5912.1569 1.7387.2703 3.4426.3401 2.469.0872 4.286.4623 5.4509 1.1251 1.1649.6803 1.7474 1.6833 1.7474 3.009 0 1.4653-.6694 2.6079-2.0082 3.4277-1.3388.8199-3.1905 1.2298-5.5552 1.2298-2.6428 0-4.651-.3838-6.0246-1.1513s-2.0604-1.8839-2.0604-3.3492zm4.9032-11.8529c0 .785.2521 1.4304.7563 1.9362.5042.5059 1.1476.7588 1.93.7588.7998 0 1.4518-.2529 1.956-.7588.5043-.5058.7564-1.1512.7564-1.9362 0-.7675-.2521-1.4042-.7564-1.9101-.5042-.5059-1.1562-.7588-1.956-.7588-.7824 0-1.4258.2529-1.93.7588s-.7563 1.1426-.7563 1.9101zm-1.3041 11.4605c0 1.0989 1.4171 1.6484 4.2512 1.6484 2.5907 0 3.886-.4012 3.886-1.2036 0-.3663-.2695-.6367-.8085-.8112-.539-.1744-1.4605-.2703-2.7646-.2878-1.6865-.0523-3.0514-.1919-4.0946-.4186-.313.3488-.4695.7064-.4695 1.0728z"/><path d="m97.7167 33.8036c1.0433-.8024 2.4773-1.2036 4.3033-1.2036 1.043 0 2.095.1395 3.156.4186v-.3401c0-.7152-.235-1.2385-.704-1.57-.452-.3314-1.183-.4971-2.191-.4971-1.235 0-2.643.3401-4.2252 1.0204l-1.0171-2.9566c1.9125-.8722 3.8513-1.3083 5.8163-1.3083 1.999 0 3.538.471 4.616 1.4129 1.078.942 1.617 2.2677 1.617 3.9772v8.3991h-3.677l-.079-1.6484c-1.217 1.221-2.747 1.8315-4.59 1.8315-1.3909 0-2.5123-.3837-3.3643-1.1512-.8346-.785-1.2519-1.8055-1.2519-3.0614 0-1.4129.5303-2.5206 1.5909-3.323zm2.5033 3.1137c0 .9768.609 1.4652 1.826 1.4652.869 0 1.6-.2442 2.191-.7326.591-.5059.921-1.1338.991-1.8839-1.026-.2966-1.913-.4448-2.66-.4448-1.565 0-2.348.532-2.348 1.5961z"/><path d="m110.688 31.03v-3.3753h2.217l.078-3.2445h4.095v3.2445h3.338v3.3753h-3.338v4.7622c0 1.1687.504 1.753 1.513 1.753.486 0 1.025-.1221 1.617-.3663l.912 3.5062c-1.043.471-2.156.7065-3.338.7065-1.634 0-2.869-.4361-3.703-1.3083-.835-.8896-1.252-2.1805-1.252-3.8725v-5.1808z"/><path d="m124.039 29.277c1.373-1.3083 3.182-1.9625 5.425-1.9625 2.225 0 4.025.6542 5.398 1.9625 1.391 1.3082 2.087 3.0177 2.087 5.1284s-.696 3.8201-2.087 5.1284c-1.373 1.3083-3.173 1.9624-5.398 1.9624-2.243 0-4.06-.6541-5.451-1.9624-1.374-1.3083-2.061-3.0177-2.061-5.1284s.696-3.8202 2.087-5.1284zm3.025 7.6141c.609.628 1.409.942 2.4.942.973 0 1.764-.314 2.373-.942s.913-1.4565.913-2.4857c0-1.0117-.304-1.8316-.913-2.4596-.609-.6454-1.4-.9681-2.373-.9681-.974 0-1.774.3227-2.4.9681-.608.628-.913 1.4479-.913 2.4596 0 1.0292.305 1.8577.913 2.4857z"/><path d="m143.38 27.6547.052 1.8316c1.026-1.3432 2.399-2.0148 4.121-2.0148.66 0 1.295.1047 1.904.314l-.939 3.951c-.574-.1744-1.131-.2616-1.67-.2616-2.069 0-3.103 1.2646-3.103 3.7939v5.8873h-4.251v-13.5014z"/><path clip-rule="evenodd" d="m67.7298 1.98582c-.9181-.86299-1.7864-1.679051-3.3421-1.9254837-1.9058-.3019073-3.22.5825157-4.5342 1.4669337-.7201.4846-1.4402.9692-2.2576 1.25863-1.2279.43477-2.3237.77078-3.3394 1.08218-3.4816 1.06746-6.0203 1.84586-9.7009 5.32291-3.9525 3.73391-6.0578 8.75721-6.947 11.35911-.2273.6651.4654 1.2427 1.1162.9821 1.08-.4326 2.5023-.8938 3.6574-.8938 1.1824 0 2.7592 1.1835 4.1742 2.2455 1.1859.8901 2.2581 1.6949 2.8893 1.6462.5481-.0423 1.1617-.2422 1.7961-.4488 1.4092-.4591 2.9208-.9515 4.0449.1763.6526.5179.9317 1.4766 1.1858 2.3499.2859.9821.5403 1.8562 1.2592 1.8747.7655 0 .9254-.6865 1.1218-1.5299.2219-.9526.4904-2.1053 1.7308-2.6947 1.4763-.7016 2.2415-.2885 3.1345.1937.6682.3608 1.4079.7602 2.5707.7602 1.9892 0 2.7745-.5116 3.5326-1.0054.743-.4841 1.46-.9511 3.2592-.9025 1.9663.0531 3.0211.7875 4.043 1.4989.9945.6923 1.9578 1.363 3.6997 1.363 1.496.0155 2.5296-.7291 3.6159-1.5116 1.1823-.8518 2.4271-1.7485 4.3985-1.7591 2.5532-.0138 3.563.3795 5.0898.9742.7059.275 1.5223.593 2.6529.9337.8398.2531 1.5642.0008 2.4499-.3077.8531-.2971 1.856-.6463 3.255-.6463 1.875 0 2.229-.6309 2.672-1.4227.231-.4127.487-.8693.996-1.3029 3.48-2.9671 4.95-10.3731 5.14-11.40356.015-.082.04-.15553.076-.23074.357-.74867 2.276-5.07495-.326-6.56662-2.667-1.44907-4.375.29636-5.99 1.9466-.359.36732-.714.72992-1.074 1.05153-.824.73662-6.5023 1.06647-6.9048 1.08898-.004.00023-.007.00042-.0096.00058-.0076.00049-.0106.00068-.0229.00059-.519-.00389-20.9865-.17774-27.0215-3.40689-.8595-.4599-1.4863-1.04902-2.0914-1.61775zm-5.8259 2.26286c.9339-.02675 2.5034.01148 3.5232.48085 1.3333.61363 2.5286 2.33298 3.134 3.32533.206.33768-.0287.74687-.4233.73959-1.1249-.02076-3.1128-.17252-4.2849-.93285-.9931-.64421-1.884-2.03883-2.3602-2.8816-.1863-.32967.0336-.72051.4112-.73132z" fill-rule="evenodd"/></g></svg>